%TF.GenerationSoftware,KiCad,Pcbnew,(5.1.4)-1*%
%TF.CreationDate,2020-08-01T17:07:42-05:00*%
%TF.ProjectId,rascsi_2p1,72617363-7369-45f3-9270-312e6b696361,rev?*%
%TF.SameCoordinates,Original*%
%TF.FileFunction,Soldermask,Bot*%
%TF.FilePolarity,Negative*%
%FSLAX46Y46*%
G04 Gerber Fmt 4.6, Leading zero omitted, Abs format (unit mm)*
G04 Created by KiCad (PCBNEW (5.1.4)-1) date 2020-08-01 17:07:42*
%MOMM*%
%LPD*%
G04 APERTURE LIST*
%ADD10C,0.050000*%
%ADD11C,4.945000*%
%ADD12C,1.645000*%
%ADD13O,1.800000X1.800000*%
%ADD14R,1.800000X1.800000*%
%ADD15C,0.900000*%
%ADD16C,5.500000*%
G04 APERTURE END LIST*
D10*
X178000000Y-98496000D02*
X236000000Y-98496000D01*
X178000000Y-98496000D02*
G75*
G02X174500000Y-94996000I0J3500000D01*
G01*
X239500000Y-94996000D02*
G75*
G02X236000000Y-98496000I-3500000J0D01*
G01*
X174500000Y-46000000D02*
X174500000Y-94996000D01*
X239500000Y-46000000D02*
X239500000Y-94996000D01*
X178000000Y-42500000D02*
X236000000Y-42500000D01*
X174500000Y-46000000D02*
G75*
G02X178000000Y-42500000I3500000J0D01*
G01*
X236000000Y-42500000D02*
G75*
G02X239500000Y-46000000I0J-3500000D01*
G01*
D11*
%TO.C,J5*%
X230491500Y-89090500D03*
X183451500Y-89090500D03*
D12*
X222206500Y-90510500D03*
X219436500Y-90510500D03*
X216666500Y-90510500D03*
X213896500Y-90510500D03*
X211126500Y-90510500D03*
X208356500Y-90510500D03*
X205586500Y-90510500D03*
X202816500Y-90510500D03*
X200046500Y-90510500D03*
X197276500Y-90510500D03*
X194506500Y-90510500D03*
X191736500Y-90510500D03*
X223591500Y-87670500D03*
X220821500Y-87670500D03*
X218051500Y-87670500D03*
X215281500Y-87670500D03*
X212511500Y-87670500D03*
X209741500Y-87670500D03*
X206971500Y-87670500D03*
X204201500Y-87670500D03*
X201431500Y-87670500D03*
X198661500Y-87670500D03*
X195891500Y-87670500D03*
X193121500Y-87670500D03*
X190351500Y-87670500D03*
%TD*%
D13*
%TO.C,J3*%
X237426500Y-80454500D03*
X237426500Y-82994500D03*
X234886500Y-80454500D03*
X234886500Y-82994500D03*
X232346500Y-80454500D03*
X232346500Y-82994500D03*
X229806500Y-80454500D03*
X229806500Y-82994500D03*
X227266500Y-80454500D03*
X227266500Y-82994500D03*
X224726500Y-80454500D03*
X224726500Y-82994500D03*
X222186500Y-80454500D03*
X222186500Y-82994500D03*
X219646500Y-80454500D03*
X219646500Y-82994500D03*
X217106500Y-80454500D03*
X217106500Y-82994500D03*
X214566500Y-80454500D03*
X214566500Y-82994500D03*
X212026500Y-80454500D03*
X212026500Y-82994500D03*
X209486500Y-80454500D03*
X209486500Y-82994500D03*
X206946500Y-80454500D03*
X206946500Y-82994500D03*
X204406500Y-80454500D03*
X204406500Y-82994500D03*
X201866500Y-80454500D03*
X201866500Y-82994500D03*
X199326500Y-80454500D03*
X199326500Y-82994500D03*
X196786500Y-80454500D03*
X196786500Y-82994500D03*
X194246500Y-80454500D03*
X194246500Y-82994500D03*
X191706500Y-80454500D03*
X191706500Y-82994500D03*
X189166500Y-80454500D03*
X189166500Y-82994500D03*
X186626500Y-80454500D03*
X186626500Y-82994500D03*
X184086500Y-80454500D03*
X184086500Y-82994500D03*
X181546500Y-80454500D03*
X181546500Y-82994500D03*
X179006500Y-80454500D03*
X179006500Y-82994500D03*
X176466500Y-80454500D03*
D14*
X176466500Y-82994500D03*
%TD*%
D13*
%TO.C,J2*%
X204597000Y-66230500D03*
D14*
X202057000Y-66230500D03*
%TD*%
D13*
%TO.C,J1*%
X231140000Y-47270000D03*
X231140000Y-44730000D03*
X228600000Y-47270000D03*
X228600000Y-44730000D03*
X226060000Y-47270000D03*
X226060000Y-44730000D03*
X223520000Y-47270000D03*
X223520000Y-44730000D03*
X220980000Y-47270000D03*
X220980000Y-44730000D03*
X218440000Y-47270000D03*
X218440000Y-44730000D03*
X215900000Y-47270000D03*
X215900000Y-44730000D03*
X213360000Y-47270000D03*
X213360000Y-44730000D03*
X210820000Y-47270000D03*
X210820000Y-44730000D03*
X208280000Y-47270000D03*
X208280000Y-44730000D03*
X205740000Y-47270000D03*
X205740000Y-44730000D03*
X203200000Y-47270000D03*
X203200000Y-44730000D03*
X200660000Y-47270000D03*
X200660000Y-44730000D03*
X198120000Y-47270000D03*
X198120000Y-44730000D03*
X195580000Y-47270000D03*
X195580000Y-44730000D03*
X193040000Y-47270000D03*
X193040000Y-44730000D03*
X190500000Y-47270000D03*
X190500000Y-44730000D03*
X187960000Y-47270000D03*
X187960000Y-44730000D03*
X185420000Y-47270000D03*
X185420000Y-44730000D03*
X182880000Y-47270000D03*
D14*
X182880000Y-44730000D03*
%TD*%
D15*
%TO.C,H2*%
X237431891Y-44568109D03*
X236000000Y-43975000D03*
X234568109Y-44568109D03*
X233975000Y-46000000D03*
X234568109Y-47431891D03*
X236000000Y-48025000D03*
X237431891Y-47431891D03*
X238025000Y-46000000D03*
D16*
X236000000Y-46000000D03*
%TD*%
D15*
%TO.C,H1*%
X179431891Y-44568109D03*
X178000000Y-43975000D03*
X176568109Y-44568109D03*
X175975000Y-46000000D03*
X176568109Y-47431891D03*
X178000000Y-48025000D03*
X179431891Y-47431891D03*
X180025000Y-46000000D03*
D16*
X178000000Y-46000000D03*
%TD*%
D13*
%TO.C,J4*%
X178010000Y-53620000D03*
X178010000Y-56160000D03*
X178010000Y-58700000D03*
X178010000Y-61240000D03*
D14*
X178010000Y-63780000D03*
%TD*%
D15*
%TO.C,H6*%
X237431891Y-93568109D03*
X236000000Y-92975000D03*
X234568109Y-93568109D03*
X233975000Y-95000000D03*
X234568109Y-96431891D03*
X236000000Y-97025000D03*
X237431891Y-96431891D03*
X238025000Y-95000000D03*
D16*
X236000000Y-95000000D03*
%TD*%
D15*
%TO.C,H5*%
X179431891Y-93568109D03*
X178000000Y-92975000D03*
X176568109Y-93568109D03*
X175975000Y-95000000D03*
X176568109Y-96431891D03*
X178000000Y-97025000D03*
X179431891Y-96431891D03*
X180025000Y-95000000D03*
D16*
X178000000Y-95000000D03*
%TD*%
D15*
%TO.C,H4*%
X237431891Y-67568109D03*
X236000000Y-66975000D03*
X234568109Y-67568109D03*
X233975000Y-69000000D03*
X234568109Y-70431891D03*
X236000000Y-71025000D03*
X237431891Y-70431891D03*
X238025000Y-69000000D03*
D16*
X236000000Y-69000000D03*
%TD*%
D15*
%TO.C,H3*%
X179431891Y-67568109D03*
X178000000Y-66975000D03*
X176568109Y-67568109D03*
X175975000Y-69000000D03*
X176568109Y-70431891D03*
X178000000Y-71025000D03*
X179431891Y-70431891D03*
X180025000Y-69000000D03*
D16*
X178000000Y-69000000D03*
%TD*%
M02*
