%TF.GenerationSoftware,KiCad,Pcbnew,(5.1.4)-1*%
%TF.CreationDate,2020-08-02T20:17:12-05:00*%
%TF.ProjectId,rascsi_2p1,72617363-7369-45f3-9270-312e6b696361,rev?*%
%TF.SameCoordinates,PX59d60c0PY325aa00*%
%TF.FileFunction,Legend,Bot*%
%TF.FilePolarity,Positive*%
%FSLAX46Y46*%
G04 Gerber Fmt 4.6, Leading zero omitted, Abs format (unit mm)*
G04 Created by KiCad (PCBNEW (5.1.4)-1) date 2020-08-02 20:17:12*
%MOMM*%
%LPD*%
G04 APERTURE LIST*
%ADD10C,0.120000*%
%ADD11C,0.400000*%
%ADD12C,0.150000*%
%ADD13C,0.050000*%
G04 APERTURE END LIST*
D10*
X144179000Y-12668500D02*
X139924500Y-12668500D01*
X139861000Y3397000D02*
X144179000Y3397000D01*
X144179000Y3397000D02*
X144179000Y-12668500D01*
X139861000Y-12605000D02*
X139861000Y3397000D01*
D11*
X142289761Y-157738D02*
X141337380Y389881D01*
X142289761Y985120D02*
X140289761Y735120D01*
X140289761Y-26785D01*
X140385000Y-205357D01*
X140480238Y-288690D01*
X140670714Y-360119D01*
X140956428Y-324404D01*
X141146904Y-205357D01*
X141242142Y-98214D01*
X141337380Y104167D01*
X141337380Y866072D01*
X142289761Y-1872023D02*
X141242142Y-2002976D01*
X141051666Y-1931547D01*
X140956428Y-1752976D01*
X140956428Y-1372023D01*
X141051666Y-1169642D01*
X142194523Y-1883928D02*
X142289761Y-1681547D01*
X142289761Y-1205357D01*
X142194523Y-1026785D01*
X142004047Y-955357D01*
X141813571Y-979166D01*
X141623095Y-1098214D01*
X141527857Y-1300595D01*
X141527857Y-1776785D01*
X141432619Y-1979166D01*
X142194523Y-2741071D02*
X142289761Y-3014880D01*
X142289761Y-3491071D01*
X142194523Y-3693452D01*
X142099285Y-3800595D01*
X141908809Y-3919642D01*
X141718333Y-3943452D01*
X141527857Y-3872023D01*
X141432619Y-3788690D01*
X141337380Y-3610119D01*
X141242142Y-3241071D01*
X141146904Y-3062500D01*
X141051666Y-2979166D01*
X140861190Y-2907738D01*
X140670714Y-2931547D01*
X140480238Y-3050595D01*
X140385000Y-3157738D01*
X140289761Y-3360119D01*
X140289761Y-3836309D01*
X140385000Y-4110119D01*
X142099285Y-5895833D02*
X142194523Y-5788690D01*
X142289761Y-5491071D01*
X142289761Y-5300595D01*
X142194523Y-5026785D01*
X142004047Y-4860119D01*
X141813571Y-4788690D01*
X141432619Y-4741071D01*
X141146904Y-4776785D01*
X140765952Y-4919642D01*
X140575476Y-5038690D01*
X140385000Y-5252976D01*
X140289761Y-5550595D01*
X140289761Y-5741071D01*
X140385000Y-6014880D01*
X140480238Y-6098214D01*
X142194523Y-6645833D02*
X142289761Y-6919642D01*
X142289761Y-7395833D01*
X142194523Y-7598214D01*
X142099285Y-7705357D01*
X141908809Y-7824404D01*
X141718333Y-7848214D01*
X141527857Y-7776785D01*
X141432619Y-7693452D01*
X141337380Y-7514880D01*
X141242142Y-7145833D01*
X141146904Y-6967261D01*
X141051666Y-6883928D01*
X140861190Y-6812500D01*
X140670714Y-6836309D01*
X140480238Y-6955357D01*
X140385000Y-7062500D01*
X140289761Y-7264880D01*
X140289761Y-7741071D01*
X140385000Y-8014880D01*
X142289761Y-8633928D02*
X140289761Y-8883928D01*
D12*
X142678880Y2649977D02*
X142678880Y2840453D01*
X142726500Y2935691D01*
X142774119Y2983310D01*
X142916976Y3078548D01*
X143107452Y3126167D01*
X143488404Y3126167D01*
X143583642Y3078548D01*
X143631261Y3030929D01*
X143678880Y2935691D01*
X143678880Y2745215D01*
X143631261Y2649977D01*
X143583642Y2602358D01*
X143488404Y2554739D01*
X143250309Y2554739D01*
X143155071Y2602358D01*
X143107452Y2649977D01*
X143059833Y2745215D01*
X143059833Y2935691D01*
X143107452Y3030929D01*
X143155071Y3078548D01*
X143250309Y3126167D01*
X143107452Y1983310D02*
X143059833Y2078548D01*
X143012214Y2126167D01*
X142916976Y2173786D01*
X142869357Y2173786D01*
X142774119Y2126167D01*
X142726500Y2078548D01*
X142678880Y1983310D01*
X142678880Y1792834D01*
X142726500Y1697596D01*
X142774119Y1649977D01*
X142869357Y1602358D01*
X142916976Y1602358D01*
X143012214Y1649977D01*
X143059833Y1697596D01*
X143107452Y1792834D01*
X143107452Y1983310D01*
X143155071Y2078548D01*
X143202690Y2126167D01*
X143297928Y2173786D01*
X143488404Y2173786D01*
X143583642Y2126167D01*
X143631261Y2078548D01*
X143678880Y1983310D01*
X143678880Y1792834D01*
X143631261Y1697596D01*
X143583642Y1649977D01*
X143488404Y1602358D01*
X143297928Y1602358D01*
X143202690Y1649977D01*
X143155071Y1697596D01*
X143107452Y1792834D01*
X143678880Y1173786D02*
X142678880Y1173786D01*
X143297928Y1078548D02*
X143678880Y792834D01*
X143012214Y792834D02*
X143393166Y1173786D01*
X143678880Y364262D02*
X143012214Y364262D01*
X143107452Y364262D02*
X143059833Y316643D01*
X143012214Y221405D01*
X143012214Y78548D01*
X143059833Y-16690D01*
X143155071Y-64309D01*
X143678880Y-64309D01*
X143155071Y-64309D02*
X143059833Y-111928D01*
X143012214Y-207166D01*
X143012214Y-350023D01*
X143059833Y-445261D01*
X143155071Y-492880D01*
X143678880Y-492880D01*
X143678880Y-1111928D02*
X143631261Y-1016690D01*
X143536023Y-969071D01*
X142678880Y-969071D01*
X143678880Y-1921452D02*
X143155071Y-1921452D01*
X143059833Y-1873833D01*
X143012214Y-1778595D01*
X143012214Y-1588119D01*
X143059833Y-1492880D01*
X143631261Y-1921452D02*
X143678880Y-1826214D01*
X143678880Y-1588119D01*
X143631261Y-1492880D01*
X143536023Y-1445261D01*
X143440785Y-1445261D01*
X143345547Y-1492880D01*
X143297928Y-1588119D01*
X143297928Y-1826214D01*
X143250309Y-1921452D01*
X142678880Y-3016690D02*
X143678880Y-3350023D01*
X142678880Y-3683357D01*
X143631261Y-4397642D02*
X143678880Y-4302404D01*
X143678880Y-4111928D01*
X143631261Y-4016690D01*
X143536023Y-3969071D01*
X143155071Y-3969071D01*
X143059833Y-4016690D01*
X143012214Y-4111928D01*
X143012214Y-4302404D01*
X143059833Y-4397642D01*
X143155071Y-4445261D01*
X143250309Y-4445261D01*
X143345547Y-3969071D01*
X143678880Y-4873833D02*
X143012214Y-4873833D01*
X143202690Y-4873833D02*
X143107452Y-4921452D01*
X143059833Y-4969071D01*
X143012214Y-5064309D01*
X143012214Y-5159547D01*
X143631261Y-5445261D02*
X143678880Y-5540500D01*
X143678880Y-5730976D01*
X143631261Y-5826214D01*
X143536023Y-5873833D01*
X143488404Y-5873833D01*
X143393166Y-5826214D01*
X143345547Y-5730976D01*
X143345547Y-5588119D01*
X143297928Y-5492880D01*
X143202690Y-5445261D01*
X143155071Y-5445261D01*
X143059833Y-5492880D01*
X143012214Y-5588119D01*
X143012214Y-5730976D01*
X143059833Y-5826214D01*
X143678880Y-6302404D02*
X143012214Y-6302404D01*
X142678880Y-6302404D02*
X142726500Y-6254785D01*
X142774119Y-6302404D01*
X142726500Y-6350023D01*
X142678880Y-6302404D01*
X142774119Y-6302404D01*
X143678880Y-6921452D02*
X143631261Y-6826214D01*
X143583642Y-6778595D01*
X143488404Y-6730976D01*
X143202690Y-6730976D01*
X143107452Y-6778595D01*
X143059833Y-6826214D01*
X143012214Y-6921452D01*
X143012214Y-7064309D01*
X143059833Y-7159547D01*
X143107452Y-7207166D01*
X143202690Y-7254785D01*
X143488404Y-7254785D01*
X143583642Y-7207166D01*
X143631261Y-7159547D01*
X143678880Y-7064309D01*
X143678880Y-6921452D01*
X143012214Y-7683357D02*
X143678880Y-7683357D01*
X143107452Y-7683357D02*
X143059833Y-7730976D01*
X143012214Y-7826214D01*
X143012214Y-7969071D01*
X143059833Y-8064309D01*
X143155071Y-8111928D01*
X143678880Y-8111928D01*
X142774119Y-9302404D02*
X142726500Y-9350023D01*
X142678880Y-9445261D01*
X142678880Y-9683357D01*
X142726500Y-9778595D01*
X142774119Y-9826214D01*
X142869357Y-9873833D01*
X142964595Y-9873833D01*
X143107452Y-9826214D01*
X143678880Y-9254785D01*
X143678880Y-9873833D01*
X143583642Y-10302404D02*
X143631261Y-10350023D01*
X143678880Y-10302404D01*
X143631261Y-10254785D01*
X143583642Y-10302404D01*
X143678880Y-10302404D01*
X143678880Y-11302404D02*
X143678880Y-10730976D01*
X143678880Y-11016690D02*
X142678880Y-11016690D01*
X142821738Y-10921452D01*
X142916976Y-10826214D01*
X142964595Y-10730976D01*
X143678880Y-12159547D02*
X143155071Y-12159547D01*
X143059833Y-12111928D01*
X143012214Y-12016690D01*
X143012214Y-11826214D01*
X143059833Y-11730976D01*
X143631261Y-12159547D02*
X143678880Y-12064309D01*
X143678880Y-11826214D01*
X143631261Y-11730976D01*
X143536023Y-11683357D01*
X143440785Y-11683357D01*
X143345547Y-11730976D01*
X143297928Y-11826214D01*
X143297928Y-12064309D01*
X143250309Y-12159547D01*
D10*
X139861000Y-12668500D02*
X140115000Y-12668500D01*
X139480000Y-13176500D02*
X144560000Y-13176500D01*
X144560000Y3841500D02*
X139480000Y3841500D01*
X139480000Y3778000D02*
X139480000Y-13176500D01*
X144560000Y3841500D02*
X144560000Y-13176500D01*
X139861000Y-12605000D02*
X139861000Y-12668500D01*
D12*
X125976666Y-40552880D02*
X125976666Y-39552880D01*
X125548095Y-40552880D02*
X125548095Y-40029071D01*
X125595714Y-39933833D01*
X125690952Y-39886214D01*
X125833809Y-39886214D01*
X125929047Y-39933833D01*
X125976666Y-39981452D01*
X125214761Y-39886214D02*
X124833809Y-39886214D01*
X125071904Y-39552880D02*
X125071904Y-40410023D01*
X125024285Y-40505261D01*
X124929047Y-40552880D01*
X124833809Y-40552880D01*
X124643333Y-39886214D02*
X124262380Y-39886214D01*
X124500476Y-39552880D02*
X124500476Y-40410023D01*
X124452857Y-40505261D01*
X124357619Y-40552880D01*
X124262380Y-40552880D01*
X123929047Y-39886214D02*
X123929047Y-40886214D01*
X123929047Y-39933833D02*
X123833809Y-39886214D01*
X123643333Y-39886214D01*
X123548095Y-39933833D01*
X123500476Y-39981452D01*
X123452857Y-40076690D01*
X123452857Y-40362404D01*
X123500476Y-40457642D01*
X123548095Y-40505261D01*
X123643333Y-40552880D01*
X123833809Y-40552880D01*
X123929047Y-40505261D01*
X123071904Y-40505261D02*
X122976666Y-40552880D01*
X122786190Y-40552880D01*
X122690952Y-40505261D01*
X122643333Y-40410023D01*
X122643333Y-40362404D01*
X122690952Y-40267166D01*
X122786190Y-40219547D01*
X122929047Y-40219547D01*
X123024285Y-40171928D01*
X123071904Y-40076690D01*
X123071904Y-40029071D01*
X123024285Y-39933833D01*
X122929047Y-39886214D01*
X122786190Y-39886214D01*
X122690952Y-39933833D01*
X122214761Y-40457642D02*
X122167142Y-40505261D01*
X122214761Y-40552880D01*
X122262380Y-40505261D01*
X122214761Y-40457642D01*
X122214761Y-40552880D01*
X122214761Y-39933833D02*
X122167142Y-39981452D01*
X122214761Y-40029071D01*
X122262380Y-39981452D01*
X122214761Y-39933833D01*
X122214761Y-40029071D01*
X121024285Y-39505261D02*
X121881428Y-40790976D01*
X119976666Y-39505261D02*
X120833809Y-40790976D01*
X119214761Y-39886214D02*
X119214761Y-40695738D01*
X119262380Y-40790976D01*
X119310000Y-40838595D01*
X119405238Y-40886214D01*
X119548095Y-40886214D01*
X119643333Y-40838595D01*
X119214761Y-40505261D02*
X119310000Y-40552880D01*
X119500476Y-40552880D01*
X119595714Y-40505261D01*
X119643333Y-40457642D01*
X119690952Y-40362404D01*
X119690952Y-40076690D01*
X119643333Y-39981452D01*
X119595714Y-39933833D01*
X119500476Y-39886214D01*
X119310000Y-39886214D01*
X119214761Y-39933833D01*
X118738571Y-40552880D02*
X118738571Y-39886214D01*
X118738571Y-39552880D02*
X118786190Y-39600500D01*
X118738571Y-39648119D01*
X118690952Y-39600500D01*
X118738571Y-39552880D01*
X118738571Y-39648119D01*
X118405238Y-39886214D02*
X118024285Y-39886214D01*
X118262380Y-39552880D02*
X118262380Y-40410023D01*
X118214761Y-40505261D01*
X118119523Y-40552880D01*
X118024285Y-40552880D01*
X117690952Y-40552880D02*
X117690952Y-39552880D01*
X117262380Y-40552880D02*
X117262380Y-40029071D01*
X117310000Y-39933833D01*
X117405238Y-39886214D01*
X117548095Y-39886214D01*
X117643333Y-39933833D01*
X117690952Y-39981452D01*
X116357619Y-39886214D02*
X116357619Y-40552880D01*
X116786190Y-39886214D02*
X116786190Y-40410023D01*
X116738571Y-40505261D01*
X116643333Y-40552880D01*
X116500476Y-40552880D01*
X116405238Y-40505261D01*
X116357619Y-40457642D01*
X115881428Y-40552880D02*
X115881428Y-39552880D01*
X115881428Y-39933833D02*
X115786190Y-39886214D01*
X115595714Y-39886214D01*
X115500476Y-39933833D01*
X115452857Y-39981452D01*
X115405238Y-40076690D01*
X115405238Y-40362404D01*
X115452857Y-40457642D01*
X115500476Y-40505261D01*
X115595714Y-40552880D01*
X115786190Y-40552880D01*
X115881428Y-40505261D01*
X114976666Y-40457642D02*
X114929047Y-40505261D01*
X114976666Y-40552880D01*
X115024285Y-40505261D01*
X114976666Y-40457642D01*
X114976666Y-40552880D01*
X114071904Y-40505261D02*
X114167142Y-40552880D01*
X114357619Y-40552880D01*
X114452857Y-40505261D01*
X114500476Y-40457642D01*
X114548095Y-40362404D01*
X114548095Y-40076690D01*
X114500476Y-39981452D01*
X114452857Y-39933833D01*
X114357619Y-39886214D01*
X114167142Y-39886214D01*
X114071904Y-39933833D01*
X113500476Y-40552880D02*
X113595714Y-40505261D01*
X113643333Y-40457642D01*
X113690952Y-40362404D01*
X113690952Y-40076690D01*
X113643333Y-39981452D01*
X113595714Y-39933833D01*
X113500476Y-39886214D01*
X113357619Y-39886214D01*
X113262380Y-39933833D01*
X113214761Y-39981452D01*
X113167142Y-40076690D01*
X113167142Y-40362404D01*
X113214761Y-40457642D01*
X113262380Y-40505261D01*
X113357619Y-40552880D01*
X113500476Y-40552880D01*
X112738571Y-40552880D02*
X112738571Y-39886214D01*
X112738571Y-39981452D02*
X112690952Y-39933833D01*
X112595714Y-39886214D01*
X112452857Y-39886214D01*
X112357619Y-39933833D01*
X112310000Y-40029071D01*
X112310000Y-40552880D01*
X112310000Y-40029071D02*
X112262380Y-39933833D01*
X112167142Y-39886214D01*
X112024285Y-39886214D01*
X111929047Y-39933833D01*
X111881428Y-40029071D01*
X111881428Y-40552880D01*
X110690952Y-39505261D02*
X111548095Y-40790976D01*
X109929047Y-40552880D02*
X109929047Y-40029071D01*
X109976666Y-39933833D01*
X110071904Y-39886214D01*
X110262380Y-39886214D01*
X110357619Y-39933833D01*
X109929047Y-40505261D02*
X110024285Y-40552880D01*
X110262380Y-40552880D01*
X110357619Y-40505261D01*
X110405238Y-40410023D01*
X110405238Y-40314785D01*
X110357619Y-40219547D01*
X110262380Y-40171928D01*
X110024285Y-40171928D01*
X109929047Y-40124309D01*
X109452857Y-40552880D02*
X109452857Y-39552880D01*
X109357619Y-40171928D02*
X109071904Y-40552880D01*
X109071904Y-39886214D02*
X109452857Y-40267166D01*
X108214761Y-39886214D02*
X108214761Y-40552880D01*
X108643333Y-39886214D02*
X108643333Y-40410023D01*
X108595714Y-40505261D01*
X108500476Y-40552880D01*
X108357619Y-40552880D01*
X108262380Y-40505261D01*
X108214761Y-40457642D01*
X107738571Y-40552880D02*
X107738571Y-39552880D01*
X107643333Y-40171928D02*
X107357619Y-40552880D01*
X107357619Y-39886214D02*
X107738571Y-40267166D01*
X106548095Y-40505261D02*
X106643333Y-40552880D01*
X106833809Y-40552880D01*
X106929047Y-40505261D01*
X106976666Y-40410023D01*
X106976666Y-40029071D01*
X106929047Y-39933833D01*
X106833809Y-39886214D01*
X106643333Y-39886214D01*
X106548095Y-39933833D01*
X106500476Y-40029071D01*
X106500476Y-40124309D01*
X106976666Y-40219547D01*
X106071904Y-40552880D02*
X106071904Y-39886214D01*
X106071904Y-40076690D02*
X106024285Y-39981452D01*
X105976666Y-39933833D01*
X105881428Y-39886214D01*
X105786190Y-39886214D01*
X104738571Y-39505261D02*
X105595714Y-40790976D01*
X103833809Y-40552880D02*
X104167142Y-40076690D01*
X104405238Y-40552880D02*
X104405238Y-39552880D01*
X104024285Y-39552880D01*
X103929047Y-39600500D01*
X103881428Y-39648119D01*
X103833809Y-39743357D01*
X103833809Y-39886214D01*
X103881428Y-39981452D01*
X103929047Y-40029071D01*
X104024285Y-40076690D01*
X104405238Y-40076690D01*
X103452857Y-40267166D02*
X102976666Y-40267166D01*
X103548095Y-40552880D02*
X103214761Y-39552880D01*
X102881428Y-40552880D01*
X102595714Y-40505261D02*
X102452857Y-40552880D01*
X102214761Y-40552880D01*
X102119523Y-40505261D01*
X102071904Y-40457642D01*
X102024285Y-40362404D01*
X102024285Y-40267166D01*
X102071904Y-40171928D01*
X102119523Y-40124309D01*
X102214761Y-40076690D01*
X102405238Y-40029071D01*
X102500476Y-39981452D01*
X102548095Y-39933833D01*
X102595714Y-39838595D01*
X102595714Y-39743357D01*
X102548095Y-39648119D01*
X102500476Y-39600500D01*
X102405238Y-39552880D01*
X102167142Y-39552880D01*
X102024285Y-39600500D01*
X101024285Y-40457642D02*
X101071904Y-40505261D01*
X101214761Y-40552880D01*
X101310000Y-40552880D01*
X101452857Y-40505261D01*
X101548095Y-40410023D01*
X101595714Y-40314785D01*
X101643333Y-40124309D01*
X101643333Y-39981452D01*
X101595714Y-39790976D01*
X101548095Y-39695738D01*
X101452857Y-39600500D01*
X101310000Y-39552880D01*
X101214761Y-39552880D01*
X101071904Y-39600500D01*
X101024285Y-39648119D01*
X100643333Y-40505261D02*
X100500476Y-40552880D01*
X100262380Y-40552880D01*
X100167142Y-40505261D01*
X100119523Y-40457642D01*
X100071904Y-40362404D01*
X100071904Y-40267166D01*
X100119523Y-40171928D01*
X100167142Y-40124309D01*
X100262380Y-40076690D01*
X100452857Y-40029071D01*
X100548095Y-39981452D01*
X100595714Y-39933833D01*
X100643333Y-39838595D01*
X100643333Y-39743357D01*
X100595714Y-39648119D01*
X100548095Y-39600500D01*
X100452857Y-39552880D01*
X100214761Y-39552880D01*
X100071904Y-39600500D01*
X99643333Y-40552880D02*
X99643333Y-39552880D01*
X133449676Y-3414971D02*
X133783009Y-3414971D01*
X133783009Y-3938780D02*
X133783009Y-2938780D01*
X133306819Y-2938780D01*
X132925866Y-2938780D02*
X132925866Y-3748304D01*
X132878247Y-3843542D01*
X132830628Y-3891161D01*
X132735390Y-3938780D01*
X132544914Y-3938780D01*
X132449676Y-3891161D01*
X132402057Y-3843542D01*
X132354438Y-3748304D01*
X132354438Y-2938780D01*
X131402057Y-3938780D02*
X131878247Y-3938780D01*
X131878247Y-2938780D01*
X130592533Y-3938780D02*
X131068723Y-3938780D01*
X131068723Y-2938780D01*
X130306819Y-3891161D02*
X130163961Y-3938780D01*
X129925866Y-3938780D01*
X129830628Y-3891161D01*
X129783009Y-3843542D01*
X129735390Y-3748304D01*
X129735390Y-3653066D01*
X129783009Y-3557828D01*
X129830628Y-3510209D01*
X129925866Y-3462590D01*
X130116342Y-3414971D01*
X130211580Y-3367352D01*
X130259200Y-3319733D01*
X130306819Y-3224495D01*
X130306819Y-3129257D01*
X130259200Y-3034019D01*
X130211580Y-2986400D01*
X130116342Y-2938780D01*
X129878247Y-2938780D01*
X129735390Y-2986400D01*
X129306819Y-3938780D02*
X129306819Y-2938780D01*
X128925866Y-2938780D01*
X128830628Y-2986400D01*
X128783009Y-3034019D01*
X128735390Y-3129257D01*
X128735390Y-3272114D01*
X128783009Y-3367352D01*
X128830628Y-3414971D01*
X128925866Y-3462590D01*
X129306819Y-3462590D01*
X128306819Y-3414971D02*
X127973485Y-3414971D01*
X127830628Y-3938780D02*
X128306819Y-3938780D01*
X128306819Y-2938780D01*
X127830628Y-2938780D01*
X126830628Y-3843542D02*
X126878247Y-3891161D01*
X127021104Y-3938780D01*
X127116342Y-3938780D01*
X127259200Y-3891161D01*
X127354438Y-3795923D01*
X127402057Y-3700685D01*
X127449676Y-3510209D01*
X127449676Y-3367352D01*
X127402057Y-3176876D01*
X127354438Y-3081638D01*
X127259200Y-2986400D01*
X127116342Y-2938780D01*
X127021104Y-2938780D01*
X126878247Y-2986400D01*
X126830628Y-3034019D01*
X125306819Y-3414971D02*
X125163961Y-3462590D01*
X125116342Y-3510209D01*
X125068723Y-3605447D01*
X125068723Y-3748304D01*
X125116342Y-3843542D01*
X125163961Y-3891161D01*
X125259200Y-3938780D01*
X125640152Y-3938780D01*
X125640152Y-2938780D01*
X125306819Y-2938780D01*
X125211580Y-2986400D01*
X125163961Y-3034019D01*
X125116342Y-3129257D01*
X125116342Y-3224495D01*
X125163961Y-3319733D01*
X125211580Y-3367352D01*
X125306819Y-3414971D01*
X125640152Y-3414971D01*
X124497295Y-3938780D02*
X124592533Y-3891161D01*
X124640152Y-3843542D01*
X124687771Y-3748304D01*
X124687771Y-3462590D01*
X124640152Y-3367352D01*
X124592533Y-3319733D01*
X124497295Y-3272114D01*
X124354438Y-3272114D01*
X124259200Y-3319733D01*
X124211580Y-3367352D01*
X124163961Y-3462590D01*
X124163961Y-3748304D01*
X124211580Y-3843542D01*
X124259200Y-3891161D01*
X124354438Y-3938780D01*
X124497295Y-3938780D01*
X123306819Y-3938780D02*
X123306819Y-3414971D01*
X123354438Y-3319733D01*
X123449676Y-3272114D01*
X123640152Y-3272114D01*
X123735390Y-3319733D01*
X123306819Y-3891161D02*
X123402057Y-3938780D01*
X123640152Y-3938780D01*
X123735390Y-3891161D01*
X123783009Y-3795923D01*
X123783009Y-3700685D01*
X123735390Y-3605447D01*
X123640152Y-3557828D01*
X123402057Y-3557828D01*
X123306819Y-3510209D01*
X122830628Y-3938780D02*
X122830628Y-3272114D01*
X122830628Y-3462590D02*
X122783009Y-3367352D01*
X122735390Y-3319733D01*
X122640152Y-3272114D01*
X122544914Y-3272114D01*
X121783009Y-3938780D02*
X121783009Y-2938780D01*
X121783009Y-3891161D02*
X121878247Y-3938780D01*
X122068723Y-3938780D01*
X122163961Y-3891161D01*
X122211580Y-3843542D01*
X122259200Y-3748304D01*
X122259200Y-3462590D01*
X122211580Y-3367352D01*
X122163961Y-3319733D01*
X122068723Y-3272114D01*
X121878247Y-3272114D01*
X121783009Y-3319733D01*
X120687771Y-2938780D02*
X120354438Y-3938780D01*
X120021104Y-2938780D01*
X119306819Y-3891161D02*
X119402057Y-3938780D01*
X119592533Y-3938780D01*
X119687771Y-3891161D01*
X119735390Y-3795923D01*
X119735390Y-3414971D01*
X119687771Y-3319733D01*
X119592533Y-3272114D01*
X119402057Y-3272114D01*
X119306819Y-3319733D01*
X119259200Y-3414971D01*
X119259200Y-3510209D01*
X119735390Y-3605447D01*
X118830628Y-3938780D02*
X118830628Y-3272114D01*
X118830628Y-3462590D02*
X118783009Y-3367352D01*
X118735390Y-3319733D01*
X118640152Y-3272114D01*
X118544914Y-3272114D01*
X118259200Y-3891161D02*
X118163961Y-3938780D01*
X117973485Y-3938780D01*
X117878247Y-3891161D01*
X117830628Y-3795923D01*
X117830628Y-3748304D01*
X117878247Y-3653066D01*
X117973485Y-3605447D01*
X118116342Y-3605447D01*
X118211580Y-3557828D01*
X118259200Y-3462590D01*
X118259200Y-3414971D01*
X118211580Y-3319733D01*
X118116342Y-3272114D01*
X117973485Y-3272114D01*
X117878247Y-3319733D01*
X117402057Y-3938780D02*
X117402057Y-3272114D01*
X117402057Y-2938780D02*
X117449676Y-2986400D01*
X117402057Y-3034019D01*
X117354438Y-2986400D01*
X117402057Y-2938780D01*
X117402057Y-3034019D01*
X116783009Y-3938780D02*
X116878247Y-3891161D01*
X116925866Y-3843542D01*
X116973485Y-3748304D01*
X116973485Y-3462590D01*
X116925866Y-3367352D01*
X116878247Y-3319733D01*
X116783009Y-3272114D01*
X116640152Y-3272114D01*
X116544914Y-3319733D01*
X116497295Y-3367352D01*
X116449676Y-3462590D01*
X116449676Y-3748304D01*
X116497295Y-3843542D01*
X116544914Y-3891161D01*
X116640152Y-3938780D01*
X116783009Y-3938780D01*
X116021104Y-3272114D02*
X116021104Y-3938780D01*
X116021104Y-3367352D02*
X115973485Y-3319733D01*
X115878247Y-3272114D01*
X115735390Y-3272114D01*
X115640152Y-3319733D01*
X115592533Y-3414971D01*
X115592533Y-3938780D01*
X114354438Y-3557828D02*
X113592533Y-3557828D01*
X112449676Y-2938780D02*
X112211580Y-3938780D01*
X112021104Y-3224495D01*
X111830628Y-3938780D01*
X111592533Y-2938780D01*
X111068723Y-3938780D02*
X111163961Y-3891161D01*
X111211580Y-3843542D01*
X111259200Y-3748304D01*
X111259200Y-3462590D01*
X111211580Y-3367352D01*
X111163961Y-3319733D01*
X111068723Y-3272114D01*
X110925866Y-3272114D01*
X110830628Y-3319733D01*
X110783009Y-3367352D01*
X110735390Y-3462590D01*
X110735390Y-3748304D01*
X110783009Y-3843542D01*
X110830628Y-3891161D01*
X110925866Y-3938780D01*
X111068723Y-3938780D01*
X110306819Y-3938780D02*
X110306819Y-3272114D01*
X110306819Y-3462590D02*
X110259200Y-3367352D01*
X110211580Y-3319733D01*
X110116342Y-3272114D01*
X110021104Y-3272114D01*
X109687771Y-3938780D02*
X109687771Y-2938780D01*
X109592533Y-3557828D02*
X109306819Y-3938780D01*
X109306819Y-3272114D02*
X109687771Y-3653066D01*
X108925866Y-3891161D02*
X108830628Y-3938780D01*
X108640152Y-3938780D01*
X108544914Y-3891161D01*
X108497295Y-3795923D01*
X108497295Y-3748304D01*
X108544914Y-3653066D01*
X108640152Y-3605447D01*
X108783009Y-3605447D01*
X108878247Y-3557828D01*
X108925866Y-3462590D01*
X108925866Y-3414971D01*
X108878247Y-3319733D01*
X108783009Y-3272114D01*
X108640152Y-3272114D01*
X108544914Y-3319733D01*
X106878247Y-3938780D02*
X106878247Y-3414971D01*
X106925866Y-3319733D01*
X107021104Y-3272114D01*
X107211580Y-3272114D01*
X107306819Y-3319733D01*
X106878247Y-3891161D02*
X106973485Y-3938780D01*
X107211580Y-3938780D01*
X107306819Y-3891161D01*
X107354438Y-3795923D01*
X107354438Y-3700685D01*
X107306819Y-3605447D01*
X107211580Y-3557828D01*
X106973485Y-3557828D01*
X106878247Y-3510209D01*
X106449676Y-3891161D02*
X106354438Y-3938780D01*
X106163961Y-3938780D01*
X106068723Y-3891161D01*
X106021104Y-3795923D01*
X106021104Y-3748304D01*
X106068723Y-3653066D01*
X106163961Y-3605447D01*
X106306819Y-3605447D01*
X106402057Y-3557828D01*
X106449676Y-3462590D01*
X106449676Y-3414971D01*
X106402057Y-3319733D01*
X106306819Y-3272114D01*
X106163961Y-3272114D01*
X106068723Y-3319733D01*
X104830628Y-3938780D02*
X104830628Y-2938780D01*
X104354438Y-3272114D02*
X104354438Y-3938780D01*
X104354438Y-3367352D02*
X104306819Y-3319733D01*
X104211580Y-3272114D01*
X104068723Y-3272114D01*
X103973485Y-3319733D01*
X103925866Y-3414971D01*
X103925866Y-3938780D01*
X103449676Y-3938780D02*
X103449676Y-3272114D01*
X103449676Y-2938780D02*
X103497295Y-2986400D01*
X103449676Y-3034019D01*
X103402057Y-2986400D01*
X103449676Y-2938780D01*
X103449676Y-3034019D01*
X103116342Y-3272114D02*
X102735390Y-3272114D01*
X102973485Y-2938780D02*
X102973485Y-3795923D01*
X102925866Y-3891161D01*
X102830628Y-3938780D01*
X102735390Y-3938780D01*
X102402057Y-3938780D02*
X102402057Y-3272114D01*
X102402057Y-2938780D02*
X102449676Y-2986400D01*
X102402057Y-3034019D01*
X102354438Y-2986400D01*
X102402057Y-2938780D01*
X102402057Y-3034019D01*
X101497295Y-3938780D02*
X101497295Y-3414971D01*
X101544914Y-3319733D01*
X101640152Y-3272114D01*
X101830628Y-3272114D01*
X101925866Y-3319733D01*
X101497295Y-3891161D02*
X101592533Y-3938780D01*
X101830628Y-3938780D01*
X101925866Y-3891161D01*
X101973485Y-3795923D01*
X101973485Y-3700685D01*
X101925866Y-3605447D01*
X101830628Y-3557828D01*
X101592533Y-3557828D01*
X101497295Y-3510209D01*
X101163961Y-3272114D02*
X100783009Y-3272114D01*
X101021104Y-2938780D02*
X101021104Y-3795923D01*
X100973485Y-3891161D01*
X100878247Y-3938780D01*
X100783009Y-3938780D01*
X100306819Y-3938780D02*
X100402057Y-3891161D01*
X100449676Y-3843542D01*
X100497295Y-3748304D01*
X100497295Y-3462590D01*
X100449676Y-3367352D01*
X100402057Y-3319733D01*
X100306819Y-3272114D01*
X100163961Y-3272114D01*
X100068723Y-3319733D01*
X100021104Y-3367352D01*
X99973485Y-3462590D01*
X99973485Y-3748304D01*
X100021104Y-3843542D01*
X100068723Y-3891161D01*
X100163961Y-3938780D01*
X100306819Y-3938780D01*
X99544914Y-3938780D02*
X99544914Y-3272114D01*
X99544914Y-3462590D02*
X99497295Y-3367352D01*
X99449676Y-3319733D01*
X99354438Y-3272114D01*
X99259200Y-3272114D01*
X98021104Y-3938780D02*
X98116342Y-3891161D01*
X98163961Y-3843542D01*
X98211580Y-3748304D01*
X98211580Y-3462590D01*
X98163961Y-3367352D01*
X98116342Y-3319733D01*
X98021104Y-3272114D01*
X97878247Y-3272114D01*
X97783009Y-3319733D01*
X97735390Y-3367352D01*
X97687771Y-3462590D01*
X97687771Y-3748304D01*
X97735390Y-3843542D01*
X97783009Y-3891161D01*
X97878247Y-3938780D01*
X98021104Y-3938780D01*
X97259200Y-3938780D02*
X97259200Y-3272114D01*
X97259200Y-3462590D02*
X97211580Y-3367352D01*
X97163961Y-3319733D01*
X97068723Y-3272114D01*
X96973485Y-3272114D01*
X96021104Y-2938780D02*
X95449676Y-2938780D01*
X95735390Y-3938780D02*
X95735390Y-2938780D01*
X94687771Y-3938780D02*
X94687771Y-3414971D01*
X94735390Y-3319733D01*
X94830628Y-3272114D01*
X95021104Y-3272114D01*
X95116342Y-3319733D01*
X94687771Y-3891161D02*
X94783009Y-3938780D01*
X95021104Y-3938780D01*
X95116342Y-3891161D01*
X95163961Y-3795923D01*
X95163961Y-3700685D01*
X95116342Y-3605447D01*
X95021104Y-3557828D01*
X94783009Y-3557828D01*
X94687771Y-3510209D01*
X94211580Y-3938780D02*
X94211580Y-3272114D01*
X94211580Y-3462590D02*
X94163961Y-3367352D01*
X94116342Y-3319733D01*
X94021104Y-3272114D01*
X93925866Y-3272114D01*
X93163961Y-3272114D02*
X93163961Y-4081638D01*
X93211580Y-4176876D01*
X93259200Y-4224495D01*
X93354438Y-4272114D01*
X93497295Y-4272114D01*
X93592533Y-4224495D01*
X93163961Y-3891161D02*
X93259200Y-3938780D01*
X93449676Y-3938780D01*
X93544914Y-3891161D01*
X93592533Y-3843542D01*
X93640152Y-3748304D01*
X93640152Y-3462590D01*
X93592533Y-3367352D01*
X93544914Y-3319733D01*
X93449676Y-3272114D01*
X93259200Y-3272114D01*
X93163961Y-3319733D01*
X92306819Y-3891161D02*
X92402057Y-3938780D01*
X92592533Y-3938780D01*
X92687771Y-3891161D01*
X92735390Y-3795923D01*
X92735390Y-3414971D01*
X92687771Y-3319733D01*
X92592533Y-3272114D01*
X92402057Y-3272114D01*
X92306819Y-3319733D01*
X92259200Y-3414971D01*
X92259200Y-3510209D01*
X92735390Y-3605447D01*
X91973485Y-3272114D02*
X91592533Y-3272114D01*
X91830628Y-2938780D02*
X91830628Y-3795923D01*
X91783009Y-3891161D01*
X91687771Y-3938780D01*
X91592533Y-3938780D01*
X128467028Y-5770761D02*
X128324171Y-5818380D01*
X128086076Y-5818380D01*
X127990838Y-5770761D01*
X127943219Y-5723142D01*
X127895600Y-5627904D01*
X127895600Y-5532666D01*
X127943219Y-5437428D01*
X127990838Y-5389809D01*
X128086076Y-5342190D01*
X128276552Y-5294571D01*
X128371790Y-5246952D01*
X128419409Y-5199333D01*
X128467028Y-5104095D01*
X128467028Y-5008857D01*
X128419409Y-4913619D01*
X128371790Y-4866000D01*
X128276552Y-4818380D01*
X128038457Y-4818380D01*
X127895600Y-4866000D01*
X127467028Y-5151714D02*
X127467028Y-6151714D01*
X127467028Y-5199333D02*
X127371790Y-5151714D01*
X127181314Y-5151714D01*
X127086076Y-5199333D01*
X127038457Y-5246952D01*
X126990838Y-5342190D01*
X126990838Y-5627904D01*
X127038457Y-5723142D01*
X127086076Y-5770761D01*
X127181314Y-5818380D01*
X127371790Y-5818380D01*
X127467028Y-5770761D01*
X126181314Y-5770761D02*
X126276552Y-5818380D01*
X126467028Y-5818380D01*
X126562266Y-5770761D01*
X126609885Y-5675523D01*
X126609885Y-5294571D01*
X126562266Y-5199333D01*
X126467028Y-5151714D01*
X126276552Y-5151714D01*
X126181314Y-5199333D01*
X126133695Y-5294571D01*
X126133695Y-5389809D01*
X126609885Y-5485047D01*
X125276552Y-5770761D02*
X125371790Y-5818380D01*
X125562266Y-5818380D01*
X125657504Y-5770761D01*
X125705123Y-5723142D01*
X125752742Y-5627904D01*
X125752742Y-5342190D01*
X125705123Y-5246952D01*
X125657504Y-5199333D01*
X125562266Y-5151714D01*
X125371790Y-5151714D01*
X125276552Y-5199333D01*
X124847980Y-5818380D02*
X124847980Y-5151714D01*
X124847980Y-4818380D02*
X124895600Y-4866000D01*
X124847980Y-4913619D01*
X124800361Y-4866000D01*
X124847980Y-4818380D01*
X124847980Y-4913619D01*
X123943219Y-5818380D02*
X123943219Y-5294571D01*
X123990838Y-5199333D01*
X124086076Y-5151714D01*
X124276552Y-5151714D01*
X124371790Y-5199333D01*
X123943219Y-5770761D02*
X124038457Y-5818380D01*
X124276552Y-5818380D01*
X124371790Y-5770761D01*
X124419409Y-5675523D01*
X124419409Y-5580285D01*
X124371790Y-5485047D01*
X124276552Y-5437428D01*
X124038457Y-5437428D01*
X123943219Y-5389809D01*
X123324171Y-5818380D02*
X123419409Y-5770761D01*
X123467028Y-5675523D01*
X123467028Y-4818380D01*
X122324171Y-5151714D02*
X121943219Y-5151714D01*
X122181314Y-4818380D02*
X122181314Y-5675523D01*
X122133695Y-5770761D01*
X122038457Y-5818380D01*
X121943219Y-5818380D01*
X121609885Y-5818380D02*
X121609885Y-4818380D01*
X121181314Y-5818380D02*
X121181314Y-5294571D01*
X121228933Y-5199333D01*
X121324171Y-5151714D01*
X121467028Y-5151714D01*
X121562266Y-5199333D01*
X121609885Y-5246952D01*
X120276552Y-5818380D02*
X120276552Y-5294571D01*
X120324171Y-5199333D01*
X120419409Y-5151714D01*
X120609885Y-5151714D01*
X120705123Y-5199333D01*
X120276552Y-5770761D02*
X120371790Y-5818380D01*
X120609885Y-5818380D01*
X120705123Y-5770761D01*
X120752742Y-5675523D01*
X120752742Y-5580285D01*
X120705123Y-5485047D01*
X120609885Y-5437428D01*
X120371790Y-5437428D01*
X120276552Y-5389809D01*
X119800361Y-5151714D02*
X119800361Y-5818380D01*
X119800361Y-5246952D02*
X119752742Y-5199333D01*
X119657504Y-5151714D01*
X119514647Y-5151714D01*
X119419409Y-5199333D01*
X119371790Y-5294571D01*
X119371790Y-5818380D01*
X118895600Y-5818380D02*
X118895600Y-4818380D01*
X118800361Y-5437428D02*
X118514647Y-5818380D01*
X118514647Y-5151714D02*
X118895600Y-5532666D01*
X118133695Y-5770761D02*
X118038457Y-5818380D01*
X117847980Y-5818380D01*
X117752742Y-5770761D01*
X117705123Y-5675523D01*
X117705123Y-5627904D01*
X117752742Y-5532666D01*
X117847980Y-5485047D01*
X117990838Y-5485047D01*
X118086076Y-5437428D01*
X118133695Y-5342190D01*
X118133695Y-5294571D01*
X118086076Y-5199333D01*
X117990838Y-5151714D01*
X117847980Y-5151714D01*
X117752742Y-5199333D01*
X116657504Y-5151714D02*
X116276552Y-5151714D01*
X116514647Y-4818380D02*
X116514647Y-5675523D01*
X116467028Y-5770761D01*
X116371790Y-5818380D01*
X116276552Y-5818380D01*
X115800361Y-5818380D02*
X115895600Y-5770761D01*
X115943219Y-5723142D01*
X115990838Y-5627904D01*
X115990838Y-5342190D01*
X115943219Y-5246952D01*
X115895600Y-5199333D01*
X115800361Y-5151714D01*
X115657504Y-5151714D01*
X115562266Y-5199333D01*
X115514647Y-5246952D01*
X115467028Y-5342190D01*
X115467028Y-5627904D01*
X115514647Y-5723142D01*
X115562266Y-5770761D01*
X115657504Y-5818380D01*
X115800361Y-5818380D01*
X113752742Y-4866000D02*
X113847980Y-4818380D01*
X113990838Y-4818380D01*
X114133695Y-4866000D01*
X114228933Y-4961238D01*
X114276552Y-5056476D01*
X114324171Y-5246952D01*
X114324171Y-5389809D01*
X114276552Y-5580285D01*
X114228933Y-5675523D01*
X114133695Y-5770761D01*
X113990838Y-5818380D01*
X113895600Y-5818380D01*
X113752742Y-5770761D01*
X113705123Y-5723142D01*
X113705123Y-5389809D01*
X113895600Y-5389809D01*
X113276552Y-5818380D02*
X113276552Y-4818380D01*
X112800361Y-5818380D02*
X112800361Y-4818380D01*
X112467028Y-5532666D01*
X112133695Y-4818380D01*
X112133695Y-5818380D01*
X111467028Y-4818380D02*
X111276552Y-4818380D01*
X111181314Y-4866000D01*
X111086076Y-4961238D01*
X111038457Y-5151714D01*
X111038457Y-5485047D01*
X111086076Y-5675523D01*
X111181314Y-5770761D01*
X111276552Y-5818380D01*
X111467028Y-5818380D01*
X111562266Y-5770761D01*
X111657504Y-5675523D01*
X111705123Y-5485047D01*
X111705123Y-5151714D01*
X111657504Y-4961238D01*
X111562266Y-4866000D01*
X111467028Y-4818380D01*
X110609885Y-5818380D02*
X110609885Y-4818380D01*
X110038457Y-5818380D01*
X110038457Y-4818380D01*
X109609885Y-5770761D02*
X109467028Y-5818380D01*
X109228933Y-5818380D01*
X109133695Y-5770761D01*
X109086076Y-5723142D01*
X109038457Y-5627904D01*
X109038457Y-5532666D01*
X109086076Y-5437428D01*
X109133695Y-5389809D01*
X109228933Y-5342190D01*
X109419409Y-5294571D01*
X109514647Y-5246952D01*
X109562266Y-5199333D01*
X109609885Y-5104095D01*
X109609885Y-5008857D01*
X109562266Y-4913619D01*
X109514647Y-4866000D01*
X109419409Y-4818380D01*
X109181314Y-4818380D01*
X109038457Y-4866000D01*
X107419409Y-5818380D02*
X107419409Y-5294571D01*
X107467028Y-5199333D01*
X107562266Y-5151714D01*
X107752742Y-5151714D01*
X107847980Y-5199333D01*
X107419409Y-5770761D02*
X107514647Y-5818380D01*
X107752742Y-5818380D01*
X107847980Y-5770761D01*
X107895600Y-5675523D01*
X107895600Y-5580285D01*
X107847980Y-5485047D01*
X107752742Y-5437428D01*
X107514647Y-5437428D01*
X107419409Y-5389809D01*
X106943219Y-5151714D02*
X106943219Y-5818380D01*
X106943219Y-5246952D02*
X106895600Y-5199333D01*
X106800361Y-5151714D01*
X106657504Y-5151714D01*
X106562266Y-5199333D01*
X106514647Y-5294571D01*
X106514647Y-5818380D01*
X105609885Y-5818380D02*
X105609885Y-4818380D01*
X105609885Y-5770761D02*
X105705123Y-5818380D01*
X105895600Y-5818380D01*
X105990838Y-5770761D01*
X106038457Y-5723142D01*
X106086076Y-5627904D01*
X106086076Y-5342190D01*
X106038457Y-5246952D01*
X105990838Y-5199333D01*
X105895600Y-5151714D01*
X105705123Y-5151714D01*
X105609885Y-5199333D01*
X104038457Y-5294571D02*
X104371790Y-5294571D01*
X104371790Y-5818380D02*
X104371790Y-4818380D01*
X103895600Y-4818380D01*
X103514647Y-5818380D02*
X103514647Y-5151714D01*
X103514647Y-5342190D02*
X103467028Y-5246952D01*
X103419409Y-5199333D01*
X103324171Y-5151714D01*
X103228933Y-5151714D01*
X102467028Y-5818380D02*
X102467028Y-5294571D01*
X102514647Y-5199333D01*
X102609885Y-5151714D01*
X102800361Y-5151714D01*
X102895600Y-5199333D01*
X102467028Y-5770761D02*
X102562266Y-5818380D01*
X102800361Y-5818380D01*
X102895600Y-5770761D01*
X102943219Y-5675523D01*
X102943219Y-5580285D01*
X102895600Y-5485047D01*
X102800361Y-5437428D01*
X102562266Y-5437428D01*
X102467028Y-5389809D01*
X101990838Y-5151714D02*
X101990838Y-5818380D01*
X101990838Y-5246952D02*
X101943219Y-5199333D01*
X101847980Y-5151714D01*
X101705123Y-5151714D01*
X101609885Y-5199333D01*
X101562266Y-5294571D01*
X101562266Y-5818380D01*
X100657504Y-5770761D02*
X100752742Y-5818380D01*
X100943219Y-5818380D01*
X101038457Y-5770761D01*
X101086076Y-5723142D01*
X101133695Y-5627904D01*
X101133695Y-5342190D01*
X101086076Y-5246952D01*
X101038457Y-5199333D01*
X100943219Y-5151714D01*
X100752742Y-5151714D01*
X100657504Y-5199333D01*
X100228933Y-5818380D02*
X100228933Y-5151714D01*
X100228933Y-4818380D02*
X100276552Y-4866000D01*
X100228933Y-4913619D01*
X100181314Y-4866000D01*
X100228933Y-4818380D01*
X100228933Y-4913619D01*
X99800361Y-5770761D02*
X99705123Y-5818380D01*
X99514647Y-5818380D01*
X99419409Y-5770761D01*
X99371790Y-5675523D01*
X99371790Y-5627904D01*
X99419409Y-5532666D01*
X99514647Y-5485047D01*
X99657504Y-5485047D01*
X99752742Y-5437428D01*
X99800361Y-5342190D01*
X99800361Y-5294571D01*
X99752742Y-5199333D01*
X99657504Y-5151714D01*
X99514647Y-5151714D01*
X99419409Y-5199333D01*
X97609885Y-5723142D02*
X97657504Y-5770761D01*
X97800361Y-5818380D01*
X97895600Y-5818380D01*
X98038457Y-5770761D01*
X98133695Y-5675523D01*
X98181314Y-5580285D01*
X98228933Y-5389809D01*
X98228933Y-5246952D01*
X98181314Y-5056476D01*
X98133695Y-4961238D01*
X98038457Y-4866000D01*
X97895600Y-4818380D01*
X97800361Y-4818380D01*
X97657504Y-4866000D01*
X97609885Y-4913619D01*
X96752742Y-5818380D02*
X96752742Y-5294571D01*
X96800361Y-5199333D01*
X96895600Y-5151714D01*
X97086076Y-5151714D01*
X97181314Y-5199333D01*
X96752742Y-5770761D02*
X96847980Y-5818380D01*
X97086076Y-5818380D01*
X97181314Y-5770761D01*
X97228933Y-5675523D01*
X97228933Y-5580285D01*
X97181314Y-5485047D01*
X97086076Y-5437428D01*
X96847980Y-5437428D01*
X96752742Y-5389809D01*
X96276552Y-5151714D02*
X96276552Y-6151714D01*
X96276552Y-5199333D02*
X96181314Y-5151714D01*
X95990838Y-5151714D01*
X95895600Y-5199333D01*
X95847980Y-5246952D01*
X95800361Y-5342190D01*
X95800361Y-5627904D01*
X95847980Y-5723142D01*
X95895600Y-5770761D01*
X95990838Y-5818380D01*
X96181314Y-5818380D01*
X96276552Y-5770761D01*
X95371790Y-5723142D02*
X95324171Y-5770761D01*
X95371790Y-5818380D01*
X95419409Y-5770761D01*
X95371790Y-5723142D01*
X95371790Y-5818380D01*
X95371790Y-5437428D02*
X95419409Y-4866000D01*
X95371790Y-4818380D01*
X95324171Y-4866000D01*
X95371790Y-5437428D01*
X95371790Y-4818380D01*
X130762261Y-41648880D02*
X130571785Y-41648880D01*
X130476547Y-41696500D01*
X130381309Y-41791738D01*
X130333690Y-41982214D01*
X130333690Y-42315547D01*
X130381309Y-42506023D01*
X130476547Y-42601261D01*
X130571785Y-42648880D01*
X130762261Y-42648880D01*
X130857500Y-42601261D01*
X130952738Y-42506023D01*
X131000357Y-42315547D01*
X131000357Y-41982214D01*
X130952738Y-41791738D01*
X130857500Y-41696500D01*
X130762261Y-41648880D01*
X129905119Y-41982214D02*
X129905119Y-42648880D01*
X129905119Y-42077452D02*
X129857500Y-42029833D01*
X129762261Y-41982214D01*
X129619404Y-41982214D01*
X129524166Y-42029833D01*
X129476547Y-42125071D01*
X129476547Y-42648880D01*
X128857500Y-42648880D02*
X128952738Y-42601261D01*
X129000357Y-42506023D01*
X129000357Y-41648880D01*
X128571785Y-41982214D02*
X128333690Y-42648880D01*
X128095595Y-41982214D02*
X128333690Y-42648880D01*
X128428928Y-42886976D01*
X128476547Y-42934595D01*
X128571785Y-42982214D01*
X126524166Y-41982214D02*
X126524166Y-42648880D01*
X126952738Y-41982214D02*
X126952738Y-42506023D01*
X126905119Y-42601261D01*
X126809880Y-42648880D01*
X126667023Y-42648880D01*
X126571785Y-42601261D01*
X126524166Y-42553642D01*
X126095595Y-42601261D02*
X126000357Y-42648880D01*
X125809880Y-42648880D01*
X125714642Y-42601261D01*
X125667023Y-42506023D01*
X125667023Y-42458404D01*
X125714642Y-42363166D01*
X125809880Y-42315547D01*
X125952738Y-42315547D01*
X126047976Y-42267928D01*
X126095595Y-42172690D01*
X126095595Y-42125071D01*
X126047976Y-42029833D01*
X125952738Y-41982214D01*
X125809880Y-41982214D01*
X125714642Y-42029833D01*
X124857500Y-42601261D02*
X124952738Y-42648880D01*
X125143214Y-42648880D01*
X125238452Y-42601261D01*
X125286071Y-42506023D01*
X125286071Y-42125071D01*
X125238452Y-42029833D01*
X125143214Y-41982214D01*
X124952738Y-41982214D01*
X124857500Y-42029833D01*
X124809880Y-42125071D01*
X124809880Y-42220309D01*
X125286071Y-42315547D01*
X123762261Y-41982214D02*
X123381309Y-41982214D01*
X123619404Y-41648880D02*
X123619404Y-42506023D01*
X123571785Y-42601261D01*
X123476547Y-42648880D01*
X123381309Y-42648880D01*
X123047976Y-42648880D02*
X123047976Y-41648880D01*
X122619404Y-42648880D02*
X122619404Y-42125071D01*
X122667023Y-42029833D01*
X122762261Y-41982214D01*
X122905119Y-41982214D01*
X123000357Y-42029833D01*
X123047976Y-42077452D01*
X121762261Y-42601261D02*
X121857500Y-42648880D01*
X122047976Y-42648880D01*
X122143214Y-42601261D01*
X122190833Y-42506023D01*
X122190833Y-42125071D01*
X122143214Y-42029833D01*
X122047976Y-41982214D01*
X121857500Y-41982214D01*
X121762261Y-42029833D01*
X121714642Y-42125071D01*
X121714642Y-42220309D01*
X122190833Y-42315547D01*
X120524166Y-42648880D02*
X120524166Y-41648880D01*
X120286071Y-41648880D01*
X120143214Y-41696500D01*
X120047976Y-41791738D01*
X120000357Y-41886976D01*
X119952738Y-42077452D01*
X119952738Y-42220309D01*
X120000357Y-42410785D01*
X120047976Y-42506023D01*
X120143214Y-42601261D01*
X120286071Y-42648880D01*
X120524166Y-42648880D01*
X119190833Y-42125071D02*
X119047976Y-42172690D01*
X119000357Y-42220309D01*
X118952738Y-42315547D01*
X118952738Y-42458404D01*
X119000357Y-42553642D01*
X119047976Y-42601261D01*
X119143214Y-42648880D01*
X119524166Y-42648880D01*
X119524166Y-41648880D01*
X119190833Y-41648880D01*
X119095595Y-41696500D01*
X119047976Y-41744119D01*
X119000357Y-41839357D01*
X119000357Y-41934595D01*
X119047976Y-42029833D01*
X119095595Y-42077452D01*
X119190833Y-42125071D01*
X119524166Y-42125071D01*
X118524166Y-42267928D02*
X117762261Y-42267928D01*
X117333690Y-41744119D02*
X117286071Y-41696500D01*
X117190833Y-41648880D01*
X116952738Y-41648880D01*
X116857500Y-41696500D01*
X116809880Y-41744119D01*
X116762261Y-41839357D01*
X116762261Y-41934595D01*
X116809880Y-42077452D01*
X117381309Y-42648880D01*
X116762261Y-42648880D01*
X115857500Y-41648880D02*
X116333690Y-41648880D01*
X116381309Y-42125071D01*
X116333690Y-42077452D01*
X116238452Y-42029833D01*
X116000357Y-42029833D01*
X115905119Y-42077452D01*
X115857500Y-42125071D01*
X115809880Y-42220309D01*
X115809880Y-42458404D01*
X115857500Y-42553642D01*
X115905119Y-42601261D01*
X116000357Y-42648880D01*
X116238452Y-42648880D01*
X116333690Y-42601261D01*
X116381309Y-42553642D01*
X114428928Y-41648880D02*
X114238452Y-41648880D01*
X114143214Y-41696500D01*
X114047976Y-41791738D01*
X114000357Y-41982214D01*
X114000357Y-42315547D01*
X114047976Y-42506023D01*
X114143214Y-42601261D01*
X114238452Y-42648880D01*
X114428928Y-42648880D01*
X114524166Y-42601261D01*
X114619404Y-42506023D01*
X114667023Y-42315547D01*
X114667023Y-41982214D01*
X114619404Y-41791738D01*
X114524166Y-41696500D01*
X114428928Y-41648880D01*
X113000357Y-42648880D02*
X113333690Y-42172690D01*
X113571785Y-42648880D02*
X113571785Y-41648880D01*
X113190833Y-41648880D01*
X113095595Y-41696500D01*
X113047976Y-41744119D01*
X113000357Y-41839357D01*
X113000357Y-41982214D01*
X113047976Y-42077452D01*
X113095595Y-42125071D01*
X113190833Y-42172690D01*
X113571785Y-42172690D01*
X111333690Y-41648880D02*
X111809880Y-41648880D01*
X111857500Y-42125071D01*
X111809880Y-42077452D01*
X111714642Y-42029833D01*
X111476547Y-42029833D01*
X111381309Y-42077452D01*
X111333690Y-42125071D01*
X111286071Y-42220309D01*
X111286071Y-42458404D01*
X111333690Y-42553642D01*
X111381309Y-42601261D01*
X111476547Y-42648880D01*
X111714642Y-42648880D01*
X111809880Y-42601261D01*
X111857500Y-42553642D01*
X110667023Y-41648880D02*
X110571785Y-41648880D01*
X110476547Y-41696500D01*
X110428928Y-41744119D01*
X110381309Y-41839357D01*
X110333690Y-42029833D01*
X110333690Y-42267928D01*
X110381309Y-42458404D01*
X110428928Y-42553642D01*
X110476547Y-42601261D01*
X110571785Y-42648880D01*
X110667023Y-42648880D01*
X110762261Y-42601261D01*
X110809880Y-42553642D01*
X110857500Y-42458404D01*
X110905119Y-42267928D01*
X110905119Y-42029833D01*
X110857500Y-41839357D01*
X110809880Y-41744119D01*
X110762261Y-41696500D01*
X110667023Y-41648880D01*
X109905119Y-42267928D02*
X109143214Y-42267928D01*
X108667023Y-41982214D02*
X108667023Y-42982214D01*
X108667023Y-42029833D02*
X108571785Y-41982214D01*
X108381309Y-41982214D01*
X108286071Y-42029833D01*
X108238452Y-42077452D01*
X108190833Y-42172690D01*
X108190833Y-42458404D01*
X108238452Y-42553642D01*
X108286071Y-42601261D01*
X108381309Y-42648880D01*
X108571785Y-42648880D01*
X108667023Y-42601261D01*
X107762261Y-42648880D02*
X107762261Y-41982214D01*
X107762261Y-41648880D02*
X107809880Y-41696500D01*
X107762261Y-41744119D01*
X107714642Y-41696500D01*
X107762261Y-41648880D01*
X107762261Y-41744119D01*
X107286071Y-41982214D02*
X107286071Y-42648880D01*
X107286071Y-42077452D02*
X107238452Y-42029833D01*
X107143214Y-41982214D01*
X107000357Y-41982214D01*
X106905119Y-42029833D01*
X106857500Y-42125071D01*
X106857500Y-42648880D01*
X105619404Y-42648880D02*
X105619404Y-41982214D01*
X105619404Y-42172690D02*
X105571785Y-42077452D01*
X105524166Y-42029833D01*
X105428928Y-41982214D01*
X105333690Y-41982214D01*
X105000357Y-42648880D02*
X105000357Y-41982214D01*
X105000357Y-41648880D02*
X105047976Y-41696500D01*
X105000357Y-41744119D01*
X104952738Y-41696500D01*
X105000357Y-41648880D01*
X105000357Y-41744119D01*
X104524166Y-42648880D02*
X104524166Y-41648880D01*
X104524166Y-42029833D02*
X104428928Y-41982214D01*
X104238452Y-41982214D01*
X104143214Y-42029833D01*
X104095595Y-42077452D01*
X104047976Y-42172690D01*
X104047976Y-42458404D01*
X104095595Y-42553642D01*
X104143214Y-42601261D01*
X104238452Y-42648880D01*
X104428928Y-42648880D01*
X104524166Y-42601261D01*
X103619404Y-42648880D02*
X103619404Y-41648880D01*
X103619404Y-42029833D02*
X103524166Y-41982214D01*
X103333690Y-41982214D01*
X103238452Y-42029833D01*
X103190833Y-42077452D01*
X103143214Y-42172690D01*
X103143214Y-42458404D01*
X103190833Y-42553642D01*
X103238452Y-42601261D01*
X103333690Y-42648880D01*
X103524166Y-42648880D01*
X103619404Y-42601261D01*
X102571785Y-42648880D02*
X102667023Y-42601261D01*
X102714642Y-42553642D01*
X102762261Y-42458404D01*
X102762261Y-42172690D01*
X102714642Y-42077452D01*
X102667023Y-42029833D01*
X102571785Y-41982214D01*
X102428928Y-41982214D01*
X102333690Y-42029833D01*
X102286071Y-42077452D01*
X102238452Y-42172690D01*
X102238452Y-42458404D01*
X102286071Y-42553642D01*
X102333690Y-42601261D01*
X102428928Y-42648880D01*
X102571785Y-42648880D01*
X101809880Y-41982214D02*
X101809880Y-42648880D01*
X101809880Y-42077452D02*
X101762261Y-42029833D01*
X101667023Y-41982214D01*
X101524166Y-41982214D01*
X101428928Y-42029833D01*
X101381309Y-42125071D01*
X101381309Y-42648880D01*
X99714642Y-42601261D02*
X99809880Y-42648880D01*
X100000357Y-42648880D01*
X100095595Y-42601261D01*
X100143214Y-42553642D01*
X100190833Y-42458404D01*
X100190833Y-42172690D01*
X100143214Y-42077452D01*
X100095595Y-42029833D01*
X100000357Y-41982214D01*
X99809880Y-41982214D01*
X99714642Y-42029833D01*
X99143214Y-42648880D02*
X99238452Y-42601261D01*
X99286071Y-42553642D01*
X99333690Y-42458404D01*
X99333690Y-42172690D01*
X99286071Y-42077452D01*
X99238452Y-42029833D01*
X99143214Y-41982214D01*
X99000357Y-41982214D01*
X98905119Y-42029833D01*
X98857500Y-42077452D01*
X98809880Y-42172690D01*
X98809880Y-42458404D01*
X98857500Y-42553642D01*
X98905119Y-42601261D01*
X99000357Y-42648880D01*
X99143214Y-42648880D01*
X98381309Y-41982214D02*
X98381309Y-42648880D01*
X98381309Y-42077452D02*
X98333690Y-42029833D01*
X98238452Y-41982214D01*
X98095595Y-41982214D01*
X98000357Y-42029833D01*
X97952738Y-42125071D01*
X97952738Y-42648880D01*
X97476547Y-41982214D02*
X97476547Y-42648880D01*
X97476547Y-42077452D02*
X97428928Y-42029833D01*
X97333690Y-41982214D01*
X97190833Y-41982214D01*
X97095595Y-42029833D01*
X97047976Y-42125071D01*
X97047976Y-42648880D01*
X96190833Y-42601261D02*
X96286071Y-42648880D01*
X96476547Y-42648880D01*
X96571785Y-42601261D01*
X96619404Y-42506023D01*
X96619404Y-42125071D01*
X96571785Y-42029833D01*
X96476547Y-41982214D01*
X96286071Y-41982214D01*
X96190833Y-42029833D01*
X96143214Y-42125071D01*
X96143214Y-42220309D01*
X96619404Y-42315547D01*
X95286071Y-42601261D02*
X95381309Y-42648880D01*
X95571785Y-42648880D01*
X95667023Y-42601261D01*
X95714642Y-42553642D01*
X95762261Y-42458404D01*
X95762261Y-42172690D01*
X95714642Y-42077452D01*
X95667023Y-42029833D01*
X95571785Y-41982214D01*
X95381309Y-41982214D01*
X95286071Y-42029833D01*
X95000357Y-41982214D02*
X94619404Y-41982214D01*
X94857500Y-41648880D02*
X94857500Y-42506023D01*
X94809880Y-42601261D01*
X94714642Y-42648880D01*
X94619404Y-42648880D01*
X94143214Y-42648880D02*
X94238452Y-42601261D01*
X94286071Y-42553642D01*
X94333690Y-42458404D01*
X94333690Y-42172690D01*
X94286071Y-42077452D01*
X94238452Y-42029833D01*
X94143214Y-41982214D01*
X94000357Y-41982214D01*
X93905119Y-42029833D01*
X93857500Y-42077452D01*
X93809880Y-42172690D01*
X93809880Y-42458404D01*
X93857500Y-42553642D01*
X93905119Y-42601261D01*
X94000357Y-42648880D01*
X94143214Y-42648880D01*
X93381309Y-42648880D02*
X93381309Y-41982214D01*
X93381309Y-42172690D02*
X93333690Y-42077452D01*
X93286071Y-42029833D01*
X93190833Y-41982214D01*
X93095595Y-41982214D01*
X92762261Y-42553642D02*
X92714642Y-42601261D01*
X92762261Y-42648880D01*
X92809880Y-42601261D01*
X92762261Y-42553642D01*
X92762261Y-42648880D01*
X136167023Y-44298880D02*
X136167023Y-43298880D01*
X135928928Y-43298880D01*
X135786071Y-43346500D01*
X135690833Y-43441738D01*
X135643214Y-43536976D01*
X135595595Y-43727452D01*
X135595595Y-43870309D01*
X135643214Y-44060785D01*
X135690833Y-44156023D01*
X135786071Y-44251261D01*
X135928928Y-44298880D01*
X136167023Y-44298880D01*
X134976547Y-43298880D02*
X134786071Y-43298880D01*
X134690833Y-43346500D01*
X134595595Y-43441738D01*
X134547976Y-43632214D01*
X134547976Y-43965547D01*
X134595595Y-44156023D01*
X134690833Y-44251261D01*
X134786071Y-44298880D01*
X134976547Y-44298880D01*
X135071785Y-44251261D01*
X135167023Y-44156023D01*
X135214642Y-43965547D01*
X135214642Y-43632214D01*
X135167023Y-43441738D01*
X135071785Y-43346500D01*
X134976547Y-43298880D01*
X133357500Y-44298880D02*
X133357500Y-43298880D01*
X132786071Y-44298880D01*
X132786071Y-43298880D01*
X132119404Y-43298880D02*
X131928928Y-43298880D01*
X131833690Y-43346500D01*
X131738452Y-43441738D01*
X131690833Y-43632214D01*
X131690833Y-43965547D01*
X131738452Y-44156023D01*
X131833690Y-44251261D01*
X131928928Y-44298880D01*
X132119404Y-44298880D01*
X132214642Y-44251261D01*
X132309880Y-44156023D01*
X132357500Y-43965547D01*
X132357500Y-43632214D01*
X132309880Y-43441738D01*
X132214642Y-43346500D01*
X132119404Y-43298880D01*
X131405119Y-43298880D02*
X130833690Y-43298880D01*
X131119404Y-44298880D02*
X131119404Y-43298880D01*
X129738452Y-43298880D02*
X129738452Y-44108404D01*
X129690833Y-44203642D01*
X129643214Y-44251261D01*
X129547976Y-44298880D01*
X129357500Y-44298880D01*
X129262261Y-44251261D01*
X129214642Y-44203642D01*
X129167023Y-44108404D01*
X129167023Y-43298880D01*
X128738452Y-44251261D02*
X128595595Y-44298880D01*
X128357500Y-44298880D01*
X128262261Y-44251261D01*
X128214642Y-44203642D01*
X128167023Y-44108404D01*
X128167023Y-44013166D01*
X128214642Y-43917928D01*
X128262261Y-43870309D01*
X128357500Y-43822690D01*
X128547976Y-43775071D01*
X128643214Y-43727452D01*
X128690833Y-43679833D01*
X128738452Y-43584595D01*
X128738452Y-43489357D01*
X128690833Y-43394119D01*
X128643214Y-43346500D01*
X128547976Y-43298880D01*
X128309880Y-43298880D01*
X128167023Y-43346500D01*
X127738452Y-43775071D02*
X127405119Y-43775071D01*
X127262261Y-44298880D02*
X127738452Y-44298880D01*
X127738452Y-43298880D01*
X127262261Y-43298880D01*
X125738452Y-43775071D02*
X125595595Y-43822690D01*
X125547976Y-43870309D01*
X125500357Y-43965547D01*
X125500357Y-44108404D01*
X125547976Y-44203642D01*
X125595595Y-44251261D01*
X125690833Y-44298880D01*
X126071785Y-44298880D01*
X126071785Y-43298880D01*
X125738452Y-43298880D01*
X125643214Y-43346500D01*
X125595595Y-43394119D01*
X125547976Y-43489357D01*
X125547976Y-43584595D01*
X125595595Y-43679833D01*
X125643214Y-43727452D01*
X125738452Y-43775071D01*
X126071785Y-43775071D01*
X124881309Y-43298880D02*
X124690833Y-43298880D01*
X124595595Y-43346500D01*
X124500357Y-43441738D01*
X124452738Y-43632214D01*
X124452738Y-43965547D01*
X124500357Y-44156023D01*
X124595595Y-44251261D01*
X124690833Y-44298880D01*
X124881309Y-44298880D01*
X124976547Y-44251261D01*
X125071785Y-44156023D01*
X125119404Y-43965547D01*
X125119404Y-43632214D01*
X125071785Y-43441738D01*
X124976547Y-43346500D01*
X124881309Y-43298880D01*
X124167023Y-43298880D02*
X123595595Y-43298880D01*
X123881309Y-44298880D02*
X123881309Y-43298880D01*
X123262261Y-44298880D02*
X123262261Y-43298880D01*
X123262261Y-43775071D02*
X122690833Y-43775071D01*
X122690833Y-44298880D02*
X122690833Y-43298880D01*
X121167023Y-44679833D02*
X121214642Y-44632214D01*
X121309880Y-44489357D01*
X121357500Y-44394119D01*
X121405119Y-44251261D01*
X121452738Y-44013166D01*
X121452738Y-43822690D01*
X121405119Y-43584595D01*
X121357500Y-43441738D01*
X121309880Y-43346500D01*
X121214642Y-43203642D01*
X121167023Y-43156023D01*
X120786071Y-43298880D02*
X120786071Y-44108404D01*
X120738452Y-44203642D01*
X120690833Y-44251261D01*
X120595595Y-44298880D01*
X120405119Y-44298880D01*
X120309880Y-44251261D01*
X120262261Y-44203642D01*
X120214642Y-44108404D01*
X120214642Y-43298880D01*
X119738452Y-43632214D02*
X119738452Y-44298880D01*
X119738452Y-43727452D02*
X119690833Y-43679833D01*
X119595595Y-43632214D01*
X119452738Y-43632214D01*
X119357500Y-43679833D01*
X119309880Y-43775071D01*
X119309880Y-44298880D01*
X118690833Y-44298880D02*
X118786071Y-44251261D01*
X118833690Y-44156023D01*
X118833690Y-43298880D01*
X117928928Y-44251261D02*
X118024166Y-44298880D01*
X118214642Y-44298880D01*
X118309880Y-44251261D01*
X118357500Y-44156023D01*
X118357500Y-43775071D01*
X118309880Y-43679833D01*
X118214642Y-43632214D01*
X118024166Y-43632214D01*
X117928928Y-43679833D01*
X117881309Y-43775071D01*
X117881309Y-43870309D01*
X118357500Y-43965547D01*
X117500357Y-44251261D02*
X117405119Y-44298880D01*
X117214642Y-44298880D01*
X117119404Y-44251261D01*
X117071785Y-44156023D01*
X117071785Y-44108404D01*
X117119404Y-44013166D01*
X117214642Y-43965547D01*
X117357500Y-43965547D01*
X117452738Y-43917928D01*
X117500357Y-43822690D01*
X117500357Y-43775071D01*
X117452738Y-43679833D01*
X117357500Y-43632214D01*
X117214642Y-43632214D01*
X117119404Y-43679833D01*
X116690833Y-44251261D02*
X116595595Y-44298880D01*
X116405119Y-44298880D01*
X116309880Y-44251261D01*
X116262261Y-44156023D01*
X116262261Y-44108404D01*
X116309880Y-44013166D01*
X116405119Y-43965547D01*
X116547976Y-43965547D01*
X116643214Y-43917928D01*
X116690833Y-43822690D01*
X116690833Y-43775071D01*
X116643214Y-43679833D01*
X116547976Y-43632214D01*
X116405119Y-43632214D01*
X116309880Y-43679833D01*
X115167023Y-43632214D02*
X114928928Y-44298880D01*
X114690833Y-43632214D02*
X114928928Y-44298880D01*
X115024166Y-44536976D01*
X115071785Y-44584595D01*
X115167023Y-44632214D01*
X114167023Y-44298880D02*
X114262261Y-44251261D01*
X114309880Y-44203642D01*
X114357500Y-44108404D01*
X114357500Y-43822690D01*
X114309880Y-43727452D01*
X114262261Y-43679833D01*
X114167023Y-43632214D01*
X114024166Y-43632214D01*
X113928928Y-43679833D01*
X113881309Y-43727452D01*
X113833690Y-43822690D01*
X113833690Y-44108404D01*
X113881309Y-44203642D01*
X113928928Y-44251261D01*
X114024166Y-44298880D01*
X114167023Y-44298880D01*
X112976547Y-43632214D02*
X112976547Y-44298880D01*
X113405119Y-43632214D02*
X113405119Y-44156023D01*
X113357500Y-44251261D01*
X113262261Y-44298880D01*
X113119404Y-44298880D01*
X113024166Y-44251261D01*
X112976547Y-44203642D01*
X111167023Y-44298880D02*
X111500357Y-43822690D01*
X111738452Y-44298880D02*
X111738452Y-43298880D01*
X111357500Y-43298880D01*
X111262261Y-43346500D01*
X111214642Y-43394119D01*
X111167023Y-43489357D01*
X111167023Y-43632214D01*
X111214642Y-43727452D01*
X111262261Y-43775071D01*
X111357500Y-43822690D01*
X111738452Y-43822690D01*
X110738452Y-43775071D02*
X110405119Y-43775071D01*
X110262261Y-44298880D02*
X110738452Y-44298880D01*
X110738452Y-43298880D01*
X110262261Y-43298880D01*
X109881309Y-44013166D02*
X109405119Y-44013166D01*
X109976547Y-44298880D02*
X109643214Y-43298880D01*
X109309880Y-44298880D01*
X108500357Y-44298880D02*
X108976547Y-44298880D01*
X108976547Y-43298880D01*
X107690833Y-44298880D02*
X108167023Y-44298880D01*
X108167023Y-43298880D01*
X107167023Y-43822690D02*
X107167023Y-44298880D01*
X107500357Y-43298880D02*
X107167023Y-43822690D01*
X106833690Y-43298880D01*
X105738452Y-44298880D02*
X105738452Y-43298880D01*
X105643214Y-43917928D02*
X105357500Y-44298880D01*
X105357500Y-43632214D02*
X105738452Y-44013166D01*
X104928928Y-43632214D02*
X104928928Y-44298880D01*
X104928928Y-43727452D02*
X104881309Y-43679833D01*
X104786071Y-43632214D01*
X104643214Y-43632214D01*
X104547976Y-43679833D01*
X104500357Y-43775071D01*
X104500357Y-44298880D01*
X103881309Y-44298880D02*
X103976547Y-44251261D01*
X104024166Y-44203642D01*
X104071785Y-44108404D01*
X104071785Y-43822690D01*
X104024166Y-43727452D01*
X103976547Y-43679833D01*
X103881309Y-43632214D01*
X103738452Y-43632214D01*
X103643214Y-43679833D01*
X103595595Y-43727452D01*
X103547976Y-43822690D01*
X103547976Y-44108404D01*
X103595595Y-44203642D01*
X103643214Y-44251261D01*
X103738452Y-44298880D01*
X103881309Y-44298880D01*
X103214642Y-43632214D02*
X103024166Y-44298880D01*
X102833690Y-43822690D01*
X102643214Y-44298880D01*
X102452738Y-43632214D01*
X101405119Y-43632214D02*
X101214642Y-44298880D01*
X101024166Y-43822690D01*
X100833690Y-44298880D01*
X100643214Y-43632214D01*
X100262261Y-44298880D02*
X100262261Y-43298880D01*
X99833690Y-44298880D02*
X99833690Y-43775071D01*
X99881309Y-43679833D01*
X99976547Y-43632214D01*
X100119404Y-43632214D01*
X100214642Y-43679833D01*
X100262261Y-43727452D01*
X98928928Y-44298880D02*
X98928928Y-43775071D01*
X98976547Y-43679833D01*
X99071785Y-43632214D01*
X99262261Y-43632214D01*
X99357500Y-43679833D01*
X98928928Y-44251261D02*
X99024166Y-44298880D01*
X99262261Y-44298880D01*
X99357500Y-44251261D01*
X99405119Y-44156023D01*
X99405119Y-44060785D01*
X99357500Y-43965547D01*
X99262261Y-43917928D01*
X99024166Y-43917928D01*
X98928928Y-43870309D01*
X98595595Y-43632214D02*
X98214642Y-43632214D01*
X98452738Y-43298880D02*
X98452738Y-44156023D01*
X98405119Y-44251261D01*
X98309880Y-44298880D01*
X98214642Y-44298880D01*
X97214642Y-43632214D02*
X96976547Y-44298880D01*
X96738452Y-43632214D02*
X96976547Y-44298880D01*
X97071785Y-44536976D01*
X97119404Y-44584595D01*
X97214642Y-44632214D01*
X96214642Y-44298880D02*
X96309880Y-44251261D01*
X96357500Y-44203642D01*
X96405119Y-44108404D01*
X96405119Y-43822690D01*
X96357500Y-43727452D01*
X96309880Y-43679833D01*
X96214642Y-43632214D01*
X96071785Y-43632214D01*
X95976547Y-43679833D01*
X95928928Y-43727452D01*
X95881309Y-43822690D01*
X95881309Y-44108404D01*
X95928928Y-44203642D01*
X95976547Y-44251261D01*
X96071785Y-44298880D01*
X96214642Y-44298880D01*
X95024166Y-43632214D02*
X95024166Y-44298880D01*
X95452738Y-43632214D02*
X95452738Y-44156023D01*
X95405119Y-44251261D01*
X95309880Y-44298880D01*
X95167023Y-44298880D01*
X95071785Y-44251261D01*
X95024166Y-44203642D01*
X94500357Y-43298880D02*
X94595595Y-43489357D01*
X94071785Y-44298880D02*
X94071785Y-43632214D01*
X94071785Y-43822690D02*
X94024166Y-43727452D01*
X93976547Y-43679833D01*
X93881309Y-43632214D01*
X93786071Y-43632214D01*
X93071785Y-44251261D02*
X93167023Y-44298880D01*
X93357500Y-44298880D01*
X93452738Y-44251261D01*
X93500357Y-44156023D01*
X93500357Y-43775071D01*
X93452738Y-43679833D01*
X93357500Y-43632214D01*
X93167023Y-43632214D01*
X93071785Y-43679833D01*
X93024166Y-43775071D01*
X93024166Y-43870309D01*
X93500357Y-43965547D01*
X91405119Y-44298880D02*
X91405119Y-43298880D01*
X91405119Y-44251261D02*
X91500357Y-44298880D01*
X91690833Y-44298880D01*
X91786071Y-44251261D01*
X91833690Y-44203642D01*
X91881309Y-44108404D01*
X91881309Y-43822690D01*
X91833690Y-43727452D01*
X91786071Y-43679833D01*
X91690833Y-43632214D01*
X91500357Y-43632214D01*
X91405119Y-43679833D01*
X90786071Y-44298880D02*
X90881309Y-44251261D01*
X90928928Y-44203642D01*
X90976547Y-44108404D01*
X90976547Y-43822690D01*
X90928928Y-43727452D01*
X90881309Y-43679833D01*
X90786071Y-43632214D01*
X90643214Y-43632214D01*
X90547976Y-43679833D01*
X90500357Y-43727452D01*
X90452738Y-43822690D01*
X90452738Y-44108404D01*
X90500357Y-44203642D01*
X90547976Y-44251261D01*
X90643214Y-44298880D01*
X90786071Y-44298880D01*
X90024166Y-44298880D02*
X90024166Y-43632214D01*
X90024166Y-43298880D02*
X90071785Y-43346500D01*
X90024166Y-43394119D01*
X89976547Y-43346500D01*
X90024166Y-43298880D01*
X90024166Y-43394119D01*
X89547976Y-43632214D02*
X89547976Y-44298880D01*
X89547976Y-43727452D02*
X89500357Y-43679833D01*
X89405119Y-43632214D01*
X89262261Y-43632214D01*
X89167023Y-43679833D01*
X89119404Y-43775071D01*
X89119404Y-44298880D01*
X88214642Y-43632214D02*
X88214642Y-44441738D01*
X88262261Y-44536976D01*
X88309880Y-44584595D01*
X88405119Y-44632214D01*
X88547976Y-44632214D01*
X88643214Y-44584595D01*
X88214642Y-44251261D02*
X88309880Y-44298880D01*
X88500357Y-44298880D01*
X88595595Y-44251261D01*
X88643214Y-44203642D01*
X88690833Y-44108404D01*
X88690833Y-43822690D01*
X88643214Y-43727452D01*
X88595595Y-43679833D01*
X88500357Y-43632214D01*
X88309880Y-43632214D01*
X88214642Y-43679833D01*
X87833690Y-44679833D02*
X87786071Y-44632214D01*
X87690833Y-44489357D01*
X87643214Y-44394119D01*
X87595595Y-44251261D01*
X87547976Y-44013166D01*
X87547976Y-43822690D01*
X87595595Y-43584595D01*
X87643214Y-43441738D01*
X87690833Y-43346500D01*
X87786071Y-43203642D01*
X87833690Y-43156023D01*
D13*
X83800000Y-45696000D02*
X141800000Y-45696000D01*
X83800000Y-45696000D02*
G75*
G02X80300000Y-42196000I0J3500000D01*
G01*
X145300000Y-42196000D02*
G75*
G02X141800000Y-45696000I-3500000J0D01*
G01*
X80300000Y6800000D02*
X80300000Y-42196000D01*
X145300000Y6800000D02*
X145300000Y-42196000D01*
X83800000Y10300000D02*
X141800000Y10300000D01*
X80300000Y6800000D02*
G75*
G02X83800000Y10300000I3500000J0D01*
G01*
X141800000Y10300000D02*
G75*
G02X145300000Y6800000I0J-3500000D01*
G01*
M02*
