M48
; DRILL file {KiCad (5.1.4)-1} date 8/2/2020 8:17:15 PM
; FORMAT={-:-/ absolute / inch / decimal}
; #@! TF.CreationDate,2020-08-02T20:17:15-05:00
; #@! TF.GenerationSoftware,Kicad,Pcbnew,(5.1.4)-1
FMAT,2
INCH
T1C0.0098
T2C0.0157
T3C0.0197
T4C0.0394
T5C0.0406
T6C0.1063
T7C0.1272
%
G90
G05
T1
X-3.9574Y2.0812
X-3.857Y2.0812
X-3.7566Y2.0812
X-3.6562Y2.0812
X3.2088Y-0.9763
X3.2763Y0.1012
X3.3093Y-0.9763
X3.3613Y-0.1513
X3.3791Y-1.2763
X3.3988Y-1.2988
X3.4013Y-0.4863
X3.4097Y-0.9763
X3.4288Y-0.6788
X3.4563Y-0.1513
X3.4813Y-0.6788
X3.4838Y0.0662
X3.4913Y-0.4438
X3.4913Y-0.6288
X3.5034Y-0.1513
X3.5101Y-0.9763
X3.5337Y-0.6788
X3.5413Y-0.4438
X3.5413Y-0.6288
X3.5507Y-0.1513
X3.5513Y0.1812
X3.5669Y0.0887
X3.5691Y0.1512
X3.5862Y-0.6788
X3.5913Y-0.4438
X3.5913Y-0.6288
X3.5979Y-0.1513
X3.6105Y-0.9763
X3.6113Y0.0837
X3.6338Y-1.3113
X3.6387Y-0.6788
X3.6413Y-0.4438
X3.6413Y-0.6288
X3.6452Y-0.1513
X3.6638Y0.0862
X3.6788Y-1.3138
X3.6912Y-0.6788
X3.6913Y-0.4438
X3.6913Y-0.6288
X3.6925Y-0.1513
X3.7013Y-0.8838
X3.7063Y-1.3113
X3.7109Y-0.9763
X3.7118Y-0.8542
X3.7163Y0.0887
X3.7238Y-0.9138
X3.7388Y-0.4438
X3.7397Y-0.1513
X3.7413Y-0.6288
X3.7437Y-0.6788
X3.7463Y-1.3263
X3.7513Y0.1837
X3.7588Y-0.9363
X3.7638Y0.0862
X3.7816Y0.1367
X3.787Y-0.1513
X3.7913Y-0.4438
X3.7913Y-0.6288
X3.7962Y-0.6788
X3.7963Y-0.8035
X3.7963Y-0.8294
X3.8113Y-0.9763
X3.8138Y0.0837
X3.8163Y-0.9338
X3.8343Y-0.1513
X3.8413Y-0.4438
X3.8413Y-0.6288
X3.8487Y-0.6788
X3.8592Y-1.3446
X3.8613Y0.0462
X3.8663Y0.1237
X3.8688Y-0.7238
X3.8816Y-0.1513
X3.8913Y-0.3113
X3.8988Y-0.6788
X3.9113Y0.0462
X3.913Y-0.9763
X3.9163Y-0.5438
X3.9463Y0.1585
X3.9513Y-0.6788
X3.9663Y0.0662
X3.9761Y-0.1513
X3.997Y0.1258
X4.0013Y-0.6788
X4.0038Y-0.4438
X4.0038Y-0.6288
X4.0113Y-0.3138
X4.0134Y-0.9763
X4.0138Y0.0787
X4.0234Y-0.1513
X4.0388Y-0.9313
X4.0463Y-0.5413
X4.0707Y-0.1513
X4.0838Y0.1149
X4.0963Y-0.6788
X4.1126Y-0.9763
X4.1179Y-0.1513
X4.1363Y0.0962
X4.1436Y-0.6788
X4.1538Y-1.5888
X4.1652Y-0.1513
X4.1909Y-0.6788
X4.2125Y-0.1513
X4.213Y-0.9763
X4.2382Y-0.6788
X4.2388Y-1.67
X4.2597Y-0.1513
X4.2854Y-0.6788
X4.307Y-0.1513
X4.3327Y-0.6788
X4.3413Y0.1258
X4.3488Y-1.6213
X4.3543Y-0.1513
X4.38Y-0.6788
X4.3988Y-0.2963
X4.4016Y-0.1513
X4.4095Y-0.8865
X4.4138Y-0.9763
X4.4272Y-0.6788
X4.4289Y-0.8667
X4.4488Y-0.1513
X4.4563Y-1.5638
X4.4573Y0.2807
X4.4638Y-0.9113
X4.4745Y-0.6788
X4.477Y-0.9906
X4.4961Y-0.1513
X4.5163Y0.0912
X4.5218Y-0.6788
X4.5228Y-1.6898
X4.5413Y0.1367
X4.5434Y-0.1513
X4.5438Y-0.9763
X4.5591Y0.2587
X4.5691Y-0.6788
X4.5863Y-1.2237
X4.5907Y-0.1513
X4.5913Y0.1149
X4.6163Y-0.4438
X4.6163Y-0.6288
X4.6163Y-0.6788
X4.6163Y-0.9288
X4.6313Y-0.9763
X4.6335Y0.2413
X4.6363Y0.0587
X4.6379Y-0.1513
X4.6663Y-0.4438
X4.6663Y-0.6288
X4.6663Y-0.6788
X4.6852Y-0.1513
X4.6888Y-1.2385
X4.6889Y-0.8667
X4.6938Y0.0842
X4.7113Y-0.9663
X4.7138Y-0.6788
X4.7163Y-0.4438
X4.7163Y-0.6288
X4.7163Y-0.9313
X4.7325Y-0.1513
X4.7438Y0.0837
X4.7636Y-1.2531
X4.7638Y-0.4438
X4.7663Y-0.6288
X4.7663Y-0.6788
X4.7788Y-0.9213
X4.7797Y-0.1513
X4.7888Y-1.5663
X4.7889Y-0.8912
X4.8013Y-1.2682
X4.8038Y-0.941
X4.8138Y-0.6788
X4.8163Y-0.4438
X4.8163Y-0.6288
X4.827Y-0.1513
X4.8338Y0.0462
X4.8438Y0.0787
X4.8713Y-1.0238
X4.8743Y-0.1513
X4.8763Y-1.2831
X4.8888Y-0.8988
X4.8988Y0.0487
X4.9013Y-1.6503
X4.9138Y-0.6788
X4.9216Y-0.1513
X4.9363Y0.1258
X4.9413Y0.2612
X4.9588Y-1.2979
X4.9688Y-0.1513
X4.9988Y-0.6788
X5.0161Y-0.1513
X5.0169Y-1.3128
X5.0563Y-0.6788
X5.0634Y-0.1513
X5.0938Y-1.684
X5.1107Y-0.1513
X5.1188Y-0.9213
X5.1213Y-0.4563
X5.1538Y-1.3138
X5.1563Y-1.0188
X5.1579Y-0.1513
X5.1738Y0.1687
X5.1788Y-0.4463
X5.1788Y-0.6363
X5.186Y0.1258
X5.2038Y0.1487
X5.2052Y-0.1513
X5.2288Y-0.4463
X5.2288Y-0.6363
X5.2288Y-0.6788
X5.2513Y0.0787
X5.2524Y0.1355
X5.2525Y-0.1513
X5.2788Y-0.4463
X5.2788Y-0.6363
X5.2788Y-0.6788
X5.2938Y-1.0163
X5.2997Y-0.1513
X5.3013Y0.0787
X5.3288Y-0.4463
X5.3288Y-0.6363
X5.347Y-0.1513
X5.3513Y0.0787
X5.3563Y0.0512
X5.3943Y-0.1513
X5.404Y0.2643
X5.4088Y-0.9388
X5.4091Y0.172
X5.4259Y0.0437
X5.4288Y-0.2913
X5.4416Y-0.1513
X5.4513Y-0.0763
X5.4713Y-0.721
X5.4752Y0.0671
X5.4963Y-0.2063
T2
X3.3738Y-0.0288
X3.3763Y-0.2588
X3.4888Y0.1287
X4.2388Y0.0637
X5.1338Y-0.8538
X5.4138Y-0.7838
X5.4213Y-0.8338
T3
X5.503Y0.2677
X5.5263Y0.3241
X5.5263Y0.2113
X5.5827Y0.3474
X5.5827Y0.188
X5.6391Y0.3241
X5.6391Y0.2113
X5.6624Y0.2677
X3.2195Y0.2677
X3.2428Y0.3241
X3.2428Y0.2113
X3.2992Y0.3474
X3.2992Y0.188
X3.3556Y0.3241
X3.3556Y0.2113
X3.3789Y0.2677
X5.503Y-1.6614
X5.5263Y-1.605
X5.5263Y-1.7178
X5.5827Y-1.5817
X5.5827Y-1.7411
X5.6391Y-1.605
X5.6391Y-1.7178
X5.6624Y-1.6614
X5.503Y-0.6378
X5.5263Y-0.5814
X5.5263Y-0.6942
X5.5827Y-0.5581
X5.5827Y-0.7175
X5.6391Y-0.5814
X5.6391Y-0.6942
X5.6624Y-0.6378
X3.2195Y-1.6614
X3.2428Y-1.605
X3.2428Y-1.7178
X3.2992Y-1.5817
X3.2992Y-1.7411
X3.3556Y-1.605
X3.3556Y-1.7178
X3.3789Y-1.6614
X3.2195Y-0.6378
X3.2428Y-0.5814
X3.2428Y-0.6942
X3.2992Y-0.5581
X3.2992Y-0.7175
X3.3556Y-0.5814
X3.3556Y-0.6942
X3.3789Y-0.6378
T4
X3.2996Y-0.0323
X3.2996Y-0.1323
X3.2996Y-0.2323
X3.2996Y-0.3323
X3.2996Y-0.4323
X3.2388Y-1.0888
X3.2388Y-1.1888
X3.3388Y-1.0888
X3.3388Y-1.1888
X3.4388Y-1.0888
X3.4388Y-1.1888
X3.5388Y-1.0888
X3.5388Y-1.1888
X3.6388Y-1.0888
X3.6388Y-1.1888
X3.7388Y-1.0888
X3.7388Y-1.1888
X3.8388Y-1.0888
X3.8388Y-1.1888
X3.9388Y-1.0888
X3.9388Y-1.1888
X4.0388Y-1.0888
X4.0388Y-1.1888
X4.1388Y-1.0888
X4.1388Y-1.1888
X4.2388Y-1.0888
X4.2388Y-1.1888
X4.3388Y-1.0888
X4.3388Y-1.1888
X4.4388Y-1.0888
X4.4388Y-1.1888
X4.5388Y-1.0888
X4.5388Y-1.1888
X4.6388Y-1.0888
X4.6388Y-1.1888
X4.7388Y-1.0888
X4.7388Y-1.1888
X4.8388Y-1.0888
X4.8388Y-1.1888
X4.9388Y-1.0888
X4.9388Y-1.1888
X5.0388Y-1.0888
X5.0388Y-1.1888
X5.1388Y-1.0888
X5.1388Y-1.1888
X5.2388Y-1.0888
X5.2388Y-1.1888
X5.3388Y-1.0888
X5.3388Y-1.1888
X5.4388Y-1.0888
X5.4388Y-1.1888
X5.5388Y-1.0888
X5.5388Y-1.1888
X5.6388Y-1.0888
X5.6388Y-1.1888
X3.4913Y0.3177
X3.4913Y0.2177
X3.5913Y0.3177
X3.5913Y0.2177
X3.6913Y0.3177
X3.6913Y0.2177
X3.7913Y0.3177
X3.7913Y0.2177
X3.8913Y0.3177
X3.8913Y0.2177
X3.9913Y0.3177
X3.9913Y0.2177
X4.0913Y0.3177
X4.0913Y0.2177
X4.1913Y0.3177
X4.1913Y0.2177
X4.2913Y0.3177
X4.2913Y0.2177
X4.3913Y0.3177
X4.3913Y0.2177
X4.4913Y0.3177
X4.4913Y0.2177
X4.5913Y0.3177
X4.5913Y0.2177
X4.6913Y0.3177
X4.6913Y0.2177
X4.7913Y0.3177
X4.7913Y0.2177
X4.8913Y0.3177
X4.8913Y0.2177
X4.9913Y0.3177
X4.9913Y0.2177
X5.0913Y0.3177
X5.0913Y0.2177
X5.1913Y0.3177
X5.1913Y0.2177
X5.2913Y0.3177
X5.2913Y0.2177
X5.3913Y0.3177
X5.3913Y0.2177
X4.2463Y-0.5288
X4.3463Y-0.5288
T5
X3.7855Y-1.3729
X3.84Y-1.4847
X3.8945Y-1.3729
X3.9491Y-1.4847
X4.0036Y-1.3729
X4.0581Y-1.4847
X4.1127Y-1.3729
X4.1672Y-1.4847
X4.2217Y-1.3729
X4.2762Y-1.4847
X4.3308Y-1.3729
X4.3853Y-1.4847
X4.4398Y-1.3729
X4.4944Y-1.4847
X4.5489Y-1.3729
X4.6034Y-1.4847
X4.6579Y-1.3729
X4.7125Y-1.4847
X4.767Y-1.3729
X4.8215Y-1.4847
X4.876Y-1.3729
X4.9306Y-1.4847
X4.9851Y-1.3729
X5.0396Y-1.4847
X5.0942Y-1.3729
T6
X5.5827Y-0.6378
X3.2992Y-1.6614
X3.2992Y-0.6378
X5.5827Y0.2677
X3.2992Y0.2677
X5.5827Y-1.6614
T7
X3.5138Y-1.4288
X5.3658Y-1.4288
T0
M30
