M48
; DRILL file {KiCad (5.1.4)-1} date 8/1/2020 5:07:45 PM
; FORMAT={-:-/ absolute / inch / decimal}
; #@! TF.CreationDate,2020-08-01T17:07:45-05:00
; #@! TF.GenerationSoftware,Kicad,Pcbnew,(5.1.4)-1
; #@! TF.FileFunction,Plated,1,2,PTH
FMAT,2
INCH
T1C0.0098
T2C0.0157
T3C0.0197
T4C0.0394
T5C0.0406
T6C0.1063
T7C0.1272
%
G90
G05
T1
X7.0877Y-3.355
X7.1075Y-3.3775
X7.2Y-2.5225
X7.2Y-2.7075
X7.25Y-2.5225
X7.25Y-2.7075
X7.26Y-1.8975
X7.2755Y-1.99
X7.2778Y-1.9275
X7.3Y-2.5225
X7.3Y-2.7075
X7.32Y-1.995
X7.3425Y-3.39
X7.35Y-2.5225
X7.35Y-2.7075
X7.3725Y-1.9925
X7.3875Y-3.3925
X7.4Y-2.5225
X7.4Y-2.7075
X7.41Y-2.9625
X7.415Y-3.39
X7.4204Y-2.9329
X7.425Y-1.99
X7.4325Y-2.9925
X7.4475Y-2.5225
X7.45Y-2.7075
X7.455Y-3.405
X7.46Y-1.895
X7.4675Y-3.015
X7.471Y-2.9082
X7.4725Y-1.9925
X7.4903Y-1.942
X7.5Y-2.5225
X7.5Y-2.7075
X7.505Y-2.8823
X7.5225Y-1.995
X7.525Y-3.0125
X7.55Y-2.5225
X7.55Y-2.7075
X7.555Y-2.8375
X7.5679Y-3.4233
X7.57Y-2.0325
X7.575Y-1.955
X7.6Y-2.39
X7.62Y-2.0325
X7.625Y-2.6225
X7.655Y-1.9202
X7.7056Y-1.953
X7.7125Y-2.5225
X7.7125Y-2.7075
X7.72Y-2.3925
X7.7225Y-2.0
X7.7475Y-3.01
X7.755Y-2.62
X7.7925Y-1.9639
X7.845Y-1.9825
X7.9475Y-3.7488
X8.05Y-1.953
X8.0575Y-3.7
X8.1075Y-2.375
X8.1182Y-2.9652
X8.1376Y-2.9455
X8.166Y-1.798
X8.1725Y-2.99
X8.1856Y-3.0694
X8.225Y-1.9875
X8.2315Y-3.7685
X8.25Y-1.942
X8.2678Y-1.8201
X8.295Y-3.3024
X8.3Y-1.9639
X8.325Y-2.5225
X8.325Y-2.7075
X8.325Y-3.0075
X8.3421Y-1.8374
X8.345Y-2.02
X8.375Y-2.5225
X8.375Y-2.7075
X8.3975Y-3.3173
X8.3975Y-2.9455
X8.4025Y-1.9945
X8.42Y-3.045
X8.425Y-2.5225
X8.425Y-2.7075
X8.425Y-3.01
X8.4525Y-1.995
X8.4722Y-3.3318
X8.4725Y-2.5225
X8.475Y-2.7075
X8.4875Y-3.0
X8.4975Y-2.97
X8.51Y-3.347
X8.5125Y-3.0198
X8.525Y-2.5225
X8.525Y-2.7075
X8.5425Y-2.0325
X8.5525Y-2.0
X8.58Y-3.1025
X8.585Y-3.3618
X8.5975Y-2.9775
X8.6075Y-2.03
X8.61Y-3.729
X8.645Y-1.953
X8.65Y-1.8175
X8.6675Y-3.3767
X8.7256Y-3.3915
X8.8025Y-3.7627
X8.8275Y-3.0
X8.83Y-2.535
X8.865Y-3.0975
X8.8825Y-1.91
X8.8875Y-2.525
X8.8875Y-2.715
X8.8947Y-1.9529
X8.9125Y-1.93
X8.9375Y-2.525
X8.9375Y-2.715
X8.96Y-2.0
X8.9611Y-1.9432
X8.9875Y-2.525
X8.9875Y-2.715
X9.0025Y-3.095
X9.01Y-2.0
X9.0375Y-2.525
X9.0375Y-2.715
X9.06Y-2.0
X9.065Y-2.0275
X9.1127Y-1.8144
X9.1175Y-3.0175
X9.1178Y-1.9067
X9.1345Y-2.035
X9.1375Y-2.37
X9.16Y-2.155
X9.18Y-2.7998
X9.1839Y-2.0116
X9.2Y-2.3025
T2
X7.0825Y-2.1075
X7.085Y-2.3375
X7.175Y-2.205
X7.1825Y-1.995
X7.1975Y-1.95
X7.495Y-2.1975
X7.8475Y-2.215
X7.9475Y-2.015
X8.69Y-2.62
X8.765Y-2.7825
X8.8425Y-2.9325
X9.1225Y-2.8625
X9.13Y-2.9125
T3
X9.2116Y-3.7402
X9.235Y-3.6838
X9.235Y-3.7965
X9.2913Y-3.6604
X9.2913Y-3.8199
X9.3477Y-3.6838
X9.3477Y-3.7965
X9.3711Y-3.7402
X6.9281Y-3.7402
X6.9515Y-3.6838
X6.9515Y-3.7965
X7.0079Y-3.6604
X7.0079Y-3.8199
X7.0642Y-3.6838
X7.0642Y-3.7965
X7.0876Y-3.7402
X6.9281Y-2.7165
X6.9515Y-2.6602
X6.9515Y-2.7729
X7.0079Y-2.6368
X7.0079Y-2.7963
X7.0642Y-2.6602
X7.0642Y-2.7729
X7.0876Y-2.7165
X9.2116Y-1.811
X9.235Y-1.7546
X9.235Y-1.8674
X9.2913Y-1.7313
X9.2913Y-1.8907
X9.3477Y-1.7546
X9.3477Y-1.8674
X9.3711Y-1.811
X6.9281Y-1.811
X6.9515Y-1.7546
X6.9515Y-1.8674
X7.0079Y-1.7313
X7.0079Y-1.8907
X7.0642Y-1.7546
X7.0642Y-1.8674
X7.0876Y-1.811
X9.2116Y-2.7165
X9.235Y-2.6602
X9.235Y-2.7729
X9.2913Y-2.6368
X9.2913Y-2.7963
X9.3477Y-2.6602
X9.3477Y-2.7729
X9.3711Y-2.7165
T4
X7.955Y-2.6075
X8.055Y-2.6075
X7.0083Y-2.111
X7.0083Y-2.211
X7.0083Y-2.311
X7.0083Y-2.411
X7.0083Y-2.511
X7.2Y-1.761
X7.2Y-1.861
X7.3Y-1.761
X7.3Y-1.861
X7.4Y-1.761
X7.4Y-1.861
X7.5Y-1.761
X7.5Y-1.861
X7.6Y-1.761
X7.6Y-1.861
X7.7Y-1.761
X7.7Y-1.861
X7.8Y-1.761
X7.8Y-1.861
X7.9Y-1.761
X7.9Y-1.861
X8.0Y-1.761
X8.0Y-1.861
X8.1Y-1.761
X8.1Y-1.861
X8.2Y-1.761
X8.2Y-1.861
X8.3Y-1.761
X8.3Y-1.861
X8.4Y-1.761
X8.4Y-1.861
X8.5Y-1.761
X8.5Y-1.861
X8.6Y-1.761
X8.6Y-1.861
X8.7Y-1.761
X8.7Y-1.861
X8.8Y-1.761
X8.8Y-1.861
X8.9Y-1.761
X8.9Y-1.861
X9.0Y-1.761
X9.0Y-1.861
X9.1Y-1.761
X9.1Y-1.861
X6.9475Y-3.1675
X6.9475Y-3.2675
X7.0475Y-3.1675
X7.0475Y-3.2675
X7.1475Y-3.1675
X7.1475Y-3.2675
X7.2475Y-3.1675
X7.2475Y-3.2675
X7.3475Y-3.1675
X7.3475Y-3.2675
X7.4475Y-3.1675
X7.4475Y-3.2675
X7.5475Y-3.1675
X7.5475Y-3.2675
X7.6475Y-3.1675
X7.6475Y-3.2675
X7.7475Y-3.1675
X7.7475Y-3.2675
X7.8475Y-3.1675
X7.8475Y-3.2675
X7.9475Y-3.1675
X7.9475Y-3.2675
X8.0475Y-3.1675
X8.0475Y-3.2675
X8.1475Y-3.1675
X8.1475Y-3.2675
X8.2475Y-3.1675
X8.2475Y-3.2675
X8.3475Y-3.1675
X8.3475Y-3.2675
X8.4475Y-3.1675
X8.4475Y-3.2675
X8.5475Y-3.1675
X8.5475Y-3.2675
X8.6475Y-3.1675
X8.6475Y-3.2675
X8.7475Y-3.1675
X8.7475Y-3.2675
X8.8475Y-3.1675
X8.8475Y-3.2675
X8.9475Y-3.1675
X8.9475Y-3.2675
X9.0475Y-3.1675
X9.0475Y-3.2675
X9.1475Y-3.1675
X9.1475Y-3.2675
X9.2475Y-3.1675
X9.2475Y-3.2675
X9.3475Y-3.1675
X9.3475Y-3.2675
T5
X7.4942Y-3.4516
X7.5487Y-3.5634
X7.6032Y-3.4516
X7.6577Y-3.5634
X7.7123Y-3.4516
X7.7668Y-3.5634
X7.8213Y-3.4516
X7.8758Y-3.5634
X7.9304Y-3.4516
X7.9849Y-3.5634
X8.0394Y-3.4516
X8.094Y-3.5634
X8.1485Y-3.4516
X8.203Y-3.5634
X8.2575Y-3.4516
X8.3121Y-3.5634
X8.3666Y-3.4516
X8.4211Y-3.5634
X8.4756Y-3.4516
X8.5302Y-3.5634
X8.5847Y-3.4516
X8.6392Y-3.5634
X8.6938Y-3.4516
X8.7483Y-3.5634
X8.8028Y-3.4516
T6
X9.2913Y-2.7165
X9.2913Y-3.7402
X7.0079Y-3.7402
X7.0079Y-2.7165
X9.2913Y-1.811
X7.0079Y-1.811
T7
X7.2225Y-3.5075
X9.0745Y-3.5075
T0
M30
