<?xml version="1.0" encoding="utf-8"?>
<!-- Generator: Adobe Illustrator 27.0.0, SVG Export Plug-In . SVG Version: 6.00 Build 0)  -->
<svg version="1.1" xmlns="http://www.w3.org/2000/svg" xmlns:xlink="http://www.w3.org/1999/xlink" x="0px" y="0px"
	 viewBox="0 0 320 320" style="enable-background:new 0 0 320 320;" xml:space="preserve">
<style type="text/css">
	.st0{display:none;}
	.st1{display:inline;fill:#CC6600;}
	.st2{fill:#CC6600;}
	.st3{fill:#FFFFFF;}
	.st4{fill:none;}
</style>
<g id="BG" class="st0">
	<rect x="0" y="0" class="st1" width="320" height="320"/>
	<line class="st2" x1="160" y1="-0.5" x2="160" y2="339.5"/>
</g>
<g id="line" class="st0">
</g>
<g id="body">
	<g>
		<g>
			<path class="st3" d="M258.4,177.1c0.3-0.4,0.6-0.8,0.7-0.9c0-0.1,0.1-0.2,0.2-0.2c1.3-1.5,1.9-3.2,1.7-3.5c0,0,0,0,0-0.1
				c-0.1-0.1-0.2-0.3-0.4-0.4c-0.1-0.1-0.3-0.1-0.4-0.2c-2.6-0.6-8.7,2.2-16.8,7.7c-0.4,0.3-1,0.3-1.4-0.1c-0.4-0.4-0.5-1-0.3-1.5
				c0.5-1.3,1-3,0.1-3.5c-0.2-0.1-0.5-0.2-0.9-0.2c-2.6,0-7.9,3.5-12.2,7.3c-7.1,6.2-11,12.6-10.1,16.2c0.1,0.4,0.2,0.8,0.3,1.2
				c0.2,0.8,0.5,1.6,0.6,2.4c0.1,0.5,0.2,0.9,0.3,1.4c1.1,3.9,1.7,7.7,1.6,11.3l0,1.3c-0.1,8.5-0.2,17.3-7.4,26.8
				c0.1,0.1,0.2,0.2,0.3,0.3c0.6-0.4,1.4-0.9,2.2-1.5c2.8-2,5.7-3.7,8.6-5.3c7.3-4,14.8-13.6,17.4-20.8c0.5-1.6,1.7-6.2,1.7-7.9
				c0-1.6,1.6-2,3.2-2.2c0.3,0,0.5-0.1,0.8-0.1c0.3,0,1.4-0.8,1.7-1l0.1,0c1.9-0.6,2.4-1,2.5-1.3c0,0-0.1-0.2-0.5-0.6v0
				c-0.3-0.3-0.4-0.7-0.4-1c0.1-0.9,0.7-1.2,2.8-2.2c0.2-0.1,0.4-0.2,0.5-0.2c0,0,0.1-0.1,0.1-0.1c0.3-0.1,0.3-0.5,0.3-0.5
				c0-0.1,0-0.4-0.3-0.5c-0.2-0.1-0.4-0.2-0.5-0.4c-0.2-0.3-0.3-0.7-0.2-1.1c0.1-0.8,0.8-1.4,2.4-2.6c0.2-0.2,0.4-0.3,0.5-0.4
				c0,0,0.1-0.1,0.1-0.1c0.2-0.2,0.4-0.4,0.4-0.6c0-0.4-0.6-1.1-1.5-1.6c-0.2-0.1-0.3-0.2-0.4-0.4c-1.1-1.6,0.8-3.1,2.3-4.3
				c0.2-0.2,0.6-0.5,0.7-0.6c0-0.1,0.1-0.1,0.2-0.2c0.3-0.3,0.5-0.8,0.4-1.2c0-0.3-0.2-0.4-0.3-0.4l-2.4-1c-0.3-0.1-0.6-0.4-0.7-0.8
				c-0.1-0.2-0.1-0.3-0.1-0.5c0-0.7,0.5-1.4,2.3-3.7C258.1,177.3,258.2,177.2,258.4,177.1z"/>
			<path class="st3" d="M106.3,242.2c-7.2-9.5-7.3-18.3-7.4-26.8l0-1.3c-0.1-3.6,0.5-7.4,1.6-11.3c0.1-0.5,0.2-0.9,0.3-1.4
				c0.2-0.8,0.4-1.7,0.6-2.4c0.1-0.4,0.2-0.8,0.3-1.2c0.9-3.6-3-10-10.1-16.2c-4.9-4.3-11.1-8.2-13.1-7.1c-0.9,0.5-0.5,2.2,0.1,3.5
				c0.2,0.5,0.1,1.1-0.3,1.5c-0.4,0.4-1,0.4-1.4,0.1c-8.1-5.5-14.2-8.3-16.8-7.7c-0.2,0-0.3,0.1-0.4,0.2c-0.2,0.1-0.4,0.3-0.4,0.4
				c0,0,0,0.1,0,0.1c-0.2,0.3,0.3,2,1.7,3.5c0.1,0.1,0.1,0.2,0.2,0.2c0.1,0.1,0.4,0.5,0.7,0.9c0.1,0.1,0.2,0.3,0.3,0.4
				c1.8,2.2,2.3,3,2.3,3.7c0,0.2,0,0.3-0.1,0.5c-0.1,0.3-0.3,0.6-0.7,0.8l-2.4,1c-0.1,0-0.2,0.1-0.3,0.4c-0.1,0.4,0.1,0.9,0.4,1.2
				c0.1,0.1,0.1,0.1,0.2,0.2c0.1,0.1,0.4,0.4,0.7,0.6c1.5,1.2,3.4,2.7,2.3,4.3c-0.1,0.2-0.3,0.3-0.4,0.4c-0.9,0.5-1.5,1.2-1.5,1.6
				c0,0.2,0.2,0.5,0.4,0.6c0,0,0.1,0.1,0.1,0.1c0.1,0.1,0.3,0.2,0.5,0.4c1.6,1.2,2.3,1.7,2.4,2.6c0.1,0.4,0,0.8-0.2,1.1
				c-0.1,0.2-0.3,0.3-0.5,0.4c-0.2,0.1-0.3,0.3-0.3,0.5c0,0.1,0,0.4,0.3,0.5c0,0,0.1,0,0.1,0.1c0.1,0,0.3,0.1,0.5,0.2
				c2.1,1,2.7,1.3,2.8,2.2c0,0.4-0.1,0.8-0.4,1l0,0c-0.4,0.4-0.4,0.6-0.4,0.6c0.1,0.2,0.6,0.6,2.5,1.2l0.1,0c0.4,0.1,1.5,0.9,1.7,1
				c0.3,0,0.5,0.1,0.8,0.1c1.6,0.2,3.2,0.7,3.2,2.2c0,1.7,1.3,6.3,1.8,7.9c2.5,7.2,10.1,16.7,17.4,20.7c2.9,1.6,5.8,3.4,8.6,5.3
				c0.8,0.6,1.6,1.1,2.2,1.5C106.1,242.4,106.2,242.2,106.3,242.2z"/>
		</g>
		<g>
			<path class="st3" d="M243.5,148.9L243.5,148.9l-0.2-0.1c-0.3,0-0.5-0.1-0.8-0.1c-0.2,0-0.3-0.1-0.4-0.2c-0.1-0.2-0.1-0.3-0.1-0.5
				c0.2-0.4,0.5-0.8,0.9-1c0.6-0.3,1-0.9,0.9-1.5c-0.1-0.6-0.5-1.1-1.2-1.2c-3-0.7-5.6-0.7-8.2-0.8c-0.2,0-0.3-0.1-0.4-0.2
				c-0.1-0.1-0.2-0.3-0.2-0.5c0.1-0.6,0.2-1.2,0.7-1.7c0.5-0.5,0.6-1.1,0.4-1.6c0,0,0-0.1,0-0.1c-0.2-0.4-0.7-0.7-1.2-0.7
				c-0.3,0-0.7-0.1-1-0.1c-2.4-0.2-4.7-0.1-6.9,0.2c-0.2,0-0.4-0.1-0.5-0.1c-0.2-0.1-0.2-0.3-0.2-0.5c0.1-0.5,0.4-1,0.9-1.4
				c0.5-0.5,0.6-1.1,0.3-1.7c-0.3-0.5-0.8-0.8-1.5-0.8c-2.7,0.1-5.2,0.4-7.7,0.7c-0.8,0.1-1.5,0.2-2.3,0.3c-0.3,0-0.4-0.1-0.5-0.2
				c-0.1-0.1-0.2-0.4-0.1-0.7c0.1-0.3,0.3-0.5,0.5-0.9c0.3-0.5,0.3-1.1-0.1-1.6c-0.3-0.4-0.9-0.6-1.4-0.5
				c-4.8,0.4-11.2,1.3-15.9,4.1c-1.4,0.8-2.9,1.5-4.4,2.2c-1.2,0.6-2.4,1.3-3.6,2.2c-0.8,0.6-1.5,1.2-2.2,1.7l-0.4,0.4
				c-0.9,0.8-1.9,1.8-2.9,2.8c-1.7,1.7-3.3,3.7-5,5.9c-0.5,0.6-1,1.3-1.4,1.9c-0.4,0.6-0.9,1.2-1.3,1.8c-0.6,0.9-1.2,1.8-1.8,2.7
				c-2.4,3.8-6.4,10.9-5.9,15.6c0.2,1.7,0.9,3,2.2,3.9c1.1,0.7,2.4,1.1,4,1.1c1,0,2.2-0.2,3.5-0.5c0.4-0.1,0.7-0.2,1.1-0.3
				c0.3-0.1,0.6-0.2,0.9-0.3c0.3-0.1,0.6-0.2,0.9-0.3c0.5-0.2,0.9-0.4,1.4-0.6c1.1,3.4,4.3,6.3,8.8,8c0.6,0.2,1.2,0.4,1.9,0.6
				c0.4,0.1,0.8,0.2,1.3,0.3c0.5,0.1,0.9,0.2,1.4,0.3c1.2,0.2,2.4,0.3,3.6,0.3c0.3,0,0.7,0,1,0c0.9,0,1.8-0.2,2.6-0.4l0.1,0
				c0.1,0,0.2-0.1,0.3-0.1c0.6-0.2,1.2-0.4,1.9-0.7c2.6-1.1,4.7-3.1,6-5.7c1.4-2.8,1.8-6.1,1.1-9.3c-0.1-0.4-0.2-0.9-0.4-1.3
				c-0.2-0.6-0.4-1.2-0.7-1.8c1.7-0.7,3.5-1.7,5.1-3c1.3-1,2.4-2.1,3.4-3.2c0.4-0.5,1-0.8,1.8-0.9c0.7-0.1,1.5-0.2,2.2-0.4
				c0.9-0.2,1.8-0.4,2.7-0.5c0.4-0.1,0.9-0.2,1.3-0.3c0.7-0.1,1.3-0.3,1.9-0.5c0.8-0.2,1.7-0.4,2.5-0.6c0.8-0.2,1.6-0.5,2.4-0.7
				c0.8-0.3,1.6-0.5,2.3-0.8c0.6-0.2,1.1-0.4,1.7-0.6c0.5-0.2,1.1-0.4,1.5-0.7c0.6-0.3,1.2-0.6,1.7-0.9c0.6-0.3,1.1-0.7,1.6-1
				c0.6-0.5,1-0.9,1.2-1.3C244.5,150,244.2,149.3,243.5,148.9z M205.8,175.9c-0.8,1.5-2,2.7-3.5,3.4c-0.4,0.2-0.7,0.3-1.1,0.4
				c-0.1,0-0.2,0-0.2,0.1c-0.5,0.1-1.1,0.2-1.6,0.2c-1,0.1-2,0-3.1-0.2c-0.3-0.1-0.6-0.1-0.9-0.2c-0.3-0.1-0.6-0.1-0.9-0.2
				c-0.4-0.1-0.8-0.3-1.2-0.4c-2.8-1.1-4.8-2.8-5.5-4.8c-0.6-2,0.1-4.4,1.8-6.7c0.1-0.2,0.3-0.3,0.4-0.5c0,0,0.1-0.1,0.1-0.1
				c0.5-2.5,2.8-4.5,5.6-4.5c0.8,0,1.6,0.2,2.3,0.5c1.4,0,2.8,0.4,4.1,1.2c2,1.2,3.5,3.1,4.2,5.3c0.1,0.3,0.2,0.6,0.2,0.8
				C206.9,172.2,206.7,174.2,205.8,175.9z"/>
			<path class="st3" d="M195.7,164.4c-2,0-3.6,1.5-3.6,3.4c0,1.9,1.6,3.4,3.6,3.4c2,0,3.6-1.5,3.6-3.4
				C199.2,166,197.6,164.4,195.7,164.4z"/>
			<path class="st3" d="M144.1,154.4c-0.4-0.6-0.8-1.2-1.3-1.8c-0.5-0.7-1-1.3-1.4-1.9c-1.7-2.1-3.3-4.1-5-5.9c-1-1-2-2-2.9-2.8
				l-0.4-0.4c-0.7-0.6-1.4-1.1-2.2-1.7c-1.2-0.9-2.5-1.6-3.6-2.2c-1.5-0.7-3-1.4-4.4-2.2c-4.6-2.8-11-3.6-15.9-4.1
				c-0.6-0.1-1.1,0.2-1.4,0.5c-0.4,0.4-0.4,1.1-0.1,1.6c0.2,0.3,0.3,0.6,0.5,0.9c0.1,0.3,0,0.5-0.1,0.7c-0.1,0.1-0.3,0.2-0.5,0.2
				c-0.8-0.1-1.6-0.2-2.3-0.3c-2.4-0.3-5-0.6-7.7-0.7c-0.6,0-1.2,0.3-1.5,0.8c-0.3,0.5-0.2,1.2,0.3,1.7c0.5,0.5,0.8,0.9,0.9,1.4
				c0,0.2,0,0.4-0.2,0.5c-0.1,0.1-0.2,0.2-0.5,0.1c-2.2-0.3-4.5-0.4-6.9-0.2c-0.3,0-0.7,0.1-1,0.1c-0.5,0.1-1,0.3-1.2,0.7
				c0,0,0,0.1,0,0.1c-0.2,0.5-0.1,1.2,0.4,1.6c0.5,0.5,0.6,1,0.7,1.7c0,0.2,0,0.4-0.2,0.5c-0.1,0.1-0.3,0.2-0.4,0.2
				c-2.6,0-5.2,0.1-8.2,0.8c-0.7,0.1-1.1,0.6-1.2,1.2c-0.1,0.6,0.3,1.2,0.9,1.5c0.5,0.2,0.8,0.5,0.9,1c0.1,0.2,0,0.4-0.1,0.5
				c-0.1,0.1-0.2,0.2-0.4,0.2c-0.3,0-0.5,0.1-0.8,0.1l-0.1,0l-0.1,0.1c-0.7,0.5-1,1.1-0.7,1.8c0.2,0.4,0.6,0.9,1.2,1.3
				c0.4,0.3,0.9,0.7,1.6,1c0.5,0.3,1.1,0.6,1.7,0.9c0.5,0.2,1,0.4,1.5,0.7c0.5,0.2,1.1,0.4,1.7,0.6c0.7,0.3,1.5,0.5,2.3,0.8
				c0.8,0.2,1.6,0.5,2.4,0.7c0.8,0.2,1.6,0.4,2.5,0.6c0.6,0.2,1.3,0.3,1.9,0.5c0.4,0.1,0.9,0.2,1.3,0.3c0.9,0.2,1.8,0.4,2.7,0.5
				c0.7,0.1,1.5,0.3,2.2,0.4c0.7,0.1,1.3,0.4,1.8,0.9c1,1.1,2.1,2.2,3.4,3.2c1.6,1.3,3.3,2.2,5.1,3c-0.3,0.6-0.5,1.2-0.7,1.8
				c-0.1,0.4-0.3,0.9-0.4,1.3c-0.7,3.2-0.3,6.5,1.1,9.3c1.3,2.6,3.4,4.5,6,5.7c0.7,0.3,1.3,0.5,1.9,0.7c0.1,0,0.2,0,0.3,0.1l0.1,0
				c0.8,0.2,1.7,0.3,2.6,0.4c0.3,0,0.7,0,1,0c1.2,0,2.4-0.1,3.6-0.3c0.5-0.1,0.9-0.2,1.4-0.3c0.4-0.1,0.8-0.2,1.3-0.3
				c0.7-0.2,1.3-0.4,1.9-0.6c4.5-1.7,7.7-4.6,8.8-8c0.5,0.2,0.9,0.4,1.4,0.6c0.3,0.1,0.6,0.2,0.9,0.3c0.3,0.1,0.6,0.2,0.9,0.3
				c0.4,0.1,0.7,0.2,1.1,0.3c1.3,0.3,2.4,0.5,3.5,0.5c1.6,0,3-0.4,4-1.1c1.2-0.9,2-2.2,2.2-3.9c0.5-4.6-3.5-11.8-5.9-15.6
				C145.3,156.2,144.7,155.3,144.1,154.4z M132.3,174.1c-0.6,2-2.6,3.7-5.5,4.8c-0.4,0.2-0.8,0.3-1.2,0.4c-0.3,0.1-0.6,0.2-0.9,0.2
				c-0.3,0.1-0.6,0.1-0.9,0.2c-1.1,0.2-2.1,0.2-3.1,0.2c-0.6,0-1.1-0.1-1.6-0.2c-0.1,0-0.2,0-0.2-0.1c-0.4-0.1-0.8-0.2-1.1-0.4
				c-1.5-0.7-2.7-1.8-3.5-3.4c-0.9-1.7-1.1-3.7-0.7-5.7c0.1-0.3,0.1-0.6,0.2-0.8c0.7-2.3,2.2-4.2,4.2-5.3c1.3-0.8,2.7-1.2,4.1-1.2
				c0.7-0.3,1.5-0.5,2.3-0.5c2.8,0,5.1,1.9,5.6,4.5c0,0,0.1,0.1,0.1,0.1c0.1,0.2,0.3,0.3,0.4,0.5
				C132.2,169.7,132.9,172.1,132.3,174.1z"/>
			<path class="st3" d="M124.3,164.4c-2,0-3.6,1.5-3.6,3.4c0,1.9,1.6,3.4,3.6,3.4c2,0,3.6-1.5,3.6-3.4
				C127.9,166,126.3,164.4,124.3,164.4z"/>
		</g>
		<g>
			<path class="st3" d="M180.8,200.3c-6.3-7.2-13.5-9.2-20.8-8.8c-7.3-0.5-14.5,1.6-20.8,8.8c-4.4,0.9-21.1,5.3-20.9,24.5
				c0.2,10,5.8,17.7,13.1,21.7l0.1-0.7c0-0.2,0.1-0.3,0.2-0.4c0.1-0.1,0.3-0.2,0.5-0.1c1.8,0.2,2.8,0.8,3.2,1.9
				c0.1,0.4,0.1,0.7,0.1,1.1c0,0,0.1,0,0.1,0c1.1,5.9,5.4,11.7,11.9,14.7c3.9,1.8,8.2,2.4,12.5,2.1c4.3,0.3,8.7-0.3,12.5-2.1
				c6.5-3,10.9-8.7,11.9-14.7c0,0,0.1,0,0.1,0c-0.1-0.4,0-0.8,0.1-1.1c0.3-1,1.4-1.7,3.2-1.9c0.2,0,0.3,0,0.5,0.1
				c0.1,0.1,0.2,0.3,0.2,0.4l0.1,0.7c7.3-4,12.9-11.7,13.1-21.7C202,205.6,185.2,201.2,180.8,200.3z M173.5,212.2
				c-0.2,1.3-0.6,2.7-1.2,4.1c-0.2,0.4-0.4,0.8-0.6,1.2c-0.2,0.4-0.4,0.7-0.6,1.1c-0.3,0.5-0.7,1.1-1,1.6c-2.6,3.6-6.1,5.8-9.6,6
				c-0.1,0-0.3,0-0.5,0c-3.4,0.1-7-1.5-10.2-4.5c-0.2-0.2-0.5-0.5-0.7-0.7c-0.2-0.2-0.4-0.4-0.6-0.6c-0.2-0.2-0.3-0.4-0.5-0.6
				c-1-1.2-1.8-2.5-2.4-3.8c-0.2-0.5-0.5-1-0.6-1.5c-0.2-0.5-0.4-1.1-0.5-1.6c-0.1-0.4-0.2-0.8-0.2-1.2c-0.3-2.9,0.9-5.8,3.4-8.1
				c2.6-2.4,6.2-3.8,10.1-4.1c0.5,0,1-0.1,1.5-0.1c0.2,0,0.5,0,0.7,0c3.2,0.1,6.2,1,8.6,2.6c2.3,1.5,3.9,3.6,4.6,5.8
				c0.2,0.5,0.3,1.1,0.3,1.6c0,0.1,0,0.2,0,0.3C173.6,210.7,173.6,211.4,173.5,212.2z"/>
		</g>
	</g>
	<g>
		<path class="st4" d="M253.9,125.3L253.9,125.3c-0.4-0.3-0.7-0.5-1.1-0.7c-0.4-0.2-0.8-0.5-1.1-0.7c-0.4-0.2-0.7-0.4-1.1-0.6
			c-0.2-0.4-0.4-0.7-0.6-1.1c-0.7-1.2-1.4-2.5-2.2-3.7c-2.2-3.7-5.3-7-8.9-10c0,0,0.1-0.1,0.1-0.1c0.4-0.5,0.6-1,0.4-1.5
			c-0.1-0.2-0.2-0.4-0.3-0.6c-1.4-1.5-3.1-2.7-5.1-3.7c-0.1,0-0.1-0.1-0.2-0.1c-0.8-0.4-1.6-0.8-2.4-1.2c-0.5-0.2-1-0.4-1.4-0.6
			c-0.4-0.2-0.8-0.3-1.2-0.5c-0.1,0-0.2-0.1-0.2-0.1c0.1,0,0.3-0.1,0.6-0.1c0.2,0,0.4-0.1,0.6-0.1c0.9-0.3,1.7-0.8,2-1.5
			c0.2-0.3,0.2-0.7,0.1-1c-0.1-0.4-0.4-0.8-0.9-1.1c-1-0.5-2-1-3-1.4c-1.5-0.7-3.1-1.3-4.7-1.9c0.1,0,0.2,0,0.3,0
			c1.3-0.1,2.4-0.7,2.8-1.6c0,0,0,0,0,0c0.4-0.9,0-1.8-1-2.2c-0.1,0-0.2-0.1-0.3-0.1c-3.8-1.6-6.9-2.1-9.4-2.6
			c0.1-0.1,0.3-0.2,0.5-0.3c1.1-0.4,1.9-1.1,2-2c0.1-0.8-0.6-1.5-1.7-1.8c-3.3-0.7-6.2-0.9-9.2-1c0.2-0.4,0.4-0.7,0.7-0.9
			c0.9-0.6,1.3-1.3,1.1-2.1c0-0.1-0.1-0.2-0.2-0.4c-0.3-0.5-1-0.9-1.8-1c-0.7-0.1-1.4-0.2-2.1-0.2c-0.3,0-0.6,0-1-0.1
			c-2-0.1-3.9-0.1-5.9,0c0,0,0,0,0,0c0.1-0.2,0.4-0.4,0.8-0.6c0.2-0.1,0.4-0.3,0.5-0.4c0.4-0.4,0.6-0.8,0.6-1.3c0-0.1,0-0.3-0.1-0.4
			c-0.1-0.1-0.1-0.3-0.2-0.4c-0.2-0.2-0.4-0.4-0.6-0.5c-0.4-0.2-0.9-0.4-1.5-0.4c-0.3,0-0.5,0-0.8,0c-0.6,0-1.1,0-1.7,0
			c-0.4-0.3-0.7-0.6-1.1-1c-0.1-0.1-0.2-0.1-0.3-0.2c-0.2-0.2-0.5-0.3-0.7-0.5c-0.1-0.1-0.3-0.2-0.4-0.3c-0.1-0.1-0.3-0.2-0.4-0.3
			c-0.2-0.1-0.3-0.2-0.5-0.3c-0.1-0.1-0.3-0.2-0.4-0.3c-0.3-0.2-0.6-0.3-0.9-0.5c-0.2-0.1-0.4-0.2-0.5-0.3c-0.1,0-0.1-0.1-0.2-0.1
			c-0.6-0.3-1.2-0.7-1.9-1c-0.9-0.5-1.9-0.9-2.9-1.3c-0.1,0-0.2-0.1-0.4-0.1c-1-0.4-2-0.8-3-1.1c-0.7-0.2-1.5-0.3-2.3-0.3
			c-1-0.5-2-1-3.1-1.5c-0.3-0.1-0.6-0.2-0.9-0.3c0,0,0,0,0,0c-0.3-0.1-0.6-0.1-1-0.1c-0.6,0-1.2,0.1-1.7,0.4
			c-0.4,0.2-0.6,0.4-0.8,0.6c-2-0.9-4.5-1.8-7.4-2.1c-1.2-0.1-2.4,0.2-3,0.8c-0.1,0.1-0.1,0.1-0.2,0.2c-2.6-0.6-5.2-1.1-7.7-1.2
			c-1.3,0-2.3,0.5-2.7,1.2c0,0.1-0.1,0.2-0.1,0.2c-2.2-0.3-4.6-0.5-7.1-0.4c-1.2,0-2.1,0.5-2.4,1.2c-0.1,0.2-0.1,0.4-0.1,0.6
			c-1.9-0.1-3.8,0-5.6,0.1c-1.2,0.1-2.2,0.6-2.4,1.3c-0.1,0.2,0,0.5,0,0.7c-2.1,0-4.2,0.2-6.2,0.7c-0.2,0-0.3,0.1-0.4,0.1
			c0,0,0,0,0,0c-0.1,0.1-0.2,0.1-0.4,0.2c-0.3,0.2-0.5,0.4-0.6,0.6c0,0,0,0,0,0c-0.1,0.1-0.1,0.2-0.1,0.3c0,0,0,0.1,0,0.1
			c0,0.1,0,0.2,0,0.4c0,0.1,0.1,0.3,0.2,0.4c-1.5,0.1-3.1,0.2-4.9,0.7c-0.9,0.2-1.5,0.8-1.6,1.5c0,0.5,0.4,1.1,1,1.5
			c-0.1,0.1-0.2,0.1-0.2,0.2c0,0.1-0.1,0.1-0.1,0.2c-0.8,0.2-1.6,0.3-2.3,0.4c-1.3,0.2-2.1,0.9-2,1.8c0.1,0.3,0.2,0.5,0.4,0.8
			c-0.1,0-0.2,0-0.3,0c-0.3,0-0.6,0-1,0.1c-0.7,0.1-1.4,0.1-2.1,0.2c-0.8,0.1-1.5,0.5-1.8,1c-0.1,0.1-0.1,0.2-0.2,0.4
			c-0.2,0.7,0.2,1.5,1.1,2.1c0.3,0.2,0.5,0.4,0.7,0.9c-3,0.1-5.9,0.3-9.2,1c-1.1,0.2-1.8,0.9-1.7,1.8c0.1,0.8,0.8,1.6,2,2
			c0.2,0.1,0.4,0.2,0.5,0.3c-2.5,0.4-5.6,1-9.4,2.6c-0.1,0-0.2,0.1-0.3,0.1c-1,0.4-1.4,1.3-1,2.2c0,0,0,0,0,0
			c0.4,0.9,1.6,1.5,2.8,1.6c0.1,0,0.2,0,0.3,0c-1.6,0.5-3.1,1.2-4.7,1.9c-1,0.5-2,0.9-3,1.4c-0.5,0.3-0.8,0.7-0.9,1.1
			c-0.1,0.3,0,0.6,0.1,1c0.3,0.7,1.1,1.2,2,1.5c0.2,0.1,0.4,0.1,0.6,0.1c0.3,0,0.4,0.1,0.6,0.1c-0.1,0-0.2,0.1-0.2,0.1
			c-0.4,0.2-0.8,0.3-1.2,0.5c-0.5,0.2-1,0.4-1.4,0.6c-0.8,0.4-1.6,0.7-2.4,1.2c-0.1,0-0.1,0.1-0.2,0.1c-1.9,1-3.7,2.3-5.1,3.7
			c-0.2,0.2-0.3,0.4-0.3,0.6c-0.1,0.5,0,1,0.4,1.5c0,0,0.1,0.1,0.1,0.1c-3.7,3.1-6.8,6.4-8.9,10c-0.7,1.2-1.4,2.5-2.2,3.7
			c-0.2,0.4-0.4,0.7-0.6,1.1c-0.4,0.2-0.7,0.4-1.1,0.6c-0.4,0.2-0.8,0.4-1.1,0.7c-0.4,0.2-0.7,0.5-1.1,0.7
			c-6.7,4.7-13.7,14.2-15.5,26.6c-0.1,0.5-0.1,1-0.2,1.5c0,0.2,0,0.4-0.1,0.6c0,0.3-0.1,0.6-0.1,0.9c0,0.3,0,0.6-0.1,0.9
			c0,0.2,0,0.5,0,0.7c0,0.4,0,0.7,0,1.1c0,0.1,0,0.3,0,0.5c0,2.1,0.2,4.3,0.6,6.6c0,0,0,0,0,0c0.2,1,0.4,2,0.6,3.1
			c-0.9,0.4-1.7,1-2.2,1.8c-1.4,2.1,0.2,5.3,2.2,7.5c0.2,0.4,0.7,0.9,1.4,1.7c0.4,0.5,1,1.1,1.4,1.7l-1.3,0.5c0,0,0,0,0,0
			c-1.1,0.5-1.8,1.5-2,2.8c-0.2,1.4,0.3,2.9,1.4,3.9c0.2,0.3,0.6,0.6,1.3,1.1c0.3,0.3,1,0.7,1.5,1.2c-0.9,0.7-2,1.8-2.2,3.3
			c0,0.2,0,0.4,0,0.6c0.1,0.4,0.2,0.7,0.3,1.1c0.2,0.5,0.6,1,1.2,1.5c0.2,0.2,0.5,0.4,1.1,0.8c0.3,0.2,0.7,0.5,1.1,0.7
			c-0.4,0.6-0.6,1.2-0.7,2c0,1.4,0.7,2.7,2,3.3c0.2,0.1,0.4,0.2,0.8,0.4c0.2,0.1,0.6,0.3,1,0.5c-0.3,0.7-0.4,1.4-0.3,2
			c0.4,1.7,2.3,2.7,4,3.2c0.5,1.2,1.9,1.4,3.8,1.6c0.6,0.1,1.5,0.2,2.1,0.3c0.1,0.9,0.3,1.7,0.5,2.5c0.1,0.3,0.1,0.5,0.2,0.8
			c0.1,0.6,0.3,1.1,0.4,1.7c0.1,0.3,0.2,0.6,0.2,0.9c0.1,0.5,0.3,1,0.5,1.5c0.1,0.3,0.2,0.6,0.3,0.8c0.2,0.5,0.4,1.1,0.6,1.6
			c0.1,0.2,0.1,0.4,0.2,0.6c0.3,0.7,0.6,1.4,0.9,2c0.1,0.3,0.3,0.5,0.4,0.8c0.2,0.4,0.4,0.8,0.6,1.2c0.2,0.3,0.3,0.6,0.5,0.9
			c0.2,0.3,0.4,0.7,0.6,1c0.2,0.3,0.3,0.6,0.5,0.9c0.2,0.3,0.4,0.6,0.6,0.9c0.2,0.3,0.4,0.6,0.6,0.9c0.2,0.3,0.4,0.6,0.6,0.9
			c0.4,0.5,0.8,1.1,1.2,1.6c0.2,0.2,0.3,0.4,0.5,0.6c0.2,0.3,0.5,0.6,0.7,0.9c0.2,0.2,0.3,0.4,0.5,0.6c0.3,0.3,0.5,0.6,0.8,0.9
			c0.1,0.2,0.3,0.3,0.4,0.5c0.3,0.3,0.6,0.6,0.8,0.9c0.1,0.1,0.1,0.1,0.2,0.2c0.7,0.7,1.3,1.3,2,1.9c0.1,0,0.1,0.1,0.2,0.1
			c0.3,0.3,0.6,0.5,0.9,0.8c0.1,0.1,0.3,0.2,0.4,0.3c0.3,0.2,0.5,0.4,0.8,0.7c0.2,0.1,0.3,0.2,0.5,0.4c4.7,3.7,8.9,5.6,10.4,6
			c0.3,0.1,0.7,0.2,1,0.3c0.3,0.2,0.5,0.4,0.8,0.6c2.8,2.1,5.5,4.1,8.3,6c0.8,0.5,1.6,1.1,2.4,1.6c0,0,0,0,0,0
			c0.7,0.5,1.5,0.9,2.2,1.4c0.1,0.1,0.2,0.1,0.3,0.2c1.5,0.9,3.1,1.8,4.7,2.6c0.2,0.1,0.3,0.2,0.5,0.2c0.7,0.3,1.4,0.7,2.1,1
			c0.1,0.1,0.3,0.1,0.4,0.2c0.8,0.4,1.6,0.7,2.5,1.1c0.2,0.1,0.3,0.1,0.5,0.2c0.7,0.3,1.4,0.6,2.1,0.8c0.2,0.1,0.5,0.2,0.7,0.3
			c0.9,0.3,1.7,0.7,2.6,1c0.4,0.1,0.7,0.3,1.1,0.4c0.3,0.3,0.5,0.5,0.8,0.8c8.5,8.6,18.5,14.2,29.8,14.1
			c11.3,0.1,21.3-5.5,29.8-14.1c0.3-0.3,0.5-0.5,0.8-0.8c0.4-0.1,0.7-0.3,1.1-0.4c0.9-0.3,1.8-0.6,2.6-1c0.2-0.1,0.5-0.2,0.7-0.3
			c0.7-0.3,1.4-0.6,2.1-0.8c0.2-0.1,0.3-0.1,0.5-0.2c0.8-0.4,1.7-0.7,2.5-1.1c0.1-0.1,0.3-0.1,0.4-0.2c0.7-0.3,1.4-0.7,2.1-1
			c0.2-0.1,0.3-0.2,0.5-0.2c1.6-0.8,3.2-1.7,4.7-2.6c0.1-0.1,0.2-0.1,0.3-0.2c0.8-0.4,1.5-0.9,2.2-1.4c0,0,0,0,0.1,0
			c0.8-0.5,1.6-1,2.4-1.6c0,0,0,0,0,0c2.8-1.8,5.5-3.8,8.3-6c0.3-0.2,0.5-0.4,0.8-0.6c0.3-0.1,0.7-0.2,1-0.3
			c1.5-0.4,5.5-2.2,10.2-5.8c0.1-0.1,0.2-0.2,0.4-0.3c0.6-0.5,1.2-1,1.8-1.5c0,0,0.1,0,0.1-0.1c0.3-0.2,0.6-0.5,0.9-0.8
			c0.1-0.1,0.3-0.2,0.4-0.3c0.3-0.3,0.6-0.5,0.8-0.8c0.1-0.1,0.3-0.3,0.4-0.4c0.3-0.3,0.6-0.6,0.8-0.9c0.1-0.1,0.1-0.2,0.2-0.2
			c0.5-0.6,1.1-1.2,1.6-1.8c0.2-0.2,0.3-0.4,0.5-0.5c0.2-0.3,0.5-0.6,0.7-0.9c0.2-0.2,0.4-0.4,0.5-0.7c0.2-0.3,0.4-0.6,0.6-0.9
			c0.2-0.3,0.4-0.5,0.6-0.8c0.2-0.3,0.4-0.5,0.6-0.8c0.3-0.5,0.7-1.1,1-1.6c0.1-0.2,0.3-0.5,0.4-0.7c0.2-0.4,0.4-0.7,0.6-1.1
			c0.1-0.3,0.3-0.5,0.4-0.8c0.2-0.4,0.4-0.8,0.6-1.2c0.1-0.3,0.3-0.5,0.4-0.8c0.2-0.5,0.5-1.1,0.7-1.6c0.1-0.1,0.1-0.3,0.2-0.4
			c0.3-0.7,0.5-1.4,0.8-2.2c0.1-0.2,0.1-0.4,0.2-0.7c0.2-0.5,0.3-1.1,0.5-1.7c0.1-0.3,0.1-0.5,0.2-0.8c0.2-0.6,0.3-1.2,0.4-1.8
			c0.1-0.2,0.1-0.4,0.2-0.7c0.2-0.8,0.3-1.7,0.5-2.6c0.6-0.1,1.5-0.3,2.1-0.3c1.9-0.2,3.3-0.4,3.8-1.6c1.6-0.6,3.5-1.5,4-3.2
			c0.2-0.7,0.1-1.4-0.3-2c0.4-0.2,0.8-0.4,1-0.5c0.3-0.2,0.6-0.3,0.8-0.4c1.2-0.6,2-1.9,2-3.3c0-0.7-0.3-1.4-0.7-2
			c0.4-0.3,0.8-0.6,1.1-0.7c0.6-0.4,0.9-0.6,1.1-0.8c1.3-1.1,1.5-2.4,1.4-3.2c-0.2-1.5-1.2-2.6-2.2-3.3c0.5-0.4,1.1-0.9,1.5-1.2
			c0.7-0.5,1-0.8,1.3-1.1c1-1,1.6-2.5,1.4-3.9c-0.2-1.3-0.9-2.3-2-2.8c0,0,0,0,0,0l-1.3-0.5c0.5-0.6,1-1.3,1.4-1.7
			c0.7-0.9,1.1-1.4,1.4-1.7c2.1-2.2,3.6-5.5,2.2-7.5c-0.5-0.8-1.3-1.4-2.2-1.8c0.1-0.5,0.2-1,0.3-1.4c0,0,0,0,0,0
			c0.6-2.7,0.8-5.4,0.9-7.8c0,0,0-0.1,0-0.1c0-0.6,0-1.1,0-1.6c0-0.1,0-0.2,0-0.4c0-0.5,0-0.9-0.1-1.3c0-0.2,0-0.5-0.1-0.7
			c0-0.3-0.1-0.6-0.1-0.9c-0.1-0.5-0.1-1.1-0.2-1.6C267.6,139.5,260.7,130.1,253.9,125.3z"/>
		<path class="st3" d="M282.3,81.6c1.8-3.9,1.9-7.5,0.3-10.8c0.1-1.7-0.2-3.3-0.9-4.9c0.1-1.1,0.1-2.2,0.1-3.2
			c0.5-3.4-0.7-6.9-3.2-9.5c0-2.8-0.8-5.2-2.5-7.1c-0.6-0.9-1.3-1.7-2.1-2.4c-0.6-0.6-1.4-1.1-2.1-1.6c-0.7-4.1-3.1-7.4-6.7-9.1
			c-3.9-1.8-8.7-1.4-13.6,1.1c-5-1.7-10.8-0.9-17.3,2.5c-3-0.9-6.6-0.8-12,2.2c-6.7-1-11.5,2.1-14.9,5.1c-2.4-0.2-4.6,0.1-6.6,1l0,0
			c-2.9,1.2-4.7,3.2-6.3,5c-0.4,0.4-0.8,0.9-1.1,1.2c-6.6,1.3-8.8,4.3-10.3,6.5c0,0,0,0.1-0.1,0.1c-4.2-0.1-7.7-1.2-11.1-2.9
			c-0.3,0.2-0.6,0.4-0.9,0.6c-1.7-0.5-3.6-1-5.7-1.2c-0.5-0.1-1-0.1-1.5-0.1c-1.3,0-2.6,0.2-3.8,0.6c-1.9-0.4-4.1-0.7-6.3-0.7
			l-0.1,0c-1.9,0-3.6,0.4-5.1,1.1c-0.7-0.6-1.5-1.1-2.3-1.5c-0.4,0.2-0.7,0.5-1.1,0.7c-1.1,0.6-2.2,1.1-3.3,1.5
			c-1.4,1.1-2.8,2-4.4,2.6c-0.2-0.2-0.3-0.5-0.5-0.7c-1.6-2.3-3.7-5.3-10.3-6.5c-0.4-0.4-0.8-0.8-1.1-1.2c-1.6-1.8-3.4-3.8-6.3-5
			l0,0c-2-0.8-4.1-1.2-6.6-1c-3.4-3.1-8.2-6.2-14.9-5.1c-5.4-3-9-3-12-2.2c-6.5-3.4-12.3-4.3-17.3-2.5c-4.9-2.5-9.6-2.9-13.6-1.1
			c-3.6,1.6-6,4.9-6.7,9.1c-0.8,0.5-1.5,1-2.1,1.6c-0.8,0.7-1.5,1.5-2.1,2.4c-1.7,1.9-2.5,4.2-2.5,7.1c-2.5,2.6-3.6,6-3.2,9.5
			c-0.1,1-0.1,2.1,0.1,3.2c-0.7,1.6-0.9,3.2-0.9,4.9c-1.6,3.3-1.5,6.9,0.3,10.8C34.6,87.7,38,94,39.9,97c-1,4.1-0.8,8.8,5.3,14.3
			c-0.8,5.9,3.2,9.7,6.6,12.5c-0.1,0.2-0.3,0.4-0.4,0.6c-0.3,3.3-1.6,6.6-4.1,8.8c-6.1,9.6-9.7,22.4-7,35.4c-0.4,3.2,0.7,6.8,3.2,10
			c-0.5,1-0.8,2.1-1,3.2c-0.4,3,0.4,6.1,2.3,8.5c-0.1,0.5-0.2,1-0.3,1.6c-0.3,3,0.7,6,2.9,8.2c0.1,3,1.5,5.7,3.8,7.5
			c0.9,3.8,3.7,5.8,6.2,7c0.5,0.5,1,0.9,1.6,1.2c4.9,24.3,25.3,36,31.4,37.8c0.2,0.1,0.4,0.2,0.6,0.3c8.7,6.7,18.1,13,30.7,17.4
			c12,12.4,25,17.1,38.1,17.1h0.7c13.1,0,26.1-4.7,38.1-17.1c12.6-4.4,21.9-10.7,30.7-17.4c0.2-0.1,0.4-0.2,0.6-0.3
			c6.2-1.8,26.6-13.5,31.4-37.8c0.6-0.3,1.1-0.7,1.6-1.2c2.5-1.2,5.2-3.2,6.2-7c2.3-1.8,3.7-4.6,3.8-7.5c2.2-2.3,3.3-5.2,2.9-8.2
			c-0.1-0.5-0.2-1-0.3-1.6c1.8-2.4,2.7-5.5,2.3-8.5c-0.2-1.1-0.5-2.2-1-3.2c2.5-3.3,3.6-6.9,3.2-10.1c2.8-14-1.4-27.6-8.3-37.4
			l0.9-0.4c-2.4-1.4-4.3-3.5-5.4-6.2l0.4-0.1c3.6-2.9,8.4-6.8,7.6-13.3c6-5.5,6.3-10.3,5.3-14.3C282,94,285.4,87.7,282.3,81.6z
			 M213.6,75.6c0.6-1.1,1.6-1.7,2.8-1.5c0.1,0,0.2,0,0.4,0.1c0.6-1.2,1.2-2.4,2-3.7c0.7-1.1,1.8-1.5,3-1.2c0.2,0.1,0.4,0.2,0.6,0.3
			c0.5-0.7,1-1.4,1.6-2c0.9-1,2.4-1.2,3.5-0.3c0,0,0,0,0.1,0.1c0.7-0.8,1.5-1.5,2.5-2.3c1.1-0.8,2.5-0.7,3.5,0.4
			c0,0,0.1,0.1,0.1,0.1c0.8-0.5,1.7-1,2.8-1.5c1.1-0.5,2.4-0.2,3.3,0.9c0.1,0.1,0.6-0.6,0.7-0.4c0.5-0.3,0.7,0.3,1.2,0.1
			c1.2-0.5,2.5,0.1,3.3,1.3c0,0.1,0.1,0.2,0.1,0.2c1.4-0.5,2.9-0.7,4.5-0.4c1,0.2,1.8,0.9,2.3,1.9c0,0,0.2,0,0.5,0.1
			c-0.1,0-0.3,0.1-0.4,0.1c0,0,3.5,0.4,4.6,0.5c0.1,0.1,0.2,0.2,0.3,0.4c0.5,0.7,0.7,1.5,0.7,2.3c0,0.4-0.1,0.8-0.2,1.1
			c-0.1,0.4-0.3,0.7-0.4,1.1c-0.2,0.5-0.4,0.9-0.7,1.2l-0.7,0.7c0.6,0.8,0.9,1.9,0.7,3c-0.2,1.4-0.5,2.7-1,3.7
			c0.8,0.7,1.3,1.8,1.3,3c0,0.2,0,0.4-0.1,0.6c-0.3,1.8-0.9,3.3-1.6,4.7c0.1,0.1,0.3,0.3,0.4,0.5c0.8,1.1,0.9,2.7,0.4,3.9
			c-0.6,1.2-1.3,2.5-2,3.7c0.1,0.1,0.2,0.2,0.2,0.4c0.7,1.1,0.7,2.6,0.1,3.7c-0.9,1.7-2,3.2-3.2,4.5c0.2,0.3,0.3,0.7,0.3,1
			c-0.1,0-0.1-0.1-0.2-0.1c-0.2-1.4-1-2.7-2.1-3.5c-0.8-0.6-1.2-1-1.7-1.5c-0.6-0.6-1.2-1.3-2.3-1.9c0-0.3,0-0.7,0-1
			c0-0.3-0.1-0.6-0.2-0.9c-0.4-1.4-1.3-2.5-2.4-3.1c-0.5-0.3-1.1-0.5-1.6-0.8c-0.2-0.1-0.5-0.2-0.7-0.3c-0.4-0.2-0.9-0.3-1.3-0.5
			c0-0.2,0.1-0.4,0.1-0.7c0-0.4,0-0.7,0-1.1c0-0.3-0.1-0.6-0.2-1c-0.2-0.6-0.5-1.1-0.8-1.5c-0.6-0.7-1.3-1.2-2.1-1.5l-0.6-0.2
			c-0.6-0.2-1.3-0.4-1.9-0.6c-0.1-0.7-0.5-1.4-1-1.8c-0.6-0.4-1.2-0.8-1.8-1.2c-0.4-0.3-0.8-0.5-1.3-0.8c-0.6-1-1.6-1.8-2.7-2
			c-0.4-0.1-0.9-0.2-1.3-0.3l-0.2-0.1c-3.5-1.9-7.3-3.7-11.2-5.3C213.5,75.9,213.6,75.7,213.6,75.6z M63.2,68.2
			c0.1-0.1,0.2-0.3,0.3-0.4c1.1-0.1,4.6-0.5,4.6-0.5c-0.1,0-0.3-0.1-0.4-0.1c0.3,0,0.5-0.1,0.5-0.1c0.4-1,1.3-1.8,2.3-1.9
			c1.6-0.3,3.2,0,4.5,0.4c0-0.1,0.1-0.2,0.1-0.2c0.8-1.2,2.1-1.7,3.3-1.3c0.6,0.2,0.7-0.3,1.2-0.1c0.1-0.1,0.6,0.6,0.7,0.4
			c0.8-1.1,2.1-1.5,3.3-0.9c1.1,0.5,2,1,2.8,1.5c0,0,0.1-0.1,0.1-0.1c1-1,2.4-1.2,3.5-0.4c1,0.7,1.8,1.5,2.5,2.3c0,0,0,0,0.1-0.1
			c1.1-0.8,2.6-0.7,3.5,0.3c0.6,0.6,1.1,1.3,1.6,2c0.2-0.1,0.4-0.2,0.6-0.3c1.1-0.4,2.3,0.1,3,1.2c0.8,1.3,1.4,2.5,2,3.7
			c0.1,0,0.2-0.1,0.4-0.1c1.1-0.2,2.2,0.4,2.8,1.5c0.1,0.1,0.1,0.3,0.2,0.4c-3.9,1.6-7.7,3.4-11.2,5.3L95.1,81
			c-0.4,0.1-0.9,0.2-1.3,0.3c-1.1,0.3-2,1-2.7,2c-0.4,0.3-0.8,0.5-1.3,0.8c-0.6,0.4-1.2,0.8-1.8,1.2c-0.6,0.4-0.9,1-1,1.8
			c-0.6,0.2-1.2,0.4-1.9,0.6l-0.6,0.2c-0.8,0.3-1.5,0.8-2.1,1.5c-0.3,0.4-0.6,0.9-0.8,1.5c-0.1,0.3-0.2,0.7-0.2,1
			c-0.1,0.3-0.1,0.7,0,1.1c0,0.2,0,0.4,0.1,0.7c-0.4,0.2-0.9,0.3-1.3,0.5c-0.2,0.1-0.5,0.2-0.7,0.3c-0.5,0.2-1.1,0.5-1.6,0.8
			c-1.2,0.6-2.1,1.7-2.4,3.1c-0.1,0.3-0.1,0.6-0.2,0.9c0,0.3,0,0.7,0,1c-1.1,0.6-1.7,1.3-2.3,1.9c-0.4,0.5-0.9,1-1.7,1.5
			c-1.2,0.8-1.9,2.1-2.1,3.5c-0.1,0-0.1,0.1-0.2,0.1c0.1-0.3,0.2-0.7,0.3-1c-1.2-1.3-2.3-2.7-3.2-4.5c-0.6-1.1-0.5-2.6,0.1-3.7
			c0.1-0.1,0.2-0.2,0.2-0.4c-0.7-1.2-1.4-2.4-2-3.7c-0.6-1.2-0.4-2.8,0.4-3.9c0.1-0.2,0.3-0.3,0.4-0.5c-0.7-1.4-1.3-3-1.6-4.7
			c0-0.2-0.1-0.4-0.1-0.6c0-1.1,0.4-2.3,1.3-3c-0.4-1-0.7-2.3-1-3.7c-0.2-1.1,0.1-2.2,0.7-3L63.8,74c-0.3-0.3-0.6-0.8-0.7-1.2
			c-0.1-0.4-0.2-0.8-0.4-1.1c-0.1-0.4-0.2-0.7-0.2-1.1C62.5,69.7,62.8,68.9,63.2,68.2z M269.5,151.9c0.1,0.5,0.1,1,0.2,1.6
			c0,0.3,0.1,0.6,0.1,0.9c0,0.2,0,0.5,0.1,0.7c0,0.4,0,0.9,0.1,1.3c0,0.1,0,0.2,0,0.4c0,0.5,0,1.1,0,1.6c0,0,0,0.1,0,0.1
			c0,2.4-0.3,5-0.9,7.8c0,0,0,0,0,0c-0.1,0.5-0.2,1-0.3,1.4c0.9,0.4,1.7,1,2.2,1.8c1.4,2.1-0.2,5.3-2.2,7.5
			c-0.2,0.4-0.7,0.9-1.4,1.7c-0.4,0.5-1,1.1-1.4,1.7l1.3,0.5c0,0,0,0,0,0c1.1,0.5,1.9,1.5,2,2.8c0.2,1.4-0.3,2.9-1.4,3.9
			c-0.2,0.3-0.6,0.6-1.3,1.1c-0.3,0.3-1,0.7-1.5,1.2c0.9,0.7,2,1.8,2.2,3.3c0.1,0.8-0.1,2.1-1.4,3.2c-0.2,0.2-0.5,0.4-1.1,0.8
			c-0.3,0.2-0.7,0.5-1.1,0.7c0.4,0.6,0.6,1.2,0.7,2c0,1.4-0.7,2.7-2,3.3c-0.2,0.1-0.4,0.2-0.8,0.4c-0.2,0.1-0.6,0.3-1,0.5
			c0.3,0.7,0.4,1.4,0.3,2c-0.4,1.7-2.3,2.7-4,3.2c-0.5,1.2-1.9,1.4-3.8,1.6c-0.6,0.1-1.5,0.2-2.1,0.3c-0.1,0.9-0.3,1.7-0.5,2.6
			c0,0.2-0.1,0.5-0.2,0.7c-0.1,0.6-0.3,1.2-0.4,1.8c-0.1,0.3-0.1,0.5-0.2,0.8c-0.2,0.6-0.3,1.1-0.5,1.7c-0.1,0.2-0.1,0.4-0.2,0.7
			c-0.3,0.7-0.5,1.5-0.8,2.2c-0.1,0.1-0.1,0.3-0.2,0.4c-0.2,0.6-0.5,1.1-0.7,1.6c-0.1,0.3-0.2,0.5-0.4,0.8c-0.2,0.4-0.4,0.8-0.6,1.2
			c-0.1,0.3-0.3,0.5-0.4,0.8c-0.2,0.4-0.4,0.8-0.6,1.1c-0.1,0.2-0.3,0.5-0.4,0.7c-0.3,0.5-0.7,1.1-1,1.6c-0.2,0.3-0.4,0.6-0.6,0.8
			c-0.2,0.3-0.4,0.5-0.6,0.8c-0.2,0.3-0.4,0.6-0.6,0.9c-0.2,0.2-0.4,0.5-0.5,0.7c-0.2,0.3-0.5,0.6-0.7,0.9c-0.2,0.2-0.3,0.4-0.5,0.5
			c-0.5,0.6-1.1,1.2-1.6,1.8c-0.1,0.1-0.1,0.2-0.2,0.2c-0.3,0.3-0.6,0.6-0.8,0.9c-0.1,0.1-0.3,0.3-0.4,0.4c-0.3,0.3-0.6,0.5-0.8,0.8
			c-0.1,0.1-0.3,0.2-0.4,0.3c-0.3,0.3-0.6,0.5-0.9,0.8c0,0-0.1,0-0.1,0.1c-0.6,0.5-1.2,1-1.8,1.5c-0.1,0.1-0.2,0.2-0.4,0.3
			c-4.6,3.6-8.7,5.4-10.2,5.8c-0.3,0.1-0.7,0.2-1,0.3c-0.3,0.2-0.5,0.4-0.8,0.6c-2.8,2.1-5.5,4.1-8.3,6c0,0,0,0,0,0
			c-0.8,0.5-1.6,1.1-2.4,1.6c0,0,0,0-0.1,0c-0.7,0.5-1.5,0.9-2.2,1.4c-0.1,0.1-0.2,0.1-0.3,0.2c-1.5,0.9-3.1,1.8-4.7,2.6
			c-0.2,0.1-0.3,0.2-0.5,0.2c-0.7,0.3-1.4,0.7-2.1,1c-0.1,0.1-0.3,0.1-0.4,0.2c-0.8,0.4-1.6,0.7-2.5,1.1c-0.2,0.1-0.3,0.1-0.5,0.2
			c-0.7,0.3-1.4,0.6-2.1,0.8c-0.2,0.1-0.5,0.2-0.7,0.3c-0.9,0.3-1.7,0.7-2.6,1c-0.4,0.1-0.7,0.3-1.1,0.4c-0.3,0.3-0.5,0.5-0.8,0.8
			c-8.5,8.6-18.5,14.2-29.8,14.1c-11.3,0.1-21.3-5.5-29.8-14.1c-0.3-0.3-0.5-0.5-0.8-0.8c-0.4-0.1-0.7-0.3-1.1-0.4
			c-0.9-0.3-1.8-0.6-2.6-1c-0.2-0.1-0.5-0.2-0.7-0.3c-0.7-0.3-1.4-0.6-2.1-0.8c-0.2-0.1-0.3-0.1-0.5-0.2c-0.8-0.4-1.7-0.7-2.5-1.1
			c-0.1-0.1-0.3-0.1-0.4-0.2c-0.7-0.3-1.4-0.7-2.1-1c-0.2-0.1-0.3-0.2-0.5-0.2c-1.6-0.8-3.2-1.7-4.7-2.6c-0.1-0.1-0.2-0.1-0.3-0.2
			c-0.8-0.5-1.5-0.9-2.2-1.4c0,0,0,0,0,0c-0.8-0.5-1.6-1-2.4-1.6c-2.8-1.8-5.5-3.8-8.3-6c-0.3-0.2-0.5-0.4-0.8-0.6
			c-0.3-0.1-0.7-0.2-1-0.3c-1.5-0.4-5.7-2.3-10.4-6c-0.2-0.1-0.3-0.2-0.5-0.4c-0.3-0.2-0.5-0.4-0.8-0.7c-0.1-0.1-0.3-0.2-0.4-0.3
			c-0.3-0.2-0.6-0.5-0.9-0.8c-0.1,0-0.1-0.1-0.2-0.1c-0.7-0.6-1.3-1.2-2-1.9c-0.1-0.1-0.1-0.1-0.2-0.2c-0.3-0.3-0.6-0.6-0.8-0.9
			c-0.1-0.2-0.3-0.3-0.4-0.5c-0.3-0.3-0.5-0.6-0.8-0.9c-0.2-0.2-0.3-0.4-0.5-0.6c-0.2-0.3-0.5-0.6-0.7-0.9c-0.2-0.2-0.3-0.4-0.5-0.6
			c-0.4-0.5-0.8-1-1.2-1.6c-0.2-0.3-0.4-0.6-0.6-0.9c-0.2-0.3-0.4-0.6-0.6-0.9c-0.2-0.3-0.4-0.6-0.6-0.9c-0.2-0.3-0.4-0.6-0.5-0.9
			c-0.2-0.3-0.4-0.7-0.6-1c-0.2-0.3-0.3-0.6-0.5-0.9c-0.2-0.4-0.4-0.8-0.6-1.2c-0.1-0.3-0.3-0.5-0.4-0.8c-0.3-0.7-0.6-1.3-0.9-2
			c-0.1-0.2-0.1-0.4-0.2-0.6c-0.2-0.5-0.4-1.1-0.6-1.6c-0.1-0.3-0.2-0.6-0.3-0.8c-0.2-0.5-0.3-1-0.5-1.5c-0.1-0.3-0.2-0.6-0.2-0.9
			c-0.1-0.5-0.3-1.1-0.4-1.7c-0.1-0.3-0.1-0.5-0.2-0.8c-0.2-0.8-0.3-1.7-0.5-2.5c-0.6-0.1-1.5-0.3-2.1-0.3c-1.9-0.2-3.3-0.4-3.8-1.6
			c-1.6-0.6-3.5-1.5-4-3.2c-0.2-0.7-0.1-1.4,0.3-2c-0.4-0.2-0.8-0.4-1-0.5c-0.3-0.2-0.6-0.3-0.8-0.4c-1.2-0.6-2-1.9-2-3.3
			c0-0.7,0.3-1.4,0.7-2c-0.4-0.3-0.8-0.6-1.1-0.7c-0.6-0.4-0.9-0.6-1.1-0.8c-0.6-0.5-1-1-1.2-1.5c-0.1-0.4-0.2-0.7-0.3-1.1
			c0-0.2,0-0.4,0-0.6c0.2-1.5,1.2-2.6,2.2-3.3c-0.5-0.4-1.1-0.9-1.5-1.2c-0.7-0.5-1-0.8-1.3-1.1c-1-1-1.6-2.5-1.4-3.9
			c0.2-1.3,0.9-2.3,2-2.8c0,0,0,0,0,0l1.3-0.5c-0.5-0.6-1-1.3-1.4-1.7c-0.7-0.9-1.1-1.4-1.4-1.7c-2.1-2.2-3.6-5.5-2.2-7.5
			c0.5-0.8,1.3-1.4,2.2-1.8c-0.3-1-0.5-2.1-0.6-3.1c0,0,0,0,0,0c-0.4-2.3-0.6-4.5-0.6-6.6c0-0.2,0-0.3,0-0.5c0-0.4,0-0.7,0-1.1
			c0-0.2,0-0.5,0-0.7c0-0.3,0-0.6,0.1-0.9c0-0.3,0.1-0.6,0.1-0.9c0-0.2,0-0.4,0.1-0.6c0.1-0.5,0.1-1,0.2-1.5
			c1.9-12.4,8.8-21.8,15.5-26.6c0.4-0.3,0.7-0.5,1.1-0.7c0.4-0.2,0.8-0.5,1.1-0.7c0.4-0.2,0.7-0.4,1.1-0.6c0.2-0.4,0.4-0.7,0.6-1.1
			c0.7-1.2,1.4-2.5,2.2-3.7c2.2-3.7,5.3-7,8.9-10c0,0-0.1-0.1-0.1-0.1c-0.4-0.5-0.6-1-0.4-1.5c0.1-0.2,0.2-0.4,0.3-0.6
			c1.4-1.5,3.1-2.7,5.1-3.7c0.1,0,0.1-0.1,0.2-0.1c0.8-0.4,1.6-0.8,2.4-1.2c0.5-0.2,1-0.4,1.4-0.6c0.4-0.2,0.8-0.3,1.2-0.5
			c0.1,0,0.2-0.1,0.2-0.1c-0.1,0-0.3-0.1-0.6-0.1c-0.2,0-0.4-0.1-0.6-0.1c-0.9-0.3-1.7-0.8-2-1.5c-0.2-0.3-0.2-0.7-0.1-1
			c0.1-0.4,0.4-0.8,0.9-1.1c1-0.5,2-1,3-1.4c1.5-0.7,3.1-1.3,4.7-1.9c-0.1,0-0.2,0-0.3,0c-1.3-0.1-2.4-0.7-2.8-1.6c0,0,0,0,0,0
			c-0.4-0.9,0-1.8,1-2.2c0.1,0,0.2-0.1,0.3-0.1c3.8-1.6,6.9-2.1,9.4-2.6c-0.1-0.1-0.3-0.2-0.5-0.3c-1.1-0.4-1.9-1.1-2-2
			c-0.1-0.8,0.6-1.5,1.7-1.8c3.3-0.7,6.2-0.9,9.2-1c-0.2-0.4-0.4-0.7-0.7-0.9c-0.9-0.6-1.3-1.3-1.1-2.1c0-0.1,0.1-0.2,0.2-0.4
			c0.3-0.5,1-0.9,1.8-1c0.7-0.1,1.4-0.2,2.1-0.2c0.3,0,0.6,0,1-0.1c0.1,0,0.2,0,0.3,0c-0.2-0.2-0.4-0.5-0.4-0.8
			c-0.2-0.9,0.7-1.6,2-1.8c0.7-0.1,1.5-0.2,2.3-0.4c0-0.1,0.1-0.1,0.1-0.2c0.1-0.1,0.1-0.2,0.2-0.2c-0.6-0.4-1-0.9-1-1.5
			c0-0.7,0.6-1.2,1.6-1.5c1.8-0.4,3.4-0.6,4.9-0.7c-0.1-0.1-0.1-0.3-0.2-0.4c0-0.1,0-0.2,0-0.4c0,0,0-0.1,0-0.1
			c0-0.1,0.1-0.2,0.1-0.3c0,0,0,0,0,0c0.1-0.2,0.3-0.4,0.6-0.6c0.1-0.1,0.2-0.1,0.4-0.2c0,0,0,0,0,0c0.1-0.1,0.3-0.1,0.4-0.1
			c2-0.5,4.1-0.6,6.2-0.7c-0.1-0.2-0.1-0.5,0-0.7c0.2-0.7,1.1-1.3,2.4-1.3c1.8-0.1,3.7-0.1,5.6-0.1c0-0.2,0-0.4,0.1-0.6
			c0.3-0.7,1.2-1.2,2.4-1.2c2.5-0.1,4.8,0.1,7.1,0.4c0-0.1,0-0.2,0.1-0.2c0.3-0.7,1.4-1.2,2.7-1.2c2.5,0,5.1,0.5,7.7,1.2
			c0-0.1,0.1-0.1,0.2-0.2c0.6-0.6,1.8-1,3-0.8c2.9,0.3,5.4,1.3,7.4,2.1c0.2-0.2,0.4-0.5,0.8-0.6c0.5-0.2,1.1-0.4,1.7-0.4
			c0.3,0,0.7,0,1,0.1c0,0,0,0,0,0c0.3,0.1,0.6,0.2,0.9,0.3c1.1,0.5,2.1,1,3.1,1.5c0.8,0,1.6,0,2.3,0.3c1,0.4,2,0.7,3,1.1
			c0.1,0,0.2,0.1,0.4,0.1c1,0.4,1.9,0.8,2.9,1.3c0.6,0.3,1.3,0.6,1.9,1c0.1,0,0.1,0.1,0.2,0.1c0.2,0.1,0.4,0.2,0.5,0.3
			c0.3,0.2,0.6,0.3,0.9,0.5c0.1,0.1,0.3,0.2,0.4,0.3c0.2,0.1,0.3,0.2,0.5,0.3c0.1,0.1,0.3,0.2,0.4,0.3c0.2,0.1,0.3,0.2,0.4,0.3
			c0.2,0.2,0.5,0.3,0.7,0.5c0.1,0.1,0.2,0.1,0.3,0.2c0.4,0.3,0.8,0.6,1.1,1c0.6,0,1.1,0,1.7,0c0.3,0,0.5,0,0.8,0
			c0.6,0,1.1,0.1,1.5,0.4c0.3,0.1,0.5,0.3,0.6,0.5c0.1,0.1,0.2,0.2,0.2,0.4c0.1,0.1,0.1,0.3,0.1,0.4c0,0.4-0.2,0.9-0.6,1.3
			c-0.1,0.1-0.3,0.3-0.5,0.4c-0.4,0.2-0.6,0.4-0.8,0.6c0,0,0,0,0,0c1.9-0.1,3.9-0.1,5.9,0c0.3,0,0.6,0,1,0.1
			c0.7,0.1,1.4,0.1,2.1,0.2c0.8,0.1,1.5,0.5,1.8,1c0.1,0.1,0.1,0.2,0.2,0.4c0.2,0.7-0.2,1.5-1.1,2.1c-0.3,0.2-0.5,0.4-0.7,0.9
			c3,0.1,5.9,0.3,9.2,1c1.1,0.2,1.8,0.9,1.7,1.8c-0.1,0.8-0.8,1.6-2,2c-0.2,0.1-0.4,0.2-0.5,0.3c2.5,0.4,5.6,1,9.4,2.6
			c0.1,0,0.2,0.1,0.3,0.1c1,0.4,1.4,1.3,1,2.2c0,0,0,0,0,0c-0.4,0.9-1.6,1.5-2.8,1.6c-0.1,0-0.2,0-0.3,0c1.6,0.5,3.1,1.2,4.7,1.9
			c1,0.5,2,0.9,3,1.4c0.5,0.3,0.8,0.7,0.9,1.1c0.1,0.3,0,0.6-0.1,1c-0.3,0.7-1.1,1.2-2,1.5c-0.2,0.1-0.4,0.1-0.6,0.1
			c-0.3,0-0.4,0.1-0.6,0.1c0.1,0,0.2,0.1,0.2,0.1c0.4,0.2,0.8,0.3,1.2,0.5c0.5,0.2,1,0.4,1.4,0.6c0.8,0.4,1.6,0.7,2.4,1.2
			c0.1,0,0.1,0.1,0.2,0.1c1.9,1,3.7,2.3,5.1,3.7c0.2,0.2,0.3,0.4,0.3,0.6c0.1,0.5,0,1-0.4,1.5c0,0-0.1,0.1-0.1,0.1
			c3.7,3.1,6.8,6.4,8.9,10c0.7,1.2,1.4,2.5,2.2,3.7c0.2,0.4,0.4,0.7,0.6,1.1c0.4,0.2,0.7,0.4,1.1,0.6c0.4,0.2,0.8,0.4,1.1,0.7
			c0.4,0.2,0.7,0.5,1.1,0.7h0C260.7,130.1,267.6,139.5,269.5,151.9z"/>
	</g>
</g>
</svg>
