<svg xmlns="http://www.w3.org/2000/svg" width="24" height="24" viewBox="0 0 24 24" fill="none" stroke="currentColor" stroke-width="2" stroke-linecap="round" stroke-linejoin="round" class="feather feather-link">
  <path
     style="fill:#000000;stroke-width:0.359569"
     d="m 17.832361,6.3276922 q 0,1.4685357 -0.494507,2.6223852 -0.479522,1.1388646 -1.288715,2.0079976 -0.809193,0.869134 -1.843162,1.603401 -1.018984,0.734268 -2.157848,1.423581 V 17.40165 H 9.3658033 v -4.570442 q 0.8391637,-0.509492 1.9480577,-1.21379 1.123879,-0.719283 1.753252,-1.33367 0.809193,-0.7642384 1.258745,-1.6633419 0.449551,-0.9140886 0.449551,-2.0679381 0,-1.6933116 -1.063939,-2.5174898 -1.063939,-0.8391632 -2.772236,-0.8391632 -1.4985055,0 -2.8321757,0.5094919 Q 6.7883732,4.1998139 5.964195,4.739276 H 5.7993593 V 1.682324 q 1.003999,-0.4045965 2.5324749,-0.71928276 1.528476,-0.32967128 2.8921168,-0.32967128 3.071936,0 4.840173,1.57343114 1.768237,1.5584461 1.768237,4.1208911 z M 12.28789,23.395674 H 9.2309377 V 20.233826 H 12.28789 Z" />
</svg>
