%TF.GenerationSoftware,KiCad,Pcbnew,(5.1.4)-1*%
%TF.CreationDate,2020-08-14T14:12:09-05:00*%
%TF.ProjectId,rascsi_din,72617363-7369-45f6-9469-6e2e6b696361,rev?*%
%TF.SameCoordinates,Original*%
%TF.FileFunction,Soldermask,Bot*%
%TF.FilePolarity,Negative*%
%FSLAX46Y46*%
G04 Gerber Fmt 4.6, Leading zero omitted, Abs format (unit mm)*
G04 Created by KiCad (PCBNEW (5.1.4)-1) date 2020-08-14 14:12:09*
%MOMM*%
%LPD*%
G04 APERTURE LIST*
%ADD10C,0.050000*%
%ADD11C,4.900000*%
%ADD12C,1.600000*%
%ADD13O,1.800000X1.800000*%
%ADD14R,1.800000X1.800000*%
%ADD15O,1.700000X1.700000*%
%ADD16R,1.700000X1.700000*%
%ADD17C,0.900000*%
%ADD18C,5.500000*%
%ADD19C,1.422400*%
%ADD20C,1.778000*%
G04 APERTURE END LIST*
D10*
X178000000Y-116200000D02*
X236000000Y-116200000D01*
X178000000Y-116200000D02*
G75*
G02X174500000Y-112700000I0J3500000D01*
G01*
X239500000Y-112700000D02*
G75*
G02X236000000Y-116200000I-3500000J0D01*
G01*
X174500000Y-46000000D02*
X174500000Y-112700000D01*
X239500000Y-46000000D02*
X239500000Y-112700000D01*
X178000000Y-42500000D02*
X236000000Y-42500000D01*
X174500000Y-46000000D02*
G75*
G02X178000000Y-42500000I3500000J0D01*
G01*
X236000000Y-42500000D02*
G75*
G02X239500000Y-46000000I0J-3500000D01*
G01*
D11*
%TO.C,J2*%
X183480000Y-104510000D03*
X230580000Y-104510000D03*
D12*
X191795000Y-105930000D03*
X194565000Y-105930000D03*
X197335000Y-105930000D03*
X200105000Y-105930000D03*
X202875000Y-105930000D03*
X205645000Y-105930000D03*
X208415000Y-105930000D03*
X211185000Y-105930000D03*
X213955000Y-105930000D03*
X216725000Y-105930000D03*
X219495000Y-105930000D03*
X222265000Y-105930000D03*
X190410000Y-103090000D03*
X193180000Y-103090000D03*
X195950000Y-103090000D03*
X198720000Y-103090000D03*
X201490000Y-103090000D03*
X204260000Y-103090000D03*
X207030000Y-103090000D03*
X209800000Y-103090000D03*
X212570000Y-103090000D03*
X215340000Y-103090000D03*
X218110000Y-103090000D03*
X220880000Y-103090000D03*
X223650000Y-103090000D03*
%TD*%
D13*
%TO.C,J1*%
X231140000Y-44730000D03*
X231140000Y-47270000D03*
X228600000Y-44730000D03*
X228600000Y-47270000D03*
X226060000Y-44730000D03*
X226060000Y-47270000D03*
X223520000Y-44730000D03*
X223520000Y-47270000D03*
X220980000Y-44730000D03*
X220980000Y-47270000D03*
X218440000Y-44730000D03*
X218440000Y-47270000D03*
X215900000Y-44730000D03*
X215900000Y-47270000D03*
X213360000Y-44730000D03*
X213360000Y-47270000D03*
X210820000Y-44730000D03*
X210820000Y-47270000D03*
X208280000Y-44730000D03*
X208280000Y-47270000D03*
X205740000Y-44730000D03*
X205740000Y-47270000D03*
X203200000Y-44730000D03*
X203200000Y-47270000D03*
X200660000Y-44730000D03*
X200660000Y-47270000D03*
X198120000Y-44730000D03*
X198120000Y-47270000D03*
X195580000Y-44730000D03*
X195580000Y-47270000D03*
X193040000Y-44730000D03*
X193040000Y-47270000D03*
X190500000Y-44730000D03*
X190500000Y-47270000D03*
X187960000Y-44730000D03*
X187960000Y-47270000D03*
X185420000Y-44730000D03*
X185420000Y-47270000D03*
X182880000Y-44730000D03*
D14*
X182880000Y-47270000D03*
%TD*%
D15*
%TO.C,RN5*%
X231660000Y-72990000D03*
X229120000Y-72990000D03*
X226580000Y-72990000D03*
X224040000Y-72990000D03*
X221500000Y-72990000D03*
X218960000Y-72990000D03*
X216420000Y-72990000D03*
X213880000Y-72990000D03*
X211340000Y-72990000D03*
D16*
X208800000Y-72990000D03*
%TD*%
D17*
%TO.C,H2*%
X237431891Y-44568109D03*
X236000000Y-43975000D03*
X234568109Y-44568109D03*
X233975000Y-46000000D03*
X234568109Y-47431891D03*
X236000000Y-48025000D03*
X237431891Y-47431891D03*
X238025000Y-46000000D03*
D18*
X236000000Y-46000000D03*
%TD*%
D17*
%TO.C,H1*%
X179431891Y-44568109D03*
X178000000Y-43975000D03*
X176568109Y-44568109D03*
X175975000Y-46000000D03*
X176568109Y-47431891D03*
X178000000Y-48025000D03*
X179431891Y-47431891D03*
X180025000Y-46000000D03*
D18*
X178000000Y-46000000D03*
%TD*%
D13*
%TO.C,J4*%
X178010000Y-53620000D03*
X178010000Y-56160000D03*
X178010000Y-58700000D03*
X178010000Y-61240000D03*
D14*
X178010000Y-63780000D03*
%TD*%
D13*
%TO.C,JP2*%
X178940000Y-73800000D03*
D14*
X176400000Y-73800000D03*
%TD*%
D13*
%TO.C,JP1*%
X178940000Y-77400000D03*
D14*
X176400000Y-77400000D03*
%TD*%
D17*
%TO.C,H6*%
X237431891Y-93568109D03*
X236000000Y-92975000D03*
X234568109Y-93568109D03*
X233975000Y-95000000D03*
X234568109Y-96431891D03*
X236000000Y-97025000D03*
X237431891Y-96431891D03*
X238025000Y-95000000D03*
D18*
X236000000Y-95000000D03*
%TD*%
D17*
%TO.C,H5*%
X179431891Y-93568109D03*
X178000000Y-92975000D03*
X176568109Y-93568109D03*
X175975000Y-95000000D03*
X176568109Y-96431891D03*
X178000000Y-97025000D03*
X179431891Y-96431891D03*
X180025000Y-95000000D03*
D18*
X178000000Y-95000000D03*
%TD*%
D17*
%TO.C,H4*%
X237431891Y-67568109D03*
X236000000Y-66975000D03*
X234568109Y-67568109D03*
X233975000Y-69000000D03*
X234568109Y-70431891D03*
X236000000Y-71025000D03*
X237431891Y-70431891D03*
X238025000Y-69000000D03*
D18*
X236000000Y-69000000D03*
%TD*%
D17*
%TO.C,H3*%
X179431891Y-67568109D03*
X178000000Y-66975000D03*
X176568109Y-67568109D03*
X175975000Y-69000000D03*
X176568109Y-70431891D03*
X178000000Y-71025000D03*
X179431891Y-70431891D03*
X180025000Y-69000000D03*
D18*
X178000000Y-69000000D03*
%TD*%
D15*
%TO.C,RN6*%
X231660000Y-76400000D03*
X229120000Y-76400000D03*
X226580000Y-76400000D03*
X224040000Y-76400000D03*
X221500000Y-76400000D03*
X218960000Y-76400000D03*
X216420000Y-76400000D03*
X213880000Y-76400000D03*
X211340000Y-76400000D03*
D16*
X208800000Y-76400000D03*
%TD*%
D15*
%TO.C,RN4*%
X205260000Y-76400000D03*
X202720000Y-76400000D03*
X200180000Y-76400000D03*
X197640000Y-76400000D03*
X195100000Y-76400000D03*
X192560000Y-76400000D03*
X190020000Y-76400000D03*
X187480000Y-76400000D03*
X184940000Y-76400000D03*
D16*
X182400000Y-76400000D03*
%TD*%
D15*
%TO.C,RN3*%
X205260000Y-73000000D03*
X202720000Y-73000000D03*
X200180000Y-73000000D03*
X197640000Y-73000000D03*
X195100000Y-73000000D03*
X192560000Y-73000000D03*
X190020000Y-73000000D03*
X187480000Y-73000000D03*
X184940000Y-73000000D03*
D16*
X182400000Y-73000000D03*
%TD*%
D15*
%TO.C,RN2*%
X231660000Y-52000000D03*
X229120000Y-52000000D03*
X226580000Y-52000000D03*
X224040000Y-52000000D03*
X221500000Y-52000000D03*
X218960000Y-52000000D03*
X216420000Y-52000000D03*
X213880000Y-52000000D03*
X211340000Y-52000000D03*
D16*
X208800000Y-52000000D03*
%TD*%
D15*
%TO.C,RN1*%
X205260000Y-52000000D03*
X202720000Y-52000000D03*
X200180000Y-52000000D03*
X197640000Y-52000000D03*
X195100000Y-52000000D03*
X192560000Y-52000000D03*
X190020000Y-52000000D03*
X187480000Y-52000000D03*
X184940000Y-52000000D03*
D16*
X182400000Y-52000000D03*
%TD*%
D19*
%TO.C,FUSE1A1*%
X177980000Y-100290000D03*
X177980000Y-107910000D03*
%TD*%
D20*
%TO.C,D1*%
X181120000Y-98000000D03*
X191280000Y-98000000D03*
%TD*%
M02*
