%TF.GenerationSoftware,KiCad,Pcbnew,(5.1.4)-1*%
%TF.CreationDate,2020-08-14T14:12:09-05:00*%
%TF.ProjectId,rascsi_din,72617363-7369-45f6-9469-6e2e6b696361,rev?*%
%TF.SameCoordinates,Original*%
%TF.FileFunction,Soldermask,Top*%
%TF.FilePolarity,Negative*%
%FSLAX46Y46*%
G04 Gerber Fmt 4.6, Leading zero omitted, Abs format (unit mm)*
G04 Created by KiCad (PCBNEW (5.1.4)-1) date 2020-08-14 14:12:09*
%MOMM*%
%LPD*%
G04 APERTURE LIST*
%ADD10C,0.050000*%
%ADD11C,4.900000*%
%ADD12C,1.600000*%
%ADD13O,1.800000X1.800000*%
%ADD14R,1.800000X1.800000*%
%ADD15O,1.700000X1.700000*%
%ADD16R,1.700000X1.700000*%
%ADD17C,0.900000*%
%ADD18C,5.500000*%
%ADD19C,0.150000*%
%ADD20C,1.075000*%
%ADD21R,0.701600X1.601600*%
%ADD22R,1.100000X3.250000*%
%ADD23C,1.422400*%
%ADD24C,1.778000*%
G04 APERTURE END LIST*
D10*
X178000000Y-116200000D02*
X236000000Y-116200000D01*
X178000000Y-116200000D02*
G75*
G02X174500000Y-112700000I0J3500000D01*
G01*
X239500000Y-112700000D02*
G75*
G02X236000000Y-116200000I-3500000J0D01*
G01*
X174500000Y-46000000D02*
X174500000Y-112700000D01*
X239500000Y-46000000D02*
X239500000Y-112700000D01*
X178000000Y-42500000D02*
X236000000Y-42500000D01*
X174500000Y-46000000D02*
G75*
G02X178000000Y-42500000I3500000J0D01*
G01*
X236000000Y-42500000D02*
G75*
G02X239500000Y-46000000I0J-3500000D01*
G01*
D11*
%TO.C,J2*%
X183480000Y-104510000D03*
X230580000Y-104510000D03*
D12*
X191795000Y-105930000D03*
X194565000Y-105930000D03*
X197335000Y-105930000D03*
X200105000Y-105930000D03*
X202875000Y-105930000D03*
X205645000Y-105930000D03*
X208415000Y-105930000D03*
X211185000Y-105930000D03*
X213955000Y-105930000D03*
X216725000Y-105930000D03*
X219495000Y-105930000D03*
X222265000Y-105930000D03*
X190410000Y-103090000D03*
X193180000Y-103090000D03*
X195950000Y-103090000D03*
X198720000Y-103090000D03*
X201490000Y-103090000D03*
X204260000Y-103090000D03*
X207030000Y-103090000D03*
X209800000Y-103090000D03*
X212570000Y-103090000D03*
X215340000Y-103090000D03*
X218110000Y-103090000D03*
X220880000Y-103090000D03*
X223650000Y-103090000D03*
%TD*%
D13*
%TO.C,J1*%
X231140000Y-44730000D03*
X231140000Y-47270000D03*
X228600000Y-44730000D03*
X228600000Y-47270000D03*
X226060000Y-44730000D03*
X226060000Y-47270000D03*
X223520000Y-44730000D03*
X223520000Y-47270000D03*
X220980000Y-44730000D03*
X220980000Y-47270000D03*
X218440000Y-44730000D03*
X218440000Y-47270000D03*
X215900000Y-44730000D03*
X215900000Y-47270000D03*
X213360000Y-44730000D03*
X213360000Y-47270000D03*
X210820000Y-44730000D03*
X210820000Y-47270000D03*
X208280000Y-44730000D03*
X208280000Y-47270000D03*
X205740000Y-44730000D03*
X205740000Y-47270000D03*
X203200000Y-44730000D03*
X203200000Y-47270000D03*
X200660000Y-44730000D03*
X200660000Y-47270000D03*
X198120000Y-44730000D03*
X198120000Y-47270000D03*
X195580000Y-44730000D03*
X195580000Y-47270000D03*
X193040000Y-44730000D03*
X193040000Y-47270000D03*
X190500000Y-44730000D03*
X190500000Y-47270000D03*
X187960000Y-44730000D03*
X187960000Y-47270000D03*
X185420000Y-44730000D03*
X185420000Y-47270000D03*
X182880000Y-44730000D03*
D14*
X182880000Y-47270000D03*
%TD*%
D15*
%TO.C,RN5*%
X231660000Y-72990000D03*
X229120000Y-72990000D03*
X226580000Y-72990000D03*
X224040000Y-72990000D03*
X221500000Y-72990000D03*
X218960000Y-72990000D03*
X216420000Y-72990000D03*
X213880000Y-72990000D03*
X211340000Y-72990000D03*
D16*
X208800000Y-72990000D03*
%TD*%
D17*
%TO.C,H2*%
X237431891Y-44568109D03*
X236000000Y-43975000D03*
X234568109Y-44568109D03*
X233975000Y-46000000D03*
X234568109Y-47431891D03*
X236000000Y-48025000D03*
X237431891Y-47431891D03*
X238025000Y-46000000D03*
D18*
X236000000Y-46000000D03*
%TD*%
D17*
%TO.C,H1*%
X179431891Y-44568109D03*
X178000000Y-43975000D03*
X176568109Y-44568109D03*
X175975000Y-46000000D03*
X176568109Y-47431891D03*
X178000000Y-48025000D03*
X179431891Y-47431891D03*
X180025000Y-46000000D03*
D18*
X178000000Y-46000000D03*
%TD*%
D13*
%TO.C,J4*%
X178010000Y-53620000D03*
X178010000Y-56160000D03*
X178010000Y-58700000D03*
X178010000Y-61240000D03*
D14*
X178010000Y-63780000D03*
%TD*%
D13*
%TO.C,JP2*%
X178940000Y-73800000D03*
D14*
X176400000Y-73800000D03*
%TD*%
D13*
%TO.C,JP1*%
X178940000Y-77400000D03*
D14*
X176400000Y-77400000D03*
%TD*%
D17*
%TO.C,H6*%
X237431891Y-93568109D03*
X236000000Y-92975000D03*
X234568109Y-93568109D03*
X233975000Y-95000000D03*
X234568109Y-96431891D03*
X236000000Y-97025000D03*
X237431891Y-96431891D03*
X238025000Y-95000000D03*
D18*
X236000000Y-95000000D03*
%TD*%
D17*
%TO.C,H5*%
X179431891Y-93568109D03*
X178000000Y-92975000D03*
X176568109Y-93568109D03*
X175975000Y-95000000D03*
X176568109Y-96431891D03*
X178000000Y-97025000D03*
X179431891Y-96431891D03*
X180025000Y-95000000D03*
D18*
X178000000Y-95000000D03*
%TD*%
D17*
%TO.C,H4*%
X237431891Y-67568109D03*
X236000000Y-66975000D03*
X234568109Y-67568109D03*
X233975000Y-69000000D03*
X234568109Y-70431891D03*
X236000000Y-71025000D03*
X237431891Y-70431891D03*
X238025000Y-69000000D03*
D18*
X236000000Y-69000000D03*
%TD*%
D17*
%TO.C,H3*%
X179431891Y-67568109D03*
X178000000Y-66975000D03*
X176568109Y-67568109D03*
X175975000Y-69000000D03*
X176568109Y-70431891D03*
X178000000Y-71025000D03*
X179431891Y-70431891D03*
X180025000Y-69000000D03*
D18*
X178000000Y-69000000D03*
%TD*%
D19*
%TO.C,R4*%
G36*
X235457592Y-58401294D02*
G01*
X235483681Y-58405164D01*
X235509264Y-58411572D01*
X235534096Y-58420457D01*
X235557938Y-58431734D01*
X235580560Y-58445293D01*
X235601743Y-58461003D01*
X235621285Y-58478715D01*
X235638997Y-58498257D01*
X235654707Y-58519440D01*
X235668266Y-58542062D01*
X235679543Y-58565904D01*
X235688428Y-58590736D01*
X235694836Y-58616319D01*
X235698706Y-58642408D01*
X235700000Y-58668750D01*
X235700000Y-59206250D01*
X235698706Y-59232592D01*
X235694836Y-59258681D01*
X235688428Y-59284264D01*
X235679543Y-59309096D01*
X235668266Y-59332938D01*
X235654707Y-59355560D01*
X235638997Y-59376743D01*
X235621285Y-59396285D01*
X235601743Y-59413997D01*
X235580560Y-59429707D01*
X235557938Y-59443266D01*
X235534096Y-59454543D01*
X235509264Y-59463428D01*
X235483681Y-59469836D01*
X235457592Y-59473706D01*
X235431250Y-59475000D01*
X234468750Y-59475000D01*
X234442408Y-59473706D01*
X234416319Y-59469836D01*
X234390736Y-59463428D01*
X234365904Y-59454543D01*
X234342062Y-59443266D01*
X234319440Y-59429707D01*
X234298257Y-59413997D01*
X234278715Y-59396285D01*
X234261003Y-59376743D01*
X234245293Y-59355560D01*
X234231734Y-59332938D01*
X234220457Y-59309096D01*
X234211572Y-59284264D01*
X234205164Y-59258681D01*
X234201294Y-59232592D01*
X234200000Y-59206250D01*
X234200000Y-58668750D01*
X234201294Y-58642408D01*
X234205164Y-58616319D01*
X234211572Y-58590736D01*
X234220457Y-58565904D01*
X234231734Y-58542062D01*
X234245293Y-58519440D01*
X234261003Y-58498257D01*
X234278715Y-58478715D01*
X234298257Y-58461003D01*
X234319440Y-58445293D01*
X234342062Y-58431734D01*
X234365904Y-58420457D01*
X234390736Y-58411572D01*
X234416319Y-58405164D01*
X234442408Y-58401294D01*
X234468750Y-58400000D01*
X235431250Y-58400000D01*
X235457592Y-58401294D01*
X235457592Y-58401294D01*
G37*
D20*
X234950000Y-58937500D03*
D19*
G36*
X235457592Y-56526294D02*
G01*
X235483681Y-56530164D01*
X235509264Y-56536572D01*
X235534096Y-56545457D01*
X235557938Y-56556734D01*
X235580560Y-56570293D01*
X235601743Y-56586003D01*
X235621285Y-56603715D01*
X235638997Y-56623257D01*
X235654707Y-56644440D01*
X235668266Y-56667062D01*
X235679543Y-56690904D01*
X235688428Y-56715736D01*
X235694836Y-56741319D01*
X235698706Y-56767408D01*
X235700000Y-56793750D01*
X235700000Y-57331250D01*
X235698706Y-57357592D01*
X235694836Y-57383681D01*
X235688428Y-57409264D01*
X235679543Y-57434096D01*
X235668266Y-57457938D01*
X235654707Y-57480560D01*
X235638997Y-57501743D01*
X235621285Y-57521285D01*
X235601743Y-57538997D01*
X235580560Y-57554707D01*
X235557938Y-57568266D01*
X235534096Y-57579543D01*
X235509264Y-57588428D01*
X235483681Y-57594836D01*
X235457592Y-57598706D01*
X235431250Y-57600000D01*
X234468750Y-57600000D01*
X234442408Y-57598706D01*
X234416319Y-57594836D01*
X234390736Y-57588428D01*
X234365904Y-57579543D01*
X234342062Y-57568266D01*
X234319440Y-57554707D01*
X234298257Y-57538997D01*
X234278715Y-57521285D01*
X234261003Y-57501743D01*
X234245293Y-57480560D01*
X234231734Y-57457938D01*
X234220457Y-57434096D01*
X234211572Y-57409264D01*
X234205164Y-57383681D01*
X234201294Y-57357592D01*
X234200000Y-57331250D01*
X234200000Y-56793750D01*
X234201294Y-56767408D01*
X234205164Y-56741319D01*
X234211572Y-56715736D01*
X234220457Y-56690904D01*
X234231734Y-56667062D01*
X234245293Y-56644440D01*
X234261003Y-56623257D01*
X234278715Y-56603715D01*
X234298257Y-56586003D01*
X234319440Y-56570293D01*
X234342062Y-56556734D01*
X234365904Y-56545457D01*
X234390736Y-56536572D01*
X234416319Y-56530164D01*
X234442408Y-56526294D01*
X234468750Y-56525000D01*
X235431250Y-56525000D01*
X235457592Y-56526294D01*
X235457592Y-56526294D01*
G37*
D20*
X234950000Y-57062500D03*
%TD*%
D19*
%TO.C,R3*%
G36*
X235457592Y-61901294D02*
G01*
X235483681Y-61905164D01*
X235509264Y-61911572D01*
X235534096Y-61920457D01*
X235557938Y-61931734D01*
X235580560Y-61945293D01*
X235601743Y-61961003D01*
X235621285Y-61978715D01*
X235638997Y-61998257D01*
X235654707Y-62019440D01*
X235668266Y-62042062D01*
X235679543Y-62065904D01*
X235688428Y-62090736D01*
X235694836Y-62116319D01*
X235698706Y-62142408D01*
X235700000Y-62168750D01*
X235700000Y-62706250D01*
X235698706Y-62732592D01*
X235694836Y-62758681D01*
X235688428Y-62784264D01*
X235679543Y-62809096D01*
X235668266Y-62832938D01*
X235654707Y-62855560D01*
X235638997Y-62876743D01*
X235621285Y-62896285D01*
X235601743Y-62913997D01*
X235580560Y-62929707D01*
X235557938Y-62943266D01*
X235534096Y-62954543D01*
X235509264Y-62963428D01*
X235483681Y-62969836D01*
X235457592Y-62973706D01*
X235431250Y-62975000D01*
X234468750Y-62975000D01*
X234442408Y-62973706D01*
X234416319Y-62969836D01*
X234390736Y-62963428D01*
X234365904Y-62954543D01*
X234342062Y-62943266D01*
X234319440Y-62929707D01*
X234298257Y-62913997D01*
X234278715Y-62896285D01*
X234261003Y-62876743D01*
X234245293Y-62855560D01*
X234231734Y-62832938D01*
X234220457Y-62809096D01*
X234211572Y-62784264D01*
X234205164Y-62758681D01*
X234201294Y-62732592D01*
X234200000Y-62706250D01*
X234200000Y-62168750D01*
X234201294Y-62142408D01*
X234205164Y-62116319D01*
X234211572Y-62090736D01*
X234220457Y-62065904D01*
X234231734Y-62042062D01*
X234245293Y-62019440D01*
X234261003Y-61998257D01*
X234278715Y-61978715D01*
X234298257Y-61961003D01*
X234319440Y-61945293D01*
X234342062Y-61931734D01*
X234365904Y-61920457D01*
X234390736Y-61911572D01*
X234416319Y-61905164D01*
X234442408Y-61901294D01*
X234468750Y-61900000D01*
X235431250Y-61900000D01*
X235457592Y-61901294D01*
X235457592Y-61901294D01*
G37*
D20*
X234950000Y-62437500D03*
D19*
G36*
X235457592Y-60026294D02*
G01*
X235483681Y-60030164D01*
X235509264Y-60036572D01*
X235534096Y-60045457D01*
X235557938Y-60056734D01*
X235580560Y-60070293D01*
X235601743Y-60086003D01*
X235621285Y-60103715D01*
X235638997Y-60123257D01*
X235654707Y-60144440D01*
X235668266Y-60167062D01*
X235679543Y-60190904D01*
X235688428Y-60215736D01*
X235694836Y-60241319D01*
X235698706Y-60267408D01*
X235700000Y-60293750D01*
X235700000Y-60831250D01*
X235698706Y-60857592D01*
X235694836Y-60883681D01*
X235688428Y-60909264D01*
X235679543Y-60934096D01*
X235668266Y-60957938D01*
X235654707Y-60980560D01*
X235638997Y-61001743D01*
X235621285Y-61021285D01*
X235601743Y-61038997D01*
X235580560Y-61054707D01*
X235557938Y-61068266D01*
X235534096Y-61079543D01*
X235509264Y-61088428D01*
X235483681Y-61094836D01*
X235457592Y-61098706D01*
X235431250Y-61100000D01*
X234468750Y-61100000D01*
X234442408Y-61098706D01*
X234416319Y-61094836D01*
X234390736Y-61088428D01*
X234365904Y-61079543D01*
X234342062Y-61068266D01*
X234319440Y-61054707D01*
X234298257Y-61038997D01*
X234278715Y-61021285D01*
X234261003Y-61001743D01*
X234245293Y-60980560D01*
X234231734Y-60957938D01*
X234220457Y-60934096D01*
X234211572Y-60909264D01*
X234205164Y-60883681D01*
X234201294Y-60857592D01*
X234200000Y-60831250D01*
X234200000Y-60293750D01*
X234201294Y-60267408D01*
X234205164Y-60241319D01*
X234211572Y-60215736D01*
X234220457Y-60190904D01*
X234231734Y-60167062D01*
X234245293Y-60144440D01*
X234261003Y-60123257D01*
X234278715Y-60103715D01*
X234298257Y-60086003D01*
X234319440Y-60070293D01*
X234342062Y-60056734D01*
X234365904Y-60045457D01*
X234390736Y-60036572D01*
X234416319Y-60030164D01*
X234442408Y-60026294D01*
X234468750Y-60025000D01*
X235431250Y-60025000D01*
X235457592Y-60026294D01*
X235457592Y-60026294D01*
G37*
D20*
X234950000Y-60562500D03*
%TD*%
D19*
%TO.C,R2*%
G36*
X235457592Y-51401294D02*
G01*
X235483681Y-51405164D01*
X235509264Y-51411572D01*
X235534096Y-51420457D01*
X235557938Y-51431734D01*
X235580560Y-51445293D01*
X235601743Y-51461003D01*
X235621285Y-51478715D01*
X235638997Y-51498257D01*
X235654707Y-51519440D01*
X235668266Y-51542062D01*
X235679543Y-51565904D01*
X235688428Y-51590736D01*
X235694836Y-51616319D01*
X235698706Y-51642408D01*
X235700000Y-51668750D01*
X235700000Y-52206250D01*
X235698706Y-52232592D01*
X235694836Y-52258681D01*
X235688428Y-52284264D01*
X235679543Y-52309096D01*
X235668266Y-52332938D01*
X235654707Y-52355560D01*
X235638997Y-52376743D01*
X235621285Y-52396285D01*
X235601743Y-52413997D01*
X235580560Y-52429707D01*
X235557938Y-52443266D01*
X235534096Y-52454543D01*
X235509264Y-52463428D01*
X235483681Y-52469836D01*
X235457592Y-52473706D01*
X235431250Y-52475000D01*
X234468750Y-52475000D01*
X234442408Y-52473706D01*
X234416319Y-52469836D01*
X234390736Y-52463428D01*
X234365904Y-52454543D01*
X234342062Y-52443266D01*
X234319440Y-52429707D01*
X234298257Y-52413997D01*
X234278715Y-52396285D01*
X234261003Y-52376743D01*
X234245293Y-52355560D01*
X234231734Y-52332938D01*
X234220457Y-52309096D01*
X234211572Y-52284264D01*
X234205164Y-52258681D01*
X234201294Y-52232592D01*
X234200000Y-52206250D01*
X234200000Y-51668750D01*
X234201294Y-51642408D01*
X234205164Y-51616319D01*
X234211572Y-51590736D01*
X234220457Y-51565904D01*
X234231734Y-51542062D01*
X234245293Y-51519440D01*
X234261003Y-51498257D01*
X234278715Y-51478715D01*
X234298257Y-51461003D01*
X234319440Y-51445293D01*
X234342062Y-51431734D01*
X234365904Y-51420457D01*
X234390736Y-51411572D01*
X234416319Y-51405164D01*
X234442408Y-51401294D01*
X234468750Y-51400000D01*
X235431250Y-51400000D01*
X235457592Y-51401294D01*
X235457592Y-51401294D01*
G37*
D20*
X234950000Y-51937500D03*
D19*
G36*
X235457592Y-49526294D02*
G01*
X235483681Y-49530164D01*
X235509264Y-49536572D01*
X235534096Y-49545457D01*
X235557938Y-49556734D01*
X235580560Y-49570293D01*
X235601743Y-49586003D01*
X235621285Y-49603715D01*
X235638997Y-49623257D01*
X235654707Y-49644440D01*
X235668266Y-49667062D01*
X235679543Y-49690904D01*
X235688428Y-49715736D01*
X235694836Y-49741319D01*
X235698706Y-49767408D01*
X235700000Y-49793750D01*
X235700000Y-50331250D01*
X235698706Y-50357592D01*
X235694836Y-50383681D01*
X235688428Y-50409264D01*
X235679543Y-50434096D01*
X235668266Y-50457938D01*
X235654707Y-50480560D01*
X235638997Y-50501743D01*
X235621285Y-50521285D01*
X235601743Y-50538997D01*
X235580560Y-50554707D01*
X235557938Y-50568266D01*
X235534096Y-50579543D01*
X235509264Y-50588428D01*
X235483681Y-50594836D01*
X235457592Y-50598706D01*
X235431250Y-50600000D01*
X234468750Y-50600000D01*
X234442408Y-50598706D01*
X234416319Y-50594836D01*
X234390736Y-50588428D01*
X234365904Y-50579543D01*
X234342062Y-50568266D01*
X234319440Y-50554707D01*
X234298257Y-50538997D01*
X234278715Y-50521285D01*
X234261003Y-50501743D01*
X234245293Y-50480560D01*
X234231734Y-50457938D01*
X234220457Y-50434096D01*
X234211572Y-50409264D01*
X234205164Y-50383681D01*
X234201294Y-50357592D01*
X234200000Y-50331250D01*
X234200000Y-49793750D01*
X234201294Y-49767408D01*
X234205164Y-49741319D01*
X234211572Y-49715736D01*
X234220457Y-49690904D01*
X234231734Y-49667062D01*
X234245293Y-49644440D01*
X234261003Y-49623257D01*
X234278715Y-49603715D01*
X234298257Y-49586003D01*
X234319440Y-49570293D01*
X234342062Y-49556734D01*
X234365904Y-49545457D01*
X234390736Y-49536572D01*
X234416319Y-49530164D01*
X234442408Y-49526294D01*
X234468750Y-49525000D01*
X235431250Y-49525000D01*
X235457592Y-49526294D01*
X235457592Y-49526294D01*
G37*
D20*
X234950000Y-50062500D03*
%TD*%
D19*
%TO.C,R1*%
G36*
X235457592Y-54901294D02*
G01*
X235483681Y-54905164D01*
X235509264Y-54911572D01*
X235534096Y-54920457D01*
X235557938Y-54931734D01*
X235580560Y-54945293D01*
X235601743Y-54961003D01*
X235621285Y-54978715D01*
X235638997Y-54998257D01*
X235654707Y-55019440D01*
X235668266Y-55042062D01*
X235679543Y-55065904D01*
X235688428Y-55090736D01*
X235694836Y-55116319D01*
X235698706Y-55142408D01*
X235700000Y-55168750D01*
X235700000Y-55706250D01*
X235698706Y-55732592D01*
X235694836Y-55758681D01*
X235688428Y-55784264D01*
X235679543Y-55809096D01*
X235668266Y-55832938D01*
X235654707Y-55855560D01*
X235638997Y-55876743D01*
X235621285Y-55896285D01*
X235601743Y-55913997D01*
X235580560Y-55929707D01*
X235557938Y-55943266D01*
X235534096Y-55954543D01*
X235509264Y-55963428D01*
X235483681Y-55969836D01*
X235457592Y-55973706D01*
X235431250Y-55975000D01*
X234468750Y-55975000D01*
X234442408Y-55973706D01*
X234416319Y-55969836D01*
X234390736Y-55963428D01*
X234365904Y-55954543D01*
X234342062Y-55943266D01*
X234319440Y-55929707D01*
X234298257Y-55913997D01*
X234278715Y-55896285D01*
X234261003Y-55876743D01*
X234245293Y-55855560D01*
X234231734Y-55832938D01*
X234220457Y-55809096D01*
X234211572Y-55784264D01*
X234205164Y-55758681D01*
X234201294Y-55732592D01*
X234200000Y-55706250D01*
X234200000Y-55168750D01*
X234201294Y-55142408D01*
X234205164Y-55116319D01*
X234211572Y-55090736D01*
X234220457Y-55065904D01*
X234231734Y-55042062D01*
X234245293Y-55019440D01*
X234261003Y-54998257D01*
X234278715Y-54978715D01*
X234298257Y-54961003D01*
X234319440Y-54945293D01*
X234342062Y-54931734D01*
X234365904Y-54920457D01*
X234390736Y-54911572D01*
X234416319Y-54905164D01*
X234442408Y-54901294D01*
X234468750Y-54900000D01*
X235431250Y-54900000D01*
X235457592Y-54901294D01*
X235457592Y-54901294D01*
G37*
D20*
X234950000Y-55437500D03*
D19*
G36*
X235457592Y-53026294D02*
G01*
X235483681Y-53030164D01*
X235509264Y-53036572D01*
X235534096Y-53045457D01*
X235557938Y-53056734D01*
X235580560Y-53070293D01*
X235601743Y-53086003D01*
X235621285Y-53103715D01*
X235638997Y-53123257D01*
X235654707Y-53144440D01*
X235668266Y-53167062D01*
X235679543Y-53190904D01*
X235688428Y-53215736D01*
X235694836Y-53241319D01*
X235698706Y-53267408D01*
X235700000Y-53293750D01*
X235700000Y-53831250D01*
X235698706Y-53857592D01*
X235694836Y-53883681D01*
X235688428Y-53909264D01*
X235679543Y-53934096D01*
X235668266Y-53957938D01*
X235654707Y-53980560D01*
X235638997Y-54001743D01*
X235621285Y-54021285D01*
X235601743Y-54038997D01*
X235580560Y-54054707D01*
X235557938Y-54068266D01*
X235534096Y-54079543D01*
X235509264Y-54088428D01*
X235483681Y-54094836D01*
X235457592Y-54098706D01*
X235431250Y-54100000D01*
X234468750Y-54100000D01*
X234442408Y-54098706D01*
X234416319Y-54094836D01*
X234390736Y-54088428D01*
X234365904Y-54079543D01*
X234342062Y-54068266D01*
X234319440Y-54054707D01*
X234298257Y-54038997D01*
X234278715Y-54021285D01*
X234261003Y-54001743D01*
X234245293Y-53980560D01*
X234231734Y-53957938D01*
X234220457Y-53934096D01*
X234211572Y-53909264D01*
X234205164Y-53883681D01*
X234201294Y-53857592D01*
X234200000Y-53831250D01*
X234200000Y-53293750D01*
X234201294Y-53267408D01*
X234205164Y-53241319D01*
X234211572Y-53215736D01*
X234220457Y-53190904D01*
X234231734Y-53167062D01*
X234245293Y-53144440D01*
X234261003Y-53123257D01*
X234278715Y-53103715D01*
X234298257Y-53086003D01*
X234319440Y-53070293D01*
X234342062Y-53056734D01*
X234365904Y-53045457D01*
X234390736Y-53036572D01*
X234416319Y-53030164D01*
X234442408Y-53026294D01*
X234468750Y-53025000D01*
X235431250Y-53025000D01*
X235457592Y-53026294D01*
X235457592Y-53026294D01*
G37*
D20*
X234950000Y-53562500D03*
%TD*%
D19*
%TO.C,D5*%
G36*
X237507592Y-56526294D02*
G01*
X237533681Y-56530164D01*
X237559264Y-56536572D01*
X237584096Y-56545457D01*
X237607938Y-56556734D01*
X237630560Y-56570293D01*
X237651743Y-56586003D01*
X237671285Y-56603715D01*
X237688997Y-56623257D01*
X237704707Y-56644440D01*
X237718266Y-56667062D01*
X237729543Y-56690904D01*
X237738428Y-56715736D01*
X237744836Y-56741319D01*
X237748706Y-56767408D01*
X237750000Y-56793750D01*
X237750000Y-57331250D01*
X237748706Y-57357592D01*
X237744836Y-57383681D01*
X237738428Y-57409264D01*
X237729543Y-57434096D01*
X237718266Y-57457938D01*
X237704707Y-57480560D01*
X237688997Y-57501743D01*
X237671285Y-57521285D01*
X237651743Y-57538997D01*
X237630560Y-57554707D01*
X237607938Y-57568266D01*
X237584096Y-57579543D01*
X237559264Y-57588428D01*
X237533681Y-57594836D01*
X237507592Y-57598706D01*
X237481250Y-57600000D01*
X236518750Y-57600000D01*
X236492408Y-57598706D01*
X236466319Y-57594836D01*
X236440736Y-57588428D01*
X236415904Y-57579543D01*
X236392062Y-57568266D01*
X236369440Y-57554707D01*
X236348257Y-57538997D01*
X236328715Y-57521285D01*
X236311003Y-57501743D01*
X236295293Y-57480560D01*
X236281734Y-57457938D01*
X236270457Y-57434096D01*
X236261572Y-57409264D01*
X236255164Y-57383681D01*
X236251294Y-57357592D01*
X236250000Y-57331250D01*
X236250000Y-56793750D01*
X236251294Y-56767408D01*
X236255164Y-56741319D01*
X236261572Y-56715736D01*
X236270457Y-56690904D01*
X236281734Y-56667062D01*
X236295293Y-56644440D01*
X236311003Y-56623257D01*
X236328715Y-56603715D01*
X236348257Y-56586003D01*
X236369440Y-56570293D01*
X236392062Y-56556734D01*
X236415904Y-56545457D01*
X236440736Y-56536572D01*
X236466319Y-56530164D01*
X236492408Y-56526294D01*
X236518750Y-56525000D01*
X237481250Y-56525000D01*
X237507592Y-56526294D01*
X237507592Y-56526294D01*
G37*
D20*
X237000000Y-57062500D03*
D19*
G36*
X237507592Y-58401294D02*
G01*
X237533681Y-58405164D01*
X237559264Y-58411572D01*
X237584096Y-58420457D01*
X237607938Y-58431734D01*
X237630560Y-58445293D01*
X237651743Y-58461003D01*
X237671285Y-58478715D01*
X237688997Y-58498257D01*
X237704707Y-58519440D01*
X237718266Y-58542062D01*
X237729543Y-58565904D01*
X237738428Y-58590736D01*
X237744836Y-58616319D01*
X237748706Y-58642408D01*
X237750000Y-58668750D01*
X237750000Y-59206250D01*
X237748706Y-59232592D01*
X237744836Y-59258681D01*
X237738428Y-59284264D01*
X237729543Y-59309096D01*
X237718266Y-59332938D01*
X237704707Y-59355560D01*
X237688997Y-59376743D01*
X237671285Y-59396285D01*
X237651743Y-59413997D01*
X237630560Y-59429707D01*
X237607938Y-59443266D01*
X237584096Y-59454543D01*
X237559264Y-59463428D01*
X237533681Y-59469836D01*
X237507592Y-59473706D01*
X237481250Y-59475000D01*
X236518750Y-59475000D01*
X236492408Y-59473706D01*
X236466319Y-59469836D01*
X236440736Y-59463428D01*
X236415904Y-59454543D01*
X236392062Y-59443266D01*
X236369440Y-59429707D01*
X236348257Y-59413997D01*
X236328715Y-59396285D01*
X236311003Y-59376743D01*
X236295293Y-59355560D01*
X236281734Y-59332938D01*
X236270457Y-59309096D01*
X236261572Y-59284264D01*
X236255164Y-59258681D01*
X236251294Y-59232592D01*
X236250000Y-59206250D01*
X236250000Y-58668750D01*
X236251294Y-58642408D01*
X236255164Y-58616319D01*
X236261572Y-58590736D01*
X236270457Y-58565904D01*
X236281734Y-58542062D01*
X236295293Y-58519440D01*
X236311003Y-58498257D01*
X236328715Y-58478715D01*
X236348257Y-58461003D01*
X236369440Y-58445293D01*
X236392062Y-58431734D01*
X236415904Y-58420457D01*
X236440736Y-58411572D01*
X236466319Y-58405164D01*
X236492408Y-58401294D01*
X236518750Y-58400000D01*
X237481250Y-58400000D01*
X237507592Y-58401294D01*
X237507592Y-58401294D01*
G37*
D20*
X237000000Y-58937500D03*
%TD*%
D19*
%TO.C,D4*%
G36*
X237507592Y-60026294D02*
G01*
X237533681Y-60030164D01*
X237559264Y-60036572D01*
X237584096Y-60045457D01*
X237607938Y-60056734D01*
X237630560Y-60070293D01*
X237651743Y-60086003D01*
X237671285Y-60103715D01*
X237688997Y-60123257D01*
X237704707Y-60144440D01*
X237718266Y-60167062D01*
X237729543Y-60190904D01*
X237738428Y-60215736D01*
X237744836Y-60241319D01*
X237748706Y-60267408D01*
X237750000Y-60293750D01*
X237750000Y-60831250D01*
X237748706Y-60857592D01*
X237744836Y-60883681D01*
X237738428Y-60909264D01*
X237729543Y-60934096D01*
X237718266Y-60957938D01*
X237704707Y-60980560D01*
X237688997Y-61001743D01*
X237671285Y-61021285D01*
X237651743Y-61038997D01*
X237630560Y-61054707D01*
X237607938Y-61068266D01*
X237584096Y-61079543D01*
X237559264Y-61088428D01*
X237533681Y-61094836D01*
X237507592Y-61098706D01*
X237481250Y-61100000D01*
X236518750Y-61100000D01*
X236492408Y-61098706D01*
X236466319Y-61094836D01*
X236440736Y-61088428D01*
X236415904Y-61079543D01*
X236392062Y-61068266D01*
X236369440Y-61054707D01*
X236348257Y-61038997D01*
X236328715Y-61021285D01*
X236311003Y-61001743D01*
X236295293Y-60980560D01*
X236281734Y-60957938D01*
X236270457Y-60934096D01*
X236261572Y-60909264D01*
X236255164Y-60883681D01*
X236251294Y-60857592D01*
X236250000Y-60831250D01*
X236250000Y-60293750D01*
X236251294Y-60267408D01*
X236255164Y-60241319D01*
X236261572Y-60215736D01*
X236270457Y-60190904D01*
X236281734Y-60167062D01*
X236295293Y-60144440D01*
X236311003Y-60123257D01*
X236328715Y-60103715D01*
X236348257Y-60086003D01*
X236369440Y-60070293D01*
X236392062Y-60056734D01*
X236415904Y-60045457D01*
X236440736Y-60036572D01*
X236466319Y-60030164D01*
X236492408Y-60026294D01*
X236518750Y-60025000D01*
X237481250Y-60025000D01*
X237507592Y-60026294D01*
X237507592Y-60026294D01*
G37*
D20*
X237000000Y-60562500D03*
D19*
G36*
X237507592Y-61901294D02*
G01*
X237533681Y-61905164D01*
X237559264Y-61911572D01*
X237584096Y-61920457D01*
X237607938Y-61931734D01*
X237630560Y-61945293D01*
X237651743Y-61961003D01*
X237671285Y-61978715D01*
X237688997Y-61998257D01*
X237704707Y-62019440D01*
X237718266Y-62042062D01*
X237729543Y-62065904D01*
X237738428Y-62090736D01*
X237744836Y-62116319D01*
X237748706Y-62142408D01*
X237750000Y-62168750D01*
X237750000Y-62706250D01*
X237748706Y-62732592D01*
X237744836Y-62758681D01*
X237738428Y-62784264D01*
X237729543Y-62809096D01*
X237718266Y-62832938D01*
X237704707Y-62855560D01*
X237688997Y-62876743D01*
X237671285Y-62896285D01*
X237651743Y-62913997D01*
X237630560Y-62929707D01*
X237607938Y-62943266D01*
X237584096Y-62954543D01*
X237559264Y-62963428D01*
X237533681Y-62969836D01*
X237507592Y-62973706D01*
X237481250Y-62975000D01*
X236518750Y-62975000D01*
X236492408Y-62973706D01*
X236466319Y-62969836D01*
X236440736Y-62963428D01*
X236415904Y-62954543D01*
X236392062Y-62943266D01*
X236369440Y-62929707D01*
X236348257Y-62913997D01*
X236328715Y-62896285D01*
X236311003Y-62876743D01*
X236295293Y-62855560D01*
X236281734Y-62832938D01*
X236270457Y-62809096D01*
X236261572Y-62784264D01*
X236255164Y-62758681D01*
X236251294Y-62732592D01*
X236250000Y-62706250D01*
X236250000Y-62168750D01*
X236251294Y-62142408D01*
X236255164Y-62116319D01*
X236261572Y-62090736D01*
X236270457Y-62065904D01*
X236281734Y-62042062D01*
X236295293Y-62019440D01*
X236311003Y-61998257D01*
X236328715Y-61978715D01*
X236348257Y-61961003D01*
X236369440Y-61945293D01*
X236392062Y-61931734D01*
X236415904Y-61920457D01*
X236440736Y-61911572D01*
X236466319Y-61905164D01*
X236492408Y-61901294D01*
X236518750Y-61900000D01*
X237481250Y-61900000D01*
X237507592Y-61901294D01*
X237507592Y-61901294D01*
G37*
D20*
X237000000Y-62437500D03*
%TD*%
D19*
%TO.C,D3*%
G36*
X237507592Y-49526294D02*
G01*
X237533681Y-49530164D01*
X237559264Y-49536572D01*
X237584096Y-49545457D01*
X237607938Y-49556734D01*
X237630560Y-49570293D01*
X237651743Y-49586003D01*
X237671285Y-49603715D01*
X237688997Y-49623257D01*
X237704707Y-49644440D01*
X237718266Y-49667062D01*
X237729543Y-49690904D01*
X237738428Y-49715736D01*
X237744836Y-49741319D01*
X237748706Y-49767408D01*
X237750000Y-49793750D01*
X237750000Y-50331250D01*
X237748706Y-50357592D01*
X237744836Y-50383681D01*
X237738428Y-50409264D01*
X237729543Y-50434096D01*
X237718266Y-50457938D01*
X237704707Y-50480560D01*
X237688997Y-50501743D01*
X237671285Y-50521285D01*
X237651743Y-50538997D01*
X237630560Y-50554707D01*
X237607938Y-50568266D01*
X237584096Y-50579543D01*
X237559264Y-50588428D01*
X237533681Y-50594836D01*
X237507592Y-50598706D01*
X237481250Y-50600000D01*
X236518750Y-50600000D01*
X236492408Y-50598706D01*
X236466319Y-50594836D01*
X236440736Y-50588428D01*
X236415904Y-50579543D01*
X236392062Y-50568266D01*
X236369440Y-50554707D01*
X236348257Y-50538997D01*
X236328715Y-50521285D01*
X236311003Y-50501743D01*
X236295293Y-50480560D01*
X236281734Y-50457938D01*
X236270457Y-50434096D01*
X236261572Y-50409264D01*
X236255164Y-50383681D01*
X236251294Y-50357592D01*
X236250000Y-50331250D01*
X236250000Y-49793750D01*
X236251294Y-49767408D01*
X236255164Y-49741319D01*
X236261572Y-49715736D01*
X236270457Y-49690904D01*
X236281734Y-49667062D01*
X236295293Y-49644440D01*
X236311003Y-49623257D01*
X236328715Y-49603715D01*
X236348257Y-49586003D01*
X236369440Y-49570293D01*
X236392062Y-49556734D01*
X236415904Y-49545457D01*
X236440736Y-49536572D01*
X236466319Y-49530164D01*
X236492408Y-49526294D01*
X236518750Y-49525000D01*
X237481250Y-49525000D01*
X237507592Y-49526294D01*
X237507592Y-49526294D01*
G37*
D20*
X237000000Y-50062500D03*
D19*
G36*
X237507592Y-51401294D02*
G01*
X237533681Y-51405164D01*
X237559264Y-51411572D01*
X237584096Y-51420457D01*
X237607938Y-51431734D01*
X237630560Y-51445293D01*
X237651743Y-51461003D01*
X237671285Y-51478715D01*
X237688997Y-51498257D01*
X237704707Y-51519440D01*
X237718266Y-51542062D01*
X237729543Y-51565904D01*
X237738428Y-51590736D01*
X237744836Y-51616319D01*
X237748706Y-51642408D01*
X237750000Y-51668750D01*
X237750000Y-52206250D01*
X237748706Y-52232592D01*
X237744836Y-52258681D01*
X237738428Y-52284264D01*
X237729543Y-52309096D01*
X237718266Y-52332938D01*
X237704707Y-52355560D01*
X237688997Y-52376743D01*
X237671285Y-52396285D01*
X237651743Y-52413997D01*
X237630560Y-52429707D01*
X237607938Y-52443266D01*
X237584096Y-52454543D01*
X237559264Y-52463428D01*
X237533681Y-52469836D01*
X237507592Y-52473706D01*
X237481250Y-52475000D01*
X236518750Y-52475000D01*
X236492408Y-52473706D01*
X236466319Y-52469836D01*
X236440736Y-52463428D01*
X236415904Y-52454543D01*
X236392062Y-52443266D01*
X236369440Y-52429707D01*
X236348257Y-52413997D01*
X236328715Y-52396285D01*
X236311003Y-52376743D01*
X236295293Y-52355560D01*
X236281734Y-52332938D01*
X236270457Y-52309096D01*
X236261572Y-52284264D01*
X236255164Y-52258681D01*
X236251294Y-52232592D01*
X236250000Y-52206250D01*
X236250000Y-51668750D01*
X236251294Y-51642408D01*
X236255164Y-51616319D01*
X236261572Y-51590736D01*
X236270457Y-51565904D01*
X236281734Y-51542062D01*
X236295293Y-51519440D01*
X236311003Y-51498257D01*
X236328715Y-51478715D01*
X236348257Y-51461003D01*
X236369440Y-51445293D01*
X236392062Y-51431734D01*
X236415904Y-51420457D01*
X236440736Y-51411572D01*
X236466319Y-51405164D01*
X236492408Y-51401294D01*
X236518750Y-51400000D01*
X237481250Y-51400000D01*
X237507592Y-51401294D01*
X237507592Y-51401294D01*
G37*
D20*
X237000000Y-51937500D03*
%TD*%
D19*
%TO.C,D2*%
G36*
X237507592Y-53026294D02*
G01*
X237533681Y-53030164D01*
X237559264Y-53036572D01*
X237584096Y-53045457D01*
X237607938Y-53056734D01*
X237630560Y-53070293D01*
X237651743Y-53086003D01*
X237671285Y-53103715D01*
X237688997Y-53123257D01*
X237704707Y-53144440D01*
X237718266Y-53167062D01*
X237729543Y-53190904D01*
X237738428Y-53215736D01*
X237744836Y-53241319D01*
X237748706Y-53267408D01*
X237750000Y-53293750D01*
X237750000Y-53831250D01*
X237748706Y-53857592D01*
X237744836Y-53883681D01*
X237738428Y-53909264D01*
X237729543Y-53934096D01*
X237718266Y-53957938D01*
X237704707Y-53980560D01*
X237688997Y-54001743D01*
X237671285Y-54021285D01*
X237651743Y-54038997D01*
X237630560Y-54054707D01*
X237607938Y-54068266D01*
X237584096Y-54079543D01*
X237559264Y-54088428D01*
X237533681Y-54094836D01*
X237507592Y-54098706D01*
X237481250Y-54100000D01*
X236518750Y-54100000D01*
X236492408Y-54098706D01*
X236466319Y-54094836D01*
X236440736Y-54088428D01*
X236415904Y-54079543D01*
X236392062Y-54068266D01*
X236369440Y-54054707D01*
X236348257Y-54038997D01*
X236328715Y-54021285D01*
X236311003Y-54001743D01*
X236295293Y-53980560D01*
X236281734Y-53957938D01*
X236270457Y-53934096D01*
X236261572Y-53909264D01*
X236255164Y-53883681D01*
X236251294Y-53857592D01*
X236250000Y-53831250D01*
X236250000Y-53293750D01*
X236251294Y-53267408D01*
X236255164Y-53241319D01*
X236261572Y-53215736D01*
X236270457Y-53190904D01*
X236281734Y-53167062D01*
X236295293Y-53144440D01*
X236311003Y-53123257D01*
X236328715Y-53103715D01*
X236348257Y-53086003D01*
X236369440Y-53070293D01*
X236392062Y-53056734D01*
X236415904Y-53045457D01*
X236440736Y-53036572D01*
X236466319Y-53030164D01*
X236492408Y-53026294D01*
X236518750Y-53025000D01*
X237481250Y-53025000D01*
X237507592Y-53026294D01*
X237507592Y-53026294D01*
G37*
D20*
X237000000Y-53562500D03*
D19*
G36*
X237507592Y-54901294D02*
G01*
X237533681Y-54905164D01*
X237559264Y-54911572D01*
X237584096Y-54920457D01*
X237607938Y-54931734D01*
X237630560Y-54945293D01*
X237651743Y-54961003D01*
X237671285Y-54978715D01*
X237688997Y-54998257D01*
X237704707Y-55019440D01*
X237718266Y-55042062D01*
X237729543Y-55065904D01*
X237738428Y-55090736D01*
X237744836Y-55116319D01*
X237748706Y-55142408D01*
X237750000Y-55168750D01*
X237750000Y-55706250D01*
X237748706Y-55732592D01*
X237744836Y-55758681D01*
X237738428Y-55784264D01*
X237729543Y-55809096D01*
X237718266Y-55832938D01*
X237704707Y-55855560D01*
X237688997Y-55876743D01*
X237671285Y-55896285D01*
X237651743Y-55913997D01*
X237630560Y-55929707D01*
X237607938Y-55943266D01*
X237584096Y-55954543D01*
X237559264Y-55963428D01*
X237533681Y-55969836D01*
X237507592Y-55973706D01*
X237481250Y-55975000D01*
X236518750Y-55975000D01*
X236492408Y-55973706D01*
X236466319Y-55969836D01*
X236440736Y-55963428D01*
X236415904Y-55954543D01*
X236392062Y-55943266D01*
X236369440Y-55929707D01*
X236348257Y-55913997D01*
X236328715Y-55896285D01*
X236311003Y-55876743D01*
X236295293Y-55855560D01*
X236281734Y-55832938D01*
X236270457Y-55809096D01*
X236261572Y-55784264D01*
X236255164Y-55758681D01*
X236251294Y-55732592D01*
X236250000Y-55706250D01*
X236250000Y-55168750D01*
X236251294Y-55142408D01*
X236255164Y-55116319D01*
X236261572Y-55090736D01*
X236270457Y-55065904D01*
X236281734Y-55042062D01*
X236295293Y-55019440D01*
X236311003Y-54998257D01*
X236328715Y-54978715D01*
X236348257Y-54961003D01*
X236369440Y-54945293D01*
X236392062Y-54931734D01*
X236415904Y-54920457D01*
X236440736Y-54911572D01*
X236466319Y-54905164D01*
X236492408Y-54901294D01*
X236518750Y-54900000D01*
X237481250Y-54900000D01*
X237507592Y-54901294D01*
X237507592Y-54901294D01*
G37*
D20*
X237000000Y-55437500D03*
%TD*%
D21*
%TO.C,U4*%
X231915000Y-65200000D03*
X230645000Y-65200000D03*
X229375000Y-65200000D03*
X228105000Y-65200000D03*
X226835000Y-65200000D03*
X225565000Y-65200000D03*
X224295000Y-65200000D03*
X223025000Y-65200000D03*
X221755000Y-65200000D03*
X220485000Y-65200000D03*
X220485000Y-55200000D03*
X221755000Y-55200000D03*
X223025000Y-55200000D03*
X224295000Y-55200000D03*
X225565000Y-55200000D03*
X226835000Y-55200000D03*
X228105000Y-55200000D03*
X229375000Y-55200000D03*
X230645000Y-55200000D03*
X231915000Y-55200000D03*
%TD*%
%TO.C,U3*%
X218915000Y-65200000D03*
X217645000Y-65200000D03*
X216375000Y-65200000D03*
X215105000Y-65200000D03*
X213835000Y-65200000D03*
X212565000Y-65200000D03*
X211295000Y-65200000D03*
X210025000Y-65200000D03*
X208755000Y-65200000D03*
X207485000Y-65200000D03*
X207485000Y-55200000D03*
X208755000Y-55200000D03*
X210025000Y-55200000D03*
X211295000Y-55200000D03*
X212565000Y-55200000D03*
X213835000Y-55200000D03*
X215105000Y-55200000D03*
X216375000Y-55200000D03*
X217645000Y-55200000D03*
X218915000Y-55200000D03*
%TD*%
%TO.C,U2*%
X194485000Y-55000000D03*
X195755000Y-55000000D03*
X197025000Y-55000000D03*
X198295000Y-55000000D03*
X199565000Y-55000000D03*
X200835000Y-55000000D03*
X202105000Y-55000000D03*
X203375000Y-55000000D03*
X204645000Y-55000000D03*
X205915000Y-55000000D03*
X205915000Y-65000000D03*
X204645000Y-65000000D03*
X203375000Y-65000000D03*
X202105000Y-65000000D03*
X200835000Y-65000000D03*
X199565000Y-65000000D03*
X198295000Y-65000000D03*
X197025000Y-65000000D03*
X195755000Y-65000000D03*
X194485000Y-65000000D03*
%TD*%
%TO.C,U1*%
X181485000Y-55000000D03*
X182755000Y-55000000D03*
X184025000Y-55000000D03*
X185295000Y-55000000D03*
X186565000Y-55000000D03*
X187835000Y-55000000D03*
X189105000Y-55000000D03*
X190375000Y-55000000D03*
X191645000Y-55000000D03*
X192915000Y-55000000D03*
X192915000Y-65000000D03*
X191645000Y-65000000D03*
X190375000Y-65000000D03*
X189105000Y-65000000D03*
X187835000Y-65000000D03*
X186565000Y-65000000D03*
X185295000Y-65000000D03*
X184025000Y-65000000D03*
X182755000Y-65000000D03*
X181485000Y-65000000D03*
%TD*%
D15*
%TO.C,RN6*%
X231660000Y-76400000D03*
X229120000Y-76400000D03*
X226580000Y-76400000D03*
X224040000Y-76400000D03*
X221500000Y-76400000D03*
X218960000Y-76400000D03*
X216420000Y-76400000D03*
X213880000Y-76400000D03*
X211340000Y-76400000D03*
D16*
X208800000Y-76400000D03*
%TD*%
D15*
%TO.C,RN4*%
X205260000Y-76400000D03*
X202720000Y-76400000D03*
X200180000Y-76400000D03*
X197640000Y-76400000D03*
X195100000Y-76400000D03*
X192560000Y-76400000D03*
X190020000Y-76400000D03*
X187480000Y-76400000D03*
X184940000Y-76400000D03*
D16*
X182400000Y-76400000D03*
%TD*%
D15*
%TO.C,RN3*%
X205260000Y-73000000D03*
X202720000Y-73000000D03*
X200180000Y-73000000D03*
X197640000Y-73000000D03*
X195100000Y-73000000D03*
X192560000Y-73000000D03*
X190020000Y-73000000D03*
X187480000Y-73000000D03*
X184940000Y-73000000D03*
D16*
X182400000Y-73000000D03*
%TD*%
D15*
%TO.C,RN2*%
X231660000Y-52000000D03*
X229120000Y-52000000D03*
X226580000Y-52000000D03*
X224040000Y-52000000D03*
X221500000Y-52000000D03*
X218960000Y-52000000D03*
X216420000Y-52000000D03*
X213880000Y-52000000D03*
X211340000Y-52000000D03*
D16*
X208800000Y-52000000D03*
%TD*%
D15*
%TO.C,RN1*%
X205260000Y-52000000D03*
X202720000Y-52000000D03*
X200180000Y-52000000D03*
X197640000Y-52000000D03*
X195100000Y-52000000D03*
X192560000Y-52000000D03*
X190020000Y-52000000D03*
X187480000Y-52000000D03*
X184940000Y-52000000D03*
D16*
X182400000Y-52000000D03*
%TD*%
D22*
%TO.C,J3*%
X237470000Y-83530000D03*
X237470000Y-88580000D03*
X234930000Y-83530000D03*
X234930000Y-88580000D03*
X232390000Y-83530000D03*
X232390000Y-88580000D03*
X229850000Y-83530000D03*
X229850000Y-88580000D03*
X227310000Y-83530000D03*
X227310000Y-88580000D03*
X224770000Y-83530000D03*
X224770000Y-88580000D03*
X222230000Y-83530000D03*
X222230000Y-88580000D03*
X219690000Y-83530000D03*
X219690000Y-88580000D03*
X217150000Y-83530000D03*
X217150000Y-88580000D03*
X214610000Y-83530000D03*
X214610000Y-88580000D03*
X212070000Y-83530000D03*
X212070000Y-88580000D03*
X209530000Y-83530000D03*
X209530000Y-88580000D03*
X206990000Y-83530000D03*
X206990000Y-88580000D03*
X204450000Y-83530000D03*
X204450000Y-88580000D03*
X201910000Y-83530000D03*
X201910000Y-88580000D03*
X199370000Y-83530000D03*
X199370000Y-88580000D03*
X196830000Y-83530000D03*
X196830000Y-88580000D03*
X194290000Y-83530000D03*
X194290000Y-88580000D03*
X191750000Y-83530000D03*
X191750000Y-88580000D03*
X189210000Y-83530000D03*
X189210000Y-88580000D03*
X186670000Y-83530000D03*
X186670000Y-88580000D03*
X184130000Y-83530000D03*
X184130000Y-88580000D03*
X181590000Y-83530000D03*
X181590000Y-88580000D03*
X179050000Y-83530000D03*
X179050000Y-88580000D03*
X176510000Y-83530000D03*
X176510000Y-88580000D03*
%TD*%
D23*
%TO.C,FUSE1A1*%
X177980000Y-100290000D03*
X177980000Y-107910000D03*
%TD*%
D24*
%TO.C,D1*%
X181120000Y-98000000D03*
X191280000Y-98000000D03*
%TD*%
M02*
