%TF.GenerationSoftware,KiCad,Pcbnew,(5.1.4)-1*%
%TF.CreationDate,2020-08-14T14:12:09-05:00*%
%TF.ProjectId,rascsi_din,72617363-7369-45f6-9469-6e2e6b696361,rev?*%
%TF.SameCoordinates,Original*%
%TF.FileFunction,Legend,Bot*%
%TF.FilePolarity,Positive*%
%FSLAX46Y46*%
G04 Gerber Fmt 4.6, Leading zero omitted, Abs format (unit mm)*
G04 Created by KiCad (PCBNEW (5.1.4)-1) date 2020-08-14 14:12:09*
%MOMM*%
%LPD*%
G04 APERTURE LIST*
%ADD10C,0.150000*%
%ADD11C,0.050000*%
G04 APERTURE END LIST*
D10*
X223752723Y-113904780D02*
X223181295Y-113904780D01*
X223467009Y-114904780D02*
X223467009Y-113904780D01*
X222895580Y-114619066D02*
X222419390Y-114619066D01*
X222990819Y-114904780D02*
X222657485Y-113904780D01*
X222324152Y-114904780D01*
X221419390Y-114904780D02*
X221752723Y-114428590D01*
X221990819Y-114904780D02*
X221990819Y-113904780D01*
X221609866Y-113904780D01*
X221514628Y-113952400D01*
X221467009Y-114000019D01*
X221419390Y-114095257D01*
X221419390Y-114238114D01*
X221467009Y-114333352D01*
X221514628Y-114380971D01*
X221609866Y-114428590D01*
X221990819Y-114428590D01*
X220467009Y-113952400D02*
X220562247Y-113904780D01*
X220705104Y-113904780D01*
X220847961Y-113952400D01*
X220943200Y-114047638D01*
X220990819Y-114142876D01*
X221038438Y-114333352D01*
X221038438Y-114476209D01*
X220990819Y-114666685D01*
X220943200Y-114761923D01*
X220847961Y-114857161D01*
X220705104Y-114904780D01*
X220609866Y-114904780D01*
X220467009Y-114857161D01*
X220419390Y-114809542D01*
X220419390Y-114476209D01*
X220609866Y-114476209D01*
X219990819Y-114380971D02*
X219657485Y-114380971D01*
X219514628Y-114904780D02*
X219990819Y-114904780D01*
X219990819Y-113904780D01*
X219514628Y-113904780D01*
X219228914Y-113904780D02*
X218657485Y-113904780D01*
X218943200Y-114904780D02*
X218943200Y-113904780D01*
X217228914Y-114380971D02*
X217086057Y-114428590D01*
X217038438Y-114476209D01*
X216990819Y-114571447D01*
X216990819Y-114714304D01*
X217038438Y-114809542D01*
X217086057Y-114857161D01*
X217181295Y-114904780D01*
X217562247Y-114904780D01*
X217562247Y-113904780D01*
X217228914Y-113904780D01*
X217133676Y-113952400D01*
X217086057Y-114000019D01*
X217038438Y-114095257D01*
X217038438Y-114190495D01*
X217086057Y-114285733D01*
X217133676Y-114333352D01*
X217228914Y-114380971D01*
X217562247Y-114380971D01*
X216419390Y-114904780D02*
X216514628Y-114857161D01*
X216562247Y-114809542D01*
X216609866Y-114714304D01*
X216609866Y-114428590D01*
X216562247Y-114333352D01*
X216514628Y-114285733D01*
X216419390Y-114238114D01*
X216276533Y-114238114D01*
X216181295Y-114285733D01*
X216133676Y-114333352D01*
X216086057Y-114428590D01*
X216086057Y-114714304D01*
X216133676Y-114809542D01*
X216181295Y-114857161D01*
X216276533Y-114904780D01*
X216419390Y-114904780D01*
X215228914Y-114904780D02*
X215228914Y-114380971D01*
X215276533Y-114285733D01*
X215371771Y-114238114D01*
X215562247Y-114238114D01*
X215657485Y-114285733D01*
X215228914Y-114857161D02*
X215324152Y-114904780D01*
X215562247Y-114904780D01*
X215657485Y-114857161D01*
X215705104Y-114761923D01*
X215705104Y-114666685D01*
X215657485Y-114571447D01*
X215562247Y-114523828D01*
X215324152Y-114523828D01*
X215228914Y-114476209D01*
X214752723Y-114904780D02*
X214752723Y-114238114D01*
X214752723Y-114428590D02*
X214705104Y-114333352D01*
X214657485Y-114285733D01*
X214562247Y-114238114D01*
X214467009Y-114238114D01*
X213705104Y-114904780D02*
X213705104Y-113904780D01*
X213705104Y-114857161D02*
X213800342Y-114904780D01*
X213990819Y-114904780D01*
X214086057Y-114857161D01*
X214133676Y-114809542D01*
X214181295Y-114714304D01*
X214181295Y-114428590D01*
X214133676Y-114333352D01*
X214086057Y-114285733D01*
X213990819Y-114238114D01*
X213800342Y-114238114D01*
X213705104Y-114285733D01*
X212609866Y-113904780D02*
X212276533Y-114904780D01*
X211943200Y-113904780D01*
X211228914Y-114857161D02*
X211324152Y-114904780D01*
X211514628Y-114904780D01*
X211609866Y-114857161D01*
X211657485Y-114761923D01*
X211657485Y-114380971D01*
X211609866Y-114285733D01*
X211514628Y-114238114D01*
X211324152Y-114238114D01*
X211228914Y-114285733D01*
X211181295Y-114380971D01*
X211181295Y-114476209D01*
X211657485Y-114571447D01*
X210752723Y-114904780D02*
X210752723Y-114238114D01*
X210752723Y-114428590D02*
X210705104Y-114333352D01*
X210657485Y-114285733D01*
X210562247Y-114238114D01*
X210467009Y-114238114D01*
X210181295Y-114857161D02*
X210086057Y-114904780D01*
X209895580Y-114904780D01*
X209800342Y-114857161D01*
X209752723Y-114761923D01*
X209752723Y-114714304D01*
X209800342Y-114619066D01*
X209895580Y-114571447D01*
X210038438Y-114571447D01*
X210133676Y-114523828D01*
X210181295Y-114428590D01*
X210181295Y-114380971D01*
X210133676Y-114285733D01*
X210038438Y-114238114D01*
X209895580Y-114238114D01*
X209800342Y-114285733D01*
X209324152Y-114904780D02*
X209324152Y-114238114D01*
X209324152Y-113904780D02*
X209371771Y-113952400D01*
X209324152Y-114000019D01*
X209276533Y-113952400D01*
X209324152Y-113904780D01*
X209324152Y-114000019D01*
X208705104Y-114904780D02*
X208800342Y-114857161D01*
X208847961Y-114809542D01*
X208895580Y-114714304D01*
X208895580Y-114428590D01*
X208847961Y-114333352D01*
X208800342Y-114285733D01*
X208705104Y-114238114D01*
X208562247Y-114238114D01*
X208467009Y-114285733D01*
X208419390Y-114333352D01*
X208371771Y-114428590D01*
X208371771Y-114714304D01*
X208419390Y-114809542D01*
X208467009Y-114857161D01*
X208562247Y-114904780D01*
X208705104Y-114904780D01*
X207943200Y-114238114D02*
X207943200Y-114904780D01*
X207943200Y-114333352D02*
X207895580Y-114285733D01*
X207800342Y-114238114D01*
X207657485Y-114238114D01*
X207562247Y-114285733D01*
X207514628Y-114380971D01*
X207514628Y-114904780D01*
X206276533Y-114523828D02*
X205514628Y-114523828D01*
X204371771Y-113904780D02*
X204133676Y-114904780D01*
X203943200Y-114190495D01*
X203752723Y-114904780D01*
X203514628Y-113904780D01*
X202990819Y-114904780D02*
X203086057Y-114857161D01*
X203133676Y-114809542D01*
X203181295Y-114714304D01*
X203181295Y-114428590D01*
X203133676Y-114333352D01*
X203086057Y-114285733D01*
X202990819Y-114238114D01*
X202847961Y-114238114D01*
X202752723Y-114285733D01*
X202705104Y-114333352D01*
X202657485Y-114428590D01*
X202657485Y-114714304D01*
X202705104Y-114809542D01*
X202752723Y-114857161D01*
X202847961Y-114904780D01*
X202990819Y-114904780D01*
X202228914Y-114904780D02*
X202228914Y-114238114D01*
X202228914Y-114428590D02*
X202181295Y-114333352D01*
X202133676Y-114285733D01*
X202038438Y-114238114D01*
X201943200Y-114238114D01*
X201609866Y-114904780D02*
X201609866Y-113904780D01*
X201514628Y-114523828D02*
X201228914Y-114904780D01*
X201228914Y-114238114D02*
X201609866Y-114619066D01*
X200847961Y-114857161D02*
X200752723Y-114904780D01*
X200562247Y-114904780D01*
X200467009Y-114857161D01*
X200419390Y-114761923D01*
X200419390Y-114714304D01*
X200467009Y-114619066D01*
X200562247Y-114571447D01*
X200705104Y-114571447D01*
X200800342Y-114523828D01*
X200847961Y-114428590D01*
X200847961Y-114380971D01*
X200800342Y-114285733D01*
X200705104Y-114238114D01*
X200562247Y-114238114D01*
X200467009Y-114285733D01*
X198800342Y-114904780D02*
X198800342Y-114380971D01*
X198847961Y-114285733D01*
X198943200Y-114238114D01*
X199133676Y-114238114D01*
X199228914Y-114285733D01*
X198800342Y-114857161D02*
X198895580Y-114904780D01*
X199133676Y-114904780D01*
X199228914Y-114857161D01*
X199276533Y-114761923D01*
X199276533Y-114666685D01*
X199228914Y-114571447D01*
X199133676Y-114523828D01*
X198895580Y-114523828D01*
X198800342Y-114476209D01*
X198371771Y-114857161D02*
X198276533Y-114904780D01*
X198086057Y-114904780D01*
X197990819Y-114857161D01*
X197943200Y-114761923D01*
X197943200Y-114714304D01*
X197990819Y-114619066D01*
X198086057Y-114571447D01*
X198228914Y-114571447D01*
X198324152Y-114523828D01*
X198371771Y-114428590D01*
X198371771Y-114380971D01*
X198324152Y-114285733D01*
X198228914Y-114238114D01*
X198086057Y-114238114D01*
X197990819Y-114285733D01*
X196895580Y-113904780D02*
X196324152Y-113904780D01*
X196609866Y-114904780D02*
X196609866Y-113904780D01*
X195562247Y-114904780D02*
X195562247Y-114380971D01*
X195609866Y-114285733D01*
X195705104Y-114238114D01*
X195895580Y-114238114D01*
X195990819Y-114285733D01*
X195562247Y-114857161D02*
X195657485Y-114904780D01*
X195895580Y-114904780D01*
X195990819Y-114857161D01*
X196038438Y-114761923D01*
X196038438Y-114666685D01*
X195990819Y-114571447D01*
X195895580Y-114523828D01*
X195657485Y-114523828D01*
X195562247Y-114476209D01*
X195086057Y-114904780D02*
X195086057Y-114238114D01*
X195086057Y-114428590D02*
X195038438Y-114333352D01*
X194990819Y-114285733D01*
X194895580Y-114238114D01*
X194800342Y-114238114D01*
X194038438Y-114238114D02*
X194038438Y-115047638D01*
X194086057Y-115142876D01*
X194133676Y-115190495D01*
X194228914Y-115238114D01*
X194371771Y-115238114D01*
X194467009Y-115190495D01*
X194038438Y-114857161D02*
X194133676Y-114904780D01*
X194324152Y-114904780D01*
X194419390Y-114857161D01*
X194467009Y-114809542D01*
X194514628Y-114714304D01*
X194514628Y-114428590D01*
X194467009Y-114333352D01*
X194419390Y-114285733D01*
X194324152Y-114238114D01*
X194133676Y-114238114D01*
X194038438Y-114285733D01*
X193181295Y-114857161D02*
X193276533Y-114904780D01*
X193467009Y-114904780D01*
X193562247Y-114857161D01*
X193609866Y-114761923D01*
X193609866Y-114380971D01*
X193562247Y-114285733D01*
X193467009Y-114238114D01*
X193276533Y-114238114D01*
X193181295Y-114285733D01*
X193133676Y-114380971D01*
X193133676Y-114476209D01*
X193609866Y-114571447D01*
X192847961Y-114238114D02*
X192467009Y-114238114D01*
X192705104Y-113904780D02*
X192705104Y-114761923D01*
X192657485Y-114857161D01*
X192562247Y-114904780D01*
X192467009Y-114904780D01*
X191228914Y-114904780D02*
X191324152Y-114857161D01*
X191371771Y-114809542D01*
X191419390Y-114714304D01*
X191419390Y-114428590D01*
X191371771Y-114333352D01*
X191324152Y-114285733D01*
X191228914Y-114238114D01*
X191086057Y-114238114D01*
X190990819Y-114285733D01*
X190943200Y-114333352D01*
X190895580Y-114428590D01*
X190895580Y-114714304D01*
X190943200Y-114809542D01*
X190990819Y-114857161D01*
X191086057Y-114904780D01*
X191228914Y-114904780D01*
X190467009Y-114238114D02*
X190467009Y-114904780D01*
X190467009Y-114333352D02*
X190419390Y-114285733D01*
X190324152Y-114238114D01*
X190181295Y-114238114D01*
X190086057Y-114285733D01*
X190038438Y-114380971D01*
X190038438Y-114904780D01*
X189419390Y-114904780D02*
X189514628Y-114857161D01*
X189562247Y-114761923D01*
X189562247Y-113904780D01*
X189133676Y-114238114D02*
X188895580Y-114904780D01*
X188657485Y-114238114D02*
X188895580Y-114904780D01*
X188990819Y-115142876D01*
X189038438Y-115190495D01*
X189133676Y-115238114D01*
X188276533Y-114809542D02*
X188228914Y-114857161D01*
X188276533Y-114904780D01*
X188324152Y-114857161D01*
X188276533Y-114809542D01*
X188276533Y-114904780D01*
D11*
X178000000Y-116200000D02*
X236000000Y-116200000D01*
X178000000Y-116200000D02*
G75*
G02X174500000Y-112700000I0J3500000D01*
G01*
X239500000Y-112700000D02*
G75*
G02X236000000Y-116200000I-3500000J0D01*
G01*
X174500000Y-46000000D02*
X174500000Y-112700000D01*
X239500000Y-46000000D02*
X239500000Y-112700000D01*
X178000000Y-42500000D02*
X236000000Y-42500000D01*
X174500000Y-46000000D02*
G75*
G02X178000000Y-42500000I3500000J0D01*
G01*
X236000000Y-42500000D02*
G75*
G02X239500000Y-46000000I0J-3500000D01*
G01*
M02*
