M48
; DRILL file {KiCad (5.1.6)-1} date 06/27/20 22:48:19
; FORMAT={-:-/ absolute / inch / decimal}
; #@! TF.CreationDate,2020-06-27T22:48:19-05:00
; #@! TF.GenerationSoftware,Kicad,Pcbnew,(5.1.6)-1
FMAT,2
INCH
T1C0.0157
T2C0.0197
T3C0.0315
T4C0.0320
T5C0.0394
T6C0.0440
T7C0.1063
T8C0.1260
%
G90
G05
T1
X6.9173Y-2.5394
X6.9331Y-3.3543
X7.0906Y-3.374
X7.0984Y-3.2953
X7.126Y-3.1535
X7.2008Y-3.2913
X7.2087Y-3.378
X7.2323Y-3.1535
X7.2835Y-1.9252
X7.2992Y-3.2874
X7.3071Y-3.378
X7.3268Y-2.0945
X7.3268Y-3.1535
X7.3976Y-1.9567
X7.3976Y-3.2717
X7.4055Y-3.3898
X7.4173Y-2.6772
X7.4213Y-2.4803
X7.4882Y-3.3858
X7.4961Y-3.2874
X7.5433Y-3.9488
X7.5512Y-3.5945
X7.5591Y-1.9803
X7.5827Y-2.2205
X7.6008Y-3.3685
X7.6339Y-3.1024
X7.6535Y-2.2244
X7.6535Y-2.2677
X7.6614Y-2.7441
X7.6772Y-1.9803
X7.6929Y-3.2402
X7.6964Y-3.2004
X7.7087Y-3.3543
X7.7178Y-1.9476
X7.7283Y-2.1063
X7.7362Y-3.1063
X7.748Y-2.0
X7.7559Y-2.7441
X7.7677Y-1.7087
X7.8268Y-3.1102
X7.8344Y-2.0778
X7.8383Y-2.1291
X7.8504Y-4.2402
X7.8622Y-2.7441
X7.9213Y-2.0039
X7.9213Y-2.2126
X7.9528Y-1.8307
X8.0276Y-2.7441
X8.0276Y-3.1299
X8.0778Y-2.1081
X8.1496Y-2.0433
X8.1969Y-3.3858
X8.2165Y-2.4685
X8.2205Y-2.6535
X8.2244Y-2.4016
X8.2756Y-2.9409
X8.3071Y-1.9882
X8.3504Y-2.3752
X8.4331Y-2.2638
X8.4567Y-1.8031
X8.4567Y-1.9201
X8.4961Y-3.3898
X8.5Y-3.5709
X8.5197Y-1.9201
X8.5591Y-2.7441
X8.5984Y-3.2717
X8.6173Y-2.511
X8.6417Y-4.1024
X8.6693Y-1.935
X8.6693Y-1.9961
X8.6693Y-3.0551
X8.6772Y-2.1063
X8.685Y-3.126
X8.6854Y-3.1728
X8.7047Y-3.3898
X8.7126Y-2.3543
X8.7283Y-2.4685
X8.7323Y-2.6575
X8.7506Y-4.0998
X8.7559Y-3.8937
X8.7677Y-3.1693
X8.7717Y-4.3189
X8.7992Y-3.3898
X8.7992Y-3.7461
X8.811Y-3.6732
X8.8346Y-4.2756
X8.8374Y-3.1641
X8.8661Y-1.9134
X8.874Y-3.9291
X8.8937Y-1.9843
X8.9205Y-3.1803
X8.9291Y-4.1811
X8.9882Y-3.3858
X8.9921Y-3.9173
X9.0118Y-1.9567
X9.0205Y-3.1898
X9.0433Y-2.7441
X9.0866Y-2.4291
X9.1693Y-2.3386
X9.1929Y-2.9685
X9.2008Y-3.3898
X9.3465Y-3.3858
T2
X6.9281Y-2.7165
X6.9515Y-2.6602
X6.9515Y-2.7729
X7.0079Y-2.6368
X7.0079Y-2.7963
X7.0642Y-2.6602
X7.0642Y-2.7729
X7.0876Y-2.7165
X9.2116Y-3.7402
X9.235Y-3.6838
X9.235Y-3.7965
X9.2913Y-3.6604
X9.2913Y-3.8199
X9.3477Y-3.6838
X9.3477Y-3.7965
X9.3711Y-3.7402
X6.9281Y-1.811
X6.9515Y-1.7546
X6.9515Y-1.8674
X7.0079Y-1.7313
X7.0079Y-1.8907
X7.0642Y-1.7546
X7.0642Y-1.8674
X7.0876Y-1.811
X6.9281Y-3.7402
X6.9515Y-3.6838
X6.9515Y-3.7965
X7.0079Y-3.6604
X7.0079Y-3.8199
X7.0642Y-3.6838
X7.0642Y-3.7965
X7.0876Y-3.7402
X9.2116Y-2.7165
X9.235Y-2.6602
X9.235Y-2.7729
X9.2913Y-2.6368
X9.2913Y-2.7963
X9.3477Y-2.6602
X9.3477Y-2.7729
X9.3711Y-2.7165
X9.2116Y-1.811
X9.235Y-1.7546
X9.235Y-1.8674
X9.2913Y-1.7313
X9.2913Y-1.8907
X9.3477Y-1.7546
X9.3477Y-1.8674
X9.3711Y-1.811
T3
X7.1811Y-2.874
X7.2811Y-2.874
X7.3811Y-2.874
X7.4811Y-2.874
X7.5811Y-2.874
X7.6811Y-2.874
X7.7811Y-2.874
X7.8811Y-2.874
X7.9811Y-2.874
X8.0811Y-2.874
X8.2205Y-3.0079
X8.3205Y-3.0079
X8.4205Y-3.0079
X8.5205Y-3.0079
X8.6205Y-3.0079
X8.7205Y-3.0079
X8.8205Y-3.0079
X8.9205Y-3.0079
X9.0205Y-3.0079
X9.1205Y-3.0079
X8.2205Y-2.0472
X8.3205Y-2.0472
X8.4205Y-2.0472
X8.5205Y-2.0472
X8.6205Y-2.0472
X8.7205Y-2.0472
X8.8205Y-2.0472
X8.9205Y-2.0472
X9.0205Y-2.0472
X9.1205Y-2.0472
X7.1811Y-2.0472
X7.2811Y-2.0472
X7.3811Y-2.0472
X7.4811Y-2.0472
X7.5811Y-2.0472
X7.6811Y-2.0472
X7.7811Y-2.0472
X7.8811Y-2.0472
X7.9811Y-2.0472
X8.0811Y-2.0472
X7.1811Y-3.0079
X7.2811Y-3.0079
X7.3811Y-3.0079
X7.4811Y-3.0079
X7.5811Y-3.0079
X7.6811Y-3.0079
X7.7811Y-3.0079
X7.8811Y-3.0079
X7.9811Y-3.0079
X8.0811Y-3.0079
X8.2205Y-2.8736
X8.3205Y-2.8736
X8.4205Y-2.8736
X8.5205Y-2.8736
X8.6205Y-2.8736
X8.7205Y-2.8736
X8.8205Y-2.8736
X8.9205Y-2.8736
X9.0205Y-2.8736
X9.1205Y-2.8736
T4
X7.0071Y-3.9484
X7.0071Y-4.2484
T5
X7.2Y-1.761
X7.2Y-1.861
X7.3Y-1.761
X7.3Y-1.861
X7.4Y-1.761
X7.4Y-1.861
X7.5Y-1.761
X7.5Y-1.861
X7.6Y-1.761
X7.6Y-1.861
X7.7Y-1.761
X7.7Y-1.861
X7.8Y-1.761
X7.8Y-1.861
X7.9Y-1.761
X7.9Y-1.861
X8.0Y-1.761
X8.0Y-1.861
X8.1Y-1.761
X8.1Y-1.861
X8.2Y-1.761
X8.2Y-1.861
X8.3Y-1.761
X8.3Y-1.861
X8.4Y-1.761
X8.4Y-1.861
X8.5Y-1.761
X8.5Y-1.861
X8.6Y-1.761
X8.6Y-1.861
X8.7Y-1.761
X8.7Y-1.861
X8.8Y-1.761
X8.8Y-1.861
X8.9Y-1.761
X8.9Y-1.861
X9.0Y-1.761
X9.0Y-1.861
X9.1Y-1.761
X9.1Y-1.861
X6.9449Y-2.9055
X7.0449Y-2.9055
X7.0083Y-2.111
X7.0083Y-2.211
X7.0083Y-2.311
X7.0083Y-2.411
X7.0083Y-2.511
X6.9449Y-3.0472
X7.0449Y-3.0472
X7.4965Y-4.0587
X7.551Y-4.1705
X7.6055Y-4.0587
X7.66Y-4.1705
X7.7146Y-4.0587
X7.7691Y-4.1705
X7.8236Y-4.0587
X7.8781Y-4.1705
X7.9327Y-4.0587
X7.9872Y-4.1705
X8.0417Y-4.0587
X8.0963Y-4.1705
X8.1508Y-4.0587
X8.2053Y-4.1705
X8.2598Y-4.0587
X8.3144Y-4.1705
X8.3689Y-4.0587
X8.4234Y-4.1705
X8.478Y-4.0587
X8.5325Y-4.1705
X8.587Y-4.0587
X8.6415Y-4.1705
X8.6961Y-4.0587
X8.7506Y-4.1705
X8.8051Y-4.0587
T6
X7.1307Y-3.8583
X7.5307Y-3.8583
T7
X9.2913Y-2.7165
X7.0079Y-2.7165
X9.2913Y-3.7402
X7.0079Y-1.811
X7.0079Y-3.7402
X9.2913Y-1.811
T8
X7.2236Y-4.1146
X9.078Y-4.1146
T0
M30
