M48
; DRILL file {KiCad (6.0.0)} date Thu Jan 20 17:08:15 2022
; FORMAT={-:-/ absolute / metric / decimal}
; #@! TF.CreationDate,2022-01-20T17:08:15-06:00
; #@! TF.GenerationSoftware,Kicad,Pcbnew,(6.0.0)
; #@! TF.FileFunction,Plated,1,2,PTH
FMAT,2
METRIC
; #@! TA.AperFunction,Plated,PTH,ViaDrill
T1C0.400
; #@! TA.AperFunction,Plated,PTH,ViaDrill
T2C0.600
; #@! TA.AperFunction,Plated,PTH,ComponentDrill
T3C1.000
; #@! TA.AperFunction,Plated,PTH,ComponentDrill
T4C1.100
; #@! TA.AperFunction,Plated,PTH,ComponentDrill
T5C1.500
; #@! TA.AperFunction,Plated,PTH,ComponentDrill
T6C2.000
%
G90
G05
T1
X205.7Y-116.3
X208.9Y-111.1
X209.1Y-120.5
X209.3Y-107.4
X210.9Y-110.4
X211.5Y-111.4
X211.9Y-110.0
X211.9Y-114.8
X212.0Y-108.9
X212.9Y-114.6
X213.4Y-109.6
X213.925Y-104.0
X214.719Y-108.89
X214.8Y-111.4
X215.0Y-105.399
X215.325Y-104.0
X217.3Y-119.9
X221.058Y-106.68
X222.4Y-113.2
X222.7Y-104.2
X224.0Y-108.9
X224.4Y-119.7
X226.0Y-109.7
X226.9Y-120.0
X228.2Y-114.5
X230.1Y-115.3
X234.048Y-107.599
X235.0Y-116.2
X243.6Y-110.7
X246.9Y-108.7
X249.5Y-109.7
T2
X207.21Y-110.19
X210.742Y-100.55
T3
X202.23Y-124.8
X203.5Y-105.11
X203.5Y-107.65
X203.5Y-110.19
X203.5Y-112.73
X203.5Y-115.27
X204.77Y-124.8
X208.37Y-96.23
X208.37Y-98.77
X210.91Y-96.23
X210.91Y-98.77
X213.45Y-96.23
X213.45Y-98.77
X215.99Y-96.23
X215.99Y-98.77
X216.69Y-102.0
X218.53Y-96.23
X218.53Y-98.77
X219.23Y-102.0
X221.07Y-96.23
X221.07Y-98.77
X221.77Y-102.0
X223.61Y-96.23
X223.61Y-98.77
X224.31Y-102.0
X226.15Y-96.23
X226.15Y-98.77
X228.69Y-96.23
X228.69Y-98.77
X231.23Y-96.23
X231.23Y-98.77
X233.77Y-96.23
X233.77Y-98.77
X236.31Y-96.23
X236.31Y-98.77
X238.85Y-96.23
X238.85Y-98.77
X241.39Y-96.23
X241.39Y-98.77
X243.93Y-96.23
X243.93Y-98.77
X243.95Y-122.2
X246.47Y-96.23
X246.47Y-98.77
X246.49Y-122.2
X249.01Y-96.23
X249.01Y-98.77
X249.03Y-122.2
X251.55Y-96.23
X251.55Y-98.77
X251.57Y-122.2
X254.09Y-96.23
X254.09Y-98.77
X254.11Y-122.2
X255.4Y-101.8
X255.4Y-116.3
X256.63Y-96.23
X256.63Y-98.77
X256.65Y-122.2
X257.9Y-116.3
X260.4Y-101.8
X260.4Y-116.3
T4
X240.0Y-101.8
X240.0Y-106.3
X240.0Y-113.2
X240.0Y-117.7
X246.5Y-101.8
X246.5Y-106.3
X246.5Y-113.2
X246.5Y-117.7
T5
X252.3Y-109.45G85X252.3Y-108.15
G05
X263.5Y-109.45G85X263.5Y-108.15
G05
T6
X211.0Y-102.5G85X205.0Y-102.5
G05
X211.5Y-126.0G85X207.5Y-126.0
G05
X233.5Y-126.0G85X229.5Y-126.0
G05
X236.0Y-102.5G85X230.0Y-102.5
G05
T0
M30
