G04 #@! TF.GenerationSoftware,KiCad,Pcbnew,(6.0.0-0)*
G04 #@! TF.CreationDate,2022-01-03T13:42:27-06:00*
G04 #@! TF.ProjectId,ctrl_board,6374726c-5f62-46f6-9172-642e6b696361,rev?*
G04 #@! TF.SameCoordinates,Original*
G04 #@! TF.FileFunction,Copper,L1,Top*
G04 #@! TF.FilePolarity,Positive*
%FSLAX46Y46*%
G04 Gerber Fmt 4.6, Leading zero omitted, Abs format (unit mm)*
G04 Created by KiCad (PCBNEW (6.0.0-0)) date 2022-01-03 13:42:27*
%MOMM*%
%LPD*%
G01*
G04 APERTURE LIST*
G04 Aperture macros list*
%AMFreePoly0*
4,1,22,0.500000,-0.750000,0.000000,-0.750000,0.000000,-0.745033,-0.079941,-0.743568,-0.215256,-0.701293,-0.333266,-0.622738,-0.424486,-0.514219,-0.481581,-0.384460,-0.499164,-0.250000,-0.500000,-0.250000,-0.500000,0.250000,-0.499164,0.250000,-0.499963,0.256109,-0.478152,0.396186,-0.417904,0.524511,-0.324060,0.630769,-0.204165,0.706417,-0.067858,0.745374,0.000000,0.744959,0.000000,0.750000,
0.500000,0.750000,0.500000,-0.750000,0.500000,-0.750000,$1*%
%AMFreePoly1*
4,1,20,0.000000,0.744959,0.073905,0.744508,0.209726,0.703889,0.328688,0.626782,0.421226,0.519385,0.479903,0.390333,0.500000,0.250000,0.500000,-0.250000,0.499851,-0.262216,0.476331,-0.402017,0.414519,-0.529596,0.319384,-0.634700,0.198574,-0.708877,0.061801,-0.746166,0.000000,-0.745033,0.000000,-0.750000,-0.500000,-0.750000,-0.500000,0.750000,0.000000,0.750000,0.000000,0.744959,
0.000000,0.744959,$1*%
G04 Aperture macros list end*
G04 #@! TA.AperFunction,ComponentPad*
%ADD10C,2.000000*%
G04 #@! TD*
G04 #@! TA.AperFunction,SMDPad,CuDef*
%ADD11FreePoly0,90.000000*%
G04 #@! TD*
G04 #@! TA.AperFunction,SMDPad,CuDef*
%ADD12FreePoly1,90.000000*%
G04 #@! TD*
G04 #@! TA.AperFunction,ComponentPad*
%ADD13R,1.700000X1.700000*%
G04 #@! TD*
G04 #@! TA.AperFunction,ComponentPad*
%ADD14O,1.700000X1.700000*%
G04 #@! TD*
G04 #@! TA.AperFunction,ComponentPad*
%ADD15C,2.500000*%
G04 #@! TD*
G04 #@! TA.AperFunction,ComponentPad*
%ADD16C,3.000000*%
G04 #@! TD*
G04 #@! TA.AperFunction,ComponentPad*
%ADD17R,2.000000X2.000000*%
G04 #@! TD*
G04 #@! TA.AperFunction,ComponentPad*
%ADD18R,2.000000X3.200000*%
G04 #@! TD*
G04 #@! TA.AperFunction,ViaPad*
%ADD19C,1.000000*%
G04 #@! TD*
G04 #@! TA.AperFunction,ViaPad*
%ADD20C,0.800000*%
G04 #@! TD*
G04 #@! TA.AperFunction,Conductor*
%ADD21C,0.500000*%
G04 #@! TD*
G04 #@! TA.AperFunction,Conductor*
%ADD22C,0.200000*%
G04 #@! TD*
G04 APERTURE END LIST*
D10*
X246500000Y-101800000D03*
X240000000Y-101800000D03*
X240000000Y-106300000D03*
X246500000Y-106300000D03*
D11*
X229300000Y-102450000D03*
D12*
X229300000Y-101150000D03*
D10*
X240000000Y-117700000D03*
X246500000Y-117700000D03*
X246500000Y-113200000D03*
X240000000Y-113200000D03*
D13*
X216690000Y-102000000D03*
D14*
X219230000Y-102000000D03*
X221770000Y-102000000D03*
X224310000Y-102000000D03*
D15*
X232250000Y-125200000D03*
D16*
X205300000Y-102500000D03*
D15*
X208750000Y-102500000D03*
X208750000Y-125200000D03*
D16*
X235700000Y-102500000D03*
D15*
X232250000Y-102500000D03*
D13*
X243950000Y-122200000D03*
D14*
X246490000Y-122200000D03*
X249030000Y-122200000D03*
X251570000Y-122200000D03*
X254110000Y-122200000D03*
X256650000Y-122200000D03*
D17*
X255400000Y-116300000D03*
D10*
X260400000Y-116300000D03*
X257900000Y-116300000D03*
D18*
X263500000Y-108800000D03*
X252300000Y-108800000D03*
D10*
X260400000Y-101800000D03*
X255400000Y-101800000D03*
D13*
X208370000Y-98770000D03*
D14*
X208370000Y-96230000D03*
X210910000Y-98770000D03*
X210910000Y-96230000D03*
X213450000Y-98770000D03*
X213450000Y-96230000D03*
X215990000Y-98770000D03*
X215990000Y-96230000D03*
X218530000Y-98770000D03*
X218530000Y-96230000D03*
X221070000Y-98770000D03*
X221070000Y-96230000D03*
X223610000Y-98770000D03*
X223610000Y-96230000D03*
X226150000Y-98770000D03*
X226150000Y-96230000D03*
X228690000Y-98770000D03*
X228690000Y-96230000D03*
X231230000Y-98770000D03*
X231230000Y-96230000D03*
X233770000Y-98770000D03*
X233770000Y-96230000D03*
X236310000Y-98770000D03*
X236310000Y-96230000D03*
X238850000Y-98770000D03*
X238850000Y-96230000D03*
X241390000Y-98770000D03*
X241390000Y-96230000D03*
X243930000Y-98770000D03*
X243930000Y-96230000D03*
X246470000Y-98770000D03*
X246470000Y-96230000D03*
X249010000Y-98770000D03*
X249010000Y-96230000D03*
X251550000Y-98770000D03*
X251550000Y-96230000D03*
X254090000Y-98770000D03*
X254090000Y-96230000D03*
X256630000Y-98770000D03*
X256630000Y-96230000D03*
D13*
X203500000Y-115270000D03*
D14*
X203500000Y-112730000D03*
X203500000Y-110190000D03*
X203500000Y-107650000D03*
X203500000Y-105110000D03*
D19*
X207210000Y-110190000D03*
D20*
X217300000Y-119900000D03*
X209100000Y-120500000D03*
X208900000Y-111100000D03*
X211800000Y-101900000D03*
X215000000Y-105399011D03*
X224310000Y-105399011D03*
X207200000Y-104200000D03*
X213925500Y-104000000D03*
X215324500Y-104000000D03*
X212606502Y-109293493D03*
X221058143Y-106679745D03*
X211500000Y-111400000D03*
X222400000Y-113200000D03*
X243600000Y-110700000D03*
X210900000Y-110400000D03*
X230099511Y-115299511D03*
X211900000Y-114800000D03*
X228200000Y-114500000D03*
X212900000Y-114600000D03*
X211900000Y-110000500D03*
X226000000Y-109700000D03*
X213275500Y-104799395D03*
X214800000Y-111400000D03*
X249500000Y-109700000D03*
X246900000Y-108700000D03*
X213655922Y-109233321D03*
X224400000Y-119700000D03*
X226900000Y-120000000D03*
D21*
X203500000Y-110190000D02*
X207210000Y-110190000D01*
X227390489Y-100069511D02*
X228690000Y-98770000D01*
X221160489Y-100069511D02*
X227390489Y-100069511D01*
X219230000Y-102000000D02*
X217930489Y-100700489D01*
X210300489Y-100700489D02*
X208370000Y-98770000D01*
X217930489Y-100700489D02*
X210300489Y-100700489D01*
X219230000Y-102000000D02*
X221160489Y-100069511D01*
D22*
X214900105Y-105498906D02*
X205651094Y-105498906D01*
X215000000Y-105399011D02*
X214900105Y-105498906D01*
X205651094Y-105498906D02*
X203500000Y-107650000D01*
X224310000Y-105399011D02*
X215000000Y-105399011D01*
X215324500Y-104000000D02*
X207400000Y-104000000D01*
X219770000Y-104000000D02*
X221770000Y-102000000D01*
X215324500Y-104000000D02*
X219770000Y-104000000D01*
X207400000Y-104000000D02*
X207200000Y-104200000D01*
X231149511Y-100450489D02*
X231500000Y-100100000D01*
X232440000Y-100100000D02*
X233770000Y-98770000D01*
X231500000Y-100100000D02*
X232440000Y-100100000D01*
X229999511Y-100450489D02*
X231149511Y-100450489D01*
X229300000Y-101150000D02*
X229999511Y-100450489D01*
X221000000Y-106621602D02*
X221000000Y-106300000D01*
X221000000Y-106300000D02*
X215600000Y-106300000D01*
X212606502Y-109293498D02*
X212606502Y-109293493D01*
X215600000Y-106300000D02*
X212606502Y-109293498D01*
X221058143Y-106679745D02*
X221000000Y-106621602D01*
X240000000Y-106300000D02*
X221000000Y-106300000D01*
X246500000Y-106300000D02*
X240000000Y-106300000D01*
X213300000Y-113200000D02*
X211500000Y-111400000D01*
X222400000Y-113200000D02*
X213300000Y-113200000D01*
X240000000Y-113200000D02*
X246500000Y-113200000D01*
X240000000Y-113200000D02*
X222400000Y-113200000D01*
X243600000Y-110700000D02*
X211200000Y-110700000D01*
X211200000Y-110700000D02*
X210900000Y-110400000D01*
X248300000Y-114900000D02*
X247900489Y-115299511D01*
X247900489Y-115299511D02*
X230099511Y-115299511D01*
X259100489Y-117599511D02*
X250999511Y-117599511D01*
X230099511Y-115299511D02*
X212399511Y-115299511D01*
X260400000Y-116300000D02*
X259100489Y-117599511D01*
X212399511Y-115299511D02*
X211900000Y-114800000D01*
X250999511Y-117599511D02*
X248300000Y-114900000D01*
X213000000Y-114500000D02*
X212900000Y-114600000D01*
X248600000Y-114500000D02*
X228200000Y-114500000D01*
X250400000Y-116300000D02*
X248600000Y-114500000D01*
X228200000Y-114500000D02*
X213000000Y-114500000D01*
X255400000Y-116300000D02*
X250400000Y-116300000D01*
X260400000Y-101800000D02*
X255299511Y-106900489D01*
X246999511Y-110000489D02*
X225999511Y-110000489D01*
X255299511Y-106900489D02*
X250099511Y-106900489D01*
X225999511Y-110000489D02*
X223099511Y-110000489D01*
X222900000Y-110200000D02*
X211900000Y-110200000D01*
X223099511Y-110000489D02*
X222900000Y-110200000D01*
X226000000Y-110000000D02*
X225999511Y-110000489D01*
X250099511Y-106900489D02*
X246999511Y-110000489D01*
X211900000Y-110200000D02*
X211900000Y-110000500D01*
X226000000Y-109700000D02*
X226000000Y-110000000D01*
X229300000Y-102450000D02*
X227050489Y-104699511D01*
X227050489Y-104699511D02*
X213400489Y-104699511D01*
X213400489Y-104699511D02*
X213300605Y-104799395D01*
X213300605Y-104799395D02*
X213275500Y-104799395D01*
X247800000Y-111400000D02*
X214800000Y-111400000D01*
X249500000Y-109700000D02*
X247800000Y-111400000D01*
X213900000Y-108700000D02*
X213400000Y-109200000D01*
X213433321Y-109233321D02*
X213655922Y-109233321D01*
X213400000Y-109200000D02*
X213433321Y-109233321D01*
X246900000Y-108700000D02*
X213900000Y-108700000D01*
X225750489Y-121050489D02*
X224400000Y-119700000D01*
X251570000Y-122200000D02*
X250420489Y-121050489D01*
X250420489Y-121050489D02*
X225750489Y-121050489D01*
X256650000Y-122200000D02*
X254450000Y-120000000D01*
X254450000Y-120000000D02*
X226900000Y-120000000D01*
G04 #@! TA.AperFunction,Conductor*
G36*
X261970057Y-94509500D02*
G01*
X261984858Y-94511805D01*
X261984861Y-94511805D01*
X261993730Y-94513186D01*
X262010899Y-94510941D01*
X262034839Y-94510108D01*
X262292770Y-94525710D01*
X262307874Y-94527544D01*
X262378648Y-94540514D01*
X262588879Y-94579040D01*
X262603641Y-94582678D01*
X262876408Y-94667675D01*
X262890627Y-94673069D01*
X263151140Y-94790316D01*
X263164609Y-94797385D01*
X263409095Y-94945182D01*
X263421617Y-94953825D01*
X263646507Y-95130016D01*
X263657895Y-95140106D01*
X263859894Y-95342105D01*
X263869984Y-95353493D01*
X264046175Y-95578383D01*
X264054818Y-95590905D01*
X264202615Y-95835391D01*
X264209684Y-95848860D01*
X264326138Y-96107611D01*
X264326930Y-96109370D01*
X264332325Y-96123592D01*
X264405370Y-96358000D01*
X264417321Y-96396353D01*
X264420960Y-96411121D01*
X264440559Y-96518069D01*
X264472456Y-96692126D01*
X264474290Y-96707230D01*
X264489455Y-96957929D01*
X264488198Y-96984639D01*
X264488195Y-96984859D01*
X264486814Y-96993730D01*
X264487978Y-97002632D01*
X264487978Y-97002635D01*
X264490936Y-97025251D01*
X264492000Y-97041589D01*
X264492000Y-106565500D01*
X264471998Y-106633621D01*
X264418342Y-106680114D01*
X264366000Y-106691500D01*
X262451866Y-106691500D01*
X262389684Y-106698255D01*
X262253295Y-106749385D01*
X262136739Y-106836739D01*
X262049385Y-106953295D01*
X261998255Y-107089684D01*
X261991500Y-107151866D01*
X261991500Y-110448134D01*
X261998255Y-110510316D01*
X262049385Y-110646705D01*
X262136739Y-110763261D01*
X262253295Y-110850615D01*
X262389684Y-110901745D01*
X262451866Y-110908500D01*
X264366000Y-110908500D01*
X264434121Y-110928502D01*
X264480614Y-110982158D01*
X264492000Y-111034500D01*
X264492000Y-120950672D01*
X264490500Y-120970056D01*
X264486814Y-120993730D01*
X264488454Y-121006270D01*
X264489059Y-121010897D01*
X264489892Y-121034839D01*
X264474290Y-121292770D01*
X264472456Y-121307874D01*
X264466862Y-121338401D01*
X264423141Y-121576984D01*
X264420962Y-121588873D01*
X264417322Y-121603641D01*
X264366692Y-121766119D01*
X264332326Y-121876404D01*
X264326931Y-121890627D01*
X264230000Y-122106001D01*
X264209686Y-122151136D01*
X264202615Y-122164609D01*
X264054818Y-122409095D01*
X264046175Y-122421617D01*
X263869984Y-122646507D01*
X263859894Y-122657895D01*
X263657895Y-122859894D01*
X263646507Y-122869984D01*
X263421617Y-123046175D01*
X263409095Y-123054818D01*
X263164609Y-123202615D01*
X263151140Y-123209684D01*
X262913511Y-123316632D01*
X262890630Y-123326930D01*
X262876408Y-123332325D01*
X262603641Y-123417322D01*
X262588879Y-123420960D01*
X262378781Y-123459462D01*
X262307874Y-123472456D01*
X262292770Y-123474290D01*
X262042071Y-123489455D01*
X262015361Y-123488198D01*
X262015141Y-123488195D01*
X262006270Y-123486814D01*
X261997368Y-123487978D01*
X261997365Y-123487978D01*
X261974749Y-123490936D01*
X261958411Y-123492000D01*
X257571837Y-123492000D01*
X257503716Y-123471998D01*
X257457223Y-123418342D01*
X257447119Y-123348068D01*
X257476613Y-123283488D01*
X257498669Y-123263421D01*
X257529860Y-123241173D01*
X257688096Y-123083489D01*
X257818453Y-122902077D01*
X257831995Y-122874678D01*
X257915136Y-122706453D01*
X257915137Y-122706451D01*
X257917430Y-122701811D01*
X257982370Y-122488069D01*
X258011529Y-122266590D01*
X258011611Y-122263240D01*
X258013074Y-122203365D01*
X258013074Y-122203361D01*
X258013156Y-122200000D01*
X257994852Y-121977361D01*
X257940431Y-121760702D01*
X257851354Y-121555840D01*
X257730014Y-121368277D01*
X257579670Y-121203051D01*
X257575619Y-121199852D01*
X257575615Y-121199848D01*
X257408414Y-121067800D01*
X257408410Y-121067798D01*
X257404359Y-121064598D01*
X257208789Y-120956638D01*
X257203920Y-120954914D01*
X257203916Y-120954912D01*
X257003087Y-120883795D01*
X257003083Y-120883794D01*
X256998212Y-120882069D01*
X256993119Y-120881162D01*
X256993116Y-120881161D01*
X256783373Y-120843800D01*
X256783367Y-120843799D01*
X256778284Y-120842894D01*
X256704452Y-120841992D01*
X256560081Y-120840228D01*
X256560079Y-120840228D01*
X256554911Y-120840165D01*
X256407627Y-120862703D01*
X256339200Y-120873173D01*
X256339197Y-120873174D01*
X256334091Y-120873955D01*
X256329176Y-120875562D01*
X256329174Y-120875562D01*
X256294890Y-120886768D01*
X256223927Y-120888921D01*
X256166648Y-120856099D01*
X255852826Y-120542277D01*
X259637009Y-120542277D01*
X259662625Y-120810769D01*
X259663710Y-120815203D01*
X259663711Y-120815209D01*
X259712688Y-121015361D01*
X259726731Y-121072750D01*
X259827985Y-121322733D01*
X259964265Y-121555482D01*
X260034517Y-121643327D01*
X260084686Y-121706060D01*
X260132716Y-121766119D01*
X260329809Y-121950234D01*
X260551416Y-122103968D01*
X260555499Y-122105999D01*
X260555502Y-122106001D01*
X260646228Y-122151136D01*
X260792894Y-122224101D01*
X260797228Y-122225522D01*
X260797231Y-122225523D01*
X261044853Y-122306698D01*
X261044859Y-122306699D01*
X261049186Y-122308118D01*
X261053677Y-122308898D01*
X261053678Y-122308898D01*
X261311140Y-122353601D01*
X261311148Y-122353602D01*
X261314921Y-122354257D01*
X261318758Y-122354448D01*
X261398578Y-122358422D01*
X261398586Y-122358422D01*
X261400149Y-122358500D01*
X261568512Y-122358500D01*
X261570780Y-122358335D01*
X261570792Y-122358335D01*
X261701884Y-122348823D01*
X261769004Y-122343953D01*
X261773459Y-122342969D01*
X261773462Y-122342969D01*
X262027912Y-122286791D01*
X262027916Y-122286790D01*
X262032372Y-122285806D01*
X262158480Y-122238028D01*
X262280318Y-122191868D01*
X262280321Y-122191867D01*
X262284588Y-122190250D01*
X262520368Y-122059286D01*
X262734773Y-121895657D01*
X262739688Y-121890630D01*
X262871342Y-121755954D01*
X262923312Y-121702792D01*
X263082034Y-121484730D01*
X263143303Y-121368277D01*
X263205490Y-121250079D01*
X263205493Y-121250073D01*
X263207615Y-121246039D01*
X263270378Y-121068312D01*
X263295902Y-120996033D01*
X263295902Y-120996032D01*
X263297425Y-120991720D01*
X263333987Y-120806217D01*
X263348700Y-120731572D01*
X263348701Y-120731566D01*
X263349581Y-120727100D01*
X263351405Y-120690468D01*
X263362764Y-120462292D01*
X263362764Y-120462286D01*
X263362991Y-120457723D01*
X263337375Y-120189231D01*
X263308581Y-120071556D01*
X263274355Y-119931688D01*
X263273269Y-119927250D01*
X263172015Y-119677267D01*
X263074118Y-119510072D01*
X263038045Y-119448463D01*
X263038044Y-119448462D01*
X263035735Y-119444518D01*
X262917928Y-119297208D01*
X262870136Y-119237447D01*
X262870135Y-119237445D01*
X262867284Y-119233881D01*
X262670191Y-119049766D01*
X262448584Y-118896032D01*
X262444501Y-118894001D01*
X262444498Y-118893999D01*
X262279606Y-118811967D01*
X262207106Y-118775899D01*
X262202772Y-118774478D01*
X262202769Y-118774477D01*
X261955147Y-118693302D01*
X261955141Y-118693301D01*
X261950814Y-118691882D01*
X261946322Y-118691102D01*
X261688860Y-118646399D01*
X261688852Y-118646398D01*
X261685079Y-118645743D01*
X261673817Y-118645182D01*
X261601422Y-118641578D01*
X261601414Y-118641578D01*
X261599851Y-118641500D01*
X261431488Y-118641500D01*
X261429220Y-118641665D01*
X261429208Y-118641665D01*
X261298116Y-118651177D01*
X261230996Y-118656047D01*
X261226541Y-118657031D01*
X261226538Y-118657031D01*
X260972088Y-118713209D01*
X260972084Y-118713210D01*
X260967628Y-118714194D01*
X260841520Y-118761972D01*
X260719682Y-118808132D01*
X260719679Y-118808133D01*
X260715412Y-118809750D01*
X260479632Y-118940714D01*
X260476000Y-118943486D01*
X260280258Y-119092872D01*
X260265227Y-119104343D01*
X260262034Y-119107609D01*
X260262032Y-119107611D01*
X260212629Y-119158148D01*
X260076688Y-119297208D01*
X259917966Y-119515270D01*
X259915844Y-119519304D01*
X259794510Y-119749921D01*
X259794507Y-119749927D01*
X259792385Y-119753961D01*
X259790865Y-119758266D01*
X259790863Y-119758270D01*
X259707817Y-119993435D01*
X259702575Y-120008280D01*
X259680139Y-120122111D01*
X259666773Y-120189928D01*
X259650419Y-120272900D01*
X259650192Y-120277453D01*
X259650192Y-120277456D01*
X259639556Y-120491118D01*
X259637009Y-120542277D01*
X255852826Y-120542277D01*
X254914315Y-119603766D01*
X254903448Y-119591375D01*
X254889013Y-119572563D01*
X254883987Y-119566013D01*
X254852075Y-119541526D01*
X254852072Y-119541523D01*
X254756876Y-119468476D01*
X254608851Y-119407162D01*
X254600664Y-119406084D01*
X254600663Y-119406084D01*
X254589458Y-119404609D01*
X254558262Y-119400502D01*
X254489885Y-119391500D01*
X254489882Y-119391500D01*
X254489874Y-119391499D01*
X254458189Y-119387328D01*
X254450000Y-119386250D01*
X254418307Y-119390422D01*
X254401864Y-119391500D01*
X246978722Y-119391500D01*
X246910601Y-119371498D01*
X246864108Y-119317842D01*
X246854004Y-119247568D01*
X246883498Y-119182988D01*
X246949307Y-119142982D01*
X246962618Y-119139786D01*
X246972012Y-119136734D01*
X247182163Y-119049687D01*
X247190958Y-119045205D01*
X247358445Y-118942568D01*
X247367907Y-118932110D01*
X247364124Y-118923334D01*
X246512812Y-118072022D01*
X246498868Y-118064408D01*
X246497035Y-118064539D01*
X246490420Y-118068790D01*
X245638920Y-118920290D01*
X245632160Y-118932670D01*
X245637887Y-118940320D01*
X245809042Y-119045205D01*
X245817837Y-119049687D01*
X246027988Y-119136734D01*
X246037382Y-119139786D01*
X246050693Y-119142982D01*
X246112262Y-119178334D01*
X246144944Y-119241361D01*
X246138363Y-119312052D01*
X246094609Y-119367963D01*
X246021278Y-119391500D01*
X240478722Y-119391500D01*
X240410601Y-119371498D01*
X240364108Y-119317842D01*
X240354004Y-119247568D01*
X240383498Y-119182988D01*
X240449307Y-119142982D01*
X240462618Y-119139786D01*
X240472012Y-119136734D01*
X240682163Y-119049687D01*
X240690958Y-119045205D01*
X240858445Y-118942568D01*
X240867907Y-118932110D01*
X240864124Y-118923334D01*
X240012812Y-118072022D01*
X239998868Y-118064408D01*
X239997035Y-118064539D01*
X239990420Y-118068790D01*
X239138920Y-118920290D01*
X239132160Y-118932670D01*
X239137887Y-118940320D01*
X239309042Y-119045205D01*
X239317837Y-119049687D01*
X239527988Y-119136734D01*
X239537382Y-119139786D01*
X239550693Y-119142982D01*
X239612262Y-119178334D01*
X239644944Y-119241361D01*
X239638363Y-119312052D01*
X239594609Y-119367963D01*
X239521278Y-119391500D01*
X227630710Y-119391500D01*
X227562589Y-119371498D01*
X227537074Y-119349811D01*
X227515668Y-119326037D01*
X227515666Y-119326036D01*
X227511253Y-119321134D01*
X227473824Y-119293940D01*
X227362094Y-119212763D01*
X227362093Y-119212762D01*
X227356752Y-119208882D01*
X227350724Y-119206198D01*
X227350722Y-119206197D01*
X227188319Y-119133891D01*
X227188318Y-119133891D01*
X227182288Y-119131206D01*
X227071283Y-119107611D01*
X227001944Y-119092872D01*
X227001939Y-119092872D01*
X226995487Y-119091500D01*
X226804513Y-119091500D01*
X226798061Y-119092872D01*
X226798056Y-119092872D01*
X226728717Y-119107611D01*
X226617712Y-119131206D01*
X226611682Y-119133891D01*
X226611681Y-119133891D01*
X226449278Y-119206197D01*
X226449276Y-119206198D01*
X226443248Y-119208882D01*
X226437907Y-119212762D01*
X226437906Y-119212763D01*
X226387843Y-119249136D01*
X226288747Y-119321134D01*
X226284326Y-119326044D01*
X226284325Y-119326045D01*
X226174100Y-119448463D01*
X226160960Y-119463056D01*
X226065473Y-119628444D01*
X226006458Y-119810072D01*
X225986496Y-120000000D01*
X225987186Y-120006565D01*
X225999330Y-120122111D01*
X225986558Y-120191949D01*
X225938056Y-120243796D01*
X225869223Y-120261190D01*
X225801913Y-120238608D01*
X225784925Y-120224376D01*
X225349719Y-119789170D01*
X225315693Y-119726858D01*
X225313159Y-119703284D01*
X225313504Y-119700000D01*
X225296848Y-119541523D01*
X225294232Y-119516635D01*
X225294232Y-119516633D01*
X225293542Y-119510072D01*
X225234527Y-119328444D01*
X225139040Y-119163056D01*
X225011253Y-119021134D01*
X224889493Y-118932670D01*
X224862094Y-118912763D01*
X224862093Y-118912762D01*
X224856752Y-118908882D01*
X224850724Y-118906198D01*
X224850722Y-118906197D01*
X224688319Y-118833891D01*
X224688318Y-118833891D01*
X224682288Y-118831206D01*
X224573734Y-118808132D01*
X224501944Y-118792872D01*
X224501939Y-118792872D01*
X224495487Y-118791500D01*
X224304513Y-118791500D01*
X224298061Y-118792872D01*
X224298056Y-118792872D01*
X224226266Y-118808132D01*
X224117712Y-118831206D01*
X224111682Y-118833891D01*
X224111681Y-118833891D01*
X223949278Y-118906197D01*
X223949276Y-118906198D01*
X223943248Y-118908882D01*
X223937907Y-118912762D01*
X223937906Y-118912763D01*
X223910507Y-118932670D01*
X223788747Y-119021134D01*
X223660960Y-119163056D01*
X223565473Y-119328444D01*
X223506458Y-119510072D01*
X223505768Y-119516633D01*
X223505768Y-119516635D01*
X223503152Y-119541523D01*
X223486496Y-119700000D01*
X223506458Y-119889928D01*
X223565473Y-120071556D01*
X223660960Y-120236944D01*
X223665378Y-120241851D01*
X223665379Y-120241852D01*
X223682791Y-120261190D01*
X223788747Y-120378866D01*
X223875628Y-120441989D01*
X223903573Y-120462292D01*
X223943248Y-120491118D01*
X223949276Y-120493802D01*
X223949278Y-120493803D01*
X224111681Y-120566109D01*
X224117712Y-120568794D01*
X224211113Y-120588647D01*
X224298056Y-120607128D01*
X224298061Y-120607128D01*
X224304513Y-120608500D01*
X224395761Y-120608500D01*
X224463882Y-120628502D01*
X224484856Y-120645405D01*
X225286174Y-121446723D01*
X225297041Y-121459114D01*
X225316502Y-121484476D01*
X225323052Y-121489502D01*
X225348410Y-121508960D01*
X225348426Y-121508974D01*
X225394883Y-121544621D01*
X225443613Y-121582013D01*
X225591638Y-121643327D01*
X225599825Y-121644405D01*
X225599826Y-121644405D01*
X225611031Y-121645880D01*
X225642227Y-121649987D01*
X225710604Y-121658989D01*
X225710607Y-121658989D01*
X225710615Y-121658990D01*
X225742300Y-121663161D01*
X225750489Y-121664239D01*
X225782182Y-121660067D01*
X225798625Y-121658989D01*
X242465500Y-121658989D01*
X242533621Y-121678991D01*
X242580114Y-121732647D01*
X242591500Y-121784989D01*
X242591500Y-123098134D01*
X242598255Y-123160316D01*
X242614112Y-123202615D01*
X242639020Y-123269056D01*
X242649385Y-123296705D01*
X242654768Y-123303888D01*
X242655646Y-123305491D01*
X242670815Y-123374848D01*
X242646079Y-123441396D01*
X242589291Y-123484006D01*
X242545126Y-123492000D01*
X234656513Y-123492000D01*
X234626090Y-123483067D01*
X234625559Y-123485507D01*
X234600000Y-123479947D01*
X234600000Y-123477000D01*
X232620941Y-123477000D01*
X232600687Y-123475361D01*
X232408317Y-123444031D01*
X232408303Y-123444030D01*
X232403693Y-123443279D01*
X232276863Y-123441619D01*
X232147022Y-123439919D01*
X232147019Y-123439919D01*
X232142345Y-123439858D01*
X231883362Y-123475104D01*
X231883327Y-123474850D01*
X231862866Y-123477000D01*
X209120941Y-123477000D01*
X209100687Y-123475361D01*
X208908317Y-123444031D01*
X208908303Y-123444030D01*
X208903693Y-123443279D01*
X208776863Y-123441619D01*
X208647022Y-123439919D01*
X208647019Y-123439919D01*
X208642345Y-123439858D01*
X208383362Y-123475104D01*
X208383327Y-123474850D01*
X208362866Y-123477000D01*
X205834500Y-123477000D01*
X205834500Y-123482319D01*
X205818912Y-123486896D01*
X205783414Y-123492000D01*
X203049328Y-123492000D01*
X203029943Y-123490500D01*
X203015142Y-123488195D01*
X203015139Y-123488195D01*
X203006270Y-123486814D01*
X202989101Y-123489059D01*
X202965161Y-123489892D01*
X202707230Y-123474290D01*
X202692126Y-123472456D01*
X202621219Y-123459462D01*
X202411121Y-123420960D01*
X202396359Y-123417322D01*
X202123592Y-123332325D01*
X202109370Y-123326930D01*
X202086489Y-123316632D01*
X201848860Y-123209684D01*
X201835391Y-123202615D01*
X201590905Y-123054818D01*
X201578383Y-123046175D01*
X201353493Y-122869984D01*
X201342105Y-122859894D01*
X201140106Y-122657895D01*
X201130016Y-122646507D01*
X200953825Y-122421617D01*
X200945182Y-122409095D01*
X200797385Y-122164609D01*
X200790314Y-122151136D01*
X200770001Y-122106001D01*
X200673069Y-121890627D01*
X200667674Y-121876404D01*
X200633308Y-121766119D01*
X200582678Y-121603641D01*
X200579038Y-121588873D01*
X200576860Y-121576984D01*
X200533138Y-121338401D01*
X200527544Y-121307874D01*
X200525710Y-121292770D01*
X200510545Y-121042071D01*
X200511802Y-121015361D01*
X200511805Y-121015141D01*
X200513186Y-121006270D01*
X200511848Y-120996033D01*
X200509064Y-120974749D01*
X200508000Y-120958411D01*
X200508000Y-120542277D01*
X201637009Y-120542277D01*
X201662625Y-120810769D01*
X201663710Y-120815203D01*
X201663711Y-120815209D01*
X201712688Y-121015361D01*
X201726731Y-121072750D01*
X201827985Y-121322733D01*
X201964265Y-121555482D01*
X202034517Y-121643327D01*
X202084686Y-121706060D01*
X202132716Y-121766119D01*
X202329809Y-121950234D01*
X202551416Y-122103968D01*
X202555499Y-122105999D01*
X202555502Y-122106001D01*
X202646228Y-122151136D01*
X202792894Y-122224101D01*
X202797228Y-122225522D01*
X202797231Y-122225523D01*
X203044853Y-122306698D01*
X203044859Y-122306699D01*
X203049186Y-122308118D01*
X203053677Y-122308898D01*
X203053678Y-122308898D01*
X203311140Y-122353601D01*
X203311148Y-122353602D01*
X203314921Y-122354257D01*
X203318758Y-122354448D01*
X203398578Y-122358422D01*
X203398586Y-122358422D01*
X203400149Y-122358500D01*
X203568512Y-122358500D01*
X203570780Y-122358335D01*
X203570792Y-122358335D01*
X203701884Y-122348823D01*
X203769004Y-122343953D01*
X203773459Y-122342969D01*
X203773462Y-122342969D01*
X204027912Y-122286791D01*
X204027916Y-122286790D01*
X204032372Y-122285806D01*
X204158480Y-122238028D01*
X204280318Y-122191868D01*
X204280321Y-122191867D01*
X204284588Y-122190250D01*
X204520368Y-122059286D01*
X204734773Y-121895657D01*
X204739688Y-121890630D01*
X204871342Y-121755954D01*
X204923312Y-121702792D01*
X205082034Y-121484730D01*
X205143303Y-121368277D01*
X205205490Y-121250079D01*
X205205493Y-121250073D01*
X205207615Y-121246039D01*
X205270378Y-121068312D01*
X205295902Y-120996033D01*
X205295902Y-120996032D01*
X205297425Y-120991720D01*
X205333987Y-120806217D01*
X205348700Y-120731572D01*
X205348701Y-120731566D01*
X205349581Y-120727100D01*
X205351405Y-120690468D01*
X205362764Y-120462292D01*
X205362764Y-120462286D01*
X205362991Y-120457723D01*
X205337375Y-120189231D01*
X205308581Y-120071556D01*
X205274355Y-119931688D01*
X205273269Y-119927250D01*
X205172015Y-119677267D01*
X205074118Y-119510072D01*
X205038045Y-119448463D01*
X205038044Y-119448462D01*
X205035735Y-119444518D01*
X204917928Y-119297208D01*
X204870136Y-119237447D01*
X204870135Y-119237445D01*
X204867284Y-119233881D01*
X204670191Y-119049766D01*
X204448584Y-118896032D01*
X204444501Y-118894001D01*
X204444498Y-118893999D01*
X204279606Y-118811967D01*
X204207106Y-118775899D01*
X204202772Y-118774478D01*
X204202769Y-118774477D01*
X203955147Y-118693302D01*
X203955141Y-118693301D01*
X203950814Y-118691882D01*
X203946322Y-118691102D01*
X203688860Y-118646399D01*
X203688852Y-118646398D01*
X203685079Y-118645743D01*
X203673817Y-118645182D01*
X203601422Y-118641578D01*
X203601414Y-118641578D01*
X203599851Y-118641500D01*
X203431488Y-118641500D01*
X203429220Y-118641665D01*
X203429208Y-118641665D01*
X203298116Y-118651177D01*
X203230996Y-118656047D01*
X203226541Y-118657031D01*
X203226538Y-118657031D01*
X202972088Y-118713209D01*
X202972084Y-118713210D01*
X202967628Y-118714194D01*
X202841520Y-118761972D01*
X202719682Y-118808132D01*
X202719679Y-118808133D01*
X202715412Y-118809750D01*
X202479632Y-118940714D01*
X202476000Y-118943486D01*
X202280258Y-119092872D01*
X202265227Y-119104343D01*
X202262034Y-119107609D01*
X202262032Y-119107611D01*
X202212629Y-119158148D01*
X202076688Y-119297208D01*
X201917966Y-119515270D01*
X201915844Y-119519304D01*
X201794510Y-119749921D01*
X201794507Y-119749927D01*
X201792385Y-119753961D01*
X201790865Y-119758266D01*
X201790863Y-119758270D01*
X201707817Y-119993435D01*
X201702575Y-120008280D01*
X201680139Y-120122111D01*
X201666773Y-120189928D01*
X201650419Y-120272900D01*
X201650192Y-120277453D01*
X201650192Y-120277456D01*
X201639556Y-120491118D01*
X201637009Y-120542277D01*
X200508000Y-120542277D01*
X200508000Y-117704930D01*
X238487725Y-117704930D01*
X238505572Y-117931699D01*
X238507115Y-117941446D01*
X238560217Y-118162627D01*
X238563266Y-118172012D01*
X238650313Y-118382163D01*
X238654795Y-118390958D01*
X238757432Y-118558445D01*
X238767890Y-118567907D01*
X238776666Y-118564124D01*
X239627978Y-117712812D01*
X239634356Y-117701132D01*
X240364408Y-117701132D01*
X240364539Y-117702965D01*
X240368790Y-117709580D01*
X241220290Y-118561080D01*
X241232670Y-118567840D01*
X241240320Y-118562113D01*
X241345205Y-118390958D01*
X241349687Y-118382163D01*
X241436734Y-118172012D01*
X241439783Y-118162627D01*
X241492885Y-117941446D01*
X241494428Y-117931699D01*
X241512275Y-117704930D01*
X244987725Y-117704930D01*
X245005572Y-117931699D01*
X245007115Y-117941446D01*
X245060217Y-118162627D01*
X245063266Y-118172012D01*
X245150313Y-118382163D01*
X245154795Y-118390958D01*
X245257432Y-118558445D01*
X245267890Y-118567907D01*
X245276666Y-118564124D01*
X246127978Y-117712812D01*
X246134356Y-117701132D01*
X246864408Y-117701132D01*
X246864539Y-117702965D01*
X246868790Y-117709580D01*
X247720290Y-118561080D01*
X247732670Y-118567840D01*
X247740320Y-118562113D01*
X247845205Y-118390958D01*
X247849687Y-118382163D01*
X247936734Y-118172012D01*
X247939783Y-118162627D01*
X247992885Y-117941446D01*
X247994428Y-117931699D01*
X248012275Y-117704930D01*
X248012275Y-117695070D01*
X247994428Y-117468301D01*
X247992885Y-117458554D01*
X247939783Y-117237373D01*
X247936734Y-117227988D01*
X247849687Y-117017837D01*
X247845205Y-117009042D01*
X247742568Y-116841555D01*
X247732110Y-116832093D01*
X247723334Y-116835876D01*
X246872022Y-117687188D01*
X246864408Y-117701132D01*
X246134356Y-117701132D01*
X246135592Y-117698868D01*
X246135461Y-117697035D01*
X246131210Y-117690420D01*
X245279710Y-116838920D01*
X245267330Y-116832160D01*
X245259680Y-116837887D01*
X245154795Y-117009042D01*
X245150313Y-117017837D01*
X245063266Y-117227988D01*
X245060217Y-117237373D01*
X245007115Y-117458554D01*
X245005572Y-117468301D01*
X244987725Y-117695070D01*
X244987725Y-117704930D01*
X241512275Y-117704930D01*
X241512275Y-117695070D01*
X241494428Y-117468301D01*
X241492885Y-117458554D01*
X241439783Y-117237373D01*
X241436734Y-117227988D01*
X241349687Y-117017837D01*
X241345205Y-117009042D01*
X241242568Y-116841555D01*
X241232110Y-116832093D01*
X241223334Y-116835876D01*
X240372022Y-117687188D01*
X240364408Y-117701132D01*
X239634356Y-117701132D01*
X239635592Y-117698868D01*
X239635461Y-117697035D01*
X239631210Y-117690420D01*
X238779710Y-116838920D01*
X238767330Y-116832160D01*
X238759680Y-116837887D01*
X238654795Y-117009042D01*
X238650313Y-117017837D01*
X238563266Y-117227988D01*
X238560217Y-117237373D01*
X238507115Y-117458554D01*
X238505572Y-117468301D01*
X238487725Y-117695070D01*
X238487725Y-117704930D01*
X200508000Y-117704930D01*
X200508000Y-116168134D01*
X202141500Y-116168134D01*
X202148255Y-116230316D01*
X202199385Y-116366705D01*
X202286739Y-116483261D01*
X202403295Y-116570615D01*
X202539684Y-116621745D01*
X202601866Y-116628500D01*
X204398134Y-116628500D01*
X204460316Y-116621745D01*
X204596705Y-116570615D01*
X204713261Y-116483261D01*
X204724781Y-116467890D01*
X239132093Y-116467890D01*
X239135876Y-116476666D01*
X239987188Y-117327978D01*
X240001132Y-117335592D01*
X240002965Y-117335461D01*
X240009580Y-117331210D01*
X240861080Y-116479710D01*
X240867534Y-116467890D01*
X245632093Y-116467890D01*
X245635876Y-116476666D01*
X246487188Y-117327978D01*
X246501132Y-117335592D01*
X246502965Y-117335461D01*
X246509580Y-117331210D01*
X247361080Y-116479710D01*
X247367840Y-116467330D01*
X247362113Y-116459680D01*
X247190958Y-116354795D01*
X247182163Y-116350313D01*
X246972012Y-116263266D01*
X246962627Y-116260217D01*
X246741446Y-116207115D01*
X246731699Y-116205572D01*
X246504930Y-116187725D01*
X246495070Y-116187725D01*
X246268301Y-116205572D01*
X246258554Y-116207115D01*
X246037373Y-116260217D01*
X246027988Y-116263266D01*
X245817837Y-116350313D01*
X245809042Y-116354795D01*
X245641555Y-116457432D01*
X245632093Y-116467890D01*
X240867534Y-116467890D01*
X240867840Y-116467330D01*
X240862113Y-116459680D01*
X240690958Y-116354795D01*
X240682163Y-116350313D01*
X240472012Y-116263266D01*
X240462627Y-116260217D01*
X240241446Y-116207115D01*
X240231699Y-116205572D01*
X240004930Y-116187725D01*
X239995070Y-116187725D01*
X239768301Y-116205572D01*
X239758554Y-116207115D01*
X239537373Y-116260217D01*
X239527988Y-116263266D01*
X239317837Y-116350313D01*
X239309042Y-116354795D01*
X239141555Y-116457432D01*
X239132093Y-116467890D01*
X204724781Y-116467890D01*
X204800615Y-116366705D01*
X204851745Y-116230316D01*
X204858500Y-116168134D01*
X204858500Y-114371866D01*
X204851745Y-114309684D01*
X204800615Y-114173295D01*
X204713261Y-114056739D01*
X204596705Y-113969385D01*
X204477687Y-113924767D01*
X204420923Y-113882125D01*
X204396223Y-113815564D01*
X204411430Y-113746215D01*
X204432977Y-113717535D01*
X204534052Y-113616812D01*
X204540730Y-113608965D01*
X204665003Y-113436020D01*
X204670313Y-113427183D01*
X204764670Y-113236267D01*
X204768469Y-113226672D01*
X204830377Y-113022910D01*
X204832555Y-113012837D01*
X204833986Y-113001962D01*
X204831775Y-112987778D01*
X204818617Y-112984000D01*
X202183225Y-112984000D01*
X202169694Y-112987973D01*
X202168257Y-112997966D01*
X202198565Y-113132446D01*
X202201645Y-113142275D01*
X202281770Y-113339603D01*
X202286413Y-113348794D01*
X202397694Y-113530388D01*
X202403777Y-113538699D01*
X202543213Y-113699667D01*
X202550577Y-113706879D01*
X202555522Y-113710985D01*
X202595156Y-113769889D01*
X202596653Y-113840870D01*
X202559537Y-113901392D01*
X202519264Y-113925910D01*
X202411705Y-113966232D01*
X202411704Y-113966233D01*
X202403295Y-113969385D01*
X202286739Y-114056739D01*
X202199385Y-114173295D01*
X202148255Y-114309684D01*
X202141500Y-114371866D01*
X202141500Y-116168134D01*
X200508000Y-116168134D01*
X200508000Y-110156695D01*
X202137251Y-110156695D01*
X202137548Y-110161848D01*
X202137548Y-110161851D01*
X202140707Y-110216635D01*
X202150110Y-110379715D01*
X202151247Y-110384761D01*
X202151248Y-110384767D01*
X202167970Y-110458966D01*
X202199222Y-110597639D01*
X202240786Y-110700000D01*
X202272789Y-110778813D01*
X202283266Y-110804616D01*
X202285965Y-110809020D01*
X202392064Y-110982158D01*
X202399987Y-110995088D01*
X202546250Y-111163938D01*
X202718126Y-111306632D01*
X202755552Y-111328502D01*
X202791955Y-111349774D01*
X202840679Y-111401412D01*
X202853750Y-111471195D01*
X202827019Y-111536967D01*
X202786562Y-111570327D01*
X202778457Y-111574546D01*
X202769738Y-111580036D01*
X202599433Y-111707905D01*
X202591726Y-111714748D01*
X202444590Y-111868717D01*
X202438104Y-111876727D01*
X202318098Y-112052649D01*
X202313000Y-112061623D01*
X202223338Y-112254783D01*
X202219775Y-112264470D01*
X202164389Y-112464183D01*
X202165912Y-112472607D01*
X202178292Y-112476000D01*
X204818344Y-112476000D01*
X204831875Y-112472027D01*
X204833180Y-112462947D01*
X204791214Y-112295875D01*
X204787894Y-112286124D01*
X204702972Y-112090814D01*
X204698105Y-112081739D01*
X204582426Y-111902926D01*
X204576136Y-111894757D01*
X204432806Y-111737240D01*
X204425273Y-111730215D01*
X204258139Y-111598222D01*
X204249556Y-111592520D01*
X204212602Y-111572120D01*
X204162631Y-111521687D01*
X204147859Y-111452245D01*
X204172975Y-111385839D01*
X204200327Y-111359232D01*
X204243409Y-111328502D01*
X204379860Y-111231173D01*
X204430742Y-111180469D01*
X204492803Y-111118624D01*
X204538096Y-111073489D01*
X204590203Y-111000974D01*
X204646198Y-110957326D01*
X204692526Y-110948500D01*
X206498769Y-110948500D01*
X206566890Y-110968502D01*
X206580432Y-110978546D01*
X206604454Y-110998990D01*
X206631650Y-111022136D01*
X206804294Y-111118624D01*
X206992392Y-111179740D01*
X207188777Y-111203158D01*
X207194912Y-111202686D01*
X207194914Y-111202686D01*
X207379830Y-111188457D01*
X207379834Y-111188456D01*
X207385972Y-111187984D01*
X207576463Y-111134798D01*
X207581967Y-111132018D01*
X207581969Y-111132017D01*
X207747495Y-111048404D01*
X207747497Y-111048403D01*
X207752996Y-111045625D01*
X207908847Y-110923861D01*
X208038078Y-110774145D01*
X208135769Y-110602179D01*
X208198197Y-110414513D01*
X208222985Y-110218295D01*
X208223380Y-110190000D01*
X208204080Y-109993167D01*
X208187940Y-109939707D01*
X208148697Y-109809731D01*
X208146916Y-109803831D01*
X208054066Y-109629204D01*
X207976795Y-109534461D01*
X207932960Y-109480713D01*
X207932957Y-109480710D01*
X207929065Y-109475938D01*
X207912789Y-109462473D01*
X207781425Y-109353799D01*
X207781421Y-109353797D01*
X207776675Y-109349870D01*
X207602701Y-109255802D01*
X207413768Y-109197318D01*
X207407643Y-109196674D01*
X207407642Y-109196674D01*
X207223204Y-109177289D01*
X207223202Y-109177289D01*
X207217075Y-109176645D01*
X207134576Y-109184153D01*
X207026251Y-109194011D01*
X207026248Y-109194012D01*
X207020112Y-109194570D01*
X207014206Y-109196308D01*
X207014202Y-109196309D01*
X206909076Y-109227249D01*
X206830381Y-109250410D01*
X206824923Y-109253263D01*
X206824919Y-109253265D01*
X206729135Y-109303340D01*
X206655110Y-109342040D01*
X206650312Y-109345898D01*
X206650310Y-109345899D01*
X206578424Y-109403697D01*
X206512802Y-109430793D01*
X206499472Y-109431500D01*
X204695939Y-109431500D01*
X204627818Y-109411498D01*
X204590147Y-109373941D01*
X204582818Y-109362612D01*
X204580014Y-109358277D01*
X204429670Y-109193051D01*
X204425619Y-109189852D01*
X204425615Y-109189848D01*
X204258414Y-109057800D01*
X204258410Y-109057798D01*
X204254359Y-109054598D01*
X204213053Y-109031796D01*
X204163084Y-108981364D01*
X204148312Y-108911921D01*
X204173428Y-108845516D01*
X204200780Y-108818909D01*
X204244603Y-108787650D01*
X204379860Y-108691173D01*
X204392316Y-108678761D01*
X204534435Y-108537137D01*
X204538096Y-108533489D01*
X204597594Y-108450689D01*
X204665435Y-108356277D01*
X204668453Y-108352077D01*
X204761873Y-108163056D01*
X204765136Y-108156453D01*
X204765137Y-108156451D01*
X204767430Y-108151811D01*
X204808674Y-108016061D01*
X204830865Y-107943023D01*
X204830865Y-107943021D01*
X204832370Y-107938069D01*
X204861529Y-107716590D01*
X204861611Y-107713240D01*
X204863074Y-107653365D01*
X204863074Y-107653361D01*
X204863156Y-107650000D01*
X204844852Y-107427361D01*
X204809723Y-107287508D01*
X204812527Y-107216567D01*
X204842832Y-107167717D01*
X205866238Y-106144311D01*
X205928550Y-106110285D01*
X205955333Y-106107406D01*
X214388450Y-106107406D01*
X214456571Y-106127408D01*
X214462511Y-106131470D01*
X214543248Y-106190129D01*
X214549281Y-106192815D01*
X214587549Y-106209853D01*
X214641645Y-106255832D01*
X214662295Y-106323759D01*
X214642943Y-106392068D01*
X214625396Y-106414055D01*
X212691363Y-108348088D01*
X212629051Y-108382114D01*
X212602268Y-108384993D01*
X212511015Y-108384993D01*
X212504563Y-108386365D01*
X212504558Y-108386365D01*
X212417615Y-108404846D01*
X212324214Y-108424699D01*
X212318184Y-108427384D01*
X212318183Y-108427384D01*
X212155780Y-108499690D01*
X212155778Y-108499691D01*
X212149750Y-108502375D01*
X211995249Y-108614627D01*
X211990828Y-108619537D01*
X211990827Y-108619538D01*
X211937503Y-108678761D01*
X211867462Y-108756549D01*
X211816097Y-108845516D01*
X211777272Y-108912763D01*
X211771975Y-108921937D01*
X211763949Y-108946638D01*
X211732684Y-109042861D01*
X211692610Y-109101466D01*
X211639047Y-109127171D01*
X211624170Y-109130333D01*
X211624167Y-109130334D01*
X211617712Y-109131706D01*
X211611682Y-109134391D01*
X211611681Y-109134391D01*
X211449278Y-109206697D01*
X211449276Y-109206698D01*
X211443248Y-109209382D01*
X211288747Y-109321634D01*
X211284326Y-109326544D01*
X211284325Y-109326545D01*
X211161935Y-109462473D01*
X211101489Y-109499713D01*
X211042104Y-109501409D01*
X210995487Y-109491500D01*
X210804513Y-109491500D01*
X210798061Y-109492872D01*
X210798056Y-109492872D01*
X210717139Y-109510072D01*
X210617712Y-109531206D01*
X210611682Y-109533891D01*
X210611681Y-109533891D01*
X210449278Y-109606197D01*
X210449276Y-109606198D01*
X210443248Y-109608882D01*
X210288747Y-109721134D01*
X210160960Y-109863056D01*
X210065473Y-110028444D01*
X210006458Y-110210072D01*
X210005768Y-110216633D01*
X210005768Y-110216635D01*
X210003118Y-110241852D01*
X209986496Y-110400000D01*
X209987186Y-110406565D01*
X210005729Y-110582988D01*
X210006458Y-110589928D01*
X210065473Y-110771556D01*
X210068776Y-110777278D01*
X210068777Y-110777279D01*
X210076988Y-110791500D01*
X210160960Y-110936944D01*
X210165378Y-110941851D01*
X210165379Y-110941852D01*
X210284325Y-111073955D01*
X210288747Y-111078866D01*
X210368014Y-111136457D01*
X210427588Y-111179740D01*
X210443248Y-111191118D01*
X210470291Y-111203158D01*
X210517435Y-111224148D01*
X210571531Y-111270129D01*
X210592180Y-111338056D01*
X210591496Y-111352425D01*
X210586496Y-111400000D01*
X210587186Y-111406565D01*
X210600892Y-111536967D01*
X210606458Y-111589928D01*
X210665473Y-111771556D01*
X210760960Y-111936944D01*
X210888747Y-112078866D01*
X210905192Y-112090814D01*
X210990002Y-112152432D01*
X211043248Y-112191118D01*
X211049276Y-112193802D01*
X211049278Y-112193803D01*
X211208000Y-112264470D01*
X211217712Y-112268794D01*
X211299243Y-112286124D01*
X211398056Y-112307128D01*
X211398061Y-112307128D01*
X211404513Y-112308500D01*
X211495761Y-112308500D01*
X211563882Y-112328502D01*
X211584856Y-112345405D01*
X212744694Y-113505243D01*
X212778720Y-113567555D01*
X212773655Y-113638370D01*
X212731108Y-113695206D01*
X212681796Y-113717584D01*
X212651356Y-113724055D01*
X212624170Y-113729833D01*
X212624167Y-113729834D01*
X212617712Y-113731206D01*
X212611682Y-113733891D01*
X212611681Y-113733891D01*
X212449278Y-113806197D01*
X212449276Y-113806198D01*
X212443248Y-113808882D01*
X212437907Y-113812762D01*
X212437906Y-113812763D01*
X212297519Y-113914760D01*
X212230651Y-113938619D01*
X212185966Y-113932844D01*
X212182288Y-113931206D01*
X212175835Y-113929834D01*
X212175834Y-113929834D01*
X212001944Y-113892872D01*
X212001939Y-113892872D01*
X211995487Y-113891500D01*
X211804513Y-113891500D01*
X211798061Y-113892872D01*
X211798056Y-113892872D01*
X211730829Y-113907162D01*
X211617712Y-113931206D01*
X211611682Y-113933891D01*
X211611681Y-113933891D01*
X211449278Y-114006197D01*
X211449276Y-114006198D01*
X211443248Y-114008882D01*
X211288747Y-114121134D01*
X211160960Y-114263056D01*
X211065473Y-114428444D01*
X211006458Y-114610072D01*
X210986496Y-114800000D01*
X210987186Y-114806565D01*
X210991687Y-114849385D01*
X211006458Y-114989928D01*
X211065473Y-115171556D01*
X211160960Y-115336944D01*
X211288747Y-115478866D01*
X211443248Y-115591118D01*
X211449276Y-115593802D01*
X211449278Y-115593803D01*
X211585820Y-115654595D01*
X211617712Y-115668794D01*
X211711112Y-115688647D01*
X211798056Y-115707128D01*
X211798061Y-115707128D01*
X211804513Y-115708500D01*
X211890175Y-115708500D01*
X211958296Y-115728502D01*
X211966868Y-115734529D01*
X211997436Y-115757985D01*
X211997439Y-115757988D01*
X211997446Y-115757994D01*
X211997451Y-115757998D01*
X212082931Y-115823589D01*
X212092635Y-115831035D01*
X212117956Y-115841523D01*
X212240661Y-115892349D01*
X212359626Y-115908011D01*
X212359631Y-115908011D01*
X212359640Y-115908012D01*
X212391323Y-115912183D01*
X212399511Y-115913261D01*
X212431204Y-115909089D01*
X212447647Y-115908011D01*
X229368801Y-115908011D01*
X229436922Y-115928013D01*
X229462437Y-115949700D01*
X229488258Y-115978377D01*
X229642759Y-116090629D01*
X229648787Y-116093313D01*
X229648789Y-116093314D01*
X229809164Y-116164717D01*
X229817223Y-116168305D01*
X229908586Y-116187725D01*
X229997567Y-116206639D01*
X229997572Y-116206639D01*
X230004024Y-116208011D01*
X230194998Y-116208011D01*
X230201450Y-116206639D01*
X230201455Y-116206639D01*
X230290436Y-116187725D01*
X230381799Y-116168305D01*
X230389858Y-116164717D01*
X230550233Y-116093314D01*
X230550235Y-116093313D01*
X230556263Y-116090629D01*
X230710764Y-115978377D01*
X230736585Y-115949700D01*
X230797031Y-115912461D01*
X230830221Y-115908011D01*
X247852353Y-115908011D01*
X247868796Y-115909089D01*
X247900489Y-115913261D01*
X247908678Y-115912183D01*
X247940363Y-115908012D01*
X247940373Y-115908011D01*
X247940374Y-115908011D01*
X247940390Y-115908009D01*
X248039946Y-115894902D01*
X248051153Y-115893427D01*
X248051155Y-115893426D01*
X248059340Y-115892349D01*
X248207365Y-115831035D01*
X248213919Y-115826006D01*
X248221067Y-115821879D01*
X248222054Y-115823589D01*
X248278233Y-115801878D01*
X248347780Y-115816150D01*
X248377798Y-115838347D01*
X250535196Y-117995745D01*
X250546063Y-118008136D01*
X250565524Y-118033498D01*
X250597436Y-118057985D01*
X250597439Y-118057988D01*
X250692635Y-118131035D01*
X250840660Y-118192349D01*
X250848847Y-118193427D01*
X250848848Y-118193427D01*
X250860053Y-118194902D01*
X250891249Y-118199009D01*
X250959626Y-118208011D01*
X250959629Y-118208011D01*
X250959637Y-118208012D01*
X250991322Y-118212183D01*
X250999511Y-118213261D01*
X251031204Y-118209089D01*
X251047647Y-118208011D01*
X259052353Y-118208011D01*
X259068796Y-118209089D01*
X259100489Y-118213261D01*
X259108678Y-118212183D01*
X259140363Y-118208012D01*
X259140373Y-118208011D01*
X259140374Y-118208011D01*
X259140390Y-118208009D01*
X259239946Y-118194902D01*
X259251153Y-118193427D01*
X259251155Y-118193426D01*
X259259340Y-118192349D01*
X259407365Y-118131035D01*
X259502561Y-118057988D01*
X259502564Y-118057985D01*
X259534476Y-118033498D01*
X259539506Y-118026943D01*
X259553941Y-118008132D01*
X259564808Y-117995741D01*
X259794412Y-117766137D01*
X259856724Y-117732111D01*
X259922377Y-117737983D01*
X259923125Y-117735681D01*
X259927832Y-117737210D01*
X259932406Y-117739105D01*
X260012609Y-117758360D01*
X260158476Y-117793380D01*
X260158482Y-117793381D01*
X260163289Y-117794535D01*
X260400000Y-117813165D01*
X260636711Y-117794535D01*
X260641518Y-117793381D01*
X260641524Y-117793380D01*
X260787391Y-117758360D01*
X260867594Y-117739105D01*
X260872167Y-117737211D01*
X261082389Y-117650135D01*
X261082393Y-117650133D01*
X261086963Y-117648240D01*
X261091183Y-117645654D01*
X261285202Y-117526759D01*
X261285208Y-117526755D01*
X261289416Y-117524176D01*
X261469969Y-117369969D01*
X261624176Y-117189416D01*
X261626755Y-117185208D01*
X261626759Y-117185202D01*
X261745654Y-116991183D01*
X261748240Y-116986963D01*
X261780741Y-116908500D01*
X261837211Y-116772167D01*
X261837212Y-116772165D01*
X261839105Y-116767594D01*
X261858360Y-116687391D01*
X261893380Y-116541524D01*
X261893381Y-116541518D01*
X261894535Y-116536711D01*
X261913165Y-116300000D01*
X261894535Y-116063289D01*
X261874150Y-115978377D01*
X261840260Y-115837218D01*
X261839105Y-115832406D01*
X261837211Y-115827833D01*
X261750135Y-115617611D01*
X261750133Y-115617607D01*
X261748240Y-115613037D01*
X261668399Y-115482749D01*
X261626759Y-115414798D01*
X261626755Y-115414792D01*
X261624176Y-115410584D01*
X261469969Y-115230031D01*
X261289416Y-115075824D01*
X261285208Y-115073245D01*
X261285202Y-115073241D01*
X261091183Y-114954346D01*
X261086963Y-114951760D01*
X261082393Y-114949867D01*
X261082389Y-114949865D01*
X260872167Y-114862789D01*
X260872165Y-114862788D01*
X260867594Y-114860895D01*
X260787391Y-114841640D01*
X260641524Y-114806620D01*
X260641518Y-114806619D01*
X260636711Y-114805465D01*
X260400000Y-114786835D01*
X260163289Y-114805465D01*
X260158482Y-114806619D01*
X260158476Y-114806620D01*
X260012609Y-114841640D01*
X259932406Y-114860895D01*
X259927835Y-114862788D01*
X259927833Y-114862789D01*
X259717611Y-114949865D01*
X259717607Y-114949867D01*
X259713037Y-114951760D01*
X259708817Y-114954346D01*
X259514798Y-115073241D01*
X259514792Y-115073245D01*
X259510584Y-115075824D01*
X259330031Y-115230031D01*
X259326823Y-115233787D01*
X259191247Y-115392526D01*
X259145314Y-115426402D01*
X259123332Y-115435878D01*
X257989095Y-116570115D01*
X257926783Y-116604141D01*
X257855968Y-116599076D01*
X257810905Y-116570115D01*
X257629885Y-116389095D01*
X257595859Y-116326783D01*
X257600924Y-116255968D01*
X257629885Y-116210905D01*
X258761080Y-115079710D01*
X258767840Y-115067330D01*
X258762113Y-115059680D01*
X258590958Y-114954795D01*
X258582163Y-114950313D01*
X258372012Y-114863266D01*
X258362627Y-114860217D01*
X258141446Y-114807115D01*
X258131699Y-114805572D01*
X257904930Y-114787725D01*
X257895070Y-114787725D01*
X257668301Y-114805572D01*
X257658554Y-114807115D01*
X257437373Y-114860217D01*
X257427988Y-114863266D01*
X257217837Y-114950313D01*
X257209042Y-114954795D01*
X257010879Y-115076230D01*
X257009604Y-115074149D01*
X256952261Y-115094720D01*
X256883082Y-115078758D01*
X256844026Y-115044503D01*
X256768643Y-114943920D01*
X256768642Y-114943919D01*
X256763261Y-114936739D01*
X256646705Y-114849385D01*
X256510316Y-114798255D01*
X256448134Y-114791500D01*
X254351866Y-114791500D01*
X254289684Y-114798255D01*
X254153295Y-114849385D01*
X254036739Y-114936739D01*
X253949385Y-115053295D01*
X253898255Y-115189684D01*
X253891500Y-115251866D01*
X253891500Y-115565500D01*
X253871498Y-115633621D01*
X253817842Y-115680114D01*
X253765500Y-115691500D01*
X250704239Y-115691500D01*
X250636118Y-115671498D01*
X250615144Y-115654595D01*
X249064315Y-114103766D01*
X249053448Y-114091375D01*
X249039013Y-114072563D01*
X249033987Y-114066013D01*
X249002075Y-114041526D01*
X249002072Y-114041523D01*
X248906876Y-113968476D01*
X248758851Y-113907162D01*
X248750664Y-113906084D01*
X248750663Y-113906084D01*
X248739458Y-113904609D01*
X248708262Y-113900502D01*
X248639885Y-113891500D01*
X248639882Y-113891500D01*
X248639874Y-113891499D01*
X248608189Y-113887328D01*
X248600000Y-113886250D01*
X248568307Y-113890422D01*
X248551864Y-113891500D01*
X248034933Y-113891500D01*
X247966812Y-113871498D01*
X247920319Y-113817842D01*
X247910215Y-113747568D01*
X247918524Y-113717283D01*
X247937209Y-113672172D01*
X247937210Y-113672169D01*
X247939105Y-113667594D01*
X247994535Y-113436711D01*
X248013165Y-113200000D01*
X247994535Y-112963289D01*
X247939105Y-112732406D01*
X247937211Y-112727833D01*
X247850135Y-112517611D01*
X247850133Y-112517607D01*
X247848240Y-112513037D01*
X247786792Y-112412763D01*
X247726759Y-112314798D01*
X247726755Y-112314792D01*
X247724176Y-112310584D01*
X247643676Y-112216330D01*
X247614645Y-112151541D01*
X247625250Y-112081341D01*
X247672125Y-112028019D01*
X247739487Y-112008500D01*
X247751864Y-112008500D01*
X247768307Y-112009578D01*
X247800000Y-112013750D01*
X247808189Y-112012672D01*
X247839874Y-112008501D01*
X247839884Y-112008500D01*
X247839885Y-112008500D01*
X247939457Y-111995391D01*
X247950664Y-111993916D01*
X247950666Y-111993915D01*
X247958851Y-111992838D01*
X248106876Y-111931524D01*
X248144146Y-111902926D01*
X248202072Y-111858477D01*
X248202075Y-111858474D01*
X248227437Y-111839013D01*
X248233987Y-111833987D01*
X248253458Y-111808613D01*
X248264316Y-111796233D01*
X249415144Y-110645405D01*
X249477456Y-110611379D01*
X249504239Y-110608500D01*
X249595487Y-110608500D01*
X249601939Y-110607128D01*
X249601944Y-110607128D01*
X249713737Y-110583365D01*
X249782288Y-110568794D01*
X249826542Y-110549091D01*
X249950722Y-110493803D01*
X249950724Y-110493802D01*
X249956752Y-110491118D01*
X250111253Y-110378866D01*
X250239040Y-110236944D01*
X250334527Y-110071556D01*
X250393542Y-109889928D01*
X250395766Y-109868774D01*
X250412814Y-109706565D01*
X250413504Y-109700000D01*
X250402100Y-109591500D01*
X250394232Y-109516635D01*
X250394232Y-109516633D01*
X250393542Y-109510072D01*
X250334527Y-109328444D01*
X250328354Y-109317751D01*
X250258821Y-109197318D01*
X250239040Y-109163056D01*
X250210813Y-109131706D01*
X250115675Y-109026045D01*
X250115674Y-109026044D01*
X250111253Y-109021134D01*
X249970918Y-108919174D01*
X249962094Y-108912763D01*
X249962093Y-108912762D01*
X249956752Y-108908882D01*
X249950724Y-108906198D01*
X249950722Y-108906197D01*
X249788319Y-108833891D01*
X249788318Y-108833891D01*
X249782288Y-108831206D01*
X249680057Y-108809476D01*
X249601944Y-108792872D01*
X249601939Y-108792872D01*
X249595487Y-108791500D01*
X249404513Y-108791500D01*
X249398060Y-108792872D01*
X249398057Y-108792872D01*
X249395939Y-108793322D01*
X249394572Y-108793613D01*
X249392508Y-108793455D01*
X249391485Y-108793563D01*
X249391465Y-108793376D01*
X249323782Y-108788213D01*
X249267148Y-108745398D01*
X249242652Y-108678761D01*
X249258071Y-108609460D01*
X249279277Y-108581272D01*
X250314655Y-107545894D01*
X250376967Y-107511868D01*
X250403750Y-107508989D01*
X250665500Y-107508989D01*
X250733621Y-107528991D01*
X250780114Y-107582647D01*
X250791500Y-107634989D01*
X250791500Y-110448134D01*
X250798255Y-110510316D01*
X250849385Y-110646705D01*
X250936739Y-110763261D01*
X251053295Y-110850615D01*
X251189684Y-110901745D01*
X251251866Y-110908500D01*
X253348134Y-110908500D01*
X253410316Y-110901745D01*
X253546705Y-110850615D01*
X253663261Y-110763261D01*
X253750615Y-110646705D01*
X253801745Y-110510316D01*
X253808500Y-110448134D01*
X253808500Y-107634989D01*
X253828502Y-107566868D01*
X253882158Y-107520375D01*
X253934500Y-107508989D01*
X255251375Y-107508989D01*
X255267818Y-107510067D01*
X255299511Y-107514239D01*
X255307700Y-107513161D01*
X255339385Y-107508990D01*
X255339395Y-107508989D01*
X255339396Y-107508989D01*
X255438968Y-107495880D01*
X255450175Y-107494405D01*
X255450177Y-107494404D01*
X255458362Y-107493327D01*
X255606387Y-107432013D01*
X255618991Y-107422342D01*
X255701583Y-107358966D01*
X255701586Y-107358963D01*
X255726948Y-107339502D01*
X255733498Y-107334476D01*
X255752969Y-107309102D01*
X255763827Y-107296722D01*
X259794412Y-103266137D01*
X259856724Y-103232111D01*
X259922377Y-103237983D01*
X259923125Y-103235681D01*
X259927832Y-103237210D01*
X259932406Y-103239105D01*
X260010185Y-103257778D01*
X260158476Y-103293380D01*
X260158482Y-103293381D01*
X260163289Y-103294535D01*
X260400000Y-103313165D01*
X260636711Y-103294535D01*
X260641518Y-103293381D01*
X260641524Y-103293380D01*
X260789815Y-103257778D01*
X260867594Y-103239105D01*
X260872167Y-103237211D01*
X261082389Y-103150135D01*
X261082393Y-103150133D01*
X261086963Y-103148240D01*
X261134283Y-103119242D01*
X261285202Y-103026759D01*
X261285208Y-103026755D01*
X261289416Y-103024176D01*
X261469969Y-102869969D01*
X261624176Y-102689416D01*
X261626755Y-102685208D01*
X261626759Y-102685202D01*
X261745654Y-102491183D01*
X261748240Y-102486963D01*
X261750229Y-102482163D01*
X261837211Y-102272167D01*
X261837212Y-102272165D01*
X261839105Y-102267594D01*
X261863878Y-102164408D01*
X261893380Y-102041524D01*
X261893381Y-102041518D01*
X261894535Y-102036711D01*
X261913165Y-101800000D01*
X261894535Y-101563289D01*
X261892775Y-101555954D01*
X261843687Y-101351492D01*
X261839105Y-101332406D01*
X261836733Y-101326680D01*
X261750135Y-101117611D01*
X261750133Y-101117607D01*
X261748240Y-101113037D01*
X261738400Y-101096980D01*
X261626759Y-100914798D01*
X261626755Y-100914792D01*
X261624176Y-100910584D01*
X261469969Y-100730031D01*
X261289416Y-100575824D01*
X261285208Y-100573245D01*
X261285202Y-100573241D01*
X261091183Y-100454346D01*
X261086963Y-100451760D01*
X261082393Y-100449867D01*
X261082389Y-100449865D01*
X260872167Y-100362789D01*
X260872165Y-100362788D01*
X260867594Y-100360895D01*
X260759442Y-100334930D01*
X260641524Y-100306620D01*
X260641518Y-100306619D01*
X260636711Y-100305465D01*
X260400000Y-100286835D01*
X260163289Y-100305465D01*
X260158482Y-100306619D01*
X260158476Y-100306620D01*
X260040558Y-100334930D01*
X259932406Y-100360895D01*
X259927835Y-100362788D01*
X259927833Y-100362789D01*
X259717611Y-100449865D01*
X259717607Y-100449867D01*
X259713037Y-100451760D01*
X259708817Y-100454346D01*
X259514798Y-100573241D01*
X259514792Y-100573245D01*
X259510584Y-100575824D01*
X259330031Y-100730031D01*
X259175824Y-100910584D01*
X259173245Y-100914792D01*
X259173241Y-100914798D01*
X259061600Y-101096980D01*
X259051760Y-101113037D01*
X259049867Y-101117607D01*
X259049865Y-101117611D01*
X258963267Y-101326680D01*
X258960895Y-101332406D01*
X258956313Y-101351492D01*
X258907226Y-101555954D01*
X258905465Y-101563289D01*
X258886835Y-101800000D01*
X258905465Y-102036711D01*
X258906619Y-102041518D01*
X258906620Y-102041524D01*
X258936122Y-102164408D01*
X258960895Y-102267594D01*
X258962789Y-102272167D01*
X258964319Y-102276875D01*
X258962179Y-102277570D01*
X258968764Y-102338877D01*
X258933863Y-102405588D01*
X255084367Y-106255084D01*
X255022055Y-106289110D01*
X254995272Y-106291989D01*
X250147647Y-106291989D01*
X250131204Y-106290911D01*
X250099511Y-106286739D01*
X250091322Y-106287817D01*
X250059637Y-106291988D01*
X250059628Y-106291989D01*
X250059626Y-106291989D01*
X250059620Y-106291990D01*
X250059618Y-106291990D01*
X249960054Y-106305098D01*
X249948847Y-106306573D01*
X249948845Y-106306574D01*
X249940660Y-106307651D01*
X249792635Y-106368965D01*
X249786084Y-106373992D01*
X249786082Y-106373993D01*
X249760847Y-106393357D01*
X249697439Y-106442012D01*
X249697436Y-106442015D01*
X249665524Y-106466502D01*
X249660494Y-106473057D01*
X249646059Y-106491868D01*
X249635192Y-106504259D01*
X247878632Y-108260819D01*
X247816320Y-108294845D01*
X247745505Y-108289780D01*
X247688669Y-108247233D01*
X247680418Y-108234725D01*
X247639040Y-108163056D01*
X247624455Y-108146857D01*
X247515675Y-108026045D01*
X247515674Y-108026044D01*
X247511253Y-108021134D01*
X247412157Y-107949136D01*
X247362094Y-107912763D01*
X247362093Y-107912762D01*
X247356752Y-107908882D01*
X247350726Y-107906199D01*
X247350719Y-107906195D01*
X247230848Y-107852826D01*
X247176752Y-107806846D01*
X247156102Y-107738919D01*
X247175454Y-107670611D01*
X247216261Y-107630286D01*
X247319749Y-107566868D01*
X247389416Y-107524176D01*
X247569969Y-107369969D01*
X247579367Y-107358966D01*
X247640397Y-107287508D01*
X247724176Y-107189416D01*
X247726755Y-107185208D01*
X247726759Y-107185202D01*
X247845654Y-106991183D01*
X247848240Y-106986963D01*
X247850231Y-106982158D01*
X247937211Y-106772167D01*
X247937212Y-106772165D01*
X247939105Y-106767594D01*
X247960107Y-106680114D01*
X247993380Y-106541524D01*
X247993381Y-106541518D01*
X247994535Y-106536711D01*
X248013165Y-106300000D01*
X247994535Y-106063289D01*
X247939105Y-105832406D01*
X247937211Y-105827833D01*
X247850135Y-105617611D01*
X247850133Y-105617607D01*
X247848240Y-105613037D01*
X247789780Y-105517639D01*
X247726759Y-105414798D01*
X247726755Y-105414792D01*
X247724176Y-105410584D01*
X247569969Y-105230031D01*
X247389416Y-105075824D01*
X247385208Y-105073245D01*
X247385202Y-105073241D01*
X247191183Y-104954346D01*
X247186963Y-104951760D01*
X247182393Y-104949867D01*
X247182389Y-104949865D01*
X246972167Y-104862789D01*
X246972165Y-104862788D01*
X246967594Y-104860895D01*
X246887391Y-104841640D01*
X246741524Y-104806620D01*
X246741518Y-104806619D01*
X246736711Y-104805465D01*
X246500000Y-104786835D01*
X246263289Y-104805465D01*
X246258482Y-104806619D01*
X246258476Y-104806620D01*
X246112609Y-104841640D01*
X246032406Y-104860895D01*
X246027835Y-104862788D01*
X246027833Y-104862789D01*
X245817611Y-104949865D01*
X245817607Y-104949867D01*
X245813037Y-104951760D01*
X245808817Y-104954346D01*
X245614798Y-105073241D01*
X245614792Y-105073245D01*
X245610584Y-105075824D01*
X245430031Y-105230031D01*
X245275824Y-105410584D01*
X245273245Y-105414792D01*
X245273241Y-105414798D01*
X245210220Y-105517639D01*
X245151760Y-105613037D01*
X245149865Y-105617611D01*
X245147619Y-105622020D01*
X245145610Y-105620996D01*
X245106940Y-105668992D01*
X245035069Y-105691500D01*
X241464931Y-105691500D01*
X241396810Y-105671498D01*
X241354543Y-105620918D01*
X241352381Y-105622020D01*
X241350135Y-105617611D01*
X241348240Y-105613037D01*
X241289780Y-105517639D01*
X241226759Y-105414798D01*
X241226755Y-105414792D01*
X241224176Y-105410584D01*
X241069969Y-105230031D01*
X240889416Y-105075824D01*
X240885208Y-105073245D01*
X240885202Y-105073241D01*
X240691183Y-104954346D01*
X240686963Y-104951760D01*
X240682393Y-104949867D01*
X240682389Y-104949865D01*
X240472167Y-104862789D01*
X240472165Y-104862788D01*
X240467594Y-104860895D01*
X240387391Y-104841640D01*
X240241524Y-104806620D01*
X240241518Y-104806619D01*
X240236711Y-104805465D01*
X240000000Y-104786835D01*
X239763289Y-104805465D01*
X239758482Y-104806619D01*
X239758476Y-104806620D01*
X239612609Y-104841640D01*
X239532406Y-104860895D01*
X239527835Y-104862788D01*
X239527833Y-104862789D01*
X239317611Y-104949865D01*
X239317607Y-104949867D01*
X239313037Y-104951760D01*
X239308817Y-104954346D01*
X239114798Y-105073241D01*
X239114792Y-105073245D01*
X239110584Y-105075824D01*
X238930031Y-105230031D01*
X238775824Y-105410584D01*
X238773245Y-105414792D01*
X238773241Y-105414798D01*
X238710220Y-105517639D01*
X238651760Y-105613037D01*
X238649865Y-105617611D01*
X238647619Y-105622020D01*
X238645610Y-105620996D01*
X238606940Y-105668992D01*
X238535069Y-105691500D01*
X225332700Y-105691500D01*
X225264579Y-105671498D01*
X225218086Y-105617842D01*
X225207390Y-105552329D01*
X225221210Y-105420840D01*
X225248223Y-105355184D01*
X225306445Y-105314554D01*
X225346520Y-105308011D01*
X227002353Y-105308011D01*
X227018796Y-105309089D01*
X227050489Y-105313261D01*
X227058678Y-105312183D01*
X227090363Y-105308012D01*
X227090373Y-105308011D01*
X227090374Y-105308011D01*
X227115015Y-105304767D01*
X227189946Y-105294902D01*
X227201153Y-105293427D01*
X227201155Y-105293426D01*
X227209340Y-105292349D01*
X227357365Y-105231035D01*
X227400575Y-105197879D01*
X227452561Y-105157988D01*
X227452564Y-105157985D01*
X227477926Y-105138524D01*
X227484476Y-105133498D01*
X227503947Y-105108124D01*
X227514805Y-105095744D01*
X229109914Y-103500634D01*
X229172226Y-103466609D01*
X229199009Y-103463729D01*
X229511047Y-103463729D01*
X229511047Y-103463727D01*
X229514014Y-103463318D01*
X229610438Y-103464496D01*
X229614880Y-103463915D01*
X229614883Y-103463915D01*
X229748002Y-103446508D01*
X229748004Y-103446508D01*
X229752452Y-103445926D01*
X229892748Y-103406755D01*
X230023841Y-103349072D01*
X230098955Y-103302317D01*
X230143694Y-103274470D01*
X230143698Y-103274467D01*
X230147496Y-103272103D01*
X230150981Y-103269174D01*
X230253699Y-103182831D01*
X230253700Y-103182830D01*
X230257131Y-103179946D01*
X230354218Y-103071361D01*
X230366388Y-103053079D01*
X230420782Y-103007457D01*
X230491209Y-102998485D01*
X230555307Y-103029013D01*
X230589862Y-103080320D01*
X230639026Y-103217252D01*
X230671738Y-103278133D01*
X230755699Y-103434392D01*
X230762737Y-103447491D01*
X230765532Y-103451234D01*
X230765534Y-103451237D01*
X230916330Y-103653177D01*
X230916335Y-103653183D01*
X230919122Y-103656915D01*
X230922431Y-103660195D01*
X230922436Y-103660201D01*
X231059404Y-103795978D01*
X231104743Y-103840923D01*
X231108505Y-103843681D01*
X231108508Y-103843684D01*
X231266614Y-103959612D01*
X231315524Y-103995474D01*
X231319667Y-103997654D01*
X231319669Y-103997655D01*
X231542684Y-104114989D01*
X231542689Y-104114991D01*
X231546834Y-104117172D01*
X231793590Y-104203344D01*
X231798183Y-104204216D01*
X232045785Y-104251224D01*
X232045788Y-104251224D01*
X232050374Y-104252095D01*
X232180958Y-104257226D01*
X232306875Y-104262174D01*
X232306881Y-104262174D01*
X232311543Y-104262357D01*
X232390977Y-104253657D01*
X232566707Y-104234412D01*
X232566712Y-104234411D01*
X232571360Y-104233902D01*
X232684116Y-104204216D01*
X232819594Y-104168548D01*
X232819596Y-104168547D01*
X232824117Y-104167357D01*
X233064262Y-104064182D01*
X233242125Y-103954118D01*
X233282547Y-103929104D01*
X233282548Y-103929104D01*
X233286519Y-103926646D01*
X233290082Y-103923629D01*
X233290087Y-103923626D01*
X233482439Y-103760787D01*
X233482440Y-103760786D01*
X233486005Y-103757768D01*
X233639994Y-103582178D01*
X233655257Y-103564774D01*
X233655261Y-103564769D01*
X233658339Y-103561259D01*
X233722557Y-103461421D01*
X233776231Y-103414950D01*
X233846509Y-103404874D01*
X233911078Y-103434392D01*
X233941093Y-103472970D01*
X233967160Y-103524799D01*
X233969586Y-103528328D01*
X233969589Y-103528334D01*
X234119843Y-103746953D01*
X234122274Y-103750490D01*
X234125161Y-103753663D01*
X234125162Y-103753664D01*
X234214413Y-103851750D01*
X234306582Y-103953043D01*
X234516675Y-104128707D01*
X234520316Y-104130991D01*
X234745024Y-104271951D01*
X234745028Y-104271953D01*
X234748664Y-104274234D01*
X234873461Y-104330582D01*
X234994345Y-104385164D01*
X234994349Y-104385166D01*
X234998257Y-104386930D01*
X235002377Y-104388150D01*
X235002376Y-104388150D01*
X235256723Y-104463491D01*
X235256727Y-104463492D01*
X235260836Y-104464709D01*
X235265070Y-104465357D01*
X235265075Y-104465358D01*
X235527298Y-104505483D01*
X235527300Y-104505483D01*
X235531540Y-104506132D01*
X235670912Y-104508322D01*
X235801071Y-104510367D01*
X235801077Y-104510367D01*
X235805362Y-104510434D01*
X236077235Y-104477534D01*
X236342127Y-104408041D01*
X236346087Y-104406401D01*
X236346092Y-104406399D01*
X236484097Y-104349235D01*
X236595136Y-104303241D01*
X236825635Y-104168548D01*
X236827879Y-104167237D01*
X236827880Y-104167236D01*
X236831582Y-104165073D01*
X237047089Y-103996094D01*
X237050372Y-103992707D01*
X237234686Y-103802509D01*
X237237669Y-103799431D01*
X237240202Y-103795983D01*
X237240206Y-103795978D01*
X237397257Y-103582178D01*
X237399795Y-103578723D01*
X237427154Y-103528334D01*
X237528418Y-103341830D01*
X237528419Y-103341828D01*
X237530468Y-103338054D01*
X237580138Y-103206605D01*
X237625751Y-103085895D01*
X237625752Y-103085891D01*
X237627269Y-103081877D01*
X237638539Y-103032670D01*
X239132160Y-103032670D01*
X239137887Y-103040320D01*
X239309042Y-103145205D01*
X239317837Y-103149687D01*
X239527988Y-103236734D01*
X239537373Y-103239783D01*
X239758554Y-103292885D01*
X239768301Y-103294428D01*
X239995070Y-103312275D01*
X240004930Y-103312275D01*
X240231699Y-103294428D01*
X240241446Y-103292885D01*
X240462627Y-103239783D01*
X240472012Y-103236734D01*
X240682163Y-103149687D01*
X240690958Y-103145205D01*
X240858445Y-103042568D01*
X240867400Y-103032670D01*
X245632160Y-103032670D01*
X245637887Y-103040320D01*
X245809042Y-103145205D01*
X245817837Y-103149687D01*
X246027988Y-103236734D01*
X246037373Y-103239783D01*
X246258554Y-103292885D01*
X246268301Y-103294428D01*
X246495070Y-103312275D01*
X246504930Y-103312275D01*
X246731699Y-103294428D01*
X246741446Y-103292885D01*
X246962627Y-103239783D01*
X246972012Y-103236734D01*
X247182163Y-103149687D01*
X247190958Y-103145205D01*
X247358445Y-103042568D01*
X247367400Y-103032670D01*
X254532160Y-103032670D01*
X254537887Y-103040320D01*
X254709042Y-103145205D01*
X254717837Y-103149687D01*
X254927988Y-103236734D01*
X254937373Y-103239783D01*
X255158554Y-103292885D01*
X255168301Y-103294428D01*
X255395070Y-103312275D01*
X255404930Y-103312275D01*
X255631699Y-103294428D01*
X255641446Y-103292885D01*
X255862627Y-103239783D01*
X255872012Y-103236734D01*
X256082163Y-103149687D01*
X256090958Y-103145205D01*
X256258445Y-103042568D01*
X256267907Y-103032110D01*
X256264124Y-103023334D01*
X255412812Y-102172022D01*
X255398868Y-102164408D01*
X255397035Y-102164539D01*
X255390420Y-102168790D01*
X254538920Y-103020290D01*
X254532160Y-103032670D01*
X247367400Y-103032670D01*
X247367907Y-103032110D01*
X247364124Y-103023334D01*
X246512812Y-102172022D01*
X246498868Y-102164408D01*
X246497035Y-102164539D01*
X246490420Y-102168790D01*
X245638920Y-103020290D01*
X245632160Y-103032670D01*
X240867400Y-103032670D01*
X240867907Y-103032110D01*
X240864124Y-103023334D01*
X240012812Y-102172022D01*
X239998868Y-102164408D01*
X239997035Y-102164539D01*
X239990420Y-102168790D01*
X239138920Y-103020290D01*
X239132160Y-103032670D01*
X237638539Y-103032670D01*
X237656648Y-102953601D01*
X237687449Y-102819117D01*
X237687450Y-102819113D01*
X237688407Y-102814933D01*
X237688938Y-102808990D01*
X237712531Y-102544627D01*
X237712531Y-102544625D01*
X237712751Y-102542161D01*
X237713193Y-102500000D01*
X237712048Y-102483198D01*
X237694859Y-102231055D01*
X237694858Y-102231049D01*
X237694567Y-102226778D01*
X237683228Y-102172022D01*
X237647603Y-102000000D01*
X237639032Y-101958612D01*
X237584610Y-101804930D01*
X238487725Y-101804930D01*
X238505572Y-102031699D01*
X238507115Y-102041446D01*
X238560217Y-102262627D01*
X238563266Y-102272012D01*
X238650313Y-102482163D01*
X238654795Y-102490958D01*
X238757432Y-102658445D01*
X238767890Y-102667907D01*
X238776666Y-102664124D01*
X239627978Y-101812812D01*
X239634356Y-101801132D01*
X240364408Y-101801132D01*
X240364539Y-101802965D01*
X240368790Y-101809580D01*
X241220290Y-102661080D01*
X241232670Y-102667840D01*
X241240320Y-102662113D01*
X241345205Y-102490958D01*
X241349687Y-102482163D01*
X241436734Y-102272012D01*
X241439783Y-102262627D01*
X241492885Y-102041446D01*
X241494428Y-102031699D01*
X241512275Y-101804930D01*
X244987725Y-101804930D01*
X245005572Y-102031699D01*
X245007115Y-102041446D01*
X245060217Y-102262627D01*
X245063266Y-102272012D01*
X245150313Y-102482163D01*
X245154795Y-102490958D01*
X245257432Y-102658445D01*
X245267890Y-102667907D01*
X245276666Y-102664124D01*
X246127978Y-101812812D01*
X246134356Y-101801132D01*
X246864408Y-101801132D01*
X246864539Y-101802965D01*
X246868790Y-101809580D01*
X247720290Y-102661080D01*
X247732670Y-102667840D01*
X247740320Y-102662113D01*
X247845205Y-102490958D01*
X247849687Y-102482163D01*
X247936734Y-102272012D01*
X247939783Y-102262627D01*
X247992885Y-102041446D01*
X247994428Y-102031699D01*
X248012275Y-101804930D01*
X253887725Y-101804930D01*
X253905572Y-102031699D01*
X253907115Y-102041446D01*
X253960217Y-102262627D01*
X253963266Y-102272012D01*
X254050313Y-102482163D01*
X254054795Y-102490958D01*
X254157432Y-102658445D01*
X254167890Y-102667907D01*
X254176666Y-102664124D01*
X255027978Y-101812812D01*
X255034356Y-101801132D01*
X255764408Y-101801132D01*
X255764539Y-101802965D01*
X255768790Y-101809580D01*
X256620290Y-102661080D01*
X256632670Y-102667840D01*
X256640320Y-102662113D01*
X256745205Y-102490958D01*
X256749687Y-102482163D01*
X256836734Y-102272012D01*
X256839783Y-102262627D01*
X256892885Y-102041446D01*
X256894428Y-102031699D01*
X256912275Y-101804930D01*
X256912275Y-101795070D01*
X256894428Y-101568301D01*
X256892885Y-101558554D01*
X256839783Y-101337373D01*
X256836734Y-101327988D01*
X256749687Y-101117837D01*
X256745205Y-101109042D01*
X256642568Y-100941555D01*
X256632110Y-100932093D01*
X256623334Y-100935876D01*
X255772022Y-101787188D01*
X255764408Y-101801132D01*
X255034356Y-101801132D01*
X255035592Y-101798868D01*
X255035461Y-101797035D01*
X255031210Y-101790420D01*
X254179710Y-100938920D01*
X254167330Y-100932160D01*
X254159680Y-100937887D01*
X254054795Y-101109042D01*
X254050313Y-101117837D01*
X253963266Y-101327988D01*
X253960217Y-101337373D01*
X253907115Y-101558554D01*
X253905572Y-101568301D01*
X253887725Y-101795070D01*
X253887725Y-101804930D01*
X248012275Y-101804930D01*
X248012275Y-101795070D01*
X247994428Y-101568301D01*
X247992885Y-101558554D01*
X247939783Y-101337373D01*
X247936734Y-101327988D01*
X247849687Y-101117837D01*
X247845205Y-101109042D01*
X247742568Y-100941555D01*
X247732110Y-100932093D01*
X247723334Y-100935876D01*
X246872022Y-101787188D01*
X246864408Y-101801132D01*
X246134356Y-101801132D01*
X246135592Y-101798868D01*
X246135461Y-101797035D01*
X246131210Y-101790420D01*
X245279710Y-100938920D01*
X245267330Y-100932160D01*
X245259680Y-100937887D01*
X245154795Y-101109042D01*
X245150313Y-101117837D01*
X245063266Y-101327988D01*
X245060217Y-101337373D01*
X245007115Y-101558554D01*
X245005572Y-101568301D01*
X244987725Y-101795070D01*
X244987725Y-101804930D01*
X241512275Y-101804930D01*
X241512275Y-101795070D01*
X241494428Y-101568301D01*
X241492885Y-101558554D01*
X241439783Y-101337373D01*
X241436734Y-101327988D01*
X241349687Y-101117837D01*
X241345205Y-101109042D01*
X241242568Y-100941555D01*
X241232110Y-100932093D01*
X241223334Y-100935876D01*
X240372022Y-101787188D01*
X240364408Y-101801132D01*
X239634356Y-101801132D01*
X239635592Y-101798868D01*
X239635461Y-101797035D01*
X239631210Y-101790420D01*
X238779710Y-100938920D01*
X238767330Y-100932160D01*
X238759680Y-100937887D01*
X238654795Y-101109042D01*
X238650313Y-101117837D01*
X238563266Y-101327988D01*
X238560217Y-101337373D01*
X238507115Y-101558554D01*
X238505572Y-101568301D01*
X238487725Y-101795070D01*
X238487725Y-101804930D01*
X237584610Y-101804930D01*
X237547617Y-101700465D01*
X237462627Y-101535800D01*
X237423978Y-101460919D01*
X237423978Y-101460918D01*
X237422013Y-101457112D01*
X237414753Y-101446781D01*
X237320245Y-101312311D01*
X237264545Y-101233057D01*
X237149094Y-101108817D01*
X237081046Y-101035588D01*
X237081043Y-101035585D01*
X237078125Y-101032445D01*
X237074810Y-101029731D01*
X237074806Y-101029728D01*
X236873517Y-100864975D01*
X236866205Y-100858990D01*
X236677381Y-100743279D01*
X236636366Y-100718145D01*
X236636365Y-100718145D01*
X236632704Y-100715901D01*
X236621815Y-100711121D01*
X236385873Y-100607549D01*
X236385869Y-100607548D01*
X236381945Y-100605825D01*
X236248772Y-100567890D01*
X239132093Y-100567890D01*
X239135876Y-100576666D01*
X239987188Y-101427978D01*
X240001132Y-101435592D01*
X240002965Y-101435461D01*
X240009580Y-101431210D01*
X240861080Y-100579710D01*
X240867840Y-100567330D01*
X240862113Y-100559680D01*
X240690958Y-100454795D01*
X240682163Y-100450313D01*
X240472012Y-100363266D01*
X240462627Y-100360217D01*
X240241446Y-100307115D01*
X240231699Y-100305572D01*
X240004930Y-100287725D01*
X239995070Y-100287725D01*
X239768301Y-100305572D01*
X239758554Y-100307115D01*
X239537373Y-100360217D01*
X239527988Y-100363266D01*
X239317837Y-100450313D01*
X239309042Y-100454795D01*
X239141555Y-100557432D01*
X239132093Y-100567890D01*
X236248772Y-100567890D01*
X236118566Y-100530800D01*
X236114324Y-100530196D01*
X236114318Y-100530195D01*
X235913834Y-100501662D01*
X235847443Y-100492213D01*
X235703589Y-100491460D01*
X235577877Y-100490802D01*
X235577871Y-100490802D01*
X235573591Y-100490780D01*
X235569347Y-100491339D01*
X235569343Y-100491339D01*
X235450302Y-100507011D01*
X235302078Y-100526525D01*
X235297938Y-100527658D01*
X235297936Y-100527658D01*
X235274801Y-100533987D01*
X235037928Y-100598788D01*
X235033980Y-100600472D01*
X234789982Y-100704546D01*
X234789978Y-100704548D01*
X234786030Y-100706232D01*
X234700267Y-100757560D01*
X234554725Y-100844664D01*
X234554721Y-100844667D01*
X234551043Y-100846868D01*
X234337318Y-101018094D01*
X234243585Y-101116868D01*
X234161924Y-101202921D01*
X234148808Y-101216742D01*
X233989002Y-101439136D01*
X233986999Y-101442920D01*
X233986991Y-101442932D01*
X233942355Y-101527235D01*
X233892803Y-101578078D01*
X233823628Y-101594060D01*
X233756795Y-101570106D01*
X233721607Y-101530797D01*
X233714270Y-101517960D01*
X233711951Y-101513902D01*
X233550138Y-101308643D01*
X233359763Y-101129557D01*
X233195232Y-101015417D01*
X233148851Y-100983241D01*
X233148848Y-100983239D01*
X233145009Y-100980576D01*
X233127503Y-100971943D01*
X232914781Y-100867040D01*
X232914778Y-100867039D01*
X232910593Y-100864975D01*
X232891896Y-100858990D01*
X232809685Y-100832674D01*
X232750905Y-100792856D01*
X232722983Y-100727581D01*
X232734784Y-100657572D01*
X232771391Y-100612713D01*
X232842072Y-100558477D01*
X232842075Y-100558474D01*
X232873987Y-100533987D01*
X232893458Y-100508613D01*
X232904316Y-100496233D01*
X233285171Y-100115378D01*
X233347483Y-100081352D01*
X233399385Y-100081002D01*
X233608597Y-100123567D01*
X233613772Y-100123757D01*
X233613774Y-100123757D01*
X233826673Y-100131564D01*
X233826677Y-100131564D01*
X233831837Y-100131753D01*
X233836957Y-100131097D01*
X233836959Y-100131097D01*
X234048288Y-100104025D01*
X234048289Y-100104025D01*
X234053416Y-100103368D01*
X234058366Y-100101883D01*
X234262429Y-100040661D01*
X234262434Y-100040659D01*
X234267384Y-100039174D01*
X234467994Y-99940896D01*
X234649860Y-99811173D01*
X234808096Y-99653489D01*
X234811116Y-99649287D01*
X234938453Y-99472077D01*
X234939776Y-99473028D01*
X234986645Y-99429857D01*
X235056580Y-99417625D01*
X235122026Y-99445144D01*
X235149875Y-99476994D01*
X235209987Y-99575088D01*
X235356250Y-99743938D01*
X235528126Y-99886632D01*
X235721000Y-99999338D01*
X235929692Y-100079030D01*
X235934760Y-100080061D01*
X235934763Y-100080062D01*
X236029862Y-100099410D01*
X236148597Y-100123567D01*
X236153772Y-100123757D01*
X236153774Y-100123757D01*
X236366673Y-100131564D01*
X236366677Y-100131564D01*
X236371837Y-100131753D01*
X236376957Y-100131097D01*
X236376959Y-100131097D01*
X236588288Y-100104025D01*
X236588289Y-100104025D01*
X236593416Y-100103368D01*
X236598366Y-100101883D01*
X236802429Y-100040661D01*
X236802434Y-100040659D01*
X236807384Y-100039174D01*
X237007994Y-99940896D01*
X237189860Y-99811173D01*
X237348096Y-99653489D01*
X237351116Y-99649287D01*
X237478453Y-99472077D01*
X237479640Y-99472930D01*
X237526960Y-99429362D01*
X237596897Y-99417145D01*
X237662338Y-99444678D01*
X237690166Y-99476511D01*
X237747694Y-99570388D01*
X237753777Y-99578699D01*
X237893213Y-99739667D01*
X237900580Y-99746883D01*
X238064434Y-99882916D01*
X238072881Y-99888831D01*
X238256756Y-99996279D01*
X238266042Y-100000729D01*
X238465001Y-100076703D01*
X238474899Y-100079579D01*
X238578250Y-100100606D01*
X238592299Y-100099410D01*
X238596000Y-100089065D01*
X238596000Y-98642000D01*
X238616002Y-98573879D01*
X238669658Y-98527386D01*
X238722000Y-98516000D01*
X238978000Y-98516000D01*
X239046121Y-98536002D01*
X239092614Y-98589658D01*
X239104000Y-98642000D01*
X239104000Y-100088517D01*
X239108064Y-100102359D01*
X239121478Y-100104393D01*
X239128184Y-100103534D01*
X239138262Y-100101392D01*
X239342255Y-100040191D01*
X239351842Y-100036433D01*
X239543095Y-99942739D01*
X239551945Y-99937464D01*
X239725328Y-99813792D01*
X239733200Y-99807139D01*
X239884052Y-99656812D01*
X239890730Y-99648965D01*
X240018022Y-99471819D01*
X240019279Y-99472722D01*
X240066373Y-99429362D01*
X240136311Y-99417145D01*
X240201751Y-99444678D01*
X240229579Y-99476511D01*
X240289987Y-99575088D01*
X240436250Y-99743938D01*
X240608126Y-99886632D01*
X240801000Y-99999338D01*
X241009692Y-100079030D01*
X241014760Y-100080061D01*
X241014763Y-100080062D01*
X241109862Y-100099410D01*
X241228597Y-100123567D01*
X241233772Y-100123757D01*
X241233774Y-100123757D01*
X241446673Y-100131564D01*
X241446677Y-100131564D01*
X241451837Y-100131753D01*
X241456957Y-100131097D01*
X241456959Y-100131097D01*
X241668288Y-100104025D01*
X241668289Y-100104025D01*
X241673416Y-100103368D01*
X241678366Y-100101883D01*
X241882429Y-100040661D01*
X241882434Y-100040659D01*
X241887384Y-100039174D01*
X242087994Y-99940896D01*
X242269860Y-99811173D01*
X242428096Y-99653489D01*
X242431116Y-99649287D01*
X242558453Y-99472077D01*
X242559776Y-99473028D01*
X242606645Y-99429857D01*
X242676580Y-99417625D01*
X242742026Y-99445144D01*
X242769875Y-99476994D01*
X242829987Y-99575088D01*
X242976250Y-99743938D01*
X243148126Y-99886632D01*
X243341000Y-99999338D01*
X243549692Y-100079030D01*
X243554760Y-100080061D01*
X243554763Y-100080062D01*
X243649862Y-100099410D01*
X243768597Y-100123567D01*
X243773772Y-100123757D01*
X243773774Y-100123757D01*
X243986673Y-100131564D01*
X243986677Y-100131564D01*
X243991837Y-100131753D01*
X243996957Y-100131097D01*
X243996959Y-100131097D01*
X244208288Y-100104025D01*
X244208289Y-100104025D01*
X244213416Y-100103368D01*
X244218366Y-100101883D01*
X244422429Y-100040661D01*
X244422434Y-100040659D01*
X244427384Y-100039174D01*
X244627994Y-99940896D01*
X244809860Y-99811173D01*
X244968096Y-99653489D01*
X244971116Y-99649287D01*
X245098453Y-99472077D01*
X245099776Y-99473028D01*
X245146645Y-99429857D01*
X245216580Y-99417625D01*
X245282026Y-99445144D01*
X245309875Y-99476994D01*
X245369987Y-99575088D01*
X245516250Y-99743938D01*
X245688126Y-99886632D01*
X245881000Y-99999338D01*
X246089692Y-100079030D01*
X246138408Y-100088941D01*
X246201171Y-100122122D01*
X246236033Y-100183970D01*
X246231924Y-100254847D01*
X246190147Y-100312252D01*
X246142699Y-100334930D01*
X246037373Y-100360217D01*
X246027988Y-100363266D01*
X245817837Y-100450313D01*
X245809042Y-100454795D01*
X245641555Y-100557432D01*
X245632093Y-100567890D01*
X245635876Y-100576666D01*
X246487188Y-101427978D01*
X246501132Y-101435592D01*
X246502965Y-101435461D01*
X246509580Y-101431210D01*
X247361080Y-100579710D01*
X247367534Y-100567890D01*
X254532093Y-100567890D01*
X254535876Y-100576666D01*
X255387188Y-101427978D01*
X255401132Y-101435592D01*
X255402965Y-101435461D01*
X255409580Y-101431210D01*
X256261080Y-100579710D01*
X256267840Y-100567330D01*
X256262113Y-100559680D01*
X256090958Y-100454795D01*
X256082163Y-100450313D01*
X255872012Y-100363266D01*
X255862627Y-100360217D01*
X255641446Y-100307115D01*
X255631699Y-100305572D01*
X255404930Y-100287725D01*
X255395070Y-100287725D01*
X255168301Y-100305572D01*
X255158554Y-100307115D01*
X254937373Y-100360217D01*
X254927988Y-100363266D01*
X254717837Y-100450313D01*
X254709042Y-100454795D01*
X254541555Y-100557432D01*
X254532093Y-100567890D01*
X247367534Y-100567890D01*
X247367840Y-100567330D01*
X247362113Y-100559680D01*
X247190958Y-100454795D01*
X247182163Y-100450313D01*
X246972012Y-100363266D01*
X246962627Y-100360217D01*
X246824925Y-100327157D01*
X246763355Y-100291804D01*
X246730673Y-100228778D01*
X246737254Y-100158087D01*
X246781008Y-100102175D01*
X246818132Y-100083952D01*
X246826799Y-100081352D01*
X246928783Y-100050755D01*
X246962425Y-100040662D01*
X246962427Y-100040661D01*
X246967384Y-100039174D01*
X247167994Y-99940896D01*
X247349860Y-99811173D01*
X247508096Y-99653489D01*
X247511116Y-99649287D01*
X247638453Y-99472077D01*
X247639776Y-99473028D01*
X247686645Y-99429857D01*
X247756580Y-99417625D01*
X247822026Y-99445144D01*
X247849875Y-99476994D01*
X247909987Y-99575088D01*
X248056250Y-99743938D01*
X248228126Y-99886632D01*
X248421000Y-99999338D01*
X248629692Y-100079030D01*
X248634760Y-100080061D01*
X248634763Y-100080062D01*
X248729862Y-100099410D01*
X248848597Y-100123567D01*
X248853772Y-100123757D01*
X248853774Y-100123757D01*
X249066673Y-100131564D01*
X249066677Y-100131564D01*
X249071837Y-100131753D01*
X249076957Y-100131097D01*
X249076959Y-100131097D01*
X249288288Y-100104025D01*
X249288289Y-100104025D01*
X249293416Y-100103368D01*
X249298366Y-100101883D01*
X249502429Y-100040661D01*
X249502434Y-100040659D01*
X249507384Y-100039174D01*
X249707994Y-99940896D01*
X249889860Y-99811173D01*
X250048096Y-99653489D01*
X250051116Y-99649287D01*
X250178453Y-99472077D01*
X250179776Y-99473028D01*
X250226645Y-99429857D01*
X250296580Y-99417625D01*
X250362026Y-99445144D01*
X250389875Y-99476994D01*
X250449987Y-99575088D01*
X250596250Y-99743938D01*
X250768126Y-99886632D01*
X250961000Y-99999338D01*
X251169692Y-100079030D01*
X251174760Y-100080061D01*
X251174763Y-100080062D01*
X251269862Y-100099410D01*
X251388597Y-100123567D01*
X251393772Y-100123757D01*
X251393774Y-100123757D01*
X251606673Y-100131564D01*
X251606677Y-100131564D01*
X251611837Y-100131753D01*
X251616957Y-100131097D01*
X251616959Y-100131097D01*
X251828288Y-100104025D01*
X251828289Y-100104025D01*
X251833416Y-100103368D01*
X251838366Y-100101883D01*
X252042429Y-100040661D01*
X252042434Y-100040659D01*
X252047384Y-100039174D01*
X252247994Y-99940896D01*
X252429860Y-99811173D01*
X252588096Y-99653489D01*
X252591116Y-99649287D01*
X252718453Y-99472077D01*
X252719776Y-99473028D01*
X252766645Y-99429857D01*
X252836580Y-99417625D01*
X252902026Y-99445144D01*
X252929875Y-99476994D01*
X252989987Y-99575088D01*
X253136250Y-99743938D01*
X253308126Y-99886632D01*
X253501000Y-99999338D01*
X253709692Y-100079030D01*
X253714760Y-100080061D01*
X253714763Y-100080062D01*
X253809862Y-100099410D01*
X253928597Y-100123567D01*
X253933772Y-100123757D01*
X253933774Y-100123757D01*
X254146673Y-100131564D01*
X254146677Y-100131564D01*
X254151837Y-100131753D01*
X254156957Y-100131097D01*
X254156959Y-100131097D01*
X254368288Y-100104025D01*
X254368289Y-100104025D01*
X254373416Y-100103368D01*
X254378366Y-100101883D01*
X254582429Y-100040661D01*
X254582434Y-100040659D01*
X254587384Y-100039174D01*
X254787994Y-99940896D01*
X254969860Y-99811173D01*
X255128096Y-99653489D01*
X255131116Y-99649287D01*
X255258453Y-99472077D01*
X255259640Y-99472930D01*
X255306960Y-99429362D01*
X255376897Y-99417145D01*
X255442338Y-99444678D01*
X255470166Y-99476511D01*
X255527694Y-99570388D01*
X255533777Y-99578699D01*
X255673213Y-99739667D01*
X255680580Y-99746883D01*
X255844434Y-99882916D01*
X255852881Y-99888831D01*
X256036756Y-99996279D01*
X256046042Y-100000729D01*
X256245001Y-100076703D01*
X256254899Y-100079579D01*
X256358250Y-100100606D01*
X256372299Y-100099410D01*
X256376000Y-100089065D01*
X256376000Y-100088517D01*
X256884000Y-100088517D01*
X256888064Y-100102359D01*
X256901478Y-100104393D01*
X256908184Y-100103534D01*
X256918262Y-100101392D01*
X257122255Y-100040191D01*
X257131842Y-100036433D01*
X257323095Y-99942739D01*
X257331945Y-99937464D01*
X257505328Y-99813792D01*
X257513200Y-99807139D01*
X257664052Y-99656812D01*
X257670730Y-99648965D01*
X257795003Y-99476020D01*
X257800313Y-99467183D01*
X257894670Y-99276267D01*
X257898469Y-99266672D01*
X257960377Y-99062910D01*
X257962555Y-99052837D01*
X257963986Y-99041962D01*
X257961775Y-99027778D01*
X257948617Y-99024000D01*
X256902115Y-99024000D01*
X256886876Y-99028475D01*
X256885671Y-99029865D01*
X256884000Y-99037548D01*
X256884000Y-100088517D01*
X256376000Y-100088517D01*
X256376000Y-98642000D01*
X256396002Y-98573879D01*
X256449658Y-98527386D01*
X256502000Y-98516000D01*
X257948344Y-98516000D01*
X257961875Y-98512027D01*
X257963180Y-98502947D01*
X257921214Y-98335875D01*
X257917894Y-98326124D01*
X257832972Y-98130814D01*
X257828105Y-98121739D01*
X257712426Y-97942926D01*
X257706136Y-97934757D01*
X257562806Y-97777240D01*
X257555273Y-97770215D01*
X257388139Y-97638222D01*
X257379556Y-97632520D01*
X257342602Y-97612120D01*
X257292631Y-97561687D01*
X257288502Y-97542277D01*
X259637009Y-97542277D01*
X259662625Y-97810769D01*
X259663710Y-97815203D01*
X259663711Y-97815209D01*
X259725337Y-98067054D01*
X259726731Y-98072750D01*
X259827985Y-98322733D01*
X259830294Y-98326676D01*
X259933505Y-98502947D01*
X259964265Y-98555482D01*
X260033455Y-98642000D01*
X260084686Y-98706060D01*
X260132716Y-98766119D01*
X260329809Y-98950234D01*
X260551416Y-99103968D01*
X260555499Y-99105999D01*
X260555502Y-99106001D01*
X260671013Y-99163466D01*
X260792894Y-99224101D01*
X260797228Y-99225522D01*
X260797231Y-99225523D01*
X261044853Y-99306698D01*
X261044859Y-99306699D01*
X261049186Y-99308118D01*
X261053677Y-99308898D01*
X261053678Y-99308898D01*
X261311140Y-99353601D01*
X261311148Y-99353602D01*
X261314921Y-99354257D01*
X261318758Y-99354448D01*
X261398578Y-99358422D01*
X261398586Y-99358422D01*
X261400149Y-99358500D01*
X261568512Y-99358500D01*
X261570780Y-99358335D01*
X261570792Y-99358335D01*
X261701884Y-99348823D01*
X261769004Y-99343953D01*
X261773459Y-99342969D01*
X261773462Y-99342969D01*
X262027912Y-99286791D01*
X262027916Y-99286790D01*
X262032372Y-99285806D01*
X262158480Y-99238028D01*
X262280318Y-99191868D01*
X262280321Y-99191867D01*
X262284588Y-99190250D01*
X262520368Y-99059286D01*
X262734773Y-98895657D01*
X262923312Y-98702792D01*
X263082034Y-98484730D01*
X263165190Y-98326676D01*
X263205490Y-98250079D01*
X263205493Y-98250073D01*
X263207615Y-98246039D01*
X263248306Y-98130814D01*
X263295902Y-97996033D01*
X263295902Y-97996032D01*
X263297425Y-97991720D01*
X263330129Y-97825791D01*
X263348700Y-97731572D01*
X263348701Y-97731566D01*
X263349581Y-97727100D01*
X263351841Y-97681703D01*
X263362764Y-97462292D01*
X263362764Y-97462286D01*
X263362991Y-97457723D01*
X263337375Y-97189231D01*
X263319655Y-97116812D01*
X263274355Y-96931688D01*
X263273269Y-96927250D01*
X263172015Y-96677267D01*
X263035735Y-96444518D01*
X262917434Y-96296590D01*
X262870136Y-96237447D01*
X262870135Y-96237445D01*
X262867284Y-96233881D01*
X262670191Y-96049766D01*
X262448584Y-95896032D01*
X262444501Y-95894001D01*
X262444498Y-95893999D01*
X262279606Y-95811967D01*
X262207106Y-95775899D01*
X262202772Y-95774478D01*
X262202769Y-95774477D01*
X261955147Y-95693302D01*
X261955141Y-95693301D01*
X261950814Y-95691882D01*
X261946322Y-95691102D01*
X261688860Y-95646399D01*
X261688852Y-95646398D01*
X261685079Y-95645743D01*
X261673817Y-95645182D01*
X261601422Y-95641578D01*
X261601414Y-95641578D01*
X261599851Y-95641500D01*
X261431488Y-95641500D01*
X261429220Y-95641665D01*
X261429208Y-95641665D01*
X261298116Y-95651177D01*
X261230996Y-95656047D01*
X261226541Y-95657031D01*
X261226538Y-95657031D01*
X260972088Y-95713209D01*
X260972084Y-95713210D01*
X260967628Y-95714194D01*
X260895803Y-95741406D01*
X260719682Y-95808132D01*
X260719679Y-95808133D01*
X260715412Y-95809750D01*
X260479632Y-95940714D01*
X260265227Y-96104343D01*
X260262034Y-96107609D01*
X260262032Y-96107611D01*
X260246406Y-96123596D01*
X260076688Y-96297208D01*
X259917966Y-96515270D01*
X259915844Y-96519304D01*
X259794510Y-96749921D01*
X259794507Y-96749927D01*
X259792385Y-96753961D01*
X259790865Y-96758266D01*
X259790863Y-96758270D01*
X259709927Y-96987461D01*
X259702575Y-97008280D01*
X259696010Y-97041589D01*
X259651478Y-97267529D01*
X259650419Y-97272900D01*
X259650192Y-97277453D01*
X259650192Y-97277456D01*
X259637788Y-97526638D01*
X259637009Y-97542277D01*
X257288502Y-97542277D01*
X257277859Y-97492245D01*
X257302975Y-97425839D01*
X257330327Y-97399232D01*
X257354040Y-97382318D01*
X257509860Y-97271173D01*
X257668096Y-97113489D01*
X257718977Y-97042681D01*
X257795435Y-96936277D01*
X257798453Y-96932077D01*
X257811995Y-96904678D01*
X257895136Y-96736453D01*
X257895137Y-96736451D01*
X257897430Y-96731811D01*
X257962370Y-96518069D01*
X257991529Y-96296590D01*
X257993156Y-96230000D01*
X257974852Y-96007361D01*
X257920431Y-95790702D01*
X257831354Y-95585840D01*
X257710014Y-95398277D01*
X257559670Y-95233051D01*
X257555619Y-95229852D01*
X257555615Y-95229848D01*
X257388414Y-95097800D01*
X257388410Y-95097798D01*
X257384359Y-95094598D01*
X257348028Y-95074542D01*
X257301231Y-95048709D01*
X257188789Y-94986638D01*
X257183920Y-94984914D01*
X257183916Y-94984912D01*
X256983087Y-94913795D01*
X256983083Y-94913794D01*
X256978212Y-94912069D01*
X256973119Y-94911162D01*
X256973116Y-94911161D01*
X256763373Y-94873800D01*
X256763367Y-94873799D01*
X256758284Y-94872894D01*
X256684452Y-94871992D01*
X256540081Y-94870228D01*
X256540079Y-94870228D01*
X256534911Y-94870165D01*
X256314091Y-94903955D01*
X256101756Y-94973357D01*
X255903607Y-95076507D01*
X255899474Y-95079610D01*
X255899471Y-95079612D01*
X255729100Y-95207530D01*
X255724965Y-95210635D01*
X255721393Y-95214373D01*
X255588447Y-95353493D01*
X255570629Y-95372138D01*
X255463201Y-95529621D01*
X255408293Y-95574621D01*
X255337768Y-95582792D01*
X255274021Y-95551538D01*
X255253324Y-95527054D01*
X255172822Y-95402617D01*
X255172820Y-95402614D01*
X255170014Y-95398277D01*
X255019670Y-95233051D01*
X255015619Y-95229852D01*
X255015615Y-95229848D01*
X254848414Y-95097800D01*
X254848410Y-95097798D01*
X254844359Y-95094598D01*
X254808028Y-95074542D01*
X254761231Y-95048709D01*
X254648789Y-94986638D01*
X254643920Y-94984914D01*
X254643916Y-94984912D01*
X254443087Y-94913795D01*
X254443083Y-94913794D01*
X254438212Y-94912069D01*
X254433119Y-94911162D01*
X254433116Y-94911161D01*
X254223373Y-94873800D01*
X254223367Y-94873799D01*
X254218284Y-94872894D01*
X254144452Y-94871992D01*
X254000081Y-94870228D01*
X254000079Y-94870228D01*
X253994911Y-94870165D01*
X253774091Y-94903955D01*
X253561756Y-94973357D01*
X253363607Y-95076507D01*
X253359474Y-95079610D01*
X253359471Y-95079612D01*
X253189100Y-95207530D01*
X253184965Y-95210635D01*
X253181393Y-95214373D01*
X253048447Y-95353493D01*
X253030629Y-95372138D01*
X252923201Y-95529621D01*
X252868293Y-95574621D01*
X252797768Y-95582792D01*
X252734021Y-95551538D01*
X252713324Y-95527054D01*
X252632822Y-95402617D01*
X252632820Y-95402614D01*
X252630014Y-95398277D01*
X252479670Y-95233051D01*
X252475619Y-95229852D01*
X252475615Y-95229848D01*
X252308414Y-95097800D01*
X252308410Y-95097798D01*
X252304359Y-95094598D01*
X252268028Y-95074542D01*
X252221231Y-95048709D01*
X252108789Y-94986638D01*
X252103920Y-94984914D01*
X252103916Y-94984912D01*
X251903087Y-94913795D01*
X251903083Y-94913794D01*
X251898212Y-94912069D01*
X251893119Y-94911162D01*
X251893116Y-94911161D01*
X251683373Y-94873800D01*
X251683367Y-94873799D01*
X251678284Y-94872894D01*
X251604452Y-94871992D01*
X251460081Y-94870228D01*
X251460079Y-94870228D01*
X251454911Y-94870165D01*
X251234091Y-94903955D01*
X251021756Y-94973357D01*
X250823607Y-95076507D01*
X250819474Y-95079610D01*
X250819471Y-95079612D01*
X250649100Y-95207530D01*
X250644965Y-95210635D01*
X250641393Y-95214373D01*
X250508447Y-95353493D01*
X250490629Y-95372138D01*
X250383204Y-95529618D01*
X250382898Y-95530066D01*
X250327987Y-95575069D01*
X250257462Y-95583240D01*
X250193715Y-95551986D01*
X250173018Y-95527502D01*
X250092426Y-95402926D01*
X250086136Y-95394757D01*
X249942806Y-95237240D01*
X249935273Y-95230215D01*
X249768139Y-95098222D01*
X249759552Y-95092517D01*
X249573117Y-94989599D01*
X249563705Y-94985369D01*
X249362959Y-94914280D01*
X249352988Y-94911646D01*
X249281837Y-94898972D01*
X249268540Y-94900432D01*
X249264000Y-94914989D01*
X249264000Y-96358000D01*
X249243998Y-96426121D01*
X249190342Y-96472614D01*
X249138000Y-96484000D01*
X248882000Y-96484000D01*
X248813879Y-96463998D01*
X248767386Y-96410342D01*
X248756000Y-96358000D01*
X248756000Y-94913102D01*
X248752082Y-94899758D01*
X248737806Y-94897771D01*
X248699324Y-94903660D01*
X248689288Y-94906051D01*
X248486868Y-94972212D01*
X248477359Y-94976209D01*
X248288463Y-95074542D01*
X248279738Y-95080036D01*
X248109433Y-95207905D01*
X248101726Y-95214748D01*
X247954590Y-95368717D01*
X247948109Y-95376722D01*
X247843498Y-95530074D01*
X247788587Y-95575076D01*
X247718062Y-95583247D01*
X247654315Y-95551993D01*
X247633618Y-95527509D01*
X247552822Y-95402617D01*
X247552820Y-95402614D01*
X247550014Y-95398277D01*
X247399670Y-95233051D01*
X247395619Y-95229852D01*
X247395615Y-95229848D01*
X247228414Y-95097800D01*
X247228410Y-95097798D01*
X247224359Y-95094598D01*
X247188028Y-95074542D01*
X247141231Y-95048709D01*
X247028789Y-94986638D01*
X247023920Y-94984914D01*
X247023916Y-94984912D01*
X246823087Y-94913795D01*
X246823083Y-94913794D01*
X246818212Y-94912069D01*
X246813119Y-94911162D01*
X246813116Y-94911161D01*
X246603373Y-94873800D01*
X246603367Y-94873799D01*
X246598284Y-94872894D01*
X246524452Y-94871992D01*
X246380081Y-94870228D01*
X246380079Y-94870228D01*
X246374911Y-94870165D01*
X246154091Y-94903955D01*
X245941756Y-94973357D01*
X245743607Y-95076507D01*
X245739474Y-95079610D01*
X245739471Y-95079612D01*
X245569100Y-95207530D01*
X245564965Y-95210635D01*
X245561393Y-95214373D01*
X245428447Y-95353493D01*
X245410629Y-95372138D01*
X245303204Y-95529618D01*
X245302898Y-95530066D01*
X245247987Y-95575069D01*
X245177462Y-95583240D01*
X245113715Y-95551986D01*
X245093018Y-95527502D01*
X245012426Y-95402926D01*
X245006136Y-95394757D01*
X244862806Y-95237240D01*
X244855273Y-95230215D01*
X244688139Y-95098222D01*
X244679552Y-95092517D01*
X244493117Y-94989599D01*
X244483705Y-94985369D01*
X244282959Y-94914280D01*
X244272988Y-94911646D01*
X244201837Y-94898972D01*
X244188540Y-94900432D01*
X244184000Y-94914989D01*
X244184000Y-96358000D01*
X244163998Y-96426121D01*
X244110342Y-96472614D01*
X244058000Y-96484000D01*
X243802000Y-96484000D01*
X243733879Y-96463998D01*
X243687386Y-96410342D01*
X243676000Y-96358000D01*
X243676000Y-94913102D01*
X243672082Y-94899758D01*
X243657806Y-94897771D01*
X243619324Y-94903660D01*
X243609288Y-94906051D01*
X243406868Y-94972212D01*
X243397359Y-94976209D01*
X243208463Y-95074542D01*
X243199738Y-95080036D01*
X243029433Y-95207905D01*
X243021726Y-95214748D01*
X242874590Y-95368717D01*
X242868109Y-95376722D01*
X242763498Y-95530074D01*
X242708587Y-95575076D01*
X242638062Y-95583247D01*
X242574315Y-95551993D01*
X242553618Y-95527509D01*
X242472822Y-95402617D01*
X242472820Y-95402614D01*
X242470014Y-95398277D01*
X242319670Y-95233051D01*
X242315619Y-95229852D01*
X242315615Y-95229848D01*
X242148414Y-95097800D01*
X242148410Y-95097798D01*
X242144359Y-95094598D01*
X242108028Y-95074542D01*
X242061231Y-95048709D01*
X241948789Y-94986638D01*
X241943920Y-94984914D01*
X241943916Y-94984912D01*
X241743087Y-94913795D01*
X241743083Y-94913794D01*
X241738212Y-94912069D01*
X241733119Y-94911162D01*
X241733116Y-94911161D01*
X241523373Y-94873800D01*
X241523367Y-94873799D01*
X241518284Y-94872894D01*
X241444452Y-94871992D01*
X241300081Y-94870228D01*
X241300079Y-94870228D01*
X241294911Y-94870165D01*
X241074091Y-94903955D01*
X240861756Y-94973357D01*
X240663607Y-95076507D01*
X240659474Y-95079610D01*
X240659471Y-95079612D01*
X240489100Y-95207530D01*
X240484965Y-95210635D01*
X240481393Y-95214373D01*
X240348447Y-95353493D01*
X240330629Y-95372138D01*
X240223201Y-95529621D01*
X240168293Y-95574621D01*
X240097768Y-95582792D01*
X240034021Y-95551538D01*
X240013324Y-95527054D01*
X239932822Y-95402617D01*
X239932820Y-95402614D01*
X239930014Y-95398277D01*
X239779670Y-95233051D01*
X239775619Y-95229852D01*
X239775615Y-95229848D01*
X239608414Y-95097800D01*
X239608410Y-95097798D01*
X239604359Y-95094598D01*
X239568028Y-95074542D01*
X239521231Y-95048709D01*
X239408789Y-94986638D01*
X239403920Y-94984914D01*
X239403916Y-94984912D01*
X239203087Y-94913795D01*
X239203083Y-94913794D01*
X239198212Y-94912069D01*
X239193119Y-94911162D01*
X239193116Y-94911161D01*
X238983373Y-94873800D01*
X238983367Y-94873799D01*
X238978284Y-94872894D01*
X238904452Y-94871992D01*
X238760081Y-94870228D01*
X238760079Y-94870228D01*
X238754911Y-94870165D01*
X238534091Y-94903955D01*
X238321756Y-94973357D01*
X238123607Y-95076507D01*
X238119474Y-95079610D01*
X238119471Y-95079612D01*
X237949100Y-95207530D01*
X237944965Y-95210635D01*
X237941393Y-95214373D01*
X237808447Y-95353493D01*
X237790629Y-95372138D01*
X237683201Y-95529621D01*
X237628293Y-95574621D01*
X237557768Y-95582792D01*
X237494021Y-95551538D01*
X237473324Y-95527054D01*
X237392822Y-95402617D01*
X237392820Y-95402614D01*
X237390014Y-95398277D01*
X237239670Y-95233051D01*
X237235619Y-95229852D01*
X237235615Y-95229848D01*
X237068414Y-95097800D01*
X237068410Y-95097798D01*
X237064359Y-95094598D01*
X237028028Y-95074542D01*
X236981231Y-95048709D01*
X236868789Y-94986638D01*
X236863920Y-94984914D01*
X236863916Y-94984912D01*
X236663087Y-94913795D01*
X236663083Y-94913794D01*
X236658212Y-94912069D01*
X236653119Y-94911162D01*
X236653116Y-94911161D01*
X236443373Y-94873800D01*
X236443367Y-94873799D01*
X236438284Y-94872894D01*
X236364452Y-94871992D01*
X236220081Y-94870228D01*
X236220079Y-94870228D01*
X236214911Y-94870165D01*
X235994091Y-94903955D01*
X235781756Y-94973357D01*
X235583607Y-95076507D01*
X235579474Y-95079610D01*
X235579471Y-95079612D01*
X235409100Y-95207530D01*
X235404965Y-95210635D01*
X235401393Y-95214373D01*
X235268447Y-95353493D01*
X235250629Y-95372138D01*
X235143201Y-95529621D01*
X235088293Y-95574621D01*
X235017768Y-95582792D01*
X234954021Y-95551538D01*
X234933324Y-95527054D01*
X234852822Y-95402617D01*
X234852820Y-95402614D01*
X234850014Y-95398277D01*
X234699670Y-95233051D01*
X234695619Y-95229852D01*
X234695615Y-95229848D01*
X234528414Y-95097800D01*
X234528410Y-95097798D01*
X234524359Y-95094598D01*
X234488028Y-95074542D01*
X234441231Y-95048709D01*
X234328789Y-94986638D01*
X234323920Y-94984914D01*
X234323916Y-94984912D01*
X234123087Y-94913795D01*
X234123083Y-94913794D01*
X234118212Y-94912069D01*
X234113119Y-94911162D01*
X234113116Y-94911161D01*
X233903373Y-94873800D01*
X233903367Y-94873799D01*
X233898284Y-94872894D01*
X233824452Y-94871992D01*
X233680081Y-94870228D01*
X233680079Y-94870228D01*
X233674911Y-94870165D01*
X233454091Y-94903955D01*
X233241756Y-94973357D01*
X233043607Y-95076507D01*
X233039474Y-95079610D01*
X233039471Y-95079612D01*
X232869100Y-95207530D01*
X232864965Y-95210635D01*
X232861393Y-95214373D01*
X232728447Y-95353493D01*
X232710629Y-95372138D01*
X232603204Y-95529618D01*
X232602898Y-95530066D01*
X232547987Y-95575069D01*
X232477462Y-95583240D01*
X232413715Y-95551986D01*
X232393018Y-95527502D01*
X232312426Y-95402926D01*
X232306136Y-95394757D01*
X232162806Y-95237240D01*
X232155273Y-95230215D01*
X231988139Y-95098222D01*
X231979552Y-95092517D01*
X231793117Y-94989599D01*
X231783705Y-94985369D01*
X231582959Y-94914280D01*
X231572988Y-94911646D01*
X231501837Y-94898972D01*
X231488540Y-94900432D01*
X231484000Y-94914989D01*
X231484000Y-96358000D01*
X231463998Y-96426121D01*
X231410342Y-96472614D01*
X231358000Y-96484000D01*
X231102000Y-96484000D01*
X231033879Y-96463998D01*
X230987386Y-96410342D01*
X230976000Y-96358000D01*
X230976000Y-94913102D01*
X230972082Y-94899758D01*
X230957806Y-94897771D01*
X230919324Y-94903660D01*
X230909288Y-94906051D01*
X230706868Y-94972212D01*
X230697359Y-94976209D01*
X230508463Y-95074542D01*
X230499738Y-95080036D01*
X230329433Y-95207905D01*
X230321726Y-95214748D01*
X230174590Y-95368717D01*
X230168109Y-95376722D01*
X230063498Y-95530074D01*
X230008587Y-95575076D01*
X229938062Y-95583247D01*
X229874315Y-95551993D01*
X229853618Y-95527509D01*
X229772822Y-95402617D01*
X229772820Y-95402614D01*
X229770014Y-95398277D01*
X229619670Y-95233051D01*
X229615619Y-95229852D01*
X229615615Y-95229848D01*
X229448414Y-95097800D01*
X229448410Y-95097798D01*
X229444359Y-95094598D01*
X229408028Y-95074542D01*
X229361231Y-95048709D01*
X229248789Y-94986638D01*
X229243920Y-94984914D01*
X229243916Y-94984912D01*
X229043087Y-94913795D01*
X229043083Y-94913794D01*
X229038212Y-94912069D01*
X229033119Y-94911162D01*
X229033116Y-94911161D01*
X228823373Y-94873800D01*
X228823367Y-94873799D01*
X228818284Y-94872894D01*
X228744452Y-94871992D01*
X228600081Y-94870228D01*
X228600079Y-94870228D01*
X228594911Y-94870165D01*
X228374091Y-94903955D01*
X228161756Y-94973357D01*
X227963607Y-95076507D01*
X227959474Y-95079610D01*
X227959471Y-95079612D01*
X227789100Y-95207530D01*
X227784965Y-95210635D01*
X227781393Y-95214373D01*
X227648447Y-95353493D01*
X227630629Y-95372138D01*
X227523201Y-95529621D01*
X227468293Y-95574621D01*
X227397768Y-95582792D01*
X227334021Y-95551538D01*
X227313324Y-95527054D01*
X227232822Y-95402617D01*
X227232820Y-95402614D01*
X227230014Y-95398277D01*
X227079670Y-95233051D01*
X227075619Y-95229852D01*
X227075615Y-95229848D01*
X226908414Y-95097800D01*
X226908410Y-95097798D01*
X226904359Y-95094598D01*
X226868028Y-95074542D01*
X226821231Y-95048709D01*
X226708789Y-94986638D01*
X226703920Y-94984914D01*
X226703916Y-94984912D01*
X226503087Y-94913795D01*
X226503083Y-94913794D01*
X226498212Y-94912069D01*
X226493119Y-94911162D01*
X226493116Y-94911161D01*
X226283373Y-94873800D01*
X226283367Y-94873799D01*
X226278284Y-94872894D01*
X226204452Y-94871992D01*
X226060081Y-94870228D01*
X226060079Y-94870228D01*
X226054911Y-94870165D01*
X225834091Y-94903955D01*
X225621756Y-94973357D01*
X225423607Y-95076507D01*
X225419474Y-95079610D01*
X225419471Y-95079612D01*
X225249100Y-95207530D01*
X225244965Y-95210635D01*
X225241393Y-95214373D01*
X225108447Y-95353493D01*
X225090629Y-95372138D01*
X224983204Y-95529618D01*
X224982898Y-95530066D01*
X224927987Y-95575069D01*
X224857462Y-95583240D01*
X224793715Y-95551986D01*
X224773018Y-95527502D01*
X224692426Y-95402926D01*
X224686136Y-95394757D01*
X224542806Y-95237240D01*
X224535273Y-95230215D01*
X224368139Y-95098222D01*
X224359552Y-95092517D01*
X224173117Y-94989599D01*
X224163705Y-94985369D01*
X223962959Y-94914280D01*
X223952988Y-94911646D01*
X223881837Y-94898972D01*
X223868540Y-94900432D01*
X223864000Y-94914989D01*
X223864000Y-96358000D01*
X223843998Y-96426121D01*
X223790342Y-96472614D01*
X223738000Y-96484000D01*
X223482000Y-96484000D01*
X223413879Y-96463998D01*
X223367386Y-96410342D01*
X223356000Y-96358000D01*
X223356000Y-94913102D01*
X223352082Y-94899758D01*
X223337806Y-94897771D01*
X223299324Y-94903660D01*
X223289288Y-94906051D01*
X223086868Y-94972212D01*
X223077359Y-94976209D01*
X222888463Y-95074542D01*
X222879738Y-95080036D01*
X222709433Y-95207905D01*
X222701726Y-95214748D01*
X222554590Y-95368717D01*
X222548109Y-95376722D01*
X222443498Y-95530074D01*
X222388587Y-95575076D01*
X222318062Y-95583247D01*
X222254315Y-95551993D01*
X222233618Y-95527509D01*
X222152822Y-95402617D01*
X222152820Y-95402614D01*
X222150014Y-95398277D01*
X221999670Y-95233051D01*
X221995619Y-95229852D01*
X221995615Y-95229848D01*
X221828414Y-95097800D01*
X221828410Y-95097798D01*
X221824359Y-95094598D01*
X221788028Y-95074542D01*
X221741231Y-95048709D01*
X221628789Y-94986638D01*
X221623920Y-94984914D01*
X221623916Y-94984912D01*
X221423087Y-94913795D01*
X221423083Y-94913794D01*
X221418212Y-94912069D01*
X221413119Y-94911162D01*
X221413116Y-94911161D01*
X221203373Y-94873800D01*
X221203367Y-94873799D01*
X221198284Y-94872894D01*
X221124452Y-94871992D01*
X220980081Y-94870228D01*
X220980079Y-94870228D01*
X220974911Y-94870165D01*
X220754091Y-94903955D01*
X220541756Y-94973357D01*
X220343607Y-95076507D01*
X220339474Y-95079610D01*
X220339471Y-95079612D01*
X220169100Y-95207530D01*
X220164965Y-95210635D01*
X220161393Y-95214373D01*
X220028447Y-95353493D01*
X220010629Y-95372138D01*
X219903201Y-95529621D01*
X219848293Y-95574621D01*
X219777768Y-95582792D01*
X219714021Y-95551538D01*
X219693324Y-95527054D01*
X219612822Y-95402617D01*
X219612820Y-95402614D01*
X219610014Y-95398277D01*
X219459670Y-95233051D01*
X219455619Y-95229852D01*
X219455615Y-95229848D01*
X219288414Y-95097800D01*
X219288410Y-95097798D01*
X219284359Y-95094598D01*
X219248028Y-95074542D01*
X219201231Y-95048709D01*
X219088789Y-94986638D01*
X219083920Y-94984914D01*
X219083916Y-94984912D01*
X218883087Y-94913795D01*
X218883083Y-94913794D01*
X218878212Y-94912069D01*
X218873119Y-94911162D01*
X218873116Y-94911161D01*
X218663373Y-94873800D01*
X218663367Y-94873799D01*
X218658284Y-94872894D01*
X218584452Y-94871992D01*
X218440081Y-94870228D01*
X218440079Y-94870228D01*
X218434911Y-94870165D01*
X218214091Y-94903955D01*
X218001756Y-94973357D01*
X217803607Y-95076507D01*
X217799474Y-95079610D01*
X217799471Y-95079612D01*
X217629100Y-95207530D01*
X217624965Y-95210635D01*
X217621393Y-95214373D01*
X217488447Y-95353493D01*
X217470629Y-95372138D01*
X217363201Y-95529621D01*
X217308293Y-95574621D01*
X217237768Y-95582792D01*
X217174021Y-95551538D01*
X217153324Y-95527054D01*
X217072822Y-95402617D01*
X217072820Y-95402614D01*
X217070014Y-95398277D01*
X216919670Y-95233051D01*
X216915619Y-95229852D01*
X216915615Y-95229848D01*
X216748414Y-95097800D01*
X216748410Y-95097798D01*
X216744359Y-95094598D01*
X216708028Y-95074542D01*
X216661231Y-95048709D01*
X216548789Y-94986638D01*
X216543920Y-94984914D01*
X216543916Y-94984912D01*
X216343087Y-94913795D01*
X216343083Y-94913794D01*
X216338212Y-94912069D01*
X216333119Y-94911162D01*
X216333116Y-94911161D01*
X216123373Y-94873800D01*
X216123367Y-94873799D01*
X216118284Y-94872894D01*
X216044452Y-94871992D01*
X215900081Y-94870228D01*
X215900079Y-94870228D01*
X215894911Y-94870165D01*
X215674091Y-94903955D01*
X215461756Y-94973357D01*
X215263607Y-95076507D01*
X215259474Y-95079610D01*
X215259471Y-95079612D01*
X215089100Y-95207530D01*
X215084965Y-95210635D01*
X215081393Y-95214373D01*
X214948447Y-95353493D01*
X214930629Y-95372138D01*
X214823204Y-95529618D01*
X214822898Y-95530066D01*
X214767987Y-95575069D01*
X214697462Y-95583240D01*
X214633715Y-95551986D01*
X214613018Y-95527502D01*
X214532426Y-95402926D01*
X214526136Y-95394757D01*
X214382806Y-95237240D01*
X214375273Y-95230215D01*
X214208139Y-95098222D01*
X214199552Y-95092517D01*
X214013117Y-94989599D01*
X214003705Y-94985369D01*
X213802959Y-94914280D01*
X213792988Y-94911646D01*
X213721837Y-94898972D01*
X213708540Y-94900432D01*
X213704000Y-94914989D01*
X213704000Y-96358000D01*
X213683998Y-96426121D01*
X213630342Y-96472614D01*
X213578000Y-96484000D01*
X213322000Y-96484000D01*
X213253879Y-96463998D01*
X213207386Y-96410342D01*
X213196000Y-96358000D01*
X213196000Y-94913102D01*
X213192082Y-94899758D01*
X213177806Y-94897771D01*
X213139324Y-94903660D01*
X213129288Y-94906051D01*
X212926868Y-94972212D01*
X212917359Y-94976209D01*
X212728463Y-95074542D01*
X212719738Y-95080036D01*
X212549433Y-95207905D01*
X212541726Y-95214748D01*
X212394590Y-95368717D01*
X212388109Y-95376722D01*
X212283498Y-95530074D01*
X212228587Y-95575076D01*
X212158062Y-95583247D01*
X212094315Y-95551993D01*
X212073618Y-95527509D01*
X211992822Y-95402617D01*
X211992820Y-95402614D01*
X211990014Y-95398277D01*
X211839670Y-95233051D01*
X211835619Y-95229852D01*
X211835615Y-95229848D01*
X211668414Y-95097800D01*
X211668410Y-95097798D01*
X211664359Y-95094598D01*
X211628028Y-95074542D01*
X211581231Y-95048709D01*
X211468789Y-94986638D01*
X211463920Y-94984914D01*
X211463916Y-94984912D01*
X211263087Y-94913795D01*
X211263083Y-94913794D01*
X211258212Y-94912069D01*
X211253119Y-94911162D01*
X211253116Y-94911161D01*
X211043373Y-94873800D01*
X211043367Y-94873799D01*
X211038284Y-94872894D01*
X210964452Y-94871992D01*
X210820081Y-94870228D01*
X210820079Y-94870228D01*
X210814911Y-94870165D01*
X210594091Y-94903955D01*
X210381756Y-94973357D01*
X210183607Y-95076507D01*
X210179474Y-95079610D01*
X210179471Y-95079612D01*
X210009100Y-95207530D01*
X210004965Y-95210635D01*
X210001393Y-95214373D01*
X209868447Y-95353493D01*
X209850629Y-95372138D01*
X209743201Y-95529621D01*
X209688293Y-95574621D01*
X209617768Y-95582792D01*
X209554021Y-95551538D01*
X209533324Y-95527054D01*
X209452822Y-95402617D01*
X209452820Y-95402614D01*
X209450014Y-95398277D01*
X209299670Y-95233051D01*
X209295619Y-95229852D01*
X209295615Y-95229848D01*
X209128414Y-95097800D01*
X209128410Y-95097798D01*
X209124359Y-95094598D01*
X209088028Y-95074542D01*
X209041231Y-95048709D01*
X208928789Y-94986638D01*
X208923920Y-94984914D01*
X208923916Y-94984912D01*
X208723087Y-94913795D01*
X208723083Y-94913794D01*
X208718212Y-94912069D01*
X208713119Y-94911162D01*
X208713116Y-94911161D01*
X208503373Y-94873800D01*
X208503367Y-94873799D01*
X208498284Y-94872894D01*
X208424452Y-94871992D01*
X208280081Y-94870228D01*
X208280079Y-94870228D01*
X208274911Y-94870165D01*
X208054091Y-94903955D01*
X207841756Y-94973357D01*
X207643607Y-95076507D01*
X207639474Y-95079610D01*
X207639471Y-95079612D01*
X207469100Y-95207530D01*
X207464965Y-95210635D01*
X207461393Y-95214373D01*
X207328447Y-95353493D01*
X207310629Y-95372138D01*
X207184743Y-95556680D01*
X207145371Y-95641500D01*
X207110877Y-95715812D01*
X207090688Y-95759305D01*
X207030989Y-95974570D01*
X207007251Y-96196695D01*
X207007548Y-96201848D01*
X207007548Y-96201851D01*
X207016552Y-96358000D01*
X207020110Y-96419715D01*
X207021247Y-96424761D01*
X207021248Y-96424767D01*
X207042275Y-96518069D01*
X207069222Y-96637639D01*
X207153266Y-96844616D01*
X207201311Y-96923019D01*
X207267291Y-97030688D01*
X207269987Y-97035088D01*
X207273367Y-97038990D01*
X207275618Y-97041589D01*
X207416250Y-97203938D01*
X207420230Y-97207242D01*
X207424981Y-97211187D01*
X207464616Y-97270090D01*
X207466113Y-97341071D01*
X207428997Y-97401593D01*
X207388725Y-97426112D01*
X207347913Y-97441412D01*
X207273295Y-97469385D01*
X207156739Y-97556739D01*
X207069385Y-97673295D01*
X207018255Y-97809684D01*
X207011500Y-97871866D01*
X207011500Y-99668134D01*
X207018255Y-99730316D01*
X207069385Y-99866705D01*
X207156739Y-99983261D01*
X207273295Y-100070615D01*
X207409684Y-100121745D01*
X207471866Y-100128500D01*
X208603629Y-100128500D01*
X208671750Y-100148502D01*
X208692724Y-100165405D01*
X209065722Y-100538403D01*
X209099748Y-100600715D01*
X209094683Y-100671530D01*
X209052136Y-100728366D01*
X208985616Y-100753177D01*
X208956377Y-100751859D01*
X208916941Y-100745437D01*
X208908305Y-100744030D01*
X208908303Y-100744030D01*
X208903693Y-100743279D01*
X208789942Y-100741790D01*
X208647022Y-100739919D01*
X208647019Y-100739919D01*
X208642345Y-100739858D01*
X208383362Y-100775104D01*
X208378876Y-100776412D01*
X208378874Y-100776412D01*
X208314340Y-100795222D01*
X208132433Y-100848243D01*
X208128180Y-100850203D01*
X208128179Y-100850204D01*
X208091659Y-100867040D01*
X207895072Y-100957668D01*
X207860042Y-100980635D01*
X207680404Y-101098410D01*
X207680399Y-101098414D01*
X207676491Y-101100976D01*
X207481494Y-101275018D01*
X207314363Y-101475970D01*
X207281094Y-101530797D01*
X207278244Y-101535493D01*
X207225805Y-101583354D01*
X207155815Y-101595266D01*
X207090495Y-101567448D01*
X207058559Y-101527918D01*
X207023978Y-101460919D01*
X207023978Y-101460918D01*
X207022013Y-101457112D01*
X207014753Y-101446781D01*
X206920245Y-101312311D01*
X206864545Y-101233057D01*
X206749094Y-101108817D01*
X206681046Y-101035588D01*
X206681043Y-101035585D01*
X206678125Y-101032445D01*
X206674810Y-101029731D01*
X206674806Y-101029728D01*
X206473517Y-100864975D01*
X206466205Y-100858990D01*
X206277381Y-100743279D01*
X206236366Y-100718145D01*
X206236365Y-100718145D01*
X206232704Y-100715901D01*
X206221815Y-100711121D01*
X205985873Y-100607549D01*
X205985869Y-100607548D01*
X205981945Y-100605825D01*
X205718566Y-100530800D01*
X205714324Y-100530196D01*
X205714318Y-100530195D01*
X205513834Y-100501662D01*
X205447443Y-100492213D01*
X205303589Y-100491460D01*
X205177877Y-100490802D01*
X205177871Y-100490802D01*
X205173591Y-100490780D01*
X205169347Y-100491339D01*
X205169343Y-100491339D01*
X205050302Y-100507011D01*
X204902078Y-100526525D01*
X204897938Y-100527658D01*
X204897936Y-100527658D01*
X204874801Y-100533987D01*
X204637928Y-100598788D01*
X204633980Y-100600472D01*
X204389982Y-100704546D01*
X204389978Y-100704548D01*
X204386030Y-100706232D01*
X204300267Y-100757560D01*
X204154725Y-100844664D01*
X204154721Y-100844667D01*
X204151043Y-100846868D01*
X203937318Y-101018094D01*
X203843585Y-101116868D01*
X203761924Y-101202921D01*
X203748808Y-101216742D01*
X203589002Y-101439136D01*
X203460857Y-101681161D01*
X203459385Y-101685184D01*
X203459383Y-101685188D01*
X203415128Y-101806119D01*
X203366743Y-101938337D01*
X203308404Y-102205907D01*
X203286917Y-102478918D01*
X203302682Y-102752320D01*
X203303507Y-102756525D01*
X203303508Y-102756533D01*
X203322154Y-102851572D01*
X203355405Y-103021053D01*
X203356792Y-103025103D01*
X203356793Y-103025108D01*
X203439316Y-103266137D01*
X203444112Y-103280144D01*
X203567160Y-103524799D01*
X203569590Y-103528334D01*
X203587054Y-103553745D01*
X203609154Y-103621214D01*
X203591268Y-103689921D01*
X203539077Y-103738052D01*
X203481675Y-103751103D01*
X203443898Y-103750641D01*
X203410080Y-103750228D01*
X203410078Y-103750228D01*
X203404911Y-103750165D01*
X203184091Y-103783955D01*
X202971756Y-103853357D01*
X202967164Y-103855747D01*
X202967165Y-103855747D01*
X202826248Y-103929104D01*
X202773607Y-103956507D01*
X202769474Y-103959610D01*
X202769471Y-103959612D01*
X202643617Y-104054106D01*
X202594965Y-104090635D01*
X202591393Y-104094373D01*
X202445568Y-104246970D01*
X202440629Y-104252138D01*
X202314743Y-104436680D01*
X202280747Y-104509918D01*
X202225703Y-104628502D01*
X202220688Y-104639305D01*
X202160989Y-104854570D01*
X202137251Y-105076695D01*
X202137548Y-105081848D01*
X202137548Y-105081851D01*
X202149503Y-105289189D01*
X202150110Y-105299715D01*
X202151247Y-105304761D01*
X202151248Y-105304767D01*
X202172275Y-105398069D01*
X202199222Y-105517639D01*
X202283266Y-105724616D01*
X202399987Y-105915088D01*
X202546250Y-106083938D01*
X202718126Y-106226632D01*
X202766816Y-106255084D01*
X202791445Y-106269476D01*
X202840169Y-106321114D01*
X202853240Y-106390897D01*
X202826509Y-106456669D01*
X202786055Y-106490027D01*
X202773607Y-106496507D01*
X202769474Y-106499610D01*
X202769471Y-106499612D01*
X202599100Y-106627530D01*
X202594965Y-106630635D01*
X202440629Y-106792138D01*
X202314743Y-106976680D01*
X202283023Y-107045016D01*
X202231839Y-107155283D01*
X202220688Y-107179305D01*
X202160989Y-107394570D01*
X202137251Y-107616695D01*
X202137548Y-107621848D01*
X202137548Y-107621851D01*
X202147330Y-107791500D01*
X202150110Y-107839715D01*
X202151247Y-107844761D01*
X202151248Y-107844767D01*
X202166572Y-107912763D01*
X202199222Y-108057639D01*
X202237461Y-108151811D01*
X202276208Y-108247233D01*
X202283266Y-108264616D01*
X202301790Y-108294845D01*
X202381365Y-108424699D01*
X202399987Y-108455088D01*
X202546250Y-108623938D01*
X202718126Y-108766632D01*
X202755058Y-108788213D01*
X202791445Y-108809476D01*
X202840169Y-108861114D01*
X202853240Y-108930897D01*
X202826509Y-108996669D01*
X202786055Y-109030027D01*
X202773607Y-109036507D01*
X202769474Y-109039610D01*
X202769471Y-109039612D01*
X202611596Y-109158148D01*
X202594965Y-109170635D01*
X202554229Y-109213263D01*
X202454378Y-109317751D01*
X202440629Y-109332138D01*
X202437715Y-109336410D01*
X202437714Y-109336411D01*
X202387364Y-109410222D01*
X202314743Y-109516680D01*
X202286331Y-109577889D01*
X202226602Y-109706565D01*
X202220688Y-109719305D01*
X202160989Y-109934570D01*
X202137251Y-110156695D01*
X200508000Y-110156695D01*
X200508000Y-97542277D01*
X201637009Y-97542277D01*
X201662625Y-97810769D01*
X201663710Y-97815203D01*
X201663711Y-97815209D01*
X201725337Y-98067054D01*
X201726731Y-98072750D01*
X201827985Y-98322733D01*
X201830294Y-98326676D01*
X201933505Y-98502947D01*
X201964265Y-98555482D01*
X202033455Y-98642000D01*
X202084686Y-98706060D01*
X202132716Y-98766119D01*
X202329809Y-98950234D01*
X202551416Y-99103968D01*
X202555499Y-99105999D01*
X202555502Y-99106001D01*
X202671013Y-99163466D01*
X202792894Y-99224101D01*
X202797228Y-99225522D01*
X202797231Y-99225523D01*
X203044853Y-99306698D01*
X203044859Y-99306699D01*
X203049186Y-99308118D01*
X203053677Y-99308898D01*
X203053678Y-99308898D01*
X203311140Y-99353601D01*
X203311148Y-99353602D01*
X203314921Y-99354257D01*
X203318758Y-99354448D01*
X203398578Y-99358422D01*
X203398586Y-99358422D01*
X203400149Y-99358500D01*
X203568512Y-99358500D01*
X203570780Y-99358335D01*
X203570792Y-99358335D01*
X203701884Y-99348823D01*
X203769004Y-99343953D01*
X203773459Y-99342969D01*
X203773462Y-99342969D01*
X204027912Y-99286791D01*
X204027916Y-99286790D01*
X204032372Y-99285806D01*
X204158480Y-99238028D01*
X204280318Y-99191868D01*
X204280321Y-99191867D01*
X204284588Y-99190250D01*
X204520368Y-99059286D01*
X204734773Y-98895657D01*
X204923312Y-98702792D01*
X205082034Y-98484730D01*
X205165190Y-98326676D01*
X205205490Y-98250079D01*
X205205493Y-98250073D01*
X205207615Y-98246039D01*
X205248306Y-98130814D01*
X205295902Y-97996033D01*
X205295902Y-97996032D01*
X205297425Y-97991720D01*
X205330129Y-97825791D01*
X205348700Y-97731572D01*
X205348701Y-97731566D01*
X205349581Y-97727100D01*
X205351841Y-97681703D01*
X205362764Y-97462292D01*
X205362764Y-97462286D01*
X205362991Y-97457723D01*
X205337375Y-97189231D01*
X205319655Y-97116812D01*
X205274355Y-96931688D01*
X205273269Y-96927250D01*
X205172015Y-96677267D01*
X205035735Y-96444518D01*
X204917434Y-96296590D01*
X204870136Y-96237447D01*
X204870135Y-96237445D01*
X204867284Y-96233881D01*
X204670191Y-96049766D01*
X204448584Y-95896032D01*
X204444501Y-95894001D01*
X204444498Y-95893999D01*
X204279606Y-95811967D01*
X204207106Y-95775899D01*
X204202772Y-95774478D01*
X204202769Y-95774477D01*
X203955147Y-95693302D01*
X203955141Y-95693301D01*
X203950814Y-95691882D01*
X203946322Y-95691102D01*
X203688860Y-95646399D01*
X203688852Y-95646398D01*
X203685079Y-95645743D01*
X203673817Y-95645182D01*
X203601422Y-95641578D01*
X203601414Y-95641578D01*
X203599851Y-95641500D01*
X203431488Y-95641500D01*
X203429220Y-95641665D01*
X203429208Y-95641665D01*
X203298116Y-95651177D01*
X203230996Y-95656047D01*
X203226541Y-95657031D01*
X203226538Y-95657031D01*
X202972088Y-95713209D01*
X202972084Y-95713210D01*
X202967628Y-95714194D01*
X202895803Y-95741406D01*
X202719682Y-95808132D01*
X202719679Y-95808133D01*
X202715412Y-95809750D01*
X202479632Y-95940714D01*
X202265227Y-96104343D01*
X202262034Y-96107609D01*
X202262032Y-96107611D01*
X202246406Y-96123596D01*
X202076688Y-96297208D01*
X201917966Y-96515270D01*
X201915844Y-96519304D01*
X201794510Y-96749921D01*
X201794507Y-96749927D01*
X201792385Y-96753961D01*
X201790865Y-96758266D01*
X201790863Y-96758270D01*
X201709927Y-96987461D01*
X201702575Y-97008280D01*
X201696010Y-97041589D01*
X201651478Y-97267529D01*
X201650419Y-97272900D01*
X201650192Y-97277453D01*
X201650192Y-97277456D01*
X201637788Y-97526638D01*
X201637009Y-97542277D01*
X200508000Y-97542277D01*
X200508000Y-97049328D01*
X200509500Y-97029943D01*
X200511805Y-97015142D01*
X200511805Y-97015139D01*
X200513186Y-97006270D01*
X200510941Y-96989101D01*
X200510108Y-96965161D01*
X200525710Y-96707230D01*
X200527544Y-96692126D01*
X200559441Y-96518069D01*
X200579040Y-96411121D01*
X200582679Y-96396353D01*
X200594631Y-96358000D01*
X200667675Y-96123592D01*
X200673070Y-96109370D01*
X200673862Y-96107611D01*
X200790316Y-95848860D01*
X200797385Y-95835391D01*
X200945182Y-95590905D01*
X200953825Y-95578383D01*
X201130016Y-95353493D01*
X201140106Y-95342105D01*
X201342105Y-95140106D01*
X201353493Y-95130016D01*
X201578383Y-94953825D01*
X201590905Y-94945182D01*
X201835391Y-94797385D01*
X201848860Y-94790316D01*
X202109373Y-94673069D01*
X202123592Y-94667675D01*
X202396359Y-94582678D01*
X202411121Y-94579040D01*
X202621352Y-94540514D01*
X202692126Y-94527544D01*
X202707230Y-94525710D01*
X202957929Y-94510545D01*
X202984639Y-94511802D01*
X202984859Y-94511805D01*
X202993730Y-94513186D01*
X203002632Y-94512022D01*
X203002635Y-94512022D01*
X203025251Y-94509064D01*
X203041589Y-94508000D01*
X261950672Y-94508000D01*
X261970057Y-94509500D01*
G37*
G04 #@! TD.AperFunction*
G04 #@! TA.AperFunction,Conductor*
G36*
X215274121Y-101478991D02*
G01*
X215320614Y-101532647D01*
X215332000Y-101584989D01*
X215332000Y-101727885D01*
X215336475Y-101743124D01*
X215337865Y-101744329D01*
X215345548Y-101746000D01*
X216818000Y-101746000D01*
X216886121Y-101766002D01*
X216932614Y-101819658D01*
X216944000Y-101872000D01*
X216944000Y-102128000D01*
X216923998Y-102196121D01*
X216870342Y-102242614D01*
X216818000Y-102254000D01*
X215350116Y-102254000D01*
X215334877Y-102258475D01*
X215333672Y-102259865D01*
X215332001Y-102267548D01*
X215332001Y-102894669D01*
X215332370Y-102901488D01*
X215338031Y-102953601D01*
X215325502Y-103023483D01*
X215277181Y-103075498D01*
X215229012Y-103091496D01*
X215229013Y-103091500D01*
X215042212Y-103131206D01*
X215036182Y-103133891D01*
X215036181Y-103133891D01*
X214873778Y-103206197D01*
X214873776Y-103206198D01*
X214867748Y-103208882D01*
X214862407Y-103212762D01*
X214862406Y-103212763D01*
X214812343Y-103249136D01*
X214713247Y-103321134D01*
X214709149Y-103325685D01*
X214645302Y-103356325D01*
X214574849Y-103347560D01*
X214540907Y-103325747D01*
X214536753Y-103321134D01*
X214437657Y-103249136D01*
X214387594Y-103212763D01*
X214387593Y-103212762D01*
X214382252Y-103208882D01*
X214376224Y-103206198D01*
X214376222Y-103206197D01*
X214213819Y-103133891D01*
X214213818Y-103133891D01*
X214207788Y-103131206D01*
X214114388Y-103111353D01*
X214027444Y-103092872D01*
X214027439Y-103092872D01*
X214020987Y-103091500D01*
X213830013Y-103091500D01*
X213823561Y-103092872D01*
X213823556Y-103092872D01*
X213736612Y-103111353D01*
X213643212Y-103131206D01*
X213637182Y-103133891D01*
X213637181Y-103133891D01*
X213474778Y-103206197D01*
X213474776Y-103206198D01*
X213468748Y-103208882D01*
X213463407Y-103212762D01*
X213463406Y-103212763D01*
X213350857Y-103294535D01*
X213314247Y-103321134D01*
X213309834Y-103326036D01*
X213309832Y-103326037D01*
X213288426Y-103349811D01*
X213227980Y-103387050D01*
X213194790Y-103391500D01*
X210472134Y-103391500D01*
X210404013Y-103371498D01*
X210357520Y-103317842D01*
X210347416Y-103247568D01*
X210357252Y-103213749D01*
X210359445Y-103208882D01*
X210407083Y-103103129D01*
X210465080Y-102897488D01*
X210476760Y-102856076D01*
X210476761Y-102856073D01*
X210478030Y-102851572D01*
X210496422Y-102706994D01*
X210510616Y-102595421D01*
X210510616Y-102595417D01*
X210511014Y-102592291D01*
X210513431Y-102500000D01*
X210501991Y-102346056D01*
X210494407Y-102244000D01*
X210494406Y-102243996D01*
X210494061Y-102239348D01*
X210492185Y-102231055D01*
X210447092Y-102031777D01*
X210436377Y-101984423D01*
X210426340Y-101958612D01*
X210343340Y-101745176D01*
X210343339Y-101745173D01*
X210341647Y-101740823D01*
X210288314Y-101647510D01*
X210271878Y-101578445D01*
X210295391Y-101511455D01*
X210351389Y-101467812D01*
X210397708Y-101458989D01*
X215206000Y-101458989D01*
X215274121Y-101478991D01*
G37*
G04 #@! TD.AperFunction*
M02*
