G04 #@! TF.GenerationSoftware,KiCad,Pcbnew,(5.1.12)-1*
G04 #@! TF.CreationDate,2021-12-15T14:48:57-06:00*
G04 #@! TF.ProjectId,ctrl_board,6374726c-5f62-46f6-9172-642e6b696361,rev?*
G04 #@! TF.SameCoordinates,Original*
G04 #@! TF.FileFunction,Copper,L2,Bot*
G04 #@! TF.FilePolarity,Positive*
%FSLAX46Y46*%
G04 Gerber Fmt 4.6, Leading zero omitted, Abs format (unit mm)*
G04 Created by KiCad (PCBNEW (5.1.12)-1) date 2021-12-15 14:48:57*
%MOMM*%
%LPD*%
G01*
G04 APERTURE LIST*
G04 #@! TA.AperFunction,NonConductor*
%ADD10C,0.100000*%
G04 #@! TD*
G04 #@! TA.AperFunction,EtchedComponent*
%ADD11C,0.150000*%
G04 #@! TD*
G04 #@! TA.AperFunction,ComponentPad*
%ADD12C,2.000000*%
G04 #@! TD*
G04 #@! TA.AperFunction,ComponentPad*
%ADD13R,1.700000X1.700000*%
G04 #@! TD*
G04 #@! TA.AperFunction,ComponentPad*
%ADD14O,1.700000X1.700000*%
G04 #@! TD*
G04 #@! TA.AperFunction,SMDPad,CuDef*
%ADD15C,0.150000*%
G04 #@! TD*
G04 #@! TA.AperFunction,SMDPad,CuDef*
%ADD16R,1.500000X1.000000*%
G04 #@! TD*
G04 #@! TA.AperFunction,ComponentPad*
%ADD17R,2.000000X2.000000*%
G04 #@! TD*
G04 #@! TA.AperFunction,ComponentPad*
%ADD18R,2.000000X3.200000*%
G04 #@! TD*
G04 #@! TA.AperFunction,ViaPad*
%ADD19C,0.500000*%
G04 #@! TD*
G04 #@! TA.AperFunction,Conductor*
%ADD20C,0.400000*%
G04 #@! TD*
G04 #@! TA.AperFunction,Conductor*
%ADD21C,0.200000*%
G04 #@! TD*
G04 #@! TA.AperFunction,Conductor*
%ADD22C,0.254000*%
G04 #@! TD*
G04 #@! TA.AperFunction,Conductor*
%ADD23C,0.150000*%
G04 #@! TD*
G04 APERTURE END LIST*
D10*
X259766666Y-122828571D02*
X259623809Y-122876190D01*
X259576190Y-122923809D01*
X259528571Y-123019047D01*
X259528571Y-123161904D01*
X259576190Y-123257142D01*
X259623809Y-123304761D01*
X259719047Y-123352380D01*
X260100000Y-123352380D01*
X260100000Y-122352380D01*
X259766666Y-122352380D01*
X259671428Y-122400000D01*
X259623809Y-122447619D01*
X259576190Y-122542857D01*
X259576190Y-122638095D01*
X259623809Y-122733333D01*
X259671428Y-122780952D01*
X259766666Y-122828571D01*
X260100000Y-122828571D01*
X259147619Y-123066666D02*
X258671428Y-123066666D01*
X259242857Y-123352380D02*
X258909523Y-122352380D01*
X258576190Y-123352380D01*
X258242857Y-123352380D02*
X258242857Y-122352380D01*
X258004761Y-122352380D01*
X257861904Y-122400000D01*
X257766666Y-122495238D01*
X257719047Y-122590476D01*
X257671428Y-122780952D01*
X257671428Y-122923809D01*
X257719047Y-123114285D01*
X257766666Y-123209523D01*
X257861904Y-123304761D01*
X258004761Y-123352380D01*
X258242857Y-123352380D01*
X256576190Y-122352380D02*
X256338095Y-123352380D01*
X256147619Y-122638095D01*
X255957142Y-123352380D01*
X255719047Y-122352380D01*
X255147619Y-122352380D02*
X254957142Y-122352380D01*
X254861904Y-122400000D01*
X254766666Y-122495238D01*
X254719047Y-122685714D01*
X254719047Y-123019047D01*
X254766666Y-123209523D01*
X254861904Y-123304761D01*
X254957142Y-123352380D01*
X255147619Y-123352380D01*
X255242857Y-123304761D01*
X255338095Y-123209523D01*
X255385714Y-123019047D01*
X255385714Y-122685714D01*
X255338095Y-122495238D01*
X255242857Y-122400000D01*
X255147619Y-122352380D01*
X253814285Y-123352380D02*
X254290476Y-123352380D01*
X254290476Y-122352380D01*
X253147619Y-122828571D02*
X253480952Y-122828571D01*
X253480952Y-123352380D02*
X253480952Y-122352380D01*
X253004761Y-122352380D01*
D11*
G36*
X212873000Y-122071000D02*
G01*
X212873000Y-121571000D01*
X212273000Y-121571000D01*
X212273000Y-122071000D01*
X212873000Y-122071000D01*
G37*
G36*
X216016250Y-122071000D02*
G01*
X216016250Y-121571000D01*
X215416250Y-121571000D01*
X215416250Y-122071000D01*
X216016250Y-122071000D01*
G37*
G36*
X219159500Y-122071000D02*
G01*
X219159500Y-121571000D01*
X218559500Y-121571000D01*
X218559500Y-122071000D01*
X219159500Y-122071000D01*
G37*
D12*
X207390000Y-125200000D03*
X230940000Y-125200000D03*
X207390000Y-102000000D03*
X230940000Y-102000000D03*
D13*
X215380000Y-102000000D03*
D14*
X217920000Y-102000000D03*
X220460000Y-102000000D03*
X223000000Y-102000000D03*
X263182500Y-115265500D03*
X260642500Y-115265500D03*
X263182500Y-112725500D03*
X260642500Y-112725500D03*
X263182500Y-110185500D03*
X260642500Y-110185500D03*
X263182500Y-107645500D03*
X260642500Y-107645500D03*
X263182500Y-105105500D03*
X260642500Y-105105500D03*
X263182500Y-102565500D03*
D13*
X260642500Y-102565500D03*
G04 #@! TA.AperFunction,SMDPad,CuDef*
G36*
G01*
X215375000Y-107875000D02*
X215175000Y-107875000D01*
G75*
G02*
X215075000Y-107775000I0J100000D01*
G01*
X215075000Y-106500000D01*
G75*
G02*
X215175000Y-106400000I100000J0D01*
G01*
X215375000Y-106400000D01*
G75*
G02*
X215475000Y-106500000I0J-100000D01*
G01*
X215475000Y-107775000D01*
G75*
G02*
X215375000Y-107875000I-100000J0D01*
G01*
G37*
G04 #@! TD.AperFunction*
G04 #@! TA.AperFunction,SMDPad,CuDef*
G36*
G01*
X214725000Y-107875000D02*
X214525000Y-107875000D01*
G75*
G02*
X214425000Y-107775000I0J100000D01*
G01*
X214425000Y-106500000D01*
G75*
G02*
X214525000Y-106400000I100000J0D01*
G01*
X214725000Y-106400000D01*
G75*
G02*
X214825000Y-106500000I0J-100000D01*
G01*
X214825000Y-107775000D01*
G75*
G02*
X214725000Y-107875000I-100000J0D01*
G01*
G37*
G04 #@! TD.AperFunction*
G04 #@! TA.AperFunction,SMDPad,CuDef*
G36*
G01*
X214075000Y-107875000D02*
X213875000Y-107875000D01*
G75*
G02*
X213775000Y-107775000I0J100000D01*
G01*
X213775000Y-106500000D01*
G75*
G02*
X213875000Y-106400000I100000J0D01*
G01*
X214075000Y-106400000D01*
G75*
G02*
X214175000Y-106500000I0J-100000D01*
G01*
X214175000Y-107775000D01*
G75*
G02*
X214075000Y-107875000I-100000J0D01*
G01*
G37*
G04 #@! TD.AperFunction*
G04 #@! TA.AperFunction,SMDPad,CuDef*
G36*
G01*
X213425000Y-107875000D02*
X213225000Y-107875000D01*
G75*
G02*
X213125000Y-107775000I0J100000D01*
G01*
X213125000Y-106500000D01*
G75*
G02*
X213225000Y-106400000I100000J0D01*
G01*
X213425000Y-106400000D01*
G75*
G02*
X213525000Y-106500000I0J-100000D01*
G01*
X213525000Y-107775000D01*
G75*
G02*
X213425000Y-107875000I-100000J0D01*
G01*
G37*
G04 #@! TD.AperFunction*
G04 #@! TA.AperFunction,SMDPad,CuDef*
G36*
G01*
X212775000Y-107875000D02*
X212575000Y-107875000D01*
G75*
G02*
X212475000Y-107775000I0J100000D01*
G01*
X212475000Y-106500000D01*
G75*
G02*
X212575000Y-106400000I100000J0D01*
G01*
X212775000Y-106400000D01*
G75*
G02*
X212875000Y-106500000I0J-100000D01*
G01*
X212875000Y-107775000D01*
G75*
G02*
X212775000Y-107875000I-100000J0D01*
G01*
G37*
G04 #@! TD.AperFunction*
G04 #@! TA.AperFunction,SMDPad,CuDef*
G36*
G01*
X212125000Y-107875000D02*
X211925000Y-107875000D01*
G75*
G02*
X211825000Y-107775000I0J100000D01*
G01*
X211825000Y-106500000D01*
G75*
G02*
X211925000Y-106400000I100000J0D01*
G01*
X212125000Y-106400000D01*
G75*
G02*
X212225000Y-106500000I0J-100000D01*
G01*
X212225000Y-107775000D01*
G75*
G02*
X212125000Y-107875000I-100000J0D01*
G01*
G37*
G04 #@! TD.AperFunction*
G04 #@! TA.AperFunction,SMDPad,CuDef*
G36*
G01*
X211475000Y-107875000D02*
X211275000Y-107875000D01*
G75*
G02*
X211175000Y-107775000I0J100000D01*
G01*
X211175000Y-106500000D01*
G75*
G02*
X211275000Y-106400000I100000J0D01*
G01*
X211475000Y-106400000D01*
G75*
G02*
X211575000Y-106500000I0J-100000D01*
G01*
X211575000Y-107775000D01*
G75*
G02*
X211475000Y-107875000I-100000J0D01*
G01*
G37*
G04 #@! TD.AperFunction*
G04 #@! TA.AperFunction,SMDPad,CuDef*
G36*
G01*
X210825000Y-107875000D02*
X210625000Y-107875000D01*
G75*
G02*
X210525000Y-107775000I0J100000D01*
G01*
X210525000Y-106500000D01*
G75*
G02*
X210625000Y-106400000I100000J0D01*
G01*
X210825000Y-106400000D01*
G75*
G02*
X210925000Y-106500000I0J-100000D01*
G01*
X210925000Y-107775000D01*
G75*
G02*
X210825000Y-107875000I-100000J0D01*
G01*
G37*
G04 #@! TD.AperFunction*
G04 #@! TA.AperFunction,SMDPad,CuDef*
G36*
G01*
X210825000Y-113600000D02*
X210625000Y-113600000D01*
G75*
G02*
X210525000Y-113500000I0J100000D01*
G01*
X210525000Y-112225000D01*
G75*
G02*
X210625000Y-112125000I100000J0D01*
G01*
X210825000Y-112125000D01*
G75*
G02*
X210925000Y-112225000I0J-100000D01*
G01*
X210925000Y-113500000D01*
G75*
G02*
X210825000Y-113600000I-100000J0D01*
G01*
G37*
G04 #@! TD.AperFunction*
G04 #@! TA.AperFunction,SMDPad,CuDef*
G36*
G01*
X211475000Y-113600000D02*
X211275000Y-113600000D01*
G75*
G02*
X211175000Y-113500000I0J100000D01*
G01*
X211175000Y-112225000D01*
G75*
G02*
X211275000Y-112125000I100000J0D01*
G01*
X211475000Y-112125000D01*
G75*
G02*
X211575000Y-112225000I0J-100000D01*
G01*
X211575000Y-113500000D01*
G75*
G02*
X211475000Y-113600000I-100000J0D01*
G01*
G37*
G04 #@! TD.AperFunction*
G04 #@! TA.AperFunction,SMDPad,CuDef*
G36*
G01*
X212125000Y-113600000D02*
X211925000Y-113600000D01*
G75*
G02*
X211825000Y-113500000I0J100000D01*
G01*
X211825000Y-112225000D01*
G75*
G02*
X211925000Y-112125000I100000J0D01*
G01*
X212125000Y-112125000D01*
G75*
G02*
X212225000Y-112225000I0J-100000D01*
G01*
X212225000Y-113500000D01*
G75*
G02*
X212125000Y-113600000I-100000J0D01*
G01*
G37*
G04 #@! TD.AperFunction*
G04 #@! TA.AperFunction,SMDPad,CuDef*
G36*
G01*
X212775000Y-113600000D02*
X212575000Y-113600000D01*
G75*
G02*
X212475000Y-113500000I0J100000D01*
G01*
X212475000Y-112225000D01*
G75*
G02*
X212575000Y-112125000I100000J0D01*
G01*
X212775000Y-112125000D01*
G75*
G02*
X212875000Y-112225000I0J-100000D01*
G01*
X212875000Y-113500000D01*
G75*
G02*
X212775000Y-113600000I-100000J0D01*
G01*
G37*
G04 #@! TD.AperFunction*
G04 #@! TA.AperFunction,SMDPad,CuDef*
G36*
G01*
X213425000Y-113600000D02*
X213225000Y-113600000D01*
G75*
G02*
X213125000Y-113500000I0J100000D01*
G01*
X213125000Y-112225000D01*
G75*
G02*
X213225000Y-112125000I100000J0D01*
G01*
X213425000Y-112125000D01*
G75*
G02*
X213525000Y-112225000I0J-100000D01*
G01*
X213525000Y-113500000D01*
G75*
G02*
X213425000Y-113600000I-100000J0D01*
G01*
G37*
G04 #@! TD.AperFunction*
G04 #@! TA.AperFunction,SMDPad,CuDef*
G36*
G01*
X214075000Y-113600000D02*
X213875000Y-113600000D01*
G75*
G02*
X213775000Y-113500000I0J100000D01*
G01*
X213775000Y-112225000D01*
G75*
G02*
X213875000Y-112125000I100000J0D01*
G01*
X214075000Y-112125000D01*
G75*
G02*
X214175000Y-112225000I0J-100000D01*
G01*
X214175000Y-113500000D01*
G75*
G02*
X214075000Y-113600000I-100000J0D01*
G01*
G37*
G04 #@! TD.AperFunction*
G04 #@! TA.AperFunction,SMDPad,CuDef*
G36*
G01*
X214725000Y-113600000D02*
X214525000Y-113600000D01*
G75*
G02*
X214425000Y-113500000I0J100000D01*
G01*
X214425000Y-112225000D01*
G75*
G02*
X214525000Y-112125000I100000J0D01*
G01*
X214725000Y-112125000D01*
G75*
G02*
X214825000Y-112225000I0J-100000D01*
G01*
X214825000Y-113500000D01*
G75*
G02*
X214725000Y-113600000I-100000J0D01*
G01*
G37*
G04 #@! TD.AperFunction*
G04 #@! TA.AperFunction,SMDPad,CuDef*
G36*
G01*
X215375000Y-113600000D02*
X215175000Y-113600000D01*
G75*
G02*
X215075000Y-113500000I0J100000D01*
G01*
X215075000Y-112225000D01*
G75*
G02*
X215175000Y-112125000I100000J0D01*
G01*
X215375000Y-112125000D01*
G75*
G02*
X215475000Y-112225000I0J-100000D01*
G01*
X215475000Y-113500000D01*
G75*
G02*
X215375000Y-113600000I-100000J0D01*
G01*
G37*
G04 #@! TD.AperFunction*
G04 #@! TA.AperFunction,SMDPad,CuDef*
D15*
G36*
X213323000Y-121921000D02*
G01*
X213323000Y-122471000D01*
X213322398Y-122471000D01*
X213322398Y-122495534D01*
X213317588Y-122544365D01*
X213308016Y-122592490D01*
X213293772Y-122639445D01*
X213274995Y-122684778D01*
X213251864Y-122728051D01*
X213224604Y-122768850D01*
X213193476Y-122806779D01*
X213158779Y-122841476D01*
X213120850Y-122872604D01*
X213080051Y-122899864D01*
X213036778Y-122922995D01*
X212991445Y-122941772D01*
X212944490Y-122956016D01*
X212896365Y-122965588D01*
X212847534Y-122970398D01*
X212823000Y-122970398D01*
X212823000Y-122971000D01*
X212323000Y-122971000D01*
X212323000Y-122970398D01*
X212298466Y-122970398D01*
X212249635Y-122965588D01*
X212201510Y-122956016D01*
X212154555Y-122941772D01*
X212109222Y-122922995D01*
X212065949Y-122899864D01*
X212025150Y-122872604D01*
X211987221Y-122841476D01*
X211952524Y-122806779D01*
X211921396Y-122768850D01*
X211894136Y-122728051D01*
X211871005Y-122684778D01*
X211852228Y-122639445D01*
X211837984Y-122592490D01*
X211828412Y-122544365D01*
X211823602Y-122495534D01*
X211823602Y-122471000D01*
X211823000Y-122471000D01*
X211823000Y-121921000D01*
X213323000Y-121921000D01*
G37*
G04 #@! TD.AperFunction*
D16*
X212573000Y-121171000D03*
G04 #@! TA.AperFunction,SMDPad,CuDef*
D15*
G36*
X211823602Y-119871000D02*
G01*
X211823602Y-119846466D01*
X211828412Y-119797635D01*
X211837984Y-119749510D01*
X211852228Y-119702555D01*
X211871005Y-119657222D01*
X211894136Y-119613949D01*
X211921396Y-119573150D01*
X211952524Y-119535221D01*
X211987221Y-119500524D01*
X212025150Y-119469396D01*
X212065949Y-119442136D01*
X212109222Y-119419005D01*
X212154555Y-119400228D01*
X212201510Y-119385984D01*
X212249635Y-119376412D01*
X212298466Y-119371602D01*
X212323000Y-119371602D01*
X212323000Y-119371000D01*
X212823000Y-119371000D01*
X212823000Y-119371602D01*
X212847534Y-119371602D01*
X212896365Y-119376412D01*
X212944490Y-119385984D01*
X212991445Y-119400228D01*
X213036778Y-119419005D01*
X213080051Y-119442136D01*
X213120850Y-119469396D01*
X213158779Y-119500524D01*
X213193476Y-119535221D01*
X213224604Y-119573150D01*
X213251864Y-119613949D01*
X213274995Y-119657222D01*
X213293772Y-119702555D01*
X213308016Y-119749510D01*
X213317588Y-119797635D01*
X213322398Y-119846466D01*
X213322398Y-119871000D01*
X213323000Y-119871000D01*
X213323000Y-120421000D01*
X211823000Y-120421000D01*
X211823000Y-119871000D01*
X211823602Y-119871000D01*
G37*
G04 #@! TD.AperFunction*
G04 #@! TA.AperFunction,SMDPad,CuDef*
G36*
X216466250Y-121921000D02*
G01*
X216466250Y-122471000D01*
X216465648Y-122471000D01*
X216465648Y-122495534D01*
X216460838Y-122544365D01*
X216451266Y-122592490D01*
X216437022Y-122639445D01*
X216418245Y-122684778D01*
X216395114Y-122728051D01*
X216367854Y-122768850D01*
X216336726Y-122806779D01*
X216302029Y-122841476D01*
X216264100Y-122872604D01*
X216223301Y-122899864D01*
X216180028Y-122922995D01*
X216134695Y-122941772D01*
X216087740Y-122956016D01*
X216039615Y-122965588D01*
X215990784Y-122970398D01*
X215966250Y-122970398D01*
X215966250Y-122971000D01*
X215466250Y-122971000D01*
X215466250Y-122970398D01*
X215441716Y-122970398D01*
X215392885Y-122965588D01*
X215344760Y-122956016D01*
X215297805Y-122941772D01*
X215252472Y-122922995D01*
X215209199Y-122899864D01*
X215168400Y-122872604D01*
X215130471Y-122841476D01*
X215095774Y-122806779D01*
X215064646Y-122768850D01*
X215037386Y-122728051D01*
X215014255Y-122684778D01*
X214995478Y-122639445D01*
X214981234Y-122592490D01*
X214971662Y-122544365D01*
X214966852Y-122495534D01*
X214966852Y-122471000D01*
X214966250Y-122471000D01*
X214966250Y-121921000D01*
X216466250Y-121921000D01*
G37*
G04 #@! TD.AperFunction*
D16*
X215716250Y-121171000D03*
G04 #@! TA.AperFunction,SMDPad,CuDef*
D15*
G36*
X214966852Y-119871000D02*
G01*
X214966852Y-119846466D01*
X214971662Y-119797635D01*
X214981234Y-119749510D01*
X214995478Y-119702555D01*
X215014255Y-119657222D01*
X215037386Y-119613949D01*
X215064646Y-119573150D01*
X215095774Y-119535221D01*
X215130471Y-119500524D01*
X215168400Y-119469396D01*
X215209199Y-119442136D01*
X215252472Y-119419005D01*
X215297805Y-119400228D01*
X215344760Y-119385984D01*
X215392885Y-119376412D01*
X215441716Y-119371602D01*
X215466250Y-119371602D01*
X215466250Y-119371000D01*
X215966250Y-119371000D01*
X215966250Y-119371602D01*
X215990784Y-119371602D01*
X216039615Y-119376412D01*
X216087740Y-119385984D01*
X216134695Y-119400228D01*
X216180028Y-119419005D01*
X216223301Y-119442136D01*
X216264100Y-119469396D01*
X216302029Y-119500524D01*
X216336726Y-119535221D01*
X216367854Y-119573150D01*
X216395114Y-119613949D01*
X216418245Y-119657222D01*
X216437022Y-119702555D01*
X216451266Y-119749510D01*
X216460838Y-119797635D01*
X216465648Y-119846466D01*
X216465648Y-119871000D01*
X216466250Y-119871000D01*
X216466250Y-120421000D01*
X214966250Y-120421000D01*
X214966250Y-119871000D01*
X214966852Y-119871000D01*
G37*
G04 #@! TD.AperFunction*
G04 #@! TA.AperFunction,SMDPad,CuDef*
G36*
X219609500Y-121921000D02*
G01*
X219609500Y-122471000D01*
X219608898Y-122471000D01*
X219608898Y-122495534D01*
X219604088Y-122544365D01*
X219594516Y-122592490D01*
X219580272Y-122639445D01*
X219561495Y-122684778D01*
X219538364Y-122728051D01*
X219511104Y-122768850D01*
X219479976Y-122806779D01*
X219445279Y-122841476D01*
X219407350Y-122872604D01*
X219366551Y-122899864D01*
X219323278Y-122922995D01*
X219277945Y-122941772D01*
X219230990Y-122956016D01*
X219182865Y-122965588D01*
X219134034Y-122970398D01*
X219109500Y-122970398D01*
X219109500Y-122971000D01*
X218609500Y-122971000D01*
X218609500Y-122970398D01*
X218584966Y-122970398D01*
X218536135Y-122965588D01*
X218488010Y-122956016D01*
X218441055Y-122941772D01*
X218395722Y-122922995D01*
X218352449Y-122899864D01*
X218311650Y-122872604D01*
X218273721Y-122841476D01*
X218239024Y-122806779D01*
X218207896Y-122768850D01*
X218180636Y-122728051D01*
X218157505Y-122684778D01*
X218138728Y-122639445D01*
X218124484Y-122592490D01*
X218114912Y-122544365D01*
X218110102Y-122495534D01*
X218110102Y-122471000D01*
X218109500Y-122471000D01*
X218109500Y-121921000D01*
X219609500Y-121921000D01*
G37*
G04 #@! TD.AperFunction*
D16*
X218859500Y-121171000D03*
G04 #@! TA.AperFunction,SMDPad,CuDef*
D15*
G36*
X218110102Y-119871000D02*
G01*
X218110102Y-119846466D01*
X218114912Y-119797635D01*
X218124484Y-119749510D01*
X218138728Y-119702555D01*
X218157505Y-119657222D01*
X218180636Y-119613949D01*
X218207896Y-119573150D01*
X218239024Y-119535221D01*
X218273721Y-119500524D01*
X218311650Y-119469396D01*
X218352449Y-119442136D01*
X218395722Y-119419005D01*
X218441055Y-119400228D01*
X218488010Y-119385984D01*
X218536135Y-119376412D01*
X218584966Y-119371602D01*
X218609500Y-119371602D01*
X218609500Y-119371000D01*
X219109500Y-119371000D01*
X219109500Y-119371602D01*
X219134034Y-119371602D01*
X219182865Y-119376412D01*
X219230990Y-119385984D01*
X219277945Y-119400228D01*
X219323278Y-119419005D01*
X219366551Y-119442136D01*
X219407350Y-119469396D01*
X219445279Y-119500524D01*
X219479976Y-119535221D01*
X219511104Y-119573150D01*
X219538364Y-119613949D01*
X219561495Y-119657222D01*
X219580272Y-119702555D01*
X219594516Y-119749510D01*
X219604088Y-119797635D01*
X219608898Y-119846466D01*
X219608898Y-119871000D01*
X219609500Y-119871000D01*
X219609500Y-120421000D01*
X218109500Y-120421000D01*
X218109500Y-119871000D01*
X218110102Y-119871000D01*
G37*
G04 #@! TD.AperFunction*
G04 #@! TA.AperFunction,SMDPad,CuDef*
G36*
G01*
X227717613Y-107093000D02*
X228617617Y-107093000D01*
G75*
G02*
X228867615Y-107342998I0J-249998D01*
G01*
X228867615Y-107868002D01*
G75*
G02*
X228617617Y-108118000I-249998J0D01*
G01*
X227717613Y-108118000D01*
G75*
G02*
X227467615Y-107868002I0J249998D01*
G01*
X227467615Y-107342998D01*
G75*
G02*
X227717613Y-107093000I249998J0D01*
G01*
G37*
G04 #@! TD.AperFunction*
G04 #@! TA.AperFunction,SMDPad,CuDef*
G36*
G01*
X227717613Y-105268000D02*
X228617617Y-105268000D01*
G75*
G02*
X228867615Y-105517998I0J-249998D01*
G01*
X228867615Y-106043002D01*
G75*
G02*
X228617617Y-106293000I-249998J0D01*
G01*
X227717613Y-106293000D01*
G75*
G02*
X227467615Y-106043002I0J249998D01*
G01*
X227467615Y-105517998D01*
G75*
G02*
X227717613Y-105268000I249998J0D01*
G01*
G37*
G04 #@! TD.AperFunction*
G04 #@! TA.AperFunction,SMDPad,CuDef*
G36*
G01*
X229749998Y-107093000D02*
X230650002Y-107093000D01*
G75*
G02*
X230900000Y-107342998I0J-249998D01*
G01*
X230900000Y-107868002D01*
G75*
G02*
X230650002Y-108118000I-249998J0D01*
G01*
X229749998Y-108118000D01*
G75*
G02*
X229500000Y-107868002I0J249998D01*
G01*
X229500000Y-107342998D01*
G75*
G02*
X229749998Y-107093000I249998J0D01*
G01*
G37*
G04 #@! TD.AperFunction*
G04 #@! TA.AperFunction,SMDPad,CuDef*
G36*
G01*
X229749998Y-105268000D02*
X230650002Y-105268000D01*
G75*
G02*
X230900000Y-105517998I0J-249998D01*
G01*
X230900000Y-106043002D01*
G75*
G02*
X230650002Y-106293000I-249998J0D01*
G01*
X229749998Y-106293000D01*
G75*
G02*
X229500000Y-106043002I0J249998D01*
G01*
X229500000Y-105517998D01*
G75*
G02*
X229749998Y-105268000I249998J0D01*
G01*
G37*
G04 #@! TD.AperFunction*
G04 #@! TA.AperFunction,SMDPad,CuDef*
G36*
G01*
X222941499Y-121907000D02*
X223841503Y-121907000D01*
G75*
G02*
X224091501Y-122156998I0J-249998D01*
G01*
X224091501Y-122682002D01*
G75*
G02*
X223841503Y-122932000I-249998J0D01*
G01*
X222941499Y-122932000D01*
G75*
G02*
X222691501Y-122682002I0J249998D01*
G01*
X222691501Y-122156998D01*
G75*
G02*
X222941499Y-121907000I249998J0D01*
G01*
G37*
G04 #@! TD.AperFunction*
G04 #@! TA.AperFunction,SMDPad,CuDef*
G36*
G01*
X222941499Y-120082000D02*
X223841503Y-120082000D01*
G75*
G02*
X224091501Y-120331998I0J-249998D01*
G01*
X224091501Y-120857002D01*
G75*
G02*
X223841503Y-121107000I-249998J0D01*
G01*
X222941499Y-121107000D01*
G75*
G02*
X222691501Y-120857002I0J249998D01*
G01*
X222691501Y-120331998D01*
G75*
G02*
X222941499Y-120082000I249998J0D01*
G01*
G37*
G04 #@! TD.AperFunction*
G04 #@! TA.AperFunction,SMDPad,CuDef*
G36*
G01*
X224915583Y-121907000D02*
X225815587Y-121907000D01*
G75*
G02*
X226065585Y-122156998I0J-249998D01*
G01*
X226065585Y-122682002D01*
G75*
G02*
X225815587Y-122932000I-249998J0D01*
G01*
X224915583Y-122932000D01*
G75*
G02*
X224665585Y-122682002I0J249998D01*
G01*
X224665585Y-122156998D01*
G75*
G02*
X224915583Y-121907000I249998J0D01*
G01*
G37*
G04 #@! TD.AperFunction*
G04 #@! TA.AperFunction,SMDPad,CuDef*
G36*
G01*
X224915583Y-120082000D02*
X225815587Y-120082000D01*
G75*
G02*
X226065585Y-120331998I0J-249998D01*
G01*
X226065585Y-120857002D01*
G75*
G02*
X225815587Y-121107000I-249998J0D01*
G01*
X224915583Y-121107000D01*
G75*
G02*
X224665585Y-120857002I0J249998D01*
G01*
X224665585Y-120331998D01*
G75*
G02*
X224915583Y-120082000I249998J0D01*
G01*
G37*
G04 #@! TD.AperFunction*
G04 #@! TA.AperFunction,SMDPad,CuDef*
G36*
G01*
X205949998Y-111800000D02*
X206850002Y-111800000D01*
G75*
G02*
X207100000Y-112049998I0J-249998D01*
G01*
X207100000Y-112575002D01*
G75*
G02*
X206850002Y-112825000I-249998J0D01*
G01*
X205949998Y-112825000D01*
G75*
G02*
X205700000Y-112575002I0J249998D01*
G01*
X205700000Y-112049998D01*
G75*
G02*
X205949998Y-111800000I249998J0D01*
G01*
G37*
G04 #@! TD.AperFunction*
G04 #@! TA.AperFunction,SMDPad,CuDef*
G36*
G01*
X205949998Y-109975000D02*
X206850002Y-109975000D01*
G75*
G02*
X207100000Y-110224998I0J-249998D01*
G01*
X207100000Y-110750002D01*
G75*
G02*
X206850002Y-111000000I-249998J0D01*
G01*
X205949998Y-111000000D01*
G75*
G02*
X205700000Y-110750002I0J249998D01*
G01*
X205700000Y-110224998D01*
G75*
G02*
X205949998Y-109975000I249998J0D01*
G01*
G37*
G04 #@! TD.AperFunction*
G04 #@! TA.AperFunction,SMDPad,CuDef*
G36*
G01*
X208850002Y-111000000D02*
X207949998Y-111000000D01*
G75*
G02*
X207700000Y-110750002I0J249998D01*
G01*
X207700000Y-110224998D01*
G75*
G02*
X207949998Y-109975000I249998J0D01*
G01*
X208850002Y-109975000D01*
G75*
G02*
X209100000Y-110224998I0J-249998D01*
G01*
X209100000Y-110750002D01*
G75*
G02*
X208850002Y-111000000I-249998J0D01*
G01*
G37*
G04 #@! TD.AperFunction*
G04 #@! TA.AperFunction,SMDPad,CuDef*
G36*
G01*
X208850002Y-112825000D02*
X207949998Y-112825000D01*
G75*
G02*
X207700000Y-112575002I0J249998D01*
G01*
X207700000Y-112049998D01*
G75*
G02*
X207949998Y-111800000I249998J0D01*
G01*
X208850002Y-111800000D01*
G75*
G02*
X209100000Y-112049998I0J-249998D01*
G01*
X209100000Y-112575002D01*
G75*
G02*
X208850002Y-112825000I-249998J0D01*
G01*
G37*
G04 #@! TD.AperFunction*
G04 #@! TA.AperFunction,SMDPad,CuDef*
G36*
G01*
X216050000Y-104625000D02*
X216050000Y-105575000D01*
G75*
G02*
X215800000Y-105825000I-250000J0D01*
G01*
X215300000Y-105825000D01*
G75*
G02*
X215050000Y-105575000I0J250000D01*
G01*
X215050000Y-104625000D01*
G75*
G02*
X215300000Y-104375000I250000J0D01*
G01*
X215800000Y-104375000D01*
G75*
G02*
X216050000Y-104625000I0J-250000D01*
G01*
G37*
G04 #@! TD.AperFunction*
G04 #@! TA.AperFunction,SMDPad,CuDef*
G36*
G01*
X217950000Y-104625000D02*
X217950000Y-105575000D01*
G75*
G02*
X217700000Y-105825000I-250000J0D01*
G01*
X217200000Y-105825000D01*
G75*
G02*
X216950000Y-105575000I0J250000D01*
G01*
X216950000Y-104625000D01*
G75*
G02*
X217200000Y-104375000I250000J0D01*
G01*
X217700000Y-104375000D01*
G75*
G02*
X217950000Y-104625000I0J-250000D01*
G01*
G37*
G04 #@! TD.AperFunction*
D17*
X254000000Y-102000000D03*
D12*
X251500000Y-102000000D03*
X249000000Y-102000000D03*
D18*
X257100000Y-109500000D03*
X245900000Y-109500000D03*
D12*
X254000000Y-116500000D03*
X249000000Y-116500000D03*
X242500000Y-118000000D03*
X242500000Y-122500000D03*
X236000000Y-118000000D03*
X236000000Y-122500000D03*
X242500000Y-110000000D03*
X242500000Y-114500000D03*
X236000000Y-110000000D03*
X236000000Y-114500000D03*
X242500000Y-102000000D03*
X242500000Y-106500000D03*
X236000000Y-102000000D03*
X236000000Y-106500000D03*
G04 #@! TA.AperFunction,SMDPad,CuDef*
G36*
G01*
X213023002Y-116580000D02*
X212122998Y-116580000D01*
G75*
G02*
X211873000Y-116330002I0J249998D01*
G01*
X211873000Y-115804998D01*
G75*
G02*
X212122998Y-115555000I249998J0D01*
G01*
X213023002Y-115555000D01*
G75*
G02*
X213273000Y-115804998I0J-249998D01*
G01*
X213273000Y-116330002D01*
G75*
G02*
X213023002Y-116580000I-249998J0D01*
G01*
G37*
G04 #@! TD.AperFunction*
G04 #@! TA.AperFunction,SMDPad,CuDef*
G36*
G01*
X213023002Y-118405000D02*
X212122998Y-118405000D01*
G75*
G02*
X211873000Y-118155002I0J249998D01*
G01*
X211873000Y-117629998D01*
G75*
G02*
X212122998Y-117380000I249998J0D01*
G01*
X213023002Y-117380000D01*
G75*
G02*
X213273000Y-117629998I0J-249998D01*
G01*
X213273000Y-118155002D01*
G75*
G02*
X213023002Y-118405000I-249998J0D01*
G01*
G37*
G04 #@! TD.AperFunction*
G04 #@! TA.AperFunction,SMDPad,CuDef*
G36*
G01*
X216150002Y-116580000D02*
X215249998Y-116580000D01*
G75*
G02*
X215000000Y-116330002I0J249998D01*
G01*
X215000000Y-115804998D01*
G75*
G02*
X215249998Y-115555000I249998J0D01*
G01*
X216150002Y-115555000D01*
G75*
G02*
X216400000Y-115804998I0J-249998D01*
G01*
X216400000Y-116330002D01*
G75*
G02*
X216150002Y-116580000I-249998J0D01*
G01*
G37*
G04 #@! TD.AperFunction*
G04 #@! TA.AperFunction,SMDPad,CuDef*
G36*
G01*
X216150002Y-118405000D02*
X215249998Y-118405000D01*
G75*
G02*
X215000000Y-118155002I0J249998D01*
G01*
X215000000Y-117629998D01*
G75*
G02*
X215249998Y-117380000I249998J0D01*
G01*
X216150002Y-117380000D01*
G75*
G02*
X216400000Y-117629998I0J-249998D01*
G01*
X216400000Y-118155002D01*
G75*
G02*
X216150002Y-118405000I-249998J0D01*
G01*
G37*
G04 #@! TD.AperFunction*
G04 #@! TA.AperFunction,SMDPad,CuDef*
G36*
G01*
X219309502Y-116580000D02*
X218409498Y-116580000D01*
G75*
G02*
X218159500Y-116330002I0J249998D01*
G01*
X218159500Y-115804998D01*
G75*
G02*
X218409498Y-115555000I249998J0D01*
G01*
X219309502Y-115555000D01*
G75*
G02*
X219559500Y-115804998I0J-249998D01*
G01*
X219559500Y-116330002D01*
G75*
G02*
X219309502Y-116580000I-249998J0D01*
G01*
G37*
G04 #@! TD.AperFunction*
G04 #@! TA.AperFunction,SMDPad,CuDef*
G36*
G01*
X219309502Y-118405000D02*
X218409498Y-118405000D01*
G75*
G02*
X218159500Y-118155002I0J249998D01*
G01*
X218159500Y-117629998D01*
G75*
G02*
X218409498Y-117380000I249998J0D01*
G01*
X219309502Y-117380000D01*
G75*
G02*
X219559500Y-117629998I0J-249998D01*
G01*
X219559500Y-118155002D01*
G75*
G02*
X219309502Y-118405000I-249998J0D01*
G01*
G37*
G04 #@! TD.AperFunction*
G04 #@! TA.AperFunction,SMDPad,CuDef*
G36*
G01*
X225685230Y-107093000D02*
X226585234Y-107093000D01*
G75*
G02*
X226835232Y-107342998I0J-249998D01*
G01*
X226835232Y-107868002D01*
G75*
G02*
X226585234Y-108118000I-249998J0D01*
G01*
X225685230Y-108118000D01*
G75*
G02*
X225435232Y-107868002I0J249998D01*
G01*
X225435232Y-107342998D01*
G75*
G02*
X225685230Y-107093000I249998J0D01*
G01*
G37*
G04 #@! TD.AperFunction*
G04 #@! TA.AperFunction,SMDPad,CuDef*
G36*
G01*
X225685230Y-105268000D02*
X226585234Y-105268000D01*
G75*
G02*
X226835232Y-105517998I0J-249998D01*
G01*
X226835232Y-106043002D01*
G75*
G02*
X226585234Y-106293000I-249998J0D01*
G01*
X225685230Y-106293000D01*
G75*
G02*
X225435232Y-106043002I0J249998D01*
G01*
X225435232Y-105517998D01*
G75*
G02*
X225685230Y-105268000I249998J0D01*
G01*
G37*
G04 #@! TD.AperFunction*
G04 #@! TA.AperFunction,SMDPad,CuDef*
G36*
G01*
X223652847Y-107093000D02*
X224552851Y-107093000D01*
G75*
G02*
X224802849Y-107342998I0J-249998D01*
G01*
X224802849Y-107868002D01*
G75*
G02*
X224552851Y-108118000I-249998J0D01*
G01*
X223652847Y-108118000D01*
G75*
G02*
X223402849Y-107868002I0J249998D01*
G01*
X223402849Y-107342998D01*
G75*
G02*
X223652847Y-107093000I249998J0D01*
G01*
G37*
G04 #@! TD.AperFunction*
G04 #@! TA.AperFunction,SMDPad,CuDef*
G36*
G01*
X223652847Y-105268000D02*
X224552851Y-105268000D01*
G75*
G02*
X224802849Y-105517998I0J-249998D01*
G01*
X224802849Y-106043002D01*
G75*
G02*
X224552851Y-106293000I-249998J0D01*
G01*
X223652847Y-106293000D01*
G75*
G02*
X223402849Y-106043002I0J249998D01*
G01*
X223402849Y-105517998D01*
G75*
G02*
X223652847Y-105268000I249998J0D01*
G01*
G37*
G04 #@! TD.AperFunction*
G04 #@! TA.AperFunction,SMDPad,CuDef*
G36*
G01*
X221620464Y-107093000D02*
X222520468Y-107093000D01*
G75*
G02*
X222770466Y-107342998I0J-249998D01*
G01*
X222770466Y-107868002D01*
G75*
G02*
X222520468Y-108118000I-249998J0D01*
G01*
X221620464Y-108118000D01*
G75*
G02*
X221370466Y-107868002I0J249998D01*
G01*
X221370466Y-107342998D01*
G75*
G02*
X221620464Y-107093000I249998J0D01*
G01*
G37*
G04 #@! TD.AperFunction*
G04 #@! TA.AperFunction,SMDPad,CuDef*
G36*
G01*
X221620464Y-105268000D02*
X222520468Y-105268000D01*
G75*
G02*
X222770466Y-105517998I0J-249998D01*
G01*
X222770466Y-106043002D01*
G75*
G02*
X222520468Y-106293000I-249998J0D01*
G01*
X221620464Y-106293000D01*
G75*
G02*
X221370466Y-106043002I0J249998D01*
G01*
X221370466Y-105517998D01*
G75*
G02*
X221620464Y-105268000I249998J0D01*
G01*
G37*
G04 #@! TD.AperFunction*
G04 #@! TA.AperFunction,SMDPad,CuDef*
G36*
G01*
X219588081Y-107093000D02*
X220488085Y-107093000D01*
G75*
G02*
X220738083Y-107342998I0J-249998D01*
G01*
X220738083Y-107868002D01*
G75*
G02*
X220488085Y-108118000I-249998J0D01*
G01*
X219588081Y-108118000D01*
G75*
G02*
X219338083Y-107868002I0J249998D01*
G01*
X219338083Y-107342998D01*
G75*
G02*
X219588081Y-107093000I249998J0D01*
G01*
G37*
G04 #@! TD.AperFunction*
G04 #@! TA.AperFunction,SMDPad,CuDef*
G36*
G01*
X219588081Y-105268000D02*
X220488085Y-105268000D01*
G75*
G02*
X220738083Y-105517998I0J-249998D01*
G01*
X220738083Y-106043002D01*
G75*
G02*
X220488085Y-106293000I-249998J0D01*
G01*
X219588081Y-106293000D01*
G75*
G02*
X219338083Y-106043002I0J249998D01*
G01*
X219338083Y-105517998D01*
G75*
G02*
X219588081Y-105268000I249998J0D01*
G01*
G37*
G04 #@! TD.AperFunction*
G04 #@! TA.AperFunction,SMDPad,CuDef*
D15*
G36*
X232750602Y-101100000D02*
G01*
X232750602Y-101075466D01*
X232755412Y-101026635D01*
X232764984Y-100978510D01*
X232779228Y-100931555D01*
X232798005Y-100886222D01*
X232821136Y-100842949D01*
X232848396Y-100802150D01*
X232879524Y-100764221D01*
X232914221Y-100729524D01*
X232952150Y-100698396D01*
X232992949Y-100671136D01*
X233036222Y-100648005D01*
X233081555Y-100629228D01*
X233128510Y-100614984D01*
X233176635Y-100605412D01*
X233225466Y-100600602D01*
X233250000Y-100600602D01*
X233250000Y-100600000D01*
X233750000Y-100600000D01*
X233750000Y-100600602D01*
X233774534Y-100600602D01*
X233823365Y-100605412D01*
X233871490Y-100614984D01*
X233918445Y-100629228D01*
X233963778Y-100648005D01*
X234007051Y-100671136D01*
X234047850Y-100698396D01*
X234085779Y-100729524D01*
X234120476Y-100764221D01*
X234151604Y-100802150D01*
X234178864Y-100842949D01*
X234201995Y-100886222D01*
X234220772Y-100931555D01*
X234235016Y-100978510D01*
X234244588Y-101026635D01*
X234249398Y-101075466D01*
X234249398Y-101100000D01*
X234250000Y-101100000D01*
X234250000Y-101600000D01*
X232750000Y-101600000D01*
X232750000Y-101100000D01*
X232750602Y-101100000D01*
G37*
G04 #@! TD.AperFunction*
G04 #@! TA.AperFunction,SMDPad,CuDef*
G36*
X234250000Y-101900000D02*
G01*
X234250000Y-102400000D01*
X234249398Y-102400000D01*
X234249398Y-102424534D01*
X234244588Y-102473365D01*
X234235016Y-102521490D01*
X234220772Y-102568445D01*
X234201995Y-102613778D01*
X234178864Y-102657051D01*
X234151604Y-102697850D01*
X234120476Y-102735779D01*
X234085779Y-102770476D01*
X234047850Y-102801604D01*
X234007051Y-102828864D01*
X233963778Y-102851995D01*
X233918445Y-102870772D01*
X233871490Y-102885016D01*
X233823365Y-102894588D01*
X233774534Y-102899398D01*
X233750000Y-102899398D01*
X233750000Y-102900000D01*
X233250000Y-102900000D01*
X233250000Y-102899398D01*
X233225466Y-102899398D01*
X233176635Y-102894588D01*
X233128510Y-102885016D01*
X233081555Y-102870772D01*
X233036222Y-102851995D01*
X232992949Y-102828864D01*
X232952150Y-102801604D01*
X232914221Y-102770476D01*
X232879524Y-102735779D01*
X232848396Y-102697850D01*
X232821136Y-102657051D01*
X232798005Y-102613778D01*
X232779228Y-102568445D01*
X232764984Y-102521490D01*
X232755412Y-102473365D01*
X232750602Y-102424534D01*
X232750602Y-102400000D01*
X232750000Y-102400000D01*
X232750000Y-101900000D01*
X234250000Y-101900000D01*
G37*
G04 #@! TD.AperFunction*
D14*
X203500000Y-115270000D03*
X203500000Y-112730000D03*
X203500000Y-110190000D03*
X203500000Y-107650000D03*
D13*
X203500000Y-105110000D03*
D14*
X256630000Y-96230000D03*
X256630000Y-98770000D03*
X254090000Y-96230000D03*
X254090000Y-98770000D03*
X251550000Y-96230000D03*
X251550000Y-98770000D03*
X249010000Y-96230000D03*
X249010000Y-98770000D03*
X246470000Y-96230000D03*
X246470000Y-98770000D03*
X243930000Y-96230000D03*
X243930000Y-98770000D03*
X241390000Y-96230000D03*
X241390000Y-98770000D03*
X238850000Y-96230000D03*
X238850000Y-98770000D03*
X236310000Y-96230000D03*
X236310000Y-98770000D03*
X233770000Y-96230000D03*
X233770000Y-98770000D03*
X231230000Y-96230000D03*
X231230000Y-98770000D03*
X228690000Y-96230000D03*
X228690000Y-98770000D03*
X226150000Y-96230000D03*
X226150000Y-98770000D03*
X223610000Y-96230000D03*
X223610000Y-98770000D03*
X221070000Y-96230000D03*
X221070000Y-98770000D03*
X218530000Y-96230000D03*
X218530000Y-98770000D03*
X215990000Y-96230000D03*
X215990000Y-98770000D03*
X213450000Y-96230000D03*
X213450000Y-98770000D03*
X210910000Y-96230000D03*
X210910000Y-98770000D03*
X208370000Y-96230000D03*
D13*
X208370000Y-98770000D03*
D19*
X217300000Y-120500000D03*
X217300000Y-117700000D03*
X210700000Y-111400000D03*
X214300000Y-100100000D03*
X211083261Y-99874010D03*
X213200000Y-100800000D03*
X212118657Y-100909405D03*
X212549990Y-108612424D03*
X218799978Y-106699978D03*
X211440325Y-108797989D03*
X221399989Y-108300011D03*
X234200001Y-107800001D03*
X210374065Y-108344278D03*
X223900001Y-111400001D03*
X233299999Y-111400001D03*
X215100000Y-109700000D03*
X248500000Y-107000000D03*
X230200000Y-109700000D03*
X254200000Y-107800000D03*
X215413055Y-110326110D03*
X228173890Y-110326110D03*
X210753228Y-110155099D03*
X225750002Y-111950002D03*
X248849998Y-111950002D03*
X233300000Y-104000000D03*
X213300000Y-104100000D03*
X223400000Y-119500000D03*
X213109700Y-110912468D03*
X261700000Y-117200000D03*
X226600000Y-120100000D03*
X211700000Y-110800000D03*
D20*
X208370000Y-98770000D02*
X208304000Y-98770000D01*
X204750001Y-108939999D02*
X203500000Y-110190000D01*
X204750001Y-102323999D02*
X204750001Y-108939999D01*
X208304000Y-98770000D02*
X204750001Y-102323999D01*
X212573000Y-122471000D02*
X218859500Y-122471000D01*
X217920000Y-104630000D02*
X217450000Y-105100000D01*
X217920000Y-102000000D02*
X217920000Y-104630000D01*
X217450000Y-105100000D02*
X218250000Y-105900000D01*
X215275000Y-107137500D02*
X216462500Y-107137500D01*
X217450000Y-106150000D02*
X217450000Y-105100000D01*
X216462500Y-107137500D02*
X217450000Y-106150000D01*
X230080500Y-105900000D02*
X230200000Y-105780500D01*
X218250000Y-105900000D02*
X230080500Y-105900000D01*
X228690000Y-105258115D02*
X228167615Y-105780500D01*
X228690000Y-98770000D02*
X228690000Y-105258115D01*
X218911000Y-122419500D02*
X218859500Y-122471000D01*
X217450000Y-105100000D02*
X217450000Y-111950000D01*
X220691491Y-122291491D02*
X220819500Y-122419500D01*
X217450000Y-111950000D02*
X220691491Y-115191491D01*
X220819500Y-122419500D02*
X218911000Y-122419500D01*
X223765585Y-122419500D02*
X220819500Y-122419500D01*
X220691491Y-115191491D02*
X220691491Y-122291491D01*
X204852499Y-108939999D02*
X206400000Y-110487500D01*
X204750001Y-108939999D02*
X204852499Y-108939999D01*
X208400000Y-110487500D02*
X206400000Y-110487500D01*
X223391501Y-122419500D02*
X225365585Y-122419500D01*
D21*
X210700000Y-111400000D02*
X210700000Y-114700000D01*
D20*
X214700001Y-97480001D02*
X213450000Y-96230000D01*
X214700001Y-99330003D02*
X214700001Y-97480001D01*
X215380000Y-100010002D02*
X214700001Y-99330003D01*
X215380000Y-102000000D02*
X215380000Y-100010002D01*
X219819999Y-97480001D02*
X218530000Y-98770000D01*
X222359999Y-97480001D02*
X219819999Y-97480001D01*
X223610000Y-96230000D02*
X222359999Y-97480001D01*
D21*
X206482500Y-112730000D02*
X206900000Y-112312500D01*
X214625000Y-103485002D02*
X213900000Y-102760002D01*
X214625000Y-107137500D02*
X214625000Y-103485002D01*
X213900000Y-102760002D02*
X213900000Y-100500000D01*
X213900000Y-100500000D02*
X214300000Y-100100000D01*
X205982500Y-112730000D02*
X206400000Y-112312500D01*
X203500000Y-112730000D02*
X205982500Y-112730000D01*
X206400000Y-111800000D02*
X206899990Y-111300010D01*
X209199990Y-111300010D02*
X209400010Y-111099990D01*
X210910000Y-98770000D02*
X210910000Y-99700749D01*
X210910000Y-99700749D02*
X211083261Y-99874010D01*
X206400000Y-112312500D02*
X206400000Y-111800000D01*
X206899990Y-111300010D02*
X209199990Y-111300010D01*
X209400010Y-101557261D02*
X211083261Y-99874010D01*
X209400010Y-111099990D02*
X209400010Y-101557261D01*
X213450000Y-98770000D02*
X214015002Y-98770000D01*
X213975000Y-107137500D02*
X213975000Y-103400702D01*
X213450000Y-100550000D02*
X213200000Y-100800000D01*
X213450000Y-98770000D02*
X213450000Y-100550000D01*
X213200000Y-102625702D02*
X213537149Y-102962851D01*
X213537149Y-102962851D02*
X213450000Y-102875702D01*
X213200000Y-100800000D02*
X213200000Y-102625702D01*
X213975000Y-103400702D02*
X213537149Y-102962851D01*
X203500000Y-115270000D02*
X205070000Y-113700000D01*
X207012500Y-113700000D02*
X208400000Y-112312500D01*
X205070000Y-113700000D02*
X207012500Y-113700000D01*
X209800021Y-103228041D02*
X212118657Y-100909405D01*
X208400000Y-112312500D02*
X209100000Y-112312500D01*
X209100000Y-112312500D02*
X209800021Y-111612479D01*
X209800021Y-111612479D02*
X209800021Y-103228041D01*
X233770000Y-100830000D02*
X233500000Y-101100000D01*
X233770000Y-98770000D02*
X233770000Y-100830000D01*
X214766250Y-121171000D02*
X214478000Y-120882750D01*
X215716250Y-121171000D02*
X214766250Y-121171000D01*
X214478000Y-120882750D02*
X214478000Y-118377000D01*
X214962500Y-117892500D02*
X215700000Y-117892500D01*
X214478000Y-118377000D02*
X214962500Y-117892500D01*
X213623010Y-120545270D02*
X213623010Y-118284010D01*
X212997280Y-121171000D02*
X213623010Y-120545270D01*
X212573000Y-121171000D02*
X212997280Y-121171000D01*
X213231500Y-117892500D02*
X212573000Y-117892500D01*
X213623010Y-118284010D02*
X213231500Y-117892500D01*
X212025000Y-112862500D02*
X212025000Y-111289002D01*
X212025000Y-111289002D02*
X212549990Y-110764012D01*
X212549990Y-110764012D02*
X212549990Y-108612424D01*
X219705500Y-107605500D02*
X218799978Y-106699978D01*
X220038083Y-107605500D02*
X219705500Y-107605500D01*
X211399989Y-110286009D02*
X211399989Y-108838325D01*
X211375000Y-112862500D02*
X211375000Y-111289002D01*
X211375000Y-111289002D02*
X211149999Y-111064001D01*
X211149999Y-111064001D02*
X211149999Y-110535999D01*
X211149999Y-110535999D02*
X211399989Y-110286009D01*
X211399989Y-108838325D02*
X211440325Y-108797989D01*
X222012166Y-107687834D02*
X221399989Y-108300011D01*
X222012166Y-107605500D02*
X222012166Y-107687834D01*
X234699999Y-113199999D02*
X234699999Y-108099999D01*
X236000000Y-114500000D02*
X234699999Y-113199999D01*
X234400001Y-107800001D02*
X234200001Y-107800001D01*
X234699999Y-108099999D02*
X234400001Y-107800001D01*
X210725000Y-107137500D02*
X210725000Y-107993343D01*
X210725000Y-107993343D02*
X210374065Y-108344278D01*
X223986249Y-111313753D02*
X223900001Y-111400001D01*
X223986249Y-107605500D02*
X223986249Y-111313753D01*
X236000000Y-122500000D02*
X233299999Y-119799999D01*
X233299999Y-119799999D02*
X233299999Y-111400001D01*
X212675000Y-112125000D02*
X215100000Y-109700000D01*
X212675000Y-112862500D02*
X212675000Y-112125000D01*
X248500000Y-102500000D02*
X249000000Y-102000000D01*
X248500000Y-107000000D02*
X248500000Y-102500000D01*
X230200000Y-107605500D02*
X230200000Y-109700000D01*
X254200000Y-102200000D02*
X254000000Y-102000000D01*
X254200000Y-107800000D02*
X254200000Y-102200000D01*
X213325000Y-112125000D02*
X215123890Y-110326110D01*
X215123890Y-110326110D02*
X215413055Y-110326110D01*
X213325000Y-112862500D02*
X213325000Y-112125000D01*
X228167615Y-110319835D02*
X228173890Y-110326110D01*
X228167615Y-107605500D02*
X228167615Y-110319835D01*
X211375000Y-108049310D02*
X210890323Y-108533987D01*
X210890323Y-110018004D02*
X210753228Y-110155099D01*
X211375000Y-107137500D02*
X211375000Y-108049310D01*
X210890323Y-108533987D02*
X210890323Y-110018004D01*
X225960332Y-111739672D02*
X225750002Y-111950002D01*
X225960332Y-107605500D02*
X225960332Y-111739672D01*
X249000000Y-112100004D02*
X248849998Y-111950002D01*
X249000000Y-116500000D02*
X249000000Y-112100004D01*
X218859500Y-116067500D02*
X217367500Y-116067500D01*
X215275000Y-113975000D02*
X215275000Y-112862500D01*
X217367500Y-116067500D02*
X215275000Y-113975000D01*
X215700000Y-116067500D02*
X215700000Y-115900000D01*
X214625000Y-114825000D02*
X214625000Y-112862500D01*
X215700000Y-115900000D02*
X214625000Y-114825000D01*
X213975000Y-114525000D02*
X213975000Y-112862500D01*
X212573000Y-115927000D02*
X213975000Y-114525000D01*
X212573000Y-116067500D02*
X212573000Y-115927000D01*
X218859500Y-121171000D02*
X220002500Y-121171000D01*
X220002500Y-121171000D02*
X220191480Y-120982020D01*
X220191480Y-120982020D02*
X220191480Y-119224480D01*
X220191480Y-119224480D02*
X218859500Y-117892500D01*
X233500000Y-103800000D02*
X233300000Y-104000000D01*
X233500000Y-102400000D02*
X233500000Y-103800000D01*
X213300000Y-107112500D02*
X213325000Y-107137500D01*
X213300000Y-104100000D02*
X213300000Y-107112500D01*
X223765585Y-120594500D02*
X223765585Y-120284425D01*
X223391501Y-119508499D02*
X223400000Y-119500000D01*
X223391501Y-120594500D02*
X223391501Y-119508499D01*
X213109700Y-108309700D02*
X213109700Y-110912468D01*
X212675000Y-107137500D02*
X212675000Y-107875000D01*
X212675000Y-107875000D02*
X213109700Y-108309700D01*
X262032499Y-116867501D02*
X261700000Y-117200000D01*
X262032499Y-113875501D02*
X262032499Y-116867501D01*
X263182500Y-112725500D02*
X262032499Y-113875501D01*
X226105500Y-120594500D02*
X226600000Y-120100000D01*
X225365585Y-120594500D02*
X226105500Y-120594500D01*
X211700000Y-110800000D02*
X211999988Y-110500012D01*
X211999988Y-107162512D02*
X212025000Y-107137500D01*
X211999988Y-110500012D02*
X211999988Y-107162512D01*
D22*
X262449016Y-94732312D02*
X262880930Y-94862714D01*
X263279285Y-95074524D01*
X263628914Y-95359675D01*
X263916497Y-95707303D01*
X264131086Y-96104177D01*
X264264498Y-96535161D01*
X264315001Y-97015663D01*
X264315001Y-101612038D01*
X264280088Y-101565231D01*
X264063855Y-101370322D01*
X263813752Y-101221343D01*
X263539391Y-101124019D01*
X263309500Y-101244686D01*
X263309500Y-102438500D01*
X263329500Y-102438500D01*
X263329500Y-102692500D01*
X263309500Y-102692500D01*
X263309500Y-104978500D01*
X263329500Y-104978500D01*
X263329500Y-105232500D01*
X263309500Y-105232500D01*
X263309500Y-107518500D01*
X263329500Y-107518500D01*
X263329500Y-107772500D01*
X263309500Y-107772500D01*
X263309500Y-110058500D01*
X263329500Y-110058500D01*
X263329500Y-110312500D01*
X263309500Y-110312500D01*
X263309500Y-110332500D01*
X263055500Y-110332500D01*
X263055500Y-110312500D01*
X263035500Y-110312500D01*
X263035500Y-110058500D01*
X263055500Y-110058500D01*
X263055500Y-107772500D01*
X263035500Y-107772500D01*
X263035500Y-107518500D01*
X263055500Y-107518500D01*
X263055500Y-105232500D01*
X263035500Y-105232500D01*
X263035500Y-104978500D01*
X263055500Y-104978500D01*
X263055500Y-102692500D01*
X263035500Y-102692500D01*
X263035500Y-102438500D01*
X263055500Y-102438500D01*
X263055500Y-101244686D01*
X262825609Y-101124019D01*
X262551248Y-101221343D01*
X262301145Y-101370322D01*
X262104998Y-101547126D01*
X262082002Y-101471320D01*
X262023037Y-101361006D01*
X261943685Y-101264315D01*
X261846994Y-101184963D01*
X261736680Y-101125998D01*
X261616982Y-101089688D01*
X261492500Y-101077428D01*
X259792500Y-101077428D01*
X259668018Y-101089688D01*
X259548320Y-101125998D01*
X259438006Y-101184963D01*
X259341315Y-101264315D01*
X259261963Y-101361006D01*
X259202998Y-101471320D01*
X259166688Y-101591018D01*
X259154428Y-101715500D01*
X259154428Y-103415500D01*
X259166688Y-103539982D01*
X259202998Y-103659680D01*
X259261963Y-103769994D01*
X259341315Y-103866685D01*
X259438006Y-103946037D01*
X259548320Y-104005002D01*
X259620880Y-104027013D01*
X259489025Y-104158868D01*
X259326510Y-104402089D01*
X259214568Y-104672342D01*
X259157500Y-104959240D01*
X259157500Y-105251760D01*
X259214568Y-105538658D01*
X259326510Y-105808911D01*
X259489025Y-106052132D01*
X259695868Y-106258975D01*
X259870260Y-106375500D01*
X259695868Y-106492025D01*
X259489025Y-106698868D01*
X259326510Y-106942089D01*
X259214568Y-107212342D01*
X259157500Y-107499240D01*
X259157500Y-107791760D01*
X259214568Y-108078658D01*
X259326510Y-108348911D01*
X259489025Y-108592132D01*
X259695868Y-108798975D01*
X259870260Y-108915500D01*
X259695868Y-109032025D01*
X259489025Y-109238868D01*
X259326510Y-109482089D01*
X259214568Y-109752342D01*
X259157500Y-110039240D01*
X259157500Y-110331760D01*
X259214568Y-110618658D01*
X259326510Y-110888911D01*
X259489025Y-111132132D01*
X259695868Y-111338975D01*
X259870260Y-111455500D01*
X259695868Y-111572025D01*
X259489025Y-111778868D01*
X259326510Y-112022089D01*
X259214568Y-112292342D01*
X259157500Y-112579240D01*
X259157500Y-112871760D01*
X259214568Y-113158658D01*
X259326510Y-113428911D01*
X259489025Y-113672132D01*
X259695868Y-113878975D01*
X259870260Y-113995500D01*
X259695868Y-114112025D01*
X259489025Y-114318868D01*
X259326510Y-114562089D01*
X259214568Y-114832342D01*
X259157500Y-115119240D01*
X259157500Y-115411760D01*
X259214568Y-115698658D01*
X259326510Y-115968911D01*
X259489025Y-116212132D01*
X259695868Y-116418975D01*
X259939089Y-116581490D01*
X260209342Y-116693432D01*
X260496240Y-116750500D01*
X260788760Y-116750500D01*
X260958530Y-116716730D01*
X260915723Y-116780795D01*
X260849010Y-116941855D01*
X260815000Y-117112835D01*
X260815000Y-117287165D01*
X260849010Y-117458145D01*
X260915723Y-117619205D01*
X261012576Y-117764155D01*
X261135845Y-117887424D01*
X261280795Y-117984277D01*
X261441855Y-118050990D01*
X261612835Y-118085000D01*
X261787165Y-118085000D01*
X261958145Y-118050990D01*
X262119205Y-117984277D01*
X262264155Y-117887424D01*
X262387424Y-117764155D01*
X262484277Y-117619205D01*
X262550990Y-117458145D01*
X262567751Y-117373881D01*
X262646586Y-117277821D01*
X262705214Y-117168136D01*
X262714836Y-117150135D01*
X262756864Y-117011586D01*
X262771055Y-116867501D01*
X262767499Y-116831396D01*
X262767499Y-116697044D01*
X263036240Y-116750500D01*
X263328760Y-116750500D01*
X263615658Y-116693432D01*
X263885911Y-116581490D01*
X264129132Y-116418975D01*
X264315000Y-116233107D01*
X264315000Y-120966495D01*
X264267688Y-121449016D01*
X264137287Y-121880927D01*
X263925480Y-122279280D01*
X263640325Y-122628914D01*
X263292697Y-122916497D01*
X262895825Y-123131085D01*
X262464834Y-123264500D01*
X261984346Y-123315000D01*
X261023095Y-123315000D01*
X261023095Y-122429026D01*
X261304495Y-122485000D01*
X261695505Y-122485000D01*
X262079003Y-122408718D01*
X262440250Y-122259085D01*
X262765364Y-122041851D01*
X263041851Y-121765364D01*
X263259085Y-121440250D01*
X263408718Y-121079003D01*
X263485000Y-120695505D01*
X263485000Y-120304495D01*
X263408718Y-119920997D01*
X263259085Y-119559750D01*
X263041851Y-119234636D01*
X262765364Y-118958149D01*
X262440250Y-118740915D01*
X262079003Y-118591282D01*
X261695505Y-118515000D01*
X261304495Y-118515000D01*
X260920997Y-118591282D01*
X260559750Y-118740915D01*
X260234636Y-118958149D01*
X259958149Y-119234636D01*
X259740915Y-119559750D01*
X259591282Y-119920997D01*
X259515000Y-120304495D01*
X259515000Y-120695505D01*
X259591282Y-121079003D01*
X259740915Y-121440250D01*
X259794202Y-121520000D01*
X252176905Y-121520000D01*
X252176905Y-123315000D01*
X243921832Y-123315000D01*
X243948918Y-123274463D01*
X244072168Y-122976912D01*
X244135000Y-122661033D01*
X244135000Y-122338967D01*
X244072168Y-122023088D01*
X243948918Y-121725537D01*
X243769987Y-121457748D01*
X243542252Y-121230013D01*
X243274463Y-121051082D01*
X242976912Y-120927832D01*
X242661033Y-120865000D01*
X242338967Y-120865000D01*
X242023088Y-120927832D01*
X241725537Y-121051082D01*
X241457748Y-121230013D01*
X241230013Y-121457748D01*
X241051082Y-121725537D01*
X240927832Y-122023088D01*
X240865000Y-122338967D01*
X240865000Y-122661033D01*
X240927832Y-122976912D01*
X241051082Y-123274463D01*
X241078168Y-123315000D01*
X237421832Y-123315000D01*
X237448918Y-123274463D01*
X237572168Y-122976912D01*
X237635000Y-122661033D01*
X237635000Y-122338967D01*
X237572168Y-122023088D01*
X237448918Y-121725537D01*
X237269987Y-121457748D01*
X237042252Y-121230013D01*
X236774463Y-121051082D01*
X236476912Y-120927832D01*
X236161033Y-120865000D01*
X235838967Y-120865000D01*
X235523088Y-120927832D01*
X235483625Y-120944178D01*
X234034999Y-119495553D01*
X234034999Y-119135413D01*
X235044192Y-119135413D01*
X235139956Y-119399814D01*
X235429571Y-119540704D01*
X235741108Y-119622384D01*
X236062595Y-119641718D01*
X236381675Y-119597961D01*
X236686088Y-119492795D01*
X236860044Y-119399814D01*
X236955808Y-119135413D01*
X241544192Y-119135413D01*
X241639956Y-119399814D01*
X241929571Y-119540704D01*
X242241108Y-119622384D01*
X242562595Y-119641718D01*
X242881675Y-119597961D01*
X243186088Y-119492795D01*
X243360044Y-119399814D01*
X243455808Y-119135413D01*
X242500000Y-118179605D01*
X241544192Y-119135413D01*
X236955808Y-119135413D01*
X236000000Y-118179605D01*
X235044192Y-119135413D01*
X234034999Y-119135413D01*
X234034999Y-118062595D01*
X234358282Y-118062595D01*
X234402039Y-118381675D01*
X234507205Y-118686088D01*
X234600186Y-118860044D01*
X234864587Y-118955808D01*
X235820395Y-118000000D01*
X236179605Y-118000000D01*
X237135413Y-118955808D01*
X237399814Y-118860044D01*
X237540704Y-118570429D01*
X237622384Y-118258892D01*
X237634189Y-118062595D01*
X240858282Y-118062595D01*
X240902039Y-118381675D01*
X241007205Y-118686088D01*
X241100186Y-118860044D01*
X241364587Y-118955808D01*
X242320395Y-118000000D01*
X242679605Y-118000000D01*
X243635413Y-118955808D01*
X243899814Y-118860044D01*
X244040704Y-118570429D01*
X244122384Y-118258892D01*
X244141718Y-117937405D01*
X244097961Y-117618325D01*
X243992795Y-117313912D01*
X243899814Y-117139956D01*
X243635413Y-117044192D01*
X242679605Y-118000000D01*
X242320395Y-118000000D01*
X241364587Y-117044192D01*
X241100186Y-117139956D01*
X240959296Y-117429571D01*
X240877616Y-117741108D01*
X240858282Y-118062595D01*
X237634189Y-118062595D01*
X237641718Y-117937405D01*
X237597961Y-117618325D01*
X237492795Y-117313912D01*
X237399814Y-117139956D01*
X237135413Y-117044192D01*
X236179605Y-118000000D01*
X235820395Y-118000000D01*
X234864587Y-117044192D01*
X234600186Y-117139956D01*
X234459296Y-117429571D01*
X234377616Y-117741108D01*
X234358282Y-118062595D01*
X234034999Y-118062595D01*
X234034999Y-116864587D01*
X235044192Y-116864587D01*
X236000000Y-117820395D01*
X236955808Y-116864587D01*
X241544192Y-116864587D01*
X242500000Y-117820395D01*
X243455808Y-116864587D01*
X243360044Y-116600186D01*
X243070429Y-116459296D01*
X242758892Y-116377616D01*
X242437405Y-116358282D01*
X242118325Y-116402039D01*
X241813912Y-116507205D01*
X241639956Y-116600186D01*
X241544192Y-116864587D01*
X236955808Y-116864587D01*
X236860044Y-116600186D01*
X236570429Y-116459296D01*
X236258892Y-116377616D01*
X235937405Y-116358282D01*
X235618325Y-116402039D01*
X235313912Y-116507205D01*
X235139956Y-116600186D01*
X235044192Y-116864587D01*
X234034999Y-116864587D01*
X234034999Y-116338967D01*
X247365000Y-116338967D01*
X247365000Y-116661033D01*
X247427832Y-116976912D01*
X247551082Y-117274463D01*
X247730013Y-117542252D01*
X247957748Y-117769987D01*
X248225537Y-117948918D01*
X248523088Y-118072168D01*
X248838967Y-118135000D01*
X249161033Y-118135000D01*
X249476912Y-118072168D01*
X249774463Y-117948918D01*
X250042252Y-117769987D01*
X250176826Y-117635413D01*
X253044192Y-117635413D01*
X253139956Y-117899814D01*
X253429571Y-118040704D01*
X253741108Y-118122384D01*
X254062595Y-118141718D01*
X254381675Y-118097961D01*
X254686088Y-117992795D01*
X254860044Y-117899814D01*
X254955808Y-117635413D01*
X254000000Y-116679605D01*
X253044192Y-117635413D01*
X250176826Y-117635413D01*
X250269987Y-117542252D01*
X250448918Y-117274463D01*
X250572168Y-116976912D01*
X250635000Y-116661033D01*
X250635000Y-116562595D01*
X252358282Y-116562595D01*
X252402039Y-116881675D01*
X252507205Y-117186088D01*
X252600186Y-117360044D01*
X252864587Y-117455808D01*
X253820395Y-116500000D01*
X254179605Y-116500000D01*
X255135413Y-117455808D01*
X255399814Y-117360044D01*
X255540704Y-117070429D01*
X255622384Y-116758892D01*
X255641718Y-116437405D01*
X255597961Y-116118325D01*
X255492795Y-115813912D01*
X255399814Y-115639956D01*
X255135413Y-115544192D01*
X254179605Y-116500000D01*
X253820395Y-116500000D01*
X252864587Y-115544192D01*
X252600186Y-115639956D01*
X252459296Y-115929571D01*
X252377616Y-116241108D01*
X252358282Y-116562595D01*
X250635000Y-116562595D01*
X250635000Y-116338967D01*
X250572168Y-116023088D01*
X250448918Y-115725537D01*
X250269987Y-115457748D01*
X250176826Y-115364587D01*
X253044192Y-115364587D01*
X254000000Y-116320395D01*
X254955808Y-115364587D01*
X254860044Y-115100186D01*
X254570429Y-114959296D01*
X254258892Y-114877616D01*
X253937405Y-114858282D01*
X253618325Y-114902039D01*
X253313912Y-115007205D01*
X253139956Y-115100186D01*
X253044192Y-115364587D01*
X250176826Y-115364587D01*
X250042252Y-115230013D01*
X249774463Y-115051082D01*
X249735000Y-115034736D01*
X249735000Y-112136109D01*
X249738556Y-112100004D01*
X249733238Y-112046013D01*
X249734998Y-112037167D01*
X249734998Y-111862837D01*
X249700988Y-111691857D01*
X249634275Y-111530797D01*
X249537422Y-111385847D01*
X249414153Y-111262578D01*
X249269203Y-111165725D01*
X249108143Y-111099012D01*
X248937163Y-111065002D01*
X248762833Y-111065002D01*
X248591853Y-111099012D01*
X248430793Y-111165725D01*
X248285843Y-111262578D01*
X248162574Y-111385847D01*
X248065721Y-111530797D01*
X247999008Y-111691857D01*
X247964998Y-111862837D01*
X247964998Y-112037167D01*
X247999008Y-112208147D01*
X248065721Y-112369207D01*
X248162574Y-112514157D01*
X248265001Y-112616584D01*
X248265000Y-115034736D01*
X248225537Y-115051082D01*
X247957748Y-115230013D01*
X247730013Y-115457748D01*
X247551082Y-115725537D01*
X247427832Y-116023088D01*
X247365000Y-116338967D01*
X234034999Y-116338967D01*
X234034999Y-113515066D01*
X234085912Y-113610318D01*
X234177761Y-113722236D01*
X234205807Y-113745253D01*
X234444178Y-113983625D01*
X234427832Y-114023088D01*
X234365000Y-114338967D01*
X234365000Y-114661033D01*
X234427832Y-114976912D01*
X234551082Y-115274463D01*
X234730013Y-115542252D01*
X234957748Y-115769987D01*
X235225537Y-115948918D01*
X235523088Y-116072168D01*
X235838967Y-116135000D01*
X236161033Y-116135000D01*
X236476912Y-116072168D01*
X236774463Y-115948918D01*
X237042252Y-115769987D01*
X237269987Y-115542252D01*
X237448918Y-115274463D01*
X237572168Y-114976912D01*
X237635000Y-114661033D01*
X237635000Y-114338967D01*
X240865000Y-114338967D01*
X240865000Y-114661033D01*
X240927832Y-114976912D01*
X241051082Y-115274463D01*
X241230013Y-115542252D01*
X241457748Y-115769987D01*
X241725537Y-115948918D01*
X242023088Y-116072168D01*
X242338967Y-116135000D01*
X242661033Y-116135000D01*
X242976912Y-116072168D01*
X243274463Y-115948918D01*
X243542252Y-115769987D01*
X243769987Y-115542252D01*
X243948918Y-115274463D01*
X244072168Y-114976912D01*
X244135000Y-114661033D01*
X244135000Y-114338967D01*
X244072168Y-114023088D01*
X243948918Y-113725537D01*
X243769987Y-113457748D01*
X243542252Y-113230013D01*
X243274463Y-113051082D01*
X242976912Y-112927832D01*
X242661033Y-112865000D01*
X242338967Y-112865000D01*
X242023088Y-112927832D01*
X241725537Y-113051082D01*
X241457748Y-113230013D01*
X241230013Y-113457748D01*
X241051082Y-113725537D01*
X240927832Y-114023088D01*
X240865000Y-114338967D01*
X237635000Y-114338967D01*
X237572168Y-114023088D01*
X237448918Y-113725537D01*
X237269987Y-113457748D01*
X237042252Y-113230013D01*
X236774463Y-113051082D01*
X236476912Y-112927832D01*
X236161033Y-112865000D01*
X235838967Y-112865000D01*
X235523088Y-112927832D01*
X235483625Y-112944178D01*
X235434999Y-112895553D01*
X235434999Y-111542127D01*
X235741108Y-111622384D01*
X236062595Y-111641718D01*
X236381675Y-111597961D01*
X236686088Y-111492795D01*
X236860044Y-111399814D01*
X236955808Y-111135413D01*
X241544192Y-111135413D01*
X241639956Y-111399814D01*
X241929571Y-111540704D01*
X242241108Y-111622384D01*
X242562595Y-111641718D01*
X242881675Y-111597961D01*
X243186088Y-111492795D01*
X243360044Y-111399814D01*
X243455808Y-111135413D01*
X242500000Y-110179605D01*
X241544192Y-111135413D01*
X236955808Y-111135413D01*
X236000000Y-110179605D01*
X235985858Y-110193748D01*
X235806253Y-110014143D01*
X235820395Y-110000000D01*
X236179605Y-110000000D01*
X237135413Y-110955808D01*
X237399814Y-110860044D01*
X237540704Y-110570429D01*
X237622384Y-110258892D01*
X237634189Y-110062595D01*
X240858282Y-110062595D01*
X240902039Y-110381675D01*
X241007205Y-110686088D01*
X241100186Y-110860044D01*
X241364587Y-110955808D01*
X242320395Y-110000000D01*
X242679605Y-110000000D01*
X243635413Y-110955808D01*
X243899814Y-110860044D01*
X244040704Y-110570429D01*
X244122384Y-110258892D01*
X244141718Y-109937405D01*
X244097961Y-109618325D01*
X243992795Y-109313912D01*
X243899814Y-109139956D01*
X243635413Y-109044192D01*
X242679605Y-110000000D01*
X242320395Y-110000000D01*
X241364587Y-109044192D01*
X241100186Y-109139956D01*
X240959296Y-109429571D01*
X240877616Y-109741108D01*
X240858282Y-110062595D01*
X237634189Y-110062595D01*
X237641718Y-109937405D01*
X237597961Y-109618325D01*
X237492795Y-109313912D01*
X237399814Y-109139956D01*
X237135413Y-109044192D01*
X236179605Y-110000000D01*
X235820395Y-110000000D01*
X235806253Y-109985858D01*
X235985858Y-109806253D01*
X236000000Y-109820395D01*
X236955808Y-108864587D01*
X241544192Y-108864587D01*
X242500000Y-109820395D01*
X243455808Y-108864587D01*
X243360044Y-108600186D01*
X243070429Y-108459296D01*
X242758892Y-108377616D01*
X242437405Y-108358282D01*
X242118325Y-108402039D01*
X241813912Y-108507205D01*
X241639956Y-108600186D01*
X241544192Y-108864587D01*
X236955808Y-108864587D01*
X236860044Y-108600186D01*
X236570429Y-108459296D01*
X236258892Y-108377616D01*
X235937405Y-108358282D01*
X235618325Y-108402039D01*
X235434999Y-108465373D01*
X235434999Y-108136093D01*
X235438554Y-108099998D01*
X235434999Y-108063903D01*
X235434999Y-108063894D01*
X235432102Y-108034480D01*
X235523088Y-108072168D01*
X235838967Y-108135000D01*
X236161033Y-108135000D01*
X236476912Y-108072168D01*
X236774463Y-107948918D01*
X237042252Y-107769987D01*
X237269987Y-107542252D01*
X237448918Y-107274463D01*
X237572168Y-106976912D01*
X237635000Y-106661033D01*
X237635000Y-106338967D01*
X240865000Y-106338967D01*
X240865000Y-106661033D01*
X240927832Y-106976912D01*
X241051082Y-107274463D01*
X241230013Y-107542252D01*
X241457748Y-107769987D01*
X241725537Y-107948918D01*
X242023088Y-108072168D01*
X242338967Y-108135000D01*
X242661033Y-108135000D01*
X242976912Y-108072168D01*
X243274463Y-107948918D01*
X243347673Y-107900000D01*
X244261928Y-107900000D01*
X244261928Y-111100000D01*
X244274188Y-111224482D01*
X244310498Y-111344180D01*
X244369463Y-111454494D01*
X244448815Y-111551185D01*
X244545506Y-111630537D01*
X244655820Y-111689502D01*
X244775518Y-111725812D01*
X244900000Y-111738072D01*
X246900000Y-111738072D01*
X247024482Y-111725812D01*
X247144180Y-111689502D01*
X247254494Y-111630537D01*
X247351185Y-111551185D01*
X247430537Y-111454494D01*
X247489502Y-111344180D01*
X247525812Y-111224482D01*
X247538072Y-111100000D01*
X247538072Y-107900000D01*
X247525812Y-107775518D01*
X247489502Y-107655820D01*
X247430537Y-107545506D01*
X247351185Y-107448815D01*
X247254494Y-107369463D01*
X247144180Y-107310498D01*
X247024482Y-107274188D01*
X246900000Y-107261928D01*
X244900000Y-107261928D01*
X244775518Y-107274188D01*
X244655820Y-107310498D01*
X244545506Y-107369463D01*
X244448815Y-107448815D01*
X244369463Y-107545506D01*
X244310498Y-107655820D01*
X244274188Y-107775518D01*
X244261928Y-107900000D01*
X243347673Y-107900000D01*
X243542252Y-107769987D01*
X243769987Y-107542252D01*
X243948918Y-107274463D01*
X244072168Y-106976912D01*
X244135000Y-106661033D01*
X244135000Y-106338967D01*
X244072168Y-106023088D01*
X243948918Y-105725537D01*
X243769987Y-105457748D01*
X243542252Y-105230013D01*
X243274463Y-105051082D01*
X242976912Y-104927832D01*
X242661033Y-104865000D01*
X242338967Y-104865000D01*
X242023088Y-104927832D01*
X241725537Y-105051082D01*
X241457748Y-105230013D01*
X241230013Y-105457748D01*
X241051082Y-105725537D01*
X240927832Y-106023088D01*
X240865000Y-106338967D01*
X237635000Y-106338967D01*
X237572168Y-106023088D01*
X237448918Y-105725537D01*
X237269987Y-105457748D01*
X237042252Y-105230013D01*
X236774463Y-105051082D01*
X236476912Y-104927832D01*
X236161033Y-104865000D01*
X235838967Y-104865000D01*
X235523088Y-104927832D01*
X235225537Y-105051082D01*
X234957748Y-105230013D01*
X234730013Y-105457748D01*
X234551082Y-105725537D01*
X234427832Y-106023088D01*
X234365000Y-106338967D01*
X234365000Y-106661033D01*
X234420805Y-106941583D01*
X234287166Y-106915001D01*
X234112836Y-106915001D01*
X233941856Y-106949011D01*
X233780796Y-107015724D01*
X233635846Y-107112577D01*
X233512577Y-107235846D01*
X233415724Y-107380796D01*
X233349011Y-107541856D01*
X233315001Y-107712836D01*
X233315001Y-107887166D01*
X233349011Y-108058146D01*
X233415724Y-108219206D01*
X233512577Y-108364156D01*
X233635846Y-108487425D01*
X233780796Y-108584278D01*
X233941856Y-108650991D01*
X233965000Y-108655595D01*
X233964999Y-110813422D01*
X233864154Y-110712577D01*
X233719204Y-110615724D01*
X233558144Y-110549011D01*
X233387164Y-110515001D01*
X233212834Y-110515001D01*
X233041854Y-110549011D01*
X232880794Y-110615724D01*
X232735844Y-110712577D01*
X232612575Y-110835846D01*
X232515722Y-110980796D01*
X232449009Y-111141856D01*
X232414999Y-111312836D01*
X232414999Y-111487166D01*
X232449009Y-111658146D01*
X232515722Y-111819206D01*
X232565000Y-111892955D01*
X232564999Y-119763894D01*
X232561443Y-119799999D01*
X232575634Y-119944084D01*
X232579223Y-119955915D01*
X232617662Y-120082631D01*
X232685912Y-120210318D01*
X232777761Y-120322236D01*
X232805807Y-120345253D01*
X234444178Y-121983625D01*
X234427832Y-122023088D01*
X234365000Y-122338967D01*
X234365000Y-122661033D01*
X234427832Y-122976912D01*
X234551082Y-123274463D01*
X234578168Y-123315000D01*
X233033647Y-123315000D01*
X233000000Y-123311686D01*
X232966353Y-123315000D01*
X232865717Y-123324912D01*
X232783013Y-123350000D01*
X228576123Y-123350000D01*
X228534195Y-123341698D01*
X228473471Y-123328791D01*
X228463959Y-123327791D01*
X228366841Y-123318269D01*
X228366837Y-123318269D01*
X228333647Y-123315000D01*
X226437408Y-123315000D01*
X226443547Y-123309962D01*
X226553990Y-123175387D01*
X226636057Y-123021852D01*
X226686593Y-122855256D01*
X226703657Y-122682002D01*
X226703657Y-122156998D01*
X226686593Y-121983744D01*
X226636057Y-121817148D01*
X226553990Y-121663613D01*
X226443547Y-121529038D01*
X226416694Y-121507000D01*
X226443547Y-121484962D01*
X226553990Y-121350387D01*
X226636057Y-121196852D01*
X226676754Y-121062693D01*
X226771152Y-120968294D01*
X226858145Y-120950990D01*
X227019205Y-120884277D01*
X227164155Y-120787424D01*
X227287424Y-120664155D01*
X227384277Y-120519205D01*
X227450990Y-120358145D01*
X227485000Y-120187165D01*
X227485000Y-120012835D01*
X227450990Y-119841855D01*
X227384277Y-119680795D01*
X227287424Y-119535845D01*
X227164155Y-119412576D01*
X227019205Y-119315723D01*
X226858145Y-119249010D01*
X226687165Y-119215000D01*
X226512835Y-119215000D01*
X226341855Y-119249010D01*
X226180795Y-119315723D01*
X226035845Y-119412576D01*
X225987556Y-119460865D01*
X225815587Y-119443928D01*
X224915583Y-119443928D01*
X224742329Y-119460992D01*
X224575733Y-119511528D01*
X224422198Y-119593595D01*
X224378543Y-119629422D01*
X224334888Y-119593595D01*
X224285000Y-119566929D01*
X224285000Y-119412835D01*
X224250990Y-119241855D01*
X224184277Y-119080795D01*
X224087424Y-118935845D01*
X223964155Y-118812576D01*
X223819205Y-118715723D01*
X223658145Y-118649010D01*
X223487165Y-118615000D01*
X223312835Y-118615000D01*
X223141855Y-118649010D01*
X222980795Y-118715723D01*
X222835845Y-118812576D01*
X222712576Y-118935845D01*
X222615723Y-119080795D01*
X222549010Y-119241855D01*
X222515000Y-119412835D01*
X222515000Y-119557843D01*
X222448114Y-119593595D01*
X222313539Y-119704038D01*
X222203096Y-119838613D01*
X222121029Y-119992148D01*
X222070493Y-120158744D01*
X222053429Y-120331998D01*
X222053429Y-120857002D01*
X222070493Y-121030256D01*
X222121029Y-121196852D01*
X222203096Y-121350387D01*
X222313539Y-121484962D01*
X222340392Y-121507000D01*
X222313539Y-121529038D01*
X222268022Y-121584500D01*
X221526491Y-121584500D01*
X221526491Y-115232509D01*
X221530531Y-115191491D01*
X221514409Y-115027803D01*
X221484084Y-114927832D01*
X221466663Y-114870404D01*
X221389127Y-114725345D01*
X221284782Y-114598200D01*
X221252924Y-114572055D01*
X218285000Y-111604133D01*
X218285000Y-107420261D01*
X218380773Y-107484255D01*
X218541833Y-107550968D01*
X218628825Y-107568272D01*
X218700011Y-107639457D01*
X218700011Y-107868002D01*
X218717075Y-108041256D01*
X218767611Y-108207852D01*
X218849678Y-108361387D01*
X218960121Y-108495962D01*
X219094696Y-108606405D01*
X219248231Y-108688472D01*
X219414827Y-108739008D01*
X219588081Y-108756072D01*
X220488085Y-108756072D01*
X220630937Y-108742002D01*
X220712565Y-108864166D01*
X220835834Y-108987435D01*
X220980784Y-109084288D01*
X221141844Y-109151001D01*
X221312824Y-109185011D01*
X221487154Y-109185011D01*
X221658134Y-109151001D01*
X221819194Y-109084288D01*
X221964144Y-108987435D01*
X222087413Y-108864166D01*
X222159639Y-108756072D01*
X222520468Y-108756072D01*
X222693722Y-108739008D01*
X222860318Y-108688472D01*
X223013853Y-108606405D01*
X223086658Y-108546656D01*
X223159462Y-108606405D01*
X223251249Y-108655467D01*
X223251250Y-110797173D01*
X223212577Y-110835846D01*
X223115724Y-110980796D01*
X223049011Y-111141856D01*
X223015001Y-111312836D01*
X223015001Y-111487166D01*
X223049011Y-111658146D01*
X223115724Y-111819206D01*
X223212577Y-111964156D01*
X223335846Y-112087425D01*
X223480796Y-112184278D01*
X223641856Y-112250991D01*
X223812836Y-112285001D01*
X223987166Y-112285001D01*
X224158146Y-112250991D01*
X224319206Y-112184278D01*
X224464156Y-112087425D01*
X224587425Y-111964156D01*
X224684278Y-111819206D01*
X224750991Y-111658146D01*
X224785001Y-111487166D01*
X224785001Y-111312836D01*
X224750991Y-111141856D01*
X224721249Y-111070052D01*
X224721249Y-108739486D01*
X224726105Y-108739008D01*
X224892701Y-108688472D01*
X225046236Y-108606405D01*
X225119041Y-108546656D01*
X225191845Y-108606405D01*
X225225332Y-108624304D01*
X225225333Y-111236194D01*
X225185847Y-111262578D01*
X225062578Y-111385847D01*
X224965725Y-111530797D01*
X224899012Y-111691857D01*
X224865002Y-111862837D01*
X224865002Y-112037167D01*
X224899012Y-112208147D01*
X224965725Y-112369207D01*
X225062578Y-112514157D01*
X225185847Y-112637426D01*
X225330797Y-112734279D01*
X225491857Y-112800992D01*
X225662837Y-112835002D01*
X225837167Y-112835002D01*
X226008147Y-112800992D01*
X226169207Y-112734279D01*
X226314157Y-112637426D01*
X226437426Y-112514157D01*
X226534279Y-112369207D01*
X226600992Y-112208147D01*
X226635002Y-112037167D01*
X226635002Y-112036649D01*
X226642669Y-112022305D01*
X226684697Y-111883757D01*
X226695332Y-111775777D01*
X226698888Y-111739672D01*
X226695332Y-111703567D01*
X226695332Y-108745228D01*
X226758488Y-108739008D01*
X226925084Y-108688472D01*
X227078619Y-108606405D01*
X227151424Y-108546656D01*
X227224228Y-108606405D01*
X227377763Y-108688472D01*
X227432615Y-108705111D01*
X227432616Y-109842547D01*
X227389613Y-109906905D01*
X227322900Y-110067965D01*
X227288890Y-110238945D01*
X227288890Y-110413275D01*
X227322900Y-110584255D01*
X227389613Y-110745315D01*
X227486466Y-110890265D01*
X227609735Y-111013534D01*
X227754685Y-111110387D01*
X227915745Y-111177100D01*
X228086725Y-111211110D01*
X228261055Y-111211110D01*
X228432035Y-111177100D01*
X228593095Y-111110387D01*
X228738045Y-111013534D01*
X228861314Y-110890265D01*
X228958167Y-110745315D01*
X229024880Y-110584255D01*
X229058890Y-110413275D01*
X229058890Y-110238945D01*
X229024880Y-110067965D01*
X228958167Y-109906905D01*
X228902615Y-109823766D01*
X228902615Y-108705111D01*
X228957467Y-108688472D01*
X229111002Y-108606405D01*
X229183808Y-108546655D01*
X229256613Y-108606405D01*
X229410148Y-108688472D01*
X229465001Y-108705111D01*
X229465001Y-109207046D01*
X229415723Y-109280795D01*
X229349010Y-109441855D01*
X229315000Y-109612835D01*
X229315000Y-109787165D01*
X229349010Y-109958145D01*
X229415723Y-110119205D01*
X229512576Y-110264155D01*
X229635845Y-110387424D01*
X229780795Y-110484277D01*
X229941855Y-110550990D01*
X230112835Y-110585000D01*
X230287165Y-110585000D01*
X230458145Y-110550990D01*
X230619205Y-110484277D01*
X230764155Y-110387424D01*
X230887424Y-110264155D01*
X230984277Y-110119205D01*
X231050990Y-109958145D01*
X231085000Y-109787165D01*
X231085000Y-109612835D01*
X231050990Y-109441855D01*
X230984277Y-109280795D01*
X230935000Y-109207047D01*
X230935000Y-108705111D01*
X230989852Y-108688472D01*
X231143387Y-108606405D01*
X231277962Y-108495962D01*
X231388405Y-108361387D01*
X231470472Y-108207852D01*
X231521008Y-108041256D01*
X231538072Y-107868002D01*
X231538072Y-107342998D01*
X231521008Y-107169744D01*
X231470472Y-107003148D01*
X231388405Y-106849613D01*
X231277962Y-106715038D01*
X231251109Y-106693000D01*
X231277962Y-106670962D01*
X231388405Y-106536387D01*
X231470472Y-106382852D01*
X231521008Y-106216256D01*
X231538072Y-106043002D01*
X231538072Y-105517998D01*
X231521008Y-105344744D01*
X231470472Y-105178148D01*
X231388405Y-105024613D01*
X231277962Y-104890038D01*
X231143387Y-104779595D01*
X230989852Y-104697528D01*
X230823256Y-104646992D01*
X230650002Y-104629928D01*
X229749998Y-104629928D01*
X229576744Y-104646992D01*
X229525000Y-104662688D01*
X229525000Y-102825225D01*
X229670013Y-103042252D01*
X229897748Y-103269987D01*
X230165537Y-103448918D01*
X230463088Y-103572168D01*
X230778967Y-103635000D01*
X231101033Y-103635000D01*
X231416912Y-103572168D01*
X231714463Y-103448918D01*
X231982252Y-103269987D01*
X232209987Y-103042252D01*
X232263512Y-102962147D01*
X232278502Y-102990192D01*
X232332958Y-103071691D01*
X232412310Y-103168382D01*
X232481618Y-103237690D01*
X232578309Y-103317042D01*
X232659808Y-103371498D01*
X232670961Y-103377460D01*
X232612576Y-103435845D01*
X232515723Y-103580795D01*
X232449010Y-103741855D01*
X232415000Y-103912835D01*
X232415000Y-104087165D01*
X232449010Y-104258145D01*
X232515723Y-104419205D01*
X232612576Y-104564155D01*
X232735845Y-104687424D01*
X232880795Y-104784277D01*
X233041855Y-104850990D01*
X233212835Y-104885000D01*
X233387165Y-104885000D01*
X233558145Y-104850990D01*
X233719205Y-104784277D01*
X233864155Y-104687424D01*
X233987424Y-104564155D01*
X234084277Y-104419205D01*
X234150990Y-104258145D01*
X234185000Y-104087165D01*
X234185000Y-104073854D01*
X234224365Y-103944085D01*
X234235000Y-103836105D01*
X234238556Y-103800000D01*
X234235000Y-103763895D01*
X234235000Y-103427725D01*
X234340192Y-103371498D01*
X234421691Y-103317042D01*
X234518382Y-103237690D01*
X234587690Y-103168382D01*
X234614746Y-103135413D01*
X235044192Y-103135413D01*
X235139956Y-103399814D01*
X235429571Y-103540704D01*
X235741108Y-103622384D01*
X236062595Y-103641718D01*
X236381675Y-103597961D01*
X236686088Y-103492795D01*
X236860044Y-103399814D01*
X236955808Y-103135413D01*
X241544192Y-103135413D01*
X241639956Y-103399814D01*
X241929571Y-103540704D01*
X242241108Y-103622384D01*
X242562595Y-103641718D01*
X242881675Y-103597961D01*
X243186088Y-103492795D01*
X243360044Y-103399814D01*
X243455808Y-103135413D01*
X242500000Y-102179605D01*
X241544192Y-103135413D01*
X236955808Y-103135413D01*
X236000000Y-102179605D01*
X235044192Y-103135413D01*
X234614746Y-103135413D01*
X234667042Y-103071691D01*
X234721498Y-102990192D01*
X234760104Y-102917965D01*
X234864587Y-102955808D01*
X235820395Y-102000000D01*
X236179605Y-102000000D01*
X237135413Y-102955808D01*
X237399814Y-102860044D01*
X237540704Y-102570429D01*
X237622384Y-102258892D01*
X237634189Y-102062595D01*
X240858282Y-102062595D01*
X240902039Y-102381675D01*
X241007205Y-102686088D01*
X241100186Y-102860044D01*
X241364587Y-102955808D01*
X242320395Y-102000000D01*
X242679605Y-102000000D01*
X243635413Y-102955808D01*
X243899814Y-102860044D01*
X244040704Y-102570429D01*
X244122384Y-102258892D01*
X244141718Y-101937405D01*
X244128219Y-101838967D01*
X247365000Y-101838967D01*
X247365000Y-102161033D01*
X247427832Y-102476912D01*
X247551082Y-102774463D01*
X247730013Y-103042252D01*
X247765001Y-103077240D01*
X247765000Y-106507047D01*
X247715723Y-106580795D01*
X247649010Y-106741855D01*
X247615000Y-106912835D01*
X247615000Y-107087165D01*
X247649010Y-107258145D01*
X247715723Y-107419205D01*
X247812576Y-107564155D01*
X247935845Y-107687424D01*
X248080795Y-107784277D01*
X248241855Y-107850990D01*
X248412835Y-107885000D01*
X248587165Y-107885000D01*
X248758145Y-107850990D01*
X248919205Y-107784277D01*
X249064155Y-107687424D01*
X249187424Y-107564155D01*
X249284277Y-107419205D01*
X249350990Y-107258145D01*
X249385000Y-107087165D01*
X249385000Y-106912835D01*
X249350990Y-106741855D01*
X249284277Y-106580795D01*
X249235000Y-106507047D01*
X249235000Y-103620287D01*
X249476912Y-103572168D01*
X249774463Y-103448918D01*
X250042252Y-103269987D01*
X250269987Y-103042252D01*
X250334925Y-102945065D01*
X250364587Y-102955808D01*
X251320395Y-102000000D01*
X250364587Y-101044192D01*
X250334925Y-101054935D01*
X250269987Y-100957748D01*
X250176826Y-100864587D01*
X250544192Y-100864587D01*
X251500000Y-101820395D01*
X251514143Y-101806253D01*
X251693748Y-101985858D01*
X251679605Y-102000000D01*
X251693748Y-102014143D01*
X251514143Y-102193748D01*
X251500000Y-102179605D01*
X250544192Y-103135413D01*
X250639956Y-103399814D01*
X250929571Y-103540704D01*
X251241108Y-103622384D01*
X251562595Y-103641718D01*
X251881675Y-103597961D01*
X252186088Y-103492795D01*
X252360044Y-103399814D01*
X252414024Y-103250777D01*
X252469463Y-103354494D01*
X252548815Y-103451185D01*
X252645506Y-103530537D01*
X252755820Y-103589502D01*
X252875518Y-103625812D01*
X253000000Y-103638072D01*
X253465001Y-103638072D01*
X253465000Y-107307047D01*
X253415723Y-107380795D01*
X253349010Y-107541855D01*
X253315000Y-107712835D01*
X253315000Y-107887165D01*
X253349010Y-108058145D01*
X253415723Y-108219205D01*
X253512576Y-108364155D01*
X253635845Y-108487424D01*
X253780795Y-108584277D01*
X253941855Y-108650990D01*
X254112835Y-108685000D01*
X254287165Y-108685000D01*
X254458145Y-108650990D01*
X254619205Y-108584277D01*
X254764155Y-108487424D01*
X254887424Y-108364155D01*
X254984277Y-108219205D01*
X255050990Y-108058145D01*
X255082446Y-107900000D01*
X255461928Y-107900000D01*
X255461928Y-111100000D01*
X255474188Y-111224482D01*
X255510498Y-111344180D01*
X255569463Y-111454494D01*
X255648815Y-111551185D01*
X255745506Y-111630537D01*
X255855820Y-111689502D01*
X255975518Y-111725812D01*
X256100000Y-111738072D01*
X258100000Y-111738072D01*
X258224482Y-111725812D01*
X258344180Y-111689502D01*
X258454494Y-111630537D01*
X258551185Y-111551185D01*
X258630537Y-111454494D01*
X258689502Y-111344180D01*
X258725812Y-111224482D01*
X258738072Y-111100000D01*
X258738072Y-107900000D01*
X258725812Y-107775518D01*
X258689502Y-107655820D01*
X258630537Y-107545506D01*
X258551185Y-107448815D01*
X258454494Y-107369463D01*
X258344180Y-107310498D01*
X258224482Y-107274188D01*
X258100000Y-107261928D01*
X256100000Y-107261928D01*
X255975518Y-107274188D01*
X255855820Y-107310498D01*
X255745506Y-107369463D01*
X255648815Y-107448815D01*
X255569463Y-107545506D01*
X255510498Y-107655820D01*
X255474188Y-107775518D01*
X255461928Y-107900000D01*
X255082446Y-107900000D01*
X255085000Y-107887165D01*
X255085000Y-107712835D01*
X255050990Y-107541855D01*
X254984277Y-107380795D01*
X254935000Y-107307047D01*
X254935000Y-103638072D01*
X255000000Y-103638072D01*
X255124482Y-103625812D01*
X255244180Y-103589502D01*
X255354494Y-103530537D01*
X255451185Y-103451185D01*
X255530537Y-103354494D01*
X255589502Y-103244180D01*
X255625812Y-103124482D01*
X255638072Y-103000000D01*
X255638072Y-101000000D01*
X255625812Y-100875518D01*
X255589502Y-100755820D01*
X255530537Y-100645506D01*
X255451185Y-100548815D01*
X255354494Y-100469463D01*
X255244180Y-100410498D01*
X255124482Y-100374188D01*
X255000000Y-100361928D01*
X253000000Y-100361928D01*
X252875518Y-100374188D01*
X252755820Y-100410498D01*
X252645506Y-100469463D01*
X252548815Y-100548815D01*
X252469463Y-100645506D01*
X252414024Y-100749223D01*
X252360044Y-100600186D01*
X252070429Y-100459296D01*
X251758892Y-100377616D01*
X251437405Y-100358282D01*
X251118325Y-100402039D01*
X250813912Y-100507205D01*
X250639956Y-100600186D01*
X250544192Y-100864587D01*
X250176826Y-100864587D01*
X250042252Y-100730013D01*
X249774463Y-100551082D01*
X249476912Y-100427832D01*
X249161033Y-100365000D01*
X248838967Y-100365000D01*
X248523088Y-100427832D01*
X248225537Y-100551082D01*
X247957748Y-100730013D01*
X247730013Y-100957748D01*
X247551082Y-101225537D01*
X247427832Y-101523088D01*
X247365000Y-101838967D01*
X244128219Y-101838967D01*
X244097961Y-101618325D01*
X243992795Y-101313912D01*
X243899814Y-101139956D01*
X243635413Y-101044192D01*
X242679605Y-102000000D01*
X242320395Y-102000000D01*
X241364587Y-101044192D01*
X241100186Y-101139956D01*
X240959296Y-101429571D01*
X240877616Y-101741108D01*
X240858282Y-102062595D01*
X237634189Y-102062595D01*
X237641718Y-101937405D01*
X237597961Y-101618325D01*
X237492795Y-101313912D01*
X237399814Y-101139956D01*
X237135413Y-101044192D01*
X236179605Y-102000000D01*
X235820395Y-102000000D01*
X235806253Y-101985858D01*
X235985858Y-101806253D01*
X236000000Y-101820395D01*
X236955808Y-100864587D01*
X241544192Y-100864587D01*
X242500000Y-101820395D01*
X243455808Y-100864587D01*
X243360044Y-100600186D01*
X243070429Y-100459296D01*
X242758892Y-100377616D01*
X242437405Y-100358282D01*
X242118325Y-100402039D01*
X241813912Y-100507205D01*
X241639956Y-100600186D01*
X241544192Y-100864587D01*
X236955808Y-100864587D01*
X236860044Y-100600186D01*
X236570429Y-100459296D01*
X236258892Y-100377616D01*
X235937405Y-100358282D01*
X235618325Y-100402039D01*
X235313912Y-100507205D01*
X235139956Y-100600186D01*
X235044193Y-100864585D01*
X234928525Y-100748917D01*
X234852602Y-100824840D01*
X234817973Y-100710681D01*
X234780464Y-100620125D01*
X234721498Y-100509808D01*
X234667042Y-100428309D01*
X234587690Y-100331618D01*
X234518382Y-100262310D01*
X234505000Y-100251328D01*
X234505000Y-100064883D01*
X234716632Y-99923475D01*
X234923475Y-99716632D01*
X235040000Y-99542240D01*
X235156525Y-99716632D01*
X235363368Y-99923475D01*
X235606589Y-100085990D01*
X235876842Y-100197932D01*
X236163740Y-100255000D01*
X236456260Y-100255000D01*
X236743158Y-100197932D01*
X237013411Y-100085990D01*
X237256632Y-99923475D01*
X237463475Y-99716632D01*
X237585195Y-99534466D01*
X237654822Y-99651355D01*
X237849731Y-99867588D01*
X238083080Y-100041641D01*
X238345901Y-100166825D01*
X238493110Y-100211476D01*
X238723000Y-100090155D01*
X238723000Y-98897000D01*
X238703000Y-98897000D01*
X238703000Y-98643000D01*
X238723000Y-98643000D01*
X238723000Y-98623000D01*
X238977000Y-98623000D01*
X238977000Y-98643000D01*
X238997000Y-98643000D01*
X238997000Y-98897000D01*
X238977000Y-98897000D01*
X238977000Y-100090155D01*
X239206890Y-100211476D01*
X239354099Y-100166825D01*
X239616920Y-100041641D01*
X239850269Y-99867588D01*
X240045178Y-99651355D01*
X240114805Y-99534466D01*
X240236525Y-99716632D01*
X240443368Y-99923475D01*
X240686589Y-100085990D01*
X240956842Y-100197932D01*
X241243740Y-100255000D01*
X241536260Y-100255000D01*
X241823158Y-100197932D01*
X242093411Y-100085990D01*
X242336632Y-99923475D01*
X242543475Y-99716632D01*
X242660000Y-99542240D01*
X242776525Y-99716632D01*
X242983368Y-99923475D01*
X243226589Y-100085990D01*
X243496842Y-100197932D01*
X243783740Y-100255000D01*
X244076260Y-100255000D01*
X244363158Y-100197932D01*
X244633411Y-100085990D01*
X244876632Y-99923475D01*
X245083475Y-99716632D01*
X245200000Y-99542240D01*
X245316525Y-99716632D01*
X245523368Y-99923475D01*
X245766589Y-100085990D01*
X246036842Y-100197932D01*
X246323740Y-100255000D01*
X246616260Y-100255000D01*
X246903158Y-100197932D01*
X247173411Y-100085990D01*
X247416632Y-99923475D01*
X247623475Y-99716632D01*
X247740000Y-99542240D01*
X247856525Y-99716632D01*
X248063368Y-99923475D01*
X248306589Y-100085990D01*
X248576842Y-100197932D01*
X248863740Y-100255000D01*
X249156260Y-100255000D01*
X249443158Y-100197932D01*
X249713411Y-100085990D01*
X249956632Y-99923475D01*
X250163475Y-99716632D01*
X250280000Y-99542240D01*
X250396525Y-99716632D01*
X250603368Y-99923475D01*
X250846589Y-100085990D01*
X251116842Y-100197932D01*
X251403740Y-100255000D01*
X251696260Y-100255000D01*
X251983158Y-100197932D01*
X252253411Y-100085990D01*
X252496632Y-99923475D01*
X252703475Y-99716632D01*
X252820000Y-99542240D01*
X252936525Y-99716632D01*
X253143368Y-99923475D01*
X253386589Y-100085990D01*
X253656842Y-100197932D01*
X253943740Y-100255000D01*
X254236260Y-100255000D01*
X254523158Y-100197932D01*
X254793411Y-100085990D01*
X255036632Y-99923475D01*
X255243475Y-99716632D01*
X255365195Y-99534466D01*
X255434822Y-99651355D01*
X255629731Y-99867588D01*
X255863080Y-100041641D01*
X256125901Y-100166825D01*
X256273110Y-100211476D01*
X256503000Y-100090155D01*
X256503000Y-98897000D01*
X256757000Y-98897000D01*
X256757000Y-100090155D01*
X256986890Y-100211476D01*
X257134099Y-100166825D01*
X257396920Y-100041641D01*
X257630269Y-99867588D01*
X257825178Y-99651355D01*
X257974157Y-99401252D01*
X258071481Y-99126891D01*
X257950814Y-98897000D01*
X256757000Y-98897000D01*
X256503000Y-98897000D01*
X256483000Y-98897000D01*
X256483000Y-98643000D01*
X256503000Y-98643000D01*
X256503000Y-98623000D01*
X256757000Y-98623000D01*
X256757000Y-98643000D01*
X257950814Y-98643000D01*
X258071481Y-98413109D01*
X257974157Y-98138748D01*
X257825178Y-97888645D01*
X257630269Y-97672412D01*
X257400594Y-97501100D01*
X257576632Y-97383475D01*
X257655612Y-97304495D01*
X259515000Y-97304495D01*
X259515000Y-97695505D01*
X259591282Y-98079003D01*
X259740915Y-98440250D01*
X259958149Y-98765364D01*
X260234636Y-99041851D01*
X260559750Y-99259085D01*
X260920997Y-99408718D01*
X261304495Y-99485000D01*
X261695505Y-99485000D01*
X262079003Y-99408718D01*
X262440250Y-99259085D01*
X262765364Y-99041851D01*
X263041851Y-98765364D01*
X263259085Y-98440250D01*
X263408718Y-98079003D01*
X263485000Y-97695505D01*
X263485000Y-97304495D01*
X263408718Y-96920997D01*
X263259085Y-96559750D01*
X263041851Y-96234636D01*
X262765364Y-95958149D01*
X262440250Y-95740915D01*
X262079003Y-95591282D01*
X261695505Y-95515000D01*
X261304495Y-95515000D01*
X260920997Y-95591282D01*
X260559750Y-95740915D01*
X260234636Y-95958149D01*
X259958149Y-96234636D01*
X259740915Y-96559750D01*
X259591282Y-96920997D01*
X259515000Y-97304495D01*
X257655612Y-97304495D01*
X257783475Y-97176632D01*
X257945990Y-96933411D01*
X258057932Y-96663158D01*
X258115000Y-96376260D01*
X258115000Y-96083740D01*
X258057932Y-95796842D01*
X257945990Y-95526589D01*
X257783475Y-95283368D01*
X257576632Y-95076525D01*
X257333411Y-94914010D01*
X257063158Y-94802068D01*
X256776260Y-94745000D01*
X256483740Y-94745000D01*
X256196842Y-94802068D01*
X255926589Y-94914010D01*
X255683368Y-95076525D01*
X255476525Y-95283368D01*
X255360000Y-95457760D01*
X255243475Y-95283368D01*
X255036632Y-95076525D01*
X254793411Y-94914010D01*
X254523158Y-94802068D01*
X254236260Y-94745000D01*
X253943740Y-94745000D01*
X253656842Y-94802068D01*
X253386589Y-94914010D01*
X253143368Y-95076525D01*
X252936525Y-95283368D01*
X252820000Y-95457760D01*
X252703475Y-95283368D01*
X252496632Y-95076525D01*
X252253411Y-94914010D01*
X251983158Y-94802068D01*
X251696260Y-94745000D01*
X251403740Y-94745000D01*
X251116842Y-94802068D01*
X250846589Y-94914010D01*
X250603368Y-95076525D01*
X250396525Y-95283368D01*
X250274805Y-95465534D01*
X250205178Y-95348645D01*
X250010269Y-95132412D01*
X249776920Y-94958359D01*
X249514099Y-94833175D01*
X249366890Y-94788524D01*
X249137000Y-94909845D01*
X249137000Y-96103000D01*
X249157000Y-96103000D01*
X249157000Y-96357000D01*
X249137000Y-96357000D01*
X249137000Y-96377000D01*
X248883000Y-96377000D01*
X248883000Y-96357000D01*
X248863000Y-96357000D01*
X248863000Y-96103000D01*
X248883000Y-96103000D01*
X248883000Y-94909845D01*
X248653110Y-94788524D01*
X248505901Y-94833175D01*
X248243080Y-94958359D01*
X248009731Y-95132412D01*
X247814822Y-95348645D01*
X247745195Y-95465534D01*
X247623475Y-95283368D01*
X247416632Y-95076525D01*
X247173411Y-94914010D01*
X246903158Y-94802068D01*
X246616260Y-94745000D01*
X246323740Y-94745000D01*
X246036842Y-94802068D01*
X245766589Y-94914010D01*
X245523368Y-95076525D01*
X245316525Y-95283368D01*
X245194805Y-95465534D01*
X245125178Y-95348645D01*
X244930269Y-95132412D01*
X244696920Y-94958359D01*
X244434099Y-94833175D01*
X244286890Y-94788524D01*
X244057000Y-94909845D01*
X244057000Y-96103000D01*
X244077000Y-96103000D01*
X244077000Y-96357000D01*
X244057000Y-96357000D01*
X244057000Y-96377000D01*
X243803000Y-96377000D01*
X243803000Y-96357000D01*
X243783000Y-96357000D01*
X243783000Y-96103000D01*
X243803000Y-96103000D01*
X243803000Y-94909845D01*
X243573110Y-94788524D01*
X243425901Y-94833175D01*
X243163080Y-94958359D01*
X242929731Y-95132412D01*
X242734822Y-95348645D01*
X242665195Y-95465534D01*
X242543475Y-95283368D01*
X242336632Y-95076525D01*
X242093411Y-94914010D01*
X241823158Y-94802068D01*
X241536260Y-94745000D01*
X241243740Y-94745000D01*
X240956842Y-94802068D01*
X240686589Y-94914010D01*
X240443368Y-95076525D01*
X240236525Y-95283368D01*
X240120000Y-95457760D01*
X240003475Y-95283368D01*
X239796632Y-95076525D01*
X239553411Y-94914010D01*
X239283158Y-94802068D01*
X238996260Y-94745000D01*
X238703740Y-94745000D01*
X238416842Y-94802068D01*
X238146589Y-94914010D01*
X237903368Y-95076525D01*
X237696525Y-95283368D01*
X237580000Y-95457760D01*
X237463475Y-95283368D01*
X237256632Y-95076525D01*
X237013411Y-94914010D01*
X236743158Y-94802068D01*
X236456260Y-94745000D01*
X236163740Y-94745000D01*
X235876842Y-94802068D01*
X235606589Y-94914010D01*
X235363368Y-95076525D01*
X235156525Y-95283368D01*
X235040000Y-95457760D01*
X234923475Y-95283368D01*
X234716632Y-95076525D01*
X234473411Y-94914010D01*
X234203158Y-94802068D01*
X233916260Y-94745000D01*
X233623740Y-94745000D01*
X233336842Y-94802068D01*
X233066589Y-94914010D01*
X232823368Y-95076525D01*
X232616525Y-95283368D01*
X232494805Y-95465534D01*
X232425178Y-95348645D01*
X232230269Y-95132412D01*
X231996920Y-94958359D01*
X231734099Y-94833175D01*
X231586890Y-94788524D01*
X231357000Y-94909845D01*
X231357000Y-96103000D01*
X231377000Y-96103000D01*
X231377000Y-96357000D01*
X231357000Y-96357000D01*
X231357000Y-96377000D01*
X231103000Y-96377000D01*
X231103000Y-96357000D01*
X231083000Y-96357000D01*
X231083000Y-96103000D01*
X231103000Y-96103000D01*
X231103000Y-94909845D01*
X230873110Y-94788524D01*
X230725901Y-94833175D01*
X230463080Y-94958359D01*
X230229731Y-95132412D01*
X230034822Y-95348645D01*
X229965195Y-95465534D01*
X229843475Y-95283368D01*
X229636632Y-95076525D01*
X229393411Y-94914010D01*
X229123158Y-94802068D01*
X228836260Y-94745000D01*
X228543740Y-94745000D01*
X228256842Y-94802068D01*
X227986589Y-94914010D01*
X227743368Y-95076525D01*
X227536525Y-95283368D01*
X227420000Y-95457760D01*
X227303475Y-95283368D01*
X227096632Y-95076525D01*
X226853411Y-94914010D01*
X226583158Y-94802068D01*
X226296260Y-94745000D01*
X226003740Y-94745000D01*
X225716842Y-94802068D01*
X225446589Y-94914010D01*
X225203368Y-95076525D01*
X224996525Y-95283368D01*
X224874805Y-95465534D01*
X224805178Y-95348645D01*
X224610269Y-95132412D01*
X224376920Y-94958359D01*
X224114099Y-94833175D01*
X223966890Y-94788524D01*
X223737000Y-94909845D01*
X223737000Y-96103000D01*
X223757000Y-96103000D01*
X223757000Y-96357000D01*
X223737000Y-96357000D01*
X223737000Y-96377000D01*
X223483000Y-96377000D01*
X223483000Y-96357000D01*
X223463000Y-96357000D01*
X223463000Y-96103000D01*
X223483000Y-96103000D01*
X223483000Y-94909845D01*
X223253110Y-94788524D01*
X223105901Y-94833175D01*
X222843080Y-94958359D01*
X222609731Y-95132412D01*
X222414822Y-95348645D01*
X222345195Y-95465534D01*
X222223475Y-95283368D01*
X222016632Y-95076525D01*
X221773411Y-94914010D01*
X221503158Y-94802068D01*
X221216260Y-94745000D01*
X220923740Y-94745000D01*
X220636842Y-94802068D01*
X220366589Y-94914010D01*
X220123368Y-95076525D01*
X219916525Y-95283368D01*
X219800000Y-95457760D01*
X219683475Y-95283368D01*
X219476632Y-95076525D01*
X219233411Y-94914010D01*
X218963158Y-94802068D01*
X218676260Y-94745000D01*
X218383740Y-94745000D01*
X218096842Y-94802068D01*
X217826589Y-94914010D01*
X217583368Y-95076525D01*
X217376525Y-95283368D01*
X217260000Y-95457760D01*
X217143475Y-95283368D01*
X216936632Y-95076525D01*
X216693411Y-94914010D01*
X216423158Y-94802068D01*
X216136260Y-94745000D01*
X215843740Y-94745000D01*
X215556842Y-94802068D01*
X215286589Y-94914010D01*
X215043368Y-95076525D01*
X214836525Y-95283368D01*
X214714805Y-95465534D01*
X214645178Y-95348645D01*
X214450269Y-95132412D01*
X214216920Y-94958359D01*
X213954099Y-94833175D01*
X213806890Y-94788524D01*
X213577000Y-94909845D01*
X213577000Y-96103000D01*
X213597000Y-96103000D01*
X213597000Y-96357000D01*
X213577000Y-96357000D01*
X213577000Y-96377000D01*
X213323000Y-96377000D01*
X213323000Y-96357000D01*
X213303000Y-96357000D01*
X213303000Y-96103000D01*
X213323000Y-96103000D01*
X213323000Y-94909845D01*
X213093110Y-94788524D01*
X212945901Y-94833175D01*
X212683080Y-94958359D01*
X212449731Y-95132412D01*
X212254822Y-95348645D01*
X212185195Y-95465534D01*
X212063475Y-95283368D01*
X211856632Y-95076525D01*
X211613411Y-94914010D01*
X211343158Y-94802068D01*
X211056260Y-94745000D01*
X210763740Y-94745000D01*
X210476842Y-94802068D01*
X210206589Y-94914010D01*
X209963368Y-95076525D01*
X209756525Y-95283368D01*
X209640000Y-95457760D01*
X209523475Y-95283368D01*
X209316632Y-95076525D01*
X209073411Y-94914010D01*
X208803158Y-94802068D01*
X208516260Y-94745000D01*
X208223740Y-94745000D01*
X207936842Y-94802068D01*
X207666589Y-94914010D01*
X207423368Y-95076525D01*
X207216525Y-95283368D01*
X207054010Y-95526589D01*
X206942068Y-95796842D01*
X206885000Y-96083740D01*
X206885000Y-96376260D01*
X206942068Y-96663158D01*
X207054010Y-96933411D01*
X207216525Y-97176632D01*
X207348380Y-97308487D01*
X207275820Y-97330498D01*
X207165506Y-97389463D01*
X207068815Y-97468815D01*
X206989463Y-97565506D01*
X206930498Y-97675820D01*
X206894188Y-97795518D01*
X206881928Y-97920000D01*
X206881928Y-99011203D01*
X204188580Y-101704553D01*
X204156710Y-101730708D01*
X204067865Y-101838967D01*
X204052365Y-101857854D01*
X203974829Y-102002913D01*
X203927083Y-102160311D01*
X203910961Y-102323999D01*
X203915001Y-102365018D01*
X203915001Y-103621928D01*
X202650000Y-103621928D01*
X202525518Y-103634188D01*
X202405820Y-103670498D01*
X202295506Y-103729463D01*
X202198815Y-103808815D01*
X202119463Y-103905506D01*
X202060498Y-104015820D01*
X202024188Y-104135518D01*
X202011928Y-104260000D01*
X202011928Y-105960000D01*
X202024188Y-106084482D01*
X202060498Y-106204180D01*
X202119463Y-106314494D01*
X202198815Y-106411185D01*
X202295506Y-106490537D01*
X202405820Y-106549502D01*
X202486466Y-106573966D01*
X202402412Y-106649731D01*
X202228359Y-106883080D01*
X202103175Y-107145901D01*
X202058524Y-107293110D01*
X202179845Y-107523000D01*
X203373000Y-107523000D01*
X203373000Y-107503000D01*
X203627000Y-107503000D01*
X203627000Y-107523000D01*
X203647000Y-107523000D01*
X203647000Y-107777000D01*
X203627000Y-107777000D01*
X203627000Y-107797000D01*
X203373000Y-107797000D01*
X203373000Y-107777000D01*
X202179845Y-107777000D01*
X202058524Y-108006890D01*
X202103175Y-108154099D01*
X202228359Y-108416920D01*
X202402412Y-108650269D01*
X202618645Y-108845178D01*
X202735534Y-108914805D01*
X202553368Y-109036525D01*
X202346525Y-109243368D01*
X202184010Y-109486589D01*
X202072068Y-109756842D01*
X202015000Y-110043740D01*
X202015000Y-110336260D01*
X202072068Y-110623158D01*
X202184010Y-110893411D01*
X202346525Y-111136632D01*
X202553368Y-111343475D01*
X202727760Y-111460000D01*
X202553368Y-111576525D01*
X202346525Y-111783368D01*
X202184010Y-112026589D01*
X202072068Y-112296842D01*
X202015000Y-112583740D01*
X202015000Y-112876260D01*
X202072068Y-113163158D01*
X202184010Y-113433411D01*
X202346525Y-113676632D01*
X202553368Y-113883475D01*
X202727760Y-114000000D01*
X202553368Y-114116525D01*
X202346525Y-114323368D01*
X202184010Y-114566589D01*
X202072068Y-114836842D01*
X202015000Y-115123740D01*
X202015000Y-115416260D01*
X202072068Y-115703158D01*
X202184010Y-115973411D01*
X202346525Y-116216632D01*
X202553368Y-116423475D01*
X202796589Y-116585990D01*
X203066842Y-116697932D01*
X203353740Y-116755000D01*
X203646260Y-116755000D01*
X203933158Y-116697932D01*
X204203411Y-116585990D01*
X204446632Y-116423475D01*
X204653475Y-116216632D01*
X204815990Y-115973411D01*
X204927932Y-115703158D01*
X204985000Y-115416260D01*
X204985000Y-115123740D01*
X204935344Y-114874103D01*
X205374447Y-114435000D01*
X206976395Y-114435000D01*
X207012500Y-114438556D01*
X207048605Y-114435000D01*
X207156585Y-114424365D01*
X207295133Y-114382337D01*
X207422820Y-114314087D01*
X207534738Y-114222238D01*
X207557758Y-114194188D01*
X208288875Y-113463072D01*
X208850002Y-113463072D01*
X209023256Y-113446008D01*
X209189852Y-113395472D01*
X209343387Y-113313405D01*
X209477962Y-113202962D01*
X209588405Y-113068387D01*
X209670472Y-112914852D01*
X209721008Y-112748256D01*
X209722900Y-112729046D01*
X209889900Y-112562046D01*
X209890000Y-112576750D01*
X210048750Y-112735500D01*
X210536928Y-112735500D01*
X210536928Y-112989500D01*
X210048750Y-112989500D01*
X209890000Y-113148250D01*
X209887000Y-113590400D01*
X209897386Y-113715052D01*
X209931891Y-113835282D01*
X209989189Y-113946471D01*
X210067078Y-114044346D01*
X210162564Y-114125144D01*
X210271979Y-114185761D01*
X210391117Y-114223868D01*
X210493250Y-114235000D01*
X210652000Y-114076250D01*
X210652000Y-113892622D01*
X210661316Y-113910051D01*
X210753104Y-114021896D01*
X210798000Y-114058741D01*
X210798000Y-114076250D01*
X210956750Y-114235000D01*
X211058883Y-114223868D01*
X211093955Y-114212650D01*
X211131009Y-114223890D01*
X211275000Y-114238072D01*
X211475000Y-114238072D01*
X211618991Y-114223890D01*
X211700000Y-114199316D01*
X211781009Y-114223890D01*
X211925000Y-114238072D01*
X212125000Y-114238072D01*
X212268991Y-114223890D01*
X212350000Y-114199316D01*
X212431009Y-114223890D01*
X212575000Y-114238072D01*
X212775000Y-114238072D01*
X212918991Y-114223890D01*
X213000000Y-114199316D01*
X213081009Y-114223890D01*
X213222707Y-114237846D01*
X212543626Y-114916928D01*
X212122998Y-114916928D01*
X211949744Y-114933992D01*
X211783148Y-114984528D01*
X211629613Y-115066595D01*
X211495038Y-115177038D01*
X211384595Y-115311613D01*
X211302528Y-115465148D01*
X211251992Y-115631744D01*
X211234928Y-115804998D01*
X211234928Y-116330002D01*
X211251992Y-116503256D01*
X211302528Y-116669852D01*
X211384595Y-116823387D01*
X211495038Y-116957962D01*
X211521891Y-116980000D01*
X211495038Y-117002038D01*
X211384595Y-117136613D01*
X211302528Y-117290148D01*
X211251992Y-117456744D01*
X211234928Y-117629998D01*
X211234928Y-118155002D01*
X211251992Y-118328256D01*
X211302528Y-118494852D01*
X211384595Y-118648387D01*
X211495038Y-118782962D01*
X211629613Y-118893405D01*
X211783148Y-118975472D01*
X211949744Y-119026008D01*
X212122998Y-119043072D01*
X212888011Y-119043072D01*
X212888010Y-120032928D01*
X211823000Y-120032928D01*
X211698518Y-120045188D01*
X211578820Y-120081498D01*
X211468506Y-120140463D01*
X211371815Y-120219815D01*
X211292463Y-120316506D01*
X211233498Y-120426820D01*
X211197188Y-120546518D01*
X211184928Y-120671000D01*
X211184928Y-121671000D01*
X211197188Y-121795482D01*
X211197345Y-121796000D01*
X211197188Y-121796518D01*
X211184928Y-121921000D01*
X211184928Y-122471000D01*
X211187336Y-122495450D01*
X211187336Y-122520009D01*
X211199596Y-122644490D01*
X211218718Y-122740623D01*
X211255027Y-122860319D01*
X211292536Y-122950875D01*
X211351502Y-123061192D01*
X211405958Y-123142691D01*
X211485310Y-123239382D01*
X211554618Y-123308690D01*
X211562307Y-123315000D01*
X209966353Y-123315000D01*
X209932665Y-123318318D01*
X209926178Y-123318318D01*
X209916666Y-123319318D01*
X209874539Y-123324043D01*
X209865717Y-123324912D01*
X209865086Y-123325103D01*
X209819691Y-123330195D01*
X209758988Y-123343098D01*
X209724128Y-123350000D01*
X205716987Y-123350000D01*
X205634283Y-123324912D01*
X205533647Y-123315000D01*
X205500000Y-123311686D01*
X205466353Y-123315000D01*
X203033504Y-123315000D01*
X202550984Y-123267688D01*
X202119073Y-123137287D01*
X201720720Y-122925480D01*
X201371086Y-122640325D01*
X201083503Y-122292697D01*
X200868915Y-121895825D01*
X200735500Y-121464834D01*
X200685000Y-120984346D01*
X200685000Y-120304495D01*
X201515000Y-120304495D01*
X201515000Y-120695505D01*
X201591282Y-121079003D01*
X201740915Y-121440250D01*
X201958149Y-121765364D01*
X202234636Y-122041851D01*
X202559750Y-122259085D01*
X202920997Y-122408718D01*
X203304495Y-122485000D01*
X203695505Y-122485000D01*
X204079003Y-122408718D01*
X204440250Y-122259085D01*
X204765364Y-122041851D01*
X205041851Y-121765364D01*
X205259085Y-121440250D01*
X205408718Y-121079003D01*
X205485000Y-120695505D01*
X205485000Y-120304495D01*
X205408718Y-119920997D01*
X205259085Y-119559750D01*
X205041851Y-119234636D01*
X204765364Y-118958149D01*
X204440250Y-118740915D01*
X204079003Y-118591282D01*
X203695505Y-118515000D01*
X203304495Y-118515000D01*
X202920997Y-118591282D01*
X202559750Y-118740915D01*
X202234636Y-118958149D01*
X201958149Y-119234636D01*
X201740915Y-119559750D01*
X201591282Y-119920997D01*
X201515000Y-120304495D01*
X200685000Y-120304495D01*
X200685000Y-97304495D01*
X201515000Y-97304495D01*
X201515000Y-97695505D01*
X201591282Y-98079003D01*
X201740915Y-98440250D01*
X201958149Y-98765364D01*
X202234636Y-99041851D01*
X202559750Y-99259085D01*
X202920997Y-99408718D01*
X203304495Y-99485000D01*
X203695505Y-99485000D01*
X204079003Y-99408718D01*
X204440250Y-99259085D01*
X204765364Y-99041851D01*
X205041851Y-98765364D01*
X205259085Y-98440250D01*
X205408718Y-98079003D01*
X205485000Y-97695505D01*
X205485000Y-97304495D01*
X205408718Y-96920997D01*
X205259085Y-96559750D01*
X205041851Y-96234636D01*
X204765364Y-95958149D01*
X204440250Y-95740915D01*
X204079003Y-95591282D01*
X203695505Y-95515000D01*
X203304495Y-95515000D01*
X202920997Y-95591282D01*
X202559750Y-95740915D01*
X202234636Y-95958149D01*
X201958149Y-96234636D01*
X201740915Y-96559750D01*
X201591282Y-96920997D01*
X201515000Y-97304495D01*
X200685000Y-97304495D01*
X200685000Y-97033505D01*
X200732312Y-96550984D01*
X200862714Y-96119070D01*
X201074524Y-95720715D01*
X201359675Y-95371086D01*
X201707303Y-95083503D01*
X202104177Y-94868914D01*
X202535161Y-94735502D01*
X203015654Y-94685000D01*
X261966495Y-94685000D01*
X262449016Y-94732312D01*
G04 #@! TA.AperFunction,Conductor*
D23*
G36*
X262449016Y-94732312D02*
G01*
X262880930Y-94862714D01*
X263279285Y-95074524D01*
X263628914Y-95359675D01*
X263916497Y-95707303D01*
X264131086Y-96104177D01*
X264264498Y-96535161D01*
X264315001Y-97015663D01*
X264315001Y-101612038D01*
X264280088Y-101565231D01*
X264063855Y-101370322D01*
X263813752Y-101221343D01*
X263539391Y-101124019D01*
X263309500Y-101244686D01*
X263309500Y-102438500D01*
X263329500Y-102438500D01*
X263329500Y-102692500D01*
X263309500Y-102692500D01*
X263309500Y-104978500D01*
X263329500Y-104978500D01*
X263329500Y-105232500D01*
X263309500Y-105232500D01*
X263309500Y-107518500D01*
X263329500Y-107518500D01*
X263329500Y-107772500D01*
X263309500Y-107772500D01*
X263309500Y-110058500D01*
X263329500Y-110058500D01*
X263329500Y-110312500D01*
X263309500Y-110312500D01*
X263309500Y-110332500D01*
X263055500Y-110332500D01*
X263055500Y-110312500D01*
X263035500Y-110312500D01*
X263035500Y-110058500D01*
X263055500Y-110058500D01*
X263055500Y-107772500D01*
X263035500Y-107772500D01*
X263035500Y-107518500D01*
X263055500Y-107518500D01*
X263055500Y-105232500D01*
X263035500Y-105232500D01*
X263035500Y-104978500D01*
X263055500Y-104978500D01*
X263055500Y-102692500D01*
X263035500Y-102692500D01*
X263035500Y-102438500D01*
X263055500Y-102438500D01*
X263055500Y-101244686D01*
X262825609Y-101124019D01*
X262551248Y-101221343D01*
X262301145Y-101370322D01*
X262104998Y-101547126D01*
X262082002Y-101471320D01*
X262023037Y-101361006D01*
X261943685Y-101264315D01*
X261846994Y-101184963D01*
X261736680Y-101125998D01*
X261616982Y-101089688D01*
X261492500Y-101077428D01*
X259792500Y-101077428D01*
X259668018Y-101089688D01*
X259548320Y-101125998D01*
X259438006Y-101184963D01*
X259341315Y-101264315D01*
X259261963Y-101361006D01*
X259202998Y-101471320D01*
X259166688Y-101591018D01*
X259154428Y-101715500D01*
X259154428Y-103415500D01*
X259166688Y-103539982D01*
X259202998Y-103659680D01*
X259261963Y-103769994D01*
X259341315Y-103866685D01*
X259438006Y-103946037D01*
X259548320Y-104005002D01*
X259620880Y-104027013D01*
X259489025Y-104158868D01*
X259326510Y-104402089D01*
X259214568Y-104672342D01*
X259157500Y-104959240D01*
X259157500Y-105251760D01*
X259214568Y-105538658D01*
X259326510Y-105808911D01*
X259489025Y-106052132D01*
X259695868Y-106258975D01*
X259870260Y-106375500D01*
X259695868Y-106492025D01*
X259489025Y-106698868D01*
X259326510Y-106942089D01*
X259214568Y-107212342D01*
X259157500Y-107499240D01*
X259157500Y-107791760D01*
X259214568Y-108078658D01*
X259326510Y-108348911D01*
X259489025Y-108592132D01*
X259695868Y-108798975D01*
X259870260Y-108915500D01*
X259695868Y-109032025D01*
X259489025Y-109238868D01*
X259326510Y-109482089D01*
X259214568Y-109752342D01*
X259157500Y-110039240D01*
X259157500Y-110331760D01*
X259214568Y-110618658D01*
X259326510Y-110888911D01*
X259489025Y-111132132D01*
X259695868Y-111338975D01*
X259870260Y-111455500D01*
X259695868Y-111572025D01*
X259489025Y-111778868D01*
X259326510Y-112022089D01*
X259214568Y-112292342D01*
X259157500Y-112579240D01*
X259157500Y-112871760D01*
X259214568Y-113158658D01*
X259326510Y-113428911D01*
X259489025Y-113672132D01*
X259695868Y-113878975D01*
X259870260Y-113995500D01*
X259695868Y-114112025D01*
X259489025Y-114318868D01*
X259326510Y-114562089D01*
X259214568Y-114832342D01*
X259157500Y-115119240D01*
X259157500Y-115411760D01*
X259214568Y-115698658D01*
X259326510Y-115968911D01*
X259489025Y-116212132D01*
X259695868Y-116418975D01*
X259939089Y-116581490D01*
X260209342Y-116693432D01*
X260496240Y-116750500D01*
X260788760Y-116750500D01*
X260958530Y-116716730D01*
X260915723Y-116780795D01*
X260849010Y-116941855D01*
X260815000Y-117112835D01*
X260815000Y-117287165D01*
X260849010Y-117458145D01*
X260915723Y-117619205D01*
X261012576Y-117764155D01*
X261135845Y-117887424D01*
X261280795Y-117984277D01*
X261441855Y-118050990D01*
X261612835Y-118085000D01*
X261787165Y-118085000D01*
X261958145Y-118050990D01*
X262119205Y-117984277D01*
X262264155Y-117887424D01*
X262387424Y-117764155D01*
X262484277Y-117619205D01*
X262550990Y-117458145D01*
X262567751Y-117373881D01*
X262646586Y-117277821D01*
X262705214Y-117168136D01*
X262714836Y-117150135D01*
X262756864Y-117011586D01*
X262771055Y-116867501D01*
X262767499Y-116831396D01*
X262767499Y-116697044D01*
X263036240Y-116750500D01*
X263328760Y-116750500D01*
X263615658Y-116693432D01*
X263885911Y-116581490D01*
X264129132Y-116418975D01*
X264315000Y-116233107D01*
X264315000Y-120966495D01*
X264267688Y-121449016D01*
X264137287Y-121880927D01*
X263925480Y-122279280D01*
X263640325Y-122628914D01*
X263292697Y-122916497D01*
X262895825Y-123131085D01*
X262464834Y-123264500D01*
X261984346Y-123315000D01*
X261023095Y-123315000D01*
X261023095Y-122429026D01*
X261304495Y-122485000D01*
X261695505Y-122485000D01*
X262079003Y-122408718D01*
X262440250Y-122259085D01*
X262765364Y-122041851D01*
X263041851Y-121765364D01*
X263259085Y-121440250D01*
X263408718Y-121079003D01*
X263485000Y-120695505D01*
X263485000Y-120304495D01*
X263408718Y-119920997D01*
X263259085Y-119559750D01*
X263041851Y-119234636D01*
X262765364Y-118958149D01*
X262440250Y-118740915D01*
X262079003Y-118591282D01*
X261695505Y-118515000D01*
X261304495Y-118515000D01*
X260920997Y-118591282D01*
X260559750Y-118740915D01*
X260234636Y-118958149D01*
X259958149Y-119234636D01*
X259740915Y-119559750D01*
X259591282Y-119920997D01*
X259515000Y-120304495D01*
X259515000Y-120695505D01*
X259591282Y-121079003D01*
X259740915Y-121440250D01*
X259794202Y-121520000D01*
X252176905Y-121520000D01*
X252176905Y-123315000D01*
X243921832Y-123315000D01*
X243948918Y-123274463D01*
X244072168Y-122976912D01*
X244135000Y-122661033D01*
X244135000Y-122338967D01*
X244072168Y-122023088D01*
X243948918Y-121725537D01*
X243769987Y-121457748D01*
X243542252Y-121230013D01*
X243274463Y-121051082D01*
X242976912Y-120927832D01*
X242661033Y-120865000D01*
X242338967Y-120865000D01*
X242023088Y-120927832D01*
X241725537Y-121051082D01*
X241457748Y-121230013D01*
X241230013Y-121457748D01*
X241051082Y-121725537D01*
X240927832Y-122023088D01*
X240865000Y-122338967D01*
X240865000Y-122661033D01*
X240927832Y-122976912D01*
X241051082Y-123274463D01*
X241078168Y-123315000D01*
X237421832Y-123315000D01*
X237448918Y-123274463D01*
X237572168Y-122976912D01*
X237635000Y-122661033D01*
X237635000Y-122338967D01*
X237572168Y-122023088D01*
X237448918Y-121725537D01*
X237269987Y-121457748D01*
X237042252Y-121230013D01*
X236774463Y-121051082D01*
X236476912Y-120927832D01*
X236161033Y-120865000D01*
X235838967Y-120865000D01*
X235523088Y-120927832D01*
X235483625Y-120944178D01*
X234034999Y-119495553D01*
X234034999Y-119135413D01*
X235044192Y-119135413D01*
X235139956Y-119399814D01*
X235429571Y-119540704D01*
X235741108Y-119622384D01*
X236062595Y-119641718D01*
X236381675Y-119597961D01*
X236686088Y-119492795D01*
X236860044Y-119399814D01*
X236955808Y-119135413D01*
X241544192Y-119135413D01*
X241639956Y-119399814D01*
X241929571Y-119540704D01*
X242241108Y-119622384D01*
X242562595Y-119641718D01*
X242881675Y-119597961D01*
X243186088Y-119492795D01*
X243360044Y-119399814D01*
X243455808Y-119135413D01*
X242500000Y-118179605D01*
X241544192Y-119135413D01*
X236955808Y-119135413D01*
X236000000Y-118179605D01*
X235044192Y-119135413D01*
X234034999Y-119135413D01*
X234034999Y-118062595D01*
X234358282Y-118062595D01*
X234402039Y-118381675D01*
X234507205Y-118686088D01*
X234600186Y-118860044D01*
X234864587Y-118955808D01*
X235820395Y-118000000D01*
X236179605Y-118000000D01*
X237135413Y-118955808D01*
X237399814Y-118860044D01*
X237540704Y-118570429D01*
X237622384Y-118258892D01*
X237634189Y-118062595D01*
X240858282Y-118062595D01*
X240902039Y-118381675D01*
X241007205Y-118686088D01*
X241100186Y-118860044D01*
X241364587Y-118955808D01*
X242320395Y-118000000D01*
X242679605Y-118000000D01*
X243635413Y-118955808D01*
X243899814Y-118860044D01*
X244040704Y-118570429D01*
X244122384Y-118258892D01*
X244141718Y-117937405D01*
X244097961Y-117618325D01*
X243992795Y-117313912D01*
X243899814Y-117139956D01*
X243635413Y-117044192D01*
X242679605Y-118000000D01*
X242320395Y-118000000D01*
X241364587Y-117044192D01*
X241100186Y-117139956D01*
X240959296Y-117429571D01*
X240877616Y-117741108D01*
X240858282Y-118062595D01*
X237634189Y-118062595D01*
X237641718Y-117937405D01*
X237597961Y-117618325D01*
X237492795Y-117313912D01*
X237399814Y-117139956D01*
X237135413Y-117044192D01*
X236179605Y-118000000D01*
X235820395Y-118000000D01*
X234864587Y-117044192D01*
X234600186Y-117139956D01*
X234459296Y-117429571D01*
X234377616Y-117741108D01*
X234358282Y-118062595D01*
X234034999Y-118062595D01*
X234034999Y-116864587D01*
X235044192Y-116864587D01*
X236000000Y-117820395D01*
X236955808Y-116864587D01*
X241544192Y-116864587D01*
X242500000Y-117820395D01*
X243455808Y-116864587D01*
X243360044Y-116600186D01*
X243070429Y-116459296D01*
X242758892Y-116377616D01*
X242437405Y-116358282D01*
X242118325Y-116402039D01*
X241813912Y-116507205D01*
X241639956Y-116600186D01*
X241544192Y-116864587D01*
X236955808Y-116864587D01*
X236860044Y-116600186D01*
X236570429Y-116459296D01*
X236258892Y-116377616D01*
X235937405Y-116358282D01*
X235618325Y-116402039D01*
X235313912Y-116507205D01*
X235139956Y-116600186D01*
X235044192Y-116864587D01*
X234034999Y-116864587D01*
X234034999Y-116338967D01*
X247365000Y-116338967D01*
X247365000Y-116661033D01*
X247427832Y-116976912D01*
X247551082Y-117274463D01*
X247730013Y-117542252D01*
X247957748Y-117769987D01*
X248225537Y-117948918D01*
X248523088Y-118072168D01*
X248838967Y-118135000D01*
X249161033Y-118135000D01*
X249476912Y-118072168D01*
X249774463Y-117948918D01*
X250042252Y-117769987D01*
X250176826Y-117635413D01*
X253044192Y-117635413D01*
X253139956Y-117899814D01*
X253429571Y-118040704D01*
X253741108Y-118122384D01*
X254062595Y-118141718D01*
X254381675Y-118097961D01*
X254686088Y-117992795D01*
X254860044Y-117899814D01*
X254955808Y-117635413D01*
X254000000Y-116679605D01*
X253044192Y-117635413D01*
X250176826Y-117635413D01*
X250269987Y-117542252D01*
X250448918Y-117274463D01*
X250572168Y-116976912D01*
X250635000Y-116661033D01*
X250635000Y-116562595D01*
X252358282Y-116562595D01*
X252402039Y-116881675D01*
X252507205Y-117186088D01*
X252600186Y-117360044D01*
X252864587Y-117455808D01*
X253820395Y-116500000D01*
X254179605Y-116500000D01*
X255135413Y-117455808D01*
X255399814Y-117360044D01*
X255540704Y-117070429D01*
X255622384Y-116758892D01*
X255641718Y-116437405D01*
X255597961Y-116118325D01*
X255492795Y-115813912D01*
X255399814Y-115639956D01*
X255135413Y-115544192D01*
X254179605Y-116500000D01*
X253820395Y-116500000D01*
X252864587Y-115544192D01*
X252600186Y-115639956D01*
X252459296Y-115929571D01*
X252377616Y-116241108D01*
X252358282Y-116562595D01*
X250635000Y-116562595D01*
X250635000Y-116338967D01*
X250572168Y-116023088D01*
X250448918Y-115725537D01*
X250269987Y-115457748D01*
X250176826Y-115364587D01*
X253044192Y-115364587D01*
X254000000Y-116320395D01*
X254955808Y-115364587D01*
X254860044Y-115100186D01*
X254570429Y-114959296D01*
X254258892Y-114877616D01*
X253937405Y-114858282D01*
X253618325Y-114902039D01*
X253313912Y-115007205D01*
X253139956Y-115100186D01*
X253044192Y-115364587D01*
X250176826Y-115364587D01*
X250042252Y-115230013D01*
X249774463Y-115051082D01*
X249735000Y-115034736D01*
X249735000Y-112136109D01*
X249738556Y-112100004D01*
X249733238Y-112046013D01*
X249734998Y-112037167D01*
X249734998Y-111862837D01*
X249700988Y-111691857D01*
X249634275Y-111530797D01*
X249537422Y-111385847D01*
X249414153Y-111262578D01*
X249269203Y-111165725D01*
X249108143Y-111099012D01*
X248937163Y-111065002D01*
X248762833Y-111065002D01*
X248591853Y-111099012D01*
X248430793Y-111165725D01*
X248285843Y-111262578D01*
X248162574Y-111385847D01*
X248065721Y-111530797D01*
X247999008Y-111691857D01*
X247964998Y-111862837D01*
X247964998Y-112037167D01*
X247999008Y-112208147D01*
X248065721Y-112369207D01*
X248162574Y-112514157D01*
X248265001Y-112616584D01*
X248265000Y-115034736D01*
X248225537Y-115051082D01*
X247957748Y-115230013D01*
X247730013Y-115457748D01*
X247551082Y-115725537D01*
X247427832Y-116023088D01*
X247365000Y-116338967D01*
X234034999Y-116338967D01*
X234034999Y-113515066D01*
X234085912Y-113610318D01*
X234177761Y-113722236D01*
X234205807Y-113745253D01*
X234444178Y-113983625D01*
X234427832Y-114023088D01*
X234365000Y-114338967D01*
X234365000Y-114661033D01*
X234427832Y-114976912D01*
X234551082Y-115274463D01*
X234730013Y-115542252D01*
X234957748Y-115769987D01*
X235225537Y-115948918D01*
X235523088Y-116072168D01*
X235838967Y-116135000D01*
X236161033Y-116135000D01*
X236476912Y-116072168D01*
X236774463Y-115948918D01*
X237042252Y-115769987D01*
X237269987Y-115542252D01*
X237448918Y-115274463D01*
X237572168Y-114976912D01*
X237635000Y-114661033D01*
X237635000Y-114338967D01*
X240865000Y-114338967D01*
X240865000Y-114661033D01*
X240927832Y-114976912D01*
X241051082Y-115274463D01*
X241230013Y-115542252D01*
X241457748Y-115769987D01*
X241725537Y-115948918D01*
X242023088Y-116072168D01*
X242338967Y-116135000D01*
X242661033Y-116135000D01*
X242976912Y-116072168D01*
X243274463Y-115948918D01*
X243542252Y-115769987D01*
X243769987Y-115542252D01*
X243948918Y-115274463D01*
X244072168Y-114976912D01*
X244135000Y-114661033D01*
X244135000Y-114338967D01*
X244072168Y-114023088D01*
X243948918Y-113725537D01*
X243769987Y-113457748D01*
X243542252Y-113230013D01*
X243274463Y-113051082D01*
X242976912Y-112927832D01*
X242661033Y-112865000D01*
X242338967Y-112865000D01*
X242023088Y-112927832D01*
X241725537Y-113051082D01*
X241457748Y-113230013D01*
X241230013Y-113457748D01*
X241051082Y-113725537D01*
X240927832Y-114023088D01*
X240865000Y-114338967D01*
X237635000Y-114338967D01*
X237572168Y-114023088D01*
X237448918Y-113725537D01*
X237269987Y-113457748D01*
X237042252Y-113230013D01*
X236774463Y-113051082D01*
X236476912Y-112927832D01*
X236161033Y-112865000D01*
X235838967Y-112865000D01*
X235523088Y-112927832D01*
X235483625Y-112944178D01*
X235434999Y-112895553D01*
X235434999Y-111542127D01*
X235741108Y-111622384D01*
X236062595Y-111641718D01*
X236381675Y-111597961D01*
X236686088Y-111492795D01*
X236860044Y-111399814D01*
X236955808Y-111135413D01*
X241544192Y-111135413D01*
X241639956Y-111399814D01*
X241929571Y-111540704D01*
X242241108Y-111622384D01*
X242562595Y-111641718D01*
X242881675Y-111597961D01*
X243186088Y-111492795D01*
X243360044Y-111399814D01*
X243455808Y-111135413D01*
X242500000Y-110179605D01*
X241544192Y-111135413D01*
X236955808Y-111135413D01*
X236000000Y-110179605D01*
X235985858Y-110193748D01*
X235806253Y-110014143D01*
X235820395Y-110000000D01*
X236179605Y-110000000D01*
X237135413Y-110955808D01*
X237399814Y-110860044D01*
X237540704Y-110570429D01*
X237622384Y-110258892D01*
X237634189Y-110062595D01*
X240858282Y-110062595D01*
X240902039Y-110381675D01*
X241007205Y-110686088D01*
X241100186Y-110860044D01*
X241364587Y-110955808D01*
X242320395Y-110000000D01*
X242679605Y-110000000D01*
X243635413Y-110955808D01*
X243899814Y-110860044D01*
X244040704Y-110570429D01*
X244122384Y-110258892D01*
X244141718Y-109937405D01*
X244097961Y-109618325D01*
X243992795Y-109313912D01*
X243899814Y-109139956D01*
X243635413Y-109044192D01*
X242679605Y-110000000D01*
X242320395Y-110000000D01*
X241364587Y-109044192D01*
X241100186Y-109139956D01*
X240959296Y-109429571D01*
X240877616Y-109741108D01*
X240858282Y-110062595D01*
X237634189Y-110062595D01*
X237641718Y-109937405D01*
X237597961Y-109618325D01*
X237492795Y-109313912D01*
X237399814Y-109139956D01*
X237135413Y-109044192D01*
X236179605Y-110000000D01*
X235820395Y-110000000D01*
X235806253Y-109985858D01*
X235985858Y-109806253D01*
X236000000Y-109820395D01*
X236955808Y-108864587D01*
X241544192Y-108864587D01*
X242500000Y-109820395D01*
X243455808Y-108864587D01*
X243360044Y-108600186D01*
X243070429Y-108459296D01*
X242758892Y-108377616D01*
X242437405Y-108358282D01*
X242118325Y-108402039D01*
X241813912Y-108507205D01*
X241639956Y-108600186D01*
X241544192Y-108864587D01*
X236955808Y-108864587D01*
X236860044Y-108600186D01*
X236570429Y-108459296D01*
X236258892Y-108377616D01*
X235937405Y-108358282D01*
X235618325Y-108402039D01*
X235434999Y-108465373D01*
X235434999Y-108136093D01*
X235438554Y-108099998D01*
X235434999Y-108063903D01*
X235434999Y-108063894D01*
X235432102Y-108034480D01*
X235523088Y-108072168D01*
X235838967Y-108135000D01*
X236161033Y-108135000D01*
X236476912Y-108072168D01*
X236774463Y-107948918D01*
X237042252Y-107769987D01*
X237269987Y-107542252D01*
X237448918Y-107274463D01*
X237572168Y-106976912D01*
X237635000Y-106661033D01*
X237635000Y-106338967D01*
X240865000Y-106338967D01*
X240865000Y-106661033D01*
X240927832Y-106976912D01*
X241051082Y-107274463D01*
X241230013Y-107542252D01*
X241457748Y-107769987D01*
X241725537Y-107948918D01*
X242023088Y-108072168D01*
X242338967Y-108135000D01*
X242661033Y-108135000D01*
X242976912Y-108072168D01*
X243274463Y-107948918D01*
X243347673Y-107900000D01*
X244261928Y-107900000D01*
X244261928Y-111100000D01*
X244274188Y-111224482D01*
X244310498Y-111344180D01*
X244369463Y-111454494D01*
X244448815Y-111551185D01*
X244545506Y-111630537D01*
X244655820Y-111689502D01*
X244775518Y-111725812D01*
X244900000Y-111738072D01*
X246900000Y-111738072D01*
X247024482Y-111725812D01*
X247144180Y-111689502D01*
X247254494Y-111630537D01*
X247351185Y-111551185D01*
X247430537Y-111454494D01*
X247489502Y-111344180D01*
X247525812Y-111224482D01*
X247538072Y-111100000D01*
X247538072Y-107900000D01*
X247525812Y-107775518D01*
X247489502Y-107655820D01*
X247430537Y-107545506D01*
X247351185Y-107448815D01*
X247254494Y-107369463D01*
X247144180Y-107310498D01*
X247024482Y-107274188D01*
X246900000Y-107261928D01*
X244900000Y-107261928D01*
X244775518Y-107274188D01*
X244655820Y-107310498D01*
X244545506Y-107369463D01*
X244448815Y-107448815D01*
X244369463Y-107545506D01*
X244310498Y-107655820D01*
X244274188Y-107775518D01*
X244261928Y-107900000D01*
X243347673Y-107900000D01*
X243542252Y-107769987D01*
X243769987Y-107542252D01*
X243948918Y-107274463D01*
X244072168Y-106976912D01*
X244135000Y-106661033D01*
X244135000Y-106338967D01*
X244072168Y-106023088D01*
X243948918Y-105725537D01*
X243769987Y-105457748D01*
X243542252Y-105230013D01*
X243274463Y-105051082D01*
X242976912Y-104927832D01*
X242661033Y-104865000D01*
X242338967Y-104865000D01*
X242023088Y-104927832D01*
X241725537Y-105051082D01*
X241457748Y-105230013D01*
X241230013Y-105457748D01*
X241051082Y-105725537D01*
X240927832Y-106023088D01*
X240865000Y-106338967D01*
X237635000Y-106338967D01*
X237572168Y-106023088D01*
X237448918Y-105725537D01*
X237269987Y-105457748D01*
X237042252Y-105230013D01*
X236774463Y-105051082D01*
X236476912Y-104927832D01*
X236161033Y-104865000D01*
X235838967Y-104865000D01*
X235523088Y-104927832D01*
X235225537Y-105051082D01*
X234957748Y-105230013D01*
X234730013Y-105457748D01*
X234551082Y-105725537D01*
X234427832Y-106023088D01*
X234365000Y-106338967D01*
X234365000Y-106661033D01*
X234420805Y-106941583D01*
X234287166Y-106915001D01*
X234112836Y-106915001D01*
X233941856Y-106949011D01*
X233780796Y-107015724D01*
X233635846Y-107112577D01*
X233512577Y-107235846D01*
X233415724Y-107380796D01*
X233349011Y-107541856D01*
X233315001Y-107712836D01*
X233315001Y-107887166D01*
X233349011Y-108058146D01*
X233415724Y-108219206D01*
X233512577Y-108364156D01*
X233635846Y-108487425D01*
X233780796Y-108584278D01*
X233941856Y-108650991D01*
X233965000Y-108655595D01*
X233964999Y-110813422D01*
X233864154Y-110712577D01*
X233719204Y-110615724D01*
X233558144Y-110549011D01*
X233387164Y-110515001D01*
X233212834Y-110515001D01*
X233041854Y-110549011D01*
X232880794Y-110615724D01*
X232735844Y-110712577D01*
X232612575Y-110835846D01*
X232515722Y-110980796D01*
X232449009Y-111141856D01*
X232414999Y-111312836D01*
X232414999Y-111487166D01*
X232449009Y-111658146D01*
X232515722Y-111819206D01*
X232565000Y-111892955D01*
X232564999Y-119763894D01*
X232561443Y-119799999D01*
X232575634Y-119944084D01*
X232579223Y-119955915D01*
X232617662Y-120082631D01*
X232685912Y-120210318D01*
X232777761Y-120322236D01*
X232805807Y-120345253D01*
X234444178Y-121983625D01*
X234427832Y-122023088D01*
X234365000Y-122338967D01*
X234365000Y-122661033D01*
X234427832Y-122976912D01*
X234551082Y-123274463D01*
X234578168Y-123315000D01*
X233033647Y-123315000D01*
X233000000Y-123311686D01*
X232966353Y-123315000D01*
X232865717Y-123324912D01*
X232783013Y-123350000D01*
X228576123Y-123350000D01*
X228534195Y-123341698D01*
X228473471Y-123328791D01*
X228463959Y-123327791D01*
X228366841Y-123318269D01*
X228366837Y-123318269D01*
X228333647Y-123315000D01*
X226437408Y-123315000D01*
X226443547Y-123309962D01*
X226553990Y-123175387D01*
X226636057Y-123021852D01*
X226686593Y-122855256D01*
X226703657Y-122682002D01*
X226703657Y-122156998D01*
X226686593Y-121983744D01*
X226636057Y-121817148D01*
X226553990Y-121663613D01*
X226443547Y-121529038D01*
X226416694Y-121507000D01*
X226443547Y-121484962D01*
X226553990Y-121350387D01*
X226636057Y-121196852D01*
X226676754Y-121062693D01*
X226771152Y-120968294D01*
X226858145Y-120950990D01*
X227019205Y-120884277D01*
X227164155Y-120787424D01*
X227287424Y-120664155D01*
X227384277Y-120519205D01*
X227450990Y-120358145D01*
X227485000Y-120187165D01*
X227485000Y-120012835D01*
X227450990Y-119841855D01*
X227384277Y-119680795D01*
X227287424Y-119535845D01*
X227164155Y-119412576D01*
X227019205Y-119315723D01*
X226858145Y-119249010D01*
X226687165Y-119215000D01*
X226512835Y-119215000D01*
X226341855Y-119249010D01*
X226180795Y-119315723D01*
X226035845Y-119412576D01*
X225987556Y-119460865D01*
X225815587Y-119443928D01*
X224915583Y-119443928D01*
X224742329Y-119460992D01*
X224575733Y-119511528D01*
X224422198Y-119593595D01*
X224378543Y-119629422D01*
X224334888Y-119593595D01*
X224285000Y-119566929D01*
X224285000Y-119412835D01*
X224250990Y-119241855D01*
X224184277Y-119080795D01*
X224087424Y-118935845D01*
X223964155Y-118812576D01*
X223819205Y-118715723D01*
X223658145Y-118649010D01*
X223487165Y-118615000D01*
X223312835Y-118615000D01*
X223141855Y-118649010D01*
X222980795Y-118715723D01*
X222835845Y-118812576D01*
X222712576Y-118935845D01*
X222615723Y-119080795D01*
X222549010Y-119241855D01*
X222515000Y-119412835D01*
X222515000Y-119557843D01*
X222448114Y-119593595D01*
X222313539Y-119704038D01*
X222203096Y-119838613D01*
X222121029Y-119992148D01*
X222070493Y-120158744D01*
X222053429Y-120331998D01*
X222053429Y-120857002D01*
X222070493Y-121030256D01*
X222121029Y-121196852D01*
X222203096Y-121350387D01*
X222313539Y-121484962D01*
X222340392Y-121507000D01*
X222313539Y-121529038D01*
X222268022Y-121584500D01*
X221526491Y-121584500D01*
X221526491Y-115232509D01*
X221530531Y-115191491D01*
X221514409Y-115027803D01*
X221484084Y-114927832D01*
X221466663Y-114870404D01*
X221389127Y-114725345D01*
X221284782Y-114598200D01*
X221252924Y-114572055D01*
X218285000Y-111604133D01*
X218285000Y-107420261D01*
X218380773Y-107484255D01*
X218541833Y-107550968D01*
X218628825Y-107568272D01*
X218700011Y-107639457D01*
X218700011Y-107868002D01*
X218717075Y-108041256D01*
X218767611Y-108207852D01*
X218849678Y-108361387D01*
X218960121Y-108495962D01*
X219094696Y-108606405D01*
X219248231Y-108688472D01*
X219414827Y-108739008D01*
X219588081Y-108756072D01*
X220488085Y-108756072D01*
X220630937Y-108742002D01*
X220712565Y-108864166D01*
X220835834Y-108987435D01*
X220980784Y-109084288D01*
X221141844Y-109151001D01*
X221312824Y-109185011D01*
X221487154Y-109185011D01*
X221658134Y-109151001D01*
X221819194Y-109084288D01*
X221964144Y-108987435D01*
X222087413Y-108864166D01*
X222159639Y-108756072D01*
X222520468Y-108756072D01*
X222693722Y-108739008D01*
X222860318Y-108688472D01*
X223013853Y-108606405D01*
X223086658Y-108546656D01*
X223159462Y-108606405D01*
X223251249Y-108655467D01*
X223251250Y-110797173D01*
X223212577Y-110835846D01*
X223115724Y-110980796D01*
X223049011Y-111141856D01*
X223015001Y-111312836D01*
X223015001Y-111487166D01*
X223049011Y-111658146D01*
X223115724Y-111819206D01*
X223212577Y-111964156D01*
X223335846Y-112087425D01*
X223480796Y-112184278D01*
X223641856Y-112250991D01*
X223812836Y-112285001D01*
X223987166Y-112285001D01*
X224158146Y-112250991D01*
X224319206Y-112184278D01*
X224464156Y-112087425D01*
X224587425Y-111964156D01*
X224684278Y-111819206D01*
X224750991Y-111658146D01*
X224785001Y-111487166D01*
X224785001Y-111312836D01*
X224750991Y-111141856D01*
X224721249Y-111070052D01*
X224721249Y-108739486D01*
X224726105Y-108739008D01*
X224892701Y-108688472D01*
X225046236Y-108606405D01*
X225119041Y-108546656D01*
X225191845Y-108606405D01*
X225225332Y-108624304D01*
X225225333Y-111236194D01*
X225185847Y-111262578D01*
X225062578Y-111385847D01*
X224965725Y-111530797D01*
X224899012Y-111691857D01*
X224865002Y-111862837D01*
X224865002Y-112037167D01*
X224899012Y-112208147D01*
X224965725Y-112369207D01*
X225062578Y-112514157D01*
X225185847Y-112637426D01*
X225330797Y-112734279D01*
X225491857Y-112800992D01*
X225662837Y-112835002D01*
X225837167Y-112835002D01*
X226008147Y-112800992D01*
X226169207Y-112734279D01*
X226314157Y-112637426D01*
X226437426Y-112514157D01*
X226534279Y-112369207D01*
X226600992Y-112208147D01*
X226635002Y-112037167D01*
X226635002Y-112036649D01*
X226642669Y-112022305D01*
X226684697Y-111883757D01*
X226695332Y-111775777D01*
X226698888Y-111739672D01*
X226695332Y-111703567D01*
X226695332Y-108745228D01*
X226758488Y-108739008D01*
X226925084Y-108688472D01*
X227078619Y-108606405D01*
X227151424Y-108546656D01*
X227224228Y-108606405D01*
X227377763Y-108688472D01*
X227432615Y-108705111D01*
X227432616Y-109842547D01*
X227389613Y-109906905D01*
X227322900Y-110067965D01*
X227288890Y-110238945D01*
X227288890Y-110413275D01*
X227322900Y-110584255D01*
X227389613Y-110745315D01*
X227486466Y-110890265D01*
X227609735Y-111013534D01*
X227754685Y-111110387D01*
X227915745Y-111177100D01*
X228086725Y-111211110D01*
X228261055Y-111211110D01*
X228432035Y-111177100D01*
X228593095Y-111110387D01*
X228738045Y-111013534D01*
X228861314Y-110890265D01*
X228958167Y-110745315D01*
X229024880Y-110584255D01*
X229058890Y-110413275D01*
X229058890Y-110238945D01*
X229024880Y-110067965D01*
X228958167Y-109906905D01*
X228902615Y-109823766D01*
X228902615Y-108705111D01*
X228957467Y-108688472D01*
X229111002Y-108606405D01*
X229183808Y-108546655D01*
X229256613Y-108606405D01*
X229410148Y-108688472D01*
X229465001Y-108705111D01*
X229465001Y-109207046D01*
X229415723Y-109280795D01*
X229349010Y-109441855D01*
X229315000Y-109612835D01*
X229315000Y-109787165D01*
X229349010Y-109958145D01*
X229415723Y-110119205D01*
X229512576Y-110264155D01*
X229635845Y-110387424D01*
X229780795Y-110484277D01*
X229941855Y-110550990D01*
X230112835Y-110585000D01*
X230287165Y-110585000D01*
X230458145Y-110550990D01*
X230619205Y-110484277D01*
X230764155Y-110387424D01*
X230887424Y-110264155D01*
X230984277Y-110119205D01*
X231050990Y-109958145D01*
X231085000Y-109787165D01*
X231085000Y-109612835D01*
X231050990Y-109441855D01*
X230984277Y-109280795D01*
X230935000Y-109207047D01*
X230935000Y-108705111D01*
X230989852Y-108688472D01*
X231143387Y-108606405D01*
X231277962Y-108495962D01*
X231388405Y-108361387D01*
X231470472Y-108207852D01*
X231521008Y-108041256D01*
X231538072Y-107868002D01*
X231538072Y-107342998D01*
X231521008Y-107169744D01*
X231470472Y-107003148D01*
X231388405Y-106849613D01*
X231277962Y-106715038D01*
X231251109Y-106693000D01*
X231277962Y-106670962D01*
X231388405Y-106536387D01*
X231470472Y-106382852D01*
X231521008Y-106216256D01*
X231538072Y-106043002D01*
X231538072Y-105517998D01*
X231521008Y-105344744D01*
X231470472Y-105178148D01*
X231388405Y-105024613D01*
X231277962Y-104890038D01*
X231143387Y-104779595D01*
X230989852Y-104697528D01*
X230823256Y-104646992D01*
X230650002Y-104629928D01*
X229749998Y-104629928D01*
X229576744Y-104646992D01*
X229525000Y-104662688D01*
X229525000Y-102825225D01*
X229670013Y-103042252D01*
X229897748Y-103269987D01*
X230165537Y-103448918D01*
X230463088Y-103572168D01*
X230778967Y-103635000D01*
X231101033Y-103635000D01*
X231416912Y-103572168D01*
X231714463Y-103448918D01*
X231982252Y-103269987D01*
X232209987Y-103042252D01*
X232263512Y-102962147D01*
X232278502Y-102990192D01*
X232332958Y-103071691D01*
X232412310Y-103168382D01*
X232481618Y-103237690D01*
X232578309Y-103317042D01*
X232659808Y-103371498D01*
X232670961Y-103377460D01*
X232612576Y-103435845D01*
X232515723Y-103580795D01*
X232449010Y-103741855D01*
X232415000Y-103912835D01*
X232415000Y-104087165D01*
X232449010Y-104258145D01*
X232515723Y-104419205D01*
X232612576Y-104564155D01*
X232735845Y-104687424D01*
X232880795Y-104784277D01*
X233041855Y-104850990D01*
X233212835Y-104885000D01*
X233387165Y-104885000D01*
X233558145Y-104850990D01*
X233719205Y-104784277D01*
X233864155Y-104687424D01*
X233987424Y-104564155D01*
X234084277Y-104419205D01*
X234150990Y-104258145D01*
X234185000Y-104087165D01*
X234185000Y-104073854D01*
X234224365Y-103944085D01*
X234235000Y-103836105D01*
X234238556Y-103800000D01*
X234235000Y-103763895D01*
X234235000Y-103427725D01*
X234340192Y-103371498D01*
X234421691Y-103317042D01*
X234518382Y-103237690D01*
X234587690Y-103168382D01*
X234614746Y-103135413D01*
X235044192Y-103135413D01*
X235139956Y-103399814D01*
X235429571Y-103540704D01*
X235741108Y-103622384D01*
X236062595Y-103641718D01*
X236381675Y-103597961D01*
X236686088Y-103492795D01*
X236860044Y-103399814D01*
X236955808Y-103135413D01*
X241544192Y-103135413D01*
X241639956Y-103399814D01*
X241929571Y-103540704D01*
X242241108Y-103622384D01*
X242562595Y-103641718D01*
X242881675Y-103597961D01*
X243186088Y-103492795D01*
X243360044Y-103399814D01*
X243455808Y-103135413D01*
X242500000Y-102179605D01*
X241544192Y-103135413D01*
X236955808Y-103135413D01*
X236000000Y-102179605D01*
X235044192Y-103135413D01*
X234614746Y-103135413D01*
X234667042Y-103071691D01*
X234721498Y-102990192D01*
X234760104Y-102917965D01*
X234864587Y-102955808D01*
X235820395Y-102000000D01*
X236179605Y-102000000D01*
X237135413Y-102955808D01*
X237399814Y-102860044D01*
X237540704Y-102570429D01*
X237622384Y-102258892D01*
X237634189Y-102062595D01*
X240858282Y-102062595D01*
X240902039Y-102381675D01*
X241007205Y-102686088D01*
X241100186Y-102860044D01*
X241364587Y-102955808D01*
X242320395Y-102000000D01*
X242679605Y-102000000D01*
X243635413Y-102955808D01*
X243899814Y-102860044D01*
X244040704Y-102570429D01*
X244122384Y-102258892D01*
X244141718Y-101937405D01*
X244128219Y-101838967D01*
X247365000Y-101838967D01*
X247365000Y-102161033D01*
X247427832Y-102476912D01*
X247551082Y-102774463D01*
X247730013Y-103042252D01*
X247765001Y-103077240D01*
X247765000Y-106507047D01*
X247715723Y-106580795D01*
X247649010Y-106741855D01*
X247615000Y-106912835D01*
X247615000Y-107087165D01*
X247649010Y-107258145D01*
X247715723Y-107419205D01*
X247812576Y-107564155D01*
X247935845Y-107687424D01*
X248080795Y-107784277D01*
X248241855Y-107850990D01*
X248412835Y-107885000D01*
X248587165Y-107885000D01*
X248758145Y-107850990D01*
X248919205Y-107784277D01*
X249064155Y-107687424D01*
X249187424Y-107564155D01*
X249284277Y-107419205D01*
X249350990Y-107258145D01*
X249385000Y-107087165D01*
X249385000Y-106912835D01*
X249350990Y-106741855D01*
X249284277Y-106580795D01*
X249235000Y-106507047D01*
X249235000Y-103620287D01*
X249476912Y-103572168D01*
X249774463Y-103448918D01*
X250042252Y-103269987D01*
X250269987Y-103042252D01*
X250334925Y-102945065D01*
X250364587Y-102955808D01*
X251320395Y-102000000D01*
X250364587Y-101044192D01*
X250334925Y-101054935D01*
X250269987Y-100957748D01*
X250176826Y-100864587D01*
X250544192Y-100864587D01*
X251500000Y-101820395D01*
X251514143Y-101806253D01*
X251693748Y-101985858D01*
X251679605Y-102000000D01*
X251693748Y-102014143D01*
X251514143Y-102193748D01*
X251500000Y-102179605D01*
X250544192Y-103135413D01*
X250639956Y-103399814D01*
X250929571Y-103540704D01*
X251241108Y-103622384D01*
X251562595Y-103641718D01*
X251881675Y-103597961D01*
X252186088Y-103492795D01*
X252360044Y-103399814D01*
X252414024Y-103250777D01*
X252469463Y-103354494D01*
X252548815Y-103451185D01*
X252645506Y-103530537D01*
X252755820Y-103589502D01*
X252875518Y-103625812D01*
X253000000Y-103638072D01*
X253465001Y-103638072D01*
X253465000Y-107307047D01*
X253415723Y-107380795D01*
X253349010Y-107541855D01*
X253315000Y-107712835D01*
X253315000Y-107887165D01*
X253349010Y-108058145D01*
X253415723Y-108219205D01*
X253512576Y-108364155D01*
X253635845Y-108487424D01*
X253780795Y-108584277D01*
X253941855Y-108650990D01*
X254112835Y-108685000D01*
X254287165Y-108685000D01*
X254458145Y-108650990D01*
X254619205Y-108584277D01*
X254764155Y-108487424D01*
X254887424Y-108364155D01*
X254984277Y-108219205D01*
X255050990Y-108058145D01*
X255082446Y-107900000D01*
X255461928Y-107900000D01*
X255461928Y-111100000D01*
X255474188Y-111224482D01*
X255510498Y-111344180D01*
X255569463Y-111454494D01*
X255648815Y-111551185D01*
X255745506Y-111630537D01*
X255855820Y-111689502D01*
X255975518Y-111725812D01*
X256100000Y-111738072D01*
X258100000Y-111738072D01*
X258224482Y-111725812D01*
X258344180Y-111689502D01*
X258454494Y-111630537D01*
X258551185Y-111551185D01*
X258630537Y-111454494D01*
X258689502Y-111344180D01*
X258725812Y-111224482D01*
X258738072Y-111100000D01*
X258738072Y-107900000D01*
X258725812Y-107775518D01*
X258689502Y-107655820D01*
X258630537Y-107545506D01*
X258551185Y-107448815D01*
X258454494Y-107369463D01*
X258344180Y-107310498D01*
X258224482Y-107274188D01*
X258100000Y-107261928D01*
X256100000Y-107261928D01*
X255975518Y-107274188D01*
X255855820Y-107310498D01*
X255745506Y-107369463D01*
X255648815Y-107448815D01*
X255569463Y-107545506D01*
X255510498Y-107655820D01*
X255474188Y-107775518D01*
X255461928Y-107900000D01*
X255082446Y-107900000D01*
X255085000Y-107887165D01*
X255085000Y-107712835D01*
X255050990Y-107541855D01*
X254984277Y-107380795D01*
X254935000Y-107307047D01*
X254935000Y-103638072D01*
X255000000Y-103638072D01*
X255124482Y-103625812D01*
X255244180Y-103589502D01*
X255354494Y-103530537D01*
X255451185Y-103451185D01*
X255530537Y-103354494D01*
X255589502Y-103244180D01*
X255625812Y-103124482D01*
X255638072Y-103000000D01*
X255638072Y-101000000D01*
X255625812Y-100875518D01*
X255589502Y-100755820D01*
X255530537Y-100645506D01*
X255451185Y-100548815D01*
X255354494Y-100469463D01*
X255244180Y-100410498D01*
X255124482Y-100374188D01*
X255000000Y-100361928D01*
X253000000Y-100361928D01*
X252875518Y-100374188D01*
X252755820Y-100410498D01*
X252645506Y-100469463D01*
X252548815Y-100548815D01*
X252469463Y-100645506D01*
X252414024Y-100749223D01*
X252360044Y-100600186D01*
X252070429Y-100459296D01*
X251758892Y-100377616D01*
X251437405Y-100358282D01*
X251118325Y-100402039D01*
X250813912Y-100507205D01*
X250639956Y-100600186D01*
X250544192Y-100864587D01*
X250176826Y-100864587D01*
X250042252Y-100730013D01*
X249774463Y-100551082D01*
X249476912Y-100427832D01*
X249161033Y-100365000D01*
X248838967Y-100365000D01*
X248523088Y-100427832D01*
X248225537Y-100551082D01*
X247957748Y-100730013D01*
X247730013Y-100957748D01*
X247551082Y-101225537D01*
X247427832Y-101523088D01*
X247365000Y-101838967D01*
X244128219Y-101838967D01*
X244097961Y-101618325D01*
X243992795Y-101313912D01*
X243899814Y-101139956D01*
X243635413Y-101044192D01*
X242679605Y-102000000D01*
X242320395Y-102000000D01*
X241364587Y-101044192D01*
X241100186Y-101139956D01*
X240959296Y-101429571D01*
X240877616Y-101741108D01*
X240858282Y-102062595D01*
X237634189Y-102062595D01*
X237641718Y-101937405D01*
X237597961Y-101618325D01*
X237492795Y-101313912D01*
X237399814Y-101139956D01*
X237135413Y-101044192D01*
X236179605Y-102000000D01*
X235820395Y-102000000D01*
X235806253Y-101985858D01*
X235985858Y-101806253D01*
X236000000Y-101820395D01*
X236955808Y-100864587D01*
X241544192Y-100864587D01*
X242500000Y-101820395D01*
X243455808Y-100864587D01*
X243360044Y-100600186D01*
X243070429Y-100459296D01*
X242758892Y-100377616D01*
X242437405Y-100358282D01*
X242118325Y-100402039D01*
X241813912Y-100507205D01*
X241639956Y-100600186D01*
X241544192Y-100864587D01*
X236955808Y-100864587D01*
X236860044Y-100600186D01*
X236570429Y-100459296D01*
X236258892Y-100377616D01*
X235937405Y-100358282D01*
X235618325Y-100402039D01*
X235313912Y-100507205D01*
X235139956Y-100600186D01*
X235044193Y-100864585D01*
X234928525Y-100748917D01*
X234852602Y-100824840D01*
X234817973Y-100710681D01*
X234780464Y-100620125D01*
X234721498Y-100509808D01*
X234667042Y-100428309D01*
X234587690Y-100331618D01*
X234518382Y-100262310D01*
X234505000Y-100251328D01*
X234505000Y-100064883D01*
X234716632Y-99923475D01*
X234923475Y-99716632D01*
X235040000Y-99542240D01*
X235156525Y-99716632D01*
X235363368Y-99923475D01*
X235606589Y-100085990D01*
X235876842Y-100197932D01*
X236163740Y-100255000D01*
X236456260Y-100255000D01*
X236743158Y-100197932D01*
X237013411Y-100085990D01*
X237256632Y-99923475D01*
X237463475Y-99716632D01*
X237585195Y-99534466D01*
X237654822Y-99651355D01*
X237849731Y-99867588D01*
X238083080Y-100041641D01*
X238345901Y-100166825D01*
X238493110Y-100211476D01*
X238723000Y-100090155D01*
X238723000Y-98897000D01*
X238703000Y-98897000D01*
X238703000Y-98643000D01*
X238723000Y-98643000D01*
X238723000Y-98623000D01*
X238977000Y-98623000D01*
X238977000Y-98643000D01*
X238997000Y-98643000D01*
X238997000Y-98897000D01*
X238977000Y-98897000D01*
X238977000Y-100090155D01*
X239206890Y-100211476D01*
X239354099Y-100166825D01*
X239616920Y-100041641D01*
X239850269Y-99867588D01*
X240045178Y-99651355D01*
X240114805Y-99534466D01*
X240236525Y-99716632D01*
X240443368Y-99923475D01*
X240686589Y-100085990D01*
X240956842Y-100197932D01*
X241243740Y-100255000D01*
X241536260Y-100255000D01*
X241823158Y-100197932D01*
X242093411Y-100085990D01*
X242336632Y-99923475D01*
X242543475Y-99716632D01*
X242660000Y-99542240D01*
X242776525Y-99716632D01*
X242983368Y-99923475D01*
X243226589Y-100085990D01*
X243496842Y-100197932D01*
X243783740Y-100255000D01*
X244076260Y-100255000D01*
X244363158Y-100197932D01*
X244633411Y-100085990D01*
X244876632Y-99923475D01*
X245083475Y-99716632D01*
X245200000Y-99542240D01*
X245316525Y-99716632D01*
X245523368Y-99923475D01*
X245766589Y-100085990D01*
X246036842Y-100197932D01*
X246323740Y-100255000D01*
X246616260Y-100255000D01*
X246903158Y-100197932D01*
X247173411Y-100085990D01*
X247416632Y-99923475D01*
X247623475Y-99716632D01*
X247740000Y-99542240D01*
X247856525Y-99716632D01*
X248063368Y-99923475D01*
X248306589Y-100085990D01*
X248576842Y-100197932D01*
X248863740Y-100255000D01*
X249156260Y-100255000D01*
X249443158Y-100197932D01*
X249713411Y-100085990D01*
X249956632Y-99923475D01*
X250163475Y-99716632D01*
X250280000Y-99542240D01*
X250396525Y-99716632D01*
X250603368Y-99923475D01*
X250846589Y-100085990D01*
X251116842Y-100197932D01*
X251403740Y-100255000D01*
X251696260Y-100255000D01*
X251983158Y-100197932D01*
X252253411Y-100085990D01*
X252496632Y-99923475D01*
X252703475Y-99716632D01*
X252820000Y-99542240D01*
X252936525Y-99716632D01*
X253143368Y-99923475D01*
X253386589Y-100085990D01*
X253656842Y-100197932D01*
X253943740Y-100255000D01*
X254236260Y-100255000D01*
X254523158Y-100197932D01*
X254793411Y-100085990D01*
X255036632Y-99923475D01*
X255243475Y-99716632D01*
X255365195Y-99534466D01*
X255434822Y-99651355D01*
X255629731Y-99867588D01*
X255863080Y-100041641D01*
X256125901Y-100166825D01*
X256273110Y-100211476D01*
X256503000Y-100090155D01*
X256503000Y-98897000D01*
X256757000Y-98897000D01*
X256757000Y-100090155D01*
X256986890Y-100211476D01*
X257134099Y-100166825D01*
X257396920Y-100041641D01*
X257630269Y-99867588D01*
X257825178Y-99651355D01*
X257974157Y-99401252D01*
X258071481Y-99126891D01*
X257950814Y-98897000D01*
X256757000Y-98897000D01*
X256503000Y-98897000D01*
X256483000Y-98897000D01*
X256483000Y-98643000D01*
X256503000Y-98643000D01*
X256503000Y-98623000D01*
X256757000Y-98623000D01*
X256757000Y-98643000D01*
X257950814Y-98643000D01*
X258071481Y-98413109D01*
X257974157Y-98138748D01*
X257825178Y-97888645D01*
X257630269Y-97672412D01*
X257400594Y-97501100D01*
X257576632Y-97383475D01*
X257655612Y-97304495D01*
X259515000Y-97304495D01*
X259515000Y-97695505D01*
X259591282Y-98079003D01*
X259740915Y-98440250D01*
X259958149Y-98765364D01*
X260234636Y-99041851D01*
X260559750Y-99259085D01*
X260920997Y-99408718D01*
X261304495Y-99485000D01*
X261695505Y-99485000D01*
X262079003Y-99408718D01*
X262440250Y-99259085D01*
X262765364Y-99041851D01*
X263041851Y-98765364D01*
X263259085Y-98440250D01*
X263408718Y-98079003D01*
X263485000Y-97695505D01*
X263485000Y-97304495D01*
X263408718Y-96920997D01*
X263259085Y-96559750D01*
X263041851Y-96234636D01*
X262765364Y-95958149D01*
X262440250Y-95740915D01*
X262079003Y-95591282D01*
X261695505Y-95515000D01*
X261304495Y-95515000D01*
X260920997Y-95591282D01*
X260559750Y-95740915D01*
X260234636Y-95958149D01*
X259958149Y-96234636D01*
X259740915Y-96559750D01*
X259591282Y-96920997D01*
X259515000Y-97304495D01*
X257655612Y-97304495D01*
X257783475Y-97176632D01*
X257945990Y-96933411D01*
X258057932Y-96663158D01*
X258115000Y-96376260D01*
X258115000Y-96083740D01*
X258057932Y-95796842D01*
X257945990Y-95526589D01*
X257783475Y-95283368D01*
X257576632Y-95076525D01*
X257333411Y-94914010D01*
X257063158Y-94802068D01*
X256776260Y-94745000D01*
X256483740Y-94745000D01*
X256196842Y-94802068D01*
X255926589Y-94914010D01*
X255683368Y-95076525D01*
X255476525Y-95283368D01*
X255360000Y-95457760D01*
X255243475Y-95283368D01*
X255036632Y-95076525D01*
X254793411Y-94914010D01*
X254523158Y-94802068D01*
X254236260Y-94745000D01*
X253943740Y-94745000D01*
X253656842Y-94802068D01*
X253386589Y-94914010D01*
X253143368Y-95076525D01*
X252936525Y-95283368D01*
X252820000Y-95457760D01*
X252703475Y-95283368D01*
X252496632Y-95076525D01*
X252253411Y-94914010D01*
X251983158Y-94802068D01*
X251696260Y-94745000D01*
X251403740Y-94745000D01*
X251116842Y-94802068D01*
X250846589Y-94914010D01*
X250603368Y-95076525D01*
X250396525Y-95283368D01*
X250274805Y-95465534D01*
X250205178Y-95348645D01*
X250010269Y-95132412D01*
X249776920Y-94958359D01*
X249514099Y-94833175D01*
X249366890Y-94788524D01*
X249137000Y-94909845D01*
X249137000Y-96103000D01*
X249157000Y-96103000D01*
X249157000Y-96357000D01*
X249137000Y-96357000D01*
X249137000Y-96377000D01*
X248883000Y-96377000D01*
X248883000Y-96357000D01*
X248863000Y-96357000D01*
X248863000Y-96103000D01*
X248883000Y-96103000D01*
X248883000Y-94909845D01*
X248653110Y-94788524D01*
X248505901Y-94833175D01*
X248243080Y-94958359D01*
X248009731Y-95132412D01*
X247814822Y-95348645D01*
X247745195Y-95465534D01*
X247623475Y-95283368D01*
X247416632Y-95076525D01*
X247173411Y-94914010D01*
X246903158Y-94802068D01*
X246616260Y-94745000D01*
X246323740Y-94745000D01*
X246036842Y-94802068D01*
X245766589Y-94914010D01*
X245523368Y-95076525D01*
X245316525Y-95283368D01*
X245194805Y-95465534D01*
X245125178Y-95348645D01*
X244930269Y-95132412D01*
X244696920Y-94958359D01*
X244434099Y-94833175D01*
X244286890Y-94788524D01*
X244057000Y-94909845D01*
X244057000Y-96103000D01*
X244077000Y-96103000D01*
X244077000Y-96357000D01*
X244057000Y-96357000D01*
X244057000Y-96377000D01*
X243803000Y-96377000D01*
X243803000Y-96357000D01*
X243783000Y-96357000D01*
X243783000Y-96103000D01*
X243803000Y-96103000D01*
X243803000Y-94909845D01*
X243573110Y-94788524D01*
X243425901Y-94833175D01*
X243163080Y-94958359D01*
X242929731Y-95132412D01*
X242734822Y-95348645D01*
X242665195Y-95465534D01*
X242543475Y-95283368D01*
X242336632Y-95076525D01*
X242093411Y-94914010D01*
X241823158Y-94802068D01*
X241536260Y-94745000D01*
X241243740Y-94745000D01*
X240956842Y-94802068D01*
X240686589Y-94914010D01*
X240443368Y-95076525D01*
X240236525Y-95283368D01*
X240120000Y-95457760D01*
X240003475Y-95283368D01*
X239796632Y-95076525D01*
X239553411Y-94914010D01*
X239283158Y-94802068D01*
X238996260Y-94745000D01*
X238703740Y-94745000D01*
X238416842Y-94802068D01*
X238146589Y-94914010D01*
X237903368Y-95076525D01*
X237696525Y-95283368D01*
X237580000Y-95457760D01*
X237463475Y-95283368D01*
X237256632Y-95076525D01*
X237013411Y-94914010D01*
X236743158Y-94802068D01*
X236456260Y-94745000D01*
X236163740Y-94745000D01*
X235876842Y-94802068D01*
X235606589Y-94914010D01*
X235363368Y-95076525D01*
X235156525Y-95283368D01*
X235040000Y-95457760D01*
X234923475Y-95283368D01*
X234716632Y-95076525D01*
X234473411Y-94914010D01*
X234203158Y-94802068D01*
X233916260Y-94745000D01*
X233623740Y-94745000D01*
X233336842Y-94802068D01*
X233066589Y-94914010D01*
X232823368Y-95076525D01*
X232616525Y-95283368D01*
X232494805Y-95465534D01*
X232425178Y-95348645D01*
X232230269Y-95132412D01*
X231996920Y-94958359D01*
X231734099Y-94833175D01*
X231586890Y-94788524D01*
X231357000Y-94909845D01*
X231357000Y-96103000D01*
X231377000Y-96103000D01*
X231377000Y-96357000D01*
X231357000Y-96357000D01*
X231357000Y-96377000D01*
X231103000Y-96377000D01*
X231103000Y-96357000D01*
X231083000Y-96357000D01*
X231083000Y-96103000D01*
X231103000Y-96103000D01*
X231103000Y-94909845D01*
X230873110Y-94788524D01*
X230725901Y-94833175D01*
X230463080Y-94958359D01*
X230229731Y-95132412D01*
X230034822Y-95348645D01*
X229965195Y-95465534D01*
X229843475Y-95283368D01*
X229636632Y-95076525D01*
X229393411Y-94914010D01*
X229123158Y-94802068D01*
X228836260Y-94745000D01*
X228543740Y-94745000D01*
X228256842Y-94802068D01*
X227986589Y-94914010D01*
X227743368Y-95076525D01*
X227536525Y-95283368D01*
X227420000Y-95457760D01*
X227303475Y-95283368D01*
X227096632Y-95076525D01*
X226853411Y-94914010D01*
X226583158Y-94802068D01*
X226296260Y-94745000D01*
X226003740Y-94745000D01*
X225716842Y-94802068D01*
X225446589Y-94914010D01*
X225203368Y-95076525D01*
X224996525Y-95283368D01*
X224874805Y-95465534D01*
X224805178Y-95348645D01*
X224610269Y-95132412D01*
X224376920Y-94958359D01*
X224114099Y-94833175D01*
X223966890Y-94788524D01*
X223737000Y-94909845D01*
X223737000Y-96103000D01*
X223757000Y-96103000D01*
X223757000Y-96357000D01*
X223737000Y-96357000D01*
X223737000Y-96377000D01*
X223483000Y-96377000D01*
X223483000Y-96357000D01*
X223463000Y-96357000D01*
X223463000Y-96103000D01*
X223483000Y-96103000D01*
X223483000Y-94909845D01*
X223253110Y-94788524D01*
X223105901Y-94833175D01*
X222843080Y-94958359D01*
X222609731Y-95132412D01*
X222414822Y-95348645D01*
X222345195Y-95465534D01*
X222223475Y-95283368D01*
X222016632Y-95076525D01*
X221773411Y-94914010D01*
X221503158Y-94802068D01*
X221216260Y-94745000D01*
X220923740Y-94745000D01*
X220636842Y-94802068D01*
X220366589Y-94914010D01*
X220123368Y-95076525D01*
X219916525Y-95283368D01*
X219800000Y-95457760D01*
X219683475Y-95283368D01*
X219476632Y-95076525D01*
X219233411Y-94914010D01*
X218963158Y-94802068D01*
X218676260Y-94745000D01*
X218383740Y-94745000D01*
X218096842Y-94802068D01*
X217826589Y-94914010D01*
X217583368Y-95076525D01*
X217376525Y-95283368D01*
X217260000Y-95457760D01*
X217143475Y-95283368D01*
X216936632Y-95076525D01*
X216693411Y-94914010D01*
X216423158Y-94802068D01*
X216136260Y-94745000D01*
X215843740Y-94745000D01*
X215556842Y-94802068D01*
X215286589Y-94914010D01*
X215043368Y-95076525D01*
X214836525Y-95283368D01*
X214714805Y-95465534D01*
X214645178Y-95348645D01*
X214450269Y-95132412D01*
X214216920Y-94958359D01*
X213954099Y-94833175D01*
X213806890Y-94788524D01*
X213577000Y-94909845D01*
X213577000Y-96103000D01*
X213597000Y-96103000D01*
X213597000Y-96357000D01*
X213577000Y-96357000D01*
X213577000Y-96377000D01*
X213323000Y-96377000D01*
X213323000Y-96357000D01*
X213303000Y-96357000D01*
X213303000Y-96103000D01*
X213323000Y-96103000D01*
X213323000Y-94909845D01*
X213093110Y-94788524D01*
X212945901Y-94833175D01*
X212683080Y-94958359D01*
X212449731Y-95132412D01*
X212254822Y-95348645D01*
X212185195Y-95465534D01*
X212063475Y-95283368D01*
X211856632Y-95076525D01*
X211613411Y-94914010D01*
X211343158Y-94802068D01*
X211056260Y-94745000D01*
X210763740Y-94745000D01*
X210476842Y-94802068D01*
X210206589Y-94914010D01*
X209963368Y-95076525D01*
X209756525Y-95283368D01*
X209640000Y-95457760D01*
X209523475Y-95283368D01*
X209316632Y-95076525D01*
X209073411Y-94914010D01*
X208803158Y-94802068D01*
X208516260Y-94745000D01*
X208223740Y-94745000D01*
X207936842Y-94802068D01*
X207666589Y-94914010D01*
X207423368Y-95076525D01*
X207216525Y-95283368D01*
X207054010Y-95526589D01*
X206942068Y-95796842D01*
X206885000Y-96083740D01*
X206885000Y-96376260D01*
X206942068Y-96663158D01*
X207054010Y-96933411D01*
X207216525Y-97176632D01*
X207348380Y-97308487D01*
X207275820Y-97330498D01*
X207165506Y-97389463D01*
X207068815Y-97468815D01*
X206989463Y-97565506D01*
X206930498Y-97675820D01*
X206894188Y-97795518D01*
X206881928Y-97920000D01*
X206881928Y-99011203D01*
X204188580Y-101704553D01*
X204156710Y-101730708D01*
X204067865Y-101838967D01*
X204052365Y-101857854D01*
X203974829Y-102002913D01*
X203927083Y-102160311D01*
X203910961Y-102323999D01*
X203915001Y-102365018D01*
X203915001Y-103621928D01*
X202650000Y-103621928D01*
X202525518Y-103634188D01*
X202405820Y-103670498D01*
X202295506Y-103729463D01*
X202198815Y-103808815D01*
X202119463Y-103905506D01*
X202060498Y-104015820D01*
X202024188Y-104135518D01*
X202011928Y-104260000D01*
X202011928Y-105960000D01*
X202024188Y-106084482D01*
X202060498Y-106204180D01*
X202119463Y-106314494D01*
X202198815Y-106411185D01*
X202295506Y-106490537D01*
X202405820Y-106549502D01*
X202486466Y-106573966D01*
X202402412Y-106649731D01*
X202228359Y-106883080D01*
X202103175Y-107145901D01*
X202058524Y-107293110D01*
X202179845Y-107523000D01*
X203373000Y-107523000D01*
X203373000Y-107503000D01*
X203627000Y-107503000D01*
X203627000Y-107523000D01*
X203647000Y-107523000D01*
X203647000Y-107777000D01*
X203627000Y-107777000D01*
X203627000Y-107797000D01*
X203373000Y-107797000D01*
X203373000Y-107777000D01*
X202179845Y-107777000D01*
X202058524Y-108006890D01*
X202103175Y-108154099D01*
X202228359Y-108416920D01*
X202402412Y-108650269D01*
X202618645Y-108845178D01*
X202735534Y-108914805D01*
X202553368Y-109036525D01*
X202346525Y-109243368D01*
X202184010Y-109486589D01*
X202072068Y-109756842D01*
X202015000Y-110043740D01*
X202015000Y-110336260D01*
X202072068Y-110623158D01*
X202184010Y-110893411D01*
X202346525Y-111136632D01*
X202553368Y-111343475D01*
X202727760Y-111460000D01*
X202553368Y-111576525D01*
X202346525Y-111783368D01*
X202184010Y-112026589D01*
X202072068Y-112296842D01*
X202015000Y-112583740D01*
X202015000Y-112876260D01*
X202072068Y-113163158D01*
X202184010Y-113433411D01*
X202346525Y-113676632D01*
X202553368Y-113883475D01*
X202727760Y-114000000D01*
X202553368Y-114116525D01*
X202346525Y-114323368D01*
X202184010Y-114566589D01*
X202072068Y-114836842D01*
X202015000Y-115123740D01*
X202015000Y-115416260D01*
X202072068Y-115703158D01*
X202184010Y-115973411D01*
X202346525Y-116216632D01*
X202553368Y-116423475D01*
X202796589Y-116585990D01*
X203066842Y-116697932D01*
X203353740Y-116755000D01*
X203646260Y-116755000D01*
X203933158Y-116697932D01*
X204203411Y-116585990D01*
X204446632Y-116423475D01*
X204653475Y-116216632D01*
X204815990Y-115973411D01*
X204927932Y-115703158D01*
X204985000Y-115416260D01*
X204985000Y-115123740D01*
X204935344Y-114874103D01*
X205374447Y-114435000D01*
X206976395Y-114435000D01*
X207012500Y-114438556D01*
X207048605Y-114435000D01*
X207156585Y-114424365D01*
X207295133Y-114382337D01*
X207422820Y-114314087D01*
X207534738Y-114222238D01*
X207557758Y-114194188D01*
X208288875Y-113463072D01*
X208850002Y-113463072D01*
X209023256Y-113446008D01*
X209189852Y-113395472D01*
X209343387Y-113313405D01*
X209477962Y-113202962D01*
X209588405Y-113068387D01*
X209670472Y-112914852D01*
X209721008Y-112748256D01*
X209722900Y-112729046D01*
X209889900Y-112562046D01*
X209890000Y-112576750D01*
X210048750Y-112735500D01*
X210536928Y-112735500D01*
X210536928Y-112989500D01*
X210048750Y-112989500D01*
X209890000Y-113148250D01*
X209887000Y-113590400D01*
X209897386Y-113715052D01*
X209931891Y-113835282D01*
X209989189Y-113946471D01*
X210067078Y-114044346D01*
X210162564Y-114125144D01*
X210271979Y-114185761D01*
X210391117Y-114223868D01*
X210493250Y-114235000D01*
X210652000Y-114076250D01*
X210652000Y-113892622D01*
X210661316Y-113910051D01*
X210753104Y-114021896D01*
X210798000Y-114058741D01*
X210798000Y-114076250D01*
X210956750Y-114235000D01*
X211058883Y-114223868D01*
X211093955Y-114212650D01*
X211131009Y-114223890D01*
X211275000Y-114238072D01*
X211475000Y-114238072D01*
X211618991Y-114223890D01*
X211700000Y-114199316D01*
X211781009Y-114223890D01*
X211925000Y-114238072D01*
X212125000Y-114238072D01*
X212268991Y-114223890D01*
X212350000Y-114199316D01*
X212431009Y-114223890D01*
X212575000Y-114238072D01*
X212775000Y-114238072D01*
X212918991Y-114223890D01*
X213000000Y-114199316D01*
X213081009Y-114223890D01*
X213222707Y-114237846D01*
X212543626Y-114916928D01*
X212122998Y-114916928D01*
X211949744Y-114933992D01*
X211783148Y-114984528D01*
X211629613Y-115066595D01*
X211495038Y-115177038D01*
X211384595Y-115311613D01*
X211302528Y-115465148D01*
X211251992Y-115631744D01*
X211234928Y-115804998D01*
X211234928Y-116330002D01*
X211251992Y-116503256D01*
X211302528Y-116669852D01*
X211384595Y-116823387D01*
X211495038Y-116957962D01*
X211521891Y-116980000D01*
X211495038Y-117002038D01*
X211384595Y-117136613D01*
X211302528Y-117290148D01*
X211251992Y-117456744D01*
X211234928Y-117629998D01*
X211234928Y-118155002D01*
X211251992Y-118328256D01*
X211302528Y-118494852D01*
X211384595Y-118648387D01*
X211495038Y-118782962D01*
X211629613Y-118893405D01*
X211783148Y-118975472D01*
X211949744Y-119026008D01*
X212122998Y-119043072D01*
X212888011Y-119043072D01*
X212888010Y-120032928D01*
X211823000Y-120032928D01*
X211698518Y-120045188D01*
X211578820Y-120081498D01*
X211468506Y-120140463D01*
X211371815Y-120219815D01*
X211292463Y-120316506D01*
X211233498Y-120426820D01*
X211197188Y-120546518D01*
X211184928Y-120671000D01*
X211184928Y-121671000D01*
X211197188Y-121795482D01*
X211197345Y-121796000D01*
X211197188Y-121796518D01*
X211184928Y-121921000D01*
X211184928Y-122471000D01*
X211187336Y-122495450D01*
X211187336Y-122520009D01*
X211199596Y-122644490D01*
X211218718Y-122740623D01*
X211255027Y-122860319D01*
X211292536Y-122950875D01*
X211351502Y-123061192D01*
X211405958Y-123142691D01*
X211485310Y-123239382D01*
X211554618Y-123308690D01*
X211562307Y-123315000D01*
X209966353Y-123315000D01*
X209932665Y-123318318D01*
X209926178Y-123318318D01*
X209916666Y-123319318D01*
X209874539Y-123324043D01*
X209865717Y-123324912D01*
X209865086Y-123325103D01*
X209819691Y-123330195D01*
X209758988Y-123343098D01*
X209724128Y-123350000D01*
X205716987Y-123350000D01*
X205634283Y-123324912D01*
X205533647Y-123315000D01*
X205500000Y-123311686D01*
X205466353Y-123315000D01*
X203033504Y-123315000D01*
X202550984Y-123267688D01*
X202119073Y-123137287D01*
X201720720Y-122925480D01*
X201371086Y-122640325D01*
X201083503Y-122292697D01*
X200868915Y-121895825D01*
X200735500Y-121464834D01*
X200685000Y-120984346D01*
X200685000Y-120304495D01*
X201515000Y-120304495D01*
X201515000Y-120695505D01*
X201591282Y-121079003D01*
X201740915Y-121440250D01*
X201958149Y-121765364D01*
X202234636Y-122041851D01*
X202559750Y-122259085D01*
X202920997Y-122408718D01*
X203304495Y-122485000D01*
X203695505Y-122485000D01*
X204079003Y-122408718D01*
X204440250Y-122259085D01*
X204765364Y-122041851D01*
X205041851Y-121765364D01*
X205259085Y-121440250D01*
X205408718Y-121079003D01*
X205485000Y-120695505D01*
X205485000Y-120304495D01*
X205408718Y-119920997D01*
X205259085Y-119559750D01*
X205041851Y-119234636D01*
X204765364Y-118958149D01*
X204440250Y-118740915D01*
X204079003Y-118591282D01*
X203695505Y-118515000D01*
X203304495Y-118515000D01*
X202920997Y-118591282D01*
X202559750Y-118740915D01*
X202234636Y-118958149D01*
X201958149Y-119234636D01*
X201740915Y-119559750D01*
X201591282Y-119920997D01*
X201515000Y-120304495D01*
X200685000Y-120304495D01*
X200685000Y-97304495D01*
X201515000Y-97304495D01*
X201515000Y-97695505D01*
X201591282Y-98079003D01*
X201740915Y-98440250D01*
X201958149Y-98765364D01*
X202234636Y-99041851D01*
X202559750Y-99259085D01*
X202920997Y-99408718D01*
X203304495Y-99485000D01*
X203695505Y-99485000D01*
X204079003Y-99408718D01*
X204440250Y-99259085D01*
X204765364Y-99041851D01*
X205041851Y-98765364D01*
X205259085Y-98440250D01*
X205408718Y-98079003D01*
X205485000Y-97695505D01*
X205485000Y-97304495D01*
X205408718Y-96920997D01*
X205259085Y-96559750D01*
X205041851Y-96234636D01*
X204765364Y-95958149D01*
X204440250Y-95740915D01*
X204079003Y-95591282D01*
X203695505Y-95515000D01*
X203304495Y-95515000D01*
X202920997Y-95591282D01*
X202559750Y-95740915D01*
X202234636Y-95958149D01*
X201958149Y-96234636D01*
X201740915Y-96559750D01*
X201591282Y-96920997D01*
X201515000Y-97304495D01*
X200685000Y-97304495D01*
X200685000Y-97033505D01*
X200732312Y-96550984D01*
X200862714Y-96119070D01*
X201074524Y-95720715D01*
X201359675Y-95371086D01*
X201707303Y-95083503D01*
X202104177Y-94868914D01*
X202535161Y-94735502D01*
X203015654Y-94685000D01*
X261966495Y-94685000D01*
X262449016Y-94732312D01*
G37*
G04 #@! TD.AperFunction*
D22*
X217084867Y-116749837D02*
X217216215Y-116789681D01*
X217223415Y-116791865D01*
X217367500Y-116806056D01*
X217403605Y-116802500D01*
X217659931Y-116802500D01*
X217671095Y-116823387D01*
X217781538Y-116957962D01*
X217808391Y-116980000D01*
X217781538Y-117002038D01*
X217671095Y-117136613D01*
X217589028Y-117290148D01*
X217538492Y-117456744D01*
X217521428Y-117629998D01*
X217521428Y-118155002D01*
X217538492Y-118328256D01*
X217589028Y-118494852D01*
X217671095Y-118648387D01*
X217781538Y-118782962D01*
X217916113Y-118893405D01*
X218069648Y-118975472D01*
X218236244Y-119026008D01*
X218409498Y-119043072D01*
X218970626Y-119043072D01*
X219456481Y-119528928D01*
X219456481Y-120032928D01*
X218109500Y-120032928D01*
X217985018Y-120045188D01*
X217865320Y-120081498D01*
X217755006Y-120140463D01*
X217658315Y-120219815D01*
X217578963Y-120316506D01*
X217519998Y-120426820D01*
X217483688Y-120546518D01*
X217471428Y-120671000D01*
X217471428Y-121636000D01*
X217104322Y-121636000D01*
X217104322Y-120671000D01*
X217092062Y-120546518D01*
X217055752Y-120426820D01*
X216996787Y-120316506D01*
X216917435Y-120219815D01*
X216820744Y-120140463D01*
X216710430Y-120081498D01*
X216590732Y-120045188D01*
X216466250Y-120032928D01*
X215213000Y-120032928D01*
X215213000Y-119039428D01*
X215249998Y-119043072D01*
X216150002Y-119043072D01*
X216323256Y-119026008D01*
X216489852Y-118975472D01*
X216643387Y-118893405D01*
X216777962Y-118782962D01*
X216888405Y-118648387D01*
X216970472Y-118494852D01*
X217021008Y-118328256D01*
X217038072Y-118155002D01*
X217038072Y-117629998D01*
X217021008Y-117456744D01*
X216970472Y-117290148D01*
X216888405Y-117136613D01*
X216777962Y-117002038D01*
X216751109Y-116980000D01*
X216777962Y-116957962D01*
X216888405Y-116823387D01*
X216962640Y-116684505D01*
X217084867Y-116749837D01*
G04 #@! TA.AperFunction,Conductor*
D23*
G36*
X217084867Y-116749837D02*
G01*
X217216215Y-116789681D01*
X217223415Y-116791865D01*
X217367500Y-116806056D01*
X217403605Y-116802500D01*
X217659931Y-116802500D01*
X217671095Y-116823387D01*
X217781538Y-116957962D01*
X217808391Y-116980000D01*
X217781538Y-117002038D01*
X217671095Y-117136613D01*
X217589028Y-117290148D01*
X217538492Y-117456744D01*
X217521428Y-117629998D01*
X217521428Y-118155002D01*
X217538492Y-118328256D01*
X217589028Y-118494852D01*
X217671095Y-118648387D01*
X217781538Y-118782962D01*
X217916113Y-118893405D01*
X218069648Y-118975472D01*
X218236244Y-119026008D01*
X218409498Y-119043072D01*
X218970626Y-119043072D01*
X219456481Y-119528928D01*
X219456481Y-120032928D01*
X218109500Y-120032928D01*
X217985018Y-120045188D01*
X217865320Y-120081498D01*
X217755006Y-120140463D01*
X217658315Y-120219815D01*
X217578963Y-120316506D01*
X217519998Y-120426820D01*
X217483688Y-120546518D01*
X217471428Y-120671000D01*
X217471428Y-121636000D01*
X217104322Y-121636000D01*
X217104322Y-120671000D01*
X217092062Y-120546518D01*
X217055752Y-120426820D01*
X216996787Y-120316506D01*
X216917435Y-120219815D01*
X216820744Y-120140463D01*
X216710430Y-120081498D01*
X216590732Y-120045188D01*
X216466250Y-120032928D01*
X215213000Y-120032928D01*
X215213000Y-119039428D01*
X215249998Y-119043072D01*
X216150002Y-119043072D01*
X216323256Y-119026008D01*
X216489852Y-118975472D01*
X216643387Y-118893405D01*
X216777962Y-118782962D01*
X216888405Y-118648387D01*
X216970472Y-118494852D01*
X217021008Y-118328256D01*
X217038072Y-118155002D01*
X217038072Y-117629998D01*
X217021008Y-117456744D01*
X216970472Y-117290148D01*
X216888405Y-117136613D01*
X216777962Y-117002038D01*
X216751109Y-116980000D01*
X216777962Y-116957962D01*
X216888405Y-116823387D01*
X216962640Y-116684505D01*
X217084867Y-116749837D01*
G37*
G04 #@! TD.AperFunction*
D22*
X218657000Y-98643000D02*
X218677000Y-98643000D01*
X218677000Y-98897000D01*
X218657000Y-98897000D01*
X218657000Y-100090155D01*
X218886890Y-100211476D01*
X219034099Y-100166825D01*
X219296920Y-100041641D01*
X219530269Y-99867588D01*
X219725178Y-99651355D01*
X219794805Y-99534466D01*
X219916525Y-99716632D01*
X220123368Y-99923475D01*
X220366589Y-100085990D01*
X220636842Y-100197932D01*
X220923740Y-100255000D01*
X221216260Y-100255000D01*
X221503158Y-100197932D01*
X221773411Y-100085990D01*
X222016632Y-99923475D01*
X222223475Y-99716632D01*
X222340000Y-99542240D01*
X222456525Y-99716632D01*
X222663368Y-99923475D01*
X222906589Y-100085990D01*
X223176842Y-100197932D01*
X223463740Y-100255000D01*
X223756260Y-100255000D01*
X224043158Y-100197932D01*
X224313411Y-100085990D01*
X224556632Y-99923475D01*
X224763475Y-99716632D01*
X224880000Y-99542240D01*
X224996525Y-99716632D01*
X225203368Y-99923475D01*
X225446589Y-100085990D01*
X225716842Y-100197932D01*
X226003740Y-100255000D01*
X226296260Y-100255000D01*
X226583158Y-100197932D01*
X226853411Y-100085990D01*
X227096632Y-99923475D01*
X227303475Y-99716632D01*
X227420000Y-99542240D01*
X227536525Y-99716632D01*
X227743368Y-99923475D01*
X227855000Y-99998065D01*
X227855001Y-104629928D01*
X227717613Y-104629928D01*
X227544359Y-104646992D01*
X227377763Y-104697528D01*
X227224228Y-104779595D01*
X227151423Y-104839344D01*
X227078619Y-104779595D01*
X226925084Y-104697528D01*
X226758488Y-104646992D01*
X226585234Y-104629928D01*
X225685230Y-104629928D01*
X225511976Y-104646992D01*
X225345380Y-104697528D01*
X225191845Y-104779595D01*
X225119040Y-104839344D01*
X225046236Y-104779595D01*
X224892701Y-104697528D01*
X224726105Y-104646992D01*
X224552851Y-104629928D01*
X223652847Y-104629928D01*
X223479593Y-104646992D01*
X223312997Y-104697528D01*
X223159462Y-104779595D01*
X223086657Y-104839344D01*
X223013853Y-104779595D01*
X222860318Y-104697528D01*
X222693722Y-104646992D01*
X222520468Y-104629928D01*
X221620464Y-104629928D01*
X221447210Y-104646992D01*
X221280614Y-104697528D01*
X221127079Y-104779595D01*
X221054274Y-104839344D01*
X220981470Y-104779595D01*
X220827935Y-104697528D01*
X220661339Y-104646992D01*
X220488085Y-104629928D01*
X219588081Y-104629928D01*
X219414827Y-104646992D01*
X219248231Y-104697528D01*
X219094696Y-104779595D01*
X218960121Y-104890038D01*
X218849678Y-105024613D01*
X218828090Y-105065000D01*
X218634284Y-105065000D01*
X218695172Y-104951087D01*
X218742918Y-104793689D01*
X218755000Y-104671019D01*
X218755000Y-104671009D01*
X218759039Y-104630001D01*
X218755000Y-104588993D01*
X218755000Y-103228065D01*
X218866632Y-103153475D01*
X219073475Y-102946632D01*
X219190000Y-102772240D01*
X219306525Y-102946632D01*
X219513368Y-103153475D01*
X219756589Y-103315990D01*
X220026842Y-103427932D01*
X220313740Y-103485000D01*
X220606260Y-103485000D01*
X220893158Y-103427932D01*
X221163411Y-103315990D01*
X221406632Y-103153475D01*
X221613475Y-102946632D01*
X221730000Y-102772240D01*
X221846525Y-102946632D01*
X222053368Y-103153475D01*
X222296589Y-103315990D01*
X222566842Y-103427932D01*
X222853740Y-103485000D01*
X223146260Y-103485000D01*
X223433158Y-103427932D01*
X223703411Y-103315990D01*
X223946632Y-103153475D01*
X224153475Y-102946632D01*
X224315990Y-102703411D01*
X224427932Y-102433158D01*
X224485000Y-102146260D01*
X224485000Y-101853740D01*
X224427932Y-101566842D01*
X224315990Y-101296589D01*
X224153475Y-101053368D01*
X223946632Y-100846525D01*
X223703411Y-100684010D01*
X223433158Y-100572068D01*
X223146260Y-100515000D01*
X222853740Y-100515000D01*
X222566842Y-100572068D01*
X222296589Y-100684010D01*
X222053368Y-100846525D01*
X221846525Y-101053368D01*
X221730000Y-101227760D01*
X221613475Y-101053368D01*
X221406632Y-100846525D01*
X221163411Y-100684010D01*
X220893158Y-100572068D01*
X220606260Y-100515000D01*
X220313740Y-100515000D01*
X220026842Y-100572068D01*
X219756589Y-100684010D01*
X219513368Y-100846525D01*
X219306525Y-101053368D01*
X219190000Y-101227760D01*
X219073475Y-101053368D01*
X218866632Y-100846525D01*
X218623411Y-100684010D01*
X218353158Y-100572068D01*
X218066260Y-100515000D01*
X217773740Y-100515000D01*
X217486842Y-100572068D01*
X217216589Y-100684010D01*
X216973368Y-100846525D01*
X216841513Y-100978380D01*
X216819502Y-100905820D01*
X216760537Y-100795506D01*
X216681185Y-100698815D01*
X216584494Y-100619463D01*
X216474180Y-100560498D01*
X216354482Y-100524188D01*
X216230000Y-100511928D01*
X215665750Y-100515000D01*
X215507000Y-100673750D01*
X215507000Y-101873000D01*
X215527000Y-101873000D01*
X215527000Y-102127000D01*
X215507000Y-102127000D01*
X215507000Y-103326250D01*
X215665750Y-103485000D01*
X216230000Y-103488072D01*
X216354482Y-103475812D01*
X216474180Y-103439502D01*
X216584494Y-103380537D01*
X216681185Y-103301185D01*
X216760537Y-103204494D01*
X216819502Y-103094180D01*
X216841513Y-103021620D01*
X216973368Y-103153475D01*
X217085000Y-103228065D01*
X217085001Y-103748254D01*
X217026746Y-103753992D01*
X216860150Y-103804528D01*
X216706614Y-103886595D01*
X216572038Y-103997038D01*
X216566658Y-104003594D01*
X216501185Y-103923815D01*
X216404494Y-103844463D01*
X216294180Y-103785498D01*
X216174482Y-103749188D01*
X216050000Y-103736928D01*
X215835750Y-103740000D01*
X215677000Y-103898750D01*
X215677000Y-104973000D01*
X215697000Y-104973000D01*
X215697000Y-105227000D01*
X215677000Y-105227000D01*
X215677000Y-105247000D01*
X215423000Y-105247000D01*
X215423000Y-105227000D01*
X215403000Y-105227000D01*
X215403000Y-104973000D01*
X215423000Y-104973000D01*
X215423000Y-103898750D01*
X215360000Y-103835750D01*
X215360000Y-103521107D01*
X215363556Y-103485002D01*
X215349365Y-103340917D01*
X215344916Y-103326250D01*
X215307337Y-103202369D01*
X215253000Y-103100711D01*
X215253000Y-102127000D01*
X215233000Y-102127000D01*
X215233000Y-101873000D01*
X215253000Y-101873000D01*
X215253000Y-100673750D01*
X215094250Y-100515000D01*
X215086037Y-100514955D01*
X215150990Y-100358145D01*
X215185000Y-100187165D01*
X215185000Y-100018110D01*
X215286589Y-100085990D01*
X215556842Y-100197932D01*
X215843740Y-100255000D01*
X216136260Y-100255000D01*
X216423158Y-100197932D01*
X216693411Y-100085990D01*
X216936632Y-99923475D01*
X217143475Y-99716632D01*
X217265195Y-99534466D01*
X217334822Y-99651355D01*
X217529731Y-99867588D01*
X217763080Y-100041641D01*
X218025901Y-100166825D01*
X218173110Y-100211476D01*
X218403000Y-100090155D01*
X218403000Y-98897000D01*
X218383000Y-98897000D01*
X218383000Y-98643000D01*
X218403000Y-98643000D01*
X218403000Y-98623000D01*
X218657000Y-98623000D01*
X218657000Y-98643000D01*
G04 #@! TA.AperFunction,Conductor*
D23*
G36*
X218657000Y-98643000D02*
G01*
X218677000Y-98643000D01*
X218677000Y-98897000D01*
X218657000Y-98897000D01*
X218657000Y-100090155D01*
X218886890Y-100211476D01*
X219034099Y-100166825D01*
X219296920Y-100041641D01*
X219530269Y-99867588D01*
X219725178Y-99651355D01*
X219794805Y-99534466D01*
X219916525Y-99716632D01*
X220123368Y-99923475D01*
X220366589Y-100085990D01*
X220636842Y-100197932D01*
X220923740Y-100255000D01*
X221216260Y-100255000D01*
X221503158Y-100197932D01*
X221773411Y-100085990D01*
X222016632Y-99923475D01*
X222223475Y-99716632D01*
X222340000Y-99542240D01*
X222456525Y-99716632D01*
X222663368Y-99923475D01*
X222906589Y-100085990D01*
X223176842Y-100197932D01*
X223463740Y-100255000D01*
X223756260Y-100255000D01*
X224043158Y-100197932D01*
X224313411Y-100085990D01*
X224556632Y-99923475D01*
X224763475Y-99716632D01*
X224880000Y-99542240D01*
X224996525Y-99716632D01*
X225203368Y-99923475D01*
X225446589Y-100085990D01*
X225716842Y-100197932D01*
X226003740Y-100255000D01*
X226296260Y-100255000D01*
X226583158Y-100197932D01*
X226853411Y-100085990D01*
X227096632Y-99923475D01*
X227303475Y-99716632D01*
X227420000Y-99542240D01*
X227536525Y-99716632D01*
X227743368Y-99923475D01*
X227855000Y-99998065D01*
X227855001Y-104629928D01*
X227717613Y-104629928D01*
X227544359Y-104646992D01*
X227377763Y-104697528D01*
X227224228Y-104779595D01*
X227151423Y-104839344D01*
X227078619Y-104779595D01*
X226925084Y-104697528D01*
X226758488Y-104646992D01*
X226585234Y-104629928D01*
X225685230Y-104629928D01*
X225511976Y-104646992D01*
X225345380Y-104697528D01*
X225191845Y-104779595D01*
X225119040Y-104839344D01*
X225046236Y-104779595D01*
X224892701Y-104697528D01*
X224726105Y-104646992D01*
X224552851Y-104629928D01*
X223652847Y-104629928D01*
X223479593Y-104646992D01*
X223312997Y-104697528D01*
X223159462Y-104779595D01*
X223086657Y-104839344D01*
X223013853Y-104779595D01*
X222860318Y-104697528D01*
X222693722Y-104646992D01*
X222520468Y-104629928D01*
X221620464Y-104629928D01*
X221447210Y-104646992D01*
X221280614Y-104697528D01*
X221127079Y-104779595D01*
X221054274Y-104839344D01*
X220981470Y-104779595D01*
X220827935Y-104697528D01*
X220661339Y-104646992D01*
X220488085Y-104629928D01*
X219588081Y-104629928D01*
X219414827Y-104646992D01*
X219248231Y-104697528D01*
X219094696Y-104779595D01*
X218960121Y-104890038D01*
X218849678Y-105024613D01*
X218828090Y-105065000D01*
X218634284Y-105065000D01*
X218695172Y-104951087D01*
X218742918Y-104793689D01*
X218755000Y-104671019D01*
X218755000Y-104671009D01*
X218759039Y-104630001D01*
X218755000Y-104588993D01*
X218755000Y-103228065D01*
X218866632Y-103153475D01*
X219073475Y-102946632D01*
X219190000Y-102772240D01*
X219306525Y-102946632D01*
X219513368Y-103153475D01*
X219756589Y-103315990D01*
X220026842Y-103427932D01*
X220313740Y-103485000D01*
X220606260Y-103485000D01*
X220893158Y-103427932D01*
X221163411Y-103315990D01*
X221406632Y-103153475D01*
X221613475Y-102946632D01*
X221730000Y-102772240D01*
X221846525Y-102946632D01*
X222053368Y-103153475D01*
X222296589Y-103315990D01*
X222566842Y-103427932D01*
X222853740Y-103485000D01*
X223146260Y-103485000D01*
X223433158Y-103427932D01*
X223703411Y-103315990D01*
X223946632Y-103153475D01*
X224153475Y-102946632D01*
X224315990Y-102703411D01*
X224427932Y-102433158D01*
X224485000Y-102146260D01*
X224485000Y-101853740D01*
X224427932Y-101566842D01*
X224315990Y-101296589D01*
X224153475Y-101053368D01*
X223946632Y-100846525D01*
X223703411Y-100684010D01*
X223433158Y-100572068D01*
X223146260Y-100515000D01*
X222853740Y-100515000D01*
X222566842Y-100572068D01*
X222296589Y-100684010D01*
X222053368Y-100846525D01*
X221846525Y-101053368D01*
X221730000Y-101227760D01*
X221613475Y-101053368D01*
X221406632Y-100846525D01*
X221163411Y-100684010D01*
X220893158Y-100572068D01*
X220606260Y-100515000D01*
X220313740Y-100515000D01*
X220026842Y-100572068D01*
X219756589Y-100684010D01*
X219513368Y-100846525D01*
X219306525Y-101053368D01*
X219190000Y-101227760D01*
X219073475Y-101053368D01*
X218866632Y-100846525D01*
X218623411Y-100684010D01*
X218353158Y-100572068D01*
X218066260Y-100515000D01*
X217773740Y-100515000D01*
X217486842Y-100572068D01*
X217216589Y-100684010D01*
X216973368Y-100846525D01*
X216841513Y-100978380D01*
X216819502Y-100905820D01*
X216760537Y-100795506D01*
X216681185Y-100698815D01*
X216584494Y-100619463D01*
X216474180Y-100560498D01*
X216354482Y-100524188D01*
X216230000Y-100511928D01*
X215665750Y-100515000D01*
X215507000Y-100673750D01*
X215507000Y-101873000D01*
X215527000Y-101873000D01*
X215527000Y-102127000D01*
X215507000Y-102127000D01*
X215507000Y-103326250D01*
X215665750Y-103485000D01*
X216230000Y-103488072D01*
X216354482Y-103475812D01*
X216474180Y-103439502D01*
X216584494Y-103380537D01*
X216681185Y-103301185D01*
X216760537Y-103204494D01*
X216819502Y-103094180D01*
X216841513Y-103021620D01*
X216973368Y-103153475D01*
X217085000Y-103228065D01*
X217085001Y-103748254D01*
X217026746Y-103753992D01*
X216860150Y-103804528D01*
X216706614Y-103886595D01*
X216572038Y-103997038D01*
X216566658Y-104003594D01*
X216501185Y-103923815D01*
X216404494Y-103844463D01*
X216294180Y-103785498D01*
X216174482Y-103749188D01*
X216050000Y-103736928D01*
X215835750Y-103740000D01*
X215677000Y-103898750D01*
X215677000Y-104973000D01*
X215697000Y-104973000D01*
X215697000Y-105227000D01*
X215677000Y-105227000D01*
X215677000Y-105247000D01*
X215423000Y-105247000D01*
X215423000Y-105227000D01*
X215403000Y-105227000D01*
X215403000Y-104973000D01*
X215423000Y-104973000D01*
X215423000Y-103898750D01*
X215360000Y-103835750D01*
X215360000Y-103521107D01*
X215363556Y-103485002D01*
X215349365Y-103340917D01*
X215344916Y-103326250D01*
X215307337Y-103202369D01*
X215253000Y-103100711D01*
X215253000Y-102127000D01*
X215233000Y-102127000D01*
X215233000Y-101873000D01*
X215253000Y-101873000D01*
X215253000Y-100673750D01*
X215094250Y-100515000D01*
X215086037Y-100514955D01*
X215150990Y-100358145D01*
X215185000Y-100187165D01*
X215185000Y-100018110D01*
X215286589Y-100085990D01*
X215556842Y-100197932D01*
X215843740Y-100255000D01*
X216136260Y-100255000D01*
X216423158Y-100197932D01*
X216693411Y-100085990D01*
X216936632Y-99923475D01*
X217143475Y-99716632D01*
X217265195Y-99534466D01*
X217334822Y-99651355D01*
X217529731Y-99867588D01*
X217763080Y-100041641D01*
X218025901Y-100166825D01*
X218173110Y-100211476D01*
X218403000Y-100090155D01*
X218403000Y-98897000D01*
X218383000Y-98897000D01*
X218383000Y-98643000D01*
X218403000Y-98643000D01*
X218403000Y-98623000D01*
X218657000Y-98623000D01*
X218657000Y-98643000D01*
G37*
G04 #@! TD.AperFunction*
D22*
X219916525Y-97176632D02*
X220123368Y-97383475D01*
X220297760Y-97500000D01*
X220123368Y-97616525D01*
X219916525Y-97823368D01*
X219794805Y-98005534D01*
X219725178Y-97888645D01*
X219530269Y-97672412D01*
X219300594Y-97501100D01*
X219476632Y-97383475D01*
X219683475Y-97176632D01*
X219800000Y-97002240D01*
X219916525Y-97176632D01*
G04 #@! TA.AperFunction,Conductor*
D23*
G36*
X219916525Y-97176632D02*
G01*
X220123368Y-97383475D01*
X220297760Y-97500000D01*
X220123368Y-97616525D01*
X219916525Y-97823368D01*
X219794805Y-98005534D01*
X219725178Y-97888645D01*
X219530269Y-97672412D01*
X219300594Y-97501100D01*
X219476632Y-97383475D01*
X219683475Y-97176632D01*
X219800000Y-97002240D01*
X219916525Y-97176632D01*
G37*
G04 #@! TD.AperFunction*
D22*
X222414822Y-97111355D02*
X222609731Y-97327588D01*
X222839406Y-97498900D01*
X222663368Y-97616525D01*
X222456525Y-97823368D01*
X222340000Y-97997760D01*
X222223475Y-97823368D01*
X222016632Y-97616525D01*
X221842240Y-97500000D01*
X222016632Y-97383475D01*
X222223475Y-97176632D01*
X222345195Y-96994466D01*
X222414822Y-97111355D01*
G04 #@! TA.AperFunction,Conductor*
D23*
G36*
X222414822Y-97111355D02*
G01*
X222609731Y-97327588D01*
X222839406Y-97498900D01*
X222663368Y-97616525D01*
X222456525Y-97823368D01*
X222340000Y-97997760D01*
X222223475Y-97823368D01*
X222016632Y-97616525D01*
X221842240Y-97500000D01*
X222016632Y-97383475D01*
X222223475Y-97176632D01*
X222345195Y-96994466D01*
X222414822Y-97111355D01*
G37*
G04 #@! TD.AperFunction*
D22*
X214836525Y-97176632D02*
X215043368Y-97383475D01*
X215217760Y-97500000D01*
X215043368Y-97616525D01*
X214836525Y-97823368D01*
X214720000Y-97997760D01*
X214603475Y-97823368D01*
X214396632Y-97616525D01*
X214220594Y-97498900D01*
X214450269Y-97327588D01*
X214645178Y-97111355D01*
X214714805Y-96994466D01*
X214836525Y-97176632D01*
G04 #@! TA.AperFunction,Conductor*
D23*
G36*
X214836525Y-97176632D02*
G01*
X215043368Y-97383475D01*
X215217760Y-97500000D01*
X215043368Y-97616525D01*
X214836525Y-97823368D01*
X214720000Y-97997760D01*
X214603475Y-97823368D01*
X214396632Y-97616525D01*
X214220594Y-97498900D01*
X214450269Y-97327588D01*
X214645178Y-97111355D01*
X214714805Y-96994466D01*
X214836525Y-97176632D01*
G37*
G04 #@! TD.AperFunction*
M02*
