G04 #@! TF.GenerationSoftware,KiCad,Pcbnew,(6.0.0)*
G04 #@! TF.CreationDate,2022-01-20T17:07:56-06:00*
G04 #@! TF.ProjectId,ctrl_board,6374726c-5f62-46f6-9172-642e6b696361,rev?*
G04 #@! TF.SameCoordinates,Original*
G04 #@! TF.FileFunction,Soldermask,Bot*
G04 #@! TF.FilePolarity,Negative*
%FSLAX46Y46*%
G04 Gerber Fmt 4.6, Leading zero omitted, Abs format (unit mm)*
G04 Created by KiCad (PCBNEW (6.0.0)) date 2022-01-20 17:07:56*
%MOMM*%
%LPD*%
G01*
G04 APERTURE LIST*
G04 Aperture macros list*
%AMRoundRect*
0 Rectangle with rounded corners*
0 $1 Rounding radius*
0 $2 $3 $4 $5 $6 $7 $8 $9 X,Y pos of 4 corners*
0 Add a 4 corners polygon primitive as box body*
4,1,4,$2,$3,$4,$5,$6,$7,$8,$9,$2,$3,0*
0 Add four circle primitives for the rounded corners*
1,1,$1+$1,$2,$3*
1,1,$1+$1,$4,$5*
1,1,$1+$1,$6,$7*
1,1,$1+$1,$8,$9*
0 Add four rect primitives between the rounded corners*
20,1,$1+$1,$2,$3,$4,$5,0*
20,1,$1+$1,$4,$5,$6,$7,0*
20,1,$1+$1,$6,$7,$8,$9,0*
20,1,$1+$1,$8,$9,$2,$3,0*%
%AMFreePoly0*
4,1,22,0.500000,-0.750000,0.000000,-0.750000,0.000000,-0.745033,-0.079941,-0.743568,-0.215256,-0.701293,-0.333266,-0.622738,-0.424486,-0.514219,-0.481581,-0.384460,-0.499164,-0.250000,-0.500000,-0.250000,-0.500000,0.250000,-0.499164,0.250000,-0.499963,0.256109,-0.478152,0.396186,-0.417904,0.524511,-0.324060,0.630769,-0.204165,0.706417,-0.067858,0.745374,0.000000,0.744959,0.000000,0.750000,
0.500000,0.750000,0.500000,-0.750000,0.500000,-0.750000,$1*%
%AMFreePoly1*
4,1,20,0.000000,0.744959,0.073905,0.744508,0.209726,0.703889,0.328688,0.626782,0.421226,0.519385,0.479903,0.390333,0.500000,0.250000,0.500000,-0.250000,0.499851,-0.262216,0.476331,-0.402017,0.414519,-0.529596,0.319384,-0.634700,0.198574,-0.708877,0.061801,-0.746166,0.000000,-0.745033,0.000000,-0.750000,-0.500000,-0.750000,-0.500000,0.750000,0.000000,0.750000,0.000000,0.744959,
0.000000,0.744959,$1*%
%AMFreePoly2*
4,1,22,0.550000,-0.750000,0.000000,-0.750000,0.000000,-0.745033,-0.079941,-0.743568,-0.215256,-0.701293,-0.333266,-0.622738,-0.424486,-0.514219,-0.481581,-0.384460,-0.499164,-0.250000,-0.500000,-0.250000,-0.500000,0.250000,-0.499164,0.250000,-0.499963,0.256109,-0.478152,0.396186,-0.417904,0.524511,-0.324060,0.630769,-0.204165,0.706417,-0.067858,0.745374,0.000000,0.744959,0.000000,0.750000,
0.550000,0.750000,0.550000,-0.750000,0.550000,-0.750000,$1*%
%AMFreePoly3*
4,1,20,0.000000,0.744959,0.073905,0.744508,0.209726,0.703889,0.328688,0.626782,0.421226,0.519385,0.479903,0.390333,0.500000,0.250000,0.500000,-0.250000,0.499851,-0.262216,0.476331,-0.402017,0.414519,-0.529596,0.319384,-0.634700,0.198574,-0.708877,0.061801,-0.746166,0.000000,-0.745033,0.000000,-0.750000,-0.550000,-0.750000,-0.550000,0.750000,0.000000,0.750000,0.000000,0.744959,
0.000000,0.744959,$1*%
G04 Aperture macros list end*
%ADD10C,2.700000*%
%ADD11C,2.000000*%
%ADD12R,1.700000X1.700000*%
%ADD13O,1.700000X1.700000*%
%ADD14O,8.500000X2.500000*%
%ADD15O,6.500000X2.500000*%
%ADD16R,2.000000X2.000000*%
%ADD17R,2.000000X3.200000*%
%ADD18RoundRect,0.250000X-0.262500X-0.450000X0.262500X-0.450000X0.262500X0.450000X-0.262500X0.450000X0*%
%ADD19FreePoly0,90.000000*%
%ADD20FreePoly1,90.000000*%
%ADD21FreePoly2,90.000000*%
%ADD22R,1.500000X1.000000*%
%ADD23FreePoly3,90.000000*%
%ADD24RoundRect,0.250000X-0.450000X0.262500X-0.450000X-0.262500X0.450000X-0.262500X0.450000X0.262500X0*%
%ADD25RoundRect,0.250000X0.450000X-0.262500X0.450000X0.262500X-0.450000X0.262500X-0.450000X-0.262500X0*%
%ADD26RoundRect,0.100000X0.100000X-0.637500X0.100000X0.637500X-0.100000X0.637500X-0.100000X-0.637500X0*%
%ADD27RoundRect,0.250000X0.262500X0.450000X-0.262500X0.450000X-0.262500X-0.450000X0.262500X-0.450000X0*%
%ADD28RoundRect,0.250000X-0.475000X0.250000X-0.475000X-0.250000X0.475000X-0.250000X0.475000X0.250000X0*%
G04 APERTURE END LIST*
D10*
X203500000Y-120500000D03*
D11*
X246500000Y-101800000D03*
X240000000Y-101800000D03*
X246500000Y-106300000D03*
X240000000Y-106300000D03*
X246500000Y-117700000D03*
X240000000Y-117700000D03*
X246500000Y-113200000D03*
X240000000Y-113200000D03*
D12*
X216690000Y-102000000D03*
D13*
X219230000Y-102000000D03*
X221770000Y-102000000D03*
X224310000Y-102000000D03*
D14*
X208000000Y-102500000D03*
X233000000Y-102500000D03*
D15*
X209500000Y-126000000D03*
X231500000Y-126000000D03*
D12*
X243950000Y-122200000D03*
D13*
X246490000Y-122200000D03*
X249030000Y-122200000D03*
X251570000Y-122200000D03*
X254110000Y-122200000D03*
X256650000Y-122200000D03*
D16*
X255400000Y-116300000D03*
D11*
X260400000Y-116300000D03*
X257900000Y-116300000D03*
D17*
X263500000Y-108800000D03*
X252300000Y-108800000D03*
D11*
X260400000Y-101800000D03*
X255400000Y-101800000D03*
D10*
X203500000Y-97500000D03*
X261500000Y-97500000D03*
X261500000Y-120500000D03*
D12*
X208370000Y-98770000D03*
D13*
X208370000Y-96230000D03*
X210910000Y-98770000D03*
X210910000Y-96230000D03*
X213450000Y-98770000D03*
X213450000Y-96230000D03*
X215990000Y-98770000D03*
X215990000Y-96230000D03*
X218530000Y-98770000D03*
X218530000Y-96230000D03*
X221070000Y-98770000D03*
X221070000Y-96230000D03*
X223610000Y-98770000D03*
X223610000Y-96230000D03*
X226150000Y-98770000D03*
X226150000Y-96230000D03*
X228690000Y-98770000D03*
X228690000Y-96230000D03*
X231230000Y-98770000D03*
X231230000Y-96230000D03*
X233770000Y-98770000D03*
X233770000Y-96230000D03*
X236310000Y-98770000D03*
X236310000Y-96230000D03*
X238850000Y-98770000D03*
X238850000Y-96230000D03*
X241390000Y-98770000D03*
X241390000Y-96230000D03*
X243930000Y-98770000D03*
X243930000Y-96230000D03*
X246470000Y-98770000D03*
X246470000Y-96230000D03*
X249010000Y-98770000D03*
X249010000Y-96230000D03*
X251550000Y-98770000D03*
X251550000Y-96230000D03*
X254090000Y-98770000D03*
X254090000Y-96230000D03*
X256630000Y-98770000D03*
X256630000Y-96230000D03*
D18*
X206187500Y-107800000D03*
X208012500Y-107800000D03*
D19*
X232600000Y-107300000D03*
D20*
X232600000Y-106000000D03*
D21*
X218859500Y-122471000D03*
D22*
X218859500Y-121171000D03*
D23*
X218859500Y-119871000D03*
D21*
X215716250Y-122471000D03*
D22*
X215716250Y-121171000D03*
D23*
X215716250Y-119871000D03*
D21*
X212573000Y-122471000D03*
D22*
X212573000Y-121171000D03*
D23*
X212573000Y-119871000D03*
D24*
X220038083Y-105780500D03*
X220038083Y-107605500D03*
X222070466Y-105780500D03*
X222070466Y-107605500D03*
D25*
X218859500Y-117892500D03*
X218859500Y-116067500D03*
X215700000Y-117892500D03*
X215700000Y-116067500D03*
X212573000Y-117892500D03*
X212573000Y-116067500D03*
D26*
X215275000Y-112862500D03*
X214625000Y-112862500D03*
X213975000Y-112862500D03*
X213325000Y-112862500D03*
X212675000Y-112862500D03*
X212025000Y-112862500D03*
X211375000Y-112862500D03*
X210725000Y-112862500D03*
X210725000Y-107137500D03*
X211375000Y-107137500D03*
X212025000Y-107137500D03*
X212675000Y-107137500D03*
X213325000Y-107137500D03*
X213975000Y-107137500D03*
X214625000Y-107137500D03*
X215275000Y-107137500D03*
D25*
X223300000Y-122712500D03*
X223300000Y-120887500D03*
X225274084Y-122712500D03*
X225274084Y-120887500D03*
D27*
X208012500Y-105500000D03*
X206187500Y-105500000D03*
D28*
X216900000Y-107200000D03*
X216900000Y-109100000D03*
D24*
X226135232Y-105780500D03*
X226135232Y-107605500D03*
X230200000Y-105780500D03*
X230200000Y-107605500D03*
X228167615Y-105780500D03*
X228167615Y-107605500D03*
D12*
X203500000Y-115270000D03*
D13*
X203500000Y-112730000D03*
X203500000Y-110190000D03*
X203500000Y-107650000D03*
X203500000Y-105110000D03*
D12*
X204770000Y-124800000D03*
D13*
X202230000Y-124800000D03*
D25*
X224000000Y-107625000D03*
X224000000Y-105800000D03*
M02*
