G04 #@! TF.GenerationSoftware,KiCad,Pcbnew,(6.0.0-0)*
G04 #@! TF.CreationDate,2022-01-03T13:42:27-06:00*
G04 #@! TF.ProjectId,ctrl_board,6374726c-5f62-46f6-9172-642e6b696361,rev?*
G04 #@! TF.SameCoordinates,Original*
G04 #@! TF.FileFunction,Legend,Bot*
G04 #@! TF.FilePolarity,Positive*
%FSLAX46Y46*%
G04 Gerber Fmt 4.6, Leading zero omitted, Abs format (unit mm)*
G04 Created by KiCad (PCBNEW (6.0.0-0)) date 2022-01-03 13:42:27*
%MOMM*%
%LPD*%
G01*
G04 APERTURE LIST*
G04 Aperture macros list*
%AMRoundRect*
0 Rectangle with rounded corners*
0 $1 Rounding radius*
0 $2 $3 $4 $5 $6 $7 $8 $9 X,Y pos of 4 corners*
0 Add a 4 corners polygon primitive as box body*
4,1,4,$2,$3,$4,$5,$6,$7,$8,$9,$2,$3,0*
0 Add four circle primitives for the rounded corners*
1,1,$1+$1,$2,$3*
1,1,$1+$1,$4,$5*
1,1,$1+$1,$6,$7*
1,1,$1+$1,$8,$9*
0 Add four rect primitives between the rounded corners*
20,1,$1+$1,$2,$3,$4,$5,0*
20,1,$1+$1,$4,$5,$6,$7,0*
20,1,$1+$1,$6,$7,$8,$9,0*
20,1,$1+$1,$8,$9,$2,$3,0*%
%AMFreePoly0*
4,1,22,0.550000,-0.750000,0.000000,-0.750000,0.000000,-0.745033,-0.079941,-0.743568,-0.215256,-0.701293,-0.333266,-0.622738,-0.424486,-0.514219,-0.481581,-0.384460,-0.499164,-0.250000,-0.500000,-0.250000,-0.500000,0.250000,-0.499164,0.250000,-0.499963,0.256109,-0.478152,0.396186,-0.417904,0.524511,-0.324060,0.630769,-0.204165,0.706417,-0.067858,0.745374,0.000000,0.744959,0.000000,0.750000,
0.550000,0.750000,0.550000,-0.750000,0.550000,-0.750000,$1*%
%AMFreePoly1*
4,1,20,0.000000,0.744959,0.073905,0.744508,0.209726,0.703889,0.328688,0.626782,0.421226,0.519385,0.479903,0.390333,0.500000,0.250000,0.500000,-0.250000,0.499851,-0.262216,0.476331,-0.402017,0.414519,-0.529596,0.319384,-0.634700,0.198574,-0.708877,0.061801,-0.746166,0.000000,-0.745033,0.000000,-0.750000,-0.550000,-0.750000,-0.550000,0.750000,0.000000,0.750000,0.000000,0.744959,
0.000000,0.744959,$1*%
G04 Aperture macros list end*
%ADD10C,0.150000*%
%ADD11C,0.100000*%
%ADD12C,0.350000*%
%ADD13C,0.120000*%
%ADD14C,2.700000*%
%ADD15C,2.000000*%
%ADD16R,1.700000X1.700000*%
%ADD17O,1.700000X1.700000*%
%ADD18C,2.500000*%
%ADD19C,3.000000*%
%ADD20R,2.000000X2.000000*%
%ADD21R,2.000000X3.200000*%
%ADD22RoundRect,0.250000X-0.262500X-0.450000X0.262500X-0.450000X0.262500X0.450000X-0.262500X0.450000X0*%
%ADD23FreePoly0,90.000000*%
%ADD24R,1.500000X1.000000*%
%ADD25FreePoly1,90.000000*%
%ADD26RoundRect,0.250000X-0.450000X0.262500X-0.450000X-0.262500X0.450000X-0.262500X0.450000X0.262500X0*%
%ADD27RoundRect,0.250000X0.450000X-0.262500X0.450000X0.262500X-0.450000X0.262500X-0.450000X-0.262500X0*%
%ADD28RoundRect,0.100000X0.100000X-0.637500X0.100000X0.637500X-0.100000X0.637500X-0.100000X-0.637500X0*%
%ADD29RoundRect,0.250000X0.262500X0.450000X-0.262500X0.450000X-0.262500X-0.450000X0.262500X-0.450000X0*%
%ADD30RoundRect,0.250000X-0.475000X0.250000X-0.475000X-0.250000X0.475000X-0.250000X0.475000X0.250000X0*%
G04 APERTURE END LIST*
D10*
X210400000Y-123393500D02*
X210400000Y-123012500D01*
X210395000Y-118885000D02*
X211493500Y-118885000D01*
X222033000Y-117009000D02*
X222033000Y-110913000D01*
X233336000Y-117453500D02*
X221461500Y-117453500D01*
X221461500Y-117453500D02*
X221461500Y-110341500D01*
X221461500Y-110341500D02*
X233336000Y-110341500D01*
X222033000Y-110913000D02*
X232828000Y-110913000D01*
X232830000Y-110913000D02*
X232830000Y-117009000D01*
X233336000Y-110341500D02*
X233336000Y-117453500D01*
X232828000Y-117009000D02*
X222033000Y-117009000D01*
X222144000Y-118885000D02*
X222144000Y-120599500D01*
X222144000Y-123393500D02*
X210400000Y-123400000D01*
X222144000Y-120599500D02*
X222144000Y-123393500D01*
X211493500Y-118885000D02*
X222144000Y-118885000D01*
X210395000Y-123012500D02*
X210395000Y-120599500D01*
X210400000Y-120600000D02*
X222144000Y-120599500D01*
X210395000Y-120599500D02*
X210395000Y-118885000D01*
D11*
X201077166Y-109185500D02*
X201077166Y-109618833D01*
X201343833Y-109385500D01*
X201343833Y-109485500D01*
X201377166Y-109552166D01*
X201410500Y-109585500D01*
X201477166Y-109618833D01*
X201643833Y-109618833D01*
X201710500Y-109585500D01*
X201743833Y-109552166D01*
X201777166Y-109485500D01*
X201777166Y-109285500D01*
X201743833Y-109218833D01*
X201710500Y-109185500D01*
X201710500Y-109918833D02*
X201743833Y-109952166D01*
X201777166Y-109918833D01*
X201743833Y-109885500D01*
X201710500Y-109918833D01*
X201777166Y-109918833D01*
X201077166Y-110185500D02*
X201077166Y-110618833D01*
X201343833Y-110385500D01*
X201343833Y-110485500D01*
X201377166Y-110552166D01*
X201410500Y-110585500D01*
X201477166Y-110618833D01*
X201643833Y-110618833D01*
X201710500Y-110585500D01*
X201743833Y-110552166D01*
X201777166Y-110485500D01*
X201777166Y-110285500D01*
X201743833Y-110218833D01*
X201710500Y-110185500D01*
X201310500Y-110852166D02*
X201777166Y-111018833D01*
X201310500Y-111185500D01*
X201016666Y-115400000D02*
X201016666Y-115066666D01*
X201350000Y-115033333D01*
X201316666Y-115066666D01*
X201283333Y-115133333D01*
X201283333Y-115300000D01*
X201316666Y-115366666D01*
X201350000Y-115400000D01*
X201416666Y-115433333D01*
X201583333Y-115433333D01*
X201650000Y-115400000D01*
X201683333Y-115366666D01*
X201716666Y-115300000D01*
X201716666Y-115133333D01*
X201683333Y-115066666D01*
X201650000Y-115033333D01*
X201250000Y-115666666D02*
X201716666Y-115833333D01*
X201250000Y-116000000D01*
X201050000Y-112366666D02*
X201016666Y-112300000D01*
X201016666Y-112200000D01*
X201050000Y-112100000D01*
X201116666Y-112033333D01*
X201183333Y-112000000D01*
X201316666Y-111966666D01*
X201416666Y-111966666D01*
X201550000Y-112000000D01*
X201616666Y-112033333D01*
X201683333Y-112100000D01*
X201716666Y-112200000D01*
X201716666Y-112266666D01*
X201683333Y-112366666D01*
X201650000Y-112400000D01*
X201416666Y-112400000D01*
X201416666Y-112266666D01*
X201716666Y-112700000D02*
X201016666Y-112700000D01*
X201716666Y-113100000D01*
X201016666Y-113100000D01*
X201716666Y-113433333D02*
X201016666Y-113433333D01*
X201016666Y-113600000D01*
X201050000Y-113700000D01*
X201116666Y-113766666D01*
X201183333Y-113800000D01*
X201316666Y-113833333D01*
X201416666Y-113833333D01*
X201550000Y-113800000D01*
X201616666Y-113766666D01*
X201683333Y-113700000D01*
X201716666Y-113600000D01*
X201716666Y-113433333D01*
X201683333Y-106650000D02*
X201716666Y-106750000D01*
X201716666Y-106916666D01*
X201683333Y-106983333D01*
X201650000Y-107016666D01*
X201583333Y-107050000D01*
X201516666Y-107050000D01*
X201450000Y-107016666D01*
X201416666Y-106983333D01*
X201383333Y-106916666D01*
X201350000Y-106783333D01*
X201316666Y-106716666D01*
X201283333Y-106683333D01*
X201216666Y-106650000D01*
X201150000Y-106650000D01*
X201083333Y-106683333D01*
X201050000Y-106716666D01*
X201016666Y-106783333D01*
X201016666Y-106950000D01*
X201050000Y-107050000D01*
X201716666Y-107350000D02*
X201016666Y-107350000D01*
X201016666Y-107516666D01*
X201050000Y-107616666D01*
X201116666Y-107683333D01*
X201183333Y-107716666D01*
X201316666Y-107750000D01*
X201416666Y-107750000D01*
X201550000Y-107716666D01*
X201616666Y-107683333D01*
X201683333Y-107616666D01*
X201716666Y-107516666D01*
X201716666Y-107350000D01*
X201516666Y-108016666D02*
X201516666Y-108350000D01*
X201716666Y-107950000D02*
X201016666Y-108183333D01*
X201716666Y-108416666D01*
X201583333Y-104166666D02*
X201616666Y-104266666D01*
X201616666Y-104433333D01*
X201583333Y-104500000D01*
X201550000Y-104533333D01*
X201483333Y-104566666D01*
X201416666Y-104566666D01*
X201350000Y-104533333D01*
X201316666Y-104500000D01*
X201283333Y-104433333D01*
X201250000Y-104300000D01*
X201216666Y-104233333D01*
X201183333Y-104200000D01*
X201116666Y-104166666D01*
X201050000Y-104166666D01*
X200983333Y-104200000D01*
X200950000Y-104233333D01*
X200916666Y-104300000D01*
X200916666Y-104466666D01*
X200950000Y-104566666D01*
X201550000Y-105266666D02*
X201583333Y-105233333D01*
X201616666Y-105133333D01*
X201616666Y-105066666D01*
X201583333Y-104966666D01*
X201516666Y-104900000D01*
X201450000Y-104866666D01*
X201316666Y-104833333D01*
X201216666Y-104833333D01*
X201083333Y-104866666D01*
X201016666Y-104900000D01*
X200950000Y-104966666D01*
X200916666Y-105066666D01*
X200916666Y-105133333D01*
X200950000Y-105233333D01*
X200983333Y-105266666D01*
X201616666Y-105900000D02*
X201616666Y-105566666D01*
X200916666Y-105566666D01*
X221633333Y-121994166D02*
X221400000Y-122694166D01*
X221166666Y-121994166D01*
X220633333Y-122660833D02*
X220700000Y-122694166D01*
X220833333Y-122694166D01*
X220900000Y-122660833D01*
X220933333Y-122627500D01*
X220966666Y-122560833D01*
X220966666Y-122360833D01*
X220933333Y-122294166D01*
X220900000Y-122260833D01*
X220833333Y-122227500D01*
X220700000Y-122227500D01*
X220633333Y-122260833D01*
X220033333Y-122660833D02*
X220100000Y-122694166D01*
X220233333Y-122694166D01*
X220300000Y-122660833D01*
X220333333Y-122627500D01*
X220366666Y-122560833D01*
X220366666Y-122360833D01*
X220333333Y-122294166D01*
X220300000Y-122260833D01*
X220233333Y-122227500D01*
X220100000Y-122227500D01*
X220033333Y-122260833D01*
X221533333Y-119614500D02*
X221600000Y-119581166D01*
X221700000Y-119581166D01*
X221800000Y-119614500D01*
X221866666Y-119681166D01*
X221900000Y-119747833D01*
X221933333Y-119881166D01*
X221933333Y-119981166D01*
X221900000Y-120114500D01*
X221866666Y-120181166D01*
X221800000Y-120247833D01*
X221700000Y-120281166D01*
X221633333Y-120281166D01*
X221533333Y-120247833D01*
X221500000Y-120214500D01*
X221500000Y-119981166D01*
X221633333Y-119981166D01*
X221200000Y-120281166D02*
X221200000Y-119581166D01*
X220800000Y-120281166D01*
X220800000Y-119581166D01*
X220466666Y-120281166D02*
X220466666Y-119581166D01*
X220300000Y-119581166D01*
X220200000Y-119614500D01*
X220133333Y-119681166D01*
X220100000Y-119747833D01*
X220066666Y-119881166D01*
X220066666Y-119981166D01*
X220100000Y-120114500D01*
X220133333Y-120181166D01*
X220200000Y-120247833D01*
X220300000Y-120281166D01*
X220466666Y-120281166D01*
X209005166Y-119724833D02*
X208305166Y-119724833D01*
X208305166Y-120191500D02*
X208305166Y-120324833D01*
X208338500Y-120391500D01*
X208405166Y-120458166D01*
X208538500Y-120491500D01*
X208771833Y-120491500D01*
X208905166Y-120458166D01*
X208971833Y-120391500D01*
X209005166Y-120324833D01*
X209005166Y-120191500D01*
X208971833Y-120124833D01*
X208905166Y-120058166D01*
X208771833Y-120024833D01*
X208538500Y-120024833D01*
X208405166Y-120058166D01*
X208338500Y-120124833D01*
X208305166Y-120191500D01*
X209932166Y-119074833D02*
X209932166Y-119408166D01*
X210132166Y-119008166D02*
X209432166Y-119241500D01*
X210132166Y-119474833D01*
X210132166Y-120008166D02*
X209432166Y-120008166D01*
X210098833Y-120008166D02*
X210132166Y-119941500D01*
X210132166Y-119808166D01*
X210098833Y-119741500D01*
X210065500Y-119708166D01*
X209998833Y-119674833D01*
X209798833Y-119674833D01*
X209732166Y-119708166D01*
X209698833Y-119741500D01*
X209665500Y-119808166D01*
X209665500Y-119941500D01*
X209698833Y-120008166D01*
X210132166Y-120641500D02*
X209432166Y-120641500D01*
X210098833Y-120641500D02*
X210132166Y-120574833D01*
X210132166Y-120441500D01*
X210098833Y-120374833D01*
X210065500Y-120341500D01*
X209998833Y-120308166D01*
X209798833Y-120308166D01*
X209732166Y-120341500D01*
X209698833Y-120374833D01*
X209665500Y-120441500D01*
X209665500Y-120574833D01*
X209698833Y-120641500D01*
X210132166Y-120974833D02*
X209665500Y-120974833D01*
X209798833Y-120974833D02*
X209732166Y-121008166D01*
X209698833Y-121041500D01*
X209665500Y-121108166D01*
X209665500Y-121174833D01*
X230846380Y-115554904D02*
X230579714Y-116354904D01*
X230313047Y-115554904D01*
X229741619Y-116316809D02*
X229817809Y-116354904D01*
X229970190Y-116354904D01*
X230046380Y-116316809D01*
X230084476Y-116240619D01*
X230084476Y-115935857D01*
X230046380Y-115859666D01*
X229970190Y-115821571D01*
X229817809Y-115821571D01*
X229741619Y-115859666D01*
X229703523Y-115935857D01*
X229703523Y-116012047D01*
X230084476Y-116088238D01*
X229360666Y-116354904D02*
X229360666Y-115821571D01*
X229360666Y-115973952D02*
X229322571Y-115897761D01*
X229284476Y-115859666D01*
X229208285Y-115821571D01*
X229132095Y-115821571D01*
X228903523Y-116316809D02*
X228827333Y-116354904D01*
X228674952Y-116354904D01*
X228598761Y-116316809D01*
X228560666Y-116240619D01*
X228560666Y-116202523D01*
X228598761Y-116126333D01*
X228674952Y-116088238D01*
X228789238Y-116088238D01*
X228865428Y-116050142D01*
X228903523Y-115973952D01*
X228903523Y-115935857D01*
X228865428Y-115859666D01*
X228789238Y-115821571D01*
X228674952Y-115821571D01*
X228598761Y-115859666D01*
X228217809Y-116354904D02*
X228217809Y-115821571D01*
X228217809Y-115554904D02*
X228255904Y-115593000D01*
X228217809Y-115631095D01*
X228179714Y-115593000D01*
X228217809Y-115554904D01*
X228217809Y-115631095D01*
X227722571Y-116354904D02*
X227798761Y-116316809D01*
X227836857Y-116278714D01*
X227874952Y-116202523D01*
X227874952Y-115973952D01*
X227836857Y-115897761D01*
X227798761Y-115859666D01*
X227722571Y-115821571D01*
X227608285Y-115821571D01*
X227532095Y-115859666D01*
X227494000Y-115897761D01*
X227455904Y-115973952D01*
X227455904Y-116202523D01*
X227494000Y-116278714D01*
X227532095Y-116316809D01*
X227608285Y-116354904D01*
X227722571Y-116354904D01*
X227113047Y-115821571D02*
X227113047Y-116354904D01*
X227113047Y-115897761D02*
X227074952Y-115859666D01*
X226998761Y-115821571D01*
X226884476Y-115821571D01*
X226808285Y-115859666D01*
X226770190Y-115935857D01*
X226770190Y-116354904D01*
X225360666Y-116354904D02*
X225817809Y-116354904D01*
X225589238Y-116354904D02*
X225589238Y-115554904D01*
X225665428Y-115669190D01*
X225741619Y-115745380D01*
X225817809Y-115783476D01*
X225017809Y-116278714D02*
X224979714Y-116316809D01*
X225017809Y-116354904D01*
X225055904Y-116316809D01*
X225017809Y-116278714D01*
X225017809Y-116354904D01*
X224255904Y-115554904D02*
X224636857Y-115554904D01*
X224674952Y-115935857D01*
X224636857Y-115897761D01*
X224560666Y-115859666D01*
X224370190Y-115859666D01*
X224294000Y-115897761D01*
X224255904Y-115935857D01*
X224217809Y-116012047D01*
X224217809Y-116202523D01*
X224255904Y-116278714D01*
X224294000Y-116316809D01*
X224370190Y-116354904D01*
X224560666Y-116354904D01*
X224636857Y-116316809D01*
X224674952Y-116278714D01*
D10*
X231946380Y-114635642D02*
X231994000Y-114683261D01*
X232136857Y-114730880D01*
X232232095Y-114730880D01*
X232374952Y-114683261D01*
X232470190Y-114588023D01*
X232517809Y-114492785D01*
X232565428Y-114302309D01*
X232565428Y-114159452D01*
X232517809Y-113968976D01*
X232470190Y-113873738D01*
X232374952Y-113778500D01*
X232232095Y-113730880D01*
X232136857Y-113730880D01*
X231994000Y-113778500D01*
X231946380Y-113826119D01*
X231374952Y-114730880D02*
X231470190Y-114683261D01*
X231517809Y-114635642D01*
X231565428Y-114540404D01*
X231565428Y-114254690D01*
X231517809Y-114159452D01*
X231470190Y-114111833D01*
X231374952Y-114064214D01*
X231232095Y-114064214D01*
X231136857Y-114111833D01*
X231089238Y-114159452D01*
X231041619Y-114254690D01*
X231041619Y-114540404D01*
X231089238Y-114635642D01*
X231136857Y-114683261D01*
X231232095Y-114730880D01*
X231374952Y-114730880D01*
X230613047Y-114064214D02*
X230613047Y-114730880D01*
X230613047Y-114159452D02*
X230565428Y-114111833D01*
X230470190Y-114064214D01*
X230327333Y-114064214D01*
X230232095Y-114111833D01*
X230184476Y-114207071D01*
X230184476Y-114730880D01*
X229851142Y-114064214D02*
X229470190Y-114064214D01*
X229708285Y-113730880D02*
X229708285Y-114588023D01*
X229660666Y-114683261D01*
X229565428Y-114730880D01*
X229470190Y-114730880D01*
X229136857Y-114730880D02*
X229136857Y-114064214D01*
X229136857Y-114254690D02*
X229089238Y-114159452D01*
X229041619Y-114111833D01*
X228946380Y-114064214D01*
X228851142Y-114064214D01*
X228374952Y-114730880D02*
X228470190Y-114683261D01*
X228517809Y-114635642D01*
X228565428Y-114540404D01*
X228565428Y-114254690D01*
X228517809Y-114159452D01*
X228470190Y-114111833D01*
X228374952Y-114064214D01*
X228232095Y-114064214D01*
X228136857Y-114111833D01*
X228089238Y-114159452D01*
X228041619Y-114254690D01*
X228041619Y-114540404D01*
X228089238Y-114635642D01*
X228136857Y-114683261D01*
X228232095Y-114730880D01*
X228374952Y-114730880D01*
X227470190Y-114730880D02*
X227565428Y-114683261D01*
X227613047Y-114588023D01*
X227613047Y-113730880D01*
X225994000Y-114207071D02*
X225851142Y-114254690D01*
X225803523Y-114302309D01*
X225755904Y-114397547D01*
X225755904Y-114540404D01*
X225803523Y-114635642D01*
X225851142Y-114683261D01*
X225946380Y-114730880D01*
X226327333Y-114730880D01*
X226327333Y-113730880D01*
X225994000Y-113730880D01*
X225898761Y-113778500D01*
X225851142Y-113826119D01*
X225803523Y-113921357D01*
X225803523Y-114016595D01*
X225851142Y-114111833D01*
X225898761Y-114159452D01*
X225994000Y-114207071D01*
X226327333Y-114207071D01*
X225184476Y-114730880D02*
X225279714Y-114683261D01*
X225327333Y-114635642D01*
X225374952Y-114540404D01*
X225374952Y-114254690D01*
X225327333Y-114159452D01*
X225279714Y-114111833D01*
X225184476Y-114064214D01*
X225041619Y-114064214D01*
X224946380Y-114111833D01*
X224898761Y-114159452D01*
X224851142Y-114254690D01*
X224851142Y-114540404D01*
X224898761Y-114635642D01*
X224946380Y-114683261D01*
X225041619Y-114730880D01*
X225184476Y-114730880D01*
X223994000Y-114730880D02*
X223994000Y-114207071D01*
X224041619Y-114111833D01*
X224136857Y-114064214D01*
X224327333Y-114064214D01*
X224422571Y-114111833D01*
X223994000Y-114683261D02*
X224089238Y-114730880D01*
X224327333Y-114730880D01*
X224422571Y-114683261D01*
X224470190Y-114588023D01*
X224470190Y-114492785D01*
X224422571Y-114397547D01*
X224327333Y-114349928D01*
X224089238Y-114349928D01*
X223994000Y-114302309D01*
X223517809Y-114730880D02*
X223517809Y-114064214D01*
X223517809Y-114254690D02*
X223470190Y-114159452D01*
X223422571Y-114111833D01*
X223327333Y-114064214D01*
X223232095Y-114064214D01*
X222470190Y-114730880D02*
X222470190Y-113730880D01*
X222470190Y-114683261D02*
X222565428Y-114730880D01*
X222755904Y-114730880D01*
X222851142Y-114683261D01*
X222898761Y-114635642D01*
X222946380Y-114540404D01*
X222946380Y-114254690D01*
X222898761Y-114159452D01*
X222851142Y-114111833D01*
X222755904Y-114064214D01*
X222565428Y-114064214D01*
X222470190Y-114111833D01*
D12*
X230322508Y-112988571D02*
X230733223Y-112274285D01*
X231179651Y-112988571D02*
X230992151Y-111488571D01*
X230420723Y-111488571D01*
X230286794Y-111560000D01*
X230224294Y-111631428D01*
X230170723Y-111774285D01*
X230197508Y-111988571D01*
X230286794Y-112131428D01*
X230367151Y-112202857D01*
X230518937Y-112274285D01*
X231090366Y-112274285D01*
X229036794Y-112988571D02*
X228938580Y-112202857D01*
X228992151Y-112060000D01*
X229126080Y-111988571D01*
X229411794Y-111988571D01*
X229563580Y-112060000D01*
X229027866Y-112917142D02*
X229179651Y-112988571D01*
X229536794Y-112988571D01*
X229670723Y-112917142D01*
X229724294Y-112774285D01*
X229706437Y-112631428D01*
X229617151Y-112488571D01*
X229465366Y-112417142D01*
X229108223Y-112417142D01*
X228956437Y-112345714D01*
X228385008Y-112917142D02*
X228179651Y-112988571D01*
X227822508Y-112988571D01*
X227670723Y-112917142D01*
X227590366Y-112845714D01*
X227501080Y-112702857D01*
X227483223Y-112560000D01*
X227536794Y-112417142D01*
X227599294Y-112345714D01*
X227733223Y-112274285D01*
X228010008Y-112202857D01*
X228143937Y-112131428D01*
X228206437Y-112060000D01*
X228260008Y-111917142D01*
X228242151Y-111774285D01*
X228152866Y-111631428D01*
X228072508Y-111560000D01*
X227920723Y-111488571D01*
X227563580Y-111488571D01*
X227358223Y-111560000D01*
X226018937Y-112845714D02*
X226099294Y-112917142D01*
X226322508Y-112988571D01*
X226465366Y-112988571D01*
X226670723Y-112917142D01*
X226795723Y-112774285D01*
X226849294Y-112631428D01*
X226885008Y-112345714D01*
X226858223Y-112131428D01*
X226751080Y-111845714D01*
X226661794Y-111702857D01*
X226501080Y-111560000D01*
X226277866Y-111488571D01*
X226135008Y-111488571D01*
X225929651Y-111560000D01*
X225867151Y-111631428D01*
X225456437Y-112917142D02*
X225251080Y-112988571D01*
X224893937Y-112988571D01*
X224742151Y-112917142D01*
X224661794Y-112845714D01*
X224572508Y-112702857D01*
X224554651Y-112560000D01*
X224608223Y-112417142D01*
X224670723Y-112345714D01*
X224804651Y-112274285D01*
X225081437Y-112202857D01*
X225215366Y-112131428D01*
X225277866Y-112060000D01*
X225331437Y-111917142D01*
X225313580Y-111774285D01*
X225224294Y-111631428D01*
X225143937Y-111560000D01*
X224992151Y-111488571D01*
X224635008Y-111488571D01*
X224429651Y-111560000D01*
X223965366Y-112988571D02*
X223777866Y-111488571D01*
D11*
X257683333Y-120816666D02*
X258016666Y-120816666D01*
X258016666Y-120116666D01*
X257450000Y-120450000D02*
X257216666Y-120450000D01*
X257116666Y-120816666D02*
X257450000Y-120816666D01*
X257450000Y-120116666D01*
X257116666Y-120116666D01*
X256816666Y-120816666D02*
X256816666Y-120116666D01*
X256650000Y-120116666D01*
X256550000Y-120150000D01*
X256483333Y-120216666D01*
X256450000Y-120283333D01*
X256416666Y-120416666D01*
X256416666Y-120516666D01*
X256450000Y-120650000D01*
X256483333Y-120716666D01*
X256550000Y-120783333D01*
X256650000Y-120816666D01*
X256816666Y-120816666D01*
X256150000Y-120183333D02*
X256116666Y-120150000D01*
X256050000Y-120116666D01*
X255883333Y-120116666D01*
X255816666Y-120150000D01*
X255783333Y-120183333D01*
X255750000Y-120250000D01*
X255750000Y-120316666D01*
X255783333Y-120416666D01*
X256183333Y-120816666D01*
X255750000Y-120816666D01*
X214231166Y-120861500D02*
X214231166Y-121194833D01*
X214431166Y-120794833D02*
X213731166Y-121028166D01*
X214431166Y-121261500D01*
X214431166Y-121861500D02*
X214431166Y-121461500D01*
X214431166Y-121661500D02*
X213731166Y-121661500D01*
X213831166Y-121594833D01*
X213897833Y-121528166D01*
X213931166Y-121461500D01*
D10*
X264266666Y-104552380D02*
X264266666Y-103552380D01*
X263838095Y-104552380D02*
X263838095Y-104028571D01*
X263885714Y-103933333D01*
X263980952Y-103885714D01*
X264123809Y-103885714D01*
X264219047Y-103933333D01*
X264266666Y-103980952D01*
X263504761Y-103885714D02*
X263123809Y-103885714D01*
X263361904Y-103552380D02*
X263361904Y-104409523D01*
X263314285Y-104504761D01*
X263219047Y-104552380D01*
X263123809Y-104552380D01*
X262933333Y-103885714D02*
X262552380Y-103885714D01*
X262790476Y-103552380D02*
X262790476Y-104409523D01*
X262742857Y-104504761D01*
X262647619Y-104552380D01*
X262552380Y-104552380D01*
X262219047Y-103885714D02*
X262219047Y-104885714D01*
X262219047Y-103933333D02*
X262123809Y-103885714D01*
X261933333Y-103885714D01*
X261838095Y-103933333D01*
X261790476Y-103980952D01*
X261742857Y-104076190D01*
X261742857Y-104361904D01*
X261790476Y-104457142D01*
X261838095Y-104504761D01*
X261933333Y-104552380D01*
X262123809Y-104552380D01*
X262219047Y-104504761D01*
X261361904Y-104504761D02*
X261266666Y-104552380D01*
X261076190Y-104552380D01*
X260980952Y-104504761D01*
X260933333Y-104409523D01*
X260933333Y-104361904D01*
X260980952Y-104266666D01*
X261076190Y-104219047D01*
X261219047Y-104219047D01*
X261314285Y-104171428D01*
X261361904Y-104076190D01*
X261361904Y-104028571D01*
X261314285Y-103933333D01*
X261219047Y-103885714D01*
X261076190Y-103885714D01*
X260980952Y-103933333D01*
X260504761Y-104457142D02*
X260457142Y-104504761D01*
X260504761Y-104552380D01*
X260552380Y-104504761D01*
X260504761Y-104457142D01*
X260504761Y-104552380D01*
X260504761Y-103933333D02*
X260457142Y-103980952D01*
X260504761Y-104028571D01*
X260552380Y-103980952D01*
X260504761Y-103933333D01*
X260504761Y-104028571D01*
X259314285Y-103504761D02*
X260171428Y-104790476D01*
X258266666Y-103504761D02*
X259123809Y-104790476D01*
X257504761Y-103885714D02*
X257504761Y-104695238D01*
X257552380Y-104790476D01*
X257600000Y-104838095D01*
X257695238Y-104885714D01*
X257838095Y-104885714D01*
X257933333Y-104838095D01*
X257504761Y-104504761D02*
X257600000Y-104552380D01*
X257790476Y-104552380D01*
X257885714Y-104504761D01*
X257933333Y-104457142D01*
X257980952Y-104361904D01*
X257980952Y-104076190D01*
X257933333Y-103980952D01*
X257885714Y-103933333D01*
X257790476Y-103885714D01*
X257600000Y-103885714D01*
X257504761Y-103933333D01*
X257028571Y-104552380D02*
X257028571Y-103885714D01*
X257028571Y-103552380D02*
X257076190Y-103600000D01*
X257028571Y-103647619D01*
X256980952Y-103600000D01*
X257028571Y-103552380D01*
X257028571Y-103647619D01*
X256695238Y-103885714D02*
X256314285Y-103885714D01*
X256552380Y-103552380D02*
X256552380Y-104409523D01*
X256504761Y-104504761D01*
X256409523Y-104552380D01*
X256314285Y-104552380D01*
X255980952Y-104552380D02*
X255980952Y-103552380D01*
X255552380Y-104552380D02*
X255552380Y-104028571D01*
X255600000Y-103933333D01*
X255695238Y-103885714D01*
X255838095Y-103885714D01*
X255933333Y-103933333D01*
X255980952Y-103980952D01*
X254647619Y-103885714D02*
X254647619Y-104552380D01*
X255076190Y-103885714D02*
X255076190Y-104409523D01*
X255028571Y-104504761D01*
X254933333Y-104552380D01*
X254790476Y-104552380D01*
X254695238Y-104504761D01*
X254647619Y-104457142D01*
X254171428Y-104552380D02*
X254171428Y-103552380D01*
X254171428Y-103933333D02*
X254076190Y-103885714D01*
X253885714Y-103885714D01*
X253790476Y-103933333D01*
X253742857Y-103980952D01*
X253695238Y-104076190D01*
X253695238Y-104361904D01*
X253742857Y-104457142D01*
X253790476Y-104504761D01*
X253885714Y-104552380D01*
X254076190Y-104552380D01*
X254171428Y-104504761D01*
X253266666Y-104457142D02*
X253219047Y-104504761D01*
X253266666Y-104552380D01*
X253314285Y-104504761D01*
X253266666Y-104457142D01*
X253266666Y-104552380D01*
X252361904Y-104504761D02*
X252457142Y-104552380D01*
X252647619Y-104552380D01*
X252742857Y-104504761D01*
X252790476Y-104457142D01*
X252838095Y-104361904D01*
X252838095Y-104076190D01*
X252790476Y-103980952D01*
X252742857Y-103933333D01*
X252647619Y-103885714D01*
X252457142Y-103885714D01*
X252361904Y-103933333D01*
X251790476Y-104552380D02*
X251885714Y-104504761D01*
X251933333Y-104457142D01*
X251980952Y-104361904D01*
X251980952Y-104076190D01*
X251933333Y-103980952D01*
X251885714Y-103933333D01*
X251790476Y-103885714D01*
X251647619Y-103885714D01*
X251552380Y-103933333D01*
X251504761Y-103980952D01*
X251457142Y-104076190D01*
X251457142Y-104361904D01*
X251504761Y-104457142D01*
X251552380Y-104504761D01*
X251647619Y-104552380D01*
X251790476Y-104552380D01*
X251028571Y-104552380D02*
X251028571Y-103885714D01*
X251028571Y-103980952D02*
X250980952Y-103933333D01*
X250885714Y-103885714D01*
X250742857Y-103885714D01*
X250647619Y-103933333D01*
X250600000Y-104028571D01*
X250600000Y-104552380D01*
X250600000Y-104028571D02*
X250552380Y-103933333D01*
X250457142Y-103885714D01*
X250314285Y-103885714D01*
X250219047Y-103933333D01*
X250171428Y-104028571D01*
X250171428Y-104552380D01*
X248980952Y-103504761D02*
X249838095Y-104790476D01*
X248219047Y-104552380D02*
X248219047Y-104028571D01*
X248266666Y-103933333D01*
X248361904Y-103885714D01*
X248552380Y-103885714D01*
X248647619Y-103933333D01*
X248219047Y-104504761D02*
X248314285Y-104552380D01*
X248552380Y-104552380D01*
X248647619Y-104504761D01*
X248695238Y-104409523D01*
X248695238Y-104314285D01*
X248647619Y-104219047D01*
X248552380Y-104171428D01*
X248314285Y-104171428D01*
X248219047Y-104123809D01*
X247742857Y-104552380D02*
X247742857Y-103552380D01*
X247647619Y-104171428D02*
X247361904Y-104552380D01*
X247361904Y-103885714D02*
X247742857Y-104266666D01*
X246504761Y-103885714D02*
X246504761Y-104552380D01*
X246933333Y-103885714D02*
X246933333Y-104409523D01*
X246885714Y-104504761D01*
X246790476Y-104552380D01*
X246647619Y-104552380D01*
X246552380Y-104504761D01*
X246504761Y-104457142D01*
X246028571Y-104552380D02*
X246028571Y-103552380D01*
X245933333Y-104171428D02*
X245647619Y-104552380D01*
X245647619Y-103885714D02*
X246028571Y-104266666D01*
X244838095Y-104504761D02*
X244933333Y-104552380D01*
X245123809Y-104552380D01*
X245219047Y-104504761D01*
X245266666Y-104409523D01*
X245266666Y-104028571D01*
X245219047Y-103933333D01*
X245123809Y-103885714D01*
X244933333Y-103885714D01*
X244838095Y-103933333D01*
X244790476Y-104028571D01*
X244790476Y-104123809D01*
X245266666Y-104219047D01*
X244361904Y-104552380D02*
X244361904Y-103885714D01*
X244361904Y-104076190D02*
X244314285Y-103980952D01*
X244266666Y-103933333D01*
X244171428Y-103885714D01*
X244076190Y-103885714D01*
X243028571Y-103504761D02*
X243885714Y-104790476D01*
X242123809Y-104552380D02*
X242457142Y-104076190D01*
X242695238Y-104552380D02*
X242695238Y-103552380D01*
X242314285Y-103552380D01*
X242219047Y-103600000D01*
X242171428Y-103647619D01*
X242123809Y-103742857D01*
X242123809Y-103885714D01*
X242171428Y-103980952D01*
X242219047Y-104028571D01*
X242314285Y-104076190D01*
X242695238Y-104076190D01*
X241742857Y-104266666D02*
X241266666Y-104266666D01*
X241838095Y-104552380D02*
X241504761Y-103552380D01*
X241171428Y-104552380D01*
X240885714Y-104504761D02*
X240742857Y-104552380D01*
X240504761Y-104552380D01*
X240409523Y-104504761D01*
X240361904Y-104457142D01*
X240314285Y-104361904D01*
X240314285Y-104266666D01*
X240361904Y-104171428D01*
X240409523Y-104123809D01*
X240504761Y-104076190D01*
X240695238Y-104028571D01*
X240790476Y-103980952D01*
X240838095Y-103933333D01*
X240885714Y-103838095D01*
X240885714Y-103742857D01*
X240838095Y-103647619D01*
X240790476Y-103600000D01*
X240695238Y-103552380D01*
X240457142Y-103552380D01*
X240314285Y-103600000D01*
X239314285Y-104457142D02*
X239361904Y-104504761D01*
X239504761Y-104552380D01*
X239600000Y-104552380D01*
X239742857Y-104504761D01*
X239838095Y-104409523D01*
X239885714Y-104314285D01*
X239933333Y-104123809D01*
X239933333Y-103980952D01*
X239885714Y-103790476D01*
X239838095Y-103695238D01*
X239742857Y-103600000D01*
X239600000Y-103552380D01*
X239504761Y-103552380D01*
X239361904Y-103600000D01*
X239314285Y-103647619D01*
X238933333Y-104504761D02*
X238790476Y-104552380D01*
X238552380Y-104552380D01*
X238457142Y-104504761D01*
X238409523Y-104457142D01*
X238361904Y-104361904D01*
X238361904Y-104266666D01*
X238409523Y-104171428D01*
X238457142Y-104123809D01*
X238552380Y-104076190D01*
X238742857Y-104028571D01*
X238838095Y-103980952D01*
X238885714Y-103933333D01*
X238933333Y-103838095D01*
X238933333Y-103742857D01*
X238885714Y-103647619D01*
X238838095Y-103600000D01*
X238742857Y-103552380D01*
X238504761Y-103552380D01*
X238361904Y-103600000D01*
X237933333Y-104552380D02*
X237933333Y-103552380D01*
D11*
X244816666Y-120450000D02*
X244716666Y-120483333D01*
X244683333Y-120516666D01*
X244650000Y-120583333D01*
X244650000Y-120683333D01*
X244683333Y-120750000D01*
X244716666Y-120783333D01*
X244783333Y-120816666D01*
X245050000Y-120816666D01*
X245050000Y-120116666D01*
X244816666Y-120116666D01*
X244750000Y-120150000D01*
X244716666Y-120183333D01*
X244683333Y-120250000D01*
X244683333Y-120316666D01*
X244716666Y-120383333D01*
X244750000Y-120416666D01*
X244816666Y-120450000D01*
X245050000Y-120450000D01*
X244450000Y-120116666D02*
X244050000Y-120116666D01*
X244250000Y-120816666D02*
X244250000Y-120116666D01*
X243816666Y-120816666D02*
X243816666Y-120116666D01*
X243416666Y-120816666D01*
X243416666Y-120116666D01*
X243150000Y-120116666D02*
X242716666Y-120116666D01*
X242950000Y-120383333D01*
X242850000Y-120383333D01*
X242783333Y-120416666D01*
X242750000Y-120450000D01*
X242716666Y-120516666D01*
X242716666Y-120683333D01*
X242750000Y-120750000D01*
X242783333Y-120783333D01*
X242850000Y-120816666D01*
X243050000Y-120816666D01*
X243116666Y-120783333D01*
X243150000Y-120750000D01*
X249883333Y-120916666D02*
X250216666Y-120916666D01*
X250216666Y-120216666D01*
X249650000Y-120550000D02*
X249416666Y-120550000D01*
X249316666Y-120916666D02*
X249650000Y-120916666D01*
X249650000Y-120216666D01*
X249316666Y-120216666D01*
X249016666Y-120916666D02*
X249016666Y-120216666D01*
X248850000Y-120216666D01*
X248750000Y-120250000D01*
X248683333Y-120316666D01*
X248650000Y-120383333D01*
X248616666Y-120516666D01*
X248616666Y-120616666D01*
X248650000Y-120750000D01*
X248683333Y-120816666D01*
X248750000Y-120883333D01*
X248850000Y-120916666D01*
X249016666Y-120916666D01*
X247950000Y-120916666D02*
X248350000Y-120916666D01*
X248150000Y-120916666D02*
X248150000Y-120216666D01*
X248216666Y-120316666D01*
X248283333Y-120383333D01*
X248350000Y-120416666D01*
X217406166Y-120861500D02*
X217406166Y-121194833D01*
X217606166Y-120794833D02*
X216906166Y-121028166D01*
X217606166Y-121261500D01*
X216972833Y-121461500D02*
X216939500Y-121494833D01*
X216906166Y-121561500D01*
X216906166Y-121728166D01*
X216939500Y-121794833D01*
X216972833Y-121828166D01*
X217039500Y-121861500D01*
X217106166Y-121861500D01*
X217206166Y-121828166D01*
X217606166Y-121428166D01*
X217606166Y-121861500D01*
X211183166Y-120861500D02*
X211183166Y-121194833D01*
X211383166Y-120794833D02*
X210683166Y-121028166D01*
X211383166Y-121261500D01*
X210683166Y-121628166D02*
X210683166Y-121694833D01*
X210716500Y-121761500D01*
X210749833Y-121794833D01*
X210816500Y-121828166D01*
X210949833Y-121861500D01*
X211116500Y-121861500D01*
X211249833Y-121828166D01*
X211316500Y-121794833D01*
X211349833Y-121761500D01*
X211383166Y-121694833D01*
X211383166Y-121628166D01*
X211349833Y-121561500D01*
X211316500Y-121528166D01*
X211249833Y-121494833D01*
X211116500Y-121461500D01*
X210949833Y-121461500D01*
X210816500Y-121494833D01*
X210749833Y-121528166D01*
X210716500Y-121561500D01*
X210683166Y-121628166D01*
X220366666Y-103161904D02*
X220100000Y-103961904D01*
X219833333Y-103161904D01*
X219109523Y-103885714D02*
X219147619Y-103923809D01*
X219261904Y-103961904D01*
X219338095Y-103961904D01*
X219452380Y-103923809D01*
X219528571Y-103847619D01*
X219566666Y-103771428D01*
X219604761Y-103619047D01*
X219604761Y-103504761D01*
X219566666Y-103352380D01*
X219528571Y-103276190D01*
X219452380Y-103200000D01*
X219338095Y-103161904D01*
X219261904Y-103161904D01*
X219147619Y-103200000D01*
X219109523Y-103238095D01*
X218309523Y-103885714D02*
X218347619Y-103923809D01*
X218461904Y-103961904D01*
X218538095Y-103961904D01*
X218652380Y-103923809D01*
X218728571Y-103847619D01*
X218766666Y-103771428D01*
X218804761Y-103619047D01*
X218804761Y-103504761D01*
X218766666Y-103352380D01*
X218728571Y-103276190D01*
X218652380Y-103200000D01*
X218538095Y-103161904D01*
X218461904Y-103161904D01*
X218347619Y-103200000D01*
X218309523Y-103238095D01*
X222752380Y-103923809D02*
X222638095Y-103961904D01*
X222447619Y-103961904D01*
X222371428Y-103923809D01*
X222333333Y-103885714D01*
X222295238Y-103809523D01*
X222295238Y-103733333D01*
X222333333Y-103657142D01*
X222371428Y-103619047D01*
X222447619Y-103580952D01*
X222600000Y-103542857D01*
X222676190Y-103504761D01*
X222714285Y-103466666D01*
X222752380Y-103390476D01*
X222752380Y-103314285D01*
X222714285Y-103238095D01*
X222676190Y-103200000D01*
X222600000Y-103161904D01*
X222409523Y-103161904D01*
X222295238Y-103200000D01*
X221495238Y-103885714D02*
X221533333Y-103923809D01*
X221647619Y-103961904D01*
X221723809Y-103961904D01*
X221838095Y-103923809D01*
X221914285Y-103847619D01*
X221952380Y-103771428D01*
X221990476Y-103619047D01*
X221990476Y-103504761D01*
X221952380Y-103352380D01*
X221914285Y-103276190D01*
X221838095Y-103200000D01*
X221723809Y-103161904D01*
X221647619Y-103161904D01*
X221533333Y-103200000D01*
X221495238Y-103238095D01*
X220771428Y-103961904D02*
X221152380Y-103961904D01*
X221152380Y-103161904D01*
X225371428Y-103923809D02*
X225257142Y-103961904D01*
X225066666Y-103961904D01*
X224990476Y-103923809D01*
X224952380Y-103885714D01*
X224914285Y-103809523D01*
X224914285Y-103733333D01*
X224952380Y-103657142D01*
X224990476Y-103619047D01*
X225066666Y-103580952D01*
X225219047Y-103542857D01*
X225295238Y-103504761D01*
X225333333Y-103466666D01*
X225371428Y-103390476D01*
X225371428Y-103314285D01*
X225333333Y-103238095D01*
X225295238Y-103200000D01*
X225219047Y-103161904D01*
X225028571Y-103161904D01*
X224914285Y-103200000D01*
X224571428Y-103961904D02*
X224571428Y-103161904D01*
X224380952Y-103161904D01*
X224266666Y-103200000D01*
X224190476Y-103276190D01*
X224152380Y-103352380D01*
X224114285Y-103504761D01*
X224114285Y-103619047D01*
X224152380Y-103771428D01*
X224190476Y-103847619D01*
X224266666Y-103923809D01*
X224380952Y-103961904D01*
X224571428Y-103961904D01*
X223809523Y-103733333D02*
X223428571Y-103733333D01*
X223885714Y-103961904D02*
X223619047Y-103161904D01*
X223352380Y-103961904D01*
X217409523Y-103200000D02*
X217485714Y-103161904D01*
X217600000Y-103161904D01*
X217714285Y-103200000D01*
X217790476Y-103276190D01*
X217828571Y-103352380D01*
X217866666Y-103504761D01*
X217866666Y-103619047D01*
X217828571Y-103771428D01*
X217790476Y-103847619D01*
X217714285Y-103923809D01*
X217600000Y-103961904D01*
X217523809Y-103961904D01*
X217409523Y-103923809D01*
X217371428Y-103885714D01*
X217371428Y-103619047D01*
X217523809Y-103619047D01*
X217028571Y-103961904D02*
X217028571Y-103161904D01*
X216571428Y-103961904D01*
X216571428Y-103161904D01*
X216190476Y-103961904D02*
X216190476Y-103161904D01*
X216000000Y-103161904D01*
X215885714Y-103200000D01*
X215809523Y-103276190D01*
X215771428Y-103352380D01*
X215733333Y-103504761D01*
X215733333Y-103619047D01*
X215771428Y-103771428D01*
X215809523Y-103847619D01*
X215885714Y-103923809D01*
X216000000Y-103961904D01*
X216190476Y-103961904D01*
D10*
X206538095Y-100152380D02*
X206538095Y-99152380D01*
X206157142Y-99152380D01*
X206061904Y-99200000D01*
X206014285Y-99247619D01*
X205966666Y-99342857D01*
X205966666Y-99485714D01*
X206014285Y-99580952D01*
X206061904Y-99628571D01*
X206157142Y-99676190D01*
X206538095Y-99676190D01*
X205014285Y-100152380D02*
X205585714Y-100152380D01*
X205300000Y-100152380D02*
X205300000Y-99152380D01*
X205395238Y-99295238D01*
X205490476Y-99390476D01*
X205585714Y-99438095D01*
D11*
X209561904Y-104785714D02*
X209180952Y-104519047D01*
X209561904Y-104328571D02*
X208761904Y-104328571D01*
X208761904Y-104633333D01*
X208800000Y-104709523D01*
X208838095Y-104747619D01*
X208914285Y-104785714D01*
X209028571Y-104785714D01*
X209104761Y-104747619D01*
X209142857Y-104709523D01*
X209180952Y-104633333D01*
X209180952Y-104328571D01*
X209561904Y-105547619D02*
X209561904Y-105090476D01*
X209561904Y-105319047D02*
X208761904Y-105319047D01*
X208876190Y-105242857D01*
X208952380Y-105166666D01*
X208990476Y-105090476D01*
X208761904Y-106042857D02*
X208761904Y-106119047D01*
X208800000Y-106195238D01*
X208838095Y-106233333D01*
X208914285Y-106271428D01*
X209066666Y-106309523D01*
X209257142Y-106309523D01*
X209409523Y-106271428D01*
X209485714Y-106233333D01*
X209523809Y-106195238D01*
X209561904Y-106119047D01*
X209561904Y-106042857D01*
X209523809Y-105966666D01*
X209485714Y-105928571D01*
X209409523Y-105890476D01*
X209257142Y-105852380D01*
X209066666Y-105852380D01*
X208914285Y-105890476D01*
X208838095Y-105928571D01*
X208800000Y-105966666D01*
X208761904Y-106042857D01*
X220216666Y-109116666D02*
X220450000Y-108783333D01*
X220616666Y-109116666D02*
X220616666Y-108416666D01*
X220350000Y-108416666D01*
X220283333Y-108450000D01*
X220250000Y-108483333D01*
X220216666Y-108550000D01*
X220216666Y-108650000D01*
X220250000Y-108716666D01*
X220283333Y-108750000D01*
X220350000Y-108783333D01*
X220616666Y-108783333D01*
X219983333Y-108416666D02*
X219550000Y-108416666D01*
X219783333Y-108683333D01*
X219683333Y-108683333D01*
X219616666Y-108716666D01*
X219583333Y-108750000D01*
X219550000Y-108816666D01*
X219550000Y-108983333D01*
X219583333Y-109050000D01*
X219616666Y-109083333D01*
X219683333Y-109116666D01*
X219883333Y-109116666D01*
X219950000Y-109083333D01*
X219983333Y-109050000D01*
X222116666Y-109116666D02*
X222350000Y-108783333D01*
X222516666Y-109116666D02*
X222516666Y-108416666D01*
X222250000Y-108416666D01*
X222183333Y-108450000D01*
X222150000Y-108483333D01*
X222116666Y-108550000D01*
X222116666Y-108650000D01*
X222150000Y-108716666D01*
X222183333Y-108750000D01*
X222250000Y-108783333D01*
X222516666Y-108783333D01*
X221516666Y-108650000D02*
X221516666Y-109116666D01*
X221683333Y-108383333D02*
X221850000Y-108883333D01*
X221416666Y-108883333D01*
D10*
X220961880Y-116813333D02*
X220485690Y-116480000D01*
X220961880Y-116241904D02*
X219961880Y-116241904D01*
X219961880Y-116622857D01*
X220009500Y-116718095D01*
X220057119Y-116765714D01*
X220152357Y-116813333D01*
X220295214Y-116813333D01*
X220390452Y-116765714D01*
X220438071Y-116718095D01*
X220485690Y-116622857D01*
X220485690Y-116241904D01*
X219961880Y-117146666D02*
X219961880Y-117813333D01*
X220961880Y-117384761D01*
X217802380Y-116813333D02*
X217326190Y-116480000D01*
X217802380Y-116241904D02*
X216802380Y-116241904D01*
X216802380Y-116622857D01*
X216850000Y-116718095D01*
X216897619Y-116765714D01*
X216992857Y-116813333D01*
X217135714Y-116813333D01*
X217230952Y-116765714D01*
X217278571Y-116718095D01*
X217326190Y-116622857D01*
X217326190Y-116241904D01*
X217230952Y-117384761D02*
X217183333Y-117289523D01*
X217135714Y-117241904D01*
X217040476Y-117194285D01*
X216992857Y-117194285D01*
X216897619Y-117241904D01*
X216850000Y-117289523D01*
X216802380Y-117384761D01*
X216802380Y-117575238D01*
X216850000Y-117670476D01*
X216897619Y-117718095D01*
X216992857Y-117765714D01*
X217040476Y-117765714D01*
X217135714Y-117718095D01*
X217183333Y-117670476D01*
X217230952Y-117575238D01*
X217230952Y-117384761D01*
X217278571Y-117289523D01*
X217326190Y-117241904D01*
X217421428Y-117194285D01*
X217611904Y-117194285D01*
X217707142Y-117241904D01*
X217754761Y-117289523D01*
X217802380Y-117384761D01*
X217802380Y-117575238D01*
X217754761Y-117670476D01*
X217707142Y-117718095D01*
X217611904Y-117765714D01*
X217421428Y-117765714D01*
X217326190Y-117718095D01*
X217278571Y-117670476D01*
X217230952Y-117575238D01*
X214675380Y-116813333D02*
X214199190Y-116480000D01*
X214675380Y-116241904D02*
X213675380Y-116241904D01*
X213675380Y-116622857D01*
X213723000Y-116718095D01*
X213770619Y-116765714D01*
X213865857Y-116813333D01*
X214008714Y-116813333D01*
X214103952Y-116765714D01*
X214151571Y-116718095D01*
X214199190Y-116622857D01*
X214199190Y-116241904D01*
X214675380Y-117289523D02*
X214675380Y-117480000D01*
X214627761Y-117575238D01*
X214580142Y-117622857D01*
X214437285Y-117718095D01*
X214246809Y-117765714D01*
X213865857Y-117765714D01*
X213770619Y-117718095D01*
X213723000Y-117670476D01*
X213675380Y-117575238D01*
X213675380Y-117384761D01*
X213723000Y-117289523D01*
X213770619Y-117241904D01*
X213865857Y-117194285D01*
X214103952Y-117194285D01*
X214199190Y-117241904D01*
X214246809Y-117289523D01*
X214294428Y-117384761D01*
X214294428Y-117575238D01*
X214246809Y-117670476D01*
X214199190Y-117718095D01*
X214103952Y-117765714D01*
X215952380Y-110738095D02*
X216761904Y-110738095D01*
X216857142Y-110785714D01*
X216904761Y-110833333D01*
X216952380Y-110928571D01*
X216952380Y-111119047D01*
X216904761Y-111214285D01*
X216857142Y-111261904D01*
X216761904Y-111309523D01*
X215952380Y-111309523D01*
X216952380Y-112309523D02*
X216952380Y-111738095D01*
X216952380Y-112023809D02*
X215952380Y-112023809D01*
X216095238Y-111928571D01*
X216190476Y-111833333D01*
X216238095Y-111738095D01*
D11*
X223616666Y-118550000D02*
X223283333Y-118316666D01*
X223616666Y-118150000D02*
X222916666Y-118150000D01*
X222916666Y-118416666D01*
X222950000Y-118483333D01*
X222983333Y-118516666D01*
X223050000Y-118550000D01*
X223150000Y-118550000D01*
X223216666Y-118516666D01*
X223250000Y-118483333D01*
X223283333Y-118416666D01*
X223283333Y-118150000D01*
X223616666Y-119216666D02*
X223616666Y-118816666D01*
X223616666Y-119016666D02*
X222916666Y-119016666D01*
X223016666Y-118950000D01*
X223083333Y-118883333D01*
X223116666Y-118816666D01*
X222983333Y-119483333D02*
X222950000Y-119516666D01*
X222916666Y-119583333D01*
X222916666Y-119750000D01*
X222950000Y-119816666D01*
X222983333Y-119850000D01*
X223050000Y-119883333D01*
X223116666Y-119883333D01*
X223216666Y-119850000D01*
X223616666Y-119450000D01*
X223616666Y-119883333D01*
X225716666Y-118450000D02*
X225383333Y-118216666D01*
X225716666Y-118050000D02*
X225016666Y-118050000D01*
X225016666Y-118316666D01*
X225050000Y-118383333D01*
X225083333Y-118416666D01*
X225150000Y-118450000D01*
X225250000Y-118450000D01*
X225316666Y-118416666D01*
X225350000Y-118383333D01*
X225383333Y-118316666D01*
X225383333Y-118050000D01*
X225716666Y-119116666D02*
X225716666Y-118716666D01*
X225716666Y-118916666D02*
X225016666Y-118916666D01*
X225116666Y-118850000D01*
X225183333Y-118783333D01*
X225216666Y-118716666D01*
X225016666Y-119350000D02*
X225016666Y-119783333D01*
X225283333Y-119550000D01*
X225283333Y-119650000D01*
X225316666Y-119716666D01*
X225350000Y-119750000D01*
X225416666Y-119783333D01*
X225583333Y-119783333D01*
X225650000Y-119750000D01*
X225683333Y-119716666D01*
X225716666Y-119650000D01*
X225716666Y-119450000D01*
X225683333Y-119383333D01*
X225650000Y-119350000D01*
X209661904Y-107285714D02*
X209280952Y-107019047D01*
X209661904Y-106828571D02*
X208861904Y-106828571D01*
X208861904Y-107133333D01*
X208900000Y-107209523D01*
X208938095Y-107247619D01*
X209014285Y-107285714D01*
X209128571Y-107285714D01*
X209204761Y-107247619D01*
X209242857Y-107209523D01*
X209280952Y-107133333D01*
X209280952Y-106828571D01*
X209661904Y-108047619D02*
X209661904Y-107590476D01*
X209661904Y-107819047D02*
X208861904Y-107819047D01*
X208976190Y-107742857D01*
X209052380Y-107666666D01*
X209090476Y-107590476D01*
X209661904Y-108809523D02*
X209661904Y-108352380D01*
X209661904Y-108580952D02*
X208861904Y-108580952D01*
X208976190Y-108504761D01*
X209052380Y-108428571D01*
X209090476Y-108352380D01*
X216916000Y-105320333D02*
X216949333Y-105287000D01*
X216982666Y-105187000D01*
X216982666Y-105120333D01*
X216949333Y-105020333D01*
X216882666Y-104953666D01*
X216816000Y-104920333D01*
X216682666Y-104887000D01*
X216582666Y-104887000D01*
X216449333Y-104920333D01*
X216382666Y-104953666D01*
X216316000Y-105020333D01*
X216282666Y-105120333D01*
X216282666Y-105187000D01*
X216316000Y-105287000D01*
X216349333Y-105320333D01*
X216982666Y-105987000D02*
X216982666Y-105587000D01*
X216982666Y-105787000D02*
X216282666Y-105787000D01*
X216382666Y-105720333D01*
X216449333Y-105653666D01*
X216482666Y-105587000D01*
X226216666Y-109116666D02*
X226450000Y-108783333D01*
X226616666Y-109116666D02*
X226616666Y-108416666D01*
X226350000Y-108416666D01*
X226283333Y-108450000D01*
X226250000Y-108483333D01*
X226216666Y-108550000D01*
X226216666Y-108650000D01*
X226250000Y-108716666D01*
X226283333Y-108750000D01*
X226350000Y-108783333D01*
X226616666Y-108783333D01*
X225616666Y-108416666D02*
X225750000Y-108416666D01*
X225816666Y-108450000D01*
X225850000Y-108483333D01*
X225916666Y-108583333D01*
X225950000Y-108716666D01*
X225950000Y-108983333D01*
X225916666Y-109050000D01*
X225883333Y-109083333D01*
X225816666Y-109116666D01*
X225683333Y-109116666D01*
X225616666Y-109083333D01*
X225583333Y-109050000D01*
X225550000Y-108983333D01*
X225550000Y-108816666D01*
X225583333Y-108750000D01*
X225616666Y-108716666D01*
X225683333Y-108683333D01*
X225816666Y-108683333D01*
X225883333Y-108716666D01*
X225916666Y-108750000D01*
X225950000Y-108816666D01*
X230316666Y-109116666D02*
X230550000Y-108783333D01*
X230716666Y-109116666D02*
X230716666Y-108416666D01*
X230450000Y-108416666D01*
X230383333Y-108450000D01*
X230350000Y-108483333D01*
X230316666Y-108550000D01*
X230316666Y-108650000D01*
X230350000Y-108716666D01*
X230383333Y-108750000D01*
X230450000Y-108783333D01*
X230716666Y-108783333D01*
X229650000Y-109116666D02*
X230050000Y-109116666D01*
X229850000Y-109116666D02*
X229850000Y-108416666D01*
X229916666Y-108516666D01*
X229983333Y-108583333D01*
X230050000Y-108616666D01*
X228316666Y-109116666D02*
X228550000Y-108783333D01*
X228716666Y-109116666D02*
X228716666Y-108416666D01*
X228450000Y-108416666D01*
X228383333Y-108450000D01*
X228350000Y-108483333D01*
X228316666Y-108550000D01*
X228316666Y-108650000D01*
X228350000Y-108716666D01*
X228383333Y-108750000D01*
X228450000Y-108783333D01*
X228716666Y-108783333D01*
X228050000Y-108483333D02*
X228016666Y-108450000D01*
X227950000Y-108416666D01*
X227783333Y-108416666D01*
X227716666Y-108450000D01*
X227683333Y-108483333D01*
X227650000Y-108550000D01*
X227650000Y-108616666D01*
X227683333Y-108716666D01*
X228083333Y-109116666D01*
X227650000Y-109116666D01*
D10*
X203833333Y-117052380D02*
X203833333Y-117766666D01*
X203880952Y-117909523D01*
X203976190Y-118004761D01*
X204119047Y-118052380D01*
X204214285Y-118052380D01*
X202833333Y-118052380D02*
X203404761Y-118052380D01*
X203119047Y-118052380D02*
X203119047Y-117052380D01*
X203214285Y-117195238D01*
X203309523Y-117290476D01*
X203404761Y-117338095D01*
D13*
X209640000Y-100100000D02*
X257960000Y-100100000D01*
X257960000Y-94900000D02*
X257960000Y-100100000D01*
X207040000Y-100100000D02*
X208370000Y-100100000D01*
X209640000Y-97500000D02*
X209640000Y-100100000D01*
X207040000Y-98770000D02*
X207040000Y-100100000D01*
X207040000Y-97500000D02*
X209640000Y-97500000D01*
X207040000Y-94900000D02*
X257960000Y-94900000D01*
X207040000Y-94900000D02*
X207040000Y-97500000D01*
X206872936Y-104765000D02*
X207327064Y-104765000D01*
X206872936Y-106235000D02*
X207327064Y-106235000D01*
X217359500Y-122671000D02*
X217359500Y-122071000D01*
X217859500Y-119771000D02*
X217859500Y-122571000D01*
X217659500Y-122371000D02*
X217359500Y-122671000D01*
X217659500Y-122371000D02*
X217359500Y-122071000D01*
X219159500Y-119121000D02*
X218559500Y-119121000D01*
X218559500Y-123221000D02*
X219159500Y-123221000D01*
X219859500Y-122571000D02*
X219859500Y-119771000D01*
X219159500Y-123221000D02*
G75*
G03*
X219859500Y-122521000I1J699999D01*
G01*
X217859500Y-122521000D02*
G75*
G03*
X218559500Y-123221000I699999J-1D01*
G01*
X219859500Y-119821000D02*
G75*
G03*
X219159500Y-119121000I-699999J1D01*
G01*
X218559500Y-119121000D02*
G75*
G03*
X217859500Y-119821000I-1J-699999D01*
G01*
X214716250Y-119771000D02*
X214716250Y-122571000D01*
X214216250Y-122671000D02*
X214216250Y-122071000D01*
X216016250Y-119121000D02*
X215416250Y-119121000D01*
X216716250Y-122571000D02*
X216716250Y-119771000D01*
X215416250Y-123221000D02*
X216016250Y-123221000D01*
X214516250Y-122371000D02*
X214216250Y-122071000D01*
X214516250Y-122371000D02*
X214216250Y-122671000D01*
X216016250Y-123221000D02*
G75*
G03*
X216716250Y-122521000I1J699999D01*
G01*
X216716250Y-119821000D02*
G75*
G03*
X216016250Y-119121000I-699999J1D01*
G01*
X214716250Y-122521000D02*
G75*
G03*
X215416250Y-123221000I699999J-1D01*
G01*
X215416250Y-119121000D02*
G75*
G03*
X214716250Y-119821000I-1J-699999D01*
G01*
X211373000Y-122371000D02*
X211073000Y-122671000D01*
X212273000Y-123221000D02*
X212873000Y-123221000D01*
X213573000Y-122571000D02*
X213573000Y-119771000D01*
X211573000Y-119771000D02*
X211573000Y-122571000D01*
X211073000Y-122671000D02*
X211073000Y-122071000D01*
X211373000Y-122371000D02*
X211073000Y-122071000D01*
X212873000Y-119121000D02*
X212273000Y-119121000D01*
X212273000Y-119121000D02*
G75*
G03*
X211573000Y-119821000I-1J-699999D01*
G01*
X213573000Y-119821000D02*
G75*
G03*
X212873000Y-119121000I-699999J1D01*
G01*
X211573000Y-122521000D02*
G75*
G03*
X212273000Y-123221000I699999J-1D01*
G01*
X212873000Y-123221000D02*
G75*
G03*
X213573000Y-122521000I1J699999D01*
G01*
X219303083Y-106465936D02*
X219303083Y-106920064D01*
X220773083Y-106465936D02*
X220773083Y-106920064D01*
X222805466Y-106465936D02*
X222805466Y-106920064D01*
X221335466Y-106465936D02*
X221335466Y-106920064D01*
X218124500Y-117207064D02*
X218124500Y-116752936D01*
X219594500Y-117207064D02*
X219594500Y-116752936D01*
X216435000Y-117207064D02*
X216435000Y-116752936D01*
X214965000Y-117207064D02*
X214965000Y-116752936D01*
X213308000Y-117207064D02*
X213308000Y-116752936D01*
X211838000Y-117207064D02*
X211838000Y-116752936D01*
X215735000Y-110000000D02*
X215735000Y-113600000D01*
X210265000Y-110000000D02*
X210265000Y-107800000D01*
X215735000Y-110000000D02*
X215735000Y-107800000D01*
X210265000Y-110000000D02*
X210265000Y-112200000D01*
X224035000Y-122027064D02*
X224035000Y-121572936D01*
X222565000Y-122027064D02*
X222565000Y-121572936D01*
X224539084Y-122027064D02*
X224539084Y-121572936D01*
X226009084Y-122027064D02*
X226009084Y-121572936D01*
X207327064Y-108235000D02*
X206872936Y-108235000D01*
X207327064Y-106765000D02*
X206872936Y-106765000D01*
X215965000Y-107888748D02*
X215965000Y-108411252D01*
X217435000Y-107888748D02*
X217435000Y-108411252D01*
X226870232Y-106465936D02*
X226870232Y-106920064D01*
X225400232Y-106465936D02*
X225400232Y-106920064D01*
X229465000Y-106465936D02*
X229465000Y-106920064D01*
X230935000Y-106465936D02*
X230935000Y-106920064D01*
X228902615Y-106465936D02*
X228902615Y-106920064D01*
X227432615Y-106465936D02*
X227432615Y-106920064D01*
X204830000Y-114000000D02*
X204830000Y-103780000D01*
X202170000Y-114000000D02*
X202170000Y-103780000D01*
X202170000Y-114000000D02*
X204830000Y-114000000D01*
X202170000Y-115270000D02*
X202170000Y-116600000D01*
X202170000Y-103780000D02*
X204830000Y-103780000D01*
X202170000Y-116600000D02*
X203500000Y-116600000D01*
%LPC*%
D14*
X203500000Y-97500000D03*
X261500000Y-97500000D03*
X203500000Y-120500000D03*
X261500000Y-120500000D03*
D15*
X246500000Y-101800000D03*
X240000000Y-101800000D03*
X240000000Y-106300000D03*
X246500000Y-106300000D03*
X240000000Y-117700000D03*
X246500000Y-117700000D03*
X246500000Y-113200000D03*
X240000000Y-113200000D03*
D16*
X216690000Y-102000000D03*
D17*
X219230000Y-102000000D03*
X221770000Y-102000000D03*
X224310000Y-102000000D03*
D18*
X232250000Y-125200000D03*
D19*
X205300000Y-102500000D03*
D18*
X208750000Y-102500000D03*
X208750000Y-125200000D03*
D19*
X235700000Y-102500000D03*
D18*
X232250000Y-102500000D03*
D16*
X243950000Y-122200000D03*
D17*
X246490000Y-122200000D03*
X249030000Y-122200000D03*
X251570000Y-122200000D03*
X254110000Y-122200000D03*
X256650000Y-122200000D03*
D20*
X255400000Y-116300000D03*
D15*
X260400000Y-116300000D03*
X257900000Y-116300000D03*
D21*
X263500000Y-108800000D03*
X252300000Y-108800000D03*
D15*
X260400000Y-101800000D03*
X255400000Y-101800000D03*
D16*
X208370000Y-98770000D03*
D17*
X208370000Y-96230000D03*
X210910000Y-98770000D03*
X210910000Y-96230000D03*
X213450000Y-98770000D03*
X213450000Y-96230000D03*
X215990000Y-98770000D03*
X215990000Y-96230000D03*
X218530000Y-98770000D03*
X218530000Y-96230000D03*
X221070000Y-98770000D03*
X221070000Y-96230000D03*
X223610000Y-98770000D03*
X223610000Y-96230000D03*
X226150000Y-98770000D03*
X226150000Y-96230000D03*
X228690000Y-98770000D03*
X228690000Y-96230000D03*
X231230000Y-98770000D03*
X231230000Y-96230000D03*
X233770000Y-98770000D03*
X233770000Y-96230000D03*
X236310000Y-98770000D03*
X236310000Y-96230000D03*
X238850000Y-98770000D03*
X238850000Y-96230000D03*
X241390000Y-98770000D03*
X241390000Y-96230000D03*
X243930000Y-98770000D03*
X243930000Y-96230000D03*
X246470000Y-98770000D03*
X246470000Y-96230000D03*
X249010000Y-98770000D03*
X249010000Y-96230000D03*
X251550000Y-98770000D03*
X251550000Y-96230000D03*
X254090000Y-98770000D03*
X254090000Y-96230000D03*
X256630000Y-98770000D03*
X256630000Y-96230000D03*
D22*
X206187500Y-105500000D03*
X208012500Y-105500000D03*
D23*
X218859500Y-122471000D03*
D24*
X218859500Y-121171000D03*
D25*
X218859500Y-119871000D03*
D23*
X215716250Y-122471000D03*
D24*
X215716250Y-121171000D03*
D25*
X215716250Y-119871000D03*
D23*
X212573000Y-122471000D03*
D24*
X212573000Y-121171000D03*
D25*
X212573000Y-119871000D03*
D26*
X220038083Y-105780500D03*
X220038083Y-107605500D03*
X222070466Y-105780500D03*
X222070466Y-107605500D03*
D27*
X218859500Y-117892500D03*
X218859500Y-116067500D03*
X215700000Y-117892500D03*
X215700000Y-116067500D03*
X212573000Y-117892500D03*
X212573000Y-116067500D03*
D28*
X215275000Y-112862500D03*
X214625000Y-112862500D03*
X213975000Y-112862500D03*
X213325000Y-112862500D03*
X212675000Y-112862500D03*
X212025000Y-112862500D03*
X211375000Y-112862500D03*
X210725000Y-112862500D03*
X210725000Y-107137500D03*
X211375000Y-107137500D03*
X212025000Y-107137500D03*
X212675000Y-107137500D03*
X213325000Y-107137500D03*
X213975000Y-107137500D03*
X214625000Y-107137500D03*
X215275000Y-107137500D03*
D27*
X223300000Y-122712500D03*
X223300000Y-120887500D03*
X225274084Y-122712500D03*
X225274084Y-120887500D03*
D29*
X208012500Y-107500000D03*
X206187500Y-107500000D03*
D30*
X216700000Y-107200000D03*
X216700000Y-109100000D03*
D26*
X226135232Y-105780500D03*
X226135232Y-107605500D03*
X230200000Y-105780500D03*
X230200000Y-107605500D03*
X228167615Y-105780500D03*
X228167615Y-107605500D03*
D16*
X203500000Y-115270000D03*
D17*
X203500000Y-112730000D03*
X203500000Y-110190000D03*
X203500000Y-107650000D03*
X203500000Y-105110000D03*
M02*
