M48
; DRILL file {KiCad (5.1.12)-1} date 12/15/21 14:49:18
; FORMAT={-:-/ absolute / metric / decimal}
; #@! TF.CreationDate,2021-12-15T14:49:18-06:00
; #@! TF.GenerationSoftware,Kicad,Pcbnew,(5.1.12)-1
; #@! TF.FileFunction,Plated,1,2,PTH
FMAT,2
METRIC
T1C0.250
T2C1.000
T3C1.100
T4C1.500
T5C2.000
%
G90
G05
T1
X210.374Y-108.344
X210.7Y-111.4
X210.753Y-110.155
X211.083Y-99.874
X211.44Y-108.798
X211.7Y-110.8
X212.119Y-100.909
X212.55Y-108.612
X213.11Y-110.912
X213.2Y-100.8
X213.3Y-104.1
X214.3Y-100.1
X215.1Y-109.7
X215.413Y-110.326
X217.3Y-117.7
X217.3Y-120.5
X218.8Y-106.7
X221.4Y-108.3
X223.4Y-119.5
X223.9Y-111.4
X225.75Y-111.95
X226.6Y-120.1
X228.174Y-110.326
X230.2Y-109.7
X233.3Y-111.4
X233.3Y-104.0
X234.2Y-107.8
X248.5Y-107.0
X248.85Y-111.95
X254.2Y-107.8
X261.7Y-117.2
T2
X203.5Y-105.11
X203.5Y-107.65
X203.5Y-110.19
X203.5Y-112.73
X203.5Y-115.27
X208.37Y-96.23
X208.37Y-98.77
X210.91Y-96.23
X210.91Y-98.77
X213.45Y-96.23
X213.45Y-98.77
X215.38Y-102.0
X215.99Y-96.23
X215.99Y-98.77
X217.92Y-102.0
X218.53Y-96.23
X218.53Y-98.77
X220.46Y-102.0
X221.07Y-96.23
X221.07Y-98.77
X223.0Y-102.0
X223.61Y-96.23
X223.61Y-98.77
X226.15Y-96.23
X226.15Y-98.77
X228.69Y-96.23
X228.69Y-98.77
X231.23Y-96.23
X231.23Y-98.77
X233.77Y-96.23
X233.77Y-98.77
X236.31Y-96.23
X236.31Y-98.77
X238.85Y-96.23
X238.85Y-98.77
X241.39Y-96.23
X241.39Y-98.77
X243.93Y-96.23
X243.93Y-98.77
X246.47Y-96.23
X246.47Y-98.77
X249.0Y-102.0
X249.0Y-116.5
X249.01Y-96.23
X249.01Y-98.77
X251.5Y-102.0
X251.55Y-96.23
X251.55Y-98.77
X254.0Y-102.0
X254.0Y-116.5
X254.09Y-96.23
X254.09Y-98.77
X256.63Y-96.23
X256.63Y-98.77
X260.642Y-102.566
X260.642Y-105.105
X260.642Y-107.645
X260.642Y-110.185
X260.642Y-112.725
X260.642Y-115.265
X263.183Y-102.566
X263.183Y-105.105
X263.183Y-107.645
X263.183Y-110.185
X263.183Y-112.725
X263.183Y-115.265
T3
X236.0Y-102.0
X236.0Y-106.5
X236.0Y-110.0
X236.0Y-114.5
X236.0Y-118.0
X236.0Y-122.5
X242.5Y-102.0
X242.5Y-106.5
X242.5Y-110.0
X242.5Y-114.5
X242.5Y-118.0
X242.5Y-122.5
T5
X207.39Y-102.0
X207.39Y-125.2
X230.94Y-102.0
X230.94Y-125.2
T4
X245.9Y-108.85G85X245.9Y-110.15
G05
X257.1Y-108.85G85X257.1Y-110.15
G05
T0
M30
