%TF.GenerationSoftware,KiCad,Pcbnew,(5.1.4)-1*%
%TF.CreationDate,2020-08-22T20:00:45-05:00*%
%TF.ProjectId,daisy_chain_board,64616973-795f-4636-9861-696e5f626f61,rev?*%
%TF.SameCoordinates,PX59d60c0PY325aa00*%
%TF.FileFunction,Copper,L1,Top*%
%TF.FilePolarity,Positive*%
%FSLAX46Y46*%
G04 Gerber Fmt 4.6, Leading zero omitted, Abs format (unit mm)*
G04 Created by KiCad (PCBNEW (5.1.4)-1) date 2020-08-22 20:00:45*
%MOMM*%
%LPD*%
G04 APERTURE LIST*
%TA.AperFunction,NonConductor*%
%ADD10C,0.050000*%
%TD*%
%TA.AperFunction,ComponentPad*%
%ADD11C,4.845000*%
%TD*%
%TA.AperFunction,ComponentPad*%
%ADD12C,1.545000*%
%TD*%
%TA.AperFunction,ComponentPad*%
%ADD13O,1.700000X1.700000*%
%TD*%
%TA.AperFunction,ComponentPad*%
%ADD14R,1.700000X1.700000*%
%TD*%
%TA.AperFunction,ComponentPad*%
%ADD15C,0.800000*%
%TD*%
%TA.AperFunction,ComponentPad*%
%ADD16C,5.400000*%
%TD*%
%TA.AperFunction,ViaPad*%
%ADD17C,0.800000*%
%TD*%
%TA.AperFunction,ViaPad*%
%ADD18C,0.500000*%
%TD*%
%TA.AperFunction,Conductor*%
%ADD19C,0.400000*%
%TD*%
%TA.AperFunction,Conductor*%
%ADD20C,0.200000*%
%TD*%
%TA.AperFunction,Conductor*%
%ADD21C,0.150000*%
%TD*%
%TA.AperFunction,Conductor*%
%ADD22C,0.254000*%
%TD*%
G04 APERTURE END LIST*
D10*
X83800000Y-45696000D02*
X141800000Y-45696000D01*
X83800000Y-45696000D02*
G75*
G02X80300000Y-42196000I0J3500000D01*
G01*
X145300000Y-42196000D02*
G75*
G02X141800000Y-45696000I-3500000J0D01*
G01*
X80300000Y-27998000D02*
X80300000Y-42196000D01*
X145300000Y-27998000D02*
X145300000Y-42196000D01*
X83800000Y-24498000D02*
X141800000Y-24498000D01*
X80300000Y-27998000D02*
G75*
G02X83800000Y-24498000I3500000J0D01*
G01*
X141800000Y-24498000D02*
G75*
G02X145300000Y-27998000I0J-3500000D01*
G01*
D11*
%TO.P,J8,MH2*%
%TO.N,GND*%
X89281600Y-36250000D03*
%TO.P,J8,MH1*%
X136321600Y-36250000D03*
D12*
%TO.P,J8,25*%
%TO.N,TERMPOW*%
X97566600Y-37670000D03*
%TO.P,J8,24*%
%TO.N,GND*%
X100336600Y-37670000D03*
%TO.P,J8,23*%
%TO.N,C-D4*%
X103106600Y-37670000D03*
%TO.P,J8,22*%
%TO.N,C-D2*%
X105876600Y-37670000D03*
%TO.P,J8,21*%
%TO.N,C-D1*%
X108646600Y-37670000D03*
%TO.P,J8,20*%
%TO.N,C-DP*%
X111416600Y-37670000D03*
%TO.P,J8,19*%
%TO.N,C-SEL*%
X114186600Y-37670000D03*
%TO.P,J8,18*%
%TO.N,GND*%
X116956600Y-37670000D03*
%TO.P,J8,17*%
%TO.N,C-ATN*%
X119726600Y-37670000D03*
%TO.P,J8,16*%
%TO.N,GND*%
X122496600Y-37670000D03*
%TO.P,J8,15*%
%TO.N,C-C_D*%
X125266600Y-37670000D03*
%TO.P,J8,14*%
%TO.N,GND*%
X128036600Y-37670000D03*
%TO.P,J8,13*%
%TO.N,C-D7*%
X96181600Y-34830000D03*
%TO.P,J8,12*%
%TO.N,C-D6*%
X98951600Y-34830000D03*
%TO.P,J8,11*%
%TO.N,C-D5*%
X101721600Y-34830000D03*
%TO.P,J8,10*%
%TO.N,C-D3*%
X104491600Y-34830000D03*
%TO.P,J8,9*%
%TO.N,GND*%
X107261600Y-34830000D03*
%TO.P,J8,8*%
%TO.N,C-D0*%
X110031600Y-34830000D03*
%TO.P,J8,7*%
%TO.N,GND*%
X112801600Y-34830000D03*
%TO.P,J8,6*%
%TO.N,C-BSY*%
X115571600Y-34830000D03*
%TO.P,J8,5*%
%TO.N,C-ACK*%
X118341600Y-34830000D03*
%TO.P,J8,4*%
%TO.N,C-RST*%
X121111600Y-34830000D03*
%TO.P,J8,3*%
%TO.N,C-I_O*%
X123881600Y-34830000D03*
%TO.P,J8,2*%
%TO.N,C-MSG*%
X126651600Y-34830000D03*
%TO.P,J8,1*%
%TO.N,C-REQ*%
X129421600Y-34830000D03*
%TD*%
D13*
%TO.P,J7,50*%
%TO.N,C-I_O*%
X143226500Y-27654500D03*
%TO.P,J7,49*%
%TO.N,GND*%
X143226500Y-30194500D03*
%TO.P,J7,48*%
%TO.N,C-REQ*%
X140686500Y-27654500D03*
%TO.P,J7,47*%
%TO.N,GND*%
X140686500Y-30194500D03*
%TO.P,J7,46*%
%TO.N,C-C_D*%
X138146500Y-27654500D03*
%TO.P,J7,45*%
%TO.N,GND*%
X138146500Y-30194500D03*
%TO.P,J7,44*%
%TO.N,C-SEL*%
X135606500Y-27654500D03*
%TO.P,J7,43*%
%TO.N,GND*%
X135606500Y-30194500D03*
%TO.P,J7,42*%
%TO.N,C-MSG*%
X133066500Y-27654500D03*
%TO.P,J7,41*%
%TO.N,GND*%
X133066500Y-30194500D03*
%TO.P,J7,40*%
%TO.N,C-RST*%
X130526500Y-27654500D03*
%TO.P,J7,39*%
%TO.N,GND*%
X130526500Y-30194500D03*
%TO.P,J7,38*%
%TO.N,C-ACK*%
X127986500Y-27654500D03*
%TO.P,J7,37*%
%TO.N,GND*%
X127986500Y-30194500D03*
%TO.P,J7,36*%
%TO.N,C-BSY*%
X125446500Y-27654500D03*
%TO.P,J7,35*%
%TO.N,GND*%
X125446500Y-30194500D03*
%TO.P,J7,34*%
%TO.N,Net-(J7-Pad34)*%
X122906500Y-27654500D03*
%TO.P,J7,33*%
%TO.N,GND*%
X122906500Y-30194500D03*
%TO.P,J7,32*%
%TO.N,C-ATN*%
X120366500Y-27654500D03*
%TO.P,J7,31*%
%TO.N,GND*%
X120366500Y-30194500D03*
%TO.P,J7,30*%
X117826500Y-27654500D03*
%TO.P,J7,29*%
X117826500Y-30194500D03*
%TO.P,J7,28*%
X115286500Y-27654500D03*
%TO.P,J7,27*%
X115286500Y-30194500D03*
%TO.P,J7,26*%
%TO.N,TERMPOW*%
X112746500Y-27654500D03*
%TO.P,J7,25*%
%TO.N,Net-(J7-Pad25)*%
X112746500Y-30194500D03*
%TO.P,J7,24*%
%TO.N,GND*%
X110206500Y-27654500D03*
%TO.P,J7,23*%
X110206500Y-30194500D03*
%TO.P,J7,22*%
X107666500Y-27654500D03*
%TO.P,J7,21*%
X107666500Y-30194500D03*
%TO.P,J7,20*%
X105126500Y-27654500D03*
%TO.P,J7,19*%
X105126500Y-30194500D03*
%TO.P,J7,18*%
%TO.N,C-DP*%
X102586500Y-27654500D03*
%TO.P,J7,17*%
%TO.N,GND*%
X102586500Y-30194500D03*
%TO.P,J7,16*%
%TO.N,C-D7*%
X100046500Y-27654500D03*
%TO.P,J7,15*%
%TO.N,GND*%
X100046500Y-30194500D03*
%TO.P,J7,14*%
%TO.N,C-D6*%
X97506500Y-27654500D03*
%TO.P,J7,13*%
%TO.N,GND*%
X97506500Y-30194500D03*
%TO.P,J7,12*%
%TO.N,C-D5*%
X94966500Y-27654500D03*
%TO.P,J7,11*%
%TO.N,GND*%
X94966500Y-30194500D03*
%TO.P,J7,10*%
%TO.N,C-D4*%
X92426500Y-27654500D03*
%TO.P,J7,9*%
%TO.N,GND*%
X92426500Y-30194500D03*
%TO.P,J7,8*%
%TO.N,C-D3*%
X89886500Y-27654500D03*
%TO.P,J7,7*%
%TO.N,GND*%
X89886500Y-30194500D03*
%TO.P,J7,6*%
%TO.N,C-D2*%
X87346500Y-27654500D03*
%TO.P,J7,5*%
%TO.N,GND*%
X87346500Y-30194500D03*
%TO.P,J7,4*%
%TO.N,C-D1*%
X84806500Y-27654500D03*
%TO.P,J7,3*%
%TO.N,GND*%
X84806500Y-30194500D03*
%TO.P,J7,2*%
%TO.N,C-D0*%
X82266500Y-27654500D03*
D14*
%TO.P,J7,1*%
%TO.N,GND*%
X82266500Y-30194500D03*
%TD*%
D15*
%TO.P,H6,1*%
%TO.N,GND*%
X143231891Y-40768109D03*
X141800000Y-40175000D03*
X140368109Y-40768109D03*
X139775000Y-42200000D03*
X140368109Y-43631891D03*
X141800000Y-44225000D03*
X143231891Y-43631891D03*
X143825000Y-42200000D03*
D16*
X141800000Y-42200000D03*
%TD*%
D15*
%TO.P,H5,1*%
%TO.N,GND*%
X85231891Y-40768109D03*
X83800000Y-40175000D03*
X82368109Y-40768109D03*
X81775000Y-42200000D03*
X82368109Y-43631891D03*
X83800000Y-44225000D03*
X85231891Y-43631891D03*
X85825000Y-42200000D03*
D16*
X83800000Y-42200000D03*
%TD*%
D17*
%TO.N,GND*%
X100364000Y-35719000D03*
D18*
%TO.N,C-REQ*%
X139350000Y-31150000D03*
X130419308Y-32414713D03*
%TO.N,C-MSG*%
X133993502Y-31150000D03*
X128817950Y-31630159D03*
%TO.N,C-BSY*%
X124270000Y-30872990D03*
X117187010Y-31684832D03*
%TO.N,C-SEL*%
X114530000Y-32870000D03*
X135828947Y-32665648D03*
%TO.N,C-RST*%
X121540000Y-31560000D03*
X131560000Y-28920000D03*
%TO.N,C-ACK*%
X126730000Y-32950000D03*
X118812489Y-32689064D03*
%TO.N,C-DP*%
X100860000Y-33850000D03*
X110992489Y-31685265D03*
%TO.N,C-D0*%
X83780000Y-31480000D03*
X110120000Y-31630000D03*
%TO.N,C-D1*%
X86370000Y-31530000D03*
X108350000Y-31680000D03*
%TO.N,C-D2*%
X105950000Y-31630000D03*
X89002424Y-31302989D03*
%TO.N,C-D3*%
X104280000Y-31580000D03*
X91693529Y-31178968D03*
%TO.N,C-D4*%
X103220000Y-31750000D03*
X93930504Y-30851957D03*
%TO.N,C-D5*%
X96380000Y-31150000D03*
X102510000Y-31434946D03*
%TO.N,C-D6*%
X100973502Y-29027449D03*
%TO.N,C-I_O*%
X142000000Y-31220000D03*
X125036247Y-31748511D03*
%TO.N,C-C_D*%
X137054940Y-31121502D03*
X126371042Y-31585360D03*
%TD*%
D19*
%TO.N,GND*%
X140686500Y-30194500D02*
X141863501Y-29017499D01*
X124269499Y-26540999D02*
X123732000Y-26003500D01*
X124269499Y-29017499D02*
X124269499Y-26540999D01*
X125446500Y-30194500D02*
X124269499Y-29017499D01*
D20*
%TO.N,C-REQ*%
X135589026Y-31598512D02*
X134935004Y-32252534D01*
X134935004Y-32252534D02*
X130935040Y-32252534D01*
X138901488Y-31598512D02*
X135589026Y-31598512D01*
X139350000Y-31150000D02*
X138901488Y-31598512D01*
X130935040Y-32252534D02*
X130772861Y-32414713D01*
X130772861Y-32414713D02*
X130419308Y-32414713D01*
%TO.N,C-MSG*%
X131178913Y-31598512D02*
X129203150Y-31598512D01*
X129203150Y-31598512D02*
X129171503Y-31630159D01*
X131368458Y-31408967D02*
X131178913Y-31598512D01*
X133734535Y-31408967D02*
X131368458Y-31408967D01*
X133993502Y-31150000D02*
X133734535Y-31408967D01*
X129171503Y-31630159D02*
X128817950Y-31630159D01*
%TO.N,C-BSY*%
X122389539Y-31271501D02*
X122141027Y-31022989D01*
X123871489Y-31271501D02*
X122389539Y-31271501D01*
X121371049Y-31022989D02*
X120709206Y-31684832D01*
X120709206Y-31684832D02*
X117187010Y-31684832D01*
X124270000Y-30872990D02*
X123871489Y-31271501D01*
X122141027Y-31022989D02*
X121371049Y-31022989D01*
%TO.N,C-SEL*%
X125327733Y-32162989D02*
X125780245Y-32162989D01*
X135273573Y-33221022D02*
X135828947Y-32665648D01*
X124744761Y-32162989D02*
X124807285Y-32225513D01*
X115237011Y-32162989D02*
X124744761Y-32162989D01*
X124807285Y-32225513D02*
X125265209Y-32225513D01*
X126006628Y-32389373D02*
X127245335Y-32389373D01*
X127245335Y-32389373D02*
X128076984Y-33221022D01*
X125815069Y-32197814D02*
X126006628Y-32389373D01*
X125780245Y-32162989D02*
X125815069Y-32197814D01*
X125265209Y-32225513D02*
X125327733Y-32162989D01*
X128076984Y-33221022D02*
X135273573Y-33221022D01*
X114530000Y-32870000D02*
X115237011Y-32162989D01*
%TO.N,C-RST*%
X124240016Y-31809999D02*
X124778514Y-31271501D01*
X121789999Y-31809999D02*
X124240016Y-31809999D01*
X125963461Y-31271501D02*
X126298628Y-30936334D01*
X126298628Y-30936334D02*
X126382489Y-30936334D01*
X126382489Y-30936334D02*
X126632626Y-31186471D01*
X126632626Y-31186471D02*
X127384509Y-31186471D01*
X127384509Y-31186471D02*
X127469539Y-31271501D01*
X127469539Y-31271501D02*
X128503461Y-31271501D01*
X128503461Y-31271501D02*
X128697065Y-31077897D01*
X128697065Y-31077897D02*
X129713650Y-31077897D01*
X129713650Y-31077897D02*
X129907254Y-31271501D01*
X129907254Y-31271501D02*
X131006903Y-31271501D01*
X121540000Y-31560000D02*
X121789999Y-31809999D01*
X124778514Y-31271501D02*
X125963461Y-31271501D01*
X131006903Y-31271501D02*
X131346447Y-30931957D01*
D21*
X131560000Y-29273553D02*
X131560000Y-28920000D01*
X131578501Y-29292054D02*
X131560000Y-29273553D01*
X131578501Y-30699903D02*
X131578501Y-29292054D01*
X131346447Y-30931957D02*
X131578501Y-30699903D01*
D20*
%TO.N,C-ACK*%
X119073425Y-32950000D02*
X118812489Y-32689064D01*
X126730000Y-32950000D02*
X119073425Y-32950000D01*
%TO.N,C-DP*%
X101162991Y-33547009D02*
X109130745Y-33547009D01*
X109130745Y-33547009D02*
X110742490Y-31935264D01*
X110742490Y-31935264D02*
X110992489Y-31685265D01*
X100860000Y-33850000D02*
X101162991Y-33547009D01*
%TO.N,C-D0*%
X83780000Y-31480000D02*
X84610000Y-32310000D01*
X107515963Y-33219999D02*
X109105962Y-31630000D01*
X84610000Y-32310000D02*
X93638188Y-32310000D01*
X93638188Y-32310000D02*
X94548188Y-33219999D01*
X94548188Y-33219999D02*
X107515963Y-33219999D01*
X109105962Y-31630000D02*
X110120000Y-31630000D01*
%TO.N,C-D1*%
X94683639Y-32892989D02*
X107137011Y-32892989D01*
X107137011Y-32892989D02*
X108350000Y-31680000D01*
X86370000Y-31530000D02*
X86822989Y-31982989D01*
X93773640Y-31982989D02*
X94683639Y-32892989D01*
X86822989Y-31982989D02*
X93773640Y-31982989D01*
%TO.N,C-D2*%
X89355413Y-31655978D02*
X89002424Y-31302989D01*
X93909092Y-31655978D02*
X89355413Y-31655978D01*
X105014022Y-32565978D02*
X94819089Y-32565978D01*
X105950000Y-31630000D02*
X105014022Y-32565978D01*
X94819089Y-32565978D02*
X93909092Y-31655978D01*
%TO.N,C-D3*%
X104280000Y-31580000D02*
X103621033Y-32238967D01*
X103621033Y-32238967D02*
X94954540Y-32238967D01*
X94954540Y-32238967D02*
X94044544Y-31328967D01*
X94044544Y-31328967D02*
X91843528Y-31328967D01*
X91843528Y-31328967D02*
X91693529Y-31178968D01*
%TO.N,C-D4*%
X103220000Y-31750000D02*
X103058044Y-31911956D01*
X103058044Y-31911956D02*
X95089992Y-31911956D01*
X95089992Y-31911956D02*
X94029993Y-30851957D01*
X94029993Y-30851957D02*
X93930504Y-30851957D01*
%TO.N,C-D5*%
X96664946Y-31434946D02*
X102510000Y-31434946D01*
X96380000Y-31150000D02*
X96664946Y-31434946D01*
%TO.N,C-D6*%
X98879449Y-29027449D02*
X100973502Y-29027449D01*
X97506500Y-27654500D02*
X98879449Y-29027449D01*
%TO.N,C-I_O*%
X126142080Y-32062362D02*
X125828229Y-31748511D01*
X127450787Y-32062362D02*
X126142080Y-32062362D01*
X125828229Y-31748511D02*
X125036247Y-31748511D01*
X131151732Y-32891714D02*
X128280139Y-32891714D01*
X135080455Y-32579545D02*
X131463901Y-32579545D01*
X128280139Y-32891714D02*
X127450787Y-32062362D01*
X131463901Y-32579545D02*
X131151732Y-32891714D01*
X135734477Y-31925523D02*
X135080455Y-32579545D01*
X141294477Y-31925523D02*
X135734477Y-31925523D01*
X142000000Y-31220000D02*
X141294477Y-31925523D01*
%TO.N,C-C_D*%
X127465448Y-31614560D02*
X126753795Y-31614560D01*
X126753795Y-31614560D02*
X126724595Y-31585360D01*
X129355812Y-32107160D02*
X127958048Y-32107160D01*
X134700073Y-31271501D02*
X134046051Y-31925523D01*
X126724595Y-31585360D02*
X126371042Y-31585360D01*
X127958048Y-32107160D02*
X127465448Y-31614560D01*
X137054940Y-31121502D02*
X136701387Y-31121502D01*
X136551388Y-31271501D02*
X134700073Y-31271501D01*
X129537449Y-31925523D02*
X129355812Y-32107160D01*
X134046051Y-31925523D02*
X129537449Y-31925523D01*
X136701387Y-31121502D02*
X136551388Y-31271501D01*
D19*
%TO.N,TERMPOW*%
X98666101Y-36570499D02*
X98339099Y-36897501D01*
X109918363Y-36570499D02*
X98666101Y-36570499D01*
X111569499Y-28831501D02*
X111569499Y-34919363D01*
X98339099Y-36897501D02*
X97566600Y-37670000D01*
X112746500Y-27654500D02*
X111569499Y-28831501D01*
X111569499Y-34919363D02*
X109918363Y-36570499D01*
%TD*%
D22*
%TO.N,GND*%
G36*
X82393500Y-30067500D02*
G01*
X84679500Y-30067500D01*
X84679500Y-30047500D01*
X84933500Y-30047500D01*
X84933500Y-30067500D01*
X87219500Y-30067500D01*
X87219500Y-30047500D01*
X87473500Y-30047500D01*
X87473500Y-30067500D01*
X89759500Y-30067500D01*
X89759500Y-30047500D01*
X90013500Y-30047500D01*
X90013500Y-30067500D01*
X92299500Y-30067500D01*
X92299500Y-30047500D01*
X92553500Y-30047500D01*
X92553500Y-30067500D01*
X92573500Y-30067500D01*
X92573500Y-30321500D01*
X92553500Y-30321500D01*
X92553500Y-30341500D01*
X92299500Y-30341500D01*
X92299500Y-30321500D01*
X91919107Y-30321500D01*
X91780694Y-30293968D01*
X91606364Y-30293968D01*
X91467951Y-30321500D01*
X90013500Y-30321500D01*
X90013500Y-30341500D01*
X89759500Y-30341500D01*
X89759500Y-30321500D01*
X87473500Y-30321500D01*
X87473500Y-30341500D01*
X87219500Y-30341500D01*
X87219500Y-30321500D01*
X84933500Y-30321500D01*
X84933500Y-30341500D01*
X84679500Y-30341500D01*
X84679500Y-30321500D01*
X82393500Y-30321500D01*
X82393500Y-31520750D01*
X82552250Y-31679500D01*
X82917741Y-31681490D01*
X82929010Y-31738145D01*
X82995723Y-31899205D01*
X83092576Y-32044155D01*
X83215845Y-32167424D01*
X83360795Y-32264277D01*
X83521855Y-32330990D01*
X83608847Y-32348294D01*
X84064746Y-32804193D01*
X84087762Y-32832238D01*
X84199680Y-32924087D01*
X84327367Y-32992337D01*
X84465915Y-33034365D01*
X84573895Y-33045000D01*
X84573904Y-33045000D01*
X84609999Y-33048555D01*
X84646094Y-33045000D01*
X93333742Y-33045000D01*
X94002934Y-33714192D01*
X94025950Y-33742237D01*
X94053994Y-33765252D01*
X94053995Y-33765253D01*
X94137868Y-33834086D01*
X94265555Y-33902336D01*
X94404103Y-33944364D01*
X94548188Y-33958555D01*
X94584293Y-33954999D01*
X95073472Y-33954999D01*
X94934290Y-34163299D01*
X94828190Y-34419447D01*
X94774100Y-34691373D01*
X94774100Y-34968627D01*
X94828190Y-35240553D01*
X94934290Y-35496701D01*
X95088324Y-35727229D01*
X95284371Y-35923276D01*
X95514899Y-36077310D01*
X95771047Y-36183410D01*
X96042973Y-36237500D01*
X96320227Y-36237500D01*
X96592153Y-36183410D01*
X96848301Y-36077310D01*
X97078829Y-35923276D01*
X97274876Y-35727229D01*
X97428910Y-35496701D01*
X97535010Y-35240553D01*
X97566600Y-35081741D01*
X97598190Y-35240553D01*
X97704290Y-35496701D01*
X97858324Y-35727229D01*
X98054371Y-35923276D01*
X98100759Y-35954271D01*
X98072810Y-35977208D01*
X98046662Y-36009070D01*
X97778632Y-36277101D01*
X97705227Y-36262500D01*
X97427973Y-36262500D01*
X97156047Y-36316590D01*
X96899899Y-36422690D01*
X96669371Y-36576724D01*
X96473324Y-36772771D01*
X96319290Y-37003299D01*
X96213190Y-37259447D01*
X96159100Y-37531373D01*
X96159100Y-37808627D01*
X96213190Y-38080553D01*
X96319290Y-38336701D01*
X96473324Y-38567229D01*
X96669371Y-38763276D01*
X96899899Y-38917310D01*
X97156047Y-39023410D01*
X97427973Y-39077500D01*
X97705227Y-39077500D01*
X97977153Y-39023410D01*
X98233301Y-38917310D01*
X98463829Y-38763276D01*
X98584041Y-38643064D01*
X99543141Y-38643064D01*
X99611393Y-38884227D01*
X99862211Y-39002377D01*
X100131260Y-39069324D01*
X100408200Y-39082496D01*
X100682388Y-39041387D01*
X100943288Y-38947576D01*
X101061807Y-38884227D01*
X101130059Y-38643064D01*
X100336600Y-37849605D01*
X99543141Y-38643064D01*
X98584041Y-38643064D01*
X98659876Y-38567229D01*
X98813910Y-38336701D01*
X98920010Y-38080553D01*
X98951322Y-37923138D01*
X98965213Y-38015788D01*
X99059024Y-38276688D01*
X99122373Y-38395207D01*
X99363536Y-38463459D01*
X100156995Y-37670000D01*
X100142853Y-37655858D01*
X100322458Y-37476253D01*
X100336600Y-37490395D01*
X100350743Y-37476253D01*
X100530348Y-37655858D01*
X100516205Y-37670000D01*
X101309664Y-38463459D01*
X101550827Y-38395207D01*
X101668977Y-38144389D01*
X101722834Y-37927946D01*
X101753190Y-38080553D01*
X101859290Y-38336701D01*
X102013324Y-38567229D01*
X102209371Y-38763276D01*
X102439899Y-38917310D01*
X102696047Y-39023410D01*
X102967973Y-39077500D01*
X103245227Y-39077500D01*
X103517153Y-39023410D01*
X103773301Y-38917310D01*
X104003829Y-38763276D01*
X104199876Y-38567229D01*
X104353910Y-38336701D01*
X104460010Y-38080553D01*
X104491600Y-37921741D01*
X104523190Y-38080553D01*
X104629290Y-38336701D01*
X104783324Y-38567229D01*
X104979371Y-38763276D01*
X105209899Y-38917310D01*
X105466047Y-39023410D01*
X105737973Y-39077500D01*
X106015227Y-39077500D01*
X106287153Y-39023410D01*
X106543301Y-38917310D01*
X106773829Y-38763276D01*
X106969876Y-38567229D01*
X107123910Y-38336701D01*
X107230010Y-38080553D01*
X107261600Y-37921741D01*
X107293190Y-38080553D01*
X107399290Y-38336701D01*
X107553324Y-38567229D01*
X107749371Y-38763276D01*
X107979899Y-38917310D01*
X108236047Y-39023410D01*
X108507973Y-39077500D01*
X108785227Y-39077500D01*
X109057153Y-39023410D01*
X109313301Y-38917310D01*
X109543829Y-38763276D01*
X109739876Y-38567229D01*
X109893910Y-38336701D01*
X110000010Y-38080553D01*
X110031600Y-37921741D01*
X110063190Y-38080553D01*
X110169290Y-38336701D01*
X110323324Y-38567229D01*
X110519371Y-38763276D01*
X110749899Y-38917310D01*
X111006047Y-39023410D01*
X111277973Y-39077500D01*
X111555227Y-39077500D01*
X111827153Y-39023410D01*
X112083301Y-38917310D01*
X112313829Y-38763276D01*
X112509876Y-38567229D01*
X112663910Y-38336701D01*
X112770010Y-38080553D01*
X112801600Y-37921741D01*
X112833190Y-38080553D01*
X112939290Y-38336701D01*
X113093324Y-38567229D01*
X113289371Y-38763276D01*
X113519899Y-38917310D01*
X113776047Y-39023410D01*
X114047973Y-39077500D01*
X114325227Y-39077500D01*
X114597153Y-39023410D01*
X114853301Y-38917310D01*
X115083829Y-38763276D01*
X115204041Y-38643064D01*
X116163141Y-38643064D01*
X116231393Y-38884227D01*
X116482211Y-39002377D01*
X116751260Y-39069324D01*
X117028200Y-39082496D01*
X117302388Y-39041387D01*
X117563288Y-38947576D01*
X117681807Y-38884227D01*
X117750059Y-38643064D01*
X116956600Y-37849605D01*
X116163141Y-38643064D01*
X115204041Y-38643064D01*
X115279876Y-38567229D01*
X115433910Y-38336701D01*
X115540010Y-38080553D01*
X115571322Y-37923138D01*
X115585213Y-38015788D01*
X115679024Y-38276688D01*
X115742373Y-38395207D01*
X115983536Y-38463459D01*
X116776995Y-37670000D01*
X117136205Y-37670000D01*
X117929664Y-38463459D01*
X118170827Y-38395207D01*
X118288977Y-38144389D01*
X118342834Y-37927946D01*
X118373190Y-38080553D01*
X118479290Y-38336701D01*
X118633324Y-38567229D01*
X118829371Y-38763276D01*
X119059899Y-38917310D01*
X119316047Y-39023410D01*
X119587973Y-39077500D01*
X119865227Y-39077500D01*
X120137153Y-39023410D01*
X120393301Y-38917310D01*
X120623829Y-38763276D01*
X120744041Y-38643064D01*
X121703141Y-38643064D01*
X121771393Y-38884227D01*
X122022211Y-39002377D01*
X122291260Y-39069324D01*
X122568200Y-39082496D01*
X122842388Y-39041387D01*
X123103288Y-38947576D01*
X123221807Y-38884227D01*
X123290059Y-38643064D01*
X122496600Y-37849605D01*
X121703141Y-38643064D01*
X120744041Y-38643064D01*
X120819876Y-38567229D01*
X120973910Y-38336701D01*
X121080010Y-38080553D01*
X121111322Y-37923138D01*
X121125213Y-38015788D01*
X121219024Y-38276688D01*
X121282373Y-38395207D01*
X121523536Y-38463459D01*
X122316995Y-37670000D01*
X122676205Y-37670000D01*
X123469664Y-38463459D01*
X123710827Y-38395207D01*
X123828977Y-38144389D01*
X123882834Y-37927946D01*
X123913190Y-38080553D01*
X124019290Y-38336701D01*
X124173324Y-38567229D01*
X124369371Y-38763276D01*
X124599899Y-38917310D01*
X124856047Y-39023410D01*
X125127973Y-39077500D01*
X125405227Y-39077500D01*
X125677153Y-39023410D01*
X125933301Y-38917310D01*
X126163829Y-38763276D01*
X126284041Y-38643064D01*
X127243141Y-38643064D01*
X127311393Y-38884227D01*
X127562211Y-39002377D01*
X127831260Y-39069324D01*
X128108200Y-39082496D01*
X128382388Y-39041387D01*
X128643288Y-38947576D01*
X128761807Y-38884227D01*
X128830059Y-38643064D01*
X128036600Y-37849605D01*
X127243141Y-38643064D01*
X126284041Y-38643064D01*
X126359876Y-38567229D01*
X126513910Y-38336701D01*
X126620010Y-38080553D01*
X126651322Y-37923138D01*
X126665213Y-38015788D01*
X126759024Y-38276688D01*
X126822373Y-38395207D01*
X127063536Y-38463459D01*
X127856995Y-37670000D01*
X128216205Y-37670000D01*
X129009664Y-38463459D01*
X129240848Y-38398031D01*
X134353174Y-38398031D01*
X134620039Y-38808062D01*
X135151787Y-39090867D01*
X135728491Y-39264500D01*
X136327987Y-39322287D01*
X136927238Y-39262008D01*
X137503214Y-39085980D01*
X138023161Y-38808062D01*
X138290026Y-38398031D01*
X136321600Y-36429605D01*
X134353174Y-38398031D01*
X129240848Y-38398031D01*
X129250827Y-38395207D01*
X129368977Y-38144389D01*
X129435924Y-37875340D01*
X129449096Y-37598400D01*
X129407987Y-37324212D01*
X129314176Y-37063312D01*
X129250827Y-36944793D01*
X129009664Y-36876541D01*
X128216205Y-37670000D01*
X127856995Y-37670000D01*
X127063536Y-36876541D01*
X126822373Y-36944793D01*
X126704223Y-37195611D01*
X126650366Y-37412054D01*
X126620010Y-37259447D01*
X126513910Y-37003299D01*
X126359876Y-36772771D01*
X126284041Y-36696936D01*
X127243141Y-36696936D01*
X128036600Y-37490395D01*
X128830059Y-36696936D01*
X128761807Y-36455773D01*
X128510989Y-36337623D01*
X128241940Y-36270676D01*
X127965000Y-36257504D01*
X127690812Y-36298613D01*
X127429912Y-36392424D01*
X127311393Y-36455773D01*
X127243141Y-36696936D01*
X126284041Y-36696936D01*
X126163829Y-36576724D01*
X125933301Y-36422690D01*
X125677153Y-36316590D01*
X125405227Y-36262500D01*
X125127973Y-36262500D01*
X124856047Y-36316590D01*
X124599899Y-36422690D01*
X124369371Y-36576724D01*
X124173324Y-36772771D01*
X124019290Y-37003299D01*
X123913190Y-37259447D01*
X123881878Y-37416862D01*
X123867987Y-37324212D01*
X123774176Y-37063312D01*
X123710827Y-36944793D01*
X123469664Y-36876541D01*
X122676205Y-37670000D01*
X122316995Y-37670000D01*
X121523536Y-36876541D01*
X121282373Y-36944793D01*
X121164223Y-37195611D01*
X121110366Y-37412054D01*
X121080010Y-37259447D01*
X120973910Y-37003299D01*
X120819876Y-36772771D01*
X120744041Y-36696936D01*
X121703141Y-36696936D01*
X122496600Y-37490395D01*
X123290059Y-36696936D01*
X123221807Y-36455773D01*
X122970989Y-36337623D01*
X122701940Y-36270676D01*
X122425000Y-36257504D01*
X122150812Y-36298613D01*
X121889912Y-36392424D01*
X121771393Y-36455773D01*
X121703141Y-36696936D01*
X120744041Y-36696936D01*
X120623829Y-36576724D01*
X120393301Y-36422690D01*
X120137153Y-36316590D01*
X119865227Y-36262500D01*
X119587973Y-36262500D01*
X119316047Y-36316590D01*
X119059899Y-36422690D01*
X118829371Y-36576724D01*
X118633324Y-36772771D01*
X118479290Y-37003299D01*
X118373190Y-37259447D01*
X118341878Y-37416862D01*
X118327987Y-37324212D01*
X118234176Y-37063312D01*
X118170827Y-36944793D01*
X117929664Y-36876541D01*
X117136205Y-37670000D01*
X116776995Y-37670000D01*
X115983536Y-36876541D01*
X115742373Y-36944793D01*
X115624223Y-37195611D01*
X115570366Y-37412054D01*
X115540010Y-37259447D01*
X115433910Y-37003299D01*
X115279876Y-36772771D01*
X115204041Y-36696936D01*
X116163141Y-36696936D01*
X116956600Y-37490395D01*
X117750059Y-36696936D01*
X117681807Y-36455773D01*
X117430989Y-36337623D01*
X117161940Y-36270676D01*
X116885000Y-36257504D01*
X116610812Y-36298613D01*
X116349912Y-36392424D01*
X116231393Y-36455773D01*
X116163141Y-36696936D01*
X115204041Y-36696936D01*
X115083829Y-36576724D01*
X114853301Y-36422690D01*
X114597153Y-36316590D01*
X114325227Y-36262500D01*
X114047973Y-36262500D01*
X113776047Y-36316590D01*
X113519899Y-36422690D01*
X113289371Y-36576724D01*
X113093324Y-36772771D01*
X112939290Y-37003299D01*
X112833190Y-37259447D01*
X112801600Y-37418259D01*
X112770010Y-37259447D01*
X112663910Y-37003299D01*
X112509876Y-36772771D01*
X112313829Y-36576724D01*
X112083301Y-36422690D01*
X111827153Y-36316590D01*
X111555227Y-36262500D01*
X111407230Y-36262500D01*
X111413343Y-36256387D01*
X133249313Y-36256387D01*
X133309592Y-36855638D01*
X133485620Y-37431614D01*
X133763538Y-37951561D01*
X134173569Y-38218426D01*
X136141995Y-36250000D01*
X136501205Y-36250000D01*
X138469631Y-38218426D01*
X138879662Y-37951561D01*
X139162467Y-37419813D01*
X139336100Y-36843109D01*
X139393887Y-36243613D01*
X139333608Y-35644362D01*
X139157580Y-35068386D01*
X138879662Y-34548439D01*
X138469631Y-34281574D01*
X136501205Y-36250000D01*
X136141995Y-36250000D01*
X134173569Y-34281574D01*
X133763538Y-34548439D01*
X133480733Y-35080187D01*
X133307100Y-35656891D01*
X133249313Y-36256387D01*
X111413343Y-36256387D01*
X111821031Y-35848699D01*
X111891770Y-35919438D01*
X112008142Y-35803066D01*
X112076393Y-36044227D01*
X112327211Y-36162377D01*
X112596260Y-36229324D01*
X112873200Y-36242496D01*
X113147388Y-36201387D01*
X113408288Y-36107576D01*
X113526807Y-36044227D01*
X113595059Y-35803064D01*
X112801600Y-35009605D01*
X112787458Y-35023748D01*
X112607853Y-34844143D01*
X112621995Y-34830000D01*
X112607853Y-34815858D01*
X112787458Y-34636253D01*
X112801600Y-34650395D01*
X113595059Y-33856936D01*
X113526807Y-33615773D01*
X113275989Y-33497623D01*
X113006940Y-33430676D01*
X112730000Y-33417504D01*
X112455812Y-33458613D01*
X112404499Y-33477063D01*
X112404499Y-31642576D01*
X112455389Y-31658013D01*
X112673550Y-31679500D01*
X112819450Y-31679500D01*
X113037611Y-31658013D01*
X113317534Y-31573099D01*
X113575514Y-31435206D01*
X113801634Y-31249634D01*
X113987206Y-31023514D01*
X114021701Y-30958977D01*
X114091322Y-31075855D01*
X114286231Y-31292088D01*
X114519580Y-31466141D01*
X114777717Y-31589094D01*
X114714773Y-31640751D01*
X114691757Y-31668796D01*
X114358847Y-32001706D01*
X114271855Y-32019010D01*
X114110795Y-32085723D01*
X113965845Y-32182576D01*
X113842576Y-32305845D01*
X113745723Y-32450795D01*
X113679010Y-32611855D01*
X113645000Y-32782835D01*
X113645000Y-32957165D01*
X113679010Y-33128145D01*
X113745723Y-33289205D01*
X113842576Y-33434155D01*
X113965845Y-33557424D01*
X114110795Y-33654277D01*
X114271855Y-33720990D01*
X114442835Y-33755000D01*
X114617165Y-33755000D01*
X114665761Y-33745334D01*
X114478324Y-33932771D01*
X114324290Y-34163299D01*
X114218190Y-34419447D01*
X114186878Y-34576862D01*
X114172987Y-34484212D01*
X114079176Y-34223312D01*
X114015827Y-34104793D01*
X113774664Y-34036541D01*
X112981205Y-34830000D01*
X113774664Y-35623459D01*
X114015827Y-35555207D01*
X114133977Y-35304389D01*
X114187834Y-35087946D01*
X114218190Y-35240553D01*
X114324290Y-35496701D01*
X114478324Y-35727229D01*
X114674371Y-35923276D01*
X114904899Y-36077310D01*
X115161047Y-36183410D01*
X115432973Y-36237500D01*
X115710227Y-36237500D01*
X115982153Y-36183410D01*
X116238301Y-36077310D01*
X116468829Y-35923276D01*
X116664876Y-35727229D01*
X116818910Y-35496701D01*
X116925010Y-35240553D01*
X116956600Y-35081741D01*
X116988190Y-35240553D01*
X117094290Y-35496701D01*
X117248324Y-35727229D01*
X117444371Y-35923276D01*
X117674899Y-36077310D01*
X117931047Y-36183410D01*
X118202973Y-36237500D01*
X118480227Y-36237500D01*
X118752153Y-36183410D01*
X119008301Y-36077310D01*
X119238829Y-35923276D01*
X119434876Y-35727229D01*
X119588910Y-35496701D01*
X119695010Y-35240553D01*
X119726600Y-35081741D01*
X119758190Y-35240553D01*
X119864290Y-35496701D01*
X120018324Y-35727229D01*
X120214371Y-35923276D01*
X120444899Y-36077310D01*
X120701047Y-36183410D01*
X120972973Y-36237500D01*
X121250227Y-36237500D01*
X121522153Y-36183410D01*
X121778301Y-36077310D01*
X122008829Y-35923276D01*
X122204876Y-35727229D01*
X122358910Y-35496701D01*
X122465010Y-35240553D01*
X122496600Y-35081741D01*
X122528190Y-35240553D01*
X122634290Y-35496701D01*
X122788324Y-35727229D01*
X122984371Y-35923276D01*
X123214899Y-36077310D01*
X123471047Y-36183410D01*
X123742973Y-36237500D01*
X124020227Y-36237500D01*
X124292153Y-36183410D01*
X124548301Y-36077310D01*
X124778829Y-35923276D01*
X124974876Y-35727229D01*
X125128910Y-35496701D01*
X125235010Y-35240553D01*
X125266600Y-35081741D01*
X125298190Y-35240553D01*
X125404290Y-35496701D01*
X125558324Y-35727229D01*
X125754371Y-35923276D01*
X125984899Y-36077310D01*
X126241047Y-36183410D01*
X126512973Y-36237500D01*
X126790227Y-36237500D01*
X127062153Y-36183410D01*
X127318301Y-36077310D01*
X127548829Y-35923276D01*
X127744876Y-35727229D01*
X127898910Y-35496701D01*
X128005010Y-35240553D01*
X128036600Y-35081741D01*
X128068190Y-35240553D01*
X128174290Y-35496701D01*
X128328324Y-35727229D01*
X128524371Y-35923276D01*
X128754899Y-36077310D01*
X129011047Y-36183410D01*
X129282973Y-36237500D01*
X129560227Y-36237500D01*
X129832153Y-36183410D01*
X130088301Y-36077310D01*
X130318829Y-35923276D01*
X130514876Y-35727229D01*
X130668910Y-35496701D01*
X130775010Y-35240553D01*
X130829100Y-34968627D01*
X130829100Y-34691373D01*
X130775010Y-34419447D01*
X130668910Y-34163299D01*
X130530412Y-33956022D01*
X134448162Y-33956022D01*
X134353174Y-34101969D01*
X136321600Y-36070395D01*
X138290026Y-34101969D01*
X138023161Y-33691938D01*
X137491413Y-33409133D01*
X136914709Y-33235500D01*
X136536898Y-33199082D01*
X136613224Y-33084853D01*
X136679937Y-32923793D01*
X136713947Y-32752813D01*
X136713947Y-32660523D01*
X141258372Y-32660523D01*
X141294477Y-32664079D01*
X141330582Y-32660523D01*
X141438562Y-32649888D01*
X141577110Y-32607860D01*
X141704797Y-32539610D01*
X141816715Y-32447761D01*
X141839735Y-32419711D01*
X142171153Y-32088294D01*
X142258145Y-32070990D01*
X142419205Y-32004277D01*
X142564155Y-31907424D01*
X142687424Y-31784155D01*
X142784277Y-31639205D01*
X142794990Y-31613342D01*
X142869610Y-31635976D01*
X143099500Y-31514655D01*
X143099500Y-30321500D01*
X140813500Y-30321500D01*
X140813500Y-30341500D01*
X140559500Y-30341500D01*
X140559500Y-30321500D01*
X139662441Y-30321500D01*
X139608145Y-30299010D01*
X139437165Y-30265000D01*
X139262835Y-30265000D01*
X139091855Y-30299010D01*
X139037559Y-30321500D01*
X138273500Y-30321500D01*
X138273500Y-30341500D01*
X138019500Y-30341500D01*
X138019500Y-30321500D01*
X137436181Y-30321500D01*
X137313085Y-30270512D01*
X137142105Y-30236502D01*
X136967775Y-30236502D01*
X136796795Y-30270512D01*
X136673699Y-30321500D01*
X135733500Y-30321500D01*
X135733500Y-30341500D01*
X135479500Y-30341500D01*
X135479500Y-30321500D01*
X134305943Y-30321500D01*
X134251647Y-30299010D01*
X134080667Y-30265000D01*
X133906337Y-30265000D01*
X133735357Y-30299010D01*
X133681061Y-30321500D01*
X133193500Y-30321500D01*
X133193500Y-30341500D01*
X132939500Y-30341500D01*
X132939500Y-30321500D01*
X132919500Y-30321500D01*
X132919500Y-30067500D01*
X132939500Y-30067500D01*
X132939500Y-30047500D01*
X133193500Y-30047500D01*
X133193500Y-30067500D01*
X135479500Y-30067500D01*
X135479500Y-30047500D01*
X135733500Y-30047500D01*
X135733500Y-30067500D01*
X138019500Y-30067500D01*
X138019500Y-30047500D01*
X138273500Y-30047500D01*
X138273500Y-30067500D01*
X140559500Y-30067500D01*
X140559500Y-30047500D01*
X140813500Y-30047500D01*
X140813500Y-30067500D01*
X143099500Y-30067500D01*
X143099500Y-30047500D01*
X143353500Y-30047500D01*
X143353500Y-30067500D01*
X143373500Y-30067500D01*
X143373500Y-30321500D01*
X143353500Y-30321500D01*
X143353500Y-31514655D01*
X143583390Y-31635976D01*
X143730599Y-31591325D01*
X143993420Y-31466141D01*
X144226769Y-31292088D01*
X144421678Y-31075855D01*
X144570657Y-30825752D01*
X144640000Y-30630270D01*
X144640001Y-40437918D01*
X144588904Y-40342008D01*
X144583828Y-40334411D01*
X144145374Y-40034231D01*
X141979605Y-42200000D01*
X141993748Y-42214143D01*
X141814143Y-42393748D01*
X141800000Y-42379605D01*
X139634231Y-44545374D01*
X139934411Y-44983828D01*
X140031699Y-45036000D01*
X85569592Y-45036000D01*
X85657992Y-44988904D01*
X85665589Y-44983828D01*
X85965769Y-44545374D01*
X83800000Y-42379605D01*
X83785858Y-42393748D01*
X83606253Y-42214143D01*
X83620395Y-42200000D01*
X83979605Y-42200000D01*
X86145374Y-44365769D01*
X86583828Y-44065589D01*
X86894296Y-43486644D01*
X87085852Y-42858254D01*
X87151134Y-42204569D01*
X87150247Y-42195431D01*
X138448866Y-42195431D01*
X138512366Y-42849293D01*
X138702208Y-43478203D01*
X139011096Y-44057992D01*
X139016172Y-44065589D01*
X139454626Y-44365769D01*
X141620395Y-42200000D01*
X139454626Y-40034231D01*
X139016172Y-40334411D01*
X138705704Y-40913356D01*
X138514148Y-41541746D01*
X138448866Y-42195431D01*
X87150247Y-42195431D01*
X87087634Y-41550707D01*
X86897792Y-40921797D01*
X86588904Y-40342008D01*
X86583828Y-40334411D01*
X86145374Y-40034231D01*
X83979605Y-42200000D01*
X83620395Y-42200000D01*
X81454626Y-40034231D01*
X81016172Y-40334411D01*
X80960000Y-40439158D01*
X80960000Y-39854626D01*
X81634231Y-39854626D01*
X83800000Y-42020395D01*
X85965769Y-39854626D01*
X139634231Y-39854626D01*
X141800000Y-42020395D01*
X143965769Y-39854626D01*
X143665589Y-39416172D01*
X143086644Y-39105704D01*
X142458254Y-38914148D01*
X141804569Y-38848866D01*
X141150707Y-38912366D01*
X140521797Y-39102208D01*
X139942008Y-39411096D01*
X139934411Y-39416172D01*
X139634231Y-39854626D01*
X85965769Y-39854626D01*
X85665589Y-39416172D01*
X85086644Y-39105704D01*
X84458254Y-38914148D01*
X83804569Y-38848866D01*
X83150707Y-38912366D01*
X82521797Y-39102208D01*
X81942008Y-39411096D01*
X81934411Y-39416172D01*
X81634231Y-39854626D01*
X80960000Y-39854626D01*
X80960000Y-38398031D01*
X87313174Y-38398031D01*
X87580039Y-38808062D01*
X88111787Y-39090867D01*
X88688491Y-39264500D01*
X89287987Y-39322287D01*
X89887238Y-39262008D01*
X90463214Y-39085980D01*
X90983161Y-38808062D01*
X91250026Y-38398031D01*
X89281600Y-36429605D01*
X87313174Y-38398031D01*
X80960000Y-38398031D01*
X80960000Y-36256387D01*
X86209313Y-36256387D01*
X86269592Y-36855638D01*
X86445620Y-37431614D01*
X86723538Y-37951561D01*
X87133569Y-38218426D01*
X89101995Y-36250000D01*
X89461205Y-36250000D01*
X91429631Y-38218426D01*
X91839662Y-37951561D01*
X92122467Y-37419813D01*
X92296100Y-36843109D01*
X92353887Y-36243613D01*
X92293608Y-35644362D01*
X92117580Y-35068386D01*
X91839662Y-34548439D01*
X91429631Y-34281574D01*
X89461205Y-36250000D01*
X89101995Y-36250000D01*
X87133569Y-34281574D01*
X86723538Y-34548439D01*
X86440733Y-35080187D01*
X86267100Y-35656891D01*
X86209313Y-36256387D01*
X80960000Y-36256387D01*
X80960000Y-34101969D01*
X87313174Y-34101969D01*
X89281600Y-36070395D01*
X91250026Y-34101969D01*
X90983161Y-33691938D01*
X90451413Y-33409133D01*
X89874709Y-33235500D01*
X89275213Y-33177713D01*
X88675962Y-33237992D01*
X88099986Y-33414020D01*
X87580039Y-33691938D01*
X87313174Y-34101969D01*
X80960000Y-34101969D01*
X80960000Y-31489209D01*
X80965315Y-31495685D01*
X81062006Y-31575037D01*
X81172320Y-31634002D01*
X81292018Y-31670312D01*
X81416500Y-31682572D01*
X81980750Y-31679500D01*
X82139500Y-31520750D01*
X82139500Y-30321500D01*
X82119500Y-30321500D01*
X82119500Y-30067500D01*
X82139500Y-30067500D01*
X82139500Y-30047500D01*
X82393500Y-30047500D01*
X82393500Y-30067500D01*
X82393500Y-30067500D01*
G37*
X82393500Y-30067500D02*
X84679500Y-30067500D01*
X84679500Y-30047500D01*
X84933500Y-30047500D01*
X84933500Y-30067500D01*
X87219500Y-30067500D01*
X87219500Y-30047500D01*
X87473500Y-30047500D01*
X87473500Y-30067500D01*
X89759500Y-30067500D01*
X89759500Y-30047500D01*
X90013500Y-30047500D01*
X90013500Y-30067500D01*
X92299500Y-30067500D01*
X92299500Y-30047500D01*
X92553500Y-30047500D01*
X92553500Y-30067500D01*
X92573500Y-30067500D01*
X92573500Y-30321500D01*
X92553500Y-30321500D01*
X92553500Y-30341500D01*
X92299500Y-30341500D01*
X92299500Y-30321500D01*
X91919107Y-30321500D01*
X91780694Y-30293968D01*
X91606364Y-30293968D01*
X91467951Y-30321500D01*
X90013500Y-30321500D01*
X90013500Y-30341500D01*
X89759500Y-30341500D01*
X89759500Y-30321500D01*
X87473500Y-30321500D01*
X87473500Y-30341500D01*
X87219500Y-30341500D01*
X87219500Y-30321500D01*
X84933500Y-30321500D01*
X84933500Y-30341500D01*
X84679500Y-30341500D01*
X84679500Y-30321500D01*
X82393500Y-30321500D01*
X82393500Y-31520750D01*
X82552250Y-31679500D01*
X82917741Y-31681490D01*
X82929010Y-31738145D01*
X82995723Y-31899205D01*
X83092576Y-32044155D01*
X83215845Y-32167424D01*
X83360795Y-32264277D01*
X83521855Y-32330990D01*
X83608847Y-32348294D01*
X84064746Y-32804193D01*
X84087762Y-32832238D01*
X84199680Y-32924087D01*
X84327367Y-32992337D01*
X84465915Y-33034365D01*
X84573895Y-33045000D01*
X84573904Y-33045000D01*
X84609999Y-33048555D01*
X84646094Y-33045000D01*
X93333742Y-33045000D01*
X94002934Y-33714192D01*
X94025950Y-33742237D01*
X94053994Y-33765252D01*
X94053995Y-33765253D01*
X94137868Y-33834086D01*
X94265555Y-33902336D01*
X94404103Y-33944364D01*
X94548188Y-33958555D01*
X94584293Y-33954999D01*
X95073472Y-33954999D01*
X94934290Y-34163299D01*
X94828190Y-34419447D01*
X94774100Y-34691373D01*
X94774100Y-34968627D01*
X94828190Y-35240553D01*
X94934290Y-35496701D01*
X95088324Y-35727229D01*
X95284371Y-35923276D01*
X95514899Y-36077310D01*
X95771047Y-36183410D01*
X96042973Y-36237500D01*
X96320227Y-36237500D01*
X96592153Y-36183410D01*
X96848301Y-36077310D01*
X97078829Y-35923276D01*
X97274876Y-35727229D01*
X97428910Y-35496701D01*
X97535010Y-35240553D01*
X97566600Y-35081741D01*
X97598190Y-35240553D01*
X97704290Y-35496701D01*
X97858324Y-35727229D01*
X98054371Y-35923276D01*
X98100759Y-35954271D01*
X98072810Y-35977208D01*
X98046662Y-36009070D01*
X97778632Y-36277101D01*
X97705227Y-36262500D01*
X97427973Y-36262500D01*
X97156047Y-36316590D01*
X96899899Y-36422690D01*
X96669371Y-36576724D01*
X96473324Y-36772771D01*
X96319290Y-37003299D01*
X96213190Y-37259447D01*
X96159100Y-37531373D01*
X96159100Y-37808627D01*
X96213190Y-38080553D01*
X96319290Y-38336701D01*
X96473324Y-38567229D01*
X96669371Y-38763276D01*
X96899899Y-38917310D01*
X97156047Y-39023410D01*
X97427973Y-39077500D01*
X97705227Y-39077500D01*
X97977153Y-39023410D01*
X98233301Y-38917310D01*
X98463829Y-38763276D01*
X98584041Y-38643064D01*
X99543141Y-38643064D01*
X99611393Y-38884227D01*
X99862211Y-39002377D01*
X100131260Y-39069324D01*
X100408200Y-39082496D01*
X100682388Y-39041387D01*
X100943288Y-38947576D01*
X101061807Y-38884227D01*
X101130059Y-38643064D01*
X100336600Y-37849605D01*
X99543141Y-38643064D01*
X98584041Y-38643064D01*
X98659876Y-38567229D01*
X98813910Y-38336701D01*
X98920010Y-38080553D01*
X98951322Y-37923138D01*
X98965213Y-38015788D01*
X99059024Y-38276688D01*
X99122373Y-38395207D01*
X99363536Y-38463459D01*
X100156995Y-37670000D01*
X100142853Y-37655858D01*
X100322458Y-37476253D01*
X100336600Y-37490395D01*
X100350743Y-37476253D01*
X100530348Y-37655858D01*
X100516205Y-37670000D01*
X101309664Y-38463459D01*
X101550827Y-38395207D01*
X101668977Y-38144389D01*
X101722834Y-37927946D01*
X101753190Y-38080553D01*
X101859290Y-38336701D01*
X102013324Y-38567229D01*
X102209371Y-38763276D01*
X102439899Y-38917310D01*
X102696047Y-39023410D01*
X102967973Y-39077500D01*
X103245227Y-39077500D01*
X103517153Y-39023410D01*
X103773301Y-38917310D01*
X104003829Y-38763276D01*
X104199876Y-38567229D01*
X104353910Y-38336701D01*
X104460010Y-38080553D01*
X104491600Y-37921741D01*
X104523190Y-38080553D01*
X104629290Y-38336701D01*
X104783324Y-38567229D01*
X104979371Y-38763276D01*
X105209899Y-38917310D01*
X105466047Y-39023410D01*
X105737973Y-39077500D01*
X106015227Y-39077500D01*
X106287153Y-39023410D01*
X106543301Y-38917310D01*
X106773829Y-38763276D01*
X106969876Y-38567229D01*
X107123910Y-38336701D01*
X107230010Y-38080553D01*
X107261600Y-37921741D01*
X107293190Y-38080553D01*
X107399290Y-38336701D01*
X107553324Y-38567229D01*
X107749371Y-38763276D01*
X107979899Y-38917310D01*
X108236047Y-39023410D01*
X108507973Y-39077500D01*
X108785227Y-39077500D01*
X109057153Y-39023410D01*
X109313301Y-38917310D01*
X109543829Y-38763276D01*
X109739876Y-38567229D01*
X109893910Y-38336701D01*
X110000010Y-38080553D01*
X110031600Y-37921741D01*
X110063190Y-38080553D01*
X110169290Y-38336701D01*
X110323324Y-38567229D01*
X110519371Y-38763276D01*
X110749899Y-38917310D01*
X111006047Y-39023410D01*
X111277973Y-39077500D01*
X111555227Y-39077500D01*
X111827153Y-39023410D01*
X112083301Y-38917310D01*
X112313829Y-38763276D01*
X112509876Y-38567229D01*
X112663910Y-38336701D01*
X112770010Y-38080553D01*
X112801600Y-37921741D01*
X112833190Y-38080553D01*
X112939290Y-38336701D01*
X113093324Y-38567229D01*
X113289371Y-38763276D01*
X113519899Y-38917310D01*
X113776047Y-39023410D01*
X114047973Y-39077500D01*
X114325227Y-39077500D01*
X114597153Y-39023410D01*
X114853301Y-38917310D01*
X115083829Y-38763276D01*
X115204041Y-38643064D01*
X116163141Y-38643064D01*
X116231393Y-38884227D01*
X116482211Y-39002377D01*
X116751260Y-39069324D01*
X117028200Y-39082496D01*
X117302388Y-39041387D01*
X117563288Y-38947576D01*
X117681807Y-38884227D01*
X117750059Y-38643064D01*
X116956600Y-37849605D01*
X116163141Y-38643064D01*
X115204041Y-38643064D01*
X115279876Y-38567229D01*
X115433910Y-38336701D01*
X115540010Y-38080553D01*
X115571322Y-37923138D01*
X115585213Y-38015788D01*
X115679024Y-38276688D01*
X115742373Y-38395207D01*
X115983536Y-38463459D01*
X116776995Y-37670000D01*
X117136205Y-37670000D01*
X117929664Y-38463459D01*
X118170827Y-38395207D01*
X118288977Y-38144389D01*
X118342834Y-37927946D01*
X118373190Y-38080553D01*
X118479290Y-38336701D01*
X118633324Y-38567229D01*
X118829371Y-38763276D01*
X119059899Y-38917310D01*
X119316047Y-39023410D01*
X119587973Y-39077500D01*
X119865227Y-39077500D01*
X120137153Y-39023410D01*
X120393301Y-38917310D01*
X120623829Y-38763276D01*
X120744041Y-38643064D01*
X121703141Y-38643064D01*
X121771393Y-38884227D01*
X122022211Y-39002377D01*
X122291260Y-39069324D01*
X122568200Y-39082496D01*
X122842388Y-39041387D01*
X123103288Y-38947576D01*
X123221807Y-38884227D01*
X123290059Y-38643064D01*
X122496600Y-37849605D01*
X121703141Y-38643064D01*
X120744041Y-38643064D01*
X120819876Y-38567229D01*
X120973910Y-38336701D01*
X121080010Y-38080553D01*
X121111322Y-37923138D01*
X121125213Y-38015788D01*
X121219024Y-38276688D01*
X121282373Y-38395207D01*
X121523536Y-38463459D01*
X122316995Y-37670000D01*
X122676205Y-37670000D01*
X123469664Y-38463459D01*
X123710827Y-38395207D01*
X123828977Y-38144389D01*
X123882834Y-37927946D01*
X123913190Y-38080553D01*
X124019290Y-38336701D01*
X124173324Y-38567229D01*
X124369371Y-38763276D01*
X124599899Y-38917310D01*
X124856047Y-39023410D01*
X125127973Y-39077500D01*
X125405227Y-39077500D01*
X125677153Y-39023410D01*
X125933301Y-38917310D01*
X126163829Y-38763276D01*
X126284041Y-38643064D01*
X127243141Y-38643064D01*
X127311393Y-38884227D01*
X127562211Y-39002377D01*
X127831260Y-39069324D01*
X128108200Y-39082496D01*
X128382388Y-39041387D01*
X128643288Y-38947576D01*
X128761807Y-38884227D01*
X128830059Y-38643064D01*
X128036600Y-37849605D01*
X127243141Y-38643064D01*
X126284041Y-38643064D01*
X126359876Y-38567229D01*
X126513910Y-38336701D01*
X126620010Y-38080553D01*
X126651322Y-37923138D01*
X126665213Y-38015788D01*
X126759024Y-38276688D01*
X126822373Y-38395207D01*
X127063536Y-38463459D01*
X127856995Y-37670000D01*
X128216205Y-37670000D01*
X129009664Y-38463459D01*
X129240848Y-38398031D01*
X134353174Y-38398031D01*
X134620039Y-38808062D01*
X135151787Y-39090867D01*
X135728491Y-39264500D01*
X136327987Y-39322287D01*
X136927238Y-39262008D01*
X137503214Y-39085980D01*
X138023161Y-38808062D01*
X138290026Y-38398031D01*
X136321600Y-36429605D01*
X134353174Y-38398031D01*
X129240848Y-38398031D01*
X129250827Y-38395207D01*
X129368977Y-38144389D01*
X129435924Y-37875340D01*
X129449096Y-37598400D01*
X129407987Y-37324212D01*
X129314176Y-37063312D01*
X129250827Y-36944793D01*
X129009664Y-36876541D01*
X128216205Y-37670000D01*
X127856995Y-37670000D01*
X127063536Y-36876541D01*
X126822373Y-36944793D01*
X126704223Y-37195611D01*
X126650366Y-37412054D01*
X126620010Y-37259447D01*
X126513910Y-37003299D01*
X126359876Y-36772771D01*
X126284041Y-36696936D01*
X127243141Y-36696936D01*
X128036600Y-37490395D01*
X128830059Y-36696936D01*
X128761807Y-36455773D01*
X128510989Y-36337623D01*
X128241940Y-36270676D01*
X127965000Y-36257504D01*
X127690812Y-36298613D01*
X127429912Y-36392424D01*
X127311393Y-36455773D01*
X127243141Y-36696936D01*
X126284041Y-36696936D01*
X126163829Y-36576724D01*
X125933301Y-36422690D01*
X125677153Y-36316590D01*
X125405227Y-36262500D01*
X125127973Y-36262500D01*
X124856047Y-36316590D01*
X124599899Y-36422690D01*
X124369371Y-36576724D01*
X124173324Y-36772771D01*
X124019290Y-37003299D01*
X123913190Y-37259447D01*
X123881878Y-37416862D01*
X123867987Y-37324212D01*
X123774176Y-37063312D01*
X123710827Y-36944793D01*
X123469664Y-36876541D01*
X122676205Y-37670000D01*
X122316995Y-37670000D01*
X121523536Y-36876541D01*
X121282373Y-36944793D01*
X121164223Y-37195611D01*
X121110366Y-37412054D01*
X121080010Y-37259447D01*
X120973910Y-37003299D01*
X120819876Y-36772771D01*
X120744041Y-36696936D01*
X121703141Y-36696936D01*
X122496600Y-37490395D01*
X123290059Y-36696936D01*
X123221807Y-36455773D01*
X122970989Y-36337623D01*
X122701940Y-36270676D01*
X122425000Y-36257504D01*
X122150812Y-36298613D01*
X121889912Y-36392424D01*
X121771393Y-36455773D01*
X121703141Y-36696936D01*
X120744041Y-36696936D01*
X120623829Y-36576724D01*
X120393301Y-36422690D01*
X120137153Y-36316590D01*
X119865227Y-36262500D01*
X119587973Y-36262500D01*
X119316047Y-36316590D01*
X119059899Y-36422690D01*
X118829371Y-36576724D01*
X118633324Y-36772771D01*
X118479290Y-37003299D01*
X118373190Y-37259447D01*
X118341878Y-37416862D01*
X118327987Y-37324212D01*
X118234176Y-37063312D01*
X118170827Y-36944793D01*
X117929664Y-36876541D01*
X117136205Y-37670000D01*
X116776995Y-37670000D01*
X115983536Y-36876541D01*
X115742373Y-36944793D01*
X115624223Y-37195611D01*
X115570366Y-37412054D01*
X115540010Y-37259447D01*
X115433910Y-37003299D01*
X115279876Y-36772771D01*
X115204041Y-36696936D01*
X116163141Y-36696936D01*
X116956600Y-37490395D01*
X117750059Y-36696936D01*
X117681807Y-36455773D01*
X117430989Y-36337623D01*
X117161940Y-36270676D01*
X116885000Y-36257504D01*
X116610812Y-36298613D01*
X116349912Y-36392424D01*
X116231393Y-36455773D01*
X116163141Y-36696936D01*
X115204041Y-36696936D01*
X115083829Y-36576724D01*
X114853301Y-36422690D01*
X114597153Y-36316590D01*
X114325227Y-36262500D01*
X114047973Y-36262500D01*
X113776047Y-36316590D01*
X113519899Y-36422690D01*
X113289371Y-36576724D01*
X113093324Y-36772771D01*
X112939290Y-37003299D01*
X112833190Y-37259447D01*
X112801600Y-37418259D01*
X112770010Y-37259447D01*
X112663910Y-37003299D01*
X112509876Y-36772771D01*
X112313829Y-36576724D01*
X112083301Y-36422690D01*
X111827153Y-36316590D01*
X111555227Y-36262500D01*
X111407230Y-36262500D01*
X111413343Y-36256387D01*
X133249313Y-36256387D01*
X133309592Y-36855638D01*
X133485620Y-37431614D01*
X133763538Y-37951561D01*
X134173569Y-38218426D01*
X136141995Y-36250000D01*
X136501205Y-36250000D01*
X138469631Y-38218426D01*
X138879662Y-37951561D01*
X139162467Y-37419813D01*
X139336100Y-36843109D01*
X139393887Y-36243613D01*
X139333608Y-35644362D01*
X139157580Y-35068386D01*
X138879662Y-34548439D01*
X138469631Y-34281574D01*
X136501205Y-36250000D01*
X136141995Y-36250000D01*
X134173569Y-34281574D01*
X133763538Y-34548439D01*
X133480733Y-35080187D01*
X133307100Y-35656891D01*
X133249313Y-36256387D01*
X111413343Y-36256387D01*
X111821031Y-35848699D01*
X111891770Y-35919438D01*
X112008142Y-35803066D01*
X112076393Y-36044227D01*
X112327211Y-36162377D01*
X112596260Y-36229324D01*
X112873200Y-36242496D01*
X113147388Y-36201387D01*
X113408288Y-36107576D01*
X113526807Y-36044227D01*
X113595059Y-35803064D01*
X112801600Y-35009605D01*
X112787458Y-35023748D01*
X112607853Y-34844143D01*
X112621995Y-34830000D01*
X112607853Y-34815858D01*
X112787458Y-34636253D01*
X112801600Y-34650395D01*
X113595059Y-33856936D01*
X113526807Y-33615773D01*
X113275989Y-33497623D01*
X113006940Y-33430676D01*
X112730000Y-33417504D01*
X112455812Y-33458613D01*
X112404499Y-33477063D01*
X112404499Y-31642576D01*
X112455389Y-31658013D01*
X112673550Y-31679500D01*
X112819450Y-31679500D01*
X113037611Y-31658013D01*
X113317534Y-31573099D01*
X113575514Y-31435206D01*
X113801634Y-31249634D01*
X113987206Y-31023514D01*
X114021701Y-30958977D01*
X114091322Y-31075855D01*
X114286231Y-31292088D01*
X114519580Y-31466141D01*
X114777717Y-31589094D01*
X114714773Y-31640751D01*
X114691757Y-31668796D01*
X114358847Y-32001706D01*
X114271855Y-32019010D01*
X114110795Y-32085723D01*
X113965845Y-32182576D01*
X113842576Y-32305845D01*
X113745723Y-32450795D01*
X113679010Y-32611855D01*
X113645000Y-32782835D01*
X113645000Y-32957165D01*
X113679010Y-33128145D01*
X113745723Y-33289205D01*
X113842576Y-33434155D01*
X113965845Y-33557424D01*
X114110795Y-33654277D01*
X114271855Y-33720990D01*
X114442835Y-33755000D01*
X114617165Y-33755000D01*
X114665761Y-33745334D01*
X114478324Y-33932771D01*
X114324290Y-34163299D01*
X114218190Y-34419447D01*
X114186878Y-34576862D01*
X114172987Y-34484212D01*
X114079176Y-34223312D01*
X114015827Y-34104793D01*
X113774664Y-34036541D01*
X112981205Y-34830000D01*
X113774664Y-35623459D01*
X114015827Y-35555207D01*
X114133977Y-35304389D01*
X114187834Y-35087946D01*
X114218190Y-35240553D01*
X114324290Y-35496701D01*
X114478324Y-35727229D01*
X114674371Y-35923276D01*
X114904899Y-36077310D01*
X115161047Y-36183410D01*
X115432973Y-36237500D01*
X115710227Y-36237500D01*
X115982153Y-36183410D01*
X116238301Y-36077310D01*
X116468829Y-35923276D01*
X116664876Y-35727229D01*
X116818910Y-35496701D01*
X116925010Y-35240553D01*
X116956600Y-35081741D01*
X116988190Y-35240553D01*
X117094290Y-35496701D01*
X117248324Y-35727229D01*
X117444371Y-35923276D01*
X117674899Y-36077310D01*
X117931047Y-36183410D01*
X118202973Y-36237500D01*
X118480227Y-36237500D01*
X118752153Y-36183410D01*
X119008301Y-36077310D01*
X119238829Y-35923276D01*
X119434876Y-35727229D01*
X119588910Y-35496701D01*
X119695010Y-35240553D01*
X119726600Y-35081741D01*
X119758190Y-35240553D01*
X119864290Y-35496701D01*
X120018324Y-35727229D01*
X120214371Y-35923276D01*
X120444899Y-36077310D01*
X120701047Y-36183410D01*
X120972973Y-36237500D01*
X121250227Y-36237500D01*
X121522153Y-36183410D01*
X121778301Y-36077310D01*
X122008829Y-35923276D01*
X122204876Y-35727229D01*
X122358910Y-35496701D01*
X122465010Y-35240553D01*
X122496600Y-35081741D01*
X122528190Y-35240553D01*
X122634290Y-35496701D01*
X122788324Y-35727229D01*
X122984371Y-35923276D01*
X123214899Y-36077310D01*
X123471047Y-36183410D01*
X123742973Y-36237500D01*
X124020227Y-36237500D01*
X124292153Y-36183410D01*
X124548301Y-36077310D01*
X124778829Y-35923276D01*
X124974876Y-35727229D01*
X125128910Y-35496701D01*
X125235010Y-35240553D01*
X125266600Y-35081741D01*
X125298190Y-35240553D01*
X125404290Y-35496701D01*
X125558324Y-35727229D01*
X125754371Y-35923276D01*
X125984899Y-36077310D01*
X126241047Y-36183410D01*
X126512973Y-36237500D01*
X126790227Y-36237500D01*
X127062153Y-36183410D01*
X127318301Y-36077310D01*
X127548829Y-35923276D01*
X127744876Y-35727229D01*
X127898910Y-35496701D01*
X128005010Y-35240553D01*
X128036600Y-35081741D01*
X128068190Y-35240553D01*
X128174290Y-35496701D01*
X128328324Y-35727229D01*
X128524371Y-35923276D01*
X128754899Y-36077310D01*
X129011047Y-36183410D01*
X129282973Y-36237500D01*
X129560227Y-36237500D01*
X129832153Y-36183410D01*
X130088301Y-36077310D01*
X130318829Y-35923276D01*
X130514876Y-35727229D01*
X130668910Y-35496701D01*
X130775010Y-35240553D01*
X130829100Y-34968627D01*
X130829100Y-34691373D01*
X130775010Y-34419447D01*
X130668910Y-34163299D01*
X130530412Y-33956022D01*
X134448162Y-33956022D01*
X134353174Y-34101969D01*
X136321600Y-36070395D01*
X138290026Y-34101969D01*
X138023161Y-33691938D01*
X137491413Y-33409133D01*
X136914709Y-33235500D01*
X136536898Y-33199082D01*
X136613224Y-33084853D01*
X136679937Y-32923793D01*
X136713947Y-32752813D01*
X136713947Y-32660523D01*
X141258372Y-32660523D01*
X141294477Y-32664079D01*
X141330582Y-32660523D01*
X141438562Y-32649888D01*
X141577110Y-32607860D01*
X141704797Y-32539610D01*
X141816715Y-32447761D01*
X141839735Y-32419711D01*
X142171153Y-32088294D01*
X142258145Y-32070990D01*
X142419205Y-32004277D01*
X142564155Y-31907424D01*
X142687424Y-31784155D01*
X142784277Y-31639205D01*
X142794990Y-31613342D01*
X142869610Y-31635976D01*
X143099500Y-31514655D01*
X143099500Y-30321500D01*
X140813500Y-30321500D01*
X140813500Y-30341500D01*
X140559500Y-30341500D01*
X140559500Y-30321500D01*
X139662441Y-30321500D01*
X139608145Y-30299010D01*
X139437165Y-30265000D01*
X139262835Y-30265000D01*
X139091855Y-30299010D01*
X139037559Y-30321500D01*
X138273500Y-30321500D01*
X138273500Y-30341500D01*
X138019500Y-30341500D01*
X138019500Y-30321500D01*
X137436181Y-30321500D01*
X137313085Y-30270512D01*
X137142105Y-30236502D01*
X136967775Y-30236502D01*
X136796795Y-30270512D01*
X136673699Y-30321500D01*
X135733500Y-30321500D01*
X135733500Y-30341500D01*
X135479500Y-30341500D01*
X135479500Y-30321500D01*
X134305943Y-30321500D01*
X134251647Y-30299010D01*
X134080667Y-30265000D01*
X133906337Y-30265000D01*
X133735357Y-30299010D01*
X133681061Y-30321500D01*
X133193500Y-30321500D01*
X133193500Y-30341500D01*
X132939500Y-30341500D01*
X132939500Y-30321500D01*
X132919500Y-30321500D01*
X132919500Y-30067500D01*
X132939500Y-30067500D01*
X132939500Y-30047500D01*
X133193500Y-30047500D01*
X133193500Y-30067500D01*
X135479500Y-30067500D01*
X135479500Y-30047500D01*
X135733500Y-30047500D01*
X135733500Y-30067500D01*
X138019500Y-30067500D01*
X138019500Y-30047500D01*
X138273500Y-30047500D01*
X138273500Y-30067500D01*
X140559500Y-30067500D01*
X140559500Y-30047500D01*
X140813500Y-30047500D01*
X140813500Y-30067500D01*
X143099500Y-30067500D01*
X143099500Y-30047500D01*
X143353500Y-30047500D01*
X143353500Y-30067500D01*
X143373500Y-30067500D01*
X143373500Y-30321500D01*
X143353500Y-30321500D01*
X143353500Y-31514655D01*
X143583390Y-31635976D01*
X143730599Y-31591325D01*
X143993420Y-31466141D01*
X144226769Y-31292088D01*
X144421678Y-31075855D01*
X144570657Y-30825752D01*
X144640000Y-30630270D01*
X144640001Y-40437918D01*
X144588904Y-40342008D01*
X144583828Y-40334411D01*
X144145374Y-40034231D01*
X141979605Y-42200000D01*
X141993748Y-42214143D01*
X141814143Y-42393748D01*
X141800000Y-42379605D01*
X139634231Y-44545374D01*
X139934411Y-44983828D01*
X140031699Y-45036000D01*
X85569592Y-45036000D01*
X85657992Y-44988904D01*
X85665589Y-44983828D01*
X85965769Y-44545374D01*
X83800000Y-42379605D01*
X83785858Y-42393748D01*
X83606253Y-42214143D01*
X83620395Y-42200000D01*
X83979605Y-42200000D01*
X86145374Y-44365769D01*
X86583828Y-44065589D01*
X86894296Y-43486644D01*
X87085852Y-42858254D01*
X87151134Y-42204569D01*
X87150247Y-42195431D01*
X138448866Y-42195431D01*
X138512366Y-42849293D01*
X138702208Y-43478203D01*
X139011096Y-44057992D01*
X139016172Y-44065589D01*
X139454626Y-44365769D01*
X141620395Y-42200000D01*
X139454626Y-40034231D01*
X139016172Y-40334411D01*
X138705704Y-40913356D01*
X138514148Y-41541746D01*
X138448866Y-42195431D01*
X87150247Y-42195431D01*
X87087634Y-41550707D01*
X86897792Y-40921797D01*
X86588904Y-40342008D01*
X86583828Y-40334411D01*
X86145374Y-40034231D01*
X83979605Y-42200000D01*
X83620395Y-42200000D01*
X81454626Y-40034231D01*
X81016172Y-40334411D01*
X80960000Y-40439158D01*
X80960000Y-39854626D01*
X81634231Y-39854626D01*
X83800000Y-42020395D01*
X85965769Y-39854626D01*
X139634231Y-39854626D01*
X141800000Y-42020395D01*
X143965769Y-39854626D01*
X143665589Y-39416172D01*
X143086644Y-39105704D01*
X142458254Y-38914148D01*
X141804569Y-38848866D01*
X141150707Y-38912366D01*
X140521797Y-39102208D01*
X139942008Y-39411096D01*
X139934411Y-39416172D01*
X139634231Y-39854626D01*
X85965769Y-39854626D01*
X85665589Y-39416172D01*
X85086644Y-39105704D01*
X84458254Y-38914148D01*
X83804569Y-38848866D01*
X83150707Y-38912366D01*
X82521797Y-39102208D01*
X81942008Y-39411096D01*
X81934411Y-39416172D01*
X81634231Y-39854626D01*
X80960000Y-39854626D01*
X80960000Y-38398031D01*
X87313174Y-38398031D01*
X87580039Y-38808062D01*
X88111787Y-39090867D01*
X88688491Y-39264500D01*
X89287987Y-39322287D01*
X89887238Y-39262008D01*
X90463214Y-39085980D01*
X90983161Y-38808062D01*
X91250026Y-38398031D01*
X89281600Y-36429605D01*
X87313174Y-38398031D01*
X80960000Y-38398031D01*
X80960000Y-36256387D01*
X86209313Y-36256387D01*
X86269592Y-36855638D01*
X86445620Y-37431614D01*
X86723538Y-37951561D01*
X87133569Y-38218426D01*
X89101995Y-36250000D01*
X89461205Y-36250000D01*
X91429631Y-38218426D01*
X91839662Y-37951561D01*
X92122467Y-37419813D01*
X92296100Y-36843109D01*
X92353887Y-36243613D01*
X92293608Y-35644362D01*
X92117580Y-35068386D01*
X91839662Y-34548439D01*
X91429631Y-34281574D01*
X89461205Y-36250000D01*
X89101995Y-36250000D01*
X87133569Y-34281574D01*
X86723538Y-34548439D01*
X86440733Y-35080187D01*
X86267100Y-35656891D01*
X86209313Y-36256387D01*
X80960000Y-36256387D01*
X80960000Y-34101969D01*
X87313174Y-34101969D01*
X89281600Y-36070395D01*
X91250026Y-34101969D01*
X90983161Y-33691938D01*
X90451413Y-33409133D01*
X89874709Y-33235500D01*
X89275213Y-33177713D01*
X88675962Y-33237992D01*
X88099986Y-33414020D01*
X87580039Y-33691938D01*
X87313174Y-34101969D01*
X80960000Y-34101969D01*
X80960000Y-31489209D01*
X80965315Y-31495685D01*
X81062006Y-31575037D01*
X81172320Y-31634002D01*
X81292018Y-31670312D01*
X81416500Y-31682572D01*
X81980750Y-31679500D01*
X82139500Y-31520750D01*
X82139500Y-30321500D01*
X82119500Y-30321500D01*
X82119500Y-30067500D01*
X82139500Y-30067500D01*
X82139500Y-30047500D01*
X82393500Y-30047500D01*
X82393500Y-30067500D01*
G36*
X100368190Y-35240553D02*
G01*
X100474290Y-35496701D01*
X100628324Y-35727229D01*
X100636594Y-35735499D01*
X100036606Y-35735499D01*
X100044876Y-35727229D01*
X100198910Y-35496701D01*
X100305010Y-35240553D01*
X100336600Y-35081741D01*
X100368190Y-35240553D01*
X100368190Y-35240553D01*
G37*
X100368190Y-35240553D02*
X100474290Y-35496701D01*
X100628324Y-35727229D01*
X100636594Y-35735499D01*
X100036606Y-35735499D01*
X100044876Y-35727229D01*
X100198910Y-35496701D01*
X100305010Y-35240553D01*
X100336600Y-35081741D01*
X100368190Y-35240553D01*
G36*
X107455348Y-34815858D02*
G01*
X107441205Y-34830000D01*
X107455348Y-34844143D01*
X107275743Y-35023748D01*
X107261600Y-35009605D01*
X107247458Y-35023748D01*
X107067853Y-34844143D01*
X107081995Y-34830000D01*
X107067853Y-34815858D01*
X107247458Y-34636253D01*
X107261600Y-34650395D01*
X107275743Y-34636253D01*
X107455348Y-34815858D01*
X107455348Y-34815858D01*
G37*
X107455348Y-34815858D02*
X107441205Y-34830000D01*
X107455348Y-34844143D01*
X107275743Y-35023748D01*
X107261600Y-35009605D01*
X107247458Y-35023748D01*
X107067853Y-34844143D01*
X107081995Y-34830000D01*
X107067853Y-34815858D01*
X107247458Y-34636253D01*
X107261600Y-34650395D01*
X107275743Y-34636253D01*
X107455348Y-34815858D01*
G36*
X125573500Y-30067500D02*
G01*
X127859500Y-30067500D01*
X127859500Y-30047500D01*
X128113500Y-30047500D01*
X128113500Y-30067500D01*
X130399500Y-30067500D01*
X130399500Y-30047500D01*
X130653500Y-30047500D01*
X130653500Y-30067500D01*
X130673500Y-30067500D01*
X130673500Y-30321500D01*
X130653500Y-30321500D01*
X130653500Y-30341500D01*
X130399500Y-30341500D01*
X130399500Y-30321500D01*
X128113500Y-30321500D01*
X128113500Y-30341500D01*
X127859500Y-30341500D01*
X127859500Y-30321500D01*
X126791411Y-30321500D01*
X126665122Y-30253997D01*
X126526574Y-30211969D01*
X126418594Y-30201334D01*
X126382489Y-30197778D01*
X126346384Y-30201334D01*
X126334733Y-30201334D01*
X126298628Y-30197778D01*
X126154543Y-30211969D01*
X126015994Y-30253997D01*
X125959053Y-30284433D01*
X125889706Y-30321500D01*
X125573500Y-30321500D01*
X125573500Y-30341500D01*
X125319500Y-30341500D01*
X125319500Y-30321500D01*
X125299500Y-30321500D01*
X125299500Y-30067500D01*
X125319500Y-30067500D01*
X125319500Y-30047500D01*
X125573500Y-30047500D01*
X125573500Y-30067500D01*
X125573500Y-30067500D01*
G37*
X125573500Y-30067500D02*
X127859500Y-30067500D01*
X127859500Y-30047500D01*
X128113500Y-30047500D01*
X128113500Y-30067500D01*
X130399500Y-30067500D01*
X130399500Y-30047500D01*
X130653500Y-30047500D01*
X130653500Y-30067500D01*
X130673500Y-30067500D01*
X130673500Y-30321500D01*
X130653500Y-30321500D01*
X130653500Y-30341500D01*
X130399500Y-30341500D01*
X130399500Y-30321500D01*
X128113500Y-30321500D01*
X128113500Y-30341500D01*
X127859500Y-30341500D01*
X127859500Y-30321500D01*
X126791411Y-30321500D01*
X126665122Y-30253997D01*
X126526574Y-30211969D01*
X126418594Y-30201334D01*
X126382489Y-30197778D01*
X126346384Y-30201334D01*
X126334733Y-30201334D01*
X126298628Y-30197778D01*
X126154543Y-30211969D01*
X126015994Y-30253997D01*
X125959053Y-30284433D01*
X125889706Y-30321500D01*
X125573500Y-30321500D01*
X125573500Y-30341500D01*
X125319500Y-30341500D01*
X125319500Y-30321500D01*
X125299500Y-30321500D01*
X125299500Y-30067500D01*
X125319500Y-30067500D01*
X125319500Y-30047500D01*
X125573500Y-30047500D01*
X125573500Y-30067500D01*
G36*
X142351010Y-25215192D02*
G01*
X142881036Y-25375216D01*
X143369879Y-25635140D01*
X143798931Y-25985065D01*
X144151844Y-26411664D01*
X144230759Y-26557614D01*
X144055514Y-26413794D01*
X143797534Y-26275901D01*
X143517611Y-26190987D01*
X143299450Y-26169500D01*
X143153550Y-26169500D01*
X142935389Y-26190987D01*
X142655466Y-26275901D01*
X142397486Y-26413794D01*
X142171366Y-26599366D01*
X141985794Y-26825486D01*
X141956500Y-26880291D01*
X141927206Y-26825486D01*
X141741634Y-26599366D01*
X141515514Y-26413794D01*
X141257534Y-26275901D01*
X140977611Y-26190987D01*
X140759450Y-26169500D01*
X140613550Y-26169500D01*
X140395389Y-26190987D01*
X140115466Y-26275901D01*
X139857486Y-26413794D01*
X139631366Y-26599366D01*
X139445794Y-26825486D01*
X139416500Y-26880291D01*
X139387206Y-26825486D01*
X139201634Y-26599366D01*
X138975514Y-26413794D01*
X138717534Y-26275901D01*
X138437611Y-26190987D01*
X138219450Y-26169500D01*
X138073550Y-26169500D01*
X137855389Y-26190987D01*
X137575466Y-26275901D01*
X137317486Y-26413794D01*
X137091366Y-26599366D01*
X136905794Y-26825486D01*
X136876500Y-26880291D01*
X136847206Y-26825486D01*
X136661634Y-26599366D01*
X136435514Y-26413794D01*
X136177534Y-26275901D01*
X135897611Y-26190987D01*
X135679450Y-26169500D01*
X135533550Y-26169500D01*
X135315389Y-26190987D01*
X135035466Y-26275901D01*
X134777486Y-26413794D01*
X134551366Y-26599366D01*
X134365794Y-26825486D01*
X134336500Y-26880291D01*
X134307206Y-26825486D01*
X134121634Y-26599366D01*
X133895514Y-26413794D01*
X133637534Y-26275901D01*
X133357611Y-26190987D01*
X133139450Y-26169500D01*
X132993550Y-26169500D01*
X132775389Y-26190987D01*
X132495466Y-26275901D01*
X132237486Y-26413794D01*
X132011366Y-26599366D01*
X131825794Y-26825486D01*
X131796500Y-26880291D01*
X131767206Y-26825486D01*
X131581634Y-26599366D01*
X131355514Y-26413794D01*
X131097534Y-26275901D01*
X130817611Y-26190987D01*
X130599450Y-26169500D01*
X130453550Y-26169500D01*
X130235389Y-26190987D01*
X129955466Y-26275901D01*
X129697486Y-26413794D01*
X129471366Y-26599366D01*
X129285794Y-26825486D01*
X129256500Y-26880291D01*
X129227206Y-26825486D01*
X129041634Y-26599366D01*
X128815514Y-26413794D01*
X128557534Y-26275901D01*
X128277611Y-26190987D01*
X128059450Y-26169500D01*
X127913550Y-26169500D01*
X127695389Y-26190987D01*
X127415466Y-26275901D01*
X127157486Y-26413794D01*
X126931366Y-26599366D01*
X126745794Y-26825486D01*
X126716500Y-26880291D01*
X126687206Y-26825486D01*
X126501634Y-26599366D01*
X126275514Y-26413794D01*
X126017534Y-26275901D01*
X125737611Y-26190987D01*
X125519450Y-26169500D01*
X125373550Y-26169500D01*
X125155389Y-26190987D01*
X124875466Y-26275901D01*
X124617486Y-26413794D01*
X124391366Y-26599366D01*
X124205794Y-26825486D01*
X124176500Y-26880291D01*
X124147206Y-26825486D01*
X123961634Y-26599366D01*
X123735514Y-26413794D01*
X123477534Y-26275901D01*
X123197611Y-26190987D01*
X122979450Y-26169500D01*
X122833550Y-26169500D01*
X122615389Y-26190987D01*
X122335466Y-26275901D01*
X122077486Y-26413794D01*
X121851366Y-26599366D01*
X121665794Y-26825486D01*
X121636500Y-26880291D01*
X121607206Y-26825486D01*
X121421634Y-26599366D01*
X121195514Y-26413794D01*
X120937534Y-26275901D01*
X120657611Y-26190987D01*
X120439450Y-26169500D01*
X120293550Y-26169500D01*
X120075389Y-26190987D01*
X119795466Y-26275901D01*
X119537486Y-26413794D01*
X119311366Y-26599366D01*
X119125794Y-26825486D01*
X119091299Y-26890023D01*
X119021678Y-26773145D01*
X118826769Y-26556912D01*
X118593420Y-26382859D01*
X118330599Y-26257675D01*
X118183390Y-26213024D01*
X117953500Y-26334345D01*
X117953500Y-27527500D01*
X117973500Y-27527500D01*
X117973500Y-27781500D01*
X117953500Y-27781500D01*
X117953500Y-30067500D01*
X120239500Y-30067500D01*
X120239500Y-30047500D01*
X120493500Y-30047500D01*
X120493500Y-30067500D01*
X122779500Y-30067500D01*
X122779500Y-30047500D01*
X123033500Y-30047500D01*
X123033500Y-30067500D01*
X123053500Y-30067500D01*
X123053500Y-30321500D01*
X123033500Y-30321500D01*
X123033500Y-30341500D01*
X122779500Y-30341500D01*
X122779500Y-30321500D01*
X122360524Y-30321500D01*
X122285112Y-30298624D01*
X122177132Y-30287989D01*
X122141027Y-30284433D01*
X122104922Y-30287989D01*
X121407143Y-30287989D01*
X121371048Y-30284434D01*
X121334953Y-30287989D01*
X121334944Y-30287989D01*
X121226964Y-30298624D01*
X121151552Y-30321500D01*
X120493500Y-30321500D01*
X120493500Y-30341500D01*
X120239500Y-30341500D01*
X120239500Y-30321500D01*
X117953500Y-30321500D01*
X117953500Y-30341500D01*
X117699500Y-30341500D01*
X117699500Y-30321500D01*
X115413500Y-30321500D01*
X115413500Y-30341500D01*
X115159500Y-30341500D01*
X115159500Y-30321500D01*
X115139500Y-30321500D01*
X115139500Y-30067500D01*
X115159500Y-30067500D01*
X115159500Y-27781500D01*
X115413500Y-27781500D01*
X115413500Y-30067500D01*
X117699500Y-30067500D01*
X117699500Y-27781500D01*
X115413500Y-27781500D01*
X115159500Y-27781500D01*
X115139500Y-27781500D01*
X115139500Y-27527500D01*
X115159500Y-27527500D01*
X115159500Y-26334345D01*
X115413500Y-26334345D01*
X115413500Y-27527500D01*
X117699500Y-27527500D01*
X117699500Y-26334345D01*
X117469610Y-26213024D01*
X117322401Y-26257675D01*
X117059580Y-26382859D01*
X116826231Y-26556912D01*
X116631322Y-26773145D01*
X116556500Y-26898755D01*
X116481678Y-26773145D01*
X116286769Y-26556912D01*
X116053420Y-26382859D01*
X115790599Y-26257675D01*
X115643390Y-26213024D01*
X115413500Y-26334345D01*
X115159500Y-26334345D01*
X114929610Y-26213024D01*
X114782401Y-26257675D01*
X114519580Y-26382859D01*
X114286231Y-26556912D01*
X114091322Y-26773145D01*
X114021701Y-26890023D01*
X113987206Y-26825486D01*
X113801634Y-26599366D01*
X113575514Y-26413794D01*
X113317534Y-26275901D01*
X113037611Y-26190987D01*
X112819450Y-26169500D01*
X112673550Y-26169500D01*
X112455389Y-26190987D01*
X112175466Y-26275901D01*
X111917486Y-26413794D01*
X111691366Y-26599366D01*
X111505794Y-26825486D01*
X111471299Y-26890023D01*
X111401678Y-26773145D01*
X111206769Y-26556912D01*
X110973420Y-26382859D01*
X110710599Y-26257675D01*
X110563390Y-26213024D01*
X110333500Y-26334345D01*
X110333500Y-27527500D01*
X110353500Y-27527500D01*
X110353500Y-27781500D01*
X110333500Y-27781500D01*
X110333500Y-30067500D01*
X110353500Y-30067500D01*
X110353500Y-30321500D01*
X110333500Y-30321500D01*
X110333500Y-30341500D01*
X110079500Y-30341500D01*
X110079500Y-30321500D01*
X107793500Y-30321500D01*
X107793500Y-30341500D01*
X107539500Y-30341500D01*
X107539500Y-30321500D01*
X105253500Y-30321500D01*
X105253500Y-30341500D01*
X104999500Y-30341500D01*
X104999500Y-30321500D01*
X102713500Y-30321500D01*
X102713500Y-30341500D01*
X102459500Y-30341500D01*
X102459500Y-30321500D01*
X100173500Y-30321500D01*
X100173500Y-30341500D01*
X99919500Y-30341500D01*
X99919500Y-30321500D01*
X97633500Y-30321500D01*
X97633500Y-30341500D01*
X97379500Y-30341500D01*
X97379500Y-30321500D01*
X96692441Y-30321500D01*
X96638145Y-30299010D01*
X96467165Y-30265000D01*
X96292835Y-30265000D01*
X96121855Y-30299010D01*
X96067559Y-30321500D01*
X95093500Y-30321500D01*
X95093500Y-30341500D01*
X94839500Y-30341500D01*
X94839500Y-30321500D01*
X94819500Y-30321500D01*
X94819500Y-30067500D01*
X94839500Y-30067500D01*
X94839500Y-30047500D01*
X95093500Y-30047500D01*
X95093500Y-30067500D01*
X97379500Y-30067500D01*
X97379500Y-30047500D01*
X97633500Y-30047500D01*
X97633500Y-30067500D01*
X99919500Y-30067500D01*
X99919500Y-30047500D01*
X100173500Y-30047500D01*
X100173500Y-30067500D01*
X102459500Y-30067500D01*
X102459500Y-30047500D01*
X102713500Y-30047500D01*
X102713500Y-30067500D01*
X104999500Y-30067500D01*
X104999500Y-27781500D01*
X105253500Y-27781500D01*
X105253500Y-30067500D01*
X107539500Y-30067500D01*
X107539500Y-27781500D01*
X107793500Y-27781500D01*
X107793500Y-30067500D01*
X110079500Y-30067500D01*
X110079500Y-27781500D01*
X107793500Y-27781500D01*
X107539500Y-27781500D01*
X105253500Y-27781500D01*
X104999500Y-27781500D01*
X104979500Y-27781500D01*
X104979500Y-27527500D01*
X104999500Y-27527500D01*
X104999500Y-26334345D01*
X105253500Y-26334345D01*
X105253500Y-27527500D01*
X107539500Y-27527500D01*
X107539500Y-26334345D01*
X107793500Y-26334345D01*
X107793500Y-27527500D01*
X110079500Y-27527500D01*
X110079500Y-26334345D01*
X109849610Y-26213024D01*
X109702401Y-26257675D01*
X109439580Y-26382859D01*
X109206231Y-26556912D01*
X109011322Y-26773145D01*
X108936500Y-26898755D01*
X108861678Y-26773145D01*
X108666769Y-26556912D01*
X108433420Y-26382859D01*
X108170599Y-26257675D01*
X108023390Y-26213024D01*
X107793500Y-26334345D01*
X107539500Y-26334345D01*
X107309610Y-26213024D01*
X107162401Y-26257675D01*
X106899580Y-26382859D01*
X106666231Y-26556912D01*
X106471322Y-26773145D01*
X106396500Y-26898755D01*
X106321678Y-26773145D01*
X106126769Y-26556912D01*
X105893420Y-26382859D01*
X105630599Y-26257675D01*
X105483390Y-26213024D01*
X105253500Y-26334345D01*
X104999500Y-26334345D01*
X104769610Y-26213024D01*
X104622401Y-26257675D01*
X104359580Y-26382859D01*
X104126231Y-26556912D01*
X103931322Y-26773145D01*
X103861701Y-26890023D01*
X103827206Y-26825486D01*
X103641634Y-26599366D01*
X103415514Y-26413794D01*
X103157534Y-26275901D01*
X102877611Y-26190987D01*
X102659450Y-26169500D01*
X102513550Y-26169500D01*
X102295389Y-26190987D01*
X102015466Y-26275901D01*
X101757486Y-26413794D01*
X101531366Y-26599366D01*
X101345794Y-26825486D01*
X101316500Y-26880291D01*
X101287206Y-26825486D01*
X101101634Y-26599366D01*
X100875514Y-26413794D01*
X100617534Y-26275901D01*
X100337611Y-26190987D01*
X100119450Y-26169500D01*
X99973550Y-26169500D01*
X99755389Y-26190987D01*
X99475466Y-26275901D01*
X99217486Y-26413794D01*
X98991366Y-26599366D01*
X98805794Y-26825486D01*
X98776500Y-26880291D01*
X98747206Y-26825486D01*
X98561634Y-26599366D01*
X98335514Y-26413794D01*
X98077534Y-26275901D01*
X97797611Y-26190987D01*
X97579450Y-26169500D01*
X97433550Y-26169500D01*
X97215389Y-26190987D01*
X96935466Y-26275901D01*
X96677486Y-26413794D01*
X96451366Y-26599366D01*
X96265794Y-26825486D01*
X96236500Y-26880291D01*
X96207206Y-26825486D01*
X96021634Y-26599366D01*
X95795514Y-26413794D01*
X95537534Y-26275901D01*
X95257611Y-26190987D01*
X95039450Y-26169500D01*
X94893550Y-26169500D01*
X94675389Y-26190987D01*
X94395466Y-26275901D01*
X94137486Y-26413794D01*
X93911366Y-26599366D01*
X93725794Y-26825486D01*
X93696500Y-26880291D01*
X93667206Y-26825486D01*
X93481634Y-26599366D01*
X93255514Y-26413794D01*
X92997534Y-26275901D01*
X92717611Y-26190987D01*
X92499450Y-26169500D01*
X92353550Y-26169500D01*
X92135389Y-26190987D01*
X91855466Y-26275901D01*
X91597486Y-26413794D01*
X91371366Y-26599366D01*
X91185794Y-26825486D01*
X91156500Y-26880291D01*
X91127206Y-26825486D01*
X90941634Y-26599366D01*
X90715514Y-26413794D01*
X90457534Y-26275901D01*
X90177611Y-26190987D01*
X89959450Y-26169500D01*
X89813550Y-26169500D01*
X89595389Y-26190987D01*
X89315466Y-26275901D01*
X89057486Y-26413794D01*
X88831366Y-26599366D01*
X88645794Y-26825486D01*
X88616500Y-26880291D01*
X88587206Y-26825486D01*
X88401634Y-26599366D01*
X88175514Y-26413794D01*
X87917534Y-26275901D01*
X87637611Y-26190987D01*
X87419450Y-26169500D01*
X87273550Y-26169500D01*
X87055389Y-26190987D01*
X86775466Y-26275901D01*
X86517486Y-26413794D01*
X86291366Y-26599366D01*
X86105794Y-26825486D01*
X86076500Y-26880291D01*
X86047206Y-26825486D01*
X85861634Y-26599366D01*
X85635514Y-26413794D01*
X85377534Y-26275901D01*
X85097611Y-26190987D01*
X84879450Y-26169500D01*
X84733550Y-26169500D01*
X84515389Y-26190987D01*
X84235466Y-26275901D01*
X83977486Y-26413794D01*
X83751366Y-26599366D01*
X83565794Y-26825486D01*
X83536500Y-26880291D01*
X83507206Y-26825486D01*
X83321634Y-26599366D01*
X83095514Y-26413794D01*
X82837534Y-26275901D01*
X82557611Y-26190987D01*
X82339450Y-26169500D01*
X82193550Y-26169500D01*
X81975389Y-26190987D01*
X81695466Y-26275901D01*
X81457587Y-26403050D01*
X81787065Y-25999069D01*
X82213664Y-25646156D01*
X82700681Y-25382827D01*
X83229578Y-25219106D01*
X83810960Y-25158000D01*
X141767721Y-25158000D01*
X142351010Y-25215192D01*
X142351010Y-25215192D01*
G37*
X142351010Y-25215192D02*
X142881036Y-25375216D01*
X143369879Y-25635140D01*
X143798931Y-25985065D01*
X144151844Y-26411664D01*
X144230759Y-26557614D01*
X144055514Y-26413794D01*
X143797534Y-26275901D01*
X143517611Y-26190987D01*
X143299450Y-26169500D01*
X143153550Y-26169500D01*
X142935389Y-26190987D01*
X142655466Y-26275901D01*
X142397486Y-26413794D01*
X142171366Y-26599366D01*
X141985794Y-26825486D01*
X141956500Y-26880291D01*
X141927206Y-26825486D01*
X141741634Y-26599366D01*
X141515514Y-26413794D01*
X141257534Y-26275901D01*
X140977611Y-26190987D01*
X140759450Y-26169500D01*
X140613550Y-26169500D01*
X140395389Y-26190987D01*
X140115466Y-26275901D01*
X139857486Y-26413794D01*
X139631366Y-26599366D01*
X139445794Y-26825486D01*
X139416500Y-26880291D01*
X139387206Y-26825486D01*
X139201634Y-26599366D01*
X138975514Y-26413794D01*
X138717534Y-26275901D01*
X138437611Y-26190987D01*
X138219450Y-26169500D01*
X138073550Y-26169500D01*
X137855389Y-26190987D01*
X137575466Y-26275901D01*
X137317486Y-26413794D01*
X137091366Y-26599366D01*
X136905794Y-26825486D01*
X136876500Y-26880291D01*
X136847206Y-26825486D01*
X136661634Y-26599366D01*
X136435514Y-26413794D01*
X136177534Y-26275901D01*
X135897611Y-26190987D01*
X135679450Y-26169500D01*
X135533550Y-26169500D01*
X135315389Y-26190987D01*
X135035466Y-26275901D01*
X134777486Y-26413794D01*
X134551366Y-26599366D01*
X134365794Y-26825486D01*
X134336500Y-26880291D01*
X134307206Y-26825486D01*
X134121634Y-26599366D01*
X133895514Y-26413794D01*
X133637534Y-26275901D01*
X133357611Y-26190987D01*
X133139450Y-26169500D01*
X132993550Y-26169500D01*
X132775389Y-26190987D01*
X132495466Y-26275901D01*
X132237486Y-26413794D01*
X132011366Y-26599366D01*
X131825794Y-26825486D01*
X131796500Y-26880291D01*
X131767206Y-26825486D01*
X131581634Y-26599366D01*
X131355514Y-26413794D01*
X131097534Y-26275901D01*
X130817611Y-26190987D01*
X130599450Y-26169500D01*
X130453550Y-26169500D01*
X130235389Y-26190987D01*
X129955466Y-26275901D01*
X129697486Y-26413794D01*
X129471366Y-26599366D01*
X129285794Y-26825486D01*
X129256500Y-26880291D01*
X129227206Y-26825486D01*
X129041634Y-26599366D01*
X128815514Y-26413794D01*
X128557534Y-26275901D01*
X128277611Y-26190987D01*
X128059450Y-26169500D01*
X127913550Y-26169500D01*
X127695389Y-26190987D01*
X127415466Y-26275901D01*
X127157486Y-26413794D01*
X126931366Y-26599366D01*
X126745794Y-26825486D01*
X126716500Y-26880291D01*
X126687206Y-26825486D01*
X126501634Y-26599366D01*
X126275514Y-26413794D01*
X126017534Y-26275901D01*
X125737611Y-26190987D01*
X125519450Y-26169500D01*
X125373550Y-26169500D01*
X125155389Y-26190987D01*
X124875466Y-26275901D01*
X124617486Y-26413794D01*
X124391366Y-26599366D01*
X124205794Y-26825486D01*
X124176500Y-26880291D01*
X124147206Y-26825486D01*
X123961634Y-26599366D01*
X123735514Y-26413794D01*
X123477534Y-26275901D01*
X123197611Y-26190987D01*
X122979450Y-26169500D01*
X122833550Y-26169500D01*
X122615389Y-26190987D01*
X122335466Y-26275901D01*
X122077486Y-26413794D01*
X121851366Y-26599366D01*
X121665794Y-26825486D01*
X121636500Y-26880291D01*
X121607206Y-26825486D01*
X121421634Y-26599366D01*
X121195514Y-26413794D01*
X120937534Y-26275901D01*
X120657611Y-26190987D01*
X120439450Y-26169500D01*
X120293550Y-26169500D01*
X120075389Y-26190987D01*
X119795466Y-26275901D01*
X119537486Y-26413794D01*
X119311366Y-26599366D01*
X119125794Y-26825486D01*
X119091299Y-26890023D01*
X119021678Y-26773145D01*
X118826769Y-26556912D01*
X118593420Y-26382859D01*
X118330599Y-26257675D01*
X118183390Y-26213024D01*
X117953500Y-26334345D01*
X117953500Y-27527500D01*
X117973500Y-27527500D01*
X117973500Y-27781500D01*
X117953500Y-27781500D01*
X117953500Y-30067500D01*
X120239500Y-30067500D01*
X120239500Y-30047500D01*
X120493500Y-30047500D01*
X120493500Y-30067500D01*
X122779500Y-30067500D01*
X122779500Y-30047500D01*
X123033500Y-30047500D01*
X123033500Y-30067500D01*
X123053500Y-30067500D01*
X123053500Y-30321500D01*
X123033500Y-30321500D01*
X123033500Y-30341500D01*
X122779500Y-30341500D01*
X122779500Y-30321500D01*
X122360524Y-30321500D01*
X122285112Y-30298624D01*
X122177132Y-30287989D01*
X122141027Y-30284433D01*
X122104922Y-30287989D01*
X121407143Y-30287989D01*
X121371048Y-30284434D01*
X121334953Y-30287989D01*
X121334944Y-30287989D01*
X121226964Y-30298624D01*
X121151552Y-30321500D01*
X120493500Y-30321500D01*
X120493500Y-30341500D01*
X120239500Y-30341500D01*
X120239500Y-30321500D01*
X117953500Y-30321500D01*
X117953500Y-30341500D01*
X117699500Y-30341500D01*
X117699500Y-30321500D01*
X115413500Y-30321500D01*
X115413500Y-30341500D01*
X115159500Y-30341500D01*
X115159500Y-30321500D01*
X115139500Y-30321500D01*
X115139500Y-30067500D01*
X115159500Y-30067500D01*
X115159500Y-27781500D01*
X115413500Y-27781500D01*
X115413500Y-30067500D01*
X117699500Y-30067500D01*
X117699500Y-27781500D01*
X115413500Y-27781500D01*
X115159500Y-27781500D01*
X115139500Y-27781500D01*
X115139500Y-27527500D01*
X115159500Y-27527500D01*
X115159500Y-26334345D01*
X115413500Y-26334345D01*
X115413500Y-27527500D01*
X117699500Y-27527500D01*
X117699500Y-26334345D01*
X117469610Y-26213024D01*
X117322401Y-26257675D01*
X117059580Y-26382859D01*
X116826231Y-26556912D01*
X116631322Y-26773145D01*
X116556500Y-26898755D01*
X116481678Y-26773145D01*
X116286769Y-26556912D01*
X116053420Y-26382859D01*
X115790599Y-26257675D01*
X115643390Y-26213024D01*
X115413500Y-26334345D01*
X115159500Y-26334345D01*
X114929610Y-26213024D01*
X114782401Y-26257675D01*
X114519580Y-26382859D01*
X114286231Y-26556912D01*
X114091322Y-26773145D01*
X114021701Y-26890023D01*
X113987206Y-26825486D01*
X113801634Y-26599366D01*
X113575514Y-26413794D01*
X113317534Y-26275901D01*
X113037611Y-26190987D01*
X112819450Y-26169500D01*
X112673550Y-26169500D01*
X112455389Y-26190987D01*
X112175466Y-26275901D01*
X111917486Y-26413794D01*
X111691366Y-26599366D01*
X111505794Y-26825486D01*
X111471299Y-26890023D01*
X111401678Y-26773145D01*
X111206769Y-26556912D01*
X110973420Y-26382859D01*
X110710599Y-26257675D01*
X110563390Y-26213024D01*
X110333500Y-26334345D01*
X110333500Y-27527500D01*
X110353500Y-27527500D01*
X110353500Y-27781500D01*
X110333500Y-27781500D01*
X110333500Y-30067500D01*
X110353500Y-30067500D01*
X110353500Y-30321500D01*
X110333500Y-30321500D01*
X110333500Y-30341500D01*
X110079500Y-30341500D01*
X110079500Y-30321500D01*
X107793500Y-30321500D01*
X107793500Y-30341500D01*
X107539500Y-30341500D01*
X107539500Y-30321500D01*
X105253500Y-30321500D01*
X105253500Y-30341500D01*
X104999500Y-30341500D01*
X104999500Y-30321500D01*
X102713500Y-30321500D01*
X102713500Y-30341500D01*
X102459500Y-30341500D01*
X102459500Y-30321500D01*
X100173500Y-30321500D01*
X100173500Y-30341500D01*
X99919500Y-30341500D01*
X99919500Y-30321500D01*
X97633500Y-30321500D01*
X97633500Y-30341500D01*
X97379500Y-30341500D01*
X97379500Y-30321500D01*
X96692441Y-30321500D01*
X96638145Y-30299010D01*
X96467165Y-30265000D01*
X96292835Y-30265000D01*
X96121855Y-30299010D01*
X96067559Y-30321500D01*
X95093500Y-30321500D01*
X95093500Y-30341500D01*
X94839500Y-30341500D01*
X94839500Y-30321500D01*
X94819500Y-30321500D01*
X94819500Y-30067500D01*
X94839500Y-30067500D01*
X94839500Y-30047500D01*
X95093500Y-30047500D01*
X95093500Y-30067500D01*
X97379500Y-30067500D01*
X97379500Y-30047500D01*
X97633500Y-30047500D01*
X97633500Y-30067500D01*
X99919500Y-30067500D01*
X99919500Y-30047500D01*
X100173500Y-30047500D01*
X100173500Y-30067500D01*
X102459500Y-30067500D01*
X102459500Y-30047500D01*
X102713500Y-30047500D01*
X102713500Y-30067500D01*
X104999500Y-30067500D01*
X104999500Y-27781500D01*
X105253500Y-27781500D01*
X105253500Y-30067500D01*
X107539500Y-30067500D01*
X107539500Y-27781500D01*
X107793500Y-27781500D01*
X107793500Y-30067500D01*
X110079500Y-30067500D01*
X110079500Y-27781500D01*
X107793500Y-27781500D01*
X107539500Y-27781500D01*
X105253500Y-27781500D01*
X104999500Y-27781500D01*
X104979500Y-27781500D01*
X104979500Y-27527500D01*
X104999500Y-27527500D01*
X104999500Y-26334345D01*
X105253500Y-26334345D01*
X105253500Y-27527500D01*
X107539500Y-27527500D01*
X107539500Y-26334345D01*
X107793500Y-26334345D01*
X107793500Y-27527500D01*
X110079500Y-27527500D01*
X110079500Y-26334345D01*
X109849610Y-26213024D01*
X109702401Y-26257675D01*
X109439580Y-26382859D01*
X109206231Y-26556912D01*
X109011322Y-26773145D01*
X108936500Y-26898755D01*
X108861678Y-26773145D01*
X108666769Y-26556912D01*
X108433420Y-26382859D01*
X108170599Y-26257675D01*
X108023390Y-26213024D01*
X107793500Y-26334345D01*
X107539500Y-26334345D01*
X107309610Y-26213024D01*
X107162401Y-26257675D01*
X106899580Y-26382859D01*
X106666231Y-26556912D01*
X106471322Y-26773145D01*
X106396500Y-26898755D01*
X106321678Y-26773145D01*
X106126769Y-26556912D01*
X105893420Y-26382859D01*
X105630599Y-26257675D01*
X105483390Y-26213024D01*
X105253500Y-26334345D01*
X104999500Y-26334345D01*
X104769610Y-26213024D01*
X104622401Y-26257675D01*
X104359580Y-26382859D01*
X104126231Y-26556912D01*
X103931322Y-26773145D01*
X103861701Y-26890023D01*
X103827206Y-26825486D01*
X103641634Y-26599366D01*
X103415514Y-26413794D01*
X103157534Y-26275901D01*
X102877611Y-26190987D01*
X102659450Y-26169500D01*
X102513550Y-26169500D01*
X102295389Y-26190987D01*
X102015466Y-26275901D01*
X101757486Y-26413794D01*
X101531366Y-26599366D01*
X101345794Y-26825486D01*
X101316500Y-26880291D01*
X101287206Y-26825486D01*
X101101634Y-26599366D01*
X100875514Y-26413794D01*
X100617534Y-26275901D01*
X100337611Y-26190987D01*
X100119450Y-26169500D01*
X99973550Y-26169500D01*
X99755389Y-26190987D01*
X99475466Y-26275901D01*
X99217486Y-26413794D01*
X98991366Y-26599366D01*
X98805794Y-26825486D01*
X98776500Y-26880291D01*
X98747206Y-26825486D01*
X98561634Y-26599366D01*
X98335514Y-26413794D01*
X98077534Y-26275901D01*
X97797611Y-26190987D01*
X97579450Y-26169500D01*
X97433550Y-26169500D01*
X97215389Y-26190987D01*
X96935466Y-26275901D01*
X96677486Y-26413794D01*
X96451366Y-26599366D01*
X96265794Y-26825486D01*
X96236500Y-26880291D01*
X96207206Y-26825486D01*
X96021634Y-26599366D01*
X95795514Y-26413794D01*
X95537534Y-26275901D01*
X95257611Y-26190987D01*
X95039450Y-26169500D01*
X94893550Y-26169500D01*
X94675389Y-26190987D01*
X94395466Y-26275901D01*
X94137486Y-26413794D01*
X93911366Y-26599366D01*
X93725794Y-26825486D01*
X93696500Y-26880291D01*
X93667206Y-26825486D01*
X93481634Y-26599366D01*
X93255514Y-26413794D01*
X92997534Y-26275901D01*
X92717611Y-26190987D01*
X92499450Y-26169500D01*
X92353550Y-26169500D01*
X92135389Y-26190987D01*
X91855466Y-26275901D01*
X91597486Y-26413794D01*
X91371366Y-26599366D01*
X91185794Y-26825486D01*
X91156500Y-26880291D01*
X91127206Y-26825486D01*
X90941634Y-26599366D01*
X90715514Y-26413794D01*
X90457534Y-26275901D01*
X90177611Y-26190987D01*
X89959450Y-26169500D01*
X89813550Y-26169500D01*
X89595389Y-26190987D01*
X89315466Y-26275901D01*
X89057486Y-26413794D01*
X88831366Y-26599366D01*
X88645794Y-26825486D01*
X88616500Y-26880291D01*
X88587206Y-26825486D01*
X88401634Y-26599366D01*
X88175514Y-26413794D01*
X87917534Y-26275901D01*
X87637611Y-26190987D01*
X87419450Y-26169500D01*
X87273550Y-26169500D01*
X87055389Y-26190987D01*
X86775466Y-26275901D01*
X86517486Y-26413794D01*
X86291366Y-26599366D01*
X86105794Y-26825486D01*
X86076500Y-26880291D01*
X86047206Y-26825486D01*
X85861634Y-26599366D01*
X85635514Y-26413794D01*
X85377534Y-26275901D01*
X85097611Y-26190987D01*
X84879450Y-26169500D01*
X84733550Y-26169500D01*
X84515389Y-26190987D01*
X84235466Y-26275901D01*
X83977486Y-26413794D01*
X83751366Y-26599366D01*
X83565794Y-26825486D01*
X83536500Y-26880291D01*
X83507206Y-26825486D01*
X83321634Y-26599366D01*
X83095514Y-26413794D01*
X82837534Y-26275901D01*
X82557611Y-26190987D01*
X82339450Y-26169500D01*
X82193550Y-26169500D01*
X81975389Y-26190987D01*
X81695466Y-26275901D01*
X81457587Y-26403050D01*
X81787065Y-25999069D01*
X82213664Y-25646156D01*
X82700681Y-25382827D01*
X83229578Y-25219106D01*
X83810960Y-25158000D01*
X141767721Y-25158000D01*
X142351010Y-25215192D01*
G36*
X141985794Y-28483514D02*
G01*
X142171366Y-28709634D01*
X142397486Y-28895206D01*
X142455256Y-28926084D01*
X142226231Y-29096912D01*
X142031322Y-29313145D01*
X141956500Y-29438755D01*
X141881678Y-29313145D01*
X141686769Y-29096912D01*
X141457744Y-28926084D01*
X141515514Y-28895206D01*
X141741634Y-28709634D01*
X141927206Y-28483514D01*
X141956500Y-28428709D01*
X141985794Y-28483514D01*
X141985794Y-28483514D01*
G37*
X141985794Y-28483514D02*
X142171366Y-28709634D01*
X142397486Y-28895206D01*
X142455256Y-28926084D01*
X142226231Y-29096912D01*
X142031322Y-29313145D01*
X141956500Y-29438755D01*
X141881678Y-29313145D01*
X141686769Y-29096912D01*
X141457744Y-28926084D01*
X141515514Y-28895206D01*
X141741634Y-28709634D01*
X141927206Y-28483514D01*
X141956500Y-28428709D01*
X141985794Y-28483514D01*
G36*
X124205794Y-28483514D02*
G01*
X124391366Y-28709634D01*
X124617486Y-28895206D01*
X124675256Y-28926084D01*
X124446231Y-29096912D01*
X124251322Y-29313145D01*
X124176500Y-29438755D01*
X124101678Y-29313145D01*
X123906769Y-29096912D01*
X123677744Y-28926084D01*
X123735514Y-28895206D01*
X123961634Y-28709634D01*
X124147206Y-28483514D01*
X124176500Y-28428709D01*
X124205794Y-28483514D01*
X124205794Y-28483514D01*
G37*
X124205794Y-28483514D02*
X124391366Y-28709634D01*
X124617486Y-28895206D01*
X124675256Y-28926084D01*
X124446231Y-29096912D01*
X124251322Y-29313145D01*
X124176500Y-29438755D01*
X124101678Y-29313145D01*
X123906769Y-29096912D01*
X123677744Y-28926084D01*
X123735514Y-28895206D01*
X123961634Y-28709634D01*
X124147206Y-28483514D01*
X124176500Y-28428709D01*
X124205794Y-28483514D01*
%TD*%
M02*
