%TF.GenerationSoftware,KiCad,Pcbnew,(5.1.4)-1*%
%TF.CreationDate,2020-08-22T20:00:45-05:00*%
%TF.ProjectId,daisy_chain_board,64616973-795f-4636-9861-696e5f626f61,rev?*%
%TF.SameCoordinates,PX59d60c0PY325aa00*%
%TF.FileFunction,Legend,Bot*%
%TF.FilePolarity,Positive*%
%FSLAX46Y46*%
G04 Gerber Fmt 4.6, Leading zero omitted, Abs format (unit mm)*
G04 Created by KiCad (PCBNEW (5.1.4)-1) date 2020-08-22 20:00:45*
%MOMM*%
%LPD*%
G04 APERTURE LIST*
%ADD10C,0.150000*%
%ADD11C,0.120000*%
%ADD12C,0.050000*%
%ADD13C,0.100000*%
%ADD14C,0.010000*%
%ADD15C,0.254000*%
G04 APERTURE END LIST*
D10*
X83110976Y-26392380D02*
X83110976Y-25392380D01*
X82920500Y-25392380D01*
X82806214Y-25440000D01*
X82730023Y-25535238D01*
X82691928Y-25630476D01*
X82653833Y-25820952D01*
X82653833Y-25963809D01*
X82691928Y-26154285D01*
X82730023Y-26249523D01*
X82806214Y-26344761D01*
X82920500Y-26392380D01*
X83110976Y-26392380D01*
X82158595Y-25392380D02*
X82082404Y-25392380D01*
X82006214Y-25440000D01*
X81968119Y-25487619D01*
X81930023Y-25582857D01*
X81891928Y-25773333D01*
X81891928Y-26011428D01*
X81930023Y-26201904D01*
X81968119Y-26297142D01*
X82006214Y-26344761D01*
X82082404Y-26392380D01*
X82158595Y-26392380D01*
X82234785Y-26344761D01*
X82272880Y-26297142D01*
X82310976Y-26201904D01*
X82349071Y-26011428D01*
X82349071Y-25773333D01*
X82310976Y-25582857D01*
X82272880Y-25487619D01*
X82234785Y-25440000D01*
X82158595Y-25392380D01*
X88138588Y-26392380D02*
X88138588Y-25392380D01*
X87948112Y-25392380D01*
X87833826Y-25440000D01*
X87757635Y-25535238D01*
X87719540Y-25630476D01*
X87681445Y-25820952D01*
X87681445Y-25963809D01*
X87719540Y-26154285D01*
X87757635Y-26249523D01*
X87833826Y-26344761D01*
X87948112Y-26392380D01*
X88138588Y-26392380D01*
X87376683Y-25487619D02*
X87338588Y-25440000D01*
X87262397Y-25392380D01*
X87071921Y-25392380D01*
X86995731Y-25440000D01*
X86957635Y-25487619D01*
X86919540Y-25582857D01*
X86919540Y-25678095D01*
X86957635Y-25820952D01*
X87414778Y-26392380D01*
X86919540Y-26392380D01*
X95680006Y-26392380D02*
X95680006Y-25392380D01*
X95489530Y-25392380D01*
X95375244Y-25440000D01*
X95299053Y-25535238D01*
X95260958Y-25630476D01*
X95222863Y-25820952D01*
X95222863Y-25963809D01*
X95260958Y-26154285D01*
X95299053Y-26249523D01*
X95375244Y-26344761D01*
X95489530Y-26392380D01*
X95680006Y-26392380D01*
X94499053Y-25392380D02*
X94880006Y-25392380D01*
X94918101Y-25868571D01*
X94880006Y-25820952D01*
X94803815Y-25773333D01*
X94613339Y-25773333D01*
X94537149Y-25820952D01*
X94499053Y-25868571D01*
X94460958Y-25963809D01*
X94460958Y-26201904D01*
X94499053Y-26297142D01*
X94537149Y-26344761D01*
X94613339Y-26392380D01*
X94803815Y-26392380D01*
X94880006Y-26344761D01*
X94918101Y-26297142D01*
X98193812Y-26392380D02*
X98193812Y-25392380D01*
X98003336Y-25392380D01*
X97889050Y-25440000D01*
X97812859Y-25535238D01*
X97774764Y-25630476D01*
X97736669Y-25820952D01*
X97736669Y-25963809D01*
X97774764Y-26154285D01*
X97812859Y-26249523D01*
X97889050Y-26344761D01*
X98003336Y-26392380D01*
X98193812Y-26392380D01*
X97050955Y-25392380D02*
X97203336Y-25392380D01*
X97279526Y-25440000D01*
X97317621Y-25487619D01*
X97393812Y-25630476D01*
X97431907Y-25820952D01*
X97431907Y-26201904D01*
X97393812Y-26297142D01*
X97355716Y-26344761D01*
X97279526Y-26392380D01*
X97127145Y-26392380D01*
X97050955Y-26344761D01*
X97012859Y-26297142D01*
X96974764Y-26201904D01*
X96974764Y-25963809D01*
X97012859Y-25868571D01*
X97050955Y-25820952D01*
X97127145Y-25773333D01*
X97279526Y-25773333D01*
X97355716Y-25820952D01*
X97393812Y-25868571D01*
X97431907Y-25963809D01*
X126113166Y-25932071D02*
X125998880Y-25979690D01*
X125960785Y-26027309D01*
X125922690Y-26122547D01*
X125922690Y-26265404D01*
X125960785Y-26360642D01*
X125998880Y-26408261D01*
X126075071Y-26455880D01*
X126379833Y-26455880D01*
X126379833Y-25455880D01*
X126113166Y-25455880D01*
X126036976Y-25503500D01*
X125998880Y-25551119D01*
X125960785Y-25646357D01*
X125960785Y-25741595D01*
X125998880Y-25836833D01*
X126036976Y-25884452D01*
X126113166Y-25932071D01*
X126379833Y-25932071D01*
X125617928Y-26408261D02*
X125503642Y-26455880D01*
X125313166Y-26455880D01*
X125236976Y-26408261D01*
X125198880Y-26360642D01*
X125160785Y-26265404D01*
X125160785Y-26170166D01*
X125198880Y-26074928D01*
X125236976Y-26027309D01*
X125313166Y-25979690D01*
X125465547Y-25932071D01*
X125541738Y-25884452D01*
X125579833Y-25836833D01*
X125617928Y-25741595D01*
X125617928Y-25646357D01*
X125579833Y-25551119D01*
X125541738Y-25503500D01*
X125465547Y-25455880D01*
X125275071Y-25455880D01*
X125160785Y-25503500D01*
X124665547Y-25979690D02*
X124665547Y-26455880D01*
X124932214Y-25455880D02*
X124665547Y-25979690D01*
X124398880Y-25455880D01*
X136657734Y-26408261D02*
X136543449Y-26455880D01*
X136352972Y-26455880D01*
X136276782Y-26408261D01*
X136238687Y-26360642D01*
X136200591Y-26265404D01*
X136200591Y-26170166D01*
X136238687Y-26074928D01*
X136276782Y-26027309D01*
X136352972Y-25979690D01*
X136505353Y-25932071D01*
X136581544Y-25884452D01*
X136619639Y-25836833D01*
X136657734Y-25741595D01*
X136657734Y-25646357D01*
X136619639Y-25551119D01*
X136581544Y-25503500D01*
X136505353Y-25455880D01*
X136314877Y-25455880D01*
X136200591Y-25503500D01*
X135857734Y-25932071D02*
X135591068Y-25932071D01*
X135476782Y-26455880D02*
X135857734Y-26455880D01*
X135857734Y-25455880D01*
X135476782Y-25455880D01*
X134752972Y-26455880D02*
X135133925Y-26455880D01*
X135133925Y-25455880D01*
X141549066Y-26455880D02*
X141815733Y-25979690D01*
X142006209Y-26455880D02*
X142006209Y-25455880D01*
X141701447Y-25455880D01*
X141625256Y-25503500D01*
X141587161Y-25551119D01*
X141549066Y-25646357D01*
X141549066Y-25789214D01*
X141587161Y-25884452D01*
X141625256Y-25932071D01*
X141701447Y-25979690D01*
X142006209Y-25979690D01*
X141206209Y-25932071D02*
X140939542Y-25932071D01*
X140825256Y-26455880D02*
X141206209Y-26455880D01*
X141206209Y-25455880D01*
X140825256Y-25455880D01*
X139949066Y-26551119D02*
X140025256Y-26503500D01*
X140101447Y-26408261D01*
X140215733Y-26265404D01*
X140291923Y-26217785D01*
X140368113Y-26217785D01*
X140330018Y-26455880D02*
X140406209Y-26408261D01*
X140482399Y-26313023D01*
X140520494Y-26122547D01*
X140520494Y-25789214D01*
X140482399Y-25598738D01*
X140406209Y-25503500D01*
X140330018Y-25455880D01*
X140177637Y-25455880D01*
X140101447Y-25503500D01*
X140025256Y-25598738D01*
X139987161Y-25789214D01*
X139987161Y-26122547D01*
X140025256Y-26313023D01*
X140101447Y-26408261D01*
X140177637Y-26455880D01*
X140330018Y-26455880D01*
X143518547Y-26455880D02*
X143518547Y-25455880D01*
X142985214Y-25455880D02*
X142832833Y-25455880D01*
X142756642Y-25503500D01*
X142680452Y-25598738D01*
X142642357Y-25789214D01*
X142642357Y-26122547D01*
X142680452Y-26313023D01*
X142756642Y-26408261D01*
X142832833Y-26455880D01*
X142985214Y-26455880D01*
X143061404Y-26408261D01*
X143137595Y-26313023D01*
X143175690Y-26122547D01*
X143175690Y-25789214D01*
X143137595Y-25598738D01*
X143061404Y-25503500D01*
X142985214Y-25455880D01*
X130966403Y-26455880D02*
X131233069Y-25979690D01*
X131423546Y-26455880D02*
X131423546Y-25455880D01*
X131118784Y-25455880D01*
X131042593Y-25503500D01*
X131004498Y-25551119D01*
X130966403Y-25646357D01*
X130966403Y-25789214D01*
X131004498Y-25884452D01*
X131042593Y-25932071D01*
X131118784Y-25979690D01*
X131423546Y-25979690D01*
X130661641Y-26408261D02*
X130547355Y-26455880D01*
X130356879Y-26455880D01*
X130280688Y-26408261D01*
X130242593Y-26360642D01*
X130204498Y-26265404D01*
X130204498Y-26170166D01*
X130242593Y-26074928D01*
X130280688Y-26027309D01*
X130356879Y-25979690D01*
X130509260Y-25932071D01*
X130585450Y-25884452D01*
X130623546Y-25836833D01*
X130661641Y-25741595D01*
X130661641Y-25646357D01*
X130623546Y-25551119D01*
X130585450Y-25503500D01*
X130509260Y-25455880D01*
X130318784Y-25455880D01*
X130204498Y-25503500D01*
X129975927Y-25455880D02*
X129518784Y-25455880D01*
X129747355Y-26455880D02*
X129747355Y-25455880D01*
X85624782Y-26392380D02*
X85624782Y-25392380D01*
X85434306Y-25392380D01*
X85320020Y-25440000D01*
X85243829Y-25535238D01*
X85205734Y-25630476D01*
X85167639Y-25820952D01*
X85167639Y-25963809D01*
X85205734Y-26154285D01*
X85243829Y-26249523D01*
X85320020Y-26344761D01*
X85434306Y-26392380D01*
X85624782Y-26392380D01*
X84405734Y-26392380D02*
X84862877Y-26392380D01*
X84634306Y-26392380D02*
X84634306Y-25392380D01*
X84710496Y-25535238D01*
X84786686Y-25630476D01*
X84862877Y-25678095D01*
X134193022Y-26455880D02*
X134193022Y-25455880D01*
X133926355Y-26170166D01*
X133659688Y-25455880D01*
X133659688Y-26455880D01*
X133316831Y-26408261D02*
X133202545Y-26455880D01*
X133012069Y-26455880D01*
X132935879Y-26408261D01*
X132897783Y-26360642D01*
X132859688Y-26265404D01*
X132859688Y-26170166D01*
X132897783Y-26074928D01*
X132935879Y-26027309D01*
X133012069Y-25979690D01*
X133164450Y-25932071D01*
X133240641Y-25884452D01*
X133278736Y-25836833D01*
X133316831Y-25741595D01*
X133316831Y-25646357D01*
X133278736Y-25551119D01*
X133240641Y-25503500D01*
X133164450Y-25455880D01*
X132973974Y-25455880D01*
X132859688Y-25503500D01*
X132097783Y-25503500D02*
X132173974Y-25455880D01*
X132288260Y-25455880D01*
X132402545Y-25503500D01*
X132478736Y-25598738D01*
X132516831Y-25693976D01*
X132554926Y-25884452D01*
X132554926Y-26027309D01*
X132516831Y-26217785D01*
X132478736Y-26313023D01*
X132402545Y-26408261D01*
X132288260Y-26455880D01*
X132212069Y-26455880D01*
X132097783Y-26408261D01*
X132059688Y-26360642D01*
X132059688Y-26027309D01*
X132212069Y-26027309D01*
X114232214Y-25455880D02*
X113775071Y-25455880D01*
X114003642Y-26455880D02*
X114003642Y-25455880D01*
X113508404Y-26455880D02*
X113508404Y-25455880D01*
X113203642Y-25455880D01*
X113127452Y-25503500D01*
X113089357Y-25551119D01*
X113051261Y-25646357D01*
X113051261Y-25789214D01*
X113089357Y-25884452D01*
X113127452Y-25932071D01*
X113203642Y-25979690D01*
X113508404Y-25979690D01*
X112784595Y-25455880D02*
X112594119Y-26455880D01*
X112441738Y-25741595D01*
X112289357Y-26455880D01*
X112098880Y-25455880D01*
X111336976Y-26455880D02*
X111603642Y-25979690D01*
X111794119Y-26455880D02*
X111794119Y-25455880D01*
X111489357Y-25455880D01*
X111413166Y-25503500D01*
X111375071Y-25551119D01*
X111336976Y-25646357D01*
X111336976Y-25789214D01*
X111375071Y-25884452D01*
X111413166Y-25932071D01*
X111489357Y-25979690D01*
X111794119Y-25979690D01*
X90652394Y-26392380D02*
X90652394Y-25392380D01*
X90461918Y-25392380D01*
X90347632Y-25440000D01*
X90271441Y-25535238D01*
X90233346Y-25630476D01*
X90195251Y-25820952D01*
X90195251Y-25963809D01*
X90233346Y-26154285D01*
X90271441Y-26249523D01*
X90347632Y-26344761D01*
X90461918Y-26392380D01*
X90652394Y-26392380D01*
X89928584Y-25392380D02*
X89433346Y-25392380D01*
X89700013Y-25773333D01*
X89585727Y-25773333D01*
X89509537Y-25820952D01*
X89471441Y-25868571D01*
X89433346Y-25963809D01*
X89433346Y-26201904D01*
X89471441Y-26297142D01*
X89509537Y-26344761D01*
X89585727Y-26392380D01*
X89814298Y-26392380D01*
X89890489Y-26344761D01*
X89928584Y-26297142D01*
X100707618Y-26392380D02*
X100707618Y-25392380D01*
X100517142Y-25392380D01*
X100402856Y-25440000D01*
X100326665Y-25535238D01*
X100288570Y-25630476D01*
X100250475Y-25820952D01*
X100250475Y-25963809D01*
X100288570Y-26154285D01*
X100326665Y-26249523D01*
X100402856Y-26344761D01*
X100517142Y-26392380D01*
X100707618Y-26392380D01*
X99983808Y-25392380D02*
X99450475Y-25392380D01*
X99793332Y-26392380D01*
X93166200Y-26392380D02*
X93166200Y-25392380D01*
X92975724Y-25392380D01*
X92861438Y-25440000D01*
X92785247Y-25535238D01*
X92747152Y-25630476D01*
X92709057Y-25820952D01*
X92709057Y-25963809D01*
X92747152Y-26154285D01*
X92785247Y-26249523D01*
X92861438Y-26344761D01*
X92975724Y-26392380D01*
X93166200Y-26392380D01*
X92023343Y-25725714D02*
X92023343Y-26392380D01*
X92213819Y-25344761D02*
X92404295Y-26059047D01*
X91909057Y-26059047D01*
X128996928Y-26170166D02*
X128615975Y-26170166D01*
X129073118Y-26455880D02*
X128806452Y-25455880D01*
X128539785Y-26455880D01*
X127815975Y-26360642D02*
X127854071Y-26408261D01*
X127968356Y-26455880D01*
X128044547Y-26455880D01*
X128158832Y-26408261D01*
X128235023Y-26313023D01*
X128273118Y-26217785D01*
X128311213Y-26027309D01*
X128311213Y-25884452D01*
X128273118Y-25693976D01*
X128235023Y-25598738D01*
X128158832Y-25503500D01*
X128044547Y-25455880D01*
X127968356Y-25455880D01*
X127854071Y-25503500D01*
X127815975Y-25551119D01*
X127473118Y-26455880D02*
X127473118Y-25455880D01*
X127015975Y-26455880D02*
X127358832Y-25884452D01*
X127015975Y-25455880D02*
X127473118Y-26027309D01*
X121217285Y-26170166D02*
X120836333Y-26170166D01*
X121293476Y-26455880D02*
X121026809Y-25455880D01*
X120760142Y-26455880D01*
X120607761Y-25455880D02*
X120150619Y-25455880D01*
X120379190Y-26455880D02*
X120379190Y-25455880D01*
X119883952Y-26455880D02*
X119883952Y-25455880D01*
X119426809Y-26455880D01*
X119426809Y-25455880D01*
X138893876Y-26360642D02*
X138931971Y-26408261D01*
X139046257Y-26455880D01*
X139122448Y-26455880D01*
X139236733Y-26408261D01*
X139312924Y-26313023D01*
X139351019Y-26217785D01*
X139389114Y-26027309D01*
X139389114Y-25884452D01*
X139351019Y-25693976D01*
X139312924Y-25598738D01*
X139236733Y-25503500D01*
X139122448Y-25455880D01*
X139046257Y-25455880D01*
X138931971Y-25503500D01*
X138893876Y-25551119D01*
X137979590Y-25408261D02*
X138665305Y-26693976D01*
X137712924Y-26455880D02*
X137712924Y-25455880D01*
X137522448Y-25455880D01*
X137408162Y-25503500D01*
X137331971Y-25598738D01*
X137293876Y-25693976D01*
X137255781Y-25884452D01*
X137255781Y-26027309D01*
X137293876Y-26217785D01*
X137331971Y-26313023D01*
X137408162Y-26408261D01*
X137522448Y-26455880D01*
X137712924Y-26455880D01*
X103259523Y-26392380D02*
X103259523Y-25392380D01*
X103069047Y-25392380D01*
X102954761Y-25440000D01*
X102878571Y-25535238D01*
X102840476Y-25630476D01*
X102802380Y-25820952D01*
X102802380Y-25963809D01*
X102840476Y-26154285D01*
X102878571Y-26249523D01*
X102954761Y-26344761D01*
X103069047Y-26392380D01*
X103259523Y-26392380D01*
X102459523Y-26392380D02*
X102459523Y-25392380D01*
X102154761Y-25392380D01*
X102078571Y-25440000D01*
X102040476Y-25487619D01*
X102002380Y-25582857D01*
X102002380Y-25725714D01*
X102040476Y-25820952D01*
X102078571Y-25868571D01*
X102154761Y-25916190D01*
X102459523Y-25916190D01*
D11*
X130717000Y-35973000D02*
X130717000Y-34385500D01*
X128304000Y-35973000D02*
X130717000Y-35973000D01*
X130844000Y-36100000D02*
X130844000Y-34385500D01*
X128177000Y-36100000D02*
X130844000Y-36100000D01*
D10*
X105018476Y-33758380D02*
X105018476Y-32758380D01*
X104828000Y-32758380D01*
X104713714Y-32806000D01*
X104637523Y-32901238D01*
X104599428Y-32996476D01*
X104561333Y-33186952D01*
X104561333Y-33329809D01*
X104599428Y-33520285D01*
X104637523Y-33615523D01*
X104713714Y-33710761D01*
X104828000Y-33758380D01*
X105018476Y-33758380D01*
X104294666Y-32758380D02*
X103799428Y-32758380D01*
X104066095Y-33139333D01*
X103951809Y-33139333D01*
X103875619Y-33186952D01*
X103837523Y-33234571D01*
X103799428Y-33329809D01*
X103799428Y-33567904D01*
X103837523Y-33663142D01*
X103875619Y-33710761D01*
X103951809Y-33758380D01*
X104180380Y-33758380D01*
X104256571Y-33710761D01*
X104294666Y-33663142D01*
X121503095Y-33758380D02*
X121769761Y-33282190D01*
X121960238Y-33758380D02*
X121960238Y-32758380D01*
X121655476Y-32758380D01*
X121579285Y-32806000D01*
X121541190Y-32853619D01*
X121503095Y-32948857D01*
X121503095Y-33091714D01*
X121541190Y-33186952D01*
X121579285Y-33234571D01*
X121655476Y-33282190D01*
X121960238Y-33282190D01*
X121198333Y-33710761D02*
X121084047Y-33758380D01*
X120893571Y-33758380D01*
X120817380Y-33710761D01*
X120779285Y-33663142D01*
X120741190Y-33567904D01*
X120741190Y-33472666D01*
X120779285Y-33377428D01*
X120817380Y-33329809D01*
X120893571Y-33282190D01*
X121045952Y-33234571D01*
X121122142Y-33186952D01*
X121160238Y-33139333D01*
X121198333Y-33044095D01*
X121198333Y-32948857D01*
X121160238Y-32853619D01*
X121122142Y-32806000D01*
X121045952Y-32758380D01*
X120855476Y-32758380D01*
X120741190Y-32806000D01*
X120512619Y-32758380D02*
X120055476Y-32758380D01*
X120284047Y-33758380D02*
X120284047Y-32758380D01*
X111832023Y-39727380D02*
X111832023Y-38727380D01*
X111641547Y-38727380D01*
X111527261Y-38775000D01*
X111451071Y-38870238D01*
X111412976Y-38965476D01*
X111374880Y-39155952D01*
X111374880Y-39298809D01*
X111412976Y-39489285D01*
X111451071Y-39584523D01*
X111527261Y-39679761D01*
X111641547Y-39727380D01*
X111832023Y-39727380D01*
X111032023Y-39727380D02*
X111032023Y-38727380D01*
X110727261Y-38727380D01*
X110651071Y-38775000D01*
X110612976Y-38822619D01*
X110574880Y-38917857D01*
X110574880Y-39060714D01*
X110612976Y-39155952D01*
X110651071Y-39203571D01*
X110727261Y-39251190D01*
X111032023Y-39251190D01*
X103494476Y-39727380D02*
X103494476Y-38727380D01*
X103304000Y-38727380D01*
X103189714Y-38775000D01*
X103113523Y-38870238D01*
X103075428Y-38965476D01*
X103037333Y-39155952D01*
X103037333Y-39298809D01*
X103075428Y-39489285D01*
X103113523Y-39584523D01*
X103189714Y-39679761D01*
X103304000Y-39727380D01*
X103494476Y-39727380D01*
X102351619Y-39060714D02*
X102351619Y-39727380D01*
X102542095Y-38679761D02*
X102732571Y-39394047D01*
X102237333Y-39394047D01*
X115121285Y-39679761D02*
X115007000Y-39727380D01*
X114816523Y-39727380D01*
X114740333Y-39679761D01*
X114702238Y-39632142D01*
X114664142Y-39536904D01*
X114664142Y-39441666D01*
X114702238Y-39346428D01*
X114740333Y-39298809D01*
X114816523Y-39251190D01*
X114968904Y-39203571D01*
X115045095Y-39155952D01*
X115083190Y-39108333D01*
X115121285Y-39013095D01*
X115121285Y-38917857D01*
X115083190Y-38822619D01*
X115045095Y-38775000D01*
X114968904Y-38727380D01*
X114778428Y-38727380D01*
X114664142Y-38775000D01*
X114321285Y-39203571D02*
X114054619Y-39203571D01*
X113940333Y-39727380D02*
X114321285Y-39727380D01*
X114321285Y-38727380D01*
X113940333Y-38727380D01*
X113216523Y-39727380D02*
X113597476Y-39727380D01*
X113597476Y-38727380D01*
X99430476Y-33758380D02*
X99430476Y-32758380D01*
X99240000Y-32758380D01*
X99125714Y-32806000D01*
X99049523Y-32901238D01*
X99011428Y-32996476D01*
X98973333Y-33186952D01*
X98973333Y-33329809D01*
X99011428Y-33520285D01*
X99049523Y-33615523D01*
X99125714Y-33710761D01*
X99240000Y-33758380D01*
X99430476Y-33758380D01*
X98287619Y-32758380D02*
X98440000Y-32758380D01*
X98516190Y-32806000D01*
X98554285Y-32853619D01*
X98630476Y-32996476D01*
X98668571Y-33186952D01*
X98668571Y-33567904D01*
X98630476Y-33663142D01*
X98592380Y-33710761D01*
X98516190Y-33758380D01*
X98363809Y-33758380D01*
X98287619Y-33710761D01*
X98249523Y-33663142D01*
X98211428Y-33567904D01*
X98211428Y-33329809D01*
X98249523Y-33234571D01*
X98287619Y-33186952D01*
X98363809Y-33139333D01*
X98516190Y-33139333D01*
X98592380Y-33186952D01*
X98630476Y-33234571D01*
X98668571Y-33329809D01*
X109145976Y-39727380D02*
X109145976Y-38727380D01*
X108955500Y-38727380D01*
X108841214Y-38775000D01*
X108765023Y-38870238D01*
X108726928Y-38965476D01*
X108688833Y-39155952D01*
X108688833Y-39298809D01*
X108726928Y-39489285D01*
X108765023Y-39584523D01*
X108841214Y-39679761D01*
X108955500Y-39727380D01*
X109145976Y-39727380D01*
X107926928Y-39727380D02*
X108384071Y-39727380D01*
X108155500Y-39727380D02*
X108155500Y-38727380D01*
X108231690Y-38870238D01*
X108307880Y-38965476D01*
X108384071Y-39013095D01*
X102224476Y-33758380D02*
X102224476Y-32758380D01*
X102034000Y-32758380D01*
X101919714Y-32806000D01*
X101843523Y-32901238D01*
X101805428Y-32996476D01*
X101767333Y-33186952D01*
X101767333Y-33329809D01*
X101805428Y-33520285D01*
X101843523Y-33615523D01*
X101919714Y-33710761D01*
X102034000Y-33758380D01*
X102224476Y-33758380D01*
X101043523Y-32758380D02*
X101424476Y-32758380D01*
X101462571Y-33234571D01*
X101424476Y-33186952D01*
X101348285Y-33139333D01*
X101157809Y-33139333D01*
X101081619Y-33186952D01*
X101043523Y-33234571D01*
X101005428Y-33329809D01*
X101005428Y-33567904D01*
X101043523Y-33663142D01*
X101081619Y-33710761D01*
X101157809Y-33758380D01*
X101348285Y-33758380D01*
X101424476Y-33710761D01*
X101462571Y-33663142D01*
X96699976Y-33758380D02*
X96699976Y-32758380D01*
X96509500Y-32758380D01*
X96395214Y-32806000D01*
X96319023Y-32901238D01*
X96280928Y-32996476D01*
X96242833Y-33186952D01*
X96242833Y-33329809D01*
X96280928Y-33520285D01*
X96319023Y-33615523D01*
X96395214Y-33710761D01*
X96509500Y-33758380D01*
X96699976Y-33758380D01*
X95976166Y-32758380D02*
X95442833Y-32758380D01*
X95785690Y-33758380D01*
X99119214Y-38727380D02*
X98662071Y-38727380D01*
X98890642Y-39727380D02*
X98890642Y-38727380D01*
X98395404Y-39727380D02*
X98395404Y-38727380D01*
X98090642Y-38727380D01*
X98014452Y-38775000D01*
X97976357Y-38822619D01*
X97938261Y-38917857D01*
X97938261Y-39060714D01*
X97976357Y-39155952D01*
X98014452Y-39203571D01*
X98090642Y-39251190D01*
X98395404Y-39251190D01*
X97671595Y-38727380D02*
X97481119Y-39727380D01*
X97328738Y-39013095D01*
X97176357Y-39727380D01*
X96985880Y-38727380D01*
X96223976Y-39727380D02*
X96490642Y-39251190D01*
X96681119Y-39727380D02*
X96681119Y-38727380D01*
X96376357Y-38727380D01*
X96300166Y-38775000D01*
X96262071Y-38822619D01*
X96223976Y-38917857D01*
X96223976Y-39060714D01*
X96262071Y-39155952D01*
X96300166Y-39203571D01*
X96376357Y-39251190D01*
X96681119Y-39251190D01*
X106415476Y-39727380D02*
X106415476Y-38727380D01*
X106225000Y-38727380D01*
X106110714Y-38775000D01*
X106034523Y-38870238D01*
X105996428Y-38965476D01*
X105958333Y-39155952D01*
X105958333Y-39298809D01*
X105996428Y-39489285D01*
X106034523Y-39584523D01*
X106110714Y-39679761D01*
X106225000Y-39727380D01*
X106415476Y-39727380D01*
X105653571Y-38822619D02*
X105615476Y-38775000D01*
X105539285Y-38727380D01*
X105348809Y-38727380D01*
X105272619Y-38775000D01*
X105234523Y-38822619D01*
X105196428Y-38917857D01*
X105196428Y-39013095D01*
X105234523Y-39155952D01*
X105691666Y-39727380D01*
X105196428Y-39727380D01*
X110606476Y-33758380D02*
X110606476Y-32758380D01*
X110416000Y-32758380D01*
X110301714Y-32806000D01*
X110225523Y-32901238D01*
X110187428Y-32996476D01*
X110149333Y-33186952D01*
X110149333Y-33329809D01*
X110187428Y-33520285D01*
X110225523Y-33615523D01*
X110301714Y-33710761D01*
X110416000Y-33758380D01*
X110606476Y-33758380D01*
X109654095Y-32758380D02*
X109577904Y-32758380D01*
X109501714Y-32806000D01*
X109463619Y-32853619D01*
X109425523Y-32948857D01*
X109387428Y-33139333D01*
X109387428Y-33377428D01*
X109425523Y-33567904D01*
X109463619Y-33663142D01*
X109501714Y-33710761D01*
X109577904Y-33758380D01*
X109654095Y-33758380D01*
X109730285Y-33710761D01*
X109768380Y-33663142D01*
X109806476Y-33567904D01*
X109844571Y-33377428D01*
X109844571Y-33139333D01*
X109806476Y-32948857D01*
X109768380Y-32853619D01*
X109730285Y-32806000D01*
X109654095Y-32758380D01*
X125700428Y-39632142D02*
X125738523Y-39679761D01*
X125852809Y-39727380D01*
X125929000Y-39727380D01*
X126043285Y-39679761D01*
X126119476Y-39584523D01*
X126157571Y-39489285D01*
X126195666Y-39298809D01*
X126195666Y-39155952D01*
X126157571Y-38965476D01*
X126119476Y-38870238D01*
X126043285Y-38775000D01*
X125929000Y-38727380D01*
X125852809Y-38727380D01*
X125738523Y-38775000D01*
X125700428Y-38822619D01*
X124786142Y-38679761D02*
X125471857Y-39965476D01*
X124519476Y-39727380D02*
X124519476Y-38727380D01*
X124329000Y-38727380D01*
X124214714Y-38775000D01*
X124138523Y-38870238D01*
X124100428Y-38965476D01*
X124062333Y-39155952D01*
X124062333Y-39298809D01*
X124100428Y-39489285D01*
X124138523Y-39584523D01*
X124214714Y-39679761D01*
X124329000Y-39727380D01*
X124519476Y-39727380D01*
X129980333Y-33758380D02*
X130247000Y-33282190D01*
X130437476Y-33758380D02*
X130437476Y-32758380D01*
X130132714Y-32758380D01*
X130056523Y-32806000D01*
X130018428Y-32853619D01*
X129980333Y-32948857D01*
X129980333Y-33091714D01*
X130018428Y-33186952D01*
X130056523Y-33234571D01*
X130132714Y-33282190D01*
X130437476Y-33282190D01*
X129637476Y-33234571D02*
X129370809Y-33234571D01*
X129256523Y-33758380D02*
X129637476Y-33758380D01*
X129637476Y-32758380D01*
X129256523Y-32758380D01*
X128380333Y-33853619D02*
X128456523Y-33806000D01*
X128532714Y-33710761D01*
X128647000Y-33567904D01*
X128723190Y-33520285D01*
X128799380Y-33520285D01*
X128761285Y-33758380D02*
X128837476Y-33710761D01*
X128913666Y-33615523D01*
X128951761Y-33425047D01*
X128951761Y-33091714D01*
X128913666Y-32901238D01*
X128837476Y-32806000D01*
X128761285Y-32758380D01*
X128608904Y-32758380D01*
X128532714Y-32806000D01*
X128456523Y-32901238D01*
X128418428Y-33091714D01*
X128418428Y-33425047D01*
X128456523Y-33615523D01*
X128532714Y-33710761D01*
X128608904Y-33758380D01*
X128761285Y-33758380D01*
X124570095Y-33758380D02*
X124570095Y-32758380D01*
X123617714Y-32710761D02*
X124303428Y-33996476D01*
X123198666Y-32758380D02*
X123046285Y-32758380D01*
X122970095Y-32806000D01*
X122893904Y-32901238D01*
X122855809Y-33091714D01*
X122855809Y-33425047D01*
X122893904Y-33615523D01*
X122970095Y-33710761D01*
X123046285Y-33758380D01*
X123198666Y-33758380D01*
X123274857Y-33710761D01*
X123351047Y-33615523D01*
X123389142Y-33425047D01*
X123389142Y-33091714D01*
X123351047Y-32901238D01*
X123274857Y-32806000D01*
X123198666Y-32758380D01*
X120518785Y-39441666D02*
X120137833Y-39441666D01*
X120594976Y-39727380D02*
X120328309Y-38727380D01*
X120061642Y-39727380D01*
X119909261Y-38727380D02*
X119452119Y-38727380D01*
X119680690Y-39727380D02*
X119680690Y-38727380D01*
X119185452Y-39727380D02*
X119185452Y-38727380D01*
X118728309Y-39727380D01*
X118728309Y-38727380D01*
X119324976Y-33472666D02*
X118944023Y-33472666D01*
X119401166Y-33758380D02*
X119134500Y-32758380D01*
X118867833Y-33758380D01*
X118144023Y-33663142D02*
X118182119Y-33710761D01*
X118296404Y-33758380D01*
X118372595Y-33758380D01*
X118486880Y-33710761D01*
X118563071Y-33615523D01*
X118601166Y-33520285D01*
X118639261Y-33329809D01*
X118639261Y-33186952D01*
X118601166Y-32996476D01*
X118563071Y-32901238D01*
X118486880Y-32806000D01*
X118372595Y-32758380D01*
X118296404Y-32758380D01*
X118182119Y-32806000D01*
X118144023Y-32853619D01*
X117801166Y-33758380D02*
X117801166Y-32758380D01*
X117344023Y-33758380D02*
X117686880Y-33186952D01*
X117344023Y-32758380D02*
X117801166Y-33329809D01*
X127700619Y-33758380D02*
X127700619Y-32758380D01*
X127433952Y-33472666D01*
X127167285Y-32758380D01*
X127167285Y-33758380D01*
X126824428Y-33710761D02*
X126710142Y-33758380D01*
X126519666Y-33758380D01*
X126443476Y-33710761D01*
X126405380Y-33663142D01*
X126367285Y-33567904D01*
X126367285Y-33472666D01*
X126405380Y-33377428D01*
X126443476Y-33329809D01*
X126519666Y-33282190D01*
X126672047Y-33234571D01*
X126748238Y-33186952D01*
X126786333Y-33139333D01*
X126824428Y-33044095D01*
X126824428Y-32948857D01*
X126786333Y-32853619D01*
X126748238Y-32806000D01*
X126672047Y-32758380D01*
X126481571Y-32758380D01*
X126367285Y-32806000D01*
X125605380Y-32806000D02*
X125681571Y-32758380D01*
X125795857Y-32758380D01*
X125910142Y-32806000D01*
X125986333Y-32901238D01*
X126024428Y-32996476D01*
X126062523Y-33186952D01*
X126062523Y-33329809D01*
X126024428Y-33520285D01*
X125986333Y-33615523D01*
X125910142Y-33710761D01*
X125795857Y-33758380D01*
X125719666Y-33758380D01*
X125605380Y-33710761D01*
X125567285Y-33663142D01*
X125567285Y-33329809D01*
X125719666Y-33329809D01*
X116270666Y-33234571D02*
X116156380Y-33282190D01*
X116118285Y-33329809D01*
X116080190Y-33425047D01*
X116080190Y-33567904D01*
X116118285Y-33663142D01*
X116156380Y-33710761D01*
X116232571Y-33758380D01*
X116537333Y-33758380D01*
X116537333Y-32758380D01*
X116270666Y-32758380D01*
X116194476Y-32806000D01*
X116156380Y-32853619D01*
X116118285Y-32948857D01*
X116118285Y-33044095D01*
X116156380Y-33139333D01*
X116194476Y-33186952D01*
X116270666Y-33234571D01*
X116537333Y-33234571D01*
X115775428Y-33710761D02*
X115661142Y-33758380D01*
X115470666Y-33758380D01*
X115394476Y-33710761D01*
X115356380Y-33663142D01*
X115318285Y-33567904D01*
X115318285Y-33472666D01*
X115356380Y-33377428D01*
X115394476Y-33329809D01*
X115470666Y-33282190D01*
X115623047Y-33234571D01*
X115699238Y-33186952D01*
X115737333Y-33139333D01*
X115775428Y-33044095D01*
X115775428Y-32948857D01*
X115737333Y-32853619D01*
X115699238Y-32806000D01*
X115623047Y-32758380D01*
X115432571Y-32758380D01*
X115318285Y-32806000D01*
X114823047Y-33282190D02*
X114823047Y-33758380D01*
X115089714Y-32758380D02*
X114823047Y-33282190D01*
X114556380Y-32758380D01*
D11*
X128304000Y-35973000D02*
X130717000Y-35973000D01*
X128304000Y-34385500D02*
X128304000Y-35973000D01*
X128177000Y-36100000D02*
X130844000Y-36100000D01*
X128177000Y-34385500D02*
X128177000Y-36100000D01*
X144560000Y-31528000D02*
X83473000Y-31528000D01*
X144560000Y-26321000D02*
X144560000Y-31528000D01*
X80933000Y-28988000D02*
X80933000Y-26321000D01*
X83473000Y-28988000D02*
X80933000Y-28988000D01*
X83473000Y-31528000D02*
X83473000Y-28988000D01*
X80933000Y-31528000D02*
X82330000Y-31528000D01*
X80933000Y-30131000D02*
X80933000Y-31528000D01*
D10*
X85257119Y-32423357D02*
X85142833Y-32461452D01*
X85104738Y-32499547D01*
X85066642Y-32575738D01*
X85066642Y-32690023D01*
X85104738Y-32766214D01*
X85142833Y-32804309D01*
X85219023Y-32842404D01*
X85523785Y-32842404D01*
X85523785Y-32042404D01*
X85257119Y-32042404D01*
X85180928Y-32080500D01*
X85142833Y-32118595D01*
X85104738Y-32194785D01*
X85104738Y-32270976D01*
X85142833Y-32347166D01*
X85180928Y-32385261D01*
X85257119Y-32423357D01*
X85523785Y-32423357D01*
X84571404Y-32042404D02*
X84419023Y-32042404D01*
X84342833Y-32080500D01*
X84266642Y-32156690D01*
X84228547Y-32309071D01*
X84228547Y-32575738D01*
X84266642Y-32728119D01*
X84342833Y-32804309D01*
X84419023Y-32842404D01*
X84571404Y-32842404D01*
X84647595Y-32804309D01*
X84723785Y-32728119D01*
X84761880Y-32575738D01*
X84761880Y-32309071D01*
X84723785Y-32156690D01*
X84647595Y-32080500D01*
X84571404Y-32042404D01*
X83999976Y-32042404D02*
X83542833Y-32042404D01*
X83771404Y-32842404D02*
X83771404Y-32042404D01*
X83390452Y-32042404D02*
X82933309Y-32042404D01*
X83161880Y-32842404D02*
X83161880Y-32042404D01*
X82514261Y-32042404D02*
X82361880Y-32042404D01*
X82285690Y-32080500D01*
X82209500Y-32156690D01*
X82171404Y-32309071D01*
X82171404Y-32575738D01*
X82209500Y-32728119D01*
X82285690Y-32804309D01*
X82361880Y-32842404D01*
X82514261Y-32842404D01*
X82590452Y-32804309D01*
X82666642Y-32728119D01*
X82704738Y-32575738D01*
X82704738Y-32309071D01*
X82666642Y-32156690D01*
X82590452Y-32080500D01*
X82514261Y-32042404D01*
X81828547Y-32842404D02*
X81828547Y-32042404D01*
X81561880Y-32613833D01*
X81295214Y-32042404D01*
X81295214Y-32842404D01*
X120515666Y-42902380D02*
X120515666Y-41902380D01*
X120087095Y-42902380D02*
X120087095Y-42378571D01*
X120134714Y-42283333D01*
X120229952Y-42235714D01*
X120372809Y-42235714D01*
X120468047Y-42283333D01*
X120515666Y-42330952D01*
X119753761Y-42235714D02*
X119372809Y-42235714D01*
X119610904Y-41902380D02*
X119610904Y-42759523D01*
X119563285Y-42854761D01*
X119468047Y-42902380D01*
X119372809Y-42902380D01*
X119182333Y-42235714D02*
X118801380Y-42235714D01*
X119039476Y-41902380D02*
X119039476Y-42759523D01*
X118991857Y-42854761D01*
X118896619Y-42902380D01*
X118801380Y-42902380D01*
X118468047Y-42235714D02*
X118468047Y-43235714D01*
X118468047Y-42283333D02*
X118372809Y-42235714D01*
X118182333Y-42235714D01*
X118087095Y-42283333D01*
X118039476Y-42330952D01*
X117991857Y-42426190D01*
X117991857Y-42711904D01*
X118039476Y-42807142D01*
X118087095Y-42854761D01*
X118182333Y-42902380D01*
X118372809Y-42902380D01*
X118468047Y-42854761D01*
X117610904Y-42854761D02*
X117515666Y-42902380D01*
X117325190Y-42902380D01*
X117229952Y-42854761D01*
X117182333Y-42759523D01*
X117182333Y-42711904D01*
X117229952Y-42616666D01*
X117325190Y-42569047D01*
X117468047Y-42569047D01*
X117563285Y-42521428D01*
X117610904Y-42426190D01*
X117610904Y-42378571D01*
X117563285Y-42283333D01*
X117468047Y-42235714D01*
X117325190Y-42235714D01*
X117229952Y-42283333D01*
X116753761Y-42807142D02*
X116706142Y-42854761D01*
X116753761Y-42902380D01*
X116801380Y-42854761D01*
X116753761Y-42807142D01*
X116753761Y-42902380D01*
X116753761Y-42283333D02*
X116706142Y-42330952D01*
X116753761Y-42378571D01*
X116801380Y-42330952D01*
X116753761Y-42283333D01*
X116753761Y-42378571D01*
X115563285Y-41854761D02*
X116420428Y-43140476D01*
X114515666Y-41854761D02*
X115372809Y-43140476D01*
X113753761Y-42235714D02*
X113753761Y-43045238D01*
X113801380Y-43140476D01*
X113849000Y-43188095D01*
X113944238Y-43235714D01*
X114087095Y-43235714D01*
X114182333Y-43188095D01*
X113753761Y-42854761D02*
X113849000Y-42902380D01*
X114039476Y-42902380D01*
X114134714Y-42854761D01*
X114182333Y-42807142D01*
X114229952Y-42711904D01*
X114229952Y-42426190D01*
X114182333Y-42330952D01*
X114134714Y-42283333D01*
X114039476Y-42235714D01*
X113849000Y-42235714D01*
X113753761Y-42283333D01*
X113277571Y-42902380D02*
X113277571Y-42235714D01*
X113277571Y-41902380D02*
X113325190Y-41950000D01*
X113277571Y-41997619D01*
X113229952Y-41950000D01*
X113277571Y-41902380D01*
X113277571Y-41997619D01*
X112944238Y-42235714D02*
X112563285Y-42235714D01*
X112801380Y-41902380D02*
X112801380Y-42759523D01*
X112753761Y-42854761D01*
X112658523Y-42902380D01*
X112563285Y-42902380D01*
X112229952Y-42902380D02*
X112229952Y-41902380D01*
X111801380Y-42902380D02*
X111801380Y-42378571D01*
X111849000Y-42283333D01*
X111944238Y-42235714D01*
X112087095Y-42235714D01*
X112182333Y-42283333D01*
X112229952Y-42330952D01*
X110896619Y-42235714D02*
X110896619Y-42902380D01*
X111325190Y-42235714D02*
X111325190Y-42759523D01*
X111277571Y-42854761D01*
X111182333Y-42902380D01*
X111039476Y-42902380D01*
X110944238Y-42854761D01*
X110896619Y-42807142D01*
X110420428Y-42902380D02*
X110420428Y-41902380D01*
X110420428Y-42283333D02*
X110325190Y-42235714D01*
X110134714Y-42235714D01*
X110039476Y-42283333D01*
X109991857Y-42330952D01*
X109944238Y-42426190D01*
X109944238Y-42711904D01*
X109991857Y-42807142D01*
X110039476Y-42854761D01*
X110134714Y-42902380D01*
X110325190Y-42902380D01*
X110420428Y-42854761D01*
X109515666Y-42807142D02*
X109468047Y-42854761D01*
X109515666Y-42902380D01*
X109563285Y-42854761D01*
X109515666Y-42807142D01*
X109515666Y-42902380D01*
X108610904Y-42854761D02*
X108706142Y-42902380D01*
X108896619Y-42902380D01*
X108991857Y-42854761D01*
X109039476Y-42807142D01*
X109087095Y-42711904D01*
X109087095Y-42426190D01*
X109039476Y-42330952D01*
X108991857Y-42283333D01*
X108896619Y-42235714D01*
X108706142Y-42235714D01*
X108610904Y-42283333D01*
X108039476Y-42902380D02*
X108134714Y-42854761D01*
X108182333Y-42807142D01*
X108229952Y-42711904D01*
X108229952Y-42426190D01*
X108182333Y-42330952D01*
X108134714Y-42283333D01*
X108039476Y-42235714D01*
X107896619Y-42235714D01*
X107801380Y-42283333D01*
X107753761Y-42330952D01*
X107706142Y-42426190D01*
X107706142Y-42711904D01*
X107753761Y-42807142D01*
X107801380Y-42854761D01*
X107896619Y-42902380D01*
X108039476Y-42902380D01*
X107277571Y-42902380D02*
X107277571Y-42235714D01*
X107277571Y-42330952D02*
X107229952Y-42283333D01*
X107134714Y-42235714D01*
X106991857Y-42235714D01*
X106896619Y-42283333D01*
X106849000Y-42378571D01*
X106849000Y-42902380D01*
X106849000Y-42378571D02*
X106801380Y-42283333D01*
X106706142Y-42235714D01*
X106563285Y-42235714D01*
X106468047Y-42283333D01*
X106420428Y-42378571D01*
X106420428Y-42902380D01*
X105229952Y-41854761D02*
X106087095Y-43140476D01*
X104468047Y-42902380D02*
X104468047Y-42378571D01*
X104515666Y-42283333D01*
X104610904Y-42235714D01*
X104801380Y-42235714D01*
X104896619Y-42283333D01*
X104468047Y-42854761D02*
X104563285Y-42902380D01*
X104801380Y-42902380D01*
X104896619Y-42854761D01*
X104944238Y-42759523D01*
X104944238Y-42664285D01*
X104896619Y-42569047D01*
X104801380Y-42521428D01*
X104563285Y-42521428D01*
X104468047Y-42473809D01*
X103991857Y-42902380D02*
X103991857Y-41902380D01*
X103896619Y-42521428D02*
X103610904Y-42902380D01*
X103610904Y-42235714D02*
X103991857Y-42616666D01*
X102753761Y-42235714D02*
X102753761Y-42902380D01*
X103182333Y-42235714D02*
X103182333Y-42759523D01*
X103134714Y-42854761D01*
X103039476Y-42902380D01*
X102896619Y-42902380D01*
X102801380Y-42854761D01*
X102753761Y-42807142D01*
X102277571Y-42902380D02*
X102277571Y-41902380D01*
X102182333Y-42521428D02*
X101896619Y-42902380D01*
X101896619Y-42235714D02*
X102277571Y-42616666D01*
X101087095Y-42854761D02*
X101182333Y-42902380D01*
X101372809Y-42902380D01*
X101468047Y-42854761D01*
X101515666Y-42759523D01*
X101515666Y-42378571D01*
X101468047Y-42283333D01*
X101372809Y-42235714D01*
X101182333Y-42235714D01*
X101087095Y-42283333D01*
X101039476Y-42378571D01*
X101039476Y-42473809D01*
X101515666Y-42569047D01*
X100610904Y-42902380D02*
X100610904Y-42235714D01*
X100610904Y-42426190D02*
X100563285Y-42330952D01*
X100515666Y-42283333D01*
X100420428Y-42235714D01*
X100325190Y-42235714D01*
X99277571Y-41854761D02*
X100134714Y-43140476D01*
X98372809Y-42902380D02*
X98706142Y-42426190D01*
X98944238Y-42902380D02*
X98944238Y-41902380D01*
X98563285Y-41902380D01*
X98468047Y-41950000D01*
X98420428Y-41997619D01*
X98372809Y-42092857D01*
X98372809Y-42235714D01*
X98420428Y-42330952D01*
X98468047Y-42378571D01*
X98563285Y-42426190D01*
X98944238Y-42426190D01*
X97991857Y-42616666D02*
X97515666Y-42616666D01*
X98087095Y-42902380D02*
X97753761Y-41902380D01*
X97420428Y-42902380D01*
X97134714Y-42854761D02*
X96991857Y-42902380D01*
X96753761Y-42902380D01*
X96658523Y-42854761D01*
X96610904Y-42807142D01*
X96563285Y-42711904D01*
X96563285Y-42616666D01*
X96610904Y-42521428D01*
X96658523Y-42473809D01*
X96753761Y-42426190D01*
X96944238Y-42378571D01*
X97039476Y-42330952D01*
X97087095Y-42283333D01*
X97134714Y-42188095D01*
X97134714Y-42092857D01*
X97087095Y-41997619D01*
X97039476Y-41950000D01*
X96944238Y-41902380D01*
X96706142Y-41902380D01*
X96563285Y-41950000D01*
X95563285Y-42807142D02*
X95610904Y-42854761D01*
X95753761Y-42902380D01*
X95849000Y-42902380D01*
X95991857Y-42854761D01*
X96087095Y-42759523D01*
X96134714Y-42664285D01*
X96182333Y-42473809D01*
X96182333Y-42330952D01*
X96134714Y-42140476D01*
X96087095Y-42045238D01*
X95991857Y-41950000D01*
X95849000Y-41902380D01*
X95753761Y-41902380D01*
X95610904Y-41950000D01*
X95563285Y-41997619D01*
X95182333Y-42854761D02*
X95039476Y-42902380D01*
X94801380Y-42902380D01*
X94706142Y-42854761D01*
X94658523Y-42807142D01*
X94610904Y-42711904D01*
X94610904Y-42616666D01*
X94658523Y-42521428D01*
X94706142Y-42473809D01*
X94801380Y-42426190D01*
X94991857Y-42378571D01*
X95087095Y-42330952D01*
X95134714Y-42283333D01*
X95182333Y-42188095D01*
X95182333Y-42092857D01*
X95134714Y-41997619D01*
X95087095Y-41950000D01*
X94991857Y-41902380D01*
X94753761Y-41902380D01*
X94610904Y-41950000D01*
X94182333Y-42902380D02*
X94182333Y-41902380D01*
X120357452Y-44632761D02*
X120214595Y-44680380D01*
X119976500Y-44680380D01*
X119881261Y-44632761D01*
X119833642Y-44585142D01*
X119786023Y-44489904D01*
X119786023Y-44394666D01*
X119833642Y-44299428D01*
X119881261Y-44251809D01*
X119976500Y-44204190D01*
X120166976Y-44156571D01*
X120262214Y-44108952D01*
X120309833Y-44061333D01*
X120357452Y-43966095D01*
X120357452Y-43870857D01*
X120309833Y-43775619D01*
X120262214Y-43728000D01*
X120166976Y-43680380D01*
X119928880Y-43680380D01*
X119786023Y-43728000D01*
X118786023Y-44585142D02*
X118833642Y-44632761D01*
X118976500Y-44680380D01*
X119071738Y-44680380D01*
X119214595Y-44632761D01*
X119309833Y-44537523D01*
X119357452Y-44442285D01*
X119405071Y-44251809D01*
X119405071Y-44108952D01*
X119357452Y-43918476D01*
X119309833Y-43823238D01*
X119214595Y-43728000D01*
X119071738Y-43680380D01*
X118976500Y-43680380D01*
X118833642Y-43728000D01*
X118786023Y-43775619D01*
X118405071Y-44632761D02*
X118262214Y-44680380D01*
X118024119Y-44680380D01*
X117928880Y-44632761D01*
X117881261Y-44585142D01*
X117833642Y-44489904D01*
X117833642Y-44394666D01*
X117881261Y-44299428D01*
X117928880Y-44251809D01*
X118024119Y-44204190D01*
X118214595Y-44156571D01*
X118309833Y-44108952D01*
X118357452Y-44061333D01*
X118405071Y-43966095D01*
X118405071Y-43870857D01*
X118357452Y-43775619D01*
X118309833Y-43728000D01*
X118214595Y-43680380D01*
X117976500Y-43680380D01*
X117833642Y-43728000D01*
X117405071Y-44680380D02*
X117405071Y-43680380D01*
X116166976Y-44680380D02*
X116166976Y-43680380D01*
X115928880Y-43680380D01*
X115786023Y-43728000D01*
X115690785Y-43823238D01*
X115643166Y-43918476D01*
X115595547Y-44108952D01*
X115595547Y-44251809D01*
X115643166Y-44442285D01*
X115690785Y-44537523D01*
X115786023Y-44632761D01*
X115928880Y-44680380D01*
X116166976Y-44680380D01*
X114738404Y-44680380D02*
X114738404Y-44156571D01*
X114786023Y-44061333D01*
X114881261Y-44013714D01*
X115071738Y-44013714D01*
X115166976Y-44061333D01*
X114738404Y-44632761D02*
X114833642Y-44680380D01*
X115071738Y-44680380D01*
X115166976Y-44632761D01*
X115214595Y-44537523D01*
X115214595Y-44442285D01*
X115166976Y-44347047D01*
X115071738Y-44299428D01*
X114833642Y-44299428D01*
X114738404Y-44251809D01*
X114262214Y-44680380D02*
X114262214Y-44013714D01*
X114262214Y-43680380D02*
X114309833Y-43728000D01*
X114262214Y-43775619D01*
X114214595Y-43728000D01*
X114262214Y-43680380D01*
X114262214Y-43775619D01*
X113833642Y-44632761D02*
X113738404Y-44680380D01*
X113547928Y-44680380D01*
X113452690Y-44632761D01*
X113405071Y-44537523D01*
X113405071Y-44489904D01*
X113452690Y-44394666D01*
X113547928Y-44347047D01*
X113690785Y-44347047D01*
X113786023Y-44299428D01*
X113833642Y-44204190D01*
X113833642Y-44156571D01*
X113786023Y-44061333D01*
X113690785Y-44013714D01*
X113547928Y-44013714D01*
X113452690Y-44061333D01*
X113071738Y-44013714D02*
X112833642Y-44680380D01*
X112595547Y-44013714D02*
X112833642Y-44680380D01*
X112928880Y-44918476D01*
X112976500Y-44966095D01*
X113071738Y-45013714D01*
X110881261Y-44585142D02*
X110928880Y-44632761D01*
X111071738Y-44680380D01*
X111166976Y-44680380D01*
X111309833Y-44632761D01*
X111405071Y-44537523D01*
X111452690Y-44442285D01*
X111500309Y-44251809D01*
X111500309Y-44108952D01*
X111452690Y-43918476D01*
X111405071Y-43823238D01*
X111309833Y-43728000D01*
X111166976Y-43680380D01*
X111071738Y-43680380D01*
X110928880Y-43728000D01*
X110881261Y-43775619D01*
X110452690Y-44680380D02*
X110452690Y-43680380D01*
X110024119Y-44680380D02*
X110024119Y-44156571D01*
X110071738Y-44061333D01*
X110166976Y-44013714D01*
X110309833Y-44013714D01*
X110405071Y-44061333D01*
X110452690Y-44108952D01*
X109119357Y-44680380D02*
X109119357Y-44156571D01*
X109166976Y-44061333D01*
X109262214Y-44013714D01*
X109452690Y-44013714D01*
X109547928Y-44061333D01*
X109119357Y-44632761D02*
X109214595Y-44680380D01*
X109452690Y-44680380D01*
X109547928Y-44632761D01*
X109595547Y-44537523D01*
X109595547Y-44442285D01*
X109547928Y-44347047D01*
X109452690Y-44299428D01*
X109214595Y-44299428D01*
X109119357Y-44251809D01*
X108643166Y-44680380D02*
X108643166Y-44013714D01*
X108643166Y-43680380D02*
X108690785Y-43728000D01*
X108643166Y-43775619D01*
X108595547Y-43728000D01*
X108643166Y-43680380D01*
X108643166Y-43775619D01*
X108166976Y-44013714D02*
X108166976Y-44680380D01*
X108166976Y-44108952D02*
X108119357Y-44061333D01*
X108024119Y-44013714D01*
X107881261Y-44013714D01*
X107786023Y-44061333D01*
X107738404Y-44156571D01*
X107738404Y-44680380D01*
X106166976Y-44156571D02*
X106024119Y-44204190D01*
X105976500Y-44251809D01*
X105928880Y-44347047D01*
X105928880Y-44489904D01*
X105976500Y-44585142D01*
X106024119Y-44632761D01*
X106119357Y-44680380D01*
X106500309Y-44680380D01*
X106500309Y-43680380D01*
X106166976Y-43680380D01*
X106071738Y-43728000D01*
X106024119Y-43775619D01*
X105976500Y-43870857D01*
X105976500Y-43966095D01*
X106024119Y-44061333D01*
X106071738Y-44108952D01*
X106166976Y-44156571D01*
X106500309Y-44156571D01*
X105357452Y-44680380D02*
X105452690Y-44632761D01*
X105500309Y-44585142D01*
X105547928Y-44489904D01*
X105547928Y-44204190D01*
X105500309Y-44108952D01*
X105452690Y-44061333D01*
X105357452Y-44013714D01*
X105214595Y-44013714D01*
X105119357Y-44061333D01*
X105071738Y-44108952D01*
X105024119Y-44204190D01*
X105024119Y-44489904D01*
X105071738Y-44585142D01*
X105119357Y-44632761D01*
X105214595Y-44680380D01*
X105357452Y-44680380D01*
X104166976Y-44680380D02*
X104166976Y-44156571D01*
X104214595Y-44061333D01*
X104309833Y-44013714D01*
X104500309Y-44013714D01*
X104595547Y-44061333D01*
X104166976Y-44632761D02*
X104262214Y-44680380D01*
X104500309Y-44680380D01*
X104595547Y-44632761D01*
X104643166Y-44537523D01*
X104643166Y-44442285D01*
X104595547Y-44347047D01*
X104500309Y-44299428D01*
X104262214Y-44299428D01*
X104166976Y-44251809D01*
X103690785Y-44680380D02*
X103690785Y-44013714D01*
X103690785Y-44204190D02*
X103643166Y-44108952D01*
X103595547Y-44061333D01*
X103500309Y-44013714D01*
X103405071Y-44013714D01*
X102643166Y-44680380D02*
X102643166Y-43680380D01*
X102643166Y-44632761D02*
X102738404Y-44680380D01*
X102928880Y-44680380D01*
X103024119Y-44632761D01*
X103071738Y-44585142D01*
X103119357Y-44489904D01*
X103119357Y-44204190D01*
X103071738Y-44108952D01*
X103024119Y-44061333D01*
X102928880Y-44013714D01*
X102738404Y-44013714D01*
X102643166Y-44061333D01*
D12*
X83800000Y-45696000D02*
X141800000Y-45696000D01*
X83800000Y-45696000D02*
G75*
G02X80300000Y-42196000I0J3500000D01*
G01*
X145300000Y-42196000D02*
G75*
G02X141800000Y-45696000I-3500000J0D01*
G01*
X80300000Y-27998000D02*
X80300000Y-42196000D01*
X145300000Y-27998000D02*
X145300000Y-42196000D01*
X83800000Y-24498000D02*
X141800000Y-24498000D01*
X80300000Y-27998000D02*
G75*
G02X83800000Y-24498000I3500000J0D01*
G01*
X141800000Y-24498000D02*
G75*
G02X145300000Y-27998000I0J-3500000D01*
G01*
D13*
%TO.C,J8*%
X86281600Y-33350000D02*
X86281600Y-45750000D01*
X86281600Y-45750000D02*
X139321600Y-45750000D01*
X139321600Y-45750000D02*
X139321600Y-33350000D01*
D14*
%TO.C,X3*%
G36*
X83011182Y-34495182D02*
G01*
X83149727Y-34495182D01*
X83149727Y-34195000D01*
X83011182Y-34195000D01*
X83011182Y-34495182D01*
X83011182Y-34495182D01*
G37*
X83011182Y-34495182D02*
X83149727Y-34495182D01*
X83149727Y-34195000D01*
X83011182Y-34195000D01*
X83011182Y-34495182D01*
G36*
X84004091Y-34495182D02*
G01*
X84165727Y-34495182D01*
X84165727Y-34195000D01*
X84004091Y-34195000D01*
X84004091Y-34495182D01*
X84004091Y-34495182D01*
G37*
X84004091Y-34495182D02*
X84165727Y-34495182D01*
X84165727Y-34195000D01*
X84004091Y-34195000D01*
X84004091Y-34495182D01*
G36*
X83426818Y-34910818D02*
G01*
X83727000Y-34910818D01*
X83727000Y-34841546D01*
X83721278Y-34792480D01*
X83694289Y-34774395D01*
X83657727Y-34772273D01*
X83588454Y-34772273D01*
X83588454Y-34195000D01*
X83426818Y-34195000D01*
X83426818Y-34910818D01*
X83426818Y-34910818D01*
G37*
X83426818Y-34910818D02*
X83727000Y-34910818D01*
X83727000Y-34841546D01*
X83721278Y-34792480D01*
X83694289Y-34774395D01*
X83657727Y-34772273D01*
X83588454Y-34772273D01*
X83588454Y-34195000D01*
X83426818Y-34195000D01*
X83426818Y-34910818D01*
G36*
X83169934Y-35078176D02*
G01*
X83151849Y-35105165D01*
X83149727Y-35141727D01*
X83155449Y-35190793D01*
X83182438Y-35208878D01*
X83219000Y-35211000D01*
X83268066Y-35216722D01*
X83286150Y-35243711D01*
X83288273Y-35280273D01*
X83288273Y-35349546D01*
X83865545Y-35349546D01*
X83865545Y-35280273D01*
X83871267Y-35231207D01*
X83898256Y-35213122D01*
X83934818Y-35211000D01*
X83983884Y-35205278D01*
X84001969Y-35178289D01*
X84004091Y-35141727D01*
X83998369Y-35092661D01*
X83971380Y-35074577D01*
X83934818Y-35072455D01*
X83885752Y-35078176D01*
X83867668Y-35105165D01*
X83865545Y-35141727D01*
X83865545Y-35211000D01*
X83288273Y-35211000D01*
X83288273Y-35141727D01*
X83282551Y-35092661D01*
X83255562Y-35074577D01*
X83219000Y-35072455D01*
X83169934Y-35078176D01*
X83169934Y-35078176D01*
G37*
X83169934Y-35078176D02*
X83151849Y-35105165D01*
X83149727Y-35141727D01*
X83155449Y-35190793D01*
X83182438Y-35208878D01*
X83219000Y-35211000D01*
X83268066Y-35216722D01*
X83286150Y-35243711D01*
X83288273Y-35280273D01*
X83288273Y-35349546D01*
X83865545Y-35349546D01*
X83865545Y-35280273D01*
X83871267Y-35231207D01*
X83898256Y-35213122D01*
X83934818Y-35211000D01*
X83983884Y-35205278D01*
X84001969Y-35178289D01*
X84004091Y-35141727D01*
X83998369Y-35092661D01*
X83971380Y-35074577D01*
X83934818Y-35072455D01*
X83885752Y-35078176D01*
X83867668Y-35105165D01*
X83865545Y-35141727D01*
X83865545Y-35211000D01*
X83288273Y-35211000D01*
X83288273Y-35141727D01*
X83282551Y-35092661D01*
X83255562Y-35074577D01*
X83219000Y-35072455D01*
X83169934Y-35078176D01*
G36*
X82272273Y-33687000D02*
G01*
X82266551Y-33736066D01*
X82239562Y-33754151D01*
X82203000Y-33756273D01*
X82133727Y-33756273D01*
X82133727Y-35649727D01*
X82203000Y-35649727D01*
X82252066Y-35655449D01*
X82270150Y-35682438D01*
X82272273Y-35719000D01*
X82272273Y-35788273D01*
X84743000Y-35788273D01*
X84743000Y-35719000D01*
X84748722Y-35669934D01*
X84775711Y-35651850D01*
X84812273Y-35649727D01*
X84881545Y-35649727D01*
X84881545Y-33756273D01*
X84812273Y-33756273D01*
X84743000Y-33756273D01*
X84743000Y-35649727D01*
X82272273Y-35649727D01*
X82272273Y-33756273D01*
X84743000Y-33756273D01*
X84812273Y-33756273D01*
X84763207Y-33750551D01*
X84745122Y-33723562D01*
X84743000Y-33687000D01*
X84743000Y-33617727D01*
X82272273Y-33617727D01*
X82272273Y-33687000D01*
X82272273Y-33687000D01*
G37*
X82272273Y-33687000D02*
X82266551Y-33736066D01*
X82239562Y-33754151D01*
X82203000Y-33756273D01*
X82133727Y-33756273D01*
X82133727Y-35649727D01*
X82203000Y-35649727D01*
X82252066Y-35655449D01*
X82270150Y-35682438D01*
X82272273Y-35719000D01*
X82272273Y-35788273D01*
X84743000Y-35788273D01*
X84743000Y-35719000D01*
X84748722Y-35669934D01*
X84775711Y-35651850D01*
X84812273Y-35649727D01*
X84881545Y-35649727D01*
X84881545Y-33756273D01*
X84812273Y-33756273D01*
X84743000Y-33756273D01*
X84743000Y-35649727D01*
X82272273Y-35649727D01*
X82272273Y-33756273D01*
X84743000Y-33756273D01*
X84812273Y-33756273D01*
X84763207Y-33750551D01*
X84745122Y-33723562D01*
X84743000Y-33687000D01*
X84743000Y-33617727D01*
X82272273Y-33617727D01*
X82272273Y-33687000D01*
G36*
X82272273Y-36504091D02*
G01*
X83149727Y-36504091D01*
X83149727Y-36365546D01*
X82272273Y-36365546D01*
X82272273Y-36504091D01*
X82272273Y-36504091D01*
G37*
X82272273Y-36504091D02*
X83149727Y-36504091D01*
X83149727Y-36365546D01*
X82272273Y-36365546D01*
X82272273Y-36504091D01*
G36*
X84581364Y-36642636D02*
G01*
X84881545Y-36642636D01*
X84881545Y-36504091D01*
X84581364Y-36504091D01*
X84581364Y-36642636D01*
X84581364Y-36642636D01*
G37*
X84581364Y-36642636D02*
X84881545Y-36642636D01*
X84881545Y-36504091D01*
X84581364Y-36504091D01*
X84581364Y-36642636D01*
G36*
X81995182Y-33259818D02*
G01*
X81991320Y-33314117D01*
X81971733Y-33336388D01*
X81925909Y-33340636D01*
X81876843Y-33346358D01*
X81858759Y-33373347D01*
X81856636Y-33409909D01*
X81852131Y-33456451D01*
X81829279Y-33475540D01*
X81775818Y-33479182D01*
X81695000Y-33479182D01*
X81695000Y-37081364D01*
X81856636Y-37081364D01*
X81856636Y-37797182D01*
X85158636Y-37797182D01*
X85158636Y-37219909D01*
X85020091Y-37219909D01*
X85020091Y-37658636D01*
X81995182Y-37658636D01*
X81995182Y-37219909D01*
X85020091Y-37219909D01*
X85158636Y-37219909D01*
X85158636Y-37081364D01*
X85320273Y-37081364D01*
X85320273Y-33479182D01*
X85239454Y-33479182D01*
X85158636Y-33479182D01*
X85158636Y-37081364D01*
X81856636Y-37081364D01*
X81856636Y-33479182D01*
X81925909Y-33479182D01*
X81974975Y-33473460D01*
X81993060Y-33446471D01*
X81995182Y-33409909D01*
X81995182Y-33340636D01*
X85020091Y-33340636D01*
X85020091Y-33409909D01*
X85025812Y-33458975D01*
X85052802Y-33477060D01*
X85089364Y-33479182D01*
X85158636Y-33479182D01*
X85239454Y-33479182D01*
X85185156Y-33475320D01*
X85162885Y-33455733D01*
X85158636Y-33409909D01*
X85152915Y-33360843D01*
X85125925Y-33342759D01*
X85089364Y-33340636D01*
X85042822Y-33336131D01*
X85023732Y-33313279D01*
X85020091Y-33259818D01*
X85020091Y-33179000D01*
X81995182Y-33179000D01*
X81995182Y-33259818D01*
X81995182Y-33259818D01*
G37*
X81995182Y-33259818D02*
X81991320Y-33314117D01*
X81971733Y-33336388D01*
X81925909Y-33340636D01*
X81876843Y-33346358D01*
X81858759Y-33373347D01*
X81856636Y-33409909D01*
X81852131Y-33456451D01*
X81829279Y-33475540D01*
X81775818Y-33479182D01*
X81695000Y-33479182D01*
X81695000Y-37081364D01*
X81856636Y-37081364D01*
X81856636Y-37797182D01*
X85158636Y-37797182D01*
X85158636Y-37219909D01*
X85020091Y-37219909D01*
X85020091Y-37658636D01*
X81995182Y-37658636D01*
X81995182Y-37219909D01*
X85020091Y-37219909D01*
X85158636Y-37219909D01*
X85158636Y-37081364D01*
X85320273Y-37081364D01*
X85320273Y-33479182D01*
X85239454Y-33479182D01*
X85158636Y-33479182D01*
X85158636Y-37081364D01*
X81856636Y-37081364D01*
X81856636Y-33479182D01*
X81925909Y-33479182D01*
X81974975Y-33473460D01*
X81993060Y-33446471D01*
X81995182Y-33409909D01*
X81995182Y-33340636D01*
X85020091Y-33340636D01*
X85020091Y-33409909D01*
X85025812Y-33458975D01*
X85052802Y-33477060D01*
X85089364Y-33479182D01*
X85158636Y-33479182D01*
X85239454Y-33479182D01*
X85185156Y-33475320D01*
X85162885Y-33455733D01*
X85158636Y-33409909D01*
X85152915Y-33360843D01*
X85125925Y-33342759D01*
X85089364Y-33340636D01*
X85042822Y-33336131D01*
X85023732Y-33313279D01*
X85020091Y-33259818D01*
X85020091Y-33179000D01*
X81995182Y-33179000D01*
X81995182Y-33259818D01*
%TO.C,X4*%
G36*
X143221143Y-32688226D02*
G01*
X143202953Y-32689167D01*
X143191191Y-32690847D01*
X143184848Y-32693361D01*
X143184501Y-32693638D01*
X143176214Y-32698759D01*
X143162368Y-32705427D01*
X143145267Y-32712732D01*
X143127218Y-32719764D01*
X143110526Y-32725614D01*
X143097498Y-32729371D01*
X143091669Y-32730269D01*
X143082363Y-32729457D01*
X143067544Y-32727295D01*
X143049977Y-32724201D01*
X143044767Y-32723190D01*
X143018586Y-32719250D01*
X142995052Y-32718901D01*
X142972036Y-32722542D01*
X142947409Y-32730572D01*
X142919042Y-32743393D01*
X142908315Y-32748838D01*
X142863179Y-32772219D01*
X142812778Y-32769685D01*
X142782143Y-32768936D01*
X142756229Y-32770507D01*
X142733421Y-32775063D01*
X142712103Y-32783273D01*
X142690658Y-32795802D01*
X142667471Y-32813318D01*
X142640926Y-32836488D01*
X142632807Y-32843954D01*
X142617268Y-32857743D01*
X142602900Y-32869392D01*
X142591378Y-32877611D01*
X142584716Y-32881037D01*
X142575012Y-32882107D01*
X142560061Y-32882273D01*
X142543035Y-32881503D01*
X142542426Y-32881457D01*
X142511217Y-32879097D01*
X142474357Y-32905223D01*
X142419788Y-32948622D01*
X142367638Y-32999551D01*
X142318550Y-33057265D01*
X142273167Y-33121016D01*
X142236943Y-33181266D01*
X142225067Y-33203801D01*
X142211922Y-33230552D01*
X142198451Y-33259426D01*
X142185593Y-33288330D01*
X142174289Y-33315171D01*
X142165480Y-33337856D01*
X142161869Y-33348333D01*
X142157356Y-33361525D01*
X142153467Y-33371297D01*
X142151600Y-33374751D01*
X142149174Y-33372156D01*
X142144376Y-33362920D01*
X142137803Y-33348330D01*
X142130052Y-33329675D01*
X142126112Y-33319718D01*
X142088345Y-33232887D01*
X142045120Y-33152191D01*
X141996579Y-33077885D01*
X141975535Y-33049788D01*
X141955116Y-33025516D01*
X141930100Y-32998799D01*
X141902384Y-32971435D01*
X141873863Y-32945225D01*
X141846434Y-32921967D01*
X141821993Y-32903460D01*
X141819466Y-32901721D01*
X141783279Y-32877141D01*
X141706317Y-32882603D01*
X141662054Y-32840507D01*
X141637325Y-32817974D01*
X141616357Y-32801147D01*
X141597796Y-32788986D01*
X141589237Y-32784447D01*
X141578027Y-32779085D01*
X141568711Y-32775300D01*
X141559455Y-32772805D01*
X141548424Y-32771316D01*
X141533785Y-32770547D01*
X141513702Y-32770213D01*
X141496910Y-32770095D01*
X141433137Y-32769708D01*
X141389901Y-32748146D01*
X141362354Y-32735057D01*
X141339578Y-32726154D01*
X141319231Y-32721030D01*
X141298971Y-32719278D01*
X141276456Y-32720492D01*
X141250885Y-32724016D01*
X141231197Y-32727068D01*
X141215842Y-32728729D01*
X141202858Y-32728638D01*
X141190278Y-32726431D01*
X141176140Y-32721746D01*
X141158478Y-32714219D01*
X141135329Y-32703488D01*
X141132465Y-32702145D01*
X141119711Y-32696321D01*
X141109300Y-32692355D01*
X141099093Y-32689889D01*
X141086947Y-32688567D01*
X141070721Y-32688034D01*
X141048274Y-32687933D01*
X141046990Y-32687933D01*
X141026214Y-32688222D01*
X141008621Y-32689011D01*
X140995876Y-32690187D01*
X140989642Y-32691634D01*
X140989344Y-32691907D01*
X140984569Y-32696006D01*
X140974710Y-32702559D01*
X140964753Y-32708496D01*
X140942617Y-32721112D01*
X140898167Y-32710967D01*
X140863609Y-32703701D01*
X140835333Y-32699262D01*
X140811696Y-32697504D01*
X140791052Y-32698277D01*
X140777965Y-32700158D01*
X140749541Y-32707913D01*
X140719809Y-32720160D01*
X140693103Y-32735079D01*
X140690268Y-32736990D01*
X140683598Y-32741222D01*
X140676840Y-32744178D01*
X140668305Y-32746117D01*
X140656307Y-32747299D01*
X140639156Y-32747986D01*
X140616185Y-32748423D01*
X140592006Y-32748921D01*
X140574363Y-32749747D01*
X140561323Y-32751182D01*
X140550955Y-32753505D01*
X140541329Y-32756996D01*
X140533860Y-32760349D01*
X140516829Y-32770003D01*
X140499519Y-32782371D01*
X140491617Y-32789190D01*
X140472897Y-32806998D01*
X140447407Y-32802563D01*
X140431626Y-32800673D01*
X140414012Y-32800488D01*
X140392179Y-32802061D01*
X140373234Y-32804222D01*
X140332483Y-32810750D01*
X140298240Y-32819681D01*
X140268706Y-32831783D01*
X140242081Y-32847827D01*
X140216567Y-32868581D01*
X140211372Y-32873429D01*
X140198987Y-32884956D01*
X140190392Y-32891642D01*
X140183327Y-32894569D01*
X140175529Y-32894817D01*
X140168398Y-32893972D01*
X140151378Y-32893452D01*
X140129157Y-32895279D01*
X140104517Y-32898982D01*
X140080241Y-32904089D01*
X140059114Y-32910131D01*
X140048642Y-32914219D01*
X140018972Y-32932221D01*
X139994914Y-32956052D01*
X139977209Y-32984679D01*
X139966603Y-33017068D01*
X139964473Y-33031250D01*
X139964117Y-33061296D01*
X139968289Y-33092694D01*
X139976372Y-33121575D01*
X139980448Y-33131316D01*
X139989195Y-33149924D01*
X139968712Y-33192631D01*
X139956188Y-33221233D01*
X139948685Y-33245419D01*
X139945926Y-33267375D01*
X139947635Y-33289291D01*
X139953474Y-33313151D01*
X139960475Y-33331541D01*
X139970453Y-33352255D01*
X139981272Y-33370867D01*
X139981481Y-33371186D01*
X139990392Y-33385322D01*
X139997108Y-33397114D01*
X140000500Y-33404539D01*
X140000701Y-33405594D01*
X139999156Y-33412559D01*
X139995305Y-33423557D01*
X139993834Y-33427191D01*
X139990019Y-33439459D01*
X139988647Y-33453786D01*
X139989456Y-33473138D01*
X139989623Y-33475174D01*
X139992884Y-33497648D01*
X139999230Y-33519363D01*
X140009407Y-33541963D01*
X140024158Y-33567091D01*
X140044230Y-33596393D01*
X140045095Y-33597593D01*
X140073755Y-33637302D01*
X140068535Y-33659059D01*
X140065966Y-33672494D01*
X140065711Y-33684524D01*
X140067917Y-33698737D01*
X140070620Y-33710366D01*
X140079040Y-33739158D01*
X140089511Y-33763527D01*
X140103350Y-33785529D01*
X140121874Y-33807221D01*
X140146401Y-33830660D01*
X140149309Y-33833245D01*
X140159241Y-33842375D01*
X140165201Y-33849812D01*
X140168443Y-33858347D01*
X140170217Y-33870769D01*
X140171151Y-33881928D01*
X140173383Y-33900230D01*
X140176842Y-33917648D01*
X140180694Y-33930179D01*
X140196557Y-33959533D01*
X140219149Y-33989743D01*
X140247081Y-34019259D01*
X140278962Y-34046532D01*
X140296242Y-34059041D01*
X140313154Y-34071110D01*
X140324511Y-34081198D01*
X140332083Y-34091565D01*
X140337642Y-34104472D01*
X140341401Y-34116629D01*
X140347300Y-34133984D01*
X140354605Y-34151155D01*
X140359123Y-34159838D01*
X140376530Y-34183063D01*
X140400516Y-34205795D01*
X140429234Y-34226730D01*
X140460835Y-34244568D01*
X140493471Y-34258006D01*
X140502351Y-34260748D01*
X140519412Y-34266017D01*
X140530056Y-34270845D01*
X140536131Y-34276618D01*
X140539485Y-34284727D01*
X140540593Y-34289484D01*
X140550134Y-34315322D01*
X140567302Y-34340018D01*
X140591270Y-34362883D01*
X140621211Y-34383230D01*
X140656298Y-34400369D01*
X140686650Y-34411051D01*
X140702083Y-34415887D01*
X140714292Y-34420156D01*
X140721039Y-34423064D01*
X140721534Y-34423411D01*
X140719257Y-34426584D01*
X140710945Y-34433634D01*
X140697630Y-34443776D01*
X140680346Y-34456222D01*
X140660151Y-34470168D01*
X140619360Y-34498103D01*
X140584723Y-34522532D01*
X140555132Y-34544306D01*
X140529479Y-34564272D01*
X140506657Y-34583280D01*
X140485558Y-34602180D01*
X140475257Y-34611904D01*
X140416822Y-34672836D01*
X140365844Y-34736559D01*
X140321965Y-34803734D01*
X140284822Y-34875021D01*
X140254055Y-34951079D01*
X140229304Y-35032570D01*
X140217171Y-35084438D01*
X140210799Y-35117015D01*
X140205552Y-35149267D01*
X140201229Y-35182979D01*
X140197628Y-35219934D01*
X140194546Y-35261918D01*
X140191979Y-35306822D01*
X140188684Y-35370895D01*
X140169409Y-35404189D01*
X140159748Y-35420101D01*
X140150894Y-35432113D01*
X140140742Y-35442425D01*
X140127188Y-35453238D01*
X140112459Y-35463743D01*
X140086659Y-35483221D01*
X140057722Y-35507553D01*
X140027650Y-35534863D01*
X139998442Y-35563275D01*
X139972100Y-35590912D01*
X139951787Y-35614447D01*
X139913347Y-35665844D01*
X139877286Y-35721371D01*
X139844266Y-35779618D01*
X139814953Y-35839179D01*
X139790008Y-35898646D01*
X139770095Y-35956611D01*
X139755878Y-36011667D01*
X139750548Y-36041409D01*
X139747769Y-36058083D01*
X139744898Y-36071580D01*
X139742435Y-36079654D01*
X139741804Y-36080738D01*
X139740849Y-36085893D01*
X139740047Y-36098224D01*
X139739398Y-36116519D01*
X139738900Y-36139563D01*
X139738553Y-36166144D01*
X139738356Y-36195048D01*
X139738308Y-36225062D01*
X139738409Y-36254971D01*
X139738658Y-36283564D01*
X139739054Y-36309626D01*
X139739596Y-36331944D01*
X139740283Y-36349305D01*
X139741116Y-36360494D01*
X139741979Y-36364281D01*
X139744722Y-36369517D01*
X139747445Y-36380189D01*
X139748544Y-36386756D01*
X139751595Y-36402811D01*
X139756858Y-36424684D01*
X139763710Y-36450213D01*
X139771531Y-36477236D01*
X139779699Y-36503591D01*
X139787593Y-36527118D01*
X139793304Y-36542475D01*
X139824650Y-36612107D01*
X139863074Y-36681684D01*
X139907399Y-36749272D01*
X139956447Y-36812934D01*
X139961094Y-36818454D01*
X139972370Y-36832924D01*
X139980317Y-36845483D01*
X139983722Y-36854177D01*
X139983767Y-36854893D01*
X139984875Y-36862197D01*
X139987945Y-36876194D01*
X139992595Y-36895444D01*
X139998443Y-36918504D01*
X140005107Y-36943934D01*
X140012206Y-36970291D01*
X140019358Y-36996133D01*
X140026181Y-37020019D01*
X140032293Y-37040507D01*
X140036090Y-37052500D01*
X140040735Y-37066193D01*
X140047674Y-37086086D01*
X140056286Y-37110428D01*
X140065953Y-37137469D01*
X140076054Y-37165460D01*
X140078407Y-37171941D01*
X140092555Y-37212081D01*
X140103519Y-37246093D01*
X140111748Y-37275497D01*
X140117692Y-37301814D01*
X140119132Y-37309525D01*
X140138967Y-37397269D01*
X140166908Y-37482796D01*
X140202808Y-37565794D01*
X140246522Y-37645948D01*
X140297906Y-37722943D01*
X140329241Y-37763655D01*
X140348953Y-37786709D01*
X140373433Y-37813266D01*
X140400860Y-37841511D01*
X140429414Y-37869630D01*
X140457272Y-37895809D01*
X140482614Y-37918234D01*
X140493248Y-37927050D01*
X140532603Y-37956844D01*
X140575641Y-37986056D01*
X140620371Y-38013509D01*
X140664799Y-38038026D01*
X140706932Y-38058430D01*
X140735991Y-38070387D01*
X140753538Y-38077800D01*
X140770271Y-38086311D01*
X140782557Y-38094071D01*
X140812667Y-38116335D01*
X140848444Y-38141564D01*
X140888151Y-38168622D01*
X140930049Y-38196370D01*
X140972401Y-38223670D01*
X141013468Y-38249383D01*
X141051514Y-38272373D01*
X141079675Y-38288639D01*
X141108245Y-38304119D01*
X141141322Y-38321096D01*
X141177085Y-38338715D01*
X141213716Y-38356120D01*
X141249397Y-38372455D01*
X141282306Y-38386864D01*
X141310627Y-38398491D01*
X141323531Y-38403370D01*
X141343591Y-38410747D01*
X141358729Y-38416928D01*
X141370991Y-38423183D01*
X141382426Y-38430781D01*
X141395081Y-38440991D01*
X141411004Y-38455083D01*
X141419806Y-38463051D01*
X141474926Y-38511149D01*
X141527556Y-38553019D01*
X141579286Y-38589849D01*
X141631709Y-38622830D01*
X141640608Y-38628026D01*
X141683315Y-38652700D01*
X142149049Y-38652690D01*
X142614784Y-38652680D01*
X142651927Y-38631846D01*
X142698153Y-38604523D01*
X142741910Y-38575581D01*
X142785057Y-38543649D01*
X142829459Y-38507355D01*
X142872313Y-38469572D01*
X142890208Y-38453888D01*
X142907497Y-38439727D01*
X142922506Y-38428393D01*
X142933563Y-38421191D01*
X142935893Y-38420015D01*
X142947158Y-38415162D01*
X142963771Y-38408179D01*
X142983235Y-38400111D01*
X142997901Y-38394097D01*
X143090191Y-38353912D01*
X143179978Y-38309526D01*
X143268746Y-38260105D01*
X143357983Y-38204814D01*
X143382335Y-38188259D01*
X142810798Y-38188259D01*
X142805552Y-38208747D01*
X142798702Y-38223456D01*
X142777798Y-38256549D01*
X142749618Y-38290902D01*
X142715118Y-38325788D01*
X142675253Y-38360478D01*
X142630978Y-38394245D01*
X142583248Y-38426361D01*
X142533017Y-38456099D01*
X142481240Y-38482731D01*
X142428873Y-38505528D01*
X142428261Y-38505769D01*
X142375312Y-38524989D01*
X142325469Y-38539436D01*
X142276216Y-38549581D01*
X142225035Y-38555898D01*
X142169408Y-38558861D01*
X142143853Y-38559220D01*
X142113042Y-38559207D01*
X142088533Y-38558763D01*
X142068163Y-38557726D01*
X142049773Y-38555929D01*
X142031200Y-38553210D01*
X142010284Y-38549404D01*
X142007505Y-38548865D01*
X141929671Y-38529647D01*
X141852956Y-38502821D01*
X141778459Y-38468988D01*
X141707283Y-38428748D01*
X141640527Y-38382702D01*
X141579293Y-38331450D01*
X141542657Y-38295296D01*
X141513995Y-38262908D01*
X141492004Y-38233092D01*
X141475829Y-38204547D01*
X141465228Y-38177927D01*
X141460312Y-38161388D01*
X141458225Y-38149796D01*
X141458681Y-38140225D01*
X141460715Y-38131950D01*
X141472508Y-38106877D01*
X141492497Y-38082567D01*
X141520436Y-38059168D01*
X141556075Y-38036824D01*
X141599169Y-38015682D01*
X141649468Y-37995888D01*
X141706727Y-37977586D01*
X141736854Y-37969311D01*
X141783402Y-37957818D01*
X141827377Y-37948514D01*
X141870332Y-37941242D01*
X141913822Y-37935846D01*
X141959402Y-37932168D01*
X142008626Y-37930054D01*
X142063050Y-37929346D01*
X142124228Y-37929887D01*
X142127950Y-37929953D01*
X142166922Y-37930750D01*
X142199106Y-37931679D01*
X142226181Y-37932854D01*
X142249824Y-37934393D01*
X142271715Y-37936410D01*
X142293533Y-37939021D01*
X142316955Y-37942342D01*
X142324696Y-37943518D01*
X142348730Y-37947264D01*
X142369756Y-37950645D01*
X142386388Y-37953432D01*
X142397240Y-37955390D01*
X142400896Y-37956240D01*
X142405567Y-37957607D01*
X142417066Y-37960517D01*
X142433971Y-37964623D01*
X142454856Y-37969578D01*
X142470850Y-37973311D01*
X142531449Y-37988983D01*
X142587529Y-38006733D01*
X142638546Y-38026276D01*
X142683953Y-38047326D01*
X142723207Y-38069597D01*
X142755762Y-38092803D01*
X142781074Y-38116659D01*
X142798597Y-38140878D01*
X142801632Y-38146816D01*
X142809457Y-38168504D01*
X142810798Y-38188259D01*
X143382335Y-38188259D01*
X143449173Y-38142822D01*
X143461409Y-38134113D01*
X143486312Y-38116318D01*
X143505587Y-38102679D01*
X143520492Y-38092428D01*
X143532287Y-38084799D01*
X143542231Y-38079024D01*
X143551584Y-38074336D01*
X143561606Y-38069967D01*
X143573555Y-38065151D01*
X143576600Y-38063943D01*
X143643102Y-38033521D01*
X143709516Y-37995260D01*
X143775058Y-37949758D01*
X143838945Y-37897615D01*
X143900391Y-37839429D01*
X143958614Y-37775799D01*
X143967026Y-37765816D01*
X144014087Y-37704202D01*
X144056840Y-37637855D01*
X144094652Y-37568139D01*
X144126893Y-37496417D01*
X144152929Y-37424054D01*
X144172129Y-37352413D01*
X144181076Y-37304004D01*
X144186374Y-37275727D01*
X144194290Y-37246134D01*
X144205537Y-37212683D01*
X144210438Y-37199474D01*
X144226734Y-37155323D01*
X144240234Y-37117037D01*
X143971066Y-37117037D01*
X143970996Y-37141900D01*
X143970058Y-37163591D01*
X143968110Y-37184750D01*
X143965010Y-37208014D01*
X143963226Y-37219716D01*
X143952987Y-37273310D01*
X143939006Y-37328542D01*
X143921848Y-37383990D01*
X143902077Y-37438229D01*
X143880254Y-37489837D01*
X143856944Y-37537391D01*
X143832710Y-37579467D01*
X143808116Y-37614643D01*
X143805719Y-37617650D01*
X143786603Y-37640194D01*
X143763700Y-37665391D01*
X143738459Y-37691800D01*
X143712330Y-37717978D01*
X143686763Y-37742485D01*
X143663207Y-37763878D01*
X143643113Y-37780716D01*
X143637134Y-37785290D01*
X143568281Y-37831771D01*
X143497960Y-37870531D01*
X143426640Y-37901350D01*
X143354794Y-37924007D01*
X143327755Y-37930366D01*
X143309559Y-37934163D01*
X143294768Y-37936884D01*
X143281393Y-37938673D01*
X143267447Y-37939676D01*
X143250942Y-37940037D01*
X143229890Y-37939900D01*
X143203217Y-37939427D01*
X143174083Y-37938614D01*
X143151421Y-37937325D01*
X143133241Y-37935352D01*
X143117555Y-37932484D01*
X143103764Y-37928917D01*
X143069363Y-37916762D01*
X143039770Y-37901861D01*
X143016438Y-37885010D01*
X143007640Y-37876180D01*
X142990064Y-37851174D01*
X142974613Y-37819493D01*
X142962012Y-37782811D01*
X142955311Y-37755233D01*
X142951396Y-37734485D01*
X142949001Y-37716717D01*
X142947947Y-37699027D01*
X142948053Y-37678515D01*
X142949038Y-37654304D01*
X142950383Y-37632360D01*
X142952060Y-37612685D01*
X142953870Y-37597240D01*
X142955613Y-37587988D01*
X142955866Y-37587231D01*
X142958350Y-37578327D01*
X142961522Y-37563662D01*
X142964831Y-37545856D01*
X142966048Y-37538583D01*
X142972858Y-37504015D01*
X142982602Y-37467305D01*
X142995764Y-37426841D01*
X143012830Y-37381011D01*
X143015496Y-37374233D01*
X143046607Y-37303343D01*
X143081918Y-37238095D01*
X143122508Y-37176848D01*
X143169454Y-37117961D01*
X143200793Y-37084250D01*
X142828530Y-37084250D01*
X142828193Y-37113440D01*
X142826965Y-37138233D01*
X142824497Y-37161165D01*
X142820440Y-37184775D01*
X142814447Y-37211599D01*
X142807032Y-37240883D01*
X142785686Y-37306060D01*
X142756815Y-37368067D01*
X142720905Y-37426474D01*
X142678443Y-37480847D01*
X142629916Y-37530756D01*
X142575810Y-37575768D01*
X142516612Y-37615451D01*
X142452808Y-37649375D01*
X142384885Y-37677107D01*
X142313330Y-37698215D01*
X142284455Y-37704576D01*
X142257004Y-37709248D01*
X142225687Y-37713267D01*
X142193022Y-37716419D01*
X142161527Y-37718495D01*
X142133722Y-37719281D01*
X142115250Y-37718803D01*
X142100616Y-37717825D01*
X142081332Y-37716507D01*
X142078898Y-37716338D01*
X141380514Y-37716338D01*
X141380090Y-37733880D01*
X141379004Y-37748212D01*
X141377146Y-37761083D01*
X141374401Y-37774244D01*
X141372246Y-37783156D01*
X141359789Y-37824658D01*
X141345109Y-37858071D01*
X141328164Y-37883485D01*
X141322093Y-37890107D01*
X141300377Y-37907568D01*
X141272329Y-37923656D01*
X141240070Y-37937456D01*
X141205723Y-37948052D01*
X141173334Y-37954285D01*
X141150495Y-37956335D01*
X141122295Y-37957481D01*
X141091638Y-37957732D01*
X141061426Y-37957095D01*
X141034560Y-37955578D01*
X141018378Y-37953870D01*
X141000422Y-37950705D01*
X140977682Y-37945736D01*
X140953443Y-37939721D01*
X140936453Y-37935033D01*
X140874122Y-37914811D01*
X140817102Y-37891612D01*
X140763971Y-37864566D01*
X140713304Y-37832804D01*
X140663680Y-37795457D01*
X140613674Y-37751654D01*
X140575524Y-37714509D01*
X140529056Y-37665781D01*
X140489244Y-37620003D01*
X140455354Y-37575985D01*
X140426657Y-37532536D01*
X140402423Y-37488466D01*
X140381919Y-37442585D01*
X140364415Y-37393702D01*
X140351568Y-37349717D01*
X140339488Y-37293584D01*
X140331530Y-37232395D01*
X140327816Y-37168554D01*
X140328467Y-37104468D01*
X140333607Y-37042542D01*
X140335355Y-37029422D01*
X140345886Y-36966662D01*
X140358538Y-36911365D01*
X140373564Y-36862732D01*
X140391222Y-36819968D01*
X140411767Y-36782275D01*
X140417341Y-36773615D01*
X140438436Y-36747067D01*
X140463142Y-36726156D01*
X140492587Y-36710233D01*
X140527897Y-36698651D01*
X140558706Y-36692456D01*
X140584364Y-36691128D01*
X140615330Y-36694013D01*
X140649842Y-36700666D01*
X140686136Y-36710643D01*
X140722449Y-36723500D01*
X140757018Y-36738793D01*
X140770611Y-36745845D01*
X140831642Y-36782750D01*
X140894425Y-36827868D01*
X140958895Y-36881141D01*
X141024986Y-36942514D01*
X141092629Y-37011929D01*
X141121995Y-37044033D01*
X141170787Y-37103787D01*
X141216247Y-37170386D01*
X141257794Y-37242669D01*
X141294848Y-37319474D01*
X141326830Y-37399640D01*
X141353160Y-37482005D01*
X141366346Y-37533468D01*
X141370729Y-37553483D01*
X141373972Y-37571562D01*
X141376291Y-37589811D01*
X141377903Y-37610332D01*
X141379023Y-37635231D01*
X141379824Y-37664623D01*
X141380388Y-37693836D01*
X141380514Y-37716338D01*
X142078898Y-37716338D01*
X142061192Y-37715109D01*
X142058100Y-37714892D01*
X141998001Y-37707187D01*
X141935622Y-37692699D01*
X141872760Y-37672066D01*
X141811210Y-37645928D01*
X141752768Y-37614922D01*
X141721170Y-37595072D01*
X141661233Y-37550175D01*
X141608043Y-37500215D01*
X141561684Y-37445302D01*
X141522237Y-37385543D01*
X141489787Y-37321048D01*
X141467945Y-37263132D01*
X141455202Y-37219628D01*
X141446700Y-37179523D01*
X141441982Y-37139561D01*
X141440588Y-37096484D01*
X141441017Y-37072011D01*
X141447027Y-37000237D01*
X141460573Y-36932093D01*
X141481773Y-36867312D01*
X141510745Y-36805624D01*
X141547608Y-36746760D01*
X141592479Y-36690451D01*
X141622080Y-36658996D01*
X141677943Y-36608809D01*
X141738685Y-36565242D01*
X141803680Y-36528480D01*
X141872306Y-36498708D01*
X141943936Y-36476111D01*
X142017948Y-36460875D01*
X142093716Y-36453184D01*
X142170617Y-36453224D01*
X142248026Y-36461180D01*
X142274000Y-36465655D01*
X142347983Y-36483499D01*
X142418123Y-36507953D01*
X142484043Y-36538596D01*
X142545369Y-36575009D01*
X142601724Y-36616773D01*
X142652731Y-36663468D01*
X142698015Y-36714675D01*
X142737199Y-36769973D01*
X142769908Y-36828943D01*
X142795764Y-36891166D01*
X142814393Y-36956222D01*
X142825417Y-37023691D01*
X142828530Y-37084250D01*
X143200793Y-37084250D01*
X143219265Y-37064381D01*
X143277542Y-37008888D01*
X143336429Y-36959179D01*
X143395490Y-36915452D01*
X143454286Y-36877909D01*
X143512380Y-36846750D01*
X143569336Y-36822174D01*
X143624714Y-36804382D01*
X143678079Y-36793574D01*
X143728992Y-36789950D01*
X143777017Y-36793710D01*
X143800335Y-36798555D01*
X143834839Y-36809044D01*
X143862547Y-36821711D01*
X143885085Y-36837858D01*
X143904079Y-36858782D01*
X143921154Y-36885783D01*
X143929336Y-36901673D01*
X143942531Y-36930227D01*
X143952534Y-36956011D01*
X143959814Y-36981133D01*
X143964839Y-37007702D01*
X143968079Y-37037829D01*
X143970003Y-37073621D01*
X143970411Y-37086366D01*
X143971066Y-37117037D01*
X144240234Y-37117037D01*
X144242836Y-37109658D01*
X144258268Y-37063960D01*
X144272556Y-37019712D01*
X144285225Y-36978395D01*
X144295801Y-36941492D01*
X144303807Y-36910485D01*
X144305712Y-36902216D01*
X144312213Y-36875063D01*
X144318367Y-36853521D01*
X144323861Y-36838598D01*
X144327353Y-36832366D01*
X144344919Y-36809976D01*
X144364215Y-36784542D01*
X144383854Y-36757965D01*
X144402455Y-36732142D01*
X144418631Y-36708972D01*
X144430999Y-36690354D01*
X144431775Y-36689130D01*
X144458798Y-36642751D01*
X144483912Y-36592745D01*
X144506385Y-36540977D01*
X144525486Y-36489308D01*
X144540480Y-36439603D01*
X144550636Y-36393725D01*
X144552464Y-36382166D01*
X144555661Y-36364408D01*
X144559256Y-36352123D01*
X144562814Y-36346796D01*
X144562834Y-36346789D01*
X144564455Y-36342113D01*
X144565834Y-36330286D01*
X144566964Y-36312605D01*
X144567844Y-36290367D01*
X144568467Y-36264868D01*
X144568831Y-36237406D01*
X144568930Y-36209277D01*
X144568772Y-36183853D01*
X144326734Y-36183853D01*
X144326295Y-36212061D01*
X144326006Y-36224883D01*
X144325142Y-36255906D01*
X144324063Y-36280548D01*
X144322548Y-36300892D01*
X144320377Y-36319023D01*
X144317330Y-36337025D01*
X144313185Y-36356983D01*
X144311007Y-36366699D01*
X144291914Y-36439227D01*
X144269072Y-36504710D01*
X144242132Y-36563854D01*
X144210747Y-36617370D01*
X144174568Y-36665965D01*
X144150466Y-36693000D01*
X144127101Y-36716127D01*
X144107765Y-36732102D01*
X144092232Y-36741094D01*
X144082450Y-36743370D01*
X144075181Y-36742446D01*
X144063397Y-36740007D01*
X144058144Y-36738739D01*
X144037099Y-36729435D01*
X144015506Y-36712312D01*
X143993767Y-36687966D01*
X143972279Y-36656990D01*
X143951445Y-36619980D01*
X143931663Y-36577532D01*
X143913333Y-36530238D01*
X143908557Y-36516331D01*
X143885227Y-36441137D01*
X143864693Y-36363171D01*
X143846627Y-36280975D01*
X143830704Y-36193092D01*
X143819181Y-36116933D01*
X143813090Y-36063004D01*
X143809080Y-36004928D01*
X143808274Y-35979349D01*
X143592305Y-35979349D01*
X143592245Y-36009228D01*
X143591808Y-36032738D01*
X143590818Y-36051974D01*
X143589098Y-36069031D01*
X143586471Y-36086004D01*
X143582761Y-36104988D01*
X143581039Y-36113129D01*
X143563865Y-36179753D01*
X143542075Y-36239955D01*
X143515150Y-36294719D01*
X143482575Y-36345033D01*
X143443834Y-36391879D01*
X143424459Y-36411887D01*
X143383431Y-36449096D01*
X143341244Y-36480437D01*
X143296423Y-36506692D01*
X143247497Y-36528639D01*
X143192993Y-36547060D01*
X143146067Y-36559387D01*
X143128306Y-36563383D01*
X143113142Y-36566146D01*
X143098413Y-36567840D01*
X143081956Y-36568629D01*
X143061609Y-36568677D01*
X143035210Y-36568148D01*
X143031767Y-36568059D01*
X142997053Y-36566726D01*
X142967913Y-36564525D01*
X142941472Y-36561160D01*
X142914856Y-36556332D01*
X142910823Y-36555495D01*
X142832807Y-36534839D01*
X142758171Y-36506457D01*
X142687095Y-36470459D01*
X142619756Y-36426956D01*
X142556333Y-36376058D01*
X142497005Y-36317877D01*
X142460294Y-36275683D01*
X142417176Y-36217512D01*
X142379077Y-36155002D01*
X142346357Y-36089234D01*
X142319375Y-36021289D01*
X142298491Y-35952246D01*
X142284065Y-35883188D01*
X142276457Y-35815193D01*
X142276166Y-35770606D01*
X141993811Y-35770606D01*
X141986288Y-35845517D01*
X141970619Y-35920893D01*
X141946840Y-35996424D01*
X141914988Y-36071799D01*
X141903131Y-36095766D01*
X141860814Y-36169444D01*
X141812377Y-36237329D01*
X141757967Y-36299274D01*
X141697733Y-36355131D01*
X141631822Y-36404753D01*
X141560385Y-36447993D01*
X141535284Y-36461005D01*
X141469548Y-36489742D01*
X141401891Y-36511695D01*
X141333429Y-36526667D01*
X141265278Y-36534462D01*
X141198557Y-36534881D01*
X141146369Y-36529685D01*
X141114669Y-36523441D01*
X141079142Y-36514022D01*
X141042632Y-36502361D01*
X141007979Y-36489387D01*
X140978028Y-36476032D01*
X140970134Y-36471956D01*
X140916395Y-36438513D01*
X140865945Y-36398218D01*
X140819957Y-36352277D01*
X140779601Y-36301896D01*
X140746050Y-36248280D01*
X140738282Y-36233349D01*
X140730123Y-36214699D01*
X140720894Y-36189936D01*
X140711257Y-36161233D01*
X140701873Y-36130765D01*
X140693402Y-36100707D01*
X140686507Y-36073232D01*
X140681849Y-36050516D01*
X140680988Y-36044966D01*
X140678729Y-36021973D01*
X140677282Y-35993031D01*
X140676641Y-35960617D01*
X140676801Y-35927210D01*
X140677758Y-35895288D01*
X140679508Y-35867327D01*
X140680550Y-35857741D01*
X140488750Y-35857741D01*
X140488669Y-35895519D01*
X140484064Y-36015651D01*
X140472922Y-36131510D01*
X140455020Y-36244461D01*
X140430138Y-36355869D01*
X140398054Y-36467100D01*
X140393977Y-36479685D01*
X140380940Y-36516573D01*
X140366113Y-36553586D01*
X140350295Y-36589012D01*
X140334289Y-36621134D01*
X140318896Y-36648238D01*
X140306796Y-36666180D01*
X140286752Y-36689099D01*
X140265577Y-36706851D01*
X140244460Y-36718716D01*
X140224590Y-36723974D01*
X140212367Y-36723401D01*
X140201029Y-36720080D01*
X140188262Y-36715043D01*
X140187876Y-36714867D01*
X140174879Y-36706232D01*
X140158802Y-36691355D01*
X140140576Y-36671454D01*
X140121130Y-36647746D01*
X140101392Y-36621448D01*
X140082292Y-36593777D01*
X140064759Y-36565949D01*
X140049722Y-36539183D01*
X140042323Y-36524222D01*
X140011589Y-36448373D01*
X139989184Y-36371039D01*
X139975116Y-36292249D01*
X139970984Y-36249040D01*
X139969594Y-36169072D01*
X139976179Y-36091188D01*
X139990597Y-36015773D01*
X140012708Y-35943212D01*
X140042370Y-35873888D01*
X140079444Y-35808187D01*
X140123788Y-35746492D01*
X140175261Y-35689188D01*
X140176697Y-35687756D01*
X140203948Y-35662165D01*
X140233111Y-35637423D01*
X140262781Y-35614539D01*
X140291552Y-35594526D01*
X140318018Y-35578394D01*
X140340773Y-35567154D01*
X140348292Y-35564331D01*
X140360315Y-35560615D01*
X140368833Y-35559607D01*
X140377315Y-35561638D01*
X140389228Y-35567038D01*
X140392280Y-35568529D01*
X140410064Y-35578830D01*
X140424691Y-35591372D01*
X140437002Y-35607447D01*
X140447842Y-35628346D01*
X140458054Y-35655361D01*
X140466177Y-35681684D01*
X140474483Y-35713592D01*
X140480706Y-35745373D01*
X140485034Y-35778806D01*
X140487653Y-35815669D01*
X140488750Y-35857741D01*
X140680550Y-35857741D01*
X140681367Y-35850233D01*
X140694671Y-35781225D01*
X140715132Y-35710824D01*
X140742071Y-35640853D01*
X140774814Y-35573136D01*
X140800997Y-35527774D01*
X140843296Y-35466638D01*
X140892538Y-35407913D01*
X140947238Y-35353213D01*
X141005908Y-35304147D01*
X141010142Y-35300953D01*
X141043042Y-35278091D01*
X141080073Y-35255394D01*
X141119341Y-35233818D01*
X141158954Y-35214317D01*
X141197018Y-35197844D01*
X141231640Y-35185354D01*
X141249534Y-35180278D01*
X141281526Y-35172365D01*
X141306858Y-35166213D01*
X141327103Y-35161603D01*
X141343834Y-35158319D01*
X141358623Y-35156143D01*
X141373043Y-35154856D01*
X141388667Y-35154240D01*
X141407067Y-35154079D01*
X141429816Y-35154155D01*
X141437917Y-35154192D01*
X141466310Y-35154371D01*
X141488239Y-35154784D01*
X141505703Y-35155658D01*
X141520706Y-35157219D01*
X141535249Y-35159692D01*
X141551333Y-35163306D01*
X141570959Y-35168285D01*
X141577388Y-35169962D01*
X141639789Y-35189600D01*
X141696387Y-35214632D01*
X141748423Y-35245753D01*
X141797135Y-35283657D01*
X141822649Y-35307342D01*
X141863369Y-35351341D01*
X141897609Y-35397400D01*
X141926274Y-35447049D01*
X141950267Y-35501818D01*
X141967133Y-35551768D01*
X141984270Y-35623421D01*
X141993150Y-35696470D01*
X141993811Y-35770606D01*
X142276166Y-35770606D01*
X142276027Y-35749343D01*
X142277626Y-35727139D01*
X142284182Y-35671388D01*
X142293046Y-35621864D01*
X142304741Y-35576514D01*
X142319792Y-35533287D01*
X142337583Y-35492516D01*
X142369008Y-35436150D01*
X142407378Y-35383780D01*
X142451856Y-35336149D01*
X142501604Y-35294000D01*
X142555787Y-35258074D01*
X142613566Y-35229115D01*
X142650303Y-35215160D01*
X142664518Y-35211070D01*
X142683704Y-35206496D01*
X142706365Y-35201694D01*
X142731005Y-35196923D01*
X142756131Y-35192440D01*
X142780246Y-35188502D01*
X142801856Y-35185367D01*
X142819465Y-35183291D01*
X142831578Y-35182532D01*
X142836456Y-35183126D01*
X142841600Y-35184204D01*
X142853420Y-35185790D01*
X142870160Y-35187671D01*
X142890061Y-35189633D01*
X142890080Y-35189635D01*
X142965928Y-35200851D01*
X143039768Y-35220214D01*
X143111304Y-35247579D01*
X143180241Y-35282800D01*
X143246283Y-35325734D01*
X143309132Y-35376235D01*
X143349806Y-35414733D01*
X143407210Y-35478302D01*
X143457033Y-35545596D01*
X143499376Y-35616802D01*
X143534340Y-35692106D01*
X143562027Y-35771695D01*
X143578512Y-35836295D01*
X143583405Y-35859380D01*
X143586973Y-35878379D01*
X143589425Y-35895486D01*
X143590975Y-35912892D01*
X143591833Y-35932791D01*
X143592211Y-35957375D01*
X143592305Y-35979349D01*
X143808274Y-35979349D01*
X143807201Y-35945342D01*
X143807504Y-35886881D01*
X143810042Y-35832181D01*
X143812980Y-35799292D01*
X143820248Y-35746897D01*
X143829722Y-35702192D01*
X143841575Y-35664648D01*
X143855978Y-35633736D01*
X143873104Y-35608927D01*
X143876123Y-35605472D01*
X143894617Y-35589418D01*
X143914568Y-35581001D01*
X143936554Y-35580203D01*
X143961150Y-35587008D01*
X143988933Y-35601401D01*
X143990343Y-35602275D01*
X144047495Y-35641780D01*
X144100790Y-35686358D01*
X144149217Y-35734942D01*
X144191768Y-35786465D01*
X144227430Y-35839860D01*
X144244003Y-35870157D01*
X144278056Y-35946611D01*
X144303712Y-36023931D01*
X144318860Y-36090060D01*
X144322122Y-36109026D01*
X144324437Y-36125936D01*
X144325908Y-36142743D01*
X144326639Y-36161397D01*
X144326734Y-36183853D01*
X144568772Y-36183853D01*
X144568759Y-36181779D01*
X144568316Y-36156207D01*
X144567596Y-36133860D01*
X144566593Y-36116034D01*
X144565305Y-36104025D01*
X144563726Y-36099131D01*
X144563659Y-36099102D01*
X144561158Y-36094592D01*
X144557537Y-36083274D01*
X144553210Y-36066669D01*
X144548595Y-36046293D01*
X144546746Y-36037354D01*
X144531225Y-35971591D01*
X144511537Y-35909308D01*
X144486614Y-35847398D01*
X144467050Y-35805783D01*
X144425518Y-35729490D01*
X144379290Y-35658919D01*
X144328781Y-35594574D01*
X144274404Y-35536962D01*
X144216572Y-35486588D01*
X144189584Y-35466454D01*
X144170801Y-35452825D01*
X144157399Y-35442035D01*
X144147645Y-35432335D01*
X144139804Y-35421975D01*
X144132141Y-35409206D01*
X144131267Y-35407637D01*
X144123337Y-35392633D01*
X144117101Y-35379514D01*
X144113749Y-35370811D01*
X144113571Y-35370055D01*
X144110919Y-35353529D01*
X144108015Y-35330423D01*
X144105049Y-35302613D01*
X144102393Y-35273901D01*
X143848800Y-35273901D01*
X143848705Y-35298615D01*
X143848297Y-35316374D01*
X143847400Y-35328689D01*
X143845834Y-35337069D01*
X143843421Y-35343026D01*
X143840027Y-35348012D01*
X143829374Y-35356334D01*
X143814402Y-35359107D01*
X143794397Y-35356340D01*
X143770512Y-35348747D01*
X143745524Y-35338555D01*
X143719392Y-35326242D01*
X143691340Y-35311336D01*
X143660593Y-35293368D01*
X143626375Y-35271867D01*
X143587911Y-35246364D01*
X143544425Y-35216387D01*
X143497953Y-35183479D01*
X143449552Y-35147746D01*
X143397695Y-35107444D01*
X143343523Y-35063579D01*
X143288174Y-35017156D01*
X143232787Y-34969181D01*
X143178503Y-34920660D01*
X143126459Y-34872599D01*
X143077795Y-34826003D01*
X143033651Y-34781879D01*
X143018244Y-34765606D01*
X142763740Y-34765606D01*
X142762326Y-34798835D01*
X142753274Y-34833235D01*
X142736812Y-34868163D01*
X142713174Y-34902973D01*
X142685475Y-34934153D01*
X142642261Y-34971961D01*
X142591878Y-35005911D01*
X142534786Y-35035830D01*
X142471439Y-35061542D01*
X142402296Y-35082871D01*
X142327812Y-35099643D01*
X142248445Y-35111683D01*
X142212617Y-35115389D01*
X142189109Y-35117369D01*
X142168499Y-35118736D01*
X142149127Y-35119478D01*
X142129331Y-35119580D01*
X142107450Y-35119030D01*
X142081822Y-35117814D01*
X142050785Y-35115919D01*
X142020000Y-35113840D01*
X141952334Y-35106952D01*
X141885215Y-35095887D01*
X141820481Y-35081073D01*
X141759969Y-35062938D01*
X141705516Y-35041909D01*
X141699512Y-35039228D01*
X141658542Y-35017954D01*
X141620560Y-34993003D01*
X141586617Y-34965341D01*
X141557764Y-34935936D01*
X141535051Y-34905756D01*
X141519529Y-34875768D01*
X141518172Y-34872152D01*
X141508097Y-34832990D01*
X141506148Y-34794086D01*
X141512379Y-34755288D01*
X141526844Y-34716446D01*
X141549598Y-34677410D01*
X141580694Y-34638029D01*
X141614620Y-34603327D01*
X141650063Y-34573082D01*
X141404325Y-34573082D01*
X141401961Y-34584363D01*
X141401826Y-34584866D01*
X141393299Y-34606538D01*
X141378335Y-34632795D01*
X141357325Y-34663209D01*
X141330657Y-34697355D01*
X141298720Y-34734805D01*
X141261903Y-34775132D01*
X141220595Y-34817911D01*
X141175184Y-34862715D01*
X141126060Y-34909116D01*
X141073612Y-34956689D01*
X141020934Y-35002690D01*
X140950991Y-35061678D01*
X140883890Y-35116296D01*
X140819957Y-35166315D01*
X140759521Y-35211506D01*
X140702910Y-35251640D01*
X140650451Y-35286488D01*
X140602472Y-35315821D01*
X140559301Y-35339411D01*
X140521267Y-35357029D01*
X140503648Y-35363747D01*
X140479277Y-35371423D01*
X140460878Y-35375126D01*
X140446989Y-35374944D01*
X140436152Y-35370960D01*
X140431911Y-35367975D01*
X140428108Y-35364577D01*
X140425436Y-35360644D01*
X140423717Y-35354767D01*
X140422773Y-35345535D01*
X140422424Y-35331540D01*
X140422493Y-35311372D01*
X140422669Y-35294950D01*
X140423973Y-35250197D01*
X140427040Y-35209460D01*
X140432252Y-35170491D01*
X140439992Y-35131042D01*
X140450643Y-35088868D01*
X140464587Y-35041721D01*
X140467266Y-35033200D01*
X140493880Y-34962577D01*
X140527732Y-34896166D01*
X140568966Y-34833736D01*
X140617727Y-34775059D01*
X140652624Y-34739681D01*
X140701323Y-34698295D01*
X140756554Y-34660141D01*
X140816739Y-34626020D01*
X140880302Y-34596735D01*
X140945662Y-34573086D01*
X141011244Y-34555876D01*
X141016493Y-34554794D01*
X141077312Y-34544977D01*
X141142847Y-34538817D01*
X141210120Y-34536435D01*
X141276155Y-34537949D01*
X141327851Y-34542248D01*
X141356150Y-34545743D01*
X141376959Y-34549164D01*
X141391228Y-34553060D01*
X141399911Y-34557979D01*
X141403959Y-34564470D01*
X141404325Y-34573082D01*
X141650063Y-34573082D01*
X141661229Y-34563554D01*
X141712338Y-34527913D01*
X141768756Y-34495973D01*
X141831290Y-34467302D01*
X141900751Y-34441469D01*
X141942861Y-34428115D01*
X141975040Y-34418924D01*
X142003525Y-34412001D01*
X142030553Y-34407040D01*
X142058363Y-34403733D01*
X142089191Y-34401775D01*
X142125274Y-34400857D01*
X142142767Y-34400708D01*
X142172217Y-34400686D01*
X142195463Y-34401081D01*
X142214768Y-34402089D01*
X142232393Y-34403901D01*
X142250597Y-34406712D01*
X142271643Y-34410715D01*
X142280350Y-34412485D01*
X142343404Y-34427342D01*
X142400566Y-34445132D01*
X142454179Y-34466820D01*
X142506587Y-34493370D01*
X142560132Y-34525745D01*
X142567769Y-34530742D01*
X142616836Y-34565671D01*
X142659725Y-34601496D01*
X142695977Y-34637724D01*
X142725132Y-34673861D01*
X142746730Y-34709413D01*
X142757282Y-34734191D01*
X142763740Y-34765606D01*
X143018244Y-34765606D01*
X142995166Y-34741231D01*
X142987734Y-34733036D01*
X142960016Y-34701720D01*
X142937475Y-34675060D01*
X142919196Y-34651832D01*
X142904264Y-34630813D01*
X142891764Y-34610777D01*
X142880782Y-34590501D01*
X142879867Y-34588682D01*
X142871881Y-34571919D01*
X142867243Y-34558876D01*
X142866662Y-34548949D01*
X142870850Y-34541534D01*
X142880517Y-34536025D01*
X142896374Y-34531818D01*
X142919131Y-34528308D01*
X142949499Y-34524891D01*
X142955567Y-34524265D01*
X143038084Y-34519287D01*
X143119866Y-34521137D01*
X143200051Y-34529629D01*
X143277780Y-34544581D01*
X143352192Y-34565806D01*
X143422427Y-34593120D01*
X143487623Y-34626339D01*
X143517806Y-34644936D01*
X143580872Y-34690705D01*
X143636973Y-34740859D01*
X143686341Y-34795729D01*
X143729213Y-34855649D01*
X143765823Y-34920948D01*
X143796404Y-34991959D01*
X143821193Y-35069013D01*
X143823204Y-35076466D01*
X143836438Y-35134034D01*
X143844679Y-35189638D01*
X143848437Y-35247200D01*
X143848800Y-35273901D01*
X144102393Y-35273901D01*
X144102214Y-35271974D01*
X144099701Y-35240380D01*
X144098416Y-35221583D01*
X144096113Y-35188077D01*
X144093729Y-35160640D01*
X144090927Y-35136878D01*
X144087370Y-35114397D01*
X144082720Y-35090802D01*
X144076641Y-35063701D01*
X144075447Y-35058600D01*
X144052499Y-34975525D01*
X144023830Y-34897899D01*
X143989099Y-34825240D01*
X143947967Y-34757066D01*
X143900092Y-34692895D01*
X143845134Y-34632244D01*
X143782753Y-34574632D01*
X143712608Y-34519576D01*
X143677351Y-34494778D01*
X143656902Y-34481065D01*
X143636002Y-34467391D01*
X143617149Y-34455372D01*
X143603267Y-34446872D01*
X143589796Y-34438874D01*
X143579395Y-34432591D01*
X143574022Y-34429208D01*
X143573756Y-34429012D01*
X143574453Y-34426003D01*
X143582378Y-34421472D01*
X143597877Y-34415258D01*
X143618084Y-34408259D01*
X143658028Y-34393160D01*
X143690541Y-34376896D01*
X143708802Y-34364791D01*
X143720112Y-34353906D01*
X143732479Y-34338510D01*
X143744098Y-34321264D01*
X143753167Y-34304828D01*
X143757733Y-34292599D01*
X143760875Y-34283370D01*
X143766676Y-34275982D01*
X143776609Y-34269389D01*
X143792152Y-34262544D01*
X143808584Y-34256544D01*
X143852192Y-34238158D01*
X143888457Y-34215893D01*
X143917720Y-34189430D01*
X143940319Y-34158452D01*
X143956593Y-34122640D01*
X143958916Y-34115529D01*
X143963941Y-34100591D01*
X143968750Y-34088506D01*
X143972195Y-34082060D01*
X143977604Y-34077223D01*
X143988149Y-34069019D01*
X144001978Y-34058863D01*
X144009149Y-34053775D01*
X144037203Y-34031867D01*
X144063513Y-34007150D01*
X144086390Y-33981438D01*
X144104148Y-33956544D01*
X144110764Y-33944597D01*
X144122130Y-33914418D01*
X144128489Y-33884236D01*
X144133071Y-33850755D01*
X144165861Y-33818619D01*
X144187174Y-33796040D01*
X144202828Y-33775249D01*
X144212912Y-33757457D01*
X144219191Y-33744057D01*
X144223413Y-33732659D01*
X144226084Y-33720815D01*
X144227707Y-33706075D01*
X144228788Y-33685991D01*
X144229058Y-33679197D01*
X144230943Y-33629964D01*
X144257579Y-33592868D01*
X144270154Y-33574565D01*
X144282095Y-33555810D01*
X144291659Y-33539404D01*
X144295381Y-33532171D01*
X144305865Y-33500963D01*
X144309544Y-33467598D01*
X144306184Y-33434904D01*
X144304146Y-33426924D01*
X144296970Y-33402241D01*
X144312295Y-33378462D01*
X144333273Y-33341629D01*
X144346643Y-33307489D01*
X144351023Y-33283111D01*
X144166306Y-33283111D01*
X144163524Y-33290730D01*
X144155998Y-33302848D01*
X144144939Y-33317943D01*
X144131559Y-33334495D01*
X144117070Y-33350985D01*
X144102683Y-33365893D01*
X144093595Y-33374334D01*
X144062060Y-33402371D01*
X144037272Y-33425470D01*
X144019155Y-33443707D01*
X144007635Y-33457159D01*
X144002637Y-33465905D01*
X144002584Y-33468599D01*
X144010570Y-33478011D01*
X144026096Y-33484121D01*
X144049255Y-33486952D01*
X144080142Y-33486524D01*
X144080759Y-33486487D01*
X144124334Y-33483858D01*
X144110610Y-33503937D01*
X144101058Y-33516414D01*
X144087093Y-33532217D01*
X144068284Y-33551786D01*
X144044196Y-33575561D01*
X144014398Y-33603982D01*
X143986223Y-33630297D01*
X143970380Y-33645223D01*
X143957044Y-33658234D01*
X143947330Y-33668208D01*
X143942352Y-33674022D01*
X143941934Y-33674893D01*
X143945894Y-33680220D01*
X143956685Y-33685108D01*
X143972671Y-33689129D01*
X143992214Y-33691855D01*
X144010519Y-33692835D01*
X144047355Y-33693350D01*
X144033803Y-33707516D01*
X144017397Y-33723332D01*
X143995339Y-33742618D01*
X143969064Y-33764212D01*
X143940008Y-33786951D01*
X143909605Y-33809676D01*
X143891300Y-33822830D01*
X143870622Y-33837501D01*
X143856018Y-33848147D01*
X143846640Y-33855618D01*
X143841639Y-33860765D01*
X143840170Y-33864440D01*
X143841383Y-33867494D01*
X143843987Y-33870334D01*
X143850424Y-33874696D01*
X143860813Y-33878044D01*
X143876785Y-33880784D01*
X143893901Y-33882732D01*
X143911957Y-33884800D01*
X143926798Y-33886989D01*
X143936430Y-33888980D01*
X143938913Y-33889974D01*
X143937592Y-33893968D01*
X143929650Y-33901381D01*
X143915943Y-33911667D01*
X143897330Y-33924277D01*
X143874669Y-33938665D01*
X143848817Y-33954283D01*
X143820633Y-33970584D01*
X143790974Y-33987022D01*
X143765646Y-34000484D01*
X143673905Y-34048243D01*
X143685222Y-34057978D01*
X143696843Y-34065215D01*
X143713326Y-34072290D01*
X143731136Y-34077929D01*
X143746742Y-34080857D01*
X143749027Y-34080997D01*
X143760588Y-34082855D01*
X143766251Y-34084623D01*
X143768013Y-34088035D01*
X143762419Y-34093583D01*
X143750218Y-34100951D01*
X143732156Y-34109819D01*
X143708980Y-34119870D01*
X143681439Y-34130785D01*
X143650279Y-34142247D01*
X143616248Y-34153936D01*
X143580094Y-34165536D01*
X143566225Y-34169773D01*
X143545131Y-34176284D01*
X143527257Y-34182100D01*
X143514013Y-34186740D01*
X143506812Y-34189718D01*
X143505916Y-34190414D01*
X143507931Y-34195317D01*
X143512879Y-34204248D01*
X143514089Y-34206260D01*
X143525396Y-34218267D01*
X143544250Y-34230114D01*
X143548933Y-34232446D01*
X143575619Y-34245254D01*
X143562985Y-34250183D01*
X143524791Y-34262492D01*
X143480553Y-34272259D01*
X143432419Y-34279067D01*
X143399879Y-34281720D01*
X143376573Y-34283491D01*
X143352036Y-34286069D01*
X143328021Y-34289192D01*
X143306282Y-34292597D01*
X143288574Y-34296023D01*
X143276651Y-34299205D01*
X143273344Y-34300662D01*
X143269828Y-34304551D01*
X143270567Y-34311167D01*
X143272965Y-34317520D01*
X143278323Y-34326144D01*
X143287401Y-34336993D01*
X143298228Y-34348117D01*
X143308835Y-34357565D01*
X143317252Y-34363385D01*
X143320230Y-34364333D01*
X143323795Y-34367539D01*
X143323867Y-34368334D01*
X143320026Y-34371012D01*
X143310060Y-34373183D01*
X143296311Y-34374593D01*
X143281117Y-34374987D01*
X143268834Y-34374335D01*
X143259358Y-34373552D01*
X143243378Y-34372420D01*
X143222846Y-34371068D01*
X143199712Y-34369629D01*
X143190517Y-34369078D01*
X143161469Y-34367173D01*
X143136399Y-34365005D01*
X143113035Y-34362249D01*
X143089103Y-34358584D01*
X143062329Y-34353685D01*
X143030439Y-34347229D01*
X143016951Y-34344394D01*
X142944746Y-34326071D01*
X142878275Y-34302952D01*
X142817831Y-34275229D01*
X142763707Y-34243092D01*
X142716193Y-34206731D01*
X142675583Y-34166337D01*
X142642170Y-34122100D01*
X142622271Y-34087050D01*
X142609708Y-34060283D01*
X142599784Y-34036354D01*
X142592885Y-34016382D01*
X142589395Y-34001488D01*
X142589701Y-33992792D01*
X142589784Y-33992616D01*
X142594898Y-33985837D01*
X142605472Y-33974399D01*
X142620563Y-33959180D01*
X142639227Y-33941059D01*
X142660519Y-33920915D01*
X142683496Y-33899627D01*
X142707213Y-33878072D01*
X142730727Y-33857131D01*
X142753094Y-33837682D01*
X142773369Y-33820602D01*
X142782993Y-33812773D01*
X142842070Y-33766958D01*
X142907513Y-33718928D01*
X142977860Y-33669688D01*
X143051648Y-33620247D01*
X143127415Y-33571611D01*
X143184167Y-33536566D01*
X143214276Y-33518568D01*
X143249966Y-33497689D01*
X143289956Y-33474644D01*
X143332969Y-33450147D01*
X143377725Y-33424913D01*
X143422945Y-33399655D01*
X143467350Y-33375087D01*
X143509662Y-33351924D01*
X143548601Y-33330880D01*
X143582888Y-33312670D01*
X143611244Y-33298006D01*
X143612792Y-33297223D01*
X143643129Y-33281703D01*
X143666201Y-33269426D01*
X143682443Y-33260110D01*
X143692287Y-33253473D01*
X143696168Y-33249234D01*
X143694520Y-33247111D01*
X143690574Y-33246733D01*
X143685266Y-33248130D01*
X143673150Y-33252053D01*
X143655360Y-33258093D01*
X143633032Y-33265846D01*
X143607299Y-33274904D01*
X143579298Y-33284863D01*
X143550162Y-33295315D01*
X143521027Y-33305854D01*
X143493027Y-33316075D01*
X143467298Y-33325572D01*
X143444974Y-33333937D01*
X143427190Y-33340765D01*
X143421080Y-33343184D01*
X143401098Y-33351420D01*
X143374920Y-33362531D01*
X143344043Y-33375854D01*
X143309964Y-33390726D01*
X143274179Y-33406488D01*
X143238186Y-33422475D01*
X143203480Y-33438027D01*
X143171560Y-33452482D01*
X143143921Y-33465177D01*
X143122784Y-33475104D01*
X143004062Y-33535239D01*
X142884381Y-33602488D01*
X142765297Y-33675882D01*
X142648368Y-33754450D01*
X142535149Y-33837222D01*
X142507677Y-33858404D01*
X142495258Y-33867835D01*
X142485491Y-33873664D01*
X142476620Y-33875703D01*
X142466888Y-33873764D01*
X142454539Y-33867657D01*
X142437818Y-33857193D01*
X142426351Y-33849665D01*
X142383438Y-33817113D01*
X142348084Y-33780861D01*
X142320109Y-33740645D01*
X142299335Y-33696202D01*
X142285583Y-33647267D01*
X142284278Y-33640433D01*
X142281130Y-33618445D01*
X141998775Y-33618445D01*
X141998536Y-33633838D01*
X141997586Y-33645884D01*
X141995766Y-33656288D01*
X141992915Y-33666756D01*
X141988872Y-33678994D01*
X141987120Y-33684086D01*
X141973190Y-33719376D01*
X141957015Y-33749281D01*
X141936682Y-33776877D01*
X141914167Y-33801354D01*
X141896754Y-33817590D01*
X141877310Y-33833560D01*
X141857364Y-33848224D01*
X141838445Y-33860543D01*
X141822084Y-33869476D01*
X141809811Y-33873984D01*
X141806799Y-33874325D01*
X141800268Y-33871749D01*
X141787758Y-33864305D01*
X141769897Y-33852416D01*
X141747314Y-33836506D01*
X141720640Y-33816999D01*
X141710637Y-33809538D01*
X141621288Y-33744604D01*
X141533973Y-33685442D01*
X141446332Y-33630587D01*
X141356005Y-33578574D01*
X141260632Y-33527938D01*
X141241067Y-33518010D01*
X141159207Y-33477327D01*
X141082762Y-33440591D01*
X141010071Y-33407095D01*
X140939474Y-33376135D01*
X140869312Y-33347004D01*
X140797924Y-33318997D01*
X140723651Y-33291409D01*
X140644833Y-33263534D01*
X140631731Y-33259015D01*
X140613914Y-33252876D01*
X140602650Y-33249152D01*
X140596451Y-33247611D01*
X140593828Y-33248021D01*
X140593292Y-33250150D01*
X140593367Y-33253036D01*
X140597015Y-33257815D01*
X140607008Y-33264981D01*
X140621918Y-33273562D01*
X140628292Y-33276849D01*
X140659817Y-33292956D01*
X140697393Y-33312659D01*
X140739772Y-33335269D01*
X140785702Y-33360095D01*
X140833933Y-33386448D01*
X140883217Y-33413637D01*
X140932302Y-33440974D01*
X140979939Y-33467767D01*
X141024878Y-33493328D01*
X141065868Y-33516967D01*
X141101660Y-33537993D01*
X141103484Y-33539078D01*
X141165876Y-33577364D01*
X141230456Y-33619091D01*
X141295783Y-33663226D01*
X141360413Y-33708736D01*
X141422906Y-33754590D01*
X141481819Y-33799754D01*
X141535709Y-33843194D01*
X141575493Y-33877116D01*
X141593009Y-33892795D01*
X141611973Y-33910245D01*
X141631279Y-33928395D01*
X141649820Y-33946175D01*
X141666491Y-33962512D01*
X141680187Y-33976336D01*
X141689800Y-33986576D01*
X141694183Y-33992078D01*
X141694751Y-34000521D01*
X141691324Y-34015492D01*
X141687168Y-34027950D01*
X141662721Y-34083728D01*
X141631678Y-34134438D01*
X141593952Y-34180157D01*
X141549460Y-34220962D01*
X141498119Y-34256929D01*
X141439843Y-34288136D01*
X141374550Y-34314658D01*
X141372136Y-34315503D01*
X141329814Y-34329394D01*
X141289564Y-34340675D01*
X141249503Y-34349685D01*
X141207750Y-34356764D01*
X141162423Y-34362253D01*
X141111640Y-34366492D01*
X141078717Y-34368523D01*
X141055709Y-34369955D01*
X141035749Y-34371497D01*
X141020335Y-34373008D01*
X141010968Y-34374350D01*
X141008867Y-34375023D01*
X141003545Y-34375991D01*
X140993072Y-34375689D01*
X140980609Y-34374452D01*
X140969318Y-34372612D01*
X140962360Y-34370502D01*
X140961751Y-34370061D01*
X140963016Y-34366316D01*
X140968024Y-34361787D01*
X140984921Y-34347954D01*
X140998254Y-34333780D01*
X141007235Y-34320494D01*
X141011077Y-34309325D01*
X141008996Y-34301503D01*
X141007421Y-34300191D01*
X140999462Y-34296288D01*
X140987985Y-34292879D01*
X140971960Y-34289794D01*
X140950360Y-34286865D01*
X140922156Y-34283920D01*
X140893934Y-34281420D01*
X140844094Y-34276477D01*
X140801173Y-34270613D01*
X140765603Y-34263903D01*
X140737813Y-34256423D01*
X140726315Y-34252142D01*
X140709784Y-34245122D01*
X140733704Y-34232906D01*
X140751383Y-34222179D01*
X140765161Y-34210503D01*
X140773543Y-34199323D01*
X140775401Y-34192568D01*
X140771496Y-34188748D01*
X140760673Y-34183643D01*
X140744269Y-34177850D01*
X140738359Y-34176037D01*
X140703502Y-34165293D01*
X140668814Y-34153891D01*
X140635234Y-34142204D01*
X140603699Y-34130601D01*
X140575147Y-34119455D01*
X140550515Y-34109137D01*
X140530740Y-34100018D01*
X140516761Y-34092470D01*
X140509515Y-34086864D01*
X140508701Y-34085065D01*
X140512536Y-34082968D01*
X140522469Y-34080980D01*
X140533042Y-34079822D01*
X140550410Y-34077192D01*
X140567887Y-34072432D01*
X140583512Y-34066347D01*
X140595324Y-34059742D01*
X140601363Y-34053424D01*
X140601755Y-34051603D01*
X140598015Y-34046954D01*
X140586801Y-34039205D01*
X140568020Y-34028300D01*
X140541577Y-34014181D01*
X140526863Y-34006616D01*
X140488757Y-33986531D01*
X140452149Y-33965943D01*
X140418378Y-33945677D01*
X140388782Y-33926554D01*
X140364702Y-33909398D01*
X140352067Y-33899194D01*
X140337250Y-33886310D01*
X140363500Y-33886138D01*
X140388955Y-33884683D01*
X140412022Y-33880956D01*
X140430609Y-33875407D01*
X140441584Y-33869385D01*
X140446033Y-33865413D01*
X140446986Y-33862070D01*
X140443448Y-33857965D01*
X140434425Y-33851705D01*
X140424454Y-33845384D01*
X140407353Y-33834010D01*
X140387074Y-33819552D01*
X140364695Y-33802879D01*
X140341293Y-33784860D01*
X140317945Y-33766364D01*
X140295728Y-33748259D01*
X140275719Y-33731414D01*
X140258995Y-33716698D01*
X140246632Y-33704980D01*
X140239708Y-33697128D01*
X140238856Y-33695664D01*
X140242266Y-33694564D01*
X140252246Y-33693648D01*
X140266898Y-33693066D01*
X140272723Y-33692970D01*
X140294169Y-33691696D01*
X140312892Y-33688649D01*
X140327449Y-33684261D01*
X140336397Y-33678965D01*
X140338333Y-33673301D01*
X140334812Y-33668949D01*
X140325975Y-33659813D01*
X140312765Y-33646816D01*
X140296124Y-33630880D01*
X140276992Y-33612925D01*
X140270133Y-33606566D01*
X140248399Y-33585963D01*
X140227116Y-33564847D01*
X140207163Y-33544182D01*
X140189415Y-33524933D01*
X140174750Y-33508064D01*
X140164047Y-33494541D01*
X140158181Y-33485328D01*
X140157334Y-33482521D01*
X140160966Y-33482055D01*
X140170004Y-33483443D01*
X140173209Y-33484144D01*
X140200989Y-33488051D01*
X140229015Y-33487498D01*
X140254823Y-33482773D01*
X140275952Y-33474161D01*
X140279803Y-33471723D01*
X140282011Y-33466376D01*
X140277961Y-33457461D01*
X140267449Y-33444747D01*
X140250276Y-33428001D01*
X140226241Y-33406992D01*
X140217060Y-33399324D01*
X140198867Y-33383832D01*
X140181684Y-33368420D01*
X140167295Y-33354741D01*
X140157487Y-33344447D01*
X140156557Y-33343341D01*
X140147388Y-33331484D01*
X140137439Y-33317586D01*
X140127993Y-33303582D01*
X140120335Y-33291410D01*
X140115749Y-33283005D01*
X140115000Y-33280673D01*
X140118968Y-33279866D01*
X140129825Y-33279430D01*
X140146000Y-33279389D01*
X140165922Y-33279765D01*
X140169975Y-33279884D01*
X140192693Y-33280481D01*
X140208352Y-33280520D01*
X140218349Y-33279867D01*
X140224081Y-33278389D01*
X140226944Y-33275953D01*
X140227718Y-33274384D01*
X140228424Y-33263458D01*
X140225083Y-33246682D01*
X140218232Y-33225325D01*
X140208408Y-33200655D01*
X140196149Y-33173940D01*
X140181991Y-33146450D01*
X140166470Y-33119453D01*
X140153640Y-33099368D01*
X140127482Y-33060466D01*
X140240833Y-33060048D01*
X140283548Y-33059767D01*
X140318471Y-33059241D01*
X140346272Y-33058422D01*
X140367625Y-33057263D01*
X140383199Y-33055716D01*
X140393668Y-33053735D01*
X140399702Y-33051272D01*
X140401857Y-33048732D01*
X140399790Y-33043690D01*
X140392822Y-33034177D01*
X140382101Y-33021647D01*
X140371275Y-33010096D01*
X140338915Y-32976844D01*
X140367352Y-32971478D01*
X140402380Y-32967549D01*
X140441974Y-32968248D01*
X140486813Y-32973641D01*
X140537575Y-32983793D01*
X140564741Y-32990505D01*
X140588890Y-32996574D01*
X140610482Y-33001581D01*
X140628078Y-33005225D01*
X140640240Y-33007207D01*
X140645356Y-33007320D01*
X140652848Y-33000486D01*
X140658030Y-32988475D01*
X140659806Y-32974490D01*
X140659001Y-32967412D01*
X140654318Y-32957202D01*
X140644814Y-32943849D01*
X140633331Y-32930905D01*
X140623618Y-32920353D01*
X140617877Y-32912870D01*
X140617017Y-32909696D01*
X140617837Y-32909766D01*
X140625106Y-32911376D01*
X140638413Y-32913835D01*
X140655421Y-32916721D01*
X140663816Y-32918072D01*
X140681213Y-32921433D01*
X140704332Y-32926779D01*
X140730830Y-32933521D01*
X140758362Y-32941071D01*
X140775510Y-32946077D01*
X140803090Y-32954039D01*
X140826302Y-32960121D01*
X140844102Y-32964076D01*
X140855446Y-32965662D01*
X140858333Y-32965498D01*
X140866478Y-32960337D01*
X140870812Y-32948909D01*
X140870840Y-32948763D01*
X140870741Y-32933354D01*
X140864266Y-32917386D01*
X140850863Y-32899786D01*
X140839998Y-32888694D01*
X140830348Y-32878747D01*
X140824249Y-32871075D01*
X140823008Y-32867514D01*
X140828951Y-32866762D01*
X140841309Y-32868707D01*
X140858644Y-32872885D01*
X140879518Y-32878831D01*
X140902490Y-32886082D01*
X140926124Y-32894172D01*
X140948979Y-32902640D01*
X140969617Y-32911019D01*
X140986600Y-32918846D01*
X140993417Y-32922491D01*
X141005996Y-32929713D01*
X141022251Y-32939050D01*
X141037528Y-32947830D01*
X141051464Y-32955157D01*
X141063012Y-32959993D01*
X141069906Y-32961406D01*
X141070312Y-32961302D01*
X141077580Y-32955157D01*
X141084928Y-32943977D01*
X141090612Y-32930996D01*
X141092885Y-32919498D01*
X141090154Y-32904949D01*
X141083065Y-32888428D01*
X141073323Y-32873868D01*
X141072906Y-32873386D01*
X141067655Y-32865879D01*
X141068592Y-32862729D01*
X141074926Y-32863500D01*
X141085864Y-32867757D01*
X141100614Y-32875066D01*
X141118384Y-32884992D01*
X141138382Y-32897100D01*
X141159815Y-32910955D01*
X141181892Y-32926122D01*
X141203821Y-32942166D01*
X141217518Y-32952778D01*
X141235308Y-32966606D01*
X141250929Y-32978183D01*
X141263132Y-32986628D01*
X141270669Y-32991059D01*
X141272325Y-32991486D01*
X141276890Y-32987451D01*
X141284254Y-32978499D01*
X141290582Y-32969768D01*
X141298607Y-32956953D01*
X141302826Y-32945818D01*
X141304403Y-32932418D01*
X141304567Y-32922421D01*
X141305094Y-32908540D01*
X141306472Y-32898781D01*
X141308264Y-32895366D01*
X141314308Y-32898105D01*
X141325306Y-32905652D01*
X141340056Y-32917003D01*
X141357357Y-32931152D01*
X141376006Y-32947095D01*
X141394803Y-32963828D01*
X141412545Y-32980344D01*
X141427319Y-32994910D01*
X141443490Y-33011357D01*
X141454955Y-33022527D01*
X141462885Y-33029234D01*
X141468454Y-33032293D01*
X141472834Y-33032520D01*
X141477198Y-33030729D01*
X141478119Y-33030229D01*
X141486356Y-33023020D01*
X141495060Y-33011445D01*
X141498549Y-33005393D01*
X141504474Y-32991848D01*
X141506742Y-32979217D01*
X141506119Y-32963056D01*
X141506023Y-32962041D01*
X141505173Y-32949001D01*
X141505388Y-32940167D01*
X141506304Y-32937700D01*
X141511875Y-32940676D01*
X141522073Y-32948935D01*
X141535856Y-32961467D01*
X141552183Y-32977267D01*
X141570011Y-32995326D01*
X141588300Y-33014638D01*
X141605560Y-33033689D01*
X141630053Y-33061308D01*
X141649644Y-33083144D01*
X141664955Y-33099829D01*
X141676609Y-33111996D01*
X141685227Y-33120279D01*
X141691430Y-33125311D01*
X141695841Y-33127726D01*
X141698360Y-33128200D01*
X141704087Y-33124449D01*
X141710888Y-33114579D01*
X141717706Y-33100665D01*
X141723479Y-33084781D01*
X141726390Y-33073313D01*
X141729769Y-33061499D01*
X141734506Y-33056219D01*
X141741527Y-33057571D01*
X141751755Y-33065655D01*
X141763090Y-33077276D01*
X141793489Y-33112549D01*
X141825643Y-33154355D01*
X141858530Y-33201229D01*
X141891125Y-33251705D01*
X141922406Y-33304318D01*
X141925756Y-33310233D01*
X141935689Y-33329769D01*
X141947024Y-33355173D01*
X141958851Y-33384170D01*
X141970262Y-33414482D01*
X141980345Y-33443833D01*
X141984722Y-33457824D01*
X141988851Y-33472538D01*
X141991910Y-33486358D01*
X141994113Y-33501146D01*
X141995675Y-33518766D01*
X141996812Y-33541079D01*
X141997739Y-33569949D01*
X141997762Y-33570797D01*
X141998463Y-33598000D01*
X141998775Y-33618445D01*
X142281130Y-33618445D01*
X142280085Y-33611149D01*
X142278768Y-33583379D01*
X142280385Y-33554274D01*
X142284995Y-33520983D01*
X142286974Y-33509731D01*
X142302957Y-33443650D01*
X142326877Y-33376219D01*
X142358426Y-33308016D01*
X142397299Y-33239617D01*
X142443186Y-33171602D01*
X142495783Y-33104547D01*
X142513372Y-33084079D01*
X142546519Y-33046308D01*
X142557701Y-33081086D01*
X142565539Y-33103227D01*
X142572586Y-33117772D01*
X142579405Y-33125483D01*
X142586561Y-33127122D01*
X142590761Y-33125752D01*
X142596012Y-33121465D01*
X142605812Y-33111855D01*
X142619144Y-33097981D01*
X142634993Y-33080901D01*
X142652342Y-33061675D01*
X142653383Y-33060505D01*
X142676950Y-33034388D01*
X142699819Y-33009780D01*
X142721128Y-32987552D01*
X142740017Y-32968577D01*
X142755624Y-32953727D01*
X142767088Y-32943873D01*
X142771720Y-32940664D01*
X142774894Y-32940249D01*
X142776748Y-32944350D01*
X142777599Y-32954371D01*
X142777767Y-32967681D01*
X142779887Y-32993297D01*
X142786616Y-33012786D01*
X142798514Y-33027456D01*
X142805482Y-33032690D01*
X142812492Y-33036672D01*
X142817505Y-33036232D01*
X142823430Y-33030438D01*
X142827262Y-33025720D01*
X142842459Y-33008375D01*
X142862363Y-32987997D01*
X142884853Y-32966557D01*
X142907807Y-32946026D01*
X142929104Y-32928377D01*
X142943619Y-32917591D01*
X142957907Y-32907902D01*
X142969365Y-32900352D01*
X142976360Y-32896006D01*
X142977696Y-32895366D01*
X142978322Y-32899195D01*
X142978219Y-32909126D01*
X142977603Y-32920087D01*
X142978038Y-32942137D01*
X142983766Y-32959809D01*
X142995946Y-32976114D01*
X143001131Y-32981285D01*
X143013584Y-32993120D01*
X143035866Y-32974935D01*
X143070342Y-32947397D01*
X143100095Y-32925005D01*
X143126360Y-32906887D01*
X143150368Y-32892172D01*
X143162564Y-32885475D01*
X143183470Y-32874742D01*
X143197758Y-32868309D01*
X143206099Y-32866173D01*
X143209166Y-32868328D01*
X143207630Y-32874768D01*
X143202342Y-32885168D01*
X143193862Y-32906327D01*
X143191838Y-32926747D01*
X143196387Y-32944463D01*
X143198504Y-32948145D01*
X143206027Y-32955862D01*
X143213548Y-32958866D01*
X143220209Y-32956967D01*
X143232593Y-32951784D01*
X143248988Y-32944087D01*
X143267683Y-32934644D01*
X143269542Y-32933672D01*
X143291179Y-32922678D01*
X143313428Y-32911995D01*
X143333500Y-32902929D01*
X143347150Y-32897325D01*
X143363027Y-32891754D01*
X143382271Y-32885603D01*
X143402897Y-32879434D01*
X143422918Y-32873809D01*
X143440348Y-32869292D01*
X143453200Y-32866444D01*
X143458612Y-32865744D01*
X143458477Y-32868585D01*
X143453468Y-32876220D01*
X143444539Y-32887302D01*
X143438368Y-32894308D01*
X143426490Y-32908181D01*
X143416858Y-32920836D01*
X143410968Y-32930246D01*
X143409977Y-32932720D01*
X143409934Y-32944939D01*
X143414440Y-32956981D01*
X143421956Y-32965105D01*
X143423631Y-32965909D01*
X143430270Y-32965781D01*
X143442948Y-32963416D01*
X143459669Y-32959240D01*
X143473558Y-32955210D01*
X143494928Y-32948971D01*
X143519724Y-32942250D01*
X143546379Y-32935417D01*
X143573324Y-32928840D01*
X143598994Y-32922890D01*
X143621821Y-32917935D01*
X143640238Y-32914345D01*
X143652677Y-32912490D01*
X143655594Y-32912316D01*
X143663869Y-32912613D01*
X143664479Y-32914706D01*
X143658982Y-32919708D01*
X143651459Y-32927780D01*
X143642406Y-32939816D01*
X143633316Y-32953496D01*
X143625682Y-32966499D01*
X143620999Y-32976505D01*
X143620222Y-32979936D01*
X143622737Y-32987397D01*
X143628862Y-32997122D01*
X143629810Y-32998338D01*
X143639377Y-33010294D01*
X143690114Y-32997531D01*
X143734396Y-32986787D01*
X143771829Y-32978619D01*
X143803561Y-32972827D01*
X143830744Y-32969212D01*
X143854525Y-32967577D01*
X143864282Y-32967434D01*
X143888333Y-32968178D01*
X143909314Y-32970119D01*
X143925572Y-32973023D01*
X143935451Y-32976656D01*
X143936749Y-32977670D01*
X143935059Y-32981549D01*
X143928433Y-32989955D01*
X143918012Y-33001523D01*
X143908897Y-33010948D01*
X143892018Y-33029034D01*
X143881997Y-33042461D01*
X143878744Y-33051409D01*
X143882169Y-33056058D01*
X143885842Y-33056794D01*
X143891801Y-33057016D01*
X143905124Y-33057377D01*
X143924709Y-33057852D01*
X143949456Y-33058414D01*
X143978262Y-33059038D01*
X144010027Y-33059700D01*
X144023314Y-33059969D01*
X144153378Y-33062583D01*
X144127477Y-33102799D01*
X144110909Y-33129965D01*
X144095455Y-33158009D01*
X144081634Y-33185722D01*
X144069960Y-33211898D01*
X144060952Y-33235326D01*
X144055127Y-33254800D01*
X144053000Y-33269110D01*
X144053815Y-33274988D01*
X144056140Y-33277590D01*
X144061613Y-33279272D01*
X144071544Y-33280144D01*
X144087245Y-33280319D01*
X144110028Y-33279909D01*
X144111269Y-33279878D01*
X144136724Y-33279532D01*
X144154120Y-33280012D01*
X144163826Y-33281338D01*
X144166306Y-33283111D01*
X144351023Y-33283111D01*
X144352457Y-33275134D01*
X144350771Y-33243656D01*
X144341638Y-33212148D01*
X144325113Y-33179701D01*
X144324222Y-33178247D01*
X144309408Y-33154211D01*
X144321120Y-33125330D01*
X144326709Y-33110357D01*
X144330241Y-33096926D01*
X144332189Y-33082154D01*
X144333029Y-33063159D01*
X144333175Y-33051999D01*
X144333127Y-33031188D01*
X144332328Y-33016339D01*
X144330361Y-33004955D01*
X144326809Y-32994537D01*
X144321789Y-32983667D01*
X144304464Y-32957133D01*
X144280759Y-32933680D01*
X144252689Y-32915291D01*
X144251954Y-32914916D01*
X144233800Y-32907759D01*
X144210508Y-32901444D01*
X144184998Y-32896491D01*
X144160189Y-32893424D01*
X144139000Y-32892762D01*
X144131422Y-32893389D01*
X144120353Y-32894612D01*
X144112565Y-32893774D01*
X144105395Y-32889719D01*
X144096182Y-32881293D01*
X144090568Y-32875676D01*
X144058946Y-32848995D01*
X144023174Y-32828734D01*
X143982453Y-32814537D01*
X143935987Y-32806048D01*
X143934246Y-32805849D01*
X143911059Y-32803342D01*
X143894128Y-32801826D01*
X143881308Y-32801257D01*
X143870452Y-32801588D01*
X143859414Y-32802774D01*
X143850628Y-32804058D01*
X143838762Y-32805563D01*
X143830432Y-32804894D01*
X143822661Y-32801010D01*
X143812473Y-32792872D01*
X143808295Y-32789268D01*
X143792606Y-32777275D01*
X143774729Y-32765892D01*
X143764134Y-32760288D01*
X143753827Y-32755830D01*
X143743919Y-32752697D01*
X143732487Y-32750598D01*
X143717606Y-32749248D01*
X143697353Y-32748356D01*
X143681584Y-32747915D01*
X143657788Y-32747227D01*
X143640817Y-32746368D01*
X143629030Y-32745071D01*
X143620784Y-32743067D01*
X143614440Y-32740087D01*
X143608497Y-32735972D01*
X143582030Y-32719996D01*
X143550358Y-32707511D01*
X143519590Y-32700197D01*
X143486899Y-32697825D01*
X143450498Y-32700322D01*
X143413374Y-32707378D01*
X143392963Y-32713345D01*
X143378801Y-32717762D01*
X143367293Y-32720780D01*
X143361967Y-32721655D01*
X143355467Y-32719527D01*
X143344233Y-32713857D01*
X143330565Y-32705819D01*
X143328989Y-32704826D01*
X143302360Y-32687933D01*
X143246772Y-32687933D01*
X143221143Y-32688226D01*
X143221143Y-32688226D01*
G37*
X143221143Y-32688226D02*
X143202953Y-32689167D01*
X143191191Y-32690847D01*
X143184848Y-32693361D01*
X143184501Y-32693638D01*
X143176214Y-32698759D01*
X143162368Y-32705427D01*
X143145267Y-32712732D01*
X143127218Y-32719764D01*
X143110526Y-32725614D01*
X143097498Y-32729371D01*
X143091669Y-32730269D01*
X143082363Y-32729457D01*
X143067544Y-32727295D01*
X143049977Y-32724201D01*
X143044767Y-32723190D01*
X143018586Y-32719250D01*
X142995052Y-32718901D01*
X142972036Y-32722542D01*
X142947409Y-32730572D01*
X142919042Y-32743393D01*
X142908315Y-32748838D01*
X142863179Y-32772219D01*
X142812778Y-32769685D01*
X142782143Y-32768936D01*
X142756229Y-32770507D01*
X142733421Y-32775063D01*
X142712103Y-32783273D01*
X142690658Y-32795802D01*
X142667471Y-32813318D01*
X142640926Y-32836488D01*
X142632807Y-32843954D01*
X142617268Y-32857743D01*
X142602900Y-32869392D01*
X142591378Y-32877611D01*
X142584716Y-32881037D01*
X142575012Y-32882107D01*
X142560061Y-32882273D01*
X142543035Y-32881503D01*
X142542426Y-32881457D01*
X142511217Y-32879097D01*
X142474357Y-32905223D01*
X142419788Y-32948622D01*
X142367638Y-32999551D01*
X142318550Y-33057265D01*
X142273167Y-33121016D01*
X142236943Y-33181266D01*
X142225067Y-33203801D01*
X142211922Y-33230552D01*
X142198451Y-33259426D01*
X142185593Y-33288330D01*
X142174289Y-33315171D01*
X142165480Y-33337856D01*
X142161869Y-33348333D01*
X142157356Y-33361525D01*
X142153467Y-33371297D01*
X142151600Y-33374751D01*
X142149174Y-33372156D01*
X142144376Y-33362920D01*
X142137803Y-33348330D01*
X142130052Y-33329675D01*
X142126112Y-33319718D01*
X142088345Y-33232887D01*
X142045120Y-33152191D01*
X141996579Y-33077885D01*
X141975535Y-33049788D01*
X141955116Y-33025516D01*
X141930100Y-32998799D01*
X141902384Y-32971435D01*
X141873863Y-32945225D01*
X141846434Y-32921967D01*
X141821993Y-32903460D01*
X141819466Y-32901721D01*
X141783279Y-32877141D01*
X141706317Y-32882603D01*
X141662054Y-32840507D01*
X141637325Y-32817974D01*
X141616357Y-32801147D01*
X141597796Y-32788986D01*
X141589237Y-32784447D01*
X141578027Y-32779085D01*
X141568711Y-32775300D01*
X141559455Y-32772805D01*
X141548424Y-32771316D01*
X141533785Y-32770547D01*
X141513702Y-32770213D01*
X141496910Y-32770095D01*
X141433137Y-32769708D01*
X141389901Y-32748146D01*
X141362354Y-32735057D01*
X141339578Y-32726154D01*
X141319231Y-32721030D01*
X141298971Y-32719278D01*
X141276456Y-32720492D01*
X141250885Y-32724016D01*
X141231197Y-32727068D01*
X141215842Y-32728729D01*
X141202858Y-32728638D01*
X141190278Y-32726431D01*
X141176140Y-32721746D01*
X141158478Y-32714219D01*
X141135329Y-32703488D01*
X141132465Y-32702145D01*
X141119711Y-32696321D01*
X141109300Y-32692355D01*
X141099093Y-32689889D01*
X141086947Y-32688567D01*
X141070721Y-32688034D01*
X141048274Y-32687933D01*
X141046990Y-32687933D01*
X141026214Y-32688222D01*
X141008621Y-32689011D01*
X140995876Y-32690187D01*
X140989642Y-32691634D01*
X140989344Y-32691907D01*
X140984569Y-32696006D01*
X140974710Y-32702559D01*
X140964753Y-32708496D01*
X140942617Y-32721112D01*
X140898167Y-32710967D01*
X140863609Y-32703701D01*
X140835333Y-32699262D01*
X140811696Y-32697504D01*
X140791052Y-32698277D01*
X140777965Y-32700158D01*
X140749541Y-32707913D01*
X140719809Y-32720160D01*
X140693103Y-32735079D01*
X140690268Y-32736990D01*
X140683598Y-32741222D01*
X140676840Y-32744178D01*
X140668305Y-32746117D01*
X140656307Y-32747299D01*
X140639156Y-32747986D01*
X140616185Y-32748423D01*
X140592006Y-32748921D01*
X140574363Y-32749747D01*
X140561323Y-32751182D01*
X140550955Y-32753505D01*
X140541329Y-32756996D01*
X140533860Y-32760349D01*
X140516829Y-32770003D01*
X140499519Y-32782371D01*
X140491617Y-32789190D01*
X140472897Y-32806998D01*
X140447407Y-32802563D01*
X140431626Y-32800673D01*
X140414012Y-32800488D01*
X140392179Y-32802061D01*
X140373234Y-32804222D01*
X140332483Y-32810750D01*
X140298240Y-32819681D01*
X140268706Y-32831783D01*
X140242081Y-32847827D01*
X140216567Y-32868581D01*
X140211372Y-32873429D01*
X140198987Y-32884956D01*
X140190392Y-32891642D01*
X140183327Y-32894569D01*
X140175529Y-32894817D01*
X140168398Y-32893972D01*
X140151378Y-32893452D01*
X140129157Y-32895279D01*
X140104517Y-32898982D01*
X140080241Y-32904089D01*
X140059114Y-32910131D01*
X140048642Y-32914219D01*
X140018972Y-32932221D01*
X139994914Y-32956052D01*
X139977209Y-32984679D01*
X139966603Y-33017068D01*
X139964473Y-33031250D01*
X139964117Y-33061296D01*
X139968289Y-33092694D01*
X139976372Y-33121575D01*
X139980448Y-33131316D01*
X139989195Y-33149924D01*
X139968712Y-33192631D01*
X139956188Y-33221233D01*
X139948685Y-33245419D01*
X139945926Y-33267375D01*
X139947635Y-33289291D01*
X139953474Y-33313151D01*
X139960475Y-33331541D01*
X139970453Y-33352255D01*
X139981272Y-33370867D01*
X139981481Y-33371186D01*
X139990392Y-33385322D01*
X139997108Y-33397114D01*
X140000500Y-33404539D01*
X140000701Y-33405594D01*
X139999156Y-33412559D01*
X139995305Y-33423557D01*
X139993834Y-33427191D01*
X139990019Y-33439459D01*
X139988647Y-33453786D01*
X139989456Y-33473138D01*
X139989623Y-33475174D01*
X139992884Y-33497648D01*
X139999230Y-33519363D01*
X140009407Y-33541963D01*
X140024158Y-33567091D01*
X140044230Y-33596393D01*
X140045095Y-33597593D01*
X140073755Y-33637302D01*
X140068535Y-33659059D01*
X140065966Y-33672494D01*
X140065711Y-33684524D01*
X140067917Y-33698737D01*
X140070620Y-33710366D01*
X140079040Y-33739158D01*
X140089511Y-33763527D01*
X140103350Y-33785529D01*
X140121874Y-33807221D01*
X140146401Y-33830660D01*
X140149309Y-33833245D01*
X140159241Y-33842375D01*
X140165201Y-33849812D01*
X140168443Y-33858347D01*
X140170217Y-33870769D01*
X140171151Y-33881928D01*
X140173383Y-33900230D01*
X140176842Y-33917648D01*
X140180694Y-33930179D01*
X140196557Y-33959533D01*
X140219149Y-33989743D01*
X140247081Y-34019259D01*
X140278962Y-34046532D01*
X140296242Y-34059041D01*
X140313154Y-34071110D01*
X140324511Y-34081198D01*
X140332083Y-34091565D01*
X140337642Y-34104472D01*
X140341401Y-34116629D01*
X140347300Y-34133984D01*
X140354605Y-34151155D01*
X140359123Y-34159838D01*
X140376530Y-34183063D01*
X140400516Y-34205795D01*
X140429234Y-34226730D01*
X140460835Y-34244568D01*
X140493471Y-34258006D01*
X140502351Y-34260748D01*
X140519412Y-34266017D01*
X140530056Y-34270845D01*
X140536131Y-34276618D01*
X140539485Y-34284727D01*
X140540593Y-34289484D01*
X140550134Y-34315322D01*
X140567302Y-34340018D01*
X140591270Y-34362883D01*
X140621211Y-34383230D01*
X140656298Y-34400369D01*
X140686650Y-34411051D01*
X140702083Y-34415887D01*
X140714292Y-34420156D01*
X140721039Y-34423064D01*
X140721534Y-34423411D01*
X140719257Y-34426584D01*
X140710945Y-34433634D01*
X140697630Y-34443776D01*
X140680346Y-34456222D01*
X140660151Y-34470168D01*
X140619360Y-34498103D01*
X140584723Y-34522532D01*
X140555132Y-34544306D01*
X140529479Y-34564272D01*
X140506657Y-34583280D01*
X140485558Y-34602180D01*
X140475257Y-34611904D01*
X140416822Y-34672836D01*
X140365844Y-34736559D01*
X140321965Y-34803734D01*
X140284822Y-34875021D01*
X140254055Y-34951079D01*
X140229304Y-35032570D01*
X140217171Y-35084438D01*
X140210799Y-35117015D01*
X140205552Y-35149267D01*
X140201229Y-35182979D01*
X140197628Y-35219934D01*
X140194546Y-35261918D01*
X140191979Y-35306822D01*
X140188684Y-35370895D01*
X140169409Y-35404189D01*
X140159748Y-35420101D01*
X140150894Y-35432113D01*
X140140742Y-35442425D01*
X140127188Y-35453238D01*
X140112459Y-35463743D01*
X140086659Y-35483221D01*
X140057722Y-35507553D01*
X140027650Y-35534863D01*
X139998442Y-35563275D01*
X139972100Y-35590912D01*
X139951787Y-35614447D01*
X139913347Y-35665844D01*
X139877286Y-35721371D01*
X139844266Y-35779618D01*
X139814953Y-35839179D01*
X139790008Y-35898646D01*
X139770095Y-35956611D01*
X139755878Y-36011667D01*
X139750548Y-36041409D01*
X139747769Y-36058083D01*
X139744898Y-36071580D01*
X139742435Y-36079654D01*
X139741804Y-36080738D01*
X139740849Y-36085893D01*
X139740047Y-36098224D01*
X139739398Y-36116519D01*
X139738900Y-36139563D01*
X139738553Y-36166144D01*
X139738356Y-36195048D01*
X139738308Y-36225062D01*
X139738409Y-36254971D01*
X139738658Y-36283564D01*
X139739054Y-36309626D01*
X139739596Y-36331944D01*
X139740283Y-36349305D01*
X139741116Y-36360494D01*
X139741979Y-36364281D01*
X139744722Y-36369517D01*
X139747445Y-36380189D01*
X139748544Y-36386756D01*
X139751595Y-36402811D01*
X139756858Y-36424684D01*
X139763710Y-36450213D01*
X139771531Y-36477236D01*
X139779699Y-36503591D01*
X139787593Y-36527118D01*
X139793304Y-36542475D01*
X139824650Y-36612107D01*
X139863074Y-36681684D01*
X139907399Y-36749272D01*
X139956447Y-36812934D01*
X139961094Y-36818454D01*
X139972370Y-36832924D01*
X139980317Y-36845483D01*
X139983722Y-36854177D01*
X139983767Y-36854893D01*
X139984875Y-36862197D01*
X139987945Y-36876194D01*
X139992595Y-36895444D01*
X139998443Y-36918504D01*
X140005107Y-36943934D01*
X140012206Y-36970291D01*
X140019358Y-36996133D01*
X140026181Y-37020019D01*
X140032293Y-37040507D01*
X140036090Y-37052500D01*
X140040735Y-37066193D01*
X140047674Y-37086086D01*
X140056286Y-37110428D01*
X140065953Y-37137469D01*
X140076054Y-37165460D01*
X140078407Y-37171941D01*
X140092555Y-37212081D01*
X140103519Y-37246093D01*
X140111748Y-37275497D01*
X140117692Y-37301814D01*
X140119132Y-37309525D01*
X140138967Y-37397269D01*
X140166908Y-37482796D01*
X140202808Y-37565794D01*
X140246522Y-37645948D01*
X140297906Y-37722943D01*
X140329241Y-37763655D01*
X140348953Y-37786709D01*
X140373433Y-37813266D01*
X140400860Y-37841511D01*
X140429414Y-37869630D01*
X140457272Y-37895809D01*
X140482614Y-37918234D01*
X140493248Y-37927050D01*
X140532603Y-37956844D01*
X140575641Y-37986056D01*
X140620371Y-38013509D01*
X140664799Y-38038026D01*
X140706932Y-38058430D01*
X140735991Y-38070387D01*
X140753538Y-38077800D01*
X140770271Y-38086311D01*
X140782557Y-38094071D01*
X140812667Y-38116335D01*
X140848444Y-38141564D01*
X140888151Y-38168622D01*
X140930049Y-38196370D01*
X140972401Y-38223670D01*
X141013468Y-38249383D01*
X141051514Y-38272373D01*
X141079675Y-38288639D01*
X141108245Y-38304119D01*
X141141322Y-38321096D01*
X141177085Y-38338715D01*
X141213716Y-38356120D01*
X141249397Y-38372455D01*
X141282306Y-38386864D01*
X141310627Y-38398491D01*
X141323531Y-38403370D01*
X141343591Y-38410747D01*
X141358729Y-38416928D01*
X141370991Y-38423183D01*
X141382426Y-38430781D01*
X141395081Y-38440991D01*
X141411004Y-38455083D01*
X141419806Y-38463051D01*
X141474926Y-38511149D01*
X141527556Y-38553019D01*
X141579286Y-38589849D01*
X141631709Y-38622830D01*
X141640608Y-38628026D01*
X141683315Y-38652700D01*
X142149049Y-38652690D01*
X142614784Y-38652680D01*
X142651927Y-38631846D01*
X142698153Y-38604523D01*
X142741910Y-38575581D01*
X142785057Y-38543649D01*
X142829459Y-38507355D01*
X142872313Y-38469572D01*
X142890208Y-38453888D01*
X142907497Y-38439727D01*
X142922506Y-38428393D01*
X142933563Y-38421191D01*
X142935893Y-38420015D01*
X142947158Y-38415162D01*
X142963771Y-38408179D01*
X142983235Y-38400111D01*
X142997901Y-38394097D01*
X143090191Y-38353912D01*
X143179978Y-38309526D01*
X143268746Y-38260105D01*
X143357983Y-38204814D01*
X143382335Y-38188259D01*
X142810798Y-38188259D01*
X142805552Y-38208747D01*
X142798702Y-38223456D01*
X142777798Y-38256549D01*
X142749618Y-38290902D01*
X142715118Y-38325788D01*
X142675253Y-38360478D01*
X142630978Y-38394245D01*
X142583248Y-38426361D01*
X142533017Y-38456099D01*
X142481240Y-38482731D01*
X142428873Y-38505528D01*
X142428261Y-38505769D01*
X142375312Y-38524989D01*
X142325469Y-38539436D01*
X142276216Y-38549581D01*
X142225035Y-38555898D01*
X142169408Y-38558861D01*
X142143853Y-38559220D01*
X142113042Y-38559207D01*
X142088533Y-38558763D01*
X142068163Y-38557726D01*
X142049773Y-38555929D01*
X142031200Y-38553210D01*
X142010284Y-38549404D01*
X142007505Y-38548865D01*
X141929671Y-38529647D01*
X141852956Y-38502821D01*
X141778459Y-38468988D01*
X141707283Y-38428748D01*
X141640527Y-38382702D01*
X141579293Y-38331450D01*
X141542657Y-38295296D01*
X141513995Y-38262908D01*
X141492004Y-38233092D01*
X141475829Y-38204547D01*
X141465228Y-38177927D01*
X141460312Y-38161388D01*
X141458225Y-38149796D01*
X141458681Y-38140225D01*
X141460715Y-38131950D01*
X141472508Y-38106877D01*
X141492497Y-38082567D01*
X141520436Y-38059168D01*
X141556075Y-38036824D01*
X141599169Y-38015682D01*
X141649468Y-37995888D01*
X141706727Y-37977586D01*
X141736854Y-37969311D01*
X141783402Y-37957818D01*
X141827377Y-37948514D01*
X141870332Y-37941242D01*
X141913822Y-37935846D01*
X141959402Y-37932168D01*
X142008626Y-37930054D01*
X142063050Y-37929346D01*
X142124228Y-37929887D01*
X142127950Y-37929953D01*
X142166922Y-37930750D01*
X142199106Y-37931679D01*
X142226181Y-37932854D01*
X142249824Y-37934393D01*
X142271715Y-37936410D01*
X142293533Y-37939021D01*
X142316955Y-37942342D01*
X142324696Y-37943518D01*
X142348730Y-37947264D01*
X142369756Y-37950645D01*
X142386388Y-37953432D01*
X142397240Y-37955390D01*
X142400896Y-37956240D01*
X142405567Y-37957607D01*
X142417066Y-37960517D01*
X142433971Y-37964623D01*
X142454856Y-37969578D01*
X142470850Y-37973311D01*
X142531449Y-37988983D01*
X142587529Y-38006733D01*
X142638546Y-38026276D01*
X142683953Y-38047326D01*
X142723207Y-38069597D01*
X142755762Y-38092803D01*
X142781074Y-38116659D01*
X142798597Y-38140878D01*
X142801632Y-38146816D01*
X142809457Y-38168504D01*
X142810798Y-38188259D01*
X143382335Y-38188259D01*
X143449173Y-38142822D01*
X143461409Y-38134113D01*
X143486312Y-38116318D01*
X143505587Y-38102679D01*
X143520492Y-38092428D01*
X143532287Y-38084799D01*
X143542231Y-38079024D01*
X143551584Y-38074336D01*
X143561606Y-38069967D01*
X143573555Y-38065151D01*
X143576600Y-38063943D01*
X143643102Y-38033521D01*
X143709516Y-37995260D01*
X143775058Y-37949758D01*
X143838945Y-37897615D01*
X143900391Y-37839429D01*
X143958614Y-37775799D01*
X143967026Y-37765816D01*
X144014087Y-37704202D01*
X144056840Y-37637855D01*
X144094652Y-37568139D01*
X144126893Y-37496417D01*
X144152929Y-37424054D01*
X144172129Y-37352413D01*
X144181076Y-37304004D01*
X144186374Y-37275727D01*
X144194290Y-37246134D01*
X144205537Y-37212683D01*
X144210438Y-37199474D01*
X144226734Y-37155323D01*
X144240234Y-37117037D01*
X143971066Y-37117037D01*
X143970996Y-37141900D01*
X143970058Y-37163591D01*
X143968110Y-37184750D01*
X143965010Y-37208014D01*
X143963226Y-37219716D01*
X143952987Y-37273310D01*
X143939006Y-37328542D01*
X143921848Y-37383990D01*
X143902077Y-37438229D01*
X143880254Y-37489837D01*
X143856944Y-37537391D01*
X143832710Y-37579467D01*
X143808116Y-37614643D01*
X143805719Y-37617650D01*
X143786603Y-37640194D01*
X143763700Y-37665391D01*
X143738459Y-37691800D01*
X143712330Y-37717978D01*
X143686763Y-37742485D01*
X143663207Y-37763878D01*
X143643113Y-37780716D01*
X143637134Y-37785290D01*
X143568281Y-37831771D01*
X143497960Y-37870531D01*
X143426640Y-37901350D01*
X143354794Y-37924007D01*
X143327755Y-37930366D01*
X143309559Y-37934163D01*
X143294768Y-37936884D01*
X143281393Y-37938673D01*
X143267447Y-37939676D01*
X143250942Y-37940037D01*
X143229890Y-37939900D01*
X143203217Y-37939427D01*
X143174083Y-37938614D01*
X143151421Y-37937325D01*
X143133241Y-37935352D01*
X143117555Y-37932484D01*
X143103764Y-37928917D01*
X143069363Y-37916762D01*
X143039770Y-37901861D01*
X143016438Y-37885010D01*
X143007640Y-37876180D01*
X142990064Y-37851174D01*
X142974613Y-37819493D01*
X142962012Y-37782811D01*
X142955311Y-37755233D01*
X142951396Y-37734485D01*
X142949001Y-37716717D01*
X142947947Y-37699027D01*
X142948053Y-37678515D01*
X142949038Y-37654304D01*
X142950383Y-37632360D01*
X142952060Y-37612685D01*
X142953870Y-37597240D01*
X142955613Y-37587988D01*
X142955866Y-37587231D01*
X142958350Y-37578327D01*
X142961522Y-37563662D01*
X142964831Y-37545856D01*
X142966048Y-37538583D01*
X142972858Y-37504015D01*
X142982602Y-37467305D01*
X142995764Y-37426841D01*
X143012830Y-37381011D01*
X143015496Y-37374233D01*
X143046607Y-37303343D01*
X143081918Y-37238095D01*
X143122508Y-37176848D01*
X143169454Y-37117961D01*
X143200793Y-37084250D01*
X142828530Y-37084250D01*
X142828193Y-37113440D01*
X142826965Y-37138233D01*
X142824497Y-37161165D01*
X142820440Y-37184775D01*
X142814447Y-37211599D01*
X142807032Y-37240883D01*
X142785686Y-37306060D01*
X142756815Y-37368067D01*
X142720905Y-37426474D01*
X142678443Y-37480847D01*
X142629916Y-37530756D01*
X142575810Y-37575768D01*
X142516612Y-37615451D01*
X142452808Y-37649375D01*
X142384885Y-37677107D01*
X142313330Y-37698215D01*
X142284455Y-37704576D01*
X142257004Y-37709248D01*
X142225687Y-37713267D01*
X142193022Y-37716419D01*
X142161527Y-37718495D01*
X142133722Y-37719281D01*
X142115250Y-37718803D01*
X142100616Y-37717825D01*
X142081332Y-37716507D01*
X142078898Y-37716338D01*
X141380514Y-37716338D01*
X141380090Y-37733880D01*
X141379004Y-37748212D01*
X141377146Y-37761083D01*
X141374401Y-37774244D01*
X141372246Y-37783156D01*
X141359789Y-37824658D01*
X141345109Y-37858071D01*
X141328164Y-37883485D01*
X141322093Y-37890107D01*
X141300377Y-37907568D01*
X141272329Y-37923656D01*
X141240070Y-37937456D01*
X141205723Y-37948052D01*
X141173334Y-37954285D01*
X141150495Y-37956335D01*
X141122295Y-37957481D01*
X141091638Y-37957732D01*
X141061426Y-37957095D01*
X141034560Y-37955578D01*
X141018378Y-37953870D01*
X141000422Y-37950705D01*
X140977682Y-37945736D01*
X140953443Y-37939721D01*
X140936453Y-37935033D01*
X140874122Y-37914811D01*
X140817102Y-37891612D01*
X140763971Y-37864566D01*
X140713304Y-37832804D01*
X140663680Y-37795457D01*
X140613674Y-37751654D01*
X140575524Y-37714509D01*
X140529056Y-37665781D01*
X140489244Y-37620003D01*
X140455354Y-37575985D01*
X140426657Y-37532536D01*
X140402423Y-37488466D01*
X140381919Y-37442585D01*
X140364415Y-37393702D01*
X140351568Y-37349717D01*
X140339488Y-37293584D01*
X140331530Y-37232395D01*
X140327816Y-37168554D01*
X140328467Y-37104468D01*
X140333607Y-37042542D01*
X140335355Y-37029422D01*
X140345886Y-36966662D01*
X140358538Y-36911365D01*
X140373564Y-36862732D01*
X140391222Y-36819968D01*
X140411767Y-36782275D01*
X140417341Y-36773615D01*
X140438436Y-36747067D01*
X140463142Y-36726156D01*
X140492587Y-36710233D01*
X140527897Y-36698651D01*
X140558706Y-36692456D01*
X140584364Y-36691128D01*
X140615330Y-36694013D01*
X140649842Y-36700666D01*
X140686136Y-36710643D01*
X140722449Y-36723500D01*
X140757018Y-36738793D01*
X140770611Y-36745845D01*
X140831642Y-36782750D01*
X140894425Y-36827868D01*
X140958895Y-36881141D01*
X141024986Y-36942514D01*
X141092629Y-37011929D01*
X141121995Y-37044033D01*
X141170787Y-37103787D01*
X141216247Y-37170386D01*
X141257794Y-37242669D01*
X141294848Y-37319474D01*
X141326830Y-37399640D01*
X141353160Y-37482005D01*
X141366346Y-37533468D01*
X141370729Y-37553483D01*
X141373972Y-37571562D01*
X141376291Y-37589811D01*
X141377903Y-37610332D01*
X141379023Y-37635231D01*
X141379824Y-37664623D01*
X141380388Y-37693836D01*
X141380514Y-37716338D01*
X142078898Y-37716338D01*
X142061192Y-37715109D01*
X142058100Y-37714892D01*
X141998001Y-37707187D01*
X141935622Y-37692699D01*
X141872760Y-37672066D01*
X141811210Y-37645928D01*
X141752768Y-37614922D01*
X141721170Y-37595072D01*
X141661233Y-37550175D01*
X141608043Y-37500215D01*
X141561684Y-37445302D01*
X141522237Y-37385543D01*
X141489787Y-37321048D01*
X141467945Y-37263132D01*
X141455202Y-37219628D01*
X141446700Y-37179523D01*
X141441982Y-37139561D01*
X141440588Y-37096484D01*
X141441017Y-37072011D01*
X141447027Y-37000237D01*
X141460573Y-36932093D01*
X141481773Y-36867312D01*
X141510745Y-36805624D01*
X141547608Y-36746760D01*
X141592479Y-36690451D01*
X141622080Y-36658996D01*
X141677943Y-36608809D01*
X141738685Y-36565242D01*
X141803680Y-36528480D01*
X141872306Y-36498708D01*
X141943936Y-36476111D01*
X142017948Y-36460875D01*
X142093716Y-36453184D01*
X142170617Y-36453224D01*
X142248026Y-36461180D01*
X142274000Y-36465655D01*
X142347983Y-36483499D01*
X142418123Y-36507953D01*
X142484043Y-36538596D01*
X142545369Y-36575009D01*
X142601724Y-36616773D01*
X142652731Y-36663468D01*
X142698015Y-36714675D01*
X142737199Y-36769973D01*
X142769908Y-36828943D01*
X142795764Y-36891166D01*
X142814393Y-36956222D01*
X142825417Y-37023691D01*
X142828530Y-37084250D01*
X143200793Y-37084250D01*
X143219265Y-37064381D01*
X143277542Y-37008888D01*
X143336429Y-36959179D01*
X143395490Y-36915452D01*
X143454286Y-36877909D01*
X143512380Y-36846750D01*
X143569336Y-36822174D01*
X143624714Y-36804382D01*
X143678079Y-36793574D01*
X143728992Y-36789950D01*
X143777017Y-36793710D01*
X143800335Y-36798555D01*
X143834839Y-36809044D01*
X143862547Y-36821711D01*
X143885085Y-36837858D01*
X143904079Y-36858782D01*
X143921154Y-36885783D01*
X143929336Y-36901673D01*
X143942531Y-36930227D01*
X143952534Y-36956011D01*
X143959814Y-36981133D01*
X143964839Y-37007702D01*
X143968079Y-37037829D01*
X143970003Y-37073621D01*
X143970411Y-37086366D01*
X143971066Y-37117037D01*
X144240234Y-37117037D01*
X144242836Y-37109658D01*
X144258268Y-37063960D01*
X144272556Y-37019712D01*
X144285225Y-36978395D01*
X144295801Y-36941492D01*
X144303807Y-36910485D01*
X144305712Y-36902216D01*
X144312213Y-36875063D01*
X144318367Y-36853521D01*
X144323861Y-36838598D01*
X144327353Y-36832366D01*
X144344919Y-36809976D01*
X144364215Y-36784542D01*
X144383854Y-36757965D01*
X144402455Y-36732142D01*
X144418631Y-36708972D01*
X144430999Y-36690354D01*
X144431775Y-36689130D01*
X144458798Y-36642751D01*
X144483912Y-36592745D01*
X144506385Y-36540977D01*
X144525486Y-36489308D01*
X144540480Y-36439603D01*
X144550636Y-36393725D01*
X144552464Y-36382166D01*
X144555661Y-36364408D01*
X144559256Y-36352123D01*
X144562814Y-36346796D01*
X144562834Y-36346789D01*
X144564455Y-36342113D01*
X144565834Y-36330286D01*
X144566964Y-36312605D01*
X144567844Y-36290367D01*
X144568467Y-36264868D01*
X144568831Y-36237406D01*
X144568930Y-36209277D01*
X144568772Y-36183853D01*
X144326734Y-36183853D01*
X144326295Y-36212061D01*
X144326006Y-36224883D01*
X144325142Y-36255906D01*
X144324063Y-36280548D01*
X144322548Y-36300892D01*
X144320377Y-36319023D01*
X144317330Y-36337025D01*
X144313185Y-36356983D01*
X144311007Y-36366699D01*
X144291914Y-36439227D01*
X144269072Y-36504710D01*
X144242132Y-36563854D01*
X144210747Y-36617370D01*
X144174568Y-36665965D01*
X144150466Y-36693000D01*
X144127101Y-36716127D01*
X144107765Y-36732102D01*
X144092232Y-36741094D01*
X144082450Y-36743370D01*
X144075181Y-36742446D01*
X144063397Y-36740007D01*
X144058144Y-36738739D01*
X144037099Y-36729435D01*
X144015506Y-36712312D01*
X143993767Y-36687966D01*
X143972279Y-36656990D01*
X143951445Y-36619980D01*
X143931663Y-36577532D01*
X143913333Y-36530238D01*
X143908557Y-36516331D01*
X143885227Y-36441137D01*
X143864693Y-36363171D01*
X143846627Y-36280975D01*
X143830704Y-36193092D01*
X143819181Y-36116933D01*
X143813090Y-36063004D01*
X143809080Y-36004928D01*
X143808274Y-35979349D01*
X143592305Y-35979349D01*
X143592245Y-36009228D01*
X143591808Y-36032738D01*
X143590818Y-36051974D01*
X143589098Y-36069031D01*
X143586471Y-36086004D01*
X143582761Y-36104988D01*
X143581039Y-36113129D01*
X143563865Y-36179753D01*
X143542075Y-36239955D01*
X143515150Y-36294719D01*
X143482575Y-36345033D01*
X143443834Y-36391879D01*
X143424459Y-36411887D01*
X143383431Y-36449096D01*
X143341244Y-36480437D01*
X143296423Y-36506692D01*
X143247497Y-36528639D01*
X143192993Y-36547060D01*
X143146067Y-36559387D01*
X143128306Y-36563383D01*
X143113142Y-36566146D01*
X143098413Y-36567840D01*
X143081956Y-36568629D01*
X143061609Y-36568677D01*
X143035210Y-36568148D01*
X143031767Y-36568059D01*
X142997053Y-36566726D01*
X142967913Y-36564525D01*
X142941472Y-36561160D01*
X142914856Y-36556332D01*
X142910823Y-36555495D01*
X142832807Y-36534839D01*
X142758171Y-36506457D01*
X142687095Y-36470459D01*
X142619756Y-36426956D01*
X142556333Y-36376058D01*
X142497005Y-36317877D01*
X142460294Y-36275683D01*
X142417176Y-36217512D01*
X142379077Y-36155002D01*
X142346357Y-36089234D01*
X142319375Y-36021289D01*
X142298491Y-35952246D01*
X142284065Y-35883188D01*
X142276457Y-35815193D01*
X142276166Y-35770606D01*
X141993811Y-35770606D01*
X141986288Y-35845517D01*
X141970619Y-35920893D01*
X141946840Y-35996424D01*
X141914988Y-36071799D01*
X141903131Y-36095766D01*
X141860814Y-36169444D01*
X141812377Y-36237329D01*
X141757967Y-36299274D01*
X141697733Y-36355131D01*
X141631822Y-36404753D01*
X141560385Y-36447993D01*
X141535284Y-36461005D01*
X141469548Y-36489742D01*
X141401891Y-36511695D01*
X141333429Y-36526667D01*
X141265278Y-36534462D01*
X141198557Y-36534881D01*
X141146369Y-36529685D01*
X141114669Y-36523441D01*
X141079142Y-36514022D01*
X141042632Y-36502361D01*
X141007979Y-36489387D01*
X140978028Y-36476032D01*
X140970134Y-36471956D01*
X140916395Y-36438513D01*
X140865945Y-36398218D01*
X140819957Y-36352277D01*
X140779601Y-36301896D01*
X140746050Y-36248280D01*
X140738282Y-36233349D01*
X140730123Y-36214699D01*
X140720894Y-36189936D01*
X140711257Y-36161233D01*
X140701873Y-36130765D01*
X140693402Y-36100707D01*
X140686507Y-36073232D01*
X140681849Y-36050516D01*
X140680988Y-36044966D01*
X140678729Y-36021973D01*
X140677282Y-35993031D01*
X140676641Y-35960617D01*
X140676801Y-35927210D01*
X140677758Y-35895288D01*
X140679508Y-35867327D01*
X140680550Y-35857741D01*
X140488750Y-35857741D01*
X140488669Y-35895519D01*
X140484064Y-36015651D01*
X140472922Y-36131510D01*
X140455020Y-36244461D01*
X140430138Y-36355869D01*
X140398054Y-36467100D01*
X140393977Y-36479685D01*
X140380940Y-36516573D01*
X140366113Y-36553586D01*
X140350295Y-36589012D01*
X140334289Y-36621134D01*
X140318896Y-36648238D01*
X140306796Y-36666180D01*
X140286752Y-36689099D01*
X140265577Y-36706851D01*
X140244460Y-36718716D01*
X140224590Y-36723974D01*
X140212367Y-36723401D01*
X140201029Y-36720080D01*
X140188262Y-36715043D01*
X140187876Y-36714867D01*
X140174879Y-36706232D01*
X140158802Y-36691355D01*
X140140576Y-36671454D01*
X140121130Y-36647746D01*
X140101392Y-36621448D01*
X140082292Y-36593777D01*
X140064759Y-36565949D01*
X140049722Y-36539183D01*
X140042323Y-36524222D01*
X140011589Y-36448373D01*
X139989184Y-36371039D01*
X139975116Y-36292249D01*
X139970984Y-36249040D01*
X139969594Y-36169072D01*
X139976179Y-36091188D01*
X139990597Y-36015773D01*
X140012708Y-35943212D01*
X140042370Y-35873888D01*
X140079444Y-35808187D01*
X140123788Y-35746492D01*
X140175261Y-35689188D01*
X140176697Y-35687756D01*
X140203948Y-35662165D01*
X140233111Y-35637423D01*
X140262781Y-35614539D01*
X140291552Y-35594526D01*
X140318018Y-35578394D01*
X140340773Y-35567154D01*
X140348292Y-35564331D01*
X140360315Y-35560615D01*
X140368833Y-35559607D01*
X140377315Y-35561638D01*
X140389228Y-35567038D01*
X140392280Y-35568529D01*
X140410064Y-35578830D01*
X140424691Y-35591372D01*
X140437002Y-35607447D01*
X140447842Y-35628346D01*
X140458054Y-35655361D01*
X140466177Y-35681684D01*
X140474483Y-35713592D01*
X140480706Y-35745373D01*
X140485034Y-35778806D01*
X140487653Y-35815669D01*
X140488750Y-35857741D01*
X140680550Y-35857741D01*
X140681367Y-35850233D01*
X140694671Y-35781225D01*
X140715132Y-35710824D01*
X140742071Y-35640853D01*
X140774814Y-35573136D01*
X140800997Y-35527774D01*
X140843296Y-35466638D01*
X140892538Y-35407913D01*
X140947238Y-35353213D01*
X141005908Y-35304147D01*
X141010142Y-35300953D01*
X141043042Y-35278091D01*
X141080073Y-35255394D01*
X141119341Y-35233818D01*
X141158954Y-35214317D01*
X141197018Y-35197844D01*
X141231640Y-35185354D01*
X141249534Y-35180278D01*
X141281526Y-35172365D01*
X141306858Y-35166213D01*
X141327103Y-35161603D01*
X141343834Y-35158319D01*
X141358623Y-35156143D01*
X141373043Y-35154856D01*
X141388667Y-35154240D01*
X141407067Y-35154079D01*
X141429816Y-35154155D01*
X141437917Y-35154192D01*
X141466310Y-35154371D01*
X141488239Y-35154784D01*
X141505703Y-35155658D01*
X141520706Y-35157219D01*
X141535249Y-35159692D01*
X141551333Y-35163306D01*
X141570959Y-35168285D01*
X141577388Y-35169962D01*
X141639789Y-35189600D01*
X141696387Y-35214632D01*
X141748423Y-35245753D01*
X141797135Y-35283657D01*
X141822649Y-35307342D01*
X141863369Y-35351341D01*
X141897609Y-35397400D01*
X141926274Y-35447049D01*
X141950267Y-35501818D01*
X141967133Y-35551768D01*
X141984270Y-35623421D01*
X141993150Y-35696470D01*
X141993811Y-35770606D01*
X142276166Y-35770606D01*
X142276027Y-35749343D01*
X142277626Y-35727139D01*
X142284182Y-35671388D01*
X142293046Y-35621864D01*
X142304741Y-35576514D01*
X142319792Y-35533287D01*
X142337583Y-35492516D01*
X142369008Y-35436150D01*
X142407378Y-35383780D01*
X142451856Y-35336149D01*
X142501604Y-35294000D01*
X142555787Y-35258074D01*
X142613566Y-35229115D01*
X142650303Y-35215160D01*
X142664518Y-35211070D01*
X142683704Y-35206496D01*
X142706365Y-35201694D01*
X142731005Y-35196923D01*
X142756131Y-35192440D01*
X142780246Y-35188502D01*
X142801856Y-35185367D01*
X142819465Y-35183291D01*
X142831578Y-35182532D01*
X142836456Y-35183126D01*
X142841600Y-35184204D01*
X142853420Y-35185790D01*
X142870160Y-35187671D01*
X142890061Y-35189633D01*
X142890080Y-35189635D01*
X142965928Y-35200851D01*
X143039768Y-35220214D01*
X143111304Y-35247579D01*
X143180241Y-35282800D01*
X143246283Y-35325734D01*
X143309132Y-35376235D01*
X143349806Y-35414733D01*
X143407210Y-35478302D01*
X143457033Y-35545596D01*
X143499376Y-35616802D01*
X143534340Y-35692106D01*
X143562027Y-35771695D01*
X143578512Y-35836295D01*
X143583405Y-35859380D01*
X143586973Y-35878379D01*
X143589425Y-35895486D01*
X143590975Y-35912892D01*
X143591833Y-35932791D01*
X143592211Y-35957375D01*
X143592305Y-35979349D01*
X143808274Y-35979349D01*
X143807201Y-35945342D01*
X143807504Y-35886881D01*
X143810042Y-35832181D01*
X143812980Y-35799292D01*
X143820248Y-35746897D01*
X143829722Y-35702192D01*
X143841575Y-35664648D01*
X143855978Y-35633736D01*
X143873104Y-35608927D01*
X143876123Y-35605472D01*
X143894617Y-35589418D01*
X143914568Y-35581001D01*
X143936554Y-35580203D01*
X143961150Y-35587008D01*
X143988933Y-35601401D01*
X143990343Y-35602275D01*
X144047495Y-35641780D01*
X144100790Y-35686358D01*
X144149217Y-35734942D01*
X144191768Y-35786465D01*
X144227430Y-35839860D01*
X144244003Y-35870157D01*
X144278056Y-35946611D01*
X144303712Y-36023931D01*
X144318860Y-36090060D01*
X144322122Y-36109026D01*
X144324437Y-36125936D01*
X144325908Y-36142743D01*
X144326639Y-36161397D01*
X144326734Y-36183853D01*
X144568772Y-36183853D01*
X144568759Y-36181779D01*
X144568316Y-36156207D01*
X144567596Y-36133860D01*
X144566593Y-36116034D01*
X144565305Y-36104025D01*
X144563726Y-36099131D01*
X144563659Y-36099102D01*
X144561158Y-36094592D01*
X144557537Y-36083274D01*
X144553210Y-36066669D01*
X144548595Y-36046293D01*
X144546746Y-36037354D01*
X144531225Y-35971591D01*
X144511537Y-35909308D01*
X144486614Y-35847398D01*
X144467050Y-35805783D01*
X144425518Y-35729490D01*
X144379290Y-35658919D01*
X144328781Y-35594574D01*
X144274404Y-35536962D01*
X144216572Y-35486588D01*
X144189584Y-35466454D01*
X144170801Y-35452825D01*
X144157399Y-35442035D01*
X144147645Y-35432335D01*
X144139804Y-35421975D01*
X144132141Y-35409206D01*
X144131267Y-35407637D01*
X144123337Y-35392633D01*
X144117101Y-35379514D01*
X144113749Y-35370811D01*
X144113571Y-35370055D01*
X144110919Y-35353529D01*
X144108015Y-35330423D01*
X144105049Y-35302613D01*
X144102393Y-35273901D01*
X143848800Y-35273901D01*
X143848705Y-35298615D01*
X143848297Y-35316374D01*
X143847400Y-35328689D01*
X143845834Y-35337069D01*
X143843421Y-35343026D01*
X143840027Y-35348012D01*
X143829374Y-35356334D01*
X143814402Y-35359107D01*
X143794397Y-35356340D01*
X143770512Y-35348747D01*
X143745524Y-35338555D01*
X143719392Y-35326242D01*
X143691340Y-35311336D01*
X143660593Y-35293368D01*
X143626375Y-35271867D01*
X143587911Y-35246364D01*
X143544425Y-35216387D01*
X143497953Y-35183479D01*
X143449552Y-35147746D01*
X143397695Y-35107444D01*
X143343523Y-35063579D01*
X143288174Y-35017156D01*
X143232787Y-34969181D01*
X143178503Y-34920660D01*
X143126459Y-34872599D01*
X143077795Y-34826003D01*
X143033651Y-34781879D01*
X143018244Y-34765606D01*
X142763740Y-34765606D01*
X142762326Y-34798835D01*
X142753274Y-34833235D01*
X142736812Y-34868163D01*
X142713174Y-34902973D01*
X142685475Y-34934153D01*
X142642261Y-34971961D01*
X142591878Y-35005911D01*
X142534786Y-35035830D01*
X142471439Y-35061542D01*
X142402296Y-35082871D01*
X142327812Y-35099643D01*
X142248445Y-35111683D01*
X142212617Y-35115389D01*
X142189109Y-35117369D01*
X142168499Y-35118736D01*
X142149127Y-35119478D01*
X142129331Y-35119580D01*
X142107450Y-35119030D01*
X142081822Y-35117814D01*
X142050785Y-35115919D01*
X142020000Y-35113840D01*
X141952334Y-35106952D01*
X141885215Y-35095887D01*
X141820481Y-35081073D01*
X141759969Y-35062938D01*
X141705516Y-35041909D01*
X141699512Y-35039228D01*
X141658542Y-35017954D01*
X141620560Y-34993003D01*
X141586617Y-34965341D01*
X141557764Y-34935936D01*
X141535051Y-34905756D01*
X141519529Y-34875768D01*
X141518172Y-34872152D01*
X141508097Y-34832990D01*
X141506148Y-34794086D01*
X141512379Y-34755288D01*
X141526844Y-34716446D01*
X141549598Y-34677410D01*
X141580694Y-34638029D01*
X141614620Y-34603327D01*
X141650063Y-34573082D01*
X141404325Y-34573082D01*
X141401961Y-34584363D01*
X141401826Y-34584866D01*
X141393299Y-34606538D01*
X141378335Y-34632795D01*
X141357325Y-34663209D01*
X141330657Y-34697355D01*
X141298720Y-34734805D01*
X141261903Y-34775132D01*
X141220595Y-34817911D01*
X141175184Y-34862715D01*
X141126060Y-34909116D01*
X141073612Y-34956689D01*
X141020934Y-35002690D01*
X140950991Y-35061678D01*
X140883890Y-35116296D01*
X140819957Y-35166315D01*
X140759521Y-35211506D01*
X140702910Y-35251640D01*
X140650451Y-35286488D01*
X140602472Y-35315821D01*
X140559301Y-35339411D01*
X140521267Y-35357029D01*
X140503648Y-35363747D01*
X140479277Y-35371423D01*
X140460878Y-35375126D01*
X140446989Y-35374944D01*
X140436152Y-35370960D01*
X140431911Y-35367975D01*
X140428108Y-35364577D01*
X140425436Y-35360644D01*
X140423717Y-35354767D01*
X140422773Y-35345535D01*
X140422424Y-35331540D01*
X140422493Y-35311372D01*
X140422669Y-35294950D01*
X140423973Y-35250197D01*
X140427040Y-35209460D01*
X140432252Y-35170491D01*
X140439992Y-35131042D01*
X140450643Y-35088868D01*
X140464587Y-35041721D01*
X140467266Y-35033200D01*
X140493880Y-34962577D01*
X140527732Y-34896166D01*
X140568966Y-34833736D01*
X140617727Y-34775059D01*
X140652624Y-34739681D01*
X140701323Y-34698295D01*
X140756554Y-34660141D01*
X140816739Y-34626020D01*
X140880302Y-34596735D01*
X140945662Y-34573086D01*
X141011244Y-34555876D01*
X141016493Y-34554794D01*
X141077312Y-34544977D01*
X141142847Y-34538817D01*
X141210120Y-34536435D01*
X141276155Y-34537949D01*
X141327851Y-34542248D01*
X141356150Y-34545743D01*
X141376959Y-34549164D01*
X141391228Y-34553060D01*
X141399911Y-34557979D01*
X141403959Y-34564470D01*
X141404325Y-34573082D01*
X141650063Y-34573082D01*
X141661229Y-34563554D01*
X141712338Y-34527913D01*
X141768756Y-34495973D01*
X141831290Y-34467302D01*
X141900751Y-34441469D01*
X141942861Y-34428115D01*
X141975040Y-34418924D01*
X142003525Y-34412001D01*
X142030553Y-34407040D01*
X142058363Y-34403733D01*
X142089191Y-34401775D01*
X142125274Y-34400857D01*
X142142767Y-34400708D01*
X142172217Y-34400686D01*
X142195463Y-34401081D01*
X142214768Y-34402089D01*
X142232393Y-34403901D01*
X142250597Y-34406712D01*
X142271643Y-34410715D01*
X142280350Y-34412485D01*
X142343404Y-34427342D01*
X142400566Y-34445132D01*
X142454179Y-34466820D01*
X142506587Y-34493370D01*
X142560132Y-34525745D01*
X142567769Y-34530742D01*
X142616836Y-34565671D01*
X142659725Y-34601496D01*
X142695977Y-34637724D01*
X142725132Y-34673861D01*
X142746730Y-34709413D01*
X142757282Y-34734191D01*
X142763740Y-34765606D01*
X143018244Y-34765606D01*
X142995166Y-34741231D01*
X142987734Y-34733036D01*
X142960016Y-34701720D01*
X142937475Y-34675060D01*
X142919196Y-34651832D01*
X142904264Y-34630813D01*
X142891764Y-34610777D01*
X142880782Y-34590501D01*
X142879867Y-34588682D01*
X142871881Y-34571919D01*
X142867243Y-34558876D01*
X142866662Y-34548949D01*
X142870850Y-34541534D01*
X142880517Y-34536025D01*
X142896374Y-34531818D01*
X142919131Y-34528308D01*
X142949499Y-34524891D01*
X142955567Y-34524265D01*
X143038084Y-34519287D01*
X143119866Y-34521137D01*
X143200051Y-34529629D01*
X143277780Y-34544581D01*
X143352192Y-34565806D01*
X143422427Y-34593120D01*
X143487623Y-34626339D01*
X143517806Y-34644936D01*
X143580872Y-34690705D01*
X143636973Y-34740859D01*
X143686341Y-34795729D01*
X143729213Y-34855649D01*
X143765823Y-34920948D01*
X143796404Y-34991959D01*
X143821193Y-35069013D01*
X143823204Y-35076466D01*
X143836438Y-35134034D01*
X143844679Y-35189638D01*
X143848437Y-35247200D01*
X143848800Y-35273901D01*
X144102393Y-35273901D01*
X144102214Y-35271974D01*
X144099701Y-35240380D01*
X144098416Y-35221583D01*
X144096113Y-35188077D01*
X144093729Y-35160640D01*
X144090927Y-35136878D01*
X144087370Y-35114397D01*
X144082720Y-35090802D01*
X144076641Y-35063701D01*
X144075447Y-35058600D01*
X144052499Y-34975525D01*
X144023830Y-34897899D01*
X143989099Y-34825240D01*
X143947967Y-34757066D01*
X143900092Y-34692895D01*
X143845134Y-34632244D01*
X143782753Y-34574632D01*
X143712608Y-34519576D01*
X143677351Y-34494778D01*
X143656902Y-34481065D01*
X143636002Y-34467391D01*
X143617149Y-34455372D01*
X143603267Y-34446872D01*
X143589796Y-34438874D01*
X143579395Y-34432591D01*
X143574022Y-34429208D01*
X143573756Y-34429012D01*
X143574453Y-34426003D01*
X143582378Y-34421472D01*
X143597877Y-34415258D01*
X143618084Y-34408259D01*
X143658028Y-34393160D01*
X143690541Y-34376896D01*
X143708802Y-34364791D01*
X143720112Y-34353906D01*
X143732479Y-34338510D01*
X143744098Y-34321264D01*
X143753167Y-34304828D01*
X143757733Y-34292599D01*
X143760875Y-34283370D01*
X143766676Y-34275982D01*
X143776609Y-34269389D01*
X143792152Y-34262544D01*
X143808584Y-34256544D01*
X143852192Y-34238158D01*
X143888457Y-34215893D01*
X143917720Y-34189430D01*
X143940319Y-34158452D01*
X143956593Y-34122640D01*
X143958916Y-34115529D01*
X143963941Y-34100591D01*
X143968750Y-34088506D01*
X143972195Y-34082060D01*
X143977604Y-34077223D01*
X143988149Y-34069019D01*
X144001978Y-34058863D01*
X144009149Y-34053775D01*
X144037203Y-34031867D01*
X144063513Y-34007150D01*
X144086390Y-33981438D01*
X144104148Y-33956544D01*
X144110764Y-33944597D01*
X144122130Y-33914418D01*
X144128489Y-33884236D01*
X144133071Y-33850755D01*
X144165861Y-33818619D01*
X144187174Y-33796040D01*
X144202828Y-33775249D01*
X144212912Y-33757457D01*
X144219191Y-33744057D01*
X144223413Y-33732659D01*
X144226084Y-33720815D01*
X144227707Y-33706075D01*
X144228788Y-33685991D01*
X144229058Y-33679197D01*
X144230943Y-33629964D01*
X144257579Y-33592868D01*
X144270154Y-33574565D01*
X144282095Y-33555810D01*
X144291659Y-33539404D01*
X144295381Y-33532171D01*
X144305865Y-33500963D01*
X144309544Y-33467598D01*
X144306184Y-33434904D01*
X144304146Y-33426924D01*
X144296970Y-33402241D01*
X144312295Y-33378462D01*
X144333273Y-33341629D01*
X144346643Y-33307489D01*
X144351023Y-33283111D01*
X144166306Y-33283111D01*
X144163524Y-33290730D01*
X144155998Y-33302848D01*
X144144939Y-33317943D01*
X144131559Y-33334495D01*
X144117070Y-33350985D01*
X144102683Y-33365893D01*
X144093595Y-33374334D01*
X144062060Y-33402371D01*
X144037272Y-33425470D01*
X144019155Y-33443707D01*
X144007635Y-33457159D01*
X144002637Y-33465905D01*
X144002584Y-33468599D01*
X144010570Y-33478011D01*
X144026096Y-33484121D01*
X144049255Y-33486952D01*
X144080142Y-33486524D01*
X144080759Y-33486487D01*
X144124334Y-33483858D01*
X144110610Y-33503937D01*
X144101058Y-33516414D01*
X144087093Y-33532217D01*
X144068284Y-33551786D01*
X144044196Y-33575561D01*
X144014398Y-33603982D01*
X143986223Y-33630297D01*
X143970380Y-33645223D01*
X143957044Y-33658234D01*
X143947330Y-33668208D01*
X143942352Y-33674022D01*
X143941934Y-33674893D01*
X143945894Y-33680220D01*
X143956685Y-33685108D01*
X143972671Y-33689129D01*
X143992214Y-33691855D01*
X144010519Y-33692835D01*
X144047355Y-33693350D01*
X144033803Y-33707516D01*
X144017397Y-33723332D01*
X143995339Y-33742618D01*
X143969064Y-33764212D01*
X143940008Y-33786951D01*
X143909605Y-33809676D01*
X143891300Y-33822830D01*
X143870622Y-33837501D01*
X143856018Y-33848147D01*
X143846640Y-33855618D01*
X143841639Y-33860765D01*
X143840170Y-33864440D01*
X143841383Y-33867494D01*
X143843987Y-33870334D01*
X143850424Y-33874696D01*
X143860813Y-33878044D01*
X143876785Y-33880784D01*
X143893901Y-33882732D01*
X143911957Y-33884800D01*
X143926798Y-33886989D01*
X143936430Y-33888980D01*
X143938913Y-33889974D01*
X143937592Y-33893968D01*
X143929650Y-33901381D01*
X143915943Y-33911667D01*
X143897330Y-33924277D01*
X143874669Y-33938665D01*
X143848817Y-33954283D01*
X143820633Y-33970584D01*
X143790974Y-33987022D01*
X143765646Y-34000484D01*
X143673905Y-34048243D01*
X143685222Y-34057978D01*
X143696843Y-34065215D01*
X143713326Y-34072290D01*
X143731136Y-34077929D01*
X143746742Y-34080857D01*
X143749027Y-34080997D01*
X143760588Y-34082855D01*
X143766251Y-34084623D01*
X143768013Y-34088035D01*
X143762419Y-34093583D01*
X143750218Y-34100951D01*
X143732156Y-34109819D01*
X143708980Y-34119870D01*
X143681439Y-34130785D01*
X143650279Y-34142247D01*
X143616248Y-34153936D01*
X143580094Y-34165536D01*
X143566225Y-34169773D01*
X143545131Y-34176284D01*
X143527257Y-34182100D01*
X143514013Y-34186740D01*
X143506812Y-34189718D01*
X143505916Y-34190414D01*
X143507931Y-34195317D01*
X143512879Y-34204248D01*
X143514089Y-34206260D01*
X143525396Y-34218267D01*
X143544250Y-34230114D01*
X143548933Y-34232446D01*
X143575619Y-34245254D01*
X143562985Y-34250183D01*
X143524791Y-34262492D01*
X143480553Y-34272259D01*
X143432419Y-34279067D01*
X143399879Y-34281720D01*
X143376573Y-34283491D01*
X143352036Y-34286069D01*
X143328021Y-34289192D01*
X143306282Y-34292597D01*
X143288574Y-34296023D01*
X143276651Y-34299205D01*
X143273344Y-34300662D01*
X143269828Y-34304551D01*
X143270567Y-34311167D01*
X143272965Y-34317520D01*
X143278323Y-34326144D01*
X143287401Y-34336993D01*
X143298228Y-34348117D01*
X143308835Y-34357565D01*
X143317252Y-34363385D01*
X143320230Y-34364333D01*
X143323795Y-34367539D01*
X143323867Y-34368334D01*
X143320026Y-34371012D01*
X143310060Y-34373183D01*
X143296311Y-34374593D01*
X143281117Y-34374987D01*
X143268834Y-34374335D01*
X143259358Y-34373552D01*
X143243378Y-34372420D01*
X143222846Y-34371068D01*
X143199712Y-34369629D01*
X143190517Y-34369078D01*
X143161469Y-34367173D01*
X143136399Y-34365005D01*
X143113035Y-34362249D01*
X143089103Y-34358584D01*
X143062329Y-34353685D01*
X143030439Y-34347229D01*
X143016951Y-34344394D01*
X142944746Y-34326071D01*
X142878275Y-34302952D01*
X142817831Y-34275229D01*
X142763707Y-34243092D01*
X142716193Y-34206731D01*
X142675583Y-34166337D01*
X142642170Y-34122100D01*
X142622271Y-34087050D01*
X142609708Y-34060283D01*
X142599784Y-34036354D01*
X142592885Y-34016382D01*
X142589395Y-34001488D01*
X142589701Y-33992792D01*
X142589784Y-33992616D01*
X142594898Y-33985837D01*
X142605472Y-33974399D01*
X142620563Y-33959180D01*
X142639227Y-33941059D01*
X142660519Y-33920915D01*
X142683496Y-33899627D01*
X142707213Y-33878072D01*
X142730727Y-33857131D01*
X142753094Y-33837682D01*
X142773369Y-33820602D01*
X142782993Y-33812773D01*
X142842070Y-33766958D01*
X142907513Y-33718928D01*
X142977860Y-33669688D01*
X143051648Y-33620247D01*
X143127415Y-33571611D01*
X143184167Y-33536566D01*
X143214276Y-33518568D01*
X143249966Y-33497689D01*
X143289956Y-33474644D01*
X143332969Y-33450147D01*
X143377725Y-33424913D01*
X143422945Y-33399655D01*
X143467350Y-33375087D01*
X143509662Y-33351924D01*
X143548601Y-33330880D01*
X143582888Y-33312670D01*
X143611244Y-33298006D01*
X143612792Y-33297223D01*
X143643129Y-33281703D01*
X143666201Y-33269426D01*
X143682443Y-33260110D01*
X143692287Y-33253473D01*
X143696168Y-33249234D01*
X143694520Y-33247111D01*
X143690574Y-33246733D01*
X143685266Y-33248130D01*
X143673150Y-33252053D01*
X143655360Y-33258093D01*
X143633032Y-33265846D01*
X143607299Y-33274904D01*
X143579298Y-33284863D01*
X143550162Y-33295315D01*
X143521027Y-33305854D01*
X143493027Y-33316075D01*
X143467298Y-33325572D01*
X143444974Y-33333937D01*
X143427190Y-33340765D01*
X143421080Y-33343184D01*
X143401098Y-33351420D01*
X143374920Y-33362531D01*
X143344043Y-33375854D01*
X143309964Y-33390726D01*
X143274179Y-33406488D01*
X143238186Y-33422475D01*
X143203480Y-33438027D01*
X143171560Y-33452482D01*
X143143921Y-33465177D01*
X143122784Y-33475104D01*
X143004062Y-33535239D01*
X142884381Y-33602488D01*
X142765297Y-33675882D01*
X142648368Y-33754450D01*
X142535149Y-33837222D01*
X142507677Y-33858404D01*
X142495258Y-33867835D01*
X142485491Y-33873664D01*
X142476620Y-33875703D01*
X142466888Y-33873764D01*
X142454539Y-33867657D01*
X142437818Y-33857193D01*
X142426351Y-33849665D01*
X142383438Y-33817113D01*
X142348084Y-33780861D01*
X142320109Y-33740645D01*
X142299335Y-33696202D01*
X142285583Y-33647267D01*
X142284278Y-33640433D01*
X142281130Y-33618445D01*
X141998775Y-33618445D01*
X141998536Y-33633838D01*
X141997586Y-33645884D01*
X141995766Y-33656288D01*
X141992915Y-33666756D01*
X141988872Y-33678994D01*
X141987120Y-33684086D01*
X141973190Y-33719376D01*
X141957015Y-33749281D01*
X141936682Y-33776877D01*
X141914167Y-33801354D01*
X141896754Y-33817590D01*
X141877310Y-33833560D01*
X141857364Y-33848224D01*
X141838445Y-33860543D01*
X141822084Y-33869476D01*
X141809811Y-33873984D01*
X141806799Y-33874325D01*
X141800268Y-33871749D01*
X141787758Y-33864305D01*
X141769897Y-33852416D01*
X141747314Y-33836506D01*
X141720640Y-33816999D01*
X141710637Y-33809538D01*
X141621288Y-33744604D01*
X141533973Y-33685442D01*
X141446332Y-33630587D01*
X141356005Y-33578574D01*
X141260632Y-33527938D01*
X141241067Y-33518010D01*
X141159207Y-33477327D01*
X141082762Y-33440591D01*
X141010071Y-33407095D01*
X140939474Y-33376135D01*
X140869312Y-33347004D01*
X140797924Y-33318997D01*
X140723651Y-33291409D01*
X140644833Y-33263534D01*
X140631731Y-33259015D01*
X140613914Y-33252876D01*
X140602650Y-33249152D01*
X140596451Y-33247611D01*
X140593828Y-33248021D01*
X140593292Y-33250150D01*
X140593367Y-33253036D01*
X140597015Y-33257815D01*
X140607008Y-33264981D01*
X140621918Y-33273562D01*
X140628292Y-33276849D01*
X140659817Y-33292956D01*
X140697393Y-33312659D01*
X140739772Y-33335269D01*
X140785702Y-33360095D01*
X140833933Y-33386448D01*
X140883217Y-33413637D01*
X140932302Y-33440974D01*
X140979939Y-33467767D01*
X141024878Y-33493328D01*
X141065868Y-33516967D01*
X141101660Y-33537993D01*
X141103484Y-33539078D01*
X141165876Y-33577364D01*
X141230456Y-33619091D01*
X141295783Y-33663226D01*
X141360413Y-33708736D01*
X141422906Y-33754590D01*
X141481819Y-33799754D01*
X141535709Y-33843194D01*
X141575493Y-33877116D01*
X141593009Y-33892795D01*
X141611973Y-33910245D01*
X141631279Y-33928395D01*
X141649820Y-33946175D01*
X141666491Y-33962512D01*
X141680187Y-33976336D01*
X141689800Y-33986576D01*
X141694183Y-33992078D01*
X141694751Y-34000521D01*
X141691324Y-34015492D01*
X141687168Y-34027950D01*
X141662721Y-34083728D01*
X141631678Y-34134438D01*
X141593952Y-34180157D01*
X141549460Y-34220962D01*
X141498119Y-34256929D01*
X141439843Y-34288136D01*
X141374550Y-34314658D01*
X141372136Y-34315503D01*
X141329814Y-34329394D01*
X141289564Y-34340675D01*
X141249503Y-34349685D01*
X141207750Y-34356764D01*
X141162423Y-34362253D01*
X141111640Y-34366492D01*
X141078717Y-34368523D01*
X141055709Y-34369955D01*
X141035749Y-34371497D01*
X141020335Y-34373008D01*
X141010968Y-34374350D01*
X141008867Y-34375023D01*
X141003545Y-34375991D01*
X140993072Y-34375689D01*
X140980609Y-34374452D01*
X140969318Y-34372612D01*
X140962360Y-34370502D01*
X140961751Y-34370061D01*
X140963016Y-34366316D01*
X140968024Y-34361787D01*
X140984921Y-34347954D01*
X140998254Y-34333780D01*
X141007235Y-34320494D01*
X141011077Y-34309325D01*
X141008996Y-34301503D01*
X141007421Y-34300191D01*
X140999462Y-34296288D01*
X140987985Y-34292879D01*
X140971960Y-34289794D01*
X140950360Y-34286865D01*
X140922156Y-34283920D01*
X140893934Y-34281420D01*
X140844094Y-34276477D01*
X140801173Y-34270613D01*
X140765603Y-34263903D01*
X140737813Y-34256423D01*
X140726315Y-34252142D01*
X140709784Y-34245122D01*
X140733704Y-34232906D01*
X140751383Y-34222179D01*
X140765161Y-34210503D01*
X140773543Y-34199323D01*
X140775401Y-34192568D01*
X140771496Y-34188748D01*
X140760673Y-34183643D01*
X140744269Y-34177850D01*
X140738359Y-34176037D01*
X140703502Y-34165293D01*
X140668814Y-34153891D01*
X140635234Y-34142204D01*
X140603699Y-34130601D01*
X140575147Y-34119455D01*
X140550515Y-34109137D01*
X140530740Y-34100018D01*
X140516761Y-34092470D01*
X140509515Y-34086864D01*
X140508701Y-34085065D01*
X140512536Y-34082968D01*
X140522469Y-34080980D01*
X140533042Y-34079822D01*
X140550410Y-34077192D01*
X140567887Y-34072432D01*
X140583512Y-34066347D01*
X140595324Y-34059742D01*
X140601363Y-34053424D01*
X140601755Y-34051603D01*
X140598015Y-34046954D01*
X140586801Y-34039205D01*
X140568020Y-34028300D01*
X140541577Y-34014181D01*
X140526863Y-34006616D01*
X140488757Y-33986531D01*
X140452149Y-33965943D01*
X140418378Y-33945677D01*
X140388782Y-33926554D01*
X140364702Y-33909398D01*
X140352067Y-33899194D01*
X140337250Y-33886310D01*
X140363500Y-33886138D01*
X140388955Y-33884683D01*
X140412022Y-33880956D01*
X140430609Y-33875407D01*
X140441584Y-33869385D01*
X140446033Y-33865413D01*
X140446986Y-33862070D01*
X140443448Y-33857965D01*
X140434425Y-33851705D01*
X140424454Y-33845384D01*
X140407353Y-33834010D01*
X140387074Y-33819552D01*
X140364695Y-33802879D01*
X140341293Y-33784860D01*
X140317945Y-33766364D01*
X140295728Y-33748259D01*
X140275719Y-33731414D01*
X140258995Y-33716698D01*
X140246632Y-33704980D01*
X140239708Y-33697128D01*
X140238856Y-33695664D01*
X140242266Y-33694564D01*
X140252246Y-33693648D01*
X140266898Y-33693066D01*
X140272723Y-33692970D01*
X140294169Y-33691696D01*
X140312892Y-33688649D01*
X140327449Y-33684261D01*
X140336397Y-33678965D01*
X140338333Y-33673301D01*
X140334812Y-33668949D01*
X140325975Y-33659813D01*
X140312765Y-33646816D01*
X140296124Y-33630880D01*
X140276992Y-33612925D01*
X140270133Y-33606566D01*
X140248399Y-33585963D01*
X140227116Y-33564847D01*
X140207163Y-33544182D01*
X140189415Y-33524933D01*
X140174750Y-33508064D01*
X140164047Y-33494541D01*
X140158181Y-33485328D01*
X140157334Y-33482521D01*
X140160966Y-33482055D01*
X140170004Y-33483443D01*
X140173209Y-33484144D01*
X140200989Y-33488051D01*
X140229015Y-33487498D01*
X140254823Y-33482773D01*
X140275952Y-33474161D01*
X140279803Y-33471723D01*
X140282011Y-33466376D01*
X140277961Y-33457461D01*
X140267449Y-33444747D01*
X140250276Y-33428001D01*
X140226241Y-33406992D01*
X140217060Y-33399324D01*
X140198867Y-33383832D01*
X140181684Y-33368420D01*
X140167295Y-33354741D01*
X140157487Y-33344447D01*
X140156557Y-33343341D01*
X140147388Y-33331484D01*
X140137439Y-33317586D01*
X140127993Y-33303582D01*
X140120335Y-33291410D01*
X140115749Y-33283005D01*
X140115000Y-33280673D01*
X140118968Y-33279866D01*
X140129825Y-33279430D01*
X140146000Y-33279389D01*
X140165922Y-33279765D01*
X140169975Y-33279884D01*
X140192693Y-33280481D01*
X140208352Y-33280520D01*
X140218349Y-33279867D01*
X140224081Y-33278389D01*
X140226944Y-33275953D01*
X140227718Y-33274384D01*
X140228424Y-33263458D01*
X140225083Y-33246682D01*
X140218232Y-33225325D01*
X140208408Y-33200655D01*
X140196149Y-33173940D01*
X140181991Y-33146450D01*
X140166470Y-33119453D01*
X140153640Y-33099368D01*
X140127482Y-33060466D01*
X140240833Y-33060048D01*
X140283548Y-33059767D01*
X140318471Y-33059241D01*
X140346272Y-33058422D01*
X140367625Y-33057263D01*
X140383199Y-33055716D01*
X140393668Y-33053735D01*
X140399702Y-33051272D01*
X140401857Y-33048732D01*
X140399790Y-33043690D01*
X140392822Y-33034177D01*
X140382101Y-33021647D01*
X140371275Y-33010096D01*
X140338915Y-32976844D01*
X140367352Y-32971478D01*
X140402380Y-32967549D01*
X140441974Y-32968248D01*
X140486813Y-32973641D01*
X140537575Y-32983793D01*
X140564741Y-32990505D01*
X140588890Y-32996574D01*
X140610482Y-33001581D01*
X140628078Y-33005225D01*
X140640240Y-33007207D01*
X140645356Y-33007320D01*
X140652848Y-33000486D01*
X140658030Y-32988475D01*
X140659806Y-32974490D01*
X140659001Y-32967412D01*
X140654318Y-32957202D01*
X140644814Y-32943849D01*
X140633331Y-32930905D01*
X140623618Y-32920353D01*
X140617877Y-32912870D01*
X140617017Y-32909696D01*
X140617837Y-32909766D01*
X140625106Y-32911376D01*
X140638413Y-32913835D01*
X140655421Y-32916721D01*
X140663816Y-32918072D01*
X140681213Y-32921433D01*
X140704332Y-32926779D01*
X140730830Y-32933521D01*
X140758362Y-32941071D01*
X140775510Y-32946077D01*
X140803090Y-32954039D01*
X140826302Y-32960121D01*
X140844102Y-32964076D01*
X140855446Y-32965662D01*
X140858333Y-32965498D01*
X140866478Y-32960337D01*
X140870812Y-32948909D01*
X140870840Y-32948763D01*
X140870741Y-32933354D01*
X140864266Y-32917386D01*
X140850863Y-32899786D01*
X140839998Y-32888694D01*
X140830348Y-32878747D01*
X140824249Y-32871075D01*
X140823008Y-32867514D01*
X140828951Y-32866762D01*
X140841309Y-32868707D01*
X140858644Y-32872885D01*
X140879518Y-32878831D01*
X140902490Y-32886082D01*
X140926124Y-32894172D01*
X140948979Y-32902640D01*
X140969617Y-32911019D01*
X140986600Y-32918846D01*
X140993417Y-32922491D01*
X141005996Y-32929713D01*
X141022251Y-32939050D01*
X141037528Y-32947830D01*
X141051464Y-32955157D01*
X141063012Y-32959993D01*
X141069906Y-32961406D01*
X141070312Y-32961302D01*
X141077580Y-32955157D01*
X141084928Y-32943977D01*
X141090612Y-32930996D01*
X141092885Y-32919498D01*
X141090154Y-32904949D01*
X141083065Y-32888428D01*
X141073323Y-32873868D01*
X141072906Y-32873386D01*
X141067655Y-32865879D01*
X141068592Y-32862729D01*
X141074926Y-32863500D01*
X141085864Y-32867757D01*
X141100614Y-32875066D01*
X141118384Y-32884992D01*
X141138382Y-32897100D01*
X141159815Y-32910955D01*
X141181892Y-32926122D01*
X141203821Y-32942166D01*
X141217518Y-32952778D01*
X141235308Y-32966606D01*
X141250929Y-32978183D01*
X141263132Y-32986628D01*
X141270669Y-32991059D01*
X141272325Y-32991486D01*
X141276890Y-32987451D01*
X141284254Y-32978499D01*
X141290582Y-32969768D01*
X141298607Y-32956953D01*
X141302826Y-32945818D01*
X141304403Y-32932418D01*
X141304567Y-32922421D01*
X141305094Y-32908540D01*
X141306472Y-32898781D01*
X141308264Y-32895366D01*
X141314308Y-32898105D01*
X141325306Y-32905652D01*
X141340056Y-32917003D01*
X141357357Y-32931152D01*
X141376006Y-32947095D01*
X141394803Y-32963828D01*
X141412545Y-32980344D01*
X141427319Y-32994910D01*
X141443490Y-33011357D01*
X141454955Y-33022527D01*
X141462885Y-33029234D01*
X141468454Y-33032293D01*
X141472834Y-33032520D01*
X141477198Y-33030729D01*
X141478119Y-33030229D01*
X141486356Y-33023020D01*
X141495060Y-33011445D01*
X141498549Y-33005393D01*
X141504474Y-32991848D01*
X141506742Y-32979217D01*
X141506119Y-32963056D01*
X141506023Y-32962041D01*
X141505173Y-32949001D01*
X141505388Y-32940167D01*
X141506304Y-32937700D01*
X141511875Y-32940676D01*
X141522073Y-32948935D01*
X141535856Y-32961467D01*
X141552183Y-32977267D01*
X141570011Y-32995326D01*
X141588300Y-33014638D01*
X141605560Y-33033689D01*
X141630053Y-33061308D01*
X141649644Y-33083144D01*
X141664955Y-33099829D01*
X141676609Y-33111996D01*
X141685227Y-33120279D01*
X141691430Y-33125311D01*
X141695841Y-33127726D01*
X141698360Y-33128200D01*
X141704087Y-33124449D01*
X141710888Y-33114579D01*
X141717706Y-33100665D01*
X141723479Y-33084781D01*
X141726390Y-33073313D01*
X141729769Y-33061499D01*
X141734506Y-33056219D01*
X141741527Y-33057571D01*
X141751755Y-33065655D01*
X141763090Y-33077276D01*
X141793489Y-33112549D01*
X141825643Y-33154355D01*
X141858530Y-33201229D01*
X141891125Y-33251705D01*
X141922406Y-33304318D01*
X141925756Y-33310233D01*
X141935689Y-33329769D01*
X141947024Y-33355173D01*
X141958851Y-33384170D01*
X141970262Y-33414482D01*
X141980345Y-33443833D01*
X141984722Y-33457824D01*
X141988851Y-33472538D01*
X141991910Y-33486358D01*
X141994113Y-33501146D01*
X141995675Y-33518766D01*
X141996812Y-33541079D01*
X141997739Y-33569949D01*
X141997762Y-33570797D01*
X141998463Y-33598000D01*
X141998775Y-33618445D01*
X142281130Y-33618445D01*
X142280085Y-33611149D01*
X142278768Y-33583379D01*
X142280385Y-33554274D01*
X142284995Y-33520983D01*
X142286974Y-33509731D01*
X142302957Y-33443650D01*
X142326877Y-33376219D01*
X142358426Y-33308016D01*
X142397299Y-33239617D01*
X142443186Y-33171602D01*
X142495783Y-33104547D01*
X142513372Y-33084079D01*
X142546519Y-33046308D01*
X142557701Y-33081086D01*
X142565539Y-33103227D01*
X142572586Y-33117772D01*
X142579405Y-33125483D01*
X142586561Y-33127122D01*
X142590761Y-33125752D01*
X142596012Y-33121465D01*
X142605812Y-33111855D01*
X142619144Y-33097981D01*
X142634993Y-33080901D01*
X142652342Y-33061675D01*
X142653383Y-33060505D01*
X142676950Y-33034388D01*
X142699819Y-33009780D01*
X142721128Y-32987552D01*
X142740017Y-32968577D01*
X142755624Y-32953727D01*
X142767088Y-32943873D01*
X142771720Y-32940664D01*
X142774894Y-32940249D01*
X142776748Y-32944350D01*
X142777599Y-32954371D01*
X142777767Y-32967681D01*
X142779887Y-32993297D01*
X142786616Y-33012786D01*
X142798514Y-33027456D01*
X142805482Y-33032690D01*
X142812492Y-33036672D01*
X142817505Y-33036232D01*
X142823430Y-33030438D01*
X142827262Y-33025720D01*
X142842459Y-33008375D01*
X142862363Y-32987997D01*
X142884853Y-32966557D01*
X142907807Y-32946026D01*
X142929104Y-32928377D01*
X142943619Y-32917591D01*
X142957907Y-32907902D01*
X142969365Y-32900352D01*
X142976360Y-32896006D01*
X142977696Y-32895366D01*
X142978322Y-32899195D01*
X142978219Y-32909126D01*
X142977603Y-32920087D01*
X142978038Y-32942137D01*
X142983766Y-32959809D01*
X142995946Y-32976114D01*
X143001131Y-32981285D01*
X143013584Y-32993120D01*
X143035866Y-32974935D01*
X143070342Y-32947397D01*
X143100095Y-32925005D01*
X143126360Y-32906887D01*
X143150368Y-32892172D01*
X143162564Y-32885475D01*
X143183470Y-32874742D01*
X143197758Y-32868309D01*
X143206099Y-32866173D01*
X143209166Y-32868328D01*
X143207630Y-32874768D01*
X143202342Y-32885168D01*
X143193862Y-32906327D01*
X143191838Y-32926747D01*
X143196387Y-32944463D01*
X143198504Y-32948145D01*
X143206027Y-32955862D01*
X143213548Y-32958866D01*
X143220209Y-32956967D01*
X143232593Y-32951784D01*
X143248988Y-32944087D01*
X143267683Y-32934644D01*
X143269542Y-32933672D01*
X143291179Y-32922678D01*
X143313428Y-32911995D01*
X143333500Y-32902929D01*
X143347150Y-32897325D01*
X143363027Y-32891754D01*
X143382271Y-32885603D01*
X143402897Y-32879434D01*
X143422918Y-32873809D01*
X143440348Y-32869292D01*
X143453200Y-32866444D01*
X143458612Y-32865744D01*
X143458477Y-32868585D01*
X143453468Y-32876220D01*
X143444539Y-32887302D01*
X143438368Y-32894308D01*
X143426490Y-32908181D01*
X143416858Y-32920836D01*
X143410968Y-32930246D01*
X143409977Y-32932720D01*
X143409934Y-32944939D01*
X143414440Y-32956981D01*
X143421956Y-32965105D01*
X143423631Y-32965909D01*
X143430270Y-32965781D01*
X143442948Y-32963416D01*
X143459669Y-32959240D01*
X143473558Y-32955210D01*
X143494928Y-32948971D01*
X143519724Y-32942250D01*
X143546379Y-32935417D01*
X143573324Y-32928840D01*
X143598994Y-32922890D01*
X143621821Y-32917935D01*
X143640238Y-32914345D01*
X143652677Y-32912490D01*
X143655594Y-32912316D01*
X143663869Y-32912613D01*
X143664479Y-32914706D01*
X143658982Y-32919708D01*
X143651459Y-32927780D01*
X143642406Y-32939816D01*
X143633316Y-32953496D01*
X143625682Y-32966499D01*
X143620999Y-32976505D01*
X143620222Y-32979936D01*
X143622737Y-32987397D01*
X143628862Y-32997122D01*
X143629810Y-32998338D01*
X143639377Y-33010294D01*
X143690114Y-32997531D01*
X143734396Y-32986787D01*
X143771829Y-32978619D01*
X143803561Y-32972827D01*
X143830744Y-32969212D01*
X143854525Y-32967577D01*
X143864282Y-32967434D01*
X143888333Y-32968178D01*
X143909314Y-32970119D01*
X143925572Y-32973023D01*
X143935451Y-32976656D01*
X143936749Y-32977670D01*
X143935059Y-32981549D01*
X143928433Y-32989955D01*
X143918012Y-33001523D01*
X143908897Y-33010948D01*
X143892018Y-33029034D01*
X143881997Y-33042461D01*
X143878744Y-33051409D01*
X143882169Y-33056058D01*
X143885842Y-33056794D01*
X143891801Y-33057016D01*
X143905124Y-33057377D01*
X143924709Y-33057852D01*
X143949456Y-33058414D01*
X143978262Y-33059038D01*
X144010027Y-33059700D01*
X144023314Y-33059969D01*
X144153378Y-33062583D01*
X144127477Y-33102799D01*
X144110909Y-33129965D01*
X144095455Y-33158009D01*
X144081634Y-33185722D01*
X144069960Y-33211898D01*
X144060952Y-33235326D01*
X144055127Y-33254800D01*
X144053000Y-33269110D01*
X144053815Y-33274988D01*
X144056140Y-33277590D01*
X144061613Y-33279272D01*
X144071544Y-33280144D01*
X144087245Y-33280319D01*
X144110028Y-33279909D01*
X144111269Y-33279878D01*
X144136724Y-33279532D01*
X144154120Y-33280012D01*
X144163826Y-33281338D01*
X144166306Y-33283111D01*
X144351023Y-33283111D01*
X144352457Y-33275134D01*
X144350771Y-33243656D01*
X144341638Y-33212148D01*
X144325113Y-33179701D01*
X144324222Y-33178247D01*
X144309408Y-33154211D01*
X144321120Y-33125330D01*
X144326709Y-33110357D01*
X144330241Y-33096926D01*
X144332189Y-33082154D01*
X144333029Y-33063159D01*
X144333175Y-33051999D01*
X144333127Y-33031188D01*
X144332328Y-33016339D01*
X144330361Y-33004955D01*
X144326809Y-32994537D01*
X144321789Y-32983667D01*
X144304464Y-32957133D01*
X144280759Y-32933680D01*
X144252689Y-32915291D01*
X144251954Y-32914916D01*
X144233800Y-32907759D01*
X144210508Y-32901444D01*
X144184998Y-32896491D01*
X144160189Y-32893424D01*
X144139000Y-32892762D01*
X144131422Y-32893389D01*
X144120353Y-32894612D01*
X144112565Y-32893774D01*
X144105395Y-32889719D01*
X144096182Y-32881293D01*
X144090568Y-32875676D01*
X144058946Y-32848995D01*
X144023174Y-32828734D01*
X143982453Y-32814537D01*
X143935987Y-32806048D01*
X143934246Y-32805849D01*
X143911059Y-32803342D01*
X143894128Y-32801826D01*
X143881308Y-32801257D01*
X143870452Y-32801588D01*
X143859414Y-32802774D01*
X143850628Y-32804058D01*
X143838762Y-32805563D01*
X143830432Y-32804894D01*
X143822661Y-32801010D01*
X143812473Y-32792872D01*
X143808295Y-32789268D01*
X143792606Y-32777275D01*
X143774729Y-32765892D01*
X143764134Y-32760288D01*
X143753827Y-32755830D01*
X143743919Y-32752697D01*
X143732487Y-32750598D01*
X143717606Y-32749248D01*
X143697353Y-32748356D01*
X143681584Y-32747915D01*
X143657788Y-32747227D01*
X143640817Y-32746368D01*
X143629030Y-32745071D01*
X143620784Y-32743067D01*
X143614440Y-32740087D01*
X143608497Y-32735972D01*
X143582030Y-32719996D01*
X143550358Y-32707511D01*
X143519590Y-32700197D01*
X143486899Y-32697825D01*
X143450498Y-32700322D01*
X143413374Y-32707378D01*
X143392963Y-32713345D01*
X143378801Y-32717762D01*
X143367293Y-32720780D01*
X143361967Y-32721655D01*
X143355467Y-32719527D01*
X143344233Y-32713857D01*
X143330565Y-32705819D01*
X143328989Y-32704826D01*
X143302360Y-32687933D01*
X143246772Y-32687933D01*
X143221143Y-32688226D01*
%TO.C,X2*%
G36*
X87160234Y-39355434D02*
G01*
X87363434Y-39355434D01*
X87363434Y-39558634D01*
X87548084Y-39558634D01*
X87553125Y-39664467D01*
X87558167Y-39770301D01*
X87654677Y-39775353D01*
X87751187Y-39780406D01*
X87756277Y-39868487D01*
X87761367Y-39956567D01*
X87968800Y-39961322D01*
X88176234Y-39966076D01*
X88176234Y-40371434D01*
X88387900Y-40371372D01*
X88387900Y-40583101D01*
X88586867Y-40587871D01*
X88785834Y-40592642D01*
X88785834Y-40979991D01*
X89200700Y-40989501D01*
X89205455Y-41196934D01*
X89210209Y-41404367D01*
X90445300Y-41404367D01*
X90445300Y-40981034D01*
X90868633Y-40981034D01*
X90868633Y-40794767D01*
X91054900Y-40794767D01*
X91054900Y-40591567D01*
X91884634Y-40591567D01*
X91884634Y-40371592D01*
X90136267Y-40367280D01*
X88387900Y-40362967D01*
X88383129Y-40164000D01*
X88378359Y-39965034D01*
X88176234Y-39965034D01*
X88176234Y-39778767D01*
X87752900Y-39778767D01*
X87752900Y-39558634D01*
X87549700Y-39558634D01*
X87549700Y-39355434D01*
X87364181Y-39355434D01*
X87354967Y-38720434D01*
X87258429Y-38715380D01*
X87161892Y-38710327D01*
X87156829Y-38816980D01*
X87151767Y-38923634D01*
X87050167Y-38932101D01*
X86948567Y-38940567D01*
X86944150Y-39656001D01*
X86939733Y-40371434D01*
X87160234Y-40371434D01*
X87160234Y-39355434D01*
X87160234Y-39355434D01*
G37*
X87160234Y-39355434D02*
X87363434Y-39355434D01*
X87363434Y-39558634D01*
X87548084Y-39558634D01*
X87553125Y-39664467D01*
X87558167Y-39770301D01*
X87654677Y-39775353D01*
X87751187Y-39780406D01*
X87756277Y-39868487D01*
X87761367Y-39956567D01*
X87968800Y-39961322D01*
X88176234Y-39966076D01*
X88176234Y-40371434D01*
X88387900Y-40371372D01*
X88387900Y-40583101D01*
X88586867Y-40587871D01*
X88785834Y-40592642D01*
X88785834Y-40979991D01*
X89200700Y-40989501D01*
X89205455Y-41196934D01*
X89210209Y-41404367D01*
X90445300Y-41404367D01*
X90445300Y-40981034D01*
X90868633Y-40981034D01*
X90868633Y-40794767D01*
X91054900Y-40794767D01*
X91054900Y-40591567D01*
X91884634Y-40591567D01*
X91884634Y-40371592D01*
X90136267Y-40367280D01*
X88387900Y-40362967D01*
X88383129Y-40164000D01*
X88378359Y-39965034D01*
X88176234Y-39965034D01*
X88176234Y-39778767D01*
X87752900Y-39778767D01*
X87752900Y-39558634D01*
X87549700Y-39558634D01*
X87549700Y-39355434D01*
X87364181Y-39355434D01*
X87354967Y-38720434D01*
X87258429Y-38715380D01*
X87161892Y-38710327D01*
X87156829Y-38816980D01*
X87151767Y-38923634D01*
X87050167Y-38932101D01*
X86948567Y-38940567D01*
X86944150Y-39656001D01*
X86939733Y-40371434D01*
X87160234Y-40371434D01*
X87160234Y-39355434D01*
G36*
X92917567Y-38711967D02*
G01*
X93119151Y-38711967D01*
X93124192Y-38817800D01*
X93129233Y-38923634D01*
X93730367Y-38932882D01*
X93730367Y-38525701D01*
X93527167Y-38525701D01*
X93527167Y-38711967D01*
X93120767Y-38711967D01*
X93120767Y-38525701D01*
X92917567Y-38525701D01*
X92917567Y-38711967D01*
X92917567Y-38711967D01*
G37*
X92917567Y-38711967D02*
X93119151Y-38711967D01*
X93124192Y-38817800D01*
X93129233Y-38923634D01*
X93730367Y-38932882D01*
X93730367Y-38525701D01*
X93527167Y-38525701D01*
X93527167Y-38711967D01*
X93120767Y-38711967D01*
X93120767Y-38525701D01*
X92917567Y-38525701D01*
X92917567Y-38711967D01*
G36*
X94763300Y-39558634D02*
G01*
X94551634Y-39558696D01*
X94563108Y-39355434D01*
X94339967Y-39355434D01*
X94339967Y-38525701D01*
X94153700Y-38525701D01*
X94153700Y-38322501D01*
X93730367Y-38322501D01*
X93730367Y-38525701D01*
X94153098Y-38525701D01*
X94157632Y-38936334D01*
X94162167Y-39346967D01*
X94251067Y-39352085D01*
X94339967Y-39357204D01*
X94339967Y-39557018D01*
X94445800Y-39562059D01*
X94551634Y-39567101D01*
X94561716Y-39778767D01*
X94763300Y-39778767D01*
X94763300Y-39558634D01*
X94763300Y-39558634D01*
G37*
X94763300Y-39558634D02*
X94551634Y-39558696D01*
X94563108Y-39355434D01*
X94339967Y-39355434D01*
X94339967Y-38525701D01*
X94153700Y-38525701D01*
X94153700Y-38322501D01*
X93730367Y-38322501D01*
X93730367Y-38525701D01*
X94153098Y-38525701D01*
X94157632Y-38936334D01*
X94162167Y-39346967D01*
X94251067Y-39352085D01*
X94339967Y-39357204D01*
X94339967Y-39557018D01*
X94445800Y-39562059D01*
X94551634Y-39567101D01*
X94561716Y-39778767D01*
X94763300Y-39778767D01*
X94763300Y-39558634D01*
G36*
X88785834Y-44096767D02*
G01*
X88599567Y-44096767D01*
X88599567Y-43453301D01*
X88510667Y-43453560D01*
X88455896Y-43456187D01*
X88413744Y-43462614D01*
X88400197Y-43467508D01*
X88392135Y-43481104D01*
X88386563Y-43512499D01*
X88383282Y-43565450D01*
X88382091Y-43643718D01*
X88382789Y-43751061D01*
X88383264Y-43784749D01*
X88387900Y-44088301D01*
X88493734Y-44093342D01*
X88599567Y-44098383D01*
X88599567Y-44486234D01*
X88785834Y-44486234D01*
X88785834Y-44096767D01*
X88785834Y-44096767D01*
G37*
X88785834Y-44096767D02*
X88599567Y-44096767D01*
X88599567Y-43453301D01*
X88510667Y-43453560D01*
X88455896Y-43456187D01*
X88413744Y-43462614D01*
X88400197Y-43467508D01*
X88392135Y-43481104D01*
X88386563Y-43512499D01*
X88383282Y-43565450D01*
X88382091Y-43643718D01*
X88382789Y-43751061D01*
X88383264Y-43784749D01*
X88387900Y-44088301D01*
X88493734Y-44093342D01*
X88599567Y-44098383D01*
X88599567Y-44486234D01*
X88785834Y-44486234D01*
X88785834Y-44096767D01*
G36*
X87752900Y-44689434D02*
G01*
X88174617Y-44689434D01*
X88179659Y-44795267D01*
X88184700Y-44901100D01*
X88777367Y-44901100D01*
X88782408Y-44795267D01*
X88787450Y-44689434D01*
X89209167Y-44689434D01*
X89209167Y-44486234D01*
X88785834Y-44486234D01*
X88785834Y-44689434D01*
X88176234Y-44689434D01*
X88176234Y-44486234D01*
X87752900Y-44486234D01*
X87752900Y-44689434D01*
X87752900Y-44689434D01*
G37*
X87752900Y-44689434D02*
X88174617Y-44689434D01*
X88179659Y-44795267D01*
X88184700Y-44901100D01*
X88777367Y-44901100D01*
X88782408Y-44795267D01*
X88787450Y-44689434D01*
X89209167Y-44689434D01*
X89209167Y-44486234D01*
X88785834Y-44486234D01*
X88785834Y-44689434D01*
X88176234Y-44689434D01*
X88176234Y-44486234D01*
X87752900Y-44486234D01*
X87752900Y-44689434D01*
G36*
X87549700Y-44486234D02*
G01*
X87752900Y-44486234D01*
X87752900Y-44096767D01*
X87549700Y-44096767D01*
X87549700Y-44486234D01*
X87549700Y-44486234D01*
G37*
X87549700Y-44486234D02*
X87752900Y-44486234D01*
X87752900Y-44096767D01*
X87549700Y-44096767D01*
X87549700Y-44486234D01*
G36*
X87363434Y-42437300D02*
G01*
X87363434Y-44096767D01*
X87549700Y-44096767D01*
X87549700Y-42437300D01*
X87363434Y-42437300D01*
X87363434Y-42437300D01*
G37*
X87363434Y-42437300D02*
X87363434Y-44096767D01*
X87549700Y-44096767D01*
X87549700Y-42437300D01*
X87363434Y-42437300D01*
G36*
X87549700Y-42437300D02*
G01*
X87752900Y-42437300D01*
X87752900Y-40981034D01*
X87549700Y-40981034D01*
X87549700Y-42437300D01*
X87549700Y-42437300D01*
G37*
X87549700Y-42437300D02*
X87752900Y-42437300D01*
X87752900Y-40981034D01*
X87549700Y-40981034D01*
X87549700Y-42437300D01*
G36*
X87363434Y-40981034D02*
G01*
X87549700Y-40981034D01*
X87549700Y-40591567D01*
X87363434Y-40591567D01*
X87363434Y-40981034D01*
X87363434Y-40981034D01*
G37*
X87363434Y-40981034D02*
X87549700Y-40981034D01*
X87549700Y-40591567D01*
X87363434Y-40591567D01*
X87363434Y-40981034D01*
G36*
X87160234Y-40591567D02*
G01*
X87363434Y-40591567D01*
X87363434Y-40371434D01*
X87160234Y-40371434D01*
X87160234Y-40591567D01*
X87160234Y-40591567D01*
G37*
X87160234Y-40591567D02*
X87363434Y-40591567D01*
X87363434Y-40371434D01*
X87160234Y-40371434D01*
X87160234Y-40591567D01*
G36*
X91884634Y-39965034D02*
G01*
X91884634Y-40371434D01*
X92291033Y-40371434D01*
X92291033Y-39965034D01*
X91884634Y-39965034D01*
X91884634Y-39965034D01*
G37*
X91884634Y-39965034D02*
X91884634Y-40371434D01*
X92291033Y-40371434D01*
X92291033Y-39965034D01*
X91884634Y-39965034D01*
G36*
X92291033Y-42843701D02*
G01*
X92089524Y-42843701D01*
X92084445Y-42746334D01*
X92079367Y-42648967D01*
X89209167Y-42640309D01*
X89209167Y-42842658D01*
X89001733Y-42847413D01*
X88794300Y-42852167D01*
X88789259Y-42958001D01*
X88784217Y-43063834D01*
X88599567Y-43063834D01*
X88599567Y-43453301D01*
X88785834Y-43453301D01*
X88785834Y-43063834D01*
X89209167Y-43063834D01*
X89209167Y-42843701D01*
X92087834Y-42843701D01*
X92087834Y-44096767D01*
X92291033Y-44096767D01*
X92291033Y-42843701D01*
X92291033Y-42843701D01*
G37*
X92291033Y-42843701D02*
X92089524Y-42843701D01*
X92084445Y-42746334D01*
X92079367Y-42648967D01*
X89209167Y-42640309D01*
X89209167Y-42842658D01*
X89001733Y-42847413D01*
X88794300Y-42852167D01*
X88789259Y-42958001D01*
X88784217Y-43063834D01*
X88599567Y-43063834D01*
X88599567Y-43453301D01*
X88785834Y-43453301D01*
X88785834Y-43063834D01*
X89209167Y-43063834D01*
X89209167Y-42843701D01*
X92087834Y-42843701D01*
X92087834Y-44096767D01*
X92291033Y-44096767D01*
X92291033Y-42843701D01*
G36*
X92494233Y-44096767D02*
G01*
X92291033Y-44096767D01*
X92291033Y-44486234D01*
X92494233Y-44486234D01*
X92494233Y-44096767D01*
X92494233Y-44096767D01*
G37*
X92494233Y-44096767D02*
X92291033Y-44096767D01*
X92291033Y-44486234D01*
X92494233Y-44486234D01*
X92494233Y-44096767D01*
G36*
X92917567Y-44689434D02*
G01*
X92917567Y-44486234D01*
X92494233Y-44486234D01*
X92494233Y-44689434D01*
X92915951Y-44689434D01*
X92926033Y-44901100D01*
X93214925Y-44905720D01*
X93310613Y-44906587D01*
X93394304Y-44906087D01*
X93460213Y-44904357D01*
X93502555Y-44901533D01*
X93515492Y-44898664D01*
X93521798Y-44876601D01*
X93526037Y-44831602D01*
X93527167Y-44788212D01*
X93527167Y-44689434D01*
X92917567Y-44689434D01*
X92917567Y-44689434D01*
G37*
X92917567Y-44689434D02*
X92917567Y-44486234D01*
X92494233Y-44486234D01*
X92494233Y-44689434D01*
X92915951Y-44689434D01*
X92926033Y-44901100D01*
X93214925Y-44905720D01*
X93310613Y-44906587D01*
X93394304Y-44906087D01*
X93460213Y-44904357D01*
X93502555Y-44901533D01*
X93515492Y-44898664D01*
X93521798Y-44876601D01*
X93526037Y-44831602D01*
X93527167Y-44788212D01*
X93527167Y-44689434D01*
X92917567Y-44689434D01*
G36*
X93527167Y-44689434D02*
G01*
X93730367Y-44689434D01*
X93730367Y-44486234D01*
X93527167Y-44486234D01*
X93527167Y-44689434D01*
X93527167Y-44689434D01*
G37*
X93527167Y-44689434D02*
X93730367Y-44689434D01*
X93730367Y-44486234D01*
X93527167Y-44486234D01*
X93527167Y-44689434D01*
G36*
X93527167Y-40591567D02*
G01*
X93527167Y-40793151D01*
X93421334Y-40798192D01*
X93315500Y-40803234D01*
X93310876Y-41103801D01*
X93306252Y-41404367D01*
X92919183Y-41404367D01*
X92914142Y-41510201D01*
X92909100Y-41616034D01*
X92701667Y-41620788D01*
X92494233Y-41625543D01*
X92494233Y-42437300D01*
X92917567Y-42437300D01*
X92917567Y-42640501D01*
X93120403Y-42640501D01*
X93129233Y-44088301D01*
X93218133Y-44093419D01*
X93307034Y-44098537D01*
X93307034Y-44486234D01*
X93527167Y-44486234D01*
X93527167Y-44096767D01*
X93307034Y-44096767D01*
X93307034Y-41405983D01*
X93518700Y-41395901D01*
X93527948Y-40794767D01*
X95186633Y-40794767D01*
X95186633Y-40591567D01*
X93527167Y-40591567D01*
X93527167Y-40591567D01*
G37*
X93527167Y-40591567D02*
X93527167Y-40793151D01*
X93421334Y-40798192D01*
X93315500Y-40803234D01*
X93310876Y-41103801D01*
X93306252Y-41404367D01*
X92919183Y-41404367D01*
X92914142Y-41510201D01*
X92909100Y-41616034D01*
X92701667Y-41620788D01*
X92494233Y-41625543D01*
X92494233Y-42437300D01*
X92917567Y-42437300D01*
X92917567Y-42640501D01*
X93120403Y-42640501D01*
X93129233Y-44088301D01*
X93218133Y-44093419D01*
X93307034Y-44098537D01*
X93307034Y-44486234D01*
X93527167Y-44486234D01*
X93527167Y-44096767D01*
X93307034Y-44096767D01*
X93307034Y-41405983D01*
X93518700Y-41395901D01*
X93527948Y-40794767D01*
X95186633Y-40794767D01*
X95186633Y-40591567D01*
X93527167Y-40591567D01*
G36*
X95186633Y-40591567D02*
G01*
X95389833Y-40591567D01*
X95389833Y-39965034D01*
X95186633Y-39965034D01*
X95186633Y-40591567D01*
X95186633Y-40591567D01*
G37*
X95186633Y-40591567D02*
X95389833Y-40591567D01*
X95389833Y-39965034D01*
X95186633Y-39965034D01*
X95186633Y-40591567D01*
G36*
X94763300Y-39965034D02*
G01*
X95186633Y-39965034D01*
X95186633Y-39778767D01*
X94763300Y-39778767D01*
X94763300Y-39965034D01*
X94763300Y-39965034D01*
G37*
X94763300Y-39965034D02*
X95186633Y-39965034D01*
X95186633Y-39778767D01*
X94763300Y-39778767D01*
X94763300Y-39965034D01*
G36*
X92494233Y-38525701D02*
G01*
X92917567Y-38525701D01*
X92917567Y-38322501D01*
X92291033Y-38322501D01*
X92291033Y-38932101D01*
X92494233Y-38932101D01*
X92494233Y-38525701D01*
X92494233Y-38525701D01*
G37*
X92494233Y-38525701D02*
X92917567Y-38525701D01*
X92917567Y-38322501D01*
X92291033Y-38322501D01*
X92291033Y-38932101D01*
X92494233Y-38932101D01*
X92494233Y-38525701D01*
G36*
X92494233Y-39965034D02*
G01*
X92494233Y-39779810D01*
X92701667Y-39775055D01*
X92909100Y-39770301D01*
X92913629Y-39351200D01*
X92918158Y-38932101D01*
X92494233Y-38932101D01*
X92494233Y-39778767D01*
X92291033Y-39778767D01*
X92291033Y-39965034D01*
X92494233Y-39965034D01*
X92494233Y-39965034D01*
G37*
X92494233Y-39965034D02*
X92494233Y-39779810D01*
X92701667Y-39775055D01*
X92909100Y-39770301D01*
X92913629Y-39351200D01*
X92918158Y-38932101D01*
X92494233Y-38932101D01*
X92494233Y-39778767D01*
X92291033Y-39778767D01*
X92291033Y-39965034D01*
X92494233Y-39965034D01*
G36*
X93527167Y-39558634D02*
G01*
X93730367Y-39558634D01*
X93730367Y-39355434D01*
X93527167Y-39355434D01*
X93527167Y-39558634D01*
X93527167Y-39558634D01*
G37*
X93527167Y-39558634D02*
X93730367Y-39558634D01*
X93730367Y-39355434D01*
X93527167Y-39355434D01*
X93527167Y-39558634D01*
%TD*%
%TO.C,J8*%
D15*
X132791333Y-37627023D02*
X132791333Y-38534166D01*
X132851809Y-38715595D01*
X132972761Y-38836547D01*
X133154190Y-38897023D01*
X133275142Y-38897023D01*
X132005142Y-38171309D02*
X132126095Y-38110833D01*
X132186571Y-38050357D01*
X132247047Y-37929404D01*
X132247047Y-37868928D01*
X132186571Y-37747976D01*
X132126095Y-37687500D01*
X132005142Y-37627023D01*
X131763238Y-37627023D01*
X131642285Y-37687500D01*
X131581809Y-37747976D01*
X131521333Y-37868928D01*
X131521333Y-37929404D01*
X131581809Y-38050357D01*
X131642285Y-38110833D01*
X131763238Y-38171309D01*
X132005142Y-38171309D01*
X132126095Y-38231785D01*
X132186571Y-38292261D01*
X132247047Y-38413214D01*
X132247047Y-38655119D01*
X132186571Y-38776071D01*
X132126095Y-38836547D01*
X132005142Y-38897023D01*
X131763238Y-38897023D01*
X131642285Y-38836547D01*
X131581809Y-38776071D01*
X131521333Y-38655119D01*
X131521333Y-38413214D01*
X131581809Y-38292261D01*
X131642285Y-38231785D01*
X131763238Y-38171309D01*
%TD*%
M02*
