%TF.GenerationSoftware,KiCad,Pcbnew,(5.1.4)-1*%
%TF.CreationDate,2020-08-22T20:00:45-05:00*%
%TF.ProjectId,daisy_chain_board,64616973-795f-4636-9861-696e5f626f61,rev?*%
%TF.SameCoordinates,PX59d60c0PY325aa00*%
%TF.FileFunction,Legend,Top*%
%TF.FilePolarity,Positive*%
%FSLAX46Y46*%
G04 Gerber Fmt 4.6, Leading zero omitted, Abs format (unit mm)*
G04 Created by KiCad (PCBNEW (5.1.4)-1) date 2020-08-22 20:00:45*
%MOMM*%
%LPD*%
G04 APERTURE LIST*
%ADD10C,0.200000*%
%ADD11C,0.120000*%
%ADD12C,0.150000*%
%ADD13C,0.050000*%
%ADD14C,0.010000*%
G04 APERTURE END LIST*
D10*
X104801928Y-41120571D02*
X104801928Y-42192000D01*
X104730500Y-42406285D01*
X104587642Y-42549142D01*
X104373357Y-42620571D01*
X104230500Y-42620571D01*
X106230500Y-42620571D02*
X105516214Y-42620571D01*
X105516214Y-41120571D01*
X107587642Y-42477714D02*
X107516214Y-42549142D01*
X107301928Y-42620571D01*
X107159071Y-42620571D01*
X106944785Y-42549142D01*
X106801928Y-42406285D01*
X106730500Y-42263428D01*
X106659071Y-41977714D01*
X106659071Y-41763428D01*
X106730500Y-41477714D01*
X106801928Y-41334857D01*
X106944785Y-41192000D01*
X107159071Y-41120571D01*
X107301928Y-41120571D01*
X107516214Y-41192000D01*
X107587642Y-41263428D01*
X108659071Y-41120571D02*
X108659071Y-42192000D01*
X108587642Y-42406285D01*
X108444785Y-42549142D01*
X108230500Y-42620571D01*
X108087642Y-42620571D01*
X110087642Y-42620571D02*
X109373357Y-42620571D01*
X109373357Y-41120571D01*
X111444785Y-42477714D02*
X111373357Y-42549142D01*
X111159071Y-42620571D01*
X111016214Y-42620571D01*
X110801928Y-42549142D01*
X110659071Y-42406285D01*
X110587642Y-42263428D01*
X110516214Y-41977714D01*
X110516214Y-41763428D01*
X110587642Y-41477714D01*
X110659071Y-41334857D01*
X110801928Y-41192000D01*
X111016214Y-41120571D01*
X111159071Y-41120571D01*
X111373357Y-41192000D01*
X111444785Y-41263428D01*
X112516214Y-41120571D02*
X112516214Y-42192000D01*
X112444785Y-42406285D01*
X112301928Y-42549142D01*
X112087642Y-42620571D01*
X111944785Y-42620571D01*
X113944785Y-42620571D02*
X113230500Y-42620571D01*
X113230500Y-41120571D01*
X115301928Y-42477714D02*
X115230500Y-42549142D01*
X115016214Y-42620571D01*
X114873357Y-42620571D01*
X114659071Y-42549142D01*
X114516214Y-42406285D01*
X114444785Y-42263428D01*
X114373357Y-41977714D01*
X114373357Y-41763428D01*
X114444785Y-41477714D01*
X114516214Y-41334857D01*
X114659071Y-41192000D01*
X114873357Y-41120571D01*
X115016214Y-41120571D01*
X115230500Y-41192000D01*
X115301928Y-41263428D01*
X116373357Y-41120571D02*
X116373357Y-42192000D01*
X116301928Y-42406285D01*
X116159071Y-42549142D01*
X115944785Y-42620571D01*
X115801928Y-42620571D01*
X117801928Y-42620571D02*
X117087642Y-42620571D01*
X117087642Y-41120571D01*
X119159071Y-42477714D02*
X119087642Y-42549142D01*
X118873357Y-42620571D01*
X118730500Y-42620571D01*
X118516214Y-42549142D01*
X118373357Y-42406285D01*
X118301928Y-42263428D01*
X118230500Y-41977714D01*
X118230500Y-41763428D01*
X118301928Y-41477714D01*
X118373357Y-41334857D01*
X118516214Y-41192000D01*
X118730500Y-41120571D01*
X118873357Y-41120571D01*
X119087642Y-41192000D01*
X119159071Y-41263428D01*
D11*
X128304000Y-33687000D02*
X130717000Y-33687000D01*
X139353000Y-33306000D02*
X86267000Y-33306000D01*
D12*
X98500333Y-26011380D02*
X98500333Y-25011380D01*
X98928904Y-26011380D02*
X98928904Y-25487571D01*
X98881285Y-25392333D01*
X98786047Y-25344714D01*
X98643190Y-25344714D01*
X98547952Y-25392333D01*
X98500333Y-25439952D01*
X99262238Y-25344714D02*
X99643190Y-25344714D01*
X99405095Y-25011380D02*
X99405095Y-25868523D01*
X99452714Y-25963761D01*
X99547952Y-26011380D01*
X99643190Y-26011380D01*
X99833666Y-25344714D02*
X100214619Y-25344714D01*
X99976523Y-25011380D02*
X99976523Y-25868523D01*
X100024142Y-25963761D01*
X100119380Y-26011380D01*
X100214619Y-26011380D01*
X100547952Y-25344714D02*
X100547952Y-26344714D01*
X100547952Y-25392333D02*
X100643190Y-25344714D01*
X100833666Y-25344714D01*
X100928904Y-25392333D01*
X100976523Y-25439952D01*
X101024142Y-25535190D01*
X101024142Y-25820904D01*
X100976523Y-25916142D01*
X100928904Y-25963761D01*
X100833666Y-26011380D01*
X100643190Y-26011380D01*
X100547952Y-25963761D01*
X101405095Y-25963761D02*
X101500333Y-26011380D01*
X101690809Y-26011380D01*
X101786047Y-25963761D01*
X101833666Y-25868523D01*
X101833666Y-25820904D01*
X101786047Y-25725666D01*
X101690809Y-25678047D01*
X101547952Y-25678047D01*
X101452714Y-25630428D01*
X101405095Y-25535190D01*
X101405095Y-25487571D01*
X101452714Y-25392333D01*
X101547952Y-25344714D01*
X101690809Y-25344714D01*
X101786047Y-25392333D01*
X102262238Y-25916142D02*
X102309857Y-25963761D01*
X102262238Y-26011380D01*
X102214619Y-25963761D01*
X102262238Y-25916142D01*
X102262238Y-26011380D01*
X102262238Y-25392333D02*
X102309857Y-25439952D01*
X102262238Y-25487571D01*
X102214619Y-25439952D01*
X102262238Y-25392333D01*
X102262238Y-25487571D01*
X103452714Y-24963761D02*
X102595571Y-26249476D01*
X104500333Y-24963761D02*
X103643190Y-26249476D01*
X105262238Y-25344714D02*
X105262238Y-26154238D01*
X105214619Y-26249476D01*
X105167000Y-26297095D01*
X105071761Y-26344714D01*
X104928904Y-26344714D01*
X104833666Y-26297095D01*
X105262238Y-25963761D02*
X105167000Y-26011380D01*
X104976523Y-26011380D01*
X104881285Y-25963761D01*
X104833666Y-25916142D01*
X104786047Y-25820904D01*
X104786047Y-25535190D01*
X104833666Y-25439952D01*
X104881285Y-25392333D01*
X104976523Y-25344714D01*
X105167000Y-25344714D01*
X105262238Y-25392333D01*
X105738428Y-26011380D02*
X105738428Y-25344714D01*
X105738428Y-25011380D02*
X105690809Y-25059000D01*
X105738428Y-25106619D01*
X105786047Y-25059000D01*
X105738428Y-25011380D01*
X105738428Y-25106619D01*
X106071761Y-25344714D02*
X106452714Y-25344714D01*
X106214619Y-25011380D02*
X106214619Y-25868523D01*
X106262238Y-25963761D01*
X106357476Y-26011380D01*
X106452714Y-26011380D01*
X106786047Y-26011380D02*
X106786047Y-25011380D01*
X107214619Y-26011380D02*
X107214619Y-25487571D01*
X107167000Y-25392333D01*
X107071761Y-25344714D01*
X106928904Y-25344714D01*
X106833666Y-25392333D01*
X106786047Y-25439952D01*
X108119380Y-25344714D02*
X108119380Y-26011380D01*
X107690809Y-25344714D02*
X107690809Y-25868523D01*
X107738428Y-25963761D01*
X107833666Y-26011380D01*
X107976523Y-26011380D01*
X108071761Y-25963761D01*
X108119380Y-25916142D01*
X108595571Y-26011380D02*
X108595571Y-25011380D01*
X108595571Y-25392333D02*
X108690809Y-25344714D01*
X108881285Y-25344714D01*
X108976523Y-25392333D01*
X109024142Y-25439952D01*
X109071761Y-25535190D01*
X109071761Y-25820904D01*
X109024142Y-25916142D01*
X108976523Y-25963761D01*
X108881285Y-26011380D01*
X108690809Y-26011380D01*
X108595571Y-25963761D01*
X109500333Y-25916142D02*
X109547952Y-25963761D01*
X109500333Y-26011380D01*
X109452714Y-25963761D01*
X109500333Y-25916142D01*
X109500333Y-26011380D01*
X110405095Y-25963761D02*
X110309857Y-26011380D01*
X110119380Y-26011380D01*
X110024142Y-25963761D01*
X109976523Y-25916142D01*
X109928904Y-25820904D01*
X109928904Y-25535190D01*
X109976523Y-25439952D01*
X110024142Y-25392333D01*
X110119380Y-25344714D01*
X110309857Y-25344714D01*
X110405095Y-25392333D01*
X110976523Y-26011380D02*
X110881285Y-25963761D01*
X110833666Y-25916142D01*
X110786047Y-25820904D01*
X110786047Y-25535190D01*
X110833666Y-25439952D01*
X110881285Y-25392333D01*
X110976523Y-25344714D01*
X111119380Y-25344714D01*
X111214619Y-25392333D01*
X111262238Y-25439952D01*
X111309857Y-25535190D01*
X111309857Y-25820904D01*
X111262238Y-25916142D01*
X111214619Y-25963761D01*
X111119380Y-26011380D01*
X110976523Y-26011380D01*
X111738428Y-26011380D02*
X111738428Y-25344714D01*
X111738428Y-25439952D02*
X111786047Y-25392333D01*
X111881285Y-25344714D01*
X112024142Y-25344714D01*
X112119380Y-25392333D01*
X112167000Y-25487571D01*
X112167000Y-26011380D01*
X112167000Y-25487571D02*
X112214619Y-25392333D01*
X112309857Y-25344714D01*
X112452714Y-25344714D01*
X112547952Y-25392333D01*
X112595571Y-25487571D01*
X112595571Y-26011380D01*
X113786047Y-24963761D02*
X112928904Y-26249476D01*
X114547952Y-26011380D02*
X114547952Y-25487571D01*
X114500333Y-25392333D01*
X114405095Y-25344714D01*
X114214619Y-25344714D01*
X114119380Y-25392333D01*
X114547952Y-25963761D02*
X114452714Y-26011380D01*
X114214619Y-26011380D01*
X114119380Y-25963761D01*
X114071761Y-25868523D01*
X114071761Y-25773285D01*
X114119380Y-25678047D01*
X114214619Y-25630428D01*
X114452714Y-25630428D01*
X114547952Y-25582809D01*
X115024142Y-26011380D02*
X115024142Y-25011380D01*
X115119380Y-25630428D02*
X115405095Y-26011380D01*
X115405095Y-25344714D02*
X115024142Y-25725666D01*
X116262238Y-25344714D02*
X116262238Y-26011380D01*
X115833666Y-25344714D02*
X115833666Y-25868523D01*
X115881285Y-25963761D01*
X115976523Y-26011380D01*
X116119380Y-26011380D01*
X116214619Y-25963761D01*
X116262238Y-25916142D01*
X116738428Y-26011380D02*
X116738428Y-25011380D01*
X116833666Y-25630428D02*
X117119380Y-26011380D01*
X117119380Y-25344714D02*
X116738428Y-25725666D01*
X117928904Y-25963761D02*
X117833666Y-26011380D01*
X117643190Y-26011380D01*
X117547952Y-25963761D01*
X117500333Y-25868523D01*
X117500333Y-25487571D01*
X117547952Y-25392333D01*
X117643190Y-25344714D01*
X117833666Y-25344714D01*
X117928904Y-25392333D01*
X117976523Y-25487571D01*
X117976523Y-25582809D01*
X117500333Y-25678047D01*
X118405095Y-26011380D02*
X118405095Y-25344714D01*
X118405095Y-25535190D02*
X118452714Y-25439952D01*
X118500333Y-25392333D01*
X118595571Y-25344714D01*
X118690809Y-25344714D01*
X119738428Y-24963761D02*
X118881285Y-26249476D01*
X120643190Y-26011380D02*
X120309857Y-25535190D01*
X120071761Y-26011380D02*
X120071761Y-25011380D01*
X120452714Y-25011380D01*
X120547952Y-25059000D01*
X120595571Y-25106619D01*
X120643190Y-25201857D01*
X120643190Y-25344714D01*
X120595571Y-25439952D01*
X120547952Y-25487571D01*
X120452714Y-25535190D01*
X120071761Y-25535190D01*
X121024142Y-25725666D02*
X121500333Y-25725666D01*
X120928904Y-26011380D02*
X121262238Y-25011380D01*
X121595571Y-26011380D01*
X121881285Y-25963761D02*
X122024142Y-26011380D01*
X122262238Y-26011380D01*
X122357476Y-25963761D01*
X122405095Y-25916142D01*
X122452714Y-25820904D01*
X122452714Y-25725666D01*
X122405095Y-25630428D01*
X122357476Y-25582809D01*
X122262238Y-25535190D01*
X122071761Y-25487571D01*
X121976523Y-25439952D01*
X121928904Y-25392333D01*
X121881285Y-25297095D01*
X121881285Y-25201857D01*
X121928904Y-25106619D01*
X121976523Y-25059000D01*
X122071761Y-25011380D01*
X122309857Y-25011380D01*
X122452714Y-25059000D01*
X123452714Y-25916142D02*
X123405095Y-25963761D01*
X123262238Y-26011380D01*
X123167000Y-26011380D01*
X123024142Y-25963761D01*
X122928904Y-25868523D01*
X122881285Y-25773285D01*
X122833666Y-25582809D01*
X122833666Y-25439952D01*
X122881285Y-25249476D01*
X122928904Y-25154238D01*
X123024142Y-25059000D01*
X123167000Y-25011380D01*
X123262238Y-25011380D01*
X123405095Y-25059000D01*
X123452714Y-25106619D01*
X123833666Y-25963761D02*
X123976523Y-26011380D01*
X124214619Y-26011380D01*
X124309857Y-25963761D01*
X124357476Y-25916142D01*
X124405095Y-25820904D01*
X124405095Y-25725666D01*
X124357476Y-25630428D01*
X124309857Y-25582809D01*
X124214619Y-25535190D01*
X124024142Y-25487571D01*
X123928904Y-25439952D01*
X123881285Y-25392333D01*
X123833666Y-25297095D01*
X123833666Y-25201857D01*
X123881285Y-25106619D01*
X123928904Y-25059000D01*
X124024142Y-25011380D01*
X124262238Y-25011380D01*
X124405095Y-25059000D01*
X124833666Y-26011380D02*
X124833666Y-25011380D01*
D11*
X128304000Y-35973000D02*
X128304000Y-33687000D01*
X130717000Y-35973000D02*
X128304000Y-35973000D01*
X130717000Y-33687000D02*
X130717000Y-35973000D01*
X128177000Y-36100000D02*
X128177000Y-33560000D01*
X130844000Y-36100000D02*
X128177000Y-36100000D01*
X130844000Y-33560000D02*
X130844000Y-36100000D01*
X128177000Y-33560000D02*
X130844000Y-33560000D01*
X139353000Y-45752000D02*
X139353000Y-33306000D01*
X86267000Y-45752000D02*
X139353000Y-45752000D01*
X86267000Y-33306000D02*
X86267000Y-45752000D01*
D12*
X139829380Y-25120904D02*
X140286523Y-25120904D01*
X140057952Y-25920904D02*
X140057952Y-25120904D01*
X140705571Y-25120904D02*
X140857952Y-25120904D01*
X140934142Y-25159000D01*
X141010333Y-25235190D01*
X141048428Y-25387571D01*
X141048428Y-25654238D01*
X141010333Y-25806619D01*
X140934142Y-25882809D01*
X140857952Y-25920904D01*
X140705571Y-25920904D01*
X140629380Y-25882809D01*
X140553190Y-25806619D01*
X140515095Y-25654238D01*
X140515095Y-25387571D01*
X140553190Y-25235190D01*
X140629380Y-25159000D01*
X140705571Y-25120904D01*
X141391285Y-25920904D02*
X141391285Y-25120904D01*
X141696047Y-25120904D01*
X141772238Y-25159000D01*
X141810333Y-25197095D01*
X141848428Y-25273285D01*
X141848428Y-25387571D01*
X141810333Y-25463761D01*
X141772238Y-25501857D01*
X141696047Y-25539952D01*
X141391285Y-25539952D01*
D13*
X83800000Y-45696000D02*
X141800000Y-45696000D01*
X83800000Y-45696000D02*
G75*
G02X80300000Y-42196000I0J3500000D01*
G01*
X145300000Y-42196000D02*
G75*
G02X141800000Y-45696000I-3500000J0D01*
G01*
X80300000Y-27998000D02*
X80300000Y-42196000D01*
X145300000Y-27998000D02*
X145300000Y-42196000D01*
X83800000Y-24498000D02*
X141800000Y-24498000D01*
X80300000Y-27998000D02*
G75*
G02X83800000Y-24498000I3500000J0D01*
G01*
X141800000Y-24498000D02*
G75*
G02X145300000Y-27998000I0J-3500000D01*
G01*
D11*
%TO.C,J7*%
X144556500Y-31524500D02*
X144556500Y-26324500D01*
X83536500Y-31524500D02*
X144556500Y-31524500D01*
X80936500Y-26324500D02*
X144556500Y-26324500D01*
X83536500Y-31524500D02*
X83536500Y-28924500D01*
X83536500Y-28924500D02*
X80936500Y-28924500D01*
X80936500Y-28924500D02*
X80936500Y-26324500D01*
X82266500Y-31524500D02*
X80936500Y-31524500D01*
X80936500Y-31524500D02*
X80936500Y-30194500D01*
D14*
%TO.C,X7*%
G36*
X140818857Y-32561226D02*
G01*
X140837047Y-32562167D01*
X140848809Y-32563847D01*
X140855152Y-32566361D01*
X140855499Y-32566638D01*
X140863786Y-32571759D01*
X140877632Y-32578427D01*
X140894733Y-32585732D01*
X140912782Y-32592764D01*
X140929474Y-32598614D01*
X140942502Y-32602371D01*
X140948331Y-32603269D01*
X140957637Y-32602457D01*
X140972456Y-32600295D01*
X140990023Y-32597201D01*
X140995233Y-32596190D01*
X141021414Y-32592250D01*
X141044948Y-32591901D01*
X141067964Y-32595542D01*
X141092591Y-32603572D01*
X141120958Y-32616393D01*
X141131685Y-32621838D01*
X141176821Y-32645219D01*
X141227222Y-32642685D01*
X141257857Y-32641936D01*
X141283771Y-32643507D01*
X141306579Y-32648063D01*
X141327897Y-32656273D01*
X141349342Y-32668802D01*
X141372529Y-32686318D01*
X141399074Y-32709488D01*
X141407193Y-32716954D01*
X141422732Y-32730743D01*
X141437100Y-32742392D01*
X141448622Y-32750611D01*
X141455284Y-32754037D01*
X141464988Y-32755107D01*
X141479939Y-32755273D01*
X141496965Y-32754503D01*
X141497574Y-32754457D01*
X141528783Y-32752097D01*
X141565643Y-32778223D01*
X141620212Y-32821622D01*
X141672362Y-32872551D01*
X141721450Y-32930265D01*
X141766833Y-32994016D01*
X141803057Y-33054266D01*
X141814933Y-33076801D01*
X141828078Y-33103552D01*
X141841549Y-33132426D01*
X141854407Y-33161330D01*
X141865711Y-33188171D01*
X141874520Y-33210856D01*
X141878131Y-33221333D01*
X141882644Y-33234525D01*
X141886533Y-33244297D01*
X141888400Y-33247751D01*
X141890826Y-33245156D01*
X141895624Y-33235920D01*
X141902197Y-33221330D01*
X141909948Y-33202675D01*
X141913888Y-33192718D01*
X141951655Y-33105887D01*
X141994880Y-33025191D01*
X142043421Y-32950885D01*
X142064465Y-32922788D01*
X142084884Y-32898516D01*
X142109900Y-32871799D01*
X142137616Y-32844435D01*
X142166137Y-32818225D01*
X142193566Y-32794967D01*
X142218007Y-32776460D01*
X142220534Y-32774721D01*
X142256721Y-32750141D01*
X142333683Y-32755603D01*
X142377946Y-32713507D01*
X142402675Y-32690974D01*
X142423643Y-32674147D01*
X142442204Y-32661986D01*
X142450763Y-32657447D01*
X142461973Y-32652085D01*
X142471289Y-32648300D01*
X142480545Y-32645805D01*
X142491576Y-32644316D01*
X142506215Y-32643547D01*
X142526298Y-32643213D01*
X142543090Y-32643095D01*
X142606863Y-32642708D01*
X142650099Y-32621146D01*
X142677646Y-32608057D01*
X142700422Y-32599154D01*
X142720769Y-32594030D01*
X142741029Y-32592278D01*
X142763544Y-32593492D01*
X142789115Y-32597016D01*
X142808803Y-32600068D01*
X142824158Y-32601729D01*
X142837142Y-32601638D01*
X142849722Y-32599431D01*
X142863860Y-32594746D01*
X142881522Y-32587219D01*
X142904671Y-32576488D01*
X142907535Y-32575145D01*
X142920289Y-32569321D01*
X142930700Y-32565355D01*
X142940907Y-32562889D01*
X142953053Y-32561567D01*
X142969279Y-32561034D01*
X142991726Y-32560933D01*
X142993010Y-32560933D01*
X143013786Y-32561222D01*
X143031379Y-32562011D01*
X143044124Y-32563187D01*
X143050358Y-32564634D01*
X143050656Y-32564907D01*
X143055431Y-32569006D01*
X143065290Y-32575559D01*
X143075247Y-32581496D01*
X143097383Y-32594112D01*
X143141833Y-32583967D01*
X143176391Y-32576701D01*
X143204667Y-32572262D01*
X143228304Y-32570504D01*
X143248948Y-32571277D01*
X143262035Y-32573158D01*
X143290459Y-32580913D01*
X143320191Y-32593160D01*
X143346897Y-32608079D01*
X143349732Y-32609990D01*
X143356402Y-32614222D01*
X143363160Y-32617178D01*
X143371695Y-32619117D01*
X143383693Y-32620299D01*
X143400844Y-32620986D01*
X143423815Y-32621423D01*
X143447994Y-32621921D01*
X143465637Y-32622747D01*
X143478677Y-32624182D01*
X143489045Y-32626505D01*
X143498671Y-32629996D01*
X143506140Y-32633349D01*
X143523171Y-32643003D01*
X143540481Y-32655371D01*
X143548383Y-32662190D01*
X143567103Y-32679998D01*
X143592593Y-32675563D01*
X143608374Y-32673673D01*
X143625988Y-32673488D01*
X143647821Y-32675061D01*
X143666766Y-32677222D01*
X143707517Y-32683750D01*
X143741760Y-32692681D01*
X143771294Y-32704783D01*
X143797919Y-32720827D01*
X143823433Y-32741581D01*
X143828628Y-32746429D01*
X143841013Y-32757956D01*
X143849608Y-32764642D01*
X143856673Y-32767569D01*
X143864471Y-32767817D01*
X143871602Y-32766972D01*
X143888622Y-32766452D01*
X143910843Y-32768279D01*
X143935483Y-32771982D01*
X143959759Y-32777089D01*
X143980886Y-32783131D01*
X143991358Y-32787219D01*
X144021028Y-32805221D01*
X144045086Y-32829052D01*
X144062791Y-32857679D01*
X144073397Y-32890068D01*
X144075527Y-32904250D01*
X144075883Y-32934296D01*
X144071711Y-32965694D01*
X144063628Y-32994575D01*
X144059552Y-33004316D01*
X144050805Y-33022924D01*
X144071288Y-33065631D01*
X144083812Y-33094233D01*
X144091315Y-33118419D01*
X144094074Y-33140375D01*
X144092365Y-33162291D01*
X144086526Y-33186151D01*
X144079525Y-33204541D01*
X144069547Y-33225255D01*
X144058728Y-33243867D01*
X144058519Y-33244186D01*
X144049608Y-33258322D01*
X144042892Y-33270114D01*
X144039500Y-33277539D01*
X144039299Y-33278594D01*
X144040844Y-33285559D01*
X144044695Y-33296557D01*
X144046166Y-33300191D01*
X144049981Y-33312459D01*
X144051353Y-33326786D01*
X144050544Y-33346138D01*
X144050377Y-33348174D01*
X144047116Y-33370648D01*
X144040770Y-33392363D01*
X144030593Y-33414963D01*
X144015842Y-33440091D01*
X143995770Y-33469393D01*
X143994905Y-33470593D01*
X143966245Y-33510302D01*
X143971465Y-33532059D01*
X143974034Y-33545494D01*
X143974289Y-33557524D01*
X143972083Y-33571737D01*
X143969380Y-33583366D01*
X143960960Y-33612158D01*
X143950489Y-33636527D01*
X143936650Y-33658529D01*
X143918126Y-33680221D01*
X143893599Y-33703660D01*
X143890691Y-33706245D01*
X143880759Y-33715375D01*
X143874799Y-33722812D01*
X143871557Y-33731347D01*
X143869783Y-33743769D01*
X143868849Y-33754928D01*
X143866617Y-33773230D01*
X143863158Y-33790648D01*
X143859306Y-33803179D01*
X143843443Y-33832533D01*
X143820851Y-33862743D01*
X143792919Y-33892259D01*
X143761038Y-33919532D01*
X143743758Y-33932041D01*
X143726846Y-33944110D01*
X143715489Y-33954198D01*
X143707917Y-33964565D01*
X143702358Y-33977472D01*
X143698599Y-33989629D01*
X143692700Y-34006984D01*
X143685395Y-34024155D01*
X143680877Y-34032838D01*
X143663470Y-34056063D01*
X143639484Y-34078795D01*
X143610766Y-34099730D01*
X143579165Y-34117568D01*
X143546529Y-34131006D01*
X143537649Y-34133748D01*
X143520588Y-34139017D01*
X143509944Y-34143845D01*
X143503869Y-34149618D01*
X143500515Y-34157727D01*
X143499407Y-34162484D01*
X143489866Y-34188322D01*
X143472698Y-34213018D01*
X143448730Y-34235883D01*
X143418789Y-34256230D01*
X143383702Y-34273369D01*
X143353350Y-34284051D01*
X143337917Y-34288887D01*
X143325708Y-34293156D01*
X143318961Y-34296064D01*
X143318466Y-34296411D01*
X143320743Y-34299584D01*
X143329055Y-34306634D01*
X143342370Y-34316776D01*
X143359654Y-34329222D01*
X143379849Y-34343168D01*
X143420640Y-34371103D01*
X143455277Y-34395532D01*
X143484868Y-34417306D01*
X143510521Y-34437272D01*
X143533343Y-34456280D01*
X143554442Y-34475180D01*
X143564743Y-34484904D01*
X143623178Y-34545836D01*
X143674156Y-34609559D01*
X143718035Y-34676734D01*
X143755178Y-34748021D01*
X143785945Y-34824079D01*
X143810696Y-34905570D01*
X143822829Y-34957438D01*
X143829201Y-34990015D01*
X143834448Y-35022267D01*
X143838771Y-35055979D01*
X143842372Y-35092934D01*
X143845454Y-35134918D01*
X143848021Y-35179822D01*
X143851316Y-35243895D01*
X143870591Y-35277189D01*
X143880252Y-35293101D01*
X143889106Y-35305113D01*
X143899258Y-35315425D01*
X143912812Y-35326238D01*
X143927541Y-35336743D01*
X143953341Y-35356221D01*
X143982278Y-35380553D01*
X144012350Y-35407863D01*
X144041558Y-35436275D01*
X144067900Y-35463912D01*
X144088213Y-35487447D01*
X144126653Y-35538844D01*
X144162714Y-35594371D01*
X144195734Y-35652618D01*
X144225047Y-35712179D01*
X144249992Y-35771646D01*
X144269905Y-35829611D01*
X144284122Y-35884667D01*
X144289452Y-35914409D01*
X144292231Y-35931083D01*
X144295102Y-35944580D01*
X144297565Y-35952654D01*
X144298196Y-35953738D01*
X144299151Y-35958893D01*
X144299953Y-35971224D01*
X144300602Y-35989519D01*
X144301100Y-36012563D01*
X144301447Y-36039144D01*
X144301644Y-36068048D01*
X144301692Y-36098062D01*
X144301591Y-36127971D01*
X144301342Y-36156564D01*
X144300946Y-36182626D01*
X144300404Y-36204944D01*
X144299717Y-36222305D01*
X144298884Y-36233494D01*
X144298021Y-36237281D01*
X144295278Y-36242517D01*
X144292555Y-36253189D01*
X144291456Y-36259756D01*
X144288405Y-36275811D01*
X144283142Y-36297684D01*
X144276290Y-36323213D01*
X144268469Y-36350236D01*
X144260301Y-36376591D01*
X144252407Y-36400118D01*
X144246696Y-36415475D01*
X144215350Y-36485107D01*
X144176926Y-36554684D01*
X144132601Y-36622272D01*
X144083553Y-36685934D01*
X144078906Y-36691454D01*
X144067630Y-36705924D01*
X144059683Y-36718483D01*
X144056278Y-36727177D01*
X144056233Y-36727893D01*
X144055125Y-36735197D01*
X144052055Y-36749194D01*
X144047405Y-36768444D01*
X144041557Y-36791504D01*
X144034893Y-36816934D01*
X144027794Y-36843291D01*
X144020642Y-36869133D01*
X144013819Y-36893019D01*
X144007707Y-36913507D01*
X144003910Y-36925500D01*
X143999265Y-36939193D01*
X143992326Y-36959086D01*
X143983714Y-36983428D01*
X143974047Y-37010469D01*
X143963946Y-37038460D01*
X143961593Y-37044941D01*
X143947445Y-37085081D01*
X143936481Y-37119093D01*
X143928252Y-37148497D01*
X143922308Y-37174814D01*
X143920868Y-37182525D01*
X143901033Y-37270269D01*
X143873092Y-37355796D01*
X143837192Y-37438794D01*
X143793478Y-37518948D01*
X143742094Y-37595943D01*
X143710759Y-37636655D01*
X143691047Y-37659709D01*
X143666567Y-37686266D01*
X143639140Y-37714511D01*
X143610586Y-37742630D01*
X143582728Y-37768809D01*
X143557386Y-37791234D01*
X143546752Y-37800050D01*
X143507397Y-37829844D01*
X143464359Y-37859056D01*
X143419629Y-37886509D01*
X143375201Y-37911026D01*
X143333068Y-37931430D01*
X143304009Y-37943387D01*
X143286462Y-37950800D01*
X143269729Y-37959311D01*
X143257443Y-37967071D01*
X143227333Y-37989335D01*
X143191556Y-38014564D01*
X143151849Y-38041622D01*
X143109951Y-38069370D01*
X143067599Y-38096670D01*
X143026532Y-38122383D01*
X142988486Y-38145373D01*
X142960325Y-38161639D01*
X142931755Y-38177119D01*
X142898678Y-38194096D01*
X142862915Y-38211715D01*
X142826284Y-38229120D01*
X142790603Y-38245455D01*
X142757694Y-38259864D01*
X142729373Y-38271491D01*
X142716469Y-38276370D01*
X142696409Y-38283747D01*
X142681271Y-38289928D01*
X142669009Y-38296183D01*
X142657574Y-38303781D01*
X142644919Y-38313991D01*
X142628996Y-38328083D01*
X142620194Y-38336051D01*
X142565074Y-38384149D01*
X142512444Y-38426019D01*
X142460714Y-38462849D01*
X142408291Y-38495830D01*
X142399392Y-38501026D01*
X142356685Y-38525700D01*
X141890951Y-38525690D01*
X141425216Y-38525680D01*
X141388073Y-38504846D01*
X141341847Y-38477523D01*
X141298090Y-38448581D01*
X141254943Y-38416649D01*
X141210541Y-38380355D01*
X141167687Y-38342572D01*
X141149792Y-38326888D01*
X141132503Y-38312727D01*
X141117494Y-38301393D01*
X141106437Y-38294191D01*
X141104107Y-38293015D01*
X141092842Y-38288162D01*
X141076229Y-38281179D01*
X141056765Y-38273111D01*
X141042099Y-38267097D01*
X140949809Y-38226912D01*
X140860022Y-38182526D01*
X140771254Y-38133105D01*
X140682017Y-38077814D01*
X140657665Y-38061259D01*
X141229202Y-38061259D01*
X141234448Y-38081747D01*
X141241298Y-38096456D01*
X141262202Y-38129549D01*
X141290382Y-38163902D01*
X141324882Y-38198788D01*
X141364747Y-38233478D01*
X141409022Y-38267245D01*
X141456752Y-38299361D01*
X141506983Y-38329099D01*
X141558760Y-38355731D01*
X141611127Y-38378528D01*
X141611739Y-38378769D01*
X141664688Y-38397989D01*
X141714531Y-38412436D01*
X141763784Y-38422581D01*
X141814965Y-38428898D01*
X141870592Y-38431861D01*
X141896147Y-38432220D01*
X141926958Y-38432207D01*
X141951467Y-38431763D01*
X141971837Y-38430726D01*
X141990227Y-38428929D01*
X142008800Y-38426210D01*
X142029716Y-38422404D01*
X142032495Y-38421865D01*
X142110329Y-38402647D01*
X142187044Y-38375821D01*
X142261541Y-38341988D01*
X142332717Y-38301748D01*
X142399473Y-38255702D01*
X142460707Y-38204450D01*
X142497343Y-38168296D01*
X142526005Y-38135908D01*
X142547996Y-38106092D01*
X142564171Y-38077547D01*
X142574772Y-38050927D01*
X142579688Y-38034388D01*
X142581775Y-38022796D01*
X142581319Y-38013225D01*
X142579285Y-38004950D01*
X142567492Y-37979877D01*
X142547503Y-37955567D01*
X142519564Y-37932168D01*
X142483925Y-37909824D01*
X142440831Y-37888682D01*
X142390532Y-37868888D01*
X142333273Y-37850586D01*
X142303146Y-37842311D01*
X142256598Y-37830818D01*
X142212623Y-37821514D01*
X142169668Y-37814242D01*
X142126178Y-37808846D01*
X142080598Y-37805168D01*
X142031374Y-37803054D01*
X141976950Y-37802346D01*
X141915772Y-37802887D01*
X141912050Y-37802953D01*
X141873078Y-37803750D01*
X141840894Y-37804679D01*
X141813819Y-37805854D01*
X141790176Y-37807393D01*
X141768285Y-37809410D01*
X141746467Y-37812021D01*
X141723045Y-37815342D01*
X141715304Y-37816518D01*
X141691270Y-37820264D01*
X141670244Y-37823645D01*
X141653612Y-37826432D01*
X141642760Y-37828390D01*
X141639104Y-37829240D01*
X141634433Y-37830607D01*
X141622934Y-37833517D01*
X141606029Y-37837623D01*
X141585144Y-37842578D01*
X141569150Y-37846311D01*
X141508551Y-37861983D01*
X141452471Y-37879733D01*
X141401454Y-37899276D01*
X141356047Y-37920326D01*
X141316793Y-37942597D01*
X141284238Y-37965803D01*
X141258926Y-37989659D01*
X141241403Y-38013878D01*
X141238368Y-38019816D01*
X141230543Y-38041504D01*
X141229202Y-38061259D01*
X140657665Y-38061259D01*
X140590827Y-38015822D01*
X140578591Y-38007113D01*
X140553688Y-37989318D01*
X140534413Y-37975679D01*
X140519508Y-37965428D01*
X140507713Y-37957799D01*
X140497769Y-37952024D01*
X140488416Y-37947336D01*
X140478394Y-37942967D01*
X140466445Y-37938151D01*
X140463400Y-37936943D01*
X140396898Y-37906521D01*
X140330484Y-37868260D01*
X140264942Y-37822758D01*
X140201055Y-37770615D01*
X140139609Y-37712429D01*
X140081386Y-37648799D01*
X140072974Y-37638816D01*
X140025913Y-37577202D01*
X139983160Y-37510855D01*
X139945348Y-37441139D01*
X139913107Y-37369417D01*
X139887071Y-37297054D01*
X139867871Y-37225413D01*
X139858924Y-37177004D01*
X139853626Y-37148727D01*
X139845710Y-37119134D01*
X139834463Y-37085683D01*
X139829562Y-37072474D01*
X139813266Y-37028323D01*
X139799766Y-36990037D01*
X140068934Y-36990037D01*
X140069004Y-37014900D01*
X140069942Y-37036591D01*
X140071890Y-37057750D01*
X140074990Y-37081014D01*
X140076774Y-37092716D01*
X140087013Y-37146310D01*
X140100994Y-37201542D01*
X140118152Y-37256990D01*
X140137923Y-37311229D01*
X140159746Y-37362837D01*
X140183056Y-37410391D01*
X140207290Y-37452467D01*
X140231884Y-37487643D01*
X140234281Y-37490650D01*
X140253397Y-37513194D01*
X140276300Y-37538391D01*
X140301541Y-37564800D01*
X140327670Y-37590978D01*
X140353237Y-37615485D01*
X140376793Y-37636878D01*
X140396887Y-37653716D01*
X140402866Y-37658290D01*
X140471719Y-37704771D01*
X140542040Y-37743531D01*
X140613360Y-37774350D01*
X140685206Y-37797007D01*
X140712245Y-37803366D01*
X140730441Y-37807163D01*
X140745232Y-37809884D01*
X140758607Y-37811673D01*
X140772553Y-37812676D01*
X140789058Y-37813037D01*
X140810110Y-37812900D01*
X140836783Y-37812427D01*
X140865917Y-37811614D01*
X140888579Y-37810325D01*
X140906759Y-37808352D01*
X140922445Y-37805484D01*
X140936236Y-37801917D01*
X140970637Y-37789762D01*
X141000230Y-37774861D01*
X141023562Y-37758010D01*
X141032360Y-37749180D01*
X141049936Y-37724174D01*
X141065387Y-37692493D01*
X141077988Y-37655811D01*
X141084689Y-37628233D01*
X141088604Y-37607485D01*
X141090999Y-37589717D01*
X141092053Y-37572027D01*
X141091947Y-37551515D01*
X141090962Y-37527304D01*
X141089617Y-37505360D01*
X141087940Y-37485685D01*
X141086130Y-37470240D01*
X141084387Y-37460988D01*
X141084134Y-37460231D01*
X141081650Y-37451327D01*
X141078478Y-37436662D01*
X141075169Y-37418856D01*
X141073952Y-37411583D01*
X141067142Y-37377015D01*
X141057398Y-37340305D01*
X141044236Y-37299841D01*
X141027170Y-37254011D01*
X141024504Y-37247233D01*
X140993393Y-37176343D01*
X140958082Y-37111095D01*
X140917492Y-37049848D01*
X140870546Y-36990961D01*
X140839207Y-36957250D01*
X141211470Y-36957250D01*
X141211807Y-36986440D01*
X141213035Y-37011233D01*
X141215503Y-37034165D01*
X141219560Y-37057775D01*
X141225553Y-37084599D01*
X141232968Y-37113883D01*
X141254314Y-37179060D01*
X141283185Y-37241067D01*
X141319095Y-37299474D01*
X141361557Y-37353847D01*
X141410084Y-37403756D01*
X141464190Y-37448768D01*
X141523388Y-37488451D01*
X141587192Y-37522375D01*
X141655115Y-37550107D01*
X141726670Y-37571215D01*
X141755545Y-37577576D01*
X141782996Y-37582248D01*
X141814313Y-37586267D01*
X141846978Y-37589419D01*
X141878473Y-37591495D01*
X141906278Y-37592281D01*
X141924750Y-37591803D01*
X141939384Y-37590825D01*
X141958668Y-37589507D01*
X141961102Y-37589338D01*
X142659486Y-37589338D01*
X142659910Y-37606880D01*
X142660996Y-37621212D01*
X142662854Y-37634083D01*
X142665599Y-37647244D01*
X142667754Y-37656156D01*
X142680211Y-37697658D01*
X142694891Y-37731071D01*
X142711836Y-37756485D01*
X142717907Y-37763107D01*
X142739623Y-37780568D01*
X142767671Y-37796656D01*
X142799930Y-37810456D01*
X142834277Y-37821052D01*
X142866666Y-37827285D01*
X142889505Y-37829335D01*
X142917705Y-37830481D01*
X142948362Y-37830732D01*
X142978574Y-37830095D01*
X143005440Y-37828578D01*
X143021622Y-37826870D01*
X143039578Y-37823705D01*
X143062318Y-37818736D01*
X143086557Y-37812721D01*
X143103547Y-37808033D01*
X143165878Y-37787811D01*
X143222898Y-37764612D01*
X143276029Y-37737566D01*
X143326696Y-37705804D01*
X143376320Y-37668457D01*
X143426326Y-37624654D01*
X143464476Y-37587509D01*
X143510944Y-37538781D01*
X143550756Y-37493003D01*
X143584646Y-37448985D01*
X143613343Y-37405536D01*
X143637577Y-37361466D01*
X143658081Y-37315585D01*
X143675585Y-37266702D01*
X143688432Y-37222717D01*
X143700512Y-37166584D01*
X143708470Y-37105395D01*
X143712184Y-37041554D01*
X143711533Y-36977468D01*
X143706393Y-36915542D01*
X143704645Y-36902422D01*
X143694114Y-36839662D01*
X143681462Y-36784365D01*
X143666436Y-36735732D01*
X143648778Y-36692968D01*
X143628233Y-36655275D01*
X143622659Y-36646615D01*
X143601564Y-36620067D01*
X143576858Y-36599156D01*
X143547413Y-36583233D01*
X143512103Y-36571651D01*
X143481294Y-36565456D01*
X143455636Y-36564128D01*
X143424670Y-36567013D01*
X143390158Y-36573666D01*
X143353864Y-36583643D01*
X143317551Y-36596500D01*
X143282982Y-36611793D01*
X143269389Y-36618845D01*
X143208358Y-36655750D01*
X143145575Y-36700868D01*
X143081105Y-36754141D01*
X143015014Y-36815514D01*
X142947371Y-36884929D01*
X142918005Y-36917033D01*
X142869213Y-36976787D01*
X142823753Y-37043386D01*
X142782206Y-37115669D01*
X142745152Y-37192474D01*
X142713170Y-37272640D01*
X142686840Y-37355005D01*
X142673654Y-37406468D01*
X142669271Y-37426483D01*
X142666028Y-37444562D01*
X142663709Y-37462811D01*
X142662097Y-37483332D01*
X142660977Y-37508231D01*
X142660176Y-37537623D01*
X142659612Y-37566836D01*
X142659486Y-37589338D01*
X141961102Y-37589338D01*
X141978808Y-37588109D01*
X141981900Y-37587892D01*
X142041999Y-37580187D01*
X142104378Y-37565699D01*
X142167240Y-37545066D01*
X142228790Y-37518928D01*
X142287232Y-37487922D01*
X142318830Y-37468072D01*
X142378767Y-37423175D01*
X142431957Y-37373215D01*
X142478316Y-37318302D01*
X142517763Y-37258543D01*
X142550213Y-37194048D01*
X142572055Y-37136132D01*
X142584798Y-37092628D01*
X142593300Y-37052523D01*
X142598018Y-37012561D01*
X142599412Y-36969484D01*
X142598983Y-36945011D01*
X142592973Y-36873237D01*
X142579427Y-36805093D01*
X142558227Y-36740312D01*
X142529255Y-36678624D01*
X142492392Y-36619760D01*
X142447521Y-36563451D01*
X142417920Y-36531996D01*
X142362057Y-36481809D01*
X142301315Y-36438242D01*
X142236320Y-36401480D01*
X142167694Y-36371708D01*
X142096064Y-36349111D01*
X142022052Y-36333875D01*
X141946284Y-36326184D01*
X141869383Y-36326224D01*
X141791974Y-36334180D01*
X141766000Y-36338655D01*
X141692017Y-36356499D01*
X141621877Y-36380953D01*
X141555957Y-36411596D01*
X141494631Y-36448009D01*
X141438276Y-36489773D01*
X141387269Y-36536468D01*
X141341985Y-36587675D01*
X141302801Y-36642973D01*
X141270092Y-36701943D01*
X141244236Y-36764166D01*
X141225607Y-36829222D01*
X141214583Y-36896691D01*
X141211470Y-36957250D01*
X140839207Y-36957250D01*
X140820735Y-36937381D01*
X140762458Y-36881888D01*
X140703571Y-36832179D01*
X140644510Y-36788452D01*
X140585714Y-36750909D01*
X140527620Y-36719750D01*
X140470664Y-36695174D01*
X140415286Y-36677382D01*
X140361921Y-36666574D01*
X140311008Y-36662950D01*
X140262983Y-36666710D01*
X140239665Y-36671555D01*
X140205161Y-36682044D01*
X140177453Y-36694711D01*
X140154915Y-36710858D01*
X140135921Y-36731782D01*
X140118846Y-36758783D01*
X140110664Y-36774673D01*
X140097469Y-36803227D01*
X140087466Y-36829011D01*
X140080186Y-36854133D01*
X140075161Y-36880702D01*
X140071921Y-36910829D01*
X140069997Y-36946621D01*
X140069589Y-36959366D01*
X140068934Y-36990037D01*
X139799766Y-36990037D01*
X139797164Y-36982658D01*
X139781732Y-36936960D01*
X139767444Y-36892712D01*
X139754775Y-36851395D01*
X139744199Y-36814492D01*
X139736193Y-36783485D01*
X139734288Y-36775216D01*
X139727787Y-36748063D01*
X139721633Y-36726521D01*
X139716139Y-36711598D01*
X139712647Y-36705366D01*
X139695081Y-36682976D01*
X139675785Y-36657542D01*
X139656146Y-36630965D01*
X139637545Y-36605142D01*
X139621369Y-36581972D01*
X139609001Y-36563354D01*
X139608225Y-36562130D01*
X139581202Y-36515751D01*
X139556088Y-36465745D01*
X139533615Y-36413977D01*
X139514514Y-36362308D01*
X139499520Y-36312603D01*
X139489364Y-36266725D01*
X139487536Y-36255166D01*
X139484339Y-36237408D01*
X139480744Y-36225123D01*
X139477186Y-36219796D01*
X139477166Y-36219789D01*
X139475545Y-36215113D01*
X139474166Y-36203286D01*
X139473036Y-36185605D01*
X139472156Y-36163367D01*
X139471533Y-36137868D01*
X139471169Y-36110406D01*
X139471070Y-36082277D01*
X139471228Y-36056853D01*
X139713266Y-36056853D01*
X139713705Y-36085061D01*
X139713994Y-36097883D01*
X139714858Y-36128906D01*
X139715937Y-36153548D01*
X139717452Y-36173892D01*
X139719623Y-36192023D01*
X139722670Y-36210025D01*
X139726815Y-36229983D01*
X139728993Y-36239699D01*
X139748086Y-36312227D01*
X139770928Y-36377710D01*
X139797868Y-36436854D01*
X139829253Y-36490370D01*
X139865432Y-36538965D01*
X139889534Y-36566000D01*
X139912899Y-36589127D01*
X139932235Y-36605102D01*
X139947768Y-36614094D01*
X139957550Y-36616370D01*
X139964819Y-36615446D01*
X139976603Y-36613007D01*
X139981856Y-36611739D01*
X140002901Y-36602435D01*
X140024494Y-36585312D01*
X140046233Y-36560966D01*
X140067721Y-36529990D01*
X140088555Y-36492980D01*
X140108337Y-36450532D01*
X140126667Y-36403238D01*
X140131443Y-36389331D01*
X140154773Y-36314137D01*
X140175307Y-36236171D01*
X140193373Y-36153975D01*
X140209296Y-36066092D01*
X140220819Y-35989933D01*
X140226910Y-35936004D01*
X140230920Y-35877928D01*
X140231726Y-35852349D01*
X140447695Y-35852349D01*
X140447755Y-35882228D01*
X140448192Y-35905738D01*
X140449182Y-35924974D01*
X140450902Y-35942031D01*
X140453529Y-35959004D01*
X140457239Y-35977988D01*
X140458961Y-35986129D01*
X140476135Y-36052753D01*
X140497925Y-36112955D01*
X140524850Y-36167719D01*
X140557425Y-36218033D01*
X140596166Y-36264879D01*
X140615541Y-36284887D01*
X140656569Y-36322096D01*
X140698756Y-36353437D01*
X140743577Y-36379692D01*
X140792503Y-36401639D01*
X140847007Y-36420060D01*
X140893933Y-36432387D01*
X140911694Y-36436383D01*
X140926858Y-36439146D01*
X140941587Y-36440840D01*
X140958044Y-36441629D01*
X140978391Y-36441677D01*
X141004790Y-36441148D01*
X141008233Y-36441059D01*
X141042947Y-36439726D01*
X141072087Y-36437525D01*
X141098528Y-36434160D01*
X141125144Y-36429332D01*
X141129177Y-36428495D01*
X141207193Y-36407839D01*
X141281829Y-36379457D01*
X141352905Y-36343459D01*
X141420244Y-36299956D01*
X141483667Y-36249058D01*
X141542995Y-36190877D01*
X141579706Y-36148683D01*
X141622824Y-36090512D01*
X141660923Y-36028002D01*
X141693643Y-35962234D01*
X141720625Y-35894289D01*
X141741509Y-35825246D01*
X141755935Y-35756188D01*
X141763543Y-35688193D01*
X141763834Y-35643606D01*
X142046189Y-35643606D01*
X142053712Y-35718517D01*
X142069381Y-35793893D01*
X142093160Y-35869424D01*
X142125012Y-35944799D01*
X142136869Y-35968766D01*
X142179186Y-36042444D01*
X142227623Y-36110329D01*
X142282033Y-36172274D01*
X142342267Y-36228131D01*
X142408178Y-36277753D01*
X142479615Y-36320993D01*
X142504716Y-36334005D01*
X142570452Y-36362742D01*
X142638109Y-36384695D01*
X142706571Y-36399667D01*
X142774722Y-36407462D01*
X142841443Y-36407881D01*
X142893631Y-36402685D01*
X142925331Y-36396441D01*
X142960858Y-36387022D01*
X142997368Y-36375361D01*
X143032021Y-36362387D01*
X143061972Y-36349032D01*
X143069866Y-36344956D01*
X143123605Y-36311513D01*
X143174055Y-36271218D01*
X143220043Y-36225277D01*
X143260399Y-36174896D01*
X143293950Y-36121280D01*
X143301718Y-36106349D01*
X143309877Y-36087699D01*
X143319106Y-36062936D01*
X143328743Y-36034233D01*
X143338127Y-36003765D01*
X143346598Y-35973707D01*
X143353493Y-35946232D01*
X143358151Y-35923516D01*
X143359012Y-35917966D01*
X143361271Y-35894973D01*
X143362718Y-35866031D01*
X143363359Y-35833617D01*
X143363199Y-35800210D01*
X143362242Y-35768288D01*
X143360492Y-35740327D01*
X143359450Y-35730741D01*
X143551250Y-35730741D01*
X143551331Y-35768519D01*
X143555936Y-35888651D01*
X143567078Y-36004510D01*
X143584980Y-36117461D01*
X143609862Y-36228869D01*
X143641946Y-36340100D01*
X143646023Y-36352685D01*
X143659060Y-36389573D01*
X143673887Y-36426586D01*
X143689705Y-36462012D01*
X143705711Y-36494134D01*
X143721104Y-36521238D01*
X143733204Y-36539180D01*
X143753248Y-36562099D01*
X143774423Y-36579851D01*
X143795540Y-36591716D01*
X143815410Y-36596974D01*
X143827633Y-36596401D01*
X143838971Y-36593080D01*
X143851738Y-36588043D01*
X143852124Y-36587867D01*
X143865121Y-36579232D01*
X143881198Y-36564355D01*
X143899424Y-36544454D01*
X143918870Y-36520746D01*
X143938608Y-36494448D01*
X143957708Y-36466777D01*
X143975241Y-36438949D01*
X143990278Y-36412183D01*
X143997677Y-36397222D01*
X144028411Y-36321373D01*
X144050816Y-36244039D01*
X144064884Y-36165249D01*
X144069016Y-36122040D01*
X144070406Y-36042072D01*
X144063821Y-35964188D01*
X144049403Y-35888773D01*
X144027292Y-35816212D01*
X143997630Y-35746888D01*
X143960556Y-35681187D01*
X143916212Y-35619492D01*
X143864739Y-35562188D01*
X143863303Y-35560756D01*
X143836052Y-35535165D01*
X143806889Y-35510423D01*
X143777219Y-35487539D01*
X143748448Y-35467526D01*
X143721982Y-35451394D01*
X143699227Y-35440154D01*
X143691708Y-35437331D01*
X143679685Y-35433615D01*
X143671167Y-35432607D01*
X143662685Y-35434638D01*
X143650772Y-35440038D01*
X143647720Y-35441529D01*
X143629936Y-35451830D01*
X143615309Y-35464372D01*
X143602998Y-35480447D01*
X143592158Y-35501346D01*
X143581946Y-35528361D01*
X143573823Y-35554684D01*
X143565517Y-35586592D01*
X143559294Y-35618373D01*
X143554966Y-35651806D01*
X143552347Y-35688669D01*
X143551250Y-35730741D01*
X143359450Y-35730741D01*
X143358633Y-35723233D01*
X143345329Y-35654225D01*
X143324868Y-35583824D01*
X143297929Y-35513853D01*
X143265186Y-35446136D01*
X143239003Y-35400774D01*
X143196704Y-35339638D01*
X143147462Y-35280913D01*
X143092762Y-35226213D01*
X143034092Y-35177147D01*
X143029858Y-35173953D01*
X142996958Y-35151091D01*
X142959927Y-35128394D01*
X142920659Y-35106818D01*
X142881046Y-35087317D01*
X142842982Y-35070844D01*
X142808360Y-35058354D01*
X142790466Y-35053278D01*
X142758474Y-35045365D01*
X142733142Y-35039213D01*
X142712897Y-35034603D01*
X142696166Y-35031319D01*
X142681377Y-35029143D01*
X142666957Y-35027856D01*
X142651333Y-35027240D01*
X142632933Y-35027079D01*
X142610184Y-35027155D01*
X142602083Y-35027192D01*
X142573690Y-35027371D01*
X142551761Y-35027784D01*
X142534297Y-35028658D01*
X142519294Y-35030219D01*
X142504751Y-35032692D01*
X142488667Y-35036306D01*
X142469041Y-35041285D01*
X142462612Y-35042962D01*
X142400211Y-35062600D01*
X142343613Y-35087632D01*
X142291577Y-35118753D01*
X142242865Y-35156657D01*
X142217351Y-35180342D01*
X142176631Y-35224341D01*
X142142391Y-35270400D01*
X142113726Y-35320049D01*
X142089733Y-35374818D01*
X142072867Y-35424768D01*
X142055730Y-35496421D01*
X142046850Y-35569470D01*
X142046189Y-35643606D01*
X141763834Y-35643606D01*
X141763973Y-35622343D01*
X141762374Y-35600139D01*
X141755818Y-35544388D01*
X141746954Y-35494864D01*
X141735259Y-35449514D01*
X141720208Y-35406287D01*
X141702417Y-35365516D01*
X141670992Y-35309150D01*
X141632622Y-35256780D01*
X141588144Y-35209149D01*
X141538396Y-35167000D01*
X141484213Y-35131074D01*
X141426434Y-35102115D01*
X141389697Y-35088160D01*
X141375482Y-35084070D01*
X141356296Y-35079496D01*
X141333635Y-35074694D01*
X141308995Y-35069923D01*
X141283869Y-35065440D01*
X141259754Y-35061502D01*
X141238144Y-35058367D01*
X141220535Y-35056291D01*
X141208422Y-35055532D01*
X141203544Y-35056126D01*
X141198400Y-35057204D01*
X141186580Y-35058790D01*
X141169840Y-35060671D01*
X141149939Y-35062633D01*
X141149920Y-35062635D01*
X141074072Y-35073851D01*
X141000232Y-35093214D01*
X140928696Y-35120579D01*
X140859759Y-35155800D01*
X140793717Y-35198734D01*
X140730868Y-35249235D01*
X140690194Y-35287733D01*
X140632790Y-35351302D01*
X140582967Y-35418596D01*
X140540624Y-35489802D01*
X140505660Y-35565106D01*
X140477973Y-35644695D01*
X140461488Y-35709295D01*
X140456595Y-35732380D01*
X140453027Y-35751379D01*
X140450575Y-35768486D01*
X140449025Y-35785892D01*
X140448167Y-35805791D01*
X140447789Y-35830375D01*
X140447695Y-35852349D01*
X140231726Y-35852349D01*
X140232799Y-35818342D01*
X140232496Y-35759881D01*
X140229958Y-35705181D01*
X140227020Y-35672292D01*
X140219752Y-35619897D01*
X140210278Y-35575192D01*
X140198425Y-35537648D01*
X140184022Y-35506736D01*
X140166896Y-35481927D01*
X140163877Y-35478472D01*
X140145383Y-35462418D01*
X140125432Y-35454001D01*
X140103446Y-35453203D01*
X140078850Y-35460008D01*
X140051067Y-35474401D01*
X140049657Y-35475275D01*
X139992505Y-35514780D01*
X139939210Y-35559358D01*
X139890783Y-35607942D01*
X139848232Y-35659465D01*
X139812570Y-35712860D01*
X139795997Y-35743157D01*
X139761944Y-35819611D01*
X139736288Y-35896931D01*
X139721140Y-35963060D01*
X139717878Y-35982026D01*
X139715563Y-35998936D01*
X139714092Y-36015743D01*
X139713361Y-36034397D01*
X139713266Y-36056853D01*
X139471228Y-36056853D01*
X139471241Y-36054779D01*
X139471684Y-36029207D01*
X139472404Y-36006860D01*
X139473407Y-35989034D01*
X139474695Y-35977025D01*
X139476274Y-35972131D01*
X139476341Y-35972102D01*
X139478842Y-35967592D01*
X139482463Y-35956274D01*
X139486790Y-35939669D01*
X139491405Y-35919293D01*
X139493254Y-35910354D01*
X139508775Y-35844591D01*
X139528463Y-35782308D01*
X139553386Y-35720398D01*
X139572950Y-35678783D01*
X139614482Y-35602490D01*
X139660710Y-35531919D01*
X139711219Y-35467574D01*
X139765596Y-35409962D01*
X139823428Y-35359588D01*
X139850416Y-35339454D01*
X139869199Y-35325825D01*
X139882601Y-35315035D01*
X139892355Y-35305335D01*
X139900196Y-35294975D01*
X139907859Y-35282206D01*
X139908733Y-35280637D01*
X139916663Y-35265633D01*
X139922899Y-35252514D01*
X139926251Y-35243811D01*
X139926429Y-35243055D01*
X139929081Y-35226529D01*
X139931985Y-35203423D01*
X139934951Y-35175613D01*
X139937607Y-35146901D01*
X140191200Y-35146901D01*
X140191295Y-35171615D01*
X140191703Y-35189374D01*
X140192600Y-35201689D01*
X140194166Y-35210069D01*
X140196579Y-35216026D01*
X140199973Y-35221012D01*
X140210626Y-35229334D01*
X140225598Y-35232107D01*
X140245603Y-35229340D01*
X140269488Y-35221747D01*
X140294476Y-35211555D01*
X140320608Y-35199242D01*
X140348660Y-35184336D01*
X140379407Y-35166368D01*
X140413625Y-35144867D01*
X140452089Y-35119364D01*
X140495575Y-35089387D01*
X140542047Y-35056479D01*
X140590448Y-35020746D01*
X140642305Y-34980444D01*
X140696477Y-34936579D01*
X140751826Y-34890156D01*
X140807213Y-34842181D01*
X140861497Y-34793660D01*
X140913541Y-34745599D01*
X140962205Y-34699003D01*
X141006349Y-34654879D01*
X141021756Y-34638606D01*
X141276260Y-34638606D01*
X141277674Y-34671835D01*
X141286726Y-34706235D01*
X141303188Y-34741163D01*
X141326826Y-34775973D01*
X141354525Y-34807153D01*
X141397739Y-34844961D01*
X141448122Y-34878911D01*
X141505214Y-34908830D01*
X141568561Y-34934542D01*
X141637704Y-34955871D01*
X141712188Y-34972643D01*
X141791555Y-34984683D01*
X141827383Y-34988389D01*
X141850891Y-34990369D01*
X141871501Y-34991736D01*
X141890873Y-34992478D01*
X141910669Y-34992580D01*
X141932550Y-34992030D01*
X141958178Y-34990814D01*
X141989215Y-34988919D01*
X142020000Y-34986840D01*
X142087666Y-34979952D01*
X142154785Y-34968887D01*
X142219519Y-34954073D01*
X142280031Y-34935938D01*
X142334484Y-34914909D01*
X142340488Y-34912228D01*
X142381458Y-34890954D01*
X142419440Y-34866003D01*
X142453383Y-34838341D01*
X142482236Y-34808936D01*
X142504949Y-34778756D01*
X142520471Y-34748768D01*
X142521828Y-34745152D01*
X142531903Y-34705990D01*
X142533852Y-34667086D01*
X142527621Y-34628288D01*
X142513156Y-34589446D01*
X142490402Y-34550410D01*
X142459306Y-34511029D01*
X142425380Y-34476327D01*
X142389937Y-34446082D01*
X142635675Y-34446082D01*
X142638039Y-34457363D01*
X142638174Y-34457866D01*
X142646701Y-34479538D01*
X142661665Y-34505795D01*
X142682675Y-34536209D01*
X142709343Y-34570355D01*
X142741280Y-34607805D01*
X142778097Y-34648132D01*
X142819405Y-34690911D01*
X142864816Y-34735715D01*
X142913940Y-34782116D01*
X142966388Y-34829689D01*
X143019066Y-34875690D01*
X143089009Y-34934678D01*
X143156110Y-34989296D01*
X143220043Y-35039315D01*
X143280479Y-35084506D01*
X143337090Y-35124640D01*
X143389549Y-35159488D01*
X143437528Y-35188821D01*
X143480699Y-35212411D01*
X143518733Y-35230029D01*
X143536352Y-35236747D01*
X143560723Y-35244423D01*
X143579122Y-35248126D01*
X143593011Y-35247944D01*
X143603848Y-35243960D01*
X143608089Y-35240975D01*
X143611892Y-35237577D01*
X143614564Y-35233644D01*
X143616283Y-35227767D01*
X143617227Y-35218535D01*
X143617576Y-35204540D01*
X143617507Y-35184372D01*
X143617331Y-35167950D01*
X143616027Y-35123197D01*
X143612960Y-35082460D01*
X143607748Y-35043491D01*
X143600008Y-35004042D01*
X143589357Y-34961868D01*
X143575413Y-34914721D01*
X143572734Y-34906200D01*
X143546120Y-34835577D01*
X143512268Y-34769166D01*
X143471034Y-34706736D01*
X143422273Y-34648059D01*
X143387376Y-34612681D01*
X143338677Y-34571295D01*
X143283446Y-34533141D01*
X143223261Y-34499020D01*
X143159698Y-34469735D01*
X143094338Y-34446086D01*
X143028756Y-34428876D01*
X143023507Y-34427794D01*
X142962688Y-34417977D01*
X142897153Y-34411817D01*
X142829880Y-34409435D01*
X142763845Y-34410949D01*
X142712149Y-34415248D01*
X142683850Y-34418743D01*
X142663041Y-34422164D01*
X142648772Y-34426060D01*
X142640089Y-34430979D01*
X142636041Y-34437470D01*
X142635675Y-34446082D01*
X142389937Y-34446082D01*
X142378771Y-34436554D01*
X142327662Y-34400913D01*
X142271244Y-34368973D01*
X142208710Y-34340302D01*
X142139249Y-34314469D01*
X142097139Y-34301115D01*
X142064960Y-34291924D01*
X142036475Y-34285001D01*
X142009447Y-34280040D01*
X141981637Y-34276733D01*
X141950809Y-34274775D01*
X141914726Y-34273857D01*
X141897233Y-34273708D01*
X141867783Y-34273686D01*
X141844537Y-34274081D01*
X141825232Y-34275089D01*
X141807607Y-34276901D01*
X141789403Y-34279712D01*
X141768357Y-34283715D01*
X141759650Y-34285485D01*
X141696596Y-34300342D01*
X141639434Y-34318132D01*
X141585821Y-34339820D01*
X141533413Y-34366370D01*
X141479868Y-34398745D01*
X141472231Y-34403742D01*
X141423164Y-34438671D01*
X141380275Y-34474496D01*
X141344023Y-34510724D01*
X141314868Y-34546861D01*
X141293270Y-34582413D01*
X141282718Y-34607191D01*
X141276260Y-34638606D01*
X141021756Y-34638606D01*
X141044834Y-34614231D01*
X141052266Y-34606036D01*
X141079984Y-34574720D01*
X141102525Y-34548060D01*
X141120804Y-34524832D01*
X141135736Y-34503813D01*
X141148236Y-34483777D01*
X141159218Y-34463501D01*
X141160133Y-34461682D01*
X141168119Y-34444919D01*
X141172757Y-34431876D01*
X141173338Y-34421949D01*
X141169150Y-34414534D01*
X141159483Y-34409025D01*
X141143626Y-34404818D01*
X141120869Y-34401308D01*
X141090501Y-34397891D01*
X141084433Y-34397265D01*
X141001916Y-34392287D01*
X140920134Y-34394137D01*
X140839949Y-34402629D01*
X140762220Y-34417581D01*
X140687808Y-34438806D01*
X140617573Y-34466120D01*
X140552377Y-34499339D01*
X140522194Y-34517936D01*
X140459128Y-34563705D01*
X140403027Y-34613859D01*
X140353659Y-34668729D01*
X140310787Y-34728649D01*
X140274177Y-34793948D01*
X140243596Y-34864959D01*
X140218807Y-34942013D01*
X140216796Y-34949466D01*
X140203562Y-35007034D01*
X140195321Y-35062638D01*
X140191563Y-35120200D01*
X140191200Y-35146901D01*
X139937607Y-35146901D01*
X139937786Y-35144974D01*
X139940299Y-35113380D01*
X139941584Y-35094583D01*
X139943887Y-35061077D01*
X139946271Y-35033640D01*
X139949073Y-35009878D01*
X139952630Y-34987397D01*
X139957280Y-34963802D01*
X139963359Y-34936701D01*
X139964553Y-34931600D01*
X139987501Y-34848525D01*
X140016170Y-34770899D01*
X140050901Y-34698240D01*
X140092033Y-34630066D01*
X140139908Y-34565895D01*
X140194866Y-34505244D01*
X140257247Y-34447632D01*
X140327392Y-34392576D01*
X140362649Y-34367778D01*
X140383098Y-34354065D01*
X140403998Y-34340391D01*
X140422851Y-34328372D01*
X140436733Y-34319872D01*
X140450204Y-34311874D01*
X140460605Y-34305591D01*
X140465978Y-34302208D01*
X140466244Y-34302012D01*
X140465547Y-34299003D01*
X140457622Y-34294472D01*
X140442123Y-34288258D01*
X140421916Y-34281259D01*
X140381972Y-34266160D01*
X140349459Y-34249896D01*
X140331198Y-34237791D01*
X140319888Y-34226906D01*
X140307521Y-34211510D01*
X140295902Y-34194264D01*
X140286833Y-34177828D01*
X140282267Y-34165599D01*
X140279125Y-34156370D01*
X140273324Y-34148982D01*
X140263391Y-34142389D01*
X140247848Y-34135544D01*
X140231416Y-34129544D01*
X140187808Y-34111158D01*
X140151543Y-34088893D01*
X140122280Y-34062430D01*
X140099681Y-34031452D01*
X140083407Y-33995640D01*
X140081084Y-33988529D01*
X140076059Y-33973591D01*
X140071250Y-33961506D01*
X140067805Y-33955060D01*
X140062396Y-33950223D01*
X140051851Y-33942019D01*
X140038022Y-33931863D01*
X140030851Y-33926775D01*
X140002797Y-33904867D01*
X139976487Y-33880150D01*
X139953610Y-33854438D01*
X139935852Y-33829544D01*
X139929236Y-33817597D01*
X139917870Y-33787418D01*
X139911511Y-33757236D01*
X139906929Y-33723755D01*
X139874139Y-33691619D01*
X139852826Y-33669040D01*
X139837172Y-33648249D01*
X139827088Y-33630457D01*
X139820809Y-33617057D01*
X139816587Y-33605659D01*
X139813916Y-33593815D01*
X139812293Y-33579075D01*
X139811212Y-33558991D01*
X139810942Y-33552197D01*
X139809057Y-33502964D01*
X139782421Y-33465868D01*
X139769846Y-33447565D01*
X139757905Y-33428810D01*
X139748341Y-33412404D01*
X139744619Y-33405171D01*
X139734135Y-33373963D01*
X139730456Y-33340598D01*
X139733816Y-33307904D01*
X139735854Y-33299924D01*
X139743030Y-33275241D01*
X139727705Y-33251462D01*
X139706727Y-33214629D01*
X139693357Y-33180489D01*
X139688977Y-33156111D01*
X139873694Y-33156111D01*
X139876476Y-33163730D01*
X139884002Y-33175848D01*
X139895061Y-33190943D01*
X139908441Y-33207495D01*
X139922930Y-33223985D01*
X139937317Y-33238893D01*
X139946405Y-33247334D01*
X139977940Y-33275371D01*
X140002728Y-33298470D01*
X140020845Y-33316707D01*
X140032365Y-33330159D01*
X140037363Y-33338905D01*
X140037416Y-33341599D01*
X140029430Y-33351011D01*
X140013904Y-33357121D01*
X139990745Y-33359952D01*
X139959858Y-33359524D01*
X139959241Y-33359487D01*
X139915666Y-33356858D01*
X139929390Y-33376937D01*
X139938942Y-33389414D01*
X139952907Y-33405217D01*
X139971716Y-33424786D01*
X139995804Y-33448561D01*
X140025602Y-33476982D01*
X140053777Y-33503297D01*
X140069620Y-33518223D01*
X140082956Y-33531234D01*
X140092670Y-33541208D01*
X140097648Y-33547022D01*
X140098066Y-33547893D01*
X140094106Y-33553220D01*
X140083315Y-33558108D01*
X140067329Y-33562129D01*
X140047786Y-33564855D01*
X140029481Y-33565835D01*
X139992645Y-33566350D01*
X140006197Y-33580516D01*
X140022603Y-33596332D01*
X140044661Y-33615618D01*
X140070936Y-33637212D01*
X140099992Y-33659951D01*
X140130395Y-33682676D01*
X140148700Y-33695830D01*
X140169378Y-33710501D01*
X140183982Y-33721147D01*
X140193360Y-33728618D01*
X140198361Y-33733765D01*
X140199830Y-33737440D01*
X140198617Y-33740494D01*
X140196013Y-33743334D01*
X140189576Y-33747696D01*
X140179187Y-33751044D01*
X140163215Y-33753784D01*
X140146099Y-33755732D01*
X140128043Y-33757800D01*
X140113202Y-33759989D01*
X140103570Y-33761980D01*
X140101087Y-33762974D01*
X140102408Y-33766968D01*
X140110350Y-33774381D01*
X140124057Y-33784667D01*
X140142670Y-33797277D01*
X140165331Y-33811665D01*
X140191183Y-33827283D01*
X140219367Y-33843584D01*
X140249026Y-33860022D01*
X140274354Y-33873484D01*
X140366095Y-33921243D01*
X140354778Y-33930978D01*
X140343157Y-33938215D01*
X140326674Y-33945290D01*
X140308864Y-33950929D01*
X140293258Y-33953857D01*
X140290973Y-33953997D01*
X140279412Y-33955855D01*
X140273749Y-33957623D01*
X140271987Y-33961035D01*
X140277581Y-33966583D01*
X140289782Y-33973951D01*
X140307844Y-33982819D01*
X140331020Y-33992870D01*
X140358561Y-34003785D01*
X140389721Y-34015247D01*
X140423752Y-34026936D01*
X140459906Y-34038536D01*
X140473775Y-34042773D01*
X140494869Y-34049284D01*
X140512743Y-34055100D01*
X140525987Y-34059740D01*
X140533188Y-34062718D01*
X140534084Y-34063414D01*
X140532069Y-34068317D01*
X140527121Y-34077248D01*
X140525911Y-34079260D01*
X140514604Y-34091267D01*
X140495750Y-34103114D01*
X140491067Y-34105446D01*
X140464381Y-34118254D01*
X140477015Y-34123183D01*
X140515209Y-34135492D01*
X140559447Y-34145259D01*
X140607581Y-34152067D01*
X140640121Y-34154720D01*
X140663427Y-34156491D01*
X140687964Y-34159069D01*
X140711979Y-34162192D01*
X140733718Y-34165597D01*
X140751426Y-34169023D01*
X140763349Y-34172205D01*
X140766656Y-34173662D01*
X140770172Y-34177551D01*
X140769433Y-34184167D01*
X140767035Y-34190520D01*
X140761677Y-34199144D01*
X140752599Y-34209993D01*
X140741772Y-34221117D01*
X140731165Y-34230565D01*
X140722748Y-34236385D01*
X140719770Y-34237333D01*
X140716205Y-34240539D01*
X140716133Y-34241334D01*
X140719974Y-34244012D01*
X140729940Y-34246183D01*
X140743689Y-34247593D01*
X140758883Y-34247987D01*
X140771166Y-34247335D01*
X140780642Y-34246552D01*
X140796622Y-34245420D01*
X140817154Y-34244068D01*
X140840288Y-34242629D01*
X140849483Y-34242078D01*
X140878531Y-34240173D01*
X140903601Y-34238005D01*
X140926965Y-34235249D01*
X140950897Y-34231584D01*
X140977671Y-34226685D01*
X141009561Y-34220229D01*
X141023049Y-34217394D01*
X141095254Y-34199071D01*
X141161725Y-34175952D01*
X141222169Y-34148229D01*
X141276293Y-34116092D01*
X141323807Y-34079731D01*
X141364417Y-34039337D01*
X141397830Y-33995100D01*
X141417729Y-33960050D01*
X141430292Y-33933283D01*
X141440216Y-33909354D01*
X141447115Y-33889382D01*
X141450605Y-33874488D01*
X141450299Y-33865792D01*
X141450216Y-33865616D01*
X141445102Y-33858837D01*
X141434528Y-33847399D01*
X141419437Y-33832180D01*
X141400773Y-33814059D01*
X141379481Y-33793915D01*
X141356504Y-33772627D01*
X141332787Y-33751072D01*
X141309273Y-33730131D01*
X141286906Y-33710682D01*
X141266631Y-33693602D01*
X141257007Y-33685773D01*
X141197930Y-33639958D01*
X141132487Y-33591928D01*
X141062140Y-33542688D01*
X140988352Y-33493247D01*
X140912585Y-33444611D01*
X140855833Y-33409566D01*
X140825724Y-33391568D01*
X140790034Y-33370689D01*
X140750044Y-33347644D01*
X140707031Y-33323147D01*
X140662275Y-33297913D01*
X140617055Y-33272655D01*
X140572650Y-33248087D01*
X140530338Y-33224924D01*
X140491399Y-33203880D01*
X140457112Y-33185670D01*
X140428756Y-33171006D01*
X140427208Y-33170223D01*
X140396871Y-33154703D01*
X140373799Y-33142426D01*
X140357557Y-33133110D01*
X140347713Y-33126473D01*
X140343832Y-33122234D01*
X140345480Y-33120111D01*
X140349426Y-33119733D01*
X140354734Y-33121130D01*
X140366850Y-33125053D01*
X140384640Y-33131093D01*
X140406968Y-33138846D01*
X140432701Y-33147904D01*
X140460702Y-33157863D01*
X140489838Y-33168315D01*
X140518973Y-33178854D01*
X140546973Y-33189075D01*
X140572702Y-33198572D01*
X140595026Y-33206937D01*
X140612810Y-33213765D01*
X140618920Y-33216184D01*
X140638902Y-33224420D01*
X140665080Y-33235531D01*
X140695957Y-33248854D01*
X140730036Y-33263726D01*
X140765821Y-33279488D01*
X140801814Y-33295475D01*
X140836520Y-33311027D01*
X140868440Y-33325482D01*
X140896079Y-33338177D01*
X140917216Y-33348104D01*
X141035938Y-33408239D01*
X141155619Y-33475488D01*
X141274703Y-33548882D01*
X141391632Y-33627450D01*
X141504851Y-33710222D01*
X141532323Y-33731404D01*
X141544742Y-33740835D01*
X141554509Y-33746664D01*
X141563380Y-33748703D01*
X141573112Y-33746764D01*
X141585461Y-33740657D01*
X141602182Y-33730193D01*
X141613649Y-33722665D01*
X141656562Y-33690113D01*
X141691916Y-33653861D01*
X141719891Y-33613645D01*
X141740665Y-33569202D01*
X141754417Y-33520267D01*
X141755722Y-33513433D01*
X141758870Y-33491445D01*
X142041225Y-33491445D01*
X142041464Y-33506838D01*
X142042414Y-33518884D01*
X142044234Y-33529288D01*
X142047085Y-33539756D01*
X142051128Y-33551994D01*
X142052880Y-33557086D01*
X142066810Y-33592376D01*
X142082985Y-33622281D01*
X142103318Y-33649877D01*
X142125833Y-33674354D01*
X142143246Y-33690590D01*
X142162690Y-33706560D01*
X142182636Y-33721224D01*
X142201555Y-33733543D01*
X142217916Y-33742476D01*
X142230189Y-33746984D01*
X142233201Y-33747325D01*
X142239732Y-33744749D01*
X142252242Y-33737305D01*
X142270103Y-33725416D01*
X142292686Y-33709506D01*
X142319360Y-33689999D01*
X142329363Y-33682538D01*
X142418712Y-33617604D01*
X142506027Y-33558442D01*
X142593668Y-33503587D01*
X142683995Y-33451574D01*
X142779368Y-33400938D01*
X142798933Y-33391010D01*
X142880793Y-33350327D01*
X142957238Y-33313591D01*
X143029929Y-33280095D01*
X143100526Y-33249135D01*
X143170688Y-33220004D01*
X143242076Y-33191997D01*
X143316349Y-33164409D01*
X143395167Y-33136534D01*
X143408269Y-33132015D01*
X143426086Y-33125876D01*
X143437350Y-33122152D01*
X143443549Y-33120611D01*
X143446172Y-33121021D01*
X143446708Y-33123150D01*
X143446633Y-33126036D01*
X143442985Y-33130815D01*
X143432992Y-33137981D01*
X143418082Y-33146562D01*
X143411708Y-33149849D01*
X143380183Y-33165956D01*
X143342607Y-33185659D01*
X143300228Y-33208269D01*
X143254298Y-33233095D01*
X143206067Y-33259448D01*
X143156783Y-33286637D01*
X143107698Y-33313974D01*
X143060061Y-33340767D01*
X143015122Y-33366328D01*
X142974132Y-33389967D01*
X142938340Y-33410993D01*
X142936516Y-33412078D01*
X142874124Y-33450364D01*
X142809544Y-33492091D01*
X142744217Y-33536226D01*
X142679587Y-33581736D01*
X142617094Y-33627590D01*
X142558181Y-33672754D01*
X142504291Y-33716194D01*
X142464507Y-33750116D01*
X142446991Y-33765795D01*
X142428027Y-33783245D01*
X142408721Y-33801395D01*
X142390180Y-33819175D01*
X142373509Y-33835512D01*
X142359813Y-33849336D01*
X142350200Y-33859576D01*
X142345817Y-33865078D01*
X142345249Y-33873521D01*
X142348676Y-33888492D01*
X142352832Y-33900950D01*
X142377279Y-33956728D01*
X142408322Y-34007438D01*
X142446048Y-34053157D01*
X142490540Y-34093962D01*
X142541881Y-34129929D01*
X142600157Y-34161136D01*
X142665450Y-34187658D01*
X142667864Y-34188503D01*
X142710186Y-34202394D01*
X142750436Y-34213675D01*
X142790497Y-34222685D01*
X142832250Y-34229764D01*
X142877577Y-34235253D01*
X142928360Y-34239492D01*
X142961283Y-34241523D01*
X142984291Y-34242955D01*
X143004251Y-34244497D01*
X143019665Y-34246008D01*
X143029032Y-34247350D01*
X143031133Y-34248023D01*
X143036455Y-34248991D01*
X143046928Y-34248689D01*
X143059391Y-34247452D01*
X143070682Y-34245612D01*
X143077640Y-34243502D01*
X143078249Y-34243061D01*
X143076984Y-34239316D01*
X143071976Y-34234787D01*
X143055079Y-34220954D01*
X143041746Y-34206780D01*
X143032765Y-34193494D01*
X143028923Y-34182325D01*
X143031004Y-34174503D01*
X143032579Y-34173191D01*
X143040538Y-34169288D01*
X143052015Y-34165879D01*
X143068040Y-34162794D01*
X143089640Y-34159865D01*
X143117844Y-34156920D01*
X143146066Y-34154420D01*
X143195906Y-34149477D01*
X143238827Y-34143613D01*
X143274397Y-34136903D01*
X143302187Y-34129423D01*
X143313685Y-34125142D01*
X143330216Y-34118122D01*
X143306296Y-34105906D01*
X143288617Y-34095179D01*
X143274839Y-34083503D01*
X143266457Y-34072323D01*
X143264599Y-34065568D01*
X143268504Y-34061748D01*
X143279327Y-34056643D01*
X143295731Y-34050850D01*
X143301641Y-34049037D01*
X143336498Y-34038293D01*
X143371186Y-34026891D01*
X143404766Y-34015204D01*
X143436301Y-34003601D01*
X143464853Y-33992455D01*
X143489485Y-33982137D01*
X143509260Y-33973018D01*
X143523239Y-33965470D01*
X143530485Y-33959864D01*
X143531299Y-33958065D01*
X143527464Y-33955968D01*
X143517531Y-33953980D01*
X143506958Y-33952822D01*
X143489590Y-33950192D01*
X143472113Y-33945432D01*
X143456488Y-33939347D01*
X143444676Y-33932742D01*
X143438637Y-33926424D01*
X143438245Y-33924603D01*
X143441985Y-33919954D01*
X143453199Y-33912205D01*
X143471980Y-33901300D01*
X143498423Y-33887181D01*
X143513137Y-33879616D01*
X143551243Y-33859531D01*
X143587851Y-33838943D01*
X143621622Y-33818677D01*
X143651218Y-33799554D01*
X143675298Y-33782398D01*
X143687933Y-33772194D01*
X143702750Y-33759310D01*
X143676500Y-33759138D01*
X143651045Y-33757683D01*
X143627978Y-33753956D01*
X143609391Y-33748407D01*
X143598416Y-33742385D01*
X143593967Y-33738413D01*
X143593014Y-33735070D01*
X143596552Y-33730965D01*
X143605575Y-33724705D01*
X143615546Y-33718384D01*
X143632647Y-33707010D01*
X143652926Y-33692552D01*
X143675305Y-33675879D01*
X143698707Y-33657860D01*
X143722055Y-33639364D01*
X143744272Y-33621259D01*
X143764281Y-33604414D01*
X143781005Y-33589698D01*
X143793368Y-33577980D01*
X143800292Y-33570128D01*
X143801144Y-33568664D01*
X143797734Y-33567564D01*
X143787754Y-33566648D01*
X143773102Y-33566066D01*
X143767277Y-33565970D01*
X143745831Y-33564696D01*
X143727108Y-33561649D01*
X143712551Y-33557261D01*
X143703603Y-33551965D01*
X143701667Y-33546301D01*
X143705188Y-33541949D01*
X143714025Y-33532813D01*
X143727235Y-33519816D01*
X143743876Y-33503880D01*
X143763008Y-33485925D01*
X143769867Y-33479566D01*
X143791601Y-33458963D01*
X143812884Y-33437847D01*
X143832837Y-33417182D01*
X143850585Y-33397933D01*
X143865250Y-33381064D01*
X143875953Y-33367541D01*
X143881819Y-33358328D01*
X143882666Y-33355521D01*
X143879034Y-33355055D01*
X143869996Y-33356443D01*
X143866791Y-33357144D01*
X143839011Y-33361051D01*
X143810985Y-33360498D01*
X143785177Y-33355773D01*
X143764048Y-33347161D01*
X143760197Y-33344723D01*
X143757989Y-33339376D01*
X143762039Y-33330461D01*
X143772551Y-33317747D01*
X143789724Y-33301001D01*
X143813759Y-33279992D01*
X143822940Y-33272324D01*
X143841133Y-33256832D01*
X143858316Y-33241420D01*
X143872705Y-33227741D01*
X143882513Y-33217447D01*
X143883443Y-33216341D01*
X143892612Y-33204484D01*
X143902561Y-33190586D01*
X143912007Y-33176582D01*
X143919665Y-33164410D01*
X143924251Y-33156005D01*
X143925000Y-33153673D01*
X143921032Y-33152866D01*
X143910175Y-33152430D01*
X143894000Y-33152389D01*
X143874078Y-33152765D01*
X143870025Y-33152884D01*
X143847307Y-33153481D01*
X143831648Y-33153520D01*
X143821651Y-33152867D01*
X143815919Y-33151389D01*
X143813056Y-33148953D01*
X143812282Y-33147384D01*
X143811576Y-33136458D01*
X143814917Y-33119682D01*
X143821768Y-33098325D01*
X143831592Y-33073655D01*
X143843851Y-33046940D01*
X143858009Y-33019450D01*
X143873530Y-32992453D01*
X143886360Y-32972368D01*
X143912518Y-32933466D01*
X143799167Y-32933048D01*
X143756452Y-32932767D01*
X143721529Y-32932241D01*
X143693728Y-32931422D01*
X143672375Y-32930263D01*
X143656801Y-32928716D01*
X143646332Y-32926735D01*
X143640298Y-32924272D01*
X143638143Y-32921732D01*
X143640210Y-32916690D01*
X143647178Y-32907177D01*
X143657899Y-32894647D01*
X143668725Y-32883096D01*
X143701085Y-32849844D01*
X143672648Y-32844478D01*
X143637620Y-32840549D01*
X143598026Y-32841248D01*
X143553187Y-32846641D01*
X143502425Y-32856793D01*
X143475259Y-32863505D01*
X143451110Y-32869574D01*
X143429518Y-32874581D01*
X143411922Y-32878225D01*
X143399760Y-32880207D01*
X143394644Y-32880320D01*
X143387152Y-32873486D01*
X143381970Y-32861475D01*
X143380194Y-32847490D01*
X143380999Y-32840412D01*
X143385682Y-32830202D01*
X143395186Y-32816849D01*
X143406669Y-32803905D01*
X143416382Y-32793353D01*
X143422123Y-32785870D01*
X143422983Y-32782696D01*
X143422163Y-32782766D01*
X143414894Y-32784376D01*
X143401587Y-32786835D01*
X143384579Y-32789721D01*
X143376184Y-32791072D01*
X143358787Y-32794433D01*
X143335668Y-32799779D01*
X143309170Y-32806521D01*
X143281638Y-32814071D01*
X143264490Y-32819077D01*
X143236910Y-32827039D01*
X143213698Y-32833121D01*
X143195898Y-32837076D01*
X143184554Y-32838662D01*
X143181667Y-32838498D01*
X143173522Y-32833337D01*
X143169188Y-32821909D01*
X143169160Y-32821763D01*
X143169259Y-32806354D01*
X143175734Y-32790386D01*
X143189137Y-32772786D01*
X143200002Y-32761694D01*
X143209652Y-32751747D01*
X143215751Y-32744075D01*
X143216992Y-32740514D01*
X143211049Y-32739762D01*
X143198691Y-32741707D01*
X143181356Y-32745885D01*
X143160482Y-32751831D01*
X143137510Y-32759082D01*
X143113876Y-32767172D01*
X143091021Y-32775640D01*
X143070383Y-32784019D01*
X143053400Y-32791846D01*
X143046583Y-32795491D01*
X143034004Y-32802713D01*
X143017749Y-32812050D01*
X143002472Y-32820830D01*
X142988536Y-32828157D01*
X142976988Y-32832993D01*
X142970094Y-32834406D01*
X142969688Y-32834302D01*
X142962420Y-32828157D01*
X142955072Y-32816977D01*
X142949388Y-32803996D01*
X142947115Y-32792498D01*
X142949846Y-32777949D01*
X142956935Y-32761428D01*
X142966677Y-32746868D01*
X142967094Y-32746386D01*
X142972345Y-32738879D01*
X142971408Y-32735729D01*
X142965074Y-32736500D01*
X142954136Y-32740757D01*
X142939386Y-32748066D01*
X142921616Y-32757992D01*
X142901618Y-32770100D01*
X142880185Y-32783955D01*
X142858108Y-32799122D01*
X142836179Y-32815166D01*
X142822482Y-32825778D01*
X142804692Y-32839606D01*
X142789071Y-32851183D01*
X142776868Y-32859628D01*
X142769331Y-32864059D01*
X142767675Y-32864486D01*
X142763110Y-32860451D01*
X142755746Y-32851499D01*
X142749418Y-32842768D01*
X142741393Y-32829953D01*
X142737174Y-32818818D01*
X142735597Y-32805418D01*
X142735433Y-32795421D01*
X142734906Y-32781540D01*
X142733528Y-32771781D01*
X142731736Y-32768366D01*
X142725692Y-32771105D01*
X142714694Y-32778652D01*
X142699944Y-32790003D01*
X142682643Y-32804152D01*
X142663994Y-32820095D01*
X142645197Y-32836828D01*
X142627455Y-32853344D01*
X142612681Y-32867910D01*
X142596510Y-32884357D01*
X142585045Y-32895527D01*
X142577115Y-32902234D01*
X142571546Y-32905293D01*
X142567166Y-32905520D01*
X142562802Y-32903729D01*
X142561881Y-32903229D01*
X142553644Y-32896020D01*
X142544940Y-32884445D01*
X142541451Y-32878393D01*
X142535526Y-32864848D01*
X142533258Y-32852217D01*
X142533881Y-32836056D01*
X142533977Y-32835041D01*
X142534827Y-32822001D01*
X142534612Y-32813167D01*
X142533696Y-32810700D01*
X142528125Y-32813676D01*
X142517927Y-32821935D01*
X142504144Y-32834467D01*
X142487817Y-32850267D01*
X142469989Y-32868326D01*
X142451700Y-32887638D01*
X142434440Y-32906689D01*
X142409947Y-32934308D01*
X142390356Y-32956144D01*
X142375045Y-32972829D01*
X142363391Y-32984996D01*
X142354773Y-32993279D01*
X142348570Y-32998311D01*
X142344159Y-33000726D01*
X142341640Y-33001200D01*
X142335913Y-32997449D01*
X142329112Y-32987579D01*
X142322294Y-32973665D01*
X142316521Y-32957781D01*
X142313610Y-32946313D01*
X142310231Y-32934499D01*
X142305494Y-32929219D01*
X142298473Y-32930571D01*
X142288245Y-32938655D01*
X142276910Y-32950276D01*
X142246511Y-32985549D01*
X142214357Y-33027355D01*
X142181470Y-33074229D01*
X142148875Y-33124705D01*
X142117594Y-33177318D01*
X142114244Y-33183233D01*
X142104311Y-33202769D01*
X142092976Y-33228173D01*
X142081149Y-33257170D01*
X142069738Y-33287482D01*
X142059655Y-33316833D01*
X142055278Y-33330824D01*
X142051149Y-33345538D01*
X142048090Y-33359358D01*
X142045887Y-33374146D01*
X142044325Y-33391766D01*
X142043188Y-33414079D01*
X142042261Y-33442949D01*
X142042238Y-33443797D01*
X142041537Y-33471000D01*
X142041225Y-33491445D01*
X141758870Y-33491445D01*
X141759915Y-33484149D01*
X141761232Y-33456379D01*
X141759615Y-33427274D01*
X141755005Y-33393983D01*
X141753026Y-33382731D01*
X141737043Y-33316650D01*
X141713123Y-33249219D01*
X141681574Y-33181016D01*
X141642701Y-33112617D01*
X141596814Y-33044602D01*
X141544217Y-32977547D01*
X141526628Y-32957079D01*
X141493481Y-32919308D01*
X141482299Y-32954086D01*
X141474461Y-32976227D01*
X141467414Y-32990772D01*
X141460595Y-32998483D01*
X141453439Y-33000122D01*
X141449239Y-32998752D01*
X141443988Y-32994465D01*
X141434188Y-32984855D01*
X141420856Y-32970981D01*
X141405007Y-32953901D01*
X141387658Y-32934675D01*
X141386617Y-32933505D01*
X141363050Y-32907388D01*
X141340181Y-32882780D01*
X141318872Y-32860552D01*
X141299983Y-32841577D01*
X141284376Y-32826727D01*
X141272912Y-32816873D01*
X141268280Y-32813664D01*
X141265106Y-32813249D01*
X141263252Y-32817350D01*
X141262401Y-32827371D01*
X141262233Y-32840681D01*
X141260113Y-32866297D01*
X141253384Y-32885786D01*
X141241486Y-32900456D01*
X141234518Y-32905690D01*
X141227508Y-32909672D01*
X141222495Y-32909232D01*
X141216570Y-32903438D01*
X141212738Y-32898720D01*
X141197541Y-32881375D01*
X141177637Y-32860997D01*
X141155147Y-32839557D01*
X141132193Y-32819026D01*
X141110896Y-32801377D01*
X141096381Y-32790591D01*
X141082093Y-32780902D01*
X141070635Y-32773352D01*
X141063640Y-32769006D01*
X141062304Y-32768366D01*
X141061678Y-32772195D01*
X141061781Y-32782126D01*
X141062397Y-32793087D01*
X141061962Y-32815137D01*
X141056234Y-32832809D01*
X141044054Y-32849114D01*
X141038869Y-32854285D01*
X141026416Y-32866120D01*
X141004134Y-32847935D01*
X140969658Y-32820397D01*
X140939905Y-32798005D01*
X140913640Y-32779887D01*
X140889632Y-32765172D01*
X140877436Y-32758475D01*
X140856530Y-32747742D01*
X140842242Y-32741309D01*
X140833901Y-32739173D01*
X140830834Y-32741328D01*
X140832370Y-32747768D01*
X140837658Y-32758168D01*
X140846138Y-32779327D01*
X140848162Y-32799747D01*
X140843613Y-32817463D01*
X140841496Y-32821145D01*
X140833973Y-32828862D01*
X140826452Y-32831866D01*
X140819791Y-32829967D01*
X140807407Y-32824784D01*
X140791012Y-32817087D01*
X140772317Y-32807644D01*
X140770458Y-32806672D01*
X140748821Y-32795678D01*
X140726572Y-32784995D01*
X140706500Y-32775929D01*
X140692850Y-32770325D01*
X140676973Y-32764754D01*
X140657729Y-32758603D01*
X140637103Y-32752434D01*
X140617082Y-32746809D01*
X140599652Y-32742292D01*
X140586800Y-32739444D01*
X140581388Y-32738744D01*
X140581523Y-32741585D01*
X140586532Y-32749220D01*
X140595461Y-32760302D01*
X140601632Y-32767308D01*
X140613510Y-32781181D01*
X140623142Y-32793836D01*
X140629032Y-32803246D01*
X140630023Y-32805720D01*
X140630066Y-32817939D01*
X140625560Y-32829981D01*
X140618044Y-32838105D01*
X140616369Y-32838909D01*
X140609730Y-32838781D01*
X140597052Y-32836416D01*
X140580331Y-32832240D01*
X140566442Y-32828210D01*
X140545072Y-32821971D01*
X140520276Y-32815250D01*
X140493621Y-32808417D01*
X140466676Y-32801840D01*
X140441006Y-32795890D01*
X140418179Y-32790935D01*
X140399762Y-32787345D01*
X140387323Y-32785490D01*
X140384406Y-32785316D01*
X140376131Y-32785613D01*
X140375521Y-32787706D01*
X140381018Y-32792708D01*
X140388541Y-32800780D01*
X140397594Y-32812816D01*
X140406684Y-32826496D01*
X140414318Y-32839499D01*
X140419001Y-32849505D01*
X140419778Y-32852936D01*
X140417263Y-32860397D01*
X140411138Y-32870122D01*
X140410190Y-32871338D01*
X140400623Y-32883294D01*
X140349886Y-32870531D01*
X140305604Y-32859787D01*
X140268171Y-32851619D01*
X140236439Y-32845827D01*
X140209256Y-32842212D01*
X140185475Y-32840577D01*
X140175718Y-32840434D01*
X140151667Y-32841178D01*
X140130686Y-32843119D01*
X140114428Y-32846023D01*
X140104549Y-32849656D01*
X140103251Y-32850670D01*
X140104941Y-32854549D01*
X140111567Y-32862955D01*
X140121988Y-32874523D01*
X140131103Y-32883948D01*
X140147982Y-32902034D01*
X140158003Y-32915461D01*
X140161256Y-32924409D01*
X140157831Y-32929058D01*
X140154158Y-32929794D01*
X140148199Y-32930016D01*
X140134876Y-32930377D01*
X140115291Y-32930852D01*
X140090544Y-32931414D01*
X140061738Y-32932038D01*
X140029973Y-32932700D01*
X140016686Y-32932969D01*
X139886622Y-32935583D01*
X139912523Y-32975799D01*
X139929091Y-33002965D01*
X139944545Y-33031009D01*
X139958366Y-33058722D01*
X139970040Y-33084898D01*
X139979048Y-33108326D01*
X139984873Y-33127800D01*
X139987000Y-33142110D01*
X139986185Y-33147988D01*
X139983860Y-33150590D01*
X139978387Y-33152272D01*
X139968456Y-33153144D01*
X139952755Y-33153319D01*
X139929972Y-33152909D01*
X139928731Y-33152878D01*
X139903276Y-33152532D01*
X139885880Y-33153012D01*
X139876174Y-33154338D01*
X139873694Y-33156111D01*
X139688977Y-33156111D01*
X139687543Y-33148134D01*
X139689229Y-33116656D01*
X139698362Y-33085148D01*
X139714887Y-33052701D01*
X139715778Y-33051247D01*
X139730592Y-33027211D01*
X139718880Y-32998330D01*
X139713291Y-32983357D01*
X139709759Y-32969926D01*
X139707811Y-32955154D01*
X139706971Y-32936159D01*
X139706825Y-32924999D01*
X139706873Y-32904188D01*
X139707672Y-32889339D01*
X139709639Y-32877955D01*
X139713191Y-32867537D01*
X139718211Y-32856667D01*
X139735536Y-32830133D01*
X139759241Y-32806680D01*
X139787311Y-32788291D01*
X139788046Y-32787916D01*
X139806200Y-32780759D01*
X139829492Y-32774444D01*
X139855002Y-32769491D01*
X139879811Y-32766424D01*
X139901000Y-32765762D01*
X139908578Y-32766389D01*
X139919647Y-32767612D01*
X139927435Y-32766774D01*
X139934605Y-32762719D01*
X139943818Y-32754293D01*
X139949432Y-32748676D01*
X139981054Y-32721995D01*
X140016826Y-32701734D01*
X140057547Y-32687537D01*
X140104013Y-32679048D01*
X140105754Y-32678849D01*
X140128941Y-32676342D01*
X140145872Y-32674826D01*
X140158692Y-32674257D01*
X140169548Y-32674588D01*
X140180586Y-32675774D01*
X140189372Y-32677058D01*
X140201238Y-32678563D01*
X140209568Y-32677894D01*
X140217339Y-32674010D01*
X140227527Y-32665872D01*
X140231705Y-32662268D01*
X140247394Y-32650275D01*
X140265271Y-32638892D01*
X140275866Y-32633288D01*
X140286173Y-32628830D01*
X140296081Y-32625697D01*
X140307513Y-32623598D01*
X140322394Y-32622248D01*
X140342647Y-32621356D01*
X140358416Y-32620915D01*
X140382212Y-32620227D01*
X140399183Y-32619368D01*
X140410970Y-32618071D01*
X140419216Y-32616067D01*
X140425560Y-32613087D01*
X140431503Y-32608972D01*
X140457970Y-32592996D01*
X140489642Y-32580511D01*
X140520410Y-32573197D01*
X140553101Y-32570825D01*
X140589502Y-32573322D01*
X140626626Y-32580378D01*
X140647037Y-32586345D01*
X140661199Y-32590762D01*
X140672707Y-32593780D01*
X140678033Y-32594655D01*
X140684533Y-32592527D01*
X140695767Y-32586857D01*
X140709435Y-32578819D01*
X140711011Y-32577826D01*
X140737640Y-32560933D01*
X140793228Y-32560933D01*
X140818857Y-32561226D01*
X140818857Y-32561226D01*
G37*
X140818857Y-32561226D02*
X140837047Y-32562167D01*
X140848809Y-32563847D01*
X140855152Y-32566361D01*
X140855499Y-32566638D01*
X140863786Y-32571759D01*
X140877632Y-32578427D01*
X140894733Y-32585732D01*
X140912782Y-32592764D01*
X140929474Y-32598614D01*
X140942502Y-32602371D01*
X140948331Y-32603269D01*
X140957637Y-32602457D01*
X140972456Y-32600295D01*
X140990023Y-32597201D01*
X140995233Y-32596190D01*
X141021414Y-32592250D01*
X141044948Y-32591901D01*
X141067964Y-32595542D01*
X141092591Y-32603572D01*
X141120958Y-32616393D01*
X141131685Y-32621838D01*
X141176821Y-32645219D01*
X141227222Y-32642685D01*
X141257857Y-32641936D01*
X141283771Y-32643507D01*
X141306579Y-32648063D01*
X141327897Y-32656273D01*
X141349342Y-32668802D01*
X141372529Y-32686318D01*
X141399074Y-32709488D01*
X141407193Y-32716954D01*
X141422732Y-32730743D01*
X141437100Y-32742392D01*
X141448622Y-32750611D01*
X141455284Y-32754037D01*
X141464988Y-32755107D01*
X141479939Y-32755273D01*
X141496965Y-32754503D01*
X141497574Y-32754457D01*
X141528783Y-32752097D01*
X141565643Y-32778223D01*
X141620212Y-32821622D01*
X141672362Y-32872551D01*
X141721450Y-32930265D01*
X141766833Y-32994016D01*
X141803057Y-33054266D01*
X141814933Y-33076801D01*
X141828078Y-33103552D01*
X141841549Y-33132426D01*
X141854407Y-33161330D01*
X141865711Y-33188171D01*
X141874520Y-33210856D01*
X141878131Y-33221333D01*
X141882644Y-33234525D01*
X141886533Y-33244297D01*
X141888400Y-33247751D01*
X141890826Y-33245156D01*
X141895624Y-33235920D01*
X141902197Y-33221330D01*
X141909948Y-33202675D01*
X141913888Y-33192718D01*
X141951655Y-33105887D01*
X141994880Y-33025191D01*
X142043421Y-32950885D01*
X142064465Y-32922788D01*
X142084884Y-32898516D01*
X142109900Y-32871799D01*
X142137616Y-32844435D01*
X142166137Y-32818225D01*
X142193566Y-32794967D01*
X142218007Y-32776460D01*
X142220534Y-32774721D01*
X142256721Y-32750141D01*
X142333683Y-32755603D01*
X142377946Y-32713507D01*
X142402675Y-32690974D01*
X142423643Y-32674147D01*
X142442204Y-32661986D01*
X142450763Y-32657447D01*
X142461973Y-32652085D01*
X142471289Y-32648300D01*
X142480545Y-32645805D01*
X142491576Y-32644316D01*
X142506215Y-32643547D01*
X142526298Y-32643213D01*
X142543090Y-32643095D01*
X142606863Y-32642708D01*
X142650099Y-32621146D01*
X142677646Y-32608057D01*
X142700422Y-32599154D01*
X142720769Y-32594030D01*
X142741029Y-32592278D01*
X142763544Y-32593492D01*
X142789115Y-32597016D01*
X142808803Y-32600068D01*
X142824158Y-32601729D01*
X142837142Y-32601638D01*
X142849722Y-32599431D01*
X142863860Y-32594746D01*
X142881522Y-32587219D01*
X142904671Y-32576488D01*
X142907535Y-32575145D01*
X142920289Y-32569321D01*
X142930700Y-32565355D01*
X142940907Y-32562889D01*
X142953053Y-32561567D01*
X142969279Y-32561034D01*
X142991726Y-32560933D01*
X142993010Y-32560933D01*
X143013786Y-32561222D01*
X143031379Y-32562011D01*
X143044124Y-32563187D01*
X143050358Y-32564634D01*
X143050656Y-32564907D01*
X143055431Y-32569006D01*
X143065290Y-32575559D01*
X143075247Y-32581496D01*
X143097383Y-32594112D01*
X143141833Y-32583967D01*
X143176391Y-32576701D01*
X143204667Y-32572262D01*
X143228304Y-32570504D01*
X143248948Y-32571277D01*
X143262035Y-32573158D01*
X143290459Y-32580913D01*
X143320191Y-32593160D01*
X143346897Y-32608079D01*
X143349732Y-32609990D01*
X143356402Y-32614222D01*
X143363160Y-32617178D01*
X143371695Y-32619117D01*
X143383693Y-32620299D01*
X143400844Y-32620986D01*
X143423815Y-32621423D01*
X143447994Y-32621921D01*
X143465637Y-32622747D01*
X143478677Y-32624182D01*
X143489045Y-32626505D01*
X143498671Y-32629996D01*
X143506140Y-32633349D01*
X143523171Y-32643003D01*
X143540481Y-32655371D01*
X143548383Y-32662190D01*
X143567103Y-32679998D01*
X143592593Y-32675563D01*
X143608374Y-32673673D01*
X143625988Y-32673488D01*
X143647821Y-32675061D01*
X143666766Y-32677222D01*
X143707517Y-32683750D01*
X143741760Y-32692681D01*
X143771294Y-32704783D01*
X143797919Y-32720827D01*
X143823433Y-32741581D01*
X143828628Y-32746429D01*
X143841013Y-32757956D01*
X143849608Y-32764642D01*
X143856673Y-32767569D01*
X143864471Y-32767817D01*
X143871602Y-32766972D01*
X143888622Y-32766452D01*
X143910843Y-32768279D01*
X143935483Y-32771982D01*
X143959759Y-32777089D01*
X143980886Y-32783131D01*
X143991358Y-32787219D01*
X144021028Y-32805221D01*
X144045086Y-32829052D01*
X144062791Y-32857679D01*
X144073397Y-32890068D01*
X144075527Y-32904250D01*
X144075883Y-32934296D01*
X144071711Y-32965694D01*
X144063628Y-32994575D01*
X144059552Y-33004316D01*
X144050805Y-33022924D01*
X144071288Y-33065631D01*
X144083812Y-33094233D01*
X144091315Y-33118419D01*
X144094074Y-33140375D01*
X144092365Y-33162291D01*
X144086526Y-33186151D01*
X144079525Y-33204541D01*
X144069547Y-33225255D01*
X144058728Y-33243867D01*
X144058519Y-33244186D01*
X144049608Y-33258322D01*
X144042892Y-33270114D01*
X144039500Y-33277539D01*
X144039299Y-33278594D01*
X144040844Y-33285559D01*
X144044695Y-33296557D01*
X144046166Y-33300191D01*
X144049981Y-33312459D01*
X144051353Y-33326786D01*
X144050544Y-33346138D01*
X144050377Y-33348174D01*
X144047116Y-33370648D01*
X144040770Y-33392363D01*
X144030593Y-33414963D01*
X144015842Y-33440091D01*
X143995770Y-33469393D01*
X143994905Y-33470593D01*
X143966245Y-33510302D01*
X143971465Y-33532059D01*
X143974034Y-33545494D01*
X143974289Y-33557524D01*
X143972083Y-33571737D01*
X143969380Y-33583366D01*
X143960960Y-33612158D01*
X143950489Y-33636527D01*
X143936650Y-33658529D01*
X143918126Y-33680221D01*
X143893599Y-33703660D01*
X143890691Y-33706245D01*
X143880759Y-33715375D01*
X143874799Y-33722812D01*
X143871557Y-33731347D01*
X143869783Y-33743769D01*
X143868849Y-33754928D01*
X143866617Y-33773230D01*
X143863158Y-33790648D01*
X143859306Y-33803179D01*
X143843443Y-33832533D01*
X143820851Y-33862743D01*
X143792919Y-33892259D01*
X143761038Y-33919532D01*
X143743758Y-33932041D01*
X143726846Y-33944110D01*
X143715489Y-33954198D01*
X143707917Y-33964565D01*
X143702358Y-33977472D01*
X143698599Y-33989629D01*
X143692700Y-34006984D01*
X143685395Y-34024155D01*
X143680877Y-34032838D01*
X143663470Y-34056063D01*
X143639484Y-34078795D01*
X143610766Y-34099730D01*
X143579165Y-34117568D01*
X143546529Y-34131006D01*
X143537649Y-34133748D01*
X143520588Y-34139017D01*
X143509944Y-34143845D01*
X143503869Y-34149618D01*
X143500515Y-34157727D01*
X143499407Y-34162484D01*
X143489866Y-34188322D01*
X143472698Y-34213018D01*
X143448730Y-34235883D01*
X143418789Y-34256230D01*
X143383702Y-34273369D01*
X143353350Y-34284051D01*
X143337917Y-34288887D01*
X143325708Y-34293156D01*
X143318961Y-34296064D01*
X143318466Y-34296411D01*
X143320743Y-34299584D01*
X143329055Y-34306634D01*
X143342370Y-34316776D01*
X143359654Y-34329222D01*
X143379849Y-34343168D01*
X143420640Y-34371103D01*
X143455277Y-34395532D01*
X143484868Y-34417306D01*
X143510521Y-34437272D01*
X143533343Y-34456280D01*
X143554442Y-34475180D01*
X143564743Y-34484904D01*
X143623178Y-34545836D01*
X143674156Y-34609559D01*
X143718035Y-34676734D01*
X143755178Y-34748021D01*
X143785945Y-34824079D01*
X143810696Y-34905570D01*
X143822829Y-34957438D01*
X143829201Y-34990015D01*
X143834448Y-35022267D01*
X143838771Y-35055979D01*
X143842372Y-35092934D01*
X143845454Y-35134918D01*
X143848021Y-35179822D01*
X143851316Y-35243895D01*
X143870591Y-35277189D01*
X143880252Y-35293101D01*
X143889106Y-35305113D01*
X143899258Y-35315425D01*
X143912812Y-35326238D01*
X143927541Y-35336743D01*
X143953341Y-35356221D01*
X143982278Y-35380553D01*
X144012350Y-35407863D01*
X144041558Y-35436275D01*
X144067900Y-35463912D01*
X144088213Y-35487447D01*
X144126653Y-35538844D01*
X144162714Y-35594371D01*
X144195734Y-35652618D01*
X144225047Y-35712179D01*
X144249992Y-35771646D01*
X144269905Y-35829611D01*
X144284122Y-35884667D01*
X144289452Y-35914409D01*
X144292231Y-35931083D01*
X144295102Y-35944580D01*
X144297565Y-35952654D01*
X144298196Y-35953738D01*
X144299151Y-35958893D01*
X144299953Y-35971224D01*
X144300602Y-35989519D01*
X144301100Y-36012563D01*
X144301447Y-36039144D01*
X144301644Y-36068048D01*
X144301692Y-36098062D01*
X144301591Y-36127971D01*
X144301342Y-36156564D01*
X144300946Y-36182626D01*
X144300404Y-36204944D01*
X144299717Y-36222305D01*
X144298884Y-36233494D01*
X144298021Y-36237281D01*
X144295278Y-36242517D01*
X144292555Y-36253189D01*
X144291456Y-36259756D01*
X144288405Y-36275811D01*
X144283142Y-36297684D01*
X144276290Y-36323213D01*
X144268469Y-36350236D01*
X144260301Y-36376591D01*
X144252407Y-36400118D01*
X144246696Y-36415475D01*
X144215350Y-36485107D01*
X144176926Y-36554684D01*
X144132601Y-36622272D01*
X144083553Y-36685934D01*
X144078906Y-36691454D01*
X144067630Y-36705924D01*
X144059683Y-36718483D01*
X144056278Y-36727177D01*
X144056233Y-36727893D01*
X144055125Y-36735197D01*
X144052055Y-36749194D01*
X144047405Y-36768444D01*
X144041557Y-36791504D01*
X144034893Y-36816934D01*
X144027794Y-36843291D01*
X144020642Y-36869133D01*
X144013819Y-36893019D01*
X144007707Y-36913507D01*
X144003910Y-36925500D01*
X143999265Y-36939193D01*
X143992326Y-36959086D01*
X143983714Y-36983428D01*
X143974047Y-37010469D01*
X143963946Y-37038460D01*
X143961593Y-37044941D01*
X143947445Y-37085081D01*
X143936481Y-37119093D01*
X143928252Y-37148497D01*
X143922308Y-37174814D01*
X143920868Y-37182525D01*
X143901033Y-37270269D01*
X143873092Y-37355796D01*
X143837192Y-37438794D01*
X143793478Y-37518948D01*
X143742094Y-37595943D01*
X143710759Y-37636655D01*
X143691047Y-37659709D01*
X143666567Y-37686266D01*
X143639140Y-37714511D01*
X143610586Y-37742630D01*
X143582728Y-37768809D01*
X143557386Y-37791234D01*
X143546752Y-37800050D01*
X143507397Y-37829844D01*
X143464359Y-37859056D01*
X143419629Y-37886509D01*
X143375201Y-37911026D01*
X143333068Y-37931430D01*
X143304009Y-37943387D01*
X143286462Y-37950800D01*
X143269729Y-37959311D01*
X143257443Y-37967071D01*
X143227333Y-37989335D01*
X143191556Y-38014564D01*
X143151849Y-38041622D01*
X143109951Y-38069370D01*
X143067599Y-38096670D01*
X143026532Y-38122383D01*
X142988486Y-38145373D01*
X142960325Y-38161639D01*
X142931755Y-38177119D01*
X142898678Y-38194096D01*
X142862915Y-38211715D01*
X142826284Y-38229120D01*
X142790603Y-38245455D01*
X142757694Y-38259864D01*
X142729373Y-38271491D01*
X142716469Y-38276370D01*
X142696409Y-38283747D01*
X142681271Y-38289928D01*
X142669009Y-38296183D01*
X142657574Y-38303781D01*
X142644919Y-38313991D01*
X142628996Y-38328083D01*
X142620194Y-38336051D01*
X142565074Y-38384149D01*
X142512444Y-38426019D01*
X142460714Y-38462849D01*
X142408291Y-38495830D01*
X142399392Y-38501026D01*
X142356685Y-38525700D01*
X141890951Y-38525690D01*
X141425216Y-38525680D01*
X141388073Y-38504846D01*
X141341847Y-38477523D01*
X141298090Y-38448581D01*
X141254943Y-38416649D01*
X141210541Y-38380355D01*
X141167687Y-38342572D01*
X141149792Y-38326888D01*
X141132503Y-38312727D01*
X141117494Y-38301393D01*
X141106437Y-38294191D01*
X141104107Y-38293015D01*
X141092842Y-38288162D01*
X141076229Y-38281179D01*
X141056765Y-38273111D01*
X141042099Y-38267097D01*
X140949809Y-38226912D01*
X140860022Y-38182526D01*
X140771254Y-38133105D01*
X140682017Y-38077814D01*
X140657665Y-38061259D01*
X141229202Y-38061259D01*
X141234448Y-38081747D01*
X141241298Y-38096456D01*
X141262202Y-38129549D01*
X141290382Y-38163902D01*
X141324882Y-38198788D01*
X141364747Y-38233478D01*
X141409022Y-38267245D01*
X141456752Y-38299361D01*
X141506983Y-38329099D01*
X141558760Y-38355731D01*
X141611127Y-38378528D01*
X141611739Y-38378769D01*
X141664688Y-38397989D01*
X141714531Y-38412436D01*
X141763784Y-38422581D01*
X141814965Y-38428898D01*
X141870592Y-38431861D01*
X141896147Y-38432220D01*
X141926958Y-38432207D01*
X141951467Y-38431763D01*
X141971837Y-38430726D01*
X141990227Y-38428929D01*
X142008800Y-38426210D01*
X142029716Y-38422404D01*
X142032495Y-38421865D01*
X142110329Y-38402647D01*
X142187044Y-38375821D01*
X142261541Y-38341988D01*
X142332717Y-38301748D01*
X142399473Y-38255702D01*
X142460707Y-38204450D01*
X142497343Y-38168296D01*
X142526005Y-38135908D01*
X142547996Y-38106092D01*
X142564171Y-38077547D01*
X142574772Y-38050927D01*
X142579688Y-38034388D01*
X142581775Y-38022796D01*
X142581319Y-38013225D01*
X142579285Y-38004950D01*
X142567492Y-37979877D01*
X142547503Y-37955567D01*
X142519564Y-37932168D01*
X142483925Y-37909824D01*
X142440831Y-37888682D01*
X142390532Y-37868888D01*
X142333273Y-37850586D01*
X142303146Y-37842311D01*
X142256598Y-37830818D01*
X142212623Y-37821514D01*
X142169668Y-37814242D01*
X142126178Y-37808846D01*
X142080598Y-37805168D01*
X142031374Y-37803054D01*
X141976950Y-37802346D01*
X141915772Y-37802887D01*
X141912050Y-37802953D01*
X141873078Y-37803750D01*
X141840894Y-37804679D01*
X141813819Y-37805854D01*
X141790176Y-37807393D01*
X141768285Y-37809410D01*
X141746467Y-37812021D01*
X141723045Y-37815342D01*
X141715304Y-37816518D01*
X141691270Y-37820264D01*
X141670244Y-37823645D01*
X141653612Y-37826432D01*
X141642760Y-37828390D01*
X141639104Y-37829240D01*
X141634433Y-37830607D01*
X141622934Y-37833517D01*
X141606029Y-37837623D01*
X141585144Y-37842578D01*
X141569150Y-37846311D01*
X141508551Y-37861983D01*
X141452471Y-37879733D01*
X141401454Y-37899276D01*
X141356047Y-37920326D01*
X141316793Y-37942597D01*
X141284238Y-37965803D01*
X141258926Y-37989659D01*
X141241403Y-38013878D01*
X141238368Y-38019816D01*
X141230543Y-38041504D01*
X141229202Y-38061259D01*
X140657665Y-38061259D01*
X140590827Y-38015822D01*
X140578591Y-38007113D01*
X140553688Y-37989318D01*
X140534413Y-37975679D01*
X140519508Y-37965428D01*
X140507713Y-37957799D01*
X140497769Y-37952024D01*
X140488416Y-37947336D01*
X140478394Y-37942967D01*
X140466445Y-37938151D01*
X140463400Y-37936943D01*
X140396898Y-37906521D01*
X140330484Y-37868260D01*
X140264942Y-37822758D01*
X140201055Y-37770615D01*
X140139609Y-37712429D01*
X140081386Y-37648799D01*
X140072974Y-37638816D01*
X140025913Y-37577202D01*
X139983160Y-37510855D01*
X139945348Y-37441139D01*
X139913107Y-37369417D01*
X139887071Y-37297054D01*
X139867871Y-37225413D01*
X139858924Y-37177004D01*
X139853626Y-37148727D01*
X139845710Y-37119134D01*
X139834463Y-37085683D01*
X139829562Y-37072474D01*
X139813266Y-37028323D01*
X139799766Y-36990037D01*
X140068934Y-36990037D01*
X140069004Y-37014900D01*
X140069942Y-37036591D01*
X140071890Y-37057750D01*
X140074990Y-37081014D01*
X140076774Y-37092716D01*
X140087013Y-37146310D01*
X140100994Y-37201542D01*
X140118152Y-37256990D01*
X140137923Y-37311229D01*
X140159746Y-37362837D01*
X140183056Y-37410391D01*
X140207290Y-37452467D01*
X140231884Y-37487643D01*
X140234281Y-37490650D01*
X140253397Y-37513194D01*
X140276300Y-37538391D01*
X140301541Y-37564800D01*
X140327670Y-37590978D01*
X140353237Y-37615485D01*
X140376793Y-37636878D01*
X140396887Y-37653716D01*
X140402866Y-37658290D01*
X140471719Y-37704771D01*
X140542040Y-37743531D01*
X140613360Y-37774350D01*
X140685206Y-37797007D01*
X140712245Y-37803366D01*
X140730441Y-37807163D01*
X140745232Y-37809884D01*
X140758607Y-37811673D01*
X140772553Y-37812676D01*
X140789058Y-37813037D01*
X140810110Y-37812900D01*
X140836783Y-37812427D01*
X140865917Y-37811614D01*
X140888579Y-37810325D01*
X140906759Y-37808352D01*
X140922445Y-37805484D01*
X140936236Y-37801917D01*
X140970637Y-37789762D01*
X141000230Y-37774861D01*
X141023562Y-37758010D01*
X141032360Y-37749180D01*
X141049936Y-37724174D01*
X141065387Y-37692493D01*
X141077988Y-37655811D01*
X141084689Y-37628233D01*
X141088604Y-37607485D01*
X141090999Y-37589717D01*
X141092053Y-37572027D01*
X141091947Y-37551515D01*
X141090962Y-37527304D01*
X141089617Y-37505360D01*
X141087940Y-37485685D01*
X141086130Y-37470240D01*
X141084387Y-37460988D01*
X141084134Y-37460231D01*
X141081650Y-37451327D01*
X141078478Y-37436662D01*
X141075169Y-37418856D01*
X141073952Y-37411583D01*
X141067142Y-37377015D01*
X141057398Y-37340305D01*
X141044236Y-37299841D01*
X141027170Y-37254011D01*
X141024504Y-37247233D01*
X140993393Y-37176343D01*
X140958082Y-37111095D01*
X140917492Y-37049848D01*
X140870546Y-36990961D01*
X140839207Y-36957250D01*
X141211470Y-36957250D01*
X141211807Y-36986440D01*
X141213035Y-37011233D01*
X141215503Y-37034165D01*
X141219560Y-37057775D01*
X141225553Y-37084599D01*
X141232968Y-37113883D01*
X141254314Y-37179060D01*
X141283185Y-37241067D01*
X141319095Y-37299474D01*
X141361557Y-37353847D01*
X141410084Y-37403756D01*
X141464190Y-37448768D01*
X141523388Y-37488451D01*
X141587192Y-37522375D01*
X141655115Y-37550107D01*
X141726670Y-37571215D01*
X141755545Y-37577576D01*
X141782996Y-37582248D01*
X141814313Y-37586267D01*
X141846978Y-37589419D01*
X141878473Y-37591495D01*
X141906278Y-37592281D01*
X141924750Y-37591803D01*
X141939384Y-37590825D01*
X141958668Y-37589507D01*
X141961102Y-37589338D01*
X142659486Y-37589338D01*
X142659910Y-37606880D01*
X142660996Y-37621212D01*
X142662854Y-37634083D01*
X142665599Y-37647244D01*
X142667754Y-37656156D01*
X142680211Y-37697658D01*
X142694891Y-37731071D01*
X142711836Y-37756485D01*
X142717907Y-37763107D01*
X142739623Y-37780568D01*
X142767671Y-37796656D01*
X142799930Y-37810456D01*
X142834277Y-37821052D01*
X142866666Y-37827285D01*
X142889505Y-37829335D01*
X142917705Y-37830481D01*
X142948362Y-37830732D01*
X142978574Y-37830095D01*
X143005440Y-37828578D01*
X143021622Y-37826870D01*
X143039578Y-37823705D01*
X143062318Y-37818736D01*
X143086557Y-37812721D01*
X143103547Y-37808033D01*
X143165878Y-37787811D01*
X143222898Y-37764612D01*
X143276029Y-37737566D01*
X143326696Y-37705804D01*
X143376320Y-37668457D01*
X143426326Y-37624654D01*
X143464476Y-37587509D01*
X143510944Y-37538781D01*
X143550756Y-37493003D01*
X143584646Y-37448985D01*
X143613343Y-37405536D01*
X143637577Y-37361466D01*
X143658081Y-37315585D01*
X143675585Y-37266702D01*
X143688432Y-37222717D01*
X143700512Y-37166584D01*
X143708470Y-37105395D01*
X143712184Y-37041554D01*
X143711533Y-36977468D01*
X143706393Y-36915542D01*
X143704645Y-36902422D01*
X143694114Y-36839662D01*
X143681462Y-36784365D01*
X143666436Y-36735732D01*
X143648778Y-36692968D01*
X143628233Y-36655275D01*
X143622659Y-36646615D01*
X143601564Y-36620067D01*
X143576858Y-36599156D01*
X143547413Y-36583233D01*
X143512103Y-36571651D01*
X143481294Y-36565456D01*
X143455636Y-36564128D01*
X143424670Y-36567013D01*
X143390158Y-36573666D01*
X143353864Y-36583643D01*
X143317551Y-36596500D01*
X143282982Y-36611793D01*
X143269389Y-36618845D01*
X143208358Y-36655750D01*
X143145575Y-36700868D01*
X143081105Y-36754141D01*
X143015014Y-36815514D01*
X142947371Y-36884929D01*
X142918005Y-36917033D01*
X142869213Y-36976787D01*
X142823753Y-37043386D01*
X142782206Y-37115669D01*
X142745152Y-37192474D01*
X142713170Y-37272640D01*
X142686840Y-37355005D01*
X142673654Y-37406468D01*
X142669271Y-37426483D01*
X142666028Y-37444562D01*
X142663709Y-37462811D01*
X142662097Y-37483332D01*
X142660977Y-37508231D01*
X142660176Y-37537623D01*
X142659612Y-37566836D01*
X142659486Y-37589338D01*
X141961102Y-37589338D01*
X141978808Y-37588109D01*
X141981900Y-37587892D01*
X142041999Y-37580187D01*
X142104378Y-37565699D01*
X142167240Y-37545066D01*
X142228790Y-37518928D01*
X142287232Y-37487922D01*
X142318830Y-37468072D01*
X142378767Y-37423175D01*
X142431957Y-37373215D01*
X142478316Y-37318302D01*
X142517763Y-37258543D01*
X142550213Y-37194048D01*
X142572055Y-37136132D01*
X142584798Y-37092628D01*
X142593300Y-37052523D01*
X142598018Y-37012561D01*
X142599412Y-36969484D01*
X142598983Y-36945011D01*
X142592973Y-36873237D01*
X142579427Y-36805093D01*
X142558227Y-36740312D01*
X142529255Y-36678624D01*
X142492392Y-36619760D01*
X142447521Y-36563451D01*
X142417920Y-36531996D01*
X142362057Y-36481809D01*
X142301315Y-36438242D01*
X142236320Y-36401480D01*
X142167694Y-36371708D01*
X142096064Y-36349111D01*
X142022052Y-36333875D01*
X141946284Y-36326184D01*
X141869383Y-36326224D01*
X141791974Y-36334180D01*
X141766000Y-36338655D01*
X141692017Y-36356499D01*
X141621877Y-36380953D01*
X141555957Y-36411596D01*
X141494631Y-36448009D01*
X141438276Y-36489773D01*
X141387269Y-36536468D01*
X141341985Y-36587675D01*
X141302801Y-36642973D01*
X141270092Y-36701943D01*
X141244236Y-36764166D01*
X141225607Y-36829222D01*
X141214583Y-36896691D01*
X141211470Y-36957250D01*
X140839207Y-36957250D01*
X140820735Y-36937381D01*
X140762458Y-36881888D01*
X140703571Y-36832179D01*
X140644510Y-36788452D01*
X140585714Y-36750909D01*
X140527620Y-36719750D01*
X140470664Y-36695174D01*
X140415286Y-36677382D01*
X140361921Y-36666574D01*
X140311008Y-36662950D01*
X140262983Y-36666710D01*
X140239665Y-36671555D01*
X140205161Y-36682044D01*
X140177453Y-36694711D01*
X140154915Y-36710858D01*
X140135921Y-36731782D01*
X140118846Y-36758783D01*
X140110664Y-36774673D01*
X140097469Y-36803227D01*
X140087466Y-36829011D01*
X140080186Y-36854133D01*
X140075161Y-36880702D01*
X140071921Y-36910829D01*
X140069997Y-36946621D01*
X140069589Y-36959366D01*
X140068934Y-36990037D01*
X139799766Y-36990037D01*
X139797164Y-36982658D01*
X139781732Y-36936960D01*
X139767444Y-36892712D01*
X139754775Y-36851395D01*
X139744199Y-36814492D01*
X139736193Y-36783485D01*
X139734288Y-36775216D01*
X139727787Y-36748063D01*
X139721633Y-36726521D01*
X139716139Y-36711598D01*
X139712647Y-36705366D01*
X139695081Y-36682976D01*
X139675785Y-36657542D01*
X139656146Y-36630965D01*
X139637545Y-36605142D01*
X139621369Y-36581972D01*
X139609001Y-36563354D01*
X139608225Y-36562130D01*
X139581202Y-36515751D01*
X139556088Y-36465745D01*
X139533615Y-36413977D01*
X139514514Y-36362308D01*
X139499520Y-36312603D01*
X139489364Y-36266725D01*
X139487536Y-36255166D01*
X139484339Y-36237408D01*
X139480744Y-36225123D01*
X139477186Y-36219796D01*
X139477166Y-36219789D01*
X139475545Y-36215113D01*
X139474166Y-36203286D01*
X139473036Y-36185605D01*
X139472156Y-36163367D01*
X139471533Y-36137868D01*
X139471169Y-36110406D01*
X139471070Y-36082277D01*
X139471228Y-36056853D01*
X139713266Y-36056853D01*
X139713705Y-36085061D01*
X139713994Y-36097883D01*
X139714858Y-36128906D01*
X139715937Y-36153548D01*
X139717452Y-36173892D01*
X139719623Y-36192023D01*
X139722670Y-36210025D01*
X139726815Y-36229983D01*
X139728993Y-36239699D01*
X139748086Y-36312227D01*
X139770928Y-36377710D01*
X139797868Y-36436854D01*
X139829253Y-36490370D01*
X139865432Y-36538965D01*
X139889534Y-36566000D01*
X139912899Y-36589127D01*
X139932235Y-36605102D01*
X139947768Y-36614094D01*
X139957550Y-36616370D01*
X139964819Y-36615446D01*
X139976603Y-36613007D01*
X139981856Y-36611739D01*
X140002901Y-36602435D01*
X140024494Y-36585312D01*
X140046233Y-36560966D01*
X140067721Y-36529990D01*
X140088555Y-36492980D01*
X140108337Y-36450532D01*
X140126667Y-36403238D01*
X140131443Y-36389331D01*
X140154773Y-36314137D01*
X140175307Y-36236171D01*
X140193373Y-36153975D01*
X140209296Y-36066092D01*
X140220819Y-35989933D01*
X140226910Y-35936004D01*
X140230920Y-35877928D01*
X140231726Y-35852349D01*
X140447695Y-35852349D01*
X140447755Y-35882228D01*
X140448192Y-35905738D01*
X140449182Y-35924974D01*
X140450902Y-35942031D01*
X140453529Y-35959004D01*
X140457239Y-35977988D01*
X140458961Y-35986129D01*
X140476135Y-36052753D01*
X140497925Y-36112955D01*
X140524850Y-36167719D01*
X140557425Y-36218033D01*
X140596166Y-36264879D01*
X140615541Y-36284887D01*
X140656569Y-36322096D01*
X140698756Y-36353437D01*
X140743577Y-36379692D01*
X140792503Y-36401639D01*
X140847007Y-36420060D01*
X140893933Y-36432387D01*
X140911694Y-36436383D01*
X140926858Y-36439146D01*
X140941587Y-36440840D01*
X140958044Y-36441629D01*
X140978391Y-36441677D01*
X141004790Y-36441148D01*
X141008233Y-36441059D01*
X141042947Y-36439726D01*
X141072087Y-36437525D01*
X141098528Y-36434160D01*
X141125144Y-36429332D01*
X141129177Y-36428495D01*
X141207193Y-36407839D01*
X141281829Y-36379457D01*
X141352905Y-36343459D01*
X141420244Y-36299956D01*
X141483667Y-36249058D01*
X141542995Y-36190877D01*
X141579706Y-36148683D01*
X141622824Y-36090512D01*
X141660923Y-36028002D01*
X141693643Y-35962234D01*
X141720625Y-35894289D01*
X141741509Y-35825246D01*
X141755935Y-35756188D01*
X141763543Y-35688193D01*
X141763834Y-35643606D01*
X142046189Y-35643606D01*
X142053712Y-35718517D01*
X142069381Y-35793893D01*
X142093160Y-35869424D01*
X142125012Y-35944799D01*
X142136869Y-35968766D01*
X142179186Y-36042444D01*
X142227623Y-36110329D01*
X142282033Y-36172274D01*
X142342267Y-36228131D01*
X142408178Y-36277753D01*
X142479615Y-36320993D01*
X142504716Y-36334005D01*
X142570452Y-36362742D01*
X142638109Y-36384695D01*
X142706571Y-36399667D01*
X142774722Y-36407462D01*
X142841443Y-36407881D01*
X142893631Y-36402685D01*
X142925331Y-36396441D01*
X142960858Y-36387022D01*
X142997368Y-36375361D01*
X143032021Y-36362387D01*
X143061972Y-36349032D01*
X143069866Y-36344956D01*
X143123605Y-36311513D01*
X143174055Y-36271218D01*
X143220043Y-36225277D01*
X143260399Y-36174896D01*
X143293950Y-36121280D01*
X143301718Y-36106349D01*
X143309877Y-36087699D01*
X143319106Y-36062936D01*
X143328743Y-36034233D01*
X143338127Y-36003765D01*
X143346598Y-35973707D01*
X143353493Y-35946232D01*
X143358151Y-35923516D01*
X143359012Y-35917966D01*
X143361271Y-35894973D01*
X143362718Y-35866031D01*
X143363359Y-35833617D01*
X143363199Y-35800210D01*
X143362242Y-35768288D01*
X143360492Y-35740327D01*
X143359450Y-35730741D01*
X143551250Y-35730741D01*
X143551331Y-35768519D01*
X143555936Y-35888651D01*
X143567078Y-36004510D01*
X143584980Y-36117461D01*
X143609862Y-36228869D01*
X143641946Y-36340100D01*
X143646023Y-36352685D01*
X143659060Y-36389573D01*
X143673887Y-36426586D01*
X143689705Y-36462012D01*
X143705711Y-36494134D01*
X143721104Y-36521238D01*
X143733204Y-36539180D01*
X143753248Y-36562099D01*
X143774423Y-36579851D01*
X143795540Y-36591716D01*
X143815410Y-36596974D01*
X143827633Y-36596401D01*
X143838971Y-36593080D01*
X143851738Y-36588043D01*
X143852124Y-36587867D01*
X143865121Y-36579232D01*
X143881198Y-36564355D01*
X143899424Y-36544454D01*
X143918870Y-36520746D01*
X143938608Y-36494448D01*
X143957708Y-36466777D01*
X143975241Y-36438949D01*
X143990278Y-36412183D01*
X143997677Y-36397222D01*
X144028411Y-36321373D01*
X144050816Y-36244039D01*
X144064884Y-36165249D01*
X144069016Y-36122040D01*
X144070406Y-36042072D01*
X144063821Y-35964188D01*
X144049403Y-35888773D01*
X144027292Y-35816212D01*
X143997630Y-35746888D01*
X143960556Y-35681187D01*
X143916212Y-35619492D01*
X143864739Y-35562188D01*
X143863303Y-35560756D01*
X143836052Y-35535165D01*
X143806889Y-35510423D01*
X143777219Y-35487539D01*
X143748448Y-35467526D01*
X143721982Y-35451394D01*
X143699227Y-35440154D01*
X143691708Y-35437331D01*
X143679685Y-35433615D01*
X143671167Y-35432607D01*
X143662685Y-35434638D01*
X143650772Y-35440038D01*
X143647720Y-35441529D01*
X143629936Y-35451830D01*
X143615309Y-35464372D01*
X143602998Y-35480447D01*
X143592158Y-35501346D01*
X143581946Y-35528361D01*
X143573823Y-35554684D01*
X143565517Y-35586592D01*
X143559294Y-35618373D01*
X143554966Y-35651806D01*
X143552347Y-35688669D01*
X143551250Y-35730741D01*
X143359450Y-35730741D01*
X143358633Y-35723233D01*
X143345329Y-35654225D01*
X143324868Y-35583824D01*
X143297929Y-35513853D01*
X143265186Y-35446136D01*
X143239003Y-35400774D01*
X143196704Y-35339638D01*
X143147462Y-35280913D01*
X143092762Y-35226213D01*
X143034092Y-35177147D01*
X143029858Y-35173953D01*
X142996958Y-35151091D01*
X142959927Y-35128394D01*
X142920659Y-35106818D01*
X142881046Y-35087317D01*
X142842982Y-35070844D01*
X142808360Y-35058354D01*
X142790466Y-35053278D01*
X142758474Y-35045365D01*
X142733142Y-35039213D01*
X142712897Y-35034603D01*
X142696166Y-35031319D01*
X142681377Y-35029143D01*
X142666957Y-35027856D01*
X142651333Y-35027240D01*
X142632933Y-35027079D01*
X142610184Y-35027155D01*
X142602083Y-35027192D01*
X142573690Y-35027371D01*
X142551761Y-35027784D01*
X142534297Y-35028658D01*
X142519294Y-35030219D01*
X142504751Y-35032692D01*
X142488667Y-35036306D01*
X142469041Y-35041285D01*
X142462612Y-35042962D01*
X142400211Y-35062600D01*
X142343613Y-35087632D01*
X142291577Y-35118753D01*
X142242865Y-35156657D01*
X142217351Y-35180342D01*
X142176631Y-35224341D01*
X142142391Y-35270400D01*
X142113726Y-35320049D01*
X142089733Y-35374818D01*
X142072867Y-35424768D01*
X142055730Y-35496421D01*
X142046850Y-35569470D01*
X142046189Y-35643606D01*
X141763834Y-35643606D01*
X141763973Y-35622343D01*
X141762374Y-35600139D01*
X141755818Y-35544388D01*
X141746954Y-35494864D01*
X141735259Y-35449514D01*
X141720208Y-35406287D01*
X141702417Y-35365516D01*
X141670992Y-35309150D01*
X141632622Y-35256780D01*
X141588144Y-35209149D01*
X141538396Y-35167000D01*
X141484213Y-35131074D01*
X141426434Y-35102115D01*
X141389697Y-35088160D01*
X141375482Y-35084070D01*
X141356296Y-35079496D01*
X141333635Y-35074694D01*
X141308995Y-35069923D01*
X141283869Y-35065440D01*
X141259754Y-35061502D01*
X141238144Y-35058367D01*
X141220535Y-35056291D01*
X141208422Y-35055532D01*
X141203544Y-35056126D01*
X141198400Y-35057204D01*
X141186580Y-35058790D01*
X141169840Y-35060671D01*
X141149939Y-35062633D01*
X141149920Y-35062635D01*
X141074072Y-35073851D01*
X141000232Y-35093214D01*
X140928696Y-35120579D01*
X140859759Y-35155800D01*
X140793717Y-35198734D01*
X140730868Y-35249235D01*
X140690194Y-35287733D01*
X140632790Y-35351302D01*
X140582967Y-35418596D01*
X140540624Y-35489802D01*
X140505660Y-35565106D01*
X140477973Y-35644695D01*
X140461488Y-35709295D01*
X140456595Y-35732380D01*
X140453027Y-35751379D01*
X140450575Y-35768486D01*
X140449025Y-35785892D01*
X140448167Y-35805791D01*
X140447789Y-35830375D01*
X140447695Y-35852349D01*
X140231726Y-35852349D01*
X140232799Y-35818342D01*
X140232496Y-35759881D01*
X140229958Y-35705181D01*
X140227020Y-35672292D01*
X140219752Y-35619897D01*
X140210278Y-35575192D01*
X140198425Y-35537648D01*
X140184022Y-35506736D01*
X140166896Y-35481927D01*
X140163877Y-35478472D01*
X140145383Y-35462418D01*
X140125432Y-35454001D01*
X140103446Y-35453203D01*
X140078850Y-35460008D01*
X140051067Y-35474401D01*
X140049657Y-35475275D01*
X139992505Y-35514780D01*
X139939210Y-35559358D01*
X139890783Y-35607942D01*
X139848232Y-35659465D01*
X139812570Y-35712860D01*
X139795997Y-35743157D01*
X139761944Y-35819611D01*
X139736288Y-35896931D01*
X139721140Y-35963060D01*
X139717878Y-35982026D01*
X139715563Y-35998936D01*
X139714092Y-36015743D01*
X139713361Y-36034397D01*
X139713266Y-36056853D01*
X139471228Y-36056853D01*
X139471241Y-36054779D01*
X139471684Y-36029207D01*
X139472404Y-36006860D01*
X139473407Y-35989034D01*
X139474695Y-35977025D01*
X139476274Y-35972131D01*
X139476341Y-35972102D01*
X139478842Y-35967592D01*
X139482463Y-35956274D01*
X139486790Y-35939669D01*
X139491405Y-35919293D01*
X139493254Y-35910354D01*
X139508775Y-35844591D01*
X139528463Y-35782308D01*
X139553386Y-35720398D01*
X139572950Y-35678783D01*
X139614482Y-35602490D01*
X139660710Y-35531919D01*
X139711219Y-35467574D01*
X139765596Y-35409962D01*
X139823428Y-35359588D01*
X139850416Y-35339454D01*
X139869199Y-35325825D01*
X139882601Y-35315035D01*
X139892355Y-35305335D01*
X139900196Y-35294975D01*
X139907859Y-35282206D01*
X139908733Y-35280637D01*
X139916663Y-35265633D01*
X139922899Y-35252514D01*
X139926251Y-35243811D01*
X139926429Y-35243055D01*
X139929081Y-35226529D01*
X139931985Y-35203423D01*
X139934951Y-35175613D01*
X139937607Y-35146901D01*
X140191200Y-35146901D01*
X140191295Y-35171615D01*
X140191703Y-35189374D01*
X140192600Y-35201689D01*
X140194166Y-35210069D01*
X140196579Y-35216026D01*
X140199973Y-35221012D01*
X140210626Y-35229334D01*
X140225598Y-35232107D01*
X140245603Y-35229340D01*
X140269488Y-35221747D01*
X140294476Y-35211555D01*
X140320608Y-35199242D01*
X140348660Y-35184336D01*
X140379407Y-35166368D01*
X140413625Y-35144867D01*
X140452089Y-35119364D01*
X140495575Y-35089387D01*
X140542047Y-35056479D01*
X140590448Y-35020746D01*
X140642305Y-34980444D01*
X140696477Y-34936579D01*
X140751826Y-34890156D01*
X140807213Y-34842181D01*
X140861497Y-34793660D01*
X140913541Y-34745599D01*
X140962205Y-34699003D01*
X141006349Y-34654879D01*
X141021756Y-34638606D01*
X141276260Y-34638606D01*
X141277674Y-34671835D01*
X141286726Y-34706235D01*
X141303188Y-34741163D01*
X141326826Y-34775973D01*
X141354525Y-34807153D01*
X141397739Y-34844961D01*
X141448122Y-34878911D01*
X141505214Y-34908830D01*
X141568561Y-34934542D01*
X141637704Y-34955871D01*
X141712188Y-34972643D01*
X141791555Y-34984683D01*
X141827383Y-34988389D01*
X141850891Y-34990369D01*
X141871501Y-34991736D01*
X141890873Y-34992478D01*
X141910669Y-34992580D01*
X141932550Y-34992030D01*
X141958178Y-34990814D01*
X141989215Y-34988919D01*
X142020000Y-34986840D01*
X142087666Y-34979952D01*
X142154785Y-34968887D01*
X142219519Y-34954073D01*
X142280031Y-34935938D01*
X142334484Y-34914909D01*
X142340488Y-34912228D01*
X142381458Y-34890954D01*
X142419440Y-34866003D01*
X142453383Y-34838341D01*
X142482236Y-34808936D01*
X142504949Y-34778756D01*
X142520471Y-34748768D01*
X142521828Y-34745152D01*
X142531903Y-34705990D01*
X142533852Y-34667086D01*
X142527621Y-34628288D01*
X142513156Y-34589446D01*
X142490402Y-34550410D01*
X142459306Y-34511029D01*
X142425380Y-34476327D01*
X142389937Y-34446082D01*
X142635675Y-34446082D01*
X142638039Y-34457363D01*
X142638174Y-34457866D01*
X142646701Y-34479538D01*
X142661665Y-34505795D01*
X142682675Y-34536209D01*
X142709343Y-34570355D01*
X142741280Y-34607805D01*
X142778097Y-34648132D01*
X142819405Y-34690911D01*
X142864816Y-34735715D01*
X142913940Y-34782116D01*
X142966388Y-34829689D01*
X143019066Y-34875690D01*
X143089009Y-34934678D01*
X143156110Y-34989296D01*
X143220043Y-35039315D01*
X143280479Y-35084506D01*
X143337090Y-35124640D01*
X143389549Y-35159488D01*
X143437528Y-35188821D01*
X143480699Y-35212411D01*
X143518733Y-35230029D01*
X143536352Y-35236747D01*
X143560723Y-35244423D01*
X143579122Y-35248126D01*
X143593011Y-35247944D01*
X143603848Y-35243960D01*
X143608089Y-35240975D01*
X143611892Y-35237577D01*
X143614564Y-35233644D01*
X143616283Y-35227767D01*
X143617227Y-35218535D01*
X143617576Y-35204540D01*
X143617507Y-35184372D01*
X143617331Y-35167950D01*
X143616027Y-35123197D01*
X143612960Y-35082460D01*
X143607748Y-35043491D01*
X143600008Y-35004042D01*
X143589357Y-34961868D01*
X143575413Y-34914721D01*
X143572734Y-34906200D01*
X143546120Y-34835577D01*
X143512268Y-34769166D01*
X143471034Y-34706736D01*
X143422273Y-34648059D01*
X143387376Y-34612681D01*
X143338677Y-34571295D01*
X143283446Y-34533141D01*
X143223261Y-34499020D01*
X143159698Y-34469735D01*
X143094338Y-34446086D01*
X143028756Y-34428876D01*
X143023507Y-34427794D01*
X142962688Y-34417977D01*
X142897153Y-34411817D01*
X142829880Y-34409435D01*
X142763845Y-34410949D01*
X142712149Y-34415248D01*
X142683850Y-34418743D01*
X142663041Y-34422164D01*
X142648772Y-34426060D01*
X142640089Y-34430979D01*
X142636041Y-34437470D01*
X142635675Y-34446082D01*
X142389937Y-34446082D01*
X142378771Y-34436554D01*
X142327662Y-34400913D01*
X142271244Y-34368973D01*
X142208710Y-34340302D01*
X142139249Y-34314469D01*
X142097139Y-34301115D01*
X142064960Y-34291924D01*
X142036475Y-34285001D01*
X142009447Y-34280040D01*
X141981637Y-34276733D01*
X141950809Y-34274775D01*
X141914726Y-34273857D01*
X141897233Y-34273708D01*
X141867783Y-34273686D01*
X141844537Y-34274081D01*
X141825232Y-34275089D01*
X141807607Y-34276901D01*
X141789403Y-34279712D01*
X141768357Y-34283715D01*
X141759650Y-34285485D01*
X141696596Y-34300342D01*
X141639434Y-34318132D01*
X141585821Y-34339820D01*
X141533413Y-34366370D01*
X141479868Y-34398745D01*
X141472231Y-34403742D01*
X141423164Y-34438671D01*
X141380275Y-34474496D01*
X141344023Y-34510724D01*
X141314868Y-34546861D01*
X141293270Y-34582413D01*
X141282718Y-34607191D01*
X141276260Y-34638606D01*
X141021756Y-34638606D01*
X141044834Y-34614231D01*
X141052266Y-34606036D01*
X141079984Y-34574720D01*
X141102525Y-34548060D01*
X141120804Y-34524832D01*
X141135736Y-34503813D01*
X141148236Y-34483777D01*
X141159218Y-34463501D01*
X141160133Y-34461682D01*
X141168119Y-34444919D01*
X141172757Y-34431876D01*
X141173338Y-34421949D01*
X141169150Y-34414534D01*
X141159483Y-34409025D01*
X141143626Y-34404818D01*
X141120869Y-34401308D01*
X141090501Y-34397891D01*
X141084433Y-34397265D01*
X141001916Y-34392287D01*
X140920134Y-34394137D01*
X140839949Y-34402629D01*
X140762220Y-34417581D01*
X140687808Y-34438806D01*
X140617573Y-34466120D01*
X140552377Y-34499339D01*
X140522194Y-34517936D01*
X140459128Y-34563705D01*
X140403027Y-34613859D01*
X140353659Y-34668729D01*
X140310787Y-34728649D01*
X140274177Y-34793948D01*
X140243596Y-34864959D01*
X140218807Y-34942013D01*
X140216796Y-34949466D01*
X140203562Y-35007034D01*
X140195321Y-35062638D01*
X140191563Y-35120200D01*
X140191200Y-35146901D01*
X139937607Y-35146901D01*
X139937786Y-35144974D01*
X139940299Y-35113380D01*
X139941584Y-35094583D01*
X139943887Y-35061077D01*
X139946271Y-35033640D01*
X139949073Y-35009878D01*
X139952630Y-34987397D01*
X139957280Y-34963802D01*
X139963359Y-34936701D01*
X139964553Y-34931600D01*
X139987501Y-34848525D01*
X140016170Y-34770899D01*
X140050901Y-34698240D01*
X140092033Y-34630066D01*
X140139908Y-34565895D01*
X140194866Y-34505244D01*
X140257247Y-34447632D01*
X140327392Y-34392576D01*
X140362649Y-34367778D01*
X140383098Y-34354065D01*
X140403998Y-34340391D01*
X140422851Y-34328372D01*
X140436733Y-34319872D01*
X140450204Y-34311874D01*
X140460605Y-34305591D01*
X140465978Y-34302208D01*
X140466244Y-34302012D01*
X140465547Y-34299003D01*
X140457622Y-34294472D01*
X140442123Y-34288258D01*
X140421916Y-34281259D01*
X140381972Y-34266160D01*
X140349459Y-34249896D01*
X140331198Y-34237791D01*
X140319888Y-34226906D01*
X140307521Y-34211510D01*
X140295902Y-34194264D01*
X140286833Y-34177828D01*
X140282267Y-34165599D01*
X140279125Y-34156370D01*
X140273324Y-34148982D01*
X140263391Y-34142389D01*
X140247848Y-34135544D01*
X140231416Y-34129544D01*
X140187808Y-34111158D01*
X140151543Y-34088893D01*
X140122280Y-34062430D01*
X140099681Y-34031452D01*
X140083407Y-33995640D01*
X140081084Y-33988529D01*
X140076059Y-33973591D01*
X140071250Y-33961506D01*
X140067805Y-33955060D01*
X140062396Y-33950223D01*
X140051851Y-33942019D01*
X140038022Y-33931863D01*
X140030851Y-33926775D01*
X140002797Y-33904867D01*
X139976487Y-33880150D01*
X139953610Y-33854438D01*
X139935852Y-33829544D01*
X139929236Y-33817597D01*
X139917870Y-33787418D01*
X139911511Y-33757236D01*
X139906929Y-33723755D01*
X139874139Y-33691619D01*
X139852826Y-33669040D01*
X139837172Y-33648249D01*
X139827088Y-33630457D01*
X139820809Y-33617057D01*
X139816587Y-33605659D01*
X139813916Y-33593815D01*
X139812293Y-33579075D01*
X139811212Y-33558991D01*
X139810942Y-33552197D01*
X139809057Y-33502964D01*
X139782421Y-33465868D01*
X139769846Y-33447565D01*
X139757905Y-33428810D01*
X139748341Y-33412404D01*
X139744619Y-33405171D01*
X139734135Y-33373963D01*
X139730456Y-33340598D01*
X139733816Y-33307904D01*
X139735854Y-33299924D01*
X139743030Y-33275241D01*
X139727705Y-33251462D01*
X139706727Y-33214629D01*
X139693357Y-33180489D01*
X139688977Y-33156111D01*
X139873694Y-33156111D01*
X139876476Y-33163730D01*
X139884002Y-33175848D01*
X139895061Y-33190943D01*
X139908441Y-33207495D01*
X139922930Y-33223985D01*
X139937317Y-33238893D01*
X139946405Y-33247334D01*
X139977940Y-33275371D01*
X140002728Y-33298470D01*
X140020845Y-33316707D01*
X140032365Y-33330159D01*
X140037363Y-33338905D01*
X140037416Y-33341599D01*
X140029430Y-33351011D01*
X140013904Y-33357121D01*
X139990745Y-33359952D01*
X139959858Y-33359524D01*
X139959241Y-33359487D01*
X139915666Y-33356858D01*
X139929390Y-33376937D01*
X139938942Y-33389414D01*
X139952907Y-33405217D01*
X139971716Y-33424786D01*
X139995804Y-33448561D01*
X140025602Y-33476982D01*
X140053777Y-33503297D01*
X140069620Y-33518223D01*
X140082956Y-33531234D01*
X140092670Y-33541208D01*
X140097648Y-33547022D01*
X140098066Y-33547893D01*
X140094106Y-33553220D01*
X140083315Y-33558108D01*
X140067329Y-33562129D01*
X140047786Y-33564855D01*
X140029481Y-33565835D01*
X139992645Y-33566350D01*
X140006197Y-33580516D01*
X140022603Y-33596332D01*
X140044661Y-33615618D01*
X140070936Y-33637212D01*
X140099992Y-33659951D01*
X140130395Y-33682676D01*
X140148700Y-33695830D01*
X140169378Y-33710501D01*
X140183982Y-33721147D01*
X140193360Y-33728618D01*
X140198361Y-33733765D01*
X140199830Y-33737440D01*
X140198617Y-33740494D01*
X140196013Y-33743334D01*
X140189576Y-33747696D01*
X140179187Y-33751044D01*
X140163215Y-33753784D01*
X140146099Y-33755732D01*
X140128043Y-33757800D01*
X140113202Y-33759989D01*
X140103570Y-33761980D01*
X140101087Y-33762974D01*
X140102408Y-33766968D01*
X140110350Y-33774381D01*
X140124057Y-33784667D01*
X140142670Y-33797277D01*
X140165331Y-33811665D01*
X140191183Y-33827283D01*
X140219367Y-33843584D01*
X140249026Y-33860022D01*
X140274354Y-33873484D01*
X140366095Y-33921243D01*
X140354778Y-33930978D01*
X140343157Y-33938215D01*
X140326674Y-33945290D01*
X140308864Y-33950929D01*
X140293258Y-33953857D01*
X140290973Y-33953997D01*
X140279412Y-33955855D01*
X140273749Y-33957623D01*
X140271987Y-33961035D01*
X140277581Y-33966583D01*
X140289782Y-33973951D01*
X140307844Y-33982819D01*
X140331020Y-33992870D01*
X140358561Y-34003785D01*
X140389721Y-34015247D01*
X140423752Y-34026936D01*
X140459906Y-34038536D01*
X140473775Y-34042773D01*
X140494869Y-34049284D01*
X140512743Y-34055100D01*
X140525987Y-34059740D01*
X140533188Y-34062718D01*
X140534084Y-34063414D01*
X140532069Y-34068317D01*
X140527121Y-34077248D01*
X140525911Y-34079260D01*
X140514604Y-34091267D01*
X140495750Y-34103114D01*
X140491067Y-34105446D01*
X140464381Y-34118254D01*
X140477015Y-34123183D01*
X140515209Y-34135492D01*
X140559447Y-34145259D01*
X140607581Y-34152067D01*
X140640121Y-34154720D01*
X140663427Y-34156491D01*
X140687964Y-34159069D01*
X140711979Y-34162192D01*
X140733718Y-34165597D01*
X140751426Y-34169023D01*
X140763349Y-34172205D01*
X140766656Y-34173662D01*
X140770172Y-34177551D01*
X140769433Y-34184167D01*
X140767035Y-34190520D01*
X140761677Y-34199144D01*
X140752599Y-34209993D01*
X140741772Y-34221117D01*
X140731165Y-34230565D01*
X140722748Y-34236385D01*
X140719770Y-34237333D01*
X140716205Y-34240539D01*
X140716133Y-34241334D01*
X140719974Y-34244012D01*
X140729940Y-34246183D01*
X140743689Y-34247593D01*
X140758883Y-34247987D01*
X140771166Y-34247335D01*
X140780642Y-34246552D01*
X140796622Y-34245420D01*
X140817154Y-34244068D01*
X140840288Y-34242629D01*
X140849483Y-34242078D01*
X140878531Y-34240173D01*
X140903601Y-34238005D01*
X140926965Y-34235249D01*
X140950897Y-34231584D01*
X140977671Y-34226685D01*
X141009561Y-34220229D01*
X141023049Y-34217394D01*
X141095254Y-34199071D01*
X141161725Y-34175952D01*
X141222169Y-34148229D01*
X141276293Y-34116092D01*
X141323807Y-34079731D01*
X141364417Y-34039337D01*
X141397830Y-33995100D01*
X141417729Y-33960050D01*
X141430292Y-33933283D01*
X141440216Y-33909354D01*
X141447115Y-33889382D01*
X141450605Y-33874488D01*
X141450299Y-33865792D01*
X141450216Y-33865616D01*
X141445102Y-33858837D01*
X141434528Y-33847399D01*
X141419437Y-33832180D01*
X141400773Y-33814059D01*
X141379481Y-33793915D01*
X141356504Y-33772627D01*
X141332787Y-33751072D01*
X141309273Y-33730131D01*
X141286906Y-33710682D01*
X141266631Y-33693602D01*
X141257007Y-33685773D01*
X141197930Y-33639958D01*
X141132487Y-33591928D01*
X141062140Y-33542688D01*
X140988352Y-33493247D01*
X140912585Y-33444611D01*
X140855833Y-33409566D01*
X140825724Y-33391568D01*
X140790034Y-33370689D01*
X140750044Y-33347644D01*
X140707031Y-33323147D01*
X140662275Y-33297913D01*
X140617055Y-33272655D01*
X140572650Y-33248087D01*
X140530338Y-33224924D01*
X140491399Y-33203880D01*
X140457112Y-33185670D01*
X140428756Y-33171006D01*
X140427208Y-33170223D01*
X140396871Y-33154703D01*
X140373799Y-33142426D01*
X140357557Y-33133110D01*
X140347713Y-33126473D01*
X140343832Y-33122234D01*
X140345480Y-33120111D01*
X140349426Y-33119733D01*
X140354734Y-33121130D01*
X140366850Y-33125053D01*
X140384640Y-33131093D01*
X140406968Y-33138846D01*
X140432701Y-33147904D01*
X140460702Y-33157863D01*
X140489838Y-33168315D01*
X140518973Y-33178854D01*
X140546973Y-33189075D01*
X140572702Y-33198572D01*
X140595026Y-33206937D01*
X140612810Y-33213765D01*
X140618920Y-33216184D01*
X140638902Y-33224420D01*
X140665080Y-33235531D01*
X140695957Y-33248854D01*
X140730036Y-33263726D01*
X140765821Y-33279488D01*
X140801814Y-33295475D01*
X140836520Y-33311027D01*
X140868440Y-33325482D01*
X140896079Y-33338177D01*
X140917216Y-33348104D01*
X141035938Y-33408239D01*
X141155619Y-33475488D01*
X141274703Y-33548882D01*
X141391632Y-33627450D01*
X141504851Y-33710222D01*
X141532323Y-33731404D01*
X141544742Y-33740835D01*
X141554509Y-33746664D01*
X141563380Y-33748703D01*
X141573112Y-33746764D01*
X141585461Y-33740657D01*
X141602182Y-33730193D01*
X141613649Y-33722665D01*
X141656562Y-33690113D01*
X141691916Y-33653861D01*
X141719891Y-33613645D01*
X141740665Y-33569202D01*
X141754417Y-33520267D01*
X141755722Y-33513433D01*
X141758870Y-33491445D01*
X142041225Y-33491445D01*
X142041464Y-33506838D01*
X142042414Y-33518884D01*
X142044234Y-33529288D01*
X142047085Y-33539756D01*
X142051128Y-33551994D01*
X142052880Y-33557086D01*
X142066810Y-33592376D01*
X142082985Y-33622281D01*
X142103318Y-33649877D01*
X142125833Y-33674354D01*
X142143246Y-33690590D01*
X142162690Y-33706560D01*
X142182636Y-33721224D01*
X142201555Y-33733543D01*
X142217916Y-33742476D01*
X142230189Y-33746984D01*
X142233201Y-33747325D01*
X142239732Y-33744749D01*
X142252242Y-33737305D01*
X142270103Y-33725416D01*
X142292686Y-33709506D01*
X142319360Y-33689999D01*
X142329363Y-33682538D01*
X142418712Y-33617604D01*
X142506027Y-33558442D01*
X142593668Y-33503587D01*
X142683995Y-33451574D01*
X142779368Y-33400938D01*
X142798933Y-33391010D01*
X142880793Y-33350327D01*
X142957238Y-33313591D01*
X143029929Y-33280095D01*
X143100526Y-33249135D01*
X143170688Y-33220004D01*
X143242076Y-33191997D01*
X143316349Y-33164409D01*
X143395167Y-33136534D01*
X143408269Y-33132015D01*
X143426086Y-33125876D01*
X143437350Y-33122152D01*
X143443549Y-33120611D01*
X143446172Y-33121021D01*
X143446708Y-33123150D01*
X143446633Y-33126036D01*
X143442985Y-33130815D01*
X143432992Y-33137981D01*
X143418082Y-33146562D01*
X143411708Y-33149849D01*
X143380183Y-33165956D01*
X143342607Y-33185659D01*
X143300228Y-33208269D01*
X143254298Y-33233095D01*
X143206067Y-33259448D01*
X143156783Y-33286637D01*
X143107698Y-33313974D01*
X143060061Y-33340767D01*
X143015122Y-33366328D01*
X142974132Y-33389967D01*
X142938340Y-33410993D01*
X142936516Y-33412078D01*
X142874124Y-33450364D01*
X142809544Y-33492091D01*
X142744217Y-33536226D01*
X142679587Y-33581736D01*
X142617094Y-33627590D01*
X142558181Y-33672754D01*
X142504291Y-33716194D01*
X142464507Y-33750116D01*
X142446991Y-33765795D01*
X142428027Y-33783245D01*
X142408721Y-33801395D01*
X142390180Y-33819175D01*
X142373509Y-33835512D01*
X142359813Y-33849336D01*
X142350200Y-33859576D01*
X142345817Y-33865078D01*
X142345249Y-33873521D01*
X142348676Y-33888492D01*
X142352832Y-33900950D01*
X142377279Y-33956728D01*
X142408322Y-34007438D01*
X142446048Y-34053157D01*
X142490540Y-34093962D01*
X142541881Y-34129929D01*
X142600157Y-34161136D01*
X142665450Y-34187658D01*
X142667864Y-34188503D01*
X142710186Y-34202394D01*
X142750436Y-34213675D01*
X142790497Y-34222685D01*
X142832250Y-34229764D01*
X142877577Y-34235253D01*
X142928360Y-34239492D01*
X142961283Y-34241523D01*
X142984291Y-34242955D01*
X143004251Y-34244497D01*
X143019665Y-34246008D01*
X143029032Y-34247350D01*
X143031133Y-34248023D01*
X143036455Y-34248991D01*
X143046928Y-34248689D01*
X143059391Y-34247452D01*
X143070682Y-34245612D01*
X143077640Y-34243502D01*
X143078249Y-34243061D01*
X143076984Y-34239316D01*
X143071976Y-34234787D01*
X143055079Y-34220954D01*
X143041746Y-34206780D01*
X143032765Y-34193494D01*
X143028923Y-34182325D01*
X143031004Y-34174503D01*
X143032579Y-34173191D01*
X143040538Y-34169288D01*
X143052015Y-34165879D01*
X143068040Y-34162794D01*
X143089640Y-34159865D01*
X143117844Y-34156920D01*
X143146066Y-34154420D01*
X143195906Y-34149477D01*
X143238827Y-34143613D01*
X143274397Y-34136903D01*
X143302187Y-34129423D01*
X143313685Y-34125142D01*
X143330216Y-34118122D01*
X143306296Y-34105906D01*
X143288617Y-34095179D01*
X143274839Y-34083503D01*
X143266457Y-34072323D01*
X143264599Y-34065568D01*
X143268504Y-34061748D01*
X143279327Y-34056643D01*
X143295731Y-34050850D01*
X143301641Y-34049037D01*
X143336498Y-34038293D01*
X143371186Y-34026891D01*
X143404766Y-34015204D01*
X143436301Y-34003601D01*
X143464853Y-33992455D01*
X143489485Y-33982137D01*
X143509260Y-33973018D01*
X143523239Y-33965470D01*
X143530485Y-33959864D01*
X143531299Y-33958065D01*
X143527464Y-33955968D01*
X143517531Y-33953980D01*
X143506958Y-33952822D01*
X143489590Y-33950192D01*
X143472113Y-33945432D01*
X143456488Y-33939347D01*
X143444676Y-33932742D01*
X143438637Y-33926424D01*
X143438245Y-33924603D01*
X143441985Y-33919954D01*
X143453199Y-33912205D01*
X143471980Y-33901300D01*
X143498423Y-33887181D01*
X143513137Y-33879616D01*
X143551243Y-33859531D01*
X143587851Y-33838943D01*
X143621622Y-33818677D01*
X143651218Y-33799554D01*
X143675298Y-33782398D01*
X143687933Y-33772194D01*
X143702750Y-33759310D01*
X143676500Y-33759138D01*
X143651045Y-33757683D01*
X143627978Y-33753956D01*
X143609391Y-33748407D01*
X143598416Y-33742385D01*
X143593967Y-33738413D01*
X143593014Y-33735070D01*
X143596552Y-33730965D01*
X143605575Y-33724705D01*
X143615546Y-33718384D01*
X143632647Y-33707010D01*
X143652926Y-33692552D01*
X143675305Y-33675879D01*
X143698707Y-33657860D01*
X143722055Y-33639364D01*
X143744272Y-33621259D01*
X143764281Y-33604414D01*
X143781005Y-33589698D01*
X143793368Y-33577980D01*
X143800292Y-33570128D01*
X143801144Y-33568664D01*
X143797734Y-33567564D01*
X143787754Y-33566648D01*
X143773102Y-33566066D01*
X143767277Y-33565970D01*
X143745831Y-33564696D01*
X143727108Y-33561649D01*
X143712551Y-33557261D01*
X143703603Y-33551965D01*
X143701667Y-33546301D01*
X143705188Y-33541949D01*
X143714025Y-33532813D01*
X143727235Y-33519816D01*
X143743876Y-33503880D01*
X143763008Y-33485925D01*
X143769867Y-33479566D01*
X143791601Y-33458963D01*
X143812884Y-33437847D01*
X143832837Y-33417182D01*
X143850585Y-33397933D01*
X143865250Y-33381064D01*
X143875953Y-33367541D01*
X143881819Y-33358328D01*
X143882666Y-33355521D01*
X143879034Y-33355055D01*
X143869996Y-33356443D01*
X143866791Y-33357144D01*
X143839011Y-33361051D01*
X143810985Y-33360498D01*
X143785177Y-33355773D01*
X143764048Y-33347161D01*
X143760197Y-33344723D01*
X143757989Y-33339376D01*
X143762039Y-33330461D01*
X143772551Y-33317747D01*
X143789724Y-33301001D01*
X143813759Y-33279992D01*
X143822940Y-33272324D01*
X143841133Y-33256832D01*
X143858316Y-33241420D01*
X143872705Y-33227741D01*
X143882513Y-33217447D01*
X143883443Y-33216341D01*
X143892612Y-33204484D01*
X143902561Y-33190586D01*
X143912007Y-33176582D01*
X143919665Y-33164410D01*
X143924251Y-33156005D01*
X143925000Y-33153673D01*
X143921032Y-33152866D01*
X143910175Y-33152430D01*
X143894000Y-33152389D01*
X143874078Y-33152765D01*
X143870025Y-33152884D01*
X143847307Y-33153481D01*
X143831648Y-33153520D01*
X143821651Y-33152867D01*
X143815919Y-33151389D01*
X143813056Y-33148953D01*
X143812282Y-33147384D01*
X143811576Y-33136458D01*
X143814917Y-33119682D01*
X143821768Y-33098325D01*
X143831592Y-33073655D01*
X143843851Y-33046940D01*
X143858009Y-33019450D01*
X143873530Y-32992453D01*
X143886360Y-32972368D01*
X143912518Y-32933466D01*
X143799167Y-32933048D01*
X143756452Y-32932767D01*
X143721529Y-32932241D01*
X143693728Y-32931422D01*
X143672375Y-32930263D01*
X143656801Y-32928716D01*
X143646332Y-32926735D01*
X143640298Y-32924272D01*
X143638143Y-32921732D01*
X143640210Y-32916690D01*
X143647178Y-32907177D01*
X143657899Y-32894647D01*
X143668725Y-32883096D01*
X143701085Y-32849844D01*
X143672648Y-32844478D01*
X143637620Y-32840549D01*
X143598026Y-32841248D01*
X143553187Y-32846641D01*
X143502425Y-32856793D01*
X143475259Y-32863505D01*
X143451110Y-32869574D01*
X143429518Y-32874581D01*
X143411922Y-32878225D01*
X143399760Y-32880207D01*
X143394644Y-32880320D01*
X143387152Y-32873486D01*
X143381970Y-32861475D01*
X143380194Y-32847490D01*
X143380999Y-32840412D01*
X143385682Y-32830202D01*
X143395186Y-32816849D01*
X143406669Y-32803905D01*
X143416382Y-32793353D01*
X143422123Y-32785870D01*
X143422983Y-32782696D01*
X143422163Y-32782766D01*
X143414894Y-32784376D01*
X143401587Y-32786835D01*
X143384579Y-32789721D01*
X143376184Y-32791072D01*
X143358787Y-32794433D01*
X143335668Y-32799779D01*
X143309170Y-32806521D01*
X143281638Y-32814071D01*
X143264490Y-32819077D01*
X143236910Y-32827039D01*
X143213698Y-32833121D01*
X143195898Y-32837076D01*
X143184554Y-32838662D01*
X143181667Y-32838498D01*
X143173522Y-32833337D01*
X143169188Y-32821909D01*
X143169160Y-32821763D01*
X143169259Y-32806354D01*
X143175734Y-32790386D01*
X143189137Y-32772786D01*
X143200002Y-32761694D01*
X143209652Y-32751747D01*
X143215751Y-32744075D01*
X143216992Y-32740514D01*
X143211049Y-32739762D01*
X143198691Y-32741707D01*
X143181356Y-32745885D01*
X143160482Y-32751831D01*
X143137510Y-32759082D01*
X143113876Y-32767172D01*
X143091021Y-32775640D01*
X143070383Y-32784019D01*
X143053400Y-32791846D01*
X143046583Y-32795491D01*
X143034004Y-32802713D01*
X143017749Y-32812050D01*
X143002472Y-32820830D01*
X142988536Y-32828157D01*
X142976988Y-32832993D01*
X142970094Y-32834406D01*
X142969688Y-32834302D01*
X142962420Y-32828157D01*
X142955072Y-32816977D01*
X142949388Y-32803996D01*
X142947115Y-32792498D01*
X142949846Y-32777949D01*
X142956935Y-32761428D01*
X142966677Y-32746868D01*
X142967094Y-32746386D01*
X142972345Y-32738879D01*
X142971408Y-32735729D01*
X142965074Y-32736500D01*
X142954136Y-32740757D01*
X142939386Y-32748066D01*
X142921616Y-32757992D01*
X142901618Y-32770100D01*
X142880185Y-32783955D01*
X142858108Y-32799122D01*
X142836179Y-32815166D01*
X142822482Y-32825778D01*
X142804692Y-32839606D01*
X142789071Y-32851183D01*
X142776868Y-32859628D01*
X142769331Y-32864059D01*
X142767675Y-32864486D01*
X142763110Y-32860451D01*
X142755746Y-32851499D01*
X142749418Y-32842768D01*
X142741393Y-32829953D01*
X142737174Y-32818818D01*
X142735597Y-32805418D01*
X142735433Y-32795421D01*
X142734906Y-32781540D01*
X142733528Y-32771781D01*
X142731736Y-32768366D01*
X142725692Y-32771105D01*
X142714694Y-32778652D01*
X142699944Y-32790003D01*
X142682643Y-32804152D01*
X142663994Y-32820095D01*
X142645197Y-32836828D01*
X142627455Y-32853344D01*
X142612681Y-32867910D01*
X142596510Y-32884357D01*
X142585045Y-32895527D01*
X142577115Y-32902234D01*
X142571546Y-32905293D01*
X142567166Y-32905520D01*
X142562802Y-32903729D01*
X142561881Y-32903229D01*
X142553644Y-32896020D01*
X142544940Y-32884445D01*
X142541451Y-32878393D01*
X142535526Y-32864848D01*
X142533258Y-32852217D01*
X142533881Y-32836056D01*
X142533977Y-32835041D01*
X142534827Y-32822001D01*
X142534612Y-32813167D01*
X142533696Y-32810700D01*
X142528125Y-32813676D01*
X142517927Y-32821935D01*
X142504144Y-32834467D01*
X142487817Y-32850267D01*
X142469989Y-32868326D01*
X142451700Y-32887638D01*
X142434440Y-32906689D01*
X142409947Y-32934308D01*
X142390356Y-32956144D01*
X142375045Y-32972829D01*
X142363391Y-32984996D01*
X142354773Y-32993279D01*
X142348570Y-32998311D01*
X142344159Y-33000726D01*
X142341640Y-33001200D01*
X142335913Y-32997449D01*
X142329112Y-32987579D01*
X142322294Y-32973665D01*
X142316521Y-32957781D01*
X142313610Y-32946313D01*
X142310231Y-32934499D01*
X142305494Y-32929219D01*
X142298473Y-32930571D01*
X142288245Y-32938655D01*
X142276910Y-32950276D01*
X142246511Y-32985549D01*
X142214357Y-33027355D01*
X142181470Y-33074229D01*
X142148875Y-33124705D01*
X142117594Y-33177318D01*
X142114244Y-33183233D01*
X142104311Y-33202769D01*
X142092976Y-33228173D01*
X142081149Y-33257170D01*
X142069738Y-33287482D01*
X142059655Y-33316833D01*
X142055278Y-33330824D01*
X142051149Y-33345538D01*
X142048090Y-33359358D01*
X142045887Y-33374146D01*
X142044325Y-33391766D01*
X142043188Y-33414079D01*
X142042261Y-33442949D01*
X142042238Y-33443797D01*
X142041537Y-33471000D01*
X142041225Y-33491445D01*
X141758870Y-33491445D01*
X141759915Y-33484149D01*
X141761232Y-33456379D01*
X141759615Y-33427274D01*
X141755005Y-33393983D01*
X141753026Y-33382731D01*
X141737043Y-33316650D01*
X141713123Y-33249219D01*
X141681574Y-33181016D01*
X141642701Y-33112617D01*
X141596814Y-33044602D01*
X141544217Y-32977547D01*
X141526628Y-32957079D01*
X141493481Y-32919308D01*
X141482299Y-32954086D01*
X141474461Y-32976227D01*
X141467414Y-32990772D01*
X141460595Y-32998483D01*
X141453439Y-33000122D01*
X141449239Y-32998752D01*
X141443988Y-32994465D01*
X141434188Y-32984855D01*
X141420856Y-32970981D01*
X141405007Y-32953901D01*
X141387658Y-32934675D01*
X141386617Y-32933505D01*
X141363050Y-32907388D01*
X141340181Y-32882780D01*
X141318872Y-32860552D01*
X141299983Y-32841577D01*
X141284376Y-32826727D01*
X141272912Y-32816873D01*
X141268280Y-32813664D01*
X141265106Y-32813249D01*
X141263252Y-32817350D01*
X141262401Y-32827371D01*
X141262233Y-32840681D01*
X141260113Y-32866297D01*
X141253384Y-32885786D01*
X141241486Y-32900456D01*
X141234518Y-32905690D01*
X141227508Y-32909672D01*
X141222495Y-32909232D01*
X141216570Y-32903438D01*
X141212738Y-32898720D01*
X141197541Y-32881375D01*
X141177637Y-32860997D01*
X141155147Y-32839557D01*
X141132193Y-32819026D01*
X141110896Y-32801377D01*
X141096381Y-32790591D01*
X141082093Y-32780902D01*
X141070635Y-32773352D01*
X141063640Y-32769006D01*
X141062304Y-32768366D01*
X141061678Y-32772195D01*
X141061781Y-32782126D01*
X141062397Y-32793087D01*
X141061962Y-32815137D01*
X141056234Y-32832809D01*
X141044054Y-32849114D01*
X141038869Y-32854285D01*
X141026416Y-32866120D01*
X141004134Y-32847935D01*
X140969658Y-32820397D01*
X140939905Y-32798005D01*
X140913640Y-32779887D01*
X140889632Y-32765172D01*
X140877436Y-32758475D01*
X140856530Y-32747742D01*
X140842242Y-32741309D01*
X140833901Y-32739173D01*
X140830834Y-32741328D01*
X140832370Y-32747768D01*
X140837658Y-32758168D01*
X140846138Y-32779327D01*
X140848162Y-32799747D01*
X140843613Y-32817463D01*
X140841496Y-32821145D01*
X140833973Y-32828862D01*
X140826452Y-32831866D01*
X140819791Y-32829967D01*
X140807407Y-32824784D01*
X140791012Y-32817087D01*
X140772317Y-32807644D01*
X140770458Y-32806672D01*
X140748821Y-32795678D01*
X140726572Y-32784995D01*
X140706500Y-32775929D01*
X140692850Y-32770325D01*
X140676973Y-32764754D01*
X140657729Y-32758603D01*
X140637103Y-32752434D01*
X140617082Y-32746809D01*
X140599652Y-32742292D01*
X140586800Y-32739444D01*
X140581388Y-32738744D01*
X140581523Y-32741585D01*
X140586532Y-32749220D01*
X140595461Y-32760302D01*
X140601632Y-32767308D01*
X140613510Y-32781181D01*
X140623142Y-32793836D01*
X140629032Y-32803246D01*
X140630023Y-32805720D01*
X140630066Y-32817939D01*
X140625560Y-32829981D01*
X140618044Y-32838105D01*
X140616369Y-32838909D01*
X140609730Y-32838781D01*
X140597052Y-32836416D01*
X140580331Y-32832240D01*
X140566442Y-32828210D01*
X140545072Y-32821971D01*
X140520276Y-32815250D01*
X140493621Y-32808417D01*
X140466676Y-32801840D01*
X140441006Y-32795890D01*
X140418179Y-32790935D01*
X140399762Y-32787345D01*
X140387323Y-32785490D01*
X140384406Y-32785316D01*
X140376131Y-32785613D01*
X140375521Y-32787706D01*
X140381018Y-32792708D01*
X140388541Y-32800780D01*
X140397594Y-32812816D01*
X140406684Y-32826496D01*
X140414318Y-32839499D01*
X140419001Y-32849505D01*
X140419778Y-32852936D01*
X140417263Y-32860397D01*
X140411138Y-32870122D01*
X140410190Y-32871338D01*
X140400623Y-32883294D01*
X140349886Y-32870531D01*
X140305604Y-32859787D01*
X140268171Y-32851619D01*
X140236439Y-32845827D01*
X140209256Y-32842212D01*
X140185475Y-32840577D01*
X140175718Y-32840434D01*
X140151667Y-32841178D01*
X140130686Y-32843119D01*
X140114428Y-32846023D01*
X140104549Y-32849656D01*
X140103251Y-32850670D01*
X140104941Y-32854549D01*
X140111567Y-32862955D01*
X140121988Y-32874523D01*
X140131103Y-32883948D01*
X140147982Y-32902034D01*
X140158003Y-32915461D01*
X140161256Y-32924409D01*
X140157831Y-32929058D01*
X140154158Y-32929794D01*
X140148199Y-32930016D01*
X140134876Y-32930377D01*
X140115291Y-32930852D01*
X140090544Y-32931414D01*
X140061738Y-32932038D01*
X140029973Y-32932700D01*
X140016686Y-32932969D01*
X139886622Y-32935583D01*
X139912523Y-32975799D01*
X139929091Y-33002965D01*
X139944545Y-33031009D01*
X139958366Y-33058722D01*
X139970040Y-33084898D01*
X139979048Y-33108326D01*
X139984873Y-33127800D01*
X139987000Y-33142110D01*
X139986185Y-33147988D01*
X139983860Y-33150590D01*
X139978387Y-33152272D01*
X139968456Y-33153144D01*
X139952755Y-33153319D01*
X139929972Y-33152909D01*
X139928731Y-33152878D01*
X139903276Y-33152532D01*
X139885880Y-33153012D01*
X139876174Y-33154338D01*
X139873694Y-33156111D01*
X139688977Y-33156111D01*
X139687543Y-33148134D01*
X139689229Y-33116656D01*
X139698362Y-33085148D01*
X139714887Y-33052701D01*
X139715778Y-33051247D01*
X139730592Y-33027211D01*
X139718880Y-32998330D01*
X139713291Y-32983357D01*
X139709759Y-32969926D01*
X139707811Y-32955154D01*
X139706971Y-32936159D01*
X139706825Y-32924999D01*
X139706873Y-32904188D01*
X139707672Y-32889339D01*
X139709639Y-32877955D01*
X139713191Y-32867537D01*
X139718211Y-32856667D01*
X139735536Y-32830133D01*
X139759241Y-32806680D01*
X139787311Y-32788291D01*
X139788046Y-32787916D01*
X139806200Y-32780759D01*
X139829492Y-32774444D01*
X139855002Y-32769491D01*
X139879811Y-32766424D01*
X139901000Y-32765762D01*
X139908578Y-32766389D01*
X139919647Y-32767612D01*
X139927435Y-32766774D01*
X139934605Y-32762719D01*
X139943818Y-32754293D01*
X139949432Y-32748676D01*
X139981054Y-32721995D01*
X140016826Y-32701734D01*
X140057547Y-32687537D01*
X140104013Y-32679048D01*
X140105754Y-32678849D01*
X140128941Y-32676342D01*
X140145872Y-32674826D01*
X140158692Y-32674257D01*
X140169548Y-32674588D01*
X140180586Y-32675774D01*
X140189372Y-32677058D01*
X140201238Y-32678563D01*
X140209568Y-32677894D01*
X140217339Y-32674010D01*
X140227527Y-32665872D01*
X140231705Y-32662268D01*
X140247394Y-32650275D01*
X140265271Y-32638892D01*
X140275866Y-32633288D01*
X140286173Y-32628830D01*
X140296081Y-32625697D01*
X140307513Y-32623598D01*
X140322394Y-32622248D01*
X140342647Y-32621356D01*
X140358416Y-32620915D01*
X140382212Y-32620227D01*
X140399183Y-32619368D01*
X140410970Y-32618071D01*
X140419216Y-32616067D01*
X140425560Y-32613087D01*
X140431503Y-32608972D01*
X140457970Y-32592996D01*
X140489642Y-32580511D01*
X140520410Y-32573197D01*
X140553101Y-32570825D01*
X140589502Y-32573322D01*
X140626626Y-32580378D01*
X140647037Y-32586345D01*
X140661199Y-32590762D01*
X140672707Y-32593780D01*
X140678033Y-32594655D01*
X140684533Y-32592527D01*
X140695767Y-32586857D01*
X140709435Y-32578819D01*
X140711011Y-32577826D01*
X140737640Y-32560933D01*
X140793228Y-32560933D01*
X140818857Y-32561226D01*
%TO.C,X1*%
G36*
X84061818Y-34876182D02*
G01*
X83923273Y-34876182D01*
X83923273Y-34576000D01*
X84061818Y-34576000D01*
X84061818Y-34876182D01*
X84061818Y-34876182D01*
G37*
X84061818Y-34876182D02*
X83923273Y-34876182D01*
X83923273Y-34576000D01*
X84061818Y-34576000D01*
X84061818Y-34876182D01*
G36*
X83068909Y-34876182D02*
G01*
X82907273Y-34876182D01*
X82907273Y-34576000D01*
X83068909Y-34576000D01*
X83068909Y-34876182D01*
X83068909Y-34876182D01*
G37*
X83068909Y-34876182D02*
X82907273Y-34876182D01*
X82907273Y-34576000D01*
X83068909Y-34576000D01*
X83068909Y-34876182D01*
G36*
X83646182Y-35291818D02*
G01*
X83346000Y-35291818D01*
X83346000Y-35222546D01*
X83351722Y-35173480D01*
X83378711Y-35155395D01*
X83415273Y-35153273D01*
X83484546Y-35153273D01*
X83484546Y-34576000D01*
X83646182Y-34576000D01*
X83646182Y-35291818D01*
X83646182Y-35291818D01*
G37*
X83646182Y-35291818D02*
X83346000Y-35291818D01*
X83346000Y-35222546D01*
X83351722Y-35173480D01*
X83378711Y-35155395D01*
X83415273Y-35153273D01*
X83484546Y-35153273D01*
X83484546Y-34576000D01*
X83646182Y-34576000D01*
X83646182Y-35291818D01*
G36*
X83903066Y-35459176D02*
G01*
X83921151Y-35486165D01*
X83923273Y-35522727D01*
X83917551Y-35571793D01*
X83890562Y-35589878D01*
X83854000Y-35592000D01*
X83804934Y-35597722D01*
X83786850Y-35624711D01*
X83784727Y-35661273D01*
X83784727Y-35730546D01*
X83207455Y-35730546D01*
X83207455Y-35661273D01*
X83201733Y-35612207D01*
X83174744Y-35594122D01*
X83138182Y-35592000D01*
X83089116Y-35586278D01*
X83071031Y-35559289D01*
X83068909Y-35522727D01*
X83074631Y-35473661D01*
X83101620Y-35455577D01*
X83138182Y-35453455D01*
X83187248Y-35459176D01*
X83205332Y-35486165D01*
X83207455Y-35522727D01*
X83207455Y-35592000D01*
X83784727Y-35592000D01*
X83784727Y-35522727D01*
X83790449Y-35473661D01*
X83817438Y-35455577D01*
X83854000Y-35453455D01*
X83903066Y-35459176D01*
X83903066Y-35459176D01*
G37*
X83903066Y-35459176D02*
X83921151Y-35486165D01*
X83923273Y-35522727D01*
X83917551Y-35571793D01*
X83890562Y-35589878D01*
X83854000Y-35592000D01*
X83804934Y-35597722D01*
X83786850Y-35624711D01*
X83784727Y-35661273D01*
X83784727Y-35730546D01*
X83207455Y-35730546D01*
X83207455Y-35661273D01*
X83201733Y-35612207D01*
X83174744Y-35594122D01*
X83138182Y-35592000D01*
X83089116Y-35586278D01*
X83071031Y-35559289D01*
X83068909Y-35522727D01*
X83074631Y-35473661D01*
X83101620Y-35455577D01*
X83138182Y-35453455D01*
X83187248Y-35459176D01*
X83205332Y-35486165D01*
X83207455Y-35522727D01*
X83207455Y-35592000D01*
X83784727Y-35592000D01*
X83784727Y-35522727D01*
X83790449Y-35473661D01*
X83817438Y-35455577D01*
X83854000Y-35453455D01*
X83903066Y-35459176D01*
G36*
X84800727Y-34068000D02*
G01*
X84806449Y-34117066D01*
X84833438Y-34135151D01*
X84870000Y-34137273D01*
X84939273Y-34137273D01*
X84939273Y-36030727D01*
X84870000Y-36030727D01*
X84820934Y-36036449D01*
X84802850Y-36063438D01*
X84800727Y-36100000D01*
X84800727Y-36169273D01*
X82330000Y-36169273D01*
X82330000Y-36100000D01*
X82324278Y-36050934D01*
X82297289Y-36032850D01*
X82260727Y-36030727D01*
X82191455Y-36030727D01*
X82191455Y-34137273D01*
X82260727Y-34137273D01*
X82330000Y-34137273D01*
X82330000Y-36030727D01*
X84800727Y-36030727D01*
X84800727Y-34137273D01*
X82330000Y-34137273D01*
X82260727Y-34137273D01*
X82309793Y-34131551D01*
X82327878Y-34104562D01*
X82330000Y-34068000D01*
X82330000Y-33998727D01*
X84800727Y-33998727D01*
X84800727Y-34068000D01*
X84800727Y-34068000D01*
G37*
X84800727Y-34068000D02*
X84806449Y-34117066D01*
X84833438Y-34135151D01*
X84870000Y-34137273D01*
X84939273Y-34137273D01*
X84939273Y-36030727D01*
X84870000Y-36030727D01*
X84820934Y-36036449D01*
X84802850Y-36063438D01*
X84800727Y-36100000D01*
X84800727Y-36169273D01*
X82330000Y-36169273D01*
X82330000Y-36100000D01*
X82324278Y-36050934D01*
X82297289Y-36032850D01*
X82260727Y-36030727D01*
X82191455Y-36030727D01*
X82191455Y-34137273D01*
X82260727Y-34137273D01*
X82330000Y-34137273D01*
X82330000Y-36030727D01*
X84800727Y-36030727D01*
X84800727Y-34137273D01*
X82330000Y-34137273D01*
X82260727Y-34137273D01*
X82309793Y-34131551D01*
X82327878Y-34104562D01*
X82330000Y-34068000D01*
X82330000Y-33998727D01*
X84800727Y-33998727D01*
X84800727Y-34068000D01*
G36*
X84800727Y-36885091D02*
G01*
X83923273Y-36885091D01*
X83923273Y-36746546D01*
X84800727Y-36746546D01*
X84800727Y-36885091D01*
X84800727Y-36885091D01*
G37*
X84800727Y-36885091D02*
X83923273Y-36885091D01*
X83923273Y-36746546D01*
X84800727Y-36746546D01*
X84800727Y-36885091D01*
G36*
X82491636Y-37023636D02*
G01*
X82191455Y-37023636D01*
X82191455Y-36885091D01*
X82491636Y-36885091D01*
X82491636Y-37023636D01*
X82491636Y-37023636D01*
G37*
X82491636Y-37023636D02*
X82191455Y-37023636D01*
X82191455Y-36885091D01*
X82491636Y-36885091D01*
X82491636Y-37023636D01*
G36*
X85077818Y-33640818D02*
G01*
X85081680Y-33695117D01*
X85101267Y-33717388D01*
X85147091Y-33721636D01*
X85196157Y-33727358D01*
X85214241Y-33754347D01*
X85216364Y-33790909D01*
X85220869Y-33837451D01*
X85243721Y-33856540D01*
X85297182Y-33860182D01*
X85378000Y-33860182D01*
X85378000Y-37462364D01*
X85216364Y-37462364D01*
X85216364Y-38178182D01*
X81914364Y-38178182D01*
X81914364Y-37600909D01*
X82052909Y-37600909D01*
X82052909Y-38039636D01*
X85077818Y-38039636D01*
X85077818Y-37600909D01*
X82052909Y-37600909D01*
X81914364Y-37600909D01*
X81914364Y-37462364D01*
X81752727Y-37462364D01*
X81752727Y-33860182D01*
X81833546Y-33860182D01*
X81914364Y-33860182D01*
X81914364Y-37462364D01*
X85216364Y-37462364D01*
X85216364Y-33860182D01*
X85147091Y-33860182D01*
X85098025Y-33854460D01*
X85079940Y-33827471D01*
X85077818Y-33790909D01*
X85077818Y-33721636D01*
X82052909Y-33721636D01*
X82052909Y-33790909D01*
X82047188Y-33839975D01*
X82020198Y-33858060D01*
X81983636Y-33860182D01*
X81914364Y-33860182D01*
X81833546Y-33860182D01*
X81887844Y-33856320D01*
X81910115Y-33836733D01*
X81914364Y-33790909D01*
X81920085Y-33741843D01*
X81947075Y-33723759D01*
X81983636Y-33721636D01*
X82030178Y-33717131D01*
X82049268Y-33694279D01*
X82052909Y-33640818D01*
X82052909Y-33560000D01*
X85077818Y-33560000D01*
X85077818Y-33640818D01*
X85077818Y-33640818D01*
G37*
X85077818Y-33640818D02*
X85081680Y-33695117D01*
X85101267Y-33717388D01*
X85147091Y-33721636D01*
X85196157Y-33727358D01*
X85214241Y-33754347D01*
X85216364Y-33790909D01*
X85220869Y-33837451D01*
X85243721Y-33856540D01*
X85297182Y-33860182D01*
X85378000Y-33860182D01*
X85378000Y-37462364D01*
X85216364Y-37462364D01*
X85216364Y-38178182D01*
X81914364Y-38178182D01*
X81914364Y-37600909D01*
X82052909Y-37600909D01*
X82052909Y-38039636D01*
X85077818Y-38039636D01*
X85077818Y-37600909D01*
X82052909Y-37600909D01*
X81914364Y-37600909D01*
X81914364Y-37462364D01*
X81752727Y-37462364D01*
X81752727Y-33860182D01*
X81833546Y-33860182D01*
X81914364Y-33860182D01*
X81914364Y-37462364D01*
X85216364Y-37462364D01*
X85216364Y-33860182D01*
X85147091Y-33860182D01*
X85098025Y-33854460D01*
X85079940Y-33827471D01*
X85077818Y-33790909D01*
X85077818Y-33721636D01*
X82052909Y-33721636D01*
X82052909Y-33790909D01*
X82047188Y-33839975D01*
X82020198Y-33858060D01*
X81983636Y-33860182D01*
X81914364Y-33860182D01*
X81833546Y-33860182D01*
X81887844Y-33856320D01*
X81910115Y-33836733D01*
X81914364Y-33790909D01*
X81920085Y-33741843D01*
X81947075Y-33723759D01*
X81983636Y-33721636D01*
X82030178Y-33717131D01*
X82049268Y-33694279D01*
X82052909Y-33640818D01*
X82052909Y-33560000D01*
X85077818Y-33560000D01*
X85077818Y-33640818D01*
%TD*%
%TO.C,J7*%
D12*
X82377666Y-25138380D02*
X82377666Y-25852666D01*
X82330047Y-25995523D01*
X82234809Y-26090761D01*
X82091952Y-26138380D01*
X81996714Y-26138380D01*
X82758619Y-25138380D02*
X83425285Y-25138380D01*
X82996714Y-26138380D01*
%TD*%
M02*
