%TF.GenerationSoftware,KiCad,Pcbnew,(5.1.6)-1*%
%TF.CreationDate,2020-06-27T22:48:14-05:00*%
%TF.ProjectId,rascsi_din,72617363-7369-45f6-9469-6e2e6b696361,rev?*%
%TF.SameCoordinates,Original*%
%TF.FileFunction,Copper,L2,Bot*%
%TF.FilePolarity,Positive*%
%FSLAX46Y46*%
G04 Gerber Fmt 4.6, Leading zero omitted, Abs format (unit mm)*
G04 Created by KiCad (PCBNEW (5.1.6)-1) date 2020-06-27 22:48:14*
%MOMM*%
%LPD*%
G01*
G04 APERTURE LIST*
%TA.AperFunction,Profile*%
%ADD10C,0.050000*%
%TD*%
%TA.AperFunction,NonConductor*%
%ADD11C,0.300000*%
%TD*%
%TA.AperFunction,ComponentPad*%
%ADD12O,1.600000X1.600000*%
%TD*%
%TA.AperFunction,ComponentPad*%
%ADD13R,1.600000X1.600000*%
%TD*%
%TA.AperFunction,ComponentPad*%
%ADD14C,0.800000*%
%TD*%
%TA.AperFunction,ComponentPad*%
%ADD15C,5.400000*%
%TD*%
%TA.AperFunction,ComponentPad*%
%ADD16O,1.700000X1.700000*%
%TD*%
%TA.AperFunction,ComponentPad*%
%ADD17R,1.700000X1.700000*%
%TD*%
%TA.AperFunction,ComponentPad*%
%ADD18C,4.800000*%
%TD*%
%TA.AperFunction,ComponentPad*%
%ADD19C,1.500000*%
%TD*%
%TA.AperFunction,ComponentPad*%
%ADD20C,1.320800*%
%TD*%
%TA.AperFunction,ComponentPad*%
%ADD21C,1.676400*%
%TD*%
%TA.AperFunction,ViaPad*%
%ADD22C,0.800000*%
%TD*%
%TA.AperFunction,Conductor*%
%ADD23C,0.250000*%
%TD*%
%TA.AperFunction,Conductor*%
%ADD24C,0.500000*%
%TD*%
%TA.AperFunction,Conductor*%
%ADD25C,0.254000*%
%TD*%
G04 APERTURE END LIST*
D10*
X178000000Y-116200000D02*
X236000000Y-116200000D01*
X178000000Y-116200000D02*
G75*
G02*
X174500000Y-112700000I0J3500000D01*
G01*
X239500000Y-112700000D02*
G75*
G02*
X236000000Y-116200000I-3500000J0D01*
G01*
X174500000Y-46000000D02*
X174500000Y-112700000D01*
X239500000Y-46000000D02*
X239500000Y-112700000D01*
X178000000Y-42500000D02*
X236000000Y-42500000D01*
X174500000Y-46000000D02*
G75*
G02*
X178000000Y-42500000I3500000J0D01*
G01*
X236000000Y-42500000D02*
G75*
G02*
X239500000Y-46000000I0J-3500000D01*
G01*
D11*
X236207142Y-110650000D02*
X236135714Y-110435714D01*
X236064285Y-110364285D01*
X235921428Y-110292857D01*
X235707142Y-110292857D01*
X235564285Y-110364285D01*
X235492857Y-110435714D01*
X235421428Y-110578571D01*
X235421428Y-111150000D01*
X236921428Y-111150000D01*
X236921428Y-110650000D01*
X236850000Y-110507142D01*
X236778571Y-110435714D01*
X236635714Y-110364285D01*
X236492857Y-110364285D01*
X236350000Y-110435714D01*
X236278571Y-110507142D01*
X236207142Y-110650000D01*
X236207142Y-111150000D01*
X235850000Y-109721428D02*
X235850000Y-109007142D01*
X235421428Y-109864285D02*
X236921428Y-109364285D01*
X235421428Y-108864285D01*
X235421428Y-108364285D02*
X236921428Y-108364285D01*
X236921428Y-108007142D01*
X236850000Y-107792857D01*
X236707142Y-107650000D01*
X236564285Y-107578571D01*
X236278571Y-107507142D01*
X236064285Y-107507142D01*
X235778571Y-107578571D01*
X235635714Y-107650000D01*
X235492857Y-107792857D01*
X235421428Y-108007142D01*
X235421428Y-108364285D01*
X236921428Y-105864285D02*
X235421428Y-105507142D01*
X236492857Y-105221428D01*
X235421428Y-104935714D01*
X236921428Y-104578571D01*
X236921428Y-103721428D02*
X236921428Y-103435714D01*
X236850000Y-103292857D01*
X236707142Y-103150000D01*
X236421428Y-103078571D01*
X235921428Y-103078571D01*
X235635714Y-103150000D01*
X235492857Y-103292857D01*
X235421428Y-103435714D01*
X235421428Y-103721428D01*
X235492857Y-103864285D01*
X235635714Y-104007142D01*
X235921428Y-104078571D01*
X236421428Y-104078571D01*
X236707142Y-104007142D01*
X236850000Y-103864285D01*
X236921428Y-103721428D01*
X235421428Y-101721428D02*
X235421428Y-102435714D01*
X236921428Y-102435714D01*
X236207142Y-100721428D02*
X236207142Y-101221428D01*
X235421428Y-101221428D02*
X236921428Y-101221428D01*
X236921428Y-100507142D01*
D12*
%TO.P,RN5,10*%
%TO.N,C-ATN*%
X231660000Y-72990000D03*
%TO.P,RN5,9*%
%TO.N,C-ACK*%
X229120000Y-72990000D03*
%TO.P,RN5,8*%
%TO.N,C-RST*%
X226580000Y-72990000D03*
%TO.P,RN5,7*%
%TO.N,C-SEL*%
X224040000Y-72990000D03*
%TO.P,RN5,6*%
%TO.N,C-BSY*%
X221500000Y-72990000D03*
%TO.P,RN5,5*%
%TO.N,C-MSG*%
X218960000Y-72990000D03*
%TO.P,RN5,4*%
%TO.N,C-C_D*%
X216420000Y-72990000D03*
%TO.P,RN5,3*%
%TO.N,C-REQ*%
X213880000Y-72990000D03*
%TO.P,RN5,2*%
%TO.N,C-I_O*%
X211340000Y-72990000D03*
D13*
%TO.P,RN5,1*%
%TO.N,Net-(JP2-Pad2)*%
X208800000Y-72990000D03*
%TD*%
D14*
%TO.P,H2,1*%
%TO.N,GND*%
X237431891Y-44568109D03*
X236000000Y-43975000D03*
X234568109Y-44568109D03*
X233975000Y-46000000D03*
X234568109Y-47431891D03*
X236000000Y-48025000D03*
X237431891Y-47431891D03*
X238025000Y-46000000D03*
D15*
X236000000Y-46000000D03*
%TD*%
D14*
%TO.P,H1,1*%
%TO.N,GND*%
X179431891Y-44568109D03*
X178000000Y-43975000D03*
X176568109Y-44568109D03*
X175975000Y-46000000D03*
X176568109Y-47431891D03*
X178000000Y-48025000D03*
X179431891Y-47431891D03*
X180025000Y-46000000D03*
D15*
X178000000Y-46000000D03*
%TD*%
D16*
%TO.P,J4,5*%
%TO.N,PI_SDA*%
X178010000Y-53620000D03*
%TO.P,J4,4*%
%TO.N,PI_SCL*%
X178010000Y-56160000D03*
%TO.P,J4,3*%
%TO.N,+3V3*%
X178010000Y-58700000D03*
%TO.P,J4,2*%
%TO.N,GND*%
X178010000Y-61240000D03*
D17*
%TO.P,J4,1*%
%TO.N,+5V*%
X178010000Y-63780000D03*
%TD*%
D16*
%TO.P,JP2,2*%
%TO.N,Net-(JP2-Pad2)*%
X178940000Y-73800000D03*
D17*
%TO.P,JP2,1*%
%TO.N,+5V*%
X176400000Y-73800000D03*
%TD*%
D16*
%TO.P,JP1,2*%
%TO.N,Net-(JP1-Pad2)*%
X178940000Y-77400000D03*
D17*
%TO.P,JP1,1*%
%TO.N,GND*%
X176400000Y-77400000D03*
%TD*%
D14*
%TO.P,H6,1*%
%TO.N,GND*%
X237431891Y-93568109D03*
X236000000Y-92975000D03*
X234568109Y-93568109D03*
X233975000Y-95000000D03*
X234568109Y-96431891D03*
X236000000Y-97025000D03*
X237431891Y-96431891D03*
X238025000Y-95000000D03*
D15*
X236000000Y-95000000D03*
%TD*%
D14*
%TO.P,H5,1*%
%TO.N,GND*%
X179431891Y-93568109D03*
X178000000Y-92975000D03*
X176568109Y-93568109D03*
X175975000Y-95000000D03*
X176568109Y-96431891D03*
X178000000Y-97025000D03*
X179431891Y-96431891D03*
X180025000Y-95000000D03*
D15*
X178000000Y-95000000D03*
%TD*%
D14*
%TO.P,H4,1*%
%TO.N,GND*%
X237431891Y-67568109D03*
X236000000Y-66975000D03*
X234568109Y-67568109D03*
X233975000Y-69000000D03*
X234568109Y-70431891D03*
X236000000Y-71025000D03*
X237431891Y-70431891D03*
X238025000Y-69000000D03*
D15*
X236000000Y-69000000D03*
%TD*%
D14*
%TO.P,H3,1*%
%TO.N,GND*%
X179431891Y-67568109D03*
X178000000Y-66975000D03*
X176568109Y-67568109D03*
X175975000Y-69000000D03*
X176568109Y-70431891D03*
X178000000Y-71025000D03*
X179431891Y-70431891D03*
X180025000Y-69000000D03*
D15*
X178000000Y-69000000D03*
%TD*%
D18*
%TO.P,J2,MH2*%
%TO.N,GND*%
X183480000Y-104510000D03*
%TO.P,J2,MH1*%
X230580000Y-104510000D03*
D19*
%TO.P,J2,25*%
%TO.N,TERMPOW*%
X191795000Y-105930000D03*
%TO.P,J2,24*%
%TO.N,GND*%
X194565000Y-105930000D03*
%TO.P,J2,23*%
%TO.N,C-D4*%
X197335000Y-105930000D03*
%TO.P,J2,22*%
%TO.N,C-D2*%
X200105000Y-105930000D03*
%TO.P,J2,21*%
%TO.N,C-D1*%
X202875000Y-105930000D03*
%TO.P,J2,20*%
%TO.N,C-DP*%
X205645000Y-105930000D03*
%TO.P,J2,19*%
%TO.N,C-SEL*%
X208415000Y-105930000D03*
%TO.P,J2,18*%
%TO.N,GND*%
X211185000Y-105930000D03*
%TO.P,J2,17*%
%TO.N,C-ATN*%
X213955000Y-105930000D03*
%TO.P,J2,16*%
%TO.N,GND*%
X216725000Y-105930000D03*
%TO.P,J2,15*%
%TO.N,C-C_D*%
X219495000Y-105930000D03*
%TO.P,J2,14*%
%TO.N,GND*%
X222265000Y-105930000D03*
%TO.P,J2,13*%
%TO.N,C-D7*%
X190410000Y-103090000D03*
%TO.P,J2,12*%
%TO.N,C-D6*%
X193180000Y-103090000D03*
%TO.P,J2,11*%
%TO.N,C-D5*%
X195950000Y-103090000D03*
%TO.P,J2,10*%
%TO.N,C-D3*%
X198720000Y-103090000D03*
%TO.P,J2,9*%
%TO.N,GND*%
X201490000Y-103090000D03*
%TO.P,J2,8*%
%TO.N,C-D0*%
X204260000Y-103090000D03*
%TO.P,J2,7*%
%TO.N,GND*%
X207030000Y-103090000D03*
%TO.P,J2,6*%
%TO.N,C-BSY*%
X209800000Y-103090000D03*
%TO.P,J2,5*%
%TO.N,C-ACK*%
X212570000Y-103090000D03*
%TO.P,J2,4*%
%TO.N,C-RST*%
X215340000Y-103090000D03*
%TO.P,J2,3*%
%TO.N,C-I_O*%
X218110000Y-103090000D03*
%TO.P,J2,2*%
%TO.N,C-MSG*%
X220880000Y-103090000D03*
%TO.P,J2,1*%
%TO.N,C-REQ*%
X223650000Y-103090000D03*
%TD*%
D12*
%TO.P,RN6,10*%
%TO.N,C-ATN*%
X231660000Y-76400000D03*
%TO.P,RN6,9*%
%TO.N,C-ACK*%
X229120000Y-76400000D03*
%TO.P,RN6,8*%
%TO.N,C-RST*%
X226580000Y-76400000D03*
%TO.P,RN6,7*%
%TO.N,C-SEL*%
X224040000Y-76400000D03*
%TO.P,RN6,6*%
%TO.N,C-BSY*%
X221500000Y-76400000D03*
%TO.P,RN6,5*%
%TO.N,C-MSG*%
X218960000Y-76400000D03*
%TO.P,RN6,4*%
%TO.N,C-C_D*%
X216420000Y-76400000D03*
%TO.P,RN6,3*%
%TO.N,C-REQ*%
X213880000Y-76400000D03*
%TO.P,RN6,2*%
%TO.N,C-I_O*%
X211340000Y-76400000D03*
D13*
%TO.P,RN6,1*%
%TO.N,Net-(JP1-Pad2)*%
X208800000Y-76400000D03*
%TD*%
D12*
%TO.P,RN4,10*%
%TO.N,C-D7*%
X205260000Y-76400000D03*
%TO.P,RN4,9*%
%TO.N,C-D6*%
X202720000Y-76400000D03*
%TO.P,RN4,8*%
%TO.N,C-D5*%
X200180000Y-76400000D03*
%TO.P,RN4,7*%
%TO.N,C-D4*%
X197640000Y-76400000D03*
%TO.P,RN4,6*%
%TO.N,C-D3*%
X195100000Y-76400000D03*
%TO.P,RN4,5*%
%TO.N,C-D2*%
X192560000Y-76400000D03*
%TO.P,RN4,4*%
%TO.N,C-D1*%
X190020000Y-76400000D03*
%TO.P,RN4,3*%
%TO.N,C-D0*%
X187480000Y-76400000D03*
%TO.P,RN4,2*%
%TO.N,C-DP*%
X184940000Y-76400000D03*
D13*
%TO.P,RN4,1*%
%TO.N,Net-(JP1-Pad2)*%
X182400000Y-76400000D03*
%TD*%
D12*
%TO.P,RN3,10*%
%TO.N,C-D7*%
X205260000Y-73000000D03*
%TO.P,RN3,9*%
%TO.N,C-D6*%
X202720000Y-73000000D03*
%TO.P,RN3,8*%
%TO.N,C-D5*%
X200180000Y-73000000D03*
%TO.P,RN3,7*%
%TO.N,C-D4*%
X197640000Y-73000000D03*
%TO.P,RN3,6*%
%TO.N,C-D3*%
X195100000Y-73000000D03*
%TO.P,RN3,5*%
%TO.N,C-D2*%
X192560000Y-73000000D03*
%TO.P,RN3,4*%
%TO.N,C-D1*%
X190020000Y-73000000D03*
%TO.P,RN3,3*%
%TO.N,C-D0*%
X187480000Y-73000000D03*
%TO.P,RN3,2*%
%TO.N,C-DP*%
X184940000Y-73000000D03*
D13*
%TO.P,RN3,1*%
%TO.N,Net-(JP2-Pad2)*%
X182400000Y-73000000D03*
%TD*%
D12*
%TO.P,RN2,10*%
%TO.N,PI-ATN*%
X231660000Y-52000000D03*
%TO.P,RN2,9*%
%TO.N,PI-ACK*%
X229120000Y-52000000D03*
%TO.P,RN2,8*%
%TO.N,PI-RST*%
X226580000Y-52000000D03*
%TO.P,RN2,7*%
%TO.N,PI-SEL*%
X224040000Y-52000000D03*
%TO.P,RN2,6*%
%TO.N,PI-BSY*%
X221500000Y-52000000D03*
%TO.P,RN2,5*%
%TO.N,PI-MSG*%
X218960000Y-52000000D03*
%TO.P,RN2,4*%
%TO.N,PI-C_D*%
X216420000Y-52000000D03*
%TO.P,RN2,3*%
%TO.N,PI-REQ*%
X213880000Y-52000000D03*
%TO.P,RN2,2*%
%TO.N,PI-I_O*%
X211340000Y-52000000D03*
D13*
%TO.P,RN2,1*%
%TO.N,+3V3*%
X208800000Y-52000000D03*
%TD*%
D12*
%TO.P,RN1,10*%
%TO.N,PI-D7*%
X205260000Y-52000000D03*
%TO.P,RN1,9*%
%TO.N,PI-D6*%
X202720000Y-52000000D03*
%TO.P,RN1,8*%
%TO.N,PI-D5*%
X200180000Y-52000000D03*
%TO.P,RN1,7*%
%TO.N,PI-D4*%
X197640000Y-52000000D03*
%TO.P,RN1,6*%
%TO.N,PI-D3*%
X195100000Y-52000000D03*
%TO.P,RN1,5*%
%TO.N,PI-D2*%
X192560000Y-52000000D03*
%TO.P,RN1,4*%
%TO.N,PI-D1*%
X190020000Y-52000000D03*
%TO.P,RN1,3*%
%TO.N,PI-D0*%
X187480000Y-52000000D03*
%TO.P,RN1,2*%
%TO.N,PI-DP*%
X184940000Y-52000000D03*
D13*
%TO.P,RN1,1*%
%TO.N,+3V3*%
X182400000Y-52000000D03*
%TD*%
D16*
%TO.P,J1,40*%
%TO.N,PI-ACK*%
X231140000Y-44730000D03*
%TO.P,J1,39*%
%TO.N,GND*%
X231140000Y-47270000D03*
%TO.P,J1,38*%
%TO.N,PI-RST*%
X228600000Y-44730000D03*
%TO.P,J1,37*%
%TO.N,PI-BSY*%
X228600000Y-47270000D03*
%TO.P,J1,36*%
%TO.N,PI-D6*%
X226060000Y-44730000D03*
%TO.P,J1,35*%
%TO.N,PI-ATN*%
X226060000Y-47270000D03*
%TO.P,J1,34*%
%TO.N,GND*%
X223520000Y-44730000D03*
%TO.P,J1,33*%
%TO.N,PI-D3*%
X223520000Y-47270000D03*
%TO.P,J1,32*%
%TO.N,PI-D2*%
X220980000Y-44730000D03*
%TO.P,J1,31*%
%TO.N,Net-(J1-Pad31)*%
X220980000Y-47270000D03*
%TO.P,J1,30*%
%TO.N,GND*%
X218440000Y-44730000D03*
%TO.P,J1,29*%
%TO.N,DBG_LED*%
X218440000Y-47270000D03*
%TO.P,J1,28*%
%TO.N,Net-(J1-Pad28)*%
X215900000Y-44730000D03*
%TO.P,J1,27*%
%TO.N,Net-(J1-Pad27)*%
X215900000Y-47270000D03*
%TO.P,J1,26*%
%TO.N,Net-(J1-Pad26)*%
X213360000Y-44730000D03*
%TO.P,J1,25*%
%TO.N,GND*%
X213360000Y-47270000D03*
%TO.P,J1,24*%
%TO.N,Net-(J1-Pad24)*%
X210820000Y-44730000D03*
%TO.P,J1,23*%
%TO.N,PI-D1*%
X210820000Y-47270000D03*
%TO.P,J1,22*%
%TO.N,PI-I_O*%
X208280000Y-44730000D03*
%TO.P,J1,21*%
%TO.N,Net-(J1-Pad21)*%
X208280000Y-47270000D03*
%TO.P,J1,20*%
%TO.N,GND*%
X205740000Y-44730000D03*
%TO.P,J1,19*%
%TO.N,PI-D0*%
X205740000Y-47270000D03*
%TO.P,J1,18*%
%TO.N,PI-C_D*%
X203200000Y-44730000D03*
%TO.P,J1,17*%
%TO.N,+3V3*%
X203200000Y-47270000D03*
%TO.P,J1,16*%
%TO.N,PI-MSG*%
X200660000Y-44730000D03*
%TO.P,J1,15*%
%TO.N,PI-REQ*%
X200660000Y-47270000D03*
%TO.P,J1,14*%
%TO.N,GND*%
X198120000Y-44730000D03*
%TO.P,J1,13*%
%TO.N,PI-SEL*%
X198120000Y-47270000D03*
%TO.P,J1,12*%
%TO.N,PI-DP*%
X195580000Y-44730000D03*
%TO.P,J1,11*%
%TO.N,PI-D7*%
X195580000Y-47270000D03*
%TO.P,J1,10*%
%TO.N,PI-D5*%
X193040000Y-44730000D03*
%TO.P,J1,9*%
%TO.N,GND*%
X193040000Y-47270000D03*
%TO.P,J1,8*%
%TO.N,PI-D4*%
X190500000Y-44730000D03*
%TO.P,J1,7*%
%TO.N,ACT*%
X190500000Y-47270000D03*
%TO.P,J1,6*%
%TO.N,GND*%
X187960000Y-44730000D03*
%TO.P,J1,5*%
%TO.N,PI_SCL*%
X187960000Y-47270000D03*
%TO.P,J1,4*%
%TO.N,+5V*%
X185420000Y-44730000D03*
%TO.P,J1,3*%
%TO.N,PI_SDA*%
X185420000Y-47270000D03*
%TO.P,J1,2*%
%TO.N,+5V*%
X182880000Y-44730000D03*
D17*
%TO.P,J1,1*%
%TO.N,+3V3*%
X182880000Y-47270000D03*
%TD*%
D20*
%TO.P,FUSE1A1,2*%
%TO.N,Net-(D1-PadC)*%
X177980000Y-100290000D03*
%TO.P,FUSE1A1,1*%
%TO.N,TERMPOW*%
X177980000Y-107910000D03*
%TD*%
D21*
%TO.P,D1,C*%
%TO.N,Net-(D1-PadC)*%
X181120000Y-98000000D03*
%TO.P,D1,A*%
%TO.N,+5V*%
X191280000Y-98000000D03*
%TD*%
D22*
%TO.N,GND*%
X201200000Y-50900000D03*
X220200000Y-50700000D03*
X225200000Y-48600000D03*
X228900000Y-49700000D03*
X188500000Y-63000000D03*
X188400000Y-68000000D03*
X208800000Y-67400000D03*
X208700000Y-62700000D03*
X221800000Y-67500000D03*
X221700000Y-62700000D03*
X214200000Y-57500000D03*
X214800000Y-45800000D03*
X192600000Y-56400000D03*
X186100000Y-53200000D03*
X215800000Y-86100000D03*
X221100000Y-86100000D03*
X223500000Y-86100000D03*
X215900000Y-90700000D03*
X218400000Y-83100000D03*
X228300000Y-86000000D03*
X233700000Y-86100000D03*
X208200000Y-86000000D03*
X191800000Y-91300000D03*
X191600000Y-100300000D03*
X222400000Y-98900000D03*
X203900000Y-69700000D03*
X199700000Y-69700000D03*
X197000000Y-69700000D03*
X194600000Y-69700000D03*
X217400000Y-69700000D03*
X229700000Y-69700000D03*
X232900000Y-59400000D03*
X175700000Y-64500000D03*
X181000000Y-80100000D03*
X183700000Y-80100000D03*
X186100000Y-80100000D03*
X190400000Y-83500000D03*
X203900000Y-79500000D03*
X196500000Y-78900000D03*
X193900000Y-78800000D03*
X198800000Y-79000000D03*
X187900000Y-49700000D03*
X219500000Y-104200000D03*
X222265000Y-104135000D03*
X237400000Y-86000000D03*
X225900000Y-50400000D03*
X207000000Y-51900000D03*
X187900000Y-83100000D03*
X185400000Y-83500000D03*
X182900000Y-83600000D03*
X180300000Y-83700000D03*
X222700000Y-80500000D03*
X220200000Y-77600000D03*
X210200000Y-74700000D03*
X199400000Y-107700000D03*
X185000000Y-48900000D03*
X221300000Y-59800000D03*
%TO.N,+3V3*%
X208900000Y-61000000D03*
%TO.N,+5V*%
X230800000Y-61700000D03*
X218880000Y-63780000D03*
X194400000Y-57600000D03*
%TO.N,C-REQ*%
X233500000Y-75400000D03*
%TO.N,C-MSG*%
X223800000Y-93300000D03*
X223500000Y-95152000D03*
%TO.N,C-BSY*%
X222800000Y-109700000D03*
X220600000Y-79400000D03*
%TO.N,C-SEL*%
X224400000Y-108600000D03*
X225400000Y-99800000D03*
X224468966Y-80368966D03*
%TO.N,C-RST*%
X226580000Y-80780000D03*
%TO.N,C-ACK*%
X226800000Y-106200000D03*
X228400000Y-99500000D03*
X229120000Y-81020000D03*
%TO.N,C-DP*%
X195800000Y-85200000D03*
X195488966Y-81288966D03*
%TO.N,C-D0*%
X176100000Y-85200000D03*
%TO.N,C-D1*%
X180100000Y-85700000D03*
%TO.N,C-D2*%
X183100000Y-85800000D03*
%TO.N,C-D3*%
X185600000Y-85800000D03*
%TO.N,C-D4*%
X188100000Y-86100000D03*
%TO.N,C-D5*%
X190200000Y-86000000D03*
%TO.N,C-D6*%
X193061034Y-85561034D03*
%TO.N,C-D7*%
X195400000Y-82300000D03*
%TO.N,C-C_D*%
X220610000Y-80590000D03*
%TO.N,PI-D7*%
X198992971Y-52775153D03*
%TO.N,PI-D6*%
X202000000Y-46500000D03*
%TO.N,PI-D3*%
X196031034Y-49468966D03*
X194400000Y-56500000D03*
X201200000Y-56200000D03*
%TO.N,PI-D2*%
X197300000Y-43400000D03*
X199093540Y-54079154D03*
%TO.N,PI-D1*%
X211000000Y-50500000D03*
X196800000Y-50800000D03*
X195000000Y-50300000D03*
X192000000Y-50300000D03*
%TO.N,PI-D0*%
X196300000Y-53500000D03*
X205175555Y-53546033D03*
%TO.N,PI-C_D*%
X216400000Y-48770990D03*
%TO.N,PI-REQ*%
X214800000Y-48770990D03*
%TO.N,PI-I_O*%
X212100000Y-60329010D03*
%TO.N,PI-ACK*%
X220400000Y-53500000D03*
%TO.N,PI-SEL*%
X220200000Y-49148000D03*
%TD*%
D23*
%TO.N,GND*%
X214832001Y-45832001D02*
X214800000Y-45800000D01*
X218440000Y-44730000D02*
X217337999Y-45832001D01*
X217337999Y-45832001D02*
X214832001Y-45832001D01*
X228900000Y-50265685D02*
X230300000Y-51665685D01*
X228900000Y-49700000D02*
X228900000Y-50265685D01*
X230300000Y-51665685D02*
X230300000Y-54600000D01*
X221600000Y-50700000D02*
X220200000Y-50700000D01*
X223200000Y-49100000D02*
X221600000Y-50700000D01*
X224622001Y-48243684D02*
X224622001Y-45832001D01*
X206000000Y-50900000D02*
X201200000Y-50900000D01*
X207000000Y-51900000D02*
X206000000Y-50900000D01*
X219542001Y-45832001D02*
X222417999Y-45832001D01*
X222417999Y-45832001D02*
X223520000Y-44730000D01*
X218440000Y-44730000D02*
X219542001Y-45832001D01*
X189062001Y-45832001D02*
X187960000Y-44730000D01*
X191602001Y-45832001D02*
X189062001Y-45832001D01*
X193040000Y-47270000D02*
X191602001Y-45832001D01*
X186690000Y-46000000D02*
X178000000Y-46000000D01*
X187960000Y-44730000D02*
X186690000Y-46000000D01*
X236000000Y-46000000D02*
X233200000Y-43200000D01*
X233200000Y-43200000D02*
X228499038Y-43200000D01*
X227497999Y-44201039D02*
X227497999Y-45102001D01*
X228499038Y-43200000D02*
X227497999Y-44201039D01*
X226767999Y-45832001D02*
X224622001Y-45832001D01*
X224622001Y-45832001D02*
X223520000Y-44730000D01*
X227497999Y-45102001D02*
X226767999Y-45832001D01*
%TO.N,+3V3*%
X208900000Y-52100000D02*
X208800000Y-52000000D01*
X208900000Y-61000000D02*
X208900000Y-52100000D01*
X205252001Y-55547999D02*
X208800000Y-52000000D01*
X181162001Y-55547999D02*
X205252001Y-55547999D01*
X178010000Y-58700000D02*
X181162001Y-55547999D01*
D24*
%TO.N,+5V*%
X228720000Y-63780000D02*
X230800000Y-61700000D01*
X218880000Y-63780000D02*
X228720000Y-63780000D01*
X194400000Y-58249962D02*
X194600000Y-58449962D01*
X194400000Y-57600000D02*
X194400000Y-58249962D01*
X194600000Y-62400000D02*
X193220000Y-63780000D01*
X194600000Y-58449962D02*
X194600000Y-62400000D01*
X178010000Y-63780000D02*
X193220000Y-63780000D01*
X193220000Y-63780000D02*
X218880000Y-63780000D01*
D23*
%TO.N,C-REQ*%
X213880000Y-76400000D02*
X213880000Y-86680000D01*
X223650000Y-96450000D02*
X223650000Y-103090000D01*
X213880000Y-86680000D02*
X223650000Y-96450000D01*
X233500000Y-75400000D02*
X232700000Y-74600000D01*
X215490000Y-74600000D02*
X213880000Y-72990000D01*
X232700000Y-74600000D02*
X215490000Y-74600000D01*
%TO.N,C-MSG*%
X213375039Y-75347999D02*
X217907999Y-75347999D01*
X212827999Y-75895039D02*
X213375039Y-75347999D01*
X212827999Y-86161171D02*
X212827999Y-75895039D01*
X217907999Y-75347999D02*
X218960000Y-76400000D01*
X220880000Y-94213172D02*
X212827999Y-86161171D01*
X220880000Y-103090000D02*
X220880000Y-94213172D01*
X223800000Y-93300000D02*
X223800000Y-94852000D01*
X223800000Y-94852000D02*
X223500000Y-95152000D01*
%TO.N,C-BSY*%
X207412999Y-106410961D02*
X210902038Y-109900000D01*
X209800000Y-103090000D02*
X207412999Y-105477001D01*
X207412999Y-105477001D02*
X207412999Y-106410961D01*
X210902038Y-109900000D02*
X222600000Y-109900000D01*
X222600000Y-109900000D02*
X222800000Y-109700000D01*
X221500000Y-76400000D02*
X221500000Y-78500000D01*
X221500000Y-78500000D02*
X220600000Y-79400000D01*
%TO.N,C-SEL*%
X208415000Y-105930000D02*
X211085000Y-108600000D01*
X211085000Y-108600000D02*
X224400000Y-108600000D01*
X225400000Y-77760000D02*
X224040000Y-76400000D01*
X225400000Y-79500000D02*
X225400000Y-77760000D01*
X225037932Y-79800000D02*
X225400000Y-79800000D01*
X224468966Y-80368966D02*
X225037932Y-79800000D01*
X225400000Y-99800000D02*
X225400000Y-79800000D01*
X225400000Y-79800000D02*
X225400000Y-79500000D01*
%TO.N,C-RST*%
X222745961Y-106932001D02*
X226580000Y-103097962D01*
X216244039Y-106932001D02*
X222745961Y-106932001D01*
X215340000Y-106027962D02*
X216244039Y-106932001D01*
X215340000Y-103090000D02*
X215340000Y-106027962D01*
X226580000Y-103097962D02*
X226580000Y-80780000D01*
X226580000Y-80780000D02*
X226580000Y-76400000D01*
%TO.N,C-ACK*%
X225313981Y-107686019D02*
X226800000Y-106200000D01*
X214228057Y-107686019D02*
X225313981Y-107686019D01*
X212570000Y-103090000D02*
X212570000Y-106027962D01*
X212570000Y-106027962D02*
X214228057Y-107686019D01*
X228400000Y-99500000D02*
X229120000Y-98780000D01*
X229120000Y-98780000D02*
X229120000Y-81020000D01*
X229120000Y-81020000D02*
X229120000Y-76400000D01*
%TO.N,C-ATN*%
X231660000Y-99505038D02*
X231660000Y-76400000D01*
X223856028Y-107309010D02*
X231660000Y-99505038D01*
X215334010Y-107309010D02*
X223856028Y-107309010D01*
X213955000Y-105930000D02*
X215334010Y-107309010D01*
%TO.N,C-DP*%
X205645000Y-105930000D02*
X205645000Y-89505039D01*
X205645000Y-89505039D02*
X200105039Y-89505039D01*
X200105039Y-89505039D02*
X195800000Y-85200000D01*
X184940000Y-76400000D02*
X189828966Y-81288966D01*
X189828966Y-81288966D02*
X195488966Y-81288966D01*
%TO.N,C-D0*%
X175047999Y-86252001D02*
X176100000Y-85200000D01*
X200056934Y-110231028D02*
X185276066Y-110231028D01*
X204260000Y-106027962D02*
X200056934Y-110231028D01*
X204260000Y-103090000D02*
X204260000Y-106027962D01*
X175047999Y-100002961D02*
X175047999Y-86252001D01*
X185276066Y-110231028D02*
X175047999Y-100002961D01*
%TO.N,C-D1*%
X190287674Y-109854018D02*
X186400000Y-105966344D01*
X202875000Y-105930000D02*
X198950982Y-109854018D01*
X198950982Y-109854018D02*
X190287674Y-109854018D01*
X186400000Y-105966344D02*
X186400000Y-92000000D01*
X186400000Y-92000000D02*
X180100000Y-85700000D01*
%TO.N,C-D2*%
X200105000Y-105930000D02*
X196557991Y-109477009D01*
X186822990Y-89522990D02*
X183100000Y-85800000D01*
X196557991Y-109477009D02*
X190443837Y-109477009D01*
X190443837Y-109477009D02*
X186822990Y-105856162D01*
X186822990Y-105856162D02*
X186822990Y-89522990D01*
%TO.N,C-D3*%
X185600000Y-85800000D02*
X187200000Y-87400000D01*
X187200000Y-87400000D02*
X187200000Y-105700000D01*
X187200000Y-105700000D02*
X190600000Y-109100000D01*
X198720000Y-106027962D02*
X198720000Y-103090000D01*
X195647962Y-109100000D02*
X198720000Y-106027962D01*
X190600000Y-109100000D02*
X195647962Y-109100000D01*
%TO.N,C-D4*%
X196332999Y-104927999D02*
X197335000Y-105930000D01*
X190231865Y-104927999D02*
X196332999Y-104927999D01*
X188100000Y-102796134D02*
X190231865Y-104927999D01*
X188100000Y-86100000D02*
X188100000Y-102796134D01*
%TO.N,C-D5*%
X189929039Y-104092001D02*
X194947999Y-104092001D01*
X189407999Y-103570961D02*
X189929039Y-104092001D01*
X189407999Y-86792001D02*
X189407999Y-103570961D01*
X194947999Y-104092001D02*
X195950000Y-103090000D01*
X190200000Y-86000000D02*
X189407999Y-86792001D01*
%TO.N,C-D6*%
X193180000Y-103090000D02*
X193180000Y-85680000D01*
X193180000Y-85680000D02*
X193061034Y-85561034D01*
%TO.N,C-D7*%
X204500000Y-80600000D02*
X197100000Y-80600000D01*
X205260000Y-79840000D02*
X204500000Y-80600000D01*
X190189799Y-102869799D02*
X190410000Y-103090000D01*
X205260000Y-76400000D02*
X205260000Y-79840000D01*
X190189799Y-87510201D02*
X190189799Y-102869799D01*
X197100000Y-80600000D02*
X195400000Y-82300000D01*
X195400000Y-82300000D02*
X190189799Y-87510201D01*
%TO.N,C-I_O*%
X211340000Y-76400000D02*
X211340000Y-87340000D01*
X218110000Y-94110000D02*
X218110000Y-103090000D01*
X211340000Y-87340000D02*
X218110000Y-94110000D01*
%TO.N,C-C_D*%
X220497001Y-104927999D02*
X219495000Y-105930000D01*
X223294963Y-104927999D02*
X220497001Y-104927999D01*
X224652001Y-103570961D02*
X223294963Y-104927999D01*
X224652001Y-84632001D02*
X224652001Y-103570961D01*
X220610000Y-80590000D02*
X224652001Y-84632001D01*
X216420000Y-76400000D02*
X220610000Y-80590000D01*
%TO.N,PI-D7*%
X203830989Y-53429011D02*
X205260000Y-52000000D01*
X199646829Y-53429011D02*
X203830989Y-53429011D01*
X198992971Y-52775153D02*
X199646829Y-53429011D01*
%TO.N,PI-D6*%
X202671039Y-43627999D02*
X202097999Y-44201039D01*
X224957999Y-43627999D02*
X202671039Y-43627999D01*
X226060000Y-44730000D02*
X224957999Y-43627999D01*
X202097999Y-44201039D02*
X202097999Y-45702001D01*
X202097999Y-45702001D02*
X201900000Y-45900000D01*
X201900000Y-45900000D02*
X201900000Y-46400000D01*
X201900000Y-46400000D02*
X202000000Y-46500000D01*
%TO.N,PI-D3*%
X220990000Y-49800000D02*
X223520000Y-47270000D01*
X205903038Y-49800000D02*
X220990000Y-49800000D01*
X198540002Y-49468966D02*
X196031034Y-49468966D01*
X205903038Y-49800000D02*
X198871036Y-49800000D01*
X198871036Y-49800000D02*
X198540002Y-49468966D01*
X194400000Y-56500000D02*
X200900000Y-56500000D01*
X200900000Y-56500000D02*
X201200000Y-56200000D01*
%TO.N,PI-D2*%
X194142001Y-44537037D02*
X194142001Y-50417999D01*
X195179038Y-43500000D02*
X194142001Y-44537037D01*
X194142001Y-50417999D02*
X192560000Y-52000000D01*
X195604961Y-53052001D02*
X193612001Y-53052001D01*
X193612001Y-53052001D02*
X192560000Y-52000000D01*
X196612961Y-52847999D02*
X195808963Y-52847999D01*
X197844116Y-54079154D02*
X196612961Y-52847999D01*
X195808963Y-52847999D02*
X195604961Y-53052001D01*
X199093540Y-54079154D02*
X197844116Y-54079154D01*
X197200000Y-43500000D02*
X197300000Y-43400000D01*
X195179038Y-43500000D02*
X197200000Y-43500000D01*
%TO.N,PI-D1*%
X211000000Y-50500000D02*
X203000000Y-50500000D01*
X203000000Y-50500000D02*
X202900000Y-50400000D01*
X202800000Y-50400000D02*
X202577010Y-50177010D01*
X202900000Y-50400000D02*
X202800000Y-50400000D01*
X196877010Y-50722990D02*
X196877010Y-50177010D01*
X196800000Y-50800000D02*
X196877010Y-50722990D01*
X202577010Y-50177010D02*
X196877010Y-50177010D01*
X196777010Y-50277010D02*
X196877010Y-50177010D01*
X195022990Y-50277010D02*
X196777010Y-50277010D01*
X195022990Y-50277010D02*
X195000000Y-50300000D01*
X190300000Y-52000000D02*
X190020000Y-52000000D01*
X192000000Y-50300000D02*
X190300000Y-52000000D01*
%TO.N,PI-D0*%
X188980000Y-53500000D02*
X187480000Y-52000000D01*
X196300000Y-53500000D02*
X188980000Y-53500000D01*
X203990433Y-54731155D02*
X197531155Y-54731155D01*
X197531155Y-54731155D02*
X196300000Y-53500000D01*
X205175555Y-53546033D02*
X203990433Y-54731155D01*
%TO.N,PI-BSY*%
X227497999Y-48372001D02*
X226627999Y-48372001D01*
X228600000Y-47270000D02*
X227497999Y-48372001D01*
X226627999Y-48372001D02*
X225500000Y-49500000D01*
X224000000Y-49500000D02*
X221500000Y-52000000D01*
X225500000Y-49500000D02*
X224000000Y-49500000D01*
%TO.N,PI-C_D*%
X215770028Y-48770990D02*
X216400000Y-48770990D01*
X204637999Y-46167999D02*
X213888961Y-46167999D01*
X203200000Y-44730000D02*
X204637999Y-46167999D01*
X214797999Y-47077037D02*
X214797999Y-47798961D01*
X213888961Y-46167999D02*
X214797999Y-47077037D01*
X214797999Y-47798961D02*
X215770028Y-48770990D01*
%TO.N,PI-REQ*%
X200660000Y-47270000D02*
X200660000Y-48560000D01*
X200660000Y-48560000D02*
X200870990Y-48770990D01*
X200870990Y-48770990D02*
X214800000Y-48770990D01*
%TO.N,PI-I_O*%
X212100000Y-52760000D02*
X211340000Y-52000000D01*
X212100000Y-60329010D02*
X212100000Y-52760000D01*
%TO.N,PI-ATN*%
X230037999Y-47077037D02*
X230037999Y-50377999D01*
X229128961Y-46167999D02*
X230037999Y-47077037D01*
X230037999Y-50377999D02*
X231660000Y-52000000D01*
X227162001Y-46167999D02*
X229128961Y-46167999D01*
X226060000Y-47270000D02*
X227162001Y-46167999D01*
%TO.N,PI-ACK*%
X227620000Y-53500000D02*
X229120000Y-52000000D01*
X220400000Y-53500000D02*
X227620000Y-53500000D01*
%TO.N,PI-SEL*%
X198120000Y-47270000D02*
X200272990Y-49422990D01*
X200272990Y-49422990D02*
X219925010Y-49422990D01*
X219925010Y-49422990D02*
X220200000Y-49148000D01*
%TO.N,PI_SCL*%
X187960000Y-47270000D02*
X185030000Y-50200000D01*
X185030000Y-50200000D02*
X180400000Y-50200000D01*
X180400000Y-50200000D02*
X179300000Y-51300000D01*
X179300000Y-54870000D02*
X178010000Y-56160000D01*
X179300000Y-51300000D02*
X179300000Y-54870000D01*
%TO.N,PI_SDA*%
X180000000Y-49600000D02*
X178010000Y-51590000D01*
X178010000Y-51590000D02*
X178010000Y-53620000D01*
X185420000Y-47270000D02*
X183090000Y-49600000D01*
X183090000Y-49600000D02*
X180000000Y-49600000D01*
D24*
%TO.N,Net-(JP1-Pad2)*%
X181400000Y-77400000D02*
X182400000Y-76400000D01*
X178940000Y-77400000D02*
X181400000Y-77400000D01*
X207622999Y-75222999D02*
X208800000Y-76400000D01*
X183577001Y-75222999D02*
X207622999Y-75222999D01*
X182400000Y-76400000D02*
X183577001Y-75222999D01*
%TO.N,Net-(JP2-Pad2)*%
X178940000Y-73800000D02*
X182600000Y-73800000D01*
X183995989Y-74595989D02*
X182400000Y-73000000D01*
X207194011Y-74595989D02*
X183995989Y-74595989D01*
X208800000Y-72990000D02*
X207194011Y-74595989D01*
%TD*%
D25*
%TO.N,GND*%
G36*
X194007172Y-43597065D02*
G01*
X193986632Y-43576525D01*
X193743411Y-43414010D01*
X193473158Y-43302068D01*
X193186260Y-43245000D01*
X192893740Y-43245000D01*
X192606842Y-43302068D01*
X192336589Y-43414010D01*
X192093368Y-43576525D01*
X191886525Y-43783368D01*
X191770000Y-43957760D01*
X191653475Y-43783368D01*
X191446632Y-43576525D01*
X191203411Y-43414010D01*
X190933158Y-43302068D01*
X190646260Y-43245000D01*
X190353740Y-43245000D01*
X190066842Y-43302068D01*
X189796589Y-43414010D01*
X189553368Y-43576525D01*
X189346525Y-43783368D01*
X189224805Y-43965534D01*
X189155178Y-43848645D01*
X188960269Y-43632412D01*
X188726920Y-43458359D01*
X188464099Y-43333175D01*
X188316890Y-43288524D01*
X188087000Y-43409845D01*
X188087000Y-44603000D01*
X188107000Y-44603000D01*
X188107000Y-44857000D01*
X188087000Y-44857000D01*
X188087000Y-44877000D01*
X187833000Y-44877000D01*
X187833000Y-44857000D01*
X187813000Y-44857000D01*
X187813000Y-44603000D01*
X187833000Y-44603000D01*
X187833000Y-43409845D01*
X187603110Y-43288524D01*
X187455901Y-43333175D01*
X187193080Y-43458359D01*
X186959731Y-43632412D01*
X186764822Y-43848645D01*
X186695195Y-43965534D01*
X186573475Y-43783368D01*
X186366632Y-43576525D01*
X186123411Y-43414010D01*
X185853158Y-43302068D01*
X185566260Y-43245000D01*
X185273740Y-43245000D01*
X184986842Y-43302068D01*
X184716589Y-43414010D01*
X184473368Y-43576525D01*
X184266525Y-43783368D01*
X184150000Y-43957760D01*
X184033475Y-43783368D01*
X183826632Y-43576525D01*
X183583411Y-43414010D01*
X183313158Y-43302068D01*
X183026260Y-43245000D01*
X182733740Y-43245000D01*
X182446842Y-43302068D01*
X182176589Y-43414010D01*
X181933368Y-43576525D01*
X181726525Y-43783368D01*
X181564010Y-44026589D01*
X181452068Y-44296842D01*
X181395000Y-44583740D01*
X181395000Y-44876260D01*
X181452068Y-45163158D01*
X181564010Y-45433411D01*
X181726525Y-45676632D01*
X181858380Y-45808487D01*
X181785820Y-45830498D01*
X181675506Y-45889463D01*
X181578815Y-45968815D01*
X181499463Y-46065506D01*
X181440498Y-46175820D01*
X181404188Y-46295518D01*
X181391928Y-46420000D01*
X181391928Y-48120000D01*
X181404188Y-48244482D01*
X181440498Y-48364180D01*
X181499463Y-48474494D01*
X181578815Y-48571185D01*
X181675506Y-48650537D01*
X181785820Y-48709502D01*
X181905518Y-48745812D01*
X182030000Y-48758072D01*
X182857127Y-48758072D01*
X182775199Y-48840000D01*
X180037322Y-48840000D01*
X180000000Y-48836324D01*
X179962677Y-48840000D01*
X179962667Y-48840000D01*
X179851014Y-48850997D01*
X179707753Y-48894454D01*
X179575723Y-48965026D01*
X179492083Y-49033668D01*
X179459999Y-49059999D01*
X179436201Y-49088997D01*
X177499003Y-51026196D01*
X177469999Y-51049999D01*
X177427407Y-51101898D01*
X177375026Y-51165724D01*
X177329446Y-51250998D01*
X177304454Y-51297754D01*
X177260997Y-51441015D01*
X177250000Y-51552668D01*
X177250000Y-51552678D01*
X177246324Y-51590000D01*
X177250000Y-51627323D01*
X177250000Y-52341821D01*
X177063368Y-52466525D01*
X176856525Y-52673368D01*
X176694010Y-52916589D01*
X176582068Y-53186842D01*
X176525000Y-53473740D01*
X176525000Y-53766260D01*
X176582068Y-54053158D01*
X176694010Y-54323411D01*
X176856525Y-54566632D01*
X177063368Y-54773475D01*
X177237760Y-54890000D01*
X177063368Y-55006525D01*
X176856525Y-55213368D01*
X176694010Y-55456589D01*
X176582068Y-55726842D01*
X176525000Y-56013740D01*
X176525000Y-56306260D01*
X176582068Y-56593158D01*
X176694010Y-56863411D01*
X176856525Y-57106632D01*
X177063368Y-57313475D01*
X177237760Y-57430000D01*
X177063368Y-57546525D01*
X176856525Y-57753368D01*
X176694010Y-57996589D01*
X176582068Y-58266842D01*
X176525000Y-58553740D01*
X176525000Y-58846260D01*
X176582068Y-59133158D01*
X176694010Y-59403411D01*
X176856525Y-59646632D01*
X177063368Y-59853475D01*
X177245534Y-59975195D01*
X177128645Y-60044822D01*
X176912412Y-60239731D01*
X176738359Y-60473080D01*
X176613175Y-60735901D01*
X176568524Y-60883110D01*
X176689845Y-61113000D01*
X177883000Y-61113000D01*
X177883000Y-61093000D01*
X178137000Y-61093000D01*
X178137000Y-61113000D01*
X179330155Y-61113000D01*
X179451476Y-60883110D01*
X179406825Y-60735901D01*
X179281641Y-60473080D01*
X179107588Y-60239731D01*
X178891355Y-60044822D01*
X178774466Y-59975195D01*
X178956632Y-59853475D01*
X179163475Y-59646632D01*
X179325990Y-59403411D01*
X179437932Y-59133158D01*
X179495000Y-58846260D01*
X179495000Y-58553740D01*
X179451209Y-58333592D01*
X181476803Y-56307999D01*
X193382914Y-56307999D01*
X193365000Y-56398061D01*
X193365000Y-56601939D01*
X193404774Y-56801898D01*
X193482795Y-56990256D01*
X193522715Y-57050000D01*
X193482795Y-57109744D01*
X193404774Y-57298102D01*
X193365000Y-57498061D01*
X193365000Y-57701939D01*
X193404774Y-57901898D01*
X193482795Y-58090256D01*
X193515000Y-58138454D01*
X193515000Y-58206493D01*
X193510719Y-58249962D01*
X193515000Y-58293431D01*
X193515000Y-58293439D01*
X193525883Y-58403937D01*
X193527805Y-58423452D01*
X193578412Y-58590275D01*
X193660590Y-58744021D01*
X193715000Y-58810320D01*
X193715001Y-62033420D01*
X192853422Y-62895000D01*
X179494625Y-62895000D01*
X179485812Y-62805518D01*
X179449502Y-62685820D01*
X179390537Y-62575506D01*
X179311185Y-62478815D01*
X179214494Y-62399463D01*
X179104180Y-62340498D01*
X179023534Y-62316034D01*
X179107588Y-62240269D01*
X179281641Y-62006920D01*
X179406825Y-61744099D01*
X179451476Y-61596890D01*
X179330155Y-61367000D01*
X178137000Y-61367000D01*
X178137000Y-61387000D01*
X177883000Y-61387000D01*
X177883000Y-61367000D01*
X176689845Y-61367000D01*
X176568524Y-61596890D01*
X176613175Y-61744099D01*
X176738359Y-62006920D01*
X176912412Y-62240269D01*
X176996466Y-62316034D01*
X176915820Y-62340498D01*
X176805506Y-62399463D01*
X176708815Y-62478815D01*
X176629463Y-62575506D01*
X176570498Y-62685820D01*
X176534188Y-62805518D01*
X176521928Y-62930000D01*
X176521928Y-64630000D01*
X176534188Y-64754482D01*
X176570498Y-64874180D01*
X176629463Y-64984494D01*
X176708815Y-65081185D01*
X176805506Y-65160537D01*
X176915820Y-65219502D01*
X177035518Y-65255812D01*
X177160000Y-65268072D01*
X178860000Y-65268072D01*
X178984482Y-65255812D01*
X179104180Y-65219502D01*
X179214494Y-65160537D01*
X179311185Y-65081185D01*
X179390537Y-64984494D01*
X179449502Y-64874180D01*
X179485812Y-64754482D01*
X179494625Y-64665000D01*
X193176531Y-64665000D01*
X193220000Y-64669281D01*
X193263469Y-64665000D01*
X218341546Y-64665000D01*
X218389744Y-64697205D01*
X218578102Y-64775226D01*
X218778061Y-64815000D01*
X218981939Y-64815000D01*
X219181898Y-64775226D01*
X219370256Y-64697205D01*
X219418454Y-64665000D01*
X228676531Y-64665000D01*
X228720000Y-64669281D01*
X228763469Y-64665000D01*
X228763477Y-64665000D01*
X228893490Y-64652195D01*
X229060313Y-64601589D01*
X229214059Y-64519411D01*
X229348817Y-64408817D01*
X229376534Y-64375044D01*
X231045044Y-62706535D01*
X231101898Y-62695226D01*
X231290256Y-62617205D01*
X231459774Y-62503937D01*
X231603937Y-62359774D01*
X231717205Y-62190256D01*
X231795226Y-62001898D01*
X231835000Y-61801939D01*
X231835000Y-61598061D01*
X231795226Y-61398102D01*
X231717205Y-61209744D01*
X231603937Y-61040226D01*
X231459774Y-60896063D01*
X231290256Y-60782795D01*
X231101898Y-60704774D01*
X230901939Y-60665000D01*
X230698061Y-60665000D01*
X230498102Y-60704774D01*
X230309744Y-60782795D01*
X230140226Y-60896063D01*
X229996063Y-61040226D01*
X229882795Y-61209744D01*
X229804774Y-61398102D01*
X229793465Y-61454956D01*
X228353422Y-62895000D01*
X219418454Y-62895000D01*
X219370256Y-62862795D01*
X219181898Y-62784774D01*
X218981939Y-62745000D01*
X218778061Y-62745000D01*
X218578102Y-62784774D01*
X218389744Y-62862795D01*
X218341546Y-62895000D01*
X195338639Y-62895000D01*
X195339411Y-62894059D01*
X195356122Y-62862795D01*
X195421589Y-62740313D01*
X195472195Y-62573490D01*
X195485000Y-62443477D01*
X195485000Y-62443469D01*
X195489281Y-62400000D01*
X195485000Y-62356531D01*
X195485000Y-58493431D01*
X195489281Y-58449962D01*
X195485000Y-58406493D01*
X195485000Y-58406485D01*
X195472195Y-58276472D01*
X195421589Y-58109649D01*
X195358254Y-57991156D01*
X195395226Y-57901898D01*
X195435000Y-57701939D01*
X195435000Y-57498061D01*
X195395226Y-57298102D01*
X195379444Y-57260000D01*
X200862678Y-57260000D01*
X200900000Y-57263676D01*
X200937322Y-57260000D01*
X200937333Y-57260000D01*
X201048986Y-57249003D01*
X201096302Y-57234650D01*
X201098061Y-57235000D01*
X201301939Y-57235000D01*
X201501898Y-57195226D01*
X201690256Y-57117205D01*
X201859774Y-57003937D01*
X202003937Y-56859774D01*
X202117205Y-56690256D01*
X202195226Y-56501898D01*
X202233795Y-56307999D01*
X205214679Y-56307999D01*
X205252001Y-56311675D01*
X205289323Y-56307999D01*
X205289334Y-56307999D01*
X205400987Y-56297002D01*
X205544248Y-56253545D01*
X205676277Y-56182973D01*
X205792002Y-56088000D01*
X205815805Y-56058996D01*
X208140001Y-53734801D01*
X208140000Y-60296289D01*
X208096063Y-60340226D01*
X207982795Y-60509744D01*
X207904774Y-60698102D01*
X207865000Y-60898061D01*
X207865000Y-61101939D01*
X207904774Y-61301898D01*
X207982795Y-61490256D01*
X208096063Y-61659774D01*
X208240226Y-61803937D01*
X208409744Y-61917205D01*
X208598102Y-61995226D01*
X208798061Y-62035000D01*
X209001939Y-62035000D01*
X209201898Y-61995226D01*
X209390256Y-61917205D01*
X209559774Y-61803937D01*
X209703937Y-61659774D01*
X209817205Y-61490256D01*
X209895226Y-61301898D01*
X209935000Y-61101939D01*
X209935000Y-60898061D01*
X209895226Y-60698102D01*
X209817205Y-60509744D01*
X209703937Y-60340226D01*
X209660000Y-60296289D01*
X209660000Y-53432163D01*
X209724482Y-53425812D01*
X209844180Y-53389502D01*
X209954494Y-53330537D01*
X210051185Y-53251185D01*
X210130537Y-53154494D01*
X210189502Y-53044180D01*
X210225812Y-52924482D01*
X210226643Y-52916039D01*
X210425241Y-53114637D01*
X210660273Y-53271680D01*
X210921426Y-53379853D01*
X211198665Y-53435000D01*
X211340001Y-53435000D01*
X211340000Y-59625299D01*
X211296063Y-59669236D01*
X211182795Y-59838754D01*
X211104774Y-60027112D01*
X211065000Y-60227071D01*
X211065000Y-60430949D01*
X211104774Y-60630908D01*
X211182795Y-60819266D01*
X211296063Y-60988784D01*
X211440226Y-61132947D01*
X211609744Y-61246215D01*
X211798102Y-61324236D01*
X211998061Y-61364010D01*
X212201939Y-61364010D01*
X212401898Y-61324236D01*
X212590256Y-61246215D01*
X212759774Y-61132947D01*
X212903937Y-60988784D01*
X213017205Y-60819266D01*
X213095226Y-60630908D01*
X213135000Y-60430949D01*
X213135000Y-60227071D01*
X213095226Y-60027112D01*
X213017205Y-59838754D01*
X212903937Y-59669236D01*
X212860000Y-59625299D01*
X212860000Y-53009396D01*
X212965241Y-53114637D01*
X213200273Y-53271680D01*
X213461426Y-53379853D01*
X213738665Y-53435000D01*
X214021335Y-53435000D01*
X214298574Y-53379853D01*
X214559727Y-53271680D01*
X214794759Y-53114637D01*
X214994637Y-52914759D01*
X215150000Y-52682241D01*
X215305363Y-52914759D01*
X215505241Y-53114637D01*
X215740273Y-53271680D01*
X216001426Y-53379853D01*
X216278665Y-53435000D01*
X216561335Y-53435000D01*
X216838574Y-53379853D01*
X217099727Y-53271680D01*
X217334759Y-53114637D01*
X217534637Y-52914759D01*
X217690000Y-52682241D01*
X217845363Y-52914759D01*
X218045241Y-53114637D01*
X218280273Y-53271680D01*
X218541426Y-53379853D01*
X218818665Y-53435000D01*
X219101335Y-53435000D01*
X219368212Y-53381914D01*
X219365000Y-53398061D01*
X219365000Y-53601939D01*
X219404774Y-53801898D01*
X219482795Y-53990256D01*
X219596063Y-54159774D01*
X219740226Y-54303937D01*
X219909744Y-54417205D01*
X220098102Y-54495226D01*
X220298061Y-54535000D01*
X220501939Y-54535000D01*
X220701898Y-54495226D01*
X220890256Y-54417205D01*
X221059774Y-54303937D01*
X221103711Y-54260000D01*
X227582678Y-54260000D01*
X227620000Y-54263676D01*
X227657322Y-54260000D01*
X227657333Y-54260000D01*
X227768986Y-54249003D01*
X227912247Y-54205546D01*
X228044276Y-54134974D01*
X228160001Y-54040001D01*
X228183804Y-54010997D01*
X228796114Y-53398688D01*
X228978665Y-53435000D01*
X229261335Y-53435000D01*
X229538574Y-53379853D01*
X229799727Y-53271680D01*
X230034759Y-53114637D01*
X230234637Y-52914759D01*
X230390000Y-52682241D01*
X230545363Y-52914759D01*
X230745241Y-53114637D01*
X230980273Y-53271680D01*
X231241426Y-53379853D01*
X231518665Y-53435000D01*
X231801335Y-53435000D01*
X232078574Y-53379853D01*
X232339727Y-53271680D01*
X232574759Y-53114637D01*
X232774637Y-52914759D01*
X232931680Y-52679727D01*
X233039853Y-52418574D01*
X233095000Y-52141335D01*
X233095000Y-51858665D01*
X233039853Y-51581426D01*
X232931680Y-51320273D01*
X232774637Y-51085241D01*
X232574759Y-50885363D01*
X232339727Y-50728320D01*
X232078574Y-50620147D01*
X231801335Y-50565000D01*
X231518665Y-50565000D01*
X231336114Y-50601312D01*
X230797999Y-50063198D01*
X230797999Y-48703619D01*
X231013000Y-48590155D01*
X231013000Y-47397000D01*
X231267000Y-47397000D01*
X231267000Y-48590155D01*
X231496890Y-48711476D01*
X231644099Y-48666825D01*
X231906920Y-48541641D01*
X232140269Y-48367588D01*
X232160292Y-48345374D01*
X233834231Y-48345374D01*
X234134411Y-48783828D01*
X234713356Y-49094296D01*
X235341746Y-49285852D01*
X235995431Y-49351134D01*
X236649293Y-49287634D01*
X237278203Y-49097792D01*
X237857992Y-48788904D01*
X237865589Y-48783828D01*
X238165769Y-48345374D01*
X236000000Y-46179605D01*
X233834231Y-48345374D01*
X232160292Y-48345374D01*
X232335178Y-48151355D01*
X232484157Y-47901252D01*
X232581481Y-47626891D01*
X232460814Y-47397000D01*
X231267000Y-47397000D01*
X231013000Y-47397000D01*
X230993000Y-47397000D01*
X230993000Y-47143000D01*
X231013000Y-47143000D01*
X231013000Y-47123000D01*
X231267000Y-47123000D01*
X231267000Y-47143000D01*
X232460814Y-47143000D01*
X232581481Y-46913109D01*
X232484157Y-46638748D01*
X232335178Y-46388645D01*
X232140269Y-46172412D01*
X231910594Y-46001100D01*
X231919078Y-45995431D01*
X232648866Y-45995431D01*
X232712366Y-46649293D01*
X232902208Y-47278203D01*
X233211096Y-47857992D01*
X233216172Y-47865589D01*
X233654626Y-48165769D01*
X235820395Y-46000000D01*
X233654626Y-43834231D01*
X233216172Y-44134411D01*
X232905704Y-44713356D01*
X232714148Y-45341746D01*
X232648866Y-45995431D01*
X231919078Y-45995431D01*
X232086632Y-45883475D01*
X232293475Y-45676632D01*
X232455990Y-45433411D01*
X232567932Y-45163158D01*
X232625000Y-44876260D01*
X232625000Y-44583740D01*
X232567932Y-44296842D01*
X232455990Y-44026589D01*
X232293475Y-43783368D01*
X232086632Y-43576525D01*
X231843411Y-43414010D01*
X231573158Y-43302068D01*
X231286260Y-43245000D01*
X230993740Y-43245000D01*
X230706842Y-43302068D01*
X230436589Y-43414010D01*
X230193368Y-43576525D01*
X229986525Y-43783368D01*
X229870000Y-43957760D01*
X229753475Y-43783368D01*
X229546632Y-43576525D01*
X229303411Y-43414010D01*
X229033158Y-43302068D01*
X228746260Y-43245000D01*
X228453740Y-43245000D01*
X228166842Y-43302068D01*
X227896589Y-43414010D01*
X227653368Y-43576525D01*
X227446525Y-43783368D01*
X227330000Y-43957760D01*
X227213475Y-43783368D01*
X227006632Y-43576525D01*
X226763411Y-43414010D01*
X226493158Y-43302068D01*
X226206260Y-43245000D01*
X225913740Y-43245000D01*
X225693592Y-43288791D01*
X225564801Y-43160000D01*
X234237916Y-43160000D01*
X234142008Y-43211096D01*
X234134411Y-43216172D01*
X233834231Y-43654626D01*
X236000000Y-45820395D01*
X236014143Y-45806253D01*
X236193748Y-45985858D01*
X236179605Y-46000000D01*
X238345374Y-48165769D01*
X238783828Y-47865589D01*
X238840000Y-47760842D01*
X238840000Y-67237917D01*
X238788904Y-67142008D01*
X238783828Y-67134411D01*
X238345374Y-66834231D01*
X236179605Y-69000000D01*
X238345374Y-71165769D01*
X238783828Y-70865589D01*
X238840000Y-70760842D01*
X238840001Y-93237918D01*
X238788904Y-93142008D01*
X238783828Y-93134411D01*
X238345374Y-92834231D01*
X236179605Y-95000000D01*
X238345374Y-97165769D01*
X238783828Y-96865589D01*
X238840001Y-96760841D01*
X238840001Y-112667711D01*
X238782808Y-113251010D01*
X238622783Y-113781036D01*
X238362860Y-114269880D01*
X238012935Y-114698931D01*
X237586335Y-115051845D01*
X237099320Y-115315173D01*
X236570422Y-115478894D01*
X235989040Y-115540000D01*
X178032279Y-115540000D01*
X177448990Y-115482808D01*
X176918964Y-115322783D01*
X176430120Y-115062860D01*
X176001069Y-114712935D01*
X175648155Y-114286335D01*
X175384827Y-113799320D01*
X175221106Y-113270422D01*
X175160000Y-112689040D01*
X175160000Y-107782414D01*
X176684600Y-107782414D01*
X176684600Y-108037586D01*
X176734381Y-108287854D01*
X176832031Y-108523602D01*
X176973797Y-108735769D01*
X177154231Y-108916203D01*
X177366398Y-109057969D01*
X177602146Y-109155619D01*
X177852414Y-109205400D01*
X178107586Y-109205400D01*
X178357854Y-109155619D01*
X178593602Y-109057969D01*
X178805769Y-108916203D01*
X178986203Y-108735769D01*
X179127969Y-108523602D01*
X179225619Y-108287854D01*
X179275400Y-108037586D01*
X179275400Y-107782414D01*
X179225619Y-107532146D01*
X179127969Y-107296398D01*
X178986203Y-107084231D01*
X178805769Y-106903797D01*
X178593602Y-106762031D01*
X178357854Y-106664381D01*
X178107586Y-106614600D01*
X177852414Y-106614600D01*
X177602146Y-106664381D01*
X177366398Y-106762031D01*
X177154231Y-106903797D01*
X176973797Y-107084231D01*
X176832031Y-107296398D01*
X176734381Y-107532146D01*
X176684600Y-107782414D01*
X175160000Y-107782414D01*
X175160000Y-101189763D01*
X184712267Y-110742031D01*
X184736065Y-110771029D01*
X184765063Y-110794827D01*
X184851789Y-110866002D01*
X184983819Y-110936574D01*
X185127080Y-110980031D01*
X185238733Y-110991028D01*
X185238742Y-110991028D01*
X185276065Y-110994704D01*
X185313388Y-110991028D01*
X200019612Y-110991028D01*
X200056934Y-110994704D01*
X200094256Y-110991028D01*
X200094267Y-110991028D01*
X200205920Y-110980031D01*
X200349181Y-110936574D01*
X200481210Y-110866002D01*
X200596935Y-110771029D01*
X200620738Y-110742025D01*
X204561461Y-106801303D01*
X204569201Y-106812886D01*
X204762114Y-107005799D01*
X204988957Y-107157371D01*
X205241011Y-107261775D01*
X205508589Y-107315000D01*
X205781411Y-107315000D01*
X206048989Y-107261775D01*
X206301043Y-107157371D01*
X206527886Y-107005799D01*
X206720799Y-106812886D01*
X206745955Y-106775238D01*
X206778025Y-106835237D01*
X206849200Y-106921963D01*
X206872999Y-106950962D01*
X206901997Y-106974760D01*
X210338239Y-110411003D01*
X210362037Y-110440001D01*
X210477762Y-110534974D01*
X210609791Y-110605546D01*
X210753052Y-110649003D01*
X210864705Y-110660000D01*
X210864714Y-110660000D01*
X210902037Y-110663676D01*
X210939360Y-110660000D01*
X222413060Y-110660000D01*
X222498102Y-110695226D01*
X222698061Y-110735000D01*
X222901939Y-110735000D01*
X223101898Y-110695226D01*
X223290256Y-110617205D01*
X223459774Y-110503937D01*
X223603937Y-110359774D01*
X223717205Y-110190256D01*
X223795226Y-110001898D01*
X223835000Y-109801939D01*
X223835000Y-109598061D01*
X223804995Y-109447214D01*
X223909744Y-109517205D01*
X224098102Y-109595226D01*
X224298061Y-109635000D01*
X224501939Y-109635000D01*
X224701898Y-109595226D01*
X224890256Y-109517205D01*
X225059774Y-109403937D01*
X225203937Y-109259774D01*
X225317205Y-109090256D01*
X225395226Y-108901898D01*
X225435000Y-108701939D01*
X225435000Y-108498061D01*
X225423239Y-108438935D01*
X225462967Y-108435022D01*
X225606228Y-108391565D01*
X225738257Y-108320993D01*
X225853982Y-108226020D01*
X225877785Y-108197016D01*
X226839802Y-107235000D01*
X226901939Y-107235000D01*
X227101898Y-107195226D01*
X227290256Y-107117205D01*
X227459774Y-107003937D01*
X227603937Y-106859774D01*
X227717205Y-106690256D01*
X227737181Y-106642029D01*
X228627576Y-106642029D01*
X228891740Y-107049755D01*
X229419661Y-107330317D01*
X229992173Y-107502496D01*
X230587275Y-107559676D01*
X231182098Y-107499658D01*
X231753782Y-107324750D01*
X232268260Y-107049755D01*
X232532424Y-106642029D01*
X230580000Y-104689605D01*
X228627576Y-106642029D01*
X227737181Y-106642029D01*
X227795226Y-106501898D01*
X227835000Y-106301939D01*
X227835000Y-106098061D01*
X227795226Y-105898102D01*
X227717205Y-105709744D01*
X227603937Y-105540226D01*
X227459774Y-105396063D01*
X227290256Y-105282795D01*
X227101898Y-105204774D01*
X227046154Y-105193686D01*
X227547943Y-104691896D01*
X227590342Y-105112098D01*
X227765250Y-105683782D01*
X228040245Y-106198260D01*
X228447971Y-106462424D01*
X230400395Y-104510000D01*
X230759605Y-104510000D01*
X232712029Y-106462424D01*
X233119755Y-106198260D01*
X233400317Y-105670339D01*
X233572496Y-105097827D01*
X233629676Y-104502725D01*
X233569658Y-103907902D01*
X233394750Y-103336218D01*
X233119755Y-102821740D01*
X232712029Y-102557576D01*
X230759605Y-104510000D01*
X230400395Y-104510000D01*
X230386253Y-104495858D01*
X230565858Y-104316253D01*
X230580000Y-104330395D01*
X232532424Y-102377971D01*
X232268260Y-101970245D01*
X231740339Y-101689683D01*
X231167827Y-101517504D01*
X230761388Y-101478452D01*
X232171004Y-100068836D01*
X232200001Y-100045039D01*
X232278830Y-99948986D01*
X232294974Y-99929315D01*
X232365546Y-99797285D01*
X232391806Y-99710715D01*
X232409003Y-99654024D01*
X232420000Y-99542371D01*
X232420000Y-99542362D01*
X232423398Y-99507857D01*
X234070000Y-99507857D01*
X234070000Y-112292143D01*
X237890000Y-112292143D01*
X237890000Y-99507857D01*
X234070000Y-99507857D01*
X232423398Y-99507857D01*
X232423676Y-99505039D01*
X232420000Y-99467716D01*
X232420000Y-97345374D01*
X233834231Y-97345374D01*
X234134411Y-97783828D01*
X234713356Y-98094296D01*
X235341746Y-98285852D01*
X235995431Y-98351134D01*
X236649293Y-98287634D01*
X237278203Y-98097792D01*
X237857992Y-97788904D01*
X237865589Y-97783828D01*
X238165769Y-97345374D01*
X236000000Y-95179605D01*
X233834231Y-97345374D01*
X232420000Y-97345374D01*
X232420000Y-94995431D01*
X232648866Y-94995431D01*
X232712366Y-95649293D01*
X232902208Y-96278203D01*
X233211096Y-96857992D01*
X233216172Y-96865589D01*
X233654626Y-97165769D01*
X235820395Y-95000000D01*
X233654626Y-92834231D01*
X233216172Y-93134411D01*
X232905704Y-93713356D01*
X232714148Y-94341746D01*
X232648866Y-94995431D01*
X232420000Y-94995431D01*
X232420000Y-92654626D01*
X233834231Y-92654626D01*
X236000000Y-94820395D01*
X238165769Y-92654626D01*
X237865589Y-92216172D01*
X237286644Y-91905704D01*
X236658254Y-91714148D01*
X236004569Y-91648866D01*
X235350707Y-91712366D01*
X234721797Y-91902208D01*
X234142008Y-92211096D01*
X234134411Y-92216172D01*
X233834231Y-92654626D01*
X232420000Y-92654626D01*
X232420000Y-77618043D01*
X232574759Y-77514637D01*
X232774637Y-77314759D01*
X232931680Y-77079727D01*
X233039853Y-76818574D01*
X233095000Y-76541335D01*
X233095000Y-76352519D01*
X233198102Y-76395226D01*
X233398061Y-76435000D01*
X233601939Y-76435000D01*
X233801898Y-76395226D01*
X233990256Y-76317205D01*
X234159774Y-76203937D01*
X234303937Y-76059774D01*
X234417205Y-75890256D01*
X234495226Y-75701898D01*
X234535000Y-75501939D01*
X234535000Y-75298061D01*
X234495226Y-75098102D01*
X234417205Y-74909744D01*
X234303937Y-74740226D01*
X234159774Y-74596063D01*
X233990256Y-74482795D01*
X233801898Y-74404774D01*
X233601939Y-74365000D01*
X233539801Y-74365000D01*
X233263803Y-74089002D01*
X233240001Y-74059999D01*
X233124276Y-73965026D01*
X232992247Y-73894454D01*
X232848986Y-73850997D01*
X232812932Y-73847446D01*
X232931680Y-73669727D01*
X233039853Y-73408574D01*
X233095000Y-73131335D01*
X233095000Y-72848665D01*
X233039853Y-72571426D01*
X232931680Y-72310273D01*
X232774637Y-72075241D01*
X232574759Y-71875363D01*
X232339727Y-71718320D01*
X232078574Y-71610147D01*
X231801335Y-71555000D01*
X231518665Y-71555000D01*
X231241426Y-71610147D01*
X230980273Y-71718320D01*
X230745241Y-71875363D01*
X230545363Y-72075241D01*
X230390000Y-72307759D01*
X230234637Y-72075241D01*
X230034759Y-71875363D01*
X229799727Y-71718320D01*
X229538574Y-71610147D01*
X229261335Y-71555000D01*
X228978665Y-71555000D01*
X228701426Y-71610147D01*
X228440273Y-71718320D01*
X228205241Y-71875363D01*
X228005363Y-72075241D01*
X227850000Y-72307759D01*
X227694637Y-72075241D01*
X227494759Y-71875363D01*
X227259727Y-71718320D01*
X226998574Y-71610147D01*
X226721335Y-71555000D01*
X226438665Y-71555000D01*
X226161426Y-71610147D01*
X225900273Y-71718320D01*
X225665241Y-71875363D01*
X225465363Y-72075241D01*
X225310000Y-72307759D01*
X225154637Y-72075241D01*
X224954759Y-71875363D01*
X224719727Y-71718320D01*
X224458574Y-71610147D01*
X224181335Y-71555000D01*
X223898665Y-71555000D01*
X223621426Y-71610147D01*
X223360273Y-71718320D01*
X223125241Y-71875363D01*
X222925363Y-72075241D01*
X222770000Y-72307759D01*
X222614637Y-72075241D01*
X222414759Y-71875363D01*
X222179727Y-71718320D01*
X221918574Y-71610147D01*
X221641335Y-71555000D01*
X221358665Y-71555000D01*
X221081426Y-71610147D01*
X220820273Y-71718320D01*
X220585241Y-71875363D01*
X220385363Y-72075241D01*
X220230000Y-72307759D01*
X220074637Y-72075241D01*
X219874759Y-71875363D01*
X219639727Y-71718320D01*
X219378574Y-71610147D01*
X219101335Y-71555000D01*
X218818665Y-71555000D01*
X218541426Y-71610147D01*
X218280273Y-71718320D01*
X218045241Y-71875363D01*
X217845363Y-72075241D01*
X217690000Y-72307759D01*
X217534637Y-72075241D01*
X217334759Y-71875363D01*
X217099727Y-71718320D01*
X216838574Y-71610147D01*
X216561335Y-71555000D01*
X216278665Y-71555000D01*
X216001426Y-71610147D01*
X215740273Y-71718320D01*
X215505241Y-71875363D01*
X215305363Y-72075241D01*
X215150000Y-72307759D01*
X214994637Y-72075241D01*
X214794759Y-71875363D01*
X214559727Y-71718320D01*
X214298574Y-71610147D01*
X214021335Y-71555000D01*
X213738665Y-71555000D01*
X213461426Y-71610147D01*
X213200273Y-71718320D01*
X212965241Y-71875363D01*
X212765363Y-72075241D01*
X212610000Y-72307759D01*
X212454637Y-72075241D01*
X212254759Y-71875363D01*
X212019727Y-71718320D01*
X211758574Y-71610147D01*
X211481335Y-71555000D01*
X211198665Y-71555000D01*
X210921426Y-71610147D01*
X210660273Y-71718320D01*
X210425241Y-71875363D01*
X210226643Y-72073961D01*
X210225812Y-72065518D01*
X210189502Y-71945820D01*
X210130537Y-71835506D01*
X210051185Y-71738815D01*
X209954494Y-71659463D01*
X209844180Y-71600498D01*
X209724482Y-71564188D01*
X209600000Y-71551928D01*
X208000000Y-71551928D01*
X207875518Y-71564188D01*
X207755820Y-71600498D01*
X207645506Y-71659463D01*
X207548815Y-71738815D01*
X207469463Y-71835506D01*
X207410498Y-71945820D01*
X207374188Y-72065518D01*
X207361928Y-72190000D01*
X207361928Y-73176494D01*
X206827433Y-73710989D01*
X206510791Y-73710989D01*
X206531680Y-73679727D01*
X206639853Y-73418574D01*
X206695000Y-73141335D01*
X206695000Y-72858665D01*
X206639853Y-72581426D01*
X206531680Y-72320273D01*
X206374637Y-72085241D01*
X206174759Y-71885363D01*
X205939727Y-71728320D01*
X205678574Y-71620147D01*
X205401335Y-71565000D01*
X205118665Y-71565000D01*
X204841426Y-71620147D01*
X204580273Y-71728320D01*
X204345241Y-71885363D01*
X204145363Y-72085241D01*
X203990000Y-72317759D01*
X203834637Y-72085241D01*
X203634759Y-71885363D01*
X203399727Y-71728320D01*
X203138574Y-71620147D01*
X202861335Y-71565000D01*
X202578665Y-71565000D01*
X202301426Y-71620147D01*
X202040273Y-71728320D01*
X201805241Y-71885363D01*
X201605363Y-72085241D01*
X201450000Y-72317759D01*
X201294637Y-72085241D01*
X201094759Y-71885363D01*
X200859727Y-71728320D01*
X200598574Y-71620147D01*
X200321335Y-71565000D01*
X200038665Y-71565000D01*
X199761426Y-71620147D01*
X199500273Y-71728320D01*
X199265241Y-71885363D01*
X199065363Y-72085241D01*
X198910000Y-72317759D01*
X198754637Y-72085241D01*
X198554759Y-71885363D01*
X198319727Y-71728320D01*
X198058574Y-71620147D01*
X197781335Y-71565000D01*
X197498665Y-71565000D01*
X197221426Y-71620147D01*
X196960273Y-71728320D01*
X196725241Y-71885363D01*
X196525363Y-72085241D01*
X196370000Y-72317759D01*
X196214637Y-72085241D01*
X196014759Y-71885363D01*
X195779727Y-71728320D01*
X195518574Y-71620147D01*
X195241335Y-71565000D01*
X194958665Y-71565000D01*
X194681426Y-71620147D01*
X194420273Y-71728320D01*
X194185241Y-71885363D01*
X193985363Y-72085241D01*
X193830000Y-72317759D01*
X193674637Y-72085241D01*
X193474759Y-71885363D01*
X193239727Y-71728320D01*
X192978574Y-71620147D01*
X192701335Y-71565000D01*
X192418665Y-71565000D01*
X192141426Y-71620147D01*
X191880273Y-71728320D01*
X191645241Y-71885363D01*
X191445363Y-72085241D01*
X191290000Y-72317759D01*
X191134637Y-72085241D01*
X190934759Y-71885363D01*
X190699727Y-71728320D01*
X190438574Y-71620147D01*
X190161335Y-71565000D01*
X189878665Y-71565000D01*
X189601426Y-71620147D01*
X189340273Y-71728320D01*
X189105241Y-71885363D01*
X188905363Y-72085241D01*
X188750000Y-72317759D01*
X188594637Y-72085241D01*
X188394759Y-71885363D01*
X188159727Y-71728320D01*
X187898574Y-71620147D01*
X187621335Y-71565000D01*
X187338665Y-71565000D01*
X187061426Y-71620147D01*
X186800273Y-71728320D01*
X186565241Y-71885363D01*
X186365363Y-72085241D01*
X186210000Y-72317759D01*
X186054637Y-72085241D01*
X185854759Y-71885363D01*
X185619727Y-71728320D01*
X185358574Y-71620147D01*
X185081335Y-71565000D01*
X184798665Y-71565000D01*
X184521426Y-71620147D01*
X184260273Y-71728320D01*
X184025241Y-71885363D01*
X183826643Y-72083961D01*
X183825812Y-72075518D01*
X183789502Y-71955820D01*
X183730537Y-71845506D01*
X183651185Y-71748815D01*
X183554494Y-71669463D01*
X183444180Y-71610498D01*
X183324482Y-71574188D01*
X183200000Y-71561928D01*
X181600000Y-71561928D01*
X181475518Y-71574188D01*
X181355820Y-71610498D01*
X181245506Y-71669463D01*
X181148815Y-71748815D01*
X181069463Y-71845506D01*
X181010498Y-71955820D01*
X180974188Y-72075518D01*
X180961928Y-72200000D01*
X180961928Y-72915000D01*
X180134656Y-72915000D01*
X180093475Y-72853368D01*
X179886632Y-72646525D01*
X179643411Y-72484010D01*
X179373158Y-72372068D01*
X179086260Y-72315000D01*
X178793740Y-72315000D01*
X178506842Y-72372068D01*
X178236589Y-72484010D01*
X177993368Y-72646525D01*
X177861513Y-72778380D01*
X177839502Y-72705820D01*
X177780537Y-72595506D01*
X177701185Y-72498815D01*
X177604494Y-72419463D01*
X177494180Y-72360498D01*
X177374482Y-72324188D01*
X177250000Y-72311928D01*
X175550000Y-72311928D01*
X175425518Y-72324188D01*
X175305820Y-72360498D01*
X175195506Y-72419463D01*
X175160000Y-72448602D01*
X175160000Y-71345374D01*
X175834231Y-71345374D01*
X176134411Y-71783828D01*
X176713356Y-72094296D01*
X177341746Y-72285852D01*
X177995431Y-72351134D01*
X178649293Y-72287634D01*
X179278203Y-72097792D01*
X179857992Y-71788904D01*
X179865589Y-71783828D01*
X180165769Y-71345374D01*
X233834231Y-71345374D01*
X234134411Y-71783828D01*
X234713356Y-72094296D01*
X235341746Y-72285852D01*
X235995431Y-72351134D01*
X236649293Y-72287634D01*
X237278203Y-72097792D01*
X237857992Y-71788904D01*
X237865589Y-71783828D01*
X238165769Y-71345374D01*
X236000000Y-69179605D01*
X233834231Y-71345374D01*
X180165769Y-71345374D01*
X178000000Y-69179605D01*
X175834231Y-71345374D01*
X175160000Y-71345374D01*
X175160000Y-70762084D01*
X175211096Y-70857992D01*
X175216172Y-70865589D01*
X175654626Y-71165769D01*
X177820395Y-69000000D01*
X178179605Y-69000000D01*
X180345374Y-71165769D01*
X180783828Y-70865589D01*
X181094296Y-70286644D01*
X181285852Y-69658254D01*
X181351134Y-69004569D01*
X181350247Y-68995431D01*
X232648866Y-68995431D01*
X232712366Y-69649293D01*
X232902208Y-70278203D01*
X233211096Y-70857992D01*
X233216172Y-70865589D01*
X233654626Y-71165769D01*
X235820395Y-69000000D01*
X233654626Y-66834231D01*
X233216172Y-67134411D01*
X232905704Y-67713356D01*
X232714148Y-68341746D01*
X232648866Y-68995431D01*
X181350247Y-68995431D01*
X181287634Y-68350707D01*
X181097792Y-67721797D01*
X180788904Y-67142008D01*
X180783828Y-67134411D01*
X180345374Y-66834231D01*
X178179605Y-69000000D01*
X177820395Y-69000000D01*
X175654626Y-66834231D01*
X175216172Y-67134411D01*
X175160000Y-67239158D01*
X175160000Y-66654626D01*
X175834231Y-66654626D01*
X178000000Y-68820395D01*
X180165769Y-66654626D01*
X233834231Y-66654626D01*
X236000000Y-68820395D01*
X238165769Y-66654626D01*
X237865589Y-66216172D01*
X237286644Y-65905704D01*
X236658254Y-65714148D01*
X236004569Y-65648866D01*
X235350707Y-65712366D01*
X234721797Y-65902208D01*
X234142008Y-66211096D01*
X234134411Y-66216172D01*
X233834231Y-66654626D01*
X180165769Y-66654626D01*
X179865589Y-66216172D01*
X179286644Y-65905704D01*
X178658254Y-65714148D01*
X178004569Y-65648866D01*
X177350707Y-65712366D01*
X176721797Y-65902208D01*
X176142008Y-66211096D01*
X176134411Y-66216172D01*
X175834231Y-66654626D01*
X175160000Y-66654626D01*
X175160000Y-48345374D01*
X175834231Y-48345374D01*
X176134411Y-48783828D01*
X176713356Y-49094296D01*
X177341746Y-49285852D01*
X177995431Y-49351134D01*
X178649293Y-49287634D01*
X179278203Y-49097792D01*
X179857992Y-48788904D01*
X179865589Y-48783828D01*
X180165769Y-48345374D01*
X178000000Y-46179605D01*
X175834231Y-48345374D01*
X175160000Y-48345374D01*
X175160000Y-47762084D01*
X175211096Y-47857992D01*
X175216172Y-47865589D01*
X175654626Y-48165769D01*
X177820395Y-46000000D01*
X178179605Y-46000000D01*
X180345374Y-48165769D01*
X180783828Y-47865589D01*
X181094296Y-47286644D01*
X181285852Y-46658254D01*
X181351134Y-46004569D01*
X181287634Y-45350707D01*
X181097792Y-44721797D01*
X180788904Y-44142008D01*
X180783828Y-44134411D01*
X180345374Y-43834231D01*
X178179605Y-46000000D01*
X177820395Y-46000000D01*
X177806253Y-45985858D01*
X177985858Y-45806253D01*
X178000000Y-45820395D01*
X180165769Y-43654626D01*
X179865589Y-43216172D01*
X179760842Y-43160000D01*
X194444236Y-43160000D01*
X194007172Y-43597065D01*
G37*
X194007172Y-43597065D02*
X193986632Y-43576525D01*
X193743411Y-43414010D01*
X193473158Y-43302068D01*
X193186260Y-43245000D01*
X192893740Y-43245000D01*
X192606842Y-43302068D01*
X192336589Y-43414010D01*
X192093368Y-43576525D01*
X191886525Y-43783368D01*
X191770000Y-43957760D01*
X191653475Y-43783368D01*
X191446632Y-43576525D01*
X191203411Y-43414010D01*
X190933158Y-43302068D01*
X190646260Y-43245000D01*
X190353740Y-43245000D01*
X190066842Y-43302068D01*
X189796589Y-43414010D01*
X189553368Y-43576525D01*
X189346525Y-43783368D01*
X189224805Y-43965534D01*
X189155178Y-43848645D01*
X188960269Y-43632412D01*
X188726920Y-43458359D01*
X188464099Y-43333175D01*
X188316890Y-43288524D01*
X188087000Y-43409845D01*
X188087000Y-44603000D01*
X188107000Y-44603000D01*
X188107000Y-44857000D01*
X188087000Y-44857000D01*
X188087000Y-44877000D01*
X187833000Y-44877000D01*
X187833000Y-44857000D01*
X187813000Y-44857000D01*
X187813000Y-44603000D01*
X187833000Y-44603000D01*
X187833000Y-43409845D01*
X187603110Y-43288524D01*
X187455901Y-43333175D01*
X187193080Y-43458359D01*
X186959731Y-43632412D01*
X186764822Y-43848645D01*
X186695195Y-43965534D01*
X186573475Y-43783368D01*
X186366632Y-43576525D01*
X186123411Y-43414010D01*
X185853158Y-43302068D01*
X185566260Y-43245000D01*
X185273740Y-43245000D01*
X184986842Y-43302068D01*
X184716589Y-43414010D01*
X184473368Y-43576525D01*
X184266525Y-43783368D01*
X184150000Y-43957760D01*
X184033475Y-43783368D01*
X183826632Y-43576525D01*
X183583411Y-43414010D01*
X183313158Y-43302068D01*
X183026260Y-43245000D01*
X182733740Y-43245000D01*
X182446842Y-43302068D01*
X182176589Y-43414010D01*
X181933368Y-43576525D01*
X181726525Y-43783368D01*
X181564010Y-44026589D01*
X181452068Y-44296842D01*
X181395000Y-44583740D01*
X181395000Y-44876260D01*
X181452068Y-45163158D01*
X181564010Y-45433411D01*
X181726525Y-45676632D01*
X181858380Y-45808487D01*
X181785820Y-45830498D01*
X181675506Y-45889463D01*
X181578815Y-45968815D01*
X181499463Y-46065506D01*
X181440498Y-46175820D01*
X181404188Y-46295518D01*
X181391928Y-46420000D01*
X181391928Y-48120000D01*
X181404188Y-48244482D01*
X181440498Y-48364180D01*
X181499463Y-48474494D01*
X181578815Y-48571185D01*
X181675506Y-48650537D01*
X181785820Y-48709502D01*
X181905518Y-48745812D01*
X182030000Y-48758072D01*
X182857127Y-48758072D01*
X182775199Y-48840000D01*
X180037322Y-48840000D01*
X180000000Y-48836324D01*
X179962677Y-48840000D01*
X179962667Y-48840000D01*
X179851014Y-48850997D01*
X179707753Y-48894454D01*
X179575723Y-48965026D01*
X179492083Y-49033668D01*
X179459999Y-49059999D01*
X179436201Y-49088997D01*
X177499003Y-51026196D01*
X177469999Y-51049999D01*
X177427407Y-51101898D01*
X177375026Y-51165724D01*
X177329446Y-51250998D01*
X177304454Y-51297754D01*
X177260997Y-51441015D01*
X177250000Y-51552668D01*
X177250000Y-51552678D01*
X177246324Y-51590000D01*
X177250000Y-51627323D01*
X177250000Y-52341821D01*
X177063368Y-52466525D01*
X176856525Y-52673368D01*
X176694010Y-52916589D01*
X176582068Y-53186842D01*
X176525000Y-53473740D01*
X176525000Y-53766260D01*
X176582068Y-54053158D01*
X176694010Y-54323411D01*
X176856525Y-54566632D01*
X177063368Y-54773475D01*
X177237760Y-54890000D01*
X177063368Y-55006525D01*
X176856525Y-55213368D01*
X176694010Y-55456589D01*
X176582068Y-55726842D01*
X176525000Y-56013740D01*
X176525000Y-56306260D01*
X176582068Y-56593158D01*
X176694010Y-56863411D01*
X176856525Y-57106632D01*
X177063368Y-57313475D01*
X177237760Y-57430000D01*
X177063368Y-57546525D01*
X176856525Y-57753368D01*
X176694010Y-57996589D01*
X176582068Y-58266842D01*
X176525000Y-58553740D01*
X176525000Y-58846260D01*
X176582068Y-59133158D01*
X176694010Y-59403411D01*
X176856525Y-59646632D01*
X177063368Y-59853475D01*
X177245534Y-59975195D01*
X177128645Y-60044822D01*
X176912412Y-60239731D01*
X176738359Y-60473080D01*
X176613175Y-60735901D01*
X176568524Y-60883110D01*
X176689845Y-61113000D01*
X177883000Y-61113000D01*
X177883000Y-61093000D01*
X178137000Y-61093000D01*
X178137000Y-61113000D01*
X179330155Y-61113000D01*
X179451476Y-60883110D01*
X179406825Y-60735901D01*
X179281641Y-60473080D01*
X179107588Y-60239731D01*
X178891355Y-60044822D01*
X178774466Y-59975195D01*
X178956632Y-59853475D01*
X179163475Y-59646632D01*
X179325990Y-59403411D01*
X179437932Y-59133158D01*
X179495000Y-58846260D01*
X179495000Y-58553740D01*
X179451209Y-58333592D01*
X181476803Y-56307999D01*
X193382914Y-56307999D01*
X193365000Y-56398061D01*
X193365000Y-56601939D01*
X193404774Y-56801898D01*
X193482795Y-56990256D01*
X193522715Y-57050000D01*
X193482795Y-57109744D01*
X193404774Y-57298102D01*
X193365000Y-57498061D01*
X193365000Y-57701939D01*
X193404774Y-57901898D01*
X193482795Y-58090256D01*
X193515000Y-58138454D01*
X193515000Y-58206493D01*
X193510719Y-58249962D01*
X193515000Y-58293431D01*
X193515000Y-58293439D01*
X193525883Y-58403937D01*
X193527805Y-58423452D01*
X193578412Y-58590275D01*
X193660590Y-58744021D01*
X193715000Y-58810320D01*
X193715001Y-62033420D01*
X192853422Y-62895000D01*
X179494625Y-62895000D01*
X179485812Y-62805518D01*
X179449502Y-62685820D01*
X179390537Y-62575506D01*
X179311185Y-62478815D01*
X179214494Y-62399463D01*
X179104180Y-62340498D01*
X179023534Y-62316034D01*
X179107588Y-62240269D01*
X179281641Y-62006920D01*
X179406825Y-61744099D01*
X179451476Y-61596890D01*
X179330155Y-61367000D01*
X178137000Y-61367000D01*
X178137000Y-61387000D01*
X177883000Y-61387000D01*
X177883000Y-61367000D01*
X176689845Y-61367000D01*
X176568524Y-61596890D01*
X176613175Y-61744099D01*
X176738359Y-62006920D01*
X176912412Y-62240269D01*
X176996466Y-62316034D01*
X176915820Y-62340498D01*
X176805506Y-62399463D01*
X176708815Y-62478815D01*
X176629463Y-62575506D01*
X176570498Y-62685820D01*
X176534188Y-62805518D01*
X176521928Y-62930000D01*
X176521928Y-64630000D01*
X176534188Y-64754482D01*
X176570498Y-64874180D01*
X176629463Y-64984494D01*
X176708815Y-65081185D01*
X176805506Y-65160537D01*
X176915820Y-65219502D01*
X177035518Y-65255812D01*
X177160000Y-65268072D01*
X178860000Y-65268072D01*
X178984482Y-65255812D01*
X179104180Y-65219502D01*
X179214494Y-65160537D01*
X179311185Y-65081185D01*
X179390537Y-64984494D01*
X179449502Y-64874180D01*
X179485812Y-64754482D01*
X179494625Y-64665000D01*
X193176531Y-64665000D01*
X193220000Y-64669281D01*
X193263469Y-64665000D01*
X218341546Y-64665000D01*
X218389744Y-64697205D01*
X218578102Y-64775226D01*
X218778061Y-64815000D01*
X218981939Y-64815000D01*
X219181898Y-64775226D01*
X219370256Y-64697205D01*
X219418454Y-64665000D01*
X228676531Y-64665000D01*
X228720000Y-64669281D01*
X228763469Y-64665000D01*
X228763477Y-64665000D01*
X228893490Y-64652195D01*
X229060313Y-64601589D01*
X229214059Y-64519411D01*
X229348817Y-64408817D01*
X229376534Y-64375044D01*
X231045044Y-62706535D01*
X231101898Y-62695226D01*
X231290256Y-62617205D01*
X231459774Y-62503937D01*
X231603937Y-62359774D01*
X231717205Y-62190256D01*
X231795226Y-62001898D01*
X231835000Y-61801939D01*
X231835000Y-61598061D01*
X231795226Y-61398102D01*
X231717205Y-61209744D01*
X231603937Y-61040226D01*
X231459774Y-60896063D01*
X231290256Y-60782795D01*
X231101898Y-60704774D01*
X230901939Y-60665000D01*
X230698061Y-60665000D01*
X230498102Y-60704774D01*
X230309744Y-60782795D01*
X230140226Y-60896063D01*
X229996063Y-61040226D01*
X229882795Y-61209744D01*
X229804774Y-61398102D01*
X229793465Y-61454956D01*
X228353422Y-62895000D01*
X219418454Y-62895000D01*
X219370256Y-62862795D01*
X219181898Y-62784774D01*
X218981939Y-62745000D01*
X218778061Y-62745000D01*
X218578102Y-62784774D01*
X218389744Y-62862795D01*
X218341546Y-62895000D01*
X195338639Y-62895000D01*
X195339411Y-62894059D01*
X195356122Y-62862795D01*
X195421589Y-62740313D01*
X195472195Y-62573490D01*
X195485000Y-62443477D01*
X195485000Y-62443469D01*
X195489281Y-62400000D01*
X195485000Y-62356531D01*
X195485000Y-58493431D01*
X195489281Y-58449962D01*
X195485000Y-58406493D01*
X195485000Y-58406485D01*
X195472195Y-58276472D01*
X195421589Y-58109649D01*
X195358254Y-57991156D01*
X195395226Y-57901898D01*
X195435000Y-57701939D01*
X195435000Y-57498061D01*
X195395226Y-57298102D01*
X195379444Y-57260000D01*
X200862678Y-57260000D01*
X200900000Y-57263676D01*
X200937322Y-57260000D01*
X200937333Y-57260000D01*
X201048986Y-57249003D01*
X201096302Y-57234650D01*
X201098061Y-57235000D01*
X201301939Y-57235000D01*
X201501898Y-57195226D01*
X201690256Y-57117205D01*
X201859774Y-57003937D01*
X202003937Y-56859774D01*
X202117205Y-56690256D01*
X202195226Y-56501898D01*
X202233795Y-56307999D01*
X205214679Y-56307999D01*
X205252001Y-56311675D01*
X205289323Y-56307999D01*
X205289334Y-56307999D01*
X205400987Y-56297002D01*
X205544248Y-56253545D01*
X205676277Y-56182973D01*
X205792002Y-56088000D01*
X205815805Y-56058996D01*
X208140001Y-53734801D01*
X208140000Y-60296289D01*
X208096063Y-60340226D01*
X207982795Y-60509744D01*
X207904774Y-60698102D01*
X207865000Y-60898061D01*
X207865000Y-61101939D01*
X207904774Y-61301898D01*
X207982795Y-61490256D01*
X208096063Y-61659774D01*
X208240226Y-61803937D01*
X208409744Y-61917205D01*
X208598102Y-61995226D01*
X208798061Y-62035000D01*
X209001939Y-62035000D01*
X209201898Y-61995226D01*
X209390256Y-61917205D01*
X209559774Y-61803937D01*
X209703937Y-61659774D01*
X209817205Y-61490256D01*
X209895226Y-61301898D01*
X209935000Y-61101939D01*
X209935000Y-60898061D01*
X209895226Y-60698102D01*
X209817205Y-60509744D01*
X209703937Y-60340226D01*
X209660000Y-60296289D01*
X209660000Y-53432163D01*
X209724482Y-53425812D01*
X209844180Y-53389502D01*
X209954494Y-53330537D01*
X210051185Y-53251185D01*
X210130537Y-53154494D01*
X210189502Y-53044180D01*
X210225812Y-52924482D01*
X210226643Y-52916039D01*
X210425241Y-53114637D01*
X210660273Y-53271680D01*
X210921426Y-53379853D01*
X211198665Y-53435000D01*
X211340001Y-53435000D01*
X211340000Y-59625299D01*
X211296063Y-59669236D01*
X211182795Y-59838754D01*
X211104774Y-60027112D01*
X211065000Y-60227071D01*
X211065000Y-60430949D01*
X211104774Y-60630908D01*
X211182795Y-60819266D01*
X211296063Y-60988784D01*
X211440226Y-61132947D01*
X211609744Y-61246215D01*
X211798102Y-61324236D01*
X211998061Y-61364010D01*
X212201939Y-61364010D01*
X212401898Y-61324236D01*
X212590256Y-61246215D01*
X212759774Y-61132947D01*
X212903937Y-60988784D01*
X213017205Y-60819266D01*
X213095226Y-60630908D01*
X213135000Y-60430949D01*
X213135000Y-60227071D01*
X213095226Y-60027112D01*
X213017205Y-59838754D01*
X212903937Y-59669236D01*
X212860000Y-59625299D01*
X212860000Y-53009396D01*
X212965241Y-53114637D01*
X213200273Y-53271680D01*
X213461426Y-53379853D01*
X213738665Y-53435000D01*
X214021335Y-53435000D01*
X214298574Y-53379853D01*
X214559727Y-53271680D01*
X214794759Y-53114637D01*
X214994637Y-52914759D01*
X215150000Y-52682241D01*
X215305363Y-52914759D01*
X215505241Y-53114637D01*
X215740273Y-53271680D01*
X216001426Y-53379853D01*
X216278665Y-53435000D01*
X216561335Y-53435000D01*
X216838574Y-53379853D01*
X217099727Y-53271680D01*
X217334759Y-53114637D01*
X217534637Y-52914759D01*
X217690000Y-52682241D01*
X217845363Y-52914759D01*
X218045241Y-53114637D01*
X218280273Y-53271680D01*
X218541426Y-53379853D01*
X218818665Y-53435000D01*
X219101335Y-53435000D01*
X219368212Y-53381914D01*
X219365000Y-53398061D01*
X219365000Y-53601939D01*
X219404774Y-53801898D01*
X219482795Y-53990256D01*
X219596063Y-54159774D01*
X219740226Y-54303937D01*
X219909744Y-54417205D01*
X220098102Y-54495226D01*
X220298061Y-54535000D01*
X220501939Y-54535000D01*
X220701898Y-54495226D01*
X220890256Y-54417205D01*
X221059774Y-54303937D01*
X221103711Y-54260000D01*
X227582678Y-54260000D01*
X227620000Y-54263676D01*
X227657322Y-54260000D01*
X227657333Y-54260000D01*
X227768986Y-54249003D01*
X227912247Y-54205546D01*
X228044276Y-54134974D01*
X228160001Y-54040001D01*
X228183804Y-54010997D01*
X228796114Y-53398688D01*
X228978665Y-53435000D01*
X229261335Y-53435000D01*
X229538574Y-53379853D01*
X229799727Y-53271680D01*
X230034759Y-53114637D01*
X230234637Y-52914759D01*
X230390000Y-52682241D01*
X230545363Y-52914759D01*
X230745241Y-53114637D01*
X230980273Y-53271680D01*
X231241426Y-53379853D01*
X231518665Y-53435000D01*
X231801335Y-53435000D01*
X232078574Y-53379853D01*
X232339727Y-53271680D01*
X232574759Y-53114637D01*
X232774637Y-52914759D01*
X232931680Y-52679727D01*
X233039853Y-52418574D01*
X233095000Y-52141335D01*
X233095000Y-51858665D01*
X233039853Y-51581426D01*
X232931680Y-51320273D01*
X232774637Y-51085241D01*
X232574759Y-50885363D01*
X232339727Y-50728320D01*
X232078574Y-50620147D01*
X231801335Y-50565000D01*
X231518665Y-50565000D01*
X231336114Y-50601312D01*
X230797999Y-50063198D01*
X230797999Y-48703619D01*
X231013000Y-48590155D01*
X231013000Y-47397000D01*
X231267000Y-47397000D01*
X231267000Y-48590155D01*
X231496890Y-48711476D01*
X231644099Y-48666825D01*
X231906920Y-48541641D01*
X232140269Y-48367588D01*
X232160292Y-48345374D01*
X233834231Y-48345374D01*
X234134411Y-48783828D01*
X234713356Y-49094296D01*
X235341746Y-49285852D01*
X235995431Y-49351134D01*
X236649293Y-49287634D01*
X237278203Y-49097792D01*
X237857992Y-48788904D01*
X237865589Y-48783828D01*
X238165769Y-48345374D01*
X236000000Y-46179605D01*
X233834231Y-48345374D01*
X232160292Y-48345374D01*
X232335178Y-48151355D01*
X232484157Y-47901252D01*
X232581481Y-47626891D01*
X232460814Y-47397000D01*
X231267000Y-47397000D01*
X231013000Y-47397000D01*
X230993000Y-47397000D01*
X230993000Y-47143000D01*
X231013000Y-47143000D01*
X231013000Y-47123000D01*
X231267000Y-47123000D01*
X231267000Y-47143000D01*
X232460814Y-47143000D01*
X232581481Y-46913109D01*
X232484157Y-46638748D01*
X232335178Y-46388645D01*
X232140269Y-46172412D01*
X231910594Y-46001100D01*
X231919078Y-45995431D01*
X232648866Y-45995431D01*
X232712366Y-46649293D01*
X232902208Y-47278203D01*
X233211096Y-47857992D01*
X233216172Y-47865589D01*
X233654626Y-48165769D01*
X235820395Y-46000000D01*
X233654626Y-43834231D01*
X233216172Y-44134411D01*
X232905704Y-44713356D01*
X232714148Y-45341746D01*
X232648866Y-45995431D01*
X231919078Y-45995431D01*
X232086632Y-45883475D01*
X232293475Y-45676632D01*
X232455990Y-45433411D01*
X232567932Y-45163158D01*
X232625000Y-44876260D01*
X232625000Y-44583740D01*
X232567932Y-44296842D01*
X232455990Y-44026589D01*
X232293475Y-43783368D01*
X232086632Y-43576525D01*
X231843411Y-43414010D01*
X231573158Y-43302068D01*
X231286260Y-43245000D01*
X230993740Y-43245000D01*
X230706842Y-43302068D01*
X230436589Y-43414010D01*
X230193368Y-43576525D01*
X229986525Y-43783368D01*
X229870000Y-43957760D01*
X229753475Y-43783368D01*
X229546632Y-43576525D01*
X229303411Y-43414010D01*
X229033158Y-43302068D01*
X228746260Y-43245000D01*
X228453740Y-43245000D01*
X228166842Y-43302068D01*
X227896589Y-43414010D01*
X227653368Y-43576525D01*
X227446525Y-43783368D01*
X227330000Y-43957760D01*
X227213475Y-43783368D01*
X227006632Y-43576525D01*
X226763411Y-43414010D01*
X226493158Y-43302068D01*
X226206260Y-43245000D01*
X225913740Y-43245000D01*
X225693592Y-43288791D01*
X225564801Y-43160000D01*
X234237916Y-43160000D01*
X234142008Y-43211096D01*
X234134411Y-43216172D01*
X233834231Y-43654626D01*
X236000000Y-45820395D01*
X236014143Y-45806253D01*
X236193748Y-45985858D01*
X236179605Y-46000000D01*
X238345374Y-48165769D01*
X238783828Y-47865589D01*
X238840000Y-47760842D01*
X238840000Y-67237917D01*
X238788904Y-67142008D01*
X238783828Y-67134411D01*
X238345374Y-66834231D01*
X236179605Y-69000000D01*
X238345374Y-71165769D01*
X238783828Y-70865589D01*
X238840000Y-70760842D01*
X238840001Y-93237918D01*
X238788904Y-93142008D01*
X238783828Y-93134411D01*
X238345374Y-92834231D01*
X236179605Y-95000000D01*
X238345374Y-97165769D01*
X238783828Y-96865589D01*
X238840001Y-96760841D01*
X238840001Y-112667711D01*
X238782808Y-113251010D01*
X238622783Y-113781036D01*
X238362860Y-114269880D01*
X238012935Y-114698931D01*
X237586335Y-115051845D01*
X237099320Y-115315173D01*
X236570422Y-115478894D01*
X235989040Y-115540000D01*
X178032279Y-115540000D01*
X177448990Y-115482808D01*
X176918964Y-115322783D01*
X176430120Y-115062860D01*
X176001069Y-114712935D01*
X175648155Y-114286335D01*
X175384827Y-113799320D01*
X175221106Y-113270422D01*
X175160000Y-112689040D01*
X175160000Y-107782414D01*
X176684600Y-107782414D01*
X176684600Y-108037586D01*
X176734381Y-108287854D01*
X176832031Y-108523602D01*
X176973797Y-108735769D01*
X177154231Y-108916203D01*
X177366398Y-109057969D01*
X177602146Y-109155619D01*
X177852414Y-109205400D01*
X178107586Y-109205400D01*
X178357854Y-109155619D01*
X178593602Y-109057969D01*
X178805769Y-108916203D01*
X178986203Y-108735769D01*
X179127969Y-108523602D01*
X179225619Y-108287854D01*
X179275400Y-108037586D01*
X179275400Y-107782414D01*
X179225619Y-107532146D01*
X179127969Y-107296398D01*
X178986203Y-107084231D01*
X178805769Y-106903797D01*
X178593602Y-106762031D01*
X178357854Y-106664381D01*
X178107586Y-106614600D01*
X177852414Y-106614600D01*
X177602146Y-106664381D01*
X177366398Y-106762031D01*
X177154231Y-106903797D01*
X176973797Y-107084231D01*
X176832031Y-107296398D01*
X176734381Y-107532146D01*
X176684600Y-107782414D01*
X175160000Y-107782414D01*
X175160000Y-101189763D01*
X184712267Y-110742031D01*
X184736065Y-110771029D01*
X184765063Y-110794827D01*
X184851789Y-110866002D01*
X184983819Y-110936574D01*
X185127080Y-110980031D01*
X185238733Y-110991028D01*
X185238742Y-110991028D01*
X185276065Y-110994704D01*
X185313388Y-110991028D01*
X200019612Y-110991028D01*
X200056934Y-110994704D01*
X200094256Y-110991028D01*
X200094267Y-110991028D01*
X200205920Y-110980031D01*
X200349181Y-110936574D01*
X200481210Y-110866002D01*
X200596935Y-110771029D01*
X200620738Y-110742025D01*
X204561461Y-106801303D01*
X204569201Y-106812886D01*
X204762114Y-107005799D01*
X204988957Y-107157371D01*
X205241011Y-107261775D01*
X205508589Y-107315000D01*
X205781411Y-107315000D01*
X206048989Y-107261775D01*
X206301043Y-107157371D01*
X206527886Y-107005799D01*
X206720799Y-106812886D01*
X206745955Y-106775238D01*
X206778025Y-106835237D01*
X206849200Y-106921963D01*
X206872999Y-106950962D01*
X206901997Y-106974760D01*
X210338239Y-110411003D01*
X210362037Y-110440001D01*
X210477762Y-110534974D01*
X210609791Y-110605546D01*
X210753052Y-110649003D01*
X210864705Y-110660000D01*
X210864714Y-110660000D01*
X210902037Y-110663676D01*
X210939360Y-110660000D01*
X222413060Y-110660000D01*
X222498102Y-110695226D01*
X222698061Y-110735000D01*
X222901939Y-110735000D01*
X223101898Y-110695226D01*
X223290256Y-110617205D01*
X223459774Y-110503937D01*
X223603937Y-110359774D01*
X223717205Y-110190256D01*
X223795226Y-110001898D01*
X223835000Y-109801939D01*
X223835000Y-109598061D01*
X223804995Y-109447214D01*
X223909744Y-109517205D01*
X224098102Y-109595226D01*
X224298061Y-109635000D01*
X224501939Y-109635000D01*
X224701898Y-109595226D01*
X224890256Y-109517205D01*
X225059774Y-109403937D01*
X225203937Y-109259774D01*
X225317205Y-109090256D01*
X225395226Y-108901898D01*
X225435000Y-108701939D01*
X225435000Y-108498061D01*
X225423239Y-108438935D01*
X225462967Y-108435022D01*
X225606228Y-108391565D01*
X225738257Y-108320993D01*
X225853982Y-108226020D01*
X225877785Y-108197016D01*
X226839802Y-107235000D01*
X226901939Y-107235000D01*
X227101898Y-107195226D01*
X227290256Y-107117205D01*
X227459774Y-107003937D01*
X227603937Y-106859774D01*
X227717205Y-106690256D01*
X227737181Y-106642029D01*
X228627576Y-106642029D01*
X228891740Y-107049755D01*
X229419661Y-107330317D01*
X229992173Y-107502496D01*
X230587275Y-107559676D01*
X231182098Y-107499658D01*
X231753782Y-107324750D01*
X232268260Y-107049755D01*
X232532424Y-106642029D01*
X230580000Y-104689605D01*
X228627576Y-106642029D01*
X227737181Y-106642029D01*
X227795226Y-106501898D01*
X227835000Y-106301939D01*
X227835000Y-106098061D01*
X227795226Y-105898102D01*
X227717205Y-105709744D01*
X227603937Y-105540226D01*
X227459774Y-105396063D01*
X227290256Y-105282795D01*
X227101898Y-105204774D01*
X227046154Y-105193686D01*
X227547943Y-104691896D01*
X227590342Y-105112098D01*
X227765250Y-105683782D01*
X228040245Y-106198260D01*
X228447971Y-106462424D01*
X230400395Y-104510000D01*
X230759605Y-104510000D01*
X232712029Y-106462424D01*
X233119755Y-106198260D01*
X233400317Y-105670339D01*
X233572496Y-105097827D01*
X233629676Y-104502725D01*
X233569658Y-103907902D01*
X233394750Y-103336218D01*
X233119755Y-102821740D01*
X232712029Y-102557576D01*
X230759605Y-104510000D01*
X230400395Y-104510000D01*
X230386253Y-104495858D01*
X230565858Y-104316253D01*
X230580000Y-104330395D01*
X232532424Y-102377971D01*
X232268260Y-101970245D01*
X231740339Y-101689683D01*
X231167827Y-101517504D01*
X230761388Y-101478452D01*
X232171004Y-100068836D01*
X232200001Y-100045039D01*
X232278830Y-99948986D01*
X232294974Y-99929315D01*
X232365546Y-99797285D01*
X232391806Y-99710715D01*
X232409003Y-99654024D01*
X232420000Y-99542371D01*
X232420000Y-99542362D01*
X232423398Y-99507857D01*
X234070000Y-99507857D01*
X234070000Y-112292143D01*
X237890000Y-112292143D01*
X237890000Y-99507857D01*
X234070000Y-99507857D01*
X232423398Y-99507857D01*
X232423676Y-99505039D01*
X232420000Y-99467716D01*
X232420000Y-97345374D01*
X233834231Y-97345374D01*
X234134411Y-97783828D01*
X234713356Y-98094296D01*
X235341746Y-98285852D01*
X235995431Y-98351134D01*
X236649293Y-98287634D01*
X237278203Y-98097792D01*
X237857992Y-97788904D01*
X237865589Y-97783828D01*
X238165769Y-97345374D01*
X236000000Y-95179605D01*
X233834231Y-97345374D01*
X232420000Y-97345374D01*
X232420000Y-94995431D01*
X232648866Y-94995431D01*
X232712366Y-95649293D01*
X232902208Y-96278203D01*
X233211096Y-96857992D01*
X233216172Y-96865589D01*
X233654626Y-97165769D01*
X235820395Y-95000000D01*
X233654626Y-92834231D01*
X233216172Y-93134411D01*
X232905704Y-93713356D01*
X232714148Y-94341746D01*
X232648866Y-94995431D01*
X232420000Y-94995431D01*
X232420000Y-92654626D01*
X233834231Y-92654626D01*
X236000000Y-94820395D01*
X238165769Y-92654626D01*
X237865589Y-92216172D01*
X237286644Y-91905704D01*
X236658254Y-91714148D01*
X236004569Y-91648866D01*
X235350707Y-91712366D01*
X234721797Y-91902208D01*
X234142008Y-92211096D01*
X234134411Y-92216172D01*
X233834231Y-92654626D01*
X232420000Y-92654626D01*
X232420000Y-77618043D01*
X232574759Y-77514637D01*
X232774637Y-77314759D01*
X232931680Y-77079727D01*
X233039853Y-76818574D01*
X233095000Y-76541335D01*
X233095000Y-76352519D01*
X233198102Y-76395226D01*
X233398061Y-76435000D01*
X233601939Y-76435000D01*
X233801898Y-76395226D01*
X233990256Y-76317205D01*
X234159774Y-76203937D01*
X234303937Y-76059774D01*
X234417205Y-75890256D01*
X234495226Y-75701898D01*
X234535000Y-75501939D01*
X234535000Y-75298061D01*
X234495226Y-75098102D01*
X234417205Y-74909744D01*
X234303937Y-74740226D01*
X234159774Y-74596063D01*
X233990256Y-74482795D01*
X233801898Y-74404774D01*
X233601939Y-74365000D01*
X233539801Y-74365000D01*
X233263803Y-74089002D01*
X233240001Y-74059999D01*
X233124276Y-73965026D01*
X232992247Y-73894454D01*
X232848986Y-73850997D01*
X232812932Y-73847446D01*
X232931680Y-73669727D01*
X233039853Y-73408574D01*
X233095000Y-73131335D01*
X233095000Y-72848665D01*
X233039853Y-72571426D01*
X232931680Y-72310273D01*
X232774637Y-72075241D01*
X232574759Y-71875363D01*
X232339727Y-71718320D01*
X232078574Y-71610147D01*
X231801335Y-71555000D01*
X231518665Y-71555000D01*
X231241426Y-71610147D01*
X230980273Y-71718320D01*
X230745241Y-71875363D01*
X230545363Y-72075241D01*
X230390000Y-72307759D01*
X230234637Y-72075241D01*
X230034759Y-71875363D01*
X229799727Y-71718320D01*
X229538574Y-71610147D01*
X229261335Y-71555000D01*
X228978665Y-71555000D01*
X228701426Y-71610147D01*
X228440273Y-71718320D01*
X228205241Y-71875363D01*
X228005363Y-72075241D01*
X227850000Y-72307759D01*
X227694637Y-72075241D01*
X227494759Y-71875363D01*
X227259727Y-71718320D01*
X226998574Y-71610147D01*
X226721335Y-71555000D01*
X226438665Y-71555000D01*
X226161426Y-71610147D01*
X225900273Y-71718320D01*
X225665241Y-71875363D01*
X225465363Y-72075241D01*
X225310000Y-72307759D01*
X225154637Y-72075241D01*
X224954759Y-71875363D01*
X224719727Y-71718320D01*
X224458574Y-71610147D01*
X224181335Y-71555000D01*
X223898665Y-71555000D01*
X223621426Y-71610147D01*
X223360273Y-71718320D01*
X223125241Y-71875363D01*
X222925363Y-72075241D01*
X222770000Y-72307759D01*
X222614637Y-72075241D01*
X222414759Y-71875363D01*
X222179727Y-71718320D01*
X221918574Y-71610147D01*
X221641335Y-71555000D01*
X221358665Y-71555000D01*
X221081426Y-71610147D01*
X220820273Y-71718320D01*
X220585241Y-71875363D01*
X220385363Y-72075241D01*
X220230000Y-72307759D01*
X220074637Y-72075241D01*
X219874759Y-71875363D01*
X219639727Y-71718320D01*
X219378574Y-71610147D01*
X219101335Y-71555000D01*
X218818665Y-71555000D01*
X218541426Y-71610147D01*
X218280273Y-71718320D01*
X218045241Y-71875363D01*
X217845363Y-72075241D01*
X217690000Y-72307759D01*
X217534637Y-72075241D01*
X217334759Y-71875363D01*
X217099727Y-71718320D01*
X216838574Y-71610147D01*
X216561335Y-71555000D01*
X216278665Y-71555000D01*
X216001426Y-71610147D01*
X215740273Y-71718320D01*
X215505241Y-71875363D01*
X215305363Y-72075241D01*
X215150000Y-72307759D01*
X214994637Y-72075241D01*
X214794759Y-71875363D01*
X214559727Y-71718320D01*
X214298574Y-71610147D01*
X214021335Y-71555000D01*
X213738665Y-71555000D01*
X213461426Y-71610147D01*
X213200273Y-71718320D01*
X212965241Y-71875363D01*
X212765363Y-72075241D01*
X212610000Y-72307759D01*
X212454637Y-72075241D01*
X212254759Y-71875363D01*
X212019727Y-71718320D01*
X211758574Y-71610147D01*
X211481335Y-71555000D01*
X211198665Y-71555000D01*
X210921426Y-71610147D01*
X210660273Y-71718320D01*
X210425241Y-71875363D01*
X210226643Y-72073961D01*
X210225812Y-72065518D01*
X210189502Y-71945820D01*
X210130537Y-71835506D01*
X210051185Y-71738815D01*
X209954494Y-71659463D01*
X209844180Y-71600498D01*
X209724482Y-71564188D01*
X209600000Y-71551928D01*
X208000000Y-71551928D01*
X207875518Y-71564188D01*
X207755820Y-71600498D01*
X207645506Y-71659463D01*
X207548815Y-71738815D01*
X207469463Y-71835506D01*
X207410498Y-71945820D01*
X207374188Y-72065518D01*
X207361928Y-72190000D01*
X207361928Y-73176494D01*
X206827433Y-73710989D01*
X206510791Y-73710989D01*
X206531680Y-73679727D01*
X206639853Y-73418574D01*
X206695000Y-73141335D01*
X206695000Y-72858665D01*
X206639853Y-72581426D01*
X206531680Y-72320273D01*
X206374637Y-72085241D01*
X206174759Y-71885363D01*
X205939727Y-71728320D01*
X205678574Y-71620147D01*
X205401335Y-71565000D01*
X205118665Y-71565000D01*
X204841426Y-71620147D01*
X204580273Y-71728320D01*
X204345241Y-71885363D01*
X204145363Y-72085241D01*
X203990000Y-72317759D01*
X203834637Y-72085241D01*
X203634759Y-71885363D01*
X203399727Y-71728320D01*
X203138574Y-71620147D01*
X202861335Y-71565000D01*
X202578665Y-71565000D01*
X202301426Y-71620147D01*
X202040273Y-71728320D01*
X201805241Y-71885363D01*
X201605363Y-72085241D01*
X201450000Y-72317759D01*
X201294637Y-72085241D01*
X201094759Y-71885363D01*
X200859727Y-71728320D01*
X200598574Y-71620147D01*
X200321335Y-71565000D01*
X200038665Y-71565000D01*
X199761426Y-71620147D01*
X199500273Y-71728320D01*
X199265241Y-71885363D01*
X199065363Y-72085241D01*
X198910000Y-72317759D01*
X198754637Y-72085241D01*
X198554759Y-71885363D01*
X198319727Y-71728320D01*
X198058574Y-71620147D01*
X197781335Y-71565000D01*
X197498665Y-71565000D01*
X197221426Y-71620147D01*
X196960273Y-71728320D01*
X196725241Y-71885363D01*
X196525363Y-72085241D01*
X196370000Y-72317759D01*
X196214637Y-72085241D01*
X196014759Y-71885363D01*
X195779727Y-71728320D01*
X195518574Y-71620147D01*
X195241335Y-71565000D01*
X194958665Y-71565000D01*
X194681426Y-71620147D01*
X194420273Y-71728320D01*
X194185241Y-71885363D01*
X193985363Y-72085241D01*
X193830000Y-72317759D01*
X193674637Y-72085241D01*
X193474759Y-71885363D01*
X193239727Y-71728320D01*
X192978574Y-71620147D01*
X192701335Y-71565000D01*
X192418665Y-71565000D01*
X192141426Y-71620147D01*
X191880273Y-71728320D01*
X191645241Y-71885363D01*
X191445363Y-72085241D01*
X191290000Y-72317759D01*
X191134637Y-72085241D01*
X190934759Y-71885363D01*
X190699727Y-71728320D01*
X190438574Y-71620147D01*
X190161335Y-71565000D01*
X189878665Y-71565000D01*
X189601426Y-71620147D01*
X189340273Y-71728320D01*
X189105241Y-71885363D01*
X188905363Y-72085241D01*
X188750000Y-72317759D01*
X188594637Y-72085241D01*
X188394759Y-71885363D01*
X188159727Y-71728320D01*
X187898574Y-71620147D01*
X187621335Y-71565000D01*
X187338665Y-71565000D01*
X187061426Y-71620147D01*
X186800273Y-71728320D01*
X186565241Y-71885363D01*
X186365363Y-72085241D01*
X186210000Y-72317759D01*
X186054637Y-72085241D01*
X185854759Y-71885363D01*
X185619727Y-71728320D01*
X185358574Y-71620147D01*
X185081335Y-71565000D01*
X184798665Y-71565000D01*
X184521426Y-71620147D01*
X184260273Y-71728320D01*
X184025241Y-71885363D01*
X183826643Y-72083961D01*
X183825812Y-72075518D01*
X183789502Y-71955820D01*
X183730537Y-71845506D01*
X183651185Y-71748815D01*
X183554494Y-71669463D01*
X183444180Y-71610498D01*
X183324482Y-71574188D01*
X183200000Y-71561928D01*
X181600000Y-71561928D01*
X181475518Y-71574188D01*
X181355820Y-71610498D01*
X181245506Y-71669463D01*
X181148815Y-71748815D01*
X181069463Y-71845506D01*
X181010498Y-71955820D01*
X180974188Y-72075518D01*
X180961928Y-72200000D01*
X180961928Y-72915000D01*
X180134656Y-72915000D01*
X180093475Y-72853368D01*
X179886632Y-72646525D01*
X179643411Y-72484010D01*
X179373158Y-72372068D01*
X179086260Y-72315000D01*
X178793740Y-72315000D01*
X178506842Y-72372068D01*
X178236589Y-72484010D01*
X177993368Y-72646525D01*
X177861513Y-72778380D01*
X177839502Y-72705820D01*
X177780537Y-72595506D01*
X177701185Y-72498815D01*
X177604494Y-72419463D01*
X177494180Y-72360498D01*
X177374482Y-72324188D01*
X177250000Y-72311928D01*
X175550000Y-72311928D01*
X175425518Y-72324188D01*
X175305820Y-72360498D01*
X175195506Y-72419463D01*
X175160000Y-72448602D01*
X175160000Y-71345374D01*
X175834231Y-71345374D01*
X176134411Y-71783828D01*
X176713356Y-72094296D01*
X177341746Y-72285852D01*
X177995431Y-72351134D01*
X178649293Y-72287634D01*
X179278203Y-72097792D01*
X179857992Y-71788904D01*
X179865589Y-71783828D01*
X180165769Y-71345374D01*
X233834231Y-71345374D01*
X234134411Y-71783828D01*
X234713356Y-72094296D01*
X235341746Y-72285852D01*
X235995431Y-72351134D01*
X236649293Y-72287634D01*
X237278203Y-72097792D01*
X237857992Y-71788904D01*
X237865589Y-71783828D01*
X238165769Y-71345374D01*
X236000000Y-69179605D01*
X233834231Y-71345374D01*
X180165769Y-71345374D01*
X178000000Y-69179605D01*
X175834231Y-71345374D01*
X175160000Y-71345374D01*
X175160000Y-70762084D01*
X175211096Y-70857992D01*
X175216172Y-70865589D01*
X175654626Y-71165769D01*
X177820395Y-69000000D01*
X178179605Y-69000000D01*
X180345374Y-71165769D01*
X180783828Y-70865589D01*
X181094296Y-70286644D01*
X181285852Y-69658254D01*
X181351134Y-69004569D01*
X181350247Y-68995431D01*
X232648866Y-68995431D01*
X232712366Y-69649293D01*
X232902208Y-70278203D01*
X233211096Y-70857992D01*
X233216172Y-70865589D01*
X233654626Y-71165769D01*
X235820395Y-69000000D01*
X233654626Y-66834231D01*
X233216172Y-67134411D01*
X232905704Y-67713356D01*
X232714148Y-68341746D01*
X232648866Y-68995431D01*
X181350247Y-68995431D01*
X181287634Y-68350707D01*
X181097792Y-67721797D01*
X180788904Y-67142008D01*
X180783828Y-67134411D01*
X180345374Y-66834231D01*
X178179605Y-69000000D01*
X177820395Y-69000000D01*
X175654626Y-66834231D01*
X175216172Y-67134411D01*
X175160000Y-67239158D01*
X175160000Y-66654626D01*
X175834231Y-66654626D01*
X178000000Y-68820395D01*
X180165769Y-66654626D01*
X233834231Y-66654626D01*
X236000000Y-68820395D01*
X238165769Y-66654626D01*
X237865589Y-66216172D01*
X237286644Y-65905704D01*
X236658254Y-65714148D01*
X236004569Y-65648866D01*
X235350707Y-65712366D01*
X234721797Y-65902208D01*
X234142008Y-66211096D01*
X234134411Y-66216172D01*
X233834231Y-66654626D01*
X180165769Y-66654626D01*
X179865589Y-66216172D01*
X179286644Y-65905704D01*
X178658254Y-65714148D01*
X178004569Y-65648866D01*
X177350707Y-65712366D01*
X176721797Y-65902208D01*
X176142008Y-66211096D01*
X176134411Y-66216172D01*
X175834231Y-66654626D01*
X175160000Y-66654626D01*
X175160000Y-48345374D01*
X175834231Y-48345374D01*
X176134411Y-48783828D01*
X176713356Y-49094296D01*
X177341746Y-49285852D01*
X177995431Y-49351134D01*
X178649293Y-49287634D01*
X179278203Y-49097792D01*
X179857992Y-48788904D01*
X179865589Y-48783828D01*
X180165769Y-48345374D01*
X178000000Y-46179605D01*
X175834231Y-48345374D01*
X175160000Y-48345374D01*
X175160000Y-47762084D01*
X175211096Y-47857992D01*
X175216172Y-47865589D01*
X175654626Y-48165769D01*
X177820395Y-46000000D01*
X178179605Y-46000000D01*
X180345374Y-48165769D01*
X180783828Y-47865589D01*
X181094296Y-47286644D01*
X181285852Y-46658254D01*
X181351134Y-46004569D01*
X181287634Y-45350707D01*
X181097792Y-44721797D01*
X180788904Y-44142008D01*
X180783828Y-44134411D01*
X180345374Y-43834231D01*
X178179605Y-46000000D01*
X177820395Y-46000000D01*
X177806253Y-45985858D01*
X177985858Y-45806253D01*
X178000000Y-45820395D01*
X180165769Y-43654626D01*
X179865589Y-43216172D01*
X179760842Y-43160000D01*
X194444236Y-43160000D01*
X194007172Y-43597065D01*
G36*
X182848421Y-74700000D02*
G01*
X182586493Y-74961928D01*
X181600000Y-74961928D01*
X181475518Y-74974188D01*
X181355820Y-75010498D01*
X181245506Y-75069463D01*
X181148815Y-75148815D01*
X181069463Y-75245506D01*
X181010498Y-75355820D01*
X180974188Y-75475518D01*
X180961928Y-75600000D01*
X180961928Y-76515000D01*
X180134656Y-76515000D01*
X180093475Y-76453368D01*
X179886632Y-76246525D01*
X179643411Y-76084010D01*
X179373158Y-75972068D01*
X179086260Y-75915000D01*
X178793740Y-75915000D01*
X178506842Y-75972068D01*
X178236589Y-76084010D01*
X177993368Y-76246525D01*
X177861513Y-76378380D01*
X177839502Y-76305820D01*
X177780537Y-76195506D01*
X177701185Y-76098815D01*
X177604494Y-76019463D01*
X177494180Y-75960498D01*
X177374482Y-75924188D01*
X177250000Y-75911928D01*
X176685750Y-75915000D01*
X176527000Y-76073750D01*
X176527000Y-77273000D01*
X176547000Y-77273000D01*
X176547000Y-77527000D01*
X176527000Y-77527000D01*
X176527000Y-78726250D01*
X176685750Y-78885000D01*
X177250000Y-78888072D01*
X177374482Y-78875812D01*
X177494180Y-78839502D01*
X177604494Y-78780537D01*
X177701185Y-78701185D01*
X177780537Y-78604494D01*
X177839502Y-78494180D01*
X177861513Y-78421620D01*
X177993368Y-78553475D01*
X178236589Y-78715990D01*
X178506842Y-78827932D01*
X178793740Y-78885000D01*
X179086260Y-78885000D01*
X179373158Y-78827932D01*
X179643411Y-78715990D01*
X179886632Y-78553475D01*
X180093475Y-78346632D01*
X180134656Y-78285000D01*
X181356531Y-78285000D01*
X181400000Y-78289281D01*
X181443469Y-78285000D01*
X181443477Y-78285000D01*
X181573490Y-78272195D01*
X181740313Y-78221589D01*
X181894059Y-78139411D01*
X182028817Y-78028817D01*
X182056534Y-77995044D01*
X182213506Y-77838072D01*
X183200000Y-77838072D01*
X183324482Y-77825812D01*
X183444180Y-77789502D01*
X183554494Y-77730537D01*
X183651185Y-77651185D01*
X183730537Y-77554494D01*
X183789502Y-77444180D01*
X183825812Y-77324482D01*
X183826643Y-77316039D01*
X184025241Y-77514637D01*
X184260273Y-77671680D01*
X184521426Y-77779853D01*
X184798665Y-77835000D01*
X185081335Y-77835000D01*
X185263887Y-77798688D01*
X189265167Y-81799969D01*
X189288965Y-81828967D01*
X189317963Y-81852765D01*
X189404689Y-81923940D01*
X189536719Y-81994512D01*
X189679980Y-82037969D01*
X189791633Y-82048966D01*
X189791642Y-82048966D01*
X189828965Y-82052642D01*
X189866288Y-82048966D01*
X194394657Y-82048966D01*
X194365000Y-82198061D01*
X194365000Y-82260198D01*
X191116504Y-85508695D01*
X191003937Y-85340226D01*
X190859774Y-85196063D01*
X190690256Y-85082795D01*
X190501898Y-85004774D01*
X190301939Y-84965000D01*
X190098061Y-84965000D01*
X189898102Y-85004774D01*
X189709744Y-85082795D01*
X189540226Y-85196063D01*
X189396063Y-85340226D01*
X189282795Y-85509744D01*
X189204774Y-85698102D01*
X189165000Y-85898061D01*
X189165000Y-85960199D01*
X189133696Y-85991503D01*
X189095226Y-85798102D01*
X189017205Y-85609744D01*
X188903937Y-85440226D01*
X188759774Y-85296063D01*
X188590256Y-85182795D01*
X188401898Y-85104774D01*
X188201939Y-85065000D01*
X187998061Y-85065000D01*
X187798102Y-85104774D01*
X187609744Y-85182795D01*
X187440226Y-85296063D01*
X187296063Y-85440226D01*
X187182795Y-85609744D01*
X187104774Y-85798102D01*
X187065000Y-85998061D01*
X187065000Y-86190198D01*
X186635000Y-85760199D01*
X186635000Y-85698061D01*
X186595226Y-85498102D01*
X186517205Y-85309744D01*
X186403937Y-85140226D01*
X186259774Y-84996063D01*
X186090256Y-84882795D01*
X185901898Y-84804774D01*
X185701939Y-84765000D01*
X185498061Y-84765000D01*
X185298102Y-84804774D01*
X185109744Y-84882795D01*
X184940226Y-84996063D01*
X184796063Y-85140226D01*
X184682795Y-85309744D01*
X184604774Y-85498102D01*
X184565000Y-85698061D01*
X184565000Y-85901939D01*
X184604774Y-86101898D01*
X184682795Y-86290256D01*
X184718513Y-86343711D01*
X184135000Y-85760199D01*
X184135000Y-85698061D01*
X184095226Y-85498102D01*
X184017205Y-85309744D01*
X183903937Y-85140226D01*
X183759774Y-84996063D01*
X183590256Y-84882795D01*
X183401898Y-84804774D01*
X183201939Y-84765000D01*
X182998061Y-84765000D01*
X182798102Y-84804774D01*
X182609744Y-84882795D01*
X182440226Y-84996063D01*
X182296063Y-85140226D01*
X182182795Y-85309744D01*
X182104774Y-85498102D01*
X182065000Y-85698061D01*
X182065000Y-85901939D01*
X182104774Y-86101898D01*
X182182795Y-86290256D01*
X182296063Y-86459774D01*
X182440226Y-86603937D01*
X182609744Y-86717205D01*
X182798102Y-86795226D01*
X182998061Y-86835000D01*
X183060199Y-86835000D01*
X186062991Y-89837793D01*
X186062991Y-90588188D01*
X181135000Y-85660199D01*
X181135000Y-85598061D01*
X181095226Y-85398102D01*
X181017205Y-85209744D01*
X180903937Y-85040226D01*
X180759774Y-84896063D01*
X180590256Y-84782795D01*
X180401898Y-84704774D01*
X180201939Y-84665000D01*
X179998061Y-84665000D01*
X179798102Y-84704774D01*
X179609744Y-84782795D01*
X179440226Y-84896063D01*
X179296063Y-85040226D01*
X179182795Y-85209744D01*
X179104774Y-85398102D01*
X179065000Y-85598061D01*
X179065000Y-85801939D01*
X179104774Y-86001898D01*
X179182795Y-86190256D01*
X179296063Y-86359774D01*
X179440226Y-86503937D01*
X179609744Y-86617205D01*
X179798102Y-86695226D01*
X179998061Y-86735000D01*
X180060199Y-86735000D01*
X185640001Y-92314804D01*
X185640000Y-102575698D01*
X185612029Y-102557576D01*
X183659605Y-104510000D01*
X185612029Y-106462424D01*
X185754179Y-106370326D01*
X185765026Y-106390620D01*
X185777276Y-106405546D01*
X185859999Y-106506345D01*
X185889003Y-106530148D01*
X188829882Y-109471028D01*
X185590868Y-109471028D01*
X183661896Y-107542057D01*
X184082098Y-107499658D01*
X184653782Y-107324750D01*
X185168260Y-107049755D01*
X185432424Y-106642029D01*
X183480000Y-104689605D01*
X183465858Y-104703748D01*
X183286253Y-104524143D01*
X183300395Y-104510000D01*
X181347971Y-102557576D01*
X180940245Y-102821740D01*
X180659683Y-103349661D01*
X180487504Y-103922173D01*
X180448452Y-104328612D01*
X178497811Y-102377971D01*
X181527576Y-102377971D01*
X183480000Y-104330395D01*
X185432424Y-102377971D01*
X185168260Y-101970245D01*
X184640339Y-101689683D01*
X184067827Y-101517504D01*
X183472725Y-101460324D01*
X182877902Y-101520342D01*
X182306218Y-101695250D01*
X181791740Y-101970245D01*
X181527576Y-102377971D01*
X178497811Y-102377971D01*
X177668696Y-101548856D01*
X177852414Y-101585400D01*
X178107586Y-101585400D01*
X178357854Y-101535619D01*
X178593602Y-101437969D01*
X178805769Y-101296203D01*
X178986203Y-101115769D01*
X179127969Y-100903602D01*
X179225619Y-100667854D01*
X179275400Y-100417586D01*
X179275400Y-100162414D01*
X179225619Y-99912146D01*
X179127969Y-99676398D01*
X178986203Y-99464231D01*
X178805769Y-99283797D01*
X178593602Y-99142031D01*
X178357854Y-99044381D01*
X178107586Y-98994600D01*
X177852414Y-98994600D01*
X177602146Y-99044381D01*
X177366398Y-99142031D01*
X177154231Y-99283797D01*
X176973797Y-99464231D01*
X176832031Y-99676398D01*
X176734381Y-99912146D01*
X176684600Y-100162414D01*
X176684600Y-100417586D01*
X176721144Y-100601304D01*
X175807999Y-99688160D01*
X175807999Y-97371609D01*
X175834232Y-97345376D01*
X176134411Y-97783828D01*
X176713356Y-98094296D01*
X177341746Y-98285852D01*
X177995431Y-98351134D01*
X178649293Y-98287634D01*
X179278203Y-98097792D01*
X179646800Y-97901419D01*
X179646800Y-98145098D01*
X179703414Y-98429717D01*
X179814467Y-98697822D01*
X179975691Y-98939110D01*
X180180890Y-99144309D01*
X180422178Y-99305533D01*
X180690283Y-99416586D01*
X180974902Y-99473200D01*
X181265098Y-99473200D01*
X181549717Y-99416586D01*
X181817822Y-99305533D01*
X182059110Y-99144309D01*
X182264309Y-98939110D01*
X182425533Y-98697822D01*
X182536586Y-98429717D01*
X182593200Y-98145098D01*
X182593200Y-97854902D01*
X182536586Y-97570283D01*
X182425533Y-97302178D01*
X182264309Y-97060890D01*
X182059110Y-96855691D01*
X181817822Y-96694467D01*
X181549717Y-96583414D01*
X181265098Y-96526800D01*
X180974902Y-96526800D01*
X180964387Y-96528892D01*
X181094296Y-96286644D01*
X181285852Y-95658254D01*
X181351134Y-95004569D01*
X181287634Y-94350707D01*
X181097792Y-93721797D01*
X180788904Y-93142008D01*
X180783828Y-93134411D01*
X180345374Y-92834231D01*
X178179605Y-95000000D01*
X178193748Y-95014143D01*
X178014143Y-95193748D01*
X178000000Y-95179605D01*
X177985858Y-95193748D01*
X177806253Y-95014143D01*
X177820395Y-95000000D01*
X177806253Y-94985858D01*
X177985858Y-94806253D01*
X178000000Y-94820395D01*
X180165769Y-92654626D01*
X179865589Y-92216172D01*
X179286644Y-91905704D01*
X178658254Y-91714148D01*
X178004569Y-91648866D01*
X177350707Y-91712366D01*
X176721797Y-91902208D01*
X176142008Y-92211096D01*
X176134411Y-92216172D01*
X175834232Y-92654624D01*
X175807999Y-92628391D01*
X175807999Y-86566802D01*
X176139802Y-86235000D01*
X176201939Y-86235000D01*
X176401898Y-86195226D01*
X176590256Y-86117205D01*
X176759774Y-86003937D01*
X176903937Y-85859774D01*
X177017205Y-85690256D01*
X177095226Y-85501898D01*
X177135000Y-85301939D01*
X177135000Y-85098061D01*
X177095226Y-84898102D01*
X177017205Y-84709744D01*
X176903937Y-84540226D01*
X176759774Y-84396063D01*
X176590256Y-84282795D01*
X176401898Y-84204774D01*
X176201939Y-84165000D01*
X175998061Y-84165000D01*
X175798102Y-84204774D01*
X175609744Y-84282795D01*
X175440226Y-84396063D01*
X175296063Y-84540226D01*
X175182795Y-84709744D01*
X175160000Y-84764776D01*
X175160000Y-78751398D01*
X175195506Y-78780537D01*
X175305820Y-78839502D01*
X175425518Y-78875812D01*
X175550000Y-78888072D01*
X176114250Y-78885000D01*
X176273000Y-78726250D01*
X176273000Y-77527000D01*
X176253000Y-77527000D01*
X176253000Y-77273000D01*
X176273000Y-77273000D01*
X176273000Y-76073750D01*
X176114250Y-75915000D01*
X175550000Y-75911928D01*
X175425518Y-75924188D01*
X175305820Y-75960498D01*
X175195506Y-76019463D01*
X175160000Y-76048602D01*
X175160000Y-75151398D01*
X175195506Y-75180537D01*
X175305820Y-75239502D01*
X175425518Y-75275812D01*
X175550000Y-75288072D01*
X177250000Y-75288072D01*
X177374482Y-75275812D01*
X177494180Y-75239502D01*
X177604494Y-75180537D01*
X177701185Y-75101185D01*
X177780537Y-75004494D01*
X177839502Y-74894180D01*
X177861513Y-74821620D01*
X177993368Y-74953475D01*
X178236589Y-75115990D01*
X178506842Y-75227932D01*
X178793740Y-75285000D01*
X179086260Y-75285000D01*
X179373158Y-75227932D01*
X179643411Y-75115990D01*
X179886632Y-74953475D01*
X180093475Y-74746632D01*
X180134656Y-74685000D01*
X182643477Y-74685000D01*
X182773490Y-74672195D01*
X182809648Y-74661226D01*
X182848421Y-74700000D01*
G37*
X182848421Y-74700000D02*
X182586493Y-74961928D01*
X181600000Y-74961928D01*
X181475518Y-74974188D01*
X181355820Y-75010498D01*
X181245506Y-75069463D01*
X181148815Y-75148815D01*
X181069463Y-75245506D01*
X181010498Y-75355820D01*
X180974188Y-75475518D01*
X180961928Y-75600000D01*
X180961928Y-76515000D01*
X180134656Y-76515000D01*
X180093475Y-76453368D01*
X179886632Y-76246525D01*
X179643411Y-76084010D01*
X179373158Y-75972068D01*
X179086260Y-75915000D01*
X178793740Y-75915000D01*
X178506842Y-75972068D01*
X178236589Y-76084010D01*
X177993368Y-76246525D01*
X177861513Y-76378380D01*
X177839502Y-76305820D01*
X177780537Y-76195506D01*
X177701185Y-76098815D01*
X177604494Y-76019463D01*
X177494180Y-75960498D01*
X177374482Y-75924188D01*
X177250000Y-75911928D01*
X176685750Y-75915000D01*
X176527000Y-76073750D01*
X176527000Y-77273000D01*
X176547000Y-77273000D01*
X176547000Y-77527000D01*
X176527000Y-77527000D01*
X176527000Y-78726250D01*
X176685750Y-78885000D01*
X177250000Y-78888072D01*
X177374482Y-78875812D01*
X177494180Y-78839502D01*
X177604494Y-78780537D01*
X177701185Y-78701185D01*
X177780537Y-78604494D01*
X177839502Y-78494180D01*
X177861513Y-78421620D01*
X177993368Y-78553475D01*
X178236589Y-78715990D01*
X178506842Y-78827932D01*
X178793740Y-78885000D01*
X179086260Y-78885000D01*
X179373158Y-78827932D01*
X179643411Y-78715990D01*
X179886632Y-78553475D01*
X180093475Y-78346632D01*
X180134656Y-78285000D01*
X181356531Y-78285000D01*
X181400000Y-78289281D01*
X181443469Y-78285000D01*
X181443477Y-78285000D01*
X181573490Y-78272195D01*
X181740313Y-78221589D01*
X181894059Y-78139411D01*
X182028817Y-78028817D01*
X182056534Y-77995044D01*
X182213506Y-77838072D01*
X183200000Y-77838072D01*
X183324482Y-77825812D01*
X183444180Y-77789502D01*
X183554494Y-77730537D01*
X183651185Y-77651185D01*
X183730537Y-77554494D01*
X183789502Y-77444180D01*
X183825812Y-77324482D01*
X183826643Y-77316039D01*
X184025241Y-77514637D01*
X184260273Y-77671680D01*
X184521426Y-77779853D01*
X184798665Y-77835000D01*
X185081335Y-77835000D01*
X185263887Y-77798688D01*
X189265167Y-81799969D01*
X189288965Y-81828967D01*
X189317963Y-81852765D01*
X189404689Y-81923940D01*
X189536719Y-81994512D01*
X189679980Y-82037969D01*
X189791633Y-82048966D01*
X189791642Y-82048966D01*
X189828965Y-82052642D01*
X189866288Y-82048966D01*
X194394657Y-82048966D01*
X194365000Y-82198061D01*
X194365000Y-82260198D01*
X191116504Y-85508695D01*
X191003937Y-85340226D01*
X190859774Y-85196063D01*
X190690256Y-85082795D01*
X190501898Y-85004774D01*
X190301939Y-84965000D01*
X190098061Y-84965000D01*
X189898102Y-85004774D01*
X189709744Y-85082795D01*
X189540226Y-85196063D01*
X189396063Y-85340226D01*
X189282795Y-85509744D01*
X189204774Y-85698102D01*
X189165000Y-85898061D01*
X189165000Y-85960199D01*
X189133696Y-85991503D01*
X189095226Y-85798102D01*
X189017205Y-85609744D01*
X188903937Y-85440226D01*
X188759774Y-85296063D01*
X188590256Y-85182795D01*
X188401898Y-85104774D01*
X188201939Y-85065000D01*
X187998061Y-85065000D01*
X187798102Y-85104774D01*
X187609744Y-85182795D01*
X187440226Y-85296063D01*
X187296063Y-85440226D01*
X187182795Y-85609744D01*
X187104774Y-85798102D01*
X187065000Y-85998061D01*
X187065000Y-86190198D01*
X186635000Y-85760199D01*
X186635000Y-85698061D01*
X186595226Y-85498102D01*
X186517205Y-85309744D01*
X186403937Y-85140226D01*
X186259774Y-84996063D01*
X186090256Y-84882795D01*
X185901898Y-84804774D01*
X185701939Y-84765000D01*
X185498061Y-84765000D01*
X185298102Y-84804774D01*
X185109744Y-84882795D01*
X184940226Y-84996063D01*
X184796063Y-85140226D01*
X184682795Y-85309744D01*
X184604774Y-85498102D01*
X184565000Y-85698061D01*
X184565000Y-85901939D01*
X184604774Y-86101898D01*
X184682795Y-86290256D01*
X184718513Y-86343711D01*
X184135000Y-85760199D01*
X184135000Y-85698061D01*
X184095226Y-85498102D01*
X184017205Y-85309744D01*
X183903937Y-85140226D01*
X183759774Y-84996063D01*
X183590256Y-84882795D01*
X183401898Y-84804774D01*
X183201939Y-84765000D01*
X182998061Y-84765000D01*
X182798102Y-84804774D01*
X182609744Y-84882795D01*
X182440226Y-84996063D01*
X182296063Y-85140226D01*
X182182795Y-85309744D01*
X182104774Y-85498102D01*
X182065000Y-85698061D01*
X182065000Y-85901939D01*
X182104774Y-86101898D01*
X182182795Y-86290256D01*
X182296063Y-86459774D01*
X182440226Y-86603937D01*
X182609744Y-86717205D01*
X182798102Y-86795226D01*
X182998061Y-86835000D01*
X183060199Y-86835000D01*
X186062991Y-89837793D01*
X186062991Y-90588188D01*
X181135000Y-85660199D01*
X181135000Y-85598061D01*
X181095226Y-85398102D01*
X181017205Y-85209744D01*
X180903937Y-85040226D01*
X180759774Y-84896063D01*
X180590256Y-84782795D01*
X180401898Y-84704774D01*
X180201939Y-84665000D01*
X179998061Y-84665000D01*
X179798102Y-84704774D01*
X179609744Y-84782795D01*
X179440226Y-84896063D01*
X179296063Y-85040226D01*
X179182795Y-85209744D01*
X179104774Y-85398102D01*
X179065000Y-85598061D01*
X179065000Y-85801939D01*
X179104774Y-86001898D01*
X179182795Y-86190256D01*
X179296063Y-86359774D01*
X179440226Y-86503937D01*
X179609744Y-86617205D01*
X179798102Y-86695226D01*
X179998061Y-86735000D01*
X180060199Y-86735000D01*
X185640001Y-92314804D01*
X185640000Y-102575698D01*
X185612029Y-102557576D01*
X183659605Y-104510000D01*
X185612029Y-106462424D01*
X185754179Y-106370326D01*
X185765026Y-106390620D01*
X185777276Y-106405546D01*
X185859999Y-106506345D01*
X185889003Y-106530148D01*
X188829882Y-109471028D01*
X185590868Y-109471028D01*
X183661896Y-107542057D01*
X184082098Y-107499658D01*
X184653782Y-107324750D01*
X185168260Y-107049755D01*
X185432424Y-106642029D01*
X183480000Y-104689605D01*
X183465858Y-104703748D01*
X183286253Y-104524143D01*
X183300395Y-104510000D01*
X181347971Y-102557576D01*
X180940245Y-102821740D01*
X180659683Y-103349661D01*
X180487504Y-103922173D01*
X180448452Y-104328612D01*
X178497811Y-102377971D01*
X181527576Y-102377971D01*
X183480000Y-104330395D01*
X185432424Y-102377971D01*
X185168260Y-101970245D01*
X184640339Y-101689683D01*
X184067827Y-101517504D01*
X183472725Y-101460324D01*
X182877902Y-101520342D01*
X182306218Y-101695250D01*
X181791740Y-101970245D01*
X181527576Y-102377971D01*
X178497811Y-102377971D01*
X177668696Y-101548856D01*
X177852414Y-101585400D01*
X178107586Y-101585400D01*
X178357854Y-101535619D01*
X178593602Y-101437969D01*
X178805769Y-101296203D01*
X178986203Y-101115769D01*
X179127969Y-100903602D01*
X179225619Y-100667854D01*
X179275400Y-100417586D01*
X179275400Y-100162414D01*
X179225619Y-99912146D01*
X179127969Y-99676398D01*
X178986203Y-99464231D01*
X178805769Y-99283797D01*
X178593602Y-99142031D01*
X178357854Y-99044381D01*
X178107586Y-98994600D01*
X177852414Y-98994600D01*
X177602146Y-99044381D01*
X177366398Y-99142031D01*
X177154231Y-99283797D01*
X176973797Y-99464231D01*
X176832031Y-99676398D01*
X176734381Y-99912146D01*
X176684600Y-100162414D01*
X176684600Y-100417586D01*
X176721144Y-100601304D01*
X175807999Y-99688160D01*
X175807999Y-97371609D01*
X175834232Y-97345376D01*
X176134411Y-97783828D01*
X176713356Y-98094296D01*
X177341746Y-98285852D01*
X177995431Y-98351134D01*
X178649293Y-98287634D01*
X179278203Y-98097792D01*
X179646800Y-97901419D01*
X179646800Y-98145098D01*
X179703414Y-98429717D01*
X179814467Y-98697822D01*
X179975691Y-98939110D01*
X180180890Y-99144309D01*
X180422178Y-99305533D01*
X180690283Y-99416586D01*
X180974902Y-99473200D01*
X181265098Y-99473200D01*
X181549717Y-99416586D01*
X181817822Y-99305533D01*
X182059110Y-99144309D01*
X182264309Y-98939110D01*
X182425533Y-98697822D01*
X182536586Y-98429717D01*
X182593200Y-98145098D01*
X182593200Y-97854902D01*
X182536586Y-97570283D01*
X182425533Y-97302178D01*
X182264309Y-97060890D01*
X182059110Y-96855691D01*
X181817822Y-96694467D01*
X181549717Y-96583414D01*
X181265098Y-96526800D01*
X180974902Y-96526800D01*
X180964387Y-96528892D01*
X181094296Y-96286644D01*
X181285852Y-95658254D01*
X181351134Y-95004569D01*
X181287634Y-94350707D01*
X181097792Y-93721797D01*
X180788904Y-93142008D01*
X180783828Y-93134411D01*
X180345374Y-92834231D01*
X178179605Y-95000000D01*
X178193748Y-95014143D01*
X178014143Y-95193748D01*
X178000000Y-95179605D01*
X177985858Y-95193748D01*
X177806253Y-95014143D01*
X177820395Y-95000000D01*
X177806253Y-94985858D01*
X177985858Y-94806253D01*
X178000000Y-94820395D01*
X180165769Y-92654626D01*
X179865589Y-92216172D01*
X179286644Y-91905704D01*
X178658254Y-91714148D01*
X178004569Y-91648866D01*
X177350707Y-91712366D01*
X176721797Y-91902208D01*
X176142008Y-92211096D01*
X176134411Y-92216172D01*
X175834232Y-92654624D01*
X175807999Y-92628391D01*
X175807999Y-86566802D01*
X176139802Y-86235000D01*
X176201939Y-86235000D01*
X176401898Y-86195226D01*
X176590256Y-86117205D01*
X176759774Y-86003937D01*
X176903937Y-85859774D01*
X177017205Y-85690256D01*
X177095226Y-85501898D01*
X177135000Y-85301939D01*
X177135000Y-85098061D01*
X177095226Y-84898102D01*
X177017205Y-84709744D01*
X176903937Y-84540226D01*
X176759774Y-84396063D01*
X176590256Y-84282795D01*
X176401898Y-84204774D01*
X176201939Y-84165000D01*
X175998061Y-84165000D01*
X175798102Y-84204774D01*
X175609744Y-84282795D01*
X175440226Y-84396063D01*
X175296063Y-84540226D01*
X175182795Y-84709744D01*
X175160000Y-84764776D01*
X175160000Y-78751398D01*
X175195506Y-78780537D01*
X175305820Y-78839502D01*
X175425518Y-78875812D01*
X175550000Y-78888072D01*
X176114250Y-78885000D01*
X176273000Y-78726250D01*
X176273000Y-77527000D01*
X176253000Y-77527000D01*
X176253000Y-77273000D01*
X176273000Y-77273000D01*
X176273000Y-76073750D01*
X176114250Y-75915000D01*
X175550000Y-75911928D01*
X175425518Y-75924188D01*
X175305820Y-75960498D01*
X175195506Y-76019463D01*
X175160000Y-76048602D01*
X175160000Y-75151398D01*
X175195506Y-75180537D01*
X175305820Y-75239502D01*
X175425518Y-75275812D01*
X175550000Y-75288072D01*
X177250000Y-75288072D01*
X177374482Y-75275812D01*
X177494180Y-75239502D01*
X177604494Y-75180537D01*
X177701185Y-75101185D01*
X177780537Y-75004494D01*
X177839502Y-74894180D01*
X177861513Y-74821620D01*
X177993368Y-74953475D01*
X178236589Y-75115990D01*
X178506842Y-75227932D01*
X178793740Y-75285000D01*
X179086260Y-75285000D01*
X179373158Y-75227932D01*
X179643411Y-75115990D01*
X179886632Y-74953475D01*
X180093475Y-74746632D01*
X180134656Y-74685000D01*
X182643477Y-74685000D01*
X182773490Y-74672195D01*
X182809648Y-74661226D01*
X182848421Y-74700000D01*
G36*
X198636181Y-109094018D02*
G01*
X198015783Y-109094018D01*
X199823635Y-107286167D01*
X199968589Y-107315000D01*
X200241411Y-107315000D01*
X200458350Y-107271848D01*
X198636181Y-109094018D01*
G37*
X198636181Y-109094018D02*
X198015783Y-109094018D01*
X199823635Y-107286167D01*
X199968589Y-107315000D01*
X200241411Y-107315000D01*
X200458350Y-107271848D01*
X198636181Y-109094018D01*
G36*
X189668070Y-105439007D02*
G01*
X189691864Y-105468000D01*
X189720857Y-105491794D01*
X189720861Y-105491798D01*
X189779872Y-105540226D01*
X189807589Y-105562973D01*
X189939618Y-105633545D01*
X190082879Y-105677002D01*
X190194532Y-105687999D01*
X190194541Y-105687999D01*
X190231864Y-105691675D01*
X190269187Y-105687999D01*
X190431003Y-105687999D01*
X190410000Y-105793589D01*
X190410000Y-106066411D01*
X190463225Y-106333989D01*
X190567629Y-106586043D01*
X190719201Y-106812886D01*
X190912114Y-107005799D01*
X191138957Y-107157371D01*
X191391011Y-107261775D01*
X191658589Y-107315000D01*
X191931411Y-107315000D01*
X192198989Y-107261775D01*
X192451043Y-107157371D01*
X192677886Y-107005799D01*
X192796692Y-106886993D01*
X193787612Y-106886993D01*
X193853137Y-107125860D01*
X194100116Y-107241760D01*
X194364960Y-107307250D01*
X194637492Y-107319812D01*
X194907238Y-107278965D01*
X195163832Y-107186277D01*
X195276863Y-107125860D01*
X195342388Y-106886993D01*
X194565000Y-106109605D01*
X193787612Y-106886993D01*
X192796692Y-106886993D01*
X192870799Y-106812886D01*
X193022371Y-106586043D01*
X193126775Y-106333989D01*
X193180000Y-106066411D01*
X193180000Y-106034270D01*
X193216035Y-106272238D01*
X193308723Y-106528832D01*
X193369140Y-106641863D01*
X193608007Y-106707388D01*
X194385395Y-105930000D01*
X194371253Y-105915858D01*
X194550858Y-105736253D01*
X194565000Y-105750395D01*
X194579143Y-105736253D01*
X194758748Y-105915858D01*
X194744605Y-105930000D01*
X195521993Y-106707388D01*
X195760860Y-106641863D01*
X195876760Y-106394884D01*
X195942250Y-106130040D01*
X195950000Y-105961904D01*
X195950000Y-106066411D01*
X196003225Y-106333989D01*
X196107629Y-106586043D01*
X196259201Y-106812886D01*
X196452114Y-107005799D01*
X196581145Y-107092015D01*
X195333161Y-108340000D01*
X190914802Y-108340000D01*
X187960000Y-105385199D01*
X187960000Y-103730935D01*
X189668070Y-105439007D01*
G37*
X189668070Y-105439007D02*
X189691864Y-105468000D01*
X189720857Y-105491794D01*
X189720861Y-105491798D01*
X189779872Y-105540226D01*
X189807589Y-105562973D01*
X189939618Y-105633545D01*
X190082879Y-105677002D01*
X190194532Y-105687999D01*
X190194541Y-105687999D01*
X190231864Y-105691675D01*
X190269187Y-105687999D01*
X190431003Y-105687999D01*
X190410000Y-105793589D01*
X190410000Y-106066411D01*
X190463225Y-106333989D01*
X190567629Y-106586043D01*
X190719201Y-106812886D01*
X190912114Y-107005799D01*
X191138957Y-107157371D01*
X191391011Y-107261775D01*
X191658589Y-107315000D01*
X191931411Y-107315000D01*
X192198989Y-107261775D01*
X192451043Y-107157371D01*
X192677886Y-107005799D01*
X192796692Y-106886993D01*
X193787612Y-106886993D01*
X193853137Y-107125860D01*
X194100116Y-107241760D01*
X194364960Y-107307250D01*
X194637492Y-107319812D01*
X194907238Y-107278965D01*
X195163832Y-107186277D01*
X195276863Y-107125860D01*
X195342388Y-106886993D01*
X194565000Y-106109605D01*
X193787612Y-106886993D01*
X192796692Y-106886993D01*
X192870799Y-106812886D01*
X193022371Y-106586043D01*
X193126775Y-106333989D01*
X193180000Y-106066411D01*
X193180000Y-106034270D01*
X193216035Y-106272238D01*
X193308723Y-106528832D01*
X193369140Y-106641863D01*
X193608007Y-106707388D01*
X194385395Y-105930000D01*
X194371253Y-105915858D01*
X194550858Y-105736253D01*
X194565000Y-105750395D01*
X194579143Y-105736253D01*
X194758748Y-105915858D01*
X194744605Y-105930000D01*
X195521993Y-106707388D01*
X195760860Y-106641863D01*
X195876760Y-106394884D01*
X195942250Y-106130040D01*
X195950000Y-105961904D01*
X195950000Y-106066411D01*
X196003225Y-106333989D01*
X196107629Y-106586043D01*
X196259201Y-106812886D01*
X196452114Y-107005799D01*
X196581145Y-107092015D01*
X195333161Y-108340000D01*
X190914802Y-108340000D01*
X187960000Y-105385199D01*
X187960000Y-103730935D01*
X189668070Y-105439007D01*
G36*
X211238225Y-103493989D02*
G01*
X211342629Y-103746043D01*
X211494201Y-103972886D01*
X211687114Y-104165799D01*
X211810000Y-104247909D01*
X211810001Y-104693378D01*
X211649884Y-104618240D01*
X211385040Y-104552750D01*
X211112508Y-104540188D01*
X210842762Y-104581035D01*
X210586168Y-104673723D01*
X210473137Y-104734140D01*
X210407612Y-104973007D01*
X211185000Y-105750395D01*
X211199143Y-105736253D01*
X211378748Y-105915858D01*
X211364605Y-105930000D01*
X212141993Y-106707388D01*
X212167600Y-106700363D01*
X213307236Y-107840000D01*
X211399802Y-107840000D01*
X210828318Y-107268516D01*
X210984960Y-107307250D01*
X211257492Y-107319812D01*
X211527238Y-107278965D01*
X211783832Y-107186277D01*
X211896863Y-107125860D01*
X211962388Y-106886993D01*
X211185000Y-106109605D01*
X211170858Y-106123748D01*
X210991253Y-105944143D01*
X211005395Y-105930000D01*
X210228007Y-105152612D01*
X209989140Y-105218137D01*
X209873240Y-105465116D01*
X209807750Y-105729960D01*
X209800000Y-105898096D01*
X209800000Y-105793589D01*
X209746775Y-105526011D01*
X209642371Y-105273957D01*
X209490799Y-105047114D01*
X209297886Y-104854201D01*
X209185617Y-104779185D01*
X209518635Y-104446167D01*
X209663589Y-104475000D01*
X209936411Y-104475000D01*
X210203989Y-104421775D01*
X210456043Y-104317371D01*
X210682886Y-104165799D01*
X210875799Y-103972886D01*
X211027371Y-103746043D01*
X211131775Y-103493989D01*
X211185000Y-103226411D01*
X211238225Y-103493989D01*
G37*
X211238225Y-103493989D02*
X211342629Y-103746043D01*
X211494201Y-103972886D01*
X211687114Y-104165799D01*
X211810000Y-104247909D01*
X211810001Y-104693378D01*
X211649884Y-104618240D01*
X211385040Y-104552750D01*
X211112508Y-104540188D01*
X210842762Y-104581035D01*
X210586168Y-104673723D01*
X210473137Y-104734140D01*
X210407612Y-104973007D01*
X211185000Y-105750395D01*
X211199143Y-105736253D01*
X211378748Y-105915858D01*
X211364605Y-105930000D01*
X212141993Y-106707388D01*
X212167600Y-106700363D01*
X213307236Y-107840000D01*
X211399802Y-107840000D01*
X210828318Y-107268516D01*
X210984960Y-107307250D01*
X211257492Y-107319812D01*
X211527238Y-107278965D01*
X211783832Y-107186277D01*
X211896863Y-107125860D01*
X211962388Y-106886993D01*
X211185000Y-106109605D01*
X211170858Y-106123748D01*
X210991253Y-105944143D01*
X211005395Y-105930000D01*
X210228007Y-105152612D01*
X209989140Y-105218137D01*
X209873240Y-105465116D01*
X209807750Y-105729960D01*
X209800000Y-105898096D01*
X209800000Y-105793589D01*
X209746775Y-105526011D01*
X209642371Y-105273957D01*
X209490799Y-105047114D01*
X209297886Y-104854201D01*
X209185617Y-104779185D01*
X209518635Y-104446167D01*
X209663589Y-104475000D01*
X209936411Y-104475000D01*
X210203989Y-104421775D01*
X210456043Y-104317371D01*
X210682886Y-104165799D01*
X210875799Y-103972886D01*
X211027371Y-103746043D01*
X211131775Y-103493989D01*
X211185000Y-103226411D01*
X211238225Y-103493989D01*
G36*
X222458748Y-105915858D02*
G01*
X222444605Y-105930000D01*
X222458748Y-105944143D01*
X222279143Y-106123748D01*
X222265000Y-106109605D01*
X222250858Y-106123748D01*
X222071253Y-105944143D01*
X222085395Y-105930000D01*
X222071253Y-105915858D01*
X222250858Y-105736253D01*
X222265000Y-105750395D01*
X222279143Y-105736253D01*
X222458748Y-105915858D01*
G37*
X222458748Y-105915858D02*
X222444605Y-105930000D01*
X222458748Y-105944143D01*
X222279143Y-106123748D01*
X222265000Y-106109605D01*
X222250858Y-106123748D01*
X222071253Y-105944143D01*
X222085395Y-105930000D01*
X222071253Y-105915858D01*
X222250858Y-105736253D01*
X222265000Y-105750395D01*
X222279143Y-105736253D01*
X222458748Y-105915858D01*
G36*
X219548225Y-103493989D02*
G01*
X219652629Y-103746043D01*
X219804201Y-103972886D01*
X219997114Y-104165799D01*
X220136502Y-104258935D01*
X220072725Y-104293025D01*
X220072723Y-104293026D01*
X220072724Y-104293026D01*
X219985997Y-104364200D01*
X219985993Y-104364204D01*
X219957000Y-104387998D01*
X219933206Y-104416991D01*
X219776364Y-104573833D01*
X219631411Y-104545000D01*
X219358589Y-104545000D01*
X219091011Y-104598225D01*
X218838957Y-104702629D01*
X218612114Y-104854201D01*
X218419201Y-105047114D01*
X218267629Y-105273957D01*
X218163225Y-105526011D01*
X218110000Y-105793589D01*
X218110000Y-105825730D01*
X218073965Y-105587762D01*
X217981277Y-105331168D01*
X217920860Y-105218137D01*
X217681993Y-105152612D01*
X216904605Y-105930000D01*
X216918748Y-105944143D01*
X216739143Y-106123748D01*
X216725000Y-106109605D01*
X216710858Y-106123748D01*
X216531253Y-105944143D01*
X216545395Y-105930000D01*
X216531253Y-105915858D01*
X216710858Y-105736253D01*
X216725000Y-105750395D01*
X217502388Y-104973007D01*
X217436863Y-104734140D01*
X217189884Y-104618240D01*
X216925040Y-104552750D01*
X216652508Y-104540188D01*
X216382762Y-104581035D01*
X216126168Y-104673723D01*
X216100000Y-104687710D01*
X216100000Y-104247909D01*
X216222886Y-104165799D01*
X216415799Y-103972886D01*
X216567371Y-103746043D01*
X216671775Y-103493989D01*
X216725000Y-103226411D01*
X216778225Y-103493989D01*
X216882629Y-103746043D01*
X217034201Y-103972886D01*
X217227114Y-104165799D01*
X217453957Y-104317371D01*
X217706011Y-104421775D01*
X217973589Y-104475000D01*
X218246411Y-104475000D01*
X218513989Y-104421775D01*
X218766043Y-104317371D01*
X218992886Y-104165799D01*
X219185799Y-103972886D01*
X219337371Y-103746043D01*
X219441775Y-103493989D01*
X219495000Y-103226411D01*
X219548225Y-103493989D01*
G37*
X219548225Y-103493989D02*
X219652629Y-103746043D01*
X219804201Y-103972886D01*
X219997114Y-104165799D01*
X220136502Y-104258935D01*
X220072725Y-104293025D01*
X220072723Y-104293026D01*
X220072724Y-104293026D01*
X219985997Y-104364200D01*
X219985993Y-104364204D01*
X219957000Y-104387998D01*
X219933206Y-104416991D01*
X219776364Y-104573833D01*
X219631411Y-104545000D01*
X219358589Y-104545000D01*
X219091011Y-104598225D01*
X218838957Y-104702629D01*
X218612114Y-104854201D01*
X218419201Y-105047114D01*
X218267629Y-105273957D01*
X218163225Y-105526011D01*
X218110000Y-105793589D01*
X218110000Y-105825730D01*
X218073965Y-105587762D01*
X217981277Y-105331168D01*
X217920860Y-105218137D01*
X217681993Y-105152612D01*
X216904605Y-105930000D01*
X216918748Y-105944143D01*
X216739143Y-106123748D01*
X216725000Y-106109605D01*
X216710858Y-106123748D01*
X216531253Y-105944143D01*
X216545395Y-105930000D01*
X216531253Y-105915858D01*
X216710858Y-105736253D01*
X216725000Y-105750395D01*
X217502388Y-104973007D01*
X217436863Y-104734140D01*
X217189884Y-104618240D01*
X216925040Y-104552750D01*
X216652508Y-104540188D01*
X216382762Y-104581035D01*
X216126168Y-104673723D01*
X216100000Y-104687710D01*
X216100000Y-104247909D01*
X216222886Y-104165799D01*
X216415799Y-103972886D01*
X216567371Y-103746043D01*
X216671775Y-103493989D01*
X216725000Y-103226411D01*
X216778225Y-103493989D01*
X216882629Y-103746043D01*
X217034201Y-103972886D01*
X217227114Y-104165799D01*
X217453957Y-104317371D01*
X217706011Y-104421775D01*
X217973589Y-104475000D01*
X218246411Y-104475000D01*
X218513989Y-104421775D01*
X218766043Y-104317371D01*
X218992886Y-104165799D01*
X219185799Y-103972886D01*
X219337371Y-103746043D01*
X219441775Y-103493989D01*
X219495000Y-103226411D01*
X219548225Y-103493989D01*
G36*
X207361928Y-76213506D02*
G01*
X207361928Y-77200000D01*
X207374188Y-77324482D01*
X207410498Y-77444180D01*
X207469463Y-77554494D01*
X207548815Y-77651185D01*
X207645506Y-77730537D01*
X207755820Y-77789502D01*
X207875518Y-77825812D01*
X208000000Y-77838072D01*
X209600000Y-77838072D01*
X209724482Y-77825812D01*
X209844180Y-77789502D01*
X209954494Y-77730537D01*
X210051185Y-77651185D01*
X210130537Y-77554494D01*
X210189502Y-77444180D01*
X210225812Y-77324482D01*
X210226643Y-77316039D01*
X210425241Y-77514637D01*
X210580000Y-77618043D01*
X210580001Y-87302668D01*
X210576324Y-87340000D01*
X210580001Y-87377333D01*
X210590998Y-87488986D01*
X210604180Y-87532442D01*
X210634454Y-87632246D01*
X210705026Y-87764276D01*
X210776201Y-87851002D01*
X210800000Y-87880001D01*
X210828998Y-87903799D01*
X217350000Y-94424802D01*
X217350001Y-101932090D01*
X217227114Y-102014201D01*
X217034201Y-102207114D01*
X216882629Y-102433957D01*
X216778225Y-102686011D01*
X216725000Y-102953589D01*
X216671775Y-102686011D01*
X216567371Y-102433957D01*
X216415799Y-102207114D01*
X216222886Y-102014201D01*
X215996043Y-101862629D01*
X215743989Y-101758225D01*
X215476411Y-101705000D01*
X215203589Y-101705000D01*
X214936011Y-101758225D01*
X214683957Y-101862629D01*
X214457114Y-102014201D01*
X214264201Y-102207114D01*
X214112629Y-102433957D01*
X214008225Y-102686011D01*
X213955000Y-102953589D01*
X213901775Y-102686011D01*
X213797371Y-102433957D01*
X213645799Y-102207114D01*
X213452886Y-102014201D01*
X213226043Y-101862629D01*
X212973989Y-101758225D01*
X212706411Y-101705000D01*
X212433589Y-101705000D01*
X212166011Y-101758225D01*
X211913957Y-101862629D01*
X211687114Y-102014201D01*
X211494201Y-102207114D01*
X211342629Y-102433957D01*
X211238225Y-102686011D01*
X211185000Y-102953589D01*
X211131775Y-102686011D01*
X211027371Y-102433957D01*
X210875799Y-102207114D01*
X210682886Y-102014201D01*
X210456043Y-101862629D01*
X210203989Y-101758225D01*
X209936411Y-101705000D01*
X209663589Y-101705000D01*
X209396011Y-101758225D01*
X209143957Y-101862629D01*
X208917114Y-102014201D01*
X208724201Y-102207114D01*
X208572629Y-102433957D01*
X208468225Y-102686011D01*
X208415000Y-102953589D01*
X208415000Y-102985730D01*
X208378965Y-102747762D01*
X208286277Y-102491168D01*
X208225860Y-102378137D01*
X207986993Y-102312612D01*
X207209605Y-103090000D01*
X207223748Y-103104143D01*
X207044143Y-103283748D01*
X207030000Y-103269605D01*
X207015858Y-103283748D01*
X206836253Y-103104143D01*
X206850395Y-103090000D01*
X206836253Y-103075858D01*
X207015858Y-102896253D01*
X207030000Y-102910395D01*
X207807388Y-102133007D01*
X207741863Y-101894140D01*
X207494884Y-101778240D01*
X207230040Y-101712750D01*
X206957508Y-101700188D01*
X206687762Y-101741035D01*
X206431168Y-101833723D01*
X206405000Y-101847710D01*
X206405000Y-89542372D01*
X206408677Y-89505039D01*
X206394003Y-89356053D01*
X206350546Y-89212792D01*
X206279974Y-89080763D01*
X206185001Y-88965038D01*
X206069276Y-88870065D01*
X205937247Y-88799493D01*
X205793986Y-88756036D01*
X205682333Y-88745039D01*
X205645000Y-88741362D01*
X205607667Y-88745039D01*
X200419841Y-88745039D01*
X196835000Y-85160199D01*
X196835000Y-85098061D01*
X196795226Y-84898102D01*
X196717205Y-84709744D01*
X196603937Y-84540226D01*
X196459774Y-84396063D01*
X196290256Y-84282795D01*
X196101898Y-84204774D01*
X195901939Y-84165000D01*
X195698061Y-84165000D01*
X195498102Y-84204774D01*
X195309744Y-84282795D01*
X195140226Y-84396063D01*
X194996063Y-84540226D01*
X194882795Y-84709744D01*
X194804774Y-84898102D01*
X194765000Y-85098061D01*
X194765000Y-85301939D01*
X194804774Y-85501898D01*
X194882795Y-85690256D01*
X194996063Y-85859774D01*
X195140226Y-86003937D01*
X195309744Y-86117205D01*
X195498102Y-86195226D01*
X195698061Y-86235000D01*
X195760199Y-86235000D01*
X199541240Y-90016042D01*
X199565038Y-90045040D01*
X199594036Y-90068838D01*
X199680763Y-90140013D01*
X199812792Y-90210585D01*
X199956053Y-90254042D01*
X200105039Y-90268716D01*
X200142372Y-90265039D01*
X204885001Y-90265039D01*
X204885000Y-101849771D01*
X204663989Y-101758225D01*
X204396411Y-101705000D01*
X204123589Y-101705000D01*
X203856011Y-101758225D01*
X203603957Y-101862629D01*
X203377114Y-102014201D01*
X203184201Y-102207114D01*
X203032629Y-102433957D01*
X202928225Y-102686011D01*
X202875000Y-102953589D01*
X202875000Y-102985730D01*
X202838965Y-102747762D01*
X202746277Y-102491168D01*
X202685860Y-102378137D01*
X202446993Y-102312612D01*
X201669605Y-103090000D01*
X202446993Y-103867388D01*
X202685860Y-103801863D01*
X202801760Y-103554884D01*
X202867250Y-103290040D01*
X202875000Y-103121904D01*
X202875000Y-103226411D01*
X202928225Y-103493989D01*
X203032629Y-103746043D01*
X203184201Y-103972886D01*
X203377114Y-104165799D01*
X203500000Y-104247909D01*
X203500001Y-104689771D01*
X203278989Y-104598225D01*
X203011411Y-104545000D01*
X202738589Y-104545000D01*
X202471011Y-104598225D01*
X202218957Y-104702629D01*
X201992114Y-104854201D01*
X201799201Y-105047114D01*
X201647629Y-105273957D01*
X201543225Y-105526011D01*
X201490000Y-105793589D01*
X201436775Y-105526011D01*
X201332371Y-105273957D01*
X201180799Y-105047114D01*
X200987886Y-104854201D01*
X200761043Y-104702629D01*
X200508989Y-104598225D01*
X200241411Y-104545000D01*
X199968589Y-104545000D01*
X199701011Y-104598225D01*
X199480000Y-104689771D01*
X199480000Y-104247909D01*
X199602886Y-104165799D01*
X199721692Y-104046993D01*
X200712612Y-104046993D01*
X200778137Y-104285860D01*
X201025116Y-104401760D01*
X201289960Y-104467250D01*
X201562492Y-104479812D01*
X201832238Y-104438965D01*
X202088832Y-104346277D01*
X202201863Y-104285860D01*
X202267388Y-104046993D01*
X201490000Y-103269605D01*
X200712612Y-104046993D01*
X199721692Y-104046993D01*
X199795799Y-103972886D01*
X199947371Y-103746043D01*
X200051775Y-103493989D01*
X200105000Y-103226411D01*
X200105000Y-103194270D01*
X200141035Y-103432238D01*
X200233723Y-103688832D01*
X200294140Y-103801863D01*
X200533007Y-103867388D01*
X201310395Y-103090000D01*
X200533007Y-102312612D01*
X200294140Y-102378137D01*
X200178240Y-102625116D01*
X200112750Y-102889960D01*
X200105000Y-103058096D01*
X200105000Y-102953589D01*
X200051775Y-102686011D01*
X199947371Y-102433957D01*
X199795799Y-102207114D01*
X199721692Y-102133007D01*
X200712612Y-102133007D01*
X201490000Y-102910395D01*
X202267388Y-102133007D01*
X202201863Y-101894140D01*
X201954884Y-101778240D01*
X201690040Y-101712750D01*
X201417508Y-101700188D01*
X201147762Y-101741035D01*
X200891168Y-101833723D01*
X200778137Y-101894140D01*
X200712612Y-102133007D01*
X199721692Y-102133007D01*
X199602886Y-102014201D01*
X199376043Y-101862629D01*
X199123989Y-101758225D01*
X198856411Y-101705000D01*
X198583589Y-101705000D01*
X198316011Y-101758225D01*
X198063957Y-101862629D01*
X197837114Y-102014201D01*
X197644201Y-102207114D01*
X197492629Y-102433957D01*
X197388225Y-102686011D01*
X197335000Y-102953589D01*
X197281775Y-102686011D01*
X197177371Y-102433957D01*
X197025799Y-102207114D01*
X196832886Y-102014201D01*
X196606043Y-101862629D01*
X196353989Y-101758225D01*
X196086411Y-101705000D01*
X195813589Y-101705000D01*
X195546011Y-101758225D01*
X195293957Y-101862629D01*
X195067114Y-102014201D01*
X194874201Y-102207114D01*
X194722629Y-102433957D01*
X194618225Y-102686011D01*
X194565000Y-102953589D01*
X194511775Y-102686011D01*
X194407371Y-102433957D01*
X194255799Y-102207114D01*
X194062886Y-102014201D01*
X193940000Y-101932091D01*
X193940000Y-86108519D01*
X193978239Y-86051290D01*
X194056260Y-85862932D01*
X194096034Y-85662973D01*
X194096034Y-85459095D01*
X194056260Y-85259136D01*
X193978239Y-85070778D01*
X193868404Y-84906398D01*
X195439802Y-83335000D01*
X195501939Y-83335000D01*
X195701898Y-83295226D01*
X195890256Y-83217205D01*
X196059774Y-83103937D01*
X196203937Y-82959774D01*
X196317205Y-82790256D01*
X196395226Y-82601898D01*
X196435000Y-82401939D01*
X196435000Y-82339801D01*
X197414802Y-81360000D01*
X204462678Y-81360000D01*
X204500000Y-81363676D01*
X204537322Y-81360000D01*
X204537333Y-81360000D01*
X204648986Y-81349003D01*
X204792247Y-81305546D01*
X204924276Y-81234974D01*
X205040001Y-81140001D01*
X205063803Y-81110998D01*
X205771002Y-80403799D01*
X205800001Y-80380001D01*
X205894974Y-80264276D01*
X205965546Y-80132247D01*
X206009003Y-79988986D01*
X206020000Y-79877333D01*
X206020000Y-79877324D01*
X206023676Y-79840001D01*
X206020000Y-79802678D01*
X206020000Y-77618043D01*
X206174759Y-77514637D01*
X206374637Y-77314759D01*
X206531680Y-77079727D01*
X206639853Y-76818574D01*
X206695000Y-76541335D01*
X206695000Y-76258665D01*
X206665030Y-76107999D01*
X207256421Y-76107999D01*
X207361928Y-76213506D01*
G37*
X207361928Y-76213506D02*
X207361928Y-77200000D01*
X207374188Y-77324482D01*
X207410498Y-77444180D01*
X207469463Y-77554494D01*
X207548815Y-77651185D01*
X207645506Y-77730537D01*
X207755820Y-77789502D01*
X207875518Y-77825812D01*
X208000000Y-77838072D01*
X209600000Y-77838072D01*
X209724482Y-77825812D01*
X209844180Y-77789502D01*
X209954494Y-77730537D01*
X210051185Y-77651185D01*
X210130537Y-77554494D01*
X210189502Y-77444180D01*
X210225812Y-77324482D01*
X210226643Y-77316039D01*
X210425241Y-77514637D01*
X210580000Y-77618043D01*
X210580001Y-87302668D01*
X210576324Y-87340000D01*
X210580001Y-87377333D01*
X210590998Y-87488986D01*
X210604180Y-87532442D01*
X210634454Y-87632246D01*
X210705026Y-87764276D01*
X210776201Y-87851002D01*
X210800000Y-87880001D01*
X210828998Y-87903799D01*
X217350000Y-94424802D01*
X217350001Y-101932090D01*
X217227114Y-102014201D01*
X217034201Y-102207114D01*
X216882629Y-102433957D01*
X216778225Y-102686011D01*
X216725000Y-102953589D01*
X216671775Y-102686011D01*
X216567371Y-102433957D01*
X216415799Y-102207114D01*
X216222886Y-102014201D01*
X215996043Y-101862629D01*
X215743989Y-101758225D01*
X215476411Y-101705000D01*
X215203589Y-101705000D01*
X214936011Y-101758225D01*
X214683957Y-101862629D01*
X214457114Y-102014201D01*
X214264201Y-102207114D01*
X214112629Y-102433957D01*
X214008225Y-102686011D01*
X213955000Y-102953589D01*
X213901775Y-102686011D01*
X213797371Y-102433957D01*
X213645799Y-102207114D01*
X213452886Y-102014201D01*
X213226043Y-101862629D01*
X212973989Y-101758225D01*
X212706411Y-101705000D01*
X212433589Y-101705000D01*
X212166011Y-101758225D01*
X211913957Y-101862629D01*
X211687114Y-102014201D01*
X211494201Y-102207114D01*
X211342629Y-102433957D01*
X211238225Y-102686011D01*
X211185000Y-102953589D01*
X211131775Y-102686011D01*
X211027371Y-102433957D01*
X210875799Y-102207114D01*
X210682886Y-102014201D01*
X210456043Y-101862629D01*
X210203989Y-101758225D01*
X209936411Y-101705000D01*
X209663589Y-101705000D01*
X209396011Y-101758225D01*
X209143957Y-101862629D01*
X208917114Y-102014201D01*
X208724201Y-102207114D01*
X208572629Y-102433957D01*
X208468225Y-102686011D01*
X208415000Y-102953589D01*
X208415000Y-102985730D01*
X208378965Y-102747762D01*
X208286277Y-102491168D01*
X208225860Y-102378137D01*
X207986993Y-102312612D01*
X207209605Y-103090000D01*
X207223748Y-103104143D01*
X207044143Y-103283748D01*
X207030000Y-103269605D01*
X207015858Y-103283748D01*
X206836253Y-103104143D01*
X206850395Y-103090000D01*
X206836253Y-103075858D01*
X207015858Y-102896253D01*
X207030000Y-102910395D01*
X207807388Y-102133007D01*
X207741863Y-101894140D01*
X207494884Y-101778240D01*
X207230040Y-101712750D01*
X206957508Y-101700188D01*
X206687762Y-101741035D01*
X206431168Y-101833723D01*
X206405000Y-101847710D01*
X206405000Y-89542372D01*
X206408677Y-89505039D01*
X206394003Y-89356053D01*
X206350546Y-89212792D01*
X206279974Y-89080763D01*
X206185001Y-88965038D01*
X206069276Y-88870065D01*
X205937247Y-88799493D01*
X205793986Y-88756036D01*
X205682333Y-88745039D01*
X205645000Y-88741362D01*
X205607667Y-88745039D01*
X200419841Y-88745039D01*
X196835000Y-85160199D01*
X196835000Y-85098061D01*
X196795226Y-84898102D01*
X196717205Y-84709744D01*
X196603937Y-84540226D01*
X196459774Y-84396063D01*
X196290256Y-84282795D01*
X196101898Y-84204774D01*
X195901939Y-84165000D01*
X195698061Y-84165000D01*
X195498102Y-84204774D01*
X195309744Y-84282795D01*
X195140226Y-84396063D01*
X194996063Y-84540226D01*
X194882795Y-84709744D01*
X194804774Y-84898102D01*
X194765000Y-85098061D01*
X194765000Y-85301939D01*
X194804774Y-85501898D01*
X194882795Y-85690256D01*
X194996063Y-85859774D01*
X195140226Y-86003937D01*
X195309744Y-86117205D01*
X195498102Y-86195226D01*
X195698061Y-86235000D01*
X195760199Y-86235000D01*
X199541240Y-90016042D01*
X199565038Y-90045040D01*
X199594036Y-90068838D01*
X199680763Y-90140013D01*
X199812792Y-90210585D01*
X199956053Y-90254042D01*
X200105039Y-90268716D01*
X200142372Y-90265039D01*
X204885001Y-90265039D01*
X204885000Y-101849771D01*
X204663989Y-101758225D01*
X204396411Y-101705000D01*
X204123589Y-101705000D01*
X203856011Y-101758225D01*
X203603957Y-101862629D01*
X203377114Y-102014201D01*
X203184201Y-102207114D01*
X203032629Y-102433957D01*
X202928225Y-102686011D01*
X202875000Y-102953589D01*
X202875000Y-102985730D01*
X202838965Y-102747762D01*
X202746277Y-102491168D01*
X202685860Y-102378137D01*
X202446993Y-102312612D01*
X201669605Y-103090000D01*
X202446993Y-103867388D01*
X202685860Y-103801863D01*
X202801760Y-103554884D01*
X202867250Y-103290040D01*
X202875000Y-103121904D01*
X202875000Y-103226411D01*
X202928225Y-103493989D01*
X203032629Y-103746043D01*
X203184201Y-103972886D01*
X203377114Y-104165799D01*
X203500000Y-104247909D01*
X203500001Y-104689771D01*
X203278989Y-104598225D01*
X203011411Y-104545000D01*
X202738589Y-104545000D01*
X202471011Y-104598225D01*
X202218957Y-104702629D01*
X201992114Y-104854201D01*
X201799201Y-105047114D01*
X201647629Y-105273957D01*
X201543225Y-105526011D01*
X201490000Y-105793589D01*
X201436775Y-105526011D01*
X201332371Y-105273957D01*
X201180799Y-105047114D01*
X200987886Y-104854201D01*
X200761043Y-104702629D01*
X200508989Y-104598225D01*
X200241411Y-104545000D01*
X199968589Y-104545000D01*
X199701011Y-104598225D01*
X199480000Y-104689771D01*
X199480000Y-104247909D01*
X199602886Y-104165799D01*
X199721692Y-104046993D01*
X200712612Y-104046993D01*
X200778137Y-104285860D01*
X201025116Y-104401760D01*
X201289960Y-104467250D01*
X201562492Y-104479812D01*
X201832238Y-104438965D01*
X202088832Y-104346277D01*
X202201863Y-104285860D01*
X202267388Y-104046993D01*
X201490000Y-103269605D01*
X200712612Y-104046993D01*
X199721692Y-104046993D01*
X199795799Y-103972886D01*
X199947371Y-103746043D01*
X200051775Y-103493989D01*
X200105000Y-103226411D01*
X200105000Y-103194270D01*
X200141035Y-103432238D01*
X200233723Y-103688832D01*
X200294140Y-103801863D01*
X200533007Y-103867388D01*
X201310395Y-103090000D01*
X200533007Y-102312612D01*
X200294140Y-102378137D01*
X200178240Y-102625116D01*
X200112750Y-102889960D01*
X200105000Y-103058096D01*
X200105000Y-102953589D01*
X200051775Y-102686011D01*
X199947371Y-102433957D01*
X199795799Y-102207114D01*
X199721692Y-102133007D01*
X200712612Y-102133007D01*
X201490000Y-102910395D01*
X202267388Y-102133007D01*
X202201863Y-101894140D01*
X201954884Y-101778240D01*
X201690040Y-101712750D01*
X201417508Y-101700188D01*
X201147762Y-101741035D01*
X200891168Y-101833723D01*
X200778137Y-101894140D01*
X200712612Y-102133007D01*
X199721692Y-102133007D01*
X199602886Y-102014201D01*
X199376043Y-101862629D01*
X199123989Y-101758225D01*
X198856411Y-101705000D01*
X198583589Y-101705000D01*
X198316011Y-101758225D01*
X198063957Y-101862629D01*
X197837114Y-102014201D01*
X197644201Y-102207114D01*
X197492629Y-102433957D01*
X197388225Y-102686011D01*
X197335000Y-102953589D01*
X197281775Y-102686011D01*
X197177371Y-102433957D01*
X197025799Y-102207114D01*
X196832886Y-102014201D01*
X196606043Y-101862629D01*
X196353989Y-101758225D01*
X196086411Y-101705000D01*
X195813589Y-101705000D01*
X195546011Y-101758225D01*
X195293957Y-101862629D01*
X195067114Y-102014201D01*
X194874201Y-102207114D01*
X194722629Y-102433957D01*
X194618225Y-102686011D01*
X194565000Y-102953589D01*
X194511775Y-102686011D01*
X194407371Y-102433957D01*
X194255799Y-102207114D01*
X194062886Y-102014201D01*
X193940000Y-101932091D01*
X193940000Y-86108519D01*
X193978239Y-86051290D01*
X194056260Y-85862932D01*
X194096034Y-85662973D01*
X194096034Y-85459095D01*
X194056260Y-85259136D01*
X193978239Y-85070778D01*
X193868404Y-84906398D01*
X195439802Y-83335000D01*
X195501939Y-83335000D01*
X195701898Y-83295226D01*
X195890256Y-83217205D01*
X196059774Y-83103937D01*
X196203937Y-82959774D01*
X196317205Y-82790256D01*
X196395226Y-82601898D01*
X196435000Y-82401939D01*
X196435000Y-82339801D01*
X197414802Y-81360000D01*
X204462678Y-81360000D01*
X204500000Y-81363676D01*
X204537322Y-81360000D01*
X204537333Y-81360000D01*
X204648986Y-81349003D01*
X204792247Y-81305546D01*
X204924276Y-81234974D01*
X205040001Y-81140001D01*
X205063803Y-81110998D01*
X205771002Y-80403799D01*
X205800001Y-80380001D01*
X205894974Y-80264276D01*
X205965546Y-80132247D01*
X206009003Y-79988986D01*
X206020000Y-79877333D01*
X206020000Y-79877324D01*
X206023676Y-79840001D01*
X206020000Y-79802678D01*
X206020000Y-77618043D01*
X206174759Y-77514637D01*
X206374637Y-77314759D01*
X206531680Y-77079727D01*
X206639853Y-76818574D01*
X206695000Y-76541335D01*
X206695000Y-76258665D01*
X206665030Y-76107999D01*
X207256421Y-76107999D01*
X207361928Y-76213506D01*
G36*
X222318225Y-103493989D02*
G01*
X222422629Y-103746043D01*
X222574201Y-103972886D01*
X222767114Y-104165799D01*
X222770407Y-104167999D01*
X221759593Y-104167999D01*
X221762886Y-104165799D01*
X221955799Y-103972886D01*
X222107371Y-103746043D01*
X222211775Y-103493989D01*
X222265000Y-103226411D01*
X222318225Y-103493989D01*
G37*
X222318225Y-103493989D02*
X222422629Y-103746043D01*
X222574201Y-103972886D01*
X222767114Y-104165799D01*
X222770407Y-104167999D01*
X221759593Y-104167999D01*
X221762886Y-104165799D01*
X221955799Y-103972886D01*
X222107371Y-103746043D01*
X222211775Y-103493989D01*
X222265000Y-103226411D01*
X222318225Y-103493989D01*
G36*
X222890000Y-96764802D02*
G01*
X222890001Y-101932090D01*
X222767114Y-102014201D01*
X222574201Y-102207114D01*
X222422629Y-102433957D01*
X222318225Y-102686011D01*
X222265000Y-102953589D01*
X222211775Y-102686011D01*
X222107371Y-102433957D01*
X221955799Y-102207114D01*
X221762886Y-102014201D01*
X221640000Y-101932091D01*
X221640000Y-95514802D01*
X222890000Y-96764802D01*
G37*
X222890000Y-96764802D02*
X222890001Y-101932090D01*
X222767114Y-102014201D01*
X222574201Y-102207114D01*
X222422629Y-102433957D01*
X222318225Y-102686011D01*
X222265000Y-102953589D01*
X222211775Y-102686011D01*
X222107371Y-102433957D01*
X221955799Y-102207114D01*
X221762886Y-102014201D01*
X221640000Y-101932091D01*
X221640000Y-95514802D01*
X222890000Y-96764802D01*
G36*
X212115047Y-86429002D02*
G01*
X212122453Y-86453417D01*
X212193025Y-86585447D01*
X212232870Y-86633997D01*
X212287998Y-86701172D01*
X212317002Y-86724975D01*
X220120001Y-94527975D01*
X220120000Y-101932091D01*
X219997114Y-102014201D01*
X219804201Y-102207114D01*
X219652629Y-102433957D01*
X219548225Y-102686011D01*
X219495000Y-102953589D01*
X219441775Y-102686011D01*
X219337371Y-102433957D01*
X219185799Y-102207114D01*
X218992886Y-102014201D01*
X218870000Y-101932091D01*
X218870000Y-94147323D01*
X218873676Y-94110000D01*
X218870000Y-94072677D01*
X218870000Y-94072667D01*
X218859003Y-93961014D01*
X218815546Y-93817753D01*
X218744974Y-93685724D01*
X218650001Y-93569999D01*
X218621004Y-93546202D01*
X212100000Y-87025199D01*
X212100000Y-86379398D01*
X212115047Y-86429002D01*
G37*
X212115047Y-86429002D02*
X212122453Y-86453417D01*
X212193025Y-86585447D01*
X212232870Y-86633997D01*
X212287998Y-86701172D01*
X212317002Y-86724975D01*
X220120001Y-94527975D01*
X220120000Y-101932091D01*
X219997114Y-102014201D01*
X219804201Y-102207114D01*
X219652629Y-102433957D01*
X219548225Y-102686011D01*
X219495000Y-102953589D01*
X219441775Y-102686011D01*
X219337371Y-102433957D01*
X219185799Y-102207114D01*
X218992886Y-102014201D01*
X218870000Y-101932091D01*
X218870000Y-94147323D01*
X218873676Y-94110000D01*
X218870000Y-94072677D01*
X218870000Y-94072667D01*
X218859003Y-93961014D01*
X218815546Y-93817753D01*
X218744974Y-93685724D01*
X218650001Y-93569999D01*
X218621004Y-93546202D01*
X212100000Y-87025199D01*
X212100000Y-86379398D01*
X212115047Y-86429002D01*
G36*
X192420000Y-101932091D02*
G01*
X192297114Y-102014201D01*
X192104201Y-102207114D01*
X191952629Y-102433957D01*
X191848225Y-102686011D01*
X191795000Y-102953589D01*
X191741775Y-102686011D01*
X191637371Y-102433957D01*
X191485799Y-102207114D01*
X191292886Y-102014201D01*
X191066043Y-101862629D01*
X190949799Y-101814479D01*
X190949799Y-99436381D01*
X191134902Y-99473200D01*
X191425098Y-99473200D01*
X191709717Y-99416586D01*
X191977822Y-99305533D01*
X192219110Y-99144309D01*
X192420000Y-98943419D01*
X192420000Y-101932091D01*
G37*
X192420000Y-101932091D02*
X192297114Y-102014201D01*
X192104201Y-102207114D01*
X191952629Y-102433957D01*
X191848225Y-102686011D01*
X191795000Y-102953589D01*
X191741775Y-102686011D01*
X191637371Y-102433957D01*
X191485799Y-102207114D01*
X191292886Y-102014201D01*
X191066043Y-101862629D01*
X190949799Y-101814479D01*
X190949799Y-99436381D01*
X191134902Y-99473200D01*
X191425098Y-99473200D01*
X191709717Y-99416586D01*
X191977822Y-99305533D01*
X192219110Y-99144309D01*
X192420000Y-98943419D01*
X192420000Y-101932091D01*
G36*
X230545363Y-77314759D02*
G01*
X230745241Y-77514637D01*
X230900001Y-77618044D01*
X230900000Y-99190236D01*
X227340000Y-102750236D01*
X227340000Y-81483711D01*
X227383937Y-81439774D01*
X227497205Y-81270256D01*
X227575226Y-81081898D01*
X227615000Y-80881939D01*
X227615000Y-80678061D01*
X227575226Y-80478102D01*
X227497205Y-80289744D01*
X227383937Y-80120226D01*
X227340000Y-80076289D01*
X227340000Y-77618043D01*
X227494759Y-77514637D01*
X227694637Y-77314759D01*
X227850000Y-77082241D01*
X228005363Y-77314759D01*
X228205241Y-77514637D01*
X228360001Y-77618044D01*
X228360000Y-80316289D01*
X228316063Y-80360226D01*
X228202795Y-80529744D01*
X228124774Y-80718102D01*
X228085000Y-80918061D01*
X228085000Y-81121939D01*
X228124774Y-81321898D01*
X228202795Y-81510256D01*
X228316063Y-81679774D01*
X228360001Y-81723712D01*
X228360000Y-98465000D01*
X228298061Y-98465000D01*
X228098102Y-98504774D01*
X227909744Y-98582795D01*
X227740226Y-98696063D01*
X227596063Y-98840226D01*
X227482795Y-99009744D01*
X227404774Y-99198102D01*
X227365000Y-99398061D01*
X227365000Y-99601939D01*
X227404774Y-99801898D01*
X227482795Y-99990256D01*
X227596063Y-100159774D01*
X227740226Y-100303937D01*
X227909744Y-100417205D01*
X228098102Y-100495226D01*
X228298061Y-100535000D01*
X228501939Y-100535000D01*
X228701898Y-100495226D01*
X228890256Y-100417205D01*
X229059774Y-100303937D01*
X229203937Y-100159774D01*
X229317205Y-99990256D01*
X229395226Y-99801898D01*
X229435000Y-99601939D01*
X229435000Y-99539802D01*
X229631004Y-99343798D01*
X229660001Y-99320001D01*
X229754974Y-99204276D01*
X229825546Y-99072247D01*
X229869003Y-98928986D01*
X229880000Y-98817333D01*
X229880000Y-98817325D01*
X229883676Y-98780000D01*
X229880000Y-98742675D01*
X229880000Y-81723711D01*
X229923937Y-81679774D01*
X230037205Y-81510256D01*
X230115226Y-81321898D01*
X230155000Y-81121939D01*
X230155000Y-80918061D01*
X230115226Y-80718102D01*
X230037205Y-80529744D01*
X229923937Y-80360226D01*
X229880000Y-80316289D01*
X229880000Y-77618043D01*
X230034759Y-77514637D01*
X230234637Y-77314759D01*
X230390000Y-77082241D01*
X230545363Y-77314759D01*
G37*
X230545363Y-77314759D02*
X230745241Y-77514637D01*
X230900001Y-77618044D01*
X230900000Y-99190236D01*
X227340000Y-102750236D01*
X227340000Y-81483711D01*
X227383937Y-81439774D01*
X227497205Y-81270256D01*
X227575226Y-81081898D01*
X227615000Y-80881939D01*
X227615000Y-80678061D01*
X227575226Y-80478102D01*
X227497205Y-80289744D01*
X227383937Y-80120226D01*
X227340000Y-80076289D01*
X227340000Y-77618043D01*
X227494759Y-77514637D01*
X227694637Y-77314759D01*
X227850000Y-77082241D01*
X228005363Y-77314759D01*
X228205241Y-77514637D01*
X228360001Y-77618044D01*
X228360000Y-80316289D01*
X228316063Y-80360226D01*
X228202795Y-80529744D01*
X228124774Y-80718102D01*
X228085000Y-80918061D01*
X228085000Y-81121939D01*
X228124774Y-81321898D01*
X228202795Y-81510256D01*
X228316063Y-81679774D01*
X228360001Y-81723712D01*
X228360000Y-98465000D01*
X228298061Y-98465000D01*
X228098102Y-98504774D01*
X227909744Y-98582795D01*
X227740226Y-98696063D01*
X227596063Y-98840226D01*
X227482795Y-99009744D01*
X227404774Y-99198102D01*
X227365000Y-99398061D01*
X227365000Y-99601939D01*
X227404774Y-99801898D01*
X227482795Y-99990256D01*
X227596063Y-100159774D01*
X227740226Y-100303937D01*
X227909744Y-100417205D01*
X228098102Y-100495226D01*
X228298061Y-100535000D01*
X228501939Y-100535000D01*
X228701898Y-100495226D01*
X228890256Y-100417205D01*
X229059774Y-100303937D01*
X229203937Y-100159774D01*
X229317205Y-99990256D01*
X229395226Y-99801898D01*
X229435000Y-99601939D01*
X229435000Y-99539802D01*
X229631004Y-99343798D01*
X229660001Y-99320001D01*
X229754974Y-99204276D01*
X229825546Y-99072247D01*
X229869003Y-98928986D01*
X229880000Y-98817333D01*
X229880000Y-98817325D01*
X229883676Y-98780000D01*
X229880000Y-98742675D01*
X229880000Y-81723711D01*
X229923937Y-81679774D01*
X230037205Y-81510256D01*
X230115226Y-81321898D01*
X230155000Y-81121939D01*
X230155000Y-80918061D01*
X230115226Y-80718102D01*
X230037205Y-80529744D01*
X229923937Y-80360226D01*
X229880000Y-80316289D01*
X229880000Y-77618043D01*
X230034759Y-77514637D01*
X230234637Y-77314759D01*
X230390000Y-77082241D01*
X230545363Y-77314759D01*
G36*
X192420001Y-86377493D02*
G01*
X192420000Y-97056581D01*
X192219110Y-96855691D01*
X191977822Y-96694467D01*
X191709717Y-96583414D01*
X191425098Y-96526800D01*
X191134902Y-96526800D01*
X190949799Y-96563619D01*
X190949799Y-87825002D01*
X192406398Y-86368404D01*
X192420001Y-86377493D01*
G37*
X192420001Y-86377493D02*
X192420000Y-97056581D01*
X192219110Y-96855691D01*
X191977822Y-96694467D01*
X191709717Y-96583414D01*
X191425098Y-96526800D01*
X191134902Y-96526800D01*
X190949799Y-96563619D01*
X190949799Y-87825002D01*
X192406398Y-86368404D01*
X192420001Y-86377493D01*
G36*
X215305363Y-77314759D02*
G01*
X215505241Y-77514637D01*
X215740273Y-77671680D01*
X216001426Y-77779853D01*
X216278665Y-77835000D01*
X216561335Y-77835000D01*
X216743887Y-77798688D01*
X219575000Y-80629802D01*
X219575000Y-80691939D01*
X219614774Y-80891898D01*
X219692795Y-81080256D01*
X219806063Y-81249774D01*
X219950226Y-81393937D01*
X220119744Y-81507205D01*
X220308102Y-81585226D01*
X220508061Y-81625000D01*
X220570199Y-81625000D01*
X223892001Y-84946803D01*
X223892001Y-92265000D01*
X223698061Y-92265000D01*
X223498102Y-92304774D01*
X223309744Y-92382795D01*
X223140226Y-92496063D01*
X222996063Y-92640226D01*
X222882795Y-92809744D01*
X222804774Y-92998102D01*
X222765000Y-93198061D01*
X222765000Y-93401939D01*
X222804774Y-93601898D01*
X222882795Y-93790256D01*
X222996063Y-93959774D01*
X223040000Y-94003711D01*
X223040001Y-94222262D01*
X223009744Y-94234795D01*
X222840226Y-94348063D01*
X222731545Y-94456744D01*
X214640000Y-86365199D01*
X214640000Y-77618043D01*
X214794759Y-77514637D01*
X214994637Y-77314759D01*
X215150000Y-77082241D01*
X215305363Y-77314759D01*
G37*
X215305363Y-77314759D02*
X215505241Y-77514637D01*
X215740273Y-77671680D01*
X216001426Y-77779853D01*
X216278665Y-77835000D01*
X216561335Y-77835000D01*
X216743887Y-77798688D01*
X219575000Y-80629802D01*
X219575000Y-80691939D01*
X219614774Y-80891898D01*
X219692795Y-81080256D01*
X219806063Y-81249774D01*
X219950226Y-81393937D01*
X220119744Y-81507205D01*
X220308102Y-81585226D01*
X220508061Y-81625000D01*
X220570199Y-81625000D01*
X223892001Y-84946803D01*
X223892001Y-92265000D01*
X223698061Y-92265000D01*
X223498102Y-92304774D01*
X223309744Y-92382795D01*
X223140226Y-92496063D01*
X222996063Y-92640226D01*
X222882795Y-92809744D01*
X222804774Y-92998102D01*
X222765000Y-93198061D01*
X222765000Y-93401939D01*
X222804774Y-93601898D01*
X222882795Y-93790256D01*
X222996063Y-93959774D01*
X223040000Y-94003711D01*
X223040001Y-94222262D01*
X223009744Y-94234795D01*
X222840226Y-94348063D01*
X222731545Y-94456744D01*
X214640000Y-86365199D01*
X214640000Y-77618043D01*
X214794759Y-77514637D01*
X214994637Y-77314759D01*
X215150000Y-77082241D01*
X215305363Y-77314759D01*
G36*
X222925363Y-77314759D02*
G01*
X223125241Y-77514637D01*
X223360273Y-77671680D01*
X223621426Y-77779853D01*
X223898665Y-77835000D01*
X224181335Y-77835000D01*
X224363886Y-77798688D01*
X224640001Y-78074803D01*
X224640000Y-79150945D01*
X224613656Y-79165026D01*
X224613654Y-79165027D01*
X224613655Y-79165027D01*
X224526928Y-79236201D01*
X224526924Y-79236205D01*
X224497931Y-79259999D01*
X224474137Y-79288993D01*
X224429163Y-79333966D01*
X224367027Y-79333966D01*
X224167068Y-79373740D01*
X223978710Y-79451761D01*
X223809192Y-79565029D01*
X223665029Y-79709192D01*
X223551761Y-79878710D01*
X223473740Y-80067068D01*
X223433966Y-80267027D01*
X223433966Y-80470905D01*
X223473740Y-80670864D01*
X223551761Y-80859222D01*
X223665029Y-81028740D01*
X223809192Y-81172903D01*
X223978710Y-81286171D01*
X224167068Y-81364192D01*
X224367027Y-81403966D01*
X224570905Y-81403966D01*
X224640001Y-81390222D01*
X224640001Y-83545199D01*
X221645000Y-80550199D01*
X221645000Y-80488061D01*
X221605226Y-80288102D01*
X221527205Y-80099744D01*
X221452217Y-79987517D01*
X221517205Y-79890256D01*
X221595226Y-79701898D01*
X221635000Y-79501939D01*
X221635000Y-79439802D01*
X222011003Y-79063799D01*
X222040001Y-79040001D01*
X222134974Y-78924276D01*
X222205546Y-78792247D01*
X222249003Y-78648986D01*
X222260000Y-78537333D01*
X222260000Y-78537324D01*
X222263676Y-78500001D01*
X222260000Y-78462678D01*
X222260000Y-77618043D01*
X222414759Y-77514637D01*
X222614637Y-77314759D01*
X222770000Y-77082241D01*
X222925363Y-77314759D01*
G37*
X222925363Y-77314759D02*
X223125241Y-77514637D01*
X223360273Y-77671680D01*
X223621426Y-77779853D01*
X223898665Y-77835000D01*
X224181335Y-77835000D01*
X224363886Y-77798688D01*
X224640001Y-78074803D01*
X224640000Y-79150945D01*
X224613656Y-79165026D01*
X224613654Y-79165027D01*
X224613655Y-79165027D01*
X224526928Y-79236201D01*
X224526924Y-79236205D01*
X224497931Y-79259999D01*
X224474137Y-79288993D01*
X224429163Y-79333966D01*
X224367027Y-79333966D01*
X224167068Y-79373740D01*
X223978710Y-79451761D01*
X223809192Y-79565029D01*
X223665029Y-79709192D01*
X223551761Y-79878710D01*
X223473740Y-80067068D01*
X223433966Y-80267027D01*
X223433966Y-80470905D01*
X223473740Y-80670864D01*
X223551761Y-80859222D01*
X223665029Y-81028740D01*
X223809192Y-81172903D01*
X223978710Y-81286171D01*
X224167068Y-81364192D01*
X224367027Y-81403966D01*
X224570905Y-81403966D01*
X224640001Y-81390222D01*
X224640001Y-83545199D01*
X221645000Y-80550199D01*
X221645000Y-80488061D01*
X221605226Y-80288102D01*
X221527205Y-80099744D01*
X221452217Y-79987517D01*
X221517205Y-79890256D01*
X221595226Y-79701898D01*
X221635000Y-79501939D01*
X221635000Y-79439802D01*
X222011003Y-79063799D01*
X222040001Y-79040001D01*
X222134974Y-78924276D01*
X222205546Y-78792247D01*
X222249003Y-78648986D01*
X222260000Y-78537333D01*
X222260000Y-78537324D01*
X222263676Y-78500001D01*
X222260000Y-78462678D01*
X222260000Y-77618043D01*
X222414759Y-77514637D01*
X222614637Y-77314759D01*
X222770000Y-77082241D01*
X222925363Y-77314759D01*
G36*
X204145363Y-77314759D02*
G01*
X204345241Y-77514637D01*
X204500000Y-77618044D01*
X204500001Y-79525197D01*
X204185199Y-79840000D01*
X197137322Y-79840000D01*
X197099999Y-79836324D01*
X197062676Y-79840000D01*
X197062667Y-79840000D01*
X196951014Y-79850997D01*
X196821592Y-79890256D01*
X196807753Y-79894454D01*
X196675723Y-79965026D01*
X196646527Y-79988987D01*
X196559999Y-80059999D01*
X196536201Y-80088997D01*
X196143602Y-80481596D01*
X195979222Y-80371761D01*
X195790864Y-80293740D01*
X195590905Y-80253966D01*
X195387027Y-80253966D01*
X195187068Y-80293740D01*
X194998710Y-80371761D01*
X194829192Y-80485029D01*
X194785255Y-80528966D01*
X190143768Y-80528966D01*
X187449801Y-77835000D01*
X187621335Y-77835000D01*
X187898574Y-77779853D01*
X188159727Y-77671680D01*
X188394759Y-77514637D01*
X188594637Y-77314759D01*
X188750000Y-77082241D01*
X188905363Y-77314759D01*
X189105241Y-77514637D01*
X189340273Y-77671680D01*
X189601426Y-77779853D01*
X189878665Y-77835000D01*
X190161335Y-77835000D01*
X190438574Y-77779853D01*
X190699727Y-77671680D01*
X190934759Y-77514637D01*
X191134637Y-77314759D01*
X191290000Y-77082241D01*
X191445363Y-77314759D01*
X191645241Y-77514637D01*
X191880273Y-77671680D01*
X192141426Y-77779853D01*
X192418665Y-77835000D01*
X192701335Y-77835000D01*
X192978574Y-77779853D01*
X193239727Y-77671680D01*
X193474759Y-77514637D01*
X193674637Y-77314759D01*
X193830000Y-77082241D01*
X193985363Y-77314759D01*
X194185241Y-77514637D01*
X194420273Y-77671680D01*
X194681426Y-77779853D01*
X194958665Y-77835000D01*
X195241335Y-77835000D01*
X195518574Y-77779853D01*
X195779727Y-77671680D01*
X196014759Y-77514637D01*
X196214637Y-77314759D01*
X196370000Y-77082241D01*
X196525363Y-77314759D01*
X196725241Y-77514637D01*
X196960273Y-77671680D01*
X197221426Y-77779853D01*
X197498665Y-77835000D01*
X197781335Y-77835000D01*
X198058574Y-77779853D01*
X198319727Y-77671680D01*
X198554759Y-77514637D01*
X198754637Y-77314759D01*
X198910000Y-77082241D01*
X199065363Y-77314759D01*
X199265241Y-77514637D01*
X199500273Y-77671680D01*
X199761426Y-77779853D01*
X200038665Y-77835000D01*
X200321335Y-77835000D01*
X200598574Y-77779853D01*
X200859727Y-77671680D01*
X201094759Y-77514637D01*
X201294637Y-77314759D01*
X201450000Y-77082241D01*
X201605363Y-77314759D01*
X201805241Y-77514637D01*
X202040273Y-77671680D01*
X202301426Y-77779853D01*
X202578665Y-77835000D01*
X202861335Y-77835000D01*
X203138574Y-77779853D01*
X203399727Y-77671680D01*
X203634759Y-77514637D01*
X203834637Y-77314759D01*
X203990000Y-77082241D01*
X204145363Y-77314759D01*
G37*
X204145363Y-77314759D02*
X204345241Y-77514637D01*
X204500000Y-77618044D01*
X204500001Y-79525197D01*
X204185199Y-79840000D01*
X197137322Y-79840000D01*
X197099999Y-79836324D01*
X197062676Y-79840000D01*
X197062667Y-79840000D01*
X196951014Y-79850997D01*
X196821592Y-79890256D01*
X196807753Y-79894454D01*
X196675723Y-79965026D01*
X196646527Y-79988987D01*
X196559999Y-80059999D01*
X196536201Y-80088997D01*
X196143602Y-80481596D01*
X195979222Y-80371761D01*
X195790864Y-80293740D01*
X195590905Y-80253966D01*
X195387027Y-80253966D01*
X195187068Y-80293740D01*
X194998710Y-80371761D01*
X194829192Y-80485029D01*
X194785255Y-80528966D01*
X190143768Y-80528966D01*
X187449801Y-77835000D01*
X187621335Y-77835000D01*
X187898574Y-77779853D01*
X188159727Y-77671680D01*
X188394759Y-77514637D01*
X188594637Y-77314759D01*
X188750000Y-77082241D01*
X188905363Y-77314759D01*
X189105241Y-77514637D01*
X189340273Y-77671680D01*
X189601426Y-77779853D01*
X189878665Y-77835000D01*
X190161335Y-77835000D01*
X190438574Y-77779853D01*
X190699727Y-77671680D01*
X190934759Y-77514637D01*
X191134637Y-77314759D01*
X191290000Y-77082241D01*
X191445363Y-77314759D01*
X191645241Y-77514637D01*
X191880273Y-77671680D01*
X192141426Y-77779853D01*
X192418665Y-77835000D01*
X192701335Y-77835000D01*
X192978574Y-77779853D01*
X193239727Y-77671680D01*
X193474759Y-77514637D01*
X193674637Y-77314759D01*
X193830000Y-77082241D01*
X193985363Y-77314759D01*
X194185241Y-77514637D01*
X194420273Y-77671680D01*
X194681426Y-77779853D01*
X194958665Y-77835000D01*
X195241335Y-77835000D01*
X195518574Y-77779853D01*
X195779727Y-77671680D01*
X196014759Y-77514637D01*
X196214637Y-77314759D01*
X196370000Y-77082241D01*
X196525363Y-77314759D01*
X196725241Y-77514637D01*
X196960273Y-77671680D01*
X197221426Y-77779853D01*
X197498665Y-77835000D01*
X197781335Y-77835000D01*
X198058574Y-77779853D01*
X198319727Y-77671680D01*
X198554759Y-77514637D01*
X198754637Y-77314759D01*
X198910000Y-77082241D01*
X199065363Y-77314759D01*
X199265241Y-77514637D01*
X199500273Y-77671680D01*
X199761426Y-77779853D01*
X200038665Y-77835000D01*
X200321335Y-77835000D01*
X200598574Y-77779853D01*
X200859727Y-77671680D01*
X201094759Y-77514637D01*
X201294637Y-77314759D01*
X201450000Y-77082241D01*
X201605363Y-77314759D01*
X201805241Y-77514637D01*
X202040273Y-77671680D01*
X202301426Y-77779853D01*
X202578665Y-77835000D01*
X202861335Y-77835000D01*
X203138574Y-77779853D01*
X203399727Y-77671680D01*
X203634759Y-77514637D01*
X203834637Y-77314759D01*
X203990000Y-77082241D01*
X204145363Y-77314759D01*
G36*
X220385363Y-77314759D02*
G01*
X220585241Y-77514637D01*
X220740001Y-77618044D01*
X220740001Y-78185197D01*
X220560198Y-78365000D01*
X220498061Y-78365000D01*
X220298102Y-78404774D01*
X220109744Y-78482795D01*
X219940226Y-78596063D01*
X219815545Y-78720744D01*
X218929801Y-77835000D01*
X219101335Y-77835000D01*
X219378574Y-77779853D01*
X219639727Y-77671680D01*
X219874759Y-77514637D01*
X220074637Y-77314759D01*
X220230000Y-77082241D01*
X220385363Y-77314759D01*
G37*
X220385363Y-77314759D02*
X220585241Y-77514637D01*
X220740001Y-77618044D01*
X220740001Y-78185197D01*
X220560198Y-78365000D01*
X220498061Y-78365000D01*
X220298102Y-78404774D01*
X220109744Y-78482795D01*
X219940226Y-78596063D01*
X219815545Y-78720744D01*
X218929801Y-77835000D01*
X219101335Y-77835000D01*
X219378574Y-77779853D01*
X219639727Y-77671680D01*
X219874759Y-77514637D01*
X220074637Y-77314759D01*
X220230000Y-77082241D01*
X220385363Y-77314759D01*
G36*
X212765363Y-73904759D02*
G01*
X212965241Y-74104637D01*
X213200273Y-74261680D01*
X213461426Y-74369853D01*
X213738665Y-74425000D01*
X214021335Y-74425000D01*
X214203886Y-74388688D01*
X214403197Y-74587999D01*
X213412361Y-74587999D01*
X213375038Y-74584323D01*
X213337715Y-74587999D01*
X213337706Y-74587999D01*
X213226053Y-74598996D01*
X213082792Y-74642453D01*
X212950763Y-74713025D01*
X212950761Y-74713026D01*
X212950762Y-74713026D01*
X212864035Y-74784200D01*
X212864031Y-74784204D01*
X212835038Y-74807998D01*
X212811244Y-74836992D01*
X212316996Y-75331241D01*
X212308011Y-75338615D01*
X212254759Y-75285363D01*
X212019727Y-75128320D01*
X211758574Y-75020147D01*
X211481335Y-74965000D01*
X211198665Y-74965000D01*
X210921426Y-75020147D01*
X210660273Y-75128320D01*
X210425241Y-75285363D01*
X210226643Y-75483961D01*
X210225812Y-75475518D01*
X210189502Y-75355820D01*
X210130537Y-75245506D01*
X210051185Y-75148815D01*
X209954494Y-75069463D01*
X209844180Y-75010498D01*
X209724482Y-74974188D01*
X209600000Y-74961928D01*
X208613506Y-74961928D01*
X208346578Y-74695000D01*
X208613506Y-74428072D01*
X209600000Y-74428072D01*
X209724482Y-74415812D01*
X209844180Y-74379502D01*
X209954494Y-74320537D01*
X210051185Y-74241185D01*
X210130537Y-74144494D01*
X210189502Y-74034180D01*
X210225812Y-73914482D01*
X210226643Y-73906039D01*
X210425241Y-74104637D01*
X210660273Y-74261680D01*
X210921426Y-74369853D01*
X211198665Y-74425000D01*
X211481335Y-74425000D01*
X211758574Y-74369853D01*
X212019727Y-74261680D01*
X212254759Y-74104637D01*
X212454637Y-73904759D01*
X212610000Y-73672241D01*
X212765363Y-73904759D01*
G37*
X212765363Y-73904759D02*
X212965241Y-74104637D01*
X213200273Y-74261680D01*
X213461426Y-74369853D01*
X213738665Y-74425000D01*
X214021335Y-74425000D01*
X214203886Y-74388688D01*
X214403197Y-74587999D01*
X213412361Y-74587999D01*
X213375038Y-74584323D01*
X213337715Y-74587999D01*
X213337706Y-74587999D01*
X213226053Y-74598996D01*
X213082792Y-74642453D01*
X212950763Y-74713025D01*
X212950761Y-74713026D01*
X212950762Y-74713026D01*
X212864035Y-74784200D01*
X212864031Y-74784204D01*
X212835038Y-74807998D01*
X212811244Y-74836992D01*
X212316996Y-75331241D01*
X212308011Y-75338615D01*
X212254759Y-75285363D01*
X212019727Y-75128320D01*
X211758574Y-75020147D01*
X211481335Y-74965000D01*
X211198665Y-74965000D01*
X210921426Y-75020147D01*
X210660273Y-75128320D01*
X210425241Y-75285363D01*
X210226643Y-75483961D01*
X210225812Y-75475518D01*
X210189502Y-75355820D01*
X210130537Y-75245506D01*
X210051185Y-75148815D01*
X209954494Y-75069463D01*
X209844180Y-75010498D01*
X209724482Y-74974188D01*
X209600000Y-74961928D01*
X208613506Y-74961928D01*
X208346578Y-74695000D01*
X208613506Y-74428072D01*
X209600000Y-74428072D01*
X209724482Y-74415812D01*
X209844180Y-74379502D01*
X209954494Y-74320537D01*
X210051185Y-74241185D01*
X210130537Y-74144494D01*
X210189502Y-74034180D01*
X210225812Y-73914482D01*
X210226643Y-73906039D01*
X210425241Y-74104637D01*
X210660273Y-74261680D01*
X210921426Y-74369853D01*
X211198665Y-74425000D01*
X211481335Y-74425000D01*
X211758574Y-74369853D01*
X212019727Y-74261680D01*
X212254759Y-74104637D01*
X212454637Y-73904759D01*
X212610000Y-73672241D01*
X212765363Y-73904759D01*
G36*
X180974188Y-51075518D02*
G01*
X180961928Y-51200000D01*
X180961928Y-52800000D01*
X180974188Y-52924482D01*
X181010498Y-53044180D01*
X181069463Y-53154494D01*
X181148815Y-53251185D01*
X181245506Y-53330537D01*
X181355820Y-53389502D01*
X181475518Y-53425812D01*
X181600000Y-53438072D01*
X183200000Y-53438072D01*
X183324482Y-53425812D01*
X183444180Y-53389502D01*
X183554494Y-53330537D01*
X183651185Y-53251185D01*
X183730537Y-53154494D01*
X183789502Y-53044180D01*
X183825812Y-52924482D01*
X183826643Y-52916039D01*
X184025241Y-53114637D01*
X184260273Y-53271680D01*
X184521426Y-53379853D01*
X184798665Y-53435000D01*
X185081335Y-53435000D01*
X185358574Y-53379853D01*
X185619727Y-53271680D01*
X185854759Y-53114637D01*
X186054637Y-52914759D01*
X186210000Y-52682241D01*
X186365363Y-52914759D01*
X186565241Y-53114637D01*
X186800273Y-53271680D01*
X187061426Y-53379853D01*
X187338665Y-53435000D01*
X187621335Y-53435000D01*
X187803886Y-53398688D01*
X188416200Y-54011002D01*
X188439999Y-54040001D01*
X188555724Y-54134974D01*
X188687753Y-54205546D01*
X188831014Y-54249003D01*
X188942667Y-54260000D01*
X188942676Y-54260000D01*
X188979999Y-54263676D01*
X189017322Y-54260000D01*
X195596289Y-54260000D01*
X195640226Y-54303937D01*
X195809744Y-54417205D01*
X195998102Y-54495226D01*
X196198061Y-54535000D01*
X196260199Y-54535000D01*
X196513197Y-54787999D01*
X181199334Y-54787999D01*
X181162001Y-54784322D01*
X181124668Y-54787999D01*
X181013015Y-54798996D01*
X180869754Y-54842453D01*
X180737725Y-54913025D01*
X180622000Y-55007998D01*
X180598202Y-55036996D01*
X179495000Y-56140198D01*
X179495000Y-56013740D01*
X179451210Y-55793593D01*
X179811008Y-55433795D01*
X179840001Y-55410001D01*
X179863795Y-55381008D01*
X179863799Y-55381004D01*
X179921811Y-55310315D01*
X179934974Y-55294276D01*
X180005546Y-55162247D01*
X180049003Y-55018986D01*
X180060000Y-54907333D01*
X180060000Y-54907324D01*
X180063676Y-54870001D01*
X180060000Y-54832678D01*
X180060000Y-51614801D01*
X180714802Y-50960000D01*
X181009230Y-50960000D01*
X180974188Y-51075518D01*
G37*
X180974188Y-51075518D02*
X180961928Y-51200000D01*
X180961928Y-52800000D01*
X180974188Y-52924482D01*
X181010498Y-53044180D01*
X181069463Y-53154494D01*
X181148815Y-53251185D01*
X181245506Y-53330537D01*
X181355820Y-53389502D01*
X181475518Y-53425812D01*
X181600000Y-53438072D01*
X183200000Y-53438072D01*
X183324482Y-53425812D01*
X183444180Y-53389502D01*
X183554494Y-53330537D01*
X183651185Y-53251185D01*
X183730537Y-53154494D01*
X183789502Y-53044180D01*
X183825812Y-52924482D01*
X183826643Y-52916039D01*
X184025241Y-53114637D01*
X184260273Y-53271680D01*
X184521426Y-53379853D01*
X184798665Y-53435000D01*
X185081335Y-53435000D01*
X185358574Y-53379853D01*
X185619727Y-53271680D01*
X185854759Y-53114637D01*
X186054637Y-52914759D01*
X186210000Y-52682241D01*
X186365363Y-52914759D01*
X186565241Y-53114637D01*
X186800273Y-53271680D01*
X187061426Y-53379853D01*
X187338665Y-53435000D01*
X187621335Y-53435000D01*
X187803886Y-53398688D01*
X188416200Y-54011002D01*
X188439999Y-54040001D01*
X188555724Y-54134974D01*
X188687753Y-54205546D01*
X188831014Y-54249003D01*
X188942667Y-54260000D01*
X188942676Y-54260000D01*
X188979999Y-54263676D01*
X189017322Y-54260000D01*
X195596289Y-54260000D01*
X195640226Y-54303937D01*
X195809744Y-54417205D01*
X195998102Y-54495226D01*
X196198061Y-54535000D01*
X196260199Y-54535000D01*
X196513197Y-54787999D01*
X181199334Y-54787999D01*
X181162001Y-54784322D01*
X181124668Y-54787999D01*
X181013015Y-54798996D01*
X180869754Y-54842453D01*
X180737725Y-54913025D01*
X180622000Y-55007998D01*
X180598202Y-55036996D01*
X179495000Y-56140198D01*
X179495000Y-56013740D01*
X179451210Y-55793593D01*
X179811008Y-55433795D01*
X179840001Y-55410001D01*
X179863795Y-55381008D01*
X179863799Y-55381004D01*
X179921811Y-55310315D01*
X179934974Y-55294276D01*
X180005546Y-55162247D01*
X180049003Y-55018986D01*
X180060000Y-54907333D01*
X180060000Y-54907324D01*
X180063676Y-54870001D01*
X180060000Y-54832678D01*
X180060000Y-51614801D01*
X180714802Y-50960000D01*
X181009230Y-50960000D01*
X180974188Y-51075518D01*
G36*
X207361928Y-52363270D02*
G01*
X206210555Y-53514644D01*
X206210555Y-53444094D01*
X206170781Y-53244135D01*
X206129631Y-53144791D01*
X206174759Y-53114637D01*
X206374637Y-52914759D01*
X206531680Y-52679727D01*
X206639853Y-52418574D01*
X206695000Y-52141335D01*
X206695000Y-51858665D01*
X206639853Y-51581426D01*
X206531680Y-51320273D01*
X206491407Y-51260000D01*
X207361928Y-51260000D01*
X207361928Y-52363270D01*
G37*
X207361928Y-52363270D02*
X206210555Y-53514644D01*
X206210555Y-53444094D01*
X206170781Y-53244135D01*
X206129631Y-53144791D01*
X206174759Y-53114637D01*
X206374637Y-52914759D01*
X206531680Y-52679727D01*
X206639853Y-52418574D01*
X206695000Y-52141335D01*
X206695000Y-51858665D01*
X206639853Y-51581426D01*
X206531680Y-51320273D01*
X206491407Y-51260000D01*
X207361928Y-51260000D01*
X207361928Y-52363270D01*
G36*
X224906525Y-48216632D02*
G01*
X225113368Y-48423475D01*
X225346170Y-48579028D01*
X225185199Y-48740000D01*
X224037323Y-48740000D01*
X224000000Y-48736324D01*
X223962677Y-48740000D01*
X223962667Y-48740000D01*
X223851014Y-48750997D01*
X223707753Y-48794454D01*
X223575723Y-48865026D01*
X223508767Y-48919976D01*
X223459999Y-48959999D01*
X223436201Y-48988997D01*
X221823886Y-50601312D01*
X221641335Y-50565000D01*
X221358665Y-50565000D01*
X221081426Y-50620147D01*
X220820273Y-50728320D01*
X220585241Y-50885363D01*
X220385363Y-51085241D01*
X220230000Y-51317759D01*
X220074637Y-51085241D01*
X219874759Y-50885363D01*
X219639727Y-50728320D01*
X219378574Y-50620147D01*
X219101335Y-50565000D01*
X218818665Y-50565000D01*
X218541426Y-50620147D01*
X218280273Y-50728320D01*
X218045241Y-50885363D01*
X217845363Y-51085241D01*
X217690000Y-51317759D01*
X217534637Y-51085241D01*
X217334759Y-50885363D01*
X217099727Y-50728320D01*
X216838574Y-50620147D01*
X216561335Y-50565000D01*
X216278665Y-50565000D01*
X216001426Y-50620147D01*
X215740273Y-50728320D01*
X215505241Y-50885363D01*
X215305363Y-51085241D01*
X215150000Y-51317759D01*
X214994637Y-51085241D01*
X214794759Y-50885363D01*
X214559727Y-50728320D01*
X214298574Y-50620147D01*
X214021335Y-50565000D01*
X213738665Y-50565000D01*
X213461426Y-50620147D01*
X213200273Y-50728320D01*
X212965241Y-50885363D01*
X212765363Y-51085241D01*
X212610000Y-51317759D01*
X212454637Y-51085241D01*
X212254759Y-50885363D01*
X212019727Y-50728320D01*
X212010612Y-50724545D01*
X212035000Y-50601939D01*
X212035000Y-50560000D01*
X220952678Y-50560000D01*
X220990000Y-50563676D01*
X221027322Y-50560000D01*
X221027333Y-50560000D01*
X221138986Y-50549003D01*
X221282247Y-50505546D01*
X221414276Y-50434974D01*
X221530001Y-50340001D01*
X221553804Y-50310997D01*
X223153592Y-48711210D01*
X223373740Y-48755000D01*
X223666260Y-48755000D01*
X223953158Y-48697932D01*
X224223411Y-48585990D01*
X224466632Y-48423475D01*
X224673475Y-48216632D01*
X224790000Y-48042240D01*
X224906525Y-48216632D01*
G37*
X224906525Y-48216632D02*
X225113368Y-48423475D01*
X225346170Y-48579028D01*
X225185199Y-48740000D01*
X224037323Y-48740000D01*
X224000000Y-48736324D01*
X223962677Y-48740000D01*
X223962667Y-48740000D01*
X223851014Y-48750997D01*
X223707753Y-48794454D01*
X223575723Y-48865026D01*
X223508767Y-48919976D01*
X223459999Y-48959999D01*
X223436201Y-48988997D01*
X221823886Y-50601312D01*
X221641335Y-50565000D01*
X221358665Y-50565000D01*
X221081426Y-50620147D01*
X220820273Y-50728320D01*
X220585241Y-50885363D01*
X220385363Y-51085241D01*
X220230000Y-51317759D01*
X220074637Y-51085241D01*
X219874759Y-50885363D01*
X219639727Y-50728320D01*
X219378574Y-50620147D01*
X219101335Y-50565000D01*
X218818665Y-50565000D01*
X218541426Y-50620147D01*
X218280273Y-50728320D01*
X218045241Y-50885363D01*
X217845363Y-51085241D01*
X217690000Y-51317759D01*
X217534637Y-51085241D01*
X217334759Y-50885363D01*
X217099727Y-50728320D01*
X216838574Y-50620147D01*
X216561335Y-50565000D01*
X216278665Y-50565000D01*
X216001426Y-50620147D01*
X215740273Y-50728320D01*
X215505241Y-50885363D01*
X215305363Y-51085241D01*
X215150000Y-51317759D01*
X214994637Y-51085241D01*
X214794759Y-50885363D01*
X214559727Y-50728320D01*
X214298574Y-50620147D01*
X214021335Y-50565000D01*
X213738665Y-50565000D01*
X213461426Y-50620147D01*
X213200273Y-50728320D01*
X212965241Y-50885363D01*
X212765363Y-51085241D01*
X212610000Y-51317759D01*
X212454637Y-51085241D01*
X212254759Y-50885363D01*
X212019727Y-50728320D01*
X212010612Y-50724545D01*
X212035000Y-50601939D01*
X212035000Y-50560000D01*
X220952678Y-50560000D01*
X220990000Y-50563676D01*
X221027322Y-50560000D01*
X221027333Y-50560000D01*
X221138986Y-50549003D01*
X221282247Y-50505546D01*
X221414276Y-50434974D01*
X221530001Y-50340001D01*
X221553804Y-50310997D01*
X223153592Y-48711210D01*
X223373740Y-48755000D01*
X223666260Y-48755000D01*
X223953158Y-48697932D01*
X224223411Y-48585990D01*
X224466632Y-48423475D01*
X224673475Y-48216632D01*
X224790000Y-48042240D01*
X224906525Y-48216632D01*
G36*
X201605363Y-51085241D02*
G01*
X201450000Y-51317759D01*
X201294637Y-51085241D01*
X201146406Y-50937010D01*
X201753594Y-50937010D01*
X201605363Y-51085241D01*
G37*
X201605363Y-51085241D02*
X201450000Y-51317759D01*
X201294637Y-51085241D01*
X201146406Y-50937010D01*
X201753594Y-50937010D01*
X201605363Y-51085241D01*
G36*
X193167000Y-47143000D02*
G01*
X193187000Y-47143000D01*
X193187000Y-47397000D01*
X193167000Y-47397000D01*
X193167000Y-48590155D01*
X193382002Y-48703619D01*
X193382002Y-50103196D01*
X193023017Y-50462181D01*
X193035000Y-50401939D01*
X193035000Y-50198061D01*
X192995226Y-49998102D01*
X192917205Y-49809744D01*
X192803937Y-49640226D01*
X192659774Y-49496063D01*
X192490256Y-49382795D01*
X192301898Y-49304774D01*
X192101939Y-49265000D01*
X191898061Y-49265000D01*
X191698102Y-49304774D01*
X191509744Y-49382795D01*
X191340226Y-49496063D01*
X191196063Y-49640226D01*
X191082795Y-49809744D01*
X191004774Y-49998102D01*
X190965000Y-50198061D01*
X190965000Y-50260198D01*
X190556291Y-50668907D01*
X190438574Y-50620147D01*
X190161335Y-50565000D01*
X189878665Y-50565000D01*
X189601426Y-50620147D01*
X189340273Y-50728320D01*
X189105241Y-50885363D01*
X188905363Y-51085241D01*
X188750000Y-51317759D01*
X188594637Y-51085241D01*
X188394759Y-50885363D01*
X188159727Y-50728320D01*
X187898574Y-50620147D01*
X187621335Y-50565000D01*
X187338665Y-50565000D01*
X187061426Y-50620147D01*
X186800273Y-50728320D01*
X186565241Y-50885363D01*
X186365363Y-51085241D01*
X186210000Y-51317759D01*
X186054637Y-51085241D01*
X185854759Y-50885363D01*
X185619727Y-50728320D01*
X185589771Y-50715912D01*
X185593804Y-50710997D01*
X187593592Y-48711210D01*
X187813740Y-48755000D01*
X188106260Y-48755000D01*
X188393158Y-48697932D01*
X188663411Y-48585990D01*
X188906632Y-48423475D01*
X189113475Y-48216632D01*
X189230000Y-48042240D01*
X189346525Y-48216632D01*
X189553368Y-48423475D01*
X189796589Y-48585990D01*
X190066842Y-48697932D01*
X190353740Y-48755000D01*
X190646260Y-48755000D01*
X190933158Y-48697932D01*
X191203411Y-48585990D01*
X191446632Y-48423475D01*
X191653475Y-48216632D01*
X191775195Y-48034466D01*
X191844822Y-48151355D01*
X192039731Y-48367588D01*
X192273080Y-48541641D01*
X192535901Y-48666825D01*
X192683110Y-48711476D01*
X192913000Y-48590155D01*
X192913000Y-47397000D01*
X192893000Y-47397000D01*
X192893000Y-47143000D01*
X192913000Y-47143000D01*
X192913000Y-47123000D01*
X193167000Y-47123000D01*
X193167000Y-47143000D01*
G37*
X193167000Y-47143000D02*
X193187000Y-47143000D01*
X193187000Y-47397000D01*
X193167000Y-47397000D01*
X193167000Y-48590155D01*
X193382002Y-48703619D01*
X193382002Y-50103196D01*
X193023017Y-50462181D01*
X193035000Y-50401939D01*
X193035000Y-50198061D01*
X192995226Y-49998102D01*
X192917205Y-49809744D01*
X192803937Y-49640226D01*
X192659774Y-49496063D01*
X192490256Y-49382795D01*
X192301898Y-49304774D01*
X192101939Y-49265000D01*
X191898061Y-49265000D01*
X191698102Y-49304774D01*
X191509744Y-49382795D01*
X191340226Y-49496063D01*
X191196063Y-49640226D01*
X191082795Y-49809744D01*
X191004774Y-49998102D01*
X190965000Y-50198061D01*
X190965000Y-50260198D01*
X190556291Y-50668907D01*
X190438574Y-50620147D01*
X190161335Y-50565000D01*
X189878665Y-50565000D01*
X189601426Y-50620147D01*
X189340273Y-50728320D01*
X189105241Y-50885363D01*
X188905363Y-51085241D01*
X188750000Y-51317759D01*
X188594637Y-51085241D01*
X188394759Y-50885363D01*
X188159727Y-50728320D01*
X187898574Y-50620147D01*
X187621335Y-50565000D01*
X187338665Y-50565000D01*
X187061426Y-50620147D01*
X186800273Y-50728320D01*
X186565241Y-50885363D01*
X186365363Y-51085241D01*
X186210000Y-51317759D01*
X186054637Y-51085241D01*
X185854759Y-50885363D01*
X185619727Y-50728320D01*
X185589771Y-50715912D01*
X185593804Y-50710997D01*
X187593592Y-48711210D01*
X187813740Y-48755000D01*
X188106260Y-48755000D01*
X188393158Y-48697932D01*
X188663411Y-48585990D01*
X188906632Y-48423475D01*
X189113475Y-48216632D01*
X189230000Y-48042240D01*
X189346525Y-48216632D01*
X189553368Y-48423475D01*
X189796589Y-48585990D01*
X190066842Y-48697932D01*
X190353740Y-48755000D01*
X190646260Y-48755000D01*
X190933158Y-48697932D01*
X191203411Y-48585990D01*
X191446632Y-48423475D01*
X191653475Y-48216632D01*
X191775195Y-48034466D01*
X191844822Y-48151355D01*
X192039731Y-48367588D01*
X192273080Y-48541641D01*
X192535901Y-48666825D01*
X192683110Y-48711476D01*
X192913000Y-48590155D01*
X192913000Y-47397000D01*
X192893000Y-47397000D01*
X192893000Y-47143000D01*
X192913000Y-47143000D01*
X192913000Y-47123000D01*
X193167000Y-47123000D01*
X193167000Y-47143000D01*
G36*
X229278000Y-50340667D02*
G01*
X229274323Y-50377999D01*
X229278000Y-50415332D01*
X229286886Y-50505546D01*
X229288997Y-50526984D01*
X229303045Y-50573297D01*
X229261335Y-50565000D01*
X228978665Y-50565000D01*
X228701426Y-50620147D01*
X228440273Y-50728320D01*
X228205241Y-50885363D01*
X228005363Y-51085241D01*
X227850000Y-51317759D01*
X227694637Y-51085241D01*
X227494759Y-50885363D01*
X227259727Y-50728320D01*
X226998574Y-50620147D01*
X226721335Y-50565000D01*
X226438665Y-50565000D01*
X226161426Y-50620147D01*
X225900273Y-50728320D01*
X225665241Y-50885363D01*
X225465363Y-51085241D01*
X225310000Y-51317759D01*
X225154637Y-51085241D01*
X224954759Y-50885363D01*
X224719727Y-50728320D01*
X224458574Y-50620147D01*
X224181335Y-50565000D01*
X224009802Y-50565000D01*
X224314802Y-50260000D01*
X225462678Y-50260000D01*
X225500000Y-50263676D01*
X225537322Y-50260000D01*
X225537333Y-50260000D01*
X225648986Y-50249003D01*
X225792247Y-50205546D01*
X225924276Y-50134974D01*
X226040001Y-50040001D01*
X226063803Y-50010998D01*
X226942802Y-49132001D01*
X227460677Y-49132001D01*
X227497999Y-49135677D01*
X227535321Y-49132001D01*
X227535332Y-49132001D01*
X227646985Y-49121004D01*
X227790246Y-49077547D01*
X227922275Y-49006975D01*
X228038000Y-48912002D01*
X228061803Y-48882999D01*
X228233592Y-48711209D01*
X228453740Y-48755000D01*
X228746260Y-48755000D01*
X229033158Y-48697932D01*
X229277999Y-48596516D01*
X229278000Y-50340667D01*
G37*
X229278000Y-50340667D02*
X229274323Y-50377999D01*
X229278000Y-50415332D01*
X229286886Y-50505546D01*
X229288997Y-50526984D01*
X229303045Y-50573297D01*
X229261335Y-50565000D01*
X228978665Y-50565000D01*
X228701426Y-50620147D01*
X228440273Y-50728320D01*
X228205241Y-50885363D01*
X228005363Y-51085241D01*
X227850000Y-51317759D01*
X227694637Y-51085241D01*
X227494759Y-50885363D01*
X227259727Y-50728320D01*
X226998574Y-50620147D01*
X226721335Y-50565000D01*
X226438665Y-50565000D01*
X226161426Y-50620147D01*
X225900273Y-50728320D01*
X225665241Y-50885363D01*
X225465363Y-51085241D01*
X225310000Y-51317759D01*
X225154637Y-51085241D01*
X224954759Y-50885363D01*
X224719727Y-50728320D01*
X224458574Y-50620147D01*
X224181335Y-50565000D01*
X224009802Y-50565000D01*
X224314802Y-50260000D01*
X225462678Y-50260000D01*
X225500000Y-50263676D01*
X225537322Y-50260000D01*
X225537333Y-50260000D01*
X225648986Y-50249003D01*
X225792247Y-50205546D01*
X225924276Y-50134974D01*
X226040001Y-50040001D01*
X226063803Y-50010998D01*
X226942802Y-49132001D01*
X227460677Y-49132001D01*
X227497999Y-49135677D01*
X227535321Y-49132001D01*
X227535332Y-49132001D01*
X227646985Y-49121004D01*
X227790246Y-49077547D01*
X227922275Y-49006975D01*
X228038000Y-48912002D01*
X228061803Y-48882999D01*
X228233592Y-48711209D01*
X228453740Y-48755000D01*
X228746260Y-48755000D01*
X229033158Y-48697932D01*
X229277999Y-48596516D01*
X229278000Y-50340667D01*
G36*
X185273740Y-48755000D02*
G01*
X185400199Y-48755000D01*
X184715199Y-49440000D01*
X184324801Y-49440000D01*
X185053592Y-48711210D01*
X185273740Y-48755000D01*
G37*
X185273740Y-48755000D02*
X185400199Y-48755000D01*
X184715199Y-49440000D01*
X184324801Y-49440000D01*
X185053592Y-48711210D01*
X185273740Y-48755000D01*
G36*
X213487000Y-47143000D02*
G01*
X213507000Y-47143000D01*
X213507000Y-47397000D01*
X213487000Y-47397000D01*
X213487000Y-47417000D01*
X213233000Y-47417000D01*
X213233000Y-47397000D01*
X213213000Y-47397000D01*
X213213000Y-47143000D01*
X213233000Y-47143000D01*
X213233000Y-47123000D01*
X213487000Y-47123000D01*
X213487000Y-47143000D01*
G37*
X213487000Y-47143000D02*
X213507000Y-47143000D01*
X213507000Y-47397000D01*
X213487000Y-47397000D01*
X213487000Y-47417000D01*
X213233000Y-47417000D01*
X213233000Y-47397000D01*
X213213000Y-47397000D01*
X213213000Y-47143000D01*
X213233000Y-47143000D01*
X213233000Y-47123000D01*
X213487000Y-47123000D01*
X213487000Y-47143000D01*
G36*
X191886525Y-45676632D02*
G01*
X192093368Y-45883475D01*
X192269406Y-46001100D01*
X192039731Y-46172412D01*
X191844822Y-46388645D01*
X191775195Y-46505534D01*
X191653475Y-46323368D01*
X191446632Y-46116525D01*
X191272240Y-46000000D01*
X191446632Y-45883475D01*
X191653475Y-45676632D01*
X191770000Y-45502240D01*
X191886525Y-45676632D01*
G37*
X191886525Y-45676632D02*
X192093368Y-45883475D01*
X192269406Y-46001100D01*
X192039731Y-46172412D01*
X191844822Y-46388645D01*
X191775195Y-46505534D01*
X191653475Y-46323368D01*
X191446632Y-46116525D01*
X191272240Y-46000000D01*
X191446632Y-45883475D01*
X191653475Y-45676632D01*
X191770000Y-45502240D01*
X191886525Y-45676632D01*
G36*
X222324822Y-45611355D02*
G01*
X222519731Y-45827588D01*
X222749406Y-45998900D01*
X222573368Y-46116525D01*
X222366525Y-46323368D01*
X222250000Y-46497760D01*
X222133475Y-46323368D01*
X221926632Y-46116525D01*
X221752240Y-46000000D01*
X221926632Y-45883475D01*
X222133475Y-45676632D01*
X222255195Y-45494466D01*
X222324822Y-45611355D01*
G37*
X222324822Y-45611355D02*
X222519731Y-45827588D01*
X222749406Y-45998900D01*
X222573368Y-46116525D01*
X222366525Y-46323368D01*
X222250000Y-46497760D01*
X222133475Y-46323368D01*
X221926632Y-46116525D01*
X221752240Y-46000000D01*
X221926632Y-45883475D01*
X222133475Y-45676632D01*
X222255195Y-45494466D01*
X222324822Y-45611355D01*
G36*
X189346525Y-45676632D02*
G01*
X189553368Y-45883475D01*
X189727760Y-46000000D01*
X189553368Y-46116525D01*
X189346525Y-46323368D01*
X189230000Y-46497760D01*
X189113475Y-46323368D01*
X188906632Y-46116525D01*
X188730594Y-45998900D01*
X188960269Y-45827588D01*
X189155178Y-45611355D01*
X189224805Y-45494466D01*
X189346525Y-45676632D01*
G37*
X189346525Y-45676632D02*
X189553368Y-45883475D01*
X189727760Y-46000000D01*
X189553368Y-46116525D01*
X189346525Y-46323368D01*
X189230000Y-46497760D01*
X189113475Y-46323368D01*
X188906632Y-46116525D01*
X188730594Y-45998900D01*
X188960269Y-45827588D01*
X189155178Y-45611355D01*
X189224805Y-45494466D01*
X189346525Y-45676632D01*
G36*
X186764822Y-45611355D02*
G01*
X186959731Y-45827588D01*
X187189406Y-45998900D01*
X187013368Y-46116525D01*
X186806525Y-46323368D01*
X186690000Y-46497760D01*
X186573475Y-46323368D01*
X186366632Y-46116525D01*
X186192240Y-46000000D01*
X186366632Y-45883475D01*
X186573475Y-45676632D01*
X186695195Y-45494466D01*
X186764822Y-45611355D01*
G37*
X186764822Y-45611355D02*
X186959731Y-45827588D01*
X187189406Y-45998900D01*
X187013368Y-46116525D01*
X186806525Y-46323368D01*
X186690000Y-46497760D01*
X186573475Y-46323368D01*
X186366632Y-46116525D01*
X186192240Y-46000000D01*
X186366632Y-45883475D01*
X186573475Y-45676632D01*
X186695195Y-45494466D01*
X186764822Y-45611355D01*
G36*
X224906525Y-45676632D02*
G01*
X225113368Y-45883475D01*
X225287760Y-46000000D01*
X225113368Y-46116525D01*
X224906525Y-46323368D01*
X224790000Y-46497760D01*
X224673475Y-46323368D01*
X224466632Y-46116525D01*
X224290594Y-45998900D01*
X224520269Y-45827588D01*
X224715178Y-45611355D01*
X224784805Y-45494466D01*
X224906525Y-45676632D01*
G37*
X224906525Y-45676632D02*
X225113368Y-45883475D01*
X225287760Y-46000000D01*
X225113368Y-46116525D01*
X224906525Y-46323368D01*
X224790000Y-46497760D01*
X224673475Y-46323368D01*
X224466632Y-46116525D01*
X224290594Y-45998900D01*
X224520269Y-45827588D01*
X224715178Y-45611355D01*
X224784805Y-45494466D01*
X224906525Y-45676632D01*
G36*
X217244822Y-45611355D02*
G01*
X217439731Y-45827588D01*
X217669406Y-45998900D01*
X217493368Y-46116525D01*
X217286525Y-46323368D01*
X217170000Y-46497760D01*
X217053475Y-46323368D01*
X216846632Y-46116525D01*
X216672240Y-46000000D01*
X216846632Y-45883475D01*
X217053475Y-45676632D01*
X217175195Y-45494466D01*
X217244822Y-45611355D01*
G37*
X217244822Y-45611355D02*
X217439731Y-45827588D01*
X217669406Y-45998900D01*
X217493368Y-46116525D01*
X217286525Y-46323368D01*
X217170000Y-46497760D01*
X217053475Y-46323368D01*
X216846632Y-46116525D01*
X216672240Y-46000000D01*
X216846632Y-45883475D01*
X217053475Y-45676632D01*
X217175195Y-45494466D01*
X217244822Y-45611355D01*
G36*
X219826525Y-45676632D02*
G01*
X220033368Y-45883475D01*
X220207760Y-46000000D01*
X220033368Y-46116525D01*
X219826525Y-46323368D01*
X219710000Y-46497760D01*
X219593475Y-46323368D01*
X219386632Y-46116525D01*
X219210594Y-45998900D01*
X219440269Y-45827588D01*
X219635178Y-45611355D01*
X219704805Y-45494466D01*
X219826525Y-45676632D01*
G37*
X219826525Y-45676632D02*
X220033368Y-45883475D01*
X220207760Y-46000000D01*
X220033368Y-46116525D01*
X219826525Y-46323368D01*
X219710000Y-46497760D01*
X219593475Y-46323368D01*
X219386632Y-46116525D01*
X219210594Y-45998900D01*
X219440269Y-45827588D01*
X219635178Y-45611355D01*
X219704805Y-45494466D01*
X219826525Y-45676632D01*
G36*
X214746525Y-45676632D02*
G01*
X214953368Y-45883475D01*
X215127760Y-46000000D01*
X214953368Y-46116525D01*
X214932828Y-46137065D01*
X214492935Y-45697172D01*
X214513475Y-45676632D01*
X214630000Y-45502240D01*
X214746525Y-45676632D01*
G37*
X214746525Y-45676632D02*
X214953368Y-45883475D01*
X215127760Y-46000000D01*
X214953368Y-46116525D01*
X214932828Y-46137065D01*
X214492935Y-45697172D01*
X214513475Y-45676632D01*
X214630000Y-45502240D01*
X214746525Y-45676632D01*
G36*
X223647000Y-44603000D02*
G01*
X223667000Y-44603000D01*
X223667000Y-44857000D01*
X223647000Y-44857000D01*
X223647000Y-44877000D01*
X223393000Y-44877000D01*
X223393000Y-44857000D01*
X223373000Y-44857000D01*
X223373000Y-44603000D01*
X223393000Y-44603000D01*
X223393000Y-44583000D01*
X223647000Y-44583000D01*
X223647000Y-44603000D01*
G37*
X223647000Y-44603000D02*
X223667000Y-44603000D01*
X223667000Y-44857000D01*
X223647000Y-44857000D01*
X223647000Y-44877000D01*
X223393000Y-44877000D01*
X223393000Y-44857000D01*
X223373000Y-44857000D01*
X223373000Y-44603000D01*
X223393000Y-44603000D01*
X223393000Y-44583000D01*
X223647000Y-44583000D01*
X223647000Y-44603000D01*
G36*
X218567000Y-44603000D02*
G01*
X218587000Y-44603000D01*
X218587000Y-44857000D01*
X218567000Y-44857000D01*
X218567000Y-44877000D01*
X218313000Y-44877000D01*
X218313000Y-44857000D01*
X218293000Y-44857000D01*
X218293000Y-44603000D01*
X218313000Y-44603000D01*
X218313000Y-44583000D01*
X218567000Y-44583000D01*
X218567000Y-44603000D01*
G37*
X218567000Y-44603000D02*
X218587000Y-44603000D01*
X218587000Y-44857000D01*
X218567000Y-44857000D01*
X218567000Y-44877000D01*
X218313000Y-44877000D01*
X218313000Y-44857000D01*
X218293000Y-44857000D01*
X218293000Y-44603000D01*
X218313000Y-44603000D01*
X218313000Y-44583000D01*
X218567000Y-44583000D01*
X218567000Y-44603000D01*
G36*
X205867000Y-44603000D02*
G01*
X205887000Y-44603000D01*
X205887000Y-44857000D01*
X205867000Y-44857000D01*
X205867000Y-44877000D01*
X205613000Y-44877000D01*
X205613000Y-44857000D01*
X205593000Y-44857000D01*
X205593000Y-44603000D01*
X205613000Y-44603000D01*
X205613000Y-44583000D01*
X205867000Y-44583000D01*
X205867000Y-44603000D01*
G37*
X205867000Y-44603000D02*
X205887000Y-44603000D01*
X205887000Y-44857000D01*
X205867000Y-44857000D01*
X205867000Y-44877000D01*
X205613000Y-44877000D01*
X205613000Y-44857000D01*
X205593000Y-44857000D01*
X205593000Y-44603000D01*
X205613000Y-44603000D01*
X205613000Y-44583000D01*
X205867000Y-44583000D01*
X205867000Y-44603000D01*
G36*
X198247000Y-44603000D02*
G01*
X198267000Y-44603000D01*
X198267000Y-44857000D01*
X198247000Y-44857000D01*
X198247000Y-44877000D01*
X197993000Y-44877000D01*
X197993000Y-44857000D01*
X197973000Y-44857000D01*
X197973000Y-44603000D01*
X197993000Y-44603000D01*
X197993000Y-44583000D01*
X198247000Y-44583000D01*
X198247000Y-44603000D01*
G37*
X198247000Y-44603000D02*
X198267000Y-44603000D01*
X198267000Y-44857000D01*
X198247000Y-44857000D01*
X198247000Y-44877000D01*
X197993000Y-44877000D01*
X197993000Y-44857000D01*
X197973000Y-44857000D01*
X197973000Y-44603000D01*
X197993000Y-44603000D01*
X197993000Y-44583000D01*
X198247000Y-44583000D01*
X198247000Y-44603000D01*
%TD*%
M02*
