M48
; DRILL file {KiCad (5.1.9-16-g1737927814)-1} date 07/29/21 14:55:13
; FORMAT={-:-/ absolute / inch / decimal}
; #@! TF.CreationDate,2021-07-29T14:55:13-05:00
; #@! TF.GenerationSoftware,Kicad,Pcbnew,(5.1.9-16-g1737927814)-1
; #@! TF.FileFunction,Plated,1,2,PTH
FMAT,2
INCH
T1C0.0197
T2C0.0394
T3C0.0406
T4C0.1063
T5C0.1272
%
G90
G05
T1
X3.2195Y0.2677
X3.2195Y-0.6378
X3.2195Y-1.6614
X3.2428Y0.3241
X3.2428Y0.2113
X3.2428Y-0.5814
X3.2428Y-0.6942
X3.2428Y-1.605
X3.2428Y-1.7178
X3.2992Y0.3474
X3.2992Y0.188
X3.2992Y-0.5581
X3.2992Y-0.7175
X3.2992Y-1.5817
X3.2992Y-1.7411
X3.3556Y0.3241
X3.3556Y0.2113
X3.3556Y-0.5814
X3.3556Y-0.6942
X3.3556Y-1.605
X3.3556Y-1.7178
X3.3789Y0.2677
X3.3789Y-0.6378
X3.3789Y-1.6614
X5.503Y0.2677
X5.503Y-0.6378
X5.503Y-1.6614
X5.5263Y0.3241
X5.5263Y0.2113
X5.5263Y-0.5814
X5.5263Y-0.6942
X5.5263Y-1.605
X5.5263Y-1.7178
X5.5827Y0.3474
X5.5827Y0.188
X5.5827Y-0.5581
X5.5827Y-0.7175
X5.5827Y-1.5817
X5.5827Y-1.7411
X5.6391Y0.3241
X5.6391Y0.2113
X5.6391Y-0.5814
X5.6391Y-0.6942
X5.6391Y-1.605
X5.6391Y-1.7178
X5.6624Y0.2677
X5.6624Y-0.6378
X5.6624Y-1.6614
T2
X3.2388Y-1.0888
X3.2388Y-1.1888
X3.2433Y0.0898
X3.2504Y-0.8098
X3.2504Y-0.9098
X3.2996Y-0.0323
X3.2996Y-0.1323
X3.2996Y-0.2323
X3.2996Y-0.3323
X3.2996Y-0.4323
X3.3388Y-1.0888
X3.3388Y-1.1888
X3.3433Y0.0898
X3.3504Y-0.8098
X3.3504Y-0.9098
X3.4388Y-1.0888
X3.4388Y-1.1888
X3.4504Y-0.8098
X3.4504Y-0.9098
X3.4909Y0.3177
X3.4909Y0.2177
X3.5388Y-1.0888
X3.5388Y-1.1888
X3.5909Y0.3177
X3.5909Y0.2177
X3.6388Y-1.0888
X3.6388Y-1.1888
X3.6909Y0.3177
X3.6909Y0.2177
X3.7388Y-1.0888
X3.7388Y-1.1888
X3.7909Y0.3177
X3.7909Y0.2177
X3.8388Y-1.0888
X3.8388Y-1.1888
X3.8909Y0.3177
X3.8909Y0.2177
X3.9388Y-1.0888
X3.9388Y-1.1888
X3.9909Y0.3177
X3.9909Y0.2177
X4.0388Y-1.0888
X4.0388Y-1.1888
X4.0909Y0.3177
X4.0909Y0.2177
X4.1388Y-1.0888
X4.1388Y-1.1888
X4.1909Y0.3177
X4.1909Y0.2177
X4.2388Y-1.0888
X4.2388Y-1.1888
X4.2909Y0.3177
X4.2909Y0.2177
X4.3388Y-1.0888
X4.3388Y-1.1888
X4.3909Y0.3177
X4.3909Y0.2177
X4.4388Y-1.0888
X4.4388Y-1.1888
X4.4909Y0.3177
X4.4909Y0.2177
X4.5388Y-1.0888
X4.5388Y-1.1888
X4.5909Y0.3177
X4.5909Y0.2177
X4.6388Y-1.0888
X4.6388Y-1.1888
X4.6909Y0.3177
X4.6909Y0.2177
X4.7388Y-1.0888
X4.7388Y-1.1888
X4.7909Y0.3177
X4.7909Y0.2177
X4.8388Y-1.0888
X4.8388Y-1.1888
X4.8909Y0.3177
X4.8909Y0.2177
X4.9388Y-1.0888
X4.9388Y-1.1888
X4.9909Y0.3177
X4.9909Y0.2177
X5.0388Y-1.0888
X5.0388Y-1.1888
X5.0909Y0.3177
X5.0909Y0.2177
X5.1388Y-1.0888
X5.1388Y-1.1888
X5.1909Y0.3177
X5.1909Y0.2177
X5.2388Y-1.0888
X5.2388Y-1.1888
X5.2909Y0.3177
X5.2909Y0.2177
X5.3388Y-1.0888
X5.3388Y-1.1888
X5.3909Y0.3177
X5.3909Y0.2177
X5.4388Y-1.0888
X5.4388Y-1.1888
X5.4813Y0.0337
X5.4813Y-0.0663
X5.5388Y-1.0888
X5.5388Y-1.1888
X5.6388Y-1.0888
X5.6388Y-1.1888
T3
X3.7867Y-1.3713
X3.8412Y-1.4831
X3.8957Y-1.3713
X3.9503Y-1.4831
X4.0048Y-1.3713
X4.0593Y-1.4831
X4.1138Y-1.3713
X4.1684Y-1.4831
X4.2229Y-1.3713
X4.2774Y-1.4831
X4.332Y-1.3713
X4.3865Y-1.4831
X4.441Y-1.3713
X4.4955Y-1.4831
X4.5501Y-1.3713
X4.6046Y-1.4831
X4.6591Y-1.3713
X4.7136Y-1.4831
X4.7682Y-1.3713
X4.8227Y-1.4831
X4.8772Y-1.3713
X4.9318Y-1.4831
X4.9863Y-1.3713
X5.0408Y-1.4831
X5.0953Y-1.3713
T4
X3.2992Y0.2677
X3.2992Y-0.6378
X3.2992Y-1.6614
X5.5827Y0.2677
X5.5827Y-0.6378
X5.5827Y-1.6614
T5
X3.515Y-1.4272
X5.367Y-1.4272
T0
M30
