%TF.GenerationSoftware,KiCad,Pcbnew,(5.1.9-16-g1737927814)-1*%
%TF.CreationDate,2021-07-29T14:55:12-05:00*%
%TF.ProjectId,rascsi_2p3,72617363-7369-45f3-9270-332e6b696361,rev?*%
%TF.SameCoordinates,PX59d60c0PY325aa00*%
%TF.FileFunction,Copper,L2,Bot*%
%TF.FilePolarity,Positive*%
%FSLAX46Y46*%
G04 Gerber Fmt 4.6, Leading zero omitted, Abs format (unit mm)*
G04 Created by KiCad (PCBNEW (5.1.9-16-g1737927814)-1) date 2021-07-29 14:55:12*
%MOMM*%
%LPD*%
G01*
G04 APERTURE LIST*
%TA.AperFunction,NonConductor*%
%ADD10C,0.150000*%
%TD*%
%TA.AperFunction,NonConductor*%
%ADD11C,0.400000*%
%TD*%
%TA.AperFunction,NonConductor*%
%ADD12C,0.120000*%
%TD*%
%TA.AperFunction,Profile*%
%ADD13C,0.050000*%
%TD*%
%TA.AperFunction,ComponentPad*%
%ADD14C,4.845000*%
%TD*%
%TA.AperFunction,ComponentPad*%
%ADD15C,1.545000*%
%TD*%
%TA.AperFunction,ComponentPad*%
%ADD16O,1.700000X1.700000*%
%TD*%
%TA.AperFunction,ComponentPad*%
%ADD17R,1.700000X1.700000*%
%TD*%
%TA.AperFunction,ComponentPad*%
%ADD18C,0.800000*%
%TD*%
%TA.AperFunction,ComponentPad*%
%ADD19C,5.400000*%
%TD*%
G04 APERTURE END LIST*
D10*
X132939142Y-43172380D02*
X132367714Y-43172380D01*
X132653428Y-44172380D02*
X132653428Y-43172380D01*
X131653428Y-44124761D02*
X131748666Y-44172380D01*
X131939142Y-44172380D01*
X132034380Y-44124761D01*
X132082000Y-44029523D01*
X132082000Y-43648571D01*
X132034380Y-43553333D01*
X131939142Y-43505714D01*
X131748666Y-43505714D01*
X131653428Y-43553333D01*
X131605809Y-43648571D01*
X131605809Y-43743809D01*
X132082000Y-43839047D01*
X131224857Y-44124761D02*
X131129619Y-44172380D01*
X130939142Y-44172380D01*
X130843904Y-44124761D01*
X130796285Y-44029523D01*
X130796285Y-43981904D01*
X130843904Y-43886666D01*
X130939142Y-43839047D01*
X131082000Y-43839047D01*
X131177238Y-43791428D01*
X131224857Y-43696190D01*
X131224857Y-43648571D01*
X131177238Y-43553333D01*
X131082000Y-43505714D01*
X130939142Y-43505714D01*
X130843904Y-43553333D01*
X130510571Y-43505714D02*
X130129619Y-43505714D01*
X130367714Y-43172380D02*
X130367714Y-44029523D01*
X130320095Y-44124761D01*
X130224857Y-44172380D01*
X130129619Y-44172380D01*
X128748666Y-43172380D02*
X128748666Y-43886666D01*
X128796285Y-44029523D01*
X128891523Y-44124761D01*
X129034380Y-44172380D01*
X129129619Y-44172380D01*
X128272476Y-44172380D02*
X128272476Y-43505714D01*
X128272476Y-43172380D02*
X128320095Y-43220000D01*
X128272476Y-43267619D01*
X128224857Y-43220000D01*
X128272476Y-43172380D01*
X128272476Y-43267619D01*
X127367714Y-43505714D02*
X127367714Y-44315238D01*
X127415333Y-44410476D01*
X127462952Y-44458095D01*
X127558190Y-44505714D01*
X127701047Y-44505714D01*
X127796285Y-44458095D01*
X127367714Y-44124761D02*
X127462952Y-44172380D01*
X127653428Y-44172380D01*
X127748666Y-44124761D01*
X127796285Y-44077142D01*
X127843904Y-43981904D01*
X127843904Y-43696190D01*
X127796285Y-43600952D01*
X127748666Y-43553333D01*
X127653428Y-43505714D01*
X127462952Y-43505714D01*
X127367714Y-43553333D01*
D11*
X133956761Y-42719761D02*
X134504380Y-41767380D01*
X135099619Y-42719761D02*
X134849619Y-40719761D01*
X134087714Y-40719761D01*
X133909142Y-40815000D01*
X133825809Y-40910238D01*
X133754380Y-41100714D01*
X133790095Y-41386428D01*
X133909142Y-41576904D01*
X134016285Y-41672142D01*
X134218666Y-41767380D01*
X134980571Y-41767380D01*
X132242476Y-42719761D02*
X132111523Y-41672142D01*
X132182952Y-41481666D01*
X132361523Y-41386428D01*
X132742476Y-41386428D01*
X132944857Y-41481666D01*
X132230571Y-42624523D02*
X132432952Y-42719761D01*
X132909142Y-42719761D01*
X133087714Y-42624523D01*
X133159142Y-42434047D01*
X133135333Y-42243571D01*
X133016285Y-42053095D01*
X132813904Y-41957857D01*
X132337714Y-41957857D01*
X132135333Y-41862619D01*
X131373428Y-42624523D02*
X131099619Y-42719761D01*
X130623428Y-42719761D01*
X130421047Y-42624523D01*
X130313904Y-42529285D01*
X130194857Y-42338809D01*
X130171047Y-42148333D01*
X130242476Y-41957857D01*
X130325809Y-41862619D01*
X130504380Y-41767380D01*
X130873428Y-41672142D01*
X131052000Y-41576904D01*
X131135333Y-41481666D01*
X131206761Y-41291190D01*
X131182952Y-41100714D01*
X131063904Y-40910238D01*
X130956761Y-40815000D01*
X130754380Y-40719761D01*
X130278190Y-40719761D01*
X130004380Y-40815000D01*
X128218666Y-42529285D02*
X128325809Y-42624523D01*
X128623428Y-42719761D01*
X128813904Y-42719761D01*
X129087714Y-42624523D01*
X129254380Y-42434047D01*
X129325809Y-42243571D01*
X129373428Y-41862619D01*
X129337714Y-41576904D01*
X129194857Y-41195952D01*
X129075809Y-41005476D01*
X128861523Y-40815000D01*
X128563904Y-40719761D01*
X128373428Y-40719761D01*
X128099619Y-40815000D01*
X128016285Y-40910238D01*
X127468666Y-42624523D02*
X127194857Y-42719761D01*
X126718666Y-42719761D01*
X126516285Y-42624523D01*
X126409142Y-42529285D01*
X126290095Y-42338809D01*
X126266285Y-42148333D01*
X126337714Y-41957857D01*
X126421047Y-41862619D01*
X126599619Y-41767380D01*
X126968666Y-41672142D01*
X127147238Y-41576904D01*
X127230571Y-41481666D01*
X127302000Y-41291190D01*
X127278190Y-41100714D01*
X127159142Y-40910238D01*
X127052000Y-40815000D01*
X126849619Y-40719761D01*
X126373428Y-40719761D01*
X126099619Y-40815000D01*
X125480571Y-42719761D02*
X125230571Y-40719761D01*
D12*
X121994000Y-40342000D02*
X137996000Y-40342000D01*
X121930500Y-44660000D02*
X121930500Y-40405500D01*
X137996000Y-40342000D02*
X137996000Y-44660000D01*
X137996000Y-44660000D02*
X121930500Y-44660000D01*
X121422500Y-39961000D02*
X121422500Y-45041000D01*
X138440500Y-45041000D02*
X121422500Y-45041000D01*
X138377000Y-39961000D02*
X121422500Y-39961000D01*
X138440500Y-45041000D02*
X138440500Y-39961000D01*
D10*
X81478571Y-32403333D02*
X81526190Y-32546190D01*
X81573809Y-32593809D01*
X81669047Y-32641428D01*
X81811904Y-32641428D01*
X81907142Y-32593809D01*
X81954761Y-32546190D01*
X82002380Y-32450952D01*
X82002380Y-32070000D01*
X81002380Y-32070000D01*
X81002380Y-32403333D01*
X81050000Y-32498571D01*
X81097619Y-32546190D01*
X81192857Y-32593809D01*
X81288095Y-32593809D01*
X81383333Y-32546190D01*
X81430952Y-32498571D01*
X81478571Y-32403333D01*
X81478571Y-32070000D01*
X81716666Y-33022380D02*
X81716666Y-33498571D01*
X82002380Y-32927142D02*
X81002380Y-33260476D01*
X82002380Y-33593809D01*
X82002380Y-33927142D02*
X81002380Y-33927142D01*
X81002380Y-34165238D01*
X81050000Y-34308095D01*
X81145238Y-34403333D01*
X81240476Y-34450952D01*
X81430952Y-34498571D01*
X81573809Y-34498571D01*
X81764285Y-34450952D01*
X81859523Y-34403333D01*
X81954761Y-34308095D01*
X82002380Y-34165238D01*
X82002380Y-33927142D01*
X81002380Y-35593809D02*
X82002380Y-35831904D01*
X81288095Y-36022380D01*
X82002380Y-36212857D01*
X81002380Y-36450952D01*
X81002380Y-37022380D02*
X81002380Y-37212857D01*
X81050000Y-37308095D01*
X81145238Y-37403333D01*
X81335714Y-37450952D01*
X81669047Y-37450952D01*
X81859523Y-37403333D01*
X81954761Y-37308095D01*
X82002380Y-37212857D01*
X82002380Y-37022380D01*
X81954761Y-36927142D01*
X81859523Y-36831904D01*
X81669047Y-36784285D01*
X81335714Y-36784285D01*
X81145238Y-36831904D01*
X81050000Y-36927142D01*
X81002380Y-37022380D01*
X82002380Y-38355714D02*
X82002380Y-37879523D01*
X81002380Y-37879523D01*
X81478571Y-39022380D02*
X81478571Y-38689047D01*
X82002380Y-38689047D02*
X81002380Y-38689047D01*
X81002380Y-39165238D01*
D13*
X83800000Y-45696000D02*
X141800000Y-45696000D01*
X83800000Y-45696000D02*
G75*
G02*
X80300000Y-42196000I0J3500000D01*
G01*
X145300000Y-42196000D02*
G75*
G02*
X141800000Y-45696000I-3500000J0D01*
G01*
X80300000Y6800000D02*
X80300000Y-42196000D01*
X145300000Y6800000D02*
X145300000Y-42196000D01*
X83800000Y10300000D02*
X141800000Y10300000D01*
X80300000Y6800000D02*
G75*
G02*
X83800000Y10300000I3500000J0D01*
G01*
X141800000Y10300000D02*
G75*
G02*
X145300000Y6800000I0J-3500000D01*
G01*
D14*
%TO.P,J6,MH2*%
%TO.N,N/C*%
X89281600Y-36250000D03*
%TO.P,J6,MH1*%
X136321600Y-36250000D03*
D15*
%TO.P,J6,25*%
X97566600Y-37670000D03*
%TO.P,J6,24*%
X100336600Y-37670000D03*
%TO.P,J6,23*%
X103106600Y-37670000D03*
%TO.P,J6,22*%
X105876600Y-37670000D03*
%TO.P,J6,21*%
X108646600Y-37670000D03*
%TO.P,J6,20*%
X111416600Y-37670000D03*
%TO.P,J6,19*%
X114186600Y-37670000D03*
%TO.P,J6,18*%
X116956600Y-37670000D03*
%TO.P,J6,17*%
X119726600Y-37670000D03*
%TO.P,J6,16*%
X122496600Y-37670000D03*
%TO.P,J6,15*%
X125266600Y-37670000D03*
%TO.P,J6,14*%
X128036600Y-37670000D03*
%TO.P,J6,13*%
X96181600Y-34830000D03*
%TO.P,J6,12*%
X98951600Y-34830000D03*
%TO.P,J6,11*%
X101721600Y-34830000D03*
%TO.P,J6,10*%
X104491600Y-34830000D03*
%TO.P,J6,9*%
X107261600Y-34830000D03*
%TO.P,J6,8*%
X110031600Y-34830000D03*
%TO.P,J6,7*%
X112801600Y-34830000D03*
%TO.P,J6,6*%
X115571600Y-34830000D03*
%TO.P,J6,5*%
X118341600Y-34830000D03*
%TO.P,J6,4*%
X121111600Y-34830000D03*
%TO.P,J6,3*%
X123881600Y-34830000D03*
%TO.P,J6,2*%
X126651600Y-34830000D03*
%TO.P,J6,1*%
X129421600Y-34830000D03*
%TD*%
D16*
%TO.P,J2,2*%
%TO.N,N/C*%
X139226000Y857000D03*
D17*
%TO.P,J2,1*%
X139226000Y-1683000D03*
%TD*%
D16*
%TO.P,J7,2*%
%TO.N,N/C*%
X84920000Y2280000D03*
D17*
%TO.P,J7,1*%
X82380000Y2280000D03*
%TD*%
D16*
%TO.P,J5,6*%
%TO.N,N/C*%
X82560000Y-23110000D03*
%TO.P,J5,5*%
X82560000Y-20570000D03*
%TO.P,J5,4*%
X85100000Y-23110000D03*
%TO.P,J5,3*%
X85100000Y-20570000D03*
%TO.P,J5,2*%
X87640000Y-23110000D03*
D17*
%TO.P,J5,1*%
X87640000Y-20570000D03*
%TD*%
D16*
%TO.P,J3,50*%
%TO.N,N/C*%
X143226500Y-27654500D03*
%TO.P,J3,49*%
X143226500Y-30194500D03*
%TO.P,J3,48*%
X140686500Y-27654500D03*
%TO.P,J3,47*%
X140686500Y-30194500D03*
%TO.P,J3,46*%
X138146500Y-27654500D03*
%TO.P,J3,45*%
X138146500Y-30194500D03*
%TO.P,J3,44*%
X135606500Y-27654500D03*
%TO.P,J3,43*%
X135606500Y-30194500D03*
%TO.P,J3,42*%
X133066500Y-27654500D03*
%TO.P,J3,41*%
X133066500Y-30194500D03*
%TO.P,J3,40*%
X130526500Y-27654500D03*
%TO.P,J3,39*%
X130526500Y-30194500D03*
%TO.P,J3,38*%
X127986500Y-27654500D03*
%TO.P,J3,37*%
X127986500Y-30194500D03*
%TO.P,J3,36*%
X125446500Y-27654500D03*
%TO.P,J3,35*%
X125446500Y-30194500D03*
%TO.P,J3,34*%
X122906500Y-27654500D03*
%TO.P,J3,33*%
X122906500Y-30194500D03*
%TO.P,J3,32*%
X120366500Y-27654500D03*
%TO.P,J3,31*%
X120366500Y-30194500D03*
%TO.P,J3,30*%
X117826500Y-27654500D03*
%TO.P,J3,29*%
X117826500Y-30194500D03*
%TO.P,J3,28*%
X115286500Y-27654500D03*
%TO.P,J3,27*%
X115286500Y-30194500D03*
%TO.P,J3,26*%
X112746500Y-27654500D03*
%TO.P,J3,25*%
X112746500Y-30194500D03*
%TO.P,J3,24*%
X110206500Y-27654500D03*
%TO.P,J3,23*%
X110206500Y-30194500D03*
%TO.P,J3,22*%
X107666500Y-27654500D03*
%TO.P,J3,21*%
X107666500Y-30194500D03*
%TO.P,J3,20*%
X105126500Y-27654500D03*
%TO.P,J3,19*%
X105126500Y-30194500D03*
%TO.P,J3,18*%
X102586500Y-27654500D03*
%TO.P,J3,17*%
X102586500Y-30194500D03*
%TO.P,J3,16*%
X100046500Y-27654500D03*
%TO.P,J3,15*%
X100046500Y-30194500D03*
%TO.P,J3,14*%
X97506500Y-27654500D03*
%TO.P,J3,13*%
X97506500Y-30194500D03*
%TO.P,J3,12*%
X94966500Y-27654500D03*
%TO.P,J3,11*%
X94966500Y-30194500D03*
%TO.P,J3,10*%
X92426500Y-27654500D03*
%TO.P,J3,9*%
X92426500Y-30194500D03*
%TO.P,J3,8*%
X89886500Y-27654500D03*
%TO.P,J3,7*%
X89886500Y-30194500D03*
%TO.P,J3,6*%
X87346500Y-27654500D03*
%TO.P,J3,5*%
X87346500Y-30194500D03*
%TO.P,J3,4*%
X84806500Y-27654500D03*
%TO.P,J3,3*%
X84806500Y-30194500D03*
%TO.P,J3,2*%
X82266500Y-27654500D03*
D17*
%TO.P,J3,1*%
X82266500Y-30194500D03*
%TD*%
D16*
%TO.P,J1,40*%
%TO.N,N/C*%
X136930000Y8070000D03*
%TO.P,J1,39*%
X136930000Y5530000D03*
%TO.P,J1,38*%
X134390000Y8070000D03*
%TO.P,J1,37*%
X134390000Y5530000D03*
%TO.P,J1,36*%
X131850000Y8070000D03*
%TO.P,J1,35*%
X131850000Y5530000D03*
%TO.P,J1,34*%
X129310000Y8070000D03*
%TO.P,J1,33*%
X129310000Y5530000D03*
%TO.P,J1,32*%
X126770000Y8070000D03*
%TO.P,J1,31*%
X126770000Y5530000D03*
%TO.P,J1,30*%
X124230000Y8070000D03*
%TO.P,J1,29*%
X124230000Y5530000D03*
%TO.P,J1,28*%
X121690000Y8070000D03*
%TO.P,J1,27*%
X121690000Y5530000D03*
%TO.P,J1,26*%
X119150000Y8070000D03*
%TO.P,J1,25*%
X119150000Y5530000D03*
%TO.P,J1,24*%
X116610000Y8070000D03*
%TO.P,J1,23*%
X116610000Y5530000D03*
%TO.P,J1,22*%
X114070000Y8070000D03*
%TO.P,J1,21*%
X114070000Y5530000D03*
%TO.P,J1,20*%
X111530000Y8070000D03*
%TO.P,J1,19*%
X111530000Y5530000D03*
%TO.P,J1,18*%
X108990000Y8070000D03*
%TO.P,J1,17*%
X108990000Y5530000D03*
%TO.P,J1,16*%
X106450000Y8070000D03*
%TO.P,J1,15*%
X106450000Y5530000D03*
%TO.P,J1,14*%
X103910000Y8070000D03*
%TO.P,J1,13*%
X103910000Y5530000D03*
%TO.P,J1,12*%
X101370000Y8070000D03*
%TO.P,J1,11*%
X101370000Y5530000D03*
%TO.P,J1,10*%
X98830000Y8070000D03*
%TO.P,J1,9*%
X98830000Y5530000D03*
%TO.P,J1,8*%
X96290000Y8070000D03*
%TO.P,J1,7*%
X96290000Y5530000D03*
%TO.P,J1,6*%
X93750000Y8070000D03*
%TO.P,J1,5*%
X93750000Y5530000D03*
%TO.P,J1,4*%
X91210000Y8070000D03*
%TO.P,J1,3*%
X91210000Y5530000D03*
%TO.P,J1,2*%
X88670000Y8070000D03*
D17*
%TO.P,J1,1*%
X88670000Y5530000D03*
%TD*%
D18*
%TO.P,H2,1*%
%TO.N,Net-(H2-Pad1)*%
X143231891Y8231891D03*
X141800000Y8825000D03*
X140368109Y8231891D03*
X139775000Y6800000D03*
X140368109Y5368109D03*
X141800000Y4775000D03*
X143231891Y5368109D03*
X143825000Y6800000D03*
D19*
X141800000Y6800000D03*
%TD*%
D18*
%TO.P,H1,1*%
%TO.N,Net-(H1-Pad1)*%
X85231891Y8231891D03*
X83800000Y8825000D03*
X82368109Y8231891D03*
X81775000Y6800000D03*
X82368109Y5368109D03*
X83800000Y4775000D03*
X85231891Y5368109D03*
X85825000Y6800000D03*
D19*
X83800000Y6800000D03*
%TD*%
D16*
%TO.P,J4,5*%
%TO.N,N/C*%
X83810000Y-820000D03*
%TO.P,J4,4*%
X83810000Y-3360000D03*
%TO.P,J4,3*%
X83810000Y-5900000D03*
%TO.P,J4,2*%
X83810000Y-8440000D03*
D17*
%TO.P,J4,1*%
X83810000Y-10980000D03*
%TD*%
D18*
%TO.P,H6,1*%
%TO.N,Net-(H6-Pad1)*%
X143231891Y-40768109D03*
X141800000Y-40175000D03*
X140368109Y-40768109D03*
X139775000Y-42200000D03*
X140368109Y-43631891D03*
X141800000Y-44225000D03*
X143231891Y-43631891D03*
X143825000Y-42200000D03*
D19*
X141800000Y-42200000D03*
%TD*%
D18*
%TO.P,H5,1*%
%TO.N,Net-(H5-Pad1)*%
X85231891Y-40768109D03*
X83800000Y-40175000D03*
X82368109Y-40768109D03*
X81775000Y-42200000D03*
X82368109Y-43631891D03*
X83800000Y-44225000D03*
X85231891Y-43631891D03*
X85825000Y-42200000D03*
D19*
X83800000Y-42200000D03*
%TD*%
D18*
%TO.P,H4,1*%
%TO.N,Net-(H4-Pad1)*%
X143231891Y-14768109D03*
X141800000Y-14175000D03*
X140368109Y-14768109D03*
X139775000Y-16200000D03*
X140368109Y-17631891D03*
X141800000Y-18225000D03*
X143231891Y-17631891D03*
X143825000Y-16200000D03*
D19*
X141800000Y-16200000D03*
%TD*%
D18*
%TO.P,H3,1*%
%TO.N,Net-(H3-Pad1)*%
X85231891Y-14768109D03*
X83800000Y-14175000D03*
X82368109Y-14768109D03*
X81775000Y-16200000D03*
X82368109Y-17631891D03*
X83800000Y-18225000D03*
X85231891Y-17631891D03*
X85825000Y-16200000D03*
D19*
X83800000Y-16200000D03*
%TD*%
M02*
