%TF.GenerationSoftware,KiCad,Pcbnew,(5.1.9-16-g1737927814)-1*%
%TF.CreationDate,2021-07-29T14:55:12-05:00*%
%TF.ProjectId,rascsi_2p3,72617363-7369-45f3-9270-332e6b696361,rev?*%
%TF.SameCoordinates,PX59d60c0PY325aa00*%
%TF.FileFunction,Copper,L1,Top*%
%TF.FilePolarity,Positive*%
%FSLAX46Y46*%
G04 Gerber Fmt 4.6, Leading zero omitted, Abs format (unit mm)*
G04 Created by KiCad (PCBNEW (5.1.9-16-g1737927814)-1) date 2021-07-29 14:55:12*
%MOMM*%
%LPD*%
G01*
G04 APERTURE LIST*
%TA.AperFunction,Profile*%
%ADD10C,0.050000*%
%TD*%
%TA.AperFunction,ComponentPad*%
%ADD11C,4.845000*%
%TD*%
%TA.AperFunction,ComponentPad*%
%ADD12C,1.545000*%
%TD*%
%TA.AperFunction,ComponentPad*%
%ADD13O,1.700000X1.700000*%
%TD*%
%TA.AperFunction,ComponentPad*%
%ADD14R,1.700000X1.700000*%
%TD*%
%TA.AperFunction,ComponentPad*%
%ADD15C,0.800000*%
%TD*%
%TA.AperFunction,ComponentPad*%
%ADD16C,5.400000*%
%TD*%
G04 APERTURE END LIST*
D10*
X83800000Y-45696000D02*
X141800000Y-45696000D01*
X83800000Y-45696000D02*
G75*
G02*
X80300000Y-42196000I0J3500000D01*
G01*
X145300000Y-42196000D02*
G75*
G02*
X141800000Y-45696000I-3500000J0D01*
G01*
X80300000Y6800000D02*
X80300000Y-42196000D01*
X145300000Y6800000D02*
X145300000Y-42196000D01*
X83800000Y10300000D02*
X141800000Y10300000D01*
X80300000Y6800000D02*
G75*
G02*
X83800000Y10300000I3500000J0D01*
G01*
X141800000Y10300000D02*
G75*
G02*
X145300000Y6800000I0J-3500000D01*
G01*
D11*
%TO.P,J6,MH2*%
%TO.N,N/C*%
X89281600Y-36250000D03*
%TO.P,J6,MH1*%
X136321600Y-36250000D03*
D12*
%TO.P,J6,25*%
X97566600Y-37670000D03*
%TO.P,J6,24*%
X100336600Y-37670000D03*
%TO.P,J6,23*%
X103106600Y-37670000D03*
%TO.P,J6,22*%
X105876600Y-37670000D03*
%TO.P,J6,21*%
X108646600Y-37670000D03*
%TO.P,J6,20*%
X111416600Y-37670000D03*
%TO.P,J6,19*%
X114186600Y-37670000D03*
%TO.P,J6,18*%
X116956600Y-37670000D03*
%TO.P,J6,17*%
X119726600Y-37670000D03*
%TO.P,J6,16*%
X122496600Y-37670000D03*
%TO.P,J6,15*%
X125266600Y-37670000D03*
%TO.P,J6,14*%
X128036600Y-37670000D03*
%TO.P,J6,13*%
X96181600Y-34830000D03*
%TO.P,J6,12*%
X98951600Y-34830000D03*
%TO.P,J6,11*%
X101721600Y-34830000D03*
%TO.P,J6,10*%
X104491600Y-34830000D03*
%TO.P,J6,9*%
X107261600Y-34830000D03*
%TO.P,J6,8*%
X110031600Y-34830000D03*
%TO.P,J6,7*%
X112801600Y-34830000D03*
%TO.P,J6,6*%
X115571600Y-34830000D03*
%TO.P,J6,5*%
X118341600Y-34830000D03*
%TO.P,J6,4*%
X121111600Y-34830000D03*
%TO.P,J6,3*%
X123881600Y-34830000D03*
%TO.P,J6,2*%
X126651600Y-34830000D03*
%TO.P,J6,1*%
X129421600Y-34830000D03*
%TD*%
D13*
%TO.P,J2,2*%
%TO.N,N/C*%
X139226000Y857000D03*
D14*
%TO.P,J2,1*%
X139226000Y-1683000D03*
%TD*%
D13*
%TO.P,J7,2*%
%TO.N,N/C*%
X84920000Y2280000D03*
D14*
%TO.P,J7,1*%
X82380000Y2280000D03*
%TD*%
D13*
%TO.P,J5,6*%
%TO.N,N/C*%
X82560000Y-23110000D03*
%TO.P,J5,5*%
X82560000Y-20570000D03*
%TO.P,J5,4*%
X85100000Y-23110000D03*
%TO.P,J5,3*%
X85100000Y-20570000D03*
%TO.P,J5,2*%
X87640000Y-23110000D03*
D14*
%TO.P,J5,1*%
X87640000Y-20570000D03*
%TD*%
D13*
%TO.P,J3,50*%
%TO.N,N/C*%
X143226500Y-27654500D03*
%TO.P,J3,49*%
X143226500Y-30194500D03*
%TO.P,J3,48*%
X140686500Y-27654500D03*
%TO.P,J3,47*%
X140686500Y-30194500D03*
%TO.P,J3,46*%
X138146500Y-27654500D03*
%TO.P,J3,45*%
X138146500Y-30194500D03*
%TO.P,J3,44*%
X135606500Y-27654500D03*
%TO.P,J3,43*%
X135606500Y-30194500D03*
%TO.P,J3,42*%
X133066500Y-27654500D03*
%TO.P,J3,41*%
X133066500Y-30194500D03*
%TO.P,J3,40*%
X130526500Y-27654500D03*
%TO.P,J3,39*%
X130526500Y-30194500D03*
%TO.P,J3,38*%
X127986500Y-27654500D03*
%TO.P,J3,37*%
X127986500Y-30194500D03*
%TO.P,J3,36*%
X125446500Y-27654500D03*
%TO.P,J3,35*%
X125446500Y-30194500D03*
%TO.P,J3,34*%
X122906500Y-27654500D03*
%TO.P,J3,33*%
X122906500Y-30194500D03*
%TO.P,J3,32*%
X120366500Y-27654500D03*
%TO.P,J3,31*%
X120366500Y-30194500D03*
%TO.P,J3,30*%
X117826500Y-27654500D03*
%TO.P,J3,29*%
X117826500Y-30194500D03*
%TO.P,J3,28*%
X115286500Y-27654500D03*
%TO.P,J3,27*%
X115286500Y-30194500D03*
%TO.P,J3,26*%
X112746500Y-27654500D03*
%TO.P,J3,25*%
X112746500Y-30194500D03*
%TO.P,J3,24*%
X110206500Y-27654500D03*
%TO.P,J3,23*%
X110206500Y-30194500D03*
%TO.P,J3,22*%
X107666500Y-27654500D03*
%TO.P,J3,21*%
X107666500Y-30194500D03*
%TO.P,J3,20*%
X105126500Y-27654500D03*
%TO.P,J3,19*%
X105126500Y-30194500D03*
%TO.P,J3,18*%
X102586500Y-27654500D03*
%TO.P,J3,17*%
X102586500Y-30194500D03*
%TO.P,J3,16*%
X100046500Y-27654500D03*
%TO.P,J3,15*%
X100046500Y-30194500D03*
%TO.P,J3,14*%
X97506500Y-27654500D03*
%TO.P,J3,13*%
X97506500Y-30194500D03*
%TO.P,J3,12*%
X94966500Y-27654500D03*
%TO.P,J3,11*%
X94966500Y-30194500D03*
%TO.P,J3,10*%
X92426500Y-27654500D03*
%TO.P,J3,9*%
X92426500Y-30194500D03*
%TO.P,J3,8*%
X89886500Y-27654500D03*
%TO.P,J3,7*%
X89886500Y-30194500D03*
%TO.P,J3,6*%
X87346500Y-27654500D03*
%TO.P,J3,5*%
X87346500Y-30194500D03*
%TO.P,J3,4*%
X84806500Y-27654500D03*
%TO.P,J3,3*%
X84806500Y-30194500D03*
%TO.P,J3,2*%
X82266500Y-27654500D03*
D14*
%TO.P,J3,1*%
X82266500Y-30194500D03*
%TD*%
D13*
%TO.P,J1,40*%
%TO.N,N/C*%
X136930000Y8070000D03*
%TO.P,J1,39*%
X136930000Y5530000D03*
%TO.P,J1,38*%
X134390000Y8070000D03*
%TO.P,J1,37*%
X134390000Y5530000D03*
%TO.P,J1,36*%
X131850000Y8070000D03*
%TO.P,J1,35*%
X131850000Y5530000D03*
%TO.P,J1,34*%
X129310000Y8070000D03*
%TO.P,J1,33*%
X129310000Y5530000D03*
%TO.P,J1,32*%
X126770000Y8070000D03*
%TO.P,J1,31*%
X126770000Y5530000D03*
%TO.P,J1,30*%
X124230000Y8070000D03*
%TO.P,J1,29*%
X124230000Y5530000D03*
%TO.P,J1,28*%
X121690000Y8070000D03*
%TO.P,J1,27*%
X121690000Y5530000D03*
%TO.P,J1,26*%
X119150000Y8070000D03*
%TO.P,J1,25*%
X119150000Y5530000D03*
%TO.P,J1,24*%
X116610000Y8070000D03*
%TO.P,J1,23*%
X116610000Y5530000D03*
%TO.P,J1,22*%
X114070000Y8070000D03*
%TO.P,J1,21*%
X114070000Y5530000D03*
%TO.P,J1,20*%
X111530000Y8070000D03*
%TO.P,J1,19*%
X111530000Y5530000D03*
%TO.P,J1,18*%
X108990000Y8070000D03*
%TO.P,J1,17*%
X108990000Y5530000D03*
%TO.P,J1,16*%
X106450000Y8070000D03*
%TO.P,J1,15*%
X106450000Y5530000D03*
%TO.P,J1,14*%
X103910000Y8070000D03*
%TO.P,J1,13*%
X103910000Y5530000D03*
%TO.P,J1,12*%
X101370000Y8070000D03*
%TO.P,J1,11*%
X101370000Y5530000D03*
%TO.P,J1,10*%
X98830000Y8070000D03*
%TO.P,J1,9*%
X98830000Y5530000D03*
%TO.P,J1,8*%
X96290000Y8070000D03*
%TO.P,J1,7*%
X96290000Y5530000D03*
%TO.P,J1,6*%
X93750000Y8070000D03*
%TO.P,J1,5*%
X93750000Y5530000D03*
%TO.P,J1,4*%
X91210000Y8070000D03*
%TO.P,J1,3*%
X91210000Y5530000D03*
%TO.P,J1,2*%
X88670000Y8070000D03*
D14*
%TO.P,J1,1*%
X88670000Y5530000D03*
%TD*%
D15*
%TO.P,H2,1*%
%TO.N,Net-(H2-Pad1)*%
X143231891Y8231891D03*
X141800000Y8825000D03*
X140368109Y8231891D03*
X139775000Y6800000D03*
X140368109Y5368109D03*
X141800000Y4775000D03*
X143231891Y5368109D03*
X143825000Y6800000D03*
D16*
X141800000Y6800000D03*
%TD*%
D15*
%TO.P,H1,1*%
%TO.N,Net-(H1-Pad1)*%
X85231891Y8231891D03*
X83800000Y8825000D03*
X82368109Y8231891D03*
X81775000Y6800000D03*
X82368109Y5368109D03*
X83800000Y4775000D03*
X85231891Y5368109D03*
X85825000Y6800000D03*
D16*
X83800000Y6800000D03*
%TD*%
D13*
%TO.P,J4,5*%
%TO.N,N/C*%
X83810000Y-820000D03*
%TO.P,J4,4*%
X83810000Y-3360000D03*
%TO.P,J4,3*%
X83810000Y-5900000D03*
%TO.P,J4,2*%
X83810000Y-8440000D03*
D14*
%TO.P,J4,1*%
X83810000Y-10980000D03*
%TD*%
D15*
%TO.P,H6,1*%
%TO.N,Net-(H6-Pad1)*%
X143231891Y-40768109D03*
X141800000Y-40175000D03*
X140368109Y-40768109D03*
X139775000Y-42200000D03*
X140368109Y-43631891D03*
X141800000Y-44225000D03*
X143231891Y-43631891D03*
X143825000Y-42200000D03*
D16*
X141800000Y-42200000D03*
%TD*%
D15*
%TO.P,H5,1*%
%TO.N,Net-(H5-Pad1)*%
X85231891Y-40768109D03*
X83800000Y-40175000D03*
X82368109Y-40768109D03*
X81775000Y-42200000D03*
X82368109Y-43631891D03*
X83800000Y-44225000D03*
X85231891Y-43631891D03*
X85825000Y-42200000D03*
D16*
X83800000Y-42200000D03*
%TD*%
D15*
%TO.P,H4,1*%
%TO.N,Net-(H4-Pad1)*%
X143231891Y-14768109D03*
X141800000Y-14175000D03*
X140368109Y-14768109D03*
X139775000Y-16200000D03*
X140368109Y-17631891D03*
X141800000Y-18225000D03*
X143231891Y-17631891D03*
X143825000Y-16200000D03*
D16*
X141800000Y-16200000D03*
%TD*%
D15*
%TO.P,H3,1*%
%TO.N,Net-(H3-Pad1)*%
X85231891Y-14768109D03*
X83800000Y-14175000D03*
X82368109Y-14768109D03*
X81775000Y-16200000D03*
X82368109Y-17631891D03*
X83800000Y-18225000D03*
X85231891Y-17631891D03*
X85825000Y-16200000D03*
D16*
X83800000Y-16200000D03*
%TD*%
M02*
