%TF.GenerationSoftware,KiCad,Pcbnew,(5.1.9-16-g1737927814)-1*%
%TF.CreationDate,2021-11-14T21:42:26-06:00*%
%TF.ProjectId,rascsi_zero,72617363-7369-45f7-9a65-726f2e6b6963,rev?*%
%TF.SameCoordinates,PX59d60c0PY325aa00*%
%TF.FileFunction,Soldermask,Bot*%
%TF.FilePolarity,Negative*%
%FSLAX46Y46*%
G04 Gerber Fmt 4.6, Leading zero omitted, Abs format (unit mm)*
G04 Created by KiCad (PCBNEW (5.1.9-16-g1737927814)-1) date 2021-11-14 21:42:26*
%MOMM*%
%LPD*%
G01*
G04 APERTURE LIST*
%TA.AperFunction,Profile*%
%ADD10C,0.050000*%
%TD*%
%ADD11C,1.000000*%
%ADD12C,2.000000*%
%ADD13C,5.400000*%
%ADD14O,1.700000X1.700000*%
%ADD15R,1.700000X1.700000*%
%ADD16C,4.845000*%
%ADD17C,1.545000*%
%ADD18R,0.650000X1.950000*%
G04 APERTURE END LIST*
D10*
X83800000Y-19700000D02*
X141800000Y-19700000D01*
X83800000Y-19700000D02*
G75*
G02*
X80300000Y-16200000I0J3500000D01*
G01*
X145300000Y-16200000D02*
G75*
G02*
X141800000Y-19700000I-3500000J0D01*
G01*
X80300000Y6800000D02*
X80300000Y-16200000D01*
X145300000Y6800000D02*
X145300000Y-16200000D01*
X83800000Y10300000D02*
X141800000Y10300000D01*
X80300000Y6800000D02*
G75*
G02*
X83800000Y10300000I3500000J0D01*
G01*
X141800000Y10300000D02*
G75*
G02*
X145300000Y6800000I0J-3500000D01*
G01*
D11*
%TO.C,TP3*%
X143510000Y-1125000D03*
%TD*%
%TO.C,TP2*%
X141660000Y-2200000D03*
%TD*%
%TO.C,TP1*%
X143510000Y-3225000D03*
%TD*%
D12*
%TO.C,J3*%
X139950000Y-5775000D03*
X139950000Y1375000D03*
X143400000Y1375000D03*
X143400000Y-5775000D03*
%TD*%
D13*
%TO.C,H4*%
X141800000Y-16200000D03*
%TD*%
%TO.C,H3*%
X83800000Y-16200000D03*
%TD*%
%TO.C,H2*%
X141800000Y6800000D03*
%TD*%
%TO.C,H1*%
X83800000Y6800000D03*
%TD*%
D14*
%TO.C,J2*%
X140836000Y-9192000D03*
D15*
X140836000Y-11732000D03*
%TD*%
D14*
%TO.C,J1*%
X136930000Y8070000D03*
X136930000Y5530000D03*
X134390000Y8070000D03*
X134390000Y5530000D03*
X131850000Y8070000D03*
X131850000Y5530000D03*
X129310000Y8070000D03*
X129310000Y5530000D03*
X126770000Y8070000D03*
X126770000Y5530000D03*
X124230000Y8070000D03*
X124230000Y5530000D03*
X121690000Y8070000D03*
X121690000Y5530000D03*
X119150000Y8070000D03*
X119150000Y5530000D03*
X116610000Y8070000D03*
X116610000Y5530000D03*
X114070000Y8070000D03*
X114070000Y5530000D03*
X111530000Y8070000D03*
X111530000Y5530000D03*
X108990000Y8070000D03*
X108990000Y5530000D03*
X106450000Y8070000D03*
X106450000Y5530000D03*
X103910000Y8070000D03*
X103910000Y5530000D03*
X101370000Y8070000D03*
X101370000Y5530000D03*
X98830000Y8070000D03*
X98830000Y5530000D03*
X96290000Y8070000D03*
X96290000Y5530000D03*
X93750000Y8070000D03*
X93750000Y5530000D03*
X91210000Y8070000D03*
X91210000Y5530000D03*
X88670000Y8070000D03*
D15*
X88670000Y5530000D03*
%TD*%
D16*
%TO.C,J6*%
X89286320Y-14371200D03*
X136326320Y-14371200D03*
D17*
X97571320Y-15791200D03*
X100341320Y-15791200D03*
X103111320Y-15791200D03*
X105881320Y-15791200D03*
X108651320Y-15791200D03*
X111421320Y-15791200D03*
X114191320Y-15791200D03*
X116961320Y-15791200D03*
X119731320Y-15791200D03*
X122501320Y-15791200D03*
X125271320Y-15791200D03*
X128041320Y-15791200D03*
X96186320Y-12951200D03*
X98956320Y-12951200D03*
X101726320Y-12951200D03*
X104496320Y-12951200D03*
X107266320Y-12951200D03*
X110036320Y-12951200D03*
X112806320Y-12951200D03*
X115576320Y-12951200D03*
X118346320Y-12951200D03*
X121116320Y-12951200D03*
X123886320Y-12951200D03*
X126656320Y-12951200D03*
X129426320Y-12951200D03*
%TD*%
D18*
%TO.C,IC3*%
X99956880Y-9638880D03*
X101226880Y-9638880D03*
X102496880Y-9638880D03*
X103766880Y-9638880D03*
X105036880Y-9638880D03*
X106306880Y-9638880D03*
X107576880Y-9638880D03*
X108846880Y-9638880D03*
X110116880Y-9638880D03*
X111386880Y-9638880D03*
X111386880Y-188880D03*
X110116880Y-188880D03*
X108846880Y-188880D03*
X107576880Y-188880D03*
X106306880Y-188880D03*
X105036880Y-188880D03*
X103766880Y-188880D03*
X102496880Y-188880D03*
X101226880Y-188880D03*
X99956880Y-188880D03*
%TD*%
%TO.C,IC4*%
X87002880Y-9638880D03*
X88272880Y-9638880D03*
X89542880Y-9638880D03*
X90812880Y-9638880D03*
X92082880Y-9638880D03*
X93352880Y-9638880D03*
X94622880Y-9638880D03*
X95892880Y-9638880D03*
X97162880Y-9638880D03*
X98432880Y-9638880D03*
X98432880Y-188880D03*
X97162880Y-188880D03*
X95892880Y-188880D03*
X94622880Y-188880D03*
X93352880Y-188880D03*
X92082880Y-188880D03*
X90812880Y-188880D03*
X89542880Y-188880D03*
X88272880Y-188880D03*
X87002880Y-188880D03*
%TD*%
%TO.C,IC2*%
X137294880Y-188880D03*
X136024880Y-188880D03*
X134754880Y-188880D03*
X133484880Y-188880D03*
X132214880Y-188880D03*
X130944880Y-188880D03*
X129674880Y-188880D03*
X128404880Y-188880D03*
X127134880Y-188880D03*
X125864880Y-188880D03*
X125864880Y-9638880D03*
X127134880Y-9638880D03*
X128404880Y-9638880D03*
X129674880Y-9638880D03*
X130944880Y-9638880D03*
X132214880Y-9638880D03*
X133484880Y-9638880D03*
X134754880Y-9638880D03*
X136024880Y-9638880D03*
X137294880Y-9638880D03*
%TD*%
%TO.C,IC1*%
X124340880Y-188880D03*
X123070880Y-188880D03*
X121800880Y-188880D03*
X120530880Y-188880D03*
X119260880Y-188880D03*
X117990880Y-188880D03*
X116720880Y-188880D03*
X115450880Y-188880D03*
X114180880Y-188880D03*
X112910880Y-188880D03*
X112910880Y-9638880D03*
X114180880Y-9638880D03*
X115450880Y-9638880D03*
X116720880Y-9638880D03*
X117990880Y-9638880D03*
X119260880Y-9638880D03*
X120530880Y-9638880D03*
X121800880Y-9638880D03*
X123070880Y-9638880D03*
X124340880Y-9638880D03*
%TD*%
D14*
%TO.C,J7*%
X84920000Y2280000D03*
D15*
X82380000Y2280000D03*
%TD*%
D14*
%TO.C,J4*%
X83810000Y-820000D03*
X83810000Y-3360000D03*
X83810000Y-5900000D03*
X83810000Y-8440000D03*
D15*
X83810000Y-10980000D03*
%TD*%
M02*
