%TF.GenerationSoftware,KiCad,Pcbnew,(5.1.9-16-g1737927814)-1*%
%TF.CreationDate,2021-11-14T21:42:26-06:00*%
%TF.ProjectId,rascsi_zero,72617363-7369-45f7-9a65-726f2e6b6963,rev?*%
%TF.SameCoordinates,PX59d60c0PY325aa00*%
%TF.FileFunction,Legend,Bot*%
%TF.FilePolarity,Positive*%
%FSLAX46Y46*%
G04 Gerber Fmt 4.6, Leading zero omitted, Abs format (unit mm)*
G04 Created by KiCad (PCBNEW (5.1.9-16-g1737927814)-1) date 2021-11-14 21:42:26*
%MOMM*%
%LPD*%
G01*
G04 APERTURE LIST*
%ADD10C,0.150000*%
%ADD11C,0.120000*%
%ADD12C,0.375000*%
%TA.AperFunction,Profile*%
%ADD13C,0.050000*%
%TD*%
%ADD14C,0.100000*%
%ADD15C,0.200000*%
%ADD16C,0.010000*%
%ADD17C,0.254000*%
G04 APERTURE END LIST*
D10*
X124302095Y-14833904D02*
X124302095Y-14033904D01*
X123349714Y-13995809D02*
X124035428Y-15024380D01*
X122930666Y-14033904D02*
X122778285Y-14033904D01*
X122702095Y-14072000D01*
X122625904Y-14148190D01*
X122587809Y-14300571D01*
X122587809Y-14567238D01*
X122625904Y-14719619D01*
X122702095Y-14795809D01*
X122778285Y-14833904D01*
X122930666Y-14833904D01*
X123006857Y-14795809D01*
X123083047Y-14719619D01*
X123121142Y-14567238D01*
X123121142Y-14300571D01*
X123083047Y-14148190D01*
X123006857Y-14072000D01*
X122930666Y-14033904D01*
X121403095Y-14833904D02*
X121669761Y-14452952D01*
X121860238Y-14833904D02*
X121860238Y-14033904D01*
X121555476Y-14033904D01*
X121479285Y-14072000D01*
X121441190Y-14110095D01*
X121403095Y-14186285D01*
X121403095Y-14300571D01*
X121441190Y-14376761D01*
X121479285Y-14414857D01*
X121555476Y-14452952D01*
X121860238Y-14452952D01*
X121098333Y-14795809D02*
X120984047Y-14833904D01*
X120793571Y-14833904D01*
X120717380Y-14795809D01*
X120679285Y-14757714D01*
X120641190Y-14681523D01*
X120641190Y-14605333D01*
X120679285Y-14529142D01*
X120717380Y-14491047D01*
X120793571Y-14452952D01*
X120945952Y-14414857D01*
X121022142Y-14376761D01*
X121060238Y-14338666D01*
X121098333Y-14262476D01*
X121098333Y-14186285D01*
X121060238Y-14110095D01*
X121022142Y-14072000D01*
X120945952Y-14033904D01*
X120755476Y-14033904D01*
X120641190Y-14072000D01*
X120412619Y-14033904D02*
X119955476Y-14033904D01*
X120184047Y-14833904D02*
X120184047Y-14033904D01*
X114980285Y-17589809D02*
X114866000Y-17627904D01*
X114675523Y-17627904D01*
X114599333Y-17589809D01*
X114561238Y-17551714D01*
X114523142Y-17475523D01*
X114523142Y-17399333D01*
X114561238Y-17323142D01*
X114599333Y-17285047D01*
X114675523Y-17246952D01*
X114827904Y-17208857D01*
X114904095Y-17170761D01*
X114942190Y-17132666D01*
X114980285Y-17056476D01*
X114980285Y-16980285D01*
X114942190Y-16904095D01*
X114904095Y-16866000D01*
X114827904Y-16827904D01*
X114637428Y-16827904D01*
X114523142Y-16866000D01*
X114180285Y-17208857D02*
X113913619Y-17208857D01*
X113799333Y-17627904D02*
X114180285Y-17627904D01*
X114180285Y-16827904D01*
X113799333Y-16827904D01*
X113075523Y-17627904D02*
X113456476Y-17627904D01*
X113456476Y-16827904D01*
X110506476Y-14833904D02*
X110506476Y-14033904D01*
X110316000Y-14033904D01*
X110201714Y-14072000D01*
X110125523Y-14148190D01*
X110087428Y-14224380D01*
X110049333Y-14376761D01*
X110049333Y-14491047D01*
X110087428Y-14643428D01*
X110125523Y-14719619D01*
X110201714Y-14795809D01*
X110316000Y-14833904D01*
X110506476Y-14833904D01*
X109554095Y-14033904D02*
X109477904Y-14033904D01*
X109401714Y-14072000D01*
X109363619Y-14110095D01*
X109325523Y-14186285D01*
X109287428Y-14338666D01*
X109287428Y-14529142D01*
X109325523Y-14681523D01*
X109363619Y-14757714D01*
X109401714Y-14795809D01*
X109477904Y-14833904D01*
X109554095Y-14833904D01*
X109630285Y-14795809D01*
X109668380Y-14757714D01*
X109706476Y-14681523D01*
X109744571Y-14529142D01*
X109744571Y-14338666D01*
X109706476Y-14186285D01*
X109668380Y-14110095D01*
X109630285Y-14072000D01*
X109554095Y-14033904D01*
X102210476Y-14833904D02*
X102210476Y-14033904D01*
X102020000Y-14033904D01*
X101905714Y-14072000D01*
X101829523Y-14148190D01*
X101791428Y-14224380D01*
X101753333Y-14376761D01*
X101753333Y-14491047D01*
X101791428Y-14643428D01*
X101829523Y-14719619D01*
X101905714Y-14795809D01*
X102020000Y-14833904D01*
X102210476Y-14833904D01*
X101029523Y-14033904D02*
X101410476Y-14033904D01*
X101448571Y-14414857D01*
X101410476Y-14376761D01*
X101334285Y-14338666D01*
X101143809Y-14338666D01*
X101067619Y-14376761D01*
X101029523Y-14414857D01*
X100991428Y-14491047D01*
X100991428Y-14681523D01*
X101029523Y-14757714D01*
X101067619Y-14795809D01*
X101143809Y-14833904D01*
X101334285Y-14833904D01*
X101410476Y-14795809D01*
X101448571Y-14757714D01*
X116002666Y-14414857D02*
X115888380Y-14452952D01*
X115850285Y-14491047D01*
X115812190Y-14567238D01*
X115812190Y-14681523D01*
X115850285Y-14757714D01*
X115888380Y-14795809D01*
X115964571Y-14833904D01*
X116269333Y-14833904D01*
X116269333Y-14033904D01*
X116002666Y-14033904D01*
X115926476Y-14072000D01*
X115888380Y-14110095D01*
X115850285Y-14186285D01*
X115850285Y-14262476D01*
X115888380Y-14338666D01*
X115926476Y-14376761D01*
X116002666Y-14414857D01*
X116269333Y-14414857D01*
X115507428Y-14795809D02*
X115393142Y-14833904D01*
X115202666Y-14833904D01*
X115126476Y-14795809D01*
X115088380Y-14757714D01*
X115050285Y-14681523D01*
X115050285Y-14605333D01*
X115088380Y-14529142D01*
X115126476Y-14491047D01*
X115202666Y-14452952D01*
X115355047Y-14414857D01*
X115431238Y-14376761D01*
X115469333Y-14338666D01*
X115507428Y-14262476D01*
X115507428Y-14186285D01*
X115469333Y-14110095D01*
X115431238Y-14072000D01*
X115355047Y-14033904D01*
X115164571Y-14033904D01*
X115050285Y-14072000D01*
X114555047Y-14452952D02*
X114555047Y-14833904D01*
X114821714Y-14033904D02*
X114555047Y-14452952D01*
X114288380Y-14033904D01*
X99330476Y-14833904D02*
X99330476Y-14033904D01*
X99140000Y-14033904D01*
X99025714Y-14072000D01*
X98949523Y-14148190D01*
X98911428Y-14224380D01*
X98873333Y-14376761D01*
X98873333Y-14491047D01*
X98911428Y-14643428D01*
X98949523Y-14719619D01*
X99025714Y-14795809D01*
X99140000Y-14833904D01*
X99330476Y-14833904D01*
X98187619Y-14033904D02*
X98340000Y-14033904D01*
X98416190Y-14072000D01*
X98454285Y-14110095D01*
X98530476Y-14224380D01*
X98568571Y-14376761D01*
X98568571Y-14681523D01*
X98530476Y-14757714D01*
X98492380Y-14795809D01*
X98416190Y-14833904D01*
X98263809Y-14833904D01*
X98187619Y-14795809D01*
X98149523Y-14757714D01*
X98111428Y-14681523D01*
X98111428Y-14491047D01*
X98149523Y-14414857D01*
X98187619Y-14376761D01*
X98263809Y-14338666D01*
X98416190Y-14338666D01*
X98492380Y-14376761D01*
X98530476Y-14414857D01*
X98568571Y-14491047D01*
X109068476Y-17627904D02*
X109068476Y-16827904D01*
X108878000Y-16827904D01*
X108763714Y-16866000D01*
X108687523Y-16942190D01*
X108649428Y-17018380D01*
X108611333Y-17170761D01*
X108611333Y-17285047D01*
X108649428Y-17437428D01*
X108687523Y-17513619D01*
X108763714Y-17589809D01*
X108878000Y-17627904D01*
X109068476Y-17627904D01*
X107849428Y-17627904D02*
X108306571Y-17627904D01*
X108078000Y-17627904D02*
X108078000Y-16827904D01*
X108154190Y-16942190D01*
X108230380Y-17018380D01*
X108306571Y-17056476D01*
X103734476Y-17627904D02*
X103734476Y-16827904D01*
X103544000Y-16827904D01*
X103429714Y-16866000D01*
X103353523Y-16942190D01*
X103315428Y-17018380D01*
X103277333Y-17170761D01*
X103277333Y-17285047D01*
X103315428Y-17437428D01*
X103353523Y-17513619D01*
X103429714Y-17589809D01*
X103544000Y-17627904D01*
X103734476Y-17627904D01*
X102591619Y-17094571D02*
X102591619Y-17627904D01*
X102782095Y-16789809D02*
X102972571Y-17361238D01*
X102477333Y-17361238D01*
X106274476Y-17627904D02*
X106274476Y-16827904D01*
X106084000Y-16827904D01*
X105969714Y-16866000D01*
X105893523Y-16942190D01*
X105855428Y-17018380D01*
X105817333Y-17170761D01*
X105817333Y-17285047D01*
X105855428Y-17437428D01*
X105893523Y-17513619D01*
X105969714Y-17589809D01*
X106084000Y-17627904D01*
X106274476Y-17627904D01*
X105512571Y-16904095D02*
X105474476Y-16866000D01*
X105398285Y-16827904D01*
X105207809Y-16827904D01*
X105131619Y-16866000D01*
X105093523Y-16904095D01*
X105055428Y-16980285D01*
X105055428Y-17056476D01*
X105093523Y-17170761D01*
X105550666Y-17627904D01*
X105055428Y-17627904D01*
X127559619Y-14833904D02*
X127559619Y-14033904D01*
X127292952Y-14605333D01*
X127026285Y-14033904D01*
X127026285Y-14833904D01*
X126683428Y-14795809D02*
X126569142Y-14833904D01*
X126378666Y-14833904D01*
X126302476Y-14795809D01*
X126264380Y-14757714D01*
X126226285Y-14681523D01*
X126226285Y-14605333D01*
X126264380Y-14529142D01*
X126302476Y-14491047D01*
X126378666Y-14452952D01*
X126531047Y-14414857D01*
X126607238Y-14376761D01*
X126645333Y-14338666D01*
X126683428Y-14262476D01*
X126683428Y-14186285D01*
X126645333Y-14110095D01*
X126607238Y-14072000D01*
X126531047Y-14033904D01*
X126340571Y-14033904D01*
X126226285Y-14072000D01*
X125464380Y-14072000D02*
X125540571Y-14033904D01*
X125654857Y-14033904D01*
X125769142Y-14072000D01*
X125845333Y-14148190D01*
X125883428Y-14224380D01*
X125921523Y-14376761D01*
X125921523Y-14491047D01*
X125883428Y-14643428D01*
X125845333Y-14719619D01*
X125769142Y-14795809D01*
X125654857Y-14833904D01*
X125578666Y-14833904D01*
X125464380Y-14795809D01*
X125426285Y-14757714D01*
X125426285Y-14491047D01*
X125578666Y-14491047D01*
X99041714Y-16827904D02*
X98584571Y-16827904D01*
X98813142Y-17627904D02*
X98813142Y-16827904D01*
X98317904Y-17627904D02*
X98317904Y-16827904D01*
X98013142Y-16827904D01*
X97936952Y-16866000D01*
X97898857Y-16904095D01*
X97860761Y-16980285D01*
X97860761Y-17094571D01*
X97898857Y-17170761D01*
X97936952Y-17208857D01*
X98013142Y-17246952D01*
X98317904Y-17246952D01*
X97594095Y-16827904D02*
X97403619Y-17627904D01*
X97251238Y-17056476D01*
X97098857Y-17627904D01*
X96908380Y-16827904D01*
X96146476Y-17627904D02*
X96413142Y-17246952D01*
X96603619Y-17627904D02*
X96603619Y-16827904D01*
X96298857Y-16827904D01*
X96222666Y-16866000D01*
X96184571Y-16904095D01*
X96146476Y-16980285D01*
X96146476Y-17094571D01*
X96184571Y-17170761D01*
X96222666Y-17208857D01*
X96298857Y-17246952D01*
X96603619Y-17246952D01*
X105004476Y-14833904D02*
X105004476Y-14033904D01*
X104814000Y-14033904D01*
X104699714Y-14072000D01*
X104623523Y-14148190D01*
X104585428Y-14224380D01*
X104547333Y-14376761D01*
X104547333Y-14491047D01*
X104585428Y-14643428D01*
X104623523Y-14719619D01*
X104699714Y-14795809D01*
X104814000Y-14833904D01*
X105004476Y-14833904D01*
X104280666Y-14033904D02*
X103785428Y-14033904D01*
X104052095Y-14338666D01*
X103937809Y-14338666D01*
X103861619Y-14376761D01*
X103823523Y-14414857D01*
X103785428Y-14491047D01*
X103785428Y-14681523D01*
X103823523Y-14757714D01*
X103861619Y-14795809D01*
X103937809Y-14833904D01*
X104166380Y-14833904D01*
X104242571Y-14795809D01*
X104280666Y-14757714D01*
X125813428Y-17551714D02*
X125851523Y-17589809D01*
X125965809Y-17627904D01*
X126042000Y-17627904D01*
X126156285Y-17589809D01*
X126232476Y-17513619D01*
X126270571Y-17437428D01*
X126308666Y-17285047D01*
X126308666Y-17170761D01*
X126270571Y-17018380D01*
X126232476Y-16942190D01*
X126156285Y-16866000D01*
X126042000Y-16827904D01*
X125965809Y-16827904D01*
X125851523Y-16866000D01*
X125813428Y-16904095D01*
X124899142Y-16789809D02*
X125584857Y-17818380D01*
X124632476Y-17627904D02*
X124632476Y-16827904D01*
X124442000Y-16827904D01*
X124327714Y-16866000D01*
X124251523Y-16942190D01*
X124213428Y-17018380D01*
X124175333Y-17170761D01*
X124175333Y-17285047D01*
X124213428Y-17437428D01*
X124251523Y-17513619D01*
X124327714Y-17589809D01*
X124442000Y-17627904D01*
X124632476Y-17627904D01*
X119288476Y-14608429D02*
X118907523Y-14608429D01*
X119364666Y-14837000D02*
X119098000Y-14037000D01*
X118831333Y-14837000D01*
X118107523Y-14760810D02*
X118145619Y-14798905D01*
X118259904Y-14837000D01*
X118336095Y-14837000D01*
X118450380Y-14798905D01*
X118526571Y-14722715D01*
X118564666Y-14646524D01*
X118602761Y-14494143D01*
X118602761Y-14379857D01*
X118564666Y-14227476D01*
X118526571Y-14151286D01*
X118450380Y-14075096D01*
X118336095Y-14037000D01*
X118259904Y-14037000D01*
X118145619Y-14075096D01*
X118107523Y-14113191D01*
X117764666Y-14837000D02*
X117764666Y-14037000D01*
X117307523Y-14837000D02*
X117650380Y-14379857D01*
X117307523Y-14037000D02*
X117764666Y-14494143D01*
X120568285Y-17399333D02*
X120187333Y-17399333D01*
X120644476Y-17627904D02*
X120377809Y-16827904D01*
X120111142Y-17627904D01*
X119958761Y-16827904D02*
X119501619Y-16827904D01*
X119730190Y-17627904D02*
X119730190Y-16827904D01*
X119234952Y-17627904D02*
X119234952Y-16827904D01*
X118777809Y-17627904D01*
X118777809Y-16827904D01*
X111881523Y-17627904D02*
X111881523Y-16827904D01*
X111691047Y-16827904D01*
X111576761Y-16866000D01*
X111500571Y-16942190D01*
X111462476Y-17018380D01*
X111424380Y-17170761D01*
X111424380Y-17285047D01*
X111462476Y-17437428D01*
X111500571Y-17513619D01*
X111576761Y-17589809D01*
X111691047Y-17627904D01*
X111881523Y-17627904D01*
X111081523Y-17627904D02*
X111081523Y-16827904D01*
X110776761Y-16827904D01*
X110700571Y-16866000D01*
X110662476Y-16904095D01*
X110624380Y-16980285D01*
X110624380Y-17094571D01*
X110662476Y-17170761D01*
X110700571Y-17208857D01*
X110776761Y-17246952D01*
X111081523Y-17246952D01*
X96622476Y-14833904D02*
X96622476Y-14033904D01*
X96432000Y-14033904D01*
X96317714Y-14072000D01*
X96241523Y-14148190D01*
X96203428Y-14224380D01*
X96165333Y-14376761D01*
X96165333Y-14491047D01*
X96203428Y-14643428D01*
X96241523Y-14719619D01*
X96317714Y-14795809D01*
X96432000Y-14833904D01*
X96622476Y-14833904D01*
X95898666Y-14033904D02*
X95365333Y-14033904D01*
X95708190Y-14833904D01*
X130093333Y-14798904D02*
X130360000Y-14417952D01*
X130550476Y-14798904D02*
X130550476Y-13998904D01*
X130245714Y-13998904D01*
X130169523Y-14037000D01*
X130131428Y-14075095D01*
X130093333Y-14151285D01*
X130093333Y-14265571D01*
X130131428Y-14341761D01*
X130169523Y-14379857D01*
X130245714Y-14417952D01*
X130550476Y-14417952D01*
X129750476Y-14379857D02*
X129483809Y-14379857D01*
X129369523Y-14798904D02*
X129750476Y-14798904D01*
X129750476Y-13998904D01*
X129369523Y-13998904D01*
X128493333Y-14875095D02*
X128569523Y-14837000D01*
X128645714Y-14760809D01*
X128760000Y-14646523D01*
X128836190Y-14608428D01*
X128912380Y-14608428D01*
X128874285Y-14798904D02*
X128950476Y-14760809D01*
X129026666Y-14684619D01*
X129064761Y-14532238D01*
X129064761Y-14265571D01*
X129026666Y-14113190D01*
X128950476Y-14037000D01*
X128874285Y-13998904D01*
X128721904Y-13998904D01*
X128645714Y-14037000D01*
X128569523Y-14113190D01*
X128531428Y-14265571D01*
X128531428Y-14532238D01*
X128569523Y-14684619D01*
X128645714Y-14760809D01*
X128721904Y-14798904D01*
X128874285Y-14798904D01*
D11*
X82584000Y539500D02*
X82584000Y-9684000D01*
X85187500Y539500D02*
X82584000Y539500D01*
X85187500Y-9684000D02*
X85187500Y539500D01*
X82584000Y-9684000D02*
X85187500Y-9684000D01*
X81060000Y984000D02*
X81060000Y2317500D01*
X82393500Y984000D02*
X81060000Y984000D01*
X83600000Y3587500D02*
X83600000Y984000D01*
X86267000Y3587500D02*
X83600000Y3587500D01*
X86267000Y984000D02*
X86267000Y3587500D01*
X83663500Y984000D02*
X86267000Y984000D01*
D10*
X86612380Y2883334D02*
X87326666Y2883334D01*
X87469523Y2930953D01*
X87564761Y3026191D01*
X87612380Y3169048D01*
X87612380Y3264286D01*
X86612380Y2502381D02*
X86612380Y1835715D01*
X87612380Y2264286D01*
X86305333Y-11819380D02*
X86305333Y-12533666D01*
X86352952Y-12676523D01*
X86448190Y-12771761D01*
X86591047Y-12819380D01*
X86686285Y-12819380D01*
X85400571Y-12152714D02*
X85400571Y-12819380D01*
X85638666Y-11771761D02*
X85876761Y-12486047D01*
X85257714Y-12486047D01*
X120993333Y3747620D02*
X120993333Y3033334D01*
X121040952Y2890477D01*
X121136190Y2795239D01*
X121279047Y2747620D01*
X121374285Y2747620D01*
X119993333Y2747620D02*
X120564761Y2747620D01*
X120279047Y2747620D02*
X120279047Y3747620D01*
X120374285Y3604762D01*
X120469523Y3509524D01*
X120564761Y3461905D01*
X142137904Y-9390428D02*
X142471238Y-9390428D01*
X142614095Y-8866619D02*
X142137904Y-8866619D01*
X142137904Y-9866619D01*
X142614095Y-9866619D01*
X143042666Y-8866619D02*
X143042666Y-9866619D01*
X143614095Y-8866619D01*
X143614095Y-9866619D01*
X144423619Y-9390428D02*
X144566476Y-9342809D01*
X144614095Y-9295190D01*
X144661714Y-9199952D01*
X144661714Y-9057095D01*
X144614095Y-8961857D01*
X144566476Y-8914238D01*
X144471238Y-8866619D01*
X144090285Y-8866619D01*
X144090285Y-9866619D01*
X144423619Y-9866619D01*
X144518857Y-9819000D01*
X144566476Y-9771380D01*
X144614095Y-9676142D01*
X144614095Y-9580904D01*
X144566476Y-9485666D01*
X144518857Y-9438047D01*
X144423619Y-9390428D01*
X144090285Y-9390428D01*
X144495047Y-11771666D02*
X144018857Y-11771666D01*
X144590285Y-12057380D02*
X144256952Y-11057380D01*
X143923619Y-12057380D01*
X143018857Y-11962142D02*
X143066476Y-12009761D01*
X143209333Y-12057380D01*
X143304571Y-12057380D01*
X143447428Y-12009761D01*
X143542666Y-11914523D01*
X143590285Y-11819285D01*
X143637904Y-11628809D01*
X143637904Y-11485952D01*
X143590285Y-11295476D01*
X143542666Y-11200238D01*
X143447428Y-11105000D01*
X143304571Y-11057380D01*
X143209333Y-11057380D01*
X143066476Y-11105000D01*
X143018857Y-11152619D01*
X142733142Y-11057380D02*
X142161714Y-11057380D01*
X142447428Y-12057380D02*
X142447428Y-11057380D01*
X131243333Y-15852380D02*
X131243333Y-16566666D01*
X131290952Y-16709523D01*
X131386190Y-16804761D01*
X131529047Y-16852380D01*
X131624285Y-16852380D01*
X130338571Y-15852380D02*
X130529047Y-15852380D01*
X130624285Y-15900000D01*
X130671904Y-15947619D01*
X130767142Y-16090476D01*
X130814761Y-16280952D01*
X130814761Y-16661904D01*
X130767142Y-16757142D01*
X130719523Y-16804761D01*
X130624285Y-16852380D01*
X130433809Y-16852380D01*
X130338571Y-16804761D01*
X130290952Y-16757142D01*
X130243333Y-16661904D01*
X130243333Y-16423809D01*
X130290952Y-16328571D01*
X130338571Y-16280952D01*
X130433809Y-16233333D01*
X130624285Y-16233333D01*
X130719523Y-16280952D01*
X130767142Y-16328571D01*
X130814761Y-16423809D01*
D12*
X140656714Y-6965504D02*
X141513857Y-7458361D01*
X140656714Y-7994075D02*
X142456714Y-7769075D01*
X142456714Y-7083361D01*
X142371000Y-6922647D01*
X142285285Y-6847647D01*
X142113857Y-6783361D01*
X141856714Y-6815504D01*
X141685285Y-6922647D01*
X141599571Y-7019075D01*
X141513857Y-7201218D01*
X141513857Y-7886933D01*
X140656714Y-5422647D02*
X141599571Y-5304790D01*
X141771000Y-5369075D01*
X141856714Y-5529790D01*
X141856714Y-5872647D01*
X141771000Y-6054790D01*
X140742428Y-5411933D02*
X140656714Y-5594075D01*
X140656714Y-6022647D01*
X140742428Y-6183361D01*
X140913857Y-6247647D01*
X141085285Y-6226218D01*
X141256714Y-6119075D01*
X141342428Y-5936933D01*
X141342428Y-5508361D01*
X141428142Y-5326218D01*
X140742428Y-4640504D02*
X140656714Y-4394075D01*
X140656714Y-3965504D01*
X140742428Y-3783361D01*
X140828142Y-3686933D01*
X140999571Y-3579790D01*
X141171000Y-3558361D01*
X141342428Y-3622647D01*
X141428142Y-3697647D01*
X141513857Y-3858361D01*
X141599571Y-4190504D01*
X141685285Y-4351218D01*
X141771000Y-4426218D01*
X141942428Y-4490504D01*
X142113857Y-4469075D01*
X142285285Y-4361933D01*
X142371000Y-4265504D01*
X142456714Y-4083361D01*
X142456714Y-3654790D01*
X142371000Y-3408361D01*
X140828142Y-1801218D02*
X140742428Y-1897647D01*
X140656714Y-2165504D01*
X140656714Y-2336933D01*
X140742428Y-2583361D01*
X140913857Y-2733361D01*
X141085285Y-2797647D01*
X141428142Y-2840504D01*
X141685285Y-2808361D01*
X142028142Y-2679790D01*
X142199571Y-2572647D01*
X142371000Y-2379790D01*
X142456714Y-2111933D01*
X142456714Y-1940504D01*
X142371000Y-1694075D01*
X142285285Y-1619075D01*
X140742428Y-1126218D02*
X140656714Y-879790D01*
X140656714Y-451218D01*
X140742428Y-269075D01*
X140828142Y-172647D01*
X140999571Y-65504D01*
X141171000Y-44075D01*
X141342428Y-108361D01*
X141428142Y-183361D01*
X141513857Y-344075D01*
X141599571Y-676218D01*
X141685285Y-836933D01*
X141771000Y-911933D01*
X141942428Y-976218D01*
X142113857Y-954790D01*
X142285285Y-847647D01*
X142371000Y-751218D01*
X142456714Y-569075D01*
X142456714Y-140504D01*
X142371000Y105925D01*
X140656714Y663067D02*
X142456714Y888067D01*
D10*
X139113619Y-5942032D02*
X139589809Y-6215842D01*
X139113619Y-6513461D02*
X140113619Y-6388461D01*
X140113619Y-6007508D01*
X140066000Y-5918223D01*
X140018380Y-5876556D01*
X139923142Y-5840842D01*
X139780285Y-5858699D01*
X139685047Y-5918223D01*
X139637428Y-5971794D01*
X139589809Y-6072985D01*
X139589809Y-6453937D01*
X139161238Y-5126556D02*
X139113619Y-5227747D01*
X139113619Y-5418223D01*
X139161238Y-5507508D01*
X139256476Y-5543223D01*
X139637428Y-5495604D01*
X139732666Y-5436080D01*
X139780285Y-5334889D01*
X139780285Y-5144413D01*
X139732666Y-5055127D01*
X139637428Y-5019413D01*
X139542190Y-5031318D01*
X139446952Y-5519413D01*
X139113619Y-4513461D02*
X139161238Y-4602747D01*
X139256476Y-4638461D01*
X140113619Y-4531318D01*
X139113619Y-3989651D02*
X139161238Y-4078937D01*
X139208857Y-4120604D01*
X139304095Y-4156318D01*
X139589809Y-4120604D01*
X139685047Y-4061080D01*
X139732666Y-4007508D01*
X139780285Y-3906318D01*
X139780285Y-3763461D01*
X139732666Y-3674175D01*
X139685047Y-3632508D01*
X139589809Y-3596794D01*
X139304095Y-3632508D01*
X139208857Y-3692032D01*
X139161238Y-3745604D01*
X139113619Y-3846794D01*
X139113619Y-3989651D01*
X139113619Y-2799175D02*
X139637428Y-2733699D01*
X139732666Y-2769413D01*
X139780285Y-2858699D01*
X139780285Y-3049175D01*
X139732666Y-3150366D01*
X139161238Y-2793223D02*
X139113619Y-2894413D01*
X139113619Y-3132508D01*
X139161238Y-3221794D01*
X139256476Y-3257508D01*
X139351714Y-3245604D01*
X139446952Y-3186080D01*
X139494571Y-3084889D01*
X139494571Y-2846794D01*
X139542190Y-2745604D01*
X139113619Y-1894413D02*
X140113619Y-1769413D01*
X139161238Y-1888461D02*
X139113619Y-1989651D01*
X139113619Y-2180127D01*
X139161238Y-2269413D01*
X139208857Y-2311080D01*
X139304095Y-2346794D01*
X139589809Y-2311080D01*
X139685047Y-2251556D01*
X139732666Y-2197985D01*
X139780285Y-2096794D01*
X139780285Y-1906318D01*
X139732666Y-1817032D01*
X139161238Y-1031318D02*
X139113619Y-1132508D01*
X139113619Y-1322985D01*
X139161238Y-1412270D01*
X139256476Y-1447985D01*
X139637428Y-1400366D01*
X139732666Y-1340842D01*
X139780285Y-1239651D01*
X139780285Y-1049175D01*
X139732666Y-959889D01*
X139637428Y-924175D01*
X139542190Y-936080D01*
X139446952Y-1424175D01*
X139113619Y-132508D02*
X140113619Y-7508D01*
X139161238Y-126556D02*
X139113619Y-227747D01*
X139113619Y-418223D01*
X139161238Y-507508D01*
X139208857Y-549175D01*
X139304095Y-584889D01*
X139589809Y-549175D01*
X139685047Y-489651D01*
X139732666Y-436080D01*
X139780285Y-334889D01*
X139780285Y-144413D01*
X139732666Y-55127D01*
D11*
X87618953Y-2231500D02*
G75*
G03*
X87618953Y-2231500I-511953J0D01*
G01*
X100572953Y-2168000D02*
G75*
G03*
X100572953Y-2168000I-511953J0D01*
G01*
D10*
X116326666Y1747620D02*
X116326666Y2747620D01*
X115898095Y1747620D02*
X115898095Y2271429D01*
X115945714Y2366667D01*
X116040952Y2414286D01*
X116183809Y2414286D01*
X116279047Y2366667D01*
X116326666Y2319048D01*
X115564761Y2414286D02*
X115183809Y2414286D01*
X115421904Y2747620D02*
X115421904Y1890477D01*
X115374285Y1795239D01*
X115279047Y1747620D01*
X115183809Y1747620D01*
X114993333Y2414286D02*
X114612380Y2414286D01*
X114850476Y2747620D02*
X114850476Y1890477D01*
X114802857Y1795239D01*
X114707619Y1747620D01*
X114612380Y1747620D01*
X114279047Y2414286D02*
X114279047Y1414286D01*
X114279047Y2366667D02*
X114183809Y2414286D01*
X113993333Y2414286D01*
X113898095Y2366667D01*
X113850476Y2319048D01*
X113802857Y2223810D01*
X113802857Y1938096D01*
X113850476Y1842858D01*
X113898095Y1795239D01*
X113993333Y1747620D01*
X114183809Y1747620D01*
X114279047Y1795239D01*
X113421904Y1795239D02*
X113326666Y1747620D01*
X113136190Y1747620D01*
X113040952Y1795239D01*
X112993333Y1890477D01*
X112993333Y1938096D01*
X113040952Y2033334D01*
X113136190Y2080953D01*
X113279047Y2080953D01*
X113374285Y2128572D01*
X113421904Y2223810D01*
X113421904Y2271429D01*
X113374285Y2366667D01*
X113279047Y2414286D01*
X113136190Y2414286D01*
X113040952Y2366667D01*
X112564761Y1842858D02*
X112517142Y1795239D01*
X112564761Y1747620D01*
X112612380Y1795239D01*
X112564761Y1842858D01*
X112564761Y1747620D01*
X112564761Y2366667D02*
X112517142Y2319048D01*
X112564761Y2271429D01*
X112612380Y2319048D01*
X112564761Y2366667D01*
X112564761Y2271429D01*
X111374285Y2795239D02*
X112231428Y1509524D01*
X110326666Y2795239D02*
X111183809Y1509524D01*
X109564761Y2414286D02*
X109564761Y1604762D01*
X109612380Y1509524D01*
X109660000Y1461905D01*
X109755238Y1414286D01*
X109898095Y1414286D01*
X109993333Y1461905D01*
X109564761Y1795239D02*
X109660000Y1747620D01*
X109850476Y1747620D01*
X109945714Y1795239D01*
X109993333Y1842858D01*
X110040952Y1938096D01*
X110040952Y2223810D01*
X109993333Y2319048D01*
X109945714Y2366667D01*
X109850476Y2414286D01*
X109660000Y2414286D01*
X109564761Y2366667D01*
X109088571Y1747620D02*
X109088571Y2414286D01*
X109088571Y2747620D02*
X109136190Y2700000D01*
X109088571Y2652381D01*
X109040952Y2700000D01*
X109088571Y2747620D01*
X109088571Y2652381D01*
X108755238Y2414286D02*
X108374285Y2414286D01*
X108612380Y2747620D02*
X108612380Y1890477D01*
X108564761Y1795239D01*
X108469523Y1747620D01*
X108374285Y1747620D01*
X108040952Y1747620D02*
X108040952Y2747620D01*
X107612380Y1747620D02*
X107612380Y2271429D01*
X107660000Y2366667D01*
X107755238Y2414286D01*
X107898095Y2414286D01*
X107993333Y2366667D01*
X108040952Y2319048D01*
X106707619Y2414286D02*
X106707619Y1747620D01*
X107136190Y2414286D02*
X107136190Y1890477D01*
X107088571Y1795239D01*
X106993333Y1747620D01*
X106850476Y1747620D01*
X106755238Y1795239D01*
X106707619Y1842858D01*
X106231428Y1747620D02*
X106231428Y2747620D01*
X106231428Y2366667D02*
X106136190Y2414286D01*
X105945714Y2414286D01*
X105850476Y2366667D01*
X105802857Y2319048D01*
X105755238Y2223810D01*
X105755238Y1938096D01*
X105802857Y1842858D01*
X105850476Y1795239D01*
X105945714Y1747620D01*
X106136190Y1747620D01*
X106231428Y1795239D01*
X105326666Y1842858D02*
X105279047Y1795239D01*
X105326666Y1747620D01*
X105374285Y1795239D01*
X105326666Y1842858D01*
X105326666Y1747620D01*
X104421904Y1795239D02*
X104517142Y1747620D01*
X104707619Y1747620D01*
X104802857Y1795239D01*
X104850476Y1842858D01*
X104898095Y1938096D01*
X104898095Y2223810D01*
X104850476Y2319048D01*
X104802857Y2366667D01*
X104707619Y2414286D01*
X104517142Y2414286D01*
X104421904Y2366667D01*
X103850476Y1747620D02*
X103945714Y1795239D01*
X103993333Y1842858D01*
X104040952Y1938096D01*
X104040952Y2223810D01*
X103993333Y2319048D01*
X103945714Y2366667D01*
X103850476Y2414286D01*
X103707619Y2414286D01*
X103612380Y2366667D01*
X103564761Y2319048D01*
X103517142Y2223810D01*
X103517142Y1938096D01*
X103564761Y1842858D01*
X103612380Y1795239D01*
X103707619Y1747620D01*
X103850476Y1747620D01*
X103088571Y1747620D02*
X103088571Y2414286D01*
X103088571Y2319048D02*
X103040952Y2366667D01*
X102945714Y2414286D01*
X102802857Y2414286D01*
X102707619Y2366667D01*
X102660000Y2271429D01*
X102660000Y1747620D01*
X102660000Y2271429D02*
X102612380Y2366667D01*
X102517142Y2414286D01*
X102374285Y2414286D01*
X102279047Y2366667D01*
X102231428Y2271429D01*
X102231428Y1747620D01*
X101040952Y2795239D02*
X101898095Y1509524D01*
X100279047Y1747620D02*
X100279047Y2271429D01*
X100326666Y2366667D01*
X100421904Y2414286D01*
X100612380Y2414286D01*
X100707619Y2366667D01*
X100279047Y1795239D02*
X100374285Y1747620D01*
X100612380Y1747620D01*
X100707619Y1795239D01*
X100755238Y1890477D01*
X100755238Y1985715D01*
X100707619Y2080953D01*
X100612380Y2128572D01*
X100374285Y2128572D01*
X100279047Y2176191D01*
X99802857Y1747620D02*
X99802857Y2747620D01*
X99707619Y2128572D02*
X99421904Y1747620D01*
X99421904Y2414286D02*
X99802857Y2033334D01*
X98564761Y2414286D02*
X98564761Y1747620D01*
X98993333Y2414286D02*
X98993333Y1890477D01*
X98945714Y1795239D01*
X98850476Y1747620D01*
X98707619Y1747620D01*
X98612380Y1795239D01*
X98564761Y1842858D01*
X98088571Y1747620D02*
X98088571Y2747620D01*
X97993333Y2128572D02*
X97707619Y1747620D01*
X97707619Y2414286D02*
X98088571Y2033334D01*
X96898095Y1795239D02*
X96993333Y1747620D01*
X97183809Y1747620D01*
X97279047Y1795239D01*
X97326666Y1890477D01*
X97326666Y2271429D01*
X97279047Y2366667D01*
X97183809Y2414286D01*
X96993333Y2414286D01*
X96898095Y2366667D01*
X96850476Y2271429D01*
X96850476Y2176191D01*
X97326666Y2080953D01*
X96421904Y1747620D02*
X96421904Y2414286D01*
X96421904Y2223810D02*
X96374285Y2319048D01*
X96326666Y2366667D01*
X96231428Y2414286D01*
X96136190Y2414286D01*
X95088571Y2795239D02*
X95945714Y1509524D01*
X94183809Y1747620D02*
X94517142Y2223810D01*
X94755238Y1747620D02*
X94755238Y2747620D01*
X94374285Y2747620D01*
X94279047Y2700000D01*
X94231428Y2652381D01*
X94183809Y2557143D01*
X94183809Y2414286D01*
X94231428Y2319048D01*
X94279047Y2271429D01*
X94374285Y2223810D01*
X94755238Y2223810D01*
X93802857Y2033334D02*
X93326666Y2033334D01*
X93898095Y1747620D02*
X93564761Y2747620D01*
X93231428Y1747620D01*
X92945714Y1795239D02*
X92802857Y1747620D01*
X92564761Y1747620D01*
X92469523Y1795239D01*
X92421904Y1842858D01*
X92374285Y1938096D01*
X92374285Y2033334D01*
X92421904Y2128572D01*
X92469523Y2176191D01*
X92564761Y2223810D01*
X92755238Y2271429D01*
X92850476Y2319048D01*
X92898095Y2366667D01*
X92945714Y2461905D01*
X92945714Y2557143D01*
X92898095Y2652381D01*
X92850476Y2700000D01*
X92755238Y2747620D01*
X92517142Y2747620D01*
X92374285Y2700000D01*
X91374285Y1842858D02*
X91421904Y1795239D01*
X91564761Y1747620D01*
X91660000Y1747620D01*
X91802857Y1795239D01*
X91898095Y1890477D01*
X91945714Y1985715D01*
X91993333Y2176191D01*
X91993333Y2319048D01*
X91945714Y2509524D01*
X91898095Y2604762D01*
X91802857Y2700000D01*
X91660000Y2747620D01*
X91564761Y2747620D01*
X91421904Y2700000D01*
X91374285Y2652381D01*
X90993333Y1795239D02*
X90850476Y1747620D01*
X90612380Y1747620D01*
X90517142Y1795239D01*
X90469523Y1842858D01*
X90421904Y1938096D01*
X90421904Y2033334D01*
X90469523Y2128572D01*
X90517142Y2176191D01*
X90612380Y2223810D01*
X90802857Y2271429D01*
X90898095Y2319048D01*
X90945714Y2366667D01*
X90993333Y2461905D01*
X90993333Y2557143D01*
X90945714Y2652381D01*
X90898095Y2700000D01*
X90802857Y2747620D01*
X90564761Y2747620D01*
X90421904Y2700000D01*
X89993333Y1747620D02*
X89993333Y2747620D01*
D11*
X94943000Y-55963000D02*
X94879500Y-55963000D01*
X94879500Y-55963000D02*
X94879500Y-56217000D01*
X141556000Y-10927000D02*
X141556000Y-11054000D01*
X130783000Y-14106000D02*
X130783000Y-11693000D01*
X130783000Y-11693000D02*
X128497000Y-11693000D01*
X130910000Y-14233000D02*
X130910000Y-11566000D01*
X130910000Y-11566000D02*
X128370000Y-11566000D01*
X82457000Y-12478000D02*
X83854000Y-12478000D01*
X82457000Y-10954000D02*
X82457000Y-12478000D01*
D10*
X82260095Y-11322285D02*
X82260095Y-11703238D01*
X81879142Y-11741333D01*
X81917238Y-11703238D01*
X81955333Y-11627047D01*
X81955333Y-11436571D01*
X81917238Y-11360380D01*
X81879142Y-11322285D01*
X81802952Y-11284190D01*
X81612476Y-11284190D01*
X81536285Y-11322285D01*
X81498190Y-11360380D01*
X81460095Y-11436571D01*
X81460095Y-11627047D01*
X81498190Y-11703238D01*
X81536285Y-11741333D01*
X81993428Y-11017523D02*
X81460095Y-10827047D01*
X81993428Y-10636571D01*
X82222000Y-9277523D02*
X82260095Y-9353714D01*
X82260095Y-9468000D01*
X82222000Y-9582285D01*
X82145809Y-9658476D01*
X82069619Y-9696571D01*
X81917238Y-9734666D01*
X81802952Y-9734666D01*
X81650571Y-9696571D01*
X81574380Y-9658476D01*
X81498190Y-9582285D01*
X81460095Y-9468000D01*
X81460095Y-9391809D01*
X81498190Y-9277523D01*
X81536285Y-9239428D01*
X81802952Y-9239428D01*
X81802952Y-9391809D01*
X81460095Y-8896571D02*
X82260095Y-8896571D01*
X81460095Y-8439428D01*
X82260095Y-8439428D01*
X81460095Y-8058476D02*
X82260095Y-8058476D01*
X82260095Y-7868000D01*
X82222000Y-7753714D01*
X82145809Y-7677523D01*
X82069619Y-7639428D01*
X81917238Y-7601333D01*
X81802952Y-7601333D01*
X81650571Y-7639428D01*
X81574380Y-7677523D01*
X81498190Y-7753714D01*
X81460095Y-7868000D01*
X81460095Y-8058476D01*
X82260095Y-6966095D02*
X82260095Y-6470857D01*
X81955333Y-6737523D01*
X81955333Y-6623238D01*
X81917238Y-6547047D01*
X81879142Y-6508952D01*
X81802952Y-6470857D01*
X81612476Y-6470857D01*
X81536285Y-6508952D01*
X81498190Y-6547047D01*
X81460095Y-6623238D01*
X81460095Y-6851809D01*
X81498190Y-6928000D01*
X81536285Y-6966095D01*
X81536285Y-6128000D02*
X81498190Y-6089904D01*
X81460095Y-6128000D01*
X81498190Y-6166095D01*
X81536285Y-6128000D01*
X81460095Y-6128000D01*
X82260095Y-5823238D02*
X82260095Y-5328000D01*
X81955333Y-5594666D01*
X81955333Y-5480380D01*
X81917238Y-5404190D01*
X81879142Y-5366095D01*
X81802952Y-5328000D01*
X81612476Y-5328000D01*
X81536285Y-5366095D01*
X81498190Y-5404190D01*
X81460095Y-5480380D01*
X81460095Y-5708952D01*
X81498190Y-5785142D01*
X81536285Y-5823238D01*
X81498190Y-4286380D02*
X81460095Y-4172095D01*
X81460095Y-3981619D01*
X81498190Y-3905428D01*
X81536285Y-3867333D01*
X81612476Y-3829238D01*
X81688666Y-3829238D01*
X81764857Y-3867333D01*
X81802952Y-3905428D01*
X81841047Y-3981619D01*
X81879142Y-4134000D01*
X81917238Y-4210190D01*
X81955333Y-4248285D01*
X82031523Y-4286380D01*
X82107714Y-4286380D01*
X82183904Y-4248285D01*
X82222000Y-4210190D01*
X82260095Y-4134000D01*
X82260095Y-3943523D01*
X82222000Y-3829238D01*
X81536285Y-3029238D02*
X81498190Y-3067333D01*
X81460095Y-3181619D01*
X81460095Y-3257809D01*
X81498190Y-3372095D01*
X81574380Y-3448285D01*
X81650571Y-3486380D01*
X81802952Y-3524476D01*
X81917238Y-3524476D01*
X82069619Y-3486380D01*
X82145809Y-3448285D01*
X82222000Y-3372095D01*
X82260095Y-3257809D01*
X82260095Y-3181619D01*
X82222000Y-3067333D01*
X82183904Y-3029238D01*
X81460095Y-2305428D02*
X81460095Y-2686380D01*
X82260095Y-2686380D01*
X81498190Y-1765428D02*
X81460095Y-1651142D01*
X81460095Y-1460666D01*
X81498190Y-1384476D01*
X81536285Y-1346380D01*
X81612476Y-1308285D01*
X81688666Y-1308285D01*
X81764857Y-1346380D01*
X81802952Y-1384476D01*
X81841047Y-1460666D01*
X81879142Y-1613047D01*
X81917238Y-1689238D01*
X81955333Y-1727333D01*
X82031523Y-1765428D01*
X82107714Y-1765428D01*
X82183904Y-1727333D01*
X82222000Y-1689238D01*
X82260095Y-1613047D01*
X82260095Y-1422571D01*
X82222000Y-1308285D01*
X81460095Y-965428D02*
X82260095Y-965428D01*
X82260095Y-774952D01*
X82222000Y-660666D01*
X82145809Y-584476D01*
X82069619Y-546380D01*
X81917238Y-508285D01*
X81802952Y-508285D01*
X81650571Y-546380D01*
X81574380Y-584476D01*
X81498190Y-660666D01*
X81460095Y-774952D01*
X81460095Y-965428D01*
X81688666Y-203523D02*
X81688666Y177429D01*
X81460095Y-279714D02*
X82260095Y-13047D01*
X81460095Y253620D01*
X81872785Y4152596D02*
X82253738Y4152596D01*
X82291833Y3771643D01*
X82253738Y3809739D01*
X82177547Y3847834D01*
X81987071Y3847834D01*
X81910880Y3809739D01*
X81872785Y3771643D01*
X81834690Y3695453D01*
X81834690Y3504977D01*
X81872785Y3428786D01*
X81910880Y3390691D01*
X81987071Y3352596D01*
X82177547Y3352596D01*
X82253738Y3390691D01*
X82291833Y3428786D01*
X81568023Y3885929D02*
X81377547Y3352596D01*
X81187071Y3885929D01*
X86581523Y4416000D02*
X86657714Y4454096D01*
X86772000Y4454096D01*
X86886285Y4416000D01*
X86962476Y4339810D01*
X87000571Y4263620D01*
X87038666Y4111239D01*
X87038666Y3996953D01*
X87000571Y3844572D01*
X86962476Y3768381D01*
X86886285Y3692191D01*
X86772000Y3654096D01*
X86695809Y3654096D01*
X86581523Y3692191D01*
X86543428Y3730286D01*
X86543428Y3996953D01*
X86695809Y3996953D01*
X86200571Y3654096D02*
X86200571Y4454096D01*
X85743428Y3654096D01*
X85743428Y4454096D01*
X85362476Y3654096D02*
X85362476Y4454096D01*
X85172000Y4454096D01*
X85057714Y4416000D01*
X84981523Y4339810D01*
X84943428Y4263620D01*
X84905333Y4111239D01*
X84905333Y3996953D01*
X84943428Y3844572D01*
X84981523Y3768381D01*
X85057714Y3692191D01*
X85172000Y3654096D01*
X85362476Y3654096D01*
X136793333Y2772620D02*
X137126666Y3248810D01*
X137364761Y2772620D02*
X137364761Y3772620D01*
X136983809Y3772620D01*
X136888571Y3725000D01*
X136840952Y3677381D01*
X136793333Y3582143D01*
X136793333Y3439286D01*
X136840952Y3344048D01*
X136888571Y3296429D01*
X136983809Y3248810D01*
X137364761Y3248810D01*
X135936190Y2772620D02*
X135936190Y3296429D01*
X135983809Y3391667D01*
X136079047Y3439286D01*
X136269523Y3439286D01*
X136364761Y3391667D01*
X135936190Y2820239D02*
X136031428Y2772620D01*
X136269523Y2772620D01*
X136364761Y2820239D01*
X136412380Y2915477D01*
X136412380Y3010715D01*
X136364761Y3105953D01*
X136269523Y3153572D01*
X136031428Y3153572D01*
X135936190Y3201191D01*
X135507619Y2820239D02*
X135364761Y2772620D01*
X135126666Y2772620D01*
X135031428Y2820239D01*
X134983809Y2867858D01*
X134936190Y2963096D01*
X134936190Y3058334D01*
X134983809Y3153572D01*
X135031428Y3201191D01*
X135126666Y3248810D01*
X135317142Y3296429D01*
X135412380Y3344048D01*
X135460000Y3391667D01*
X135507619Y3486905D01*
X135507619Y3582143D01*
X135460000Y3677381D01*
X135412380Y3725000D01*
X135317142Y3772620D01*
X135079047Y3772620D01*
X134936190Y3725000D01*
X133936190Y2867858D02*
X133983809Y2820239D01*
X134126666Y2772620D01*
X134221904Y2772620D01*
X134364761Y2820239D01*
X134460000Y2915477D01*
X134507619Y3010715D01*
X134555238Y3201191D01*
X134555238Y3344048D01*
X134507619Y3534524D01*
X134460000Y3629762D01*
X134364761Y3725000D01*
X134221904Y3772620D01*
X134126666Y3772620D01*
X133983809Y3725000D01*
X133936190Y3677381D01*
X133555238Y2820239D02*
X133412380Y2772620D01*
X133174285Y2772620D01*
X133079047Y2820239D01*
X133031428Y2867858D01*
X132983809Y2963096D01*
X132983809Y3058334D01*
X133031428Y3153572D01*
X133079047Y3201191D01*
X133174285Y3248810D01*
X133364761Y3296429D01*
X133460000Y3344048D01*
X133507619Y3391667D01*
X133555238Y3486905D01*
X133555238Y3582143D01*
X133507619Y3677381D01*
X133460000Y3725000D01*
X133364761Y3772620D01*
X133126666Y3772620D01*
X132983809Y3725000D01*
X132555238Y2772620D02*
X132555238Y3772620D01*
X131412380Y3772620D02*
X130745714Y3772620D01*
X131412380Y2772620D01*
X130745714Y2772620D01*
X129983809Y2820239D02*
X130079047Y2772620D01*
X130269523Y2772620D01*
X130364761Y2820239D01*
X130412380Y2915477D01*
X130412380Y3296429D01*
X130364761Y3391667D01*
X130269523Y3439286D01*
X130079047Y3439286D01*
X129983809Y3391667D01*
X129936190Y3296429D01*
X129936190Y3201191D01*
X130412380Y3105953D01*
X129507619Y2772620D02*
X129507619Y3439286D01*
X129507619Y3248810D02*
X129460000Y3344048D01*
X129412380Y3391667D01*
X129317142Y3439286D01*
X129221904Y3439286D01*
X128745714Y2772620D02*
X128840952Y2820239D01*
X128888571Y2867858D01*
X128936190Y2963096D01*
X128936190Y3248810D01*
X128888571Y3344048D01*
X128840952Y3391667D01*
X128745714Y3439286D01*
X128602857Y3439286D01*
X128507619Y3391667D01*
X128460000Y3344048D01*
X128412380Y3248810D01*
X128412380Y2963096D01*
X128460000Y2867858D01*
X128507619Y2820239D01*
X128602857Y2772620D01*
X128745714Y2772620D01*
X127317142Y3439286D02*
X127079047Y2772620D01*
X126840952Y3439286D01*
X125936190Y2772620D02*
X126507619Y2772620D01*
X126221904Y2772620D02*
X126221904Y3772620D01*
X126317142Y3629762D01*
X126412380Y3534524D01*
X126507619Y3486905D01*
X125507619Y2867858D02*
X125460000Y2820239D01*
X125507619Y2772620D01*
X125555238Y2820239D01*
X125507619Y2867858D01*
X125507619Y2772620D01*
X124840952Y3772620D02*
X124745714Y3772620D01*
X124650476Y3725000D01*
X124602857Y3677381D01*
X124555238Y3582143D01*
X124507619Y3391667D01*
X124507619Y3153572D01*
X124555238Y2963096D01*
X124602857Y2867858D01*
X124650476Y2820239D01*
X124745714Y2772620D01*
X124840952Y2772620D01*
X124936190Y2820239D01*
X124983809Y2867858D01*
X125031428Y2963096D01*
X125079047Y3153572D01*
X125079047Y3391667D01*
X125031428Y3582143D01*
X124983809Y3677381D01*
X124936190Y3725000D01*
X124840952Y3772620D01*
X137174285Y1646429D02*
X137507619Y1646429D01*
X137507619Y1122620D02*
X137507619Y2122620D01*
X137031428Y2122620D01*
X136650476Y2122620D02*
X136650476Y1313096D01*
X136602857Y1217858D01*
X136555238Y1170239D01*
X136460000Y1122620D01*
X136269523Y1122620D01*
X136174285Y1170239D01*
X136126666Y1217858D01*
X136079047Y1313096D01*
X136079047Y2122620D01*
X135126666Y1122620D02*
X135602857Y1122620D01*
X135602857Y2122620D01*
X134317142Y1122620D02*
X134793333Y1122620D01*
X134793333Y2122620D01*
X134031428Y1170239D02*
X133888571Y1122620D01*
X133650476Y1122620D01*
X133555238Y1170239D01*
X133507619Y1217858D01*
X133460000Y1313096D01*
X133460000Y1408334D01*
X133507619Y1503572D01*
X133555238Y1551191D01*
X133650476Y1598810D01*
X133840952Y1646429D01*
X133936190Y1694048D01*
X133983809Y1741667D01*
X134031428Y1836905D01*
X134031428Y1932143D01*
X133983809Y2027381D01*
X133936190Y2075000D01*
X133840952Y2122620D01*
X133602857Y2122620D01*
X133460000Y2075000D01*
X133031428Y1122620D02*
X133031428Y2122620D01*
X132650476Y2122620D01*
X132555238Y2075000D01*
X132507619Y2027381D01*
X132460000Y1932143D01*
X132460000Y1789286D01*
X132507619Y1694048D01*
X132555238Y1646429D01*
X132650476Y1598810D01*
X133031428Y1598810D01*
X132031428Y1646429D02*
X131698095Y1646429D01*
X131555238Y1122620D02*
X132031428Y1122620D01*
X132031428Y2122620D01*
X131555238Y2122620D01*
X130555238Y1217858D02*
X130602857Y1170239D01*
X130745714Y1122620D01*
X130840952Y1122620D01*
X130983809Y1170239D01*
X131079047Y1265477D01*
X131126666Y1360715D01*
X131174285Y1551191D01*
X131174285Y1694048D01*
X131126666Y1884524D01*
X131079047Y1979762D01*
X130983809Y2075000D01*
X130840952Y2122620D01*
X130745714Y2122620D01*
X130602857Y2075000D01*
X130555238Y2027381D01*
X129507619Y2122620D02*
X129174285Y1122620D01*
X128840952Y2122620D01*
X128126666Y1170239D02*
X128221904Y1122620D01*
X128412380Y1122620D01*
X128507619Y1170239D01*
X128555238Y1265477D01*
X128555238Y1646429D01*
X128507619Y1741667D01*
X128412380Y1789286D01*
X128221904Y1789286D01*
X128126666Y1741667D01*
X128079047Y1646429D01*
X128079047Y1551191D01*
X128555238Y1455953D01*
X127650476Y1122620D02*
X127650476Y1789286D01*
X127650476Y1598810D02*
X127602857Y1694048D01*
X127555238Y1741667D01*
X127460000Y1789286D01*
X127364761Y1789286D01*
X127079047Y1170239D02*
X126983809Y1122620D01*
X126793333Y1122620D01*
X126698095Y1170239D01*
X126650476Y1265477D01*
X126650476Y1313096D01*
X126698095Y1408334D01*
X126793333Y1455953D01*
X126936190Y1455953D01*
X127031428Y1503572D01*
X127079047Y1598810D01*
X127079047Y1646429D01*
X127031428Y1741667D01*
X126936190Y1789286D01*
X126793333Y1789286D01*
X126698095Y1741667D01*
X126221904Y1122620D02*
X126221904Y1789286D01*
X126221904Y2122620D02*
X126269523Y2075000D01*
X126221904Y2027381D01*
X126174285Y2075000D01*
X126221904Y2122620D01*
X126221904Y2027381D01*
X125602857Y1122620D02*
X125698095Y1170239D01*
X125745714Y1217858D01*
X125793333Y1313096D01*
X125793333Y1598810D01*
X125745714Y1694048D01*
X125698095Y1741667D01*
X125602857Y1789286D01*
X125460000Y1789286D01*
X125364761Y1741667D01*
X125317142Y1694048D01*
X125269523Y1598810D01*
X125269523Y1313096D01*
X125317142Y1217858D01*
X125364761Y1170239D01*
X125460000Y1122620D01*
X125602857Y1122620D01*
X124840952Y1789286D02*
X124840952Y1122620D01*
X124840952Y1694048D02*
X124793333Y1741667D01*
X124698095Y1789286D01*
X124555238Y1789286D01*
X124460000Y1741667D01*
X124412380Y1646429D01*
X124412380Y1122620D01*
D11*
X137593453Y-7502000D02*
G75*
G03*
X137593453Y-7502000I-511953J0D01*
G01*
X124575953Y-7502000D02*
G75*
G03*
X124575953Y-7502000I-511953J0D01*
G01*
D13*
X83800000Y-19700000D02*
X141800000Y-19700000D01*
X83800000Y-19700000D02*
G75*
G02*
X80300000Y-16200000I0J3500000D01*
G01*
X145300000Y-16200000D02*
G75*
G02*
X141800000Y-19700000I-3500000J0D01*
G01*
X80300000Y6800000D02*
X80300000Y-16200000D01*
X145300000Y6800000D02*
X145300000Y-16200000D01*
X83800000Y10300000D02*
X141800000Y10300000D01*
X80300000Y6800000D02*
G75*
G02*
X83800000Y10300000I3500000J0D01*
G01*
X141800000Y10300000D02*
G75*
G02*
X145300000Y6800000I0J-3500000D01*
G01*
D11*
%TO.C,TP3*%
X144210000Y-1125000D02*
G75*
G03*
X144210000Y-1125000I-700000J0D01*
G01*
%TO.C,TP2*%
X142360000Y-2200000D02*
G75*
G03*
X142360000Y-2200000I-700000J0D01*
G01*
%TO.C,TP1*%
X144210000Y-3225000D02*
G75*
G03*
X144210000Y-3225000I-700000J0D01*
G01*
%TO.C,J1*%
X87340000Y9400000D02*
X87340000Y6800000D01*
X87340000Y9400000D02*
X138260000Y9400000D01*
X138260000Y9400000D02*
X138260000Y4200000D01*
X89940000Y4200000D02*
X138260000Y4200000D01*
X89940000Y6800000D02*
X89940000Y4200000D01*
X87340000Y6800000D02*
X89940000Y6800000D01*
X87340000Y4200000D02*
X88670000Y4200000D01*
X87340000Y5530000D02*
X87340000Y4200000D01*
D14*
%TO.C,J6*%
X139326320Y-11471200D02*
X86286320Y-11471200D01*
X86286320Y-11471200D02*
X86286320Y-23871200D01*
X86286320Y-23871200D02*
X139326320Y-23871200D01*
X139326320Y-23871200D02*
X139326320Y-11471200D01*
D15*
%TO.C,IC3*%
X99271880Y-1513880D02*
X99271880Y-8313880D01*
X99271880Y-8313880D02*
X112071880Y-8313880D01*
X112071880Y-8313880D02*
X112071880Y-1513880D01*
X112071880Y-1513880D02*
X99271880Y-1513880D01*
X99281880Y786120D02*
X99281880Y-1163880D01*
D16*
%TO.C,X6*%
G36*
X110321266Y-7197566D02*
G01*
X110118066Y-7197566D01*
X110118066Y-6994366D01*
X109933416Y-6994366D01*
X109928375Y-6888533D01*
X109923333Y-6782699D01*
X109826823Y-6777647D01*
X109730313Y-6772594D01*
X109725223Y-6684513D01*
X109720133Y-6596433D01*
X109512700Y-6591678D01*
X109305266Y-6586924D01*
X109305266Y-6181566D01*
X109093600Y-6181628D01*
X109093600Y-5969899D01*
X108894633Y-5965129D01*
X108695666Y-5960358D01*
X108695666Y-5573009D01*
X108280800Y-5563499D01*
X108276045Y-5356066D01*
X108271291Y-5148633D01*
X107036200Y-5148633D01*
X107036200Y-5571966D01*
X106612867Y-5571966D01*
X106612867Y-5758233D01*
X106426600Y-5758233D01*
X106426600Y-5961433D01*
X105596866Y-5961433D01*
X105596866Y-6181408D01*
X107345233Y-6185720D01*
X109093600Y-6190033D01*
X109098371Y-6389000D01*
X109103141Y-6587966D01*
X109305266Y-6587966D01*
X109305266Y-6774233D01*
X109728600Y-6774233D01*
X109728600Y-6994366D01*
X109931800Y-6994366D01*
X109931800Y-7197566D01*
X110117319Y-7197566D01*
X110126533Y-7832566D01*
X110223071Y-7837620D01*
X110319608Y-7842673D01*
X110324671Y-7736020D01*
X110329733Y-7629366D01*
X110431333Y-7620899D01*
X110532933Y-7612433D01*
X110537350Y-6896999D01*
X110541767Y-6181566D01*
X110321266Y-6181566D01*
X110321266Y-7197566D01*
G37*
X110321266Y-7197566D02*
X110118066Y-7197566D01*
X110118066Y-6994366D01*
X109933416Y-6994366D01*
X109928375Y-6888533D01*
X109923333Y-6782699D01*
X109826823Y-6777647D01*
X109730313Y-6772594D01*
X109725223Y-6684513D01*
X109720133Y-6596433D01*
X109512700Y-6591678D01*
X109305266Y-6586924D01*
X109305266Y-6181566D01*
X109093600Y-6181628D01*
X109093600Y-5969899D01*
X108894633Y-5965129D01*
X108695666Y-5960358D01*
X108695666Y-5573009D01*
X108280800Y-5563499D01*
X108276045Y-5356066D01*
X108271291Y-5148633D01*
X107036200Y-5148633D01*
X107036200Y-5571966D01*
X106612867Y-5571966D01*
X106612867Y-5758233D01*
X106426600Y-5758233D01*
X106426600Y-5961433D01*
X105596866Y-5961433D01*
X105596866Y-6181408D01*
X107345233Y-6185720D01*
X109093600Y-6190033D01*
X109098371Y-6389000D01*
X109103141Y-6587966D01*
X109305266Y-6587966D01*
X109305266Y-6774233D01*
X109728600Y-6774233D01*
X109728600Y-6994366D01*
X109931800Y-6994366D01*
X109931800Y-7197566D01*
X110117319Y-7197566D01*
X110126533Y-7832566D01*
X110223071Y-7837620D01*
X110319608Y-7842673D01*
X110324671Y-7736020D01*
X110329733Y-7629366D01*
X110431333Y-7620899D01*
X110532933Y-7612433D01*
X110537350Y-6896999D01*
X110541767Y-6181566D01*
X110321266Y-6181566D01*
X110321266Y-7197566D01*
G36*
X104563933Y-7841033D02*
G01*
X104362349Y-7841033D01*
X104357308Y-7735200D01*
X104352267Y-7629366D01*
X103751133Y-7620118D01*
X103751133Y-8027299D01*
X103954333Y-8027299D01*
X103954333Y-7841033D01*
X104360733Y-7841033D01*
X104360733Y-8027299D01*
X104563933Y-8027299D01*
X104563933Y-7841033D01*
G37*
X104563933Y-7841033D02*
X104362349Y-7841033D01*
X104357308Y-7735200D01*
X104352267Y-7629366D01*
X103751133Y-7620118D01*
X103751133Y-8027299D01*
X103954333Y-8027299D01*
X103954333Y-7841033D01*
X104360733Y-7841033D01*
X104360733Y-8027299D01*
X104563933Y-8027299D01*
X104563933Y-7841033D01*
G36*
X102718200Y-6994366D02*
G01*
X102929866Y-6994304D01*
X102918392Y-7197566D01*
X103141533Y-7197566D01*
X103141533Y-8027299D01*
X103327800Y-8027299D01*
X103327800Y-8230499D01*
X103751133Y-8230499D01*
X103751133Y-8027299D01*
X103328402Y-8027299D01*
X103323868Y-7616666D01*
X103319333Y-7206033D01*
X103230433Y-7200915D01*
X103141533Y-7195796D01*
X103141533Y-6995982D01*
X103035700Y-6990941D01*
X102929866Y-6985899D01*
X102919784Y-6774233D01*
X102718200Y-6774233D01*
X102718200Y-6994366D01*
G37*
X102718200Y-6994366D02*
X102929866Y-6994304D01*
X102918392Y-7197566D01*
X103141533Y-7197566D01*
X103141533Y-8027299D01*
X103327800Y-8027299D01*
X103327800Y-8230499D01*
X103751133Y-8230499D01*
X103751133Y-8027299D01*
X103328402Y-8027299D01*
X103323868Y-7616666D01*
X103319333Y-7206033D01*
X103230433Y-7200915D01*
X103141533Y-7195796D01*
X103141533Y-6995982D01*
X103035700Y-6990941D01*
X102929866Y-6985899D01*
X102919784Y-6774233D01*
X102718200Y-6774233D01*
X102718200Y-6994366D01*
G36*
X108695666Y-2456233D02*
G01*
X108881933Y-2456233D01*
X108881933Y-3099699D01*
X108970833Y-3099440D01*
X109025604Y-3096813D01*
X109067756Y-3090386D01*
X109081303Y-3085492D01*
X109089365Y-3071896D01*
X109094937Y-3040501D01*
X109098218Y-2987550D01*
X109099409Y-2909282D01*
X109098711Y-2801939D01*
X109098236Y-2768251D01*
X109093600Y-2464699D01*
X108987766Y-2459658D01*
X108881933Y-2454617D01*
X108881933Y-2066766D01*
X108695666Y-2066766D01*
X108695666Y-2456233D01*
G37*
X108695666Y-2456233D02*
X108881933Y-2456233D01*
X108881933Y-3099699D01*
X108970833Y-3099440D01*
X109025604Y-3096813D01*
X109067756Y-3090386D01*
X109081303Y-3085492D01*
X109089365Y-3071896D01*
X109094937Y-3040501D01*
X109098218Y-2987550D01*
X109099409Y-2909282D01*
X109098711Y-2801939D01*
X109098236Y-2768251D01*
X109093600Y-2464699D01*
X108987766Y-2459658D01*
X108881933Y-2454617D01*
X108881933Y-2066766D01*
X108695666Y-2066766D01*
X108695666Y-2456233D01*
G36*
X109728600Y-1863566D02*
G01*
X109306883Y-1863566D01*
X109301841Y-1757733D01*
X109296800Y-1651900D01*
X108704133Y-1651900D01*
X108699092Y-1757733D01*
X108694050Y-1863566D01*
X108272333Y-1863566D01*
X108272333Y-2066766D01*
X108695666Y-2066766D01*
X108695666Y-1863566D01*
X109305266Y-1863566D01*
X109305266Y-2066766D01*
X109728600Y-2066766D01*
X109728600Y-1863566D01*
G37*
X109728600Y-1863566D02*
X109306883Y-1863566D01*
X109301841Y-1757733D01*
X109296800Y-1651900D01*
X108704133Y-1651900D01*
X108699092Y-1757733D01*
X108694050Y-1863566D01*
X108272333Y-1863566D01*
X108272333Y-2066766D01*
X108695666Y-2066766D01*
X108695666Y-1863566D01*
X109305266Y-1863566D01*
X109305266Y-2066766D01*
X109728600Y-2066766D01*
X109728600Y-1863566D01*
G36*
X109931800Y-2066766D02*
G01*
X109728600Y-2066766D01*
X109728600Y-2456233D01*
X109931800Y-2456233D01*
X109931800Y-2066766D01*
G37*
X109931800Y-2066766D02*
X109728600Y-2066766D01*
X109728600Y-2456233D01*
X109931800Y-2456233D01*
X109931800Y-2066766D01*
G36*
X110118066Y-4115700D02*
G01*
X110118066Y-2456233D01*
X109931800Y-2456233D01*
X109931800Y-4115700D01*
X110118066Y-4115700D01*
G37*
X110118066Y-4115700D02*
X110118066Y-2456233D01*
X109931800Y-2456233D01*
X109931800Y-4115700D01*
X110118066Y-4115700D01*
G36*
X109931800Y-4115700D02*
G01*
X109728600Y-4115700D01*
X109728600Y-5571966D01*
X109931800Y-5571966D01*
X109931800Y-4115700D01*
G37*
X109931800Y-4115700D02*
X109728600Y-4115700D01*
X109728600Y-5571966D01*
X109931800Y-5571966D01*
X109931800Y-4115700D01*
G36*
X110118066Y-5571966D02*
G01*
X109931800Y-5571966D01*
X109931800Y-5961433D01*
X110118066Y-5961433D01*
X110118066Y-5571966D01*
G37*
X110118066Y-5571966D02*
X109931800Y-5571966D01*
X109931800Y-5961433D01*
X110118066Y-5961433D01*
X110118066Y-5571966D01*
G36*
X110321266Y-5961433D02*
G01*
X110118066Y-5961433D01*
X110118066Y-6181566D01*
X110321266Y-6181566D01*
X110321266Y-5961433D01*
G37*
X110321266Y-5961433D02*
X110118066Y-5961433D01*
X110118066Y-6181566D01*
X110321266Y-6181566D01*
X110321266Y-5961433D01*
G36*
X105596866Y-6587966D02*
G01*
X105596866Y-6181566D01*
X105190467Y-6181566D01*
X105190467Y-6587966D01*
X105596866Y-6587966D01*
G37*
X105596866Y-6587966D02*
X105596866Y-6181566D01*
X105190467Y-6181566D01*
X105190467Y-6587966D01*
X105596866Y-6587966D01*
G36*
X105190467Y-3709299D02*
G01*
X105391976Y-3709299D01*
X105397055Y-3806666D01*
X105402133Y-3904033D01*
X108272333Y-3912691D01*
X108272333Y-3710342D01*
X108479767Y-3705587D01*
X108687200Y-3700833D01*
X108692241Y-3594999D01*
X108697283Y-3489166D01*
X108881933Y-3489166D01*
X108881933Y-3099699D01*
X108695666Y-3099699D01*
X108695666Y-3489166D01*
X108272333Y-3489166D01*
X108272333Y-3709299D01*
X105393666Y-3709299D01*
X105393666Y-2456233D01*
X105190467Y-2456233D01*
X105190467Y-3709299D01*
G37*
X105190467Y-3709299D02*
X105391976Y-3709299D01*
X105397055Y-3806666D01*
X105402133Y-3904033D01*
X108272333Y-3912691D01*
X108272333Y-3710342D01*
X108479767Y-3705587D01*
X108687200Y-3700833D01*
X108692241Y-3594999D01*
X108697283Y-3489166D01*
X108881933Y-3489166D01*
X108881933Y-3099699D01*
X108695666Y-3099699D01*
X108695666Y-3489166D01*
X108272333Y-3489166D01*
X108272333Y-3709299D01*
X105393666Y-3709299D01*
X105393666Y-2456233D01*
X105190467Y-2456233D01*
X105190467Y-3709299D01*
G36*
X104987267Y-2456233D02*
G01*
X105190467Y-2456233D01*
X105190467Y-2066766D01*
X104987267Y-2066766D01*
X104987267Y-2456233D01*
G37*
X104987267Y-2456233D02*
X105190467Y-2456233D01*
X105190467Y-2066766D01*
X104987267Y-2066766D01*
X104987267Y-2456233D01*
G36*
X104563933Y-1863566D02*
G01*
X104563933Y-2066766D01*
X104987267Y-2066766D01*
X104987267Y-1863566D01*
X104565549Y-1863566D01*
X104555467Y-1651900D01*
X104266575Y-1647280D01*
X104170887Y-1646413D01*
X104087196Y-1646913D01*
X104021287Y-1648643D01*
X103978945Y-1651467D01*
X103966008Y-1654336D01*
X103959702Y-1676399D01*
X103955463Y-1721398D01*
X103954333Y-1764788D01*
X103954333Y-1863566D01*
X104563933Y-1863566D01*
G37*
X104563933Y-1863566D02*
X104563933Y-2066766D01*
X104987267Y-2066766D01*
X104987267Y-1863566D01*
X104565549Y-1863566D01*
X104555467Y-1651900D01*
X104266575Y-1647280D01*
X104170887Y-1646413D01*
X104087196Y-1646913D01*
X104021287Y-1648643D01*
X103978945Y-1651467D01*
X103966008Y-1654336D01*
X103959702Y-1676399D01*
X103955463Y-1721398D01*
X103954333Y-1764788D01*
X103954333Y-1863566D01*
X104563933Y-1863566D01*
G36*
X103954333Y-1863566D02*
G01*
X103751133Y-1863566D01*
X103751133Y-2066766D01*
X103954333Y-2066766D01*
X103954333Y-1863566D01*
G37*
X103954333Y-1863566D02*
X103751133Y-1863566D01*
X103751133Y-2066766D01*
X103954333Y-2066766D01*
X103954333Y-1863566D01*
G36*
X103954333Y-5961433D02*
G01*
X103954333Y-5759849D01*
X104060166Y-5754808D01*
X104166000Y-5749766D01*
X104170624Y-5449199D01*
X104175248Y-5148633D01*
X104562317Y-5148633D01*
X104567358Y-5042799D01*
X104572400Y-4936966D01*
X104779833Y-4932212D01*
X104987267Y-4927457D01*
X104987267Y-4115700D01*
X104563933Y-4115700D01*
X104563933Y-3912499D01*
X104361097Y-3912499D01*
X104352267Y-2464699D01*
X104263367Y-2459581D01*
X104174466Y-2454463D01*
X104174466Y-2066766D01*
X103954333Y-2066766D01*
X103954333Y-2456233D01*
X104174466Y-2456233D01*
X104174466Y-5147017D01*
X103962800Y-5157099D01*
X103953552Y-5758233D01*
X102294867Y-5758233D01*
X102294867Y-5961433D01*
X103954333Y-5961433D01*
G37*
X103954333Y-5961433D02*
X103954333Y-5759849D01*
X104060166Y-5754808D01*
X104166000Y-5749766D01*
X104170624Y-5449199D01*
X104175248Y-5148633D01*
X104562317Y-5148633D01*
X104567358Y-5042799D01*
X104572400Y-4936966D01*
X104779833Y-4932212D01*
X104987267Y-4927457D01*
X104987267Y-4115700D01*
X104563933Y-4115700D01*
X104563933Y-3912499D01*
X104361097Y-3912499D01*
X104352267Y-2464699D01*
X104263367Y-2459581D01*
X104174466Y-2454463D01*
X104174466Y-2066766D01*
X103954333Y-2066766D01*
X103954333Y-2456233D01*
X104174466Y-2456233D01*
X104174466Y-5147017D01*
X103962800Y-5157099D01*
X103953552Y-5758233D01*
X102294867Y-5758233D01*
X102294867Y-5961433D01*
X103954333Y-5961433D01*
G36*
X102294867Y-5961433D02*
G01*
X102091667Y-5961433D01*
X102091667Y-6587966D01*
X102294867Y-6587966D01*
X102294867Y-5961433D01*
G37*
X102294867Y-5961433D02*
X102091667Y-5961433D01*
X102091667Y-6587966D01*
X102294867Y-6587966D01*
X102294867Y-5961433D01*
G36*
X102718200Y-6587966D02*
G01*
X102294867Y-6587966D01*
X102294867Y-6774233D01*
X102718200Y-6774233D01*
X102718200Y-6587966D01*
G37*
X102718200Y-6587966D02*
X102294867Y-6587966D01*
X102294867Y-6774233D01*
X102718200Y-6774233D01*
X102718200Y-6587966D01*
G36*
X104987267Y-8027299D02*
G01*
X104563933Y-8027299D01*
X104563933Y-8230499D01*
X105190467Y-8230499D01*
X105190467Y-7620899D01*
X104987267Y-7620899D01*
X104987267Y-8027299D01*
G37*
X104987267Y-8027299D02*
X104563933Y-8027299D01*
X104563933Y-8230499D01*
X105190467Y-8230499D01*
X105190467Y-7620899D01*
X104987267Y-7620899D01*
X104987267Y-8027299D01*
G36*
X104987267Y-6587966D02*
G01*
X104987267Y-6773190D01*
X104779833Y-6777945D01*
X104572400Y-6782699D01*
X104567871Y-7201800D01*
X104563342Y-7620899D01*
X104987267Y-7620899D01*
X104987267Y-6774233D01*
X105190467Y-6774233D01*
X105190467Y-6587966D01*
X104987267Y-6587966D01*
G37*
X104987267Y-6587966D02*
X104987267Y-6773190D01*
X104779833Y-6777945D01*
X104572400Y-6782699D01*
X104567871Y-7201800D01*
X104563342Y-7620899D01*
X104987267Y-7620899D01*
X104987267Y-6774233D01*
X105190467Y-6774233D01*
X105190467Y-6587966D01*
X104987267Y-6587966D01*
G36*
X103954333Y-6994366D02*
G01*
X103751133Y-6994366D01*
X103751133Y-7197566D01*
X103954333Y-7197566D01*
X103954333Y-6994366D01*
G37*
X103954333Y-6994366D02*
X103751133Y-6994366D01*
X103751133Y-7197566D01*
X103954333Y-7197566D01*
X103954333Y-6994366D01*
%TO.C,X4*%
G36*
X127728734Y-2595934D02*
G01*
X127931934Y-2595934D01*
X127931934Y-2799134D01*
X128116584Y-2799134D01*
X128121625Y-2904967D01*
X128126667Y-3010801D01*
X128223177Y-3015853D01*
X128319687Y-3020906D01*
X128324777Y-3108987D01*
X128329867Y-3197067D01*
X128537300Y-3201822D01*
X128744734Y-3206576D01*
X128744734Y-3611934D01*
X128956400Y-3611872D01*
X128956400Y-3823601D01*
X129155367Y-3828371D01*
X129354334Y-3833142D01*
X129354334Y-4220491D01*
X129769200Y-4230001D01*
X129773955Y-4437434D01*
X129778709Y-4644867D01*
X131013800Y-4644867D01*
X131013800Y-4221534D01*
X131437133Y-4221534D01*
X131437133Y-4035267D01*
X131623400Y-4035267D01*
X131623400Y-3832067D01*
X132453134Y-3832067D01*
X132453134Y-3612092D01*
X130704767Y-3607780D01*
X128956400Y-3603467D01*
X128951629Y-3404500D01*
X128946859Y-3205534D01*
X128744734Y-3205534D01*
X128744734Y-3019267D01*
X128321400Y-3019267D01*
X128321400Y-2799134D01*
X128118200Y-2799134D01*
X128118200Y-2595934D01*
X127932681Y-2595934D01*
X127923467Y-1960934D01*
X127826929Y-1955880D01*
X127730392Y-1950827D01*
X127725329Y-2057480D01*
X127720267Y-2164134D01*
X127618667Y-2172601D01*
X127517067Y-2181067D01*
X127512650Y-2896501D01*
X127508233Y-3611934D01*
X127728734Y-3611934D01*
X127728734Y-2595934D01*
G37*
X127728734Y-2595934D02*
X127931934Y-2595934D01*
X127931934Y-2799134D01*
X128116584Y-2799134D01*
X128121625Y-2904967D01*
X128126667Y-3010801D01*
X128223177Y-3015853D01*
X128319687Y-3020906D01*
X128324777Y-3108987D01*
X128329867Y-3197067D01*
X128537300Y-3201822D01*
X128744734Y-3206576D01*
X128744734Y-3611934D01*
X128956400Y-3611872D01*
X128956400Y-3823601D01*
X129155367Y-3828371D01*
X129354334Y-3833142D01*
X129354334Y-4220491D01*
X129769200Y-4230001D01*
X129773955Y-4437434D01*
X129778709Y-4644867D01*
X131013800Y-4644867D01*
X131013800Y-4221534D01*
X131437133Y-4221534D01*
X131437133Y-4035267D01*
X131623400Y-4035267D01*
X131623400Y-3832067D01*
X132453134Y-3832067D01*
X132453134Y-3612092D01*
X130704767Y-3607780D01*
X128956400Y-3603467D01*
X128951629Y-3404500D01*
X128946859Y-3205534D01*
X128744734Y-3205534D01*
X128744734Y-3019267D01*
X128321400Y-3019267D01*
X128321400Y-2799134D01*
X128118200Y-2799134D01*
X128118200Y-2595934D01*
X127932681Y-2595934D01*
X127923467Y-1960934D01*
X127826929Y-1955880D01*
X127730392Y-1950827D01*
X127725329Y-2057480D01*
X127720267Y-2164134D01*
X127618667Y-2172601D01*
X127517067Y-2181067D01*
X127512650Y-2896501D01*
X127508233Y-3611934D01*
X127728734Y-3611934D01*
X127728734Y-2595934D01*
G36*
X133486067Y-1952467D02*
G01*
X133687651Y-1952467D01*
X133692692Y-2058300D01*
X133697733Y-2164134D01*
X134298867Y-2173382D01*
X134298867Y-1766201D01*
X134095667Y-1766201D01*
X134095667Y-1952467D01*
X133689267Y-1952467D01*
X133689267Y-1766201D01*
X133486067Y-1766201D01*
X133486067Y-1952467D01*
G37*
X133486067Y-1952467D02*
X133687651Y-1952467D01*
X133692692Y-2058300D01*
X133697733Y-2164134D01*
X134298867Y-2173382D01*
X134298867Y-1766201D01*
X134095667Y-1766201D01*
X134095667Y-1952467D01*
X133689267Y-1952467D01*
X133689267Y-1766201D01*
X133486067Y-1766201D01*
X133486067Y-1952467D01*
G36*
X135331800Y-2799134D02*
G01*
X135120134Y-2799196D01*
X135131608Y-2595934D01*
X134908467Y-2595934D01*
X134908467Y-1766201D01*
X134722200Y-1766201D01*
X134722200Y-1563001D01*
X134298867Y-1563001D01*
X134298867Y-1766201D01*
X134721598Y-1766201D01*
X134726132Y-2176834D01*
X134730667Y-2587467D01*
X134819567Y-2592585D01*
X134908467Y-2597704D01*
X134908467Y-2797518D01*
X135014300Y-2802559D01*
X135120134Y-2807601D01*
X135130216Y-3019267D01*
X135331800Y-3019267D01*
X135331800Y-2799134D01*
G37*
X135331800Y-2799134D02*
X135120134Y-2799196D01*
X135131608Y-2595934D01*
X134908467Y-2595934D01*
X134908467Y-1766201D01*
X134722200Y-1766201D01*
X134722200Y-1563001D01*
X134298867Y-1563001D01*
X134298867Y-1766201D01*
X134721598Y-1766201D01*
X134726132Y-2176834D01*
X134730667Y-2587467D01*
X134819567Y-2592585D01*
X134908467Y-2597704D01*
X134908467Y-2797518D01*
X135014300Y-2802559D01*
X135120134Y-2807601D01*
X135130216Y-3019267D01*
X135331800Y-3019267D01*
X135331800Y-2799134D01*
G36*
X129354334Y-7337267D02*
G01*
X129168067Y-7337267D01*
X129168067Y-6693801D01*
X129079167Y-6694060D01*
X129024396Y-6696687D01*
X128982244Y-6703114D01*
X128968697Y-6708008D01*
X128960635Y-6721604D01*
X128955063Y-6752999D01*
X128951782Y-6805950D01*
X128950591Y-6884218D01*
X128951289Y-6991561D01*
X128951764Y-7025249D01*
X128956400Y-7328801D01*
X129062234Y-7333842D01*
X129168067Y-7338883D01*
X129168067Y-7726734D01*
X129354334Y-7726734D01*
X129354334Y-7337267D01*
G37*
X129354334Y-7337267D02*
X129168067Y-7337267D01*
X129168067Y-6693801D01*
X129079167Y-6694060D01*
X129024396Y-6696687D01*
X128982244Y-6703114D01*
X128968697Y-6708008D01*
X128960635Y-6721604D01*
X128955063Y-6752999D01*
X128951782Y-6805950D01*
X128950591Y-6884218D01*
X128951289Y-6991561D01*
X128951764Y-7025249D01*
X128956400Y-7328801D01*
X129062234Y-7333842D01*
X129168067Y-7338883D01*
X129168067Y-7726734D01*
X129354334Y-7726734D01*
X129354334Y-7337267D01*
G36*
X128321400Y-7929934D02*
G01*
X128743117Y-7929934D01*
X128748159Y-8035767D01*
X128753200Y-8141600D01*
X129345867Y-8141600D01*
X129350908Y-8035767D01*
X129355950Y-7929934D01*
X129777667Y-7929934D01*
X129777667Y-7726734D01*
X129354334Y-7726734D01*
X129354334Y-7929934D01*
X128744734Y-7929934D01*
X128744734Y-7726734D01*
X128321400Y-7726734D01*
X128321400Y-7929934D01*
G37*
X128321400Y-7929934D02*
X128743117Y-7929934D01*
X128748159Y-8035767D01*
X128753200Y-8141600D01*
X129345867Y-8141600D01*
X129350908Y-8035767D01*
X129355950Y-7929934D01*
X129777667Y-7929934D01*
X129777667Y-7726734D01*
X129354334Y-7726734D01*
X129354334Y-7929934D01*
X128744734Y-7929934D01*
X128744734Y-7726734D01*
X128321400Y-7726734D01*
X128321400Y-7929934D01*
G36*
X128118200Y-7726734D02*
G01*
X128321400Y-7726734D01*
X128321400Y-7337267D01*
X128118200Y-7337267D01*
X128118200Y-7726734D01*
G37*
X128118200Y-7726734D02*
X128321400Y-7726734D01*
X128321400Y-7337267D01*
X128118200Y-7337267D01*
X128118200Y-7726734D01*
G36*
X127931934Y-5677800D02*
G01*
X127931934Y-7337267D01*
X128118200Y-7337267D01*
X128118200Y-5677800D01*
X127931934Y-5677800D01*
G37*
X127931934Y-5677800D02*
X127931934Y-7337267D01*
X128118200Y-7337267D01*
X128118200Y-5677800D01*
X127931934Y-5677800D01*
G36*
X128118200Y-5677800D02*
G01*
X128321400Y-5677800D01*
X128321400Y-4221534D01*
X128118200Y-4221534D01*
X128118200Y-5677800D01*
G37*
X128118200Y-5677800D02*
X128321400Y-5677800D01*
X128321400Y-4221534D01*
X128118200Y-4221534D01*
X128118200Y-5677800D01*
G36*
X127931934Y-4221534D02*
G01*
X128118200Y-4221534D01*
X128118200Y-3832067D01*
X127931934Y-3832067D01*
X127931934Y-4221534D01*
G37*
X127931934Y-4221534D02*
X128118200Y-4221534D01*
X128118200Y-3832067D01*
X127931934Y-3832067D01*
X127931934Y-4221534D01*
G36*
X127728734Y-3832067D02*
G01*
X127931934Y-3832067D01*
X127931934Y-3611934D01*
X127728734Y-3611934D01*
X127728734Y-3832067D01*
G37*
X127728734Y-3832067D02*
X127931934Y-3832067D01*
X127931934Y-3611934D01*
X127728734Y-3611934D01*
X127728734Y-3832067D01*
G36*
X132453134Y-3205534D02*
G01*
X132453134Y-3611934D01*
X132859533Y-3611934D01*
X132859533Y-3205534D01*
X132453134Y-3205534D01*
G37*
X132453134Y-3205534D02*
X132453134Y-3611934D01*
X132859533Y-3611934D01*
X132859533Y-3205534D01*
X132453134Y-3205534D01*
G36*
X132859533Y-6084201D02*
G01*
X132658024Y-6084201D01*
X132652945Y-5986834D01*
X132647867Y-5889467D01*
X129777667Y-5880809D01*
X129777667Y-6083158D01*
X129570233Y-6087913D01*
X129362800Y-6092667D01*
X129357759Y-6198501D01*
X129352717Y-6304334D01*
X129168067Y-6304334D01*
X129168067Y-6693801D01*
X129354334Y-6693801D01*
X129354334Y-6304334D01*
X129777667Y-6304334D01*
X129777667Y-6084201D01*
X132656334Y-6084201D01*
X132656334Y-7337267D01*
X132859533Y-7337267D01*
X132859533Y-6084201D01*
G37*
X132859533Y-6084201D02*
X132658024Y-6084201D01*
X132652945Y-5986834D01*
X132647867Y-5889467D01*
X129777667Y-5880809D01*
X129777667Y-6083158D01*
X129570233Y-6087913D01*
X129362800Y-6092667D01*
X129357759Y-6198501D01*
X129352717Y-6304334D01*
X129168067Y-6304334D01*
X129168067Y-6693801D01*
X129354334Y-6693801D01*
X129354334Y-6304334D01*
X129777667Y-6304334D01*
X129777667Y-6084201D01*
X132656334Y-6084201D01*
X132656334Y-7337267D01*
X132859533Y-7337267D01*
X132859533Y-6084201D01*
G36*
X133062733Y-7337267D02*
G01*
X132859533Y-7337267D01*
X132859533Y-7726734D01*
X133062733Y-7726734D01*
X133062733Y-7337267D01*
G37*
X133062733Y-7337267D02*
X132859533Y-7337267D01*
X132859533Y-7726734D01*
X133062733Y-7726734D01*
X133062733Y-7337267D01*
G36*
X133486067Y-7929934D02*
G01*
X133486067Y-7726734D01*
X133062733Y-7726734D01*
X133062733Y-7929934D01*
X133484451Y-7929934D01*
X133494533Y-8141600D01*
X133783425Y-8146220D01*
X133879113Y-8147087D01*
X133962804Y-8146587D01*
X134028713Y-8144857D01*
X134071055Y-8142033D01*
X134083992Y-8139164D01*
X134090298Y-8117101D01*
X134094537Y-8072102D01*
X134095667Y-8028712D01*
X134095667Y-7929934D01*
X133486067Y-7929934D01*
G37*
X133486067Y-7929934D02*
X133486067Y-7726734D01*
X133062733Y-7726734D01*
X133062733Y-7929934D01*
X133484451Y-7929934D01*
X133494533Y-8141600D01*
X133783425Y-8146220D01*
X133879113Y-8147087D01*
X133962804Y-8146587D01*
X134028713Y-8144857D01*
X134071055Y-8142033D01*
X134083992Y-8139164D01*
X134090298Y-8117101D01*
X134094537Y-8072102D01*
X134095667Y-8028712D01*
X134095667Y-7929934D01*
X133486067Y-7929934D01*
G36*
X134095667Y-7929934D02*
G01*
X134298867Y-7929934D01*
X134298867Y-7726734D01*
X134095667Y-7726734D01*
X134095667Y-7929934D01*
G37*
X134095667Y-7929934D02*
X134298867Y-7929934D01*
X134298867Y-7726734D01*
X134095667Y-7726734D01*
X134095667Y-7929934D01*
G36*
X134095667Y-3832067D02*
G01*
X134095667Y-4033651D01*
X133989834Y-4038692D01*
X133884000Y-4043734D01*
X133879376Y-4344301D01*
X133874752Y-4644867D01*
X133487683Y-4644867D01*
X133482642Y-4750701D01*
X133477600Y-4856534D01*
X133270167Y-4861288D01*
X133062733Y-4866043D01*
X133062733Y-5677800D01*
X133486067Y-5677800D01*
X133486067Y-5881001D01*
X133688903Y-5881001D01*
X133697733Y-7328801D01*
X133786633Y-7333919D01*
X133875534Y-7339037D01*
X133875534Y-7726734D01*
X134095667Y-7726734D01*
X134095667Y-7337267D01*
X133875534Y-7337267D01*
X133875534Y-4646483D01*
X134087200Y-4636401D01*
X134096448Y-4035267D01*
X135755133Y-4035267D01*
X135755133Y-3832067D01*
X134095667Y-3832067D01*
G37*
X134095667Y-3832067D02*
X134095667Y-4033651D01*
X133989834Y-4038692D01*
X133884000Y-4043734D01*
X133879376Y-4344301D01*
X133874752Y-4644867D01*
X133487683Y-4644867D01*
X133482642Y-4750701D01*
X133477600Y-4856534D01*
X133270167Y-4861288D01*
X133062733Y-4866043D01*
X133062733Y-5677800D01*
X133486067Y-5677800D01*
X133486067Y-5881001D01*
X133688903Y-5881001D01*
X133697733Y-7328801D01*
X133786633Y-7333919D01*
X133875534Y-7339037D01*
X133875534Y-7726734D01*
X134095667Y-7726734D01*
X134095667Y-7337267D01*
X133875534Y-7337267D01*
X133875534Y-4646483D01*
X134087200Y-4636401D01*
X134096448Y-4035267D01*
X135755133Y-4035267D01*
X135755133Y-3832067D01*
X134095667Y-3832067D01*
G36*
X135755133Y-3832067D02*
G01*
X135958333Y-3832067D01*
X135958333Y-3205534D01*
X135755133Y-3205534D01*
X135755133Y-3832067D01*
G37*
X135755133Y-3832067D02*
X135958333Y-3832067D01*
X135958333Y-3205534D01*
X135755133Y-3205534D01*
X135755133Y-3832067D01*
G36*
X135331800Y-3205534D02*
G01*
X135755133Y-3205534D01*
X135755133Y-3019267D01*
X135331800Y-3019267D01*
X135331800Y-3205534D01*
G37*
X135331800Y-3205534D02*
X135755133Y-3205534D01*
X135755133Y-3019267D01*
X135331800Y-3019267D01*
X135331800Y-3205534D01*
G36*
X133062733Y-1766201D02*
G01*
X133486067Y-1766201D01*
X133486067Y-1563001D01*
X132859533Y-1563001D01*
X132859533Y-2172601D01*
X133062733Y-2172601D01*
X133062733Y-1766201D01*
G37*
X133062733Y-1766201D02*
X133486067Y-1766201D01*
X133486067Y-1563001D01*
X132859533Y-1563001D01*
X132859533Y-2172601D01*
X133062733Y-2172601D01*
X133062733Y-1766201D01*
G36*
X133062733Y-3205534D02*
G01*
X133062733Y-3020310D01*
X133270167Y-3015555D01*
X133477600Y-3010801D01*
X133482129Y-2591700D01*
X133486658Y-2172601D01*
X133062733Y-2172601D01*
X133062733Y-3019267D01*
X132859533Y-3019267D01*
X132859533Y-3205534D01*
X133062733Y-3205534D01*
G37*
X133062733Y-3205534D02*
X133062733Y-3020310D01*
X133270167Y-3015555D01*
X133477600Y-3010801D01*
X133482129Y-2591700D01*
X133486658Y-2172601D01*
X133062733Y-2172601D01*
X133062733Y-3019267D01*
X132859533Y-3019267D01*
X132859533Y-3205534D01*
X133062733Y-3205534D01*
G36*
X134095667Y-2799134D02*
G01*
X134298867Y-2799134D01*
X134298867Y-2595934D01*
X134095667Y-2595934D01*
X134095667Y-2799134D01*
G37*
X134095667Y-2799134D02*
X134298867Y-2799134D01*
X134298867Y-2595934D01*
X134095667Y-2595934D01*
X134095667Y-2799134D01*
D15*
%TO.C,IC4*%
X86317880Y-1513880D02*
X86317880Y-8313880D01*
X86317880Y-8313880D02*
X99117880Y-8313880D01*
X99117880Y-8313880D02*
X99117880Y-1513880D01*
X99117880Y-1513880D02*
X86317880Y-1513880D01*
X86327880Y786120D02*
X86327880Y-1163880D01*
%TO.C,IC2*%
X137979880Y-8313880D02*
X137979880Y-1513880D01*
X137979880Y-1513880D02*
X125179880Y-1513880D01*
X125179880Y-1513880D02*
X125179880Y-8313880D01*
X125179880Y-8313880D02*
X137979880Y-8313880D01*
X137969880Y-10613880D02*
X137969880Y-8663880D01*
%TO.C,IC1*%
X125025880Y-8313880D02*
X125025880Y-1513880D01*
X125025880Y-1513880D02*
X112225880Y-1513880D01*
X112225880Y-1513880D02*
X112225880Y-8313880D01*
X112225880Y-8313880D02*
X125025880Y-8313880D01*
X125015880Y-10613880D02*
X125015880Y-8663880D01*
D16*
%TO.C,X5*%
G36*
X114393734Y-2595934D02*
G01*
X114596934Y-2595934D01*
X114596934Y-2799134D01*
X114781584Y-2799134D01*
X114786625Y-2904967D01*
X114791667Y-3010801D01*
X114888177Y-3015853D01*
X114984687Y-3020906D01*
X114989777Y-3108987D01*
X114994867Y-3197067D01*
X115202300Y-3201822D01*
X115409734Y-3206576D01*
X115409734Y-3611934D01*
X115621400Y-3611872D01*
X115621400Y-3823601D01*
X115820367Y-3828371D01*
X116019334Y-3833142D01*
X116019334Y-4220491D01*
X116434200Y-4230001D01*
X116438955Y-4437434D01*
X116443709Y-4644867D01*
X117678800Y-4644867D01*
X117678800Y-4221534D01*
X118102133Y-4221534D01*
X118102133Y-4035267D01*
X118288400Y-4035267D01*
X118288400Y-3832067D01*
X119118134Y-3832067D01*
X119118134Y-3612092D01*
X117369767Y-3607780D01*
X115621400Y-3603467D01*
X115616629Y-3404500D01*
X115611859Y-3205534D01*
X115409734Y-3205534D01*
X115409734Y-3019267D01*
X114986400Y-3019267D01*
X114986400Y-2799134D01*
X114783200Y-2799134D01*
X114783200Y-2595934D01*
X114597681Y-2595934D01*
X114588467Y-1960934D01*
X114491929Y-1955880D01*
X114395392Y-1950827D01*
X114390329Y-2057480D01*
X114385267Y-2164134D01*
X114283667Y-2172601D01*
X114182067Y-2181067D01*
X114177650Y-2896501D01*
X114173233Y-3611934D01*
X114393734Y-3611934D01*
X114393734Y-2595934D01*
G37*
X114393734Y-2595934D02*
X114596934Y-2595934D01*
X114596934Y-2799134D01*
X114781584Y-2799134D01*
X114786625Y-2904967D01*
X114791667Y-3010801D01*
X114888177Y-3015853D01*
X114984687Y-3020906D01*
X114989777Y-3108987D01*
X114994867Y-3197067D01*
X115202300Y-3201822D01*
X115409734Y-3206576D01*
X115409734Y-3611934D01*
X115621400Y-3611872D01*
X115621400Y-3823601D01*
X115820367Y-3828371D01*
X116019334Y-3833142D01*
X116019334Y-4220491D01*
X116434200Y-4230001D01*
X116438955Y-4437434D01*
X116443709Y-4644867D01*
X117678800Y-4644867D01*
X117678800Y-4221534D01*
X118102133Y-4221534D01*
X118102133Y-4035267D01*
X118288400Y-4035267D01*
X118288400Y-3832067D01*
X119118134Y-3832067D01*
X119118134Y-3612092D01*
X117369767Y-3607780D01*
X115621400Y-3603467D01*
X115616629Y-3404500D01*
X115611859Y-3205534D01*
X115409734Y-3205534D01*
X115409734Y-3019267D01*
X114986400Y-3019267D01*
X114986400Y-2799134D01*
X114783200Y-2799134D01*
X114783200Y-2595934D01*
X114597681Y-2595934D01*
X114588467Y-1960934D01*
X114491929Y-1955880D01*
X114395392Y-1950827D01*
X114390329Y-2057480D01*
X114385267Y-2164134D01*
X114283667Y-2172601D01*
X114182067Y-2181067D01*
X114177650Y-2896501D01*
X114173233Y-3611934D01*
X114393734Y-3611934D01*
X114393734Y-2595934D01*
G36*
X120151067Y-1952467D02*
G01*
X120352651Y-1952467D01*
X120357692Y-2058300D01*
X120362733Y-2164134D01*
X120963867Y-2173382D01*
X120963867Y-1766201D01*
X120760667Y-1766201D01*
X120760667Y-1952467D01*
X120354267Y-1952467D01*
X120354267Y-1766201D01*
X120151067Y-1766201D01*
X120151067Y-1952467D01*
G37*
X120151067Y-1952467D02*
X120352651Y-1952467D01*
X120357692Y-2058300D01*
X120362733Y-2164134D01*
X120963867Y-2173382D01*
X120963867Y-1766201D01*
X120760667Y-1766201D01*
X120760667Y-1952467D01*
X120354267Y-1952467D01*
X120354267Y-1766201D01*
X120151067Y-1766201D01*
X120151067Y-1952467D01*
G36*
X121996800Y-2799134D02*
G01*
X121785134Y-2799196D01*
X121796608Y-2595934D01*
X121573467Y-2595934D01*
X121573467Y-1766201D01*
X121387200Y-1766201D01*
X121387200Y-1563001D01*
X120963867Y-1563001D01*
X120963867Y-1766201D01*
X121386598Y-1766201D01*
X121391132Y-2176834D01*
X121395667Y-2587467D01*
X121484567Y-2592585D01*
X121573467Y-2597704D01*
X121573467Y-2797518D01*
X121679300Y-2802559D01*
X121785134Y-2807601D01*
X121795216Y-3019267D01*
X121996800Y-3019267D01*
X121996800Y-2799134D01*
G37*
X121996800Y-2799134D02*
X121785134Y-2799196D01*
X121796608Y-2595934D01*
X121573467Y-2595934D01*
X121573467Y-1766201D01*
X121387200Y-1766201D01*
X121387200Y-1563001D01*
X120963867Y-1563001D01*
X120963867Y-1766201D01*
X121386598Y-1766201D01*
X121391132Y-2176834D01*
X121395667Y-2587467D01*
X121484567Y-2592585D01*
X121573467Y-2597704D01*
X121573467Y-2797518D01*
X121679300Y-2802559D01*
X121785134Y-2807601D01*
X121795216Y-3019267D01*
X121996800Y-3019267D01*
X121996800Y-2799134D01*
G36*
X116019334Y-7337267D02*
G01*
X115833067Y-7337267D01*
X115833067Y-6693801D01*
X115744167Y-6694060D01*
X115689396Y-6696687D01*
X115647244Y-6703114D01*
X115633697Y-6708008D01*
X115625635Y-6721604D01*
X115620063Y-6752999D01*
X115616782Y-6805950D01*
X115615591Y-6884218D01*
X115616289Y-6991561D01*
X115616764Y-7025249D01*
X115621400Y-7328801D01*
X115727234Y-7333842D01*
X115833067Y-7338883D01*
X115833067Y-7726734D01*
X116019334Y-7726734D01*
X116019334Y-7337267D01*
G37*
X116019334Y-7337267D02*
X115833067Y-7337267D01*
X115833067Y-6693801D01*
X115744167Y-6694060D01*
X115689396Y-6696687D01*
X115647244Y-6703114D01*
X115633697Y-6708008D01*
X115625635Y-6721604D01*
X115620063Y-6752999D01*
X115616782Y-6805950D01*
X115615591Y-6884218D01*
X115616289Y-6991561D01*
X115616764Y-7025249D01*
X115621400Y-7328801D01*
X115727234Y-7333842D01*
X115833067Y-7338883D01*
X115833067Y-7726734D01*
X116019334Y-7726734D01*
X116019334Y-7337267D01*
G36*
X114986400Y-7929934D02*
G01*
X115408117Y-7929934D01*
X115413159Y-8035767D01*
X115418200Y-8141600D01*
X116010867Y-8141600D01*
X116015908Y-8035767D01*
X116020950Y-7929934D01*
X116442667Y-7929934D01*
X116442667Y-7726734D01*
X116019334Y-7726734D01*
X116019334Y-7929934D01*
X115409734Y-7929934D01*
X115409734Y-7726734D01*
X114986400Y-7726734D01*
X114986400Y-7929934D01*
G37*
X114986400Y-7929934D02*
X115408117Y-7929934D01*
X115413159Y-8035767D01*
X115418200Y-8141600D01*
X116010867Y-8141600D01*
X116015908Y-8035767D01*
X116020950Y-7929934D01*
X116442667Y-7929934D01*
X116442667Y-7726734D01*
X116019334Y-7726734D01*
X116019334Y-7929934D01*
X115409734Y-7929934D01*
X115409734Y-7726734D01*
X114986400Y-7726734D01*
X114986400Y-7929934D01*
G36*
X114783200Y-7726734D02*
G01*
X114986400Y-7726734D01*
X114986400Y-7337267D01*
X114783200Y-7337267D01*
X114783200Y-7726734D01*
G37*
X114783200Y-7726734D02*
X114986400Y-7726734D01*
X114986400Y-7337267D01*
X114783200Y-7337267D01*
X114783200Y-7726734D01*
G36*
X114596934Y-5677800D02*
G01*
X114596934Y-7337267D01*
X114783200Y-7337267D01*
X114783200Y-5677800D01*
X114596934Y-5677800D01*
G37*
X114596934Y-5677800D02*
X114596934Y-7337267D01*
X114783200Y-7337267D01*
X114783200Y-5677800D01*
X114596934Y-5677800D01*
G36*
X114783200Y-5677800D02*
G01*
X114986400Y-5677800D01*
X114986400Y-4221534D01*
X114783200Y-4221534D01*
X114783200Y-5677800D01*
G37*
X114783200Y-5677800D02*
X114986400Y-5677800D01*
X114986400Y-4221534D01*
X114783200Y-4221534D01*
X114783200Y-5677800D01*
G36*
X114596934Y-4221534D02*
G01*
X114783200Y-4221534D01*
X114783200Y-3832067D01*
X114596934Y-3832067D01*
X114596934Y-4221534D01*
G37*
X114596934Y-4221534D02*
X114783200Y-4221534D01*
X114783200Y-3832067D01*
X114596934Y-3832067D01*
X114596934Y-4221534D01*
G36*
X114393734Y-3832067D02*
G01*
X114596934Y-3832067D01*
X114596934Y-3611934D01*
X114393734Y-3611934D01*
X114393734Y-3832067D01*
G37*
X114393734Y-3832067D02*
X114596934Y-3832067D01*
X114596934Y-3611934D01*
X114393734Y-3611934D01*
X114393734Y-3832067D01*
G36*
X119118134Y-3205534D02*
G01*
X119118134Y-3611934D01*
X119524533Y-3611934D01*
X119524533Y-3205534D01*
X119118134Y-3205534D01*
G37*
X119118134Y-3205534D02*
X119118134Y-3611934D01*
X119524533Y-3611934D01*
X119524533Y-3205534D01*
X119118134Y-3205534D01*
G36*
X119524533Y-6084201D02*
G01*
X119323024Y-6084201D01*
X119317945Y-5986834D01*
X119312867Y-5889467D01*
X116442667Y-5880809D01*
X116442667Y-6083158D01*
X116235233Y-6087913D01*
X116027800Y-6092667D01*
X116022759Y-6198501D01*
X116017717Y-6304334D01*
X115833067Y-6304334D01*
X115833067Y-6693801D01*
X116019334Y-6693801D01*
X116019334Y-6304334D01*
X116442667Y-6304334D01*
X116442667Y-6084201D01*
X119321334Y-6084201D01*
X119321334Y-7337267D01*
X119524533Y-7337267D01*
X119524533Y-6084201D01*
G37*
X119524533Y-6084201D02*
X119323024Y-6084201D01*
X119317945Y-5986834D01*
X119312867Y-5889467D01*
X116442667Y-5880809D01*
X116442667Y-6083158D01*
X116235233Y-6087913D01*
X116027800Y-6092667D01*
X116022759Y-6198501D01*
X116017717Y-6304334D01*
X115833067Y-6304334D01*
X115833067Y-6693801D01*
X116019334Y-6693801D01*
X116019334Y-6304334D01*
X116442667Y-6304334D01*
X116442667Y-6084201D01*
X119321334Y-6084201D01*
X119321334Y-7337267D01*
X119524533Y-7337267D01*
X119524533Y-6084201D01*
G36*
X119727733Y-7337267D02*
G01*
X119524533Y-7337267D01*
X119524533Y-7726734D01*
X119727733Y-7726734D01*
X119727733Y-7337267D01*
G37*
X119727733Y-7337267D02*
X119524533Y-7337267D01*
X119524533Y-7726734D01*
X119727733Y-7726734D01*
X119727733Y-7337267D01*
G36*
X120151067Y-7929934D02*
G01*
X120151067Y-7726734D01*
X119727733Y-7726734D01*
X119727733Y-7929934D01*
X120149451Y-7929934D01*
X120159533Y-8141600D01*
X120448425Y-8146220D01*
X120544113Y-8147087D01*
X120627804Y-8146587D01*
X120693713Y-8144857D01*
X120736055Y-8142033D01*
X120748992Y-8139164D01*
X120755298Y-8117101D01*
X120759537Y-8072102D01*
X120760667Y-8028712D01*
X120760667Y-7929934D01*
X120151067Y-7929934D01*
G37*
X120151067Y-7929934D02*
X120151067Y-7726734D01*
X119727733Y-7726734D01*
X119727733Y-7929934D01*
X120149451Y-7929934D01*
X120159533Y-8141600D01*
X120448425Y-8146220D01*
X120544113Y-8147087D01*
X120627804Y-8146587D01*
X120693713Y-8144857D01*
X120736055Y-8142033D01*
X120748992Y-8139164D01*
X120755298Y-8117101D01*
X120759537Y-8072102D01*
X120760667Y-8028712D01*
X120760667Y-7929934D01*
X120151067Y-7929934D01*
G36*
X120760667Y-7929934D02*
G01*
X120963867Y-7929934D01*
X120963867Y-7726734D01*
X120760667Y-7726734D01*
X120760667Y-7929934D01*
G37*
X120760667Y-7929934D02*
X120963867Y-7929934D01*
X120963867Y-7726734D01*
X120760667Y-7726734D01*
X120760667Y-7929934D01*
G36*
X120760667Y-3832067D02*
G01*
X120760667Y-4033651D01*
X120654834Y-4038692D01*
X120549000Y-4043734D01*
X120544376Y-4344301D01*
X120539752Y-4644867D01*
X120152683Y-4644867D01*
X120147642Y-4750701D01*
X120142600Y-4856534D01*
X119935167Y-4861288D01*
X119727733Y-4866043D01*
X119727733Y-5677800D01*
X120151067Y-5677800D01*
X120151067Y-5881001D01*
X120353903Y-5881001D01*
X120362733Y-7328801D01*
X120451633Y-7333919D01*
X120540534Y-7339037D01*
X120540534Y-7726734D01*
X120760667Y-7726734D01*
X120760667Y-7337267D01*
X120540534Y-7337267D01*
X120540534Y-4646483D01*
X120752200Y-4636401D01*
X120761448Y-4035267D01*
X122420133Y-4035267D01*
X122420133Y-3832067D01*
X120760667Y-3832067D01*
G37*
X120760667Y-3832067D02*
X120760667Y-4033651D01*
X120654834Y-4038692D01*
X120549000Y-4043734D01*
X120544376Y-4344301D01*
X120539752Y-4644867D01*
X120152683Y-4644867D01*
X120147642Y-4750701D01*
X120142600Y-4856534D01*
X119935167Y-4861288D01*
X119727733Y-4866043D01*
X119727733Y-5677800D01*
X120151067Y-5677800D01*
X120151067Y-5881001D01*
X120353903Y-5881001D01*
X120362733Y-7328801D01*
X120451633Y-7333919D01*
X120540534Y-7339037D01*
X120540534Y-7726734D01*
X120760667Y-7726734D01*
X120760667Y-7337267D01*
X120540534Y-7337267D01*
X120540534Y-4646483D01*
X120752200Y-4636401D01*
X120761448Y-4035267D01*
X122420133Y-4035267D01*
X122420133Y-3832067D01*
X120760667Y-3832067D01*
G36*
X122420133Y-3832067D02*
G01*
X122623333Y-3832067D01*
X122623333Y-3205534D01*
X122420133Y-3205534D01*
X122420133Y-3832067D01*
G37*
X122420133Y-3832067D02*
X122623333Y-3832067D01*
X122623333Y-3205534D01*
X122420133Y-3205534D01*
X122420133Y-3832067D01*
G36*
X121996800Y-3205534D02*
G01*
X122420133Y-3205534D01*
X122420133Y-3019267D01*
X121996800Y-3019267D01*
X121996800Y-3205534D01*
G37*
X121996800Y-3205534D02*
X122420133Y-3205534D01*
X122420133Y-3019267D01*
X121996800Y-3019267D01*
X121996800Y-3205534D01*
G36*
X119727733Y-1766201D02*
G01*
X120151067Y-1766201D01*
X120151067Y-1563001D01*
X119524533Y-1563001D01*
X119524533Y-2172601D01*
X119727733Y-2172601D01*
X119727733Y-1766201D01*
G37*
X119727733Y-1766201D02*
X120151067Y-1766201D01*
X120151067Y-1563001D01*
X119524533Y-1563001D01*
X119524533Y-2172601D01*
X119727733Y-2172601D01*
X119727733Y-1766201D01*
G36*
X119727733Y-3205534D02*
G01*
X119727733Y-3020310D01*
X119935167Y-3015555D01*
X120142600Y-3010801D01*
X120147129Y-2591700D01*
X120151658Y-2172601D01*
X119727733Y-2172601D01*
X119727733Y-3019267D01*
X119524533Y-3019267D01*
X119524533Y-3205534D01*
X119727733Y-3205534D01*
G37*
X119727733Y-3205534D02*
X119727733Y-3020310D01*
X119935167Y-3015555D01*
X120142600Y-3010801D01*
X120147129Y-2591700D01*
X120151658Y-2172601D01*
X119727733Y-2172601D01*
X119727733Y-3019267D01*
X119524533Y-3019267D01*
X119524533Y-3205534D01*
X119727733Y-3205534D01*
G36*
X120760667Y-2799134D02*
G01*
X120963867Y-2799134D01*
X120963867Y-2595934D01*
X120760667Y-2595934D01*
X120760667Y-2799134D01*
G37*
X120760667Y-2799134D02*
X120963867Y-2799134D01*
X120963867Y-2595934D01*
X120760667Y-2595934D01*
X120760667Y-2799134D01*
%TO.C,X2*%
G36*
X96795766Y-7134066D02*
G01*
X96592566Y-7134066D01*
X96592566Y-6930866D01*
X96407916Y-6930866D01*
X96402875Y-6825033D01*
X96397833Y-6719199D01*
X96301323Y-6714147D01*
X96204813Y-6709094D01*
X96199723Y-6621013D01*
X96194633Y-6532933D01*
X95987200Y-6528178D01*
X95779766Y-6523424D01*
X95779766Y-6118066D01*
X95568100Y-6118128D01*
X95568100Y-5906399D01*
X95369133Y-5901629D01*
X95170166Y-5896858D01*
X95170166Y-5509509D01*
X94755300Y-5499999D01*
X94750545Y-5292566D01*
X94745791Y-5085133D01*
X93510700Y-5085133D01*
X93510700Y-5508466D01*
X93087367Y-5508466D01*
X93087367Y-5694733D01*
X92901100Y-5694733D01*
X92901100Y-5897933D01*
X92071366Y-5897933D01*
X92071366Y-6117908D01*
X93819733Y-6122220D01*
X95568100Y-6126533D01*
X95572871Y-6325500D01*
X95577641Y-6524466D01*
X95779766Y-6524466D01*
X95779766Y-6710733D01*
X96203100Y-6710733D01*
X96203100Y-6930866D01*
X96406300Y-6930866D01*
X96406300Y-7134066D01*
X96591819Y-7134066D01*
X96601033Y-7769066D01*
X96697571Y-7774120D01*
X96794108Y-7779173D01*
X96799171Y-7672520D01*
X96804233Y-7565866D01*
X96905833Y-7557399D01*
X97007433Y-7548933D01*
X97011850Y-6833499D01*
X97016267Y-6118066D01*
X96795766Y-6118066D01*
X96795766Y-7134066D01*
G37*
X96795766Y-7134066D02*
X96592566Y-7134066D01*
X96592566Y-6930866D01*
X96407916Y-6930866D01*
X96402875Y-6825033D01*
X96397833Y-6719199D01*
X96301323Y-6714147D01*
X96204813Y-6709094D01*
X96199723Y-6621013D01*
X96194633Y-6532933D01*
X95987200Y-6528178D01*
X95779766Y-6523424D01*
X95779766Y-6118066D01*
X95568100Y-6118128D01*
X95568100Y-5906399D01*
X95369133Y-5901629D01*
X95170166Y-5896858D01*
X95170166Y-5509509D01*
X94755300Y-5499999D01*
X94750545Y-5292566D01*
X94745791Y-5085133D01*
X93510700Y-5085133D01*
X93510700Y-5508466D01*
X93087367Y-5508466D01*
X93087367Y-5694733D01*
X92901100Y-5694733D01*
X92901100Y-5897933D01*
X92071366Y-5897933D01*
X92071366Y-6117908D01*
X93819733Y-6122220D01*
X95568100Y-6126533D01*
X95572871Y-6325500D01*
X95577641Y-6524466D01*
X95779766Y-6524466D01*
X95779766Y-6710733D01*
X96203100Y-6710733D01*
X96203100Y-6930866D01*
X96406300Y-6930866D01*
X96406300Y-7134066D01*
X96591819Y-7134066D01*
X96601033Y-7769066D01*
X96697571Y-7774120D01*
X96794108Y-7779173D01*
X96799171Y-7672520D01*
X96804233Y-7565866D01*
X96905833Y-7557399D01*
X97007433Y-7548933D01*
X97011850Y-6833499D01*
X97016267Y-6118066D01*
X96795766Y-6118066D01*
X96795766Y-7134066D01*
G36*
X91038433Y-7777533D02*
G01*
X90836849Y-7777533D01*
X90831808Y-7671700D01*
X90826767Y-7565866D01*
X90225633Y-7556618D01*
X90225633Y-7963799D01*
X90428833Y-7963799D01*
X90428833Y-7777533D01*
X90835233Y-7777533D01*
X90835233Y-7963799D01*
X91038433Y-7963799D01*
X91038433Y-7777533D01*
G37*
X91038433Y-7777533D02*
X90836849Y-7777533D01*
X90831808Y-7671700D01*
X90826767Y-7565866D01*
X90225633Y-7556618D01*
X90225633Y-7963799D01*
X90428833Y-7963799D01*
X90428833Y-7777533D01*
X90835233Y-7777533D01*
X90835233Y-7963799D01*
X91038433Y-7963799D01*
X91038433Y-7777533D01*
G36*
X89192700Y-6930866D02*
G01*
X89404366Y-6930804D01*
X89392892Y-7134066D01*
X89616033Y-7134066D01*
X89616033Y-7963799D01*
X89802300Y-7963799D01*
X89802300Y-8166999D01*
X90225633Y-8166999D01*
X90225633Y-7963799D01*
X89802902Y-7963799D01*
X89798368Y-7553166D01*
X89793833Y-7142533D01*
X89704933Y-7137415D01*
X89616033Y-7132296D01*
X89616033Y-6932482D01*
X89510200Y-6927441D01*
X89404366Y-6922399D01*
X89394284Y-6710733D01*
X89192700Y-6710733D01*
X89192700Y-6930866D01*
G37*
X89192700Y-6930866D02*
X89404366Y-6930804D01*
X89392892Y-7134066D01*
X89616033Y-7134066D01*
X89616033Y-7963799D01*
X89802300Y-7963799D01*
X89802300Y-8166999D01*
X90225633Y-8166999D01*
X90225633Y-7963799D01*
X89802902Y-7963799D01*
X89798368Y-7553166D01*
X89793833Y-7142533D01*
X89704933Y-7137415D01*
X89616033Y-7132296D01*
X89616033Y-6932482D01*
X89510200Y-6927441D01*
X89404366Y-6922399D01*
X89394284Y-6710733D01*
X89192700Y-6710733D01*
X89192700Y-6930866D01*
G36*
X95170166Y-2392733D02*
G01*
X95356433Y-2392733D01*
X95356433Y-3036199D01*
X95445333Y-3035940D01*
X95500104Y-3033313D01*
X95542256Y-3026886D01*
X95555803Y-3021992D01*
X95563865Y-3008396D01*
X95569437Y-2977001D01*
X95572718Y-2924050D01*
X95573909Y-2845782D01*
X95573211Y-2738439D01*
X95572736Y-2704751D01*
X95568100Y-2401199D01*
X95462266Y-2396158D01*
X95356433Y-2391117D01*
X95356433Y-2003266D01*
X95170166Y-2003266D01*
X95170166Y-2392733D01*
G37*
X95170166Y-2392733D02*
X95356433Y-2392733D01*
X95356433Y-3036199D01*
X95445333Y-3035940D01*
X95500104Y-3033313D01*
X95542256Y-3026886D01*
X95555803Y-3021992D01*
X95563865Y-3008396D01*
X95569437Y-2977001D01*
X95572718Y-2924050D01*
X95573909Y-2845782D01*
X95573211Y-2738439D01*
X95572736Y-2704751D01*
X95568100Y-2401199D01*
X95462266Y-2396158D01*
X95356433Y-2391117D01*
X95356433Y-2003266D01*
X95170166Y-2003266D01*
X95170166Y-2392733D01*
G36*
X96203100Y-1800066D02*
G01*
X95781383Y-1800066D01*
X95776341Y-1694233D01*
X95771300Y-1588400D01*
X95178633Y-1588400D01*
X95173592Y-1694233D01*
X95168550Y-1800066D01*
X94746833Y-1800066D01*
X94746833Y-2003266D01*
X95170166Y-2003266D01*
X95170166Y-1800066D01*
X95779766Y-1800066D01*
X95779766Y-2003266D01*
X96203100Y-2003266D01*
X96203100Y-1800066D01*
G37*
X96203100Y-1800066D02*
X95781383Y-1800066D01*
X95776341Y-1694233D01*
X95771300Y-1588400D01*
X95178633Y-1588400D01*
X95173592Y-1694233D01*
X95168550Y-1800066D01*
X94746833Y-1800066D01*
X94746833Y-2003266D01*
X95170166Y-2003266D01*
X95170166Y-1800066D01*
X95779766Y-1800066D01*
X95779766Y-2003266D01*
X96203100Y-2003266D01*
X96203100Y-1800066D01*
G36*
X96406300Y-2003266D02*
G01*
X96203100Y-2003266D01*
X96203100Y-2392733D01*
X96406300Y-2392733D01*
X96406300Y-2003266D01*
G37*
X96406300Y-2003266D02*
X96203100Y-2003266D01*
X96203100Y-2392733D01*
X96406300Y-2392733D01*
X96406300Y-2003266D01*
G36*
X96592566Y-4052200D02*
G01*
X96592566Y-2392733D01*
X96406300Y-2392733D01*
X96406300Y-4052200D01*
X96592566Y-4052200D01*
G37*
X96592566Y-4052200D02*
X96592566Y-2392733D01*
X96406300Y-2392733D01*
X96406300Y-4052200D01*
X96592566Y-4052200D01*
G36*
X96406300Y-4052200D02*
G01*
X96203100Y-4052200D01*
X96203100Y-5508466D01*
X96406300Y-5508466D01*
X96406300Y-4052200D01*
G37*
X96406300Y-4052200D02*
X96203100Y-4052200D01*
X96203100Y-5508466D01*
X96406300Y-5508466D01*
X96406300Y-4052200D01*
G36*
X96592566Y-5508466D02*
G01*
X96406300Y-5508466D01*
X96406300Y-5897933D01*
X96592566Y-5897933D01*
X96592566Y-5508466D01*
G37*
X96592566Y-5508466D02*
X96406300Y-5508466D01*
X96406300Y-5897933D01*
X96592566Y-5897933D01*
X96592566Y-5508466D01*
G36*
X96795766Y-5897933D02*
G01*
X96592566Y-5897933D01*
X96592566Y-6118066D01*
X96795766Y-6118066D01*
X96795766Y-5897933D01*
G37*
X96795766Y-5897933D02*
X96592566Y-5897933D01*
X96592566Y-6118066D01*
X96795766Y-6118066D01*
X96795766Y-5897933D01*
G36*
X92071366Y-6524466D02*
G01*
X92071366Y-6118066D01*
X91664967Y-6118066D01*
X91664967Y-6524466D01*
X92071366Y-6524466D01*
G37*
X92071366Y-6524466D02*
X92071366Y-6118066D01*
X91664967Y-6118066D01*
X91664967Y-6524466D01*
X92071366Y-6524466D01*
G36*
X91664967Y-3645799D02*
G01*
X91866476Y-3645799D01*
X91871555Y-3743166D01*
X91876633Y-3840533D01*
X94746833Y-3849191D01*
X94746833Y-3646842D01*
X94954267Y-3642087D01*
X95161700Y-3637333D01*
X95166741Y-3531499D01*
X95171783Y-3425666D01*
X95356433Y-3425666D01*
X95356433Y-3036199D01*
X95170166Y-3036199D01*
X95170166Y-3425666D01*
X94746833Y-3425666D01*
X94746833Y-3645799D01*
X91868166Y-3645799D01*
X91868166Y-2392733D01*
X91664967Y-2392733D01*
X91664967Y-3645799D01*
G37*
X91664967Y-3645799D02*
X91866476Y-3645799D01*
X91871555Y-3743166D01*
X91876633Y-3840533D01*
X94746833Y-3849191D01*
X94746833Y-3646842D01*
X94954267Y-3642087D01*
X95161700Y-3637333D01*
X95166741Y-3531499D01*
X95171783Y-3425666D01*
X95356433Y-3425666D01*
X95356433Y-3036199D01*
X95170166Y-3036199D01*
X95170166Y-3425666D01*
X94746833Y-3425666D01*
X94746833Y-3645799D01*
X91868166Y-3645799D01*
X91868166Y-2392733D01*
X91664967Y-2392733D01*
X91664967Y-3645799D01*
G36*
X91461767Y-2392733D02*
G01*
X91664967Y-2392733D01*
X91664967Y-2003266D01*
X91461767Y-2003266D01*
X91461767Y-2392733D01*
G37*
X91461767Y-2392733D02*
X91664967Y-2392733D01*
X91664967Y-2003266D01*
X91461767Y-2003266D01*
X91461767Y-2392733D01*
G36*
X91038433Y-1800066D02*
G01*
X91038433Y-2003266D01*
X91461767Y-2003266D01*
X91461767Y-1800066D01*
X91040049Y-1800066D01*
X91029967Y-1588400D01*
X90741075Y-1583780D01*
X90645387Y-1582913D01*
X90561696Y-1583413D01*
X90495787Y-1585143D01*
X90453445Y-1587967D01*
X90440508Y-1590836D01*
X90434202Y-1612899D01*
X90429963Y-1657898D01*
X90428833Y-1701288D01*
X90428833Y-1800066D01*
X91038433Y-1800066D01*
G37*
X91038433Y-1800066D02*
X91038433Y-2003266D01*
X91461767Y-2003266D01*
X91461767Y-1800066D01*
X91040049Y-1800066D01*
X91029967Y-1588400D01*
X90741075Y-1583780D01*
X90645387Y-1582913D01*
X90561696Y-1583413D01*
X90495787Y-1585143D01*
X90453445Y-1587967D01*
X90440508Y-1590836D01*
X90434202Y-1612899D01*
X90429963Y-1657898D01*
X90428833Y-1701288D01*
X90428833Y-1800066D01*
X91038433Y-1800066D01*
G36*
X90428833Y-1800066D02*
G01*
X90225633Y-1800066D01*
X90225633Y-2003266D01*
X90428833Y-2003266D01*
X90428833Y-1800066D01*
G37*
X90428833Y-1800066D02*
X90225633Y-1800066D01*
X90225633Y-2003266D01*
X90428833Y-2003266D01*
X90428833Y-1800066D01*
G36*
X90428833Y-5897933D02*
G01*
X90428833Y-5696349D01*
X90534666Y-5691308D01*
X90640500Y-5686266D01*
X90645124Y-5385699D01*
X90649748Y-5085133D01*
X91036817Y-5085133D01*
X91041858Y-4979299D01*
X91046900Y-4873466D01*
X91254333Y-4868712D01*
X91461767Y-4863957D01*
X91461767Y-4052200D01*
X91038433Y-4052200D01*
X91038433Y-3848999D01*
X90835597Y-3848999D01*
X90826767Y-2401199D01*
X90737867Y-2396081D01*
X90648966Y-2390963D01*
X90648966Y-2003266D01*
X90428833Y-2003266D01*
X90428833Y-2392733D01*
X90648966Y-2392733D01*
X90648966Y-5083517D01*
X90437300Y-5093599D01*
X90428052Y-5694733D01*
X88769367Y-5694733D01*
X88769367Y-5897933D01*
X90428833Y-5897933D01*
G37*
X90428833Y-5897933D02*
X90428833Y-5696349D01*
X90534666Y-5691308D01*
X90640500Y-5686266D01*
X90645124Y-5385699D01*
X90649748Y-5085133D01*
X91036817Y-5085133D01*
X91041858Y-4979299D01*
X91046900Y-4873466D01*
X91254333Y-4868712D01*
X91461767Y-4863957D01*
X91461767Y-4052200D01*
X91038433Y-4052200D01*
X91038433Y-3848999D01*
X90835597Y-3848999D01*
X90826767Y-2401199D01*
X90737867Y-2396081D01*
X90648966Y-2390963D01*
X90648966Y-2003266D01*
X90428833Y-2003266D01*
X90428833Y-2392733D01*
X90648966Y-2392733D01*
X90648966Y-5083517D01*
X90437300Y-5093599D01*
X90428052Y-5694733D01*
X88769367Y-5694733D01*
X88769367Y-5897933D01*
X90428833Y-5897933D01*
G36*
X88769367Y-5897933D02*
G01*
X88566167Y-5897933D01*
X88566167Y-6524466D01*
X88769367Y-6524466D01*
X88769367Y-5897933D01*
G37*
X88769367Y-5897933D02*
X88566167Y-5897933D01*
X88566167Y-6524466D01*
X88769367Y-6524466D01*
X88769367Y-5897933D01*
G36*
X89192700Y-6524466D02*
G01*
X88769367Y-6524466D01*
X88769367Y-6710733D01*
X89192700Y-6710733D01*
X89192700Y-6524466D01*
G37*
X89192700Y-6524466D02*
X88769367Y-6524466D01*
X88769367Y-6710733D01*
X89192700Y-6710733D01*
X89192700Y-6524466D01*
G36*
X91461767Y-7963799D02*
G01*
X91038433Y-7963799D01*
X91038433Y-8166999D01*
X91664967Y-8166999D01*
X91664967Y-7557399D01*
X91461767Y-7557399D01*
X91461767Y-7963799D01*
G37*
X91461767Y-7963799D02*
X91038433Y-7963799D01*
X91038433Y-8166999D01*
X91664967Y-8166999D01*
X91664967Y-7557399D01*
X91461767Y-7557399D01*
X91461767Y-7963799D01*
G36*
X91461767Y-6524466D02*
G01*
X91461767Y-6709690D01*
X91254333Y-6714445D01*
X91046900Y-6719199D01*
X91042371Y-7138300D01*
X91037842Y-7557399D01*
X91461767Y-7557399D01*
X91461767Y-6710733D01*
X91664967Y-6710733D01*
X91664967Y-6524466D01*
X91461767Y-6524466D01*
G37*
X91461767Y-6524466D02*
X91461767Y-6709690D01*
X91254333Y-6714445D01*
X91046900Y-6719199D01*
X91042371Y-7138300D01*
X91037842Y-7557399D01*
X91461767Y-7557399D01*
X91461767Y-6710733D01*
X91664967Y-6710733D01*
X91664967Y-6524466D01*
X91461767Y-6524466D01*
G36*
X90428833Y-6930866D02*
G01*
X90225633Y-6930866D01*
X90225633Y-7134066D01*
X90428833Y-7134066D01*
X90428833Y-6930866D01*
G37*
X90428833Y-6930866D02*
X90225633Y-6930866D01*
X90225633Y-7134066D01*
X90428833Y-7134066D01*
X90428833Y-6930866D01*
%TD*%
%TO.C,J2*%
D10*
X144090333Y-6548880D02*
X144090333Y-7263166D01*
X144137952Y-7406023D01*
X144233190Y-7501261D01*
X144376047Y-7548880D01*
X144471285Y-7548880D01*
X143661761Y-6644119D02*
X143614142Y-6596500D01*
X143518904Y-6548880D01*
X143280809Y-6548880D01*
X143185571Y-6596500D01*
X143137952Y-6644119D01*
X143090333Y-6739357D01*
X143090333Y-6834595D01*
X143137952Y-6977452D01*
X143709380Y-7548880D01*
X143090333Y-7548880D01*
%TO.C,J1*%
X85352380Y7133334D02*
X86066666Y7133334D01*
X86209523Y7180953D01*
X86304761Y7276191D01*
X86352380Y7419048D01*
X86352380Y7514286D01*
X86352380Y6133334D02*
X86352380Y6704762D01*
X86352380Y6419048D02*
X85352380Y6419048D01*
X85495238Y6514286D01*
X85590476Y6609524D01*
X85638095Y6704762D01*
%TO.C,IC3*%
D17*
X100784403Y-3659118D02*
X99514403Y-3659118D01*
X100663451Y-4989594D02*
X100723927Y-4929118D01*
X100784403Y-4747689D01*
X100784403Y-4626737D01*
X100723927Y-4445308D01*
X100602975Y-4324356D01*
X100482022Y-4263880D01*
X100240118Y-4203403D01*
X100058689Y-4203403D01*
X99816784Y-4263880D01*
X99695832Y-4324356D01*
X99574880Y-4445308D01*
X99514403Y-4626737D01*
X99514403Y-4747689D01*
X99574880Y-4929118D01*
X99635356Y-4989594D01*
X99514403Y-5412927D02*
X99514403Y-6199118D01*
X99998213Y-5775784D01*
X99998213Y-5957213D01*
X100058689Y-6078165D01*
X100119165Y-6138641D01*
X100240118Y-6199118D01*
X100542499Y-6199118D01*
X100663451Y-6138641D01*
X100723927Y-6078165D01*
X100784403Y-5957213D01*
X100784403Y-5594356D01*
X100723927Y-5473403D01*
X100663451Y-5412927D01*
%TO.C,IC4*%
X87744403Y-3489118D02*
X86474403Y-3489118D01*
X87623451Y-4819594D02*
X87683927Y-4759118D01*
X87744403Y-4577689D01*
X87744403Y-4456737D01*
X87683927Y-4275308D01*
X87562975Y-4154356D01*
X87442022Y-4093880D01*
X87200118Y-4033403D01*
X87018689Y-4033403D01*
X86776784Y-4093880D01*
X86655832Y-4154356D01*
X86534880Y-4275308D01*
X86474403Y-4456737D01*
X86474403Y-4577689D01*
X86534880Y-4759118D01*
X86595356Y-4819594D01*
X86897737Y-5908165D02*
X87744403Y-5908165D01*
X86413927Y-5605784D02*
X87321070Y-5303403D01*
X87321070Y-6089594D01*
%TO.C,IC2*%
X137564403Y-3789118D02*
X136294403Y-3789118D01*
X137443451Y-5119594D02*
X137503927Y-5059118D01*
X137564403Y-4877689D01*
X137564403Y-4756737D01*
X137503927Y-4575308D01*
X137382975Y-4454356D01*
X137262022Y-4393880D01*
X137020118Y-4333403D01*
X136838689Y-4333403D01*
X136596784Y-4393880D01*
X136475832Y-4454356D01*
X136354880Y-4575308D01*
X136294403Y-4756737D01*
X136294403Y-4877689D01*
X136354880Y-5059118D01*
X136415356Y-5119594D01*
X136415356Y-5603403D02*
X136354880Y-5663880D01*
X136294403Y-5784832D01*
X136294403Y-6087213D01*
X136354880Y-6208165D01*
X136415356Y-6268641D01*
X136536308Y-6329118D01*
X136657260Y-6329118D01*
X136838689Y-6268641D01*
X137564403Y-5542927D01*
X137564403Y-6329118D01*
%TO.C,IC1*%
X124454403Y-3339118D02*
X123184403Y-3339118D01*
X124333451Y-4669594D02*
X124393927Y-4609118D01*
X124454403Y-4427689D01*
X124454403Y-4306737D01*
X124393927Y-4125308D01*
X124272975Y-4004356D01*
X124152022Y-3943880D01*
X123910118Y-3883403D01*
X123728689Y-3883403D01*
X123486784Y-3943880D01*
X123365832Y-4004356D01*
X123244880Y-4125308D01*
X123184403Y-4306737D01*
X123184403Y-4427689D01*
X123244880Y-4609118D01*
X123305356Y-4669594D01*
X124454403Y-5879118D02*
X124454403Y-5153403D01*
X124454403Y-5516260D02*
X123184403Y-5516260D01*
X123365832Y-5395308D01*
X123486784Y-5274356D01*
X123547260Y-5153403D01*
%TD*%
M02*
