%TF.GenerationSoftware,KiCad,Pcbnew,(5.1.9-16-g1737927814)-1*%
%TF.CreationDate,2021-11-14T21:42:26-06:00*%
%TF.ProjectId,rascsi_zero,72617363-7369-45f7-9a65-726f2e6b6963,rev?*%
%TF.SameCoordinates,PX59d60c0PY325aa00*%
%TF.FileFunction,Soldermask,Top*%
%TF.FilePolarity,Negative*%
%FSLAX46Y46*%
G04 Gerber Fmt 4.6, Leading zero omitted, Abs format (unit mm)*
G04 Created by KiCad (PCBNEW (5.1.9-16-g1737927814)-1) date 2021-11-14 21:42:26*
%MOMM*%
%LPD*%
G01*
G04 APERTURE LIST*
%TA.AperFunction,Profile*%
%ADD10C,0.050000*%
%TD*%
%ADD11C,2.000000*%
%ADD12R,1.400000X0.400000*%
%ADD13C,5.400000*%
%ADD14O,1.700000X1.700000*%
%ADD15R,1.700000X1.700000*%
%ADD16C,4.845000*%
%ADD17C,1.545000*%
%ADD18C,0.150000*%
%ADD19R,1.100000X1.100000*%
G04 APERTURE END LIST*
D10*
X83800000Y-19700000D02*
X141800000Y-19700000D01*
X83800000Y-19700000D02*
G75*
G02*
X80300000Y-16200000I0J3500000D01*
G01*
X145300000Y-16200000D02*
G75*
G02*
X141800000Y-19700000I-3500000J0D01*
G01*
X80300000Y6800000D02*
X80300000Y-16200000D01*
X145300000Y6800000D02*
X145300000Y-16200000D01*
X83800000Y10300000D02*
X141800000Y10300000D01*
X80300000Y6800000D02*
G75*
G02*
X83800000Y10300000I3500000J0D01*
G01*
X141800000Y10300000D02*
G75*
G02*
X145300000Y6800000I0J-3500000D01*
G01*
%TO.C,R14*%
G36*
G01*
X137425201Y1075280D02*
X136525199Y1075280D01*
G75*
G02*
X136275200Y1325279I0J249999D01*
G01*
X136275200Y1850281D01*
G75*
G02*
X136525199Y2100280I249999J0D01*
G01*
X137425201Y2100280D01*
G75*
G02*
X137675200Y1850281I0J-249999D01*
G01*
X137675200Y1325279D01*
G75*
G02*
X137425201Y1075280I-249999J0D01*
G01*
G37*
G36*
G01*
X137425201Y-749720D02*
X136525199Y-749720D01*
G75*
G02*
X136275200Y-499721I0J249999D01*
G01*
X136275200Y25281D01*
G75*
G02*
X136525199Y275280I249999J0D01*
G01*
X137425201Y275280D01*
G75*
G02*
X137675200Y25281I0J-249999D01*
G01*
X137675200Y-499721D01*
G75*
G02*
X137425201Y-749720I-249999J0D01*
G01*
G37*
%TD*%
D11*
%TO.C,J3*%
X139950000Y-5775000D03*
X139950000Y1375000D03*
X143400000Y1375000D03*
X143400000Y-5775000D03*
D12*
X140450000Y-900000D03*
X140450000Y-1550000D03*
X140450000Y-2200000D03*
X140450000Y-2850000D03*
X140450000Y-3500000D03*
%TD*%
D13*
%TO.C,H4*%
X141800000Y-16200000D03*
%TD*%
%TO.C,H3*%
X83800000Y-16200000D03*
%TD*%
%TO.C,H2*%
X141800000Y6800000D03*
%TD*%
%TO.C,H1*%
X83800000Y6800000D03*
%TD*%
D14*
%TO.C,J2*%
X140836000Y-9192000D03*
D15*
X140836000Y-11732000D03*
%TD*%
D14*
%TO.C,J1*%
X136930000Y8070000D03*
X136930000Y5530000D03*
X134390000Y8070000D03*
X134390000Y5530000D03*
X131850000Y8070000D03*
X131850000Y5530000D03*
X129310000Y8070000D03*
X129310000Y5530000D03*
X126770000Y8070000D03*
X126770000Y5530000D03*
X124230000Y8070000D03*
X124230000Y5530000D03*
X121690000Y8070000D03*
X121690000Y5530000D03*
X119150000Y8070000D03*
X119150000Y5530000D03*
X116610000Y8070000D03*
X116610000Y5530000D03*
X114070000Y8070000D03*
X114070000Y5530000D03*
X111530000Y8070000D03*
X111530000Y5530000D03*
X108990000Y8070000D03*
X108990000Y5530000D03*
X106450000Y8070000D03*
X106450000Y5530000D03*
X103910000Y8070000D03*
X103910000Y5530000D03*
X101370000Y8070000D03*
X101370000Y5530000D03*
X98830000Y8070000D03*
X98830000Y5530000D03*
X96290000Y8070000D03*
X96290000Y5530000D03*
X93750000Y8070000D03*
X93750000Y5530000D03*
X91210000Y8070000D03*
X91210000Y5530000D03*
X88670000Y8070000D03*
D15*
X88670000Y5530000D03*
%TD*%
%TO.C,R59*%
G36*
G01*
X118222223Y-7103560D02*
X119122225Y-7103560D01*
G75*
G02*
X119372224Y-7353559I0J-249999D01*
G01*
X119372224Y-7878561D01*
G75*
G02*
X119122225Y-8128560I-249999J0D01*
G01*
X118222223Y-8128560D01*
G75*
G02*
X117972224Y-7878561I0J249999D01*
G01*
X117972224Y-7353559D01*
G75*
G02*
X118222223Y-7103560I249999J0D01*
G01*
G37*
G36*
G01*
X118222223Y-5278560D02*
X119122225Y-5278560D01*
G75*
G02*
X119372224Y-5528559I0J-249999D01*
G01*
X119372224Y-6053561D01*
G75*
G02*
X119122225Y-6303560I-249999J0D01*
G01*
X118222223Y-6303560D01*
G75*
G02*
X117972224Y-6053561I0J249999D01*
G01*
X117972224Y-5528559D01*
G75*
G02*
X118222223Y-5278560I249999J0D01*
G01*
G37*
%TD*%
D16*
%TO.C,J6*%
X89286320Y-14371200D03*
X136326320Y-14371200D03*
D17*
X97571320Y-15791200D03*
X100341320Y-15791200D03*
X103111320Y-15791200D03*
X105881320Y-15791200D03*
X108651320Y-15791200D03*
X111421320Y-15791200D03*
X114191320Y-15791200D03*
X116961320Y-15791200D03*
X119731320Y-15791200D03*
X122501320Y-15791200D03*
X125271320Y-15791200D03*
X128041320Y-15791200D03*
X96186320Y-12951200D03*
X98956320Y-12951200D03*
X101726320Y-12951200D03*
X104496320Y-12951200D03*
X107266320Y-12951200D03*
X110036320Y-12951200D03*
X112806320Y-12951200D03*
X115576320Y-12951200D03*
X118346320Y-12951200D03*
X121116320Y-12951200D03*
X123886320Y-12951200D03*
X126656320Y-12951200D03*
X129426320Y-12951200D03*
%TD*%
D18*
%TO.C,JP2*%
G36*
X107560000Y-3000000D02*
G01*
X107560000Y-2500000D01*
X107560602Y-2500000D01*
X107560602Y-2475466D01*
X107565412Y-2426635D01*
X107574984Y-2378510D01*
X107589228Y-2331555D01*
X107608005Y-2286222D01*
X107631136Y-2242949D01*
X107658396Y-2202150D01*
X107689524Y-2164221D01*
X107724221Y-2129524D01*
X107762150Y-2098396D01*
X107802949Y-2071136D01*
X107846222Y-2048005D01*
X107891555Y-2029228D01*
X107938510Y-2014984D01*
X107986635Y-2005412D01*
X108035466Y-2000602D01*
X108060000Y-2000602D01*
X108060000Y-2000000D01*
X108560000Y-2000000D01*
X108560000Y-2000602D01*
X108584534Y-2000602D01*
X108633365Y-2005412D01*
X108681490Y-2014984D01*
X108728445Y-2029228D01*
X108773778Y-2048005D01*
X108817051Y-2071136D01*
X108857850Y-2098396D01*
X108895779Y-2129524D01*
X108930476Y-2164221D01*
X108961604Y-2202150D01*
X108988864Y-2242949D01*
X109011995Y-2286222D01*
X109030772Y-2331555D01*
X109045016Y-2378510D01*
X109054588Y-2426635D01*
X109059398Y-2475466D01*
X109059398Y-2500000D01*
X109060000Y-2500000D01*
X109060000Y-3000000D01*
X107560000Y-3000000D01*
G37*
G36*
X109059398Y-3800000D02*
G01*
X109059398Y-3824534D01*
X109054588Y-3873365D01*
X109045016Y-3921490D01*
X109030772Y-3968445D01*
X109011995Y-4013778D01*
X108988864Y-4057051D01*
X108961604Y-4097850D01*
X108930476Y-4135779D01*
X108895779Y-4170476D01*
X108857850Y-4201604D01*
X108817051Y-4228864D01*
X108773778Y-4251995D01*
X108728445Y-4270772D01*
X108681490Y-4285016D01*
X108633365Y-4294588D01*
X108584534Y-4299398D01*
X108560000Y-4299398D01*
X108560000Y-4300000D01*
X108060000Y-4300000D01*
X108060000Y-4299398D01*
X108035466Y-4299398D01*
X107986635Y-4294588D01*
X107938510Y-4285016D01*
X107891555Y-4270772D01*
X107846222Y-4251995D01*
X107802949Y-4228864D01*
X107762150Y-4201604D01*
X107724221Y-4170476D01*
X107689524Y-4135779D01*
X107658396Y-4097850D01*
X107631136Y-4057051D01*
X107608005Y-4013778D01*
X107589228Y-3968445D01*
X107574984Y-3921490D01*
X107565412Y-3873365D01*
X107560602Y-3824534D01*
X107560602Y-3800000D01*
X107560000Y-3800000D01*
X107560000Y-3300000D01*
X109060000Y-3300000D01*
X109060000Y-3800000D01*
X109059398Y-3800000D01*
G37*
%TD*%
%TO.C,JP1*%
G36*
X107560000Y-6400400D02*
G01*
X107560000Y-5900400D01*
X107560602Y-5900400D01*
X107560602Y-5875866D01*
X107565412Y-5827035D01*
X107574984Y-5778910D01*
X107589228Y-5731955D01*
X107608005Y-5686622D01*
X107631136Y-5643349D01*
X107658396Y-5602550D01*
X107689524Y-5564621D01*
X107724221Y-5529924D01*
X107762150Y-5498796D01*
X107802949Y-5471536D01*
X107846222Y-5448405D01*
X107891555Y-5429628D01*
X107938510Y-5415384D01*
X107986635Y-5405812D01*
X108035466Y-5401002D01*
X108060000Y-5401002D01*
X108060000Y-5400400D01*
X108560000Y-5400400D01*
X108560000Y-5401002D01*
X108584534Y-5401002D01*
X108633365Y-5405812D01*
X108681490Y-5415384D01*
X108728445Y-5429628D01*
X108773778Y-5448405D01*
X108817051Y-5471536D01*
X108857850Y-5498796D01*
X108895779Y-5529924D01*
X108930476Y-5564621D01*
X108961604Y-5602550D01*
X108988864Y-5643349D01*
X109011995Y-5686622D01*
X109030772Y-5731955D01*
X109045016Y-5778910D01*
X109054588Y-5827035D01*
X109059398Y-5875866D01*
X109059398Y-5900400D01*
X109060000Y-5900400D01*
X109060000Y-6400400D01*
X107560000Y-6400400D01*
G37*
G36*
X109059398Y-7200400D02*
G01*
X109059398Y-7224934D01*
X109054588Y-7273765D01*
X109045016Y-7321890D01*
X109030772Y-7368845D01*
X109011995Y-7414178D01*
X108988864Y-7457451D01*
X108961604Y-7498250D01*
X108930476Y-7536179D01*
X108895779Y-7570876D01*
X108857850Y-7602004D01*
X108817051Y-7629264D01*
X108773778Y-7652395D01*
X108728445Y-7671172D01*
X108681490Y-7685416D01*
X108633365Y-7694988D01*
X108584534Y-7699798D01*
X108560000Y-7699798D01*
X108560000Y-7700400D01*
X108060000Y-7700400D01*
X108060000Y-7699798D01*
X108035466Y-7699798D01*
X107986635Y-7694988D01*
X107938510Y-7685416D01*
X107891555Y-7671172D01*
X107846222Y-7652395D01*
X107802949Y-7629264D01*
X107762150Y-7602004D01*
X107724221Y-7570876D01*
X107689524Y-7536179D01*
X107658396Y-7498250D01*
X107631136Y-7457451D01*
X107608005Y-7414178D01*
X107589228Y-7368845D01*
X107574984Y-7321890D01*
X107565412Y-7273765D01*
X107560602Y-7224934D01*
X107560602Y-7200400D01*
X107560000Y-7200400D01*
X107560000Y-6700400D01*
X109060000Y-6700400D01*
X109060000Y-7200400D01*
X109059398Y-7200400D01*
G37*
%TD*%
%TO.C,R58*%
G36*
G01*
X120285279Y-3414140D02*
X121185281Y-3414140D01*
G75*
G02*
X121435280Y-3664139I0J-249999D01*
G01*
X121435280Y-4189141D01*
G75*
G02*
X121185281Y-4439140I-249999J0D01*
G01*
X120285279Y-4439140D01*
G75*
G02*
X120035280Y-4189141I0J249999D01*
G01*
X120035280Y-3664139D01*
G75*
G02*
X120285279Y-3414140I249999J0D01*
G01*
G37*
G36*
G01*
X120285279Y-1589140D02*
X121185281Y-1589140D01*
G75*
G02*
X121435280Y-1839139I0J-249999D01*
G01*
X121435280Y-2364141D01*
G75*
G02*
X121185281Y-2614140I-249999J0D01*
G01*
X120285279Y-2614140D01*
G75*
G02*
X120035280Y-2364141I0J249999D01*
G01*
X120035280Y-1839139D01*
G75*
G02*
X120285279Y-1589140I249999J0D01*
G01*
G37*
%TD*%
%TO.C,R57*%
G36*
G01*
X122322209Y-3414140D02*
X123222211Y-3414140D01*
G75*
G02*
X123472210Y-3664139I0J-249999D01*
G01*
X123472210Y-4189141D01*
G75*
G02*
X123222211Y-4439140I-249999J0D01*
G01*
X122322209Y-4439140D01*
G75*
G02*
X122072210Y-4189141I0J249999D01*
G01*
X122072210Y-3664139D01*
G75*
G02*
X122322209Y-3414140I249999J0D01*
G01*
G37*
G36*
G01*
X122322209Y-1589140D02*
X123222211Y-1589140D01*
G75*
G02*
X123472210Y-1839139I0J-249999D01*
G01*
X123472210Y-2364141D01*
G75*
G02*
X123222211Y-2614140I-249999J0D01*
G01*
X122322209Y-2614140D01*
G75*
G02*
X122072210Y-2364141I0J249999D01*
G01*
X122072210Y-1839139D01*
G75*
G02*
X122322209Y-1589140I249999J0D01*
G01*
G37*
%TD*%
%TO.C,R56*%
G36*
G01*
X124359139Y-3414140D02*
X125259141Y-3414140D01*
G75*
G02*
X125509140Y-3664139I0J-249999D01*
G01*
X125509140Y-4189141D01*
G75*
G02*
X125259141Y-4439140I-249999J0D01*
G01*
X124359139Y-4439140D01*
G75*
G02*
X124109140Y-4189141I0J249999D01*
G01*
X124109140Y-3664139D01*
G75*
G02*
X124359139Y-3414140I249999J0D01*
G01*
G37*
G36*
G01*
X124359139Y-1589140D02*
X125259141Y-1589140D01*
G75*
G02*
X125509140Y-1839139I0J-249999D01*
G01*
X125509140Y-2364141D01*
G75*
G02*
X125259141Y-2614140I-249999J0D01*
G01*
X124359139Y-2614140D01*
G75*
G02*
X124109140Y-2364141I0J249999D01*
G01*
X124109140Y-1839139D01*
G75*
G02*
X124359139Y-1589140I249999J0D01*
G01*
G37*
%TD*%
%TO.C,R55*%
G36*
G01*
X126396069Y-3414140D02*
X127296071Y-3414140D01*
G75*
G02*
X127546070Y-3664139I0J-249999D01*
G01*
X127546070Y-4189141D01*
G75*
G02*
X127296071Y-4439140I-249999J0D01*
G01*
X126396069Y-4439140D01*
G75*
G02*
X126146070Y-4189141I0J249999D01*
G01*
X126146070Y-3664139D01*
G75*
G02*
X126396069Y-3414140I249999J0D01*
G01*
G37*
G36*
G01*
X126396069Y-1589140D02*
X127296071Y-1589140D01*
G75*
G02*
X127546070Y-1839139I0J-249999D01*
G01*
X127546070Y-2364141D01*
G75*
G02*
X127296071Y-2614140I-249999J0D01*
G01*
X126396069Y-2614140D01*
G75*
G02*
X126146070Y-2364141I0J249999D01*
G01*
X126146070Y-1839139D01*
G75*
G02*
X126396069Y-1589140I249999J0D01*
G01*
G37*
%TD*%
%TO.C,R54*%
G36*
G01*
X128432999Y-3414140D02*
X129333001Y-3414140D01*
G75*
G02*
X129583000Y-3664139I0J-249999D01*
G01*
X129583000Y-4189141D01*
G75*
G02*
X129333001Y-4439140I-249999J0D01*
G01*
X128432999Y-4439140D01*
G75*
G02*
X128183000Y-4189141I0J249999D01*
G01*
X128183000Y-3664139D01*
G75*
G02*
X128432999Y-3414140I249999J0D01*
G01*
G37*
G36*
G01*
X128432999Y-1589140D02*
X129333001Y-1589140D01*
G75*
G02*
X129583000Y-1839139I0J-249999D01*
G01*
X129583000Y-2364141D01*
G75*
G02*
X129333001Y-2614140I-249999J0D01*
G01*
X128432999Y-2614140D01*
G75*
G02*
X128183000Y-2364141I0J249999D01*
G01*
X128183000Y-1839139D01*
G75*
G02*
X128432999Y-1589140I249999J0D01*
G01*
G37*
%TD*%
%TO.C,R53*%
G36*
G01*
X130469929Y-3414140D02*
X131369931Y-3414140D01*
G75*
G02*
X131619930Y-3664139I0J-249999D01*
G01*
X131619930Y-4189141D01*
G75*
G02*
X131369931Y-4439140I-249999J0D01*
G01*
X130469929Y-4439140D01*
G75*
G02*
X130219930Y-4189141I0J249999D01*
G01*
X130219930Y-3664139D01*
G75*
G02*
X130469929Y-3414140I249999J0D01*
G01*
G37*
G36*
G01*
X130469929Y-1589140D02*
X131369931Y-1589140D01*
G75*
G02*
X131619930Y-1839139I0J-249999D01*
G01*
X131619930Y-2364141D01*
G75*
G02*
X131369931Y-2614140I-249999J0D01*
G01*
X130469929Y-2614140D01*
G75*
G02*
X130219930Y-2364141I0J249999D01*
G01*
X130219930Y-1839139D01*
G75*
G02*
X130469929Y-1589140I249999J0D01*
G01*
G37*
%TD*%
%TO.C,R52*%
G36*
G01*
X132506859Y-3414140D02*
X133406861Y-3414140D01*
G75*
G02*
X133656860Y-3664139I0J-249999D01*
G01*
X133656860Y-4189141D01*
G75*
G02*
X133406861Y-4439140I-249999J0D01*
G01*
X132506859Y-4439140D01*
G75*
G02*
X132256860Y-4189141I0J249999D01*
G01*
X132256860Y-3664139D01*
G75*
G02*
X132506859Y-3414140I249999J0D01*
G01*
G37*
G36*
G01*
X132506859Y-1589140D02*
X133406861Y-1589140D01*
G75*
G02*
X133656860Y-1839139I0J-249999D01*
G01*
X133656860Y-2364141D01*
G75*
G02*
X133406861Y-2614140I-249999J0D01*
G01*
X132506859Y-2614140D01*
G75*
G02*
X132256860Y-2364141I0J249999D01*
G01*
X132256860Y-1839139D01*
G75*
G02*
X132506859Y-1589140I249999J0D01*
G01*
G37*
%TD*%
%TO.C,R51*%
G36*
G01*
X134543789Y-3414140D02*
X135443791Y-3414140D01*
G75*
G02*
X135693790Y-3664139I0J-249999D01*
G01*
X135693790Y-4189141D01*
G75*
G02*
X135443791Y-4439140I-249999J0D01*
G01*
X134543789Y-4439140D01*
G75*
G02*
X134293790Y-4189141I0J249999D01*
G01*
X134293790Y-3664139D01*
G75*
G02*
X134543789Y-3414140I249999J0D01*
G01*
G37*
G36*
G01*
X134543789Y-1589140D02*
X135443791Y-1589140D01*
G75*
G02*
X135693790Y-1839139I0J-249999D01*
G01*
X135693790Y-2364141D01*
G75*
G02*
X135443791Y-2614140I-249999J0D01*
G01*
X134543789Y-2614140D01*
G75*
G02*
X134293790Y-2364141I0J249999D01*
G01*
X134293790Y-1839139D01*
G75*
G02*
X134543789Y-1589140I249999J0D01*
G01*
G37*
%TD*%
%TO.C,R50*%
G36*
G01*
X136525199Y-3414140D02*
X137425201Y-3414140D01*
G75*
G02*
X137675200Y-3664139I0J-249999D01*
G01*
X137675200Y-4189141D01*
G75*
G02*
X137425201Y-4439140I-249999J0D01*
G01*
X136525199Y-4439140D01*
G75*
G02*
X136275200Y-4189141I0J249999D01*
G01*
X136275200Y-3664139D01*
G75*
G02*
X136525199Y-3414140I249999J0D01*
G01*
G37*
G36*
G01*
X136525199Y-1589140D02*
X137425201Y-1589140D01*
G75*
G02*
X137675200Y-1839139I0J-249999D01*
G01*
X137675200Y-2364141D01*
G75*
G02*
X137425201Y-2614140I-249999J0D01*
G01*
X136525199Y-2614140D01*
G75*
G02*
X136275200Y-2364141I0J249999D01*
G01*
X136275200Y-1839139D01*
G75*
G02*
X136525199Y-1589140I249999J0D01*
G01*
G37*
%TD*%
%TO.C,R49*%
G36*
G01*
X95099389Y-3414140D02*
X95999391Y-3414140D01*
G75*
G02*
X96249390Y-3664139I0J-249999D01*
G01*
X96249390Y-4189141D01*
G75*
G02*
X95999391Y-4439140I-249999J0D01*
G01*
X95099389Y-4439140D01*
G75*
G02*
X94849390Y-4189141I0J249999D01*
G01*
X94849390Y-3664139D01*
G75*
G02*
X95099389Y-3414140I249999J0D01*
G01*
G37*
G36*
G01*
X95099389Y-1589140D02*
X95999391Y-1589140D01*
G75*
G02*
X96249390Y-1839139I0J-249999D01*
G01*
X96249390Y-2364141D01*
G75*
G02*
X95999391Y-2614140I-249999J0D01*
G01*
X95099389Y-2614140D01*
G75*
G02*
X94849390Y-2364141I0J249999D01*
G01*
X94849390Y-1839139D01*
G75*
G02*
X95099389Y-1589140I249999J0D01*
G01*
G37*
%TD*%
%TO.C,R48*%
G36*
G01*
X97136319Y-3414140D02*
X98036321Y-3414140D01*
G75*
G02*
X98286320Y-3664139I0J-249999D01*
G01*
X98286320Y-4189141D01*
G75*
G02*
X98036321Y-4439140I-249999J0D01*
G01*
X97136319Y-4439140D01*
G75*
G02*
X96886320Y-4189141I0J249999D01*
G01*
X96886320Y-3664139D01*
G75*
G02*
X97136319Y-3414140I249999J0D01*
G01*
G37*
G36*
G01*
X97136319Y-1589140D02*
X98036321Y-1589140D01*
G75*
G02*
X98286320Y-1839139I0J-249999D01*
G01*
X98286320Y-2364141D01*
G75*
G02*
X98036321Y-2614140I-249999J0D01*
G01*
X97136319Y-2614140D01*
G75*
G02*
X96886320Y-2364141I0J249999D01*
G01*
X96886320Y-1839139D01*
G75*
G02*
X97136319Y-1589140I249999J0D01*
G01*
G37*
%TD*%
%TO.C,R47*%
G36*
G01*
X99173249Y-3414140D02*
X100073251Y-3414140D01*
G75*
G02*
X100323250Y-3664139I0J-249999D01*
G01*
X100323250Y-4189141D01*
G75*
G02*
X100073251Y-4439140I-249999J0D01*
G01*
X99173249Y-4439140D01*
G75*
G02*
X98923250Y-4189141I0J249999D01*
G01*
X98923250Y-3664139D01*
G75*
G02*
X99173249Y-3414140I249999J0D01*
G01*
G37*
G36*
G01*
X99173249Y-1589140D02*
X100073251Y-1589140D01*
G75*
G02*
X100323250Y-1839139I0J-249999D01*
G01*
X100323250Y-2364141D01*
G75*
G02*
X100073251Y-2614140I-249999J0D01*
G01*
X99173249Y-2614140D01*
G75*
G02*
X98923250Y-2364141I0J249999D01*
G01*
X98923250Y-1839139D01*
G75*
G02*
X99173249Y-1589140I249999J0D01*
G01*
G37*
%TD*%
%TO.C,R46*%
G36*
G01*
X101210179Y-3414140D02*
X102110181Y-3414140D01*
G75*
G02*
X102360180Y-3664139I0J-249999D01*
G01*
X102360180Y-4189141D01*
G75*
G02*
X102110181Y-4439140I-249999J0D01*
G01*
X101210179Y-4439140D01*
G75*
G02*
X100960180Y-4189141I0J249999D01*
G01*
X100960180Y-3664139D01*
G75*
G02*
X101210179Y-3414140I249999J0D01*
G01*
G37*
G36*
G01*
X101210179Y-1589140D02*
X102110181Y-1589140D01*
G75*
G02*
X102360180Y-1839139I0J-249999D01*
G01*
X102360180Y-2364141D01*
G75*
G02*
X102110181Y-2614140I-249999J0D01*
G01*
X101210179Y-2614140D01*
G75*
G02*
X100960180Y-2364141I0J249999D01*
G01*
X100960180Y-1839139D01*
G75*
G02*
X101210179Y-1589140I249999J0D01*
G01*
G37*
%TD*%
%TO.C,R45*%
G36*
G01*
X103247109Y-3414140D02*
X104147111Y-3414140D01*
G75*
G02*
X104397110Y-3664139I0J-249999D01*
G01*
X104397110Y-4189141D01*
G75*
G02*
X104147111Y-4439140I-249999J0D01*
G01*
X103247109Y-4439140D01*
G75*
G02*
X102997110Y-4189141I0J249999D01*
G01*
X102997110Y-3664139D01*
G75*
G02*
X103247109Y-3414140I249999J0D01*
G01*
G37*
G36*
G01*
X103247109Y-1589140D02*
X104147111Y-1589140D01*
G75*
G02*
X104397110Y-1839139I0J-249999D01*
G01*
X104397110Y-2364141D01*
G75*
G02*
X104147111Y-2614140I-249999J0D01*
G01*
X103247109Y-2614140D01*
G75*
G02*
X102997110Y-2364141I0J249999D01*
G01*
X102997110Y-1839139D01*
G75*
G02*
X103247109Y-1589140I249999J0D01*
G01*
G37*
%TD*%
%TO.C,R44*%
G36*
G01*
X86951659Y-3414140D02*
X87851661Y-3414140D01*
G75*
G02*
X88101660Y-3664139I0J-249999D01*
G01*
X88101660Y-4189141D01*
G75*
G02*
X87851661Y-4439140I-249999J0D01*
G01*
X86951659Y-4439140D01*
G75*
G02*
X86701660Y-4189141I0J249999D01*
G01*
X86701660Y-3664139D01*
G75*
G02*
X86951659Y-3414140I249999J0D01*
G01*
G37*
G36*
G01*
X86951659Y-1589140D02*
X87851661Y-1589140D01*
G75*
G02*
X88101660Y-1839139I0J-249999D01*
G01*
X88101660Y-2364141D01*
G75*
G02*
X87851661Y-2614140I-249999J0D01*
G01*
X86951659Y-2614140D01*
G75*
G02*
X86701660Y-2364141I0J249999D01*
G01*
X86701660Y-1839139D01*
G75*
G02*
X86951659Y-1589140I249999J0D01*
G01*
G37*
%TD*%
%TO.C,R43*%
G36*
G01*
X88988599Y-3414140D02*
X89888601Y-3414140D01*
G75*
G02*
X90138600Y-3664139I0J-249999D01*
G01*
X90138600Y-4189141D01*
G75*
G02*
X89888601Y-4439140I-249999J0D01*
G01*
X88988599Y-4439140D01*
G75*
G02*
X88738600Y-4189141I0J249999D01*
G01*
X88738600Y-3664139D01*
G75*
G02*
X88988599Y-3414140I249999J0D01*
G01*
G37*
G36*
G01*
X88988599Y-1589140D02*
X89888601Y-1589140D01*
G75*
G02*
X90138600Y-1839139I0J-249999D01*
G01*
X90138600Y-2364141D01*
G75*
G02*
X89888601Y-2614140I-249999J0D01*
G01*
X88988599Y-2614140D01*
G75*
G02*
X88738600Y-2364141I0J249999D01*
G01*
X88738600Y-1839139D01*
G75*
G02*
X88988599Y-1589140I249999J0D01*
G01*
G37*
%TD*%
%TO.C,R42*%
G36*
G01*
X91025529Y-3414140D02*
X91925531Y-3414140D01*
G75*
G02*
X92175530Y-3664139I0J-249999D01*
G01*
X92175530Y-4189141D01*
G75*
G02*
X91925531Y-4439140I-249999J0D01*
G01*
X91025529Y-4439140D01*
G75*
G02*
X90775530Y-4189141I0J249999D01*
G01*
X90775530Y-3664139D01*
G75*
G02*
X91025529Y-3414140I249999J0D01*
G01*
G37*
G36*
G01*
X91025529Y-1589140D02*
X91925531Y-1589140D01*
G75*
G02*
X92175530Y-1839139I0J-249999D01*
G01*
X92175530Y-2364141D01*
G75*
G02*
X91925531Y-2614140I-249999J0D01*
G01*
X91025529Y-2614140D01*
G75*
G02*
X90775530Y-2364141I0J249999D01*
G01*
X90775530Y-1839139D01*
G75*
G02*
X91025529Y-1589140I249999J0D01*
G01*
G37*
%TD*%
%TO.C,R41*%
G36*
G01*
X93062459Y-3414140D02*
X93962461Y-3414140D01*
G75*
G02*
X94212460Y-3664139I0J-249999D01*
G01*
X94212460Y-4189141D01*
G75*
G02*
X93962461Y-4439140I-249999J0D01*
G01*
X93062459Y-4439140D01*
G75*
G02*
X92812460Y-4189141I0J249999D01*
G01*
X92812460Y-3664139D01*
G75*
G02*
X93062459Y-3414140I249999J0D01*
G01*
G37*
G36*
G01*
X93062459Y-1589140D02*
X93962461Y-1589140D01*
G75*
G02*
X94212460Y-1839139I0J-249999D01*
G01*
X94212460Y-2364141D01*
G75*
G02*
X93962461Y-2614140I-249999J0D01*
G01*
X93062459Y-2614140D01*
G75*
G02*
X92812460Y-2364141I0J249999D01*
G01*
X92812460Y-1839139D01*
G75*
G02*
X93062459Y-1589140I249999J0D01*
G01*
G37*
%TD*%
%TO.C,R40*%
G36*
G01*
X121155889Y-6303560D02*
X120255887Y-6303560D01*
G75*
G02*
X120005888Y-6053561I0J249999D01*
G01*
X120005888Y-5528559D01*
G75*
G02*
X120255887Y-5278560I249999J0D01*
G01*
X121155889Y-5278560D01*
G75*
G02*
X121405888Y-5528559I0J-249999D01*
G01*
X121405888Y-6053561D01*
G75*
G02*
X121155889Y-6303560I-249999J0D01*
G01*
G37*
G36*
G01*
X121155889Y-8128560D02*
X120255887Y-8128560D01*
G75*
G02*
X120005888Y-7878561I0J249999D01*
G01*
X120005888Y-7353559D01*
G75*
G02*
X120255887Y-7103560I249999J0D01*
G01*
X121155889Y-7103560D01*
G75*
G02*
X121405888Y-7353559I0J-249999D01*
G01*
X121405888Y-7878561D01*
G75*
G02*
X121155889Y-8128560I-249999J0D01*
G01*
G37*
%TD*%
%TO.C,R39*%
G36*
G01*
X123189553Y-6303560D02*
X122289551Y-6303560D01*
G75*
G02*
X122039552Y-6053561I0J249999D01*
G01*
X122039552Y-5528559D01*
G75*
G02*
X122289551Y-5278560I249999J0D01*
G01*
X123189553Y-5278560D01*
G75*
G02*
X123439552Y-5528559I0J-249999D01*
G01*
X123439552Y-6053561D01*
G75*
G02*
X123189553Y-6303560I-249999J0D01*
G01*
G37*
G36*
G01*
X123189553Y-8128560D02*
X122289551Y-8128560D01*
G75*
G02*
X122039552Y-7878561I0J249999D01*
G01*
X122039552Y-7353559D01*
G75*
G02*
X122289551Y-7103560I249999J0D01*
G01*
X123189553Y-7103560D01*
G75*
G02*
X123439552Y-7353559I0J-249999D01*
G01*
X123439552Y-7878561D01*
G75*
G02*
X123189553Y-8128560I-249999J0D01*
G01*
G37*
%TD*%
%TO.C,R38*%
G36*
G01*
X125223217Y-6303560D02*
X124323215Y-6303560D01*
G75*
G02*
X124073216Y-6053561I0J249999D01*
G01*
X124073216Y-5528559D01*
G75*
G02*
X124323215Y-5278560I249999J0D01*
G01*
X125223217Y-5278560D01*
G75*
G02*
X125473216Y-5528559I0J-249999D01*
G01*
X125473216Y-6053561D01*
G75*
G02*
X125223217Y-6303560I-249999J0D01*
G01*
G37*
G36*
G01*
X125223217Y-8128560D02*
X124323215Y-8128560D01*
G75*
G02*
X124073216Y-7878561I0J249999D01*
G01*
X124073216Y-7353559D01*
G75*
G02*
X124323215Y-7103560I249999J0D01*
G01*
X125223217Y-7103560D01*
G75*
G02*
X125473216Y-7353559I0J-249999D01*
G01*
X125473216Y-7878561D01*
G75*
G02*
X125223217Y-8128560I-249999J0D01*
G01*
G37*
%TD*%
%TO.C,R37*%
G36*
G01*
X127256881Y-6303560D02*
X126356879Y-6303560D01*
G75*
G02*
X126106880Y-6053561I0J249999D01*
G01*
X126106880Y-5528559D01*
G75*
G02*
X126356879Y-5278560I249999J0D01*
G01*
X127256881Y-5278560D01*
G75*
G02*
X127506880Y-5528559I0J-249999D01*
G01*
X127506880Y-6053561D01*
G75*
G02*
X127256881Y-6303560I-249999J0D01*
G01*
G37*
G36*
G01*
X127256881Y-8128560D02*
X126356879Y-8128560D01*
G75*
G02*
X126106880Y-7878561I0J249999D01*
G01*
X126106880Y-7353559D01*
G75*
G02*
X126356879Y-7103560I249999J0D01*
G01*
X127256881Y-7103560D01*
G75*
G02*
X127506880Y-7353559I0J-249999D01*
G01*
X127506880Y-7878561D01*
G75*
G02*
X127256881Y-8128560I-249999J0D01*
G01*
G37*
%TD*%
%TO.C,R36*%
G36*
G01*
X129290545Y-6303560D02*
X128390543Y-6303560D01*
G75*
G02*
X128140544Y-6053561I0J249999D01*
G01*
X128140544Y-5528559D01*
G75*
G02*
X128390543Y-5278560I249999J0D01*
G01*
X129290545Y-5278560D01*
G75*
G02*
X129540544Y-5528559I0J-249999D01*
G01*
X129540544Y-6053561D01*
G75*
G02*
X129290545Y-6303560I-249999J0D01*
G01*
G37*
G36*
G01*
X129290545Y-8128560D02*
X128390543Y-8128560D01*
G75*
G02*
X128140544Y-7878561I0J249999D01*
G01*
X128140544Y-7353559D01*
G75*
G02*
X128390543Y-7103560I249999J0D01*
G01*
X129290545Y-7103560D01*
G75*
G02*
X129540544Y-7353559I0J-249999D01*
G01*
X129540544Y-7878561D01*
G75*
G02*
X129290545Y-8128560I-249999J0D01*
G01*
G37*
%TD*%
%TO.C,R35*%
G36*
G01*
X131324209Y-6303560D02*
X130424207Y-6303560D01*
G75*
G02*
X130174208Y-6053561I0J249999D01*
G01*
X130174208Y-5528559D01*
G75*
G02*
X130424207Y-5278560I249999J0D01*
G01*
X131324209Y-5278560D01*
G75*
G02*
X131574208Y-5528559I0J-249999D01*
G01*
X131574208Y-6053561D01*
G75*
G02*
X131324209Y-6303560I-249999J0D01*
G01*
G37*
G36*
G01*
X131324209Y-8128560D02*
X130424207Y-8128560D01*
G75*
G02*
X130174208Y-7878561I0J249999D01*
G01*
X130174208Y-7353559D01*
G75*
G02*
X130424207Y-7103560I249999J0D01*
G01*
X131324209Y-7103560D01*
G75*
G02*
X131574208Y-7353559I0J-249999D01*
G01*
X131574208Y-7878561D01*
G75*
G02*
X131324209Y-8128560I-249999J0D01*
G01*
G37*
%TD*%
%TO.C,R34*%
G36*
G01*
X133357873Y-6303560D02*
X132457871Y-6303560D01*
G75*
G02*
X132207872Y-6053561I0J249999D01*
G01*
X132207872Y-5528559D01*
G75*
G02*
X132457871Y-5278560I249999J0D01*
G01*
X133357873Y-5278560D01*
G75*
G02*
X133607872Y-5528559I0J-249999D01*
G01*
X133607872Y-6053561D01*
G75*
G02*
X133357873Y-6303560I-249999J0D01*
G01*
G37*
G36*
G01*
X133357873Y-8128560D02*
X132457871Y-8128560D01*
G75*
G02*
X132207872Y-7878561I0J249999D01*
G01*
X132207872Y-7353559D01*
G75*
G02*
X132457871Y-7103560I249999J0D01*
G01*
X133357873Y-7103560D01*
G75*
G02*
X133607872Y-7353559I0J-249999D01*
G01*
X133607872Y-7878561D01*
G75*
G02*
X133357873Y-8128560I-249999J0D01*
G01*
G37*
%TD*%
%TO.C,R33*%
G36*
G01*
X135391537Y-6303560D02*
X134491535Y-6303560D01*
G75*
G02*
X134241536Y-6053561I0J249999D01*
G01*
X134241536Y-5528559D01*
G75*
G02*
X134491535Y-5278560I249999J0D01*
G01*
X135391537Y-5278560D01*
G75*
G02*
X135641536Y-5528559I0J-249999D01*
G01*
X135641536Y-6053561D01*
G75*
G02*
X135391537Y-6303560I-249999J0D01*
G01*
G37*
G36*
G01*
X135391537Y-8128560D02*
X134491535Y-8128560D01*
G75*
G02*
X134241536Y-7878561I0J249999D01*
G01*
X134241536Y-7353559D01*
G75*
G02*
X134491535Y-7103560I249999J0D01*
G01*
X135391537Y-7103560D01*
G75*
G02*
X135641536Y-7353559I0J-249999D01*
G01*
X135641536Y-7878561D01*
G75*
G02*
X135391537Y-8128560I-249999J0D01*
G01*
G37*
%TD*%
%TO.C,R32*%
G36*
G01*
X137425201Y-6303560D02*
X136525199Y-6303560D01*
G75*
G02*
X136275200Y-6053561I0J249999D01*
G01*
X136275200Y-5528559D01*
G75*
G02*
X136525199Y-5278560I249999J0D01*
G01*
X137425201Y-5278560D01*
G75*
G02*
X137675200Y-5528559I0J-249999D01*
G01*
X137675200Y-6053561D01*
G75*
G02*
X137425201Y-6303560I-249999J0D01*
G01*
G37*
G36*
G01*
X137425201Y-8128560D02*
X136525199Y-8128560D01*
G75*
G02*
X136275200Y-7878561I0J249999D01*
G01*
X136275200Y-7353559D01*
G75*
G02*
X136525199Y-7103560I249999J0D01*
G01*
X137425201Y-7103560D01*
G75*
G02*
X137675200Y-7353559I0J-249999D01*
G01*
X137675200Y-7878561D01*
G75*
G02*
X137425201Y-8128560I-249999J0D01*
G01*
G37*
%TD*%
%TO.C,R31*%
G36*
G01*
X95986329Y-6303560D02*
X95086327Y-6303560D01*
G75*
G02*
X94836328Y-6053561I0J249999D01*
G01*
X94836328Y-5528559D01*
G75*
G02*
X95086327Y-5278560I249999J0D01*
G01*
X95986329Y-5278560D01*
G75*
G02*
X96236328Y-5528559I0J-249999D01*
G01*
X96236328Y-6053561D01*
G75*
G02*
X95986329Y-6303560I-249999J0D01*
G01*
G37*
G36*
G01*
X95986329Y-8128560D02*
X95086327Y-8128560D01*
G75*
G02*
X94836328Y-7878561I0J249999D01*
G01*
X94836328Y-7353559D01*
G75*
G02*
X95086327Y-7103560I249999J0D01*
G01*
X95986329Y-7103560D01*
G75*
G02*
X96236328Y-7353559I0J-249999D01*
G01*
X96236328Y-7878561D01*
G75*
G02*
X95986329Y-8128560I-249999J0D01*
G01*
G37*
%TD*%
%TO.C,R30*%
G36*
G01*
X98019993Y-6303560D02*
X97119991Y-6303560D01*
G75*
G02*
X96869992Y-6053561I0J249999D01*
G01*
X96869992Y-5528559D01*
G75*
G02*
X97119991Y-5278560I249999J0D01*
G01*
X98019993Y-5278560D01*
G75*
G02*
X98269992Y-5528559I0J-249999D01*
G01*
X98269992Y-6053561D01*
G75*
G02*
X98019993Y-6303560I-249999J0D01*
G01*
G37*
G36*
G01*
X98019993Y-8128560D02*
X97119991Y-8128560D01*
G75*
G02*
X96869992Y-7878561I0J249999D01*
G01*
X96869992Y-7353559D01*
G75*
G02*
X97119991Y-7103560I249999J0D01*
G01*
X98019993Y-7103560D01*
G75*
G02*
X98269992Y-7353559I0J-249999D01*
G01*
X98269992Y-7878561D01*
G75*
G02*
X98019993Y-8128560I-249999J0D01*
G01*
G37*
%TD*%
%TO.C,R29*%
G36*
G01*
X100053657Y-6303560D02*
X99153655Y-6303560D01*
G75*
G02*
X98903656Y-6053561I0J249999D01*
G01*
X98903656Y-5528559D01*
G75*
G02*
X99153655Y-5278560I249999J0D01*
G01*
X100053657Y-5278560D01*
G75*
G02*
X100303656Y-5528559I0J-249999D01*
G01*
X100303656Y-6053561D01*
G75*
G02*
X100053657Y-6303560I-249999J0D01*
G01*
G37*
G36*
G01*
X100053657Y-8128560D02*
X99153655Y-8128560D01*
G75*
G02*
X98903656Y-7878561I0J249999D01*
G01*
X98903656Y-7353559D01*
G75*
G02*
X99153655Y-7103560I249999J0D01*
G01*
X100053657Y-7103560D01*
G75*
G02*
X100303656Y-7353559I0J-249999D01*
G01*
X100303656Y-7878561D01*
G75*
G02*
X100053657Y-8128560I-249999J0D01*
G01*
G37*
%TD*%
%TO.C,R28*%
G36*
G01*
X102087321Y-6303560D02*
X101187319Y-6303560D01*
G75*
G02*
X100937320Y-6053561I0J249999D01*
G01*
X100937320Y-5528559D01*
G75*
G02*
X101187319Y-5278560I249999J0D01*
G01*
X102087321Y-5278560D01*
G75*
G02*
X102337320Y-5528559I0J-249999D01*
G01*
X102337320Y-6053561D01*
G75*
G02*
X102087321Y-6303560I-249999J0D01*
G01*
G37*
G36*
G01*
X102087321Y-8128560D02*
X101187319Y-8128560D01*
G75*
G02*
X100937320Y-7878561I0J249999D01*
G01*
X100937320Y-7353559D01*
G75*
G02*
X101187319Y-7103560I249999J0D01*
G01*
X102087321Y-7103560D01*
G75*
G02*
X102337320Y-7353559I0J-249999D01*
G01*
X102337320Y-7878561D01*
G75*
G02*
X102087321Y-8128560I-249999J0D01*
G01*
G37*
%TD*%
%TO.C,R27*%
G36*
G01*
X104120985Y-6303560D02*
X103220983Y-6303560D01*
G75*
G02*
X102970984Y-6053561I0J249999D01*
G01*
X102970984Y-5528559D01*
G75*
G02*
X103220983Y-5278560I249999J0D01*
G01*
X104120985Y-5278560D01*
G75*
G02*
X104370984Y-5528559I0J-249999D01*
G01*
X104370984Y-6053561D01*
G75*
G02*
X104120985Y-6303560I-249999J0D01*
G01*
G37*
G36*
G01*
X104120985Y-8128560D02*
X103220983Y-8128560D01*
G75*
G02*
X102970984Y-7878561I0J249999D01*
G01*
X102970984Y-7353559D01*
G75*
G02*
X103220983Y-7103560I249999J0D01*
G01*
X104120985Y-7103560D01*
G75*
G02*
X104370984Y-7353559I0J-249999D01*
G01*
X104370984Y-7878561D01*
G75*
G02*
X104120985Y-8128560I-249999J0D01*
G01*
G37*
%TD*%
%TO.C,R26*%
G36*
G01*
X87851661Y-6303560D02*
X86951659Y-6303560D01*
G75*
G02*
X86701660Y-6053561I0J249999D01*
G01*
X86701660Y-5528559D01*
G75*
G02*
X86951659Y-5278560I249999J0D01*
G01*
X87851661Y-5278560D01*
G75*
G02*
X88101660Y-5528559I0J-249999D01*
G01*
X88101660Y-6053561D01*
G75*
G02*
X87851661Y-6303560I-249999J0D01*
G01*
G37*
G36*
G01*
X87851661Y-8128560D02*
X86951659Y-8128560D01*
G75*
G02*
X86701660Y-7878561I0J249999D01*
G01*
X86701660Y-7353559D01*
G75*
G02*
X86951659Y-7103560I249999J0D01*
G01*
X87851661Y-7103560D01*
G75*
G02*
X88101660Y-7353559I0J-249999D01*
G01*
X88101660Y-7878561D01*
G75*
G02*
X87851661Y-8128560I-249999J0D01*
G01*
G37*
%TD*%
%TO.C,R25*%
G36*
G01*
X89885337Y-6303560D02*
X88985335Y-6303560D01*
G75*
G02*
X88735336Y-6053561I0J249999D01*
G01*
X88735336Y-5528559D01*
G75*
G02*
X88985335Y-5278560I249999J0D01*
G01*
X89885337Y-5278560D01*
G75*
G02*
X90135336Y-5528559I0J-249999D01*
G01*
X90135336Y-6053561D01*
G75*
G02*
X89885337Y-6303560I-249999J0D01*
G01*
G37*
G36*
G01*
X89885337Y-8128560D02*
X88985335Y-8128560D01*
G75*
G02*
X88735336Y-7878561I0J249999D01*
G01*
X88735336Y-7353559D01*
G75*
G02*
X88985335Y-7103560I249999J0D01*
G01*
X89885337Y-7103560D01*
G75*
G02*
X90135336Y-7353559I0J-249999D01*
G01*
X90135336Y-7878561D01*
G75*
G02*
X89885337Y-8128560I-249999J0D01*
G01*
G37*
%TD*%
%TO.C,R24*%
G36*
G01*
X91919001Y-6303560D02*
X91018999Y-6303560D01*
G75*
G02*
X90769000Y-6053561I0J249999D01*
G01*
X90769000Y-5528559D01*
G75*
G02*
X91018999Y-5278560I249999J0D01*
G01*
X91919001Y-5278560D01*
G75*
G02*
X92169000Y-5528559I0J-249999D01*
G01*
X92169000Y-6053561D01*
G75*
G02*
X91919001Y-6303560I-249999J0D01*
G01*
G37*
G36*
G01*
X91919001Y-8128560D02*
X91018999Y-8128560D01*
G75*
G02*
X90769000Y-7878561I0J249999D01*
G01*
X90769000Y-7353559D01*
G75*
G02*
X91018999Y-7103560I249999J0D01*
G01*
X91919001Y-7103560D01*
G75*
G02*
X92169000Y-7353559I0J-249999D01*
G01*
X92169000Y-7878561D01*
G75*
G02*
X91919001Y-8128560I-249999J0D01*
G01*
G37*
%TD*%
%TO.C,R23*%
G36*
G01*
X93952665Y-6303560D02*
X93052663Y-6303560D01*
G75*
G02*
X92802664Y-6053561I0J249999D01*
G01*
X92802664Y-5528559D01*
G75*
G02*
X93052663Y-5278560I249999J0D01*
G01*
X93952665Y-5278560D01*
G75*
G02*
X94202664Y-5528559I0J-249999D01*
G01*
X94202664Y-6053561D01*
G75*
G02*
X93952665Y-6303560I-249999J0D01*
G01*
G37*
G36*
G01*
X93952665Y-8128560D02*
X93052663Y-8128560D01*
G75*
G02*
X92802664Y-7878561I0J249999D01*
G01*
X92802664Y-7353559D01*
G75*
G02*
X93052663Y-7103560I249999J0D01*
G01*
X93952665Y-7103560D01*
G75*
G02*
X94202664Y-7353559I0J-249999D01*
G01*
X94202664Y-7878561D01*
G75*
G02*
X93952665Y-8128560I-249999J0D01*
G01*
G37*
%TD*%
%TO.C,R22*%
G36*
G01*
X121175009Y1075280D02*
X120275007Y1075280D01*
G75*
G02*
X120025008Y1325279I0J249999D01*
G01*
X120025008Y1850281D01*
G75*
G02*
X120275007Y2100280I249999J0D01*
G01*
X121175009Y2100280D01*
G75*
G02*
X121425008Y1850281I0J-249999D01*
G01*
X121425008Y1325279D01*
G75*
G02*
X121175009Y1075280I-249999J0D01*
G01*
G37*
G36*
G01*
X121175009Y-749720D02*
X120275007Y-749720D01*
G75*
G02*
X120025008Y-499721I0J249999D01*
G01*
X120025008Y25281D01*
G75*
G02*
X120275007Y275280I249999J0D01*
G01*
X121175009Y275280D01*
G75*
G02*
X121425008Y25281I0J-249999D01*
G01*
X121425008Y-499721D01*
G75*
G02*
X121175009Y-749720I-249999J0D01*
G01*
G37*
%TD*%
%TO.C,R21*%
G36*
G01*
X123206283Y1075280D02*
X122306281Y1075280D01*
G75*
G02*
X122056282Y1325279I0J249999D01*
G01*
X122056282Y1850281D01*
G75*
G02*
X122306281Y2100280I249999J0D01*
G01*
X123206283Y2100280D01*
G75*
G02*
X123456282Y1850281I0J-249999D01*
G01*
X123456282Y1325279D01*
G75*
G02*
X123206283Y1075280I-249999J0D01*
G01*
G37*
G36*
G01*
X123206283Y-749720D02*
X122306281Y-749720D01*
G75*
G02*
X122056282Y-499721I0J249999D01*
G01*
X122056282Y25281D01*
G75*
G02*
X122306281Y275280I249999J0D01*
G01*
X123206283Y275280D01*
G75*
G02*
X123456282Y25281I0J-249999D01*
G01*
X123456282Y-499721D01*
G75*
G02*
X123206283Y-749720I-249999J0D01*
G01*
G37*
%TD*%
%TO.C,R20*%
G36*
G01*
X125237557Y1075280D02*
X124337555Y1075280D01*
G75*
G02*
X124087556Y1325279I0J249999D01*
G01*
X124087556Y1850281D01*
G75*
G02*
X124337555Y2100280I249999J0D01*
G01*
X125237557Y2100280D01*
G75*
G02*
X125487556Y1850281I0J-249999D01*
G01*
X125487556Y1325279D01*
G75*
G02*
X125237557Y1075280I-249999J0D01*
G01*
G37*
G36*
G01*
X125237557Y-749720D02*
X124337555Y-749720D01*
G75*
G02*
X124087556Y-499721I0J249999D01*
G01*
X124087556Y25281D01*
G75*
G02*
X124337555Y275280I249999J0D01*
G01*
X125237557Y275280D01*
G75*
G02*
X125487556Y25281I0J-249999D01*
G01*
X125487556Y-499721D01*
G75*
G02*
X125237557Y-749720I-249999J0D01*
G01*
G37*
%TD*%
%TO.C,R19*%
G36*
G01*
X127268831Y1075280D02*
X126368829Y1075280D01*
G75*
G02*
X126118830Y1325279I0J249999D01*
G01*
X126118830Y1850281D01*
G75*
G02*
X126368829Y2100280I249999J0D01*
G01*
X127268831Y2100280D01*
G75*
G02*
X127518830Y1850281I0J-249999D01*
G01*
X127518830Y1325279D01*
G75*
G02*
X127268831Y1075280I-249999J0D01*
G01*
G37*
G36*
G01*
X127268831Y-749720D02*
X126368829Y-749720D01*
G75*
G02*
X126118830Y-499721I0J249999D01*
G01*
X126118830Y25281D01*
G75*
G02*
X126368829Y275280I249999J0D01*
G01*
X127268831Y275280D01*
G75*
G02*
X127518830Y25281I0J-249999D01*
G01*
X127518830Y-499721D01*
G75*
G02*
X127268831Y-749720I-249999J0D01*
G01*
G37*
%TD*%
%TO.C,R18*%
G36*
G01*
X129300105Y1075280D02*
X128400103Y1075280D01*
G75*
G02*
X128150104Y1325279I0J249999D01*
G01*
X128150104Y1850281D01*
G75*
G02*
X128400103Y2100280I249999J0D01*
G01*
X129300105Y2100280D01*
G75*
G02*
X129550104Y1850281I0J-249999D01*
G01*
X129550104Y1325279D01*
G75*
G02*
X129300105Y1075280I-249999J0D01*
G01*
G37*
G36*
G01*
X129300105Y-749720D02*
X128400103Y-749720D01*
G75*
G02*
X128150104Y-499721I0J249999D01*
G01*
X128150104Y25281D01*
G75*
G02*
X128400103Y275280I249999J0D01*
G01*
X129300105Y275280D01*
G75*
G02*
X129550104Y25281I0J-249999D01*
G01*
X129550104Y-499721D01*
G75*
G02*
X129300105Y-749720I-249999J0D01*
G01*
G37*
%TD*%
%TO.C,R17*%
G36*
G01*
X131331379Y1075280D02*
X130431377Y1075280D01*
G75*
G02*
X130181378Y1325279I0J249999D01*
G01*
X130181378Y1850281D01*
G75*
G02*
X130431377Y2100280I249999J0D01*
G01*
X131331379Y2100280D01*
G75*
G02*
X131581378Y1850281I0J-249999D01*
G01*
X131581378Y1325279D01*
G75*
G02*
X131331379Y1075280I-249999J0D01*
G01*
G37*
G36*
G01*
X131331379Y-749720D02*
X130431377Y-749720D01*
G75*
G02*
X130181378Y-499721I0J249999D01*
G01*
X130181378Y25281D01*
G75*
G02*
X130431377Y275280I249999J0D01*
G01*
X131331379Y275280D01*
G75*
G02*
X131581378Y25281I0J-249999D01*
G01*
X131581378Y-499721D01*
G75*
G02*
X131331379Y-749720I-249999J0D01*
G01*
G37*
%TD*%
%TO.C,R16*%
G36*
G01*
X133362653Y1075280D02*
X132462651Y1075280D01*
G75*
G02*
X132212652Y1325279I0J249999D01*
G01*
X132212652Y1850281D01*
G75*
G02*
X132462651Y2100280I249999J0D01*
G01*
X133362653Y2100280D01*
G75*
G02*
X133612652Y1850281I0J-249999D01*
G01*
X133612652Y1325279D01*
G75*
G02*
X133362653Y1075280I-249999J0D01*
G01*
G37*
G36*
G01*
X133362653Y-749720D02*
X132462651Y-749720D01*
G75*
G02*
X132212652Y-499721I0J249999D01*
G01*
X132212652Y25281D01*
G75*
G02*
X132462651Y275280I249999J0D01*
G01*
X133362653Y275280D01*
G75*
G02*
X133612652Y25281I0J-249999D01*
G01*
X133612652Y-499721D01*
G75*
G02*
X133362653Y-749720I-249999J0D01*
G01*
G37*
%TD*%
%TO.C,R15*%
G36*
G01*
X135393927Y1075280D02*
X134493925Y1075280D01*
G75*
G02*
X134243926Y1325279I0J249999D01*
G01*
X134243926Y1850281D01*
G75*
G02*
X134493925Y2100280I249999J0D01*
G01*
X135393927Y2100280D01*
G75*
G02*
X135643926Y1850281I0J-249999D01*
G01*
X135643926Y1325279D01*
G75*
G02*
X135393927Y1075280I-249999J0D01*
G01*
G37*
G36*
G01*
X135393927Y-749720D02*
X134493925Y-749720D01*
G75*
G02*
X134243926Y-499721I0J249999D01*
G01*
X134243926Y25281D01*
G75*
G02*
X134493925Y275280I249999J0D01*
G01*
X135393927Y275280D01*
G75*
G02*
X135643926Y25281I0J-249999D01*
G01*
X135643926Y-499721D01*
G75*
G02*
X135393927Y-749720I-249999J0D01*
G01*
G37*
%TD*%
%TO.C,R13*%
G36*
G01*
X96017399Y1075280D02*
X95117397Y1075280D01*
G75*
G02*
X94867398Y1325279I0J249999D01*
G01*
X94867398Y1850281D01*
G75*
G02*
X95117397Y2100280I249999J0D01*
G01*
X96017399Y2100280D01*
G75*
G02*
X96267398Y1850281I0J-249999D01*
G01*
X96267398Y1325279D01*
G75*
G02*
X96017399Y1075280I-249999J0D01*
G01*
G37*
G36*
G01*
X96017399Y-749720D02*
X95117397Y-749720D01*
G75*
G02*
X94867398Y-499721I0J249999D01*
G01*
X94867398Y25281D01*
G75*
G02*
X95117397Y275280I249999J0D01*
G01*
X96017399Y275280D01*
G75*
G02*
X96267398Y25281I0J-249999D01*
G01*
X96267398Y-499721D01*
G75*
G02*
X96017399Y-749720I-249999J0D01*
G01*
G37*
%TD*%
%TO.C,R12*%
G36*
G01*
X98048673Y1075280D02*
X97148671Y1075280D01*
G75*
G02*
X96898672Y1325279I0J249999D01*
G01*
X96898672Y1850281D01*
G75*
G02*
X97148671Y2100280I249999J0D01*
G01*
X98048673Y2100280D01*
G75*
G02*
X98298672Y1850281I0J-249999D01*
G01*
X98298672Y1325279D01*
G75*
G02*
X98048673Y1075280I-249999J0D01*
G01*
G37*
G36*
G01*
X98048673Y-749720D02*
X97148671Y-749720D01*
G75*
G02*
X96898672Y-499721I0J249999D01*
G01*
X96898672Y25281D01*
G75*
G02*
X97148671Y275280I249999J0D01*
G01*
X98048673Y275280D01*
G75*
G02*
X98298672Y25281I0J-249999D01*
G01*
X98298672Y-499721D01*
G75*
G02*
X98048673Y-749720I-249999J0D01*
G01*
G37*
%TD*%
%TO.C,R11*%
G36*
G01*
X100079947Y1075280D02*
X99179945Y1075280D01*
G75*
G02*
X98929946Y1325279I0J249999D01*
G01*
X98929946Y1850281D01*
G75*
G02*
X99179945Y2100280I249999J0D01*
G01*
X100079947Y2100280D01*
G75*
G02*
X100329946Y1850281I0J-249999D01*
G01*
X100329946Y1325279D01*
G75*
G02*
X100079947Y1075280I-249999J0D01*
G01*
G37*
G36*
G01*
X100079947Y-749720D02*
X99179945Y-749720D01*
G75*
G02*
X98929946Y-499721I0J249999D01*
G01*
X98929946Y25281D01*
G75*
G02*
X99179945Y275280I249999J0D01*
G01*
X100079947Y275280D01*
G75*
G02*
X100329946Y25281I0J-249999D01*
G01*
X100329946Y-499721D01*
G75*
G02*
X100079947Y-749720I-249999J0D01*
G01*
G37*
%TD*%
%TO.C,R10*%
G36*
G01*
X102111221Y1075280D02*
X101211219Y1075280D01*
G75*
G02*
X100961220Y1325279I0J249999D01*
G01*
X100961220Y1850281D01*
G75*
G02*
X101211219Y2100280I249999J0D01*
G01*
X102111221Y2100280D01*
G75*
G02*
X102361220Y1850281I0J-249999D01*
G01*
X102361220Y1325279D01*
G75*
G02*
X102111221Y1075280I-249999J0D01*
G01*
G37*
G36*
G01*
X102111221Y-749720D02*
X101211219Y-749720D01*
G75*
G02*
X100961220Y-499721I0J249999D01*
G01*
X100961220Y25281D01*
G75*
G02*
X101211219Y275280I249999J0D01*
G01*
X102111221Y275280D01*
G75*
G02*
X102361220Y25281I0J-249999D01*
G01*
X102361220Y-499721D01*
G75*
G02*
X102111221Y-749720I-249999J0D01*
G01*
G37*
%TD*%
%TO.C,R9*%
G36*
G01*
X104142495Y1075280D02*
X103242493Y1075280D01*
G75*
G02*
X102992494Y1325279I0J249999D01*
G01*
X102992494Y1850281D01*
G75*
G02*
X103242493Y2100280I249999J0D01*
G01*
X104142495Y2100280D01*
G75*
G02*
X104392494Y1850281I0J-249999D01*
G01*
X104392494Y1325279D01*
G75*
G02*
X104142495Y1075280I-249999J0D01*
G01*
G37*
G36*
G01*
X104142495Y-749720D02*
X103242493Y-749720D01*
G75*
G02*
X102992494Y-499721I0J249999D01*
G01*
X102992494Y25281D01*
G75*
G02*
X103242493Y275280I249999J0D01*
G01*
X104142495Y275280D01*
G75*
G02*
X104392494Y25281I0J-249999D01*
G01*
X104392494Y-499721D01*
G75*
G02*
X104142495Y-749720I-249999J0D01*
G01*
G37*
%TD*%
%TO.C,R8*%
G36*
G01*
X87851661Y1075280D02*
X86951659Y1075280D01*
G75*
G02*
X86701660Y1325279I0J249999D01*
G01*
X86701660Y1850281D01*
G75*
G02*
X86951659Y2100280I249999J0D01*
G01*
X87851661Y2100280D01*
G75*
G02*
X88101660Y1850281I0J-249999D01*
G01*
X88101660Y1325279D01*
G75*
G02*
X87851661Y1075280I-249999J0D01*
G01*
G37*
G36*
G01*
X87851661Y-749720D02*
X86951659Y-749720D01*
G75*
G02*
X86701660Y-499721I0J249999D01*
G01*
X86701660Y25281D01*
G75*
G02*
X86951659Y275280I249999J0D01*
G01*
X87851661Y275280D01*
G75*
G02*
X88101660Y25281I0J-249999D01*
G01*
X88101660Y-499721D01*
G75*
G02*
X87851661Y-749720I-249999J0D01*
G01*
G37*
%TD*%
%TO.C,R7*%
G36*
G01*
X89923577Y1075280D02*
X89023575Y1075280D01*
G75*
G02*
X88773576Y1325279I0J249999D01*
G01*
X88773576Y1850281D01*
G75*
G02*
X89023575Y2100280I249999J0D01*
G01*
X89923577Y2100280D01*
G75*
G02*
X90173576Y1850281I0J-249999D01*
G01*
X90173576Y1325279D01*
G75*
G02*
X89923577Y1075280I-249999J0D01*
G01*
G37*
G36*
G01*
X89923577Y-749720D02*
X89023575Y-749720D01*
G75*
G02*
X88773576Y-499721I0J249999D01*
G01*
X88773576Y25281D01*
G75*
G02*
X89023575Y275280I249999J0D01*
G01*
X89923577Y275280D01*
G75*
G02*
X90173576Y25281I0J-249999D01*
G01*
X90173576Y-499721D01*
G75*
G02*
X89923577Y-749720I-249999J0D01*
G01*
G37*
%TD*%
%TO.C,R6*%
G36*
G01*
X91954851Y1075280D02*
X91054849Y1075280D01*
G75*
G02*
X90804850Y1325279I0J249999D01*
G01*
X90804850Y1850281D01*
G75*
G02*
X91054849Y2100280I249999J0D01*
G01*
X91954851Y2100280D01*
G75*
G02*
X92204850Y1850281I0J-249999D01*
G01*
X92204850Y1325279D01*
G75*
G02*
X91954851Y1075280I-249999J0D01*
G01*
G37*
G36*
G01*
X91954851Y-749720D02*
X91054849Y-749720D01*
G75*
G02*
X90804850Y-499721I0J249999D01*
G01*
X90804850Y25281D01*
G75*
G02*
X91054849Y275280I249999J0D01*
G01*
X91954851Y275280D01*
G75*
G02*
X92204850Y25281I0J-249999D01*
G01*
X92204850Y-499721D01*
G75*
G02*
X91954851Y-749720I-249999J0D01*
G01*
G37*
%TD*%
%TO.C,R5*%
G36*
G01*
X93986125Y1075280D02*
X93086123Y1075280D01*
G75*
G02*
X92836124Y1325279I0J249999D01*
G01*
X92836124Y1850281D01*
G75*
G02*
X93086123Y2100280I249999J0D01*
G01*
X93986125Y2100280D01*
G75*
G02*
X94236124Y1850281I0J-249999D01*
G01*
X94236124Y1325279D01*
G75*
G02*
X93986125Y1075280I-249999J0D01*
G01*
G37*
G36*
G01*
X93986125Y-749720D02*
X93086123Y-749720D01*
G75*
G02*
X92836124Y-499721I0J249999D01*
G01*
X92836124Y25281D01*
G75*
G02*
X93086123Y275280I249999J0D01*
G01*
X93986125Y275280D01*
G75*
G02*
X94236124Y25281I0J-249999D01*
G01*
X94236124Y-499721D01*
G75*
G02*
X93986125Y-749720I-249999J0D01*
G01*
G37*
%TD*%
%TO.C,R4*%
G36*
G01*
X90779000Y-9249999D02*
X90779000Y-10150001D01*
G75*
G02*
X90529001Y-10400000I-249999J0D01*
G01*
X90003999Y-10400000D01*
G75*
G02*
X89754000Y-10150001I0J249999D01*
G01*
X89754000Y-9249999D01*
G75*
G02*
X90003999Y-9000000I249999J0D01*
G01*
X90529001Y-9000000D01*
G75*
G02*
X90779000Y-9249999I0J-249999D01*
G01*
G37*
G36*
G01*
X92604000Y-9249999D02*
X92604000Y-10150001D01*
G75*
G02*
X92354001Y-10400000I-249999J0D01*
G01*
X91828999Y-10400000D01*
G75*
G02*
X91579000Y-10150001I0J249999D01*
G01*
X91579000Y-9249999D01*
G75*
G02*
X91828999Y-9000000I249999J0D01*
G01*
X92354001Y-9000000D01*
G75*
G02*
X92604000Y-9249999I0J-249999D01*
G01*
G37*
%TD*%
%TO.C,R3*%
G36*
G01*
X87199500Y-9249999D02*
X87199500Y-10150001D01*
G75*
G02*
X86949501Y-10400000I-249999J0D01*
G01*
X86424499Y-10400000D01*
G75*
G02*
X86174500Y-10150001I0J249999D01*
G01*
X86174500Y-9249999D01*
G75*
G02*
X86424499Y-9000000I249999J0D01*
G01*
X86949501Y-9000000D01*
G75*
G02*
X87199500Y-9249999I0J-249999D01*
G01*
G37*
G36*
G01*
X89024500Y-9249999D02*
X89024500Y-10150001D01*
G75*
G02*
X88774501Y-10400000I-249999J0D01*
G01*
X88249499Y-10400000D01*
G75*
G02*
X87999500Y-10150001I0J249999D01*
G01*
X87999500Y-9249999D01*
G75*
G02*
X88249499Y-9000000I249999J0D01*
G01*
X88774501Y-9000000D01*
G75*
G02*
X89024500Y-9249999I0J-249999D01*
G01*
G37*
%TD*%
%TO.C,R2*%
G36*
G01*
X118222223Y275280D02*
X119122225Y275280D01*
G75*
G02*
X119372224Y25281I0J-249999D01*
G01*
X119372224Y-499721D01*
G75*
G02*
X119122225Y-749720I-249999J0D01*
G01*
X118222223Y-749720D01*
G75*
G02*
X117972224Y-499721I0J249999D01*
G01*
X117972224Y25281D01*
G75*
G02*
X118222223Y275280I249999J0D01*
G01*
G37*
G36*
G01*
X118222223Y2100280D02*
X119122225Y2100280D01*
G75*
G02*
X119372224Y1850281I0J-249999D01*
G01*
X119372224Y1325279D01*
G75*
G02*
X119122225Y1075280I-249999J0D01*
G01*
X118222223Y1075280D01*
G75*
G02*
X117972224Y1325279I0J249999D01*
G01*
X117972224Y1850281D01*
G75*
G02*
X118222223Y2100280I249999J0D01*
G01*
G37*
%TD*%
%TO.C,R1*%
G36*
G01*
X118222223Y-3414140D02*
X119122225Y-3414140D01*
G75*
G02*
X119372224Y-3664139I0J-249999D01*
G01*
X119372224Y-4189141D01*
G75*
G02*
X119122225Y-4439140I-249999J0D01*
G01*
X118222223Y-4439140D01*
G75*
G02*
X117972224Y-4189141I0J249999D01*
G01*
X117972224Y-3664139D01*
G75*
G02*
X118222223Y-3414140I249999J0D01*
G01*
G37*
G36*
G01*
X118222223Y-1589140D02*
X119122225Y-1589140D01*
G75*
G02*
X119372224Y-1839139I0J-249999D01*
G01*
X119372224Y-2364141D01*
G75*
G02*
X119122225Y-2614140I-249999J0D01*
G01*
X118222223Y-2614140D01*
G75*
G02*
X117972224Y-2364141I0J249999D01*
G01*
X117972224Y-1839139D01*
G75*
G02*
X118222223Y-1589140I249999J0D01*
G01*
G37*
%TD*%
D19*
%TO.C,D5*%
X105860000Y50000D03*
X105860000Y-2750000D03*
%TD*%
D14*
%TO.C,J7*%
X84920000Y2280000D03*
D15*
X82380000Y2280000D03*
%TD*%
%TO.C,FUSE1*%
G36*
G01*
X105169160Y-6685320D02*
X106419160Y-6685320D01*
G75*
G02*
X106669160Y-6935320I0J-250000D01*
G01*
X106669160Y-7685320D01*
G75*
G02*
X106419160Y-7935320I-250000J0D01*
G01*
X105169160Y-7935320D01*
G75*
G02*
X104919160Y-7685320I0J250000D01*
G01*
X104919160Y-6935320D01*
G75*
G02*
X105169160Y-6685320I250000J0D01*
G01*
G37*
G36*
G01*
X105169160Y-3885320D02*
X106419160Y-3885320D01*
G75*
G02*
X106669160Y-4135320I0J-250000D01*
G01*
X106669160Y-4885320D01*
G75*
G02*
X106419160Y-5135320I-250000J0D01*
G01*
X105169160Y-5135320D01*
G75*
G02*
X104919160Y-4885320I0J250000D01*
G01*
X104919160Y-4135320D01*
G75*
G02*
X105169160Y-3885320I250000J0D01*
G01*
G37*
%TD*%
D14*
%TO.C,J4*%
X83810000Y-820000D03*
X83810000Y-3360000D03*
X83810000Y-5900000D03*
X83810000Y-8440000D03*
D15*
X83810000Y-10980000D03*
%TD*%
%TO.C,D4*%
G36*
G01*
X80816750Y-7404500D02*
X81729250Y-7404500D01*
G75*
G02*
X81973000Y-7648250I0J-243750D01*
G01*
X81973000Y-8135750D01*
G75*
G02*
X81729250Y-8379500I-243750J0D01*
G01*
X80816750Y-8379500D01*
G75*
G02*
X80573000Y-8135750I0J243750D01*
G01*
X80573000Y-7648250D01*
G75*
G02*
X80816750Y-7404500I243750J0D01*
G01*
G37*
G36*
G01*
X80816750Y-5529500D02*
X81729250Y-5529500D01*
G75*
G02*
X81973000Y-5773250I0J-243750D01*
G01*
X81973000Y-6260750D01*
G75*
G02*
X81729250Y-6504500I-243750J0D01*
G01*
X80816750Y-6504500D01*
G75*
G02*
X80573000Y-6260750I0J243750D01*
G01*
X80573000Y-5773250D01*
G75*
G02*
X80816750Y-5529500I243750J0D01*
G01*
G37*
%TD*%
%TO.C,D3*%
G36*
G01*
X80816750Y-11039000D02*
X81729250Y-11039000D01*
G75*
G02*
X81973000Y-11282750I0J-243750D01*
G01*
X81973000Y-11770250D01*
G75*
G02*
X81729250Y-12014000I-243750J0D01*
G01*
X80816750Y-12014000D01*
G75*
G02*
X80573000Y-11770250I0J243750D01*
G01*
X80573000Y-11282750D01*
G75*
G02*
X80816750Y-11039000I243750J0D01*
G01*
G37*
G36*
G01*
X80816750Y-9164000D02*
X81729250Y-9164000D01*
G75*
G02*
X81973000Y-9407750I0J-243750D01*
G01*
X81973000Y-9895250D01*
G75*
G02*
X81729250Y-10139000I-243750J0D01*
G01*
X80816750Y-10139000D01*
G75*
G02*
X80573000Y-9895250I0J243750D01*
G01*
X80573000Y-9407750D01*
G75*
G02*
X80816750Y-9164000I243750J0D01*
G01*
G37*
%TD*%
%TO.C,D2*%
G36*
G01*
X142926000Y-8735750D02*
X142926000Y-9648250D01*
G75*
G02*
X142682250Y-9892000I-243750J0D01*
G01*
X142194750Y-9892000D01*
G75*
G02*
X141951000Y-9648250I0J243750D01*
G01*
X141951000Y-8735750D01*
G75*
G02*
X142194750Y-8492000I243750J0D01*
G01*
X142682250Y-8492000D01*
G75*
G02*
X142926000Y-8735750I0J-243750D01*
G01*
G37*
G36*
G01*
X144801000Y-8735750D02*
X144801000Y-9648250D01*
G75*
G02*
X144557250Y-9892000I-243750J0D01*
G01*
X144069750Y-9892000D01*
G75*
G02*
X143826000Y-9648250I0J243750D01*
G01*
X143826000Y-8735750D01*
G75*
G02*
X144069750Y-8492000I243750J0D01*
G01*
X144557250Y-8492000D01*
G75*
G02*
X144801000Y-8735750I0J-243750D01*
G01*
G37*
%TD*%
%TO.C,D1*%
G36*
G01*
X142926000Y-11021750D02*
X142926000Y-11934250D01*
G75*
G02*
X142682250Y-12178000I-243750J0D01*
G01*
X142194750Y-12178000D01*
G75*
G02*
X141951000Y-11934250I0J243750D01*
G01*
X141951000Y-11021750D01*
G75*
G02*
X142194750Y-10778000I243750J0D01*
G01*
X142682250Y-10778000D01*
G75*
G02*
X142926000Y-11021750I0J-243750D01*
G01*
G37*
G36*
G01*
X144801000Y-11021750D02*
X144801000Y-11934250D01*
G75*
G02*
X144557250Y-12178000I-243750J0D01*
G01*
X144069750Y-12178000D01*
G75*
G02*
X143826000Y-11934250I0J243750D01*
G01*
X143826000Y-11021750D01*
G75*
G02*
X144069750Y-10778000I243750J0D01*
G01*
X144557250Y-10778000D01*
G75*
G02*
X144801000Y-11021750I0J-243750D01*
G01*
G37*
%TD*%
M02*
