G04 #@! TF.GenerationSoftware,KiCad,Pcbnew,(5.1.9-16-g1737927814)-1*
G04 #@! TF.CreationDate,2021-08-01T21:15:59-05:00*
G04 #@! TF.ProjectId,rascsi_2p4,72617363-7369-45f3-9270-342e6b696361,rev?*
G04 #@! TF.SameCoordinates,Original*
G04 #@! TF.FileFunction,Legend,Bot*
G04 #@! TF.FilePolarity,Positive*
%FSLAX46Y46*%
G04 Gerber Fmt 4.6, Leading zero omitted, Abs format (unit mm)*
G04 Created by KiCad (PCBNEW (5.1.9-16-g1737927814)-1) date 2021-08-01 21:15:59*
%MOMM*%
%LPD*%
G01*
G04 APERTURE LIST*
%ADD10C,0.150000*%
%ADD11C,0.120000*%
%ADD12C,0.300000*%
%ADD13C,0.230000*%
%ADD14C,0.400000*%
G04 APERTURE END LIST*
D10*
X235758380Y-85312476D02*
X236472666Y-85312476D01*
X236615523Y-85264857D01*
X236710761Y-85169619D01*
X236758380Y-85026761D01*
X236758380Y-84931523D01*
X236758380Y-86312476D02*
X236758380Y-85741047D01*
X236758380Y-86026761D02*
X235758380Y-86026761D01*
X235901238Y-85931523D01*
X235996476Y-85836285D01*
X236044095Y-85741047D01*
X235758380Y-86931523D02*
X235758380Y-87026761D01*
X235806000Y-87122000D01*
X235853619Y-87169619D01*
X235948857Y-87217238D01*
X236139333Y-87264857D01*
X236377428Y-87264857D01*
X236567904Y-87217238D01*
X236663142Y-87169619D01*
X236710761Y-87122000D01*
X236758380Y-87026761D01*
X236758380Y-86931523D01*
X236710761Y-86836285D01*
X236663142Y-86788666D01*
X236567904Y-86741047D01*
X236377428Y-86693428D01*
X236139333Y-86693428D01*
X235948857Y-86741047D01*
X235853619Y-86788666D01*
X235806000Y-86836285D01*
X235758380Y-86931523D01*
X226733333Y-91162380D02*
X226733333Y-91876666D01*
X226780952Y-92019523D01*
X226876190Y-92114761D01*
X227019047Y-92162380D01*
X227114285Y-92162380D01*
X226209523Y-92162380D02*
X226019047Y-92162380D01*
X225923809Y-92114761D01*
X225876190Y-92067142D01*
X225780952Y-91924285D01*
X225733333Y-91733809D01*
X225733333Y-91352857D01*
X225780952Y-91257619D01*
X225828571Y-91210000D01*
X225923809Y-91162380D01*
X226114285Y-91162380D01*
X226209523Y-91210000D01*
X226257142Y-91257619D01*
X226304761Y-91352857D01*
X226304761Y-91590952D01*
X226257142Y-91686190D01*
X226209523Y-91733809D01*
X226114285Y-91781428D01*
X225923809Y-91781428D01*
X225828571Y-91733809D01*
X225780952Y-91686190D01*
X225733333Y-91590952D01*
D11*
X203794000Y-94504000D02*
X203794000Y-92472000D01*
X206080000Y-94504000D02*
X203794000Y-94504000D01*
X206080000Y-92472000D02*
X206080000Y-94504000D01*
X203794000Y-92472000D02*
X206080000Y-92472000D01*
X204048000Y-94250000D02*
X204048000Y-92726000D01*
X205826000Y-94250000D02*
X204048000Y-94250000D01*
X205826000Y-92726000D02*
X205826000Y-94250000D01*
X204048000Y-92726000D02*
X205826000Y-92726000D01*
X221828000Y-92218000D02*
X224114000Y-92218000D01*
X221828000Y-96790000D02*
X221828000Y-92218000D01*
X224114000Y-96790000D02*
X221828000Y-96790000D01*
X224114000Y-92218000D02*
X224114000Y-96790000D01*
X222082000Y-96536000D02*
X222082000Y-92472000D01*
X223860000Y-96536000D02*
X222082000Y-96536000D01*
X223860000Y-92472000D02*
X223860000Y-96536000D01*
X222082000Y-92472000D02*
X223860000Y-92472000D01*
D10*
X197850285Y-92097333D02*
X197469333Y-92097333D01*
X197926476Y-92325904D02*
X197659809Y-91525904D01*
X197393142Y-92325904D01*
X197240761Y-91525904D02*
X196783619Y-91525904D01*
X197012190Y-92325904D02*
X197012190Y-91525904D01*
X196516952Y-92325904D02*
X196516952Y-91525904D01*
X196059809Y-92325904D01*
X196059809Y-91525904D01*
X193310095Y-92325904D02*
X193576761Y-91944952D01*
X193767238Y-92325904D02*
X193767238Y-91525904D01*
X193462476Y-91525904D01*
X193386285Y-91564000D01*
X193348190Y-91602095D01*
X193310095Y-91678285D01*
X193310095Y-91792571D01*
X193348190Y-91868761D01*
X193386285Y-91906857D01*
X193462476Y-91944952D01*
X193767238Y-91944952D01*
X193005333Y-92287809D02*
X192891047Y-92325904D01*
X192700571Y-92325904D01*
X192624380Y-92287809D01*
X192586285Y-92249714D01*
X192548190Y-92173523D01*
X192548190Y-92097333D01*
X192586285Y-92021142D01*
X192624380Y-91983047D01*
X192700571Y-91944952D01*
X192852952Y-91906857D01*
X192929142Y-91868761D01*
X192967238Y-91830666D01*
X193005333Y-91754476D01*
X193005333Y-91678285D01*
X192967238Y-91602095D01*
X192929142Y-91564000D01*
X192852952Y-91525904D01*
X192662476Y-91525904D01*
X192548190Y-91564000D01*
X192319619Y-91525904D02*
X191862476Y-91525904D01*
X192091047Y-92325904D02*
X192091047Y-91525904D01*
X189481047Y-92325904D02*
X189481047Y-91525904D01*
X188947714Y-91525904D02*
X188795333Y-91525904D01*
X188719142Y-91564000D01*
X188642952Y-91640190D01*
X188604857Y-91792571D01*
X188604857Y-92059238D01*
X188642952Y-92211619D01*
X188719142Y-92287809D01*
X188795333Y-92325904D01*
X188947714Y-92325904D01*
X189023904Y-92287809D01*
X189100095Y-92211619D01*
X189138190Y-92059238D01*
X189138190Y-91792571D01*
X189100095Y-91640190D01*
X189023904Y-91564000D01*
X188947714Y-91525904D01*
X181810285Y-91779904D02*
X182191238Y-91779904D01*
X182229333Y-92160857D01*
X182191238Y-92122761D01*
X182115047Y-92084666D01*
X181924571Y-92084666D01*
X181848380Y-92122761D01*
X181810285Y-92160857D01*
X181772190Y-92237047D01*
X181772190Y-92427523D01*
X181810285Y-92503714D01*
X181848380Y-92541809D01*
X181924571Y-92579904D01*
X182115047Y-92579904D01*
X182191238Y-92541809D01*
X182229333Y-92503714D01*
X181505523Y-92046571D02*
X181315047Y-92579904D01*
X181124571Y-92046571D01*
X220926285Y-91525904D02*
X221307238Y-91525904D01*
X221345333Y-91906857D01*
X221307238Y-91868761D01*
X221231047Y-91830666D01*
X221040571Y-91830666D01*
X220964380Y-91868761D01*
X220926285Y-91906857D01*
X220888190Y-91983047D01*
X220888190Y-92173523D01*
X220926285Y-92249714D01*
X220964380Y-92287809D01*
X221040571Y-92325904D01*
X221231047Y-92325904D01*
X221307238Y-92287809D01*
X221345333Y-92249714D01*
X220621523Y-91792571D02*
X220431047Y-92325904D01*
X220240571Y-91792571D01*
X225390285Y-97659904D02*
X225771238Y-97659904D01*
X225771238Y-96859904D01*
X225123619Y-97240857D02*
X224856952Y-97240857D01*
X224742666Y-97659904D02*
X225123619Y-97659904D01*
X225123619Y-96859904D01*
X224742666Y-96859904D01*
X224399809Y-97659904D02*
X224399809Y-96859904D01*
X224209333Y-96859904D01*
X224095047Y-96898000D01*
X224018857Y-96974190D01*
X223980761Y-97050380D01*
X223942666Y-97202761D01*
X223942666Y-97317047D01*
X223980761Y-97469428D01*
X224018857Y-97545619D01*
X224095047Y-97621809D01*
X224209333Y-97659904D01*
X224399809Y-97659904D01*
X221180285Y-96859904D02*
X221561238Y-96859904D01*
X221599333Y-97240857D01*
X221561238Y-97202761D01*
X221485047Y-97164666D01*
X221294571Y-97164666D01*
X221218380Y-97202761D01*
X221180285Y-97240857D01*
X221142190Y-97317047D01*
X221142190Y-97507523D01*
X221180285Y-97583714D01*
X221218380Y-97621809D01*
X221294571Y-97659904D01*
X221485047Y-97659904D01*
X221561238Y-97621809D01*
X221599333Y-97583714D01*
X220875523Y-97126571D02*
X220685047Y-97659904D01*
X220494571Y-97126571D01*
X183080285Y-96859904D02*
X183461238Y-96859904D01*
X183499333Y-97240857D01*
X183461238Y-97202761D01*
X183385047Y-97164666D01*
X183194571Y-97164666D01*
X183118380Y-97202761D01*
X183080285Y-97240857D01*
X183042190Y-97317047D01*
X183042190Y-97507523D01*
X183080285Y-97583714D01*
X183118380Y-97621809D01*
X183194571Y-97659904D01*
X183385047Y-97659904D01*
X183461238Y-97621809D01*
X183499333Y-97583714D01*
X182775523Y-97126571D02*
X182585047Y-97659904D01*
X182394571Y-97126571D01*
X187201428Y-97659904D02*
X187468095Y-97278952D01*
X187658571Y-97659904D02*
X187658571Y-96859904D01*
X187353809Y-96859904D01*
X187277619Y-96898000D01*
X187239523Y-96936095D01*
X187201428Y-97012285D01*
X187201428Y-97126571D01*
X187239523Y-97202761D01*
X187277619Y-97240857D01*
X187353809Y-97278952D01*
X187658571Y-97278952D01*
X186325238Y-97736095D02*
X186401428Y-97698000D01*
X186477619Y-97621809D01*
X186591904Y-97507523D01*
X186668095Y-97469428D01*
X186744285Y-97469428D01*
X186706190Y-97659904D02*
X186782380Y-97621809D01*
X186858571Y-97545619D01*
X186896666Y-97393238D01*
X186896666Y-97126571D01*
X186858571Y-96974190D01*
X186782380Y-96898000D01*
X186706190Y-96859904D01*
X186553809Y-96859904D01*
X186477619Y-96898000D01*
X186401428Y-96974190D01*
X186363333Y-97126571D01*
X186363333Y-97393238D01*
X186401428Y-97545619D01*
X186477619Y-97621809D01*
X186553809Y-97659904D01*
X186706190Y-97659904D01*
X188960380Y-97583714D02*
X188998476Y-97621809D01*
X189112761Y-97659904D01*
X189188952Y-97659904D01*
X189303238Y-97621809D01*
X189379428Y-97545619D01*
X189417523Y-97469428D01*
X189455619Y-97317047D01*
X189455619Y-97202761D01*
X189417523Y-97050380D01*
X189379428Y-96974190D01*
X189303238Y-96898000D01*
X189188952Y-96859904D01*
X189112761Y-96859904D01*
X188998476Y-96898000D01*
X188960380Y-96936095D01*
X188617523Y-97659904D02*
X188617523Y-96859904D01*
X188427047Y-96859904D01*
X188312761Y-96898000D01*
X188236571Y-96974190D01*
X188198476Y-97050380D01*
X188160380Y-97202761D01*
X188160380Y-97317047D01*
X188198476Y-97469428D01*
X188236571Y-97545619D01*
X188312761Y-97621809D01*
X188427047Y-97659904D01*
X188617523Y-97659904D01*
X191392380Y-97621809D02*
X191278095Y-97659904D01*
X191087619Y-97659904D01*
X191011428Y-97621809D01*
X190973333Y-97583714D01*
X190935238Y-97507523D01*
X190935238Y-97431333D01*
X190973333Y-97355142D01*
X191011428Y-97317047D01*
X191087619Y-97278952D01*
X191240000Y-97240857D01*
X191316190Y-97202761D01*
X191354285Y-97164666D01*
X191392380Y-97088476D01*
X191392380Y-97012285D01*
X191354285Y-96936095D01*
X191316190Y-96898000D01*
X191240000Y-96859904D01*
X191049523Y-96859904D01*
X190935238Y-96898000D01*
X190211428Y-97659904D02*
X190592380Y-97659904D01*
X190592380Y-96859904D01*
X193538666Y-97659904D02*
X193538666Y-96859904D01*
X193272000Y-97431333D01*
X193005333Y-96859904D01*
X193005333Y-97659904D01*
X192205333Y-96898000D02*
X192281523Y-96859904D01*
X192395809Y-96859904D01*
X192510095Y-96898000D01*
X192586285Y-96974190D01*
X192624380Y-97050380D01*
X192662476Y-97202761D01*
X192662476Y-97317047D01*
X192624380Y-97469428D01*
X192586285Y-97545619D01*
X192510095Y-97621809D01*
X192395809Y-97659904D01*
X192319619Y-97659904D01*
X192205333Y-97621809D01*
X192167238Y-97583714D01*
X192167238Y-97317047D01*
X192319619Y-97317047D01*
X195494476Y-97431333D02*
X195113523Y-97431333D01*
X195570666Y-97659904D02*
X195304000Y-96859904D01*
X195037333Y-97659904D01*
X194770666Y-97659904D02*
X194770666Y-96859904D01*
X194313523Y-97659904D02*
X194656380Y-97202761D01*
X194313523Y-96859904D02*
X194770666Y-97317047D01*
X197221714Y-97240857D02*
X197107428Y-97278952D01*
X197069333Y-97317047D01*
X197031238Y-97393238D01*
X197031238Y-97507523D01*
X197069333Y-97583714D01*
X197107428Y-97621809D01*
X197183619Y-97659904D01*
X197488380Y-97659904D01*
X197488380Y-96859904D01*
X197221714Y-96859904D01*
X197145523Y-96898000D01*
X197107428Y-96936095D01*
X197069333Y-97012285D01*
X197069333Y-97088476D01*
X197107428Y-97164666D01*
X197145523Y-97202761D01*
X197221714Y-97240857D01*
X197488380Y-97240857D01*
X196536000Y-97278952D02*
X196536000Y-97659904D01*
X196802666Y-96859904D02*
X196536000Y-97278952D01*
X196269333Y-96859904D01*
X217338476Y-97659904D02*
X217338476Y-96859904D01*
X217148000Y-96859904D01*
X217033714Y-96898000D01*
X216957523Y-96974190D01*
X216919428Y-97050380D01*
X216881333Y-97202761D01*
X216881333Y-97317047D01*
X216919428Y-97469428D01*
X216957523Y-97545619D01*
X217033714Y-97621809D01*
X217148000Y-97659904D01*
X217338476Y-97659904D01*
X216386095Y-96859904D02*
X216309904Y-96859904D01*
X216233714Y-96898000D01*
X216195619Y-96936095D01*
X216157523Y-97012285D01*
X216119428Y-97164666D01*
X216119428Y-97355142D01*
X216157523Y-97507523D01*
X216195619Y-97583714D01*
X216233714Y-97621809D01*
X216309904Y-97659904D01*
X216386095Y-97659904D01*
X216462285Y-97621809D01*
X216500380Y-97583714D01*
X216538476Y-97507523D01*
X216576571Y-97355142D01*
X216576571Y-97164666D01*
X216538476Y-97012285D01*
X216500380Y-96936095D01*
X216462285Y-96898000D01*
X216386095Y-96859904D01*
X215560476Y-97659904D02*
X215560476Y-96859904D01*
X215370000Y-96859904D01*
X215255714Y-96898000D01*
X215179523Y-96974190D01*
X215141428Y-97050380D01*
X215103333Y-97202761D01*
X215103333Y-97317047D01*
X215141428Y-97469428D01*
X215179523Y-97545619D01*
X215255714Y-97621809D01*
X215370000Y-97659904D01*
X215560476Y-97659904D01*
X214341428Y-97659904D02*
X214798571Y-97659904D01*
X214570000Y-97659904D02*
X214570000Y-96859904D01*
X214646190Y-96974190D01*
X214722380Y-97050380D01*
X214798571Y-97088476D01*
X213528476Y-97659904D02*
X213528476Y-96859904D01*
X213338000Y-96859904D01*
X213223714Y-96898000D01*
X213147523Y-96974190D01*
X213109428Y-97050380D01*
X213071333Y-97202761D01*
X213071333Y-97317047D01*
X213109428Y-97469428D01*
X213147523Y-97545619D01*
X213223714Y-97621809D01*
X213338000Y-97659904D01*
X213528476Y-97659904D01*
X212766571Y-96936095D02*
X212728476Y-96898000D01*
X212652285Y-96859904D01*
X212461809Y-96859904D01*
X212385619Y-96898000D01*
X212347523Y-96936095D01*
X212309428Y-97012285D01*
X212309428Y-97088476D01*
X212347523Y-97202761D01*
X212804666Y-97659904D01*
X212309428Y-97659904D01*
X211496476Y-97659904D02*
X211496476Y-96859904D01*
X211306000Y-96859904D01*
X211191714Y-96898000D01*
X211115523Y-96974190D01*
X211077428Y-97050380D01*
X211039333Y-97202761D01*
X211039333Y-97317047D01*
X211077428Y-97469428D01*
X211115523Y-97545619D01*
X211191714Y-97621809D01*
X211306000Y-97659904D01*
X211496476Y-97659904D01*
X210772666Y-96859904D02*
X210277428Y-96859904D01*
X210544095Y-97164666D01*
X210429809Y-97164666D01*
X210353619Y-97202761D01*
X210315523Y-97240857D01*
X210277428Y-97317047D01*
X210277428Y-97507523D01*
X210315523Y-97583714D01*
X210353619Y-97621809D01*
X210429809Y-97659904D01*
X210658380Y-97659904D01*
X210734571Y-97621809D01*
X210772666Y-97583714D01*
X209464476Y-97659904D02*
X209464476Y-96859904D01*
X209274000Y-96859904D01*
X209159714Y-96898000D01*
X209083523Y-96974190D01*
X209045428Y-97050380D01*
X209007333Y-97202761D01*
X209007333Y-97317047D01*
X209045428Y-97469428D01*
X209083523Y-97545619D01*
X209159714Y-97621809D01*
X209274000Y-97659904D01*
X209464476Y-97659904D01*
X208321619Y-97126571D02*
X208321619Y-97659904D01*
X208512095Y-96821809D02*
X208702571Y-97393238D01*
X208207333Y-97393238D01*
X207432476Y-97659904D02*
X207432476Y-96859904D01*
X207242000Y-96859904D01*
X207127714Y-96898000D01*
X207051523Y-96974190D01*
X207013428Y-97050380D01*
X206975333Y-97202761D01*
X206975333Y-97317047D01*
X207013428Y-97469428D01*
X207051523Y-97545619D01*
X207127714Y-97621809D01*
X207242000Y-97659904D01*
X207432476Y-97659904D01*
X206251523Y-96859904D02*
X206632476Y-96859904D01*
X206670571Y-97240857D01*
X206632476Y-97202761D01*
X206556285Y-97164666D01*
X206365809Y-97164666D01*
X206289619Y-97202761D01*
X206251523Y-97240857D01*
X206213428Y-97317047D01*
X206213428Y-97507523D01*
X206251523Y-97583714D01*
X206289619Y-97621809D01*
X206365809Y-97659904D01*
X206556285Y-97659904D01*
X206632476Y-97621809D01*
X206670571Y-97583714D01*
X205400476Y-97659904D02*
X205400476Y-96859904D01*
X205210000Y-96859904D01*
X205095714Y-96898000D01*
X205019523Y-96974190D01*
X204981428Y-97050380D01*
X204943333Y-97202761D01*
X204943333Y-97317047D01*
X204981428Y-97469428D01*
X205019523Y-97545619D01*
X205095714Y-97621809D01*
X205210000Y-97659904D01*
X205400476Y-97659904D01*
X204257619Y-96859904D02*
X204410000Y-96859904D01*
X204486190Y-96898000D01*
X204524285Y-96936095D01*
X204600476Y-97050380D01*
X204638571Y-97202761D01*
X204638571Y-97507523D01*
X204600476Y-97583714D01*
X204562380Y-97621809D01*
X204486190Y-97659904D01*
X204333809Y-97659904D01*
X204257619Y-97621809D01*
X204219523Y-97583714D01*
X204181428Y-97507523D01*
X204181428Y-97317047D01*
X204219523Y-97240857D01*
X204257619Y-97202761D01*
X204333809Y-97164666D01*
X204486190Y-97164666D01*
X204562380Y-97202761D01*
X204600476Y-97240857D01*
X204638571Y-97317047D01*
X203368476Y-97659904D02*
X203368476Y-96859904D01*
X203178000Y-96859904D01*
X203063714Y-96898000D01*
X202987523Y-96974190D01*
X202949428Y-97050380D01*
X202911333Y-97202761D01*
X202911333Y-97317047D01*
X202949428Y-97469428D01*
X202987523Y-97545619D01*
X203063714Y-97621809D01*
X203178000Y-97659904D01*
X203368476Y-97659904D01*
X202644666Y-96859904D02*
X202111333Y-96859904D01*
X202454190Y-97659904D01*
X201609523Y-97659904D02*
X201609523Y-96859904D01*
X201419047Y-96859904D01*
X201304761Y-96898000D01*
X201228571Y-96974190D01*
X201190476Y-97050380D01*
X201152380Y-97202761D01*
X201152380Y-97317047D01*
X201190476Y-97469428D01*
X201228571Y-97545619D01*
X201304761Y-97621809D01*
X201419047Y-97659904D01*
X201609523Y-97659904D01*
X200809523Y-97659904D02*
X200809523Y-96859904D01*
X200504761Y-96859904D01*
X200428571Y-96898000D01*
X200390476Y-96936095D01*
X200352380Y-97012285D01*
X200352380Y-97126571D01*
X200390476Y-97202761D01*
X200428571Y-97240857D01*
X200504761Y-97278952D01*
X200809523Y-97278952D01*
D12*
X223789428Y-75513428D02*
X223789428Y-74442000D01*
X223718000Y-74227714D01*
X223575142Y-74084857D01*
X223360857Y-74013428D01*
X223218000Y-74013428D01*
X225218000Y-74013428D02*
X224503714Y-74013428D01*
X224503714Y-75513428D01*
X226575142Y-74156285D02*
X226503714Y-74084857D01*
X226289428Y-74013428D01*
X226146571Y-74013428D01*
X225932285Y-74084857D01*
X225789428Y-74227714D01*
X225718000Y-74370571D01*
X225646571Y-74656285D01*
X225646571Y-74870571D01*
X225718000Y-75156285D01*
X225789428Y-75299142D01*
X225932285Y-75442000D01*
X226146571Y-75513428D01*
X226289428Y-75513428D01*
X226503714Y-75442000D01*
X226575142Y-75370571D01*
X227646571Y-75513428D02*
X227646571Y-74442000D01*
X227575142Y-74227714D01*
X227432285Y-74084857D01*
X227218000Y-74013428D01*
X227075142Y-74013428D01*
X229075142Y-74013428D02*
X228360857Y-74013428D01*
X228360857Y-75513428D01*
X230432285Y-74156285D02*
X230360857Y-74084857D01*
X230146571Y-74013428D01*
X230003714Y-74013428D01*
X229789428Y-74084857D01*
X229646571Y-74227714D01*
X229575142Y-74370571D01*
X229503714Y-74656285D01*
X229503714Y-74870571D01*
X229575142Y-75156285D01*
X229646571Y-75299142D01*
X229789428Y-75442000D01*
X230003714Y-75513428D01*
X230146571Y-75513428D01*
X230360857Y-75442000D01*
X230432285Y-75370571D01*
X231503714Y-75513428D02*
X231503714Y-74442000D01*
X231432285Y-74227714D01*
X231289428Y-74084857D01*
X231075142Y-74013428D01*
X230932285Y-74013428D01*
X232932285Y-74013428D02*
X232218000Y-74013428D01*
X232218000Y-75513428D01*
X234289428Y-74156285D02*
X234218000Y-74084857D01*
X234003714Y-74013428D01*
X233860857Y-74013428D01*
X233646571Y-74084857D01*
X233503714Y-74227714D01*
X233432285Y-74370571D01*
X233360857Y-74656285D01*
X233360857Y-74870571D01*
X233432285Y-75156285D01*
X233503714Y-75299142D01*
X233646571Y-75442000D01*
X233860857Y-75513428D01*
X234003714Y-75513428D01*
X234218000Y-75442000D01*
X234289428Y-75370571D01*
X235360857Y-75513428D02*
X235360857Y-74442000D01*
X235289428Y-74227714D01*
X235146571Y-74084857D01*
X234932285Y-74013428D01*
X234789428Y-74013428D01*
X236789428Y-74013428D02*
X236075142Y-74013428D01*
X236075142Y-75513428D01*
X238146571Y-74156285D02*
X238075142Y-74084857D01*
X237860857Y-74013428D01*
X237718000Y-74013428D01*
X237503714Y-74084857D01*
X237360857Y-74227714D01*
X237289428Y-74370571D01*
X237218000Y-74656285D01*
X237218000Y-74870571D01*
X237289428Y-75156285D01*
X237360857Y-75299142D01*
X237503714Y-75442000D01*
X237718000Y-75513428D01*
X237860857Y-75513428D01*
X238075142Y-75442000D01*
X238146571Y-75370571D01*
D10*
X218602095Y-86483904D02*
X218602095Y-85683904D01*
X217649714Y-85645809D02*
X218335428Y-86674380D01*
X217230666Y-85683904D02*
X217078285Y-85683904D01*
X217002095Y-85722000D01*
X216925904Y-85798190D01*
X216887809Y-85950571D01*
X216887809Y-86217238D01*
X216925904Y-86369619D01*
X217002095Y-86445809D01*
X217078285Y-86483904D01*
X217230666Y-86483904D01*
X217306857Y-86445809D01*
X217383047Y-86369619D01*
X217421142Y-86217238D01*
X217421142Y-85950571D01*
X217383047Y-85798190D01*
X217306857Y-85722000D01*
X217230666Y-85683904D01*
X215703095Y-86483904D02*
X215969761Y-86102952D01*
X216160238Y-86483904D02*
X216160238Y-85683904D01*
X215855476Y-85683904D01*
X215779285Y-85722000D01*
X215741190Y-85760095D01*
X215703095Y-85836285D01*
X215703095Y-85950571D01*
X215741190Y-86026761D01*
X215779285Y-86064857D01*
X215855476Y-86102952D01*
X216160238Y-86102952D01*
X215398333Y-86445809D02*
X215284047Y-86483904D01*
X215093571Y-86483904D01*
X215017380Y-86445809D01*
X214979285Y-86407714D01*
X214941190Y-86331523D01*
X214941190Y-86255333D01*
X214979285Y-86179142D01*
X215017380Y-86141047D01*
X215093571Y-86102952D01*
X215245952Y-86064857D01*
X215322142Y-86026761D01*
X215360238Y-85988666D01*
X215398333Y-85912476D01*
X215398333Y-85836285D01*
X215360238Y-85760095D01*
X215322142Y-85722000D01*
X215245952Y-85683904D01*
X215055476Y-85683904D01*
X214941190Y-85722000D01*
X214712619Y-85683904D02*
X214255476Y-85683904D01*
X214484047Y-86483904D02*
X214484047Y-85683904D01*
X209280285Y-89239809D02*
X209166000Y-89277904D01*
X208975523Y-89277904D01*
X208899333Y-89239809D01*
X208861238Y-89201714D01*
X208823142Y-89125523D01*
X208823142Y-89049333D01*
X208861238Y-88973142D01*
X208899333Y-88935047D01*
X208975523Y-88896952D01*
X209127904Y-88858857D01*
X209204095Y-88820761D01*
X209242190Y-88782666D01*
X209280285Y-88706476D01*
X209280285Y-88630285D01*
X209242190Y-88554095D01*
X209204095Y-88516000D01*
X209127904Y-88477904D01*
X208937428Y-88477904D01*
X208823142Y-88516000D01*
X208480285Y-88858857D02*
X208213619Y-88858857D01*
X208099333Y-89277904D02*
X208480285Y-89277904D01*
X208480285Y-88477904D01*
X208099333Y-88477904D01*
X207375523Y-89277904D02*
X207756476Y-89277904D01*
X207756476Y-88477904D01*
X204806476Y-86483904D02*
X204806476Y-85683904D01*
X204616000Y-85683904D01*
X204501714Y-85722000D01*
X204425523Y-85798190D01*
X204387428Y-85874380D01*
X204349333Y-86026761D01*
X204349333Y-86141047D01*
X204387428Y-86293428D01*
X204425523Y-86369619D01*
X204501714Y-86445809D01*
X204616000Y-86483904D01*
X204806476Y-86483904D01*
X203854095Y-85683904D02*
X203777904Y-85683904D01*
X203701714Y-85722000D01*
X203663619Y-85760095D01*
X203625523Y-85836285D01*
X203587428Y-85988666D01*
X203587428Y-86179142D01*
X203625523Y-86331523D01*
X203663619Y-86407714D01*
X203701714Y-86445809D01*
X203777904Y-86483904D01*
X203854095Y-86483904D01*
X203930285Y-86445809D01*
X203968380Y-86407714D01*
X204006476Y-86331523D01*
X204044571Y-86179142D01*
X204044571Y-85988666D01*
X204006476Y-85836285D01*
X203968380Y-85760095D01*
X203930285Y-85722000D01*
X203854095Y-85683904D01*
X196510476Y-86483904D02*
X196510476Y-85683904D01*
X196320000Y-85683904D01*
X196205714Y-85722000D01*
X196129523Y-85798190D01*
X196091428Y-85874380D01*
X196053333Y-86026761D01*
X196053333Y-86141047D01*
X196091428Y-86293428D01*
X196129523Y-86369619D01*
X196205714Y-86445809D01*
X196320000Y-86483904D01*
X196510476Y-86483904D01*
X195329523Y-85683904D02*
X195710476Y-85683904D01*
X195748571Y-86064857D01*
X195710476Y-86026761D01*
X195634285Y-85988666D01*
X195443809Y-85988666D01*
X195367619Y-86026761D01*
X195329523Y-86064857D01*
X195291428Y-86141047D01*
X195291428Y-86331523D01*
X195329523Y-86407714D01*
X195367619Y-86445809D01*
X195443809Y-86483904D01*
X195634285Y-86483904D01*
X195710476Y-86445809D01*
X195748571Y-86407714D01*
X210302666Y-86064857D02*
X210188380Y-86102952D01*
X210150285Y-86141047D01*
X210112190Y-86217238D01*
X210112190Y-86331523D01*
X210150285Y-86407714D01*
X210188380Y-86445809D01*
X210264571Y-86483904D01*
X210569333Y-86483904D01*
X210569333Y-85683904D01*
X210302666Y-85683904D01*
X210226476Y-85722000D01*
X210188380Y-85760095D01*
X210150285Y-85836285D01*
X210150285Y-85912476D01*
X210188380Y-85988666D01*
X210226476Y-86026761D01*
X210302666Y-86064857D01*
X210569333Y-86064857D01*
X209807428Y-86445809D02*
X209693142Y-86483904D01*
X209502666Y-86483904D01*
X209426476Y-86445809D01*
X209388380Y-86407714D01*
X209350285Y-86331523D01*
X209350285Y-86255333D01*
X209388380Y-86179142D01*
X209426476Y-86141047D01*
X209502666Y-86102952D01*
X209655047Y-86064857D01*
X209731238Y-86026761D01*
X209769333Y-85988666D01*
X209807428Y-85912476D01*
X209807428Y-85836285D01*
X209769333Y-85760095D01*
X209731238Y-85722000D01*
X209655047Y-85683904D01*
X209464571Y-85683904D01*
X209350285Y-85722000D01*
X208855047Y-86102952D02*
X208855047Y-86483904D01*
X209121714Y-85683904D02*
X208855047Y-86102952D01*
X208588380Y-85683904D01*
X193630476Y-86483904D02*
X193630476Y-85683904D01*
X193440000Y-85683904D01*
X193325714Y-85722000D01*
X193249523Y-85798190D01*
X193211428Y-85874380D01*
X193173333Y-86026761D01*
X193173333Y-86141047D01*
X193211428Y-86293428D01*
X193249523Y-86369619D01*
X193325714Y-86445809D01*
X193440000Y-86483904D01*
X193630476Y-86483904D01*
X192487619Y-85683904D02*
X192640000Y-85683904D01*
X192716190Y-85722000D01*
X192754285Y-85760095D01*
X192830476Y-85874380D01*
X192868571Y-86026761D01*
X192868571Y-86331523D01*
X192830476Y-86407714D01*
X192792380Y-86445809D01*
X192716190Y-86483904D01*
X192563809Y-86483904D01*
X192487619Y-86445809D01*
X192449523Y-86407714D01*
X192411428Y-86331523D01*
X192411428Y-86141047D01*
X192449523Y-86064857D01*
X192487619Y-86026761D01*
X192563809Y-85988666D01*
X192716190Y-85988666D01*
X192792380Y-86026761D01*
X192830476Y-86064857D01*
X192868571Y-86141047D01*
X203368476Y-89277904D02*
X203368476Y-88477904D01*
X203178000Y-88477904D01*
X203063714Y-88516000D01*
X202987523Y-88592190D01*
X202949428Y-88668380D01*
X202911333Y-88820761D01*
X202911333Y-88935047D01*
X202949428Y-89087428D01*
X202987523Y-89163619D01*
X203063714Y-89239809D01*
X203178000Y-89277904D01*
X203368476Y-89277904D01*
X202149428Y-89277904D02*
X202606571Y-89277904D01*
X202378000Y-89277904D02*
X202378000Y-88477904D01*
X202454190Y-88592190D01*
X202530380Y-88668380D01*
X202606571Y-88706476D01*
X198034476Y-89277904D02*
X198034476Y-88477904D01*
X197844000Y-88477904D01*
X197729714Y-88516000D01*
X197653523Y-88592190D01*
X197615428Y-88668380D01*
X197577333Y-88820761D01*
X197577333Y-88935047D01*
X197615428Y-89087428D01*
X197653523Y-89163619D01*
X197729714Y-89239809D01*
X197844000Y-89277904D01*
X198034476Y-89277904D01*
X196891619Y-88744571D02*
X196891619Y-89277904D01*
X197082095Y-88439809D02*
X197272571Y-89011238D01*
X196777333Y-89011238D01*
X200574476Y-89277904D02*
X200574476Y-88477904D01*
X200384000Y-88477904D01*
X200269714Y-88516000D01*
X200193523Y-88592190D01*
X200155428Y-88668380D01*
X200117333Y-88820761D01*
X200117333Y-88935047D01*
X200155428Y-89087428D01*
X200193523Y-89163619D01*
X200269714Y-89239809D01*
X200384000Y-89277904D01*
X200574476Y-89277904D01*
X199812571Y-88554095D02*
X199774476Y-88516000D01*
X199698285Y-88477904D01*
X199507809Y-88477904D01*
X199431619Y-88516000D01*
X199393523Y-88554095D01*
X199355428Y-88630285D01*
X199355428Y-88706476D01*
X199393523Y-88820761D01*
X199850666Y-89277904D01*
X199355428Y-89277904D01*
X221859619Y-86483904D02*
X221859619Y-85683904D01*
X221592952Y-86255333D01*
X221326285Y-85683904D01*
X221326285Y-86483904D01*
X220983428Y-86445809D02*
X220869142Y-86483904D01*
X220678666Y-86483904D01*
X220602476Y-86445809D01*
X220564380Y-86407714D01*
X220526285Y-86331523D01*
X220526285Y-86255333D01*
X220564380Y-86179142D01*
X220602476Y-86141047D01*
X220678666Y-86102952D01*
X220831047Y-86064857D01*
X220907238Y-86026761D01*
X220945333Y-85988666D01*
X220983428Y-85912476D01*
X220983428Y-85836285D01*
X220945333Y-85760095D01*
X220907238Y-85722000D01*
X220831047Y-85683904D01*
X220640571Y-85683904D01*
X220526285Y-85722000D01*
X219764380Y-85722000D02*
X219840571Y-85683904D01*
X219954857Y-85683904D01*
X220069142Y-85722000D01*
X220145333Y-85798190D01*
X220183428Y-85874380D01*
X220221523Y-86026761D01*
X220221523Y-86141047D01*
X220183428Y-86293428D01*
X220145333Y-86369619D01*
X220069142Y-86445809D01*
X219954857Y-86483904D01*
X219878666Y-86483904D01*
X219764380Y-86445809D01*
X219726285Y-86407714D01*
X219726285Y-86141047D01*
X219878666Y-86141047D01*
X193341714Y-88477904D02*
X192884571Y-88477904D01*
X193113142Y-89277904D02*
X193113142Y-88477904D01*
X192617904Y-89277904D02*
X192617904Y-88477904D01*
X192313142Y-88477904D01*
X192236952Y-88516000D01*
X192198857Y-88554095D01*
X192160761Y-88630285D01*
X192160761Y-88744571D01*
X192198857Y-88820761D01*
X192236952Y-88858857D01*
X192313142Y-88896952D01*
X192617904Y-88896952D01*
X191894095Y-88477904D02*
X191703619Y-89277904D01*
X191551238Y-88706476D01*
X191398857Y-89277904D01*
X191208380Y-88477904D01*
X190446476Y-89277904D02*
X190713142Y-88896952D01*
X190903619Y-89277904D02*
X190903619Y-88477904D01*
X190598857Y-88477904D01*
X190522666Y-88516000D01*
X190484571Y-88554095D01*
X190446476Y-88630285D01*
X190446476Y-88744571D01*
X190484571Y-88820761D01*
X190522666Y-88858857D01*
X190598857Y-88896952D01*
X190903619Y-88896952D01*
X199304476Y-86483904D02*
X199304476Y-85683904D01*
X199114000Y-85683904D01*
X198999714Y-85722000D01*
X198923523Y-85798190D01*
X198885428Y-85874380D01*
X198847333Y-86026761D01*
X198847333Y-86141047D01*
X198885428Y-86293428D01*
X198923523Y-86369619D01*
X198999714Y-86445809D01*
X199114000Y-86483904D01*
X199304476Y-86483904D01*
X198580666Y-85683904D02*
X198085428Y-85683904D01*
X198352095Y-85988666D01*
X198237809Y-85988666D01*
X198161619Y-86026761D01*
X198123523Y-86064857D01*
X198085428Y-86141047D01*
X198085428Y-86331523D01*
X198123523Y-86407714D01*
X198161619Y-86445809D01*
X198237809Y-86483904D01*
X198466380Y-86483904D01*
X198542571Y-86445809D01*
X198580666Y-86407714D01*
X220113428Y-89201714D02*
X220151523Y-89239809D01*
X220265809Y-89277904D01*
X220342000Y-89277904D01*
X220456285Y-89239809D01*
X220532476Y-89163619D01*
X220570571Y-89087428D01*
X220608666Y-88935047D01*
X220608666Y-88820761D01*
X220570571Y-88668380D01*
X220532476Y-88592190D01*
X220456285Y-88516000D01*
X220342000Y-88477904D01*
X220265809Y-88477904D01*
X220151523Y-88516000D01*
X220113428Y-88554095D01*
X219199142Y-88439809D02*
X219884857Y-89468380D01*
X218932476Y-89277904D02*
X218932476Y-88477904D01*
X218742000Y-88477904D01*
X218627714Y-88516000D01*
X218551523Y-88592190D01*
X218513428Y-88668380D01*
X218475333Y-88820761D01*
X218475333Y-88935047D01*
X218513428Y-89087428D01*
X218551523Y-89163619D01*
X218627714Y-89239809D01*
X218742000Y-89277904D01*
X218932476Y-89277904D01*
X213588476Y-86258429D02*
X213207523Y-86258429D01*
X213664666Y-86487000D02*
X213398000Y-85687000D01*
X213131333Y-86487000D01*
X212407523Y-86410810D02*
X212445619Y-86448905D01*
X212559904Y-86487000D01*
X212636095Y-86487000D01*
X212750380Y-86448905D01*
X212826571Y-86372715D01*
X212864666Y-86296524D01*
X212902761Y-86144143D01*
X212902761Y-86029857D01*
X212864666Y-85877476D01*
X212826571Y-85801286D01*
X212750380Y-85725096D01*
X212636095Y-85687000D01*
X212559904Y-85687000D01*
X212445619Y-85725096D01*
X212407523Y-85763191D01*
X212064666Y-86487000D02*
X212064666Y-85687000D01*
X211607523Y-86487000D02*
X211950380Y-86029857D01*
X211607523Y-85687000D02*
X212064666Y-86144143D01*
X214868285Y-89049333D02*
X214487333Y-89049333D01*
X214944476Y-89277904D02*
X214677809Y-88477904D01*
X214411142Y-89277904D01*
X214258761Y-88477904D02*
X213801619Y-88477904D01*
X214030190Y-89277904D02*
X214030190Y-88477904D01*
X213534952Y-89277904D02*
X213534952Y-88477904D01*
X213077809Y-89277904D01*
X213077809Y-88477904D01*
X206181523Y-89277904D02*
X206181523Y-88477904D01*
X205991047Y-88477904D01*
X205876761Y-88516000D01*
X205800571Y-88592190D01*
X205762476Y-88668380D01*
X205724380Y-88820761D01*
X205724380Y-88935047D01*
X205762476Y-89087428D01*
X205800571Y-89163619D01*
X205876761Y-89239809D01*
X205991047Y-89277904D01*
X206181523Y-89277904D01*
X205381523Y-89277904D02*
X205381523Y-88477904D01*
X205076761Y-88477904D01*
X205000571Y-88516000D01*
X204962476Y-88554095D01*
X204924380Y-88630285D01*
X204924380Y-88744571D01*
X204962476Y-88820761D01*
X205000571Y-88858857D01*
X205076761Y-88896952D01*
X205381523Y-88896952D01*
X190922476Y-86483904D02*
X190922476Y-85683904D01*
X190732000Y-85683904D01*
X190617714Y-85722000D01*
X190541523Y-85798190D01*
X190503428Y-85874380D01*
X190465333Y-86026761D01*
X190465333Y-86141047D01*
X190503428Y-86293428D01*
X190541523Y-86369619D01*
X190617714Y-86445809D01*
X190732000Y-86483904D01*
X190922476Y-86483904D01*
X190198666Y-85683904D02*
X189665333Y-85683904D01*
X190008190Y-86483904D01*
X224393333Y-86448904D02*
X224660000Y-86067952D01*
X224850476Y-86448904D02*
X224850476Y-85648904D01*
X224545714Y-85648904D01*
X224469523Y-85687000D01*
X224431428Y-85725095D01*
X224393333Y-85801285D01*
X224393333Y-85915571D01*
X224431428Y-85991761D01*
X224469523Y-86029857D01*
X224545714Y-86067952D01*
X224850476Y-86067952D01*
X224050476Y-86029857D02*
X223783809Y-86029857D01*
X223669523Y-86448904D02*
X224050476Y-86448904D01*
X224050476Y-85648904D01*
X223669523Y-85648904D01*
X222793333Y-86525095D02*
X222869523Y-86487000D01*
X222945714Y-86410809D01*
X223060000Y-86296523D01*
X223136190Y-86258428D01*
X223212380Y-86258428D01*
X223174285Y-86448904D02*
X223250476Y-86410809D01*
X223326666Y-86334619D01*
X223364761Y-86182238D01*
X223364761Y-85915571D01*
X223326666Y-85763190D01*
X223250476Y-85687000D01*
X223174285Y-85648904D01*
X223021904Y-85648904D01*
X222945714Y-85687000D01*
X222869523Y-85763190D01*
X222831428Y-85915571D01*
X222831428Y-86182238D01*
X222869523Y-86334619D01*
X222945714Y-86410809D01*
X223021904Y-86448904D01*
X223174285Y-86448904D01*
X236847119Y-78822476D02*
X237847119Y-78822476D01*
X237894738Y-77870095D02*
X236609023Y-78555809D01*
X237847119Y-77451047D02*
X237847119Y-77298666D01*
X237799500Y-77222476D01*
X237704261Y-77146285D01*
X237513785Y-77108190D01*
X237180452Y-77108190D01*
X236989976Y-77146285D01*
X236894738Y-77222476D01*
X236847119Y-77298666D01*
X236847119Y-77451047D01*
X236894738Y-77527238D01*
X236989976Y-77603428D01*
X237180452Y-77641523D01*
X237513785Y-77641523D01*
X237704261Y-77603428D01*
X237799500Y-77527238D01*
X237847119Y-77451047D01*
X234352471Y-78365333D02*
X234828661Y-78632000D01*
X234352471Y-78822476D02*
X235352471Y-78822476D01*
X235352471Y-78517714D01*
X235304852Y-78441523D01*
X235257232Y-78403428D01*
X235161994Y-78365333D01*
X235019137Y-78365333D01*
X234923899Y-78403428D01*
X234876280Y-78441523D01*
X234828661Y-78517714D01*
X234828661Y-78822476D01*
X234876280Y-78022476D02*
X234876280Y-77755809D01*
X234352471Y-77641523D02*
X234352471Y-78022476D01*
X235352471Y-78022476D01*
X235352471Y-77641523D01*
X234257232Y-76765333D02*
X234304852Y-76841523D01*
X234400090Y-76917714D01*
X234542947Y-77032000D01*
X234590566Y-77108190D01*
X234590566Y-77184380D01*
X234352471Y-77146285D02*
X234400090Y-77222476D01*
X234495328Y-77298666D01*
X234685804Y-77336761D01*
X235019137Y-77336761D01*
X235209613Y-77298666D01*
X235304852Y-77222476D01*
X235352471Y-77146285D01*
X235352471Y-76993904D01*
X235304852Y-76917714D01*
X235209613Y-76841523D01*
X235019137Y-76803428D01*
X234685804Y-76803428D01*
X234495328Y-76841523D01*
X234400090Y-76917714D01*
X234352471Y-76993904D01*
X234352471Y-77146285D01*
X231953067Y-78365333D02*
X231905448Y-78403428D01*
X231857829Y-78517714D01*
X231857829Y-78593905D01*
X231905448Y-78708190D01*
X232000686Y-78784381D01*
X232095924Y-78822476D01*
X232286400Y-78860571D01*
X232429257Y-78860571D01*
X232619733Y-78822476D01*
X232714971Y-78784381D01*
X232810210Y-78708190D01*
X232857829Y-78593905D01*
X232857829Y-78517714D01*
X232810210Y-78403428D01*
X232762590Y-78365333D01*
X232905448Y-77451047D02*
X231619733Y-78136762D01*
X231857829Y-77184381D02*
X232857829Y-77184381D01*
X232857829Y-76993905D01*
X232810210Y-76879619D01*
X232714971Y-76803428D01*
X232619733Y-76765333D01*
X232429257Y-76727238D01*
X232286400Y-76727238D01*
X232095924Y-76765333D01*
X232000686Y-76803428D01*
X231905448Y-76879619D01*
X231857829Y-76993905D01*
X231857829Y-77184381D01*
X229410806Y-78860571D02*
X229363187Y-78746286D01*
X229363187Y-78555809D01*
X229410806Y-78479619D01*
X229458425Y-78441524D01*
X229553663Y-78403428D01*
X229648901Y-78403428D01*
X229744139Y-78441524D01*
X229791758Y-78479619D01*
X229839377Y-78555809D01*
X229886996Y-78708190D01*
X229934615Y-78784381D01*
X229982234Y-78822476D01*
X230077472Y-78860571D01*
X230172710Y-78860571D01*
X230267948Y-78822476D01*
X230315568Y-78784381D01*
X230363187Y-78708190D01*
X230363187Y-78517714D01*
X230315568Y-78403428D01*
X229886996Y-78060571D02*
X229886996Y-77793905D01*
X229363187Y-77679619D02*
X229363187Y-78060571D01*
X230363187Y-78060571D01*
X230363187Y-77679619D01*
X229363187Y-76955809D02*
X229363187Y-77336762D01*
X230363187Y-77336762D01*
X226868545Y-78822477D02*
X227868545Y-78822477D01*
X227154259Y-78555810D01*
X227868545Y-78289143D01*
X226868545Y-78289143D01*
X226916164Y-77946286D02*
X226868545Y-77832000D01*
X226868545Y-77641524D01*
X226916164Y-77565334D01*
X226963783Y-77527238D01*
X227059021Y-77489143D01*
X227154259Y-77489143D01*
X227249497Y-77527238D01*
X227297116Y-77565334D01*
X227344735Y-77641524D01*
X227392354Y-77793905D01*
X227439973Y-77870096D01*
X227487592Y-77908191D01*
X227582830Y-77946286D01*
X227678068Y-77946286D01*
X227773306Y-77908191D01*
X227820926Y-77870096D01*
X227868545Y-77793905D01*
X227868545Y-77603429D01*
X227820926Y-77489143D01*
X227820926Y-76727238D02*
X227868545Y-76803429D01*
X227868545Y-76917715D01*
X227820926Y-77032000D01*
X227725687Y-77108191D01*
X227630449Y-77146286D01*
X227439973Y-77184381D01*
X227297116Y-77184381D01*
X227106640Y-77146286D01*
X227011402Y-77108191D01*
X226916164Y-77032000D01*
X226868545Y-76917715D01*
X226868545Y-76841524D01*
X226916164Y-76727238D01*
X226963783Y-76689143D01*
X227297116Y-76689143D01*
X227297116Y-76841524D01*
X224373903Y-78365333D02*
X224850093Y-78631999D01*
X224373903Y-78822476D02*
X225373903Y-78822476D01*
X225373903Y-78517714D01*
X225326284Y-78441523D01*
X225278664Y-78403428D01*
X225183426Y-78365333D01*
X225040569Y-78365333D01*
X224945331Y-78403428D01*
X224897712Y-78441523D01*
X224850093Y-78517714D01*
X224850093Y-78822476D01*
X224421522Y-78060571D02*
X224373903Y-77946285D01*
X224373903Y-77755809D01*
X224421522Y-77679618D01*
X224469141Y-77641523D01*
X224564379Y-77603428D01*
X224659617Y-77603428D01*
X224754855Y-77641523D01*
X224802474Y-77679618D01*
X224850093Y-77755809D01*
X224897712Y-77908190D01*
X224945331Y-77984380D01*
X224992950Y-78022476D01*
X225088188Y-78060571D01*
X225183426Y-78060571D01*
X225278664Y-78022476D01*
X225326284Y-77984380D01*
X225373903Y-77908190D01*
X225373903Y-77717714D01*
X225326284Y-77603428D01*
X225373903Y-77374857D02*
X225373903Y-76917714D01*
X224373903Y-77146285D02*
X225373903Y-77146285D01*
X222164975Y-78860572D02*
X222164975Y-78479619D01*
X221879261Y-78936762D02*
X222879261Y-78670096D01*
X221879261Y-78403429D01*
X221974499Y-77679619D02*
X221926880Y-77717715D01*
X221879261Y-77832000D01*
X221879261Y-77908191D01*
X221926880Y-78022476D01*
X222022118Y-78098667D01*
X222117356Y-78136762D01*
X222307832Y-78174857D01*
X222450689Y-78174857D01*
X222641165Y-78136762D01*
X222736403Y-78098667D01*
X222831642Y-78022476D01*
X222879261Y-77908191D01*
X222879261Y-77832000D01*
X222831642Y-77717715D01*
X222784022Y-77679619D01*
X221879261Y-77336762D02*
X222879261Y-77336762D01*
X221879261Y-76879619D02*
X222450689Y-77222476D01*
X222879261Y-76879619D02*
X222307832Y-77336762D01*
X219908428Y-78555809D02*
X219860809Y-78441523D01*
X219813190Y-78403428D01*
X219717952Y-78365333D01*
X219575095Y-78365333D01*
X219479857Y-78403428D01*
X219432238Y-78441523D01*
X219384619Y-78517714D01*
X219384619Y-78822476D01*
X220384619Y-78822476D01*
X220384619Y-78555809D01*
X220337000Y-78479619D01*
X220289380Y-78441523D01*
X220194142Y-78403428D01*
X220098904Y-78403428D01*
X220003666Y-78441523D01*
X219956047Y-78479619D01*
X219908428Y-78555809D01*
X219908428Y-78822476D01*
X219432238Y-78060571D02*
X219384619Y-77946285D01*
X219384619Y-77755809D01*
X219432238Y-77679619D01*
X219479857Y-77641523D01*
X219575095Y-77603428D01*
X219670333Y-77603428D01*
X219765571Y-77641523D01*
X219813190Y-77679619D01*
X219860809Y-77755809D01*
X219908428Y-77908190D01*
X219956047Y-77984381D01*
X220003666Y-78022476D01*
X220098904Y-78060571D01*
X220194142Y-78060571D01*
X220289380Y-78022476D01*
X220337000Y-77984381D01*
X220384619Y-77908190D01*
X220384619Y-77717714D01*
X220337000Y-77603428D01*
X219860809Y-77108190D02*
X219384619Y-77108190D01*
X220384619Y-77374857D02*
X219860809Y-77108190D01*
X220384619Y-76841523D01*
X214590333Y-78860571D02*
X214590333Y-78479619D01*
X214304619Y-78936762D02*
X215304619Y-78670095D01*
X214304619Y-78403428D01*
X215304619Y-78251047D02*
X215304619Y-77793905D01*
X214304619Y-78022476D02*
X215304619Y-78022476D01*
X214304619Y-77527238D02*
X215304619Y-77527238D01*
X214304619Y-77070095D01*
X215304619Y-77070095D01*
X207494119Y-78936762D02*
X207494119Y-78479619D01*
X206494119Y-78708190D02*
X207494119Y-78708190D01*
X206494119Y-78212952D02*
X207494119Y-78212952D01*
X207494119Y-77908190D01*
X207446500Y-77832000D01*
X207398880Y-77793905D01*
X207303642Y-77755809D01*
X207160785Y-77755809D01*
X207065547Y-77793905D01*
X207017928Y-77832000D01*
X206970309Y-77908190D01*
X206970309Y-78212952D01*
X207494119Y-77489143D02*
X206494119Y-77298667D01*
X207208404Y-77146286D01*
X206494119Y-76993905D01*
X207494119Y-76803428D01*
X206494119Y-76041524D02*
X206970309Y-76308190D01*
X206494119Y-76498667D02*
X207494119Y-76498667D01*
X207494119Y-76193905D01*
X207446500Y-76117714D01*
X207398880Y-76079619D01*
X207303642Y-76041524D01*
X207160785Y-76041524D01*
X207065547Y-76079619D01*
X207017928Y-76117714D01*
X206970309Y-76193905D01*
X206970309Y-76498667D01*
X196270619Y-78841523D02*
X197270619Y-78841523D01*
X197270619Y-78651047D01*
X197223000Y-78536761D01*
X197127761Y-78460571D01*
X197032523Y-78422476D01*
X196842047Y-78384380D01*
X196699190Y-78384380D01*
X196508714Y-78422476D01*
X196413476Y-78460571D01*
X196318238Y-78536761D01*
X196270619Y-78651047D01*
X196270619Y-78841523D01*
X196270619Y-78041523D02*
X197270619Y-78041523D01*
X197270619Y-77736761D01*
X197223000Y-77660571D01*
X197175380Y-77622476D01*
X197080142Y-77584380D01*
X196937285Y-77584380D01*
X196842047Y-77622476D01*
X196794428Y-77660571D01*
X196746809Y-77736761D01*
X196746809Y-78041523D01*
X193738553Y-78822476D02*
X194738553Y-78822476D01*
X194738553Y-78632000D01*
X194690934Y-78517714D01*
X194595695Y-78441523D01*
X194500457Y-78403428D01*
X194309981Y-78365333D01*
X194167124Y-78365333D01*
X193976648Y-78403428D01*
X193881410Y-78441523D01*
X193786172Y-78517714D01*
X193738553Y-78632000D01*
X193738553Y-78822476D01*
X194738553Y-78098666D02*
X194738553Y-77565333D01*
X193738553Y-77908190D01*
X191206491Y-78822476D02*
X192206491Y-78822476D01*
X192206491Y-78632000D01*
X192158872Y-78517714D01*
X192063633Y-78441523D01*
X191968395Y-78403428D01*
X191777919Y-78365333D01*
X191635062Y-78365333D01*
X191444586Y-78403428D01*
X191349348Y-78441523D01*
X191254110Y-78517714D01*
X191206491Y-78632000D01*
X191206491Y-78822476D01*
X192206491Y-77679619D02*
X192206491Y-77832000D01*
X192158872Y-77908190D01*
X192111252Y-77946285D01*
X191968395Y-78022476D01*
X191777919Y-78060571D01*
X191396967Y-78060571D01*
X191301729Y-78022476D01*
X191254110Y-77984380D01*
X191206491Y-77908190D01*
X191206491Y-77755809D01*
X191254110Y-77679619D01*
X191301729Y-77641523D01*
X191396967Y-77603428D01*
X191635062Y-77603428D01*
X191730300Y-77641523D01*
X191777919Y-77679619D01*
X191825538Y-77755809D01*
X191825538Y-77908190D01*
X191777919Y-77984380D01*
X191730300Y-78022476D01*
X191635062Y-78060571D01*
X188674429Y-78822476D02*
X189674429Y-78822476D01*
X189674429Y-78632000D01*
X189626810Y-78517714D01*
X189531571Y-78441523D01*
X189436333Y-78403428D01*
X189245857Y-78365333D01*
X189103000Y-78365333D01*
X188912524Y-78403428D01*
X188817286Y-78441523D01*
X188722048Y-78517714D01*
X188674429Y-78632000D01*
X188674429Y-78822476D01*
X189674429Y-77641523D02*
X189674429Y-78022476D01*
X189198238Y-78060571D01*
X189245857Y-78022476D01*
X189293476Y-77946285D01*
X189293476Y-77755809D01*
X189245857Y-77679619D01*
X189198238Y-77641523D01*
X189103000Y-77603428D01*
X188864905Y-77603428D01*
X188769667Y-77641523D01*
X188722048Y-77679619D01*
X188674429Y-77755809D01*
X188674429Y-77946285D01*
X188722048Y-78022476D01*
X188769667Y-78060571D01*
X186142367Y-78822476D02*
X187142367Y-78822476D01*
X187142367Y-78632000D01*
X187094748Y-78517714D01*
X186999509Y-78441523D01*
X186904271Y-78403428D01*
X186713795Y-78365333D01*
X186570938Y-78365333D01*
X186380462Y-78403428D01*
X186285224Y-78441523D01*
X186189986Y-78517714D01*
X186142367Y-78632000D01*
X186142367Y-78822476D01*
X186809033Y-77679619D02*
X186142367Y-77679619D01*
X187189986Y-77870095D02*
X186475700Y-78060571D01*
X186475700Y-77565333D01*
X183610305Y-78822476D02*
X184610305Y-78822476D01*
X184610305Y-78632000D01*
X184562686Y-78517714D01*
X184467447Y-78441523D01*
X184372209Y-78403428D01*
X184181733Y-78365333D01*
X184038876Y-78365333D01*
X183848400Y-78403428D01*
X183753162Y-78441523D01*
X183657924Y-78517714D01*
X183610305Y-78632000D01*
X183610305Y-78822476D01*
X184610305Y-78098666D02*
X184610305Y-77603428D01*
X184229352Y-77870095D01*
X184229352Y-77755809D01*
X184181733Y-77679619D01*
X184134114Y-77641523D01*
X184038876Y-77603428D01*
X183800781Y-77603428D01*
X183705543Y-77641523D01*
X183657924Y-77679619D01*
X183610305Y-77755809D01*
X183610305Y-77984380D01*
X183657924Y-78060571D01*
X183705543Y-78098666D01*
X181078243Y-78822476D02*
X182078243Y-78822476D01*
X182078243Y-78632000D01*
X182030624Y-78517714D01*
X181935385Y-78441523D01*
X181840147Y-78403428D01*
X181649671Y-78365333D01*
X181506814Y-78365333D01*
X181316338Y-78403428D01*
X181221100Y-78441523D01*
X181125862Y-78517714D01*
X181078243Y-78632000D01*
X181078243Y-78822476D01*
X181983004Y-78060571D02*
X182030624Y-78022476D01*
X182078243Y-77946285D01*
X182078243Y-77755809D01*
X182030624Y-77679619D01*
X181983004Y-77641523D01*
X181887766Y-77603428D01*
X181792528Y-77603428D01*
X181649671Y-77641523D01*
X181078243Y-78098666D01*
X181078243Y-77603428D01*
X178546181Y-78822476D02*
X179546181Y-78822476D01*
X179546181Y-78632000D01*
X179498562Y-78517714D01*
X179403323Y-78441523D01*
X179308085Y-78403428D01*
X179117609Y-78365333D01*
X178974752Y-78365333D01*
X178784276Y-78403428D01*
X178689038Y-78441523D01*
X178593800Y-78517714D01*
X178546181Y-78632000D01*
X178546181Y-78822476D01*
X178546181Y-77603428D02*
X178546181Y-78060571D01*
X178546181Y-77832000D02*
X179546181Y-77832000D01*
X179403323Y-77908190D01*
X179308085Y-77984380D01*
X179260466Y-78060571D01*
X176014119Y-78822476D02*
X177014119Y-78822476D01*
X177014119Y-78632000D01*
X176966500Y-78517714D01*
X176871261Y-78441523D01*
X176776023Y-78403428D01*
X176585547Y-78365333D01*
X176442690Y-78365333D01*
X176252214Y-78403428D01*
X176156976Y-78441523D01*
X176061738Y-78517714D01*
X176014119Y-78632000D01*
X176014119Y-78822476D01*
X177014119Y-77870095D02*
X177014119Y-77793904D01*
X176966500Y-77717714D01*
X176918880Y-77679619D01*
X176823642Y-77641523D01*
X176633166Y-77603428D01*
X176395071Y-77603428D01*
X176204595Y-77641523D01*
X176109357Y-77679619D01*
X176061738Y-77717714D01*
X176014119Y-77793904D01*
X176014119Y-77870095D01*
X176061738Y-77946285D01*
X176109357Y-77984380D01*
X176204595Y-78022476D01*
X176395071Y-78060571D01*
X176633166Y-78060571D01*
X176823642Y-78022476D01*
X176918880Y-77984380D01*
X176966500Y-77946285D01*
X177014119Y-77870095D01*
D11*
X181038500Y-71183500D02*
X177292000Y-72707500D01*
X182308500Y-71247000D02*
X179959000Y-72580500D01*
X183705500Y-71310500D02*
X183134000Y-72072500D01*
X183197500Y-72072500D02*
X181864000Y-72072500D01*
X183197500Y-73406000D02*
X183197500Y-72072500D01*
X175387000Y-72072500D02*
X180530500Y-72072500D01*
X175387000Y-77279500D02*
X175387000Y-72072500D01*
X183197500Y-77279500D02*
X175387000Y-77279500D01*
X183197500Y-74612500D02*
X183197500Y-77279500D01*
X180530500Y-74612500D02*
X183197500Y-74612500D01*
X180530500Y-72072500D02*
X180530500Y-74612500D01*
X176784000Y-52260500D02*
X176784000Y-62484000D01*
X179387500Y-52260500D02*
X176784000Y-52260500D01*
X179387500Y-62484000D02*
X179387500Y-52260500D01*
X176784000Y-62484000D02*
X179387500Y-62484000D01*
X175260000Y-51816000D02*
X175260000Y-50482500D01*
X176593500Y-51816000D02*
X175260000Y-51816000D01*
X177800000Y-49212500D02*
X177800000Y-51816000D01*
X180467000Y-49212500D02*
X177800000Y-49212500D01*
X180467000Y-51816000D02*
X180467000Y-49212500D01*
X177863500Y-51816000D02*
X180467000Y-51816000D01*
D10*
X180744880Y-50212666D02*
X181459166Y-50212666D01*
X181602023Y-50165047D01*
X181697261Y-50069809D01*
X181744880Y-49926952D01*
X181744880Y-49831714D01*
X180744880Y-50593619D02*
X180744880Y-51260285D01*
X181744880Y-50831714D01*
X180419333Y-64285880D02*
X180419333Y-65000166D01*
X180466952Y-65143023D01*
X180562190Y-65238261D01*
X180705047Y-65285880D01*
X180800285Y-65285880D01*
X179514571Y-64619214D02*
X179514571Y-65285880D01*
X179752666Y-64238261D02*
X179990761Y-64952547D01*
X179371714Y-64952547D01*
X184800833Y-73556880D02*
X184800833Y-74271166D01*
X184848452Y-74414023D01*
X184943690Y-74509261D01*
X185086547Y-74556880D01*
X185181785Y-74556880D01*
X183848452Y-73556880D02*
X184324642Y-73556880D01*
X184372261Y-74033071D01*
X184324642Y-73985452D01*
X184229404Y-73937833D01*
X183991309Y-73937833D01*
X183896071Y-73985452D01*
X183848452Y-74033071D01*
X183800833Y-74128309D01*
X183800833Y-74366404D01*
X183848452Y-74461642D01*
X183896071Y-74509261D01*
X183991309Y-74556880D01*
X184229404Y-74556880D01*
X184324642Y-74509261D01*
X184372261Y-74461642D01*
X176037833Y-84923380D02*
X176037833Y-85637666D01*
X176085452Y-85780523D01*
X176180690Y-85875761D01*
X176323547Y-85923380D01*
X176418785Y-85923380D01*
X175656880Y-84923380D02*
X175037833Y-84923380D01*
X175371166Y-85304333D01*
X175228309Y-85304333D01*
X175133071Y-85351952D01*
X175085452Y-85399571D01*
X175037833Y-85494809D01*
X175037833Y-85732904D01*
X175085452Y-85828142D01*
X175133071Y-85875761D01*
X175228309Y-85923380D01*
X175514023Y-85923380D01*
X175609261Y-85875761D01*
X175656880Y-85828142D01*
D13*
X235610523Y-60806666D02*
X236517666Y-60806666D01*
X236699095Y-60746190D01*
X236820047Y-60625238D01*
X236880523Y-60443809D01*
X236880523Y-60322857D01*
X236154809Y-61592857D02*
X236094333Y-61471904D01*
X236033857Y-61411428D01*
X235912904Y-61350952D01*
X235852428Y-61350952D01*
X235731476Y-61411428D01*
X235671000Y-61471904D01*
X235610523Y-61592857D01*
X235610523Y-61834761D01*
X235671000Y-61955714D01*
X235731476Y-62016190D01*
X235852428Y-62076666D01*
X235912904Y-62076666D01*
X236033857Y-62016190D01*
X236094333Y-61955714D01*
X236154809Y-61834761D01*
X236154809Y-61592857D01*
X236215285Y-61471904D01*
X236275761Y-61411428D01*
X236396714Y-61350952D01*
X236638619Y-61350952D01*
X236759571Y-61411428D01*
X236820047Y-61471904D01*
X236880523Y-61592857D01*
X236880523Y-61834761D01*
X236820047Y-61955714D01*
X236759571Y-62016190D01*
X236638619Y-62076666D01*
X236396714Y-62076666D01*
X236275761Y-62016190D01*
X236215285Y-61955714D01*
X236154809Y-61834761D01*
D10*
X206327333Y-48855380D02*
X206327333Y-49569666D01*
X206374952Y-49712523D01*
X206470190Y-49807761D01*
X206613047Y-49855380D01*
X206708285Y-49855380D01*
X205327333Y-49855380D02*
X205898761Y-49855380D01*
X205613047Y-49855380D02*
X205613047Y-48855380D01*
X205708285Y-48998238D01*
X205803523Y-49093476D01*
X205898761Y-49141095D01*
X231591904Y-58194285D02*
X232239523Y-58194285D01*
X232315714Y-58232380D01*
X232353809Y-58270476D01*
X232391904Y-58346666D01*
X232391904Y-58499047D01*
X232353809Y-58575238D01*
X232315714Y-58613333D01*
X232239523Y-58651428D01*
X231591904Y-58651428D01*
X232353809Y-58994285D02*
X232391904Y-59108571D01*
X232391904Y-59299047D01*
X232353809Y-59375238D01*
X232315714Y-59413333D01*
X232239523Y-59451428D01*
X232163333Y-59451428D01*
X232087142Y-59413333D01*
X232049047Y-59375238D01*
X232010952Y-59299047D01*
X231972857Y-59146666D01*
X231934761Y-59070476D01*
X231896666Y-59032380D01*
X231820476Y-58994285D01*
X231744285Y-58994285D01*
X231668095Y-59032380D01*
X231630000Y-59070476D01*
X231591904Y-59146666D01*
X231591904Y-59337142D01*
X231630000Y-59451428D01*
X231972857Y-60060952D02*
X232010952Y-60175238D01*
X232049047Y-60213333D01*
X232125238Y-60251428D01*
X232239523Y-60251428D01*
X232315714Y-60213333D01*
X232353809Y-60175238D01*
X232391904Y-60099047D01*
X232391904Y-59794285D01*
X231591904Y-59794285D01*
X231591904Y-60060952D01*
X231630000Y-60137142D01*
X231668095Y-60175238D01*
X231744285Y-60213333D01*
X231820476Y-60213333D01*
X231896666Y-60175238D01*
X231934761Y-60137142D01*
X231972857Y-60060952D01*
X231972857Y-59794285D01*
X232391904Y-61203809D02*
X231591904Y-61203809D01*
X231591904Y-61508571D01*
X231630000Y-61584761D01*
X231668095Y-61622857D01*
X231744285Y-61660952D01*
X231858571Y-61660952D01*
X231934761Y-61622857D01*
X231972857Y-61584761D01*
X232010952Y-61508571D01*
X232010952Y-61203809D01*
X232391904Y-62118095D02*
X232353809Y-62041904D01*
X232315714Y-62003809D01*
X232239523Y-61965714D01*
X232010952Y-61965714D01*
X231934761Y-62003809D01*
X231896666Y-62041904D01*
X231858571Y-62118095D01*
X231858571Y-62232380D01*
X231896666Y-62308571D01*
X231934761Y-62346666D01*
X232010952Y-62384761D01*
X232239523Y-62384761D01*
X232315714Y-62346666D01*
X232353809Y-62308571D01*
X232391904Y-62232380D01*
X232391904Y-62118095D01*
X231858571Y-62651428D02*
X232391904Y-62803809D01*
X232010952Y-62956190D01*
X232391904Y-63108571D01*
X231858571Y-63260952D01*
X232353809Y-63870476D02*
X232391904Y-63794285D01*
X232391904Y-63641904D01*
X232353809Y-63565714D01*
X232277619Y-63527619D01*
X231972857Y-63527619D01*
X231896666Y-63565714D01*
X231858571Y-63641904D01*
X231858571Y-63794285D01*
X231896666Y-63870476D01*
X231972857Y-63908571D01*
X232049047Y-63908571D01*
X232125238Y-63527619D01*
X232391904Y-64251428D02*
X231858571Y-64251428D01*
X232010952Y-64251428D02*
X231934761Y-64289523D01*
X231896666Y-64327619D01*
X231858571Y-64403809D01*
X231858571Y-64480000D01*
X226225333Y-85828380D02*
X226225333Y-86542666D01*
X226272952Y-86685523D01*
X226368190Y-86780761D01*
X226511047Y-86828380D01*
X226606285Y-86828380D01*
X225320571Y-85828380D02*
X225511047Y-85828380D01*
X225606285Y-85876000D01*
X225653904Y-85923619D01*
X225749142Y-86066476D01*
X225796761Y-86256952D01*
X225796761Y-86637904D01*
X225749142Y-86733142D01*
X225701523Y-86780761D01*
X225606285Y-86828380D01*
X225415809Y-86828380D01*
X225320571Y-86780761D01*
X225272952Y-86733142D01*
X225225333Y-86637904D01*
X225225333Y-86399809D01*
X225272952Y-86304571D01*
X225320571Y-86256952D01*
X225415809Y-86209333D01*
X225606285Y-86209333D01*
X225701523Y-86256952D01*
X225749142Y-86304571D01*
X225796761Y-86399809D01*
D14*
X209312261Y-57766761D02*
X209859880Y-56814380D01*
X210455119Y-57766761D02*
X210205119Y-55766761D01*
X209443214Y-55766761D01*
X209264642Y-55862000D01*
X209181309Y-55957238D01*
X209109880Y-56147714D01*
X209145595Y-56433428D01*
X209264642Y-56623904D01*
X209371785Y-56719142D01*
X209574166Y-56814380D01*
X210336071Y-56814380D01*
X207597976Y-57766761D02*
X207467023Y-56719142D01*
X207538452Y-56528666D01*
X207717023Y-56433428D01*
X208097976Y-56433428D01*
X208300357Y-56528666D01*
X207586071Y-57671523D02*
X207788452Y-57766761D01*
X208264642Y-57766761D01*
X208443214Y-57671523D01*
X208514642Y-57481047D01*
X208490833Y-57290571D01*
X208371785Y-57100095D01*
X208169404Y-57004857D01*
X207693214Y-57004857D01*
X207490833Y-56909619D01*
X206728928Y-57671523D02*
X206455119Y-57766761D01*
X205978928Y-57766761D01*
X205776547Y-57671523D01*
X205669404Y-57576285D01*
X205550357Y-57385809D01*
X205526547Y-57195333D01*
X205597976Y-57004857D01*
X205681309Y-56909619D01*
X205859880Y-56814380D01*
X206228928Y-56719142D01*
X206407500Y-56623904D01*
X206490833Y-56528666D01*
X206562261Y-56338190D01*
X206538452Y-56147714D01*
X206419404Y-55957238D01*
X206312261Y-55862000D01*
X206109880Y-55766761D01*
X205633690Y-55766761D01*
X205359880Y-55862000D01*
X203574166Y-57576285D02*
X203681309Y-57671523D01*
X203978928Y-57766761D01*
X204169404Y-57766761D01*
X204443214Y-57671523D01*
X204609880Y-57481047D01*
X204681309Y-57290571D01*
X204728928Y-56909619D01*
X204693214Y-56623904D01*
X204550357Y-56242952D01*
X204431309Y-56052476D01*
X204217023Y-55862000D01*
X203919404Y-55766761D01*
X203728928Y-55766761D01*
X203455119Y-55862000D01*
X203371785Y-55957238D01*
X202824166Y-57671523D02*
X202550357Y-57766761D01*
X202074166Y-57766761D01*
X201871785Y-57671523D01*
X201764642Y-57576285D01*
X201645595Y-57385809D01*
X201621785Y-57195333D01*
X201693214Y-57004857D01*
X201776547Y-56909619D01*
X201955119Y-56814380D01*
X202324166Y-56719142D01*
X202502738Y-56623904D01*
X202586071Y-56528666D01*
X202657500Y-56338190D01*
X202633690Y-56147714D01*
X202514642Y-55957238D01*
X202407500Y-55862000D01*
X202205119Y-55766761D01*
X201728928Y-55766761D01*
X201455119Y-55862000D01*
X200836071Y-57766761D02*
X200586071Y-55766761D01*
D10*
X212437476Y-54409380D02*
X212627952Y-54409380D01*
X212723190Y-54457000D01*
X212770809Y-54504619D01*
X212866047Y-54647476D01*
X212913666Y-54837952D01*
X212913666Y-55218904D01*
X212866047Y-55314142D01*
X212818428Y-55361761D01*
X212723190Y-55409380D01*
X212532714Y-55409380D01*
X212437476Y-55361761D01*
X212389857Y-55314142D01*
X212342238Y-55218904D01*
X212342238Y-54980809D01*
X212389857Y-54885571D01*
X212437476Y-54837952D01*
X212532714Y-54790333D01*
X212723190Y-54790333D01*
X212818428Y-54837952D01*
X212866047Y-54885571D01*
X212913666Y-54980809D01*
X211770809Y-54837952D02*
X211866047Y-54790333D01*
X211913666Y-54742714D01*
X211961285Y-54647476D01*
X211961285Y-54599857D01*
X211913666Y-54504619D01*
X211866047Y-54457000D01*
X211770809Y-54409380D01*
X211580333Y-54409380D01*
X211485095Y-54457000D01*
X211437476Y-54504619D01*
X211389857Y-54599857D01*
X211389857Y-54647476D01*
X211437476Y-54742714D01*
X211485095Y-54790333D01*
X211580333Y-54837952D01*
X211770809Y-54837952D01*
X211866047Y-54885571D01*
X211913666Y-54933190D01*
X211961285Y-55028428D01*
X211961285Y-55218904D01*
X211913666Y-55314142D01*
X211866047Y-55361761D01*
X211770809Y-55409380D01*
X211580333Y-55409380D01*
X211485095Y-55361761D01*
X211437476Y-55314142D01*
X211389857Y-55218904D01*
X211389857Y-55028428D01*
X211437476Y-54933190D01*
X211485095Y-54885571D01*
X211580333Y-54837952D01*
X210961285Y-55409380D02*
X210961285Y-54409380D01*
X210866047Y-55028428D02*
X210580333Y-55409380D01*
X210580333Y-54742714D02*
X210961285Y-55123666D01*
X210151761Y-55409380D02*
X210151761Y-54742714D01*
X210151761Y-54837952D02*
X210104142Y-54790333D01*
X210008904Y-54742714D01*
X209866047Y-54742714D01*
X209770809Y-54790333D01*
X209723190Y-54885571D01*
X209723190Y-55409380D01*
X209723190Y-54885571D02*
X209675571Y-54790333D01*
X209580333Y-54742714D01*
X209437476Y-54742714D01*
X209342238Y-54790333D01*
X209294619Y-54885571D01*
X209294619Y-55409380D01*
X208675571Y-55409380D02*
X208770809Y-55361761D01*
X208818428Y-55266523D01*
X208818428Y-54409380D01*
X207866047Y-55409380D02*
X207866047Y-54885571D01*
X207913666Y-54790333D01*
X208008904Y-54742714D01*
X208199380Y-54742714D01*
X208294619Y-54790333D01*
X207866047Y-55361761D02*
X207961285Y-55409380D01*
X208199380Y-55409380D01*
X208294619Y-55361761D01*
X208342238Y-55266523D01*
X208342238Y-55171285D01*
X208294619Y-55076047D01*
X208199380Y-55028428D01*
X207961285Y-55028428D01*
X207866047Y-54980809D01*
X206770809Y-54409380D02*
X206437476Y-55409380D01*
X206104142Y-54409380D01*
X205389857Y-55361761D02*
X205485095Y-55409380D01*
X205675571Y-55409380D01*
X205770809Y-55361761D01*
X205818428Y-55266523D01*
X205818428Y-54885571D01*
X205770809Y-54790333D01*
X205675571Y-54742714D01*
X205485095Y-54742714D01*
X205389857Y-54790333D01*
X205342238Y-54885571D01*
X205342238Y-54980809D01*
X205818428Y-55076047D01*
X204913666Y-55409380D02*
X204913666Y-54742714D01*
X204913666Y-54933190D02*
X204866047Y-54837952D01*
X204818428Y-54790333D01*
X204723190Y-54742714D01*
X204627952Y-54742714D01*
X204342238Y-55361761D02*
X204247000Y-55409380D01*
X204056523Y-55409380D01*
X203961285Y-55361761D01*
X203913666Y-55266523D01*
X203913666Y-55218904D01*
X203961285Y-55123666D01*
X204056523Y-55076047D01*
X204199380Y-55076047D01*
X204294619Y-55028428D01*
X204342238Y-54933190D01*
X204342238Y-54885571D01*
X204294619Y-54790333D01*
X204199380Y-54742714D01*
X204056523Y-54742714D01*
X203961285Y-54790333D01*
X203485095Y-55409380D02*
X203485095Y-54742714D01*
X203485095Y-54409380D02*
X203532714Y-54457000D01*
X203485095Y-54504619D01*
X203437476Y-54457000D01*
X203485095Y-54409380D01*
X203485095Y-54504619D01*
X202866047Y-55409380D02*
X202961285Y-55361761D01*
X203008904Y-55314142D01*
X203056523Y-55218904D01*
X203056523Y-54933190D01*
X203008904Y-54837952D01*
X202961285Y-54790333D01*
X202866047Y-54742714D01*
X202723190Y-54742714D01*
X202627952Y-54790333D01*
X202580333Y-54837952D01*
X202532714Y-54933190D01*
X202532714Y-55218904D01*
X202580333Y-55314142D01*
X202627952Y-55361761D01*
X202723190Y-55409380D01*
X202866047Y-55409380D01*
X202104142Y-54742714D02*
X202104142Y-55409380D01*
X202104142Y-54837952D02*
X202056523Y-54790333D01*
X201961285Y-54742714D01*
X201818428Y-54742714D01*
X201723190Y-54790333D01*
X201675571Y-54885571D01*
X201675571Y-55409380D01*
X200485095Y-54504619D02*
X200437476Y-54457000D01*
X200342238Y-54409380D01*
X200104142Y-54409380D01*
X200008904Y-54457000D01*
X199961285Y-54504619D01*
X199913666Y-54599857D01*
X199913666Y-54695095D01*
X199961285Y-54837952D01*
X200532714Y-55409380D01*
X199913666Y-55409380D01*
X199485095Y-55314142D02*
X199437476Y-55361761D01*
X199485095Y-55409380D01*
X199532714Y-55361761D01*
X199485095Y-55314142D01*
X199485095Y-55409380D01*
X198580333Y-54742714D02*
X198580333Y-55409380D01*
X198818428Y-54361761D02*
X199056523Y-55076047D01*
X198437476Y-55076047D01*
X197627952Y-55409380D02*
X197627952Y-54885571D01*
X197675571Y-54790333D01*
X197770809Y-54742714D01*
X197961285Y-54742714D01*
X198056523Y-54790333D01*
X197627952Y-55361761D02*
X197723190Y-55409380D01*
X197961285Y-55409380D01*
X198056523Y-55361761D01*
X198104142Y-55266523D01*
X198104142Y-55171285D01*
X198056523Y-55076047D01*
X197961285Y-55028428D01*
X197723190Y-55028428D01*
X197627952Y-54980809D01*
D11*
X213692500Y-58767000D02*
X213692500Y-53687000D01*
X213629000Y-53687000D02*
X196674500Y-53687000D01*
X197246000Y-54068000D02*
X213248000Y-54068000D01*
X197246000Y-54068000D02*
X197182500Y-54068000D01*
X213248000Y-58386000D02*
X197182500Y-58386000D01*
X197182500Y-58386000D02*
X197182500Y-54131500D01*
X213248000Y-54068000D02*
X213248000Y-58386000D01*
X213692500Y-58767000D02*
X196674500Y-58767000D01*
X197182500Y-54068000D02*
X197182500Y-54322000D01*
X196674500Y-53687000D02*
X196674500Y-58767000D01*
D10*
X231749523Y-51352500D02*
X231825714Y-51314404D01*
X231940000Y-51314404D01*
X232054285Y-51352500D01*
X232130476Y-51428690D01*
X232168571Y-51504880D01*
X232206666Y-51657261D01*
X232206666Y-51771547D01*
X232168571Y-51923928D01*
X232130476Y-52000119D01*
X232054285Y-52076309D01*
X231940000Y-52114404D01*
X231863809Y-52114404D01*
X231749523Y-52076309D01*
X231711428Y-52038214D01*
X231711428Y-51771547D01*
X231863809Y-51771547D01*
X231368571Y-52114404D02*
X231368571Y-51314404D01*
X230911428Y-52114404D01*
X230911428Y-51314404D01*
X230530476Y-52114404D02*
X230530476Y-51314404D01*
X230340000Y-51314404D01*
X230225714Y-51352500D01*
X230149523Y-51428690D01*
X230111428Y-51504880D01*
X230073333Y-51657261D01*
X230073333Y-51771547D01*
X230111428Y-51923928D01*
X230149523Y-52000119D01*
X230225714Y-52076309D01*
X230340000Y-52114404D01*
X230530476Y-52114404D01*
X231654238Y-54743333D02*
X231273285Y-54743333D01*
X231730428Y-54971904D02*
X231463761Y-54171904D01*
X231197095Y-54971904D01*
X230473285Y-54895714D02*
X230511380Y-54933809D01*
X230625666Y-54971904D01*
X230701857Y-54971904D01*
X230816142Y-54933809D01*
X230892333Y-54857619D01*
X230930428Y-54781428D01*
X230968523Y-54629047D01*
X230968523Y-54514761D01*
X230930428Y-54362380D01*
X230892333Y-54286190D01*
X230816142Y-54210000D01*
X230701857Y-54171904D01*
X230625666Y-54171904D01*
X230511380Y-54210000D01*
X230473285Y-54248095D01*
X230244714Y-54171904D02*
X229787571Y-54171904D01*
X230016142Y-54971904D02*
X230016142Y-54171904D01*
D11*
X189143000Y-108763000D02*
X189079500Y-108763000D01*
X189079500Y-108763000D02*
X189079500Y-109017000D01*
X203937000Y-57954000D02*
X204064000Y-57954000D01*
X222504000Y-88773000D02*
X224917000Y-88773000D01*
X224917000Y-88773000D02*
X224917000Y-86487000D01*
X222377000Y-88900000D02*
X225044000Y-88900000D01*
X225044000Y-88900000D02*
X225044000Y-86360000D01*
X238760000Y-84328000D02*
X177673000Y-84328000D01*
X238760000Y-79121000D02*
X238760000Y-84328000D01*
X175133000Y-79121000D02*
X238760000Y-79121000D01*
X175133000Y-81788000D02*
X175133000Y-79121000D01*
X177673000Y-81788000D02*
X175133000Y-81788000D01*
X177673000Y-84328000D02*
X177673000Y-81788000D01*
X175133000Y-84328000D02*
X176530000Y-84328000D01*
X175133000Y-82931000D02*
X175133000Y-84328000D01*
D10*
X185331023Y-75482500D02*
X185407214Y-75444404D01*
X185521500Y-75444404D01*
X185635785Y-75482500D01*
X185711976Y-75558690D01*
X185750071Y-75634880D01*
X185788166Y-75787261D01*
X185788166Y-75901547D01*
X185750071Y-76053928D01*
X185711976Y-76130119D01*
X185635785Y-76206309D01*
X185521500Y-76244404D01*
X185445309Y-76244404D01*
X185331023Y-76206309D01*
X185292928Y-76168214D01*
X185292928Y-75901547D01*
X185445309Y-75901547D01*
X184950071Y-76244404D02*
X184950071Y-75444404D01*
X184492928Y-76244404D01*
X184492928Y-75444404D01*
X184111976Y-76244404D02*
X184111976Y-75444404D01*
X183921500Y-75444404D01*
X183807214Y-75482500D01*
X183731023Y-75558690D01*
X183692928Y-75634880D01*
X183654833Y-75787261D01*
X183654833Y-75901547D01*
X183692928Y-76053928D01*
X183731023Y-76130119D01*
X183807214Y-76206309D01*
X183921500Y-76244404D01*
X184111976Y-76244404D01*
D11*
X175323500Y-76898500D02*
X175323500Y-76771500D01*
X187007500Y-76898500D02*
X175323500Y-76898500D01*
X187007500Y-74866500D02*
X187007500Y-76898500D01*
X175323500Y-74866500D02*
X187007500Y-74866500D01*
X175323500Y-76771500D02*
X175323500Y-74866500D01*
X176657000Y-65278000D02*
X178054000Y-65278000D01*
X176657000Y-63754000D02*
X176657000Y-65278000D01*
D10*
X181819500Y-70586452D02*
X181857595Y-70662642D01*
X181857595Y-70776928D01*
X181819500Y-70891214D01*
X181743309Y-70967404D01*
X181667119Y-71005500D01*
X181514738Y-71043595D01*
X181400452Y-71043595D01*
X181248071Y-71005500D01*
X181171880Y-70967404D01*
X181095690Y-70891214D01*
X181057595Y-70776928D01*
X181057595Y-70700738D01*
X181095690Y-70586452D01*
X181133785Y-70548357D01*
X181400452Y-70548357D01*
X181400452Y-70700738D01*
X181057595Y-70205500D02*
X181857595Y-70205500D01*
X181857595Y-69900738D01*
X181819500Y-69824547D01*
X181781404Y-69786452D01*
X181705214Y-69748357D01*
X181590928Y-69748357D01*
X181514738Y-69786452D01*
X181476642Y-69824547D01*
X181438547Y-69900738D01*
X181438547Y-70205500D01*
X181057595Y-69405500D02*
X181857595Y-69405500D01*
X181857595Y-68872166D02*
X181857595Y-68719785D01*
X181819500Y-68643595D01*
X181743309Y-68567404D01*
X181590928Y-68529309D01*
X181324261Y-68529309D01*
X181171880Y-68567404D01*
X181095690Y-68643595D01*
X181057595Y-68719785D01*
X181057595Y-68872166D01*
X181095690Y-68948357D01*
X181171880Y-69024547D01*
X181324261Y-69062642D01*
X181590928Y-69062642D01*
X181743309Y-69024547D01*
X181819500Y-68948357D01*
X181857595Y-68872166D01*
X181057595Y-68148357D02*
X181057595Y-67995976D01*
X181095690Y-67919785D01*
X181133785Y-67881690D01*
X181248071Y-67805500D01*
X181400452Y-67767404D01*
X181705214Y-67767404D01*
X181781404Y-67805500D01*
X181819500Y-67843595D01*
X181857595Y-67919785D01*
X181857595Y-68072166D01*
X181819500Y-68148357D01*
X181781404Y-68186452D01*
X181705214Y-68224547D01*
X181514738Y-68224547D01*
X181438547Y-68186452D01*
X181400452Y-68148357D01*
X181362357Y-68072166D01*
X181362357Y-67919785D01*
X181400452Y-67843595D01*
X181438547Y-67805500D01*
X181514738Y-67767404D01*
X183026000Y-70586452D02*
X183064095Y-70662642D01*
X183064095Y-70776928D01*
X183026000Y-70891214D01*
X182949809Y-70967404D01*
X182873619Y-71005500D01*
X182721238Y-71043595D01*
X182606952Y-71043595D01*
X182454571Y-71005500D01*
X182378380Y-70967404D01*
X182302190Y-70891214D01*
X182264095Y-70776928D01*
X182264095Y-70700738D01*
X182302190Y-70586452D01*
X182340285Y-70548357D01*
X182606952Y-70548357D01*
X182606952Y-70700738D01*
X182264095Y-70205500D02*
X183064095Y-70205500D01*
X183064095Y-69900738D01*
X183026000Y-69824547D01*
X182987904Y-69786452D01*
X182911714Y-69748357D01*
X182797428Y-69748357D01*
X182721238Y-69786452D01*
X182683142Y-69824547D01*
X182645047Y-69900738D01*
X182645047Y-70205500D01*
X182264095Y-69405500D02*
X183064095Y-69405500D01*
X183064095Y-68872166D02*
X183064095Y-68719785D01*
X183026000Y-68643595D01*
X182949809Y-68567404D01*
X182797428Y-68529309D01*
X182530761Y-68529309D01*
X182378380Y-68567404D01*
X182302190Y-68643595D01*
X182264095Y-68719785D01*
X182264095Y-68872166D01*
X182302190Y-68948357D01*
X182378380Y-69024547D01*
X182530761Y-69062642D01*
X182797428Y-69062642D01*
X182949809Y-69024547D01*
X183026000Y-68948357D01*
X183064095Y-68872166D01*
X182264095Y-67767404D02*
X182264095Y-68224547D01*
X182264095Y-67995976D02*
X183064095Y-67995976D01*
X182949809Y-68072166D01*
X182873619Y-68148357D01*
X182835523Y-68224547D01*
X184105500Y-70649952D02*
X184143595Y-70726142D01*
X184143595Y-70840428D01*
X184105500Y-70954714D01*
X184029309Y-71030904D01*
X183953119Y-71069000D01*
X183800738Y-71107095D01*
X183686452Y-71107095D01*
X183534071Y-71069000D01*
X183457880Y-71030904D01*
X183381690Y-70954714D01*
X183343595Y-70840428D01*
X183343595Y-70764238D01*
X183381690Y-70649952D01*
X183419785Y-70611857D01*
X183686452Y-70611857D01*
X183686452Y-70764238D01*
X183343595Y-70269000D02*
X184143595Y-70269000D01*
X184143595Y-69964238D01*
X184105500Y-69888047D01*
X184067404Y-69849952D01*
X183991214Y-69811857D01*
X183876928Y-69811857D01*
X183800738Y-69849952D01*
X183762642Y-69888047D01*
X183724547Y-69964238D01*
X183724547Y-70269000D01*
X183343595Y-69469000D02*
X184143595Y-69469000D01*
X184143595Y-68935666D02*
X184143595Y-68783285D01*
X184105500Y-68707095D01*
X184029309Y-68630904D01*
X183876928Y-68592809D01*
X183610261Y-68592809D01*
X183457880Y-68630904D01*
X183381690Y-68707095D01*
X183343595Y-68783285D01*
X183343595Y-68935666D01*
X183381690Y-69011857D01*
X183457880Y-69088047D01*
X183610261Y-69126142D01*
X183876928Y-69126142D01*
X184029309Y-69088047D01*
X184105500Y-69011857D01*
X184143595Y-68935666D01*
X184143595Y-68097571D02*
X184143595Y-68021380D01*
X184105500Y-67945190D01*
X184067404Y-67907095D01*
X183991214Y-67869000D01*
X183838833Y-67830904D01*
X183648357Y-67830904D01*
X183495976Y-67869000D01*
X183419785Y-67907095D01*
X183381690Y-67945190D01*
X183343595Y-68021380D01*
X183343595Y-68097571D01*
X183381690Y-68173761D01*
X183419785Y-68211857D01*
X183495976Y-68249952D01*
X183648357Y-68288047D01*
X183838833Y-68288047D01*
X183991214Y-68249952D01*
X184067404Y-68211857D01*
X184105500Y-68173761D01*
X184143595Y-68097571D01*
X176460095Y-64122285D02*
X176460095Y-64503238D01*
X176079142Y-64541333D01*
X176117238Y-64503238D01*
X176155333Y-64427047D01*
X176155333Y-64236571D01*
X176117238Y-64160380D01*
X176079142Y-64122285D01*
X176002952Y-64084190D01*
X175812476Y-64084190D01*
X175736285Y-64122285D01*
X175698190Y-64160380D01*
X175660095Y-64236571D01*
X175660095Y-64427047D01*
X175698190Y-64503238D01*
X175736285Y-64541333D01*
X176193428Y-63817523D02*
X175660095Y-63627047D01*
X176193428Y-63436571D01*
X176422000Y-62077523D02*
X176460095Y-62153714D01*
X176460095Y-62268000D01*
X176422000Y-62382285D01*
X176345809Y-62458476D01*
X176269619Y-62496571D01*
X176117238Y-62534666D01*
X176002952Y-62534666D01*
X175850571Y-62496571D01*
X175774380Y-62458476D01*
X175698190Y-62382285D01*
X175660095Y-62268000D01*
X175660095Y-62191809D01*
X175698190Y-62077523D01*
X175736285Y-62039428D01*
X176002952Y-62039428D01*
X176002952Y-62191809D01*
X175660095Y-61696571D02*
X176460095Y-61696571D01*
X175660095Y-61239428D01*
X176460095Y-61239428D01*
X175660095Y-60858476D02*
X176460095Y-60858476D01*
X176460095Y-60668000D01*
X176422000Y-60553714D01*
X176345809Y-60477523D01*
X176269619Y-60439428D01*
X176117238Y-60401333D01*
X176002952Y-60401333D01*
X175850571Y-60439428D01*
X175774380Y-60477523D01*
X175698190Y-60553714D01*
X175660095Y-60668000D01*
X175660095Y-60858476D01*
X176460095Y-59766095D02*
X176460095Y-59270857D01*
X176155333Y-59537523D01*
X176155333Y-59423238D01*
X176117238Y-59347047D01*
X176079142Y-59308952D01*
X176002952Y-59270857D01*
X175812476Y-59270857D01*
X175736285Y-59308952D01*
X175698190Y-59347047D01*
X175660095Y-59423238D01*
X175660095Y-59651809D01*
X175698190Y-59728000D01*
X175736285Y-59766095D01*
X175736285Y-58928000D02*
X175698190Y-58889904D01*
X175660095Y-58928000D01*
X175698190Y-58966095D01*
X175736285Y-58928000D01*
X175660095Y-58928000D01*
X176460095Y-58623238D02*
X176460095Y-58128000D01*
X176155333Y-58394666D01*
X176155333Y-58280380D01*
X176117238Y-58204190D01*
X176079142Y-58166095D01*
X176002952Y-58128000D01*
X175812476Y-58128000D01*
X175736285Y-58166095D01*
X175698190Y-58204190D01*
X175660095Y-58280380D01*
X175660095Y-58508952D01*
X175698190Y-58585142D01*
X175736285Y-58623238D01*
X175698190Y-57086380D02*
X175660095Y-56972095D01*
X175660095Y-56781619D01*
X175698190Y-56705428D01*
X175736285Y-56667333D01*
X175812476Y-56629238D01*
X175888666Y-56629238D01*
X175964857Y-56667333D01*
X176002952Y-56705428D01*
X176041047Y-56781619D01*
X176079142Y-56934000D01*
X176117238Y-57010190D01*
X176155333Y-57048285D01*
X176231523Y-57086380D01*
X176307714Y-57086380D01*
X176383904Y-57048285D01*
X176422000Y-57010190D01*
X176460095Y-56934000D01*
X176460095Y-56743523D01*
X176422000Y-56629238D01*
X175736285Y-55829238D02*
X175698190Y-55867333D01*
X175660095Y-55981619D01*
X175660095Y-56057809D01*
X175698190Y-56172095D01*
X175774380Y-56248285D01*
X175850571Y-56286380D01*
X176002952Y-56324476D01*
X176117238Y-56324476D01*
X176269619Y-56286380D01*
X176345809Y-56248285D01*
X176422000Y-56172095D01*
X176460095Y-56057809D01*
X176460095Y-55981619D01*
X176422000Y-55867333D01*
X176383904Y-55829238D01*
X175660095Y-55105428D02*
X175660095Y-55486380D01*
X176460095Y-55486380D01*
X175698190Y-54565428D02*
X175660095Y-54451142D01*
X175660095Y-54260666D01*
X175698190Y-54184476D01*
X175736285Y-54146380D01*
X175812476Y-54108285D01*
X175888666Y-54108285D01*
X175964857Y-54146380D01*
X176002952Y-54184476D01*
X176041047Y-54260666D01*
X176079142Y-54413047D01*
X176117238Y-54489238D01*
X176155333Y-54527333D01*
X176231523Y-54565428D01*
X176307714Y-54565428D01*
X176383904Y-54527333D01*
X176422000Y-54489238D01*
X176460095Y-54413047D01*
X176460095Y-54222571D01*
X176422000Y-54108285D01*
X175660095Y-53765428D02*
X176460095Y-53765428D01*
X176460095Y-53574952D01*
X176422000Y-53460666D01*
X176345809Y-53384476D01*
X176269619Y-53346380D01*
X176117238Y-53308285D01*
X176002952Y-53308285D01*
X175850571Y-53346380D01*
X175774380Y-53384476D01*
X175698190Y-53460666D01*
X175660095Y-53574952D01*
X175660095Y-53765428D01*
X175888666Y-53003523D02*
X175888666Y-52622571D01*
X175660095Y-53079714D02*
X176460095Y-52813047D01*
X175660095Y-52546380D01*
X176072785Y-48647404D02*
X176453738Y-48647404D01*
X176491833Y-49028357D01*
X176453738Y-48990261D01*
X176377547Y-48952166D01*
X176187071Y-48952166D01*
X176110880Y-48990261D01*
X176072785Y-49028357D01*
X176034690Y-49104547D01*
X176034690Y-49295023D01*
X176072785Y-49371214D01*
X176110880Y-49409309D01*
X176187071Y-49447404D01*
X176377547Y-49447404D01*
X176453738Y-49409309D01*
X176491833Y-49371214D01*
X175768023Y-48914071D02*
X175577547Y-49447404D01*
X175387071Y-48914071D01*
X180781523Y-48384000D02*
X180857714Y-48345904D01*
X180972000Y-48345904D01*
X181086285Y-48384000D01*
X181162476Y-48460190D01*
X181200571Y-48536380D01*
X181238666Y-48688761D01*
X181238666Y-48803047D01*
X181200571Y-48955428D01*
X181162476Y-49031619D01*
X181086285Y-49107809D01*
X180972000Y-49145904D01*
X180895809Y-49145904D01*
X180781523Y-49107809D01*
X180743428Y-49069714D01*
X180743428Y-48803047D01*
X180895809Y-48803047D01*
X180400571Y-49145904D02*
X180400571Y-48345904D01*
X179943428Y-49145904D01*
X179943428Y-48345904D01*
X179562476Y-49145904D02*
X179562476Y-48345904D01*
X179372000Y-48345904D01*
X179257714Y-48384000D01*
X179181523Y-48460190D01*
X179143428Y-48536380D01*
X179105333Y-48688761D01*
X179105333Y-48803047D01*
X179143428Y-48955428D01*
X179181523Y-49031619D01*
X179257714Y-49107809D01*
X179372000Y-49145904D01*
X179562476Y-49145904D01*
X216833333Y-51319761D02*
X216690476Y-51367380D01*
X216452380Y-51367380D01*
X216357142Y-51319761D01*
X216309523Y-51272142D01*
X216261904Y-51176904D01*
X216261904Y-51081666D01*
X216309523Y-50986428D01*
X216357142Y-50938809D01*
X216452380Y-50891190D01*
X216642857Y-50843571D01*
X216738095Y-50795952D01*
X216785714Y-50748333D01*
X216833333Y-50653095D01*
X216833333Y-50557857D01*
X216785714Y-50462619D01*
X216738095Y-50415000D01*
X216642857Y-50367380D01*
X216404761Y-50367380D01*
X216261904Y-50415000D01*
X215833333Y-50700714D02*
X215833333Y-51700714D01*
X215833333Y-50748333D02*
X215738095Y-50700714D01*
X215547619Y-50700714D01*
X215452380Y-50748333D01*
X215404761Y-50795952D01*
X215357142Y-50891190D01*
X215357142Y-51176904D01*
X215404761Y-51272142D01*
X215452380Y-51319761D01*
X215547619Y-51367380D01*
X215738095Y-51367380D01*
X215833333Y-51319761D01*
X214547619Y-51319761D02*
X214642857Y-51367380D01*
X214833333Y-51367380D01*
X214928571Y-51319761D01*
X214976190Y-51224523D01*
X214976190Y-50843571D01*
X214928571Y-50748333D01*
X214833333Y-50700714D01*
X214642857Y-50700714D01*
X214547619Y-50748333D01*
X214500000Y-50843571D01*
X214500000Y-50938809D01*
X214976190Y-51034047D01*
X213642857Y-51319761D02*
X213738095Y-51367380D01*
X213928571Y-51367380D01*
X214023809Y-51319761D01*
X214071428Y-51272142D01*
X214119047Y-51176904D01*
X214119047Y-50891190D01*
X214071428Y-50795952D01*
X214023809Y-50748333D01*
X213928571Y-50700714D01*
X213738095Y-50700714D01*
X213642857Y-50748333D01*
X213214285Y-51367380D02*
X213214285Y-50700714D01*
X213214285Y-50367380D02*
X213261904Y-50415000D01*
X213214285Y-50462619D01*
X213166666Y-50415000D01*
X213214285Y-50367380D01*
X213214285Y-50462619D01*
X212309523Y-51367380D02*
X212309523Y-50843571D01*
X212357142Y-50748333D01*
X212452380Y-50700714D01*
X212642857Y-50700714D01*
X212738095Y-50748333D01*
X212309523Y-51319761D02*
X212404761Y-51367380D01*
X212642857Y-51367380D01*
X212738095Y-51319761D01*
X212785714Y-51224523D01*
X212785714Y-51129285D01*
X212738095Y-51034047D01*
X212642857Y-50986428D01*
X212404761Y-50986428D01*
X212309523Y-50938809D01*
X211690476Y-51367380D02*
X211785714Y-51319761D01*
X211833333Y-51224523D01*
X211833333Y-50367380D01*
X210690476Y-50700714D02*
X210309523Y-50700714D01*
X210547619Y-50367380D02*
X210547619Y-51224523D01*
X210500000Y-51319761D01*
X210404761Y-51367380D01*
X210309523Y-51367380D01*
X209976190Y-51367380D02*
X209976190Y-50367380D01*
X209547619Y-51367380D02*
X209547619Y-50843571D01*
X209595238Y-50748333D01*
X209690476Y-50700714D01*
X209833333Y-50700714D01*
X209928571Y-50748333D01*
X209976190Y-50795952D01*
X208642857Y-51367380D02*
X208642857Y-50843571D01*
X208690476Y-50748333D01*
X208785714Y-50700714D01*
X208976190Y-50700714D01*
X209071428Y-50748333D01*
X208642857Y-51319761D02*
X208738095Y-51367380D01*
X208976190Y-51367380D01*
X209071428Y-51319761D01*
X209119047Y-51224523D01*
X209119047Y-51129285D01*
X209071428Y-51034047D01*
X208976190Y-50986428D01*
X208738095Y-50986428D01*
X208642857Y-50938809D01*
X208166666Y-50700714D02*
X208166666Y-51367380D01*
X208166666Y-50795952D02*
X208119047Y-50748333D01*
X208023809Y-50700714D01*
X207880952Y-50700714D01*
X207785714Y-50748333D01*
X207738095Y-50843571D01*
X207738095Y-51367380D01*
X207261904Y-51367380D02*
X207261904Y-50367380D01*
X207166666Y-50986428D02*
X206880952Y-51367380D01*
X206880952Y-50700714D02*
X207261904Y-51081666D01*
X206500000Y-51319761D02*
X206404761Y-51367380D01*
X206214285Y-51367380D01*
X206119047Y-51319761D01*
X206071428Y-51224523D01*
X206071428Y-51176904D01*
X206119047Y-51081666D01*
X206214285Y-51034047D01*
X206357142Y-51034047D01*
X206452380Y-50986428D01*
X206500000Y-50891190D01*
X206500000Y-50843571D01*
X206452380Y-50748333D01*
X206357142Y-50700714D01*
X206214285Y-50700714D01*
X206119047Y-50748333D01*
X205023809Y-50700714D02*
X204642857Y-50700714D01*
X204880952Y-50367380D02*
X204880952Y-51224523D01*
X204833333Y-51319761D01*
X204738095Y-51367380D01*
X204642857Y-51367380D01*
X204166666Y-51367380D02*
X204261904Y-51319761D01*
X204309523Y-51272142D01*
X204357142Y-51176904D01*
X204357142Y-50891190D01*
X204309523Y-50795952D01*
X204261904Y-50748333D01*
X204166666Y-50700714D01*
X204023809Y-50700714D01*
X203928571Y-50748333D01*
X203880952Y-50795952D01*
X203833333Y-50891190D01*
X203833333Y-51176904D01*
X203880952Y-51272142D01*
X203928571Y-51319761D01*
X204023809Y-51367380D01*
X204166666Y-51367380D01*
X202119047Y-50415000D02*
X202214285Y-50367380D01*
X202357142Y-50367380D01*
X202500000Y-50415000D01*
X202595238Y-50510238D01*
X202642857Y-50605476D01*
X202690476Y-50795952D01*
X202690476Y-50938809D01*
X202642857Y-51129285D01*
X202595238Y-51224523D01*
X202500000Y-51319761D01*
X202357142Y-51367380D01*
X202261904Y-51367380D01*
X202119047Y-51319761D01*
X202071428Y-51272142D01*
X202071428Y-50938809D01*
X202261904Y-50938809D01*
X201642857Y-51367380D02*
X201642857Y-50367380D01*
X201166666Y-51367380D02*
X201166666Y-50367380D01*
X200833333Y-51081666D01*
X200500000Y-50367380D01*
X200500000Y-51367380D01*
X199833333Y-50367380D02*
X199642857Y-50367380D01*
X199547619Y-50415000D01*
X199452380Y-50510238D01*
X199404761Y-50700714D01*
X199404761Y-51034047D01*
X199452380Y-51224523D01*
X199547619Y-51319761D01*
X199642857Y-51367380D01*
X199833333Y-51367380D01*
X199928571Y-51319761D01*
X200023809Y-51224523D01*
X200071428Y-51034047D01*
X200071428Y-50700714D01*
X200023809Y-50510238D01*
X199928571Y-50415000D01*
X199833333Y-50367380D01*
X198976190Y-51367380D02*
X198976190Y-50367380D01*
X198404761Y-51367380D01*
X198404761Y-50367380D01*
X197976190Y-51319761D02*
X197833333Y-51367380D01*
X197595238Y-51367380D01*
X197500000Y-51319761D01*
X197452380Y-51272142D01*
X197404761Y-51176904D01*
X197404761Y-51081666D01*
X197452380Y-50986428D01*
X197500000Y-50938809D01*
X197595238Y-50891190D01*
X197785714Y-50843571D01*
X197880952Y-50795952D01*
X197928571Y-50748333D01*
X197976190Y-50653095D01*
X197976190Y-50557857D01*
X197928571Y-50462619D01*
X197880952Y-50415000D01*
X197785714Y-50367380D01*
X197547619Y-50367380D01*
X197404761Y-50415000D01*
X195785714Y-51367380D02*
X195785714Y-50843571D01*
X195833333Y-50748333D01*
X195928571Y-50700714D01*
X196119047Y-50700714D01*
X196214285Y-50748333D01*
X195785714Y-51319761D02*
X195880952Y-51367380D01*
X196119047Y-51367380D01*
X196214285Y-51319761D01*
X196261904Y-51224523D01*
X196261904Y-51129285D01*
X196214285Y-51034047D01*
X196119047Y-50986428D01*
X195880952Y-50986428D01*
X195785714Y-50938809D01*
X195309523Y-50700714D02*
X195309523Y-51367380D01*
X195309523Y-50795952D02*
X195261904Y-50748333D01*
X195166666Y-50700714D01*
X195023809Y-50700714D01*
X194928571Y-50748333D01*
X194880952Y-50843571D01*
X194880952Y-51367380D01*
X193976190Y-51367380D02*
X193976190Y-50367380D01*
X193976190Y-51319761D02*
X194071428Y-51367380D01*
X194261904Y-51367380D01*
X194357142Y-51319761D01*
X194404761Y-51272142D01*
X194452380Y-51176904D01*
X194452380Y-50891190D01*
X194404761Y-50795952D01*
X194357142Y-50748333D01*
X194261904Y-50700714D01*
X194071428Y-50700714D01*
X193976190Y-50748333D01*
X213119047Y-53017380D02*
X213119047Y-52493571D01*
X213166666Y-52398333D01*
X213261904Y-52350714D01*
X213452380Y-52350714D01*
X213547619Y-52398333D01*
X213119047Y-52969761D02*
X213214285Y-53017380D01*
X213452380Y-53017380D01*
X213547619Y-52969761D01*
X213595238Y-52874523D01*
X213595238Y-52779285D01*
X213547619Y-52684047D01*
X213452380Y-52636428D01*
X213214285Y-52636428D01*
X213119047Y-52588809D01*
X212500000Y-53017380D02*
X212595238Y-52969761D01*
X212642857Y-52874523D01*
X212642857Y-52017380D01*
X211976190Y-53017380D02*
X212071428Y-52969761D01*
X212119047Y-52874523D01*
X212119047Y-52017380D01*
X210690476Y-53017380D02*
X210785714Y-52969761D01*
X210833333Y-52922142D01*
X210880952Y-52826904D01*
X210880952Y-52541190D01*
X210833333Y-52445952D01*
X210785714Y-52398333D01*
X210690476Y-52350714D01*
X210547619Y-52350714D01*
X210452380Y-52398333D01*
X210404761Y-52445952D01*
X210357142Y-52541190D01*
X210357142Y-52826904D01*
X210404761Y-52922142D01*
X210452380Y-52969761D01*
X210547619Y-53017380D01*
X210690476Y-53017380D01*
X210071428Y-52350714D02*
X209690476Y-52350714D01*
X209928571Y-53017380D02*
X209928571Y-52160238D01*
X209880952Y-52065000D01*
X209785714Y-52017380D01*
X209690476Y-52017380D01*
X208738095Y-52350714D02*
X208357142Y-52350714D01*
X208595238Y-52017380D02*
X208595238Y-52874523D01*
X208547619Y-52969761D01*
X208452380Y-53017380D01*
X208357142Y-53017380D01*
X208023809Y-53017380D02*
X208023809Y-52017380D01*
X207595238Y-53017380D02*
X207595238Y-52493571D01*
X207642857Y-52398333D01*
X207738095Y-52350714D01*
X207880952Y-52350714D01*
X207976190Y-52398333D01*
X208023809Y-52445952D01*
X206738095Y-52969761D02*
X206833333Y-53017380D01*
X207023809Y-53017380D01*
X207119047Y-52969761D01*
X207166666Y-52874523D01*
X207166666Y-52493571D01*
X207119047Y-52398333D01*
X207023809Y-52350714D01*
X206833333Y-52350714D01*
X206738095Y-52398333D01*
X206690476Y-52493571D01*
X206690476Y-52588809D01*
X207166666Y-52684047D01*
X205071428Y-52969761D02*
X205166666Y-53017380D01*
X205357142Y-53017380D01*
X205452380Y-52969761D01*
X205500000Y-52922142D01*
X205547619Y-52826904D01*
X205547619Y-52541190D01*
X205500000Y-52445952D01*
X205452380Y-52398333D01*
X205357142Y-52350714D01*
X205166666Y-52350714D01*
X205071428Y-52398333D01*
X204500000Y-53017380D02*
X204595238Y-52969761D01*
X204642857Y-52922142D01*
X204690476Y-52826904D01*
X204690476Y-52541190D01*
X204642857Y-52445952D01*
X204595238Y-52398333D01*
X204500000Y-52350714D01*
X204357142Y-52350714D01*
X204261904Y-52398333D01*
X204214285Y-52445952D01*
X204166666Y-52541190D01*
X204166666Y-52826904D01*
X204214285Y-52922142D01*
X204261904Y-52969761D01*
X204357142Y-53017380D01*
X204500000Y-53017380D01*
X203738095Y-52350714D02*
X203738095Y-53017380D01*
X203738095Y-52445952D02*
X203690476Y-52398333D01*
X203595238Y-52350714D01*
X203452380Y-52350714D01*
X203357142Y-52398333D01*
X203309523Y-52493571D01*
X203309523Y-53017380D01*
X202976190Y-52350714D02*
X202595238Y-52350714D01*
X202833333Y-52017380D02*
X202833333Y-52874523D01*
X202785714Y-52969761D01*
X202690476Y-53017380D01*
X202595238Y-53017380D01*
X202261904Y-53017380D02*
X202261904Y-52350714D01*
X202261904Y-52541190D02*
X202214285Y-52445952D01*
X202166666Y-52398333D01*
X202071428Y-52350714D01*
X201976190Y-52350714D01*
X201642857Y-53017380D02*
X201642857Y-52350714D01*
X201642857Y-52017380D02*
X201690476Y-52065000D01*
X201642857Y-52112619D01*
X201595238Y-52065000D01*
X201642857Y-52017380D01*
X201642857Y-52112619D01*
X201166666Y-53017380D02*
X201166666Y-52017380D01*
X201166666Y-52398333D02*
X201071428Y-52350714D01*
X200880952Y-52350714D01*
X200785714Y-52398333D01*
X200738095Y-52445952D01*
X200690476Y-52541190D01*
X200690476Y-52826904D01*
X200738095Y-52922142D01*
X200785714Y-52969761D01*
X200880952Y-53017380D01*
X201071428Y-53017380D01*
X201166666Y-52969761D01*
X199833333Y-52350714D02*
X199833333Y-53017380D01*
X200261904Y-52350714D02*
X200261904Y-52874523D01*
X200214285Y-52969761D01*
X200119047Y-53017380D01*
X199976190Y-53017380D01*
X199880952Y-52969761D01*
X199833333Y-52922142D01*
X199500000Y-52350714D02*
X199119047Y-52350714D01*
X199357142Y-52017380D02*
X199357142Y-52874523D01*
X199309523Y-52969761D01*
X199214285Y-53017380D01*
X199119047Y-53017380D01*
X198642857Y-53017380D02*
X198738095Y-52969761D01*
X198785714Y-52922142D01*
X198833333Y-52826904D01*
X198833333Y-52541190D01*
X198785714Y-52445952D01*
X198738095Y-52398333D01*
X198642857Y-52350714D01*
X198500000Y-52350714D01*
X198404761Y-52398333D01*
X198357142Y-52445952D01*
X198309523Y-52541190D01*
X198309523Y-52826904D01*
X198357142Y-52922142D01*
X198404761Y-52969761D01*
X198500000Y-53017380D01*
X198642857Y-53017380D01*
X197880952Y-53017380D02*
X197880952Y-52350714D01*
X197880952Y-52541190D02*
X197833333Y-52445952D01*
X197785714Y-52398333D01*
X197690476Y-52350714D01*
X197595238Y-52350714D01*
X197309523Y-52969761D02*
X197214285Y-53017380D01*
X197023809Y-53017380D01*
X196928571Y-52969761D01*
X196880952Y-52874523D01*
X196880952Y-52826904D01*
X196928571Y-52731666D01*
X197023809Y-52684047D01*
X197166666Y-52684047D01*
X197261904Y-52636428D01*
X197309523Y-52541190D01*
X197309523Y-52493571D01*
X197261904Y-52398333D01*
X197166666Y-52350714D01*
X197023809Y-52350714D01*
X196928571Y-52398333D01*
X196452380Y-52922142D02*
X196404761Y-52969761D01*
X196452380Y-53017380D01*
X196500000Y-52969761D01*
X196452380Y-52922142D01*
X196452380Y-53017380D01*
X196452380Y-52636428D02*
X196500000Y-52065000D01*
X196452380Y-52017380D01*
X196404761Y-52065000D01*
X196452380Y-52636428D01*
X196452380Y-52017380D01*
D11*
X233528000Y-91586000D02*
X235528000Y-91586000D01*
X233528000Y-88786000D02*
X233528000Y-91586000D01*
X235528000Y-88786000D02*
X233528000Y-88786000D01*
X235528000Y-91586000D02*
X235528000Y-88786000D01*
X235550000Y-60050000D02*
G75*
G03*
X235550000Y-60050000I-700000J0D01*
G01*
X234160000Y-61460000D02*
G75*
G03*
X234160000Y-61460000I-700000J0D01*
G01*
X235550000Y-62910000D02*
G75*
G03*
X235550000Y-62910000I-700000J0D01*
G01*
X232156000Y-55753000D02*
X233426000Y-55753000D01*
X232156000Y-54483000D02*
X232156000Y-55753000D01*
X234468929Y-51563000D02*
X234866000Y-51563000D01*
X234468929Y-52323000D02*
X234866000Y-52323000D01*
X243526000Y-51563000D02*
X237526000Y-51563000D01*
X243526000Y-52323000D02*
X243526000Y-51563000D01*
X237526000Y-52323000D02*
X243526000Y-52323000D01*
X234866000Y-53213000D02*
X237526000Y-53213000D01*
X234536000Y-54103000D02*
X234866000Y-54103000D01*
X234536000Y-54863000D02*
X234866000Y-54863000D01*
X237526000Y-54203000D02*
X243526000Y-54203000D01*
X237526000Y-54323000D02*
X243526000Y-54323000D01*
X237526000Y-54443000D02*
X243526000Y-54443000D01*
X237526000Y-54563000D02*
X243526000Y-54563000D01*
X237526000Y-54683000D02*
X243526000Y-54683000D01*
X237526000Y-54803000D02*
X243526000Y-54803000D01*
X243526000Y-54103000D02*
X237526000Y-54103000D01*
X243526000Y-54863000D02*
X243526000Y-54103000D01*
X237526000Y-54863000D02*
X243526000Y-54863000D01*
X237526000Y-55813000D02*
X234866000Y-55813000D01*
X237526000Y-50613000D02*
X237526000Y-55813000D01*
X234866000Y-50613000D02*
X237526000Y-50613000D01*
X234866000Y-55813000D02*
X234866000Y-50613000D01*
X181540000Y-47270000D02*
X181540000Y-48600000D01*
X181540000Y-48600000D02*
X182870000Y-48600000D01*
X181540000Y-46000000D02*
X184140000Y-46000000D01*
X184140000Y-46000000D02*
X184140000Y-48600000D01*
X184140000Y-48600000D02*
X232460000Y-48600000D01*
X232460000Y-43400000D02*
X232460000Y-48600000D01*
X181540000Y-43400000D02*
X232460000Y-43400000D01*
X181540000Y-43400000D02*
X181540000Y-46000000D01*
D10*
X236680333Y-49299880D02*
X236680333Y-50014166D01*
X236727952Y-50157023D01*
X236823190Y-50252261D01*
X236966047Y-50299880D01*
X237061285Y-50299880D01*
X236251761Y-49395119D02*
X236204142Y-49347500D01*
X236108904Y-49299880D01*
X235870809Y-49299880D01*
X235775571Y-49347500D01*
X235727952Y-49395119D01*
X235680333Y-49490357D01*
X235680333Y-49585595D01*
X235727952Y-49728452D01*
X236299380Y-50299880D01*
X235680333Y-50299880D01*
X179552380Y-45666666D02*
X180266666Y-45666666D01*
X180409523Y-45619047D01*
X180504761Y-45523809D01*
X180552380Y-45380952D01*
X180552380Y-45285714D01*
X180552380Y-46666666D02*
X180552380Y-46095238D01*
X180552380Y-46380952D02*
X179552380Y-46380952D01*
X179695238Y-46285714D01*
X179790476Y-46190476D01*
X179838095Y-46095238D01*
M02*
