G04 #@! TF.GenerationSoftware,KiCad,Pcbnew,(5.1.9-16-g1737927814)-1*
G04 #@! TF.CreationDate,2021-08-01T21:15:59-05:00*
G04 #@! TF.ProjectId,rascsi_2p4,72617363-7369-45f3-9270-342e6b696361,rev?*
G04 #@! TF.SameCoordinates,Original*
G04 #@! TF.FileFunction,Soldermask,Top*
G04 #@! TF.FilePolarity,Negative*
%FSLAX46Y46*%
G04 Gerber Fmt 4.6, Leading zero omitted, Abs format (unit mm)*
G04 Created by KiCad (PCBNEW (5.1.9-16-g1737927814)-1) date 2021-08-01 21:15:59*
%MOMM*%
%LPD*%
G01*
G04 APERTURE LIST*
%ADD10C,1.800000*%
%ADD11R,1.800000X1.800000*%
%ADD12O,1.700000X1.700000*%
%ADD13R,1.700000X1.700000*%
%ADD14C,4.845000*%
%ADD15C,1.545000*%
%ADD16O,1.350000X1.350000*%
%ADD17R,1.350000X1.350000*%
%ADD18R,0.650000X1.950000*%
%ADD19C,2.000000*%
%ADD20R,1.400000X0.400000*%
%ADD21R,1.100000X1.100000*%
%ADD22C,0.800000*%
%ADD23C,5.400000*%
%ADD24R,1.425000X0.750000*%
G04 APERTURE END LIST*
D10*
X201110000Y-67500000D03*
X201110000Y-70000000D03*
X201110000Y-72500000D03*
D11*
X201110000Y-75000000D03*
D12*
X176730000Y-75840000D03*
X176730000Y-73300000D03*
X179270000Y-75840000D03*
X179270000Y-73300000D03*
X181810000Y-75840000D03*
D13*
X181810000Y-73300000D03*
D14*
X183481600Y-89050000D03*
X230521600Y-89050000D03*
D15*
X191766600Y-90470000D03*
X194536600Y-90470000D03*
X197306600Y-90470000D03*
X200076600Y-90470000D03*
X202846600Y-90470000D03*
X205616600Y-90470000D03*
X208386600Y-90470000D03*
X211156600Y-90470000D03*
X213926600Y-90470000D03*
X216696600Y-90470000D03*
X219466600Y-90470000D03*
X222236600Y-90470000D03*
X190381600Y-87630000D03*
X193151600Y-87630000D03*
X195921600Y-87630000D03*
X198691600Y-87630000D03*
X201461600Y-87630000D03*
X204231600Y-87630000D03*
X207001600Y-87630000D03*
X209771600Y-87630000D03*
X212541600Y-87630000D03*
X215311600Y-87630000D03*
X218081600Y-87630000D03*
X220851600Y-87630000D03*
X223621600Y-87630000D03*
D16*
X182972000Y-95488000D03*
X182972000Y-93488000D03*
X184972000Y-95488000D03*
X184972000Y-93488000D03*
X186972000Y-95488000D03*
X186972000Y-93488000D03*
X188972000Y-95488000D03*
X188972000Y-93488000D03*
X190972000Y-95488000D03*
X190972000Y-93488000D03*
X192972000Y-95488000D03*
X192972000Y-93488000D03*
X194972000Y-95488000D03*
X194972000Y-93488000D03*
X196972000Y-95488000D03*
X196972000Y-93488000D03*
X198972000Y-95488000D03*
X198972000Y-93488000D03*
X200972000Y-95488000D03*
X200972000Y-93488000D03*
X202972000Y-95488000D03*
X202972000Y-93488000D03*
X204972000Y-95488000D03*
X204972000Y-93488000D03*
X206972000Y-95488000D03*
X206972000Y-93488000D03*
X208972000Y-95488000D03*
X208972000Y-93488000D03*
X210972000Y-95488000D03*
X210972000Y-93488000D03*
X212972000Y-95488000D03*
X212972000Y-93488000D03*
X214972000Y-95488000D03*
X214972000Y-93488000D03*
X216972000Y-95488000D03*
X216972000Y-93488000D03*
X218972000Y-95488000D03*
X218972000Y-93488000D03*
X220972000Y-95488000D03*
D17*
X220972000Y-93488000D03*
D16*
X222972000Y-95488000D03*
X222972000Y-93488000D03*
X224972000Y-95488000D03*
X224972000Y-93488000D03*
X226972000Y-95488000D03*
X226972000Y-93488000D03*
X228972000Y-95488000D03*
X228972000Y-93488000D03*
X230972000Y-95488000D03*
D17*
X230972000Y-93488000D03*
D16*
X237830000Y-91392000D03*
X237830000Y-89392000D03*
X237830000Y-87392000D03*
D17*
X237830000Y-85392000D03*
G36*
G01*
X233622000Y-73138000D02*
X233992000Y-73138000D01*
G75*
G02*
X234127000Y-73273000I0J-135000D01*
G01*
X234127000Y-73543000D01*
G75*
G02*
X233992000Y-73678000I-135000J0D01*
G01*
X233622000Y-73678000D01*
G75*
G02*
X233487000Y-73543000I0J135000D01*
G01*
X233487000Y-73273000D01*
G75*
G02*
X233622000Y-73138000I135000J0D01*
G01*
G37*
G36*
G01*
X233622000Y-72118000D02*
X233992000Y-72118000D01*
G75*
G02*
X234127000Y-72253000I0J-135000D01*
G01*
X234127000Y-72523000D01*
G75*
G02*
X233992000Y-72658000I-135000J0D01*
G01*
X233622000Y-72658000D01*
G75*
G02*
X233487000Y-72523000I0J135000D01*
G01*
X233487000Y-72253000D01*
G75*
G02*
X233622000Y-72118000I135000J0D01*
G01*
G37*
G36*
G01*
X233622000Y-75043000D02*
X233992000Y-75043000D01*
G75*
G02*
X234127000Y-75178000I0J-135000D01*
G01*
X234127000Y-75448000D01*
G75*
G02*
X233992000Y-75583000I-135000J0D01*
G01*
X233622000Y-75583000D01*
G75*
G02*
X233487000Y-75448000I0J135000D01*
G01*
X233487000Y-75178000D01*
G75*
G02*
X233622000Y-75043000I135000J0D01*
G01*
G37*
G36*
G01*
X233622000Y-74023000D02*
X233992000Y-74023000D01*
G75*
G02*
X234127000Y-74158000I0J-135000D01*
G01*
X234127000Y-74428000D01*
G75*
G02*
X233992000Y-74563000I-135000J0D01*
G01*
X233622000Y-74563000D01*
G75*
G02*
X233487000Y-74428000I0J135000D01*
G01*
X233487000Y-74158000D01*
G75*
G02*
X233622000Y-74023000I135000J0D01*
G01*
G37*
G36*
G01*
X233198500Y-49524500D02*
X233198500Y-49154500D01*
G75*
G02*
X233333500Y-49019500I135000J0D01*
G01*
X233603500Y-49019500D01*
G75*
G02*
X233738500Y-49154500I0J-135000D01*
G01*
X233738500Y-49524500D01*
G75*
G02*
X233603500Y-49659500I-135000J0D01*
G01*
X233333500Y-49659500D01*
G75*
G02*
X233198500Y-49524500I0J135000D01*
G01*
G37*
G36*
G01*
X232178500Y-49524500D02*
X232178500Y-49154500D01*
G75*
G02*
X232313500Y-49019500I135000J0D01*
G01*
X232583500Y-49019500D01*
G75*
G02*
X232718500Y-49154500I0J-135000D01*
G01*
X232718500Y-49524500D01*
G75*
G02*
X232583500Y-49659500I-135000J0D01*
G01*
X232313500Y-49659500D01*
G75*
G02*
X232178500Y-49524500I0J135000D01*
G01*
G37*
G36*
G01*
X233198500Y-50540500D02*
X233198500Y-50170500D01*
G75*
G02*
X233333500Y-50035500I135000J0D01*
G01*
X233603500Y-50035500D01*
G75*
G02*
X233738500Y-50170500I0J-135000D01*
G01*
X233738500Y-50540500D01*
G75*
G02*
X233603500Y-50675500I-135000J0D01*
G01*
X233333500Y-50675500D01*
G75*
G02*
X233198500Y-50540500I0J135000D01*
G01*
G37*
G36*
G01*
X232178500Y-50540500D02*
X232178500Y-50170500D01*
G75*
G02*
X232313500Y-50035500I135000J0D01*
G01*
X232583500Y-50035500D01*
G75*
G02*
X232718500Y-50170500I0J-135000D01*
G01*
X232718500Y-50540500D01*
G75*
G02*
X232583500Y-50675500I-135000J0D01*
G01*
X232313500Y-50675500D01*
G75*
G02*
X232178500Y-50540500I0J135000D01*
G01*
G37*
G36*
G01*
X193282500Y-67387500D02*
X192912500Y-67387500D01*
G75*
G02*
X192777500Y-67252500I0J135000D01*
G01*
X192777500Y-66982500D01*
G75*
G02*
X192912500Y-66847500I135000J0D01*
G01*
X193282500Y-66847500D01*
G75*
G02*
X193417500Y-66982500I0J-135000D01*
G01*
X193417500Y-67252500D01*
G75*
G02*
X193282500Y-67387500I-135000J0D01*
G01*
G37*
G36*
G01*
X193282500Y-68407500D02*
X192912500Y-68407500D01*
G75*
G02*
X192777500Y-68272500I0J135000D01*
G01*
X192777500Y-68002500D01*
G75*
G02*
X192912500Y-67867500I135000J0D01*
G01*
X193282500Y-67867500D01*
G75*
G02*
X193417500Y-68002500I0J-135000D01*
G01*
X193417500Y-68272500D01*
G75*
G02*
X193282500Y-68407500I-135000J0D01*
G01*
G37*
G36*
G01*
X191955000Y-67387500D02*
X191585000Y-67387500D01*
G75*
G02*
X191450000Y-67252500I0J135000D01*
G01*
X191450000Y-66982500D01*
G75*
G02*
X191585000Y-66847500I135000J0D01*
G01*
X191955000Y-66847500D01*
G75*
G02*
X192090000Y-66982500I0J-135000D01*
G01*
X192090000Y-67252500D01*
G75*
G02*
X191955000Y-67387500I-135000J0D01*
G01*
G37*
G36*
G01*
X191955000Y-68407500D02*
X191585000Y-68407500D01*
G75*
G02*
X191450000Y-68272500I0J135000D01*
G01*
X191450000Y-68002500D01*
G75*
G02*
X191585000Y-67867500I135000J0D01*
G01*
X191955000Y-67867500D01*
G75*
G02*
X192090000Y-68002500I0J-135000D01*
G01*
X192090000Y-68272500D01*
G75*
G02*
X191955000Y-68407500I-135000J0D01*
G01*
G37*
G36*
G01*
X190685000Y-67387500D02*
X190315000Y-67387500D01*
G75*
G02*
X190180000Y-67252500I0J135000D01*
G01*
X190180000Y-66982500D01*
G75*
G02*
X190315000Y-66847500I135000J0D01*
G01*
X190685000Y-66847500D01*
G75*
G02*
X190820000Y-66982500I0J-135000D01*
G01*
X190820000Y-67252500D01*
G75*
G02*
X190685000Y-67387500I-135000J0D01*
G01*
G37*
G36*
G01*
X190685000Y-68407500D02*
X190315000Y-68407500D01*
G75*
G02*
X190180000Y-68272500I0J135000D01*
G01*
X190180000Y-68002500D01*
G75*
G02*
X190315000Y-67867500I135000J0D01*
G01*
X190685000Y-67867500D01*
G75*
G02*
X190820000Y-68002500I0J-135000D01*
G01*
X190820000Y-68272500D01*
G75*
G02*
X190685000Y-68407500I-135000J0D01*
G01*
G37*
G36*
G01*
X189415000Y-67387500D02*
X189045000Y-67387500D01*
G75*
G02*
X188910000Y-67252500I0J135000D01*
G01*
X188910000Y-66982500D01*
G75*
G02*
X189045000Y-66847500I135000J0D01*
G01*
X189415000Y-66847500D01*
G75*
G02*
X189550000Y-66982500I0J-135000D01*
G01*
X189550000Y-67252500D01*
G75*
G02*
X189415000Y-67387500I-135000J0D01*
G01*
G37*
G36*
G01*
X189415000Y-68407500D02*
X189045000Y-68407500D01*
G75*
G02*
X188910000Y-68272500I0J135000D01*
G01*
X188910000Y-68002500D01*
G75*
G02*
X189045000Y-67867500I135000J0D01*
G01*
X189415000Y-67867500D01*
G75*
G02*
X189550000Y-68002500I0J-135000D01*
G01*
X189550000Y-68272500D01*
G75*
G02*
X189415000Y-68407500I-135000J0D01*
G01*
G37*
G36*
G01*
X188145000Y-67387500D02*
X187775000Y-67387500D01*
G75*
G02*
X187640000Y-67252500I0J135000D01*
G01*
X187640000Y-66982500D01*
G75*
G02*
X187775000Y-66847500I135000J0D01*
G01*
X188145000Y-66847500D01*
G75*
G02*
X188280000Y-66982500I0J-135000D01*
G01*
X188280000Y-67252500D01*
G75*
G02*
X188145000Y-67387500I-135000J0D01*
G01*
G37*
G36*
G01*
X188145000Y-68407500D02*
X187775000Y-68407500D01*
G75*
G02*
X187640000Y-68272500I0J135000D01*
G01*
X187640000Y-68002500D01*
G75*
G02*
X187775000Y-67867500I135000J0D01*
G01*
X188145000Y-67867500D01*
G75*
G02*
X188280000Y-68002500I0J-135000D01*
G01*
X188280000Y-68272500D01*
G75*
G02*
X188145000Y-68407500I-135000J0D01*
G01*
G37*
G36*
G01*
X186875000Y-67387500D02*
X186505000Y-67387500D01*
G75*
G02*
X186370000Y-67252500I0J135000D01*
G01*
X186370000Y-66982500D01*
G75*
G02*
X186505000Y-66847500I135000J0D01*
G01*
X186875000Y-66847500D01*
G75*
G02*
X187010000Y-66982500I0J-135000D01*
G01*
X187010000Y-67252500D01*
G75*
G02*
X186875000Y-67387500I-135000J0D01*
G01*
G37*
G36*
G01*
X186875000Y-68407500D02*
X186505000Y-68407500D01*
G75*
G02*
X186370000Y-68272500I0J135000D01*
G01*
X186370000Y-68002500D01*
G75*
G02*
X186505000Y-67867500I135000J0D01*
G01*
X186875000Y-67867500D01*
G75*
G02*
X187010000Y-68002500I0J-135000D01*
G01*
X187010000Y-68272500D01*
G75*
G02*
X186875000Y-68407500I-135000J0D01*
G01*
G37*
G36*
G01*
X185605000Y-67387500D02*
X185235000Y-67387500D01*
G75*
G02*
X185100000Y-67252500I0J135000D01*
G01*
X185100000Y-66982500D01*
G75*
G02*
X185235000Y-66847500I135000J0D01*
G01*
X185605000Y-66847500D01*
G75*
G02*
X185740000Y-66982500I0J-135000D01*
G01*
X185740000Y-67252500D01*
G75*
G02*
X185605000Y-67387500I-135000J0D01*
G01*
G37*
G36*
G01*
X185605000Y-68407500D02*
X185235000Y-68407500D01*
G75*
G02*
X185100000Y-68272500I0J135000D01*
G01*
X185100000Y-68002500D01*
G75*
G02*
X185235000Y-67867500I135000J0D01*
G01*
X185605000Y-67867500D01*
G75*
G02*
X185740000Y-68002500I0J-135000D01*
G01*
X185740000Y-68272500D01*
G75*
G02*
X185605000Y-68407500I-135000J0D01*
G01*
G37*
G36*
G01*
X184335000Y-67387500D02*
X183965000Y-67387500D01*
G75*
G02*
X183830000Y-67252500I0J135000D01*
G01*
X183830000Y-66982500D01*
G75*
G02*
X183965000Y-66847500I135000J0D01*
G01*
X184335000Y-66847500D01*
G75*
G02*
X184470000Y-66982500I0J-135000D01*
G01*
X184470000Y-67252500D01*
G75*
G02*
X184335000Y-67387500I-135000J0D01*
G01*
G37*
G36*
G01*
X184335000Y-68407500D02*
X183965000Y-68407500D01*
G75*
G02*
X183830000Y-68272500I0J135000D01*
G01*
X183830000Y-68002500D01*
G75*
G02*
X183965000Y-67867500I135000J0D01*
G01*
X184335000Y-67867500D01*
G75*
G02*
X184470000Y-68002500I0J-135000D01*
G01*
X184470000Y-68272500D01*
G75*
G02*
X184335000Y-68407500I-135000J0D01*
G01*
G37*
G36*
G01*
X183065000Y-67387500D02*
X182695000Y-67387500D01*
G75*
G02*
X182560000Y-67252500I0J135000D01*
G01*
X182560000Y-66982500D01*
G75*
G02*
X182695000Y-66847500I135000J0D01*
G01*
X183065000Y-66847500D01*
G75*
G02*
X183200000Y-66982500I0J-135000D01*
G01*
X183200000Y-67252500D01*
G75*
G02*
X183065000Y-67387500I-135000J0D01*
G01*
G37*
G36*
G01*
X183065000Y-68407500D02*
X182695000Y-68407500D01*
G75*
G02*
X182560000Y-68272500I0J135000D01*
G01*
X182560000Y-68002500D01*
G75*
G02*
X182695000Y-67867500I135000J0D01*
G01*
X183065000Y-67867500D01*
G75*
G02*
X183200000Y-68002500I0J-135000D01*
G01*
X183200000Y-68272500D01*
G75*
G02*
X183065000Y-68407500I-135000J0D01*
G01*
G37*
G36*
G01*
X216720000Y-67387500D02*
X216350000Y-67387500D01*
G75*
G02*
X216215000Y-67252500I0J135000D01*
G01*
X216215000Y-66982500D01*
G75*
G02*
X216350000Y-66847500I135000J0D01*
G01*
X216720000Y-66847500D01*
G75*
G02*
X216855000Y-66982500I0J-135000D01*
G01*
X216855000Y-67252500D01*
G75*
G02*
X216720000Y-67387500I-135000J0D01*
G01*
G37*
G36*
G01*
X216720000Y-68407500D02*
X216350000Y-68407500D01*
G75*
G02*
X216215000Y-68272500I0J135000D01*
G01*
X216215000Y-68002500D01*
G75*
G02*
X216350000Y-67867500I135000J0D01*
G01*
X216720000Y-67867500D01*
G75*
G02*
X216855000Y-68002500I0J-135000D01*
G01*
X216855000Y-68272500D01*
G75*
G02*
X216720000Y-68407500I-135000J0D01*
G01*
G37*
G36*
G01*
X215450000Y-67387500D02*
X215080000Y-67387500D01*
G75*
G02*
X214945000Y-67252500I0J135000D01*
G01*
X214945000Y-66982500D01*
G75*
G02*
X215080000Y-66847500I135000J0D01*
G01*
X215450000Y-66847500D01*
G75*
G02*
X215585000Y-66982500I0J-135000D01*
G01*
X215585000Y-67252500D01*
G75*
G02*
X215450000Y-67387500I-135000J0D01*
G01*
G37*
G36*
G01*
X215450000Y-68407500D02*
X215080000Y-68407500D01*
G75*
G02*
X214945000Y-68272500I0J135000D01*
G01*
X214945000Y-68002500D01*
G75*
G02*
X215080000Y-67867500I135000J0D01*
G01*
X215450000Y-67867500D01*
G75*
G02*
X215585000Y-68002500I0J-135000D01*
G01*
X215585000Y-68272500D01*
G75*
G02*
X215450000Y-68407500I-135000J0D01*
G01*
G37*
G36*
G01*
X214180000Y-67387500D02*
X213810000Y-67387500D01*
G75*
G02*
X213675000Y-67252500I0J135000D01*
G01*
X213675000Y-66982500D01*
G75*
G02*
X213810000Y-66847500I135000J0D01*
G01*
X214180000Y-66847500D01*
G75*
G02*
X214315000Y-66982500I0J-135000D01*
G01*
X214315000Y-67252500D01*
G75*
G02*
X214180000Y-67387500I-135000J0D01*
G01*
G37*
G36*
G01*
X214180000Y-68407500D02*
X213810000Y-68407500D01*
G75*
G02*
X213675000Y-68272500I0J135000D01*
G01*
X213675000Y-68002500D01*
G75*
G02*
X213810000Y-67867500I135000J0D01*
G01*
X214180000Y-67867500D01*
G75*
G02*
X214315000Y-68002500I0J-135000D01*
G01*
X214315000Y-68272500D01*
G75*
G02*
X214180000Y-68407500I-135000J0D01*
G01*
G37*
G36*
G01*
X212910000Y-67387500D02*
X212540000Y-67387500D01*
G75*
G02*
X212405000Y-67252500I0J135000D01*
G01*
X212405000Y-66982500D01*
G75*
G02*
X212540000Y-66847500I135000J0D01*
G01*
X212910000Y-66847500D01*
G75*
G02*
X213045000Y-66982500I0J-135000D01*
G01*
X213045000Y-67252500D01*
G75*
G02*
X212910000Y-67387500I-135000J0D01*
G01*
G37*
G36*
G01*
X212910000Y-68407500D02*
X212540000Y-68407500D01*
G75*
G02*
X212405000Y-68272500I0J135000D01*
G01*
X212405000Y-68002500D01*
G75*
G02*
X212540000Y-67867500I135000J0D01*
G01*
X212910000Y-67867500D01*
G75*
G02*
X213045000Y-68002500I0J-135000D01*
G01*
X213045000Y-68272500D01*
G75*
G02*
X212910000Y-68407500I-135000J0D01*
G01*
G37*
G36*
G01*
X211640000Y-67387500D02*
X211270000Y-67387500D01*
G75*
G02*
X211135000Y-67252500I0J135000D01*
G01*
X211135000Y-66982500D01*
G75*
G02*
X211270000Y-66847500I135000J0D01*
G01*
X211640000Y-66847500D01*
G75*
G02*
X211775000Y-66982500I0J-135000D01*
G01*
X211775000Y-67252500D01*
G75*
G02*
X211640000Y-67387500I-135000J0D01*
G01*
G37*
G36*
G01*
X211640000Y-68407500D02*
X211270000Y-68407500D01*
G75*
G02*
X211135000Y-68272500I0J135000D01*
G01*
X211135000Y-68002500D01*
G75*
G02*
X211270000Y-67867500I135000J0D01*
G01*
X211640000Y-67867500D01*
G75*
G02*
X211775000Y-68002500I0J-135000D01*
G01*
X211775000Y-68272500D01*
G75*
G02*
X211640000Y-68407500I-135000J0D01*
G01*
G37*
G36*
G01*
X229737500Y-67562501D02*
X229367500Y-67562501D01*
G75*
G02*
X229232500Y-67427501I0J135000D01*
G01*
X229232500Y-67157501D01*
G75*
G02*
X229367500Y-67022501I135000J0D01*
G01*
X229737500Y-67022501D01*
G75*
G02*
X229872500Y-67157501I0J-135000D01*
G01*
X229872500Y-67427501D01*
G75*
G02*
X229737500Y-67562501I-135000J0D01*
G01*
G37*
G36*
G01*
X229737500Y-68582501D02*
X229367500Y-68582501D01*
G75*
G02*
X229232500Y-68447501I0J135000D01*
G01*
X229232500Y-68177501D01*
G75*
G02*
X229367500Y-68042501I135000J0D01*
G01*
X229737500Y-68042501D01*
G75*
G02*
X229872500Y-68177501I0J-135000D01*
G01*
X229872500Y-68447501D01*
G75*
G02*
X229737500Y-68582501I-135000J0D01*
G01*
G37*
G36*
G01*
X228467500Y-67562501D02*
X228097500Y-67562501D01*
G75*
G02*
X227962500Y-67427501I0J135000D01*
G01*
X227962500Y-67157501D01*
G75*
G02*
X228097500Y-67022501I135000J0D01*
G01*
X228467500Y-67022501D01*
G75*
G02*
X228602500Y-67157501I0J-135000D01*
G01*
X228602500Y-67427501D01*
G75*
G02*
X228467500Y-67562501I-135000J0D01*
G01*
G37*
G36*
G01*
X228467500Y-68582501D02*
X228097500Y-68582501D01*
G75*
G02*
X227962500Y-68447501I0J135000D01*
G01*
X227962500Y-68177501D01*
G75*
G02*
X228097500Y-68042501I135000J0D01*
G01*
X228467500Y-68042501D01*
G75*
G02*
X228602500Y-68177501I0J-135000D01*
G01*
X228602500Y-68447501D01*
G75*
G02*
X228467500Y-68582501I-135000J0D01*
G01*
G37*
G36*
G01*
X227197500Y-67562501D02*
X226827500Y-67562501D01*
G75*
G02*
X226692500Y-67427501I0J135000D01*
G01*
X226692500Y-67157501D01*
G75*
G02*
X226827500Y-67022501I135000J0D01*
G01*
X227197500Y-67022501D01*
G75*
G02*
X227332500Y-67157501I0J-135000D01*
G01*
X227332500Y-67427501D01*
G75*
G02*
X227197500Y-67562501I-135000J0D01*
G01*
G37*
G36*
G01*
X227197500Y-68582501D02*
X226827500Y-68582501D01*
G75*
G02*
X226692500Y-68447501I0J135000D01*
G01*
X226692500Y-68177501D01*
G75*
G02*
X226827500Y-68042501I135000J0D01*
G01*
X227197500Y-68042501D01*
G75*
G02*
X227332500Y-68177501I0J-135000D01*
G01*
X227332500Y-68447501D01*
G75*
G02*
X227197500Y-68582501I-135000J0D01*
G01*
G37*
G36*
G01*
X225927500Y-67562501D02*
X225557500Y-67562501D01*
G75*
G02*
X225422500Y-67427501I0J135000D01*
G01*
X225422500Y-67157501D01*
G75*
G02*
X225557500Y-67022501I135000J0D01*
G01*
X225927500Y-67022501D01*
G75*
G02*
X226062500Y-67157501I0J-135000D01*
G01*
X226062500Y-67427501D01*
G75*
G02*
X225927500Y-67562501I-135000J0D01*
G01*
G37*
G36*
G01*
X225927500Y-68582501D02*
X225557500Y-68582501D01*
G75*
G02*
X225422500Y-68447501I0J135000D01*
G01*
X225422500Y-68177501D01*
G75*
G02*
X225557500Y-68042501I135000J0D01*
G01*
X225927500Y-68042501D01*
G75*
G02*
X226062500Y-68177501I0J-135000D01*
G01*
X226062500Y-68447501D01*
G75*
G02*
X225927500Y-68582501I-135000J0D01*
G01*
G37*
G36*
G01*
X192912500Y-65518000D02*
X193282500Y-65518000D01*
G75*
G02*
X193417500Y-65653000I0J-135000D01*
G01*
X193417500Y-65923000D01*
G75*
G02*
X193282500Y-66058000I-135000J0D01*
G01*
X192912500Y-66058000D01*
G75*
G02*
X192777500Y-65923000I0J135000D01*
G01*
X192777500Y-65653000D01*
G75*
G02*
X192912500Y-65518000I135000J0D01*
G01*
G37*
G36*
G01*
X192912500Y-64498000D02*
X193282500Y-64498000D01*
G75*
G02*
X193417500Y-64633000I0J-135000D01*
G01*
X193417500Y-64903000D01*
G75*
G02*
X193282500Y-65038000I-135000J0D01*
G01*
X192912500Y-65038000D01*
G75*
G02*
X192777500Y-64903000I0J135000D01*
G01*
X192777500Y-64633000D01*
G75*
G02*
X192912500Y-64498000I135000J0D01*
G01*
G37*
G36*
G01*
X191585000Y-65518000D02*
X191955000Y-65518000D01*
G75*
G02*
X192090000Y-65653000I0J-135000D01*
G01*
X192090000Y-65923000D01*
G75*
G02*
X191955000Y-66058000I-135000J0D01*
G01*
X191585000Y-66058000D01*
G75*
G02*
X191450000Y-65923000I0J135000D01*
G01*
X191450000Y-65653000D01*
G75*
G02*
X191585000Y-65518000I135000J0D01*
G01*
G37*
G36*
G01*
X191585000Y-64498000D02*
X191955000Y-64498000D01*
G75*
G02*
X192090000Y-64633000I0J-135000D01*
G01*
X192090000Y-64903000D01*
G75*
G02*
X191955000Y-65038000I-135000J0D01*
G01*
X191585000Y-65038000D01*
G75*
G02*
X191450000Y-64903000I0J135000D01*
G01*
X191450000Y-64633000D01*
G75*
G02*
X191585000Y-64498000I135000J0D01*
G01*
G37*
G36*
G01*
X190315000Y-65518000D02*
X190685000Y-65518000D01*
G75*
G02*
X190820000Y-65653000I0J-135000D01*
G01*
X190820000Y-65923000D01*
G75*
G02*
X190685000Y-66058000I-135000J0D01*
G01*
X190315000Y-66058000D01*
G75*
G02*
X190180000Y-65923000I0J135000D01*
G01*
X190180000Y-65653000D01*
G75*
G02*
X190315000Y-65518000I135000J0D01*
G01*
G37*
G36*
G01*
X190315000Y-64498000D02*
X190685000Y-64498000D01*
G75*
G02*
X190820000Y-64633000I0J-135000D01*
G01*
X190820000Y-64903000D01*
G75*
G02*
X190685000Y-65038000I-135000J0D01*
G01*
X190315000Y-65038000D01*
G75*
G02*
X190180000Y-64903000I0J135000D01*
G01*
X190180000Y-64633000D01*
G75*
G02*
X190315000Y-64498000I135000J0D01*
G01*
G37*
G36*
G01*
X188981500Y-65518000D02*
X189351500Y-65518000D01*
G75*
G02*
X189486500Y-65653000I0J-135000D01*
G01*
X189486500Y-65923000D01*
G75*
G02*
X189351500Y-66058000I-135000J0D01*
G01*
X188981500Y-66058000D01*
G75*
G02*
X188846500Y-65923000I0J135000D01*
G01*
X188846500Y-65653000D01*
G75*
G02*
X188981500Y-65518000I135000J0D01*
G01*
G37*
G36*
G01*
X188981500Y-64498000D02*
X189351500Y-64498000D01*
G75*
G02*
X189486500Y-64633000I0J-135000D01*
G01*
X189486500Y-64903000D01*
G75*
G02*
X189351500Y-65038000I-135000J0D01*
G01*
X188981500Y-65038000D01*
G75*
G02*
X188846500Y-64903000I0J135000D01*
G01*
X188846500Y-64633000D01*
G75*
G02*
X188981500Y-64498000I135000J0D01*
G01*
G37*
G36*
G01*
X187775000Y-65518000D02*
X188145000Y-65518000D01*
G75*
G02*
X188280000Y-65653000I0J-135000D01*
G01*
X188280000Y-65923000D01*
G75*
G02*
X188145000Y-66058000I-135000J0D01*
G01*
X187775000Y-66058000D01*
G75*
G02*
X187640000Y-65923000I0J135000D01*
G01*
X187640000Y-65653000D01*
G75*
G02*
X187775000Y-65518000I135000J0D01*
G01*
G37*
G36*
G01*
X187775000Y-64498000D02*
X188145000Y-64498000D01*
G75*
G02*
X188280000Y-64633000I0J-135000D01*
G01*
X188280000Y-64903000D01*
G75*
G02*
X188145000Y-65038000I-135000J0D01*
G01*
X187775000Y-65038000D01*
G75*
G02*
X187640000Y-64903000I0J135000D01*
G01*
X187640000Y-64633000D01*
G75*
G02*
X187775000Y-64498000I135000J0D01*
G01*
G37*
G36*
G01*
X186505000Y-65518000D02*
X186875000Y-65518000D01*
G75*
G02*
X187010000Y-65653000I0J-135000D01*
G01*
X187010000Y-65923000D01*
G75*
G02*
X186875000Y-66058000I-135000J0D01*
G01*
X186505000Y-66058000D01*
G75*
G02*
X186370000Y-65923000I0J135000D01*
G01*
X186370000Y-65653000D01*
G75*
G02*
X186505000Y-65518000I135000J0D01*
G01*
G37*
G36*
G01*
X186505000Y-64498000D02*
X186875000Y-64498000D01*
G75*
G02*
X187010000Y-64633000I0J-135000D01*
G01*
X187010000Y-64903000D01*
G75*
G02*
X186875000Y-65038000I-135000J0D01*
G01*
X186505000Y-65038000D01*
G75*
G02*
X186370000Y-64903000I0J135000D01*
G01*
X186370000Y-64633000D01*
G75*
G02*
X186505000Y-64498000I135000J0D01*
G01*
G37*
G36*
G01*
X185235000Y-65518000D02*
X185605000Y-65518000D01*
G75*
G02*
X185740000Y-65653000I0J-135000D01*
G01*
X185740000Y-65923000D01*
G75*
G02*
X185605000Y-66058000I-135000J0D01*
G01*
X185235000Y-66058000D01*
G75*
G02*
X185100000Y-65923000I0J135000D01*
G01*
X185100000Y-65653000D01*
G75*
G02*
X185235000Y-65518000I135000J0D01*
G01*
G37*
G36*
G01*
X185235000Y-64498000D02*
X185605000Y-64498000D01*
G75*
G02*
X185740000Y-64633000I0J-135000D01*
G01*
X185740000Y-64903000D01*
G75*
G02*
X185605000Y-65038000I-135000J0D01*
G01*
X185235000Y-65038000D01*
G75*
G02*
X185100000Y-64903000I0J135000D01*
G01*
X185100000Y-64633000D01*
G75*
G02*
X185235000Y-64498000I135000J0D01*
G01*
G37*
G36*
G01*
X183965000Y-65518000D02*
X184335000Y-65518000D01*
G75*
G02*
X184470000Y-65653000I0J-135000D01*
G01*
X184470000Y-65923000D01*
G75*
G02*
X184335000Y-66058000I-135000J0D01*
G01*
X183965000Y-66058000D01*
G75*
G02*
X183830000Y-65923000I0J135000D01*
G01*
X183830000Y-65653000D01*
G75*
G02*
X183965000Y-65518000I135000J0D01*
G01*
G37*
G36*
G01*
X183965000Y-64498000D02*
X184335000Y-64498000D01*
G75*
G02*
X184470000Y-64633000I0J-135000D01*
G01*
X184470000Y-64903000D01*
G75*
G02*
X184335000Y-65038000I-135000J0D01*
G01*
X183965000Y-65038000D01*
G75*
G02*
X183830000Y-64903000I0J135000D01*
G01*
X183830000Y-64633000D01*
G75*
G02*
X183965000Y-64498000I135000J0D01*
G01*
G37*
G36*
G01*
X182695000Y-65518000D02*
X183065000Y-65518000D01*
G75*
G02*
X183200000Y-65653000I0J-135000D01*
G01*
X183200000Y-65923000D01*
G75*
G02*
X183065000Y-66058000I-135000J0D01*
G01*
X182695000Y-66058000D01*
G75*
G02*
X182560000Y-65923000I0J135000D01*
G01*
X182560000Y-65653000D01*
G75*
G02*
X182695000Y-65518000I135000J0D01*
G01*
G37*
G36*
G01*
X182695000Y-64498000D02*
X183065000Y-64498000D01*
G75*
G02*
X183200000Y-64633000I0J-135000D01*
G01*
X183200000Y-64903000D01*
G75*
G02*
X183065000Y-65038000I-135000J0D01*
G01*
X182695000Y-65038000D01*
G75*
G02*
X182560000Y-64903000I0J135000D01*
G01*
X182560000Y-64633000D01*
G75*
G02*
X182695000Y-64498000I135000J0D01*
G01*
G37*
G36*
G01*
X216350000Y-65518000D02*
X216720000Y-65518000D01*
G75*
G02*
X216855000Y-65653000I0J-135000D01*
G01*
X216855000Y-65923000D01*
G75*
G02*
X216720000Y-66058000I-135000J0D01*
G01*
X216350000Y-66058000D01*
G75*
G02*
X216215000Y-65923000I0J135000D01*
G01*
X216215000Y-65653000D01*
G75*
G02*
X216350000Y-65518000I135000J0D01*
G01*
G37*
G36*
G01*
X216350000Y-64498000D02*
X216720000Y-64498000D01*
G75*
G02*
X216855000Y-64633000I0J-135000D01*
G01*
X216855000Y-64903000D01*
G75*
G02*
X216720000Y-65038000I-135000J0D01*
G01*
X216350000Y-65038000D01*
G75*
G02*
X216215000Y-64903000I0J135000D01*
G01*
X216215000Y-64633000D01*
G75*
G02*
X216350000Y-64498000I135000J0D01*
G01*
G37*
G36*
G01*
X215016500Y-65518000D02*
X215386500Y-65518000D01*
G75*
G02*
X215521500Y-65653000I0J-135000D01*
G01*
X215521500Y-65923000D01*
G75*
G02*
X215386500Y-66058000I-135000J0D01*
G01*
X215016500Y-66058000D01*
G75*
G02*
X214881500Y-65923000I0J135000D01*
G01*
X214881500Y-65653000D01*
G75*
G02*
X215016500Y-65518000I135000J0D01*
G01*
G37*
G36*
G01*
X215016500Y-64498000D02*
X215386500Y-64498000D01*
G75*
G02*
X215521500Y-64633000I0J-135000D01*
G01*
X215521500Y-64903000D01*
G75*
G02*
X215386500Y-65038000I-135000J0D01*
G01*
X215016500Y-65038000D01*
G75*
G02*
X214881500Y-64903000I0J135000D01*
G01*
X214881500Y-64633000D01*
G75*
G02*
X215016500Y-64498000I135000J0D01*
G01*
G37*
G36*
G01*
X213810000Y-65518000D02*
X214180000Y-65518000D01*
G75*
G02*
X214315000Y-65653000I0J-135000D01*
G01*
X214315000Y-65923000D01*
G75*
G02*
X214180000Y-66058000I-135000J0D01*
G01*
X213810000Y-66058000D01*
G75*
G02*
X213675000Y-65923000I0J135000D01*
G01*
X213675000Y-65653000D01*
G75*
G02*
X213810000Y-65518000I135000J0D01*
G01*
G37*
G36*
G01*
X213810000Y-64498000D02*
X214180000Y-64498000D01*
G75*
G02*
X214315000Y-64633000I0J-135000D01*
G01*
X214315000Y-64903000D01*
G75*
G02*
X214180000Y-65038000I-135000J0D01*
G01*
X213810000Y-65038000D01*
G75*
G02*
X213675000Y-64903000I0J135000D01*
G01*
X213675000Y-64633000D01*
G75*
G02*
X213810000Y-64498000I135000J0D01*
G01*
G37*
G36*
G01*
X212540000Y-65518000D02*
X212910000Y-65518000D01*
G75*
G02*
X213045000Y-65653000I0J-135000D01*
G01*
X213045000Y-65923000D01*
G75*
G02*
X212910000Y-66058000I-135000J0D01*
G01*
X212540000Y-66058000D01*
G75*
G02*
X212405000Y-65923000I0J135000D01*
G01*
X212405000Y-65653000D01*
G75*
G02*
X212540000Y-65518000I135000J0D01*
G01*
G37*
G36*
G01*
X212540000Y-64498000D02*
X212910000Y-64498000D01*
G75*
G02*
X213045000Y-64633000I0J-135000D01*
G01*
X213045000Y-64903000D01*
G75*
G02*
X212910000Y-65038000I-135000J0D01*
G01*
X212540000Y-65038000D01*
G75*
G02*
X212405000Y-64903000I0J135000D01*
G01*
X212405000Y-64633000D01*
G75*
G02*
X212540000Y-64498000I135000J0D01*
G01*
G37*
G36*
G01*
X211270000Y-65518000D02*
X211640000Y-65518000D01*
G75*
G02*
X211775000Y-65653000I0J-135000D01*
G01*
X211775000Y-65923000D01*
G75*
G02*
X211640000Y-66058000I-135000J0D01*
G01*
X211270000Y-66058000D01*
G75*
G02*
X211135000Y-65923000I0J135000D01*
G01*
X211135000Y-65653000D01*
G75*
G02*
X211270000Y-65518000I135000J0D01*
G01*
G37*
G36*
G01*
X211270000Y-64498000D02*
X211640000Y-64498000D01*
G75*
G02*
X211775000Y-64633000I0J-135000D01*
G01*
X211775000Y-64903000D01*
G75*
G02*
X211640000Y-65038000I-135000J0D01*
G01*
X211270000Y-65038000D01*
G75*
G02*
X211135000Y-64903000I0J135000D01*
G01*
X211135000Y-64633000D01*
G75*
G02*
X211270000Y-64498000I135000J0D01*
G01*
G37*
G36*
G01*
X229367500Y-65645000D02*
X229737500Y-65645000D01*
G75*
G02*
X229872500Y-65780000I0J-135000D01*
G01*
X229872500Y-66050000D01*
G75*
G02*
X229737500Y-66185000I-135000J0D01*
G01*
X229367500Y-66185000D01*
G75*
G02*
X229232500Y-66050000I0J135000D01*
G01*
X229232500Y-65780000D01*
G75*
G02*
X229367500Y-65645000I135000J0D01*
G01*
G37*
G36*
G01*
X229367500Y-64625000D02*
X229737500Y-64625000D01*
G75*
G02*
X229872500Y-64760000I0J-135000D01*
G01*
X229872500Y-65030000D01*
G75*
G02*
X229737500Y-65165000I-135000J0D01*
G01*
X229367500Y-65165000D01*
G75*
G02*
X229232500Y-65030000I0J135000D01*
G01*
X229232500Y-64760000D01*
G75*
G02*
X229367500Y-64625000I135000J0D01*
G01*
G37*
G36*
G01*
X228097500Y-65645000D02*
X228467500Y-65645000D01*
G75*
G02*
X228602500Y-65780000I0J-135000D01*
G01*
X228602500Y-66050000D01*
G75*
G02*
X228467500Y-66185000I-135000J0D01*
G01*
X228097500Y-66185000D01*
G75*
G02*
X227962500Y-66050000I0J135000D01*
G01*
X227962500Y-65780000D01*
G75*
G02*
X228097500Y-65645000I135000J0D01*
G01*
G37*
G36*
G01*
X228097500Y-64625000D02*
X228467500Y-64625000D01*
G75*
G02*
X228602500Y-64760000I0J-135000D01*
G01*
X228602500Y-65030000D01*
G75*
G02*
X228467500Y-65165000I-135000J0D01*
G01*
X228097500Y-65165000D01*
G75*
G02*
X227962500Y-65030000I0J135000D01*
G01*
X227962500Y-64760000D01*
G75*
G02*
X228097500Y-64625000I135000J0D01*
G01*
G37*
G36*
G01*
X226827500Y-65645000D02*
X227197500Y-65645000D01*
G75*
G02*
X227332500Y-65780000I0J-135000D01*
G01*
X227332500Y-66050000D01*
G75*
G02*
X227197500Y-66185000I-135000J0D01*
G01*
X226827500Y-66185000D01*
G75*
G02*
X226692500Y-66050000I0J135000D01*
G01*
X226692500Y-65780000D01*
G75*
G02*
X226827500Y-65645000I135000J0D01*
G01*
G37*
G36*
G01*
X226827500Y-64625000D02*
X227197500Y-64625000D01*
G75*
G02*
X227332500Y-64760000I0J-135000D01*
G01*
X227332500Y-65030000D01*
G75*
G02*
X227197500Y-65165000I-135000J0D01*
G01*
X226827500Y-65165000D01*
G75*
G02*
X226692500Y-65030000I0J135000D01*
G01*
X226692500Y-64760000D01*
G75*
G02*
X226827500Y-64625000I135000J0D01*
G01*
G37*
G36*
G01*
X225557500Y-65645000D02*
X225927500Y-65645000D01*
G75*
G02*
X226062500Y-65780000I0J-135000D01*
G01*
X226062500Y-66050000D01*
G75*
G02*
X225927500Y-66185000I-135000J0D01*
G01*
X225557500Y-66185000D01*
G75*
G02*
X225422500Y-66050000I0J135000D01*
G01*
X225422500Y-65780000D01*
G75*
G02*
X225557500Y-65645000I135000J0D01*
G01*
G37*
G36*
G01*
X225557500Y-64625000D02*
X225927500Y-64625000D01*
G75*
G02*
X226062500Y-64760000I0J-135000D01*
G01*
X226062500Y-65030000D01*
G75*
G02*
X225927500Y-65165000I-135000J0D01*
G01*
X225557500Y-65165000D01*
G75*
G02*
X225422500Y-65030000I0J135000D01*
G01*
X225422500Y-64760000D01*
G75*
G02*
X225557500Y-64625000I135000J0D01*
G01*
G37*
G36*
G01*
X194125000Y-50809000D02*
X194495000Y-50809000D01*
G75*
G02*
X194630000Y-50944000I0J-135000D01*
G01*
X194630000Y-51214000D01*
G75*
G02*
X194495000Y-51349000I-135000J0D01*
G01*
X194125000Y-51349000D01*
G75*
G02*
X193990000Y-51214000I0J135000D01*
G01*
X193990000Y-50944000D01*
G75*
G02*
X194125000Y-50809000I135000J0D01*
G01*
G37*
G36*
G01*
X194125000Y-49789000D02*
X194495000Y-49789000D01*
G75*
G02*
X194630000Y-49924000I0J-135000D01*
G01*
X194630000Y-50194000D01*
G75*
G02*
X194495000Y-50329000I-135000J0D01*
G01*
X194125000Y-50329000D01*
G75*
G02*
X193990000Y-50194000I0J135000D01*
G01*
X193990000Y-49924000D01*
G75*
G02*
X194125000Y-49789000I135000J0D01*
G01*
G37*
G36*
G01*
X192855000Y-50809000D02*
X193225000Y-50809000D01*
G75*
G02*
X193360000Y-50944000I0J-135000D01*
G01*
X193360000Y-51214000D01*
G75*
G02*
X193225000Y-51349000I-135000J0D01*
G01*
X192855000Y-51349000D01*
G75*
G02*
X192720000Y-51214000I0J135000D01*
G01*
X192720000Y-50944000D01*
G75*
G02*
X192855000Y-50809000I135000J0D01*
G01*
G37*
G36*
G01*
X192855000Y-49789000D02*
X193225000Y-49789000D01*
G75*
G02*
X193360000Y-49924000I0J-135000D01*
G01*
X193360000Y-50194000D01*
G75*
G02*
X193225000Y-50329000I-135000J0D01*
G01*
X192855000Y-50329000D01*
G75*
G02*
X192720000Y-50194000I0J135000D01*
G01*
X192720000Y-49924000D01*
G75*
G02*
X192855000Y-49789000I135000J0D01*
G01*
G37*
G36*
G01*
X191585000Y-50809000D02*
X191955000Y-50809000D01*
G75*
G02*
X192090000Y-50944000I0J-135000D01*
G01*
X192090000Y-51214000D01*
G75*
G02*
X191955000Y-51349000I-135000J0D01*
G01*
X191585000Y-51349000D01*
G75*
G02*
X191450000Y-51214000I0J135000D01*
G01*
X191450000Y-50944000D01*
G75*
G02*
X191585000Y-50809000I135000J0D01*
G01*
G37*
G36*
G01*
X191585000Y-49789000D02*
X191955000Y-49789000D01*
G75*
G02*
X192090000Y-49924000I0J-135000D01*
G01*
X192090000Y-50194000D01*
G75*
G02*
X191955000Y-50329000I-135000J0D01*
G01*
X191585000Y-50329000D01*
G75*
G02*
X191450000Y-50194000I0J135000D01*
G01*
X191450000Y-49924000D01*
G75*
G02*
X191585000Y-49789000I135000J0D01*
G01*
G37*
G36*
G01*
X190315000Y-50809000D02*
X190685000Y-50809000D01*
G75*
G02*
X190820000Y-50944000I0J-135000D01*
G01*
X190820000Y-51214000D01*
G75*
G02*
X190685000Y-51349000I-135000J0D01*
G01*
X190315000Y-51349000D01*
G75*
G02*
X190180000Y-51214000I0J135000D01*
G01*
X190180000Y-50944000D01*
G75*
G02*
X190315000Y-50809000I135000J0D01*
G01*
G37*
G36*
G01*
X190315000Y-49789000D02*
X190685000Y-49789000D01*
G75*
G02*
X190820000Y-49924000I0J-135000D01*
G01*
X190820000Y-50194000D01*
G75*
G02*
X190685000Y-50329000I-135000J0D01*
G01*
X190315000Y-50329000D01*
G75*
G02*
X190180000Y-50194000I0J135000D01*
G01*
X190180000Y-49924000D01*
G75*
G02*
X190315000Y-49789000I135000J0D01*
G01*
G37*
G36*
G01*
X189045000Y-50809000D02*
X189415000Y-50809000D01*
G75*
G02*
X189550000Y-50944000I0J-135000D01*
G01*
X189550000Y-51214000D01*
G75*
G02*
X189415000Y-51349000I-135000J0D01*
G01*
X189045000Y-51349000D01*
G75*
G02*
X188910000Y-51214000I0J135000D01*
G01*
X188910000Y-50944000D01*
G75*
G02*
X189045000Y-50809000I135000J0D01*
G01*
G37*
G36*
G01*
X189045000Y-49789000D02*
X189415000Y-49789000D01*
G75*
G02*
X189550000Y-49924000I0J-135000D01*
G01*
X189550000Y-50194000D01*
G75*
G02*
X189415000Y-50329000I-135000J0D01*
G01*
X189045000Y-50329000D01*
G75*
G02*
X188910000Y-50194000I0J135000D01*
G01*
X188910000Y-49924000D01*
G75*
G02*
X189045000Y-49789000I135000J0D01*
G01*
G37*
G36*
G01*
X187775000Y-50809000D02*
X188145000Y-50809000D01*
G75*
G02*
X188280000Y-50944000I0J-135000D01*
G01*
X188280000Y-51214000D01*
G75*
G02*
X188145000Y-51349000I-135000J0D01*
G01*
X187775000Y-51349000D01*
G75*
G02*
X187640000Y-51214000I0J135000D01*
G01*
X187640000Y-50944000D01*
G75*
G02*
X187775000Y-50809000I135000J0D01*
G01*
G37*
G36*
G01*
X187775000Y-49789000D02*
X188145000Y-49789000D01*
G75*
G02*
X188280000Y-49924000I0J-135000D01*
G01*
X188280000Y-50194000D01*
G75*
G02*
X188145000Y-50329000I-135000J0D01*
G01*
X187775000Y-50329000D01*
G75*
G02*
X187640000Y-50194000I0J135000D01*
G01*
X187640000Y-49924000D01*
G75*
G02*
X187775000Y-49789000I135000J0D01*
G01*
G37*
G36*
G01*
X186505000Y-50809000D02*
X186875000Y-50809000D01*
G75*
G02*
X187010000Y-50944000I0J-135000D01*
G01*
X187010000Y-51214000D01*
G75*
G02*
X186875000Y-51349000I-135000J0D01*
G01*
X186505000Y-51349000D01*
G75*
G02*
X186370000Y-51214000I0J135000D01*
G01*
X186370000Y-50944000D01*
G75*
G02*
X186505000Y-50809000I135000J0D01*
G01*
G37*
G36*
G01*
X186505000Y-49789000D02*
X186875000Y-49789000D01*
G75*
G02*
X187010000Y-49924000I0J-135000D01*
G01*
X187010000Y-50194000D01*
G75*
G02*
X186875000Y-50329000I-135000J0D01*
G01*
X186505000Y-50329000D01*
G75*
G02*
X186370000Y-50194000I0J135000D01*
G01*
X186370000Y-49924000D01*
G75*
G02*
X186505000Y-49789000I135000J0D01*
G01*
G37*
G36*
G01*
X185235000Y-50809000D02*
X185605000Y-50809000D01*
G75*
G02*
X185740000Y-50944000I0J-135000D01*
G01*
X185740000Y-51214000D01*
G75*
G02*
X185605000Y-51349000I-135000J0D01*
G01*
X185235000Y-51349000D01*
G75*
G02*
X185100000Y-51214000I0J135000D01*
G01*
X185100000Y-50944000D01*
G75*
G02*
X185235000Y-50809000I135000J0D01*
G01*
G37*
G36*
G01*
X185235000Y-49789000D02*
X185605000Y-49789000D01*
G75*
G02*
X185740000Y-49924000I0J-135000D01*
G01*
X185740000Y-50194000D01*
G75*
G02*
X185605000Y-50329000I-135000J0D01*
G01*
X185235000Y-50329000D01*
G75*
G02*
X185100000Y-50194000I0J135000D01*
G01*
X185100000Y-49924000D01*
G75*
G02*
X185235000Y-49789000I135000J0D01*
G01*
G37*
G36*
G01*
X183965000Y-50809000D02*
X184335000Y-50809000D01*
G75*
G02*
X184470000Y-50944000I0J-135000D01*
G01*
X184470000Y-51214000D01*
G75*
G02*
X184335000Y-51349000I-135000J0D01*
G01*
X183965000Y-51349000D01*
G75*
G02*
X183830000Y-51214000I0J135000D01*
G01*
X183830000Y-50944000D01*
G75*
G02*
X183965000Y-50809000I135000J0D01*
G01*
G37*
G36*
G01*
X183965000Y-49789000D02*
X184335000Y-49789000D01*
G75*
G02*
X184470000Y-49924000I0J-135000D01*
G01*
X184470000Y-50194000D01*
G75*
G02*
X184335000Y-50329000I-135000J0D01*
G01*
X183965000Y-50329000D01*
G75*
G02*
X183830000Y-50194000I0J135000D01*
G01*
X183830000Y-49924000D01*
G75*
G02*
X183965000Y-49789000I135000J0D01*
G01*
G37*
G36*
G01*
X217620000Y-50809000D02*
X217990000Y-50809000D01*
G75*
G02*
X218125000Y-50944000I0J-135000D01*
G01*
X218125000Y-51214000D01*
G75*
G02*
X217990000Y-51349000I-135000J0D01*
G01*
X217620000Y-51349000D01*
G75*
G02*
X217485000Y-51214000I0J135000D01*
G01*
X217485000Y-50944000D01*
G75*
G02*
X217620000Y-50809000I135000J0D01*
G01*
G37*
G36*
G01*
X217620000Y-49789000D02*
X217990000Y-49789000D01*
G75*
G02*
X218125000Y-49924000I0J-135000D01*
G01*
X218125000Y-50194000D01*
G75*
G02*
X217990000Y-50329000I-135000J0D01*
G01*
X217620000Y-50329000D01*
G75*
G02*
X217485000Y-50194000I0J135000D01*
G01*
X217485000Y-49924000D01*
G75*
G02*
X217620000Y-49789000I135000J0D01*
G01*
G37*
G36*
G01*
X216350000Y-50809000D02*
X216720000Y-50809000D01*
G75*
G02*
X216855000Y-50944000I0J-135000D01*
G01*
X216855000Y-51214000D01*
G75*
G02*
X216720000Y-51349000I-135000J0D01*
G01*
X216350000Y-51349000D01*
G75*
G02*
X216215000Y-51214000I0J135000D01*
G01*
X216215000Y-50944000D01*
G75*
G02*
X216350000Y-50809000I135000J0D01*
G01*
G37*
G36*
G01*
X216350000Y-49789000D02*
X216720000Y-49789000D01*
G75*
G02*
X216855000Y-49924000I0J-135000D01*
G01*
X216855000Y-50194000D01*
G75*
G02*
X216720000Y-50329000I-135000J0D01*
G01*
X216350000Y-50329000D01*
G75*
G02*
X216215000Y-50194000I0J135000D01*
G01*
X216215000Y-49924000D01*
G75*
G02*
X216350000Y-49789000I135000J0D01*
G01*
G37*
G36*
G01*
X215080000Y-50809000D02*
X215450000Y-50809000D01*
G75*
G02*
X215585000Y-50944000I0J-135000D01*
G01*
X215585000Y-51214000D01*
G75*
G02*
X215450000Y-51349000I-135000J0D01*
G01*
X215080000Y-51349000D01*
G75*
G02*
X214945000Y-51214000I0J135000D01*
G01*
X214945000Y-50944000D01*
G75*
G02*
X215080000Y-50809000I135000J0D01*
G01*
G37*
G36*
G01*
X215080000Y-49789000D02*
X215450000Y-49789000D01*
G75*
G02*
X215585000Y-49924000I0J-135000D01*
G01*
X215585000Y-50194000D01*
G75*
G02*
X215450000Y-50329000I-135000J0D01*
G01*
X215080000Y-50329000D01*
G75*
G02*
X214945000Y-50194000I0J135000D01*
G01*
X214945000Y-49924000D01*
G75*
G02*
X215080000Y-49789000I135000J0D01*
G01*
G37*
G36*
G01*
X213810000Y-50809000D02*
X214180000Y-50809000D01*
G75*
G02*
X214315000Y-50944000I0J-135000D01*
G01*
X214315000Y-51214000D01*
G75*
G02*
X214180000Y-51349000I-135000J0D01*
G01*
X213810000Y-51349000D01*
G75*
G02*
X213675000Y-51214000I0J135000D01*
G01*
X213675000Y-50944000D01*
G75*
G02*
X213810000Y-50809000I135000J0D01*
G01*
G37*
G36*
G01*
X213810000Y-49789000D02*
X214180000Y-49789000D01*
G75*
G02*
X214315000Y-49924000I0J-135000D01*
G01*
X214315000Y-50194000D01*
G75*
G02*
X214180000Y-50329000I-135000J0D01*
G01*
X213810000Y-50329000D01*
G75*
G02*
X213675000Y-50194000I0J135000D01*
G01*
X213675000Y-49924000D01*
G75*
G02*
X213810000Y-49789000I135000J0D01*
G01*
G37*
G36*
G01*
X212540000Y-50809000D02*
X212910000Y-50809000D01*
G75*
G02*
X213045000Y-50944000I0J-135000D01*
G01*
X213045000Y-51214000D01*
G75*
G02*
X212910000Y-51349000I-135000J0D01*
G01*
X212540000Y-51349000D01*
G75*
G02*
X212405000Y-51214000I0J135000D01*
G01*
X212405000Y-50944000D01*
G75*
G02*
X212540000Y-50809000I135000J0D01*
G01*
G37*
G36*
G01*
X212540000Y-49789000D02*
X212910000Y-49789000D01*
G75*
G02*
X213045000Y-49924000I0J-135000D01*
G01*
X213045000Y-50194000D01*
G75*
G02*
X212910000Y-50329000I-135000J0D01*
G01*
X212540000Y-50329000D01*
G75*
G02*
X212405000Y-50194000I0J135000D01*
G01*
X212405000Y-49924000D01*
G75*
G02*
X212540000Y-49789000I135000J0D01*
G01*
G37*
G36*
G01*
X230637500Y-50809000D02*
X231007500Y-50809000D01*
G75*
G02*
X231142500Y-50944000I0J-135000D01*
G01*
X231142500Y-51214000D01*
G75*
G02*
X231007500Y-51349000I-135000J0D01*
G01*
X230637500Y-51349000D01*
G75*
G02*
X230502500Y-51214000I0J135000D01*
G01*
X230502500Y-50944000D01*
G75*
G02*
X230637500Y-50809000I135000J0D01*
G01*
G37*
G36*
G01*
X230637500Y-49789000D02*
X231007500Y-49789000D01*
G75*
G02*
X231142500Y-49924000I0J-135000D01*
G01*
X231142500Y-50194000D01*
G75*
G02*
X231007500Y-50329000I-135000J0D01*
G01*
X230637500Y-50329000D01*
G75*
G02*
X230502500Y-50194000I0J135000D01*
G01*
X230502500Y-49924000D01*
G75*
G02*
X230637500Y-49789000I135000J0D01*
G01*
G37*
G36*
G01*
X229367500Y-50809000D02*
X229737500Y-50809000D01*
G75*
G02*
X229872500Y-50944000I0J-135000D01*
G01*
X229872500Y-51214000D01*
G75*
G02*
X229737500Y-51349000I-135000J0D01*
G01*
X229367500Y-51349000D01*
G75*
G02*
X229232500Y-51214000I0J135000D01*
G01*
X229232500Y-50944000D01*
G75*
G02*
X229367500Y-50809000I135000J0D01*
G01*
G37*
G36*
G01*
X229367500Y-49789000D02*
X229737500Y-49789000D01*
G75*
G02*
X229872500Y-49924000I0J-135000D01*
G01*
X229872500Y-50194000D01*
G75*
G02*
X229737500Y-50329000I-135000J0D01*
G01*
X229367500Y-50329000D01*
G75*
G02*
X229232500Y-50194000I0J135000D01*
G01*
X229232500Y-49924000D01*
G75*
G02*
X229367500Y-49789000I135000J0D01*
G01*
G37*
G36*
G01*
X228097500Y-50809000D02*
X228467500Y-50809000D01*
G75*
G02*
X228602500Y-50944000I0J-135000D01*
G01*
X228602500Y-51214000D01*
G75*
G02*
X228467500Y-51349000I-135000J0D01*
G01*
X228097500Y-51349000D01*
G75*
G02*
X227962500Y-51214000I0J135000D01*
G01*
X227962500Y-50944000D01*
G75*
G02*
X228097500Y-50809000I135000J0D01*
G01*
G37*
G36*
G01*
X228097500Y-49789000D02*
X228467500Y-49789000D01*
G75*
G02*
X228602500Y-49924000I0J-135000D01*
G01*
X228602500Y-50194000D01*
G75*
G02*
X228467500Y-50329000I-135000J0D01*
G01*
X228097500Y-50329000D01*
G75*
G02*
X227962500Y-50194000I0J135000D01*
G01*
X227962500Y-49924000D01*
G75*
G02*
X228097500Y-49789000I135000J0D01*
G01*
G37*
G36*
G01*
X226827500Y-50809000D02*
X227197500Y-50809000D01*
G75*
G02*
X227332500Y-50944000I0J-135000D01*
G01*
X227332500Y-51214000D01*
G75*
G02*
X227197500Y-51349000I-135000J0D01*
G01*
X226827500Y-51349000D01*
G75*
G02*
X226692500Y-51214000I0J135000D01*
G01*
X226692500Y-50944000D01*
G75*
G02*
X226827500Y-50809000I135000J0D01*
G01*
G37*
G36*
G01*
X226827500Y-49789000D02*
X227197500Y-49789000D01*
G75*
G02*
X227332500Y-49924000I0J-135000D01*
G01*
X227332500Y-50194000D01*
G75*
G02*
X227197500Y-50329000I-135000J0D01*
G01*
X226827500Y-50329000D01*
G75*
G02*
X226692500Y-50194000I0J135000D01*
G01*
X226692500Y-49924000D01*
G75*
G02*
X226827500Y-49789000I135000J0D01*
G01*
G37*
D12*
X237426500Y-80454500D03*
X237426500Y-82994500D03*
X234886500Y-80454500D03*
X234886500Y-82994500D03*
X232346500Y-80454500D03*
X232346500Y-82994500D03*
X229806500Y-80454500D03*
X229806500Y-82994500D03*
X227266500Y-80454500D03*
X227266500Y-82994500D03*
X224726500Y-80454500D03*
X224726500Y-82994500D03*
X222186500Y-80454500D03*
X222186500Y-82994500D03*
X219646500Y-80454500D03*
X219646500Y-82994500D03*
X217106500Y-80454500D03*
X217106500Y-82994500D03*
X214566500Y-80454500D03*
X214566500Y-82994500D03*
X212026500Y-80454500D03*
X212026500Y-82994500D03*
X209486500Y-80454500D03*
X209486500Y-82994500D03*
X206946500Y-80454500D03*
X206946500Y-82994500D03*
X204406500Y-80454500D03*
X204406500Y-82994500D03*
X201866500Y-80454500D03*
X201866500Y-82994500D03*
X199326500Y-80454500D03*
X199326500Y-82994500D03*
X196786500Y-80454500D03*
X196786500Y-82994500D03*
X194246500Y-80454500D03*
X194246500Y-82994500D03*
X191706500Y-80454500D03*
X191706500Y-82994500D03*
X189166500Y-80454500D03*
X189166500Y-82994500D03*
X186626500Y-80454500D03*
X186626500Y-82994500D03*
X184086500Y-80454500D03*
X184086500Y-82994500D03*
X181546500Y-80454500D03*
X181546500Y-82994500D03*
X179006500Y-80454500D03*
X179006500Y-82994500D03*
X176466500Y-80454500D03*
D13*
X176466500Y-82994500D03*
D18*
X218313000Y-62510000D03*
X217043000Y-62510000D03*
X215773000Y-62510000D03*
X214503000Y-62510000D03*
X213233000Y-62510000D03*
X211963000Y-62510000D03*
X210693000Y-62510000D03*
X209423000Y-62510000D03*
X208153000Y-62510000D03*
X206883000Y-62510000D03*
X206883000Y-53060000D03*
X208153000Y-53060000D03*
X209423000Y-53060000D03*
X210693000Y-53060000D03*
X211963000Y-53060000D03*
X213233000Y-53060000D03*
X214503000Y-53060000D03*
X215773000Y-53060000D03*
X217043000Y-53060000D03*
X218313000Y-53060000D03*
D19*
X234905000Y-65035000D03*
X234905000Y-57885000D03*
X238355000Y-57885000D03*
X238355000Y-65035000D03*
D20*
X235405000Y-60160000D03*
X235405000Y-60810000D03*
X235405000Y-61460000D03*
X235405000Y-62110000D03*
X235405000Y-62760000D03*
D18*
X231267000Y-62510000D03*
X229997000Y-62510000D03*
X228727000Y-62510000D03*
X227457000Y-62510000D03*
X226187000Y-62510000D03*
X224917000Y-62510000D03*
X223647000Y-62510000D03*
X222377000Y-62510000D03*
X221107000Y-62510000D03*
X219837000Y-62510000D03*
X219837000Y-53060000D03*
X221107000Y-53060000D03*
X222377000Y-53060000D03*
X223647000Y-53060000D03*
X224917000Y-53060000D03*
X226187000Y-53060000D03*
X227457000Y-53060000D03*
X228727000Y-53060000D03*
X229997000Y-53060000D03*
X231267000Y-53060000D03*
X180975000Y-53060000D03*
X182245000Y-53060000D03*
X183515000Y-53060000D03*
X184785000Y-53060000D03*
X186055000Y-53060000D03*
X187325000Y-53060000D03*
X188595000Y-53060000D03*
X189865000Y-53060000D03*
X191135000Y-53060000D03*
X192405000Y-53060000D03*
X192405000Y-62510000D03*
X191135000Y-62510000D03*
X189865000Y-62510000D03*
X188595000Y-62510000D03*
X187325000Y-62510000D03*
X186055000Y-62510000D03*
X184785000Y-62510000D03*
X183515000Y-62510000D03*
X182245000Y-62510000D03*
X180975000Y-62510000D03*
X193929000Y-53060000D03*
X195199000Y-53060000D03*
X196469000Y-53060000D03*
X197739000Y-53060000D03*
X199009000Y-53060000D03*
X200279000Y-53060000D03*
X201549000Y-53060000D03*
X202819000Y-53060000D03*
X204089000Y-53060000D03*
X205359000Y-53060000D03*
X205359000Y-62510000D03*
X204089000Y-62510000D03*
X202819000Y-62510000D03*
X201549000Y-62510000D03*
X200279000Y-62510000D03*
X199009000Y-62510000D03*
X197739000Y-62510000D03*
X196469000Y-62510000D03*
X195199000Y-62510000D03*
X193929000Y-62510000D03*
D21*
X222694500Y-67820000D03*
X222694500Y-65020000D03*
D12*
X233426000Y-51943000D03*
D13*
X233426000Y-54483000D03*
D12*
X179120000Y-50520000D03*
D13*
X176580000Y-50520000D03*
G36*
G01*
X220398500Y-65649000D02*
X219148500Y-65649000D01*
G75*
G02*
X218898500Y-65399000I0J250000D01*
G01*
X218898500Y-64649000D01*
G75*
G02*
X219148500Y-64399000I250000J0D01*
G01*
X220398500Y-64399000D01*
G75*
G02*
X220648500Y-64649000I0J-250000D01*
G01*
X220648500Y-65399000D01*
G75*
G02*
X220398500Y-65649000I-250000J0D01*
G01*
G37*
G36*
G01*
X220398500Y-68449000D02*
X219148500Y-68449000D01*
G75*
G02*
X218898500Y-68199000I0J250000D01*
G01*
X218898500Y-67449000D01*
G75*
G02*
X219148500Y-67199000I250000J0D01*
G01*
X220398500Y-67199000D01*
G75*
G02*
X220648500Y-67449000I0J-250000D01*
G01*
X220648500Y-68199000D01*
G75*
G02*
X220398500Y-68449000I-250000J0D01*
G01*
G37*
D12*
X231130000Y-44730000D03*
X231130000Y-47270000D03*
X228590000Y-44730000D03*
X228590000Y-47270000D03*
X226050000Y-44730000D03*
X226050000Y-47270000D03*
X223510000Y-44730000D03*
X223510000Y-47270000D03*
X220970000Y-44730000D03*
X220970000Y-47270000D03*
X218430000Y-44730000D03*
X218430000Y-47270000D03*
X215890000Y-44730000D03*
X215890000Y-47270000D03*
X213350000Y-44730000D03*
X213350000Y-47270000D03*
X210810000Y-44730000D03*
X210810000Y-47270000D03*
X208270000Y-44730000D03*
X208270000Y-47270000D03*
X205730000Y-44730000D03*
X205730000Y-47270000D03*
X203190000Y-44730000D03*
X203190000Y-47270000D03*
X200650000Y-44730000D03*
X200650000Y-47270000D03*
X198110000Y-44730000D03*
X198110000Y-47270000D03*
X195570000Y-44730000D03*
X195570000Y-47270000D03*
X193030000Y-44730000D03*
X193030000Y-47270000D03*
X190490000Y-44730000D03*
X190490000Y-47270000D03*
X187950000Y-44730000D03*
X187950000Y-47270000D03*
X185410000Y-44730000D03*
X185410000Y-47270000D03*
X182870000Y-44730000D03*
D13*
X182870000Y-47270000D03*
D22*
X237431891Y-44568109D03*
X236000000Y-43975000D03*
X234568109Y-44568109D03*
X233975000Y-46000000D03*
X234568109Y-47431891D03*
X236000000Y-48025000D03*
X237431891Y-47431891D03*
X238025000Y-46000000D03*
D23*
X236000000Y-46000000D03*
D22*
X179431891Y-44568109D03*
X178000000Y-43975000D03*
X176568109Y-44568109D03*
X175975000Y-46000000D03*
X176568109Y-47431891D03*
X178000000Y-48025000D03*
X179431891Y-47431891D03*
X180025000Y-46000000D03*
D23*
X178000000Y-46000000D03*
D12*
X178010000Y-53620000D03*
X178010000Y-56160000D03*
X178010000Y-58700000D03*
X178010000Y-61240000D03*
D13*
X178010000Y-63780000D03*
D22*
X237431891Y-93568109D03*
X236000000Y-92975000D03*
X234568109Y-93568109D03*
X233975000Y-95000000D03*
X234568109Y-96431891D03*
X236000000Y-97025000D03*
X237431891Y-96431891D03*
X238025000Y-95000000D03*
D23*
X236000000Y-95000000D03*
D22*
X179431891Y-93568109D03*
X178000000Y-92975000D03*
X176568109Y-93568109D03*
X175975000Y-95000000D03*
X176568109Y-96431891D03*
X178000000Y-97025000D03*
X179431891Y-96431891D03*
X180025000Y-95000000D03*
D23*
X178000000Y-95000000D03*
D22*
X237431891Y-67568109D03*
X236000000Y-66975000D03*
X234568109Y-67568109D03*
X233975000Y-69000000D03*
X234568109Y-70431891D03*
X236000000Y-71025000D03*
X237431891Y-70431891D03*
X238025000Y-69000000D03*
D23*
X236000000Y-69000000D03*
D22*
X179431891Y-67568109D03*
X178000000Y-66975000D03*
X176568109Y-67568109D03*
X175975000Y-69000000D03*
X176568109Y-70431891D03*
X178000000Y-71025000D03*
X179431891Y-70431891D03*
X180025000Y-69000000D03*
D23*
X178000000Y-69000000D03*
G36*
G01*
X235579500Y-72505250D02*
X235579500Y-73417750D01*
G75*
G02*
X235335750Y-73661500I-243750J0D01*
G01*
X234848250Y-73661500D01*
G75*
G02*
X234604500Y-73417750I0J243750D01*
G01*
X234604500Y-72505250D01*
G75*
G02*
X234848250Y-72261500I243750J0D01*
G01*
X235335750Y-72261500D01*
G75*
G02*
X235579500Y-72505250I0J-243750D01*
G01*
G37*
G36*
G01*
X237454500Y-72505250D02*
X237454500Y-73417750D01*
G75*
G02*
X237210750Y-73661500I-243750J0D01*
G01*
X236723250Y-73661500D01*
G75*
G02*
X236479500Y-73417750I0J243750D01*
G01*
X236479500Y-72505250D01*
G75*
G02*
X236723250Y-72261500I243750J0D01*
G01*
X237210750Y-72261500D01*
G75*
G02*
X237454500Y-72505250I0J-243750D01*
G01*
G37*
G36*
G01*
X235579500Y-74410250D02*
X235579500Y-75322750D01*
G75*
G02*
X235335750Y-75566500I-243750J0D01*
G01*
X234848250Y-75566500D01*
G75*
G02*
X234604500Y-75322750I0J243750D01*
G01*
X234604500Y-74410250D01*
G75*
G02*
X234848250Y-74166500I243750J0D01*
G01*
X235335750Y-74166500D01*
G75*
G02*
X235579500Y-74410250I0J-243750D01*
G01*
G37*
G36*
G01*
X237454500Y-74410250D02*
X237454500Y-75322750D01*
G75*
G02*
X237210750Y-75566500I-243750J0D01*
G01*
X236723250Y-75566500D01*
G75*
G02*
X236479500Y-75322750I0J243750D01*
G01*
X236479500Y-74410250D01*
G75*
G02*
X236723250Y-74166500I243750J0D01*
G01*
X237210750Y-74166500D01*
G75*
G02*
X237454500Y-74410250I0J-243750D01*
G01*
G37*
G36*
G01*
X236341500Y-53899750D02*
X236341500Y-54812250D01*
G75*
G02*
X236097750Y-55056000I-243750J0D01*
G01*
X235610250Y-55056000D01*
G75*
G02*
X235366500Y-54812250I0J243750D01*
G01*
X235366500Y-53899750D01*
G75*
G02*
X235610250Y-53656000I243750J0D01*
G01*
X236097750Y-53656000D01*
G75*
G02*
X236341500Y-53899750I0J-243750D01*
G01*
G37*
G36*
G01*
X238216500Y-53899750D02*
X238216500Y-54812250D01*
G75*
G02*
X237972750Y-55056000I-243750J0D01*
G01*
X237485250Y-55056000D01*
G75*
G02*
X237241500Y-54812250I0J243750D01*
G01*
X237241500Y-53899750D01*
G75*
G02*
X237485250Y-53656000I243750J0D01*
G01*
X237972750Y-53656000D01*
G75*
G02*
X238216500Y-53899750I0J-243750D01*
G01*
G37*
G36*
G01*
X236453500Y-49962750D02*
X236453500Y-50875250D01*
G75*
G02*
X236209750Y-51119000I-243750J0D01*
G01*
X235722250Y-51119000D01*
G75*
G02*
X235478500Y-50875250I0J243750D01*
G01*
X235478500Y-49962750D01*
G75*
G02*
X235722250Y-49719000I243750J0D01*
G01*
X236209750Y-49719000D01*
G75*
G02*
X236453500Y-49962750I0J-243750D01*
G01*
G37*
G36*
G01*
X238328500Y-49962750D02*
X238328500Y-50875250D01*
G75*
G02*
X238084750Y-51119000I-243750J0D01*
G01*
X237597250Y-51119000D01*
G75*
G02*
X237353500Y-50875250I0J243750D01*
G01*
X237353500Y-49962750D01*
G75*
G02*
X237597250Y-49719000I243750J0D01*
G01*
X238084750Y-49719000D01*
G75*
G02*
X238328500Y-49962750I0J-243750D01*
G01*
G37*
D24*
X224216500Y-70421500D03*
X224216500Y-71691500D03*
X231840500Y-71691500D03*
X231840500Y-70421500D03*
M02*
