M48
INCH,TZ
T1C0.0098
T2C0.0157
T3C0.0197
T4C0.0315
T5C0.0394
T6C0.0406
T7C0.0472
T8C0.0523
T9C0.1063
T10C0.1272
%
G90
G05
T1
X69175Y-30550
X70071Y-33181
X70179Y-30550
X70594Y-25630
X70825Y-21238
X71091Y-33201
X71461Y-25394
X71650Y-22300
X71651Y-28112
X71728Y-23252
X71736Y-27717
X71971Y-22626
X72000Y-25225
X72097Y-27075
X72127Y-33111
X72222Y-19817
X72248Y-28701
X72358Y-21638
X72378Y-23241
X72500Y-25225
X72500Y-27075
X72602Y-23858
X72755Y-19900
X73000Y-25225
X73000Y-27075
X73130Y-18091
X73186Y-33063
X73192Y-30550
X73200Y-19950
X73434Y-30006
X73500Y-25225
X73500Y-27075
X73519Y-19412
X73546Y-19167
X73725Y-19925
X74000Y-25225
X74000Y-27075
X74067Y-32934
X74100Y-29623
X74196Y-30550
X74204Y-29329
X74250Y-19900
X74311Y-23008
X74325Y-29811
X74475Y-25225
X74500Y-27075
X74656Y-29999
X74716Y-19004
X74725Y-19925
X74734Y-35406
X74779Y-27399
X74920Y-19453
X75000Y-25225
X75000Y-27075
X75031Y-33028
X75050Y-29082
X75121Y-28823
X75200Y-30748
X75225Y-19950
X75387Y-27399
X75500Y-25225
X75500Y-27075
X75509Y-28374
X75520Y-24110
X75691Y-20274
X75747Y-19550
X76028Y-25225
X76028Y-27071
X76214Y-30834
X76217Y-31190
X76233Y-35155
X76234Y-36006
X76248Y-19906
X76339Y-23941
X76406Y-23181
X76485Y-18964
X76711Y-34078
X76748Y-19530
X76815Y-36239
X76840Y-32216
X76846Y-20638
X76854Y-21772
X76924Y-27575
X77091Y-22244
X77130Y-20362
X77130Y-21547
X77221Y-30748
X77234Y-36306
X77445Y-30354
X77445Y-33163
X77499Y-27575
X77514Y-34940
X77834Y-33287
X77850Y-21475
X78074Y-27575
X78142Y-33406
X78225Y-35945
X78264Y-19937
X78311Y-30748
X78580Y-36029
X78630Y-33369
X78649Y-27575
X78834Y-34906
X78850Y-21500
X79223Y-30748
X79776Y-33834
X79800Y-27575
X79811Y-33329
X79848Y-19651
X79903Y-34875
X79966Y-21881
X80022Y-19826
X80281Y-35792
X80375Y-27575
X80441Y-33384
X80496Y-19438
X80620Y-21881
X80795Y-33384
X80839Y-20209
X80950Y-27575
X81225Y-30748
X81525Y-27575
X81724Y-21406
X82034Y-33206
X82100Y-27575
X82103Y-19748
X82208Y-34940
X82349Y-19769
X82361Y-23308
X82434Y-36402
X82455Y-33249
X82497Y-19282
X82530Y-30748
X82551Y-33938
X82594Y-35833
X82675Y-27575
X82705Y-19854
X82717Y-21406
X82996Y-32157
X83000Y-19639
X83223Y-33262
X83246Y-33810
X83250Y-25225
X83250Y-27075
X83250Y-27575
X83350Y-20200
X83392Y-30748
X83520Y-30352
X83634Y-35062
X83750Y-25225
X83750Y-27075
X83863Y-33657
X83924Y-30174
X84025Y-19945
X84181Y-27575
X84250Y-25225
X84250Y-27075
X84250Y-30139
X84525Y-19950
X84725Y-25225
X84734Y-35206
X84750Y-27075
X84882Y-30055
X84934Y-36006
X84937Y-33213
X85081Y-20301
X85132Y-30233
X85146Y-21638
X85250Y-25225
X85250Y-27075
X85508Y-19913
X85508Y-29638
X85598Y-21488
X85622Y-27575
X85734Y-35006
X85800Y-31025
X85942Y-20373
X85975Y-29775
X86011Y-32953
X86100Y-27575
X86313Y-33287
X86429Y-21575
X86450Y-19491
X86573Y-27575
X86825Y-21700
X86839Y-33223
X86980Y-33760
X87045Y-27575
X87177Y-26303
X87276Y-19530
X87325Y-21600
X87518Y-27575
X87543Y-20031
X87802Y-33240
X88069Y-29930
X88078Y-19530
X88234Y-31006
X88300Y-25350
X88346Y-26339
X88371Y-19100
X88433Y-33549
X88551Y-20012
X88577Y-18850
X88692Y-19290
X88795Y-19050
X88859Y-32196
X88862Y-31008
X88875Y-25250
X88875Y-27150
X89375Y-25250
X89375Y-27150
X89375Y-27575
X89389Y-18891
X89601Y-19999
X89807Y-29067
X89840Y-33051
X89875Y-25250
X89875Y-27150
X89875Y-27575
X90028Y-30921
X90100Y-19950
X90375Y-25250
X90375Y-27150
X90542Y-19992
X90563Y-33648
X90655Y-20212
X90975Y-22950
X91045Y-33040
X91151Y-19929
X91157Y-20346
X91650Y-28525
X91705Y-27829
X91949Y-33051
X91959Y-23694
X91959Y-24718
X92325Y-20100
X92334Y-35250
X92992Y-33079
X93350Y-20551
X93465Y-23693
X93465Y-24192
X93465Y-24714
X93613Y-23945
X93613Y-24457
X93834Y-35606
T2
X70850Y-23375
X71558Y-26030
X71975Y-19500
X80059Y-20148
X84750Y-23650
X85675Y-26200
X86550Y-23700
X86988Y-30882
X90431Y-23244
X91225Y-28625
X91823Y-18996
T3
X69281Y-18110
X69281Y-27165
X69281Y-37402
X69515Y-17546
X69515Y-18674
X69515Y-26602
X69515Y-27729
X69515Y-36838
X69515Y-37965
X70079Y-17313
X70079Y-18907
X70079Y-26368
X70079Y-27963
X70079Y-36604
X70079Y-38199
X70642Y-17546
X70642Y-18674
X70642Y-26602
X70642Y-27729
X70642Y-36838
X70642Y-37965
X70876Y-18110
X70876Y-27165
X70876Y-37402
X92116Y-18110
X92116Y-27165
X92116Y-37402
X92350Y-17546
X92350Y-18674
X92350Y-26602
X92350Y-27729
X92350Y-36838
X92350Y-37965
X92913Y-17313
X92913Y-18907
X92913Y-26368
X92913Y-27963
X92913Y-36604
X92913Y-38199
X93477Y-17546
X93477Y-18674
X93477Y-26602
X93477Y-27729
X93477Y-36838
X93477Y-37965
X93711Y-18110
X93711Y-27165
X93711Y-37402
T4
X72036Y-36806
X72036Y-37594
X72824Y-36806
X72824Y-37594
X73611Y-36806
X73611Y-37594
X74398Y-36806
X74398Y-37594
X75186Y-36806
X75186Y-37594
X75973Y-36806
X75973Y-37594
X76761Y-36806
X76761Y-37594
X77548Y-36806
X77548Y-37594
X78335Y-36806
X78335Y-37594
X79123Y-36806
X79123Y-37594
X79910Y-36806
X79910Y-37594
X80698Y-36806
X80698Y-37594
X81485Y-36806
X81485Y-37594
X82272Y-36806
X82272Y-37594
X83060Y-36806
X83060Y-37594
X83847Y-36806
X83847Y-37594
X84635Y-36806
X84635Y-37594
X85422Y-36806
X85422Y-37594
X86209Y-36806
X86209Y-37594
X86997Y-36806
X86997Y-37594
X87784Y-36806
X87784Y-37594
X88572Y-36806
X88572Y-37594
X89359Y-36806
X89359Y-37594
X90146Y-36806
X90146Y-37594
X90934Y-36806
X90934Y-37594
X93634Y-33619
X93634Y-34406
X93634Y-35194
X93634Y-35981
T5
X69475Y-31675
X69475Y-32675
X69520Y-19890
X69579Y-28858
X69579Y-29858
X70083Y-21110
X70083Y-22110
X70083Y-23110
X70083Y-24110
X70083Y-25110
X70475Y-31675
X70475Y-32675
X70520Y-19890
X70579Y-28858
X70579Y-29858
X71475Y-31675
X71475Y-32675
X71579Y-28858
X71579Y-29858
X71996Y-17610
X71996Y-18610
X72475Y-31675
X72475Y-32675
X72996Y-17610
X72996Y-18610
X73475Y-31675
X73475Y-32675
X73996Y-17610
X73996Y-18610
X74475Y-31675
X74475Y-32675
X74996Y-17610
X74996Y-18610
X75475Y-31675
X75475Y-32675
X75996Y-17610
X75996Y-18610
X76475Y-31675
X76475Y-32675
X76996Y-17610
X76996Y-18610
X77475Y-31675
X77475Y-32675
X77996Y-17610
X77996Y-18610
X78475Y-31675
X78475Y-32675
X78996Y-17610
X78996Y-18610
X79475Y-31675
X79475Y-32675
X79996Y-17610
X79996Y-18610
X80475Y-31675
X80475Y-32675
X80996Y-17610
X80996Y-18610
X81475Y-31675
X81475Y-32675
X81996Y-17610
X81996Y-18610
X82475Y-31675
X82475Y-32675
X82996Y-17610
X82996Y-18610
X83475Y-31675
X83475Y-32675
X83996Y-17610
X83996Y-18610
X84475Y-31675
X84475Y-32675
X84996Y-17610
X84996Y-18610
X85475Y-31675
X85475Y-32675
X85996Y-17610
X85996Y-18610
X86475Y-31675
X86475Y-32675
X86996Y-17610
X86996Y-18610
X87475Y-31675
X87475Y-32675
X87996Y-17610
X87996Y-18610
X88475Y-31675
X88475Y-32675
X88996Y-17610
X88996Y-18610
X89475Y-31675
X89475Y-32675
X89996Y-17610
X89996Y-18610
X90475Y-31675
X90475Y-32675
X90996Y-17610
X90996Y-18610
X91475Y-31675
X91475Y-32675
X91900Y-20450
X91900Y-21450
X92475Y-31675
X92475Y-32675
X93475Y-31675
X93475Y-32675
T6
X74953Y-34500
X75499Y-35618
X76044Y-34500
X76589Y-35618
X77134Y-34500
X77680Y-35618
X78225Y-34500
X78770Y-35618
X79316Y-34500
X79861Y-35618
X80406Y-34500
X80951Y-35618
X81497Y-34500
X82042Y-35618
X82587Y-34500
X83133Y-35618
X83678Y-34500
X84223Y-35618
X84768Y-34500
X85314Y-35618
X85859Y-34500
X86404Y-35618
X86949Y-34500
X87495Y-35618
X88040Y-34500
T7
X79177Y-26575
X79177Y-27559
X79177Y-28543
X79177Y-29528
T8
X92482Y-22789
X92482Y-25604
X93841Y-22789
X93841Y-25604
T9
X70079Y-18110
X70079Y-27165
X70079Y-37402
X92913Y-18110
X92913Y-27165
X92913Y-37402
T10
X72237Y-35059
X90757Y-35059
T0
M30
