%TF.GenerationSoftware,KiCad,Pcbnew,(5.1.9-16-g1737927814)-1*%
%TF.CreationDate,2021-06-02T15:54:43-05:00*%
%TF.ProjectId,loopback_tester,6c6f6f70-6261-4636-9b5f-746573746572,rev?*%
%TF.SameCoordinates,PX59d60c0PY325aa00*%
%TF.FileFunction,Copper,L1,Top*%
%TF.FilePolarity,Positive*%
%FSLAX46Y46*%
G04 Gerber Fmt 4.6, Leading zero omitted, Abs format (unit mm)*
G04 Created by KiCad (PCBNEW (5.1.9-16-g1737927814)-1) date 2021-06-02 15:54:43*
%MOMM*%
%LPD*%
G01*
G04 APERTURE LIST*
%TA.AperFunction,Profile*%
%ADD10C,0.050000*%
%TD*%
%TA.AperFunction,NonConductor*%
%ADD11C,0.400000*%
%TD*%
%TA.AperFunction,NonConductor*%
%ADD12C,0.150000*%
%TD*%
%TA.AperFunction,NonConductor*%
%ADD13C,0.120000*%
%TD*%
%TA.AperFunction,EtchedComponent*%
%ADD14C,0.150000*%
%TD*%
%TA.AperFunction,ComponentPad*%
%ADD15O,1.700000X1.700000*%
%TD*%
%TA.AperFunction,ComponentPad*%
%ADD16R,1.700000X1.700000*%
%TD*%
%TA.AperFunction,ComponentPad*%
%ADD17C,4.845000*%
%TD*%
%TA.AperFunction,ComponentPad*%
%ADD18C,1.545000*%
%TD*%
%TA.AperFunction,SMDPad,CuDef*%
%ADD19C,0.150000*%
%TD*%
%TA.AperFunction,ViaPad*%
%ADD20C,0.500000*%
%TD*%
%TA.AperFunction,ViaPad*%
%ADD21C,0.800000*%
%TD*%
%TA.AperFunction,Conductor*%
%ADD22C,0.400000*%
%TD*%
%TA.AperFunction,Conductor*%
%ADD23C,0.150000*%
%TD*%
%TA.AperFunction,Conductor*%
%ADD24C,0.250000*%
%TD*%
%TA.AperFunction,Conductor*%
%ADD25C,0.254000*%
%TD*%
G04 APERTURE END LIST*
D10*
X144052000Y-45696000D02*
G75*
G03*
X145012000Y-44736000I0J960000D01*
G01*
D11*
X125953238Y-42719761D02*
X125405619Y-41767380D01*
X124810380Y-42719761D02*
X125060380Y-40719761D01*
X125822285Y-40719761D01*
X126000857Y-40815000D01*
X126084190Y-40910238D01*
X126155619Y-41100714D01*
X126119904Y-41386428D01*
X126000857Y-41576904D01*
X125893714Y-41672142D01*
X125691333Y-41767380D01*
X124929428Y-41767380D01*
X127667523Y-42719761D02*
X127798476Y-41672142D01*
X127727047Y-41481666D01*
X127548476Y-41386428D01*
X127167523Y-41386428D01*
X126965142Y-41481666D01*
X127679428Y-42624523D02*
X127477047Y-42719761D01*
X127000857Y-42719761D01*
X126822285Y-42624523D01*
X126750857Y-42434047D01*
X126774666Y-42243571D01*
X126893714Y-42053095D01*
X127096095Y-41957857D01*
X127572285Y-41957857D01*
X127774666Y-41862619D01*
X128536571Y-42624523D02*
X128810380Y-42719761D01*
X129286571Y-42719761D01*
X129488952Y-42624523D01*
X129596095Y-42529285D01*
X129715142Y-42338809D01*
X129738952Y-42148333D01*
X129667523Y-41957857D01*
X129584190Y-41862619D01*
X129405619Y-41767380D01*
X129036571Y-41672142D01*
X128858000Y-41576904D01*
X128774666Y-41481666D01*
X128703238Y-41291190D01*
X128727047Y-41100714D01*
X128846095Y-40910238D01*
X128953238Y-40815000D01*
X129155619Y-40719761D01*
X129631809Y-40719761D01*
X129905619Y-40815000D01*
X131691333Y-42529285D02*
X131584190Y-42624523D01*
X131286571Y-42719761D01*
X131096095Y-42719761D01*
X130822285Y-42624523D01*
X130655619Y-42434047D01*
X130584190Y-42243571D01*
X130536571Y-41862619D01*
X130572285Y-41576904D01*
X130715142Y-41195952D01*
X130834190Y-41005476D01*
X131048476Y-40815000D01*
X131346095Y-40719761D01*
X131536571Y-40719761D01*
X131810380Y-40815000D01*
X131893714Y-40910238D01*
X132441333Y-42624523D02*
X132715142Y-42719761D01*
X133191333Y-42719761D01*
X133393714Y-42624523D01*
X133500857Y-42529285D01*
X133619904Y-42338809D01*
X133643714Y-42148333D01*
X133572285Y-41957857D01*
X133488952Y-41862619D01*
X133310380Y-41767380D01*
X132941333Y-41672142D01*
X132762761Y-41576904D01*
X132679428Y-41481666D01*
X132608000Y-41291190D01*
X132631809Y-41100714D01*
X132750857Y-40910238D01*
X132858000Y-40815000D01*
X133060380Y-40719761D01*
X133536571Y-40719761D01*
X133810380Y-40815000D01*
X134429428Y-42719761D02*
X134679428Y-40719761D01*
D12*
X124423238Y-44172380D02*
X123947047Y-44172380D01*
X123947047Y-43172380D01*
X124899428Y-44172380D02*
X124804190Y-44124761D01*
X124756571Y-44077142D01*
X124708952Y-43981904D01*
X124708952Y-43696190D01*
X124756571Y-43600952D01*
X124804190Y-43553333D01*
X124899428Y-43505714D01*
X125042285Y-43505714D01*
X125137523Y-43553333D01*
X125185142Y-43600952D01*
X125232761Y-43696190D01*
X125232761Y-43981904D01*
X125185142Y-44077142D01*
X125137523Y-44124761D01*
X125042285Y-44172380D01*
X124899428Y-44172380D01*
X125804190Y-44172380D02*
X125708952Y-44124761D01*
X125661333Y-44077142D01*
X125613714Y-43981904D01*
X125613714Y-43696190D01*
X125661333Y-43600952D01*
X125708952Y-43553333D01*
X125804190Y-43505714D01*
X125947047Y-43505714D01*
X126042285Y-43553333D01*
X126089904Y-43600952D01*
X126137523Y-43696190D01*
X126137523Y-43981904D01*
X126089904Y-44077142D01*
X126042285Y-44124761D01*
X125947047Y-44172380D01*
X125804190Y-44172380D01*
X126566095Y-43505714D02*
X126566095Y-44505714D01*
X126566095Y-43553333D02*
X126661333Y-43505714D01*
X126851809Y-43505714D01*
X126947047Y-43553333D01*
X126994666Y-43600952D01*
X127042285Y-43696190D01*
X127042285Y-43981904D01*
X126994666Y-44077142D01*
X126947047Y-44124761D01*
X126851809Y-44172380D01*
X126661333Y-44172380D01*
X126566095Y-44124761D01*
X127470857Y-44172380D02*
X127470857Y-43172380D01*
X127470857Y-43553333D02*
X127566095Y-43505714D01*
X127756571Y-43505714D01*
X127851809Y-43553333D01*
X127899428Y-43600952D01*
X127947047Y-43696190D01*
X127947047Y-43981904D01*
X127899428Y-44077142D01*
X127851809Y-44124761D01*
X127756571Y-44172380D01*
X127566095Y-44172380D01*
X127470857Y-44124761D01*
X128804190Y-44172380D02*
X128804190Y-43648571D01*
X128756571Y-43553333D01*
X128661333Y-43505714D01*
X128470857Y-43505714D01*
X128375619Y-43553333D01*
X128804190Y-44124761D02*
X128708952Y-44172380D01*
X128470857Y-44172380D01*
X128375619Y-44124761D01*
X128328000Y-44029523D01*
X128328000Y-43934285D01*
X128375619Y-43839047D01*
X128470857Y-43791428D01*
X128708952Y-43791428D01*
X128804190Y-43743809D01*
X129708952Y-44124761D02*
X129613714Y-44172380D01*
X129423238Y-44172380D01*
X129328000Y-44124761D01*
X129280380Y-44077142D01*
X129232761Y-43981904D01*
X129232761Y-43696190D01*
X129280380Y-43600952D01*
X129328000Y-43553333D01*
X129423238Y-43505714D01*
X129613714Y-43505714D01*
X129708952Y-43553333D01*
X130137523Y-44172380D02*
X130137523Y-43172380D01*
X130232761Y-43791428D02*
X130518476Y-44172380D01*
X130518476Y-43505714D02*
X130137523Y-43886666D01*
X131566095Y-43172380D02*
X132137523Y-43172380D01*
X131851809Y-44172380D02*
X131851809Y-43172380D01*
X132851809Y-44124761D02*
X132756571Y-44172380D01*
X132566095Y-44172380D01*
X132470857Y-44124761D01*
X132423238Y-44029523D01*
X132423238Y-43648571D01*
X132470857Y-43553333D01*
X132566095Y-43505714D01*
X132756571Y-43505714D01*
X132851809Y-43553333D01*
X132899428Y-43648571D01*
X132899428Y-43743809D01*
X132423238Y-43839047D01*
X133280380Y-44124761D02*
X133375619Y-44172380D01*
X133566095Y-44172380D01*
X133661333Y-44124761D01*
X133708952Y-44029523D01*
X133708952Y-43981904D01*
X133661333Y-43886666D01*
X133566095Y-43839047D01*
X133423238Y-43839047D01*
X133328000Y-43791428D01*
X133280380Y-43696190D01*
X133280380Y-43648571D01*
X133328000Y-43553333D01*
X133423238Y-43505714D01*
X133566095Y-43505714D01*
X133661333Y-43553333D01*
X133994666Y-43505714D02*
X134375619Y-43505714D01*
X134137523Y-43172380D02*
X134137523Y-44029523D01*
X134185142Y-44124761D01*
X134280380Y-44172380D01*
X134375619Y-44172380D01*
X135089904Y-44124761D02*
X134994666Y-44172380D01*
X134804190Y-44172380D01*
X134708952Y-44124761D01*
X134661333Y-44029523D01*
X134661333Y-43648571D01*
X134708952Y-43553333D01*
X134804190Y-43505714D01*
X134994666Y-43505714D01*
X135089904Y-43553333D01*
X135137523Y-43648571D01*
X135137523Y-43743809D01*
X134661333Y-43839047D01*
X135566095Y-44172380D02*
X135566095Y-43505714D01*
X135566095Y-43696190D02*
X135613714Y-43600952D01*
X135661333Y-43553333D01*
X135756571Y-43505714D01*
X135851809Y-43505714D01*
D13*
X137979500Y-44660000D02*
X137979500Y-40405500D01*
X121914000Y-44660000D02*
X137979500Y-44660000D01*
X137916000Y-40342000D02*
X121914000Y-40342000D01*
X138487500Y-39961000D02*
X138487500Y-45041000D01*
X121914000Y-40342000D02*
X121914000Y-44660000D01*
X121469500Y-45041000D02*
X138487500Y-45041000D01*
X121469500Y-45041000D02*
X121469500Y-39961000D01*
X121533000Y-39961000D02*
X138487500Y-39961000D01*
D10*
X81552000Y-45696000D02*
X144052000Y-45696000D01*
X81552000Y-45696800D02*
G75*
G02*
X80552000Y-44736000I0J1000800D01*
G01*
X80552000Y-16288000D02*
X80552000Y-44736000D01*
X145012000Y-16780000D02*
X145012000Y-44736000D01*
X81060000Y-15780000D02*
X144012000Y-15780000D01*
X80552000Y-16288000D02*
G75*
G02*
X81060000Y-15780000I508000J0D01*
G01*
X144012000Y-15780000D02*
G75*
G02*
X145012000Y-16780000I0J-1000000D01*
G01*
D14*
%TO.C,JP9*%
G36*
X87309100Y-26848000D02*
G01*
X87309100Y-27348000D01*
X87909100Y-27348000D01*
X87909100Y-26848000D01*
X87309100Y-26848000D01*
G37*
%TO.C,JP8*%
G36*
X93541599Y-26848000D02*
G01*
X93541599Y-27348000D01*
X94141599Y-27348000D01*
X94141599Y-26848000D01*
X93541599Y-26848000D01*
G37*
%TO.C,JP7*%
G36*
X99774098Y-26848000D02*
G01*
X99774098Y-27348000D01*
X100374098Y-27348000D01*
X100374098Y-26848000D01*
X99774098Y-26848000D01*
G37*
%TO.C,JP6*%
G36*
X106006597Y-26848000D02*
G01*
X106006597Y-27348000D01*
X106606597Y-27348000D01*
X106606597Y-26848000D01*
X106006597Y-26848000D01*
G37*
%TO.C,JP5*%
G36*
X112239096Y-26848000D02*
G01*
X112239096Y-27348000D01*
X112839096Y-27348000D01*
X112839096Y-26848000D01*
X112239096Y-26848000D01*
G37*
%TO.C,JP4*%
G36*
X118471595Y-26848000D02*
G01*
X118471595Y-27348000D01*
X119071595Y-27348000D01*
X119071595Y-26848000D01*
X118471595Y-26848000D01*
G37*
%TO.C,JP3*%
G36*
X124704094Y-26848000D02*
G01*
X124704094Y-27348000D01*
X125304094Y-27348000D01*
X125304094Y-26848000D01*
X124704094Y-26848000D01*
G37*
%TO.C,JP2*%
G36*
X130936593Y-26848000D02*
G01*
X130936593Y-27348000D01*
X131536593Y-27348000D01*
X131536593Y-26848000D01*
X130936593Y-26848000D01*
G37*
%TO.C,JP1*%
G36*
X137169099Y-26848000D02*
G01*
X137169099Y-27348000D01*
X137769099Y-27348000D01*
X137769099Y-26848000D01*
X137169099Y-26848000D01*
G37*
%TD*%
D15*
%TO.P,J2,50*%
%TO.N,C-I_O*%
X143226500Y-17494500D03*
%TO.P,J2,49*%
%TO.N,GND*%
X143226500Y-20034500D03*
%TO.P,J2,48*%
%TO.N,C-REQ*%
X140686500Y-17494500D03*
%TO.P,J2,47*%
%TO.N,GND*%
X140686500Y-20034500D03*
%TO.P,J2,46*%
%TO.N,C-C_D*%
X138146500Y-17494500D03*
%TO.P,J2,45*%
%TO.N,GND*%
X138146500Y-20034500D03*
%TO.P,J2,44*%
%TO.N,C-SEL*%
X135606500Y-17494500D03*
%TO.P,J2,43*%
%TO.N,GND*%
X135606500Y-20034500D03*
%TO.P,J2,42*%
%TO.N,C-MSG*%
X133066500Y-17494500D03*
%TO.P,J2,41*%
%TO.N,GND*%
X133066500Y-20034500D03*
%TO.P,J2,40*%
%TO.N,C-RST*%
X130526500Y-17494500D03*
%TO.P,J2,39*%
%TO.N,GND*%
X130526500Y-20034500D03*
%TO.P,J2,38*%
%TO.N,C-ACK*%
X127986500Y-17494500D03*
%TO.P,J2,37*%
%TO.N,GND*%
X127986500Y-20034500D03*
%TO.P,J2,36*%
%TO.N,C-BSY*%
X125446500Y-17494500D03*
%TO.P,J2,35*%
%TO.N,GND*%
X125446500Y-20034500D03*
%TO.P,J2,34*%
%TO.N,N/C*%
X122906500Y-17494500D03*
%TO.P,J2,33*%
%TO.N,GND*%
X122906500Y-20034500D03*
%TO.P,J2,32*%
%TO.N,C-ATN*%
X120366500Y-17494500D03*
%TO.P,J2,31*%
%TO.N,GND*%
X120366500Y-20034500D03*
%TO.P,J2,30*%
X117826500Y-17494500D03*
%TO.P,J2,29*%
X117826500Y-20034500D03*
%TO.P,J2,28*%
X115286500Y-17494500D03*
%TO.P,J2,27*%
X115286500Y-20034500D03*
%TO.P,J2,26*%
%TO.N,TERMPOW*%
X112746500Y-17494500D03*
%TO.P,J2,25*%
%TO.N,N/C*%
X112746500Y-20034500D03*
%TO.P,J2,24*%
%TO.N,GND*%
X110206500Y-17494500D03*
%TO.P,J2,23*%
X110206500Y-20034500D03*
%TO.P,J2,22*%
X107666500Y-17494500D03*
%TO.P,J2,21*%
X107666500Y-20034500D03*
%TO.P,J2,20*%
X105126500Y-17494500D03*
%TO.P,J2,19*%
X105126500Y-20034500D03*
%TO.P,J2,18*%
%TO.N,C-DP*%
X102586500Y-17494500D03*
%TO.P,J2,17*%
%TO.N,GND*%
X102586500Y-20034500D03*
%TO.P,J2,16*%
%TO.N,C-D7*%
X100046500Y-17494500D03*
%TO.P,J2,15*%
%TO.N,GND*%
X100046500Y-20034500D03*
%TO.P,J2,14*%
%TO.N,C-D6*%
X97506500Y-17494500D03*
%TO.P,J2,13*%
%TO.N,GND*%
X97506500Y-20034500D03*
%TO.P,J2,12*%
%TO.N,C-D5*%
X94966500Y-17494500D03*
%TO.P,J2,11*%
%TO.N,GND*%
X94966500Y-20034500D03*
%TO.P,J2,10*%
%TO.N,C-D4*%
X92426500Y-17494500D03*
%TO.P,J2,9*%
%TO.N,GND*%
X92426500Y-20034500D03*
%TO.P,J2,8*%
%TO.N,C-D3*%
X89886500Y-17494500D03*
%TO.P,J2,7*%
%TO.N,GND*%
X89886500Y-20034500D03*
%TO.P,J2,6*%
%TO.N,C-D2*%
X87346500Y-17494500D03*
%TO.P,J2,5*%
%TO.N,GND*%
X87346500Y-20034500D03*
%TO.P,J2,4*%
%TO.N,C-D1*%
X84806500Y-17494500D03*
%TO.P,J2,3*%
%TO.N,GND*%
X84806500Y-20034500D03*
%TO.P,J2,2*%
%TO.N,C-D0*%
X82266500Y-17494500D03*
D16*
%TO.P,J2,1*%
%TO.N,GND*%
X82266500Y-20034500D03*
%TD*%
D17*
%TO.P,J1,MH2*%
%TO.N,GND*%
X89281600Y-36250000D03*
%TO.P,J1,MH1*%
X136321600Y-36250000D03*
D18*
%TO.P,J1,25*%
%TO.N,TERMPOW*%
X97566600Y-37670000D03*
%TO.P,J1,24*%
%TO.N,GND*%
X100336600Y-37670000D03*
%TO.P,J1,23*%
%TO.N,C-D4*%
X103106600Y-37670000D03*
%TO.P,J1,22*%
%TO.N,C-D2*%
X105876600Y-37670000D03*
%TO.P,J1,21*%
%TO.N,C-D1*%
X108646600Y-37670000D03*
%TO.P,J1,20*%
%TO.N,C-DP*%
X111416600Y-37670000D03*
%TO.P,J1,19*%
%TO.N,C-SEL*%
X114186600Y-37670000D03*
%TO.P,J1,18*%
%TO.N,GND*%
X116956600Y-37670000D03*
%TO.P,J1,17*%
%TO.N,C-ATN*%
X119726600Y-37670000D03*
%TO.P,J1,16*%
%TO.N,GND*%
X122496600Y-37670000D03*
%TO.P,J1,15*%
%TO.N,C-C_D*%
X125266600Y-37670000D03*
%TO.P,J1,14*%
%TO.N,GND*%
X128036600Y-37670000D03*
%TO.P,J1,13*%
%TO.N,C-D7*%
X96181600Y-34830000D03*
%TO.P,J1,12*%
%TO.N,C-D6*%
X98951600Y-34830000D03*
%TO.P,J1,11*%
%TO.N,C-D5*%
X101721600Y-34830000D03*
%TO.P,J1,10*%
%TO.N,C-D3*%
X104491600Y-34830000D03*
%TO.P,J1,9*%
%TO.N,GND*%
X107261600Y-34830000D03*
%TO.P,J1,8*%
%TO.N,C-D0*%
X110031600Y-34830000D03*
%TO.P,J1,7*%
%TO.N,GND*%
X112801600Y-34830000D03*
%TO.P,J1,6*%
%TO.N,C-BSY*%
X115571600Y-34830000D03*
%TO.P,J1,5*%
%TO.N,C-ACK*%
X118341600Y-34830000D03*
%TO.P,J1,4*%
%TO.N,C-RST*%
X121111600Y-34830000D03*
%TO.P,J1,3*%
%TO.N,C-I_O*%
X123881600Y-34830000D03*
%TO.P,J1,2*%
%TO.N,C-MSG*%
X126651600Y-34830000D03*
%TO.P,J1,1*%
%TO.N,C-REQ*%
X129421600Y-34830000D03*
%TD*%
%TA.AperFunction,SMDPad,CuDef*%
D19*
%TO.P,JP9,1*%
%TO.N,C-D7*%
G36*
X88359100Y-27248000D02*
G01*
X88359100Y-27748000D01*
X88358498Y-27748000D01*
X88358498Y-27772534D01*
X88353688Y-27821365D01*
X88344116Y-27869490D01*
X88329872Y-27916445D01*
X88311095Y-27961778D01*
X88287964Y-28005051D01*
X88260704Y-28045850D01*
X88229576Y-28083779D01*
X88194879Y-28118476D01*
X88156950Y-28149604D01*
X88116151Y-28176864D01*
X88072878Y-28199995D01*
X88027545Y-28218772D01*
X87980590Y-28233016D01*
X87932465Y-28242588D01*
X87883634Y-28247398D01*
X87859100Y-28247398D01*
X87859100Y-28248000D01*
X87359100Y-28248000D01*
X87359100Y-28247398D01*
X87334566Y-28247398D01*
X87285735Y-28242588D01*
X87237610Y-28233016D01*
X87190655Y-28218772D01*
X87145322Y-28199995D01*
X87102049Y-28176864D01*
X87061250Y-28149604D01*
X87023321Y-28118476D01*
X86988624Y-28083779D01*
X86957496Y-28045850D01*
X86930236Y-28005051D01*
X86907105Y-27961778D01*
X86888328Y-27916445D01*
X86874084Y-27869490D01*
X86864512Y-27821365D01*
X86859702Y-27772534D01*
X86859702Y-27748000D01*
X86859100Y-27748000D01*
X86859100Y-27248000D01*
X88359100Y-27248000D01*
G37*
%TD.AperFunction*%
%TA.AperFunction,SMDPad,CuDef*%
%TO.P,JP9,2*%
%TO.N,C-REQ*%
G36*
X86859702Y-26448000D02*
G01*
X86859702Y-26423466D01*
X86864512Y-26374635D01*
X86874084Y-26326510D01*
X86888328Y-26279555D01*
X86907105Y-26234222D01*
X86930236Y-26190949D01*
X86957496Y-26150150D01*
X86988624Y-26112221D01*
X87023321Y-26077524D01*
X87061250Y-26046396D01*
X87102049Y-26019136D01*
X87145322Y-25996005D01*
X87190655Y-25977228D01*
X87237610Y-25962984D01*
X87285735Y-25953412D01*
X87334566Y-25948602D01*
X87359100Y-25948602D01*
X87359100Y-25948000D01*
X87859100Y-25948000D01*
X87859100Y-25948602D01*
X87883634Y-25948602D01*
X87932465Y-25953412D01*
X87980590Y-25962984D01*
X88027545Y-25977228D01*
X88072878Y-25996005D01*
X88116151Y-26019136D01*
X88156950Y-26046396D01*
X88194879Y-26077524D01*
X88229576Y-26112221D01*
X88260704Y-26150150D01*
X88287964Y-26190949D01*
X88311095Y-26234222D01*
X88329872Y-26279555D01*
X88344116Y-26326510D01*
X88353688Y-26374635D01*
X88358498Y-26423466D01*
X88358498Y-26448000D01*
X88359100Y-26448000D01*
X88359100Y-26948000D01*
X86859100Y-26948000D01*
X86859100Y-26448000D01*
X86859702Y-26448000D01*
G37*
%TD.AperFunction*%
%TD*%
%TA.AperFunction,SMDPad,CuDef*%
%TO.P,JP8,1*%
%TO.N,C-D6*%
G36*
X94591599Y-27248000D02*
G01*
X94591599Y-27748000D01*
X94590997Y-27748000D01*
X94590997Y-27772534D01*
X94586187Y-27821365D01*
X94576615Y-27869490D01*
X94562371Y-27916445D01*
X94543594Y-27961778D01*
X94520463Y-28005051D01*
X94493203Y-28045850D01*
X94462075Y-28083779D01*
X94427378Y-28118476D01*
X94389449Y-28149604D01*
X94348650Y-28176864D01*
X94305377Y-28199995D01*
X94260044Y-28218772D01*
X94213089Y-28233016D01*
X94164964Y-28242588D01*
X94116133Y-28247398D01*
X94091599Y-28247398D01*
X94091599Y-28248000D01*
X93591599Y-28248000D01*
X93591599Y-28247398D01*
X93567065Y-28247398D01*
X93518234Y-28242588D01*
X93470109Y-28233016D01*
X93423154Y-28218772D01*
X93377821Y-28199995D01*
X93334548Y-28176864D01*
X93293749Y-28149604D01*
X93255820Y-28118476D01*
X93221123Y-28083779D01*
X93189995Y-28045850D01*
X93162735Y-28005051D01*
X93139604Y-27961778D01*
X93120827Y-27916445D01*
X93106583Y-27869490D01*
X93097011Y-27821365D01*
X93092201Y-27772534D01*
X93092201Y-27748000D01*
X93091599Y-27748000D01*
X93091599Y-27248000D01*
X94591599Y-27248000D01*
G37*
%TD.AperFunction*%
%TA.AperFunction,SMDPad,CuDef*%
%TO.P,JP8,2*%
%TO.N,C-MSG*%
G36*
X93092201Y-26448000D02*
G01*
X93092201Y-26423466D01*
X93097011Y-26374635D01*
X93106583Y-26326510D01*
X93120827Y-26279555D01*
X93139604Y-26234222D01*
X93162735Y-26190949D01*
X93189995Y-26150150D01*
X93221123Y-26112221D01*
X93255820Y-26077524D01*
X93293749Y-26046396D01*
X93334548Y-26019136D01*
X93377821Y-25996005D01*
X93423154Y-25977228D01*
X93470109Y-25962984D01*
X93518234Y-25953412D01*
X93567065Y-25948602D01*
X93591599Y-25948602D01*
X93591599Y-25948000D01*
X94091599Y-25948000D01*
X94091599Y-25948602D01*
X94116133Y-25948602D01*
X94164964Y-25953412D01*
X94213089Y-25962984D01*
X94260044Y-25977228D01*
X94305377Y-25996005D01*
X94348650Y-26019136D01*
X94389449Y-26046396D01*
X94427378Y-26077524D01*
X94462075Y-26112221D01*
X94493203Y-26150150D01*
X94520463Y-26190949D01*
X94543594Y-26234222D01*
X94562371Y-26279555D01*
X94576615Y-26326510D01*
X94586187Y-26374635D01*
X94590997Y-26423466D01*
X94590997Y-26448000D01*
X94591599Y-26448000D01*
X94591599Y-26948000D01*
X93091599Y-26948000D01*
X93091599Y-26448000D01*
X93092201Y-26448000D01*
G37*
%TD.AperFunction*%
%TD*%
%TA.AperFunction,SMDPad,CuDef*%
%TO.P,JP7,1*%
%TO.N,C-D5*%
G36*
X100824098Y-27248000D02*
G01*
X100824098Y-27748000D01*
X100823496Y-27748000D01*
X100823496Y-27772534D01*
X100818686Y-27821365D01*
X100809114Y-27869490D01*
X100794870Y-27916445D01*
X100776093Y-27961778D01*
X100752962Y-28005051D01*
X100725702Y-28045850D01*
X100694574Y-28083779D01*
X100659877Y-28118476D01*
X100621948Y-28149604D01*
X100581149Y-28176864D01*
X100537876Y-28199995D01*
X100492543Y-28218772D01*
X100445588Y-28233016D01*
X100397463Y-28242588D01*
X100348632Y-28247398D01*
X100324098Y-28247398D01*
X100324098Y-28248000D01*
X99824098Y-28248000D01*
X99824098Y-28247398D01*
X99799564Y-28247398D01*
X99750733Y-28242588D01*
X99702608Y-28233016D01*
X99655653Y-28218772D01*
X99610320Y-28199995D01*
X99567047Y-28176864D01*
X99526248Y-28149604D01*
X99488319Y-28118476D01*
X99453622Y-28083779D01*
X99422494Y-28045850D01*
X99395234Y-28005051D01*
X99372103Y-27961778D01*
X99353326Y-27916445D01*
X99339082Y-27869490D01*
X99329510Y-27821365D01*
X99324700Y-27772534D01*
X99324700Y-27748000D01*
X99324098Y-27748000D01*
X99324098Y-27248000D01*
X100824098Y-27248000D01*
G37*
%TD.AperFunction*%
%TA.AperFunction,SMDPad,CuDef*%
%TO.P,JP7,2*%
%TO.N,C-I_O*%
G36*
X99324700Y-26448000D02*
G01*
X99324700Y-26423466D01*
X99329510Y-26374635D01*
X99339082Y-26326510D01*
X99353326Y-26279555D01*
X99372103Y-26234222D01*
X99395234Y-26190949D01*
X99422494Y-26150150D01*
X99453622Y-26112221D01*
X99488319Y-26077524D01*
X99526248Y-26046396D01*
X99567047Y-26019136D01*
X99610320Y-25996005D01*
X99655653Y-25977228D01*
X99702608Y-25962984D01*
X99750733Y-25953412D01*
X99799564Y-25948602D01*
X99824098Y-25948602D01*
X99824098Y-25948000D01*
X100324098Y-25948000D01*
X100324098Y-25948602D01*
X100348632Y-25948602D01*
X100397463Y-25953412D01*
X100445588Y-25962984D01*
X100492543Y-25977228D01*
X100537876Y-25996005D01*
X100581149Y-26019136D01*
X100621948Y-26046396D01*
X100659877Y-26077524D01*
X100694574Y-26112221D01*
X100725702Y-26150150D01*
X100752962Y-26190949D01*
X100776093Y-26234222D01*
X100794870Y-26279555D01*
X100809114Y-26326510D01*
X100818686Y-26374635D01*
X100823496Y-26423466D01*
X100823496Y-26448000D01*
X100824098Y-26448000D01*
X100824098Y-26948000D01*
X99324098Y-26948000D01*
X99324098Y-26448000D01*
X99324700Y-26448000D01*
G37*
%TD.AperFunction*%
%TD*%
%TA.AperFunction,SMDPad,CuDef*%
%TO.P,JP6,1*%
%TO.N,C-D4*%
G36*
X107056597Y-27248000D02*
G01*
X107056597Y-27748000D01*
X107055995Y-27748000D01*
X107055995Y-27772534D01*
X107051185Y-27821365D01*
X107041613Y-27869490D01*
X107027369Y-27916445D01*
X107008592Y-27961778D01*
X106985461Y-28005051D01*
X106958201Y-28045850D01*
X106927073Y-28083779D01*
X106892376Y-28118476D01*
X106854447Y-28149604D01*
X106813648Y-28176864D01*
X106770375Y-28199995D01*
X106725042Y-28218772D01*
X106678087Y-28233016D01*
X106629962Y-28242588D01*
X106581131Y-28247398D01*
X106556597Y-28247398D01*
X106556597Y-28248000D01*
X106056597Y-28248000D01*
X106056597Y-28247398D01*
X106032063Y-28247398D01*
X105983232Y-28242588D01*
X105935107Y-28233016D01*
X105888152Y-28218772D01*
X105842819Y-28199995D01*
X105799546Y-28176864D01*
X105758747Y-28149604D01*
X105720818Y-28118476D01*
X105686121Y-28083779D01*
X105654993Y-28045850D01*
X105627733Y-28005051D01*
X105604602Y-27961778D01*
X105585825Y-27916445D01*
X105571581Y-27869490D01*
X105562009Y-27821365D01*
X105557199Y-27772534D01*
X105557199Y-27748000D01*
X105556597Y-27748000D01*
X105556597Y-27248000D01*
X107056597Y-27248000D01*
G37*
%TD.AperFunction*%
%TA.AperFunction,SMDPad,CuDef*%
%TO.P,JP6,2*%
%TO.N,C-C_D*%
G36*
X105557199Y-26448000D02*
G01*
X105557199Y-26423466D01*
X105562009Y-26374635D01*
X105571581Y-26326510D01*
X105585825Y-26279555D01*
X105604602Y-26234222D01*
X105627733Y-26190949D01*
X105654993Y-26150150D01*
X105686121Y-26112221D01*
X105720818Y-26077524D01*
X105758747Y-26046396D01*
X105799546Y-26019136D01*
X105842819Y-25996005D01*
X105888152Y-25977228D01*
X105935107Y-25962984D01*
X105983232Y-25953412D01*
X106032063Y-25948602D01*
X106056597Y-25948602D01*
X106056597Y-25948000D01*
X106556597Y-25948000D01*
X106556597Y-25948602D01*
X106581131Y-25948602D01*
X106629962Y-25953412D01*
X106678087Y-25962984D01*
X106725042Y-25977228D01*
X106770375Y-25996005D01*
X106813648Y-26019136D01*
X106854447Y-26046396D01*
X106892376Y-26077524D01*
X106927073Y-26112221D01*
X106958201Y-26150150D01*
X106985461Y-26190949D01*
X107008592Y-26234222D01*
X107027369Y-26279555D01*
X107041613Y-26326510D01*
X107051185Y-26374635D01*
X107055995Y-26423466D01*
X107055995Y-26448000D01*
X107056597Y-26448000D01*
X107056597Y-26948000D01*
X105556597Y-26948000D01*
X105556597Y-26448000D01*
X105557199Y-26448000D01*
G37*
%TD.AperFunction*%
%TD*%
%TA.AperFunction,SMDPad,CuDef*%
%TO.P,JP5,1*%
%TO.N,C-D3*%
G36*
X113289096Y-27248000D02*
G01*
X113289096Y-27748000D01*
X113288494Y-27748000D01*
X113288494Y-27772534D01*
X113283684Y-27821365D01*
X113274112Y-27869490D01*
X113259868Y-27916445D01*
X113241091Y-27961778D01*
X113217960Y-28005051D01*
X113190700Y-28045850D01*
X113159572Y-28083779D01*
X113124875Y-28118476D01*
X113086946Y-28149604D01*
X113046147Y-28176864D01*
X113002874Y-28199995D01*
X112957541Y-28218772D01*
X112910586Y-28233016D01*
X112862461Y-28242588D01*
X112813630Y-28247398D01*
X112789096Y-28247398D01*
X112789096Y-28248000D01*
X112289096Y-28248000D01*
X112289096Y-28247398D01*
X112264562Y-28247398D01*
X112215731Y-28242588D01*
X112167606Y-28233016D01*
X112120651Y-28218772D01*
X112075318Y-28199995D01*
X112032045Y-28176864D01*
X111991246Y-28149604D01*
X111953317Y-28118476D01*
X111918620Y-28083779D01*
X111887492Y-28045850D01*
X111860232Y-28005051D01*
X111837101Y-27961778D01*
X111818324Y-27916445D01*
X111804080Y-27869490D01*
X111794508Y-27821365D01*
X111789698Y-27772534D01*
X111789698Y-27748000D01*
X111789096Y-27748000D01*
X111789096Y-27248000D01*
X113289096Y-27248000D01*
G37*
%TD.AperFunction*%
%TA.AperFunction,SMDPad,CuDef*%
%TO.P,JP5,2*%
%TO.N,C-RST*%
G36*
X111789698Y-26448000D02*
G01*
X111789698Y-26423466D01*
X111794508Y-26374635D01*
X111804080Y-26326510D01*
X111818324Y-26279555D01*
X111837101Y-26234222D01*
X111860232Y-26190949D01*
X111887492Y-26150150D01*
X111918620Y-26112221D01*
X111953317Y-26077524D01*
X111991246Y-26046396D01*
X112032045Y-26019136D01*
X112075318Y-25996005D01*
X112120651Y-25977228D01*
X112167606Y-25962984D01*
X112215731Y-25953412D01*
X112264562Y-25948602D01*
X112289096Y-25948602D01*
X112289096Y-25948000D01*
X112789096Y-25948000D01*
X112789096Y-25948602D01*
X112813630Y-25948602D01*
X112862461Y-25953412D01*
X112910586Y-25962984D01*
X112957541Y-25977228D01*
X113002874Y-25996005D01*
X113046147Y-26019136D01*
X113086946Y-26046396D01*
X113124875Y-26077524D01*
X113159572Y-26112221D01*
X113190700Y-26150150D01*
X113217960Y-26190949D01*
X113241091Y-26234222D01*
X113259868Y-26279555D01*
X113274112Y-26326510D01*
X113283684Y-26374635D01*
X113288494Y-26423466D01*
X113288494Y-26448000D01*
X113289096Y-26448000D01*
X113289096Y-26948000D01*
X111789096Y-26948000D01*
X111789096Y-26448000D01*
X111789698Y-26448000D01*
G37*
%TD.AperFunction*%
%TD*%
%TA.AperFunction,SMDPad,CuDef*%
%TO.P,JP4,1*%
%TO.N,C-D2*%
G36*
X119521595Y-27248000D02*
G01*
X119521595Y-27748000D01*
X119520993Y-27748000D01*
X119520993Y-27772534D01*
X119516183Y-27821365D01*
X119506611Y-27869490D01*
X119492367Y-27916445D01*
X119473590Y-27961778D01*
X119450459Y-28005051D01*
X119423199Y-28045850D01*
X119392071Y-28083779D01*
X119357374Y-28118476D01*
X119319445Y-28149604D01*
X119278646Y-28176864D01*
X119235373Y-28199995D01*
X119190040Y-28218772D01*
X119143085Y-28233016D01*
X119094960Y-28242588D01*
X119046129Y-28247398D01*
X119021595Y-28247398D01*
X119021595Y-28248000D01*
X118521595Y-28248000D01*
X118521595Y-28247398D01*
X118497061Y-28247398D01*
X118448230Y-28242588D01*
X118400105Y-28233016D01*
X118353150Y-28218772D01*
X118307817Y-28199995D01*
X118264544Y-28176864D01*
X118223745Y-28149604D01*
X118185816Y-28118476D01*
X118151119Y-28083779D01*
X118119991Y-28045850D01*
X118092731Y-28005051D01*
X118069600Y-27961778D01*
X118050823Y-27916445D01*
X118036579Y-27869490D01*
X118027007Y-27821365D01*
X118022197Y-27772534D01*
X118022197Y-27748000D01*
X118021595Y-27748000D01*
X118021595Y-27248000D01*
X119521595Y-27248000D01*
G37*
%TD.AperFunction*%
%TA.AperFunction,SMDPad,CuDef*%
%TO.P,JP4,2*%
%TO.N,C-ATN*%
G36*
X118022197Y-26448000D02*
G01*
X118022197Y-26423466D01*
X118027007Y-26374635D01*
X118036579Y-26326510D01*
X118050823Y-26279555D01*
X118069600Y-26234222D01*
X118092731Y-26190949D01*
X118119991Y-26150150D01*
X118151119Y-26112221D01*
X118185816Y-26077524D01*
X118223745Y-26046396D01*
X118264544Y-26019136D01*
X118307817Y-25996005D01*
X118353150Y-25977228D01*
X118400105Y-25962984D01*
X118448230Y-25953412D01*
X118497061Y-25948602D01*
X118521595Y-25948602D01*
X118521595Y-25948000D01*
X119021595Y-25948000D01*
X119021595Y-25948602D01*
X119046129Y-25948602D01*
X119094960Y-25953412D01*
X119143085Y-25962984D01*
X119190040Y-25977228D01*
X119235373Y-25996005D01*
X119278646Y-26019136D01*
X119319445Y-26046396D01*
X119357374Y-26077524D01*
X119392071Y-26112221D01*
X119423199Y-26150150D01*
X119450459Y-26190949D01*
X119473590Y-26234222D01*
X119492367Y-26279555D01*
X119506611Y-26326510D01*
X119516183Y-26374635D01*
X119520993Y-26423466D01*
X119520993Y-26448000D01*
X119521595Y-26448000D01*
X119521595Y-26948000D01*
X118021595Y-26948000D01*
X118021595Y-26448000D01*
X118022197Y-26448000D01*
G37*
%TD.AperFunction*%
%TD*%
%TA.AperFunction,SMDPad,CuDef*%
%TO.P,JP3,1*%
%TO.N,C-D1*%
G36*
X125754094Y-27248000D02*
G01*
X125754094Y-27748000D01*
X125753492Y-27748000D01*
X125753492Y-27772534D01*
X125748682Y-27821365D01*
X125739110Y-27869490D01*
X125724866Y-27916445D01*
X125706089Y-27961778D01*
X125682958Y-28005051D01*
X125655698Y-28045850D01*
X125624570Y-28083779D01*
X125589873Y-28118476D01*
X125551944Y-28149604D01*
X125511145Y-28176864D01*
X125467872Y-28199995D01*
X125422539Y-28218772D01*
X125375584Y-28233016D01*
X125327459Y-28242588D01*
X125278628Y-28247398D01*
X125254094Y-28247398D01*
X125254094Y-28248000D01*
X124754094Y-28248000D01*
X124754094Y-28247398D01*
X124729560Y-28247398D01*
X124680729Y-28242588D01*
X124632604Y-28233016D01*
X124585649Y-28218772D01*
X124540316Y-28199995D01*
X124497043Y-28176864D01*
X124456244Y-28149604D01*
X124418315Y-28118476D01*
X124383618Y-28083779D01*
X124352490Y-28045850D01*
X124325230Y-28005051D01*
X124302099Y-27961778D01*
X124283322Y-27916445D01*
X124269078Y-27869490D01*
X124259506Y-27821365D01*
X124254696Y-27772534D01*
X124254696Y-27748000D01*
X124254094Y-27748000D01*
X124254094Y-27248000D01*
X125754094Y-27248000D01*
G37*
%TD.AperFunction*%
%TA.AperFunction,SMDPad,CuDef*%
%TO.P,JP3,2*%
%TO.N,C-SEL*%
G36*
X124254696Y-26448000D02*
G01*
X124254696Y-26423466D01*
X124259506Y-26374635D01*
X124269078Y-26326510D01*
X124283322Y-26279555D01*
X124302099Y-26234222D01*
X124325230Y-26190949D01*
X124352490Y-26150150D01*
X124383618Y-26112221D01*
X124418315Y-26077524D01*
X124456244Y-26046396D01*
X124497043Y-26019136D01*
X124540316Y-25996005D01*
X124585649Y-25977228D01*
X124632604Y-25962984D01*
X124680729Y-25953412D01*
X124729560Y-25948602D01*
X124754094Y-25948602D01*
X124754094Y-25948000D01*
X125254094Y-25948000D01*
X125254094Y-25948602D01*
X125278628Y-25948602D01*
X125327459Y-25953412D01*
X125375584Y-25962984D01*
X125422539Y-25977228D01*
X125467872Y-25996005D01*
X125511145Y-26019136D01*
X125551944Y-26046396D01*
X125589873Y-26077524D01*
X125624570Y-26112221D01*
X125655698Y-26150150D01*
X125682958Y-26190949D01*
X125706089Y-26234222D01*
X125724866Y-26279555D01*
X125739110Y-26326510D01*
X125748682Y-26374635D01*
X125753492Y-26423466D01*
X125753492Y-26448000D01*
X125754094Y-26448000D01*
X125754094Y-26948000D01*
X124254094Y-26948000D01*
X124254094Y-26448000D01*
X124254696Y-26448000D01*
G37*
%TD.AperFunction*%
%TD*%
%TA.AperFunction,SMDPad,CuDef*%
%TO.P,JP2,1*%
%TO.N,C-D0*%
G36*
X131986593Y-27248000D02*
G01*
X131986593Y-27748000D01*
X131985991Y-27748000D01*
X131985991Y-27772534D01*
X131981181Y-27821365D01*
X131971609Y-27869490D01*
X131957365Y-27916445D01*
X131938588Y-27961778D01*
X131915457Y-28005051D01*
X131888197Y-28045850D01*
X131857069Y-28083779D01*
X131822372Y-28118476D01*
X131784443Y-28149604D01*
X131743644Y-28176864D01*
X131700371Y-28199995D01*
X131655038Y-28218772D01*
X131608083Y-28233016D01*
X131559958Y-28242588D01*
X131511127Y-28247398D01*
X131486593Y-28247398D01*
X131486593Y-28248000D01*
X130986593Y-28248000D01*
X130986593Y-28247398D01*
X130962059Y-28247398D01*
X130913228Y-28242588D01*
X130865103Y-28233016D01*
X130818148Y-28218772D01*
X130772815Y-28199995D01*
X130729542Y-28176864D01*
X130688743Y-28149604D01*
X130650814Y-28118476D01*
X130616117Y-28083779D01*
X130584989Y-28045850D01*
X130557729Y-28005051D01*
X130534598Y-27961778D01*
X130515821Y-27916445D01*
X130501577Y-27869490D01*
X130492005Y-27821365D01*
X130487195Y-27772534D01*
X130487195Y-27748000D01*
X130486593Y-27748000D01*
X130486593Y-27248000D01*
X131986593Y-27248000D01*
G37*
%TD.AperFunction*%
%TA.AperFunction,SMDPad,CuDef*%
%TO.P,JP2,2*%
%TO.N,C-ACK*%
G36*
X130487195Y-26448000D02*
G01*
X130487195Y-26423466D01*
X130492005Y-26374635D01*
X130501577Y-26326510D01*
X130515821Y-26279555D01*
X130534598Y-26234222D01*
X130557729Y-26190949D01*
X130584989Y-26150150D01*
X130616117Y-26112221D01*
X130650814Y-26077524D01*
X130688743Y-26046396D01*
X130729542Y-26019136D01*
X130772815Y-25996005D01*
X130818148Y-25977228D01*
X130865103Y-25962984D01*
X130913228Y-25953412D01*
X130962059Y-25948602D01*
X130986593Y-25948602D01*
X130986593Y-25948000D01*
X131486593Y-25948000D01*
X131486593Y-25948602D01*
X131511127Y-25948602D01*
X131559958Y-25953412D01*
X131608083Y-25962984D01*
X131655038Y-25977228D01*
X131700371Y-25996005D01*
X131743644Y-26019136D01*
X131784443Y-26046396D01*
X131822372Y-26077524D01*
X131857069Y-26112221D01*
X131888197Y-26150150D01*
X131915457Y-26190949D01*
X131938588Y-26234222D01*
X131957365Y-26279555D01*
X131971609Y-26326510D01*
X131981181Y-26374635D01*
X131985991Y-26423466D01*
X131985991Y-26448000D01*
X131986593Y-26448000D01*
X131986593Y-26948000D01*
X130486593Y-26948000D01*
X130486593Y-26448000D01*
X130487195Y-26448000D01*
G37*
%TD.AperFunction*%
%TD*%
%TA.AperFunction,SMDPad,CuDef*%
%TO.P,JP1,1*%
%TO.N,C-DP*%
G36*
X138219099Y-27248000D02*
G01*
X138219099Y-27748000D01*
X138218497Y-27748000D01*
X138218497Y-27772534D01*
X138213687Y-27821365D01*
X138204115Y-27869490D01*
X138189871Y-27916445D01*
X138171094Y-27961778D01*
X138147963Y-28005051D01*
X138120703Y-28045850D01*
X138089575Y-28083779D01*
X138054878Y-28118476D01*
X138016949Y-28149604D01*
X137976150Y-28176864D01*
X137932877Y-28199995D01*
X137887544Y-28218772D01*
X137840589Y-28233016D01*
X137792464Y-28242588D01*
X137743633Y-28247398D01*
X137719099Y-28247398D01*
X137719099Y-28248000D01*
X137219099Y-28248000D01*
X137219099Y-28247398D01*
X137194565Y-28247398D01*
X137145734Y-28242588D01*
X137097609Y-28233016D01*
X137050654Y-28218772D01*
X137005321Y-28199995D01*
X136962048Y-28176864D01*
X136921249Y-28149604D01*
X136883320Y-28118476D01*
X136848623Y-28083779D01*
X136817495Y-28045850D01*
X136790235Y-28005051D01*
X136767104Y-27961778D01*
X136748327Y-27916445D01*
X136734083Y-27869490D01*
X136724511Y-27821365D01*
X136719701Y-27772534D01*
X136719701Y-27748000D01*
X136719099Y-27748000D01*
X136719099Y-27248000D01*
X138219099Y-27248000D01*
G37*
%TD.AperFunction*%
%TA.AperFunction,SMDPad,CuDef*%
%TO.P,JP1,2*%
%TO.N,C-BSY*%
G36*
X136719701Y-26448000D02*
G01*
X136719701Y-26423466D01*
X136724511Y-26374635D01*
X136734083Y-26326510D01*
X136748327Y-26279555D01*
X136767104Y-26234222D01*
X136790235Y-26190949D01*
X136817495Y-26150150D01*
X136848623Y-26112221D01*
X136883320Y-26077524D01*
X136921249Y-26046396D01*
X136962048Y-26019136D01*
X137005321Y-25996005D01*
X137050654Y-25977228D01*
X137097609Y-25962984D01*
X137145734Y-25953412D01*
X137194565Y-25948602D01*
X137219099Y-25948602D01*
X137219099Y-25948000D01*
X137719099Y-25948000D01*
X137719099Y-25948602D01*
X137743633Y-25948602D01*
X137792464Y-25953412D01*
X137840589Y-25962984D01*
X137887544Y-25977228D01*
X137932877Y-25996005D01*
X137976150Y-26019136D01*
X138016949Y-26046396D01*
X138054878Y-26077524D01*
X138089575Y-26112221D01*
X138120703Y-26150150D01*
X138147963Y-26190949D01*
X138171094Y-26234222D01*
X138189871Y-26279555D01*
X138204115Y-26326510D01*
X138213687Y-26374635D01*
X138218497Y-26423466D01*
X138218497Y-26448000D01*
X138219099Y-26448000D01*
X138219099Y-26948000D01*
X136719099Y-26948000D01*
X136719099Y-26448000D01*
X136719701Y-26448000D01*
G37*
%TD.AperFunction*%
%TD*%
%TO.P,R1,2*%
%TO.N,Net-(D1-Pad2)*%
%TA.AperFunction,SMDPad,CuDef*%
G36*
G01*
X82184000Y-39459999D02*
X82184000Y-40360001D01*
G75*
G02*
X81934001Y-40610000I-249999J0D01*
G01*
X81408999Y-40610000D01*
G75*
G02*
X81159000Y-40360001I0J249999D01*
G01*
X81159000Y-39459999D01*
G75*
G02*
X81408999Y-39210000I249999J0D01*
G01*
X81934001Y-39210000D01*
G75*
G02*
X82184000Y-39459999I0J-249999D01*
G01*
G37*
%TD.AperFunction*%
%TO.P,R1,1*%
%TO.N,TERMPOW*%
%TA.AperFunction,SMDPad,CuDef*%
G36*
G01*
X84009000Y-39459999D02*
X84009000Y-40360001D01*
G75*
G02*
X83759001Y-40610000I-249999J0D01*
G01*
X83233999Y-40610000D01*
G75*
G02*
X82984000Y-40360001I0J249999D01*
G01*
X82984000Y-39459999D01*
G75*
G02*
X83233999Y-39210000I249999J0D01*
G01*
X83759001Y-39210000D01*
G75*
G02*
X84009000Y-39459999I0J-249999D01*
G01*
G37*
%TD.AperFunction*%
%TD*%
%TO.P,D1,2*%
%TO.N,Net-(D1-Pad2)*%
%TA.AperFunction,SMDPad,CuDef*%
G36*
G01*
X82134000Y-41485750D02*
X82134000Y-42398250D01*
G75*
G02*
X81890250Y-42642000I-243750J0D01*
G01*
X81402750Y-42642000D01*
G75*
G02*
X81159000Y-42398250I0J243750D01*
G01*
X81159000Y-41485750D01*
G75*
G02*
X81402750Y-41242000I243750J0D01*
G01*
X81890250Y-41242000D01*
G75*
G02*
X82134000Y-41485750I0J-243750D01*
G01*
G37*
%TD.AperFunction*%
%TO.P,D1,1*%
%TO.N,GND*%
%TA.AperFunction,SMDPad,CuDef*%
G36*
G01*
X84009000Y-41485750D02*
X84009000Y-42398250D01*
G75*
G02*
X83765250Y-42642000I-243750J0D01*
G01*
X83277750Y-42642000D01*
G75*
G02*
X83034000Y-42398250I0J243750D01*
G01*
X83034000Y-41485750D01*
G75*
G02*
X83277750Y-41242000I243750J0D01*
G01*
X83765250Y-41242000D01*
G75*
G02*
X84009000Y-41485750I0J-243750D01*
G01*
G37*
%TD.AperFunction*%
%TD*%
D20*
%TO.N,GND*%
X116874000Y-31274000D03*
X112810000Y-31528000D03*
X106968000Y-29750000D03*
X100110000Y-30258000D03*
X128304000Y-31782000D03*
X124748000Y-29242000D03*
%TO.N,C-BSY*%
X136432000Y-24162000D03*
X115858000Y-24162000D03*
X125286242Y-23709990D03*
%TO.N,C-ACK*%
X130318290Y-24614010D03*
X116620000Y-24162000D03*
X127270290Y-24455392D03*
%TO.N,C-ATN*%
X119064700Y-25168032D03*
X117551544Y-25184410D03*
%TO.N,C-D1*%
X85886000Y-23146000D03*
X126272000Y-23146000D03*
X109254000Y-21622000D03*
%TO.N,C-D3*%
X90966000Y-23400000D03*
X113826000Y-23400000D03*
X104537024Y-22528976D03*
%TO.N,C-D5*%
X95791699Y-23432979D03*
X101391462Y-23780570D03*
%TO.N,C-D6*%
X95030000Y-23709990D03*
X98495096Y-23709990D03*
%TO.N,C-D7*%
X88934000Y-24162000D03*
X99928546Y-25122010D03*
X96355990Y-25122010D03*
%TO.N,C-C_D*%
X137194000Y-24924000D03*
X104943610Y-25122010D03*
X127007423Y-25913423D03*
D21*
%TO.N,TERMPOW*%
X110016000Y-27718000D03*
X97824000Y-27718000D03*
D20*
%TO.N,C-I_O*%
X141738501Y-25658501D03*
X98947106Y-25884010D03*
X123359109Y-26937127D03*
%TO.N,C-REQ*%
X139734000Y-25432000D03*
X86394000Y-25432000D03*
X129237424Y-26365424D03*
%TO.N,C-SEL*%
X134490904Y-24614010D03*
X123510467Y-25327979D03*
X113895089Y-25020436D03*
%TO.N,C-MSG*%
X132114000Y-24670000D03*
X92236000Y-24416000D03*
X128215022Y-25343022D03*
%TO.N,C-RST*%
X111286000Y-24416000D03*
X129572471Y-24891021D03*
X121930989Y-24439011D03*
%TO.N,C-DP*%
X138718000Y-23908000D03*
X110778000Y-23908000D03*
X103850121Y-23977038D03*
%TO.N,C-D4*%
X93478501Y-23681499D03*
X107729699Y-23455063D03*
X103398111Y-22892000D03*
%TO.N,C-D2*%
X88426000Y-23146000D03*
X119922000Y-23146000D03*
X105698000Y-22130000D03*
%TO.N,C-D0*%
X83346000Y-22638000D03*
X132466509Y-22664520D03*
X110976001Y-21169999D03*
%TD*%
D22*
%TO.N,GND*%
X122782099Y-37384501D02*
X122496600Y-37670000D01*
X122782099Y-20158901D02*
X122782099Y-37384501D01*
X122906500Y-20034500D02*
X122782099Y-20158901D01*
X114472099Y-36277978D02*
X114472099Y-20848901D01*
X115864121Y-37670000D02*
X114472099Y-36277978D01*
X116956600Y-37670000D02*
X115864121Y-37670000D01*
X114472099Y-20848901D02*
X115286500Y-20034500D01*
X101429079Y-37670000D02*
X102821101Y-36277978D01*
X102821101Y-24393629D02*
X102586500Y-24159028D01*
X102821101Y-36277978D02*
X102821101Y-24393629D01*
X102586500Y-24159028D02*
X102586500Y-20034500D01*
X100336600Y-37670000D02*
X101429079Y-37670000D01*
D23*
%TO.N,C-BSY*%
X136432000Y-25410901D02*
X137469099Y-26448000D01*
X136432000Y-24162000D02*
X136432000Y-25410901D01*
X124394499Y-18546501D02*
X124394499Y-22818247D01*
X125446500Y-17494500D02*
X124394499Y-18546501D01*
X124394499Y-22818247D02*
X125286242Y-23709990D01*
X116107999Y-34293601D02*
X116107999Y-24411999D01*
X115571600Y-34830000D02*
X116107999Y-34293601D01*
X116107999Y-24411999D02*
X115858000Y-24162000D01*
%TO.N,C-ACK*%
X130318290Y-25529697D02*
X130318290Y-24614010D01*
X131236593Y-26448000D02*
X130318290Y-25529697D01*
X118341600Y-34830000D02*
X118341600Y-29947600D01*
X118341600Y-29947600D02*
X116620000Y-28226000D01*
X116620000Y-28226000D02*
X116620000Y-24162000D01*
X127986500Y-17494500D02*
X126849621Y-18631379D01*
X126849621Y-18631379D02*
X126849621Y-24034723D01*
X126849621Y-24034723D02*
X127270290Y-24455392D01*
%TO.N,C-ATN*%
X119064700Y-18796300D02*
X119064700Y-25168032D01*
X120366500Y-17494500D02*
X119064700Y-18796300D01*
X117551544Y-25227949D02*
X117551544Y-25184410D01*
X118771595Y-26448000D02*
X117551544Y-25227949D01*
X119726600Y-37670000D02*
X119726600Y-30570600D01*
X119726600Y-30570600D02*
X117128000Y-27972000D01*
X117128000Y-25607954D02*
X117551544Y-25184410D01*
X117128000Y-27972000D02*
X117128000Y-25607954D01*
%TO.N,C-D1*%
X85886000Y-18574000D02*
X85886000Y-23146000D01*
X84806500Y-17494500D02*
X85886000Y-18574000D01*
X126272000Y-27227686D02*
X126272000Y-23146000D01*
X125751686Y-27748000D02*
X126272000Y-27227686D01*
X125004094Y-27748000D02*
X125751686Y-27748000D01*
X108646600Y-22229400D02*
X109254000Y-21622000D01*
X108646600Y-37670000D02*
X108646600Y-22229400D01*
%TO.N,C-D3*%
X90966000Y-18574000D02*
X90966000Y-23400000D01*
X89886500Y-17494500D02*
X90966000Y-18574000D01*
X113286688Y-27748000D02*
X113510787Y-27523901D01*
X113443087Y-25237398D02*
X113443087Y-23782913D01*
X112539096Y-27748000D02*
X113286688Y-27748000D01*
X113510787Y-25305098D02*
X113443087Y-25237398D01*
X113510787Y-27523901D02*
X113510787Y-25305098D01*
X113443087Y-23782913D02*
X113826000Y-23400000D01*
X104537024Y-23955723D02*
X104537024Y-22528976D01*
X103719101Y-24773646D02*
X104537024Y-23955723D01*
X103719101Y-34057501D02*
X103719101Y-24773646D01*
X104491600Y-34830000D02*
X103719101Y-34057501D01*
%TO.N,C-D5*%
X96041999Y-23182679D02*
X95791699Y-23432979D01*
X94966500Y-17494500D02*
X96041999Y-18569999D01*
X96041999Y-18569999D02*
X96041999Y-23182679D01*
X100821690Y-27748000D02*
X101391462Y-27178228D01*
X101391462Y-27178228D02*
X101391462Y-23780570D01*
X100074098Y-27748000D02*
X100821690Y-27748000D01*
X101721600Y-27508366D02*
X101391462Y-27178228D01*
X101721600Y-34830000D02*
X101721600Y-27508366D01*
%TO.N,C-D6*%
X94746000Y-27748000D02*
X95030000Y-27464000D01*
X97506500Y-17494500D02*
X98586000Y-18574000D01*
X95030000Y-27464000D02*
X95030000Y-23709990D01*
X93841599Y-27748000D02*
X94746000Y-27748000D01*
X98586000Y-23619086D02*
X98495096Y-23709990D01*
X98586000Y-18574000D02*
X98586000Y-23619086D01*
X98951600Y-34830000D02*
X98951600Y-27575600D01*
X98495096Y-27119096D02*
X98495096Y-23709990D01*
X98951600Y-27575600D02*
X98495096Y-27119096D01*
%TO.N,C-D7*%
X87844786Y-27748000D02*
X87609100Y-27748000D01*
X88934000Y-26658786D02*
X87844786Y-27748000D01*
X88934000Y-24162000D02*
X88934000Y-26658786D01*
X100046500Y-17494500D02*
X101098501Y-18546501D01*
X101098501Y-18546501D02*
X101098501Y-23350278D01*
X101098501Y-23350278D02*
X99928546Y-24520233D01*
X99928546Y-24520233D02*
X99928546Y-25122010D01*
X96181600Y-25296400D02*
X96355990Y-25122010D01*
X96181600Y-34830000D02*
X96181600Y-25296400D01*
%TO.N,C-C_D*%
X137094499Y-24824499D02*
X137194000Y-24924000D01*
X137094499Y-18546501D02*
X137094499Y-24824499D01*
X138146500Y-17494500D02*
X137094499Y-18546501D01*
X106306597Y-26448000D02*
X104980607Y-25122010D01*
X104980607Y-25122010D02*
X104943610Y-25122010D01*
X125266600Y-37670000D02*
X125266600Y-30247400D01*
X127007423Y-28506577D02*
X127007423Y-25913423D01*
X125266600Y-30247400D02*
X127007423Y-28506577D01*
%TO.N,TERMPOW*%
X95326600Y-39910000D02*
X97566600Y-37670000D01*
X83496500Y-39910000D02*
X95326600Y-39910000D01*
D24*
X111644499Y-18596501D02*
X111644499Y-21771501D01*
X112746500Y-17494500D02*
X111644499Y-18596501D01*
X111537086Y-21878914D02*
X111537086Y-22132914D01*
X111644499Y-21771501D02*
X111537086Y-21878914D01*
X111537086Y-22132914D02*
X109762000Y-23908000D01*
X109762000Y-27464000D02*
X110016000Y-27718000D01*
X109762000Y-23908000D02*
X109762000Y-27464000D01*
X97824000Y-37412600D02*
X97566600Y-37670000D01*
X97824000Y-27718000D02*
X97824000Y-37412600D01*
D23*
%TO.N,Net-(D1-Pad2)*%
X81671500Y-41917000D02*
X81646500Y-41942000D01*
X81671500Y-39910000D02*
X81671500Y-41917000D01*
%TO.N,C-I_O*%
X141738501Y-18982499D02*
X141738501Y-25658501D01*
X143226500Y-17494500D02*
X141738501Y-18982499D01*
X100074098Y-26448000D02*
X99510108Y-25884010D01*
X99510108Y-25884010D02*
X98947106Y-25884010D01*
X123881600Y-34830000D02*
X123881600Y-27459618D01*
X123881600Y-27459618D02*
X123359109Y-26937127D01*
%TO.N,C-REQ*%
X139634499Y-25332499D02*
X139734000Y-25432000D01*
X140686500Y-17494500D02*
X139634499Y-18546501D01*
X139634499Y-18546501D02*
X139634499Y-25332499D01*
X86394000Y-25432000D02*
X86394000Y-26194000D01*
X86648000Y-26448000D02*
X87609100Y-26448000D01*
X86394000Y-26194000D02*
X86648000Y-26448000D01*
X129421600Y-34830000D02*
X129421600Y-26549600D01*
X129421600Y-26549600D02*
X129237424Y-26365424D01*
%TO.N,C-SEL*%
X135606500Y-17494500D02*
X134490904Y-18610096D01*
X134490904Y-18610096D02*
X134490904Y-24614010D01*
X123884073Y-25327979D02*
X123510467Y-25327979D01*
X125004094Y-26448000D02*
X123884073Y-25327979D01*
X114186600Y-36577521D02*
X113895089Y-36286010D01*
X114186600Y-37670000D02*
X114186600Y-36577521D01*
X113895089Y-36286010D02*
X113895089Y-25020436D01*
%TO.N,C-MSG*%
X133066500Y-17494500D02*
X132014499Y-18546501D01*
X132014499Y-18546501D02*
X132014499Y-24570499D01*
X132014499Y-24570499D02*
X132114000Y-24670000D01*
X92236000Y-24416000D02*
X92490000Y-24670000D01*
X92490000Y-24670000D02*
X92490000Y-26194000D01*
X92744000Y-26448000D02*
X93841599Y-26448000D01*
X92490000Y-26194000D02*
X92744000Y-26448000D01*
X126651600Y-34830000D02*
X126651600Y-30640400D01*
X128215022Y-29076978D02*
X128215022Y-25343022D01*
X126651600Y-30640400D02*
X128215022Y-29076978D01*
%TO.N,C-RST*%
X111286000Y-24416000D02*
X111286000Y-26194000D01*
X111540000Y-26448000D02*
X112539096Y-26448000D01*
X111286000Y-26194000D02*
X111540000Y-26448000D01*
X129322472Y-18698528D02*
X129322472Y-24641022D01*
X130526500Y-17494500D02*
X129322472Y-18698528D01*
X129322472Y-24641022D02*
X129572471Y-24891021D01*
X121111600Y-34830000D02*
X121111600Y-25258400D01*
X121111600Y-25258400D02*
X121930989Y-24439011D01*
%TO.N,C-DP*%
X138216691Y-27748000D02*
X137469099Y-27748000D01*
X138718000Y-27246691D02*
X138216691Y-27748000D01*
X138718000Y-23908000D02*
X138718000Y-27246691D01*
X111416600Y-37670000D02*
X111416600Y-28610600D01*
X111416600Y-28610600D02*
X110778000Y-27972000D01*
X110778000Y-27972000D02*
X110778000Y-23908000D01*
X102586500Y-17494500D02*
X103850121Y-18758121D01*
X103850121Y-18758121D02*
X103850121Y-23977038D01*
%TO.N,C-D4*%
X92426500Y-17494500D02*
X93478501Y-18546501D01*
X93478501Y-23880501D02*
X93478501Y-23681499D01*
X93478501Y-18546501D02*
X93478501Y-23681499D01*
X106306597Y-27748000D02*
X107054189Y-27748000D01*
X107729699Y-27072490D02*
X107729699Y-23455063D01*
X107054189Y-27748000D02*
X107729699Y-27072490D01*
X103106600Y-37670000D02*
X103223112Y-37553488D01*
X103398111Y-22892000D02*
X103398111Y-37378489D01*
X103398111Y-37378489D02*
X103106600Y-37670000D01*
%TO.N,C-D2*%
X87346500Y-17494500D02*
X88426000Y-18574000D01*
X88426000Y-18574000D02*
X88426000Y-23146000D01*
X119922000Y-27345187D02*
X119922000Y-23146000D01*
X119519187Y-27748000D02*
X119922000Y-27345187D01*
X118771595Y-27748000D02*
X119519187Y-27748000D01*
X105876600Y-30436600D02*
X104428000Y-28988000D01*
X105698000Y-23186499D02*
X105698000Y-22130000D01*
X104428000Y-28988000D02*
X104428000Y-24456499D01*
X104428000Y-24456499D02*
X105698000Y-23186499D01*
X105876600Y-37670000D02*
X105876600Y-30436600D01*
%TO.N,C-D0*%
X83318501Y-18546501D02*
X83318501Y-22610501D01*
X82266500Y-17494500D02*
X83318501Y-18546501D01*
X83318501Y-22610501D02*
X83346000Y-22638000D01*
X131984185Y-27748000D02*
X132716508Y-27015677D01*
X131236593Y-27748000D02*
X131984185Y-27748000D01*
X132716508Y-22914519D02*
X132466509Y-22664520D01*
X132716508Y-27015677D02*
X132716508Y-22914519D01*
X110031600Y-34830000D02*
X109259101Y-34057501D01*
X109259101Y-34057501D02*
X109259101Y-22886899D01*
X109259101Y-22886899D02*
X110976001Y-21169999D01*
%TD*%
D25*
%TO.N,GND*%
X133193500Y-19907500D02*
X133213500Y-19907500D01*
X133213500Y-20161500D01*
X133193500Y-20161500D01*
X133193500Y-21354655D01*
X133423390Y-21475976D01*
X133570599Y-21431325D01*
X133780904Y-21331155D01*
X133780905Y-24083641D01*
X133706627Y-24194805D01*
X133639914Y-24355865D01*
X133605904Y-24526845D01*
X133605904Y-24701175D01*
X133639914Y-24872155D01*
X133706627Y-25033215D01*
X133803480Y-25178165D01*
X133926749Y-25301434D01*
X134071699Y-25398287D01*
X134232759Y-25465000D01*
X134403739Y-25499010D01*
X134578069Y-25499010D01*
X134749049Y-25465000D01*
X134910109Y-25398287D01*
X135055059Y-25301434D01*
X135178328Y-25178165D01*
X135275181Y-25033215D01*
X135341894Y-24872155D01*
X135375904Y-24701175D01*
X135375904Y-24526845D01*
X135341894Y-24355865D01*
X135275181Y-24194805D01*
X135200904Y-24083642D01*
X135200904Y-21461203D01*
X135249610Y-21475976D01*
X135479500Y-21354655D01*
X135479500Y-20161500D01*
X135459500Y-20161500D01*
X135459500Y-19907500D01*
X135479500Y-19907500D01*
X135479500Y-19887500D01*
X135733500Y-19887500D01*
X135733500Y-19907500D01*
X135753500Y-19907500D01*
X135753500Y-20161500D01*
X135733500Y-20161500D01*
X135733500Y-21354655D01*
X135963390Y-21475976D01*
X136110599Y-21431325D01*
X136373420Y-21306141D01*
X136384499Y-21297877D01*
X136384500Y-23277000D01*
X136344835Y-23277000D01*
X136173855Y-23311010D01*
X136012795Y-23377723D01*
X135867845Y-23474576D01*
X135744576Y-23597845D01*
X135647723Y-23742795D01*
X135581010Y-23903855D01*
X135547000Y-24074835D01*
X135547000Y-24249165D01*
X135581010Y-24420145D01*
X135647723Y-24581205D01*
X135722000Y-24692368D01*
X135722001Y-25376017D01*
X135718565Y-25410901D01*
X135732274Y-25550085D01*
X135772872Y-25683920D01*
X135807270Y-25748273D01*
X135838801Y-25807264D01*
X135927526Y-25915376D01*
X135954616Y-25937609D01*
X136133569Y-26116561D01*
X136114817Y-26178377D01*
X136095695Y-26274510D01*
X136083435Y-26398991D01*
X136083435Y-26423550D01*
X136081027Y-26448000D01*
X136081027Y-26948000D01*
X136093287Y-27072482D01*
X136101028Y-27098000D01*
X136093287Y-27123518D01*
X136081027Y-27248000D01*
X136081027Y-27748000D01*
X136083435Y-27772450D01*
X136083435Y-27797009D01*
X136095695Y-27921490D01*
X136114817Y-28017623D01*
X136151126Y-28137319D01*
X136188635Y-28227875D01*
X136247601Y-28338192D01*
X136302057Y-28419691D01*
X136381409Y-28516382D01*
X136450717Y-28585690D01*
X136547408Y-28665042D01*
X136628907Y-28719498D01*
X136739224Y-28778464D01*
X136829780Y-28815973D01*
X136949476Y-28852282D01*
X137045609Y-28871404D01*
X137170090Y-28883664D01*
X137194649Y-28883664D01*
X137219099Y-28886072D01*
X137719099Y-28886072D01*
X137743549Y-28883664D01*
X137768108Y-28883664D01*
X137892589Y-28871404D01*
X137988722Y-28852282D01*
X138108418Y-28815973D01*
X138198974Y-28778464D01*
X138309291Y-28719498D01*
X138390790Y-28665042D01*
X138487481Y-28585690D01*
X138556789Y-28516382D01*
X138636141Y-28419691D01*
X138690597Y-28338192D01*
X138749563Y-28227875D01*
X138755683Y-28213099D01*
X139195384Y-27773399D01*
X139222475Y-27751166D01*
X139311200Y-27643054D01*
X139377128Y-27519711D01*
X139417727Y-27385875D01*
X139428000Y-27281568D01*
X139428000Y-27281566D01*
X139431435Y-27246691D01*
X139428000Y-27211816D01*
X139428000Y-26263168D01*
X139475855Y-26282990D01*
X139646835Y-26317000D01*
X139821165Y-26317000D01*
X139992145Y-26282990D01*
X140153205Y-26216277D01*
X140298155Y-26119424D01*
X140421424Y-25996155D01*
X140518277Y-25851205D01*
X140584990Y-25690145D01*
X140619000Y-25519165D01*
X140619000Y-25344835D01*
X140584990Y-25173855D01*
X140518277Y-25012795D01*
X140421424Y-24867845D01*
X140344499Y-24790920D01*
X140344499Y-21468119D01*
X140559500Y-21354655D01*
X140559500Y-20161500D01*
X140539500Y-20161500D01*
X140539500Y-19907500D01*
X140559500Y-19907500D01*
X140559500Y-19887500D01*
X140813500Y-19887500D01*
X140813500Y-19907500D01*
X140833500Y-19907500D01*
X140833500Y-20161500D01*
X140813500Y-20161500D01*
X140813500Y-21354655D01*
X141028501Y-21468119D01*
X141028502Y-25128132D01*
X140954224Y-25239296D01*
X140887511Y-25400356D01*
X140853501Y-25571336D01*
X140853501Y-25745666D01*
X140887511Y-25916646D01*
X140954224Y-26077706D01*
X141051077Y-26222656D01*
X141174346Y-26345925D01*
X141319296Y-26442778D01*
X141480356Y-26509491D01*
X141651336Y-26543501D01*
X141825666Y-26543501D01*
X141996646Y-26509491D01*
X142157706Y-26442778D01*
X142302656Y-26345925D01*
X142425925Y-26222656D01*
X142522778Y-26077706D01*
X142589491Y-25916646D01*
X142623501Y-25745666D01*
X142623501Y-25571336D01*
X142589491Y-25400356D01*
X142522778Y-25239296D01*
X142448501Y-25128133D01*
X142448501Y-21297877D01*
X142459580Y-21306141D01*
X142722401Y-21431325D01*
X142869610Y-21475976D01*
X143099500Y-21354655D01*
X143099500Y-20161500D01*
X143079500Y-20161500D01*
X143079500Y-19907500D01*
X143099500Y-19907500D01*
X143099500Y-19887500D01*
X143353500Y-19887500D01*
X143353500Y-19907500D01*
X143373500Y-19907500D01*
X143373500Y-20161500D01*
X143353500Y-20161500D01*
X143353500Y-21354655D01*
X143583390Y-21475976D01*
X143730599Y-21431325D01*
X143993420Y-21306141D01*
X144226769Y-21132088D01*
X144352000Y-20993156D01*
X144352001Y-44703712D01*
X144343182Y-44793653D01*
X144326437Y-44849116D01*
X144299239Y-44900268D01*
X144262627Y-44945159D01*
X144217987Y-44982088D01*
X144167026Y-45009642D01*
X144111688Y-45026772D01*
X144023895Y-45036000D01*
X139185370Y-45036000D01*
X139182500Y-45006865D01*
X139182500Y-39995135D01*
X139185862Y-39961000D01*
X139172443Y-39824756D01*
X139132702Y-39693748D01*
X139068167Y-39573011D01*
X138981317Y-39467183D01*
X138875489Y-39380333D01*
X138754752Y-39315798D01*
X138623744Y-39276057D01*
X138521635Y-39266000D01*
X138521634Y-39266000D01*
X138487500Y-39262638D01*
X138453365Y-39266000D01*
X136887552Y-39266000D01*
X136927238Y-39262008D01*
X137503214Y-39085980D01*
X138023161Y-38808062D01*
X138290026Y-38398031D01*
X136321600Y-36429605D01*
X134353174Y-38398031D01*
X134620039Y-38808062D01*
X135151787Y-39090867D01*
X135728491Y-39264500D01*
X135744052Y-39266000D01*
X121503635Y-39266000D01*
X121469500Y-39262638D01*
X121333257Y-39276057D01*
X121202249Y-39315798D01*
X121081512Y-39380333D01*
X120975684Y-39467183D01*
X120888834Y-39573011D01*
X120824299Y-39693748D01*
X120784558Y-39824756D01*
X120774501Y-39926865D01*
X120774500Y-45006865D01*
X120771630Y-45036000D01*
X81576119Y-45036000D01*
X81486420Y-45027205D01*
X81423336Y-45008159D01*
X81365155Y-44977223D01*
X81314091Y-44935576D01*
X81272088Y-44884804D01*
X81240747Y-44826840D01*
X81219637Y-44758645D01*
X81212000Y-44695951D01*
X81212000Y-43257451D01*
X81230715Y-43263128D01*
X81402750Y-43280072D01*
X81890250Y-43280072D01*
X82062285Y-43263128D01*
X82227709Y-43212947D01*
X82380164Y-43131458D01*
X82513792Y-43021792D01*
X82519008Y-43015436D01*
X82582815Y-43093185D01*
X82679506Y-43172537D01*
X82789820Y-43231502D01*
X82909518Y-43267812D01*
X83034000Y-43280072D01*
X83235750Y-43277000D01*
X83394500Y-43118250D01*
X83394500Y-42069000D01*
X83648500Y-42069000D01*
X83648500Y-43118250D01*
X83807250Y-43277000D01*
X84009000Y-43280072D01*
X84133482Y-43267812D01*
X84253180Y-43231502D01*
X84363494Y-43172537D01*
X84460185Y-43093185D01*
X84539537Y-42996494D01*
X84598502Y-42886180D01*
X84634812Y-42766482D01*
X84647072Y-42642000D01*
X84644000Y-42227750D01*
X84485250Y-42069000D01*
X83648500Y-42069000D01*
X83394500Y-42069000D01*
X83374500Y-42069000D01*
X83374500Y-41815000D01*
X83394500Y-41815000D01*
X83394500Y-41795000D01*
X83648500Y-41795000D01*
X83648500Y-41815000D01*
X84485250Y-41815000D01*
X84644000Y-41656250D01*
X84647072Y-41242000D01*
X84634812Y-41117518D01*
X84598502Y-40997820D01*
X84539537Y-40887506D01*
X84502979Y-40842959D01*
X84579472Y-40699851D01*
X84603694Y-40620000D01*
X95291725Y-40620000D01*
X95326600Y-40623435D01*
X95361475Y-40620000D01*
X95361477Y-40620000D01*
X95465784Y-40609727D01*
X95599620Y-40569128D01*
X95722963Y-40503200D01*
X95831075Y-40414475D01*
X95853312Y-40387379D01*
X97207122Y-39033570D01*
X97427973Y-39077500D01*
X97705227Y-39077500D01*
X97977153Y-39023410D01*
X98233301Y-38917310D01*
X98463829Y-38763276D01*
X98584041Y-38643064D01*
X99543141Y-38643064D01*
X99611393Y-38884227D01*
X99862211Y-39002377D01*
X100131260Y-39069324D01*
X100408200Y-39082496D01*
X100682388Y-39041387D01*
X100943288Y-38947576D01*
X101061807Y-38884227D01*
X101130059Y-38643064D01*
X100336600Y-37849605D01*
X99543141Y-38643064D01*
X98584041Y-38643064D01*
X98659876Y-38567229D01*
X98813910Y-38336701D01*
X98920010Y-38080553D01*
X98951322Y-37923138D01*
X98965213Y-38015788D01*
X99059024Y-38276688D01*
X99122373Y-38395207D01*
X99363536Y-38463459D01*
X100156995Y-37670000D01*
X99363536Y-36876541D01*
X99122373Y-36944793D01*
X99004223Y-37195611D01*
X98950366Y-37412054D01*
X98920010Y-37259447D01*
X98813910Y-37003299D01*
X98659876Y-36772771D01*
X98584041Y-36696936D01*
X99543141Y-36696936D01*
X100336600Y-37490395D01*
X101130059Y-36696936D01*
X101061807Y-36455773D01*
X100810989Y-36337623D01*
X100541940Y-36270676D01*
X100265000Y-36257504D01*
X99990812Y-36298613D01*
X99729912Y-36392424D01*
X99611393Y-36455773D01*
X99543141Y-36696936D01*
X98584041Y-36696936D01*
X98584000Y-36696895D01*
X98584000Y-36191954D01*
X98812973Y-36237500D01*
X99090227Y-36237500D01*
X99362153Y-36183410D01*
X99618301Y-36077310D01*
X99848829Y-35923276D01*
X100044876Y-35727229D01*
X100198910Y-35496701D01*
X100305010Y-35240553D01*
X100336600Y-35081741D01*
X100368190Y-35240553D01*
X100474290Y-35496701D01*
X100628324Y-35727229D01*
X100824371Y-35923276D01*
X101054899Y-36077310D01*
X101311047Y-36183410D01*
X101582973Y-36237500D01*
X101860227Y-36237500D01*
X102132153Y-36183410D01*
X102388301Y-36077310D01*
X102618829Y-35923276D01*
X102688112Y-35853993D01*
X102688112Y-36319877D01*
X102439899Y-36422690D01*
X102209371Y-36576724D01*
X102013324Y-36772771D01*
X101859290Y-37003299D01*
X101753190Y-37259447D01*
X101721878Y-37416862D01*
X101707987Y-37324212D01*
X101614176Y-37063312D01*
X101550827Y-36944793D01*
X101309664Y-36876541D01*
X100516205Y-37670000D01*
X101309664Y-38463459D01*
X101550827Y-38395207D01*
X101668977Y-38144389D01*
X101722834Y-37927946D01*
X101753190Y-38080553D01*
X101859290Y-38336701D01*
X102013324Y-38567229D01*
X102209371Y-38763276D01*
X102439899Y-38917310D01*
X102696047Y-39023410D01*
X102967973Y-39077500D01*
X103245227Y-39077500D01*
X103517153Y-39023410D01*
X103773301Y-38917310D01*
X104003829Y-38763276D01*
X104199876Y-38567229D01*
X104353910Y-38336701D01*
X104460010Y-38080553D01*
X104491600Y-37921741D01*
X104523190Y-38080553D01*
X104629290Y-38336701D01*
X104783324Y-38567229D01*
X104979371Y-38763276D01*
X105209899Y-38917310D01*
X105466047Y-39023410D01*
X105737973Y-39077500D01*
X106015227Y-39077500D01*
X106287153Y-39023410D01*
X106543301Y-38917310D01*
X106773829Y-38763276D01*
X106969876Y-38567229D01*
X107123910Y-38336701D01*
X107230010Y-38080553D01*
X107261600Y-37921741D01*
X107293190Y-38080553D01*
X107399290Y-38336701D01*
X107553324Y-38567229D01*
X107749371Y-38763276D01*
X107979899Y-38917310D01*
X108236047Y-39023410D01*
X108507973Y-39077500D01*
X108785227Y-39077500D01*
X109057153Y-39023410D01*
X109313301Y-38917310D01*
X109543829Y-38763276D01*
X109739876Y-38567229D01*
X109893910Y-38336701D01*
X110000010Y-38080553D01*
X110031600Y-37921741D01*
X110063190Y-38080553D01*
X110169290Y-38336701D01*
X110323324Y-38567229D01*
X110519371Y-38763276D01*
X110749899Y-38917310D01*
X111006047Y-39023410D01*
X111277973Y-39077500D01*
X111555227Y-39077500D01*
X111827153Y-39023410D01*
X112083301Y-38917310D01*
X112313829Y-38763276D01*
X112509876Y-38567229D01*
X112663910Y-38336701D01*
X112770010Y-38080553D01*
X112801600Y-37921741D01*
X112833190Y-38080553D01*
X112939290Y-38336701D01*
X113093324Y-38567229D01*
X113289371Y-38763276D01*
X113519899Y-38917310D01*
X113776047Y-39023410D01*
X114047973Y-39077500D01*
X114325227Y-39077500D01*
X114597153Y-39023410D01*
X114853301Y-38917310D01*
X115083829Y-38763276D01*
X115204041Y-38643064D01*
X116163141Y-38643064D01*
X116231393Y-38884227D01*
X116482211Y-39002377D01*
X116751260Y-39069324D01*
X117028200Y-39082496D01*
X117302388Y-39041387D01*
X117563288Y-38947576D01*
X117681807Y-38884227D01*
X117750059Y-38643064D01*
X116956600Y-37849605D01*
X116163141Y-38643064D01*
X115204041Y-38643064D01*
X115279876Y-38567229D01*
X115433910Y-38336701D01*
X115540010Y-38080553D01*
X115571322Y-37923138D01*
X115585213Y-38015788D01*
X115679024Y-38276688D01*
X115742373Y-38395207D01*
X115983536Y-38463459D01*
X116776995Y-37670000D01*
X115983536Y-36876541D01*
X115742373Y-36944793D01*
X115624223Y-37195611D01*
X115570366Y-37412054D01*
X115540010Y-37259447D01*
X115433910Y-37003299D01*
X115279876Y-36772771D01*
X115204041Y-36696936D01*
X116163141Y-36696936D01*
X116956600Y-37490395D01*
X117750059Y-36696936D01*
X117681807Y-36455773D01*
X117430989Y-36337623D01*
X117161940Y-36270676D01*
X116885000Y-36257504D01*
X116610812Y-36298613D01*
X116349912Y-36392424D01*
X116231393Y-36455773D01*
X116163141Y-36696936D01*
X115204041Y-36696936D01*
X115083829Y-36576724D01*
X114887004Y-36445210D01*
X114886327Y-36438337D01*
X114845728Y-36304501D01*
X114779800Y-36181158D01*
X114691075Y-36073046D01*
X114663974Y-36050805D01*
X114605089Y-35991920D01*
X114605089Y-35853994D01*
X114674371Y-35923276D01*
X114904899Y-36077310D01*
X115161047Y-36183410D01*
X115432973Y-36237500D01*
X115710227Y-36237500D01*
X115982153Y-36183410D01*
X116238301Y-36077310D01*
X116468829Y-35923276D01*
X116664876Y-35727229D01*
X116818910Y-35496701D01*
X116925010Y-35240553D01*
X116956600Y-35081741D01*
X116988190Y-35240553D01*
X117094290Y-35496701D01*
X117248324Y-35727229D01*
X117444371Y-35923276D01*
X117674899Y-36077310D01*
X117931047Y-36183410D01*
X118202973Y-36237500D01*
X118480227Y-36237500D01*
X118752153Y-36183410D01*
X119008301Y-36077310D01*
X119016600Y-36071765D01*
X119016600Y-36451621D01*
X118829371Y-36576724D01*
X118633324Y-36772771D01*
X118479290Y-37003299D01*
X118373190Y-37259447D01*
X118341878Y-37416862D01*
X118327987Y-37324212D01*
X118234176Y-37063312D01*
X118170827Y-36944793D01*
X117929664Y-36876541D01*
X117136205Y-37670000D01*
X117929664Y-38463459D01*
X118170827Y-38395207D01*
X118288977Y-38144389D01*
X118342834Y-37927946D01*
X118373190Y-38080553D01*
X118479290Y-38336701D01*
X118633324Y-38567229D01*
X118829371Y-38763276D01*
X119059899Y-38917310D01*
X119316047Y-39023410D01*
X119587973Y-39077500D01*
X119865227Y-39077500D01*
X120137153Y-39023410D01*
X120393301Y-38917310D01*
X120623829Y-38763276D01*
X120744041Y-38643064D01*
X121703141Y-38643064D01*
X121771393Y-38884227D01*
X122022211Y-39002377D01*
X122291260Y-39069324D01*
X122568200Y-39082496D01*
X122842388Y-39041387D01*
X123103288Y-38947576D01*
X123221807Y-38884227D01*
X123290059Y-38643064D01*
X122496600Y-37849605D01*
X121703141Y-38643064D01*
X120744041Y-38643064D01*
X120819876Y-38567229D01*
X120973910Y-38336701D01*
X121080010Y-38080553D01*
X121111322Y-37923138D01*
X121125213Y-38015788D01*
X121219024Y-38276688D01*
X121282373Y-38395207D01*
X121523536Y-38463459D01*
X122316995Y-37670000D01*
X121523536Y-36876541D01*
X121282373Y-36944793D01*
X121164223Y-37195611D01*
X121110366Y-37412054D01*
X121080010Y-37259447D01*
X120973910Y-37003299D01*
X120819876Y-36772771D01*
X120744041Y-36696936D01*
X121703141Y-36696936D01*
X122496600Y-37490395D01*
X123290059Y-36696936D01*
X123221807Y-36455773D01*
X122970989Y-36337623D01*
X122701940Y-36270676D01*
X122425000Y-36257504D01*
X122150812Y-36298613D01*
X121889912Y-36392424D01*
X121771393Y-36455773D01*
X121703141Y-36696936D01*
X120744041Y-36696936D01*
X120623829Y-36576724D01*
X120436600Y-36451621D01*
X120436600Y-36071765D01*
X120444899Y-36077310D01*
X120701047Y-36183410D01*
X120972973Y-36237500D01*
X121250227Y-36237500D01*
X121522153Y-36183410D01*
X121778301Y-36077310D01*
X122008829Y-35923276D01*
X122204876Y-35727229D01*
X122358910Y-35496701D01*
X122465010Y-35240553D01*
X122496600Y-35081741D01*
X122528190Y-35240553D01*
X122634290Y-35496701D01*
X122788324Y-35727229D01*
X122984371Y-35923276D01*
X123214899Y-36077310D01*
X123471047Y-36183410D01*
X123742973Y-36237500D01*
X124020227Y-36237500D01*
X124292153Y-36183410D01*
X124548301Y-36077310D01*
X124556600Y-36071765D01*
X124556600Y-36451621D01*
X124369371Y-36576724D01*
X124173324Y-36772771D01*
X124019290Y-37003299D01*
X123913190Y-37259447D01*
X123881878Y-37416862D01*
X123867987Y-37324212D01*
X123774176Y-37063312D01*
X123710827Y-36944793D01*
X123469664Y-36876541D01*
X122676205Y-37670000D01*
X123469664Y-38463459D01*
X123710827Y-38395207D01*
X123828977Y-38144389D01*
X123882834Y-37927946D01*
X123913190Y-38080553D01*
X124019290Y-38336701D01*
X124173324Y-38567229D01*
X124369371Y-38763276D01*
X124599899Y-38917310D01*
X124856047Y-39023410D01*
X125127973Y-39077500D01*
X125405227Y-39077500D01*
X125677153Y-39023410D01*
X125933301Y-38917310D01*
X126163829Y-38763276D01*
X126284041Y-38643064D01*
X127243141Y-38643064D01*
X127311393Y-38884227D01*
X127562211Y-39002377D01*
X127831260Y-39069324D01*
X128108200Y-39082496D01*
X128382388Y-39041387D01*
X128643288Y-38947576D01*
X128761807Y-38884227D01*
X128830059Y-38643064D01*
X128036600Y-37849605D01*
X127243141Y-38643064D01*
X126284041Y-38643064D01*
X126359876Y-38567229D01*
X126513910Y-38336701D01*
X126620010Y-38080553D01*
X126651322Y-37923138D01*
X126665213Y-38015788D01*
X126759024Y-38276688D01*
X126822373Y-38395207D01*
X127063536Y-38463459D01*
X127856995Y-37670000D01*
X128216205Y-37670000D01*
X129009664Y-38463459D01*
X129250827Y-38395207D01*
X129368977Y-38144389D01*
X129435924Y-37875340D01*
X129449096Y-37598400D01*
X129407987Y-37324212D01*
X129314176Y-37063312D01*
X129250827Y-36944793D01*
X129009664Y-36876541D01*
X128216205Y-37670000D01*
X127856995Y-37670000D01*
X127063536Y-36876541D01*
X126822373Y-36944793D01*
X126704223Y-37195611D01*
X126650366Y-37412054D01*
X126620010Y-37259447D01*
X126513910Y-37003299D01*
X126359876Y-36772771D01*
X126284041Y-36696936D01*
X127243141Y-36696936D01*
X128036600Y-37490395D01*
X128830059Y-36696936D01*
X128761807Y-36455773D01*
X128510989Y-36337623D01*
X128241940Y-36270676D01*
X127965000Y-36257504D01*
X127690812Y-36298613D01*
X127429912Y-36392424D01*
X127311393Y-36455773D01*
X127243141Y-36696936D01*
X126284041Y-36696936D01*
X126163829Y-36576724D01*
X125976600Y-36451621D01*
X125976600Y-36256387D01*
X133249313Y-36256387D01*
X133309592Y-36855638D01*
X133485620Y-37431614D01*
X133763538Y-37951561D01*
X134173569Y-38218426D01*
X136141995Y-36250000D01*
X136501205Y-36250000D01*
X138469631Y-38218426D01*
X138879662Y-37951561D01*
X139162467Y-37419813D01*
X139336100Y-36843109D01*
X139393887Y-36243613D01*
X139333608Y-35644362D01*
X139157580Y-35068386D01*
X138879662Y-34548439D01*
X138469631Y-34281574D01*
X136501205Y-36250000D01*
X136141995Y-36250000D01*
X134173569Y-34281574D01*
X133763538Y-34548439D01*
X133480733Y-35080187D01*
X133307100Y-35656891D01*
X133249313Y-36256387D01*
X125976600Y-36256387D01*
X125976600Y-36071765D01*
X125984899Y-36077310D01*
X126241047Y-36183410D01*
X126512973Y-36237500D01*
X126790227Y-36237500D01*
X127062153Y-36183410D01*
X127318301Y-36077310D01*
X127548829Y-35923276D01*
X127744876Y-35727229D01*
X127898910Y-35496701D01*
X128005010Y-35240553D01*
X128036600Y-35081741D01*
X128068190Y-35240553D01*
X128174290Y-35496701D01*
X128328324Y-35727229D01*
X128524371Y-35923276D01*
X128754899Y-36077310D01*
X129011047Y-36183410D01*
X129282973Y-36237500D01*
X129560227Y-36237500D01*
X129832153Y-36183410D01*
X130088301Y-36077310D01*
X130318829Y-35923276D01*
X130514876Y-35727229D01*
X130668910Y-35496701D01*
X130775010Y-35240553D01*
X130829100Y-34968627D01*
X130829100Y-34691373D01*
X130775010Y-34419447D01*
X130668910Y-34163299D01*
X130627931Y-34101969D01*
X134353174Y-34101969D01*
X136321600Y-36070395D01*
X138290026Y-34101969D01*
X138023161Y-33691938D01*
X137491413Y-33409133D01*
X136914709Y-33235500D01*
X136315213Y-33177713D01*
X135715962Y-33237992D01*
X135139986Y-33414020D01*
X134620039Y-33691938D01*
X134353174Y-34101969D01*
X130627931Y-34101969D01*
X130514876Y-33932771D01*
X130318829Y-33736724D01*
X130131600Y-33611621D01*
X130131600Y-28495298D01*
X130148903Y-28516382D01*
X130218211Y-28585690D01*
X130314902Y-28665042D01*
X130396401Y-28719498D01*
X130506718Y-28778464D01*
X130597274Y-28815973D01*
X130716970Y-28852282D01*
X130813103Y-28871404D01*
X130937584Y-28883664D01*
X130962143Y-28883664D01*
X130986593Y-28886072D01*
X131486593Y-28886072D01*
X131511043Y-28883664D01*
X131535602Y-28883664D01*
X131660083Y-28871404D01*
X131756216Y-28852282D01*
X131875912Y-28815973D01*
X131966468Y-28778464D01*
X132076785Y-28719498D01*
X132158284Y-28665042D01*
X132254975Y-28585690D01*
X132324283Y-28516382D01*
X132403635Y-28419691D01*
X132458091Y-28338192D01*
X132517057Y-28227875D01*
X132523178Y-28213099D01*
X133193896Y-27542380D01*
X133220982Y-27520152D01*
X133243212Y-27493065D01*
X133243215Y-27493062D01*
X133309707Y-27412041D01*
X133309709Y-27412039D01*
X133375636Y-27288697D01*
X133416235Y-27154861D01*
X133426508Y-27050554D01*
X133426508Y-27050553D01*
X133429943Y-27015678D01*
X133426508Y-26980803D01*
X133426508Y-22949394D01*
X133429943Y-22914519D01*
X133426508Y-22879642D01*
X133416235Y-22775335D01*
X133375636Y-22641499D01*
X133351509Y-22596360D01*
X133351509Y-22577355D01*
X133317499Y-22406375D01*
X133250786Y-22245315D01*
X133153933Y-22100365D01*
X133030664Y-21977096D01*
X132885714Y-21880243D01*
X132724654Y-21813530D01*
X132724499Y-21813499D01*
X132724499Y-21468119D01*
X132939500Y-21354655D01*
X132939500Y-20161500D01*
X132919500Y-20161500D01*
X132919500Y-19907500D01*
X132939500Y-19907500D01*
X132939500Y-19887500D01*
X133193500Y-19887500D01*
X133193500Y-19907500D01*
%TA.AperFunction,Conductor*%
D23*
G36*
X133193500Y-19907500D02*
G01*
X133213500Y-19907500D01*
X133213500Y-20161500D01*
X133193500Y-20161500D01*
X133193500Y-21354655D01*
X133423390Y-21475976D01*
X133570599Y-21431325D01*
X133780904Y-21331155D01*
X133780905Y-24083641D01*
X133706627Y-24194805D01*
X133639914Y-24355865D01*
X133605904Y-24526845D01*
X133605904Y-24701175D01*
X133639914Y-24872155D01*
X133706627Y-25033215D01*
X133803480Y-25178165D01*
X133926749Y-25301434D01*
X134071699Y-25398287D01*
X134232759Y-25465000D01*
X134403739Y-25499010D01*
X134578069Y-25499010D01*
X134749049Y-25465000D01*
X134910109Y-25398287D01*
X135055059Y-25301434D01*
X135178328Y-25178165D01*
X135275181Y-25033215D01*
X135341894Y-24872155D01*
X135375904Y-24701175D01*
X135375904Y-24526845D01*
X135341894Y-24355865D01*
X135275181Y-24194805D01*
X135200904Y-24083642D01*
X135200904Y-21461203D01*
X135249610Y-21475976D01*
X135479500Y-21354655D01*
X135479500Y-20161500D01*
X135459500Y-20161500D01*
X135459500Y-19907500D01*
X135479500Y-19907500D01*
X135479500Y-19887500D01*
X135733500Y-19887500D01*
X135733500Y-19907500D01*
X135753500Y-19907500D01*
X135753500Y-20161500D01*
X135733500Y-20161500D01*
X135733500Y-21354655D01*
X135963390Y-21475976D01*
X136110599Y-21431325D01*
X136373420Y-21306141D01*
X136384499Y-21297877D01*
X136384500Y-23277000D01*
X136344835Y-23277000D01*
X136173855Y-23311010D01*
X136012795Y-23377723D01*
X135867845Y-23474576D01*
X135744576Y-23597845D01*
X135647723Y-23742795D01*
X135581010Y-23903855D01*
X135547000Y-24074835D01*
X135547000Y-24249165D01*
X135581010Y-24420145D01*
X135647723Y-24581205D01*
X135722000Y-24692368D01*
X135722001Y-25376017D01*
X135718565Y-25410901D01*
X135732274Y-25550085D01*
X135772872Y-25683920D01*
X135807270Y-25748273D01*
X135838801Y-25807264D01*
X135927526Y-25915376D01*
X135954616Y-25937609D01*
X136133569Y-26116561D01*
X136114817Y-26178377D01*
X136095695Y-26274510D01*
X136083435Y-26398991D01*
X136083435Y-26423550D01*
X136081027Y-26448000D01*
X136081027Y-26948000D01*
X136093287Y-27072482D01*
X136101028Y-27098000D01*
X136093287Y-27123518D01*
X136081027Y-27248000D01*
X136081027Y-27748000D01*
X136083435Y-27772450D01*
X136083435Y-27797009D01*
X136095695Y-27921490D01*
X136114817Y-28017623D01*
X136151126Y-28137319D01*
X136188635Y-28227875D01*
X136247601Y-28338192D01*
X136302057Y-28419691D01*
X136381409Y-28516382D01*
X136450717Y-28585690D01*
X136547408Y-28665042D01*
X136628907Y-28719498D01*
X136739224Y-28778464D01*
X136829780Y-28815973D01*
X136949476Y-28852282D01*
X137045609Y-28871404D01*
X137170090Y-28883664D01*
X137194649Y-28883664D01*
X137219099Y-28886072D01*
X137719099Y-28886072D01*
X137743549Y-28883664D01*
X137768108Y-28883664D01*
X137892589Y-28871404D01*
X137988722Y-28852282D01*
X138108418Y-28815973D01*
X138198974Y-28778464D01*
X138309291Y-28719498D01*
X138390790Y-28665042D01*
X138487481Y-28585690D01*
X138556789Y-28516382D01*
X138636141Y-28419691D01*
X138690597Y-28338192D01*
X138749563Y-28227875D01*
X138755683Y-28213099D01*
X139195384Y-27773399D01*
X139222475Y-27751166D01*
X139311200Y-27643054D01*
X139377128Y-27519711D01*
X139417727Y-27385875D01*
X139428000Y-27281568D01*
X139428000Y-27281566D01*
X139431435Y-27246691D01*
X139428000Y-27211816D01*
X139428000Y-26263168D01*
X139475855Y-26282990D01*
X139646835Y-26317000D01*
X139821165Y-26317000D01*
X139992145Y-26282990D01*
X140153205Y-26216277D01*
X140298155Y-26119424D01*
X140421424Y-25996155D01*
X140518277Y-25851205D01*
X140584990Y-25690145D01*
X140619000Y-25519165D01*
X140619000Y-25344835D01*
X140584990Y-25173855D01*
X140518277Y-25012795D01*
X140421424Y-24867845D01*
X140344499Y-24790920D01*
X140344499Y-21468119D01*
X140559500Y-21354655D01*
X140559500Y-20161500D01*
X140539500Y-20161500D01*
X140539500Y-19907500D01*
X140559500Y-19907500D01*
X140559500Y-19887500D01*
X140813500Y-19887500D01*
X140813500Y-19907500D01*
X140833500Y-19907500D01*
X140833500Y-20161500D01*
X140813500Y-20161500D01*
X140813500Y-21354655D01*
X141028501Y-21468119D01*
X141028502Y-25128132D01*
X140954224Y-25239296D01*
X140887511Y-25400356D01*
X140853501Y-25571336D01*
X140853501Y-25745666D01*
X140887511Y-25916646D01*
X140954224Y-26077706D01*
X141051077Y-26222656D01*
X141174346Y-26345925D01*
X141319296Y-26442778D01*
X141480356Y-26509491D01*
X141651336Y-26543501D01*
X141825666Y-26543501D01*
X141996646Y-26509491D01*
X142157706Y-26442778D01*
X142302656Y-26345925D01*
X142425925Y-26222656D01*
X142522778Y-26077706D01*
X142589491Y-25916646D01*
X142623501Y-25745666D01*
X142623501Y-25571336D01*
X142589491Y-25400356D01*
X142522778Y-25239296D01*
X142448501Y-25128133D01*
X142448501Y-21297877D01*
X142459580Y-21306141D01*
X142722401Y-21431325D01*
X142869610Y-21475976D01*
X143099500Y-21354655D01*
X143099500Y-20161500D01*
X143079500Y-20161500D01*
X143079500Y-19907500D01*
X143099500Y-19907500D01*
X143099500Y-19887500D01*
X143353500Y-19887500D01*
X143353500Y-19907500D01*
X143373500Y-19907500D01*
X143373500Y-20161500D01*
X143353500Y-20161500D01*
X143353500Y-21354655D01*
X143583390Y-21475976D01*
X143730599Y-21431325D01*
X143993420Y-21306141D01*
X144226769Y-21132088D01*
X144352000Y-20993156D01*
X144352001Y-44703712D01*
X144343182Y-44793653D01*
X144326437Y-44849116D01*
X144299239Y-44900268D01*
X144262627Y-44945159D01*
X144217987Y-44982088D01*
X144167026Y-45009642D01*
X144111688Y-45026772D01*
X144023895Y-45036000D01*
X139185370Y-45036000D01*
X139182500Y-45006865D01*
X139182500Y-39995135D01*
X139185862Y-39961000D01*
X139172443Y-39824756D01*
X139132702Y-39693748D01*
X139068167Y-39573011D01*
X138981317Y-39467183D01*
X138875489Y-39380333D01*
X138754752Y-39315798D01*
X138623744Y-39276057D01*
X138521635Y-39266000D01*
X138521634Y-39266000D01*
X138487500Y-39262638D01*
X138453365Y-39266000D01*
X136887552Y-39266000D01*
X136927238Y-39262008D01*
X137503214Y-39085980D01*
X138023161Y-38808062D01*
X138290026Y-38398031D01*
X136321600Y-36429605D01*
X134353174Y-38398031D01*
X134620039Y-38808062D01*
X135151787Y-39090867D01*
X135728491Y-39264500D01*
X135744052Y-39266000D01*
X121503635Y-39266000D01*
X121469500Y-39262638D01*
X121333257Y-39276057D01*
X121202249Y-39315798D01*
X121081512Y-39380333D01*
X120975684Y-39467183D01*
X120888834Y-39573011D01*
X120824299Y-39693748D01*
X120784558Y-39824756D01*
X120774501Y-39926865D01*
X120774500Y-45006865D01*
X120771630Y-45036000D01*
X81576119Y-45036000D01*
X81486420Y-45027205D01*
X81423336Y-45008159D01*
X81365155Y-44977223D01*
X81314091Y-44935576D01*
X81272088Y-44884804D01*
X81240747Y-44826840D01*
X81219637Y-44758645D01*
X81212000Y-44695951D01*
X81212000Y-43257451D01*
X81230715Y-43263128D01*
X81402750Y-43280072D01*
X81890250Y-43280072D01*
X82062285Y-43263128D01*
X82227709Y-43212947D01*
X82380164Y-43131458D01*
X82513792Y-43021792D01*
X82519008Y-43015436D01*
X82582815Y-43093185D01*
X82679506Y-43172537D01*
X82789820Y-43231502D01*
X82909518Y-43267812D01*
X83034000Y-43280072D01*
X83235750Y-43277000D01*
X83394500Y-43118250D01*
X83394500Y-42069000D01*
X83648500Y-42069000D01*
X83648500Y-43118250D01*
X83807250Y-43277000D01*
X84009000Y-43280072D01*
X84133482Y-43267812D01*
X84253180Y-43231502D01*
X84363494Y-43172537D01*
X84460185Y-43093185D01*
X84539537Y-42996494D01*
X84598502Y-42886180D01*
X84634812Y-42766482D01*
X84647072Y-42642000D01*
X84644000Y-42227750D01*
X84485250Y-42069000D01*
X83648500Y-42069000D01*
X83394500Y-42069000D01*
X83374500Y-42069000D01*
X83374500Y-41815000D01*
X83394500Y-41815000D01*
X83394500Y-41795000D01*
X83648500Y-41795000D01*
X83648500Y-41815000D01*
X84485250Y-41815000D01*
X84644000Y-41656250D01*
X84647072Y-41242000D01*
X84634812Y-41117518D01*
X84598502Y-40997820D01*
X84539537Y-40887506D01*
X84502979Y-40842959D01*
X84579472Y-40699851D01*
X84603694Y-40620000D01*
X95291725Y-40620000D01*
X95326600Y-40623435D01*
X95361475Y-40620000D01*
X95361477Y-40620000D01*
X95465784Y-40609727D01*
X95599620Y-40569128D01*
X95722963Y-40503200D01*
X95831075Y-40414475D01*
X95853312Y-40387379D01*
X97207122Y-39033570D01*
X97427973Y-39077500D01*
X97705227Y-39077500D01*
X97977153Y-39023410D01*
X98233301Y-38917310D01*
X98463829Y-38763276D01*
X98584041Y-38643064D01*
X99543141Y-38643064D01*
X99611393Y-38884227D01*
X99862211Y-39002377D01*
X100131260Y-39069324D01*
X100408200Y-39082496D01*
X100682388Y-39041387D01*
X100943288Y-38947576D01*
X101061807Y-38884227D01*
X101130059Y-38643064D01*
X100336600Y-37849605D01*
X99543141Y-38643064D01*
X98584041Y-38643064D01*
X98659876Y-38567229D01*
X98813910Y-38336701D01*
X98920010Y-38080553D01*
X98951322Y-37923138D01*
X98965213Y-38015788D01*
X99059024Y-38276688D01*
X99122373Y-38395207D01*
X99363536Y-38463459D01*
X100156995Y-37670000D01*
X99363536Y-36876541D01*
X99122373Y-36944793D01*
X99004223Y-37195611D01*
X98950366Y-37412054D01*
X98920010Y-37259447D01*
X98813910Y-37003299D01*
X98659876Y-36772771D01*
X98584041Y-36696936D01*
X99543141Y-36696936D01*
X100336600Y-37490395D01*
X101130059Y-36696936D01*
X101061807Y-36455773D01*
X100810989Y-36337623D01*
X100541940Y-36270676D01*
X100265000Y-36257504D01*
X99990812Y-36298613D01*
X99729912Y-36392424D01*
X99611393Y-36455773D01*
X99543141Y-36696936D01*
X98584041Y-36696936D01*
X98584000Y-36696895D01*
X98584000Y-36191954D01*
X98812973Y-36237500D01*
X99090227Y-36237500D01*
X99362153Y-36183410D01*
X99618301Y-36077310D01*
X99848829Y-35923276D01*
X100044876Y-35727229D01*
X100198910Y-35496701D01*
X100305010Y-35240553D01*
X100336600Y-35081741D01*
X100368190Y-35240553D01*
X100474290Y-35496701D01*
X100628324Y-35727229D01*
X100824371Y-35923276D01*
X101054899Y-36077310D01*
X101311047Y-36183410D01*
X101582973Y-36237500D01*
X101860227Y-36237500D01*
X102132153Y-36183410D01*
X102388301Y-36077310D01*
X102618829Y-35923276D01*
X102688112Y-35853993D01*
X102688112Y-36319877D01*
X102439899Y-36422690D01*
X102209371Y-36576724D01*
X102013324Y-36772771D01*
X101859290Y-37003299D01*
X101753190Y-37259447D01*
X101721878Y-37416862D01*
X101707987Y-37324212D01*
X101614176Y-37063312D01*
X101550827Y-36944793D01*
X101309664Y-36876541D01*
X100516205Y-37670000D01*
X101309664Y-38463459D01*
X101550827Y-38395207D01*
X101668977Y-38144389D01*
X101722834Y-37927946D01*
X101753190Y-38080553D01*
X101859290Y-38336701D01*
X102013324Y-38567229D01*
X102209371Y-38763276D01*
X102439899Y-38917310D01*
X102696047Y-39023410D01*
X102967973Y-39077500D01*
X103245227Y-39077500D01*
X103517153Y-39023410D01*
X103773301Y-38917310D01*
X104003829Y-38763276D01*
X104199876Y-38567229D01*
X104353910Y-38336701D01*
X104460010Y-38080553D01*
X104491600Y-37921741D01*
X104523190Y-38080553D01*
X104629290Y-38336701D01*
X104783324Y-38567229D01*
X104979371Y-38763276D01*
X105209899Y-38917310D01*
X105466047Y-39023410D01*
X105737973Y-39077500D01*
X106015227Y-39077500D01*
X106287153Y-39023410D01*
X106543301Y-38917310D01*
X106773829Y-38763276D01*
X106969876Y-38567229D01*
X107123910Y-38336701D01*
X107230010Y-38080553D01*
X107261600Y-37921741D01*
X107293190Y-38080553D01*
X107399290Y-38336701D01*
X107553324Y-38567229D01*
X107749371Y-38763276D01*
X107979899Y-38917310D01*
X108236047Y-39023410D01*
X108507973Y-39077500D01*
X108785227Y-39077500D01*
X109057153Y-39023410D01*
X109313301Y-38917310D01*
X109543829Y-38763276D01*
X109739876Y-38567229D01*
X109893910Y-38336701D01*
X110000010Y-38080553D01*
X110031600Y-37921741D01*
X110063190Y-38080553D01*
X110169290Y-38336701D01*
X110323324Y-38567229D01*
X110519371Y-38763276D01*
X110749899Y-38917310D01*
X111006047Y-39023410D01*
X111277973Y-39077500D01*
X111555227Y-39077500D01*
X111827153Y-39023410D01*
X112083301Y-38917310D01*
X112313829Y-38763276D01*
X112509876Y-38567229D01*
X112663910Y-38336701D01*
X112770010Y-38080553D01*
X112801600Y-37921741D01*
X112833190Y-38080553D01*
X112939290Y-38336701D01*
X113093324Y-38567229D01*
X113289371Y-38763276D01*
X113519899Y-38917310D01*
X113776047Y-39023410D01*
X114047973Y-39077500D01*
X114325227Y-39077500D01*
X114597153Y-39023410D01*
X114853301Y-38917310D01*
X115083829Y-38763276D01*
X115204041Y-38643064D01*
X116163141Y-38643064D01*
X116231393Y-38884227D01*
X116482211Y-39002377D01*
X116751260Y-39069324D01*
X117028200Y-39082496D01*
X117302388Y-39041387D01*
X117563288Y-38947576D01*
X117681807Y-38884227D01*
X117750059Y-38643064D01*
X116956600Y-37849605D01*
X116163141Y-38643064D01*
X115204041Y-38643064D01*
X115279876Y-38567229D01*
X115433910Y-38336701D01*
X115540010Y-38080553D01*
X115571322Y-37923138D01*
X115585213Y-38015788D01*
X115679024Y-38276688D01*
X115742373Y-38395207D01*
X115983536Y-38463459D01*
X116776995Y-37670000D01*
X115983536Y-36876541D01*
X115742373Y-36944793D01*
X115624223Y-37195611D01*
X115570366Y-37412054D01*
X115540010Y-37259447D01*
X115433910Y-37003299D01*
X115279876Y-36772771D01*
X115204041Y-36696936D01*
X116163141Y-36696936D01*
X116956600Y-37490395D01*
X117750059Y-36696936D01*
X117681807Y-36455773D01*
X117430989Y-36337623D01*
X117161940Y-36270676D01*
X116885000Y-36257504D01*
X116610812Y-36298613D01*
X116349912Y-36392424D01*
X116231393Y-36455773D01*
X116163141Y-36696936D01*
X115204041Y-36696936D01*
X115083829Y-36576724D01*
X114887004Y-36445210D01*
X114886327Y-36438337D01*
X114845728Y-36304501D01*
X114779800Y-36181158D01*
X114691075Y-36073046D01*
X114663974Y-36050805D01*
X114605089Y-35991920D01*
X114605089Y-35853994D01*
X114674371Y-35923276D01*
X114904899Y-36077310D01*
X115161047Y-36183410D01*
X115432973Y-36237500D01*
X115710227Y-36237500D01*
X115982153Y-36183410D01*
X116238301Y-36077310D01*
X116468829Y-35923276D01*
X116664876Y-35727229D01*
X116818910Y-35496701D01*
X116925010Y-35240553D01*
X116956600Y-35081741D01*
X116988190Y-35240553D01*
X117094290Y-35496701D01*
X117248324Y-35727229D01*
X117444371Y-35923276D01*
X117674899Y-36077310D01*
X117931047Y-36183410D01*
X118202973Y-36237500D01*
X118480227Y-36237500D01*
X118752153Y-36183410D01*
X119008301Y-36077310D01*
X119016600Y-36071765D01*
X119016600Y-36451621D01*
X118829371Y-36576724D01*
X118633324Y-36772771D01*
X118479290Y-37003299D01*
X118373190Y-37259447D01*
X118341878Y-37416862D01*
X118327987Y-37324212D01*
X118234176Y-37063312D01*
X118170827Y-36944793D01*
X117929664Y-36876541D01*
X117136205Y-37670000D01*
X117929664Y-38463459D01*
X118170827Y-38395207D01*
X118288977Y-38144389D01*
X118342834Y-37927946D01*
X118373190Y-38080553D01*
X118479290Y-38336701D01*
X118633324Y-38567229D01*
X118829371Y-38763276D01*
X119059899Y-38917310D01*
X119316047Y-39023410D01*
X119587973Y-39077500D01*
X119865227Y-39077500D01*
X120137153Y-39023410D01*
X120393301Y-38917310D01*
X120623829Y-38763276D01*
X120744041Y-38643064D01*
X121703141Y-38643064D01*
X121771393Y-38884227D01*
X122022211Y-39002377D01*
X122291260Y-39069324D01*
X122568200Y-39082496D01*
X122842388Y-39041387D01*
X123103288Y-38947576D01*
X123221807Y-38884227D01*
X123290059Y-38643064D01*
X122496600Y-37849605D01*
X121703141Y-38643064D01*
X120744041Y-38643064D01*
X120819876Y-38567229D01*
X120973910Y-38336701D01*
X121080010Y-38080553D01*
X121111322Y-37923138D01*
X121125213Y-38015788D01*
X121219024Y-38276688D01*
X121282373Y-38395207D01*
X121523536Y-38463459D01*
X122316995Y-37670000D01*
X121523536Y-36876541D01*
X121282373Y-36944793D01*
X121164223Y-37195611D01*
X121110366Y-37412054D01*
X121080010Y-37259447D01*
X120973910Y-37003299D01*
X120819876Y-36772771D01*
X120744041Y-36696936D01*
X121703141Y-36696936D01*
X122496600Y-37490395D01*
X123290059Y-36696936D01*
X123221807Y-36455773D01*
X122970989Y-36337623D01*
X122701940Y-36270676D01*
X122425000Y-36257504D01*
X122150812Y-36298613D01*
X121889912Y-36392424D01*
X121771393Y-36455773D01*
X121703141Y-36696936D01*
X120744041Y-36696936D01*
X120623829Y-36576724D01*
X120436600Y-36451621D01*
X120436600Y-36071765D01*
X120444899Y-36077310D01*
X120701047Y-36183410D01*
X120972973Y-36237500D01*
X121250227Y-36237500D01*
X121522153Y-36183410D01*
X121778301Y-36077310D01*
X122008829Y-35923276D01*
X122204876Y-35727229D01*
X122358910Y-35496701D01*
X122465010Y-35240553D01*
X122496600Y-35081741D01*
X122528190Y-35240553D01*
X122634290Y-35496701D01*
X122788324Y-35727229D01*
X122984371Y-35923276D01*
X123214899Y-36077310D01*
X123471047Y-36183410D01*
X123742973Y-36237500D01*
X124020227Y-36237500D01*
X124292153Y-36183410D01*
X124548301Y-36077310D01*
X124556600Y-36071765D01*
X124556600Y-36451621D01*
X124369371Y-36576724D01*
X124173324Y-36772771D01*
X124019290Y-37003299D01*
X123913190Y-37259447D01*
X123881878Y-37416862D01*
X123867987Y-37324212D01*
X123774176Y-37063312D01*
X123710827Y-36944793D01*
X123469664Y-36876541D01*
X122676205Y-37670000D01*
X123469664Y-38463459D01*
X123710827Y-38395207D01*
X123828977Y-38144389D01*
X123882834Y-37927946D01*
X123913190Y-38080553D01*
X124019290Y-38336701D01*
X124173324Y-38567229D01*
X124369371Y-38763276D01*
X124599899Y-38917310D01*
X124856047Y-39023410D01*
X125127973Y-39077500D01*
X125405227Y-39077500D01*
X125677153Y-39023410D01*
X125933301Y-38917310D01*
X126163829Y-38763276D01*
X126284041Y-38643064D01*
X127243141Y-38643064D01*
X127311393Y-38884227D01*
X127562211Y-39002377D01*
X127831260Y-39069324D01*
X128108200Y-39082496D01*
X128382388Y-39041387D01*
X128643288Y-38947576D01*
X128761807Y-38884227D01*
X128830059Y-38643064D01*
X128036600Y-37849605D01*
X127243141Y-38643064D01*
X126284041Y-38643064D01*
X126359876Y-38567229D01*
X126513910Y-38336701D01*
X126620010Y-38080553D01*
X126651322Y-37923138D01*
X126665213Y-38015788D01*
X126759024Y-38276688D01*
X126822373Y-38395207D01*
X127063536Y-38463459D01*
X127856995Y-37670000D01*
X128216205Y-37670000D01*
X129009664Y-38463459D01*
X129250827Y-38395207D01*
X129368977Y-38144389D01*
X129435924Y-37875340D01*
X129449096Y-37598400D01*
X129407987Y-37324212D01*
X129314176Y-37063312D01*
X129250827Y-36944793D01*
X129009664Y-36876541D01*
X128216205Y-37670000D01*
X127856995Y-37670000D01*
X127063536Y-36876541D01*
X126822373Y-36944793D01*
X126704223Y-37195611D01*
X126650366Y-37412054D01*
X126620010Y-37259447D01*
X126513910Y-37003299D01*
X126359876Y-36772771D01*
X126284041Y-36696936D01*
X127243141Y-36696936D01*
X128036600Y-37490395D01*
X128830059Y-36696936D01*
X128761807Y-36455773D01*
X128510989Y-36337623D01*
X128241940Y-36270676D01*
X127965000Y-36257504D01*
X127690812Y-36298613D01*
X127429912Y-36392424D01*
X127311393Y-36455773D01*
X127243141Y-36696936D01*
X126284041Y-36696936D01*
X126163829Y-36576724D01*
X125976600Y-36451621D01*
X125976600Y-36256387D01*
X133249313Y-36256387D01*
X133309592Y-36855638D01*
X133485620Y-37431614D01*
X133763538Y-37951561D01*
X134173569Y-38218426D01*
X136141995Y-36250000D01*
X136501205Y-36250000D01*
X138469631Y-38218426D01*
X138879662Y-37951561D01*
X139162467Y-37419813D01*
X139336100Y-36843109D01*
X139393887Y-36243613D01*
X139333608Y-35644362D01*
X139157580Y-35068386D01*
X138879662Y-34548439D01*
X138469631Y-34281574D01*
X136501205Y-36250000D01*
X136141995Y-36250000D01*
X134173569Y-34281574D01*
X133763538Y-34548439D01*
X133480733Y-35080187D01*
X133307100Y-35656891D01*
X133249313Y-36256387D01*
X125976600Y-36256387D01*
X125976600Y-36071765D01*
X125984899Y-36077310D01*
X126241047Y-36183410D01*
X126512973Y-36237500D01*
X126790227Y-36237500D01*
X127062153Y-36183410D01*
X127318301Y-36077310D01*
X127548829Y-35923276D01*
X127744876Y-35727229D01*
X127898910Y-35496701D01*
X128005010Y-35240553D01*
X128036600Y-35081741D01*
X128068190Y-35240553D01*
X128174290Y-35496701D01*
X128328324Y-35727229D01*
X128524371Y-35923276D01*
X128754899Y-36077310D01*
X129011047Y-36183410D01*
X129282973Y-36237500D01*
X129560227Y-36237500D01*
X129832153Y-36183410D01*
X130088301Y-36077310D01*
X130318829Y-35923276D01*
X130514876Y-35727229D01*
X130668910Y-35496701D01*
X130775010Y-35240553D01*
X130829100Y-34968627D01*
X130829100Y-34691373D01*
X130775010Y-34419447D01*
X130668910Y-34163299D01*
X130627931Y-34101969D01*
X134353174Y-34101969D01*
X136321600Y-36070395D01*
X138290026Y-34101969D01*
X138023161Y-33691938D01*
X137491413Y-33409133D01*
X136914709Y-33235500D01*
X136315213Y-33177713D01*
X135715962Y-33237992D01*
X135139986Y-33414020D01*
X134620039Y-33691938D01*
X134353174Y-34101969D01*
X130627931Y-34101969D01*
X130514876Y-33932771D01*
X130318829Y-33736724D01*
X130131600Y-33611621D01*
X130131600Y-28495298D01*
X130148903Y-28516382D01*
X130218211Y-28585690D01*
X130314902Y-28665042D01*
X130396401Y-28719498D01*
X130506718Y-28778464D01*
X130597274Y-28815973D01*
X130716970Y-28852282D01*
X130813103Y-28871404D01*
X130937584Y-28883664D01*
X130962143Y-28883664D01*
X130986593Y-28886072D01*
X131486593Y-28886072D01*
X131511043Y-28883664D01*
X131535602Y-28883664D01*
X131660083Y-28871404D01*
X131756216Y-28852282D01*
X131875912Y-28815973D01*
X131966468Y-28778464D01*
X132076785Y-28719498D01*
X132158284Y-28665042D01*
X132254975Y-28585690D01*
X132324283Y-28516382D01*
X132403635Y-28419691D01*
X132458091Y-28338192D01*
X132517057Y-28227875D01*
X132523178Y-28213099D01*
X133193896Y-27542380D01*
X133220982Y-27520152D01*
X133243212Y-27493065D01*
X133243215Y-27493062D01*
X133309707Y-27412041D01*
X133309709Y-27412039D01*
X133375636Y-27288697D01*
X133416235Y-27154861D01*
X133426508Y-27050554D01*
X133426508Y-27050553D01*
X133429943Y-27015678D01*
X133426508Y-26980803D01*
X133426508Y-22949394D01*
X133429943Y-22914519D01*
X133426508Y-22879642D01*
X133416235Y-22775335D01*
X133375636Y-22641499D01*
X133351509Y-22596360D01*
X133351509Y-22577355D01*
X133317499Y-22406375D01*
X133250786Y-22245315D01*
X133153933Y-22100365D01*
X133030664Y-21977096D01*
X132885714Y-21880243D01*
X132724654Y-21813530D01*
X132724499Y-21813499D01*
X132724499Y-21468119D01*
X132939500Y-21354655D01*
X132939500Y-20161500D01*
X132919500Y-20161500D01*
X132919500Y-19907500D01*
X132939500Y-19907500D01*
X132939500Y-19887500D01*
X133193500Y-19887500D01*
X133193500Y-19907500D01*
G37*
%TD.AperFunction*%
D25*
X82393500Y-19907500D02*
X82413500Y-19907500D01*
X82413500Y-20161500D01*
X82393500Y-20161500D01*
X82393500Y-21360750D01*
X82552250Y-21519500D01*
X82608502Y-21519806D01*
X82608502Y-22148786D01*
X82561723Y-22218795D01*
X82495010Y-22379855D01*
X82461000Y-22550835D01*
X82461000Y-22725165D01*
X82495010Y-22896145D01*
X82561723Y-23057205D01*
X82658576Y-23202155D01*
X82781845Y-23325424D01*
X82926795Y-23422277D01*
X83087855Y-23488990D01*
X83258835Y-23523000D01*
X83433165Y-23523000D01*
X83604145Y-23488990D01*
X83765205Y-23422277D01*
X83910155Y-23325424D01*
X84033424Y-23202155D01*
X84130277Y-23057205D01*
X84196990Y-22896145D01*
X84231000Y-22725165D01*
X84231000Y-22550835D01*
X84196990Y-22379855D01*
X84130277Y-22218795D01*
X84033424Y-22073845D01*
X84028501Y-22068922D01*
X84028501Y-21297877D01*
X84039580Y-21306141D01*
X84302401Y-21431325D01*
X84449610Y-21475976D01*
X84679500Y-21354655D01*
X84679500Y-20161500D01*
X84659500Y-20161500D01*
X84659500Y-19907500D01*
X84679500Y-19907500D01*
X84679500Y-19887500D01*
X84933500Y-19887500D01*
X84933500Y-19907500D01*
X84953500Y-19907500D01*
X84953500Y-20161500D01*
X84933500Y-20161500D01*
X84933500Y-21354655D01*
X85163390Y-21475976D01*
X85176001Y-21472151D01*
X85176001Y-22615631D01*
X85101723Y-22726795D01*
X85035010Y-22887855D01*
X85001000Y-23058835D01*
X85001000Y-23233165D01*
X85035010Y-23404145D01*
X85101723Y-23565205D01*
X85198576Y-23710155D01*
X85321845Y-23833424D01*
X85466795Y-23930277D01*
X85627855Y-23996990D01*
X85798835Y-24031000D01*
X85973165Y-24031000D01*
X86144145Y-23996990D01*
X86305205Y-23930277D01*
X86450155Y-23833424D01*
X86573424Y-23710155D01*
X86670277Y-23565205D01*
X86736990Y-23404145D01*
X86771000Y-23233165D01*
X86771000Y-23058835D01*
X86736990Y-22887855D01*
X86670277Y-22726795D01*
X86596000Y-22615632D01*
X86596000Y-21313962D01*
X86842401Y-21431325D01*
X86989610Y-21475976D01*
X87219500Y-21354655D01*
X87219500Y-20161500D01*
X87199500Y-20161500D01*
X87199500Y-19907500D01*
X87219500Y-19907500D01*
X87219500Y-19887500D01*
X87473500Y-19887500D01*
X87473500Y-19907500D01*
X87493500Y-19907500D01*
X87493500Y-20161500D01*
X87473500Y-20161500D01*
X87473500Y-21354655D01*
X87703390Y-21475976D01*
X87716001Y-21472151D01*
X87716001Y-22615631D01*
X87641723Y-22726795D01*
X87575010Y-22887855D01*
X87541000Y-23058835D01*
X87541000Y-23233165D01*
X87575010Y-23404145D01*
X87641723Y-23565205D01*
X87738576Y-23710155D01*
X87861845Y-23833424D01*
X88006795Y-23930277D01*
X88072353Y-23957432D01*
X88049000Y-24074835D01*
X88049000Y-24249165D01*
X88083010Y-24420145D01*
X88149723Y-24581205D01*
X88224000Y-24692368D01*
X88224000Y-25372620D01*
X88128723Y-25343718D01*
X88032590Y-25324596D01*
X87908109Y-25312336D01*
X87883550Y-25312336D01*
X87859100Y-25309928D01*
X87359100Y-25309928D01*
X87334650Y-25312336D01*
X87310091Y-25312336D01*
X87273257Y-25315964D01*
X87244990Y-25173855D01*
X87178277Y-25012795D01*
X87081424Y-24867845D01*
X86958155Y-24744576D01*
X86813205Y-24647723D01*
X86652145Y-24581010D01*
X86481165Y-24547000D01*
X86306835Y-24547000D01*
X86135855Y-24581010D01*
X85974795Y-24647723D01*
X85829845Y-24744576D01*
X85706576Y-24867845D01*
X85609723Y-25012795D01*
X85543010Y-25173855D01*
X85509000Y-25344835D01*
X85509000Y-25519165D01*
X85543010Y-25690145D01*
X85609723Y-25851205D01*
X85684000Y-25962368D01*
X85684000Y-26159125D01*
X85680565Y-26194000D01*
X85684000Y-26228875D01*
X85684000Y-26228877D01*
X85694273Y-26333184D01*
X85711049Y-26388485D01*
X85734872Y-26467019D01*
X85777604Y-26546965D01*
X85800801Y-26590363D01*
X85889526Y-26698475D01*
X85916617Y-26720708D01*
X86121288Y-26925379D01*
X86143525Y-26952475D01*
X86228323Y-27022066D01*
X86233288Y-27072482D01*
X86241029Y-27098000D01*
X86233288Y-27123518D01*
X86221028Y-27248000D01*
X86221028Y-27748000D01*
X86223436Y-27772450D01*
X86223436Y-27797009D01*
X86235696Y-27921490D01*
X86254818Y-28017623D01*
X86291127Y-28137319D01*
X86328636Y-28227875D01*
X86387602Y-28338192D01*
X86442058Y-28419691D01*
X86521410Y-28516382D01*
X86590718Y-28585690D01*
X86687409Y-28665042D01*
X86768908Y-28719498D01*
X86879225Y-28778464D01*
X86969781Y-28815973D01*
X87089477Y-28852282D01*
X87185610Y-28871404D01*
X87310091Y-28883664D01*
X87334650Y-28883664D01*
X87359100Y-28886072D01*
X87859100Y-28886072D01*
X87883550Y-28883664D01*
X87908109Y-28883664D01*
X88032590Y-28871404D01*
X88128723Y-28852282D01*
X88248419Y-28815973D01*
X88338975Y-28778464D01*
X88449292Y-28719498D01*
X88530791Y-28665042D01*
X88627482Y-28585690D01*
X88696790Y-28516382D01*
X88776142Y-28419691D01*
X88830598Y-28338192D01*
X88889564Y-28227875D01*
X88927073Y-28137319D01*
X88963382Y-28017623D01*
X88982504Y-27921490D01*
X88994764Y-27797009D01*
X88994764Y-27772450D01*
X88997172Y-27748000D01*
X88997172Y-27599706D01*
X89411384Y-27185494D01*
X89438475Y-27163261D01*
X89527200Y-27055149D01*
X89593128Y-26931806D01*
X89633727Y-26797970D01*
X89644000Y-26693663D01*
X89644000Y-26693662D01*
X89647435Y-26658787D01*
X89644000Y-26623912D01*
X89644000Y-24692368D01*
X89718277Y-24581205D01*
X89784990Y-24420145D01*
X89819000Y-24249165D01*
X89819000Y-24074835D01*
X89784990Y-23903855D01*
X89718277Y-23742795D01*
X89621424Y-23597845D01*
X89498155Y-23474576D01*
X89353205Y-23377723D01*
X89287647Y-23350568D01*
X89311000Y-23233165D01*
X89311000Y-23058835D01*
X89276990Y-22887855D01*
X89210277Y-22726795D01*
X89136000Y-22615632D01*
X89136000Y-21313962D01*
X89382401Y-21431325D01*
X89529610Y-21475976D01*
X89759500Y-21354655D01*
X89759500Y-20161500D01*
X89739500Y-20161500D01*
X89739500Y-19907500D01*
X89759500Y-19907500D01*
X89759500Y-19887500D01*
X90013500Y-19887500D01*
X90013500Y-19907500D01*
X90033500Y-19907500D01*
X90033500Y-20161500D01*
X90013500Y-20161500D01*
X90013500Y-21354655D01*
X90243390Y-21475976D01*
X90256001Y-21472151D01*
X90256001Y-22869631D01*
X90181723Y-22980795D01*
X90115010Y-23141855D01*
X90081000Y-23312835D01*
X90081000Y-23487165D01*
X90115010Y-23658145D01*
X90181723Y-23819205D01*
X90278576Y-23964155D01*
X90401845Y-24087424D01*
X90546795Y-24184277D01*
X90707855Y-24250990D01*
X90878835Y-24285000D01*
X91053165Y-24285000D01*
X91224145Y-24250990D01*
X91379265Y-24186737D01*
X91351000Y-24328835D01*
X91351000Y-24503165D01*
X91385010Y-24674145D01*
X91451723Y-24835205D01*
X91548576Y-24980155D01*
X91671845Y-25103424D01*
X91780000Y-25175691D01*
X91780001Y-26159116D01*
X91776565Y-26194000D01*
X91790274Y-26333184D01*
X91830872Y-26467019D01*
X91873604Y-26546965D01*
X91896801Y-26590363D01*
X91985526Y-26698475D01*
X92012617Y-26720708D01*
X92217288Y-26925379D01*
X92239525Y-26952475D01*
X92347637Y-27041200D01*
X92470790Y-27107026D01*
X92465787Y-27123518D01*
X92453527Y-27248000D01*
X92453527Y-27748000D01*
X92455935Y-27772450D01*
X92455935Y-27797009D01*
X92468195Y-27921490D01*
X92487317Y-28017623D01*
X92523626Y-28137319D01*
X92561135Y-28227875D01*
X92620101Y-28338192D01*
X92674557Y-28419691D01*
X92753909Y-28516382D01*
X92823217Y-28585690D01*
X92919908Y-28665042D01*
X93001407Y-28719498D01*
X93111724Y-28778464D01*
X93202280Y-28815973D01*
X93321976Y-28852282D01*
X93418109Y-28871404D01*
X93542590Y-28883664D01*
X93567149Y-28883664D01*
X93591599Y-28886072D01*
X94091599Y-28886072D01*
X94116049Y-28883664D01*
X94140608Y-28883664D01*
X94265089Y-28871404D01*
X94361222Y-28852282D01*
X94480918Y-28815973D01*
X94571474Y-28778464D01*
X94681791Y-28719498D01*
X94763290Y-28665042D01*
X94859981Y-28585690D01*
X94929289Y-28516382D01*
X95008641Y-28419691D01*
X95016531Y-28407883D01*
X95019020Y-28407128D01*
X95142363Y-28341200D01*
X95250475Y-28252475D01*
X95272713Y-28225378D01*
X95471601Y-28026490D01*
X95471600Y-33611621D01*
X95284371Y-33736724D01*
X95088324Y-33932771D01*
X94934290Y-34163299D01*
X94828190Y-34419447D01*
X94774100Y-34691373D01*
X94774100Y-34968627D01*
X94828190Y-35240553D01*
X94934290Y-35496701D01*
X95088324Y-35727229D01*
X95284371Y-35923276D01*
X95514899Y-36077310D01*
X95771047Y-36183410D01*
X96042973Y-36237500D01*
X96320227Y-36237500D01*
X96592153Y-36183410D01*
X96848301Y-36077310D01*
X97064001Y-35933184D01*
X97064001Y-36354717D01*
X96899899Y-36422690D01*
X96669371Y-36576724D01*
X96473324Y-36772771D01*
X96319290Y-37003299D01*
X96213190Y-37259447D01*
X96159100Y-37531373D01*
X96159100Y-37808627D01*
X96203030Y-38029478D01*
X95032509Y-39200000D01*
X90090133Y-39200000D01*
X90463214Y-39085980D01*
X90983161Y-38808062D01*
X91250026Y-38398031D01*
X89281600Y-36429605D01*
X87313174Y-38398031D01*
X87580039Y-38808062D01*
X88111787Y-39090867D01*
X88474261Y-39200000D01*
X84603694Y-39200000D01*
X84579472Y-39120149D01*
X84497405Y-38966613D01*
X84386962Y-38832038D01*
X84252387Y-38721595D01*
X84098851Y-38639528D01*
X83932255Y-38588992D01*
X83759001Y-38571928D01*
X83233999Y-38571928D01*
X83060745Y-38588992D01*
X82894149Y-38639528D01*
X82740613Y-38721595D01*
X82606038Y-38832038D01*
X82584000Y-38858891D01*
X82561962Y-38832038D01*
X82427387Y-38721595D01*
X82273851Y-38639528D01*
X82107255Y-38588992D01*
X81934001Y-38571928D01*
X81408999Y-38571928D01*
X81235745Y-38588992D01*
X81212000Y-38596195D01*
X81212000Y-36256387D01*
X86209313Y-36256387D01*
X86269592Y-36855638D01*
X86445620Y-37431614D01*
X86723538Y-37951561D01*
X87133569Y-38218426D01*
X89101995Y-36250000D01*
X89461205Y-36250000D01*
X91429631Y-38218426D01*
X91839662Y-37951561D01*
X92122467Y-37419813D01*
X92296100Y-36843109D01*
X92353887Y-36243613D01*
X92293608Y-35644362D01*
X92117580Y-35068386D01*
X91839662Y-34548439D01*
X91429631Y-34281574D01*
X89461205Y-36250000D01*
X89101995Y-36250000D01*
X87133569Y-34281574D01*
X86723538Y-34548439D01*
X86440733Y-35080187D01*
X86267100Y-35656891D01*
X86209313Y-36256387D01*
X81212000Y-36256387D01*
X81212000Y-34101969D01*
X87313174Y-34101969D01*
X89281600Y-36070395D01*
X91250026Y-34101969D01*
X90983161Y-33691938D01*
X90451413Y-33409133D01*
X89874709Y-33235500D01*
X89275213Y-33177713D01*
X88675962Y-33237992D01*
X88099986Y-33414020D01*
X87580039Y-33691938D01*
X87313174Y-34101969D01*
X81212000Y-34101969D01*
X81212000Y-21486039D01*
X81292018Y-21510312D01*
X81416500Y-21522572D01*
X81980750Y-21519500D01*
X82139500Y-21360750D01*
X82139500Y-20161500D01*
X82119500Y-20161500D01*
X82119500Y-19907500D01*
X82139500Y-19907500D01*
X82139500Y-19887500D01*
X82393500Y-19887500D01*
X82393500Y-19907500D01*
%TA.AperFunction,Conductor*%
D23*
G36*
X82393500Y-19907500D02*
G01*
X82413500Y-19907500D01*
X82413500Y-20161500D01*
X82393500Y-20161500D01*
X82393500Y-21360750D01*
X82552250Y-21519500D01*
X82608502Y-21519806D01*
X82608502Y-22148786D01*
X82561723Y-22218795D01*
X82495010Y-22379855D01*
X82461000Y-22550835D01*
X82461000Y-22725165D01*
X82495010Y-22896145D01*
X82561723Y-23057205D01*
X82658576Y-23202155D01*
X82781845Y-23325424D01*
X82926795Y-23422277D01*
X83087855Y-23488990D01*
X83258835Y-23523000D01*
X83433165Y-23523000D01*
X83604145Y-23488990D01*
X83765205Y-23422277D01*
X83910155Y-23325424D01*
X84033424Y-23202155D01*
X84130277Y-23057205D01*
X84196990Y-22896145D01*
X84231000Y-22725165D01*
X84231000Y-22550835D01*
X84196990Y-22379855D01*
X84130277Y-22218795D01*
X84033424Y-22073845D01*
X84028501Y-22068922D01*
X84028501Y-21297877D01*
X84039580Y-21306141D01*
X84302401Y-21431325D01*
X84449610Y-21475976D01*
X84679500Y-21354655D01*
X84679500Y-20161500D01*
X84659500Y-20161500D01*
X84659500Y-19907500D01*
X84679500Y-19907500D01*
X84679500Y-19887500D01*
X84933500Y-19887500D01*
X84933500Y-19907500D01*
X84953500Y-19907500D01*
X84953500Y-20161500D01*
X84933500Y-20161500D01*
X84933500Y-21354655D01*
X85163390Y-21475976D01*
X85176001Y-21472151D01*
X85176001Y-22615631D01*
X85101723Y-22726795D01*
X85035010Y-22887855D01*
X85001000Y-23058835D01*
X85001000Y-23233165D01*
X85035010Y-23404145D01*
X85101723Y-23565205D01*
X85198576Y-23710155D01*
X85321845Y-23833424D01*
X85466795Y-23930277D01*
X85627855Y-23996990D01*
X85798835Y-24031000D01*
X85973165Y-24031000D01*
X86144145Y-23996990D01*
X86305205Y-23930277D01*
X86450155Y-23833424D01*
X86573424Y-23710155D01*
X86670277Y-23565205D01*
X86736990Y-23404145D01*
X86771000Y-23233165D01*
X86771000Y-23058835D01*
X86736990Y-22887855D01*
X86670277Y-22726795D01*
X86596000Y-22615632D01*
X86596000Y-21313962D01*
X86842401Y-21431325D01*
X86989610Y-21475976D01*
X87219500Y-21354655D01*
X87219500Y-20161500D01*
X87199500Y-20161500D01*
X87199500Y-19907500D01*
X87219500Y-19907500D01*
X87219500Y-19887500D01*
X87473500Y-19887500D01*
X87473500Y-19907500D01*
X87493500Y-19907500D01*
X87493500Y-20161500D01*
X87473500Y-20161500D01*
X87473500Y-21354655D01*
X87703390Y-21475976D01*
X87716001Y-21472151D01*
X87716001Y-22615631D01*
X87641723Y-22726795D01*
X87575010Y-22887855D01*
X87541000Y-23058835D01*
X87541000Y-23233165D01*
X87575010Y-23404145D01*
X87641723Y-23565205D01*
X87738576Y-23710155D01*
X87861845Y-23833424D01*
X88006795Y-23930277D01*
X88072353Y-23957432D01*
X88049000Y-24074835D01*
X88049000Y-24249165D01*
X88083010Y-24420145D01*
X88149723Y-24581205D01*
X88224000Y-24692368D01*
X88224000Y-25372620D01*
X88128723Y-25343718D01*
X88032590Y-25324596D01*
X87908109Y-25312336D01*
X87883550Y-25312336D01*
X87859100Y-25309928D01*
X87359100Y-25309928D01*
X87334650Y-25312336D01*
X87310091Y-25312336D01*
X87273257Y-25315964D01*
X87244990Y-25173855D01*
X87178277Y-25012795D01*
X87081424Y-24867845D01*
X86958155Y-24744576D01*
X86813205Y-24647723D01*
X86652145Y-24581010D01*
X86481165Y-24547000D01*
X86306835Y-24547000D01*
X86135855Y-24581010D01*
X85974795Y-24647723D01*
X85829845Y-24744576D01*
X85706576Y-24867845D01*
X85609723Y-25012795D01*
X85543010Y-25173855D01*
X85509000Y-25344835D01*
X85509000Y-25519165D01*
X85543010Y-25690145D01*
X85609723Y-25851205D01*
X85684000Y-25962368D01*
X85684000Y-26159125D01*
X85680565Y-26194000D01*
X85684000Y-26228875D01*
X85684000Y-26228877D01*
X85694273Y-26333184D01*
X85711049Y-26388485D01*
X85734872Y-26467019D01*
X85777604Y-26546965D01*
X85800801Y-26590363D01*
X85889526Y-26698475D01*
X85916617Y-26720708D01*
X86121288Y-26925379D01*
X86143525Y-26952475D01*
X86228323Y-27022066D01*
X86233288Y-27072482D01*
X86241029Y-27098000D01*
X86233288Y-27123518D01*
X86221028Y-27248000D01*
X86221028Y-27748000D01*
X86223436Y-27772450D01*
X86223436Y-27797009D01*
X86235696Y-27921490D01*
X86254818Y-28017623D01*
X86291127Y-28137319D01*
X86328636Y-28227875D01*
X86387602Y-28338192D01*
X86442058Y-28419691D01*
X86521410Y-28516382D01*
X86590718Y-28585690D01*
X86687409Y-28665042D01*
X86768908Y-28719498D01*
X86879225Y-28778464D01*
X86969781Y-28815973D01*
X87089477Y-28852282D01*
X87185610Y-28871404D01*
X87310091Y-28883664D01*
X87334650Y-28883664D01*
X87359100Y-28886072D01*
X87859100Y-28886072D01*
X87883550Y-28883664D01*
X87908109Y-28883664D01*
X88032590Y-28871404D01*
X88128723Y-28852282D01*
X88248419Y-28815973D01*
X88338975Y-28778464D01*
X88449292Y-28719498D01*
X88530791Y-28665042D01*
X88627482Y-28585690D01*
X88696790Y-28516382D01*
X88776142Y-28419691D01*
X88830598Y-28338192D01*
X88889564Y-28227875D01*
X88927073Y-28137319D01*
X88963382Y-28017623D01*
X88982504Y-27921490D01*
X88994764Y-27797009D01*
X88994764Y-27772450D01*
X88997172Y-27748000D01*
X88997172Y-27599706D01*
X89411384Y-27185494D01*
X89438475Y-27163261D01*
X89527200Y-27055149D01*
X89593128Y-26931806D01*
X89633727Y-26797970D01*
X89644000Y-26693663D01*
X89644000Y-26693662D01*
X89647435Y-26658787D01*
X89644000Y-26623912D01*
X89644000Y-24692368D01*
X89718277Y-24581205D01*
X89784990Y-24420145D01*
X89819000Y-24249165D01*
X89819000Y-24074835D01*
X89784990Y-23903855D01*
X89718277Y-23742795D01*
X89621424Y-23597845D01*
X89498155Y-23474576D01*
X89353205Y-23377723D01*
X89287647Y-23350568D01*
X89311000Y-23233165D01*
X89311000Y-23058835D01*
X89276990Y-22887855D01*
X89210277Y-22726795D01*
X89136000Y-22615632D01*
X89136000Y-21313962D01*
X89382401Y-21431325D01*
X89529610Y-21475976D01*
X89759500Y-21354655D01*
X89759500Y-20161500D01*
X89739500Y-20161500D01*
X89739500Y-19907500D01*
X89759500Y-19907500D01*
X89759500Y-19887500D01*
X90013500Y-19887500D01*
X90013500Y-19907500D01*
X90033500Y-19907500D01*
X90033500Y-20161500D01*
X90013500Y-20161500D01*
X90013500Y-21354655D01*
X90243390Y-21475976D01*
X90256001Y-21472151D01*
X90256001Y-22869631D01*
X90181723Y-22980795D01*
X90115010Y-23141855D01*
X90081000Y-23312835D01*
X90081000Y-23487165D01*
X90115010Y-23658145D01*
X90181723Y-23819205D01*
X90278576Y-23964155D01*
X90401845Y-24087424D01*
X90546795Y-24184277D01*
X90707855Y-24250990D01*
X90878835Y-24285000D01*
X91053165Y-24285000D01*
X91224145Y-24250990D01*
X91379265Y-24186737D01*
X91351000Y-24328835D01*
X91351000Y-24503165D01*
X91385010Y-24674145D01*
X91451723Y-24835205D01*
X91548576Y-24980155D01*
X91671845Y-25103424D01*
X91780000Y-25175691D01*
X91780001Y-26159116D01*
X91776565Y-26194000D01*
X91790274Y-26333184D01*
X91830872Y-26467019D01*
X91873604Y-26546965D01*
X91896801Y-26590363D01*
X91985526Y-26698475D01*
X92012617Y-26720708D01*
X92217288Y-26925379D01*
X92239525Y-26952475D01*
X92347637Y-27041200D01*
X92470790Y-27107026D01*
X92465787Y-27123518D01*
X92453527Y-27248000D01*
X92453527Y-27748000D01*
X92455935Y-27772450D01*
X92455935Y-27797009D01*
X92468195Y-27921490D01*
X92487317Y-28017623D01*
X92523626Y-28137319D01*
X92561135Y-28227875D01*
X92620101Y-28338192D01*
X92674557Y-28419691D01*
X92753909Y-28516382D01*
X92823217Y-28585690D01*
X92919908Y-28665042D01*
X93001407Y-28719498D01*
X93111724Y-28778464D01*
X93202280Y-28815973D01*
X93321976Y-28852282D01*
X93418109Y-28871404D01*
X93542590Y-28883664D01*
X93567149Y-28883664D01*
X93591599Y-28886072D01*
X94091599Y-28886072D01*
X94116049Y-28883664D01*
X94140608Y-28883664D01*
X94265089Y-28871404D01*
X94361222Y-28852282D01*
X94480918Y-28815973D01*
X94571474Y-28778464D01*
X94681791Y-28719498D01*
X94763290Y-28665042D01*
X94859981Y-28585690D01*
X94929289Y-28516382D01*
X95008641Y-28419691D01*
X95016531Y-28407883D01*
X95019020Y-28407128D01*
X95142363Y-28341200D01*
X95250475Y-28252475D01*
X95272713Y-28225378D01*
X95471601Y-28026490D01*
X95471600Y-33611621D01*
X95284371Y-33736724D01*
X95088324Y-33932771D01*
X94934290Y-34163299D01*
X94828190Y-34419447D01*
X94774100Y-34691373D01*
X94774100Y-34968627D01*
X94828190Y-35240553D01*
X94934290Y-35496701D01*
X95088324Y-35727229D01*
X95284371Y-35923276D01*
X95514899Y-36077310D01*
X95771047Y-36183410D01*
X96042973Y-36237500D01*
X96320227Y-36237500D01*
X96592153Y-36183410D01*
X96848301Y-36077310D01*
X97064001Y-35933184D01*
X97064001Y-36354717D01*
X96899899Y-36422690D01*
X96669371Y-36576724D01*
X96473324Y-36772771D01*
X96319290Y-37003299D01*
X96213190Y-37259447D01*
X96159100Y-37531373D01*
X96159100Y-37808627D01*
X96203030Y-38029478D01*
X95032509Y-39200000D01*
X90090133Y-39200000D01*
X90463214Y-39085980D01*
X90983161Y-38808062D01*
X91250026Y-38398031D01*
X89281600Y-36429605D01*
X87313174Y-38398031D01*
X87580039Y-38808062D01*
X88111787Y-39090867D01*
X88474261Y-39200000D01*
X84603694Y-39200000D01*
X84579472Y-39120149D01*
X84497405Y-38966613D01*
X84386962Y-38832038D01*
X84252387Y-38721595D01*
X84098851Y-38639528D01*
X83932255Y-38588992D01*
X83759001Y-38571928D01*
X83233999Y-38571928D01*
X83060745Y-38588992D01*
X82894149Y-38639528D01*
X82740613Y-38721595D01*
X82606038Y-38832038D01*
X82584000Y-38858891D01*
X82561962Y-38832038D01*
X82427387Y-38721595D01*
X82273851Y-38639528D01*
X82107255Y-38588992D01*
X81934001Y-38571928D01*
X81408999Y-38571928D01*
X81235745Y-38588992D01*
X81212000Y-38596195D01*
X81212000Y-36256387D01*
X86209313Y-36256387D01*
X86269592Y-36855638D01*
X86445620Y-37431614D01*
X86723538Y-37951561D01*
X87133569Y-38218426D01*
X89101995Y-36250000D01*
X89461205Y-36250000D01*
X91429631Y-38218426D01*
X91839662Y-37951561D01*
X92122467Y-37419813D01*
X92296100Y-36843109D01*
X92353887Y-36243613D01*
X92293608Y-35644362D01*
X92117580Y-35068386D01*
X91839662Y-34548439D01*
X91429631Y-34281574D01*
X89461205Y-36250000D01*
X89101995Y-36250000D01*
X87133569Y-34281574D01*
X86723538Y-34548439D01*
X86440733Y-35080187D01*
X86267100Y-35656891D01*
X86209313Y-36256387D01*
X81212000Y-36256387D01*
X81212000Y-34101969D01*
X87313174Y-34101969D01*
X89281600Y-36070395D01*
X91250026Y-34101969D01*
X90983161Y-33691938D01*
X90451413Y-33409133D01*
X89874709Y-33235500D01*
X89275213Y-33177713D01*
X88675962Y-33237992D01*
X88099986Y-33414020D01*
X87580039Y-33691938D01*
X87313174Y-34101969D01*
X81212000Y-34101969D01*
X81212000Y-21486039D01*
X81292018Y-21510312D01*
X81416500Y-21522572D01*
X81980750Y-21519500D01*
X82139500Y-21360750D01*
X82139500Y-20161500D01*
X82119500Y-20161500D01*
X82119500Y-19907500D01*
X82139500Y-19907500D01*
X82139500Y-19887500D01*
X82393500Y-19887500D01*
X82393500Y-19907500D01*
G37*
%TD.AperFunction*%
D25*
X107455348Y-34815858D02*
X107441205Y-34830000D01*
X107455348Y-34844143D01*
X107275743Y-35023748D01*
X107261600Y-35009605D01*
X107247458Y-35023748D01*
X107067853Y-34844143D01*
X107081995Y-34830000D01*
X107067853Y-34815858D01*
X107247458Y-34636253D01*
X107261600Y-34650395D01*
X107275743Y-34636253D01*
X107455348Y-34815858D01*
%TA.AperFunction,Conductor*%
D23*
G36*
X107455348Y-34815858D02*
G01*
X107441205Y-34830000D01*
X107455348Y-34844143D01*
X107275743Y-35023748D01*
X107261600Y-35009605D01*
X107247458Y-35023748D01*
X107067853Y-34844143D01*
X107081995Y-34830000D01*
X107067853Y-34815858D01*
X107247458Y-34636253D01*
X107261600Y-34650395D01*
X107275743Y-34636253D01*
X107455348Y-34815858D01*
G37*
%TD.AperFunction*%
D25*
X112995348Y-34815858D02*
X112981205Y-34830000D01*
X112995348Y-34844143D01*
X112815743Y-35023748D01*
X112801600Y-35009605D01*
X112787458Y-35023748D01*
X112607853Y-34844143D01*
X112621995Y-34830000D01*
X112607853Y-34815858D01*
X112787458Y-34636253D01*
X112801600Y-34650395D01*
X112815743Y-34636253D01*
X112995348Y-34815858D01*
%TA.AperFunction,Conductor*%
D23*
G36*
X112995348Y-34815858D02*
G01*
X112981205Y-34830000D01*
X112995348Y-34844143D01*
X112815743Y-35023748D01*
X112801600Y-35009605D01*
X112787458Y-35023748D01*
X112607853Y-34844143D01*
X112621995Y-34830000D01*
X112607853Y-34815858D01*
X112787458Y-34636253D01*
X112801600Y-34650395D01*
X112815743Y-34636253D01*
X112995348Y-34815858D01*
G37*
%TD.AperFunction*%
D25*
X117631601Y-30241693D02*
X117631600Y-33611621D01*
X117444371Y-33736724D01*
X117248324Y-33932771D01*
X117094290Y-34163299D01*
X116988190Y-34419447D01*
X116956600Y-34578259D01*
X116925010Y-34419447D01*
X116818910Y-34163299D01*
X116817999Y-34161936D01*
X116817999Y-29428090D01*
X117631601Y-30241693D01*
%TA.AperFunction,Conductor*%
D23*
G36*
X117631601Y-30241693D02*
G01*
X117631600Y-33611621D01*
X117444371Y-33736724D01*
X117248324Y-33932771D01*
X117094290Y-34163299D01*
X116988190Y-34419447D01*
X116956600Y-34578259D01*
X116925010Y-34419447D01*
X116818910Y-34163299D01*
X116817999Y-34161936D01*
X116817999Y-29428090D01*
X117631601Y-30241693D01*
G37*
%TD.AperFunction*%
D25*
X120493500Y-19907500D02*
X122779500Y-19907500D01*
X122779500Y-19887500D01*
X123033500Y-19887500D01*
X123033500Y-19907500D01*
X123053500Y-19907500D01*
X123053500Y-20161500D01*
X123033500Y-20161500D01*
X123033500Y-21354655D01*
X123263390Y-21475976D01*
X123410599Y-21431325D01*
X123673420Y-21306141D01*
X123684500Y-21297877D01*
X123684500Y-22783362D01*
X123681064Y-22818247D01*
X123694773Y-22957431D01*
X123735371Y-23091266D01*
X123795469Y-23203701D01*
X123801300Y-23214610D01*
X123890025Y-23322722D01*
X123917115Y-23344954D01*
X124409169Y-23837009D01*
X124435252Y-23968135D01*
X124501965Y-24129195D01*
X124598818Y-24274145D01*
X124722087Y-24397414D01*
X124867037Y-24494267D01*
X125028097Y-24560980D01*
X125199077Y-24594990D01*
X125373407Y-24594990D01*
X125544387Y-24560980D01*
X125562001Y-24553684D01*
X125562000Y-25355331D01*
X125523717Y-25343718D01*
X125427584Y-25324596D01*
X125303103Y-25312336D01*
X125278544Y-25312336D01*
X125254094Y-25309928D01*
X124870113Y-25309928D01*
X124410785Y-24850600D01*
X124388548Y-24823504D01*
X124280436Y-24734779D01*
X124157093Y-24668851D01*
X124079328Y-24645261D01*
X124074622Y-24640555D01*
X123929672Y-24543702D01*
X123768612Y-24476989D01*
X123597632Y-24442979D01*
X123423302Y-24442979D01*
X123252322Y-24476989D01*
X123091262Y-24543702D01*
X122946312Y-24640555D01*
X122823043Y-24763824D01*
X122726190Y-24908774D01*
X122659477Y-25069834D01*
X122625467Y-25240814D01*
X122625467Y-25415144D01*
X122659477Y-25586124D01*
X122726190Y-25747184D01*
X122823043Y-25892134D01*
X122946312Y-26015403D01*
X123070844Y-26098613D01*
X122939904Y-26152850D01*
X122794954Y-26249703D01*
X122671685Y-26372972D01*
X122574832Y-26517922D01*
X122508119Y-26678982D01*
X122474109Y-26849962D01*
X122474109Y-27024292D01*
X122508119Y-27195272D01*
X122574832Y-27356332D01*
X122671685Y-27501282D01*
X122794954Y-27624551D01*
X122939904Y-27721404D01*
X123100964Y-27788117D01*
X123171601Y-27802168D01*
X123171600Y-33611621D01*
X122984371Y-33736724D01*
X122788324Y-33932771D01*
X122634290Y-34163299D01*
X122528190Y-34419447D01*
X122496600Y-34578259D01*
X122465010Y-34419447D01*
X122358910Y-34163299D01*
X122204876Y-33932771D01*
X122008829Y-33736724D01*
X121821600Y-33611621D01*
X121821600Y-25552491D01*
X122058008Y-25316084D01*
X122189134Y-25290001D01*
X122350194Y-25223288D01*
X122495144Y-25126435D01*
X122618413Y-25003166D01*
X122715266Y-24858216D01*
X122781979Y-24697156D01*
X122815989Y-24526176D01*
X122815989Y-24351846D01*
X122781979Y-24180866D01*
X122715266Y-24019806D01*
X122618413Y-23874856D01*
X122495144Y-23751587D01*
X122350194Y-23654734D01*
X122189134Y-23588021D01*
X122018154Y-23554011D01*
X121843824Y-23554011D01*
X121672844Y-23588021D01*
X121511784Y-23654734D01*
X121366834Y-23751587D01*
X121243565Y-23874856D01*
X121146712Y-24019806D01*
X121079999Y-24180866D01*
X121053916Y-24311992D01*
X120634216Y-24731693D01*
X120632000Y-24733511D01*
X120632000Y-23676368D01*
X120706277Y-23565205D01*
X120772990Y-23404145D01*
X120807000Y-23233165D01*
X120807000Y-23058835D01*
X120772990Y-22887855D01*
X120706277Y-22726795D01*
X120609424Y-22581845D01*
X120486155Y-22458576D01*
X120341205Y-22361723D01*
X120180145Y-22295010D01*
X120009165Y-22261000D01*
X119834835Y-22261000D01*
X119774700Y-22272962D01*
X119774700Y-21389552D01*
X119862401Y-21431325D01*
X120009610Y-21475976D01*
X120239500Y-21354655D01*
X120239500Y-20161500D01*
X120493500Y-20161500D01*
X120493500Y-21354655D01*
X120723390Y-21475976D01*
X120870599Y-21431325D01*
X121133420Y-21306141D01*
X121366769Y-21132088D01*
X121561678Y-20915855D01*
X121636500Y-20790245D01*
X121711322Y-20915855D01*
X121906231Y-21132088D01*
X122139580Y-21306141D01*
X122402401Y-21431325D01*
X122549610Y-21475976D01*
X122779500Y-21354655D01*
X122779500Y-20161500D01*
X120493500Y-20161500D01*
X120239500Y-20161500D01*
X120219500Y-20161500D01*
X120219500Y-19907500D01*
X120239500Y-19907500D01*
X120239500Y-19887500D01*
X120493500Y-19887500D01*
X120493500Y-19907500D01*
%TA.AperFunction,Conductor*%
D23*
G36*
X120493500Y-19907500D02*
G01*
X122779500Y-19907500D01*
X122779500Y-19887500D01*
X123033500Y-19887500D01*
X123033500Y-19907500D01*
X123053500Y-19907500D01*
X123053500Y-20161500D01*
X123033500Y-20161500D01*
X123033500Y-21354655D01*
X123263390Y-21475976D01*
X123410599Y-21431325D01*
X123673420Y-21306141D01*
X123684500Y-21297877D01*
X123684500Y-22783362D01*
X123681064Y-22818247D01*
X123694773Y-22957431D01*
X123735371Y-23091266D01*
X123795469Y-23203701D01*
X123801300Y-23214610D01*
X123890025Y-23322722D01*
X123917115Y-23344954D01*
X124409169Y-23837009D01*
X124435252Y-23968135D01*
X124501965Y-24129195D01*
X124598818Y-24274145D01*
X124722087Y-24397414D01*
X124867037Y-24494267D01*
X125028097Y-24560980D01*
X125199077Y-24594990D01*
X125373407Y-24594990D01*
X125544387Y-24560980D01*
X125562001Y-24553684D01*
X125562000Y-25355331D01*
X125523717Y-25343718D01*
X125427584Y-25324596D01*
X125303103Y-25312336D01*
X125278544Y-25312336D01*
X125254094Y-25309928D01*
X124870113Y-25309928D01*
X124410785Y-24850600D01*
X124388548Y-24823504D01*
X124280436Y-24734779D01*
X124157093Y-24668851D01*
X124079328Y-24645261D01*
X124074622Y-24640555D01*
X123929672Y-24543702D01*
X123768612Y-24476989D01*
X123597632Y-24442979D01*
X123423302Y-24442979D01*
X123252322Y-24476989D01*
X123091262Y-24543702D01*
X122946312Y-24640555D01*
X122823043Y-24763824D01*
X122726190Y-24908774D01*
X122659477Y-25069834D01*
X122625467Y-25240814D01*
X122625467Y-25415144D01*
X122659477Y-25586124D01*
X122726190Y-25747184D01*
X122823043Y-25892134D01*
X122946312Y-26015403D01*
X123070844Y-26098613D01*
X122939904Y-26152850D01*
X122794954Y-26249703D01*
X122671685Y-26372972D01*
X122574832Y-26517922D01*
X122508119Y-26678982D01*
X122474109Y-26849962D01*
X122474109Y-27024292D01*
X122508119Y-27195272D01*
X122574832Y-27356332D01*
X122671685Y-27501282D01*
X122794954Y-27624551D01*
X122939904Y-27721404D01*
X123100964Y-27788117D01*
X123171601Y-27802168D01*
X123171600Y-33611621D01*
X122984371Y-33736724D01*
X122788324Y-33932771D01*
X122634290Y-34163299D01*
X122528190Y-34419447D01*
X122496600Y-34578259D01*
X122465010Y-34419447D01*
X122358910Y-34163299D01*
X122204876Y-33932771D01*
X122008829Y-33736724D01*
X121821600Y-33611621D01*
X121821600Y-25552491D01*
X122058008Y-25316084D01*
X122189134Y-25290001D01*
X122350194Y-25223288D01*
X122495144Y-25126435D01*
X122618413Y-25003166D01*
X122715266Y-24858216D01*
X122781979Y-24697156D01*
X122815989Y-24526176D01*
X122815989Y-24351846D01*
X122781979Y-24180866D01*
X122715266Y-24019806D01*
X122618413Y-23874856D01*
X122495144Y-23751587D01*
X122350194Y-23654734D01*
X122189134Y-23588021D01*
X122018154Y-23554011D01*
X121843824Y-23554011D01*
X121672844Y-23588021D01*
X121511784Y-23654734D01*
X121366834Y-23751587D01*
X121243565Y-23874856D01*
X121146712Y-24019806D01*
X121079999Y-24180866D01*
X121053916Y-24311992D01*
X120634216Y-24731693D01*
X120632000Y-24733511D01*
X120632000Y-23676368D01*
X120706277Y-23565205D01*
X120772990Y-23404145D01*
X120807000Y-23233165D01*
X120807000Y-23058835D01*
X120772990Y-22887855D01*
X120706277Y-22726795D01*
X120609424Y-22581845D01*
X120486155Y-22458576D01*
X120341205Y-22361723D01*
X120180145Y-22295010D01*
X120009165Y-22261000D01*
X119834835Y-22261000D01*
X119774700Y-22272962D01*
X119774700Y-21389552D01*
X119862401Y-21431325D01*
X120009610Y-21475976D01*
X120239500Y-21354655D01*
X120239500Y-20161500D01*
X120493500Y-20161500D01*
X120493500Y-21354655D01*
X120723390Y-21475976D01*
X120870599Y-21431325D01*
X121133420Y-21306141D01*
X121366769Y-21132088D01*
X121561678Y-20915855D01*
X121636500Y-20790245D01*
X121711322Y-20915855D01*
X121906231Y-21132088D01*
X122139580Y-21306141D01*
X122402401Y-21431325D01*
X122549610Y-21475976D01*
X122779500Y-21354655D01*
X122779500Y-20161500D01*
X120493500Y-20161500D01*
X120239500Y-20161500D01*
X120219500Y-20161500D01*
X120219500Y-19907500D01*
X120239500Y-19907500D01*
X120239500Y-19887500D01*
X120493500Y-19887500D01*
X120493500Y-19907500D01*
G37*
%TD.AperFunction*%
D25*
X128711600Y-33611621D02*
X128524371Y-33736724D01*
X128328324Y-33932771D01*
X128174290Y-34163299D01*
X128068190Y-34419447D01*
X128036600Y-34578259D01*
X128005010Y-34419447D01*
X127898910Y-34163299D01*
X127744876Y-33932771D01*
X127548829Y-33736724D01*
X127361600Y-33611621D01*
X127361600Y-30934491D01*
X128692405Y-29603686D01*
X128711601Y-29587933D01*
X128711600Y-33611621D01*
%TA.AperFunction,Conductor*%
D23*
G36*
X128711600Y-33611621D02*
G01*
X128524371Y-33736724D01*
X128328324Y-33932771D01*
X128174290Y-34163299D01*
X128068190Y-34419447D01*
X128036600Y-34578259D01*
X128005010Y-34419447D01*
X127898910Y-34163299D01*
X127744876Y-33932771D01*
X127548829Y-33736724D01*
X127361600Y-33611621D01*
X127361600Y-30934491D01*
X128692405Y-29603686D01*
X128711601Y-29587933D01*
X128711600Y-33611621D01*
G37*
%TD.AperFunction*%
D25*
X101011600Y-33611621D02*
X100824371Y-33736724D01*
X100628324Y-33932771D01*
X100474290Y-34163299D01*
X100368190Y-34419447D01*
X100336600Y-34578259D01*
X100305010Y-34419447D01*
X100198910Y-34163299D01*
X100044876Y-33932771D01*
X99848829Y-33736724D01*
X99661600Y-33611621D01*
X99661600Y-28872487D01*
X99775089Y-28883664D01*
X99799648Y-28883664D01*
X99824098Y-28886072D01*
X100324098Y-28886072D01*
X100348548Y-28883664D01*
X100373107Y-28883664D01*
X100497588Y-28871404D01*
X100593721Y-28852282D01*
X100713417Y-28815973D01*
X100803973Y-28778464D01*
X100914290Y-28719498D01*
X100995789Y-28665042D01*
X101011601Y-28652066D01*
X101011600Y-33611621D01*
%TA.AperFunction,Conductor*%
D23*
G36*
X101011600Y-33611621D02*
G01*
X100824371Y-33736724D01*
X100628324Y-33932771D01*
X100474290Y-34163299D01*
X100368190Y-34419447D01*
X100336600Y-34578259D01*
X100305010Y-34419447D01*
X100198910Y-34163299D01*
X100044876Y-33932771D01*
X99848829Y-33736724D01*
X99661600Y-33611621D01*
X99661600Y-28872487D01*
X99775089Y-28883664D01*
X99799648Y-28883664D01*
X99824098Y-28886072D01*
X100324098Y-28886072D01*
X100348548Y-28883664D01*
X100373107Y-28883664D01*
X100497588Y-28871404D01*
X100593721Y-28852282D01*
X100713417Y-28815973D01*
X100803973Y-28778464D01*
X100914290Y-28719498D01*
X100995789Y-28665042D01*
X101011601Y-28652066D01*
X101011600Y-33611621D01*
G37*
%TD.AperFunction*%
D25*
X102713500Y-19907500D02*
X102733500Y-19907500D01*
X102733500Y-20161500D01*
X102713500Y-20161500D01*
X102713500Y-21354655D01*
X102943390Y-21475976D01*
X103090599Y-21431325D01*
X103140122Y-21407737D01*
X103140122Y-22040979D01*
X103139966Y-22041010D01*
X102978906Y-22107723D01*
X102833956Y-22204576D01*
X102710687Y-22327845D01*
X102613834Y-22472795D01*
X102547121Y-22633855D01*
X102513111Y-22804835D01*
X102513111Y-22979165D01*
X102547121Y-23150145D01*
X102613834Y-23311205D01*
X102688111Y-23422368D01*
X102688112Y-33806007D01*
X102618829Y-33736724D01*
X102431600Y-33611621D01*
X102431600Y-27543241D01*
X102435035Y-27508366D01*
X102431388Y-27471339D01*
X102421327Y-27369182D01*
X102380728Y-27235346D01*
X102314800Y-27112003D01*
X102226075Y-27003891D01*
X102198974Y-26981650D01*
X102101462Y-26884138D01*
X102101462Y-24310938D01*
X102175739Y-24199775D01*
X102242452Y-24038715D01*
X102276462Y-23867735D01*
X102276462Y-23693405D01*
X102242452Y-23522425D01*
X102175739Y-23361365D01*
X102078886Y-23216415D01*
X101955617Y-23093146D01*
X101810667Y-22996293D01*
X101808501Y-22995396D01*
X101808501Y-21297877D01*
X101819580Y-21306141D01*
X102082401Y-21431325D01*
X102229610Y-21475976D01*
X102459500Y-21354655D01*
X102459500Y-20161500D01*
X102439500Y-20161500D01*
X102439500Y-19907500D01*
X102459500Y-19907500D01*
X102459500Y-19887500D01*
X102713500Y-19887500D01*
X102713500Y-19907500D01*
%TA.AperFunction,Conductor*%
D23*
G36*
X102713500Y-19907500D02*
G01*
X102733500Y-19907500D01*
X102733500Y-20161500D01*
X102713500Y-20161500D01*
X102713500Y-21354655D01*
X102943390Y-21475976D01*
X103090599Y-21431325D01*
X103140122Y-21407737D01*
X103140122Y-22040979D01*
X103139966Y-22041010D01*
X102978906Y-22107723D01*
X102833956Y-22204576D01*
X102710687Y-22327845D01*
X102613834Y-22472795D01*
X102547121Y-22633855D01*
X102513111Y-22804835D01*
X102513111Y-22979165D01*
X102547121Y-23150145D01*
X102613834Y-23311205D01*
X102688111Y-23422368D01*
X102688112Y-33806007D01*
X102618829Y-33736724D01*
X102431600Y-33611621D01*
X102431600Y-27543241D01*
X102435035Y-27508366D01*
X102431388Y-27471339D01*
X102421327Y-27369182D01*
X102380728Y-27235346D01*
X102314800Y-27112003D01*
X102226075Y-27003891D01*
X102198974Y-26981650D01*
X102101462Y-26884138D01*
X102101462Y-24310938D01*
X102175739Y-24199775D01*
X102242452Y-24038715D01*
X102276462Y-23867735D01*
X102276462Y-23693405D01*
X102242452Y-23522425D01*
X102175739Y-23361365D01*
X102078886Y-23216415D01*
X101955617Y-23093146D01*
X101810667Y-22996293D01*
X101808501Y-22995396D01*
X101808501Y-21297877D01*
X101819580Y-21306141D01*
X102082401Y-21431325D01*
X102229610Y-21475976D01*
X102459500Y-21354655D01*
X102459500Y-20161500D01*
X102439500Y-20161500D01*
X102439500Y-19907500D01*
X102459500Y-19907500D01*
X102459500Y-19887500D01*
X102713500Y-19887500D01*
X102713500Y-19907500D01*
G37*
%TD.AperFunction*%
D25*
X115413500Y-17367500D02*
X117699500Y-17367500D01*
X117699500Y-17347500D01*
X117953500Y-17347500D01*
X117953500Y-17367500D01*
X117973500Y-17367500D01*
X117973500Y-17621500D01*
X117953500Y-17621500D01*
X117953500Y-19907500D01*
X117973500Y-19907500D01*
X117973500Y-20161500D01*
X117953500Y-20161500D01*
X117953500Y-21354655D01*
X118183390Y-21475976D01*
X118330599Y-21431325D01*
X118354700Y-21419845D01*
X118354701Y-24637663D01*
X118302650Y-24715562D01*
X118238968Y-24620255D01*
X118115699Y-24496986D01*
X117970749Y-24400133D01*
X117809689Y-24333420D01*
X117638709Y-24299410D01*
X117495006Y-24299410D01*
X117505000Y-24249165D01*
X117505000Y-24074835D01*
X117470990Y-23903855D01*
X117404277Y-23742795D01*
X117307424Y-23597845D01*
X117184155Y-23474576D01*
X117039205Y-23377723D01*
X116878145Y-23311010D01*
X116707165Y-23277000D01*
X116532835Y-23277000D01*
X116361855Y-23311010D01*
X116239000Y-23361898D01*
X116116145Y-23311010D01*
X115945165Y-23277000D01*
X115770835Y-23277000D01*
X115599855Y-23311010D01*
X115438795Y-23377723D01*
X115293845Y-23474576D01*
X115170576Y-23597845D01*
X115073723Y-23742795D01*
X115007010Y-23903855D01*
X114973000Y-24074835D01*
X114973000Y-24249165D01*
X115007010Y-24420145D01*
X115073723Y-24581205D01*
X115170576Y-24726155D01*
X115293845Y-24849424D01*
X115398000Y-24919018D01*
X115397999Y-33429457D01*
X115161047Y-33476590D01*
X114904899Y-33582690D01*
X114674371Y-33736724D01*
X114605089Y-33806006D01*
X114605089Y-25550804D01*
X114679366Y-25439641D01*
X114746079Y-25278581D01*
X114780089Y-25107601D01*
X114780089Y-24933271D01*
X114746079Y-24762291D01*
X114679366Y-24601231D01*
X114582513Y-24456281D01*
X114459244Y-24333012D01*
X114314294Y-24236159D01*
X114217122Y-24195909D01*
X114245205Y-24184277D01*
X114390155Y-24087424D01*
X114513424Y-23964155D01*
X114610277Y-23819205D01*
X114676990Y-23658145D01*
X114711000Y-23487165D01*
X114711000Y-23312835D01*
X114676990Y-23141855D01*
X114610277Y-22980795D01*
X114513424Y-22835845D01*
X114390155Y-22712576D01*
X114245205Y-22615723D01*
X114084145Y-22549010D01*
X113913165Y-22515000D01*
X113738835Y-22515000D01*
X113567855Y-22549010D01*
X113406795Y-22615723D01*
X113261845Y-22712576D01*
X113138576Y-22835845D01*
X113041723Y-22980795D01*
X112975010Y-23141855D01*
X112949642Y-23269386D01*
X112938613Y-23278438D01*
X112916380Y-23305529D01*
X112849888Y-23386550D01*
X112783959Y-23509894D01*
X112743361Y-23643729D01*
X112729652Y-23782913D01*
X112733088Y-23817797D01*
X112733087Y-25202523D01*
X112729652Y-25237398D01*
X112733087Y-25272273D01*
X112733087Y-25272274D01*
X112736795Y-25309928D01*
X112289096Y-25309928D01*
X112264646Y-25312336D01*
X112240087Y-25312336D01*
X112115606Y-25324596D01*
X112019473Y-25343718D01*
X111996000Y-25350838D01*
X111996000Y-24946368D01*
X112070277Y-24835205D01*
X112136990Y-24674145D01*
X112171000Y-24503165D01*
X112171000Y-24328835D01*
X112136990Y-24157855D01*
X112070277Y-23996795D01*
X111973424Y-23851845D01*
X111850155Y-23728576D01*
X111705205Y-23631723D01*
X111604140Y-23589860D01*
X111562277Y-23488795D01*
X111465424Y-23343845D01*
X111433190Y-23311611D01*
X112048089Y-22696713D01*
X112077087Y-22672915D01*
X112172060Y-22557190D01*
X112242632Y-22425161D01*
X112254048Y-22387526D01*
X112286089Y-22281900D01*
X112289692Y-22245315D01*
X112297086Y-22170246D01*
X112297086Y-22170239D01*
X112297981Y-22161151D01*
X112350045Y-22063748D01*
X112393502Y-21920487D01*
X112404499Y-21808834D01*
X112404499Y-21808823D01*
X112408175Y-21771501D01*
X112404499Y-21734178D01*
X112404499Y-21480564D01*
X112600240Y-21519500D01*
X112892760Y-21519500D01*
X113179658Y-21462432D01*
X113449911Y-21350490D01*
X113693132Y-21187975D01*
X113899975Y-20981132D01*
X114021695Y-20798966D01*
X114091322Y-20915855D01*
X114286231Y-21132088D01*
X114519580Y-21306141D01*
X114782401Y-21431325D01*
X114929610Y-21475976D01*
X115159500Y-21354655D01*
X115159500Y-20161500D01*
X115413500Y-20161500D01*
X115413500Y-21354655D01*
X115643390Y-21475976D01*
X115790599Y-21431325D01*
X116053420Y-21306141D01*
X116286769Y-21132088D01*
X116481678Y-20915855D01*
X116556500Y-20790245D01*
X116631322Y-20915855D01*
X116826231Y-21132088D01*
X117059580Y-21306141D01*
X117322401Y-21431325D01*
X117469610Y-21475976D01*
X117699500Y-21354655D01*
X117699500Y-20161500D01*
X115413500Y-20161500D01*
X115159500Y-20161500D01*
X115139500Y-20161500D01*
X115139500Y-19907500D01*
X115159500Y-19907500D01*
X115159500Y-17621500D01*
X115413500Y-17621500D01*
X115413500Y-19907500D01*
X117699500Y-19907500D01*
X117699500Y-17621500D01*
X115413500Y-17621500D01*
X115159500Y-17621500D01*
X115139500Y-17621500D01*
X115139500Y-17367500D01*
X115159500Y-17367500D01*
X115159500Y-17347500D01*
X115413500Y-17347500D01*
X115413500Y-17367500D01*
%TA.AperFunction,Conductor*%
D23*
G36*
X115413500Y-17367500D02*
G01*
X117699500Y-17367500D01*
X117699500Y-17347500D01*
X117953500Y-17347500D01*
X117953500Y-17367500D01*
X117973500Y-17367500D01*
X117973500Y-17621500D01*
X117953500Y-17621500D01*
X117953500Y-19907500D01*
X117973500Y-19907500D01*
X117973500Y-20161500D01*
X117953500Y-20161500D01*
X117953500Y-21354655D01*
X118183390Y-21475976D01*
X118330599Y-21431325D01*
X118354700Y-21419845D01*
X118354701Y-24637663D01*
X118302650Y-24715562D01*
X118238968Y-24620255D01*
X118115699Y-24496986D01*
X117970749Y-24400133D01*
X117809689Y-24333420D01*
X117638709Y-24299410D01*
X117495006Y-24299410D01*
X117505000Y-24249165D01*
X117505000Y-24074835D01*
X117470990Y-23903855D01*
X117404277Y-23742795D01*
X117307424Y-23597845D01*
X117184155Y-23474576D01*
X117039205Y-23377723D01*
X116878145Y-23311010D01*
X116707165Y-23277000D01*
X116532835Y-23277000D01*
X116361855Y-23311010D01*
X116239000Y-23361898D01*
X116116145Y-23311010D01*
X115945165Y-23277000D01*
X115770835Y-23277000D01*
X115599855Y-23311010D01*
X115438795Y-23377723D01*
X115293845Y-23474576D01*
X115170576Y-23597845D01*
X115073723Y-23742795D01*
X115007010Y-23903855D01*
X114973000Y-24074835D01*
X114973000Y-24249165D01*
X115007010Y-24420145D01*
X115073723Y-24581205D01*
X115170576Y-24726155D01*
X115293845Y-24849424D01*
X115398000Y-24919018D01*
X115397999Y-33429457D01*
X115161047Y-33476590D01*
X114904899Y-33582690D01*
X114674371Y-33736724D01*
X114605089Y-33806006D01*
X114605089Y-25550804D01*
X114679366Y-25439641D01*
X114746079Y-25278581D01*
X114780089Y-25107601D01*
X114780089Y-24933271D01*
X114746079Y-24762291D01*
X114679366Y-24601231D01*
X114582513Y-24456281D01*
X114459244Y-24333012D01*
X114314294Y-24236159D01*
X114217122Y-24195909D01*
X114245205Y-24184277D01*
X114390155Y-24087424D01*
X114513424Y-23964155D01*
X114610277Y-23819205D01*
X114676990Y-23658145D01*
X114711000Y-23487165D01*
X114711000Y-23312835D01*
X114676990Y-23141855D01*
X114610277Y-22980795D01*
X114513424Y-22835845D01*
X114390155Y-22712576D01*
X114245205Y-22615723D01*
X114084145Y-22549010D01*
X113913165Y-22515000D01*
X113738835Y-22515000D01*
X113567855Y-22549010D01*
X113406795Y-22615723D01*
X113261845Y-22712576D01*
X113138576Y-22835845D01*
X113041723Y-22980795D01*
X112975010Y-23141855D01*
X112949642Y-23269386D01*
X112938613Y-23278438D01*
X112916380Y-23305529D01*
X112849888Y-23386550D01*
X112783959Y-23509894D01*
X112743361Y-23643729D01*
X112729652Y-23782913D01*
X112733088Y-23817797D01*
X112733087Y-25202523D01*
X112729652Y-25237398D01*
X112733087Y-25272273D01*
X112733087Y-25272274D01*
X112736795Y-25309928D01*
X112289096Y-25309928D01*
X112264646Y-25312336D01*
X112240087Y-25312336D01*
X112115606Y-25324596D01*
X112019473Y-25343718D01*
X111996000Y-25350838D01*
X111996000Y-24946368D01*
X112070277Y-24835205D01*
X112136990Y-24674145D01*
X112171000Y-24503165D01*
X112171000Y-24328835D01*
X112136990Y-24157855D01*
X112070277Y-23996795D01*
X111973424Y-23851845D01*
X111850155Y-23728576D01*
X111705205Y-23631723D01*
X111604140Y-23589860D01*
X111562277Y-23488795D01*
X111465424Y-23343845D01*
X111433190Y-23311611D01*
X112048089Y-22696713D01*
X112077087Y-22672915D01*
X112172060Y-22557190D01*
X112242632Y-22425161D01*
X112254048Y-22387526D01*
X112286089Y-22281900D01*
X112289692Y-22245315D01*
X112297086Y-22170246D01*
X112297086Y-22170239D01*
X112297981Y-22161151D01*
X112350045Y-22063748D01*
X112393502Y-21920487D01*
X112404499Y-21808834D01*
X112404499Y-21808823D01*
X112408175Y-21771501D01*
X112404499Y-21734178D01*
X112404499Y-21480564D01*
X112600240Y-21519500D01*
X112892760Y-21519500D01*
X113179658Y-21462432D01*
X113449911Y-21350490D01*
X113693132Y-21187975D01*
X113899975Y-20981132D01*
X114021695Y-20798966D01*
X114091322Y-20915855D01*
X114286231Y-21132088D01*
X114519580Y-21306141D01*
X114782401Y-21431325D01*
X114929610Y-21475976D01*
X115159500Y-21354655D01*
X115159500Y-20161500D01*
X115413500Y-20161500D01*
X115413500Y-21354655D01*
X115643390Y-21475976D01*
X115790599Y-21431325D01*
X116053420Y-21306141D01*
X116286769Y-21132088D01*
X116481678Y-20915855D01*
X116556500Y-20790245D01*
X116631322Y-20915855D01*
X116826231Y-21132088D01*
X117059580Y-21306141D01*
X117322401Y-21431325D01*
X117469610Y-21475976D01*
X117699500Y-21354655D01*
X117699500Y-20161500D01*
X115413500Y-20161500D01*
X115159500Y-20161500D01*
X115139500Y-20161500D01*
X115139500Y-19907500D01*
X115159500Y-19907500D01*
X115159500Y-17621500D01*
X115413500Y-17621500D01*
X115413500Y-19907500D01*
X117699500Y-19907500D01*
X117699500Y-17621500D01*
X115413500Y-17621500D01*
X115159500Y-17621500D01*
X115139500Y-17621500D01*
X115139500Y-17367500D01*
X115159500Y-17367500D01*
X115159500Y-17347500D01*
X115413500Y-17347500D01*
X115413500Y-17367500D01*
G37*
%TD.AperFunction*%
D25*
X107936600Y-33592123D02*
X107735989Y-33497623D01*
X107466940Y-33430676D01*
X107190000Y-33417504D01*
X106915812Y-33458613D01*
X106654912Y-33552424D01*
X106586600Y-33588937D01*
X106586600Y-30471475D01*
X106590035Y-30436600D01*
X106585109Y-30386584D01*
X106576327Y-30297416D01*
X106535728Y-30163580D01*
X106469800Y-30040237D01*
X106381075Y-29932125D01*
X106353979Y-29909888D01*
X105138000Y-28693909D01*
X105138000Y-28417364D01*
X105139555Y-28419691D01*
X105218907Y-28516382D01*
X105288215Y-28585690D01*
X105384906Y-28665042D01*
X105466405Y-28719498D01*
X105576722Y-28778464D01*
X105667278Y-28815973D01*
X105786974Y-28852282D01*
X105883107Y-28871404D01*
X106007588Y-28883664D01*
X106032147Y-28883664D01*
X106056597Y-28886072D01*
X106556597Y-28886072D01*
X106581047Y-28883664D01*
X106605606Y-28883664D01*
X106730087Y-28871404D01*
X106826220Y-28852282D01*
X106945916Y-28815973D01*
X107036472Y-28778464D01*
X107146789Y-28719498D01*
X107228288Y-28665042D01*
X107324979Y-28585690D01*
X107394287Y-28516382D01*
X107473639Y-28419691D01*
X107528095Y-28338192D01*
X107587061Y-28227875D01*
X107593182Y-28213099D01*
X107936601Y-27869680D01*
X107936600Y-33592123D01*
%TA.AperFunction,Conductor*%
D23*
G36*
X107936600Y-33592123D02*
G01*
X107735989Y-33497623D01*
X107466940Y-33430676D01*
X107190000Y-33417504D01*
X106915812Y-33458613D01*
X106654912Y-33552424D01*
X106586600Y-33588937D01*
X106586600Y-30471475D01*
X106590035Y-30436600D01*
X106585109Y-30386584D01*
X106576327Y-30297416D01*
X106535728Y-30163580D01*
X106469800Y-30040237D01*
X106381075Y-29932125D01*
X106353979Y-29909888D01*
X105138000Y-28693909D01*
X105138000Y-28417364D01*
X105139555Y-28419691D01*
X105218907Y-28516382D01*
X105288215Y-28585690D01*
X105384906Y-28665042D01*
X105466405Y-28719498D01*
X105576722Y-28778464D01*
X105667278Y-28815973D01*
X105786974Y-28852282D01*
X105883107Y-28871404D01*
X106007588Y-28883664D01*
X106032147Y-28883664D01*
X106056597Y-28886072D01*
X106556597Y-28886072D01*
X106581047Y-28883664D01*
X106605606Y-28883664D01*
X106730087Y-28871404D01*
X106826220Y-28852282D01*
X106945916Y-28815973D01*
X107036472Y-28778464D01*
X107146789Y-28719498D01*
X107228288Y-28665042D01*
X107324979Y-28585690D01*
X107394287Y-28516382D01*
X107473639Y-28419691D01*
X107528095Y-28338192D01*
X107587061Y-28227875D01*
X107593182Y-28213099D01*
X107936601Y-27869680D01*
X107936600Y-33592123D01*
G37*
%TD.AperFunction*%
D25*
X113185089Y-33475005D02*
X113006940Y-33430676D01*
X112730000Y-33417504D01*
X112455812Y-33458613D01*
X112194912Y-33552424D01*
X112126600Y-33588937D01*
X112126600Y-28872487D01*
X112240087Y-28883664D01*
X112264646Y-28883664D01*
X112289096Y-28886072D01*
X112789096Y-28886072D01*
X112813546Y-28883664D01*
X112838105Y-28883664D01*
X112962586Y-28871404D01*
X113058719Y-28852282D01*
X113178415Y-28815973D01*
X113185090Y-28813208D01*
X113185089Y-33475005D01*
%TA.AperFunction,Conductor*%
D23*
G36*
X113185089Y-33475005D02*
G01*
X113006940Y-33430676D01*
X112730000Y-33417504D01*
X112455812Y-33458613D01*
X112194912Y-33552424D01*
X112126600Y-33588937D01*
X112126600Y-28872487D01*
X112240087Y-28883664D01*
X112264646Y-28883664D01*
X112289096Y-28886072D01*
X112789096Y-28886072D01*
X112813546Y-28883664D01*
X112838105Y-28883664D01*
X112962586Y-28871404D01*
X113058719Y-28852282D01*
X113178415Y-28815973D01*
X113185090Y-28813208D01*
X113185089Y-33475005D01*
G37*
%TD.AperFunction*%
D25*
X124789217Y-29720692D02*
X124762126Y-29742925D01*
X124739893Y-29770016D01*
X124673401Y-29851037D01*
X124607472Y-29974381D01*
X124591600Y-30026704D01*
X124591600Y-28872487D01*
X124705085Y-28883664D01*
X124729644Y-28883664D01*
X124754094Y-28886072D01*
X125254094Y-28886072D01*
X125278544Y-28883664D01*
X125303103Y-28883664D01*
X125427584Y-28871404D01*
X125523717Y-28852282D01*
X125643413Y-28815973D01*
X125729659Y-28780249D01*
X124789217Y-29720692D01*
%TA.AperFunction,Conductor*%
D23*
G36*
X124789217Y-29720692D02*
G01*
X124762126Y-29742925D01*
X124739893Y-29770016D01*
X124673401Y-29851037D01*
X124607472Y-29974381D01*
X124591600Y-30026704D01*
X124591600Y-28872487D01*
X124705085Y-28883664D01*
X124729644Y-28883664D01*
X124754094Y-28886072D01*
X125254094Y-28886072D01*
X125278544Y-28883664D01*
X125303103Y-28883664D01*
X125427584Y-28871404D01*
X125523717Y-28852282D01*
X125643413Y-28815973D01*
X125729659Y-28780249D01*
X124789217Y-29720692D01*
G37*
%TD.AperFunction*%
D25*
X97633500Y-19907500D02*
X97653500Y-19907500D01*
X97653500Y-20161500D01*
X97633500Y-20161500D01*
X97633500Y-21354655D01*
X97863390Y-21475976D01*
X97876001Y-21472151D01*
X97876001Y-23077506D01*
X97807672Y-23145835D01*
X97710819Y-23290785D01*
X97644106Y-23451845D01*
X97610096Y-23622825D01*
X97610096Y-23797155D01*
X97644106Y-23968135D01*
X97710819Y-24129195D01*
X97785097Y-24240359D01*
X97785096Y-26683000D01*
X97722061Y-26683000D01*
X97522102Y-26722774D01*
X97333744Y-26800795D01*
X97164226Y-26914063D01*
X97020063Y-27058226D01*
X96906795Y-27227744D01*
X96891600Y-27264428D01*
X96891600Y-25828507D01*
X96920145Y-25809434D01*
X97043414Y-25686165D01*
X97140267Y-25541215D01*
X97206980Y-25380155D01*
X97240990Y-25209175D01*
X97240990Y-25034845D01*
X97206980Y-24863865D01*
X97140267Y-24702805D01*
X97043414Y-24557855D01*
X96920145Y-24434586D01*
X96775195Y-24337733D01*
X96614135Y-24271020D01*
X96443155Y-24237010D01*
X96268825Y-24237010D01*
X96097845Y-24271020D01*
X95936785Y-24337733D01*
X95791835Y-24434586D01*
X95740000Y-24486421D01*
X95740000Y-24317979D01*
X95878864Y-24317979D01*
X96049844Y-24283969D01*
X96210904Y-24217256D01*
X96355854Y-24120403D01*
X96479123Y-23997134D01*
X96575976Y-23852184D01*
X96642689Y-23691124D01*
X96676699Y-23520144D01*
X96676699Y-23501401D01*
X96701127Y-23455699D01*
X96741726Y-23321863D01*
X96751999Y-23217556D01*
X96751999Y-23217554D01*
X96755434Y-23182679D01*
X96751999Y-23147804D01*
X96751999Y-21312056D01*
X97002401Y-21431325D01*
X97149610Y-21475976D01*
X97379500Y-21354655D01*
X97379500Y-20161500D01*
X97359500Y-20161500D01*
X97359500Y-19907500D01*
X97379500Y-19907500D01*
X97379500Y-19887500D01*
X97633500Y-19887500D01*
X97633500Y-19907500D01*
%TA.AperFunction,Conductor*%
D23*
G36*
X97633500Y-19907500D02*
G01*
X97653500Y-19907500D01*
X97653500Y-20161500D01*
X97633500Y-20161500D01*
X97633500Y-21354655D01*
X97863390Y-21475976D01*
X97876001Y-21472151D01*
X97876001Y-23077506D01*
X97807672Y-23145835D01*
X97710819Y-23290785D01*
X97644106Y-23451845D01*
X97610096Y-23622825D01*
X97610096Y-23797155D01*
X97644106Y-23968135D01*
X97710819Y-24129195D01*
X97785097Y-24240359D01*
X97785096Y-26683000D01*
X97722061Y-26683000D01*
X97522102Y-26722774D01*
X97333744Y-26800795D01*
X97164226Y-26914063D01*
X97020063Y-27058226D01*
X96906795Y-27227744D01*
X96891600Y-27264428D01*
X96891600Y-25828507D01*
X96920145Y-25809434D01*
X97043414Y-25686165D01*
X97140267Y-25541215D01*
X97206980Y-25380155D01*
X97240990Y-25209175D01*
X97240990Y-25034845D01*
X97206980Y-24863865D01*
X97140267Y-24702805D01*
X97043414Y-24557855D01*
X96920145Y-24434586D01*
X96775195Y-24337733D01*
X96614135Y-24271020D01*
X96443155Y-24237010D01*
X96268825Y-24237010D01*
X96097845Y-24271020D01*
X95936785Y-24337733D01*
X95791835Y-24434586D01*
X95740000Y-24486421D01*
X95740000Y-24317979D01*
X95878864Y-24317979D01*
X96049844Y-24283969D01*
X96210904Y-24217256D01*
X96355854Y-24120403D01*
X96479123Y-23997134D01*
X96575976Y-23852184D01*
X96642689Y-23691124D01*
X96676699Y-23520144D01*
X96676699Y-23501401D01*
X96701127Y-23455699D01*
X96741726Y-23321863D01*
X96751999Y-23217556D01*
X96751999Y-23217554D01*
X96755434Y-23182679D01*
X96751999Y-23147804D01*
X96751999Y-21312056D01*
X97002401Y-21431325D01*
X97149610Y-21475976D01*
X97379500Y-21354655D01*
X97379500Y-20161500D01*
X97359500Y-20161500D01*
X97359500Y-19907500D01*
X97379500Y-19907500D01*
X97379500Y-19887500D01*
X97633500Y-19887500D01*
X97633500Y-19907500D01*
G37*
%TD.AperFunction*%
D25*
X105253500Y-17367500D02*
X107539500Y-17367500D01*
X107539500Y-17347500D01*
X107793500Y-17347500D01*
X107793500Y-17367500D01*
X110079500Y-17367500D01*
X110079500Y-17347500D01*
X110333500Y-17347500D01*
X110333500Y-17367500D01*
X110353500Y-17367500D01*
X110353500Y-17621500D01*
X110333500Y-17621500D01*
X110333500Y-19907500D01*
X110353500Y-19907500D01*
X110353500Y-20161500D01*
X110333500Y-20161500D01*
X110333500Y-20181500D01*
X110079500Y-20181500D01*
X110079500Y-20161500D01*
X107793500Y-20161500D01*
X107793500Y-21354655D01*
X108023390Y-21475976D01*
X108170599Y-21431325D01*
X108425317Y-21310000D01*
X108403010Y-21363855D01*
X108376927Y-21494981D01*
X108169216Y-21702693D01*
X108142126Y-21724925D01*
X108119893Y-21752016D01*
X108053401Y-21833037D01*
X107987472Y-21956381D01*
X107946874Y-22090216D01*
X107933165Y-22229400D01*
X107936601Y-22264285D01*
X107936601Y-22593880D01*
X107816864Y-22570063D01*
X107642534Y-22570063D01*
X107471554Y-22604073D01*
X107310494Y-22670786D01*
X107165544Y-22767639D01*
X107042275Y-22890908D01*
X106945422Y-23035858D01*
X106878709Y-23196918D01*
X106844699Y-23367898D01*
X106844699Y-23542228D01*
X106878709Y-23713208D01*
X106945422Y-23874268D01*
X107019700Y-23985432D01*
X107019699Y-25410589D01*
X106945916Y-25380027D01*
X106826220Y-25343718D01*
X106730087Y-25324596D01*
X106605606Y-25312336D01*
X106581047Y-25312336D01*
X106556597Y-25309928D01*
X106172617Y-25309928D01*
X105811496Y-24948808D01*
X105794600Y-24863865D01*
X105727887Y-24702805D01*
X105631034Y-24557855D01*
X105507765Y-24434586D01*
X105475538Y-24413052D01*
X106175389Y-23713202D01*
X106202474Y-23690974D01*
X106224704Y-23663887D01*
X106224707Y-23663884D01*
X106291199Y-23582863D01*
X106291201Y-23582861D01*
X106357128Y-23459519D01*
X106397727Y-23325683D01*
X106408000Y-23221376D01*
X106408000Y-23221375D01*
X106411435Y-23186500D01*
X106408000Y-23151625D01*
X106408000Y-22660368D01*
X106482277Y-22549205D01*
X106548990Y-22388145D01*
X106583000Y-22217165D01*
X106583000Y-22042835D01*
X106548990Y-21871855D01*
X106482277Y-21710795D01*
X106385424Y-21565845D01*
X106262155Y-21442576D01*
X106117205Y-21345723D01*
X105956145Y-21279010D01*
X105935342Y-21274872D01*
X106126769Y-21132088D01*
X106321678Y-20915855D01*
X106396500Y-20790245D01*
X106471322Y-20915855D01*
X106666231Y-21132088D01*
X106899580Y-21306141D01*
X107162401Y-21431325D01*
X107309610Y-21475976D01*
X107539500Y-21354655D01*
X107539500Y-20161500D01*
X105253500Y-20161500D01*
X105253500Y-20181500D01*
X104999500Y-20181500D01*
X104999500Y-20161500D01*
X104979500Y-20161500D01*
X104979500Y-19907500D01*
X104999500Y-19907500D01*
X104999500Y-17621500D01*
X105253500Y-17621500D01*
X105253500Y-19907500D01*
X107539500Y-19907500D01*
X107539500Y-17621500D01*
X107793500Y-17621500D01*
X107793500Y-19907500D01*
X110079500Y-19907500D01*
X110079500Y-17621500D01*
X107793500Y-17621500D01*
X107539500Y-17621500D01*
X105253500Y-17621500D01*
X104999500Y-17621500D01*
X104979500Y-17621500D01*
X104979500Y-17367500D01*
X104999500Y-17367500D01*
X104999500Y-17347500D01*
X105253500Y-17347500D01*
X105253500Y-17367500D01*
%TA.AperFunction,Conductor*%
D23*
G36*
X105253500Y-17367500D02*
G01*
X107539500Y-17367500D01*
X107539500Y-17347500D01*
X107793500Y-17347500D01*
X107793500Y-17367500D01*
X110079500Y-17367500D01*
X110079500Y-17347500D01*
X110333500Y-17347500D01*
X110333500Y-17367500D01*
X110353500Y-17367500D01*
X110353500Y-17621500D01*
X110333500Y-17621500D01*
X110333500Y-19907500D01*
X110353500Y-19907500D01*
X110353500Y-20161500D01*
X110333500Y-20161500D01*
X110333500Y-20181500D01*
X110079500Y-20181500D01*
X110079500Y-20161500D01*
X107793500Y-20161500D01*
X107793500Y-21354655D01*
X108023390Y-21475976D01*
X108170599Y-21431325D01*
X108425317Y-21310000D01*
X108403010Y-21363855D01*
X108376927Y-21494981D01*
X108169216Y-21702693D01*
X108142126Y-21724925D01*
X108119893Y-21752016D01*
X108053401Y-21833037D01*
X107987472Y-21956381D01*
X107946874Y-22090216D01*
X107933165Y-22229400D01*
X107936601Y-22264285D01*
X107936601Y-22593880D01*
X107816864Y-22570063D01*
X107642534Y-22570063D01*
X107471554Y-22604073D01*
X107310494Y-22670786D01*
X107165544Y-22767639D01*
X107042275Y-22890908D01*
X106945422Y-23035858D01*
X106878709Y-23196918D01*
X106844699Y-23367898D01*
X106844699Y-23542228D01*
X106878709Y-23713208D01*
X106945422Y-23874268D01*
X107019700Y-23985432D01*
X107019699Y-25410589D01*
X106945916Y-25380027D01*
X106826220Y-25343718D01*
X106730087Y-25324596D01*
X106605606Y-25312336D01*
X106581047Y-25312336D01*
X106556597Y-25309928D01*
X106172617Y-25309928D01*
X105811496Y-24948808D01*
X105794600Y-24863865D01*
X105727887Y-24702805D01*
X105631034Y-24557855D01*
X105507765Y-24434586D01*
X105475538Y-24413052D01*
X106175389Y-23713202D01*
X106202474Y-23690974D01*
X106224704Y-23663887D01*
X106224707Y-23663884D01*
X106291199Y-23582863D01*
X106291201Y-23582861D01*
X106357128Y-23459519D01*
X106397727Y-23325683D01*
X106408000Y-23221376D01*
X106408000Y-23221375D01*
X106411435Y-23186500D01*
X106408000Y-23151625D01*
X106408000Y-22660368D01*
X106482277Y-22549205D01*
X106548990Y-22388145D01*
X106583000Y-22217165D01*
X106583000Y-22042835D01*
X106548990Y-21871855D01*
X106482277Y-21710795D01*
X106385424Y-21565845D01*
X106262155Y-21442576D01*
X106117205Y-21345723D01*
X105956145Y-21279010D01*
X105935342Y-21274872D01*
X106126769Y-21132088D01*
X106321678Y-20915855D01*
X106396500Y-20790245D01*
X106471322Y-20915855D01*
X106666231Y-21132088D01*
X106899580Y-21306141D01*
X107162401Y-21431325D01*
X107309610Y-21475976D01*
X107539500Y-21354655D01*
X107539500Y-20161500D01*
X105253500Y-20161500D01*
X105253500Y-20181500D01*
X104999500Y-20181500D01*
X104999500Y-20161500D01*
X104979500Y-20161500D01*
X104979500Y-19907500D01*
X104999500Y-19907500D01*
X104999500Y-17621500D01*
X105253500Y-17621500D01*
X105253500Y-19907500D01*
X107539500Y-19907500D01*
X107539500Y-17621500D01*
X107793500Y-17621500D01*
X107793500Y-19907500D01*
X110079500Y-19907500D01*
X110079500Y-17621500D01*
X107793500Y-17621500D01*
X107539500Y-17621500D01*
X105253500Y-17621500D01*
X104999500Y-17621500D01*
X104979500Y-17621500D01*
X104979500Y-17367500D01*
X104999500Y-17367500D01*
X104999500Y-17347500D01*
X105253500Y-17347500D01*
X105253500Y-17367500D01*
G37*
%TD.AperFunction*%
D25*
X130653500Y-19907500D02*
X130673500Y-19907500D01*
X130673500Y-20161500D01*
X130653500Y-20161500D01*
X130653500Y-21354655D01*
X130883390Y-21475976D01*
X131030599Y-21431325D01*
X131293420Y-21306141D01*
X131304499Y-21297877D01*
X131304500Y-24311689D01*
X131263010Y-24411855D01*
X131229000Y-24582835D01*
X131229000Y-24757165D01*
X131263010Y-24928145D01*
X131329723Y-25089205D01*
X131426576Y-25234155D01*
X131504070Y-25311649D01*
X131486593Y-25309928D01*
X131102612Y-25309928D01*
X131028290Y-25235606D01*
X131028290Y-25144378D01*
X131102567Y-25033215D01*
X131169280Y-24872155D01*
X131203290Y-24701175D01*
X131203290Y-24526845D01*
X131169280Y-24355865D01*
X131102567Y-24194805D01*
X131005714Y-24049855D01*
X130882445Y-23926586D01*
X130737495Y-23829733D01*
X130576435Y-23763020D01*
X130405455Y-23729010D01*
X130231125Y-23729010D01*
X130060145Y-23763020D01*
X130032472Y-23774482D01*
X130032472Y-21434380D01*
X130169610Y-21475976D01*
X130399500Y-21354655D01*
X130399500Y-20161500D01*
X130379500Y-20161500D01*
X130379500Y-19907500D01*
X130399500Y-19907500D01*
X130399500Y-19887500D01*
X130653500Y-19887500D01*
X130653500Y-19907500D01*
%TA.AperFunction,Conductor*%
D23*
G36*
X130653500Y-19907500D02*
G01*
X130673500Y-19907500D01*
X130673500Y-20161500D01*
X130653500Y-20161500D01*
X130653500Y-21354655D01*
X130883390Y-21475976D01*
X131030599Y-21431325D01*
X131293420Y-21306141D01*
X131304499Y-21297877D01*
X131304500Y-24311689D01*
X131263010Y-24411855D01*
X131229000Y-24582835D01*
X131229000Y-24757165D01*
X131263010Y-24928145D01*
X131329723Y-25089205D01*
X131426576Y-25234155D01*
X131504070Y-25311649D01*
X131486593Y-25309928D01*
X131102612Y-25309928D01*
X131028290Y-25235606D01*
X131028290Y-25144378D01*
X131102567Y-25033215D01*
X131169280Y-24872155D01*
X131203290Y-24701175D01*
X131203290Y-24526845D01*
X131169280Y-24355865D01*
X131102567Y-24194805D01*
X131005714Y-24049855D01*
X130882445Y-23926586D01*
X130737495Y-23829733D01*
X130576435Y-23763020D01*
X130405455Y-23729010D01*
X130231125Y-23729010D01*
X130060145Y-23763020D01*
X130032472Y-23774482D01*
X130032472Y-21434380D01*
X130169610Y-21475976D01*
X130399500Y-21354655D01*
X130399500Y-20161500D01*
X130379500Y-20161500D01*
X130379500Y-19907500D01*
X130399500Y-19907500D01*
X130399500Y-19887500D01*
X130653500Y-19887500D01*
X130653500Y-19907500D01*
G37*
%TD.AperFunction*%
D25*
X100173500Y-19907500D02*
X100193500Y-19907500D01*
X100193500Y-20161500D01*
X100173500Y-20161500D01*
X100173500Y-21354655D01*
X100388502Y-21468119D01*
X100388502Y-23056185D01*
X99451163Y-23993525D01*
X99424071Y-24015759D01*
X99335346Y-24123871D01*
X99269418Y-24247214D01*
X99228819Y-24381050D01*
X99218612Y-24484684D01*
X99215111Y-24520233D01*
X99218546Y-24555108D01*
X99218546Y-24591642D01*
X99205096Y-24611771D01*
X99205096Y-24240358D01*
X99279373Y-24129195D01*
X99346086Y-23968135D01*
X99380096Y-23797155D01*
X99380096Y-23622825D01*
X99346086Y-23451845D01*
X99296000Y-23330926D01*
X99296000Y-21313962D01*
X99542401Y-21431325D01*
X99689610Y-21475976D01*
X99919500Y-21354655D01*
X99919500Y-20161500D01*
X99899500Y-20161500D01*
X99899500Y-19907500D01*
X99919500Y-19907500D01*
X99919500Y-19887500D01*
X100173500Y-19887500D01*
X100173500Y-19907500D01*
%TA.AperFunction,Conductor*%
D23*
G36*
X100173500Y-19907500D02*
G01*
X100193500Y-19907500D01*
X100193500Y-20161500D01*
X100173500Y-20161500D01*
X100173500Y-21354655D01*
X100388502Y-21468119D01*
X100388502Y-23056185D01*
X99451163Y-23993525D01*
X99424071Y-24015759D01*
X99335346Y-24123871D01*
X99269418Y-24247214D01*
X99228819Y-24381050D01*
X99218612Y-24484684D01*
X99215111Y-24520233D01*
X99218546Y-24555108D01*
X99218546Y-24591642D01*
X99205096Y-24611771D01*
X99205096Y-24240358D01*
X99279373Y-24129195D01*
X99346086Y-23968135D01*
X99380096Y-23797155D01*
X99380096Y-23622825D01*
X99346086Y-23451845D01*
X99296000Y-23330926D01*
X99296000Y-21313962D01*
X99542401Y-21431325D01*
X99689610Y-21475976D01*
X99919500Y-21354655D01*
X99919500Y-20161500D01*
X99899500Y-20161500D01*
X99899500Y-19907500D01*
X99919500Y-19907500D01*
X99919500Y-19887500D01*
X100173500Y-19887500D01*
X100173500Y-19907500D01*
G37*
%TD.AperFunction*%
D25*
X138273500Y-19907500D02*
X138293500Y-19907500D01*
X138293500Y-20161500D01*
X138273500Y-20161500D01*
X138273500Y-21354655D01*
X138503390Y-21475976D01*
X138650599Y-21431325D01*
X138913420Y-21306141D01*
X138924499Y-21297877D01*
X138924500Y-23046737D01*
X138805165Y-23023000D01*
X138630835Y-23023000D01*
X138459855Y-23057010D01*
X138298795Y-23123723D01*
X138153845Y-23220576D01*
X138030576Y-23343845D01*
X137933723Y-23488795D01*
X137867010Y-23649855D01*
X137833000Y-23820835D01*
X137833000Y-23995165D01*
X137867010Y-24166145D01*
X137933723Y-24327205D01*
X138008000Y-24438368D01*
X138008000Y-24576553D01*
X137978277Y-24504795D01*
X137881424Y-24359845D01*
X137804499Y-24282920D01*
X137804499Y-21468119D01*
X138019500Y-21354655D01*
X138019500Y-20161500D01*
X137999500Y-20161500D01*
X137999500Y-19907500D01*
X138019500Y-19907500D01*
X138019500Y-19887500D01*
X138273500Y-19887500D01*
X138273500Y-19907500D01*
%TA.AperFunction,Conductor*%
D23*
G36*
X138273500Y-19907500D02*
G01*
X138293500Y-19907500D01*
X138293500Y-20161500D01*
X138273500Y-20161500D01*
X138273500Y-21354655D01*
X138503390Y-21475976D01*
X138650599Y-21431325D01*
X138913420Y-21306141D01*
X138924499Y-21297877D01*
X138924500Y-23046737D01*
X138805165Y-23023000D01*
X138630835Y-23023000D01*
X138459855Y-23057010D01*
X138298795Y-23123723D01*
X138153845Y-23220576D01*
X138030576Y-23343845D01*
X137933723Y-23488795D01*
X137867010Y-23649855D01*
X137833000Y-23820835D01*
X137833000Y-23995165D01*
X137867010Y-24166145D01*
X137933723Y-24327205D01*
X138008000Y-24438368D01*
X138008000Y-24576553D01*
X137978277Y-24504795D01*
X137881424Y-24359845D01*
X137804499Y-24282920D01*
X137804499Y-21468119D01*
X138019500Y-21354655D01*
X138019500Y-20161500D01*
X137999500Y-20161500D01*
X137999500Y-19907500D01*
X138019500Y-19907500D01*
X138019500Y-19887500D01*
X138273500Y-19887500D01*
X138273500Y-19907500D01*
G37*
%TD.AperFunction*%
D25*
X128113500Y-19907500D02*
X128133500Y-19907500D01*
X128133500Y-20161500D01*
X128113500Y-20161500D01*
X128113500Y-21354655D01*
X128343390Y-21475976D01*
X128490599Y-21431325D01*
X128612472Y-21373276D01*
X128612473Y-24549734D01*
X128473167Y-24492032D01*
X128302187Y-24458022D01*
X128155290Y-24458022D01*
X128155290Y-24368227D01*
X128121280Y-24197247D01*
X128054567Y-24036187D01*
X127957714Y-23891237D01*
X127834445Y-23767968D01*
X127689495Y-23671115D01*
X127559621Y-23617320D01*
X127559621Y-21454747D01*
X127629610Y-21475976D01*
X127859500Y-21354655D01*
X127859500Y-20161500D01*
X127839500Y-20161500D01*
X127839500Y-19907500D01*
X127859500Y-19907500D01*
X127859500Y-19887500D01*
X128113500Y-19887500D01*
X128113500Y-19907500D01*
%TA.AperFunction,Conductor*%
D23*
G36*
X128113500Y-19907500D02*
G01*
X128133500Y-19907500D01*
X128133500Y-20161500D01*
X128113500Y-20161500D01*
X128113500Y-21354655D01*
X128343390Y-21475976D01*
X128490599Y-21431325D01*
X128612472Y-21373276D01*
X128612473Y-24549734D01*
X128473167Y-24492032D01*
X128302187Y-24458022D01*
X128155290Y-24458022D01*
X128155290Y-24368227D01*
X128121280Y-24197247D01*
X128054567Y-24036187D01*
X127957714Y-23891237D01*
X127834445Y-23767968D01*
X127689495Y-23671115D01*
X127559621Y-23617320D01*
X127559621Y-21454747D01*
X127629610Y-21475976D01*
X127859500Y-21354655D01*
X127859500Y-20161500D01*
X127839500Y-20161500D01*
X127839500Y-19907500D01*
X127859500Y-19907500D01*
X127859500Y-19887500D01*
X128113500Y-19887500D01*
X128113500Y-19907500D01*
G37*
%TD.AperFunction*%
D25*
X92553500Y-19907500D02*
X92573500Y-19907500D01*
X92573500Y-20161500D01*
X92553500Y-20161500D01*
X92553500Y-21354655D01*
X92768502Y-21468119D01*
X92768502Y-23151130D01*
X92694224Y-23262294D01*
X92627511Y-23423354D01*
X92593501Y-23594334D01*
X92593501Y-23606164D01*
X92494145Y-23565010D01*
X92323165Y-23531000D01*
X92148835Y-23531000D01*
X91977855Y-23565010D01*
X91822735Y-23629263D01*
X91851000Y-23487165D01*
X91851000Y-23312835D01*
X91816990Y-23141855D01*
X91750277Y-22980795D01*
X91676000Y-22869632D01*
X91676000Y-21313962D01*
X91922401Y-21431325D01*
X92069610Y-21475976D01*
X92299500Y-21354655D01*
X92299500Y-20161500D01*
X92279500Y-20161500D01*
X92279500Y-19907500D01*
X92299500Y-19907500D01*
X92299500Y-19887500D01*
X92553500Y-19887500D01*
X92553500Y-19907500D01*
%TA.AperFunction,Conductor*%
D23*
G36*
X92553500Y-19907500D02*
G01*
X92573500Y-19907500D01*
X92573500Y-20161500D01*
X92553500Y-20161500D01*
X92553500Y-21354655D01*
X92768502Y-21468119D01*
X92768502Y-23151130D01*
X92694224Y-23262294D01*
X92627511Y-23423354D01*
X92593501Y-23594334D01*
X92593501Y-23606164D01*
X92494145Y-23565010D01*
X92323165Y-23531000D01*
X92148835Y-23531000D01*
X91977855Y-23565010D01*
X91822735Y-23629263D01*
X91851000Y-23487165D01*
X91851000Y-23312835D01*
X91816990Y-23141855D01*
X91750277Y-22980795D01*
X91676000Y-22869632D01*
X91676000Y-21313962D01*
X91922401Y-21431325D01*
X92069610Y-21475976D01*
X92299500Y-21354655D01*
X92299500Y-20161500D01*
X92279500Y-20161500D01*
X92279500Y-19907500D01*
X92299500Y-19907500D01*
X92299500Y-19887500D01*
X92553500Y-19887500D01*
X92553500Y-19907500D01*
G37*
%TD.AperFunction*%
D25*
X95093500Y-19907500D02*
X95113500Y-19907500D01*
X95113500Y-20161500D01*
X95093500Y-20161500D01*
X95093500Y-21354655D01*
X95323390Y-21475976D01*
X95332000Y-21473365D01*
X95332000Y-22675759D01*
X95227544Y-22745555D01*
X95142975Y-22830124D01*
X95117165Y-22824990D01*
X94942835Y-22824990D01*
X94771855Y-22859000D01*
X94610795Y-22925713D01*
X94465845Y-23022566D01*
X94342576Y-23145835D01*
X94263537Y-23264125D01*
X94262778Y-23262294D01*
X94188501Y-23151131D01*
X94188501Y-21297877D01*
X94199580Y-21306141D01*
X94462401Y-21431325D01*
X94609610Y-21475976D01*
X94839500Y-21354655D01*
X94839500Y-20161500D01*
X94819500Y-20161500D01*
X94819500Y-19907500D01*
X94839500Y-19907500D01*
X94839500Y-19887500D01*
X95093500Y-19887500D01*
X95093500Y-19907500D01*
%TA.AperFunction,Conductor*%
D23*
G36*
X95093500Y-19907500D02*
G01*
X95113500Y-19907500D01*
X95113500Y-20161500D01*
X95093500Y-20161500D01*
X95093500Y-21354655D01*
X95323390Y-21475976D01*
X95332000Y-21473365D01*
X95332000Y-22675759D01*
X95227544Y-22745555D01*
X95142975Y-22830124D01*
X95117165Y-22824990D01*
X94942835Y-22824990D01*
X94771855Y-22859000D01*
X94610795Y-22925713D01*
X94465845Y-23022566D01*
X94342576Y-23145835D01*
X94263537Y-23264125D01*
X94262778Y-23262294D01*
X94188501Y-23151131D01*
X94188501Y-21297877D01*
X94199580Y-21306141D01*
X94462401Y-21431325D01*
X94609610Y-21475976D01*
X94839500Y-21354655D01*
X94839500Y-20161500D01*
X94819500Y-20161500D01*
X94819500Y-19907500D01*
X94839500Y-19907500D01*
X94839500Y-19887500D01*
X95093500Y-19887500D01*
X95093500Y-19907500D01*
G37*
%TD.AperFunction*%
D25*
X125573500Y-19907500D02*
X125593500Y-19907500D01*
X125593500Y-20161500D01*
X125573500Y-20161500D01*
X125573500Y-21354655D01*
X125803390Y-21475976D01*
X125950599Y-21431325D01*
X126139622Y-21341292D01*
X126139622Y-22269993D01*
X126013855Y-22295010D01*
X125852795Y-22361723D01*
X125707845Y-22458576D01*
X125584576Y-22581845D01*
X125487723Y-22726795D01*
X125441444Y-22838523D01*
X125413261Y-22832917D01*
X125104499Y-22524156D01*
X125104499Y-21468119D01*
X125319500Y-21354655D01*
X125319500Y-20161500D01*
X125299500Y-20161500D01*
X125299500Y-19907500D01*
X125319500Y-19907500D01*
X125319500Y-19887500D01*
X125573500Y-19887500D01*
X125573500Y-19907500D01*
%TA.AperFunction,Conductor*%
D23*
G36*
X125573500Y-19907500D02*
G01*
X125593500Y-19907500D01*
X125593500Y-20161500D01*
X125573500Y-20161500D01*
X125573500Y-21354655D01*
X125803390Y-21475976D01*
X125950599Y-21431325D01*
X126139622Y-21341292D01*
X126139622Y-22269993D01*
X126013855Y-22295010D01*
X125852795Y-22361723D01*
X125707845Y-22458576D01*
X125584576Y-22581845D01*
X125487723Y-22726795D01*
X125441444Y-22838523D01*
X125413261Y-22832917D01*
X125104499Y-22524156D01*
X125104499Y-21468119D01*
X125319500Y-21354655D01*
X125319500Y-20161500D01*
X125299500Y-20161500D01*
X125299500Y-19907500D01*
X125319500Y-19907500D01*
X125319500Y-19887500D01*
X125573500Y-19887500D01*
X125573500Y-19907500D01*
G37*
%TD.AperFunction*%
%TD*%
M02*
