%TF.GenerationSoftware,KiCad,Pcbnew,(5.1.9-16-g1737927814)-1*%
%TF.CreationDate,2021-06-02T15:54:43-05:00*%
%TF.ProjectId,loopback_tester,6c6f6f70-6261-4636-9b5f-746573746572,rev?*%
%TF.SameCoordinates,PX59d60c0PY325aa00*%
%TF.FileFunction,Soldermask,Top*%
%TF.FilePolarity,Negative*%
%FSLAX46Y46*%
G04 Gerber Fmt 4.6, Leading zero omitted, Abs format (unit mm)*
G04 Created by KiCad (PCBNEW (5.1.9-16-g1737927814)-1) date 2021-06-02 15:54:43*
%MOMM*%
%LPD*%
G01*
G04 APERTURE LIST*
%TA.AperFunction,Profile*%
%ADD10C,0.050000*%
%TD*%
%ADD11O,1.700000X1.700000*%
%ADD12R,1.700000X1.700000*%
%ADD13C,4.845000*%
%ADD14C,1.545000*%
%ADD15C,0.150000*%
G04 APERTURE END LIST*
D10*
X144052000Y-45696000D02*
G75*
G03*
X145012000Y-44736000I0J960000D01*
G01*
X81552000Y-45696000D02*
X144052000Y-45696000D01*
X81552000Y-45696800D02*
G75*
G02*
X80552000Y-44736000I0J1000800D01*
G01*
X80552000Y-16288000D02*
X80552000Y-44736000D01*
X145012000Y-16780000D02*
X145012000Y-44736000D01*
X81060000Y-15780000D02*
X144012000Y-15780000D01*
X80552000Y-16288000D02*
G75*
G02*
X81060000Y-15780000I508000J0D01*
G01*
X144012000Y-15780000D02*
G75*
G02*
X145012000Y-16780000I0J-1000000D01*
G01*
D11*
%TO.C,J2*%
X143226500Y-17494500D03*
X143226500Y-20034500D03*
X140686500Y-17494500D03*
X140686500Y-20034500D03*
X138146500Y-17494500D03*
X138146500Y-20034500D03*
X135606500Y-17494500D03*
X135606500Y-20034500D03*
X133066500Y-17494500D03*
X133066500Y-20034500D03*
X130526500Y-17494500D03*
X130526500Y-20034500D03*
X127986500Y-17494500D03*
X127986500Y-20034500D03*
X125446500Y-17494500D03*
X125446500Y-20034500D03*
X122906500Y-17494500D03*
X122906500Y-20034500D03*
X120366500Y-17494500D03*
X120366500Y-20034500D03*
X117826500Y-17494500D03*
X117826500Y-20034500D03*
X115286500Y-17494500D03*
X115286500Y-20034500D03*
X112746500Y-17494500D03*
X112746500Y-20034500D03*
X110206500Y-17494500D03*
X110206500Y-20034500D03*
X107666500Y-17494500D03*
X107666500Y-20034500D03*
X105126500Y-17494500D03*
X105126500Y-20034500D03*
X102586500Y-17494500D03*
X102586500Y-20034500D03*
X100046500Y-17494500D03*
X100046500Y-20034500D03*
X97506500Y-17494500D03*
X97506500Y-20034500D03*
X94966500Y-17494500D03*
X94966500Y-20034500D03*
X92426500Y-17494500D03*
X92426500Y-20034500D03*
X89886500Y-17494500D03*
X89886500Y-20034500D03*
X87346500Y-17494500D03*
X87346500Y-20034500D03*
X84806500Y-17494500D03*
X84806500Y-20034500D03*
X82266500Y-17494500D03*
D12*
X82266500Y-20034500D03*
%TD*%
D13*
%TO.C,J1*%
X89281600Y-36250000D03*
X136321600Y-36250000D03*
D14*
X97566600Y-37670000D03*
X100336600Y-37670000D03*
X103106600Y-37670000D03*
X105876600Y-37670000D03*
X108646600Y-37670000D03*
X111416600Y-37670000D03*
X114186600Y-37670000D03*
X116956600Y-37670000D03*
X119726600Y-37670000D03*
X122496600Y-37670000D03*
X125266600Y-37670000D03*
X128036600Y-37670000D03*
X96181600Y-34830000D03*
X98951600Y-34830000D03*
X101721600Y-34830000D03*
X104491600Y-34830000D03*
X107261600Y-34830000D03*
X110031600Y-34830000D03*
X112801600Y-34830000D03*
X115571600Y-34830000D03*
X118341600Y-34830000D03*
X121111600Y-34830000D03*
X123881600Y-34830000D03*
X126651600Y-34830000D03*
X129421600Y-34830000D03*
%TD*%
D15*
%TO.C,JP9*%
G36*
X88359100Y-27248000D02*
G01*
X88359100Y-27748000D01*
X88358498Y-27748000D01*
X88358498Y-27772534D01*
X88353688Y-27821365D01*
X88344116Y-27869490D01*
X88329872Y-27916445D01*
X88311095Y-27961778D01*
X88287964Y-28005051D01*
X88260704Y-28045850D01*
X88229576Y-28083779D01*
X88194879Y-28118476D01*
X88156950Y-28149604D01*
X88116151Y-28176864D01*
X88072878Y-28199995D01*
X88027545Y-28218772D01*
X87980590Y-28233016D01*
X87932465Y-28242588D01*
X87883634Y-28247398D01*
X87859100Y-28247398D01*
X87859100Y-28248000D01*
X87359100Y-28248000D01*
X87359100Y-28247398D01*
X87334566Y-28247398D01*
X87285735Y-28242588D01*
X87237610Y-28233016D01*
X87190655Y-28218772D01*
X87145322Y-28199995D01*
X87102049Y-28176864D01*
X87061250Y-28149604D01*
X87023321Y-28118476D01*
X86988624Y-28083779D01*
X86957496Y-28045850D01*
X86930236Y-28005051D01*
X86907105Y-27961778D01*
X86888328Y-27916445D01*
X86874084Y-27869490D01*
X86864512Y-27821365D01*
X86859702Y-27772534D01*
X86859702Y-27748000D01*
X86859100Y-27748000D01*
X86859100Y-27248000D01*
X88359100Y-27248000D01*
G37*
G36*
X86859702Y-26448000D02*
G01*
X86859702Y-26423466D01*
X86864512Y-26374635D01*
X86874084Y-26326510D01*
X86888328Y-26279555D01*
X86907105Y-26234222D01*
X86930236Y-26190949D01*
X86957496Y-26150150D01*
X86988624Y-26112221D01*
X87023321Y-26077524D01*
X87061250Y-26046396D01*
X87102049Y-26019136D01*
X87145322Y-25996005D01*
X87190655Y-25977228D01*
X87237610Y-25962984D01*
X87285735Y-25953412D01*
X87334566Y-25948602D01*
X87359100Y-25948602D01*
X87359100Y-25948000D01*
X87859100Y-25948000D01*
X87859100Y-25948602D01*
X87883634Y-25948602D01*
X87932465Y-25953412D01*
X87980590Y-25962984D01*
X88027545Y-25977228D01*
X88072878Y-25996005D01*
X88116151Y-26019136D01*
X88156950Y-26046396D01*
X88194879Y-26077524D01*
X88229576Y-26112221D01*
X88260704Y-26150150D01*
X88287964Y-26190949D01*
X88311095Y-26234222D01*
X88329872Y-26279555D01*
X88344116Y-26326510D01*
X88353688Y-26374635D01*
X88358498Y-26423466D01*
X88358498Y-26448000D01*
X88359100Y-26448000D01*
X88359100Y-26948000D01*
X86859100Y-26948000D01*
X86859100Y-26448000D01*
X86859702Y-26448000D01*
G37*
%TD*%
%TO.C,JP8*%
G36*
X94591599Y-27248000D02*
G01*
X94591599Y-27748000D01*
X94590997Y-27748000D01*
X94590997Y-27772534D01*
X94586187Y-27821365D01*
X94576615Y-27869490D01*
X94562371Y-27916445D01*
X94543594Y-27961778D01*
X94520463Y-28005051D01*
X94493203Y-28045850D01*
X94462075Y-28083779D01*
X94427378Y-28118476D01*
X94389449Y-28149604D01*
X94348650Y-28176864D01*
X94305377Y-28199995D01*
X94260044Y-28218772D01*
X94213089Y-28233016D01*
X94164964Y-28242588D01*
X94116133Y-28247398D01*
X94091599Y-28247398D01*
X94091599Y-28248000D01*
X93591599Y-28248000D01*
X93591599Y-28247398D01*
X93567065Y-28247398D01*
X93518234Y-28242588D01*
X93470109Y-28233016D01*
X93423154Y-28218772D01*
X93377821Y-28199995D01*
X93334548Y-28176864D01*
X93293749Y-28149604D01*
X93255820Y-28118476D01*
X93221123Y-28083779D01*
X93189995Y-28045850D01*
X93162735Y-28005051D01*
X93139604Y-27961778D01*
X93120827Y-27916445D01*
X93106583Y-27869490D01*
X93097011Y-27821365D01*
X93092201Y-27772534D01*
X93092201Y-27748000D01*
X93091599Y-27748000D01*
X93091599Y-27248000D01*
X94591599Y-27248000D01*
G37*
G36*
X93092201Y-26448000D02*
G01*
X93092201Y-26423466D01*
X93097011Y-26374635D01*
X93106583Y-26326510D01*
X93120827Y-26279555D01*
X93139604Y-26234222D01*
X93162735Y-26190949D01*
X93189995Y-26150150D01*
X93221123Y-26112221D01*
X93255820Y-26077524D01*
X93293749Y-26046396D01*
X93334548Y-26019136D01*
X93377821Y-25996005D01*
X93423154Y-25977228D01*
X93470109Y-25962984D01*
X93518234Y-25953412D01*
X93567065Y-25948602D01*
X93591599Y-25948602D01*
X93591599Y-25948000D01*
X94091599Y-25948000D01*
X94091599Y-25948602D01*
X94116133Y-25948602D01*
X94164964Y-25953412D01*
X94213089Y-25962984D01*
X94260044Y-25977228D01*
X94305377Y-25996005D01*
X94348650Y-26019136D01*
X94389449Y-26046396D01*
X94427378Y-26077524D01*
X94462075Y-26112221D01*
X94493203Y-26150150D01*
X94520463Y-26190949D01*
X94543594Y-26234222D01*
X94562371Y-26279555D01*
X94576615Y-26326510D01*
X94586187Y-26374635D01*
X94590997Y-26423466D01*
X94590997Y-26448000D01*
X94591599Y-26448000D01*
X94591599Y-26948000D01*
X93091599Y-26948000D01*
X93091599Y-26448000D01*
X93092201Y-26448000D01*
G37*
%TD*%
%TO.C,JP7*%
G36*
X100824098Y-27248000D02*
G01*
X100824098Y-27748000D01*
X100823496Y-27748000D01*
X100823496Y-27772534D01*
X100818686Y-27821365D01*
X100809114Y-27869490D01*
X100794870Y-27916445D01*
X100776093Y-27961778D01*
X100752962Y-28005051D01*
X100725702Y-28045850D01*
X100694574Y-28083779D01*
X100659877Y-28118476D01*
X100621948Y-28149604D01*
X100581149Y-28176864D01*
X100537876Y-28199995D01*
X100492543Y-28218772D01*
X100445588Y-28233016D01*
X100397463Y-28242588D01*
X100348632Y-28247398D01*
X100324098Y-28247398D01*
X100324098Y-28248000D01*
X99824098Y-28248000D01*
X99824098Y-28247398D01*
X99799564Y-28247398D01*
X99750733Y-28242588D01*
X99702608Y-28233016D01*
X99655653Y-28218772D01*
X99610320Y-28199995D01*
X99567047Y-28176864D01*
X99526248Y-28149604D01*
X99488319Y-28118476D01*
X99453622Y-28083779D01*
X99422494Y-28045850D01*
X99395234Y-28005051D01*
X99372103Y-27961778D01*
X99353326Y-27916445D01*
X99339082Y-27869490D01*
X99329510Y-27821365D01*
X99324700Y-27772534D01*
X99324700Y-27748000D01*
X99324098Y-27748000D01*
X99324098Y-27248000D01*
X100824098Y-27248000D01*
G37*
G36*
X99324700Y-26448000D02*
G01*
X99324700Y-26423466D01*
X99329510Y-26374635D01*
X99339082Y-26326510D01*
X99353326Y-26279555D01*
X99372103Y-26234222D01*
X99395234Y-26190949D01*
X99422494Y-26150150D01*
X99453622Y-26112221D01*
X99488319Y-26077524D01*
X99526248Y-26046396D01*
X99567047Y-26019136D01*
X99610320Y-25996005D01*
X99655653Y-25977228D01*
X99702608Y-25962984D01*
X99750733Y-25953412D01*
X99799564Y-25948602D01*
X99824098Y-25948602D01*
X99824098Y-25948000D01*
X100324098Y-25948000D01*
X100324098Y-25948602D01*
X100348632Y-25948602D01*
X100397463Y-25953412D01*
X100445588Y-25962984D01*
X100492543Y-25977228D01*
X100537876Y-25996005D01*
X100581149Y-26019136D01*
X100621948Y-26046396D01*
X100659877Y-26077524D01*
X100694574Y-26112221D01*
X100725702Y-26150150D01*
X100752962Y-26190949D01*
X100776093Y-26234222D01*
X100794870Y-26279555D01*
X100809114Y-26326510D01*
X100818686Y-26374635D01*
X100823496Y-26423466D01*
X100823496Y-26448000D01*
X100824098Y-26448000D01*
X100824098Y-26948000D01*
X99324098Y-26948000D01*
X99324098Y-26448000D01*
X99324700Y-26448000D01*
G37*
%TD*%
%TO.C,JP6*%
G36*
X107056597Y-27248000D02*
G01*
X107056597Y-27748000D01*
X107055995Y-27748000D01*
X107055995Y-27772534D01*
X107051185Y-27821365D01*
X107041613Y-27869490D01*
X107027369Y-27916445D01*
X107008592Y-27961778D01*
X106985461Y-28005051D01*
X106958201Y-28045850D01*
X106927073Y-28083779D01*
X106892376Y-28118476D01*
X106854447Y-28149604D01*
X106813648Y-28176864D01*
X106770375Y-28199995D01*
X106725042Y-28218772D01*
X106678087Y-28233016D01*
X106629962Y-28242588D01*
X106581131Y-28247398D01*
X106556597Y-28247398D01*
X106556597Y-28248000D01*
X106056597Y-28248000D01*
X106056597Y-28247398D01*
X106032063Y-28247398D01*
X105983232Y-28242588D01*
X105935107Y-28233016D01*
X105888152Y-28218772D01*
X105842819Y-28199995D01*
X105799546Y-28176864D01*
X105758747Y-28149604D01*
X105720818Y-28118476D01*
X105686121Y-28083779D01*
X105654993Y-28045850D01*
X105627733Y-28005051D01*
X105604602Y-27961778D01*
X105585825Y-27916445D01*
X105571581Y-27869490D01*
X105562009Y-27821365D01*
X105557199Y-27772534D01*
X105557199Y-27748000D01*
X105556597Y-27748000D01*
X105556597Y-27248000D01*
X107056597Y-27248000D01*
G37*
G36*
X105557199Y-26448000D02*
G01*
X105557199Y-26423466D01*
X105562009Y-26374635D01*
X105571581Y-26326510D01*
X105585825Y-26279555D01*
X105604602Y-26234222D01*
X105627733Y-26190949D01*
X105654993Y-26150150D01*
X105686121Y-26112221D01*
X105720818Y-26077524D01*
X105758747Y-26046396D01*
X105799546Y-26019136D01*
X105842819Y-25996005D01*
X105888152Y-25977228D01*
X105935107Y-25962984D01*
X105983232Y-25953412D01*
X106032063Y-25948602D01*
X106056597Y-25948602D01*
X106056597Y-25948000D01*
X106556597Y-25948000D01*
X106556597Y-25948602D01*
X106581131Y-25948602D01*
X106629962Y-25953412D01*
X106678087Y-25962984D01*
X106725042Y-25977228D01*
X106770375Y-25996005D01*
X106813648Y-26019136D01*
X106854447Y-26046396D01*
X106892376Y-26077524D01*
X106927073Y-26112221D01*
X106958201Y-26150150D01*
X106985461Y-26190949D01*
X107008592Y-26234222D01*
X107027369Y-26279555D01*
X107041613Y-26326510D01*
X107051185Y-26374635D01*
X107055995Y-26423466D01*
X107055995Y-26448000D01*
X107056597Y-26448000D01*
X107056597Y-26948000D01*
X105556597Y-26948000D01*
X105556597Y-26448000D01*
X105557199Y-26448000D01*
G37*
%TD*%
%TO.C,JP5*%
G36*
X113289096Y-27248000D02*
G01*
X113289096Y-27748000D01*
X113288494Y-27748000D01*
X113288494Y-27772534D01*
X113283684Y-27821365D01*
X113274112Y-27869490D01*
X113259868Y-27916445D01*
X113241091Y-27961778D01*
X113217960Y-28005051D01*
X113190700Y-28045850D01*
X113159572Y-28083779D01*
X113124875Y-28118476D01*
X113086946Y-28149604D01*
X113046147Y-28176864D01*
X113002874Y-28199995D01*
X112957541Y-28218772D01*
X112910586Y-28233016D01*
X112862461Y-28242588D01*
X112813630Y-28247398D01*
X112789096Y-28247398D01*
X112789096Y-28248000D01*
X112289096Y-28248000D01*
X112289096Y-28247398D01*
X112264562Y-28247398D01*
X112215731Y-28242588D01*
X112167606Y-28233016D01*
X112120651Y-28218772D01*
X112075318Y-28199995D01*
X112032045Y-28176864D01*
X111991246Y-28149604D01*
X111953317Y-28118476D01*
X111918620Y-28083779D01*
X111887492Y-28045850D01*
X111860232Y-28005051D01*
X111837101Y-27961778D01*
X111818324Y-27916445D01*
X111804080Y-27869490D01*
X111794508Y-27821365D01*
X111789698Y-27772534D01*
X111789698Y-27748000D01*
X111789096Y-27748000D01*
X111789096Y-27248000D01*
X113289096Y-27248000D01*
G37*
G36*
X111789698Y-26448000D02*
G01*
X111789698Y-26423466D01*
X111794508Y-26374635D01*
X111804080Y-26326510D01*
X111818324Y-26279555D01*
X111837101Y-26234222D01*
X111860232Y-26190949D01*
X111887492Y-26150150D01*
X111918620Y-26112221D01*
X111953317Y-26077524D01*
X111991246Y-26046396D01*
X112032045Y-26019136D01*
X112075318Y-25996005D01*
X112120651Y-25977228D01*
X112167606Y-25962984D01*
X112215731Y-25953412D01*
X112264562Y-25948602D01*
X112289096Y-25948602D01*
X112289096Y-25948000D01*
X112789096Y-25948000D01*
X112789096Y-25948602D01*
X112813630Y-25948602D01*
X112862461Y-25953412D01*
X112910586Y-25962984D01*
X112957541Y-25977228D01*
X113002874Y-25996005D01*
X113046147Y-26019136D01*
X113086946Y-26046396D01*
X113124875Y-26077524D01*
X113159572Y-26112221D01*
X113190700Y-26150150D01*
X113217960Y-26190949D01*
X113241091Y-26234222D01*
X113259868Y-26279555D01*
X113274112Y-26326510D01*
X113283684Y-26374635D01*
X113288494Y-26423466D01*
X113288494Y-26448000D01*
X113289096Y-26448000D01*
X113289096Y-26948000D01*
X111789096Y-26948000D01*
X111789096Y-26448000D01*
X111789698Y-26448000D01*
G37*
%TD*%
%TO.C,JP4*%
G36*
X119521595Y-27248000D02*
G01*
X119521595Y-27748000D01*
X119520993Y-27748000D01*
X119520993Y-27772534D01*
X119516183Y-27821365D01*
X119506611Y-27869490D01*
X119492367Y-27916445D01*
X119473590Y-27961778D01*
X119450459Y-28005051D01*
X119423199Y-28045850D01*
X119392071Y-28083779D01*
X119357374Y-28118476D01*
X119319445Y-28149604D01*
X119278646Y-28176864D01*
X119235373Y-28199995D01*
X119190040Y-28218772D01*
X119143085Y-28233016D01*
X119094960Y-28242588D01*
X119046129Y-28247398D01*
X119021595Y-28247398D01*
X119021595Y-28248000D01*
X118521595Y-28248000D01*
X118521595Y-28247398D01*
X118497061Y-28247398D01*
X118448230Y-28242588D01*
X118400105Y-28233016D01*
X118353150Y-28218772D01*
X118307817Y-28199995D01*
X118264544Y-28176864D01*
X118223745Y-28149604D01*
X118185816Y-28118476D01*
X118151119Y-28083779D01*
X118119991Y-28045850D01*
X118092731Y-28005051D01*
X118069600Y-27961778D01*
X118050823Y-27916445D01*
X118036579Y-27869490D01*
X118027007Y-27821365D01*
X118022197Y-27772534D01*
X118022197Y-27748000D01*
X118021595Y-27748000D01*
X118021595Y-27248000D01*
X119521595Y-27248000D01*
G37*
G36*
X118022197Y-26448000D02*
G01*
X118022197Y-26423466D01*
X118027007Y-26374635D01*
X118036579Y-26326510D01*
X118050823Y-26279555D01*
X118069600Y-26234222D01*
X118092731Y-26190949D01*
X118119991Y-26150150D01*
X118151119Y-26112221D01*
X118185816Y-26077524D01*
X118223745Y-26046396D01*
X118264544Y-26019136D01*
X118307817Y-25996005D01*
X118353150Y-25977228D01*
X118400105Y-25962984D01*
X118448230Y-25953412D01*
X118497061Y-25948602D01*
X118521595Y-25948602D01*
X118521595Y-25948000D01*
X119021595Y-25948000D01*
X119021595Y-25948602D01*
X119046129Y-25948602D01*
X119094960Y-25953412D01*
X119143085Y-25962984D01*
X119190040Y-25977228D01*
X119235373Y-25996005D01*
X119278646Y-26019136D01*
X119319445Y-26046396D01*
X119357374Y-26077524D01*
X119392071Y-26112221D01*
X119423199Y-26150150D01*
X119450459Y-26190949D01*
X119473590Y-26234222D01*
X119492367Y-26279555D01*
X119506611Y-26326510D01*
X119516183Y-26374635D01*
X119520993Y-26423466D01*
X119520993Y-26448000D01*
X119521595Y-26448000D01*
X119521595Y-26948000D01*
X118021595Y-26948000D01*
X118021595Y-26448000D01*
X118022197Y-26448000D01*
G37*
%TD*%
%TO.C,JP3*%
G36*
X125754094Y-27248000D02*
G01*
X125754094Y-27748000D01*
X125753492Y-27748000D01*
X125753492Y-27772534D01*
X125748682Y-27821365D01*
X125739110Y-27869490D01*
X125724866Y-27916445D01*
X125706089Y-27961778D01*
X125682958Y-28005051D01*
X125655698Y-28045850D01*
X125624570Y-28083779D01*
X125589873Y-28118476D01*
X125551944Y-28149604D01*
X125511145Y-28176864D01*
X125467872Y-28199995D01*
X125422539Y-28218772D01*
X125375584Y-28233016D01*
X125327459Y-28242588D01*
X125278628Y-28247398D01*
X125254094Y-28247398D01*
X125254094Y-28248000D01*
X124754094Y-28248000D01*
X124754094Y-28247398D01*
X124729560Y-28247398D01*
X124680729Y-28242588D01*
X124632604Y-28233016D01*
X124585649Y-28218772D01*
X124540316Y-28199995D01*
X124497043Y-28176864D01*
X124456244Y-28149604D01*
X124418315Y-28118476D01*
X124383618Y-28083779D01*
X124352490Y-28045850D01*
X124325230Y-28005051D01*
X124302099Y-27961778D01*
X124283322Y-27916445D01*
X124269078Y-27869490D01*
X124259506Y-27821365D01*
X124254696Y-27772534D01*
X124254696Y-27748000D01*
X124254094Y-27748000D01*
X124254094Y-27248000D01*
X125754094Y-27248000D01*
G37*
G36*
X124254696Y-26448000D02*
G01*
X124254696Y-26423466D01*
X124259506Y-26374635D01*
X124269078Y-26326510D01*
X124283322Y-26279555D01*
X124302099Y-26234222D01*
X124325230Y-26190949D01*
X124352490Y-26150150D01*
X124383618Y-26112221D01*
X124418315Y-26077524D01*
X124456244Y-26046396D01*
X124497043Y-26019136D01*
X124540316Y-25996005D01*
X124585649Y-25977228D01*
X124632604Y-25962984D01*
X124680729Y-25953412D01*
X124729560Y-25948602D01*
X124754094Y-25948602D01*
X124754094Y-25948000D01*
X125254094Y-25948000D01*
X125254094Y-25948602D01*
X125278628Y-25948602D01*
X125327459Y-25953412D01*
X125375584Y-25962984D01*
X125422539Y-25977228D01*
X125467872Y-25996005D01*
X125511145Y-26019136D01*
X125551944Y-26046396D01*
X125589873Y-26077524D01*
X125624570Y-26112221D01*
X125655698Y-26150150D01*
X125682958Y-26190949D01*
X125706089Y-26234222D01*
X125724866Y-26279555D01*
X125739110Y-26326510D01*
X125748682Y-26374635D01*
X125753492Y-26423466D01*
X125753492Y-26448000D01*
X125754094Y-26448000D01*
X125754094Y-26948000D01*
X124254094Y-26948000D01*
X124254094Y-26448000D01*
X124254696Y-26448000D01*
G37*
%TD*%
%TO.C,JP2*%
G36*
X131986593Y-27248000D02*
G01*
X131986593Y-27748000D01*
X131985991Y-27748000D01*
X131985991Y-27772534D01*
X131981181Y-27821365D01*
X131971609Y-27869490D01*
X131957365Y-27916445D01*
X131938588Y-27961778D01*
X131915457Y-28005051D01*
X131888197Y-28045850D01*
X131857069Y-28083779D01*
X131822372Y-28118476D01*
X131784443Y-28149604D01*
X131743644Y-28176864D01*
X131700371Y-28199995D01*
X131655038Y-28218772D01*
X131608083Y-28233016D01*
X131559958Y-28242588D01*
X131511127Y-28247398D01*
X131486593Y-28247398D01*
X131486593Y-28248000D01*
X130986593Y-28248000D01*
X130986593Y-28247398D01*
X130962059Y-28247398D01*
X130913228Y-28242588D01*
X130865103Y-28233016D01*
X130818148Y-28218772D01*
X130772815Y-28199995D01*
X130729542Y-28176864D01*
X130688743Y-28149604D01*
X130650814Y-28118476D01*
X130616117Y-28083779D01*
X130584989Y-28045850D01*
X130557729Y-28005051D01*
X130534598Y-27961778D01*
X130515821Y-27916445D01*
X130501577Y-27869490D01*
X130492005Y-27821365D01*
X130487195Y-27772534D01*
X130487195Y-27748000D01*
X130486593Y-27748000D01*
X130486593Y-27248000D01*
X131986593Y-27248000D01*
G37*
G36*
X130487195Y-26448000D02*
G01*
X130487195Y-26423466D01*
X130492005Y-26374635D01*
X130501577Y-26326510D01*
X130515821Y-26279555D01*
X130534598Y-26234222D01*
X130557729Y-26190949D01*
X130584989Y-26150150D01*
X130616117Y-26112221D01*
X130650814Y-26077524D01*
X130688743Y-26046396D01*
X130729542Y-26019136D01*
X130772815Y-25996005D01*
X130818148Y-25977228D01*
X130865103Y-25962984D01*
X130913228Y-25953412D01*
X130962059Y-25948602D01*
X130986593Y-25948602D01*
X130986593Y-25948000D01*
X131486593Y-25948000D01*
X131486593Y-25948602D01*
X131511127Y-25948602D01*
X131559958Y-25953412D01*
X131608083Y-25962984D01*
X131655038Y-25977228D01*
X131700371Y-25996005D01*
X131743644Y-26019136D01*
X131784443Y-26046396D01*
X131822372Y-26077524D01*
X131857069Y-26112221D01*
X131888197Y-26150150D01*
X131915457Y-26190949D01*
X131938588Y-26234222D01*
X131957365Y-26279555D01*
X131971609Y-26326510D01*
X131981181Y-26374635D01*
X131985991Y-26423466D01*
X131985991Y-26448000D01*
X131986593Y-26448000D01*
X131986593Y-26948000D01*
X130486593Y-26948000D01*
X130486593Y-26448000D01*
X130487195Y-26448000D01*
G37*
%TD*%
%TO.C,JP1*%
G36*
X138219099Y-27248000D02*
G01*
X138219099Y-27748000D01*
X138218497Y-27748000D01*
X138218497Y-27772534D01*
X138213687Y-27821365D01*
X138204115Y-27869490D01*
X138189871Y-27916445D01*
X138171094Y-27961778D01*
X138147963Y-28005051D01*
X138120703Y-28045850D01*
X138089575Y-28083779D01*
X138054878Y-28118476D01*
X138016949Y-28149604D01*
X137976150Y-28176864D01*
X137932877Y-28199995D01*
X137887544Y-28218772D01*
X137840589Y-28233016D01*
X137792464Y-28242588D01*
X137743633Y-28247398D01*
X137719099Y-28247398D01*
X137719099Y-28248000D01*
X137219099Y-28248000D01*
X137219099Y-28247398D01*
X137194565Y-28247398D01*
X137145734Y-28242588D01*
X137097609Y-28233016D01*
X137050654Y-28218772D01*
X137005321Y-28199995D01*
X136962048Y-28176864D01*
X136921249Y-28149604D01*
X136883320Y-28118476D01*
X136848623Y-28083779D01*
X136817495Y-28045850D01*
X136790235Y-28005051D01*
X136767104Y-27961778D01*
X136748327Y-27916445D01*
X136734083Y-27869490D01*
X136724511Y-27821365D01*
X136719701Y-27772534D01*
X136719701Y-27748000D01*
X136719099Y-27748000D01*
X136719099Y-27248000D01*
X138219099Y-27248000D01*
G37*
G36*
X136719701Y-26448000D02*
G01*
X136719701Y-26423466D01*
X136724511Y-26374635D01*
X136734083Y-26326510D01*
X136748327Y-26279555D01*
X136767104Y-26234222D01*
X136790235Y-26190949D01*
X136817495Y-26150150D01*
X136848623Y-26112221D01*
X136883320Y-26077524D01*
X136921249Y-26046396D01*
X136962048Y-26019136D01*
X137005321Y-25996005D01*
X137050654Y-25977228D01*
X137097609Y-25962984D01*
X137145734Y-25953412D01*
X137194565Y-25948602D01*
X137219099Y-25948602D01*
X137219099Y-25948000D01*
X137719099Y-25948000D01*
X137719099Y-25948602D01*
X137743633Y-25948602D01*
X137792464Y-25953412D01*
X137840589Y-25962984D01*
X137887544Y-25977228D01*
X137932877Y-25996005D01*
X137976150Y-26019136D01*
X138016949Y-26046396D01*
X138054878Y-26077524D01*
X138089575Y-26112221D01*
X138120703Y-26150150D01*
X138147963Y-26190949D01*
X138171094Y-26234222D01*
X138189871Y-26279555D01*
X138204115Y-26326510D01*
X138213687Y-26374635D01*
X138218497Y-26423466D01*
X138218497Y-26448000D01*
X138219099Y-26448000D01*
X138219099Y-26948000D01*
X136719099Y-26948000D01*
X136719099Y-26448000D01*
X136719701Y-26448000D01*
G37*
%TD*%
%TO.C,R1*%
G36*
G01*
X82184000Y-39459999D02*
X82184000Y-40360001D01*
G75*
G02*
X81934001Y-40610000I-249999J0D01*
G01*
X81408999Y-40610000D01*
G75*
G02*
X81159000Y-40360001I0J249999D01*
G01*
X81159000Y-39459999D01*
G75*
G02*
X81408999Y-39210000I249999J0D01*
G01*
X81934001Y-39210000D01*
G75*
G02*
X82184000Y-39459999I0J-249999D01*
G01*
G37*
G36*
G01*
X84009000Y-39459999D02*
X84009000Y-40360001D01*
G75*
G02*
X83759001Y-40610000I-249999J0D01*
G01*
X83233999Y-40610000D01*
G75*
G02*
X82984000Y-40360001I0J249999D01*
G01*
X82984000Y-39459999D01*
G75*
G02*
X83233999Y-39210000I249999J0D01*
G01*
X83759001Y-39210000D01*
G75*
G02*
X84009000Y-39459999I0J-249999D01*
G01*
G37*
%TD*%
%TO.C,D1*%
G36*
G01*
X82134000Y-41485750D02*
X82134000Y-42398250D01*
G75*
G02*
X81890250Y-42642000I-243750J0D01*
G01*
X81402750Y-42642000D01*
G75*
G02*
X81159000Y-42398250I0J243750D01*
G01*
X81159000Y-41485750D01*
G75*
G02*
X81402750Y-41242000I243750J0D01*
G01*
X81890250Y-41242000D01*
G75*
G02*
X82134000Y-41485750I0J-243750D01*
G01*
G37*
G36*
G01*
X84009000Y-41485750D02*
X84009000Y-42398250D01*
G75*
G02*
X83765250Y-42642000I-243750J0D01*
G01*
X83277750Y-42642000D01*
G75*
G02*
X83034000Y-42398250I0J243750D01*
G01*
X83034000Y-41485750D01*
G75*
G02*
X83277750Y-41242000I243750J0D01*
G01*
X83765250Y-41242000D01*
G75*
G02*
X84009000Y-41485750I0J-243750D01*
G01*
G37*
%TD*%
M02*
