%TF.GenerationSoftware,KiCad,Pcbnew,(5.1.9-16-g1737927814)-1*%
%TF.CreationDate,2021-06-02T15:54:43-05:00*%
%TF.ProjectId,loopback_tester,6c6f6f70-6261-4636-9b5f-746573746572,rev?*%
%TF.SameCoordinates,PX59d60c0PY325aa00*%
%TF.FileFunction,Soldermask,Bot*%
%TF.FilePolarity,Negative*%
%FSLAX46Y46*%
G04 Gerber Fmt 4.6, Leading zero omitted, Abs format (unit mm)*
G04 Created by KiCad (PCBNEW (5.1.9-16-g1737927814)-1) date 2021-06-02 15:54:43*
%MOMM*%
%LPD*%
G01*
G04 APERTURE LIST*
%TA.AperFunction,Profile*%
%ADD10C,0.050000*%
%TD*%
%ADD11O,1.700000X1.700000*%
%ADD12R,1.700000X1.700000*%
%ADD13C,4.845000*%
%ADD14C,1.545000*%
G04 APERTURE END LIST*
D10*
X144052000Y-45696000D02*
G75*
G03*
X145012000Y-44736000I0J960000D01*
G01*
X81552000Y-45696000D02*
X144052000Y-45696000D01*
X81552000Y-45696800D02*
G75*
G02*
X80552000Y-44736000I0J1000800D01*
G01*
X80552000Y-16288000D02*
X80552000Y-44736000D01*
X145012000Y-16780000D02*
X145012000Y-44736000D01*
X81060000Y-15780000D02*
X144012000Y-15780000D01*
X80552000Y-16288000D02*
G75*
G02*
X81060000Y-15780000I508000J0D01*
G01*
X144012000Y-15780000D02*
G75*
G02*
X145012000Y-16780000I0J-1000000D01*
G01*
D11*
%TO.C,J2*%
X143226500Y-17494500D03*
X143226500Y-20034500D03*
X140686500Y-17494500D03*
X140686500Y-20034500D03*
X138146500Y-17494500D03*
X138146500Y-20034500D03*
X135606500Y-17494500D03*
X135606500Y-20034500D03*
X133066500Y-17494500D03*
X133066500Y-20034500D03*
X130526500Y-17494500D03*
X130526500Y-20034500D03*
X127986500Y-17494500D03*
X127986500Y-20034500D03*
X125446500Y-17494500D03*
X125446500Y-20034500D03*
X122906500Y-17494500D03*
X122906500Y-20034500D03*
X120366500Y-17494500D03*
X120366500Y-20034500D03*
X117826500Y-17494500D03*
X117826500Y-20034500D03*
X115286500Y-17494500D03*
X115286500Y-20034500D03*
X112746500Y-17494500D03*
X112746500Y-20034500D03*
X110206500Y-17494500D03*
X110206500Y-20034500D03*
X107666500Y-17494500D03*
X107666500Y-20034500D03*
X105126500Y-17494500D03*
X105126500Y-20034500D03*
X102586500Y-17494500D03*
X102586500Y-20034500D03*
X100046500Y-17494500D03*
X100046500Y-20034500D03*
X97506500Y-17494500D03*
X97506500Y-20034500D03*
X94966500Y-17494500D03*
X94966500Y-20034500D03*
X92426500Y-17494500D03*
X92426500Y-20034500D03*
X89886500Y-17494500D03*
X89886500Y-20034500D03*
X87346500Y-17494500D03*
X87346500Y-20034500D03*
X84806500Y-17494500D03*
X84806500Y-20034500D03*
X82266500Y-17494500D03*
D12*
X82266500Y-20034500D03*
%TD*%
D13*
%TO.C,J1*%
X89281600Y-36250000D03*
X136321600Y-36250000D03*
D14*
X97566600Y-37670000D03*
X100336600Y-37670000D03*
X103106600Y-37670000D03*
X105876600Y-37670000D03*
X108646600Y-37670000D03*
X111416600Y-37670000D03*
X114186600Y-37670000D03*
X116956600Y-37670000D03*
X119726600Y-37670000D03*
X122496600Y-37670000D03*
X125266600Y-37670000D03*
X128036600Y-37670000D03*
X96181600Y-34830000D03*
X98951600Y-34830000D03*
X101721600Y-34830000D03*
X104491600Y-34830000D03*
X107261600Y-34830000D03*
X110031600Y-34830000D03*
X112801600Y-34830000D03*
X115571600Y-34830000D03*
X118341600Y-34830000D03*
X121111600Y-34830000D03*
X123881600Y-34830000D03*
X126651600Y-34830000D03*
X129421600Y-34830000D03*
%TD*%
M02*
