%TF.GenerationSoftware,KiCad,Pcbnew,(5.1.9-16-g1737927814)-1*%
%TF.CreationDate,2021-06-02T15:54:43-05:00*%
%TF.ProjectId,loopback_tester,6c6f6f70-6261-4636-9b5f-746573746572,rev?*%
%TF.SameCoordinates,PX59d60c0PY325aa00*%
%TF.FileFunction,Legend,Top*%
%TF.FilePolarity,Positive*%
%FSLAX46Y46*%
G04 Gerber Fmt 4.6, Leading zero omitted, Abs format (unit mm)*
G04 Created by KiCad (PCBNEW (5.1.9-16-g1737927814)-1) date 2021-06-02 15:54:43*
%MOMM*%
%LPD*%
G01*
G04 APERTURE LIST*
%ADD10C,0.150000*%
%ADD11C,0.100000*%
%ADD12C,0.120000*%
%ADD13C,0.300000*%
%TA.AperFunction,Profile*%
%ADD14C,0.050000*%
%TD*%
%ADD15C,0.010000*%
G04 APERTURE END LIST*
D10*
X82225142Y-27670571D02*
X82225142Y-28356285D01*
X81025142Y-28013428D02*
X82225142Y-28013428D01*
X82225142Y-28984857D02*
X82225142Y-29213428D01*
X82168000Y-29327714D01*
X82053714Y-29442000D01*
X81825142Y-29499142D01*
X81425142Y-29499142D01*
X81196571Y-29442000D01*
X81082285Y-29327714D01*
X81025142Y-29213428D01*
X81025142Y-28984857D01*
X81082285Y-28870571D01*
X81196571Y-28756285D01*
X81425142Y-28699142D01*
X81825142Y-28699142D01*
X82053714Y-28756285D01*
X82168000Y-28870571D01*
X82225142Y-28984857D01*
X81025142Y-30013428D02*
X82225142Y-30013428D01*
X82225142Y-30470571D01*
X82168000Y-30584857D01*
X82110857Y-30642000D01*
X81996571Y-30699142D01*
X81825142Y-30699142D01*
X81710857Y-30642000D01*
X81653714Y-30584857D01*
X81596571Y-30470571D01*
X81596571Y-30013428D01*
D11*
X83083333Y-19144666D02*
X83083333Y-18444666D01*
X83250000Y-18444666D01*
X83350000Y-18478000D01*
X83416666Y-18544666D01*
X83450000Y-18611333D01*
X83483333Y-18744666D01*
X83483333Y-18844666D01*
X83450000Y-18978000D01*
X83416666Y-19044666D01*
X83350000Y-19111333D01*
X83250000Y-19144666D01*
X83083333Y-19144666D01*
X83916666Y-18444666D02*
X83983333Y-18444666D01*
X84050000Y-18478000D01*
X84083333Y-18511333D01*
X84116666Y-18578000D01*
X84150000Y-18711333D01*
X84150000Y-18878000D01*
X84116666Y-19011333D01*
X84083333Y-19078000D01*
X84050000Y-19111333D01*
X83983333Y-19144666D01*
X83916666Y-19144666D01*
X83850000Y-19111333D01*
X83816666Y-19078000D01*
X83783333Y-19011333D01*
X83750000Y-18878000D01*
X83750000Y-18711333D01*
X83783333Y-18578000D01*
X83816666Y-18511333D01*
X83850000Y-18478000D01*
X83916666Y-18444666D01*
X100863333Y-19144666D02*
X100863333Y-18444666D01*
X101030000Y-18444666D01*
X101130000Y-18478000D01*
X101196666Y-18544666D01*
X101230000Y-18611333D01*
X101263333Y-18744666D01*
X101263333Y-18844666D01*
X101230000Y-18978000D01*
X101196666Y-19044666D01*
X101130000Y-19111333D01*
X101030000Y-19144666D01*
X100863333Y-19144666D01*
X101496666Y-18444666D02*
X101963333Y-18444666D01*
X101663333Y-19144666D01*
X131476666Y-19144666D02*
X131243333Y-18811333D01*
X131076666Y-19144666D02*
X131076666Y-18444666D01*
X131343333Y-18444666D01*
X131410000Y-18478000D01*
X131443333Y-18511333D01*
X131476666Y-18578000D01*
X131476666Y-18678000D01*
X131443333Y-18744666D01*
X131410000Y-18778000D01*
X131343333Y-18811333D01*
X131076666Y-18811333D01*
X131743333Y-19111333D02*
X131843333Y-19144666D01*
X132010000Y-19144666D01*
X132076666Y-19111333D01*
X132110000Y-19078000D01*
X132143333Y-19011333D01*
X132143333Y-18944666D01*
X132110000Y-18878000D01*
X132076666Y-18844666D01*
X132010000Y-18811333D01*
X131876666Y-18778000D01*
X131810000Y-18744666D01*
X131776666Y-18711333D01*
X131743333Y-18644666D01*
X131743333Y-18578000D01*
X131776666Y-18511333D01*
X131810000Y-18478000D01*
X131876666Y-18444666D01*
X132043333Y-18444666D01*
X132143333Y-18478000D01*
X132343333Y-18444666D02*
X132743333Y-18444666D01*
X132543333Y-19144666D02*
X132543333Y-18444666D01*
X95783333Y-19144666D02*
X95783333Y-18444666D01*
X95950000Y-18444666D01*
X96050000Y-18478000D01*
X96116666Y-18544666D01*
X96150000Y-18611333D01*
X96183333Y-18744666D01*
X96183333Y-18844666D01*
X96150000Y-18978000D01*
X96116666Y-19044666D01*
X96050000Y-19111333D01*
X95950000Y-19144666D01*
X95783333Y-19144666D01*
X96816666Y-18444666D02*
X96483333Y-18444666D01*
X96450000Y-18778000D01*
X96483333Y-18744666D01*
X96550000Y-18711333D01*
X96716666Y-18711333D01*
X96783333Y-18744666D01*
X96816666Y-18778000D01*
X96850000Y-18844666D01*
X96850000Y-19011333D01*
X96816666Y-19078000D01*
X96783333Y-19111333D01*
X96716666Y-19144666D01*
X96550000Y-19144666D01*
X96483333Y-19111333D01*
X96450000Y-19078000D01*
X98323333Y-19144666D02*
X98323333Y-18444666D01*
X98490000Y-18444666D01*
X98590000Y-18478000D01*
X98656666Y-18544666D01*
X98690000Y-18611333D01*
X98723333Y-18744666D01*
X98723333Y-18844666D01*
X98690000Y-18978000D01*
X98656666Y-19044666D01*
X98590000Y-19111333D01*
X98490000Y-19144666D01*
X98323333Y-19144666D01*
X99323333Y-18444666D02*
X99190000Y-18444666D01*
X99123333Y-18478000D01*
X99090000Y-18511333D01*
X99023333Y-18611333D01*
X98990000Y-18744666D01*
X98990000Y-19011333D01*
X99023333Y-19078000D01*
X99056666Y-19111333D01*
X99123333Y-19144666D01*
X99256666Y-19144666D01*
X99323333Y-19111333D01*
X99356666Y-19078000D01*
X99390000Y-19011333D01*
X99390000Y-18844666D01*
X99356666Y-18778000D01*
X99323333Y-18744666D01*
X99256666Y-18711333D01*
X99123333Y-18711333D01*
X99056666Y-18744666D01*
X99023333Y-18778000D01*
X98990000Y-18844666D01*
X90703333Y-19144666D02*
X90703333Y-18444666D01*
X90870000Y-18444666D01*
X90970000Y-18478000D01*
X91036666Y-18544666D01*
X91070000Y-18611333D01*
X91103333Y-18744666D01*
X91103333Y-18844666D01*
X91070000Y-18978000D01*
X91036666Y-19044666D01*
X90970000Y-19111333D01*
X90870000Y-19144666D01*
X90703333Y-19144666D01*
X91336666Y-18444666D02*
X91770000Y-18444666D01*
X91536666Y-18711333D01*
X91636666Y-18711333D01*
X91703333Y-18744666D01*
X91736666Y-18778000D01*
X91770000Y-18844666D01*
X91770000Y-19011333D01*
X91736666Y-19078000D01*
X91703333Y-19111333D01*
X91636666Y-19144666D01*
X91436666Y-19144666D01*
X91370000Y-19111333D01*
X91336666Y-19078000D01*
X126196666Y-18778000D02*
X126296666Y-18811333D01*
X126330000Y-18844666D01*
X126363333Y-18911333D01*
X126363333Y-19011333D01*
X126330000Y-19078000D01*
X126296666Y-19111333D01*
X126230000Y-19144666D01*
X125963333Y-19144666D01*
X125963333Y-18444666D01*
X126196666Y-18444666D01*
X126263333Y-18478000D01*
X126296666Y-18511333D01*
X126330000Y-18578000D01*
X126330000Y-18644666D01*
X126296666Y-18711333D01*
X126263333Y-18744666D01*
X126196666Y-18778000D01*
X125963333Y-18778000D01*
X126630000Y-19111333D02*
X126730000Y-19144666D01*
X126896666Y-19144666D01*
X126963333Y-19111333D01*
X126996666Y-19078000D01*
X127030000Y-19011333D01*
X127030000Y-18944666D01*
X126996666Y-18878000D01*
X126963333Y-18844666D01*
X126896666Y-18811333D01*
X126763333Y-18778000D01*
X126696666Y-18744666D01*
X126663333Y-18711333D01*
X126630000Y-18644666D01*
X126630000Y-18578000D01*
X126663333Y-18511333D01*
X126696666Y-18478000D01*
X126763333Y-18444666D01*
X126930000Y-18444666D01*
X127030000Y-18478000D01*
X127463333Y-18811333D02*
X127463333Y-19144666D01*
X127230000Y-18444666D02*
X127463333Y-18811333D01*
X127696666Y-18444666D01*
X133483333Y-19144666D02*
X133483333Y-18444666D01*
X133716666Y-18944666D01*
X133950000Y-18444666D01*
X133950000Y-19144666D01*
X134250000Y-19111333D02*
X134350000Y-19144666D01*
X134516666Y-19144666D01*
X134583333Y-19111333D01*
X134616666Y-19078000D01*
X134650000Y-19011333D01*
X134650000Y-18944666D01*
X134616666Y-18878000D01*
X134583333Y-18844666D01*
X134516666Y-18811333D01*
X134383333Y-18778000D01*
X134316666Y-18744666D01*
X134283333Y-18711333D01*
X134250000Y-18644666D01*
X134250000Y-18578000D01*
X134283333Y-18511333D01*
X134316666Y-18478000D01*
X134383333Y-18444666D01*
X134550000Y-18444666D01*
X134650000Y-18478000D01*
X135316666Y-18478000D02*
X135250000Y-18444666D01*
X135150000Y-18444666D01*
X135050000Y-18478000D01*
X134983333Y-18544666D01*
X134950000Y-18611333D01*
X134916666Y-18744666D01*
X134916666Y-18844666D01*
X134950000Y-18978000D01*
X134983333Y-19044666D01*
X135050000Y-19111333D01*
X135150000Y-19144666D01*
X135216666Y-19144666D01*
X135316666Y-19111333D01*
X135350000Y-19078000D01*
X135350000Y-18844666D01*
X135216666Y-18844666D01*
X141553333Y-19144666D02*
X141320000Y-18811333D01*
X141153333Y-19144666D02*
X141153333Y-18444666D01*
X141420000Y-18444666D01*
X141486666Y-18478000D01*
X141520000Y-18511333D01*
X141553333Y-18578000D01*
X141553333Y-18678000D01*
X141520000Y-18744666D01*
X141486666Y-18778000D01*
X141420000Y-18811333D01*
X141153333Y-18811333D01*
X141853333Y-18778000D02*
X142086666Y-18778000D01*
X142186666Y-19144666D02*
X141853333Y-19144666D01*
X141853333Y-18444666D01*
X142186666Y-18444666D01*
X142953333Y-19211333D02*
X142886666Y-19178000D01*
X142820000Y-19111333D01*
X142720000Y-19011333D01*
X142653333Y-18978000D01*
X142586666Y-18978000D01*
X142620000Y-19144666D02*
X142553333Y-19111333D01*
X142486666Y-19044666D01*
X142453333Y-18911333D01*
X142453333Y-18678000D01*
X142486666Y-18544666D01*
X142553333Y-18478000D01*
X142620000Y-18444666D01*
X142753333Y-18444666D01*
X142820000Y-18478000D01*
X142886666Y-18544666D01*
X142920000Y-18678000D01*
X142920000Y-18911333D01*
X142886666Y-19044666D01*
X142820000Y-19111333D01*
X142753333Y-19144666D01*
X142620000Y-19144666D01*
X143939333Y-19144666D02*
X143939333Y-18444666D01*
X144406000Y-18444666D02*
X144539333Y-18444666D01*
X144606000Y-18478000D01*
X144672666Y-18544666D01*
X144706000Y-18678000D01*
X144706000Y-18911333D01*
X144672666Y-19044666D01*
X144606000Y-19111333D01*
X144539333Y-19144666D01*
X144406000Y-19144666D01*
X144339333Y-19111333D01*
X144272666Y-19044666D01*
X144239333Y-18911333D01*
X144239333Y-18678000D01*
X144272666Y-18544666D01*
X144339333Y-18478000D01*
X144406000Y-18444666D01*
X128453333Y-18944666D02*
X128786666Y-18944666D01*
X128386666Y-19144666D02*
X128620000Y-18444666D01*
X128853333Y-19144666D01*
X129486666Y-19078000D02*
X129453333Y-19111333D01*
X129353333Y-19144666D01*
X129286666Y-19144666D01*
X129186666Y-19111333D01*
X129120000Y-19044666D01*
X129086666Y-18978000D01*
X129053333Y-18844666D01*
X129053333Y-18744666D01*
X129086666Y-18611333D01*
X129120000Y-18544666D01*
X129186666Y-18478000D01*
X129286666Y-18444666D01*
X129353333Y-18444666D01*
X129453333Y-18478000D01*
X129486666Y-18511333D01*
X129786666Y-19144666D02*
X129786666Y-18444666D01*
X130186666Y-19144666D02*
X129886666Y-18744666D01*
X130186666Y-18444666D02*
X129786666Y-18844666D01*
X113180000Y-18444666D02*
X113580000Y-18444666D01*
X113380000Y-19144666D02*
X113380000Y-18444666D01*
X113813333Y-19144666D02*
X113813333Y-18444666D01*
X114080000Y-18444666D01*
X114146666Y-18478000D01*
X114180000Y-18511333D01*
X114213333Y-18578000D01*
X114213333Y-18678000D01*
X114180000Y-18744666D01*
X114146666Y-18778000D01*
X114080000Y-18811333D01*
X113813333Y-18811333D01*
X114913333Y-19144666D02*
X114680000Y-18811333D01*
X114513333Y-19144666D02*
X114513333Y-18444666D01*
X114780000Y-18444666D01*
X114846666Y-18478000D01*
X114880000Y-18511333D01*
X114913333Y-18578000D01*
X114913333Y-18678000D01*
X114880000Y-18744666D01*
X114846666Y-18778000D01*
X114780000Y-18811333D01*
X114513333Y-18811333D01*
X136140000Y-19111333D02*
X136240000Y-19144666D01*
X136406666Y-19144666D01*
X136473333Y-19111333D01*
X136506666Y-19078000D01*
X136540000Y-19011333D01*
X136540000Y-18944666D01*
X136506666Y-18878000D01*
X136473333Y-18844666D01*
X136406666Y-18811333D01*
X136273333Y-18778000D01*
X136206666Y-18744666D01*
X136173333Y-18711333D01*
X136140000Y-18644666D01*
X136140000Y-18578000D01*
X136173333Y-18511333D01*
X136206666Y-18478000D01*
X136273333Y-18444666D01*
X136440000Y-18444666D01*
X136540000Y-18478000D01*
X136840000Y-18778000D02*
X137073333Y-18778000D01*
X137173333Y-19144666D02*
X136840000Y-19144666D01*
X136840000Y-18444666D01*
X137173333Y-18444666D01*
X137806666Y-19144666D02*
X137473333Y-19144666D01*
X137473333Y-18444666D01*
X139346666Y-19078000D02*
X139313333Y-19111333D01*
X139213333Y-19144666D01*
X139146666Y-19144666D01*
X139046666Y-19111333D01*
X138980000Y-19044666D01*
X138946666Y-18978000D01*
X138913333Y-18844666D01*
X138913333Y-18744666D01*
X138946666Y-18611333D01*
X138980000Y-18544666D01*
X139046666Y-18478000D01*
X139146666Y-18444666D01*
X139213333Y-18444666D01*
X139313333Y-18478000D01*
X139346666Y-18511333D01*
X139646666Y-19144666D02*
X139646666Y-18444666D01*
X139813333Y-18444666D01*
X139913333Y-18478000D01*
X139980000Y-18544666D01*
X140013333Y-18611333D01*
X140046666Y-18744666D01*
X140046666Y-18844666D01*
X140013333Y-18978000D01*
X139980000Y-19044666D01*
X139913333Y-19111333D01*
X139813333Y-19144666D01*
X139646666Y-19144666D01*
X88163333Y-19144666D02*
X88163333Y-18444666D01*
X88330000Y-18444666D01*
X88430000Y-18478000D01*
X88496666Y-18544666D01*
X88530000Y-18611333D01*
X88563333Y-18744666D01*
X88563333Y-18844666D01*
X88530000Y-18978000D01*
X88496666Y-19044666D01*
X88430000Y-19111333D01*
X88330000Y-19144666D01*
X88163333Y-19144666D01*
X88830000Y-18511333D02*
X88863333Y-18478000D01*
X88930000Y-18444666D01*
X89096666Y-18444666D01*
X89163333Y-18478000D01*
X89196666Y-18511333D01*
X89230000Y-18578000D01*
X89230000Y-18644666D01*
X89196666Y-18744666D01*
X88796666Y-19144666D01*
X89230000Y-19144666D01*
X93243333Y-19144666D02*
X93243333Y-18444666D01*
X93410000Y-18444666D01*
X93510000Y-18478000D01*
X93576666Y-18544666D01*
X93610000Y-18611333D01*
X93643333Y-18744666D01*
X93643333Y-18844666D01*
X93610000Y-18978000D01*
X93576666Y-19044666D01*
X93510000Y-19111333D01*
X93410000Y-19144666D01*
X93243333Y-19144666D01*
X94243333Y-18678000D02*
X94243333Y-19144666D01*
X94076666Y-18411333D02*
X93910000Y-18911333D01*
X94343333Y-18911333D01*
X103386666Y-19144666D02*
X103386666Y-18444666D01*
X103553333Y-18444666D01*
X103653333Y-18478000D01*
X103720000Y-18544666D01*
X103753333Y-18611333D01*
X103786666Y-18744666D01*
X103786666Y-18844666D01*
X103753333Y-18978000D01*
X103720000Y-19044666D01*
X103653333Y-19111333D01*
X103553333Y-19144666D01*
X103386666Y-19144666D01*
X104086666Y-19144666D02*
X104086666Y-18444666D01*
X104353333Y-18444666D01*
X104420000Y-18478000D01*
X104453333Y-18511333D01*
X104486666Y-18578000D01*
X104486666Y-18678000D01*
X104453333Y-18744666D01*
X104420000Y-18778000D01*
X104353333Y-18811333D01*
X104086666Y-18811333D01*
X85623333Y-19144666D02*
X85623333Y-18444666D01*
X85790000Y-18444666D01*
X85890000Y-18478000D01*
X85956666Y-18544666D01*
X85990000Y-18611333D01*
X86023333Y-18744666D01*
X86023333Y-18844666D01*
X85990000Y-18978000D01*
X85956666Y-19044666D01*
X85890000Y-19111333D01*
X85790000Y-19144666D01*
X85623333Y-19144666D01*
X86690000Y-19144666D02*
X86290000Y-19144666D01*
X86490000Y-19144666D02*
X86490000Y-18444666D01*
X86423333Y-18544666D01*
X86356666Y-18611333D01*
X86290000Y-18644666D01*
X120900000Y-18944666D02*
X121233333Y-18944666D01*
X120833333Y-19144666D02*
X121066666Y-18444666D01*
X121300000Y-19144666D01*
X121433333Y-18444666D02*
X121833333Y-18444666D01*
X121633333Y-19144666D02*
X121633333Y-18444666D01*
X122066666Y-19144666D02*
X122066666Y-18444666D01*
X122466666Y-19144666D01*
X122466666Y-18444666D01*
D12*
X86394000Y-43212000D02*
X81060000Y-43212000D01*
X86394000Y-34322000D02*
X86394000Y-43212000D01*
X81060000Y-34322000D02*
X86394000Y-34322000D01*
D10*
X81536476Y-35235380D02*
X82107904Y-35235380D01*
X81822190Y-36235380D02*
X81822190Y-35235380D01*
X82441238Y-35711571D02*
X82774571Y-35711571D01*
X82917428Y-36235380D02*
X82441238Y-36235380D01*
X82441238Y-35235380D01*
X82917428Y-35235380D01*
X83917428Y-36235380D02*
X83584095Y-35759190D01*
X83346000Y-36235380D02*
X83346000Y-35235380D01*
X83726952Y-35235380D01*
X83822190Y-35283000D01*
X83869809Y-35330619D01*
X83917428Y-35425857D01*
X83917428Y-35568714D01*
X83869809Y-35663952D01*
X83822190Y-35711571D01*
X83726952Y-35759190D01*
X83346000Y-35759190D01*
X84346000Y-36235380D02*
X84346000Y-35235380D01*
X84679333Y-35949666D01*
X85012666Y-35235380D01*
X85012666Y-36235380D01*
X82012666Y-37885380D02*
X82012666Y-36885380D01*
X82393619Y-36885380D01*
X82488857Y-36933000D01*
X82536476Y-36980619D01*
X82584095Y-37075857D01*
X82584095Y-37218714D01*
X82536476Y-37313952D01*
X82488857Y-37361571D01*
X82393619Y-37409190D01*
X82012666Y-37409190D01*
X82917428Y-36885380D02*
X83155523Y-37885380D01*
X83346000Y-37171095D01*
X83536476Y-37885380D01*
X83774571Y-36885380D01*
X84726952Y-37885380D02*
X84393619Y-37409190D01*
X84155523Y-37885380D02*
X84155523Y-36885380D01*
X84536476Y-36885380D01*
X84631714Y-36933000D01*
X84679333Y-36980619D01*
X84726952Y-37075857D01*
X84726952Y-37218714D01*
X84679333Y-37313952D01*
X84631714Y-37361571D01*
X84536476Y-37409190D01*
X84155523Y-37409190D01*
X110492761Y-30297714D02*
X110730857Y-30964380D01*
X110968952Y-30297714D01*
X111730857Y-30916761D02*
X111635619Y-30964380D01*
X111445142Y-30964380D01*
X111349904Y-30916761D01*
X111302285Y-30821523D01*
X111302285Y-30440571D01*
X111349904Y-30345333D01*
X111445142Y-30297714D01*
X111635619Y-30297714D01*
X111730857Y-30345333D01*
X111778476Y-30440571D01*
X111778476Y-30535809D01*
X111302285Y-30631047D01*
X112207047Y-30964380D02*
X112207047Y-30297714D01*
X112207047Y-30488190D02*
X112254666Y-30392952D01*
X112302285Y-30345333D01*
X112397523Y-30297714D01*
X112492761Y-30297714D01*
X112778476Y-30916761D02*
X112873714Y-30964380D01*
X113064190Y-30964380D01*
X113159428Y-30916761D01*
X113207047Y-30821523D01*
X113207047Y-30773904D01*
X113159428Y-30678666D01*
X113064190Y-30631047D01*
X112921333Y-30631047D01*
X112826095Y-30583428D01*
X112778476Y-30488190D01*
X112778476Y-30440571D01*
X112826095Y-30345333D01*
X112921333Y-30297714D01*
X113064190Y-30297714D01*
X113159428Y-30345333D01*
X113635619Y-30964380D02*
X113635619Y-30297714D01*
X113635619Y-29964380D02*
X113588000Y-30012000D01*
X113635619Y-30059619D01*
X113683238Y-30012000D01*
X113635619Y-29964380D01*
X113635619Y-30059619D01*
X114254666Y-30964380D02*
X114159428Y-30916761D01*
X114111809Y-30869142D01*
X114064190Y-30773904D01*
X114064190Y-30488190D01*
X114111809Y-30392952D01*
X114159428Y-30345333D01*
X114254666Y-30297714D01*
X114397523Y-30297714D01*
X114492761Y-30345333D01*
X114540380Y-30392952D01*
X114588000Y-30488190D01*
X114588000Y-30773904D01*
X114540380Y-30869142D01*
X114492761Y-30916761D01*
X114397523Y-30964380D01*
X114254666Y-30964380D01*
X115016571Y-30297714D02*
X115016571Y-30964380D01*
X115016571Y-30392952D02*
X115064190Y-30345333D01*
X115159428Y-30297714D01*
X115302285Y-30297714D01*
X115397523Y-30345333D01*
X115445142Y-30440571D01*
X115445142Y-30964380D01*
X117207047Y-30964380D02*
X116635619Y-30964380D01*
X116921333Y-30964380D02*
X116921333Y-29964380D01*
X116826095Y-30107238D01*
X116730857Y-30202476D01*
X116635619Y-30250095D01*
X117635619Y-30869142D02*
X117683238Y-30916761D01*
X117635619Y-30964380D01*
X117588000Y-30916761D01*
X117635619Y-30869142D01*
X117635619Y-30964380D01*
X118635619Y-30964380D02*
X118064190Y-30964380D01*
X118349904Y-30964380D02*
X118349904Y-29964380D01*
X118254666Y-30107238D01*
X118159428Y-30202476D01*
X118064190Y-30250095D01*
D13*
X97064000Y-24463523D02*
X97349714Y-24558761D01*
X97825904Y-24558761D01*
X98016380Y-24463523D01*
X98111619Y-24368285D01*
X98206857Y-24177809D01*
X98206857Y-23987333D01*
X98111619Y-23796857D01*
X98016380Y-23701619D01*
X97825904Y-23606380D01*
X97444952Y-23511142D01*
X97254476Y-23415904D01*
X97159238Y-23320666D01*
X97064000Y-23130190D01*
X97064000Y-22939714D01*
X97159238Y-22749238D01*
X97254476Y-22654000D01*
X97444952Y-22558761D01*
X97921142Y-22558761D01*
X98206857Y-22654000D01*
X100206857Y-24368285D02*
X100111619Y-24463523D01*
X99825904Y-24558761D01*
X99635428Y-24558761D01*
X99349714Y-24463523D01*
X99159238Y-24273047D01*
X99064000Y-24082571D01*
X98968761Y-23701619D01*
X98968761Y-23415904D01*
X99064000Y-23034952D01*
X99159238Y-22844476D01*
X99349714Y-22654000D01*
X99635428Y-22558761D01*
X99825904Y-22558761D01*
X100111619Y-22654000D01*
X100206857Y-22749238D01*
X100968761Y-24463523D02*
X101254476Y-24558761D01*
X101730666Y-24558761D01*
X101921142Y-24463523D01*
X102016380Y-24368285D01*
X102111619Y-24177809D01*
X102111619Y-23987333D01*
X102016380Y-23796857D01*
X101921142Y-23701619D01*
X101730666Y-23606380D01*
X101349714Y-23511142D01*
X101159238Y-23415904D01*
X101064000Y-23320666D01*
X100968761Y-23130190D01*
X100968761Y-22939714D01*
X101064000Y-22749238D01*
X101159238Y-22654000D01*
X101349714Y-22558761D01*
X101825904Y-22558761D01*
X102111619Y-22654000D01*
X102968761Y-24558761D02*
X102968761Y-22558761D01*
X106397333Y-24558761D02*
X105444952Y-24558761D01*
X105444952Y-22558761D01*
X107349714Y-24558761D02*
X107159238Y-24463523D01*
X107064000Y-24368285D01*
X106968761Y-24177809D01*
X106968761Y-23606380D01*
X107064000Y-23415904D01*
X107159238Y-23320666D01*
X107349714Y-23225428D01*
X107635428Y-23225428D01*
X107825904Y-23320666D01*
X107921142Y-23415904D01*
X108016380Y-23606380D01*
X108016380Y-24177809D01*
X107921142Y-24368285D01*
X107825904Y-24463523D01*
X107635428Y-24558761D01*
X107349714Y-24558761D01*
X109159238Y-24558761D02*
X108968761Y-24463523D01*
X108873523Y-24368285D01*
X108778285Y-24177809D01*
X108778285Y-23606380D01*
X108873523Y-23415904D01*
X108968761Y-23320666D01*
X109159238Y-23225428D01*
X109444952Y-23225428D01*
X109635428Y-23320666D01*
X109730666Y-23415904D01*
X109825904Y-23606380D01*
X109825904Y-24177809D01*
X109730666Y-24368285D01*
X109635428Y-24463523D01*
X109444952Y-24558761D01*
X109159238Y-24558761D01*
X110683047Y-23225428D02*
X110683047Y-25225428D01*
X110683047Y-23320666D02*
X110873523Y-23225428D01*
X111254476Y-23225428D01*
X111444952Y-23320666D01*
X111540190Y-23415904D01*
X111635428Y-23606380D01*
X111635428Y-24177809D01*
X111540190Y-24368285D01*
X111444952Y-24463523D01*
X111254476Y-24558761D01*
X110873523Y-24558761D01*
X110683047Y-24463523D01*
X112492571Y-24558761D02*
X112492571Y-22558761D01*
X112492571Y-23320666D02*
X112683047Y-23225428D01*
X113064000Y-23225428D01*
X113254476Y-23320666D01*
X113349714Y-23415904D01*
X113444952Y-23606380D01*
X113444952Y-24177809D01*
X113349714Y-24368285D01*
X113254476Y-24463523D01*
X113064000Y-24558761D01*
X112683047Y-24558761D01*
X112492571Y-24463523D01*
X115159238Y-24558761D02*
X115159238Y-23511142D01*
X115064000Y-23320666D01*
X114873523Y-23225428D01*
X114492571Y-23225428D01*
X114302095Y-23320666D01*
X115159238Y-24463523D02*
X114968761Y-24558761D01*
X114492571Y-24558761D01*
X114302095Y-24463523D01*
X114206857Y-24273047D01*
X114206857Y-24082571D01*
X114302095Y-23892095D01*
X114492571Y-23796857D01*
X114968761Y-23796857D01*
X115159238Y-23701619D01*
X116968761Y-24463523D02*
X116778285Y-24558761D01*
X116397333Y-24558761D01*
X116206857Y-24463523D01*
X116111619Y-24368285D01*
X116016380Y-24177809D01*
X116016380Y-23606380D01*
X116111619Y-23415904D01*
X116206857Y-23320666D01*
X116397333Y-23225428D01*
X116778285Y-23225428D01*
X116968761Y-23320666D01*
X117825904Y-24558761D02*
X117825904Y-22558761D01*
X118016380Y-23796857D02*
X118587809Y-24558761D01*
X118587809Y-23225428D02*
X117825904Y-23987333D01*
X120683047Y-22558761D02*
X121825904Y-22558761D01*
X121254476Y-24558761D02*
X121254476Y-22558761D01*
X123254476Y-24463523D02*
X123064000Y-24558761D01*
X122683047Y-24558761D01*
X122492571Y-24463523D01*
X122397333Y-24273047D01*
X122397333Y-23511142D01*
X122492571Y-23320666D01*
X122683047Y-23225428D01*
X123064000Y-23225428D01*
X123254476Y-23320666D01*
X123349714Y-23511142D01*
X123349714Y-23701619D01*
X122397333Y-23892095D01*
X124111619Y-24463523D02*
X124302095Y-24558761D01*
X124683047Y-24558761D01*
X124873523Y-24463523D01*
X124968761Y-24273047D01*
X124968761Y-24177809D01*
X124873523Y-23987333D01*
X124683047Y-23892095D01*
X124397333Y-23892095D01*
X124206857Y-23796857D01*
X124111619Y-23606380D01*
X124111619Y-23511142D01*
X124206857Y-23320666D01*
X124397333Y-23225428D01*
X124683047Y-23225428D01*
X124873523Y-23320666D01*
X125540190Y-23225428D02*
X126302095Y-23225428D01*
X125825904Y-22558761D02*
X125825904Y-24273047D01*
X125921142Y-24463523D01*
X126111619Y-24558761D01*
X126302095Y-24558761D01*
X127730666Y-24463523D02*
X127540190Y-24558761D01*
X127159238Y-24558761D01*
X126968761Y-24463523D01*
X126873523Y-24273047D01*
X126873523Y-23511142D01*
X126968761Y-23320666D01*
X127159238Y-23225428D01*
X127540190Y-23225428D01*
X127730666Y-23320666D01*
X127825904Y-23511142D01*
X127825904Y-23701619D01*
X126873523Y-23892095D01*
X128683047Y-24558761D02*
X128683047Y-23225428D01*
X128683047Y-23606380D02*
X128778285Y-23415904D01*
X128873523Y-23320666D01*
X129064000Y-23225428D01*
X129254476Y-23225428D01*
D11*
X139179999Y-26398000D02*
X139279999Y-26431333D01*
X139313333Y-26464666D01*
X139346666Y-26531333D01*
X139346666Y-26631333D01*
X139313333Y-26698000D01*
X139279999Y-26731333D01*
X139213333Y-26764666D01*
X138946666Y-26764666D01*
X138946666Y-26064666D01*
X139179999Y-26064666D01*
X139246666Y-26098000D01*
X139279999Y-26131333D01*
X139313333Y-26198000D01*
X139313333Y-26264666D01*
X139279999Y-26331333D01*
X139246666Y-26364666D01*
X139179999Y-26398000D01*
X138946666Y-26398000D01*
X139613333Y-26731333D02*
X139713333Y-26764666D01*
X139879999Y-26764666D01*
X139946666Y-26731333D01*
X139979999Y-26698000D01*
X140013333Y-26631333D01*
X140013333Y-26564666D01*
X139979999Y-26498000D01*
X139946666Y-26464666D01*
X139879999Y-26431333D01*
X139746666Y-26398000D01*
X139679999Y-26364666D01*
X139646666Y-26331333D01*
X139613333Y-26264666D01*
X139613333Y-26198000D01*
X139646666Y-26131333D01*
X139679999Y-26098000D01*
X139746666Y-26064666D01*
X139913333Y-26064666D01*
X140013333Y-26098000D01*
X140446666Y-26431333D02*
X140446666Y-26764666D01*
X140213333Y-26064666D02*
X140446666Y-26431333D01*
X140679999Y-26064666D01*
X138946666Y-28034666D02*
X138946666Y-27334666D01*
X139113333Y-27334666D01*
X139213333Y-27368000D01*
X139280000Y-27434666D01*
X139313333Y-27501333D01*
X139346666Y-27634666D01*
X139346666Y-27734666D01*
X139313333Y-27868000D01*
X139280000Y-27934666D01*
X139213333Y-28001333D01*
X139113333Y-28034666D01*
X138946666Y-28034666D01*
X139646666Y-28034666D02*
X139646666Y-27334666D01*
X139913333Y-27334666D01*
X139980000Y-27368000D01*
X140013333Y-27401333D01*
X140046666Y-27468000D01*
X140046666Y-27568000D01*
X140013333Y-27634666D01*
X139980000Y-27668000D01*
X139913333Y-27701333D01*
X139646666Y-27701333D01*
X132660662Y-26564666D02*
X132993995Y-26564666D01*
X132593995Y-26764666D02*
X132827329Y-26064666D01*
X133060662Y-26764666D01*
X133693995Y-26698000D02*
X133660662Y-26731333D01*
X133560662Y-26764666D01*
X133493995Y-26764666D01*
X133393995Y-26731333D01*
X133327329Y-26664666D01*
X133293995Y-26598000D01*
X133260662Y-26464666D01*
X133260662Y-26364666D01*
X133293995Y-26231333D01*
X133327329Y-26164666D01*
X133393995Y-26098000D01*
X133493995Y-26064666D01*
X133560662Y-26064666D01*
X133660662Y-26098000D01*
X133693995Y-26131333D01*
X133993995Y-26764666D02*
X133993995Y-26064666D01*
X134393995Y-26764666D02*
X134093995Y-26364666D01*
X134393995Y-26064666D02*
X133993995Y-26464666D01*
X132693995Y-28034666D02*
X132693995Y-27334666D01*
X132860662Y-27334666D01*
X132960662Y-27368000D01*
X133027328Y-27434666D01*
X133060662Y-27501333D01*
X133093995Y-27634666D01*
X133093995Y-27734666D01*
X133060662Y-27868000D01*
X133027328Y-27934666D01*
X132960662Y-28001333D01*
X132860662Y-28034666D01*
X132693995Y-28034666D01*
X133527328Y-27334666D02*
X133593995Y-27334666D01*
X133660662Y-27368000D01*
X133693995Y-27401333D01*
X133727328Y-27468000D01*
X133760662Y-27601333D01*
X133760662Y-27768000D01*
X133727328Y-27901333D01*
X133693995Y-27968000D01*
X133660662Y-28001333D01*
X133593995Y-28034666D01*
X133527328Y-28034666D01*
X133460662Y-28001333D01*
X133427328Y-27968000D01*
X133393995Y-27901333D01*
X133360662Y-27768000D01*
X133360662Y-27601333D01*
X133393995Y-27468000D01*
X133427328Y-27401333D01*
X133460662Y-27368000D01*
X133527328Y-27334666D01*
X126441329Y-28034666D02*
X126441329Y-27334666D01*
X126607996Y-27334666D01*
X126707996Y-27368000D01*
X126774662Y-27434666D01*
X126807996Y-27501333D01*
X126841329Y-27634666D01*
X126841329Y-27734666D01*
X126807996Y-27868000D01*
X126774662Y-27934666D01*
X126707996Y-28001333D01*
X126607996Y-28034666D01*
X126441329Y-28034666D01*
X127507996Y-28034666D02*
X127107996Y-28034666D01*
X127307996Y-28034666D02*
X127307996Y-27334666D01*
X127241329Y-27434666D01*
X127174662Y-27501333D01*
X127107996Y-27534666D01*
X126407996Y-26731333D02*
X126507996Y-26764666D01*
X126674662Y-26764666D01*
X126741329Y-26731333D01*
X126774662Y-26698000D01*
X126807996Y-26631333D01*
X126807996Y-26564666D01*
X126774662Y-26498000D01*
X126741329Y-26464666D01*
X126674662Y-26431333D01*
X126541329Y-26398000D01*
X126474662Y-26364666D01*
X126441329Y-26331333D01*
X126407996Y-26264666D01*
X126407996Y-26198000D01*
X126441329Y-26131333D01*
X126474662Y-26098000D01*
X126541329Y-26064666D01*
X126707996Y-26064666D01*
X126807996Y-26098000D01*
X127107996Y-26398000D02*
X127341329Y-26398000D01*
X127441329Y-26764666D02*
X127107996Y-26764666D01*
X127107996Y-26064666D01*
X127441329Y-26064666D01*
X128074662Y-26764666D02*
X127741329Y-26764666D01*
X127741329Y-26064666D01*
X120155330Y-26564666D02*
X120488663Y-26564666D01*
X120088663Y-26764666D02*
X120321996Y-26064666D01*
X120555330Y-26764666D01*
X120688663Y-26064666D02*
X121088663Y-26064666D01*
X120888663Y-26764666D02*
X120888663Y-26064666D01*
X121321996Y-26764666D02*
X121321996Y-26064666D01*
X121721996Y-26764666D01*
X121721996Y-26064666D01*
X120188663Y-28034666D02*
X120188663Y-27334666D01*
X120355330Y-27334666D01*
X120455330Y-27368000D01*
X120521996Y-27434666D01*
X120555330Y-27501333D01*
X120588663Y-27634666D01*
X120588663Y-27734666D01*
X120555330Y-27868000D01*
X120521996Y-27934666D01*
X120455330Y-28001333D01*
X120355330Y-28034666D01*
X120188663Y-28034666D01*
X120855330Y-27401333D02*
X120888663Y-27368000D01*
X120955330Y-27334666D01*
X121121996Y-27334666D01*
X121188663Y-27368000D01*
X121221996Y-27401333D01*
X121255330Y-27468000D01*
X121255330Y-27534666D01*
X121221996Y-27634666D01*
X120821996Y-28034666D01*
X121255330Y-28034666D01*
X114335997Y-26764666D02*
X114102664Y-26431333D01*
X113935997Y-26764666D02*
X113935997Y-26064666D01*
X114202664Y-26064666D01*
X114269331Y-26098000D01*
X114302664Y-26131333D01*
X114335997Y-26198000D01*
X114335997Y-26298000D01*
X114302664Y-26364666D01*
X114269331Y-26398000D01*
X114202664Y-26431333D01*
X113935997Y-26431333D01*
X114602664Y-26731333D02*
X114702664Y-26764666D01*
X114869331Y-26764666D01*
X114935997Y-26731333D01*
X114969331Y-26698000D01*
X115002664Y-26631333D01*
X115002664Y-26564666D01*
X114969331Y-26498000D01*
X114935997Y-26464666D01*
X114869331Y-26431333D01*
X114735997Y-26398000D01*
X114669331Y-26364666D01*
X114635997Y-26331333D01*
X114602664Y-26264666D01*
X114602664Y-26198000D01*
X114635997Y-26131333D01*
X114669331Y-26098000D01*
X114735997Y-26064666D01*
X114902664Y-26064666D01*
X115002664Y-26098000D01*
X115202664Y-26064666D02*
X115602664Y-26064666D01*
X115402664Y-26764666D02*
X115402664Y-26064666D01*
X113935997Y-28034666D02*
X113935997Y-27334666D01*
X114102664Y-27334666D01*
X114202664Y-27368000D01*
X114269330Y-27434666D01*
X114302664Y-27501333D01*
X114335997Y-27634666D01*
X114335997Y-27734666D01*
X114302664Y-27868000D01*
X114269330Y-27934666D01*
X114202664Y-28001333D01*
X114102664Y-28034666D01*
X113935997Y-28034666D01*
X114569330Y-27334666D02*
X115002664Y-27334666D01*
X114769330Y-27601333D01*
X114869330Y-27601333D01*
X114935997Y-27634666D01*
X114969330Y-27668000D01*
X115002664Y-27734666D01*
X115002664Y-27901333D01*
X114969330Y-27968000D01*
X114935997Y-28001333D01*
X114869330Y-28034666D01*
X114669330Y-28034666D01*
X114602664Y-28001333D01*
X114569330Y-27968000D01*
X108083331Y-26698000D02*
X108049998Y-26731333D01*
X107949998Y-26764666D01*
X107883331Y-26764666D01*
X107783331Y-26731333D01*
X107716665Y-26664666D01*
X107683331Y-26598000D01*
X107649998Y-26464666D01*
X107649998Y-26364666D01*
X107683331Y-26231333D01*
X107716665Y-26164666D01*
X107783331Y-26098000D01*
X107883331Y-26064666D01*
X107949998Y-26064666D01*
X108049998Y-26098000D01*
X108083331Y-26131333D01*
X108383331Y-26764666D02*
X108383331Y-26064666D01*
X108549998Y-26064666D01*
X108649998Y-26098000D01*
X108716665Y-26164666D01*
X108749998Y-26231333D01*
X108783331Y-26364666D01*
X108783331Y-26464666D01*
X108749998Y-26598000D01*
X108716665Y-26664666D01*
X108649998Y-26731333D01*
X108549998Y-26764666D01*
X108383331Y-26764666D01*
X107683331Y-28034666D02*
X107683331Y-27334666D01*
X107849998Y-27334666D01*
X107949998Y-27368000D01*
X108016664Y-27434666D01*
X108049998Y-27501333D01*
X108083331Y-27634666D01*
X108083331Y-27734666D01*
X108049998Y-27868000D01*
X108016664Y-27934666D01*
X107949998Y-28001333D01*
X107849998Y-28034666D01*
X107683331Y-28034666D01*
X108683331Y-27568000D02*
X108683331Y-28034666D01*
X108516664Y-27301333D02*
X108349998Y-27801333D01*
X108783331Y-27801333D01*
X101430665Y-26764666D02*
X101430665Y-26064666D01*
X101897332Y-26064666D02*
X102030665Y-26064666D01*
X102097332Y-26098000D01*
X102163998Y-26164666D01*
X102197332Y-26298000D01*
X102197332Y-26531333D01*
X102163998Y-26664666D01*
X102097332Y-26731333D01*
X102030665Y-26764666D01*
X101897332Y-26764666D01*
X101830665Y-26731333D01*
X101763998Y-26664666D01*
X101730665Y-26531333D01*
X101730665Y-26298000D01*
X101763998Y-26164666D01*
X101830665Y-26098000D01*
X101897332Y-26064666D01*
X101430665Y-28034666D02*
X101430665Y-27334666D01*
X101597332Y-27334666D01*
X101697332Y-27368000D01*
X101763998Y-27434666D01*
X101797332Y-27501333D01*
X101830665Y-27634666D01*
X101830665Y-27734666D01*
X101797332Y-27868000D01*
X101763998Y-27934666D01*
X101697332Y-28001333D01*
X101597332Y-28034666D01*
X101430665Y-28034666D01*
X102463998Y-27334666D02*
X102130665Y-27334666D01*
X102097332Y-27668000D01*
X102130665Y-27634666D01*
X102197332Y-27601333D01*
X102363998Y-27601333D01*
X102430665Y-27634666D01*
X102463998Y-27668000D01*
X102497332Y-27734666D01*
X102497332Y-27901333D01*
X102463998Y-27968000D01*
X102430665Y-28001333D01*
X102363998Y-28034666D01*
X102197332Y-28034666D01*
X102130665Y-28001333D01*
X102097332Y-27968000D01*
X95177999Y-28034666D02*
X95177999Y-27334666D01*
X95344666Y-27334666D01*
X95444666Y-27368000D01*
X95511332Y-27434666D01*
X95544666Y-27501333D01*
X95577999Y-27634666D01*
X95577999Y-27734666D01*
X95544666Y-27868000D01*
X95511332Y-27934666D01*
X95444666Y-28001333D01*
X95344666Y-28034666D01*
X95177999Y-28034666D01*
X96177999Y-27334666D02*
X96044666Y-27334666D01*
X95977999Y-27368000D01*
X95944666Y-27401333D01*
X95877999Y-27501333D01*
X95844666Y-27634666D01*
X95844666Y-27901333D01*
X95877999Y-27968000D01*
X95911332Y-28001333D01*
X95977999Y-28034666D01*
X96111332Y-28034666D01*
X96177999Y-28001333D01*
X96211332Y-27968000D01*
X96244666Y-27901333D01*
X96244666Y-27734666D01*
X96211332Y-27668000D01*
X96177999Y-27634666D01*
X96111332Y-27601333D01*
X95977999Y-27601333D01*
X95911332Y-27634666D01*
X95877999Y-27668000D01*
X95844666Y-27734666D01*
X88925333Y-28034666D02*
X88925333Y-27334666D01*
X89092000Y-27334666D01*
X89192000Y-27368000D01*
X89258666Y-27434666D01*
X89292000Y-27501333D01*
X89325333Y-27634666D01*
X89325333Y-27734666D01*
X89292000Y-27868000D01*
X89258666Y-27934666D01*
X89192000Y-28001333D01*
X89092000Y-28034666D01*
X88925333Y-28034666D01*
X89558666Y-27334666D02*
X90025333Y-27334666D01*
X89725333Y-28034666D01*
X95177999Y-26764666D02*
X95177999Y-26064666D01*
X95411332Y-26564666D01*
X95644666Y-26064666D01*
X95644666Y-26764666D01*
X95944666Y-26731333D02*
X96044666Y-26764666D01*
X96211332Y-26764666D01*
X96277999Y-26731333D01*
X96311332Y-26698000D01*
X96344666Y-26631333D01*
X96344666Y-26564666D01*
X96311332Y-26498000D01*
X96277999Y-26464666D01*
X96211332Y-26431333D01*
X96077999Y-26398000D01*
X96011332Y-26364666D01*
X95977999Y-26331333D01*
X95944666Y-26264666D01*
X95944666Y-26198000D01*
X95977999Y-26131333D01*
X96011332Y-26098000D01*
X96077999Y-26064666D01*
X96244666Y-26064666D01*
X96344666Y-26098000D01*
X97011332Y-26098000D02*
X96944666Y-26064666D01*
X96844666Y-26064666D01*
X96744666Y-26098000D01*
X96677999Y-26164666D01*
X96644666Y-26231333D01*
X96611332Y-26364666D01*
X96611332Y-26464666D01*
X96644666Y-26598000D01*
X96677999Y-26664666D01*
X96744666Y-26731333D01*
X96844666Y-26764666D01*
X96911332Y-26764666D01*
X97011332Y-26731333D01*
X97044666Y-26698000D01*
X97044666Y-26464666D01*
X96911332Y-26464666D01*
X89325333Y-26764666D02*
X89092000Y-26431333D01*
X88925333Y-26764666D02*
X88925333Y-26064666D01*
X89192000Y-26064666D01*
X89258666Y-26098000D01*
X89292000Y-26131333D01*
X89325333Y-26198000D01*
X89325333Y-26298000D01*
X89292000Y-26364666D01*
X89258666Y-26398000D01*
X89192000Y-26431333D01*
X88925333Y-26431333D01*
X89625333Y-26398000D02*
X89858666Y-26398000D01*
X89958666Y-26764666D02*
X89625333Y-26764666D01*
X89625333Y-26064666D01*
X89958666Y-26064666D01*
X90725333Y-26831333D02*
X90658666Y-26798000D01*
X90592000Y-26731333D01*
X90492000Y-26631333D01*
X90425333Y-26598000D01*
X90358666Y-26598000D01*
X90392000Y-26764666D02*
X90325333Y-26731333D01*
X90258666Y-26664666D01*
X90225333Y-26531333D01*
X90225333Y-26298000D01*
X90258666Y-26164666D01*
X90325333Y-26098000D01*
X90392000Y-26064666D01*
X90525333Y-26064666D01*
X90592000Y-26098000D01*
X90658666Y-26164666D01*
X90692000Y-26298000D01*
X90692000Y-26531333D01*
X90658666Y-26664666D01*
X90592000Y-26731333D01*
X90525333Y-26764666D01*
X90392000Y-26764666D01*
D14*
X144052000Y-45696000D02*
G75*
G03*
X145012000Y-44736000I0J960000D01*
G01*
D10*
X118753714Y-39822666D02*
X119134666Y-39822666D01*
X118677523Y-40108380D02*
X118944190Y-39108380D01*
X119210857Y-40108380D01*
X119363238Y-39108380D02*
X119820380Y-39108380D01*
X119591809Y-40108380D02*
X119591809Y-39108380D01*
X120087047Y-40108380D02*
X120087047Y-39108380D01*
X120544190Y-40108380D01*
X120544190Y-39108380D01*
X108155523Y-40108380D02*
X108155523Y-39108380D01*
X108346000Y-39108380D01*
X108460285Y-39156000D01*
X108536476Y-39251238D01*
X108574571Y-39346476D01*
X108612666Y-39536952D01*
X108612666Y-39679809D01*
X108574571Y-39870285D01*
X108536476Y-39965523D01*
X108460285Y-40060761D01*
X108346000Y-40108380D01*
X108155523Y-40108380D01*
X109374571Y-40108380D02*
X108917428Y-40108380D01*
X109146000Y-40108380D02*
X109146000Y-39108380D01*
X109069809Y-39251238D01*
X108993619Y-39346476D01*
X108917428Y-39394095D01*
X123147904Y-33250380D02*
X123147904Y-32250380D01*
X124100285Y-32202761D02*
X123414571Y-33488476D01*
X124519333Y-32250380D02*
X124671714Y-32250380D01*
X124747904Y-32298000D01*
X124824095Y-32393238D01*
X124862190Y-32583714D01*
X124862190Y-32917047D01*
X124824095Y-33107523D01*
X124747904Y-33202761D01*
X124671714Y-33250380D01*
X124519333Y-33250380D01*
X124443142Y-33202761D01*
X124366952Y-33107523D01*
X124328857Y-32917047D01*
X124328857Y-32583714D01*
X124366952Y-32393238D01*
X124443142Y-32298000D01*
X124519333Y-32250380D01*
X113165714Y-40060761D02*
X113280000Y-40108380D01*
X113470476Y-40108380D01*
X113546666Y-40060761D01*
X113584761Y-40013142D01*
X113622857Y-39917904D01*
X113622857Y-39822666D01*
X113584761Y-39727428D01*
X113546666Y-39679809D01*
X113470476Y-39632190D01*
X113318095Y-39584571D01*
X113241904Y-39536952D01*
X113203809Y-39489333D01*
X113165714Y-39394095D01*
X113165714Y-39298857D01*
X113203809Y-39203619D01*
X113241904Y-39156000D01*
X113318095Y-39108380D01*
X113508571Y-39108380D01*
X113622857Y-39156000D01*
X113965714Y-39584571D02*
X114232380Y-39584571D01*
X114346666Y-40108380D02*
X113965714Y-40108380D01*
X113965714Y-39108380D01*
X114346666Y-39108380D01*
X115070476Y-40108380D02*
X114689523Y-40108380D01*
X114689523Y-39108380D01*
X95709523Y-33250380D02*
X95709523Y-32250380D01*
X95900000Y-32250380D01*
X96014285Y-32298000D01*
X96090476Y-32393238D01*
X96128571Y-32488476D01*
X96166666Y-32678952D01*
X96166666Y-32821809D01*
X96128571Y-33012285D01*
X96090476Y-33107523D01*
X96014285Y-33202761D01*
X95900000Y-33250380D01*
X95709523Y-33250380D01*
X96433333Y-32250380D02*
X96966666Y-32250380D01*
X96623809Y-33250380D01*
X105361523Y-40108380D02*
X105361523Y-39108380D01*
X105552000Y-39108380D01*
X105666285Y-39156000D01*
X105742476Y-39251238D01*
X105780571Y-39346476D01*
X105818666Y-39536952D01*
X105818666Y-39679809D01*
X105780571Y-39870285D01*
X105742476Y-39965523D01*
X105666285Y-40060761D01*
X105552000Y-40108380D01*
X105361523Y-40108380D01*
X106123428Y-39203619D02*
X106161523Y-39156000D01*
X106237714Y-39108380D01*
X106428190Y-39108380D01*
X106504380Y-39156000D01*
X106542476Y-39203619D01*
X106580571Y-39298857D01*
X106580571Y-39394095D01*
X106542476Y-39536952D01*
X106085333Y-40108380D01*
X106580571Y-40108380D01*
X101043523Y-33250380D02*
X101043523Y-32250380D01*
X101234000Y-32250380D01*
X101348285Y-32298000D01*
X101424476Y-32393238D01*
X101462571Y-32488476D01*
X101500666Y-32678952D01*
X101500666Y-32821809D01*
X101462571Y-33012285D01*
X101424476Y-33107523D01*
X101348285Y-33202761D01*
X101234000Y-33250380D01*
X101043523Y-33250380D01*
X102224476Y-32250380D02*
X101843523Y-32250380D01*
X101805428Y-32726571D01*
X101843523Y-32678952D01*
X101919714Y-32631333D01*
X102110190Y-32631333D01*
X102186380Y-32678952D01*
X102224476Y-32726571D01*
X102262571Y-32821809D01*
X102262571Y-33059904D01*
X102224476Y-33155142D01*
X102186380Y-33202761D01*
X102110190Y-33250380D01*
X101919714Y-33250380D01*
X101843523Y-33202761D01*
X101805428Y-33155142D01*
X114937333Y-32726571D02*
X115051619Y-32774190D01*
X115089714Y-32821809D01*
X115127809Y-32917047D01*
X115127809Y-33059904D01*
X115089714Y-33155142D01*
X115051619Y-33202761D01*
X114975428Y-33250380D01*
X114670666Y-33250380D01*
X114670666Y-32250380D01*
X114937333Y-32250380D01*
X115013523Y-32298000D01*
X115051619Y-32345619D01*
X115089714Y-32440857D01*
X115089714Y-32536095D01*
X115051619Y-32631333D01*
X115013523Y-32678952D01*
X114937333Y-32726571D01*
X114670666Y-32726571D01*
X115432571Y-33202761D02*
X115546857Y-33250380D01*
X115737333Y-33250380D01*
X115813523Y-33202761D01*
X115851619Y-33155142D01*
X115889714Y-33059904D01*
X115889714Y-32964666D01*
X115851619Y-32869428D01*
X115813523Y-32821809D01*
X115737333Y-32774190D01*
X115584952Y-32726571D01*
X115508761Y-32678952D01*
X115470666Y-32631333D01*
X115432571Y-32536095D01*
X115432571Y-32440857D01*
X115470666Y-32345619D01*
X115508761Y-32298000D01*
X115584952Y-32250380D01*
X115775428Y-32250380D01*
X115889714Y-32298000D01*
X116384952Y-32774190D02*
X116384952Y-33250380D01*
X116118285Y-32250380D02*
X116384952Y-32774190D01*
X116651619Y-32250380D01*
X102567523Y-40108380D02*
X102567523Y-39108380D01*
X102758000Y-39108380D01*
X102872285Y-39156000D01*
X102948476Y-39251238D01*
X102986571Y-39346476D01*
X103024666Y-39536952D01*
X103024666Y-39679809D01*
X102986571Y-39870285D01*
X102948476Y-39965523D01*
X102872285Y-40060761D01*
X102758000Y-40108380D01*
X102567523Y-40108380D01*
X103710380Y-39441714D02*
X103710380Y-40108380D01*
X103519904Y-39060761D02*
X103329428Y-39775047D01*
X103824666Y-39775047D01*
X117407523Y-32964666D02*
X117788476Y-32964666D01*
X117331333Y-33250380D02*
X117598000Y-32250380D01*
X117864666Y-33250380D01*
X118588476Y-33155142D02*
X118550380Y-33202761D01*
X118436095Y-33250380D01*
X118359904Y-33250380D01*
X118245619Y-33202761D01*
X118169428Y-33107523D01*
X118131333Y-33012285D01*
X118093238Y-32821809D01*
X118093238Y-32678952D01*
X118131333Y-32488476D01*
X118169428Y-32393238D01*
X118245619Y-32298000D01*
X118359904Y-32250380D01*
X118436095Y-32250380D01*
X118550380Y-32298000D01*
X118588476Y-32345619D01*
X118931333Y-33250380D02*
X118931333Y-32250380D01*
X119388476Y-33250380D02*
X119045619Y-32678952D01*
X119388476Y-32250380D02*
X118931333Y-32821809D01*
X124684571Y-40013142D02*
X124646476Y-40060761D01*
X124532190Y-40108380D01*
X124456000Y-40108380D01*
X124341714Y-40060761D01*
X124265523Y-39965523D01*
X124227428Y-39870285D01*
X124189333Y-39679809D01*
X124189333Y-39536952D01*
X124227428Y-39346476D01*
X124265523Y-39251238D01*
X124341714Y-39156000D01*
X124456000Y-39108380D01*
X124532190Y-39108380D01*
X124646476Y-39156000D01*
X124684571Y-39203619D01*
X125598857Y-39060761D02*
X124913142Y-40346476D01*
X125865523Y-40108380D02*
X125865523Y-39108380D01*
X126056000Y-39108380D01*
X126170285Y-39156000D01*
X126246476Y-39251238D01*
X126284571Y-39346476D01*
X126322666Y-39536952D01*
X126322666Y-39679809D01*
X126284571Y-39870285D01*
X126246476Y-39965523D01*
X126170285Y-40060761D01*
X126056000Y-40108380D01*
X125865523Y-40108380D01*
X96338285Y-39108380D02*
X96795428Y-39108380D01*
X96566857Y-40108380D02*
X96566857Y-39108380D01*
X97062095Y-40108380D02*
X97062095Y-39108380D01*
X97366857Y-39108380D01*
X97443047Y-39156000D01*
X97481142Y-39203619D01*
X97519238Y-39298857D01*
X97519238Y-39441714D01*
X97481142Y-39536952D01*
X97443047Y-39584571D01*
X97366857Y-39632190D01*
X97062095Y-39632190D01*
X97785904Y-39108380D02*
X97976380Y-40108380D01*
X98128761Y-39394095D01*
X98281142Y-40108380D01*
X98471619Y-39108380D01*
X99233523Y-40108380D02*
X98966857Y-39632190D01*
X98776380Y-40108380D02*
X98776380Y-39108380D01*
X99081142Y-39108380D01*
X99157333Y-39156000D01*
X99195428Y-39203619D01*
X99233523Y-39298857D01*
X99233523Y-39441714D01*
X99195428Y-39536952D01*
X99157333Y-39584571D01*
X99081142Y-39632190D01*
X98776380Y-39632190D01*
X103837523Y-33250380D02*
X103837523Y-32250380D01*
X104028000Y-32250380D01*
X104142285Y-32298000D01*
X104218476Y-32393238D01*
X104256571Y-32488476D01*
X104294666Y-32678952D01*
X104294666Y-32821809D01*
X104256571Y-33012285D01*
X104218476Y-33107523D01*
X104142285Y-33202761D01*
X104028000Y-33250380D01*
X103837523Y-33250380D01*
X104561333Y-32250380D02*
X105056571Y-32250380D01*
X104789904Y-32631333D01*
X104904190Y-32631333D01*
X104980380Y-32678952D01*
X105018476Y-32726571D01*
X105056571Y-32821809D01*
X105056571Y-33059904D01*
X105018476Y-33155142D01*
X104980380Y-33202761D01*
X104904190Y-33250380D01*
X104675619Y-33250380D01*
X104599428Y-33202761D01*
X104561333Y-33155142D01*
X125478380Y-33250380D02*
X125478380Y-32250380D01*
X125745047Y-32964666D01*
X126011714Y-32250380D01*
X126011714Y-33250380D01*
X126354571Y-33202761D02*
X126468857Y-33250380D01*
X126659333Y-33250380D01*
X126735523Y-33202761D01*
X126773619Y-33155142D01*
X126811714Y-33059904D01*
X126811714Y-32964666D01*
X126773619Y-32869428D01*
X126735523Y-32821809D01*
X126659333Y-32774190D01*
X126506952Y-32726571D01*
X126430761Y-32678952D01*
X126392666Y-32631333D01*
X126354571Y-32536095D01*
X126354571Y-32440857D01*
X126392666Y-32345619D01*
X126430761Y-32298000D01*
X126506952Y-32250380D01*
X126697428Y-32250380D01*
X126811714Y-32298000D01*
X127573619Y-32298000D02*
X127497428Y-32250380D01*
X127383142Y-32250380D01*
X127268857Y-32298000D01*
X127192666Y-32393238D01*
X127154571Y-32488476D01*
X127116476Y-32678952D01*
X127116476Y-32821809D01*
X127154571Y-33012285D01*
X127192666Y-33107523D01*
X127268857Y-33202761D01*
X127383142Y-33250380D01*
X127459333Y-33250380D01*
X127573619Y-33202761D01*
X127611714Y-33155142D01*
X127611714Y-32821809D01*
X127459333Y-32821809D01*
X110676476Y-40108380D02*
X110676476Y-39108380D01*
X110866952Y-39108380D01*
X110981238Y-39156000D01*
X111057428Y-39251238D01*
X111095523Y-39346476D01*
X111133619Y-39536952D01*
X111133619Y-39679809D01*
X111095523Y-39870285D01*
X111057428Y-39965523D01*
X110981238Y-40060761D01*
X110866952Y-40108380D01*
X110676476Y-40108380D01*
X111476476Y-40108380D02*
X111476476Y-39108380D01*
X111781238Y-39108380D01*
X111857428Y-39156000D01*
X111895523Y-39203619D01*
X111933619Y-39298857D01*
X111933619Y-39441714D01*
X111895523Y-39536952D01*
X111857428Y-39584571D01*
X111781238Y-39632190D01*
X111476476Y-39632190D01*
X120753904Y-33250380D02*
X120487238Y-32774190D01*
X120296761Y-33250380D02*
X120296761Y-32250380D01*
X120601523Y-32250380D01*
X120677714Y-32298000D01*
X120715809Y-32345619D01*
X120753904Y-32440857D01*
X120753904Y-32583714D01*
X120715809Y-32678952D01*
X120677714Y-32726571D01*
X120601523Y-32774190D01*
X120296761Y-32774190D01*
X121058666Y-33202761D02*
X121172952Y-33250380D01*
X121363428Y-33250380D01*
X121439619Y-33202761D01*
X121477714Y-33155142D01*
X121515809Y-33059904D01*
X121515809Y-32964666D01*
X121477714Y-32869428D01*
X121439619Y-32821809D01*
X121363428Y-32774190D01*
X121211047Y-32726571D01*
X121134857Y-32678952D01*
X121096761Y-32631333D01*
X121058666Y-32536095D01*
X121058666Y-32440857D01*
X121096761Y-32345619D01*
X121134857Y-32298000D01*
X121211047Y-32250380D01*
X121401523Y-32250380D01*
X121515809Y-32298000D01*
X121744380Y-32250380D02*
X122201523Y-32250380D01*
X121972952Y-33250380D02*
X121972952Y-32250380D01*
X129040666Y-33250380D02*
X128774000Y-32774190D01*
X128583523Y-33250380D02*
X128583523Y-32250380D01*
X128888285Y-32250380D01*
X128964476Y-32298000D01*
X129002571Y-32345619D01*
X129040666Y-32440857D01*
X129040666Y-32583714D01*
X129002571Y-32678952D01*
X128964476Y-32726571D01*
X128888285Y-32774190D01*
X128583523Y-32774190D01*
X129383523Y-32726571D02*
X129650190Y-32726571D01*
X129764476Y-33250380D02*
X129383523Y-33250380D01*
X129383523Y-32250380D01*
X129764476Y-32250380D01*
X130640666Y-33345619D02*
X130564476Y-33298000D01*
X130488285Y-33202761D01*
X130374000Y-33059904D01*
X130297809Y-33012285D01*
X130221619Y-33012285D01*
X130259714Y-33250380D02*
X130183523Y-33202761D01*
X130107333Y-33107523D01*
X130069238Y-32917047D01*
X130069238Y-32583714D01*
X130107333Y-32393238D01*
X130183523Y-32298000D01*
X130259714Y-32250380D01*
X130412095Y-32250380D01*
X130488285Y-32298000D01*
X130564476Y-32393238D01*
X130602571Y-32583714D01*
X130602571Y-32917047D01*
X130564476Y-33107523D01*
X130488285Y-33202761D01*
X130412095Y-33250380D01*
X130259714Y-33250380D01*
X109425523Y-33250380D02*
X109425523Y-32250380D01*
X109616000Y-32250380D01*
X109730285Y-32298000D01*
X109806476Y-32393238D01*
X109844571Y-32488476D01*
X109882666Y-32678952D01*
X109882666Y-32821809D01*
X109844571Y-33012285D01*
X109806476Y-33107523D01*
X109730285Y-33202761D01*
X109616000Y-33250380D01*
X109425523Y-33250380D01*
X110377904Y-32250380D02*
X110454095Y-32250380D01*
X110530285Y-32298000D01*
X110568380Y-32345619D01*
X110606476Y-32440857D01*
X110644571Y-32631333D01*
X110644571Y-32869428D01*
X110606476Y-33059904D01*
X110568380Y-33155142D01*
X110530285Y-33202761D01*
X110454095Y-33250380D01*
X110377904Y-33250380D01*
X110301714Y-33202761D01*
X110263619Y-33155142D01*
X110225523Y-33059904D01*
X110187428Y-32869428D01*
X110187428Y-32631333D01*
X110225523Y-32440857D01*
X110263619Y-32345619D01*
X110301714Y-32298000D01*
X110377904Y-32250380D01*
X98249523Y-33250380D02*
X98249523Y-32250380D01*
X98440000Y-32250380D01*
X98554285Y-32298000D01*
X98630476Y-32393238D01*
X98668571Y-32488476D01*
X98706666Y-32678952D01*
X98706666Y-32821809D01*
X98668571Y-33012285D01*
X98630476Y-33107523D01*
X98554285Y-33202761D01*
X98440000Y-33250380D01*
X98249523Y-33250380D01*
X99392380Y-32250380D02*
X99240000Y-32250380D01*
X99163809Y-32298000D01*
X99125714Y-32345619D01*
X99049523Y-32488476D01*
X99011428Y-32678952D01*
X99011428Y-33059904D01*
X99049523Y-33155142D01*
X99087619Y-33202761D01*
X99163809Y-33250380D01*
X99316190Y-33250380D01*
X99392380Y-33202761D01*
X99430476Y-33155142D01*
X99468571Y-33059904D01*
X99468571Y-32821809D01*
X99430476Y-32726571D01*
X99392380Y-32678952D01*
X99316190Y-32631333D01*
X99163809Y-32631333D01*
X99087619Y-32678952D01*
X99049523Y-32726571D01*
X99011428Y-32821809D01*
D12*
X128304000Y-33687000D02*
X130717000Y-33687000D01*
D10*
X81863333Y-44680380D02*
X81863333Y-43680380D01*
X82291904Y-44680380D02*
X82291904Y-44156571D01*
X82244285Y-44061333D01*
X82149047Y-44013714D01*
X82006190Y-44013714D01*
X81910952Y-44061333D01*
X81863333Y-44108952D01*
X82625238Y-44013714D02*
X83006190Y-44013714D01*
X82768095Y-43680380D02*
X82768095Y-44537523D01*
X82815714Y-44632761D01*
X82910952Y-44680380D01*
X83006190Y-44680380D01*
X83196666Y-44013714D02*
X83577619Y-44013714D01*
X83339523Y-43680380D02*
X83339523Y-44537523D01*
X83387142Y-44632761D01*
X83482380Y-44680380D01*
X83577619Y-44680380D01*
X83910952Y-44013714D02*
X83910952Y-45013714D01*
X83910952Y-44061333D02*
X84006190Y-44013714D01*
X84196666Y-44013714D01*
X84291904Y-44061333D01*
X84339523Y-44108952D01*
X84387142Y-44204190D01*
X84387142Y-44489904D01*
X84339523Y-44585142D01*
X84291904Y-44632761D01*
X84196666Y-44680380D01*
X84006190Y-44680380D01*
X83910952Y-44632761D01*
X84768095Y-44632761D02*
X84863333Y-44680380D01*
X85053809Y-44680380D01*
X85149047Y-44632761D01*
X85196666Y-44537523D01*
X85196666Y-44489904D01*
X85149047Y-44394666D01*
X85053809Y-44347047D01*
X84910952Y-44347047D01*
X84815714Y-44299428D01*
X84768095Y-44204190D01*
X84768095Y-44156571D01*
X84815714Y-44061333D01*
X84910952Y-44013714D01*
X85053809Y-44013714D01*
X85149047Y-44061333D01*
X85625238Y-44585142D02*
X85672857Y-44632761D01*
X85625238Y-44680380D01*
X85577619Y-44632761D01*
X85625238Y-44585142D01*
X85625238Y-44680380D01*
X85625238Y-44061333D02*
X85672857Y-44108952D01*
X85625238Y-44156571D01*
X85577619Y-44108952D01*
X85625238Y-44061333D01*
X85625238Y-44156571D01*
X86815714Y-43632761D02*
X85958571Y-44918476D01*
X87863333Y-43632761D02*
X87006190Y-44918476D01*
X88625238Y-44013714D02*
X88625238Y-44823238D01*
X88577619Y-44918476D01*
X88530000Y-44966095D01*
X88434761Y-45013714D01*
X88291904Y-45013714D01*
X88196666Y-44966095D01*
X88625238Y-44632761D02*
X88530000Y-44680380D01*
X88339523Y-44680380D01*
X88244285Y-44632761D01*
X88196666Y-44585142D01*
X88149047Y-44489904D01*
X88149047Y-44204190D01*
X88196666Y-44108952D01*
X88244285Y-44061333D01*
X88339523Y-44013714D01*
X88530000Y-44013714D01*
X88625238Y-44061333D01*
X89101428Y-44680380D02*
X89101428Y-44013714D01*
X89101428Y-43680380D02*
X89053809Y-43728000D01*
X89101428Y-43775619D01*
X89149047Y-43728000D01*
X89101428Y-43680380D01*
X89101428Y-43775619D01*
X89434761Y-44013714D02*
X89815714Y-44013714D01*
X89577619Y-43680380D02*
X89577619Y-44537523D01*
X89625238Y-44632761D01*
X89720476Y-44680380D01*
X89815714Y-44680380D01*
X90149047Y-44680380D02*
X90149047Y-43680380D01*
X90577619Y-44680380D02*
X90577619Y-44156571D01*
X90530000Y-44061333D01*
X90434761Y-44013714D01*
X90291904Y-44013714D01*
X90196666Y-44061333D01*
X90149047Y-44108952D01*
X91482380Y-44013714D02*
X91482380Y-44680380D01*
X91053809Y-44013714D02*
X91053809Y-44537523D01*
X91101428Y-44632761D01*
X91196666Y-44680380D01*
X91339523Y-44680380D01*
X91434761Y-44632761D01*
X91482380Y-44585142D01*
X91958571Y-44680380D02*
X91958571Y-43680380D01*
X91958571Y-44061333D02*
X92053809Y-44013714D01*
X92244285Y-44013714D01*
X92339523Y-44061333D01*
X92387142Y-44108952D01*
X92434761Y-44204190D01*
X92434761Y-44489904D01*
X92387142Y-44585142D01*
X92339523Y-44632761D01*
X92244285Y-44680380D01*
X92053809Y-44680380D01*
X91958571Y-44632761D01*
X92863333Y-44585142D02*
X92910952Y-44632761D01*
X92863333Y-44680380D01*
X92815714Y-44632761D01*
X92863333Y-44585142D01*
X92863333Y-44680380D01*
X93768095Y-44632761D02*
X93672857Y-44680380D01*
X93482380Y-44680380D01*
X93387142Y-44632761D01*
X93339523Y-44585142D01*
X93291904Y-44489904D01*
X93291904Y-44204190D01*
X93339523Y-44108952D01*
X93387142Y-44061333D01*
X93482380Y-44013714D01*
X93672857Y-44013714D01*
X93768095Y-44061333D01*
X94339523Y-44680380D02*
X94244285Y-44632761D01*
X94196666Y-44585142D01*
X94149047Y-44489904D01*
X94149047Y-44204190D01*
X94196666Y-44108952D01*
X94244285Y-44061333D01*
X94339523Y-44013714D01*
X94482380Y-44013714D01*
X94577619Y-44061333D01*
X94625238Y-44108952D01*
X94672857Y-44204190D01*
X94672857Y-44489904D01*
X94625238Y-44585142D01*
X94577619Y-44632761D01*
X94482380Y-44680380D01*
X94339523Y-44680380D01*
X95101428Y-44680380D02*
X95101428Y-44013714D01*
X95101428Y-44108952D02*
X95149047Y-44061333D01*
X95244285Y-44013714D01*
X95387142Y-44013714D01*
X95482380Y-44061333D01*
X95530000Y-44156571D01*
X95530000Y-44680380D01*
X95530000Y-44156571D02*
X95577619Y-44061333D01*
X95672857Y-44013714D01*
X95815714Y-44013714D01*
X95910952Y-44061333D01*
X95958571Y-44156571D01*
X95958571Y-44680380D01*
X97149047Y-43632761D02*
X96291904Y-44918476D01*
X97910952Y-44680380D02*
X97910952Y-44156571D01*
X97863333Y-44061333D01*
X97768095Y-44013714D01*
X97577619Y-44013714D01*
X97482380Y-44061333D01*
X97910952Y-44632761D02*
X97815714Y-44680380D01*
X97577619Y-44680380D01*
X97482380Y-44632761D01*
X97434761Y-44537523D01*
X97434761Y-44442285D01*
X97482380Y-44347047D01*
X97577619Y-44299428D01*
X97815714Y-44299428D01*
X97910952Y-44251809D01*
X98387142Y-44680380D02*
X98387142Y-43680380D01*
X98482380Y-44299428D02*
X98768095Y-44680380D01*
X98768095Y-44013714D02*
X98387142Y-44394666D01*
X99625238Y-44013714D02*
X99625238Y-44680380D01*
X99196666Y-44013714D02*
X99196666Y-44537523D01*
X99244285Y-44632761D01*
X99339523Y-44680380D01*
X99482380Y-44680380D01*
X99577619Y-44632761D01*
X99625238Y-44585142D01*
X100101428Y-44680380D02*
X100101428Y-43680380D01*
X100196666Y-44299428D02*
X100482380Y-44680380D01*
X100482380Y-44013714D02*
X100101428Y-44394666D01*
X101291904Y-44632761D02*
X101196666Y-44680380D01*
X101006190Y-44680380D01*
X100910952Y-44632761D01*
X100863333Y-44537523D01*
X100863333Y-44156571D01*
X100910952Y-44061333D01*
X101006190Y-44013714D01*
X101196666Y-44013714D01*
X101291904Y-44061333D01*
X101339523Y-44156571D01*
X101339523Y-44251809D01*
X100863333Y-44347047D01*
X101768095Y-44680380D02*
X101768095Y-44013714D01*
X101768095Y-44204190D02*
X101815714Y-44108952D01*
X101863333Y-44061333D01*
X101958571Y-44013714D01*
X102053809Y-44013714D01*
X103101428Y-43632761D02*
X102244285Y-44918476D01*
X104006190Y-44680380D02*
X103672857Y-44204190D01*
X103434761Y-44680380D02*
X103434761Y-43680380D01*
X103815714Y-43680380D01*
X103910952Y-43728000D01*
X103958571Y-43775619D01*
X104006190Y-43870857D01*
X104006190Y-44013714D01*
X103958571Y-44108952D01*
X103910952Y-44156571D01*
X103815714Y-44204190D01*
X103434761Y-44204190D01*
X104387142Y-44394666D02*
X104863333Y-44394666D01*
X104291904Y-44680380D02*
X104625238Y-43680380D01*
X104958571Y-44680380D01*
X105244285Y-44632761D02*
X105387142Y-44680380D01*
X105625238Y-44680380D01*
X105720476Y-44632761D01*
X105768095Y-44585142D01*
X105815714Y-44489904D01*
X105815714Y-44394666D01*
X105768095Y-44299428D01*
X105720476Y-44251809D01*
X105625238Y-44204190D01*
X105434761Y-44156571D01*
X105339523Y-44108952D01*
X105291904Y-44061333D01*
X105244285Y-43966095D01*
X105244285Y-43870857D01*
X105291904Y-43775619D01*
X105339523Y-43728000D01*
X105434761Y-43680380D01*
X105672857Y-43680380D01*
X105815714Y-43728000D01*
X106815714Y-44585142D02*
X106768095Y-44632761D01*
X106625238Y-44680380D01*
X106530000Y-44680380D01*
X106387142Y-44632761D01*
X106291904Y-44537523D01*
X106244285Y-44442285D01*
X106196666Y-44251809D01*
X106196666Y-44108952D01*
X106244285Y-43918476D01*
X106291904Y-43823238D01*
X106387142Y-43728000D01*
X106530000Y-43680380D01*
X106625238Y-43680380D01*
X106768095Y-43728000D01*
X106815714Y-43775619D01*
X107196666Y-44632761D02*
X107339523Y-44680380D01*
X107577619Y-44680380D01*
X107672857Y-44632761D01*
X107720476Y-44585142D01*
X107768095Y-44489904D01*
X107768095Y-44394666D01*
X107720476Y-44299428D01*
X107672857Y-44251809D01*
X107577619Y-44204190D01*
X107387142Y-44156571D01*
X107291904Y-44108952D01*
X107244285Y-44061333D01*
X107196666Y-43966095D01*
X107196666Y-43870857D01*
X107244285Y-43775619D01*
X107291904Y-43728000D01*
X107387142Y-43680380D01*
X107625238Y-43680380D01*
X107768095Y-43728000D01*
X108196666Y-44680380D02*
X108196666Y-43680380D01*
D12*
X128304000Y-35973000D02*
X128304000Y-33687000D01*
X130717000Y-35973000D02*
X128304000Y-35973000D01*
X130717000Y-33687000D02*
X130717000Y-35973000D01*
X128177000Y-36100000D02*
X128177000Y-33560000D01*
X130844000Y-36100000D02*
X128177000Y-36100000D01*
X130844000Y-33560000D02*
X130844000Y-36100000D01*
X128177000Y-33560000D02*
X130844000Y-33560000D01*
X86267000Y-45752000D02*
X139353000Y-45752000D01*
D10*
X143140857Y-32337428D02*
X143140857Y-31651714D01*
X144340857Y-31994571D02*
X143140857Y-31994571D01*
X143140857Y-31023142D02*
X143140857Y-30794571D01*
X143198000Y-30680285D01*
X143312285Y-30566000D01*
X143540857Y-30508857D01*
X143940857Y-30508857D01*
X144169428Y-30566000D01*
X144283714Y-30680285D01*
X144340857Y-30794571D01*
X144340857Y-31023142D01*
X144283714Y-31137428D01*
X144169428Y-31251714D01*
X143940857Y-31308857D01*
X143540857Y-31308857D01*
X143312285Y-31251714D01*
X143198000Y-31137428D01*
X143140857Y-31023142D01*
X144340857Y-29994571D02*
X143140857Y-29994571D01*
X143140857Y-29537428D01*
X143198000Y-29423142D01*
X143255142Y-29366000D01*
X143369428Y-29308857D01*
X143540857Y-29308857D01*
X143655142Y-29366000D01*
X143712285Y-29423142D01*
X143769428Y-29537428D01*
X143769428Y-29994571D01*
D14*
X81552000Y-45696000D02*
X144052000Y-45696000D01*
X81552000Y-45696800D02*
G75*
G02*
X80552000Y-44736000I0J1000800D01*
G01*
X80552000Y-16288000D02*
X80552000Y-44736000D01*
X145012000Y-16780000D02*
X145012000Y-44736000D01*
X81060000Y-15780000D02*
X144012000Y-15780000D01*
X80552000Y-16288000D02*
G75*
G02*
X81060000Y-15780000I508000J0D01*
G01*
X144012000Y-15780000D02*
G75*
G02*
X145012000Y-16780000I0J-1000000D01*
G01*
D12*
%TO.C,JP9*%
X87909100Y-28498000D02*
X87309100Y-28498000D01*
X88609100Y-26398000D02*
X88609100Y-27798000D01*
X87309100Y-25698000D02*
X87909100Y-25698000D01*
X86609100Y-27798000D02*
X86609100Y-26398000D01*
X87309100Y-28498000D02*
G75*
G02*
X86609100Y-27798000I0J700000D01*
G01*
X88609100Y-27798000D02*
G75*
G02*
X87909100Y-28498000I-700000J0D01*
G01*
X87909100Y-25698000D02*
G75*
G02*
X88609100Y-26398000I0J-700000D01*
G01*
X86609100Y-26398000D02*
G75*
G02*
X87309100Y-25698000I700000J0D01*
G01*
%TO.C,JP8*%
X94141599Y-28498000D02*
X93541599Y-28498000D01*
X94841599Y-26398000D02*
X94841599Y-27798000D01*
X93541599Y-25698000D02*
X94141599Y-25698000D01*
X92841599Y-27798000D02*
X92841599Y-26398000D01*
X93541599Y-28498000D02*
G75*
G02*
X92841599Y-27798000I0J700000D01*
G01*
X94841599Y-27798000D02*
G75*
G02*
X94141599Y-28498000I-700000J0D01*
G01*
X94141599Y-25698000D02*
G75*
G02*
X94841599Y-26398000I0J-700000D01*
G01*
X92841599Y-26398000D02*
G75*
G02*
X93541599Y-25698000I700000J0D01*
G01*
%TO.C,JP7*%
X100374098Y-28498000D02*
X99774098Y-28498000D01*
X101074098Y-26398000D02*
X101074098Y-27798000D01*
X99774098Y-25698000D02*
X100374098Y-25698000D01*
X99074098Y-27798000D02*
X99074098Y-26398000D01*
X99774098Y-28498000D02*
G75*
G02*
X99074098Y-27798000I0J700000D01*
G01*
X101074098Y-27798000D02*
G75*
G02*
X100374098Y-28498000I-700000J0D01*
G01*
X100374098Y-25698000D02*
G75*
G02*
X101074098Y-26398000I0J-700000D01*
G01*
X99074098Y-26398000D02*
G75*
G02*
X99774098Y-25698000I700000J0D01*
G01*
%TO.C,JP6*%
X106606597Y-28498000D02*
X106006597Y-28498000D01*
X107306597Y-26398000D02*
X107306597Y-27798000D01*
X106006597Y-25698000D02*
X106606597Y-25698000D01*
X105306597Y-27798000D02*
X105306597Y-26398000D01*
X106006597Y-28498000D02*
G75*
G02*
X105306597Y-27798000I0J700000D01*
G01*
X107306597Y-27798000D02*
G75*
G02*
X106606597Y-28498000I-700000J0D01*
G01*
X106606597Y-25698000D02*
G75*
G02*
X107306597Y-26398000I0J-700000D01*
G01*
X105306597Y-26398000D02*
G75*
G02*
X106006597Y-25698000I700000J0D01*
G01*
%TO.C,JP5*%
X112839096Y-28498000D02*
X112239096Y-28498000D01*
X113539096Y-26398000D02*
X113539096Y-27798000D01*
X112239096Y-25698000D02*
X112839096Y-25698000D01*
X111539096Y-27798000D02*
X111539096Y-26398000D01*
X112239096Y-28498000D02*
G75*
G02*
X111539096Y-27798000I0J700000D01*
G01*
X113539096Y-27798000D02*
G75*
G02*
X112839096Y-28498000I-700000J0D01*
G01*
X112839096Y-25698000D02*
G75*
G02*
X113539096Y-26398000I0J-700000D01*
G01*
X111539096Y-26398000D02*
G75*
G02*
X112239096Y-25698000I700000J0D01*
G01*
%TO.C,JP4*%
X119071595Y-28498000D02*
X118471595Y-28498000D01*
X119771595Y-26398000D02*
X119771595Y-27798000D01*
X118471595Y-25698000D02*
X119071595Y-25698000D01*
X117771595Y-27798000D02*
X117771595Y-26398000D01*
X118471595Y-28498000D02*
G75*
G02*
X117771595Y-27798000I0J700000D01*
G01*
X119771595Y-27798000D02*
G75*
G02*
X119071595Y-28498000I-700000J0D01*
G01*
X119071595Y-25698000D02*
G75*
G02*
X119771595Y-26398000I0J-700000D01*
G01*
X117771595Y-26398000D02*
G75*
G02*
X118471595Y-25698000I700000J0D01*
G01*
%TO.C,JP3*%
X125304094Y-28498000D02*
X124704094Y-28498000D01*
X126004094Y-26398000D02*
X126004094Y-27798000D01*
X124704094Y-25698000D02*
X125304094Y-25698000D01*
X124004094Y-27798000D02*
X124004094Y-26398000D01*
X124704094Y-28498000D02*
G75*
G02*
X124004094Y-27798000I0J700000D01*
G01*
X126004094Y-27798000D02*
G75*
G02*
X125304094Y-28498000I-700000J0D01*
G01*
X125304094Y-25698000D02*
G75*
G02*
X126004094Y-26398000I0J-700000D01*
G01*
X124004094Y-26398000D02*
G75*
G02*
X124704094Y-25698000I700000J0D01*
G01*
%TO.C,JP2*%
X131536593Y-28498000D02*
X130936593Y-28498000D01*
X132236593Y-26398000D02*
X132236593Y-27798000D01*
X130936593Y-25698000D02*
X131536593Y-25698000D01*
X130236593Y-27798000D02*
X130236593Y-26398000D01*
X130936593Y-28498000D02*
G75*
G02*
X130236593Y-27798000I0J700000D01*
G01*
X132236593Y-27798000D02*
G75*
G02*
X131536593Y-28498000I-700000J0D01*
G01*
X131536593Y-25698000D02*
G75*
G02*
X132236593Y-26398000I0J-700000D01*
G01*
X130236593Y-26398000D02*
G75*
G02*
X130936593Y-25698000I700000J0D01*
G01*
%TO.C,JP1*%
X137769099Y-28498000D02*
X137169099Y-28498000D01*
X138469099Y-26398000D02*
X138469099Y-27798000D01*
X137169099Y-25698000D02*
X137769099Y-25698000D01*
X136469099Y-27798000D02*
X136469099Y-26398000D01*
X137169099Y-28498000D02*
G75*
G02*
X136469099Y-27798000I0J700000D01*
G01*
X138469099Y-27798000D02*
G75*
G02*
X137769099Y-28498000I-700000J0D01*
G01*
X137769099Y-25698000D02*
G75*
G02*
X138469099Y-26398000I0J-700000D01*
G01*
X136469099Y-26398000D02*
G75*
G02*
X137169099Y-25698000I700000J0D01*
G01*
D15*
%TO.C,X1*%
G36*
X143751818Y-39990818D02*
G01*
X143755680Y-40045117D01*
X143775267Y-40067388D01*
X143821091Y-40071636D01*
X143870157Y-40077358D01*
X143888241Y-40104347D01*
X143890364Y-40140909D01*
X143894869Y-40187451D01*
X143917721Y-40206540D01*
X143971182Y-40210182D01*
X144052000Y-40210182D01*
X144052000Y-43812364D01*
X143890364Y-43812364D01*
X143890364Y-44528182D01*
X140588364Y-44528182D01*
X140588364Y-43950909D01*
X140726909Y-43950909D01*
X140726909Y-44389636D01*
X143751818Y-44389636D01*
X143751818Y-43950909D01*
X140726909Y-43950909D01*
X140588364Y-43950909D01*
X140588364Y-43812364D01*
X140426727Y-43812364D01*
X140426727Y-40210182D01*
X140507546Y-40210182D01*
X140588364Y-40210182D01*
X140588364Y-43812364D01*
X143890364Y-43812364D01*
X143890364Y-40210182D01*
X143821091Y-40210182D01*
X143772025Y-40204460D01*
X143753940Y-40177471D01*
X143751818Y-40140909D01*
X143751818Y-40071636D01*
X140726909Y-40071636D01*
X140726909Y-40140909D01*
X140721188Y-40189975D01*
X140694198Y-40208060D01*
X140657636Y-40210182D01*
X140588364Y-40210182D01*
X140507546Y-40210182D01*
X140561844Y-40206320D01*
X140584115Y-40186733D01*
X140588364Y-40140909D01*
X140594085Y-40091843D01*
X140621075Y-40073759D01*
X140657636Y-40071636D01*
X140704178Y-40067131D01*
X140723268Y-40044279D01*
X140726909Y-39990818D01*
X140726909Y-39910000D01*
X143751818Y-39910000D01*
X143751818Y-39990818D01*
G37*
X143751818Y-39990818D02*
X143755680Y-40045117D01*
X143775267Y-40067388D01*
X143821091Y-40071636D01*
X143870157Y-40077358D01*
X143888241Y-40104347D01*
X143890364Y-40140909D01*
X143894869Y-40187451D01*
X143917721Y-40206540D01*
X143971182Y-40210182D01*
X144052000Y-40210182D01*
X144052000Y-43812364D01*
X143890364Y-43812364D01*
X143890364Y-44528182D01*
X140588364Y-44528182D01*
X140588364Y-43950909D01*
X140726909Y-43950909D01*
X140726909Y-44389636D01*
X143751818Y-44389636D01*
X143751818Y-43950909D01*
X140726909Y-43950909D01*
X140588364Y-43950909D01*
X140588364Y-43812364D01*
X140426727Y-43812364D01*
X140426727Y-40210182D01*
X140507546Y-40210182D01*
X140588364Y-40210182D01*
X140588364Y-43812364D01*
X143890364Y-43812364D01*
X143890364Y-40210182D01*
X143821091Y-40210182D01*
X143772025Y-40204460D01*
X143753940Y-40177471D01*
X143751818Y-40140909D01*
X143751818Y-40071636D01*
X140726909Y-40071636D01*
X140726909Y-40140909D01*
X140721188Y-40189975D01*
X140694198Y-40208060D01*
X140657636Y-40210182D01*
X140588364Y-40210182D01*
X140507546Y-40210182D01*
X140561844Y-40206320D01*
X140584115Y-40186733D01*
X140588364Y-40140909D01*
X140594085Y-40091843D01*
X140621075Y-40073759D01*
X140657636Y-40071636D01*
X140704178Y-40067131D01*
X140723268Y-40044279D01*
X140726909Y-39990818D01*
X140726909Y-39910000D01*
X143751818Y-39910000D01*
X143751818Y-39990818D01*
G36*
X141165636Y-43373636D02*
G01*
X140865455Y-43373636D01*
X140865455Y-43235091D01*
X141165636Y-43235091D01*
X141165636Y-43373636D01*
G37*
X141165636Y-43373636D02*
X140865455Y-43373636D01*
X140865455Y-43235091D01*
X141165636Y-43235091D01*
X141165636Y-43373636D01*
G36*
X143474727Y-43235091D02*
G01*
X142597273Y-43235091D01*
X142597273Y-43096546D01*
X143474727Y-43096546D01*
X143474727Y-43235091D01*
G37*
X143474727Y-43235091D02*
X142597273Y-43235091D01*
X142597273Y-43096546D01*
X143474727Y-43096546D01*
X143474727Y-43235091D01*
G36*
X143474727Y-40418000D02*
G01*
X143480449Y-40467066D01*
X143507438Y-40485151D01*
X143544000Y-40487273D01*
X143613273Y-40487273D01*
X143613273Y-42380727D01*
X143544000Y-42380727D01*
X143494934Y-42386449D01*
X143476850Y-42413438D01*
X143474727Y-42450000D01*
X143474727Y-42519273D01*
X141004000Y-42519273D01*
X141004000Y-42450000D01*
X140998278Y-42400934D01*
X140971289Y-42382850D01*
X140934727Y-42380727D01*
X140865455Y-42380727D01*
X140865455Y-40487273D01*
X140934727Y-40487273D01*
X141004000Y-40487273D01*
X141004000Y-42380727D01*
X143474727Y-42380727D01*
X143474727Y-40487273D01*
X141004000Y-40487273D01*
X140934727Y-40487273D01*
X140983793Y-40481551D01*
X141001878Y-40454562D01*
X141004000Y-40418000D01*
X141004000Y-40348727D01*
X143474727Y-40348727D01*
X143474727Y-40418000D01*
G37*
X143474727Y-40418000D02*
X143480449Y-40467066D01*
X143507438Y-40485151D01*
X143544000Y-40487273D01*
X143613273Y-40487273D01*
X143613273Y-42380727D01*
X143544000Y-42380727D01*
X143494934Y-42386449D01*
X143476850Y-42413438D01*
X143474727Y-42450000D01*
X143474727Y-42519273D01*
X141004000Y-42519273D01*
X141004000Y-42450000D01*
X140998278Y-42400934D01*
X140971289Y-42382850D01*
X140934727Y-42380727D01*
X140865455Y-42380727D01*
X140865455Y-40487273D01*
X140934727Y-40487273D01*
X141004000Y-40487273D01*
X141004000Y-42380727D01*
X143474727Y-42380727D01*
X143474727Y-40487273D01*
X141004000Y-40487273D01*
X140934727Y-40487273D01*
X140983793Y-40481551D01*
X141001878Y-40454562D01*
X141004000Y-40418000D01*
X141004000Y-40348727D01*
X143474727Y-40348727D01*
X143474727Y-40418000D01*
G36*
X142577066Y-41809176D02*
G01*
X142595151Y-41836165D01*
X142597273Y-41872727D01*
X142591551Y-41921793D01*
X142564562Y-41939878D01*
X142528000Y-41942000D01*
X142478934Y-41947722D01*
X142460850Y-41974711D01*
X142458727Y-42011273D01*
X142458727Y-42080546D01*
X141881455Y-42080546D01*
X141881455Y-42011273D01*
X141875733Y-41962207D01*
X141848744Y-41944122D01*
X141812182Y-41942000D01*
X141763116Y-41936278D01*
X141745031Y-41909289D01*
X141742909Y-41872727D01*
X141748631Y-41823661D01*
X141775620Y-41805577D01*
X141812182Y-41803455D01*
X141861248Y-41809176D01*
X141879332Y-41836165D01*
X141881455Y-41872727D01*
X141881455Y-41942000D01*
X142458727Y-41942000D01*
X142458727Y-41872727D01*
X142464449Y-41823661D01*
X142491438Y-41805577D01*
X142528000Y-41803455D01*
X142577066Y-41809176D01*
G37*
X142577066Y-41809176D02*
X142595151Y-41836165D01*
X142597273Y-41872727D01*
X142591551Y-41921793D01*
X142564562Y-41939878D01*
X142528000Y-41942000D01*
X142478934Y-41947722D01*
X142460850Y-41974711D01*
X142458727Y-42011273D01*
X142458727Y-42080546D01*
X141881455Y-42080546D01*
X141881455Y-42011273D01*
X141875733Y-41962207D01*
X141848744Y-41944122D01*
X141812182Y-41942000D01*
X141763116Y-41936278D01*
X141745031Y-41909289D01*
X141742909Y-41872727D01*
X141748631Y-41823661D01*
X141775620Y-41805577D01*
X141812182Y-41803455D01*
X141861248Y-41809176D01*
X141879332Y-41836165D01*
X141881455Y-41872727D01*
X141881455Y-41942000D01*
X142458727Y-41942000D01*
X142458727Y-41872727D01*
X142464449Y-41823661D01*
X142491438Y-41805577D01*
X142528000Y-41803455D01*
X142577066Y-41809176D01*
G36*
X142320182Y-41641818D02*
G01*
X142020000Y-41641818D01*
X142020000Y-41572546D01*
X142025722Y-41523480D01*
X142052711Y-41505395D01*
X142089273Y-41503273D01*
X142158546Y-41503273D01*
X142158546Y-40926000D01*
X142320182Y-40926000D01*
X142320182Y-41641818D01*
G37*
X142320182Y-41641818D02*
X142020000Y-41641818D01*
X142020000Y-41572546D01*
X142025722Y-41523480D01*
X142052711Y-41505395D01*
X142089273Y-41503273D01*
X142158546Y-41503273D01*
X142158546Y-40926000D01*
X142320182Y-40926000D01*
X142320182Y-41641818D01*
G36*
X141742909Y-41226182D02*
G01*
X141581273Y-41226182D01*
X141581273Y-40926000D01*
X141742909Y-40926000D01*
X141742909Y-41226182D01*
G37*
X141742909Y-41226182D02*
X141581273Y-41226182D01*
X141581273Y-40926000D01*
X141742909Y-40926000D01*
X141742909Y-41226182D01*
G36*
X142735818Y-41226182D02*
G01*
X142597273Y-41226182D01*
X142597273Y-40926000D01*
X142735818Y-40926000D01*
X142735818Y-41226182D01*
G37*
X142735818Y-41226182D02*
X142597273Y-41226182D01*
X142597273Y-40926000D01*
X142735818Y-40926000D01*
X142735818Y-41226182D01*
D12*
%TO.C,R1*%
X82811064Y-39175000D02*
X82356936Y-39175000D01*
X82811064Y-40645000D02*
X82356936Y-40645000D01*
%TO.C,D1*%
X84269000Y-40982000D02*
X81584000Y-40982000D01*
X84269000Y-42902000D02*
X84269000Y-40982000D01*
X81584000Y-42902000D02*
X84269000Y-42902000D01*
%TD*%
%TO.C,JP9*%
D10*
X85261480Y-27931333D02*
X85975766Y-27931333D01*
X86118623Y-27978952D01*
X86213861Y-28074190D01*
X86261480Y-28217047D01*
X86261480Y-28312285D01*
X86261480Y-27455142D02*
X85261480Y-27455142D01*
X85261480Y-27074190D01*
X85309100Y-26978952D01*
X85356719Y-26931333D01*
X85451957Y-26883714D01*
X85594814Y-26883714D01*
X85690052Y-26931333D01*
X85737671Y-26978952D01*
X85785290Y-27074190D01*
X85785290Y-27455142D01*
X86261480Y-26407523D02*
X86261480Y-26217047D01*
X86213861Y-26121809D01*
X86166242Y-26074190D01*
X86023385Y-25978952D01*
X85832909Y-25931333D01*
X85451957Y-25931333D01*
X85356719Y-25978952D01*
X85309100Y-26026571D01*
X85261480Y-26121809D01*
X85261480Y-26312285D01*
X85309100Y-26407523D01*
X85356719Y-26455142D01*
X85451957Y-26502761D01*
X85690052Y-26502761D01*
X85785290Y-26455142D01*
X85832909Y-26407523D01*
X85880528Y-26312285D01*
X85880528Y-26121809D01*
X85832909Y-26026571D01*
X85785290Y-25978952D01*
X85690052Y-25931333D01*
%TO.C,JP8*%
X91493979Y-27931333D02*
X92208265Y-27931333D01*
X92351122Y-27978952D01*
X92446360Y-28074190D01*
X92493979Y-28217047D01*
X92493979Y-28312285D01*
X92493979Y-27455142D02*
X91493979Y-27455142D01*
X91493979Y-27074190D01*
X91541599Y-26978952D01*
X91589218Y-26931333D01*
X91684456Y-26883714D01*
X91827313Y-26883714D01*
X91922551Y-26931333D01*
X91970170Y-26978952D01*
X92017789Y-27074190D01*
X92017789Y-27455142D01*
X91922551Y-26312285D02*
X91874932Y-26407523D01*
X91827313Y-26455142D01*
X91732075Y-26502761D01*
X91684456Y-26502761D01*
X91589218Y-26455142D01*
X91541599Y-26407523D01*
X91493979Y-26312285D01*
X91493979Y-26121809D01*
X91541599Y-26026571D01*
X91589218Y-25978952D01*
X91684456Y-25931333D01*
X91732075Y-25931333D01*
X91827313Y-25978952D01*
X91874932Y-26026571D01*
X91922551Y-26121809D01*
X91922551Y-26312285D01*
X91970170Y-26407523D01*
X92017789Y-26455142D01*
X92113027Y-26502761D01*
X92303503Y-26502761D01*
X92398741Y-26455142D01*
X92446360Y-26407523D01*
X92493979Y-26312285D01*
X92493979Y-26121809D01*
X92446360Y-26026571D01*
X92398741Y-25978952D01*
X92303503Y-25931333D01*
X92113027Y-25931333D01*
X92017789Y-25978952D01*
X91970170Y-26026571D01*
X91922551Y-26121809D01*
%TO.C,JP7*%
X97726478Y-27931333D02*
X98440764Y-27931333D01*
X98583621Y-27978952D01*
X98678859Y-28074190D01*
X98726478Y-28217047D01*
X98726478Y-28312285D01*
X98726478Y-27455142D02*
X97726478Y-27455142D01*
X97726478Y-27074190D01*
X97774098Y-26978952D01*
X97821717Y-26931333D01*
X97916955Y-26883714D01*
X98059812Y-26883714D01*
X98155050Y-26931333D01*
X98202669Y-26978952D01*
X98250288Y-27074190D01*
X98250288Y-27455142D01*
X97726478Y-26550380D02*
X97726478Y-25883714D01*
X98726478Y-26312285D01*
%TO.C,JP6*%
X103958977Y-27931333D02*
X104673263Y-27931333D01*
X104816120Y-27978952D01*
X104911358Y-28074190D01*
X104958977Y-28217047D01*
X104958977Y-28312285D01*
X104958977Y-27455142D02*
X103958977Y-27455142D01*
X103958977Y-27074190D01*
X104006597Y-26978952D01*
X104054216Y-26931333D01*
X104149454Y-26883714D01*
X104292311Y-26883714D01*
X104387549Y-26931333D01*
X104435168Y-26978952D01*
X104482787Y-27074190D01*
X104482787Y-27455142D01*
X103958977Y-26026571D02*
X103958977Y-26217047D01*
X104006597Y-26312285D01*
X104054216Y-26359904D01*
X104197073Y-26455142D01*
X104387549Y-26502761D01*
X104768501Y-26502761D01*
X104863739Y-26455142D01*
X104911358Y-26407523D01*
X104958977Y-26312285D01*
X104958977Y-26121809D01*
X104911358Y-26026571D01*
X104863739Y-25978952D01*
X104768501Y-25931333D01*
X104530406Y-25931333D01*
X104435168Y-25978952D01*
X104387549Y-26026571D01*
X104339930Y-26121809D01*
X104339930Y-26312285D01*
X104387549Y-26407523D01*
X104435168Y-26455142D01*
X104530406Y-26502761D01*
%TO.C,JP5*%
X110191476Y-27931333D02*
X110905762Y-27931333D01*
X111048619Y-27978952D01*
X111143857Y-28074190D01*
X111191476Y-28217047D01*
X111191476Y-28312285D01*
X111191476Y-27455142D02*
X110191476Y-27455142D01*
X110191476Y-27074190D01*
X110239096Y-26978952D01*
X110286715Y-26931333D01*
X110381953Y-26883714D01*
X110524810Y-26883714D01*
X110620048Y-26931333D01*
X110667667Y-26978952D01*
X110715286Y-27074190D01*
X110715286Y-27455142D01*
X110191476Y-25978952D02*
X110191476Y-26455142D01*
X110667667Y-26502761D01*
X110620048Y-26455142D01*
X110572429Y-26359904D01*
X110572429Y-26121809D01*
X110620048Y-26026571D01*
X110667667Y-25978952D01*
X110762905Y-25931333D01*
X111001000Y-25931333D01*
X111096238Y-25978952D01*
X111143857Y-26026571D01*
X111191476Y-26121809D01*
X111191476Y-26359904D01*
X111143857Y-26455142D01*
X111096238Y-26502761D01*
%TO.C,JP4*%
X116423975Y-27931333D02*
X117138261Y-27931333D01*
X117281118Y-27978952D01*
X117376356Y-28074190D01*
X117423975Y-28217047D01*
X117423975Y-28312285D01*
X117423975Y-27455142D02*
X116423975Y-27455142D01*
X116423975Y-27074190D01*
X116471595Y-26978952D01*
X116519214Y-26931333D01*
X116614452Y-26883714D01*
X116757309Y-26883714D01*
X116852547Y-26931333D01*
X116900166Y-26978952D01*
X116947785Y-27074190D01*
X116947785Y-27455142D01*
X116757309Y-26026571D02*
X117423975Y-26026571D01*
X116376356Y-26264666D02*
X117090642Y-26502761D01*
X117090642Y-25883714D01*
%TO.C,JP3*%
X122656474Y-27931333D02*
X123370760Y-27931333D01*
X123513617Y-27978952D01*
X123608855Y-28074190D01*
X123656474Y-28217047D01*
X123656474Y-28312285D01*
X123656474Y-27455142D02*
X122656474Y-27455142D01*
X122656474Y-27074190D01*
X122704094Y-26978952D01*
X122751713Y-26931333D01*
X122846951Y-26883714D01*
X122989808Y-26883714D01*
X123085046Y-26931333D01*
X123132665Y-26978952D01*
X123180284Y-27074190D01*
X123180284Y-27455142D01*
X122656474Y-26550380D02*
X122656474Y-25931333D01*
X123037427Y-26264666D01*
X123037427Y-26121809D01*
X123085046Y-26026571D01*
X123132665Y-25978952D01*
X123227903Y-25931333D01*
X123465998Y-25931333D01*
X123561236Y-25978952D01*
X123608855Y-26026571D01*
X123656474Y-26121809D01*
X123656474Y-26407523D01*
X123608855Y-26502761D01*
X123561236Y-26550380D01*
%TO.C,JP2*%
X128888973Y-27931333D02*
X129603259Y-27931333D01*
X129746116Y-27978952D01*
X129841354Y-28074190D01*
X129888973Y-28217047D01*
X129888973Y-28312285D01*
X129888973Y-27455142D02*
X128888973Y-27455142D01*
X128888973Y-27074190D01*
X128936593Y-26978952D01*
X128984212Y-26931333D01*
X129079450Y-26883714D01*
X129222307Y-26883714D01*
X129317545Y-26931333D01*
X129365164Y-26978952D01*
X129412783Y-27074190D01*
X129412783Y-27455142D01*
X128984212Y-26502761D02*
X128936593Y-26455142D01*
X128888973Y-26359904D01*
X128888973Y-26121809D01*
X128936593Y-26026571D01*
X128984212Y-25978952D01*
X129079450Y-25931333D01*
X129174688Y-25931333D01*
X129317545Y-25978952D01*
X129888973Y-26550380D01*
X129888973Y-25931333D01*
%TO.C,JP1*%
X135121479Y-27931333D02*
X135835765Y-27931333D01*
X135978622Y-27978952D01*
X136073860Y-28074190D01*
X136121479Y-28217047D01*
X136121479Y-28312285D01*
X136121479Y-27455142D02*
X135121479Y-27455142D01*
X135121479Y-27074190D01*
X135169099Y-26978952D01*
X135216718Y-26931333D01*
X135311956Y-26883714D01*
X135454813Y-26883714D01*
X135550051Y-26931333D01*
X135597670Y-26978952D01*
X135645289Y-27074190D01*
X135645289Y-27455142D01*
X136121479Y-25931333D02*
X136121479Y-26502761D01*
X136121479Y-26217047D02*
X135121479Y-26217047D01*
X135264337Y-26312285D01*
X135359575Y-26407523D01*
X135407194Y-26502761D01*
%TO.C,R1*%
X85211333Y-40616380D02*
X84878000Y-40140190D01*
X84639904Y-40616380D02*
X84639904Y-39616380D01*
X85020857Y-39616380D01*
X85116095Y-39664000D01*
X85163714Y-39711619D01*
X85211333Y-39806857D01*
X85211333Y-39949714D01*
X85163714Y-40044952D01*
X85116095Y-40092571D01*
X85020857Y-40140190D01*
X84639904Y-40140190D01*
X86163714Y-40616380D02*
X85592285Y-40616380D01*
X85878000Y-40616380D02*
X85878000Y-39616380D01*
X85782761Y-39759238D01*
X85687523Y-39854476D01*
X85592285Y-39902095D01*
%TO.C,D1*%
X84639904Y-42648380D02*
X84639904Y-41648380D01*
X84878000Y-41648380D01*
X85020857Y-41696000D01*
X85116095Y-41791238D01*
X85163714Y-41886476D01*
X85211333Y-42076952D01*
X85211333Y-42219809D01*
X85163714Y-42410285D01*
X85116095Y-42505523D01*
X85020857Y-42600761D01*
X84878000Y-42648380D01*
X84639904Y-42648380D01*
X86163714Y-42648380D02*
X85592285Y-42648380D01*
X85878000Y-42648380D02*
X85878000Y-41648380D01*
X85782761Y-41791238D01*
X85687523Y-41886476D01*
X85592285Y-41934095D01*
%TD*%
M02*
