M48
; DRILL file {KiCad (5.1.9-16-g1737927814)-1} date 06/02/21 15:54:45
; FORMAT={-:-/ absolute / inch / decimal}
; #@! TF.CreationDate,2021-06-02T15:54:45-05:00
; #@! TF.GenerationSoftware,Kicad,Pcbnew,(5.1.9-16-g1737927814)-1
; #@! TF.FileFunction,Plated,1,2,PTH
FMAT,2
INCH
T1C0.0098
T2C0.0157
T3C0.0394
T4C0.0406
T5C0.1272
%
G90
G05
T1
X3.2813Y-0.8913
X3.3813Y-0.9113
X3.4013Y-1.0013
X3.4813Y-0.9113
X3.5013Y-0.9513
X3.5813Y-0.9213
X3.6313Y-0.9613
X3.6803Y-0.9323
X3.7413Y-0.9335
X3.7713Y-0.9226
X3.7935Y-0.9891
X3.8778Y-0.9335
X3.8956Y-1.0191
X3.9342Y-0.9891
X3.9413Y-1.1913
X3.9918Y-0.9362
X4.0708Y-0.9013
X4.0886Y-0.944
X4.1156Y-0.887
X4.1316Y-0.9891
X4.1613Y-0.8713
X4.2113Y-1.1713
X4.2413Y-0.9234
X4.3013Y-0.8513
X4.3613Y-0.9413
X4.3691Y-0.8335
X4.3813Y-0.9613
X4.4413Y-1.2413
X4.4813Y-0.9213
X4.4841Y-0.9851
X4.5613Y-0.9513
X4.5913Y-0.9513
X4.6013Y-1.2313
X4.628Y-0.9915
X4.6876Y-0.9909
X4.7213Y-0.9113
X4.8004Y-0.9622
X4.8567Y-1.0605
X4.8626Y-0.9972
X4.9113Y-1.1513
X4.9325Y-0.9335
X4.9713Y-0.9113
X5.0003Y-1.0202
X5.0106Y-0.9628
X5.0478Y-0.9978
X5.0513Y-1.2513
X5.0881Y-1.038
X5.1013Y-0.98
X5.1306Y-0.9691
X5.2013Y-0.9713
X5.2152Y-0.8923
X5.2949Y-0.9691
X5.3713Y-0.9513
X5.4013Y-0.9813
X5.4613Y-0.9413
X5.5013Y-1.0013
X5.5803Y-1.0102
T2
X3.8513Y-1.0913
X4.3313Y-1.0913
T3
X3.2388Y-0.6888
X3.2388Y-0.7888
X3.3388Y-0.6888
X3.3388Y-0.7888
X3.4388Y-0.6888
X3.4388Y-0.7888
X3.5388Y-0.6888
X3.5388Y-0.7888
X3.6388Y-0.6888
X3.6388Y-0.7888
X3.7388Y-0.6888
X3.7388Y-0.7888
X3.8388Y-0.6888
X3.8388Y-0.7888
X3.9388Y-0.6888
X3.9388Y-0.7888
X4.0388Y-0.6888
X4.0388Y-0.7888
X4.1388Y-0.6888
X4.1388Y-0.7888
X4.2388Y-0.6888
X4.2388Y-0.7888
X4.3388Y-0.6888
X4.3388Y-0.7888
X4.4388Y-0.6888
X4.4388Y-0.7888
X4.5388Y-0.6888
X4.5388Y-0.7888
X4.6388Y-0.6888
X4.6388Y-0.7888
X4.7388Y-0.6888
X4.7388Y-0.7888
X4.8388Y-0.6888
X4.8388Y-0.7888
X4.9388Y-0.6888
X4.9388Y-0.7888
X5.0388Y-0.6888
X5.0388Y-0.7888
X5.1388Y-0.6888
X5.1388Y-0.7888
X5.2388Y-0.6888
X5.2388Y-0.7888
X5.3388Y-0.6888
X5.3388Y-0.7888
X5.4388Y-0.6888
X5.4388Y-0.7888
X5.5388Y-0.6888
X5.5388Y-0.7888
X5.6388Y-0.6888
X5.6388Y-0.7888
T4
X3.7867Y-1.3713
X3.8412Y-1.4831
X3.8957Y-1.3713
X3.9503Y-1.4831
X4.0048Y-1.3713
X4.0593Y-1.4831
X4.1138Y-1.3713
X4.1684Y-1.4831
X4.2229Y-1.3713
X4.2774Y-1.4831
X4.332Y-1.3713
X4.3865Y-1.4831
X4.441Y-1.3713
X4.4955Y-1.4831
X4.5501Y-1.3713
X4.6046Y-1.4831
X4.6591Y-1.3713
X4.7136Y-1.4831
X4.7682Y-1.3713
X4.8227Y-1.4831
X4.8772Y-1.3713
X4.9318Y-1.4831
X4.9863Y-1.3713
X5.0408Y-1.4831
X5.0953Y-1.3713
T5
X3.515Y-1.4272
X5.367Y-1.4272
T0
M30
