M48
; DRILL file {KiCad (5.1.9-16-g1737927814)-1} date 04/12/21 08:44:30
; FORMAT={-:-/ absolute / inch / decimal}
; #@! TF.CreationDate,2021-04-12T08:44:30-05:00
; #@! TF.GenerationSoftware,Kicad,Pcbnew,(5.1.9-16-g1737927814)-1
FMAT,2
INCH
T1C0.0098
T2C0.0157
T3C0.0197
T4C0.0315
T5C0.0394
T6C0.0406
T7C0.0472
T8C0.0523
T9C0.1063
T10C0.1272
T11C0.0256
%
G90
G05
T1
X3.2088Y-0.9763
X3.2984Y-1.2394
X3.3093Y-0.9763
X3.3508Y-0.4843
X3.3738Y-0.0451
X3.4004Y-1.2413
X3.4374Y-0.4606
X3.4563Y-0.1513
X3.4565Y-0.7325
X3.4642Y-0.2465
X3.465Y-0.6929
X3.4884Y-0.1838
X3.4913Y-0.4438
X3.501Y-0.6288
X3.504Y-1.2324
X3.5135Y0.097
X3.5161Y-0.7913
X3.5272Y-0.085
X3.5291Y-0.2453
X3.5413Y-0.4438
X3.5413Y-0.6288
X3.5516Y-0.3071
X3.5669Y0.0887
X3.5913Y-0.4438
X3.5913Y-0.6288
X3.6043Y0.2697
X3.61Y-1.2275
X3.6105Y-0.9763
X3.6113Y0.0837
X3.6347Y-0.9219
X3.6413Y-0.4438
X3.6413Y-0.6288
X3.6432Y0.1375
X3.6459Y0.162
X3.6638Y0.0862
X3.6913Y-0.4438
X3.6913Y-0.6288
X3.6981Y-1.2146
X3.7013Y-0.8836
X3.7109Y-0.9763
X3.7118Y-0.8542
X3.7163Y0.0887
X3.7224Y-0.222
X3.7238Y-0.9024
X3.7388Y-0.4438
X3.7413Y-0.6288
X3.7569Y-0.9211
X3.763Y0.1783
X3.7638Y0.0862
X3.7647Y-1.4619
X3.7692Y-0.6611
X3.7833Y0.1334
X3.7913Y-0.4438
X3.7913Y-0.6288
X3.7945Y-1.2241
X3.7963Y-0.8294
X3.8034Y-0.8035
X3.8113Y-0.9961
X3.8138Y0.0837
X3.83Y-0.6611
X3.8413Y-0.4438
X3.8413Y-0.6288
X3.8423Y-0.7587
X3.8433Y-0.3323
X3.8604Y0.0513
X3.8661Y0.1238
X3.8941Y-0.4438
X3.8941Y-0.6283
X3.9127Y-1.0046
X3.913Y-1.0402
X3.9146Y-1.4368
X3.9147Y-1.5219
X3.9161Y0.0881
X3.9252Y-0.3154
X3.9319Y-0.2394
X3.9398Y0.1824
X3.9624Y-1.3291
X3.9661Y0.1258
X3.9728Y-1.5452
X3.9753Y-1.1428
X3.976Y0.015
X3.9768Y-0.0984
X3.9837Y-0.6788
X4.0004Y-0.1457
X4.0043Y0.0425
X4.0043Y-0.076
X4.0134Y-0.9961
X4.0147Y-1.5519
X4.0358Y-0.9567
X4.0358Y-1.2376
X4.0413Y-0.6788
X4.0428Y-1.4152
X4.0747Y-1.25
X4.0763Y-0.0688
X4.0988Y-0.6788
X4.1055Y-1.2619
X4.1138Y-1.5158
X4.1177Y0.085
X4.1224Y-0.9961
X4.1494Y-1.5242
X4.1543Y-1.2582
X4.1563Y-0.6788
X4.1747Y-1.4119
X4.1763Y-0.0713
X4.2137Y-0.9961
X4.2689Y-1.3046
X4.2713Y-0.6788
X4.2725Y-1.2542
X4.2761Y0.1137
X4.2816Y-1.4088
X4.2879Y-0.1094
X4.2935Y0.0961
X4.3194Y-1.5004
X4.3288Y-0.6788
X4.3354Y-1.2597
X4.3409Y0.135
X4.3533Y-0.1094
X4.3708Y-1.2597
X4.3752Y0.0579
X4.3863Y-0.6788
X4.4138Y-0.9961
X4.4438Y-0.6788
X4.4638Y-0.0618
X4.4947Y-1.2419
X4.5013Y-0.6788
X4.5016Y0.104
X4.5122Y-1.4153
X4.5262Y0.1019
X4.5274Y-0.2521
X4.5347Y-1.5615
X4.5368Y-1.2462
X4.541Y0.1505
X4.5443Y-0.9961
X4.5464Y-1.3151
X4.5507Y-1.5045
X4.5588Y-0.6788
X4.5618Y0.0934
X4.563Y-0.0618
X4.5909Y-1.137
X4.5913Y0.1149
X4.6137Y-1.2474
X4.6159Y-1.3022
X4.6163Y-0.4438
X4.6163Y-0.6288
X4.6163Y-0.6788
X4.6263Y0.0587
X4.6305Y-0.9961
X4.6433Y-0.9565
X4.6547Y-1.4274
X4.6663Y-0.4438
X4.6663Y-0.6288
X4.6777Y-1.287
X4.6838Y-0.9387
X4.6938Y0.0842
X4.7094Y-0.6788
X4.7163Y-0.4438
X4.7163Y-0.6288
X4.7163Y-0.9351
X4.7438Y0.0837
X4.7638Y-0.4438
X4.7647Y-1.4419
X4.7663Y-0.6288
X4.7796Y-0.9267
X4.7847Y-1.5219
X4.785Y-1.2425
X4.7994Y0.0487
X4.8045Y-0.9445
X4.8059Y-0.085
X4.8163Y-0.4438
X4.8163Y-0.6288
X4.8421Y0.0874
X4.8421Y-0.885
X4.8512Y-0.0701
X4.8536Y-0.6788
X4.8647Y-1.4219
X4.8713Y-1.0238
X4.8856Y0.0414
X4.8888Y-0.8988
X4.8924Y-1.2166
X4.9013Y-0.6788
X4.9227Y-1.2499
X4.9343Y-0.0787
X4.9363Y0.1296
X4.9486Y-0.6788
X4.9738Y-0.0913
X4.9752Y-1.2435
X4.9894Y-1.2972
X4.9959Y-0.6788
X5.0091Y-0.5516
X5.0189Y0.1258
X5.0238Y-0.0813
X5.0432Y-0.6788
X5.0457Y0.0756
X5.0716Y-1.2453
X5.0982Y-0.9143
X5.0991Y0.1258
X5.1147Y-1.0219
X5.1213Y-0.4563
X5.126Y-0.5551
X5.1285Y0.1688
X5.1346Y-1.2762
X5.1465Y0.0776
X5.149Y0.1937
X5.1605Y0.1497
X5.1709Y0.1738
X5.1773Y-1.1408
X5.1776Y-1.022
X5.1788Y-0.4463
X5.1788Y-0.6363
X5.2288Y-0.4463
X5.2288Y-0.6363
X5.2288Y-0.6788
X5.2302Y0.1896
X5.2515Y0.0789
X5.272Y-0.828
X5.2753Y-1.2264
X5.2788Y-0.4463
X5.2788Y-0.6363
X5.2788Y-0.6788
X5.2941Y-1.0134
X5.3013Y0.0837
X5.3288Y-0.4463
X5.3288Y-0.6363
X5.3456Y0.0795
X5.3476Y-1.286
X5.3569Y0.0576
X5.3888Y-0.2163
X5.3959Y-1.2253
X5.4065Y0.0858
X5.4071Y0.0441
X5.4563Y-0.7738
X5.4618Y-0.7041
X5.4862Y-1.2264
X5.4873Y-0.2907
X5.4873Y-0.393
X5.5238Y0.0687
X5.5247Y-1.4463
X5.5906Y-1.2291
X5.6264Y0.0236
X5.6378Y-0.2906
X5.6378Y-0.3404
X5.6378Y-0.3927
X5.6527Y-0.3157
X5.6527Y-0.3669
X5.6747Y-1.4819
T2
X3.3763Y-0.2588
X3.4472Y-0.5242
X3.4888Y0.1287
X4.2972Y0.0639
X4.7663Y-0.2863
X4.8588Y-0.5413
X4.9463Y-0.2913
X4.9902Y-1.0094
X5.3345Y-0.2456
X5.4138Y-0.7838
X5.4736Y0.1791
T3
X3.2195Y0.2677
X3.2195Y-0.6378
X3.2195Y-1.6614
X3.2428Y0.3241
X3.2428Y0.2113
X3.2428Y-0.5814
X3.2428Y-0.6942
X3.2428Y-1.605
X3.2428Y-1.7178
X3.2992Y0.3474
X3.2992Y0.188
X3.2992Y-0.5581
X3.2992Y-0.7175
X3.2992Y-1.5817
X3.2992Y-1.7411
X3.3556Y0.3241
X3.3556Y0.2113
X3.3556Y-0.5814
X3.3556Y-0.6942
X3.3556Y-1.605
X3.3556Y-1.7178
X3.3789Y0.2677
X3.3789Y-0.6378
X3.3789Y-1.6614
X5.503Y0.2677
X5.503Y-0.6378
X5.503Y-1.6614
X5.5263Y0.3241
X5.5263Y0.2113
X5.5263Y-0.5814
X5.5263Y-0.6942
X5.5263Y-1.605
X5.5263Y-1.7178
X5.5827Y0.3474
X5.5827Y0.188
X5.5827Y-0.5581
X5.5827Y-0.7175
X5.5827Y-1.5817
X5.5827Y-1.7411
X5.6391Y0.3241
X5.6391Y0.2113
X5.6391Y-0.5814
X5.6391Y-0.6942
X5.6391Y-1.605
X5.6391Y-1.7178
X5.6624Y0.2677
X5.6624Y-0.6378
X5.6624Y-1.6614
T4
X3.495Y-1.6019
X3.495Y-1.6806
X3.5737Y-1.6019
X3.5737Y-1.6806
X3.6524Y-1.6019
X3.6524Y-1.6806
X3.7312Y-1.6019
X3.7312Y-1.6806
X3.8099Y-1.6019
X3.8099Y-1.6806
X3.8887Y-1.6019
X3.8887Y-1.6806
X3.9674Y-1.6019
X3.9674Y-1.6806
X4.0461Y-1.6019
X4.0461Y-1.6806
X4.1249Y-1.6019
X4.1249Y-1.6806
X4.2036Y-1.6019
X4.2036Y-1.6806
X4.2824Y-1.6019
X4.2824Y-1.6806
X4.3611Y-1.6019
X4.3611Y-1.6806
X4.4398Y-1.6019
X4.4398Y-1.6806
X4.5186Y-1.6019
X4.5186Y-1.6806
X4.5973Y-1.6019
X4.5973Y-1.6806
X4.6761Y-1.6019
X4.6761Y-1.6806
X4.7548Y-1.6019
X4.7548Y-1.6806
X4.8335Y-1.6019
X4.8335Y-1.6806
X4.9123Y-1.6019
X4.9123Y-1.6806
X4.991Y-1.6019
X4.991Y-1.6806
X5.0698Y-1.6019
X5.0698Y-1.6806
X5.1485Y-1.6019
X5.1485Y-1.6806
X5.2272Y-1.6019
X5.2272Y-1.6806
X5.306Y-1.6019
X5.306Y-1.6806
X5.3847Y-1.6019
X5.3847Y-1.6806
X5.6547Y-1.2831
X5.6547Y-1.3619
X5.6547Y-1.4406
X5.6547Y-1.5194
T5
X3.2388Y-1.0888
X3.2388Y-1.1888
X3.2433Y0.0898
X3.2492Y-0.8071
X3.2492Y-0.9071
X3.2996Y-0.0323
X3.2996Y-0.1323
X3.2996Y-0.2323
X3.2996Y-0.3323
X3.2996Y-0.4323
X3.3388Y-1.0888
X3.3388Y-1.1888
X3.3433Y0.0898
X3.3492Y-0.8071
X3.3492Y-0.9071
X3.4388Y-1.0888
X3.4388Y-1.1888
X3.4492Y-0.8071
X3.4492Y-0.9071
X3.4909Y0.3177
X3.4909Y0.2177
X3.5388Y-1.0888
X3.5388Y-1.1888
X3.5909Y0.3177
X3.5909Y0.2177
X3.6388Y-1.0888
X3.6388Y-1.1888
X3.6909Y0.3177
X3.6909Y0.2177
X3.7388Y-1.0888
X3.7388Y-1.1888
X3.7909Y0.3177
X3.7909Y0.2177
X3.8388Y-1.0888
X3.8388Y-1.1888
X3.8909Y0.3177
X3.8909Y0.2177
X3.9388Y-1.0888
X3.9388Y-1.1888
X3.9909Y0.3177
X3.9909Y0.2177
X4.0388Y-1.0888
X4.0388Y-1.1888
X4.0909Y0.3177
X4.0909Y0.2177
X4.1388Y-1.0888
X4.1388Y-1.1888
X4.1909Y0.3177
X4.1909Y0.2177
X4.2388Y-1.0888
X4.2388Y-1.1888
X4.2909Y0.3177
X4.2909Y0.2177
X4.3388Y-1.0888
X4.3388Y-1.1888
X4.3909Y0.3177
X4.3909Y0.2177
X4.4388Y-1.0888
X4.4388Y-1.1888
X4.4909Y0.3177
X4.4909Y0.2177
X4.5388Y-1.0888
X4.5388Y-1.1888
X4.5909Y0.3177
X4.5909Y0.2177
X4.6388Y-1.0888
X4.6388Y-1.1888
X4.6909Y0.3177
X4.6909Y0.2177
X4.7388Y-1.0888
X4.7388Y-1.1888
X4.7909Y0.3177
X4.7909Y0.2177
X4.8388Y-1.0888
X4.8388Y-1.1888
X4.8909Y0.3177
X4.8909Y0.2177
X4.9388Y-1.0888
X4.9388Y-1.1888
X4.9909Y0.3177
X4.9909Y0.2177
X5.0388Y-1.0888
X5.0388Y-1.1888
X5.0909Y0.3177
X5.0909Y0.2177
X5.1388Y-1.0888
X5.1388Y-1.1888
X5.1909Y0.3177
X5.1909Y0.2177
X5.2388Y-1.0888
X5.2388Y-1.1888
X5.2909Y0.3177
X5.2909Y0.2177
X5.3388Y-1.0888
X5.3388Y-1.1888
X5.3909Y0.3177
X5.3909Y0.2177
X5.4388Y-1.0888
X5.4388Y-1.1888
X5.4813Y0.0337
X5.4813Y-0.0663
X5.5388Y-1.0888
X5.5388Y-1.1888
X5.6388Y-1.0888
X5.6388Y-1.1888
T6
X3.7867Y-1.3713
X3.8412Y-1.4831
X3.8957Y-1.3713
X3.9503Y-1.4831
X4.0048Y-1.3713
X4.0593Y-1.4831
X4.1138Y-1.3713
X4.1684Y-1.4831
X4.2229Y-1.3713
X4.2774Y-1.4831
X4.332Y-1.3713
X4.3865Y-1.4831
X4.441Y-1.3713
X4.4955Y-1.4831
X4.5501Y-1.3713
X4.6046Y-1.4831
X4.6591Y-1.3713
X4.7136Y-1.4831
X4.7682Y-1.3713
X4.8227Y-1.4831
X4.8772Y-1.3713
X4.9318Y-1.4831
X4.9863Y-1.3713
X5.0408Y-1.4831
X5.0953Y-1.3713
T7
X4.2091Y-0.5787
X4.2091Y-0.6772
X4.2091Y-0.7756
X4.2091Y-0.874
T8
X5.5396Y-0.2002
X5.5396Y-0.4817
X5.6754Y-0.2002
X5.6754Y-0.4817
T9
X3.2992Y0.2677
X3.2992Y-0.6378
X3.2992Y-1.6614
X5.5827Y0.2677
X5.5827Y-0.6378
X5.5827Y-1.6614
T10
X3.515Y-1.4272
X5.367Y-1.4272
T11
X5.5915Y-0.2622
X5.5915Y-0.4197
T0
M30
