%TF.GenerationSoftware,KiCad,Pcbnew,(5.1.9-16-g1737927814)-1*%
%TF.CreationDate,2021-04-12T08:44:27-05:00*%
%TF.ProjectId,rascsi_2p4,72617363-7369-45f3-9270-342e6b696361,rev?*%
%TF.SameCoordinates,PX59d60c0PY325aa00*%
%TF.FileFunction,Soldermask,Bot*%
%TF.FilePolarity,Negative*%
%FSLAX46Y46*%
G04 Gerber Fmt 4.6, Leading zero omitted, Abs format (unit mm)*
G04 Created by KiCad (PCBNEW (5.1.9-16-g1737927814)-1) date 2021-04-12 08:44:27*
%MOMM*%
%LPD*%
G01*
G04 APERTURE LIST*
%TA.AperFunction,Profile*%
%ADD10C,0.050000*%
%TD*%
%ADD11C,1.800000*%
%ADD12R,1.800000X1.800000*%
%ADD13O,1.700000X1.700000*%
%ADD14R,1.700000X1.700000*%
%ADD15C,4.845000*%
%ADD16C,1.545000*%
%ADD17O,1.350000X1.350000*%
%ADD18R,1.350000X1.350000*%
%ADD19R,1.500000X1.000000*%
%ADD20C,1.000000*%
%ADD21C,2.000000*%
%ADD22C,0.800000*%
%ADD23C,5.400000*%
G04 APERTURE END LIST*
D10*
X83800000Y-45696000D02*
X141800000Y-45696000D01*
X83800000Y-45696000D02*
G75*
G02*
X80300000Y-42196000I0J3500000D01*
G01*
X145300000Y-42196000D02*
G75*
G02*
X141800000Y-45696000I-3500000J0D01*
G01*
X80300000Y6800000D02*
X80300000Y-42196000D01*
X145300000Y6800000D02*
X145300000Y-42196000D01*
X83800000Y10300000D02*
X141800000Y10300000D01*
X80300000Y6800000D02*
G75*
G02*
X83800000Y10300000I3500000J0D01*
G01*
X141800000Y10300000D02*
G75*
G02*
X145300000Y6800000I0J-3500000D01*
G01*
D11*
%TO.C,J20*%
X106910000Y-14700000D03*
X106910000Y-17200000D03*
X106910000Y-19700000D03*
D12*
X106910000Y-22200000D03*
%TD*%
D13*
%TO.C,J5*%
X82530000Y-23040000D03*
X82530000Y-20500000D03*
X85070000Y-23040000D03*
X85070000Y-20500000D03*
X87610000Y-23040000D03*
D14*
X87610000Y-20500000D03*
%TD*%
D15*
%TO.C,J6*%
X89281600Y-36250000D03*
X136321600Y-36250000D03*
D16*
X97566600Y-37670000D03*
X100336600Y-37670000D03*
X103106600Y-37670000D03*
X105876600Y-37670000D03*
X108646600Y-37670000D03*
X111416600Y-37670000D03*
X114186600Y-37670000D03*
X116956600Y-37670000D03*
X119726600Y-37670000D03*
X122496600Y-37670000D03*
X125266600Y-37670000D03*
X128036600Y-37670000D03*
X96181600Y-34830000D03*
X98951600Y-34830000D03*
X101721600Y-34830000D03*
X104491600Y-34830000D03*
X107261600Y-34830000D03*
X110031600Y-34830000D03*
X112801600Y-34830000D03*
X115571600Y-34830000D03*
X118341600Y-34830000D03*
X121111600Y-34830000D03*
X123881600Y-34830000D03*
X126651600Y-34830000D03*
X129421600Y-34830000D03*
%TD*%
D17*
%TO.C,J9*%
X88772000Y-42688000D03*
X88772000Y-40688000D03*
X90772000Y-42688000D03*
X90772000Y-40688000D03*
X92772000Y-42688000D03*
X92772000Y-40688000D03*
X94772000Y-42688000D03*
X94772000Y-40688000D03*
X96772000Y-42688000D03*
X96772000Y-40688000D03*
X98772000Y-42688000D03*
X98772000Y-40688000D03*
X100772000Y-42688000D03*
X100772000Y-40688000D03*
X102772000Y-42688000D03*
X102772000Y-40688000D03*
X104772000Y-42688000D03*
X104772000Y-40688000D03*
X106772000Y-42688000D03*
X106772000Y-40688000D03*
X108772000Y-42688000D03*
X108772000Y-40688000D03*
X110772000Y-42688000D03*
X110772000Y-40688000D03*
X112772000Y-42688000D03*
X112772000Y-40688000D03*
X114772000Y-42688000D03*
X114772000Y-40688000D03*
X116772000Y-42688000D03*
X116772000Y-40688000D03*
X118772000Y-42688000D03*
X118772000Y-40688000D03*
X120772000Y-42688000D03*
X120772000Y-40688000D03*
X122772000Y-42688000D03*
X122772000Y-40688000D03*
X124772000Y-42688000D03*
X124772000Y-40688000D03*
X126772000Y-42688000D03*
D18*
X126772000Y-40688000D03*
D17*
X128772000Y-42688000D03*
X128772000Y-40688000D03*
X130772000Y-42688000D03*
X130772000Y-40688000D03*
X132772000Y-42688000D03*
X132772000Y-40688000D03*
X134772000Y-42688000D03*
X134772000Y-40688000D03*
X136772000Y-42688000D03*
D18*
X136772000Y-40688000D03*
%TD*%
D17*
%TO.C,J10*%
X143630000Y-38592000D03*
X143630000Y-36592000D03*
X143630000Y-34592000D03*
D18*
X143630000Y-32592000D03*
%TD*%
D19*
%TO.C,JP1*%
X140328000Y-36736000D03*
X140328000Y-38036000D03*
%TD*%
D13*
%TO.C,J3*%
X143226500Y-27654500D03*
X143226500Y-30194500D03*
X140686500Y-27654500D03*
X140686500Y-30194500D03*
X138146500Y-27654500D03*
X138146500Y-30194500D03*
X135606500Y-27654500D03*
X135606500Y-30194500D03*
X133066500Y-27654500D03*
X133066500Y-30194500D03*
X130526500Y-27654500D03*
X130526500Y-30194500D03*
X127986500Y-27654500D03*
X127986500Y-30194500D03*
X125446500Y-27654500D03*
X125446500Y-30194500D03*
X122906500Y-27654500D03*
X122906500Y-30194500D03*
X120366500Y-27654500D03*
X120366500Y-30194500D03*
X117826500Y-27654500D03*
X117826500Y-30194500D03*
X115286500Y-27654500D03*
X115286500Y-30194500D03*
X112746500Y-27654500D03*
X112746500Y-30194500D03*
X110206500Y-27654500D03*
X110206500Y-30194500D03*
X107666500Y-27654500D03*
X107666500Y-30194500D03*
X105126500Y-27654500D03*
X105126500Y-30194500D03*
X102586500Y-27654500D03*
X102586500Y-30194500D03*
X100046500Y-27654500D03*
X100046500Y-30194500D03*
X97506500Y-27654500D03*
X97506500Y-30194500D03*
X94966500Y-27654500D03*
X94966500Y-30194500D03*
X92426500Y-27654500D03*
X92426500Y-30194500D03*
X89886500Y-27654500D03*
X89886500Y-30194500D03*
X87346500Y-27654500D03*
X87346500Y-30194500D03*
X84806500Y-27654500D03*
X84806500Y-30194500D03*
X82266500Y-27654500D03*
D14*
X82266500Y-30194500D03*
%TD*%
D20*
%TO.C,TP1*%
X140650000Y-7250000D03*
%TD*%
%TO.C,TP2*%
X139260000Y-8660000D03*
%TD*%
%TO.C,TP3*%
X140650000Y-10110000D03*
%TD*%
D21*
%TO.C,J8*%
X140705000Y-12235000D03*
X140705000Y-5085000D03*
X144155000Y-5085000D03*
X144155000Y-12235000D03*
%TD*%
D13*
%TO.C,J2*%
X139226000Y857000D03*
D14*
X139226000Y-1683000D03*
%TD*%
D13*
%TO.C,J7*%
X84920000Y2280000D03*
D14*
X82380000Y2280000D03*
%TD*%
D13*
%TO.C,J1*%
X136930000Y8070000D03*
X136930000Y5530000D03*
X134390000Y8070000D03*
X134390000Y5530000D03*
X131850000Y8070000D03*
X131850000Y5530000D03*
X129310000Y8070000D03*
X129310000Y5530000D03*
X126770000Y8070000D03*
X126770000Y5530000D03*
X124230000Y8070000D03*
X124230000Y5530000D03*
X121690000Y8070000D03*
X121690000Y5530000D03*
X119150000Y8070000D03*
X119150000Y5530000D03*
X116610000Y8070000D03*
X116610000Y5530000D03*
X114070000Y8070000D03*
X114070000Y5530000D03*
X111530000Y8070000D03*
X111530000Y5530000D03*
X108990000Y8070000D03*
X108990000Y5530000D03*
X106450000Y8070000D03*
X106450000Y5530000D03*
X103910000Y8070000D03*
X103910000Y5530000D03*
X101370000Y8070000D03*
X101370000Y5530000D03*
X98830000Y8070000D03*
X98830000Y5530000D03*
X96290000Y8070000D03*
X96290000Y5530000D03*
X93750000Y8070000D03*
X93750000Y5530000D03*
X91210000Y8070000D03*
X91210000Y5530000D03*
X88670000Y8070000D03*
D14*
X88670000Y5530000D03*
%TD*%
D22*
%TO.C,H2*%
X143231891Y8231891D03*
X141800000Y8825000D03*
X140368109Y8231891D03*
X139775000Y6800000D03*
X140368109Y5368109D03*
X141800000Y4775000D03*
X143231891Y5368109D03*
X143825000Y6800000D03*
D23*
X141800000Y6800000D03*
%TD*%
D22*
%TO.C,H1*%
X85231891Y8231891D03*
X83800000Y8825000D03*
X82368109Y8231891D03*
X81775000Y6800000D03*
X82368109Y5368109D03*
X83800000Y4775000D03*
X85231891Y5368109D03*
X85825000Y6800000D03*
D23*
X83800000Y6800000D03*
%TD*%
D13*
%TO.C,J4*%
X83810000Y-820000D03*
X83810000Y-3360000D03*
X83810000Y-5900000D03*
X83810000Y-8440000D03*
D14*
X83810000Y-10980000D03*
%TD*%
D22*
%TO.C,H6*%
X143231891Y-40768109D03*
X141800000Y-40175000D03*
X140368109Y-40768109D03*
X139775000Y-42200000D03*
X140368109Y-43631891D03*
X141800000Y-44225000D03*
X143231891Y-43631891D03*
X143825000Y-42200000D03*
D23*
X141800000Y-42200000D03*
%TD*%
D22*
%TO.C,H5*%
X85231891Y-40768109D03*
X83800000Y-40175000D03*
X82368109Y-40768109D03*
X81775000Y-42200000D03*
X82368109Y-43631891D03*
X83800000Y-44225000D03*
X85231891Y-43631891D03*
X85825000Y-42200000D03*
D23*
X83800000Y-42200000D03*
%TD*%
D22*
%TO.C,H4*%
X143231891Y-14768109D03*
X141800000Y-14175000D03*
X140368109Y-14768109D03*
X139775000Y-16200000D03*
X140368109Y-17631891D03*
X141800000Y-18225000D03*
X143231891Y-17631891D03*
X143825000Y-16200000D03*
D23*
X141800000Y-16200000D03*
%TD*%
D22*
%TO.C,H3*%
X85231891Y-14768109D03*
X83800000Y-14175000D03*
X82368109Y-14768109D03*
X81775000Y-16200000D03*
X82368109Y-17631891D03*
X83800000Y-18225000D03*
X85231891Y-17631891D03*
X85825000Y-16200000D03*
D23*
X83800000Y-16200000D03*
%TD*%
M02*
