<?xml version="1.0" encoding="utf-8"?>
<!-- Generator: Adobe Illustrator 27.0.0, SVG Export Plug-In . SVG Version: 6.00 Build 0)  -->
<svg version="1.1" xmlns="http://www.w3.org/2000/svg" xmlns:xlink="http://www.w3.org/1999/xlink" x="0px" y="0px"
	 viewBox="0 0 320 320" style="enable-background:new 0 0 320 320;" xml:space="preserve">
<style type="text/css">
	.st0{display:none;}
	.st1{display:inline;fill:#BCBEC0;}
	.st2{fill:none;stroke:#231F20;stroke-miterlimit:10;}
	.st3{fill:#231F20;}
	.st4{fill:#080505;}
	.st5{fill:#FFFFFF;}
	.st6{fill:#CC6600;}
</style>
<g id="BG" class="st0">
	<rect x="0" y="0" class="st1" width="320" height="320"/>
	<line class="st2" x1="160" y1="-0.5" x2="160" y2="339.5"/>
</g>
<g id="line" class="st0">
</g>
<g id="Layer_5" class="st0">
</g>
<g id="body">
	<path class="st3" d="M259.9,120l-2.2-3.9c0.1-28-12.7-39.4-27.6-48H203c-0.4-0.5-0.8-1-1.3-1.4c-0.7-0.7-1.8-0.8-2.7-0.4
		c-0.2,0.1-0.4,0.2-0.6,0.4c-1.1-0.9-2.2-1.8-3.3-2.5c-0.9-0.6-2.1-0.5-2.9,0.1c-0.2,0.1-0.3,0.3-0.5,0.4c-0.9-0.6-1.9-1.1-2.9-1.6
		c-0.1-0.1-0.2-0.1-0.3-0.1l-0.6,5.2H160H89.8c-14.9,8.7-27.6,20.1-27.6,48l-2.2,3.9C43,130.4,27.7,163.8,51.7,191
		c1.6,8.5,4.2,14.6,6.5,21.4c3.5,27.2,26.4,40,32.4,41.5c8.8,6.7,18.2,13.1,31,17.6c12,12.4,25,17.1,38.1,17.1c0.1,0,0.2,0,0.3,0
		s0.2,0,0.3,0c13.1,0,26.1-4.7,38.1-17.1c12.7-4.5,22.1-10.9,31-17.6c6-1.5,28.9-14.3,32.4-41.5c2.3-6.8,5-12.9,6.5-21.4
		C292.3,163.8,277,130.4,259.9,120z"/>
	<path class="st4" d="M290.8,81.5c1.5-5,0.9-9.2-0.3-12.4c-0.1-1.5-0.3-2.9-0.8-4.3c0-0.7,0-1.3,0-1.9c0.4-4.5-0.8-9-3.4-12.7
		c-0.5-3.3-1.8-6.3-3.9-8.8c-0.9-1.3-2-2.5-3.1-3.6c-0.1-0.1-0.3-0.3-0.5-0.4c-1.8-5.2-5.5-9.3-10.5-11.6c-2.6-1.2-5.5-1.8-8.5-1.8
		c-3,0-6,0.6-9,1.8c-1.5-0.3-3-0.4-4.6-0.4c-4.2,0-8.6,1-13.1,3c-0.7-0.1-1.5-0.1-2.3-0.1c-3.3,0-6.6,0.8-10.2,2.5c-0.3,0-0.7,0-1,0
		c-5.4,0-10.5,1.8-15.2,5.3c-2.4,0.2-4.7,0.7-6.8,1.6l0,0h0c-4.1,1.7-6.7,4.4-8.5,6.4c-6.7,1.9-9.9,5.4-11.8,8
		c-2.4,0.9-4.5,2.1-6.3,3.6c-1.7-0.5-3.6-1-5.7-1.2c-0.5-0.1-1-0.1-1.5-0.1c-1.3,0-2.6,0.2-3.8,0.6c-1.9-0.4-4.1-0.7-6.3-0.7l-0.1,0
		c-1.9,0-3.6,0.4-5.1,1.1c-1.7-1.3-3.7-2.4-5.9-3.3c-1.9-2.6-5.1-6.1-11.8-8c-1.8-2-4.5-4.7-8.5-6.4h0l0,0c-2.1-0.9-4.4-1.5-6.8-1.6
		c-4.7-3.5-9.8-5.3-15.2-5.3c-0.3,0-0.7,0-1,0c-3.5-1.7-6.9-2.5-10.2-2.5c-0.8,0-1.5,0-2.3,0.1c-4.5-2-8.9-3-13.1-3
		c-1.6,0-3.1,0.1-4.6,0.4c-3-1.2-6.1-1.8-9-1.8c-3,0-5.8,0.6-8.5,1.8c-5,2.2-8.7,6.4-10.5,11.6c-0.2,0.1-0.3,0.3-0.5,0.4
		c-1.2,1.1-2.2,2.3-3.1,3.6c-2.1,2.5-3.4,5.5-3.9,8.8c-2.6,3.8-3.8,8.2-3.4,12.7c0,0.6,0,1.3,0,1.9c-0.4,1.4-0.7,2.9-0.8,4.3
		c-1.1,3.1-1.8,7.4-0.3,12.4c-1.5,5.2-0.7,10.9,2.4,16.9c-0.6,5.8,1.3,11.2,5.6,16.1c0.7,8.3,7,13.4,10.5,16.3l2,0.9
		c-3.3,5.3-5.9,11.7-7,19.1c-0.6,4.3-0.7,8.6-0.2,12.8c-0.3,0.3-0.5,0.7-0.7,1c-2.6,4-1.9,9.4,1.7,14.1c-0.5,1-0.8,2.1-1,3.2
		c-0.4,3,0.4,6.1,2.3,8.5c-0.1,0.5-0.2,1-0.3,1.6c-0.3,3,0.7,6,2.9,8.2c0.1,3,1.5,5.7,3.8,7.5c0.9,3.8,3.7,5.8,6.2,7
		c1.4,1.3,3.1,2,4.7,2.4c0.4,1.8,1,3.6,1.6,5.3c0.1,0.4,0.2,0.7,0.2,0.7l0.1,0.4c0.5,1.4,1.2,2.9,1.9,4.4c2.9,6,6.9,11.4,11.8,16.1
		c4,4,10,9.1,17,11.5c2.4,1.9,4.7,3.6,6.4,4.7c2.7,1.7,4.2,2.6,5.5,3.1c0,0,0,0,0.1,0c6.1,3.8,12.1,6.7,18.6,9
		c10.6,10.6,22.2,16,34.5,16c0.1,0,0.3,0,0.4,0c0.1,0,0.3,0,0.4,0c12.3,0,23.9-5.4,34.5-16c6.5-2.3,12.4-5.2,18.6-9c0,0,0,0,0.1,0
		c1.2-0.5,2.8-1.3,5.5-3.1c1.7-1.1,4.1-2.7,6.4-4.7c6.9-2.4,13-7.4,17-11.5c4.9-4.7,8.9-10.1,11.8-16.1c0.8-1.5,1.4-3,1.9-4.4l0,0
		c0.1-0.2,0.2-0.4,0.2-0.6l0.1-0.4c0.6-1.7,1.1-3.5,1.6-5.3c1.5-0.4,3.3-1,4.7-2.4c2.5-1.2,5.2-3.2,6.2-7c2.3-1.8,3.7-4.6,3.8-7.5
		c2.2-2.3,3.3-5.2,2.9-8.2c-0.1-0.5-0.2-1-0.3-1.6c1.8-2.4,2.7-5.5,2.3-8.5c-0.2-1.1-0.5-2.2-1-3.2c3.6-4.8,4.3-10.1,1.7-14.1
		c-0.2-0.4-0.5-0.7-0.7-1c0.5-4.2,0.4-8.5-0.2-12.8c-1.1-7.4-3.7-13.8-7-19.1l2-0.9c3.6-2.9,9.8-8,10.5-16.3
		c4.3-4.9,6.1-10.3,5.6-16.1C291.6,92.4,292.4,86.7,290.8,81.5z"/>
	<g>
		<g>
			<g>
				<path class="st5" d="M278.6,53.2c0-2.8-0.8-5.2-2.5-7.1c-0.6-0.9-1.3-1.7-2.1-2.4c-0.6-0.6-1.4-1.1-2.1-1.6
					c-0.7-4.1-3.1-7.4-6.7-9.1c-3.9-1.8-8.7-1.4-13.6,1.1c-5-1.7-10.8-0.9-17.3,2.5c-3-0.9-6.6-0.8-12,2.2c-6.7-1-11.5,2.1-14.9,5.1
					c-2.4-0.2-4.6,0.1-6.6,1l0,0c-2.9,1.2-4.7,3.2-6.3,5c-0.4,0.4-0.8,0.9-1.1,1.2c-6.6,1.3-8.8,4.3-10.3,6.5
					c-0.2,0.4-0.5,0.7-0.7,1c-8.5,2.4-10.1,7.4-11.5,11.7c-0.2,0.5-0.3,0.9-0.5,1.4l1.4,3.7c83,63,89.3,48.5,91.4,49.5l4-0.5
					c3.6-2.9,8.4-6.8,7.6-13.3c6-5.5,6.3-10.3,5.3-14.3c1.9-3,5.3-9.3,2.2-15.4c1.8-3.9,1.9-7.5,0.3-10.8c0.1-1.7-0.2-3.3-0.9-4.9
					c0.1-1.1,0.1-2.2,0.1-3.2C282.2,59.2,281.1,55.8,278.6,53.2z"/>
				<path class="st3" d="M224.9,81.4c0.4,0.1,0.9,0.2,1.3,0.3c1.1,0.3,2,1,2.7,2c0.4,0.3,0.8,0.5,1.3,0.8c0.6,0.4,1.2,0.8,1.8,1.2
					c0.6,0.4,0.9,1,1,1.8c0.6,0.2,1.2,0.4,1.9,0.6l0.6,0.2c0.8,0.3,1.5,0.8,2.1,1.5c0.3,0.4,0.6,0.9,0.8,1.5c0.1,0.3,0.2,0.7,0.2,1
					c0.1,0.3,0.1,0.7,0,1.1c0,0.2,0,0.4-0.1,0.7c0.4,0.2,0.9,0.3,1.3,0.5c0.2,0.1,0.5,0.2,0.7,0.3c0.5,0.2,1.1,0.5,1.6,0.8
					c1.2,0.6,2.1,1.7,2.4,3.1c0.1,0.3,0.1,0.6,0.2,0.9c0,0.3,0,0.7,0,1c1.1,0.6,1.7,1.3,2.3,1.9c0.4,0.5,0.9,1,1.7,1.5
					c1.2,0.8,1.9,2.1,2.1,3.5c0.1,0,0.1,0.1,0.2,0.1c-0.1-0.3-0.2-0.7-0.3-1c1.2-1.3,2.3-2.7,3.2-4.5c0.6-1.1,0.5-2.6-0.1-3.7
					c-0.1-0.1-0.2-0.2-0.2-0.4c0.7-1.2,1.4-2.4,2-3.7c0.6-1.2,0.4-2.8-0.4-3.9c-0.1-0.2-0.3-0.3-0.4-0.5c0.7-1.4,1.3-3,1.6-4.7
					c0-0.2,0.1-0.4,0.1-0.6c0-1.1-0.4-2.3-1.3-3c0,0,0,0,0,0c0,0,0,0,0,0c0.4-1,0.7-2.3,1-3.7c0.2-1.1-0.1-2.2-0.7-3l0.7-0.7
					c0.3-0.3,0.6-0.8,0.7-1.2c0.1-0.4,0.2-0.8,0.4-1.1c0.1-0.4,0.2-0.7,0.2-1.1c0-0.8-0.2-1.6-0.7-2.3c-0.1-0.1-0.2-0.3-0.3-0.4
					c-1.1-0.1-4.6-0.5-4.6-0.5c0.1,0,0.3-0.1,0.4-0.1c-0.3,0-0.5-0.1-0.5-0.1c-0.4-1-1.3-1.8-2.3-1.9c-1.6-0.3-3.2,0-4.5,0.4
					c0-0.1-0.1-0.2-0.1-0.2c-0.8-1.2-2.1-1.7-3.3-1.3c-0.6,0.2-0.7-0.3-1.2-0.1c-0.1-0.1-0.6,0.6-0.7,0.4c-0.8-1.1-2.1-1.5-3.3-0.9
					c-1.1,0.5-2,1-2.8,1.5c0,0-0.1-0.1-0.1-0.1c-1-1-2.4-1.2-3.5-0.4c-1,0.7-1.8,1.5-2.5,2.3c0,0,0,0-0.1-0.1
					c-1.1-0.8-2.6-0.7-3.5,0.3c-0.6,0.6-1.1,1.3-1.6,2c-0.2-0.1-0.4-0.2-0.6-0.3c-1.1-0.4-2.3,0.1-3,1.2c-0.8,1.3-1.4,2.5-2,3.7
					c-0.1,0-0.2-0.1-0.4-0.1c-1.1-0.2-2.2,0.4-2.8,1.5c-0.1,0.1-0.1,0.3-0.2,0.4c3.9,1.6,7.7,3.4,11.2,5.3L224.9,81.4z"/>
			</g>
			<g>
				<path class="st5" d="M41.4,53.2c0-2.8,0.8-5.2,2.5-7.1c0.6-0.9,1.3-1.7,2.1-2.4c0.6-0.6,1.4-1.1,2.1-1.6
					c0.7-4.1,3.1-7.4,6.7-9.1c3.9-1.8,8.7-1.4,13.6,1.1c5-1.7,10.8-0.9,17.3,2.5c3-0.9,6.6-0.8,12,2.2c6.7-1,11.5,2.1,14.9,5.1
					c2.4-0.2,4.6,0.1,6.6,1l0,0c2.9,1.2,4.7,3.2,6.3,5c0.4,0.4,0.8,0.9,1.1,1.2c6.6,1.3,8.8,4.3,10.3,6.5c0.2,0.4,0.5,0.7,0.7,1
					c8.5,2.4,10.1,7.4,11.5,11.7c0.2,0.5,0.3,0.9,0.5,1.4l-1.4,3.7c-83,63-89.3,48.5-91.4,49.5l-4-0.5c-3.6-2.9-8.4-6.8-7.6-13.3
					c-6-5.5-6.3-10.3-5.3-14.3c-1.9-3-5.3-9.3-2.2-15.4c-1.8-3.9-1.9-7.5-0.3-10.8c-0.1-1.7,0.2-3.3,0.9-4.9
					c-0.1-1.1-0.1-2.2-0.1-3.2C37.8,59.2,38.9,55.8,41.4,53.2z"/>
				<path class="st3" d="M95.1,81c-0.4,0.1-0.9,0.2-1.3,0.3c-1.1,0.3-2,1-2.7,2c-0.4,0.3-0.8,0.5-1.3,0.8c-0.6,0.4-1.2,0.8-1.8,1.2
					c-0.6,0.4-0.9,1-1,1.8c-0.6,0.2-1.2,0.4-1.9,0.6l-0.6,0.2c-0.8,0.3-1.5,0.8-2.1,1.5c-0.3,0.4-0.6,0.9-0.8,1.5
					c-0.1,0.3-0.2,0.7-0.2,1c-0.1,0.3-0.1,0.7,0,1.1c0,0.2,0,0.4,0.1,0.7c-0.4,0.2-0.9,0.3-1.3,0.5c-0.2,0.1-0.5,0.2-0.7,0.3
					c-0.5,0.2-1.1,0.5-1.6,0.8c-1.2,0.6-2.1,1.7-2.4,3.1c-0.1,0.3-0.1,0.6-0.2,0.9c0,0.3,0,0.7,0,1c-1.1,0.6-1.7,1.3-2.3,1.9
					c-0.4,0.5-0.9,1-1.7,1.5c-1.2,0.8-1.9,2.1-2.1,3.5c-0.1,0-0.1,0.1-0.2,0.1c0.1-0.3,0.2-0.7,0.3-1c-1.2-1.3-2.3-2.7-3.2-4.5
					c-0.6-1.1-0.5-2.6,0.1-3.7c0.1-0.1,0.2-0.2,0.2-0.4c-0.7-1.2-1.4-2.4-2-3.7c-0.6-1.2-0.4-2.8,0.4-3.9c0.1-0.2,0.3-0.3,0.4-0.5
					c-0.7-1.4-1.3-3-1.6-4.7c0-0.2-0.1-0.4-0.1-0.6c0-1.1,0.4-2.3,1.3-3c0,0,0,0,0,0c0,0,0,0,0,0c-0.4-1-0.7-2.3-1-3.7
					c-0.2-1.1,0.1-2.2,0.7-3L63.8,74c-0.3-0.3-0.6-0.8-0.7-1.2c-0.1-0.4-0.2-0.8-0.4-1.1c-0.1-0.4-0.2-0.7-0.2-1.1
					c0-0.8,0.2-1.6,0.7-2.3c0.1-0.1,0.2-0.3,0.3-0.4c1.1-0.1,4.6-0.5,4.6-0.5c-0.1,0-0.3-0.1-0.4-0.1c0.3,0,0.5-0.1,0.5-0.1
					c0.4-1,1.3-1.8,2.3-1.9c1.6-0.3,3.2,0,4.5,0.4c0-0.1,0.1-0.2,0.1-0.2c0.8-1.2,2.1-1.7,3.3-1.3c0.6,0.2,0.7-0.3,1.2-0.1
					c0.1-0.1,0.6,0.6,0.7,0.4c0.8-1.1,2.1-1.5,3.3-0.9c1.1,0.5,2,1,2.8,1.5c0,0,0.1-0.1,0.1-0.1c1-1,2.4-1.2,3.5-0.4
					c1,0.7,1.8,1.5,2.5,2.3c0,0,0,0,0.1-0.1c1.1-0.8,2.6-0.7,3.5,0.3c0.6,0.6,1.1,1.3,1.6,2c0.2-0.1,0.4-0.2,0.6-0.3
					c1.1-0.4,2.3,0.1,3,1.2c0.8,1.3,1.4,2.5,2,3.7c0.1,0,0.2-0.1,0.4-0.1c1.1-0.2,2.2,0.4,2.8,1.5c0.1,0.1,0.1,0.3,0.2,0.4
					c-3.9,1.6-7.7,3.4-11.2,5.3L95.1,81z"/>
			</g>
		</g>
		<path class="st6" d="M269.5,151.9c-2.1-13.7-10.4-23.9-17.8-28c-0.4-0.2-0.7-0.4-1.1-0.6c-0.2-0.4-0.4-0.7-0.6-1.1
			c-0.7-1.2-1.4-2.5-2.2-3.7c-2.2-3.7-5.3-7-8.9-10c0,0,0.1-0.1,0.1-0.1c0.4-0.5,0.6-1,0.4-1.5c-0.1-0.2-0.2-0.4-0.3-0.6
			c-1.4-1.5-3.1-2.7-5.1-3.7c-0.1,0-0.1-0.1-0.2-0.1c-0.8-0.4-1.6-0.8-2.4-1.2c-0.5-0.2-1-0.4-1.4-0.6c-0.4-0.2-0.8-0.3-1.2-0.5
			c-0.1,0-0.2-0.1-0.2-0.1c0.1,0,0.3-0.1,0.6-0.1c0.2,0,0.4-0.1,0.6-0.1c0.9-0.3,1.7-0.8,2-1.5c0.2-0.3,0.2-0.7,0.1-1
			c-0.1-0.4-0.4-0.8-0.9-1.1c-1-0.5-2-1-3-1.4c-1.5-0.7-3.1-1.3-4.7-1.9c0.1,0,0.2,0,0.3,0c1.3-0.1,2.4-0.7,2.8-1.6c0,0,0,0,0,0
			c0.4-0.9,0-1.8-1-2.2c-0.1,0-0.2-0.1-0.3-0.1c-3.8-1.6-6.9-2.1-9.4-2.6c0.1-0.1,0.3-0.2,0.5-0.3c1.1-0.4,1.9-1.1,2-2
			c0.1-0.8-0.6-1.5-1.7-1.8c-3.3-0.7-6.2-0.9-9.2-1c0.2-0.4,0.4-0.7,0.7-0.9c0.9-0.6,1.3-1.4,1.1-2.1c0-0.1-0.1-0.2-0.2-0.4
			c-0.3-0.5-1-0.9-1.8-1c-0.7-0.1-1.4-0.2-2.1-0.2c-0.3,0-0.6,0-1-0.1c-2-0.1-3.9-0.1-5.9,0c0,0,0,0,0,0c0.1-0.2,0.4-0.4,0.8-0.6
			c0.2-0.1,0.4-0.3,0.5-0.4c0.4-0.4,0.6-0.8,0.6-1.3c0-0.1,0-0.3-0.1-0.4c-0.1-0.1-0.1-0.3-0.2-0.4c-0.2-0.2-0.4-0.4-0.6-0.5
			c-0.4-0.2-0.9-0.4-1.5-0.4c-0.3,0-0.5,0-0.8,0c-0.6,0-1.1,0-1.7,0c-3.2-2.9-8.1-5.4-13.5-7.3c-0.7-0.2-1.5-0.3-2.3-0.3
			c-1-0.5-2-1-3.1-1.5c-1.1-0.5-2.6-0.5-3.6,0c-0.4,0.2-0.6,0.4-0.8,0.6c-2-0.9-4.5-1.8-7.4-2.1c-1.2-0.1-2.4,0.2-3,0.8
			c-0.1,0.1-0.1,0.1-0.2,0.2c-2.6-0.6-5.2-1.1-7.7-1.2c-1.3,0-2.3,0.5-2.7,1.2c0,0.1-0.1,0.2-0.1,0.2c-2.2-0.3-4.6-0.5-7.1-0.4
			c-1.2,0-2.1,0.5-2.4,1.2c-0.1,0.2-0.1,0.4-0.1,0.6c-1.9-0.1-3.8,0-5.6,0.1c-1.2,0.1-2.2,0.6-2.4,1.3c-0.1,0.2,0,0.5,0,0.7
			c-2.1,0-4.2,0.2-6.2,0.7c-1.1,0.3-1.7,0.9-1.6,1.7c0,0.1,0.1,0.3,0.2,0.4c-1.5,0.1-3.1,0.2-4.9,0.7c-0.9,0.2-1.5,0.8-1.6,1.5
			c0,0.5,0.4,1.1,1,1.5c-0.1,0.1-0.2,0.1-0.2,0.2c0,0.1-0.1,0.1-0.1,0.2c-0.8,0.2-1.6,0.3-2.3,0.4c-1.3,0.2-2.1,0.9-2,1.8
			c0.1,0.3,0.2,0.5,0.4,0.8c-0.1,0-0.2,0-0.3,0c-0.3,0-0.6,0-1,0.1c-0.7,0.1-1.4,0.1-2.1,0.2c-0.8,0.1-1.5,0.5-1.8,1
			c-0.1,0.1-0.1,0.2-0.2,0.4c-0.2,0.7,0.2,1.5,1.1,2.1c0.3,0.2,0.5,0.4,0.7,0.9c-3,0.1-5.9,0.3-9.2,1c-1.1,0.2-1.8,0.9-1.7,1.8
			c0.1,0.8,0.8,1.6,2,2c0.2,0.1,0.4,0.2,0.5,0.3c-2.5,0.4-5.6,1-9.4,2.6c-0.1,0-0.2,0.1-0.3,0.1c-1,0.4-1.4,1.3-1,2.2c0,0,0,0,0,0
			c0.4,0.9,1.6,1.5,2.8,1.6c0.1,0,0.2,0,0.3,0c-1.6,0.5-3.1,1.2-4.7,1.9c-1,0.5-2,0.9-3,1.4c-0.5,0.3-0.8,0.7-0.9,1.1
			c-0.1,0.3,0,0.6,0.1,1c0.3,0.7,1.1,1.2,2,1.5c0.2,0.1,0.4,0.1,0.6,0.1c0.3,0,0.4,0.1,0.6,0.1c-0.1,0-0.2,0.1-0.2,0.1
			c-0.4,0.2-0.8,0.3-1.2,0.5c-0.5,0.2-1,0.4-1.4,0.6c-0.8,0.4-1.6,0.7-2.4,1.2c-0.1,0-0.1,0.1-0.2,0.1c-1.9,1-3.7,2.3-5.1,3.7
			c-0.2,0.2-0.3,0.4-0.3,0.6c-0.1,0.5,0,1,0.4,1.5c0,0,0.1,0.1,0.1,0.1c-3.7,3.1-6.8,6.4-8.9,10c-0.7,1.2-1.4,2.5-2.2,3.7
			c-0.2,0.4-0.4,0.7-0.6,1.1c-0.4,0.2-0.7,0.4-1.1,0.6c-7.3,4.1-15.7,14.2-17.8,28c-1.3,8.5-0.5,21.5,10.6,34.4
			c0.3,0.4,0.6,0.7,0.9,1.1c0.1,0.5,0.2,0.9,0.2,1.4c1.1,6.3,2.9,11.1,4.8,16.3c0.5,1.4,1,2.9,1.5,4.3c0.1,0.2,0.1,0.3,0.2,0.5
			c0,0.2,0,0.3,0.1,0.5c3.2,25.2,24.6,36.2,28.4,37.1c0.3,0.1,0.7,0.2,1,0.3c0.3,0.2,0.5,0.4,0.8,0.6c9.4,7.1,17.9,12.6,29.4,16.6
			c0.4,0.1,0.7,0.3,1.1,0.4c0.3,0.3,0.5,0.5,0.8,0.8c8.5,8.6,18.5,14.2,29.8,14.1c11.3,0.1,21.3-5.5,29.8-14.1
			c0.3-0.3,0.5-0.5,0.8-0.8c0.4-0.1,0.7-0.3,1.1-0.4c11.4-4,20-9.5,29.4-16.6c0.3-0.2,0.5-0.4,0.8-0.6c0.3-0.1,0.7-0.2,1-0.3
			c3.8-0.9,25.2-11.9,28.4-37.1c0-0.2,0-0.3,0.1-0.5c0.1-0.2,0.1-0.3,0.2-0.5c0.5-1.5,1-2.9,1.5-4.3c1.9-5.1,3.6-10,4.8-16.3
			c0.1-0.5,0.2-0.9,0.2-1.4c0.3-0.4,0.6-0.7,0.9-1.1C270,173.4,270.8,160.4,269.5,151.9z"/>
		<g>
			<path class="st5" d="M268.5,181.4l-3-1.2c0-0.8,3.4-4.5,3.9-5.2c1.7-1.8,3.2-4.6,2.2-6.1c-2.6-4.5-14.2,1.6-23.9,8
				c0.8-1.8,1.7-4.8-0.6-6.1c-4.5-2.6-16.5,7.4-17.9,8.6c-7.6,6.5-14.5,15-12.9,20.9c0.4,1.4,0.9,2.8,1.2,4.2
				c0.1,0.6,0.3,1.2,0.4,1.7c1.3,4.2,2,8.6,1.9,13c-0.2,11,0.2,21.5-9.3,33.2c-2.9,3.4-3.2,4.9,0.3,3.3c0.5,0,6.3-3.5,10.8-7.4
				c10.6-2.8,23.2-16.9,27.1-27.6c0,0,2.2-7.2,2.2-9.9c0-1.7,7.8-0.9,6-2.5c1.9-0.6,6.2-1.9,3.2-4.8c-0.3-0.2,3.3-1.8,3.3-1.8
				c1.6-0.8,1.6-3.3-0.1-4c-0.4-0.5,3.1-2.6,3.3-2.9c2.3-1.9,0.3-4.1-1.7-5.2c-0.7-0.9,3.3-3.3,3.7-3.9
				C270.1,184.6,270.1,182.1,268.5,181.4z"/>
			<path class="st5" d="M51.5,181.4l3-1.2c0-0.8-3.4-4.5-3.9-5.2c-1.7-1.8-3.2-4.6-2.2-6.1c2.6-4.5,14.2,1.6,23.9,8
				c-0.8-1.8-1.7-4.8,0.6-6.1c4.5-2.6,16.5,7.4,17.9,8.6c7.6,6.5,14.5,15,12.9,20.9c-0.4,1.4-0.9,2.8-1.2,4.2
				c-0.1,0.6-0.3,1.2-0.4,1.7c-1.3,4.2-2,8.6-1.9,13c0.2,11-0.2,21.5,9.3,33.2c2.9,3.4,3.2,4.9-0.3,3.3c-0.5,0-6.3-3.5-10.8-7.4
				c-10.6-2.8-23.2-16.9-27.1-27.6c0,0-2.2-7.2-2.2-9.9c0-1.7-7.8-0.9-6-2.5c-1.9-0.6-6.2-1.9-3.2-4.8c0.3-0.2-3.3-1.8-3.3-1.8
				c-1.6-0.8-1.6-3.3,0.1-4c0.4-0.5-3.1-2.6-3.3-2.9c-2.3-1.9-0.3-4.1,1.7-5.2c0.7-0.9-3.3-3.3-3.7-3.9
				C49.9,184.6,49.9,182.1,51.5,181.4z"/>
		</g>
		<g>
			<path class="st5" d="M243.5,148.9L243.5,148.9l-0.2-0.1c-0.3,0-0.5-0.1-0.8-0.1c-0.2,0-0.3-0.1-0.4-0.2c-0.1-0.2-0.1-0.3-0.1-0.5
				c0.2-0.4,0.5-0.8,0.9-1c0.6-0.3,1-0.9,0.9-1.5c-0.1-0.6-0.5-1.1-1.2-1.2c-3-0.7-5.6-0.7-8.2-0.8c-0.2,0-0.3-0.1-0.4-0.2
				c-0.1-0.1-0.2-0.3-0.2-0.5c0.1-0.6,0.2-1.2,0.7-1.7c0.5-0.5,0.6-1.1,0.4-1.6c0,0,0-0.1,0-0.1c-0.2-0.4-0.7-0.7-1.2-0.7
				c-0.3,0-0.7-0.1-1-0.1c-2.4-0.2-4.7-0.1-6.9,0.2c-0.2,0-0.4-0.1-0.5-0.1c-0.2-0.1-0.2-0.3-0.2-0.5c0.1-0.5,0.4-1,0.9-1.4
				c0.5-0.5,0.6-1.1,0.3-1.7c-0.3-0.5-0.8-0.8-1.5-0.8c-2.7,0.1-5.2,0.4-7.7,0.7c-0.8,0.1-1.5,0.2-2.3,0.3c-0.3,0-0.4-0.1-0.5-0.2
				c-0.1-0.1-0.2-0.4-0.1-0.7c0.1-0.3,0.3-0.5,0.5-0.9c0.3-0.5,0.3-1.1-0.1-1.6c-0.3-0.4-0.9-0.6-1.4-0.5
				c-4.8,0.4-11.2,1.3-15.9,4.1c-1.4,0.8-2.9,1.5-4.4,2.2c-1.2,0.6-2.4,1.3-3.6,2.2c-0.8,0.6-1.5,1.2-2.2,1.7l-0.4,0.4
				c-0.9,0.8-1.9,1.8-2.9,2.8c-1.7,1.7-3.3,3.7-5,5.9c-0.5,0.6-1,1.3-1.4,1.9c-0.4,0.6-0.9,1.2-1.3,1.8c-0.6,0.9-1.2,1.8-1.8,2.7
				c-2.4,3.8-6.4,10.9-5.9,15.6c0.2,1.7,0.9,3,2.2,3.9c1.1,0.7,2.4,1.1,4,1.1c1,0,2.2-0.2,3.5-0.5c0.4-0.1,0.7-0.2,1.1-0.3
				c0.3-0.1,0.6-0.2,0.9-0.3c0.3-0.1,0.6-0.2,0.9-0.3c0.5-0.2,0.9-0.4,1.4-0.6c1.1,3.4,4.3,6.3,8.8,8c0.6,0.2,1.2,0.4,1.9,0.6
				c0.4,0.1,0.8,0.2,1.3,0.3c0.5,0.1,0.9,0.2,1.4,0.3c1.2,0.2,2.4,0.3,3.6,0.3c0.3,0,0.7,0,1,0c0.9,0,1.8-0.2,2.6-0.4l0.1,0
				c0.1,0,0.2-0.1,0.3-0.1c0.6-0.2,1.2-0.4,1.9-0.7c2.6-1.1,4.7-3.1,6-5.7c1.4-2.8,1.8-6.1,1.1-9.3c-0.1-0.4-0.2-0.9-0.4-1.3
				c-0.2-0.6-0.4-1.2-0.7-1.8c1.7-0.7,3.5-1.7,5.1-3c1.3-1,2.4-2.1,3.4-3.2c0.4-0.5,1-0.8,1.8-0.9c0.7-0.1,1.5-0.2,2.2-0.4
				c0.9-0.2,1.8-0.4,2.7-0.5c0.4-0.1,0.9-0.2,1.3-0.3c0.7-0.1,1.3-0.3,1.9-0.5c0.8-0.2,1.7-0.4,2.5-0.6c0.8-0.2,1.6-0.5,2.4-0.7
				c0.8-0.3,1.6-0.5,2.3-0.8c0.6-0.2,1.1-0.4,1.7-0.6c0.5-0.2,1.1-0.4,1.5-0.7c0.6-0.3,1.2-0.6,1.7-0.9c0.6-0.3,1.1-0.7,1.6-1
				c0.6-0.5,1-0.9,1.2-1.3C244.5,150,244.2,149.3,243.5,148.9z"/>
			<path d="M206.5,170.2c-0.1-0.3-0.1-0.6-0.2-0.8c-0.7-2.3-2.2-4.2-4.2-5.3c-1.3-0.8-2.7-1.2-4.1-1.2c-0.7-0.3-1.5-0.5-2.3-0.5
				c-2.8,0-5.1,1.9-5.6,4.5c0,0-0.1,0.1-0.1,0.1c-0.1,0.2-0.3,0.3-0.4,0.5c-1.8,2.3-2.5,4.7-1.8,6.7c0.6,2,2.6,3.7,5.5,4.8
				c0.4,0.2,0.8,0.3,1.2,0.4c0.3,0.1,0.6,0.2,0.9,0.2c0.3,0.1,0.6,0.1,0.9,0.2c1.1,0.2,2.1,0.2,3.1,0.2c0.6,0,1.1-0.1,1.6-0.2
				c0.1,0,0.2,0,0.2-0.1c0.4-0.1,0.8-0.2,1.1-0.4c1.5-0.7,2.7-1.8,3.5-3.4C206.7,174.2,206.9,172.2,206.5,170.2z"/>
			<ellipse class="st5" cx="195.7" cy="167.9" rx="3.6" ry="3.4"/>
			<path class="st5" d="M75.8,150.6c0.2,0.4,0.6,0.9,1.2,1.3c0.4,0.3,0.9,0.7,1.6,1c0.5,0.3,1.1,0.6,1.7,0.9c0.5,0.2,1,0.4,1.5,0.7
				c0.5,0.2,1.1,0.4,1.7,0.6c0.7,0.3,1.5,0.5,2.3,0.8c0.8,0.2,1.6,0.5,2.4,0.7c0.8,0.2,1.6,0.4,2.5,0.6c0.6,0.2,1.3,0.3,1.9,0.5
				c0.4,0.1,0.9,0.2,1.3,0.3c0.9,0.2,1.8,0.4,2.7,0.5c0.7,0.1,1.5,0.3,2.2,0.4c0.7,0.1,1.3,0.4,1.8,0.9c1,1.1,2.1,2.2,3.4,3.2
				c1.6,1.3,3.3,2.2,5.1,3c-0.3,0.6-0.5,1.2-0.7,1.8c-0.1,0.4-0.3,0.9-0.4,1.3c-0.7,3.2-0.3,6.5,1.1,9.3c1.3,2.6,3.4,4.5,6,5.7
				c0.7,0.3,1.3,0.5,1.9,0.7c0.1,0,0.2,0,0.3,0.1l0.1,0c0.8,0.2,1.7,0.3,2.6,0.4c0.3,0,0.7,0,1,0c1.2,0,2.4-0.1,3.6-0.3
				c0.5-0.1,0.9-0.2,1.4-0.3c0.4-0.1,0.8-0.2,1.3-0.3c0.7-0.2,1.3-0.4,1.9-0.6c4.5-1.7,7.7-4.6,8.8-8c0.5,0.2,0.9,0.4,1.4,0.6
				c0.3,0.1,0.6,0.2,0.9,0.3c0.3,0.1,0.6,0.2,0.9,0.3c0.4,0.1,0.7,0.2,1.1,0.3c1.3,0.3,2.4,0.5,3.5,0.5c1.6,0,3-0.4,4-1.1
				c1.2-0.9,2-2.2,2.2-3.9c0.5-4.6-3.5-11.8-5.9-15.6c-0.6-0.9-1.2-1.8-1.8-2.7c-0.4-0.6-0.8-1.2-1.3-1.8c-0.5-0.7-1-1.3-1.4-1.9
				c-1.7-2.1-3.3-4.1-5-5.9c-1-1-2-2-2.9-2.8l-0.4-0.4c-0.7-0.6-1.4-1.1-2.2-1.7c-1.2-0.9-2.5-1.6-3.6-2.2c-1.5-0.7-3-1.4-4.4-2.2
				c-4.6-2.8-11-3.6-15.9-4.1c-0.6-0.1-1.1,0.2-1.4,0.5c-0.4,0.4-0.4,1.1-0.1,1.6c0.2,0.3,0.3,0.6,0.5,0.9c0.1,0.3,0,0.5-0.1,0.7
				c-0.1,0.1-0.3,0.2-0.5,0.2c-0.8-0.1-1.6-0.2-2.3-0.3c-2.4-0.3-5-0.6-7.7-0.7c-0.6,0-1.2,0.3-1.5,0.8c-0.3,0.5-0.2,1.2,0.3,1.7
				c0.5,0.5,0.8,0.9,0.9,1.4c0,0.2,0,0.4-0.2,0.5c-0.1,0.1-0.2,0.2-0.5,0.1c-2.2-0.3-4.5-0.4-6.9-0.2c-0.3,0-0.7,0.1-1,0.1
				c-0.5,0.1-1,0.3-1.2,0.7c0,0,0,0.1,0,0.1c-0.2,0.5-0.1,1.2,0.4,1.6c0.5,0.5,0.6,1,0.7,1.7c0,0.2,0,0.4-0.2,0.5
				c-0.1,0.1-0.3,0.2-0.4,0.2c-2.6,0-5.2,0.1-8.2,0.8c-0.7,0.1-1.1,0.6-1.2,1.2c-0.1,0.6,0.3,1.2,0.9,1.5c0.5,0.2,0.8,0.5,0.9,1
				c0.1,0.2,0,0.4-0.1,0.5c-0.1,0.1-0.2,0.2-0.4,0.2c-0.3,0-0.5,0.1-0.8,0.1l-0.1,0l-0.1,0.1C75.8,149.3,75.5,150,75.8,150.6z"/>
			<path d="M113.5,170.2c0.1-0.3,0.1-0.6,0.2-0.8c0.7-2.3,2.2-4.2,4.2-5.3c1.3-0.8,2.7-1.2,4.1-1.2c0.7-0.3,1.5-0.5,2.3-0.5
				c2.8,0,5.1,1.9,5.6,4.5c0,0,0.1,0.1,0.1,0.1c0.1,0.2,0.3,0.3,0.4,0.5c1.8,2.3,2.5,4.7,1.8,6.7c-0.6,2-2.6,3.7-5.5,4.8
				c-0.4,0.2-0.8,0.3-1.2,0.4c-0.3,0.1-0.6,0.2-0.9,0.2c-0.3,0.1-0.6,0.1-0.9,0.2c-1.1,0.2-2.1,0.2-3.1,0.2c-0.6,0-1.1-0.1-1.6-0.2
				c-0.1,0-0.2,0-0.2-0.1c-0.4-0.1-0.8-0.2-1.1-0.4c-1.5-0.7-2.7-1.8-3.5-3.4C113.3,174.2,113.1,172.2,113.5,170.2z"/>
			<ellipse class="st5" cx="124.3" cy="167.9" rx="3.6" ry="3.4"/>
		</g>
		<path class="st5" d="M180.8,200.3c-6.3-7.2-13.5-9.2-20.8-8.8c-7.3-0.5-14.5,1.6-20.8,8.8c-4.4,0.9-21.1,5.3-20.9,24.5
			c0.2,10,5.8,17.7,13.1,21.7l0.1-0.7c0-0.2,0.1-0.3,0.2-0.4c0.1-0.1,0.3-0.2,0.5-0.1c1.8,0.2,2.8,0.8,3.2,1.9
			c0.1,0.4,0.1,0.7,0.1,1.1c0,0,0.1,0,0.1,0c1.1,5.9,5.4,11.7,11.9,14.7c3.9,1.8,8.2,2.4,12.5,2.1c4.3,0.3,8.7-0.3,12.5-2.1
			c6.5-3,10.9-8.7,11.9-14.7c0,0,0.1,0,0.1,0c-0.1-0.4,0-0.8,0.1-1.1c0.3-1,1.4-1.7,3.2-1.9c0.2,0,0.3,0,0.5,0.1
			c0.1,0.1,0.2,0.3,0.2,0.4l0.1,0.7c7.3-4,12.9-11.7,13.1-21.7C202,205.6,185.2,201.2,180.8,200.3z"/>
		<path class="st4" d="M173.6,209.9c0-0.1,0-0.2,0-0.3c-0.1-0.6-0.2-1.1-0.3-1.6c-0.7-2.3-2.3-4.3-4.6-5.8c-2.4-1.6-5.5-2.5-8.6-2.6
			c-0.2,0-0.5,0-0.7,0c-0.5,0-1,0-1.5,0.1c-4,0.3-7.6,1.8-10.1,4.1c-2.5,2.3-3.7,5.2-3.4,8.1c0,0.4,0.1,0.8,0.2,1.2
			c0.1,0.5,0.3,1,0.5,1.6c0.2,0.5,0.4,1,0.6,1.5c0.6,1.3,1.5,2.6,2.4,3.8c0.2,0.2,0.3,0.4,0.5,0.6c0.2,0.2,0.4,0.4,0.6,0.6
			c0.2,0.2,0.5,0.5,0.7,0.7c3.1,3,6.8,4.6,10.2,4.5c0.2,0,0.3,0,0.5,0c3.5-0.3,7-2.5,9.6-6c0.4-0.5,0.7-1,1-1.6
			c0.2-0.4,0.4-0.7,0.6-1.1c0.2-0.4,0.4-0.8,0.6-1.2c0.6-1.4,1-2.8,1.2-4.1C173.6,211.4,173.6,210.7,173.6,209.9z"/>
	</g>
</g>
</svg>
