M48
; DRILL file {KiCad (5.1.4)-1} date 8/22/2020 7:54:57 PM
; FORMAT={-:-/ absolute / inch / decimal}
; #@! TF.CreationDate,2020-08-22T19:54:57-05:00
; #@! TF.GenerationSoftware,Kicad,Pcbnew,(5.1.4)-1
FMAT,2
INCH
T1C0.0098
T2C0.0157
T3C0.0197
T4C0.0394
T5C0.0406
T6C0.0523
T7C0.1063
T8C0.1272
T9C0.0256
%
G90
G05
T1
X3.2088Y-0.9763
X3.2984Y-1.2394
X3.3093Y-0.9763
X3.3613Y-0.1513
X3.4004Y-1.2413
X3.4531Y-0.7311
X3.4563Y-0.1513
X3.4788Y0.0812
X3.4813Y-0.6788
X3.4884Y-0.1833
X3.4913Y-0.4438
X3.4913Y-0.6288
X3.504Y-1.2324
X3.5328Y-0.2453
X3.5413Y-0.4438
X3.5413Y-0.6288
X3.5513Y0.1812
X3.5669Y0.0887
X3.5691Y0.1512
X3.5862Y-0.6788
X3.5913Y-0.4438
X3.5913Y-0.6288
X3.61Y-1.2275
X3.6105Y-0.9763
X3.6113Y0.0837
X3.6378Y0.2689
X3.6387Y-0.6788
X3.6413Y-0.4438
X3.6413Y-0.6288
X3.6638Y0.0862
X3.6912Y-0.6788
X3.6913Y-0.4438
X3.6913Y-0.6288
X3.6981Y-1.2146
X3.7013Y-0.8838
X3.7109Y-0.9763
X3.7118Y-0.8542
X3.7163Y0.0887
X3.7238Y-0.9138
X3.7388Y-0.4438
X3.7413Y-0.6288
X3.7437Y-0.6788
X3.7513Y0.1837
X3.7588Y-0.9363
X3.7638Y0.0862
X3.7816Y0.1367
X3.7913Y-0.4438
X3.7913Y-0.6288
X3.7945Y-1.2264
X3.7963Y-0.8035
X3.7963Y-0.8294
X3.8113Y-0.9763
X3.8138Y0.0837
X3.8163Y-0.9338
X3.8413Y-0.4438
X3.8413Y-0.6288
X3.8487Y-0.6788
X3.8563Y0.0462
X3.8663Y0.1237
X3.8688Y-0.7238
X3.8913Y-0.3113
X3.8938Y-0.3888
X3.8988Y-0.6788
X3.913Y-0.9763
X3.9163Y0.0637
X3.9163Y-0.5438
X3.9463Y0.1585
X3.9513Y-0.6788
X3.9709Y-1.3327
X3.9738Y-0.1848
X3.9753Y-1.1428
X3.997Y0.1258
X4.0013Y-0.6788
X4.0038Y-0.4438
X4.0038Y-0.6288
X4.0113Y-0.3138
X4.0134Y-0.9763
X4.0238Y0.0662
X4.0358Y-1.2376
X4.0463Y-0.5413
X4.0638Y-1.25
X4.0763Y-0.0688
X4.0838Y0.1149
X4.0963Y-0.6788
X4.1055Y-1.2433
X4.1126Y-0.9763
X4.1363Y0.0962
X4.1436Y-0.6788
X4.1713Y-1.2453
X4.1763Y-0.0713
X4.1909Y-0.6788
X4.213Y-0.9763
X4.2382Y-0.6788
X4.2657Y-1.2472
X4.2713Y-0.1463
X4.2763Y-0.1713
X4.2854Y-0.6788
X4.2888Y0.0662
X4.3327Y-0.6788
X4.3354Y-1.2453
X4.3413Y0.1258
X4.3713Y-1.2472
X4.38Y-0.6788
X4.3988Y-0.2963
X4.4138Y-0.9763
X4.4272Y-0.6788
X4.4745Y-0.6788
X4.5042Y0.0885
X4.5091Y-1.2941
X4.5218Y-0.6788
X4.5402Y-1.3171
X4.5409Y0.1504
X4.5438Y-0.9763
X4.5459Y0.093
X4.5691Y-0.6788
X4.5909Y-1.137
X4.5913Y0.1149
X4.6137Y-1.2474
X4.6163Y-0.4438
X4.6163Y-0.6288
X4.6163Y-0.6788
X4.6163Y-0.9288
X4.6263Y0.0587
X4.6313Y-0.9763
X4.665Y-0.6788
X4.6663Y-0.4438
X4.6663Y-0.6288
X4.6777Y-1.287
X4.6938Y0.0842
X4.7113Y-0.9663
X4.7122Y-0.6788
X4.7163Y-0.4438
X4.7163Y-0.6288
X4.7163Y-0.9313
X4.7438Y0.0837
X4.7638Y-0.4438
X4.7663Y-0.6288
X4.7788Y-0.9213
X4.785Y-1.2425
X4.7889Y-0.8912
X4.7938Y-0.0988
X4.8038Y-0.941
X4.8113Y0.0437
X4.8163Y-0.4438
X4.8163Y-0.6288
X4.8463Y-0.1488
X4.8476Y0.05
X4.8713Y-1.0238
X4.8888Y-0.8988
X4.8913Y0.0437
X4.8925Y-1.2155
X4.9088Y-0.0813
X4.9227Y-1.2499
X4.9363Y0.1258
X4.9738Y-0.0913
X4.9752Y-1.2435
X4.9894Y-1.2972
X4.9927Y0.2694
X4.9988Y-0.6788
X5.0134Y0.1258
X5.0238Y-0.0813
X5.0338Y0.0662
X5.0563Y-0.6788
X5.0716Y-1.2453
X5.1188Y-0.9213
X5.1213Y-0.4563
X5.1346Y-1.2762
X5.1441Y0.1976
X5.1651Y0.1304
X5.1705Y0.1739
X5.1788Y-0.4463
X5.1788Y-0.6363
X5.1791Y0.1507
X5.1795Y-1.1386
X5.2147Y0.15
X5.2288Y-0.4463
X5.2288Y-0.6363
X5.2288Y-0.6788
X5.2513Y0.0787
X5.2753Y-1.2264
X5.2788Y-0.4463
X5.2788Y-0.6363
X5.2788Y-0.6788
X5.3013Y0.0837
X5.3288Y-0.4463
X5.3288Y-0.6363
X5.3476Y-1.286
X5.3513Y0.0837
X5.3563Y0.1262
X5.3596Y0.0481
X5.3888Y-0.2163
X5.3959Y-1.2253
X5.4563Y-0.7738
X5.4618Y-0.6913
X5.4713Y0.1737
X5.4769Y-0.2907
X5.4862Y-1.2264
X5.5238Y0.0687
X5.5906Y-1.2291
X5.6563Y-0.3263
X5.6813Y0.0212
T2
X3.3738Y-0.0288
X3.3763Y-0.2588
X3.4888Y0.1287
X4.2388Y0.0637
X4.7663Y-0.2863
X4.8588Y-0.5413
X4.9463Y-0.2913
X4.9902Y-1.0094
X5.3345Y-0.2456
X5.4138Y-0.7838
T3
X5.503Y-0.6378
X5.5263Y-0.5814
X5.5263Y-0.6942
X5.5827Y-0.5581
X5.5827Y-0.7175
X5.6391Y-0.5814
X5.6391Y-0.6942
X5.6624Y-0.6378
X3.2195Y-1.6614
X3.2428Y-1.605
X3.2428Y-1.7178
X3.2992Y-1.5817
X3.2992Y-1.7411
X3.3556Y-1.605
X3.3556Y-1.7178
X3.3789Y-1.6614
X5.503Y0.2677
X5.5263Y0.3241
X5.5263Y0.2113
X5.5827Y0.3474
X5.5827Y0.188
X5.6391Y0.3241
X5.6391Y0.2113
X5.6624Y0.2677
X3.2195Y-0.6378
X3.2428Y-0.5814
X3.2428Y-0.6942
X3.2992Y-0.5581
X3.2992Y-0.7175
X3.3556Y-0.5814
X3.3556Y-0.6942
X3.3789Y-0.6378
X3.2195Y0.2677
X3.2428Y0.3241
X3.2428Y0.2113
X3.2992Y0.3474
X3.2992Y0.188
X3.3556Y0.3241
X3.3556Y0.2113
X3.3789Y0.2677
X5.503Y-1.6614
X5.5263Y-1.605
X5.5263Y-1.7178
X5.5827Y-1.5817
X5.5827Y-1.7411
X5.6391Y-1.605
X5.6391Y-1.7178
X5.6624Y-1.6614
T4
X5.4813Y0.0337
X5.4813Y-0.0663
X3.4909Y0.3177
X3.4909Y0.2177
X3.5909Y0.3177
X3.5909Y0.2177
X3.6909Y0.3177
X3.6909Y0.2177
X3.7909Y0.3177
X3.7909Y0.2177
X3.8909Y0.3177
X3.8909Y0.2177
X3.9909Y0.3177
X3.9909Y0.2177
X4.0909Y0.3177
X4.0909Y0.2177
X4.1909Y0.3177
X4.1909Y0.2177
X4.2909Y0.3177
X4.2909Y0.2177
X4.3909Y0.3177
X4.3909Y0.2177
X4.4909Y0.3177
X4.4909Y0.2177
X4.5909Y0.3177
X4.5909Y0.2177
X4.6909Y0.3177
X4.6909Y0.2177
X4.7909Y0.3177
X4.7909Y0.2177
X4.8909Y0.3177
X4.8909Y0.2177
X4.9909Y0.3177
X4.9909Y0.2177
X5.0909Y0.3177
X5.0909Y0.2177
X5.1909Y0.3177
X5.1909Y0.2177
X5.2909Y0.3177
X5.2909Y0.2177
X5.3909Y0.3177
X5.3909Y0.2177
X3.2504Y-0.8098
X3.2504Y-0.9098
X3.3504Y-0.8098
X3.3504Y-0.9098
X3.4504Y-0.8098
X3.4504Y-0.9098
X3.2388Y-1.0888
X3.2388Y-1.1888
X3.3388Y-1.0888
X3.3388Y-1.1888
X3.4388Y-1.0888
X3.4388Y-1.1888
X3.5388Y-1.0888
X3.5388Y-1.1888
X3.6388Y-1.0888
X3.6388Y-1.1888
X3.7388Y-1.0888
X3.7388Y-1.1888
X3.8388Y-1.0888
X3.8388Y-1.1888
X3.9388Y-1.0888
X3.9388Y-1.1888
X4.0388Y-1.0888
X4.0388Y-1.1888
X4.1388Y-1.0888
X4.1388Y-1.1888
X4.2388Y-1.0888
X4.2388Y-1.1888
X4.3388Y-1.0888
X4.3388Y-1.1888
X4.4388Y-1.0888
X4.4388Y-1.1888
X4.5388Y-1.0888
X4.5388Y-1.1888
X4.6388Y-1.0888
X4.6388Y-1.1888
X4.7388Y-1.0888
X4.7388Y-1.1888
X4.8388Y-1.0888
X4.8388Y-1.1888
X4.9388Y-1.0888
X4.9388Y-1.1888
X5.0388Y-1.0888
X5.0388Y-1.1888
X5.1388Y-1.0888
X5.1388Y-1.1888
X5.2388Y-1.0888
X5.2388Y-1.1888
X5.3388Y-1.0888
X5.3388Y-1.1888
X5.4388Y-1.0888
X5.4388Y-1.1888
X5.5388Y-1.0888
X5.5388Y-1.1888
X5.6388Y-1.0888
X5.6388Y-1.1888
X3.2433Y0.0898
X3.3433Y0.0898
X3.2996Y-0.0323
X3.2996Y-0.1323
X3.2996Y-0.2323
X3.2996Y-0.3323
X3.2996Y-0.4323
T5
X3.7867Y-1.3713
X3.8412Y-1.4831
X3.8957Y-1.3713
X3.9503Y-1.4831
X4.0048Y-1.3713
X4.0593Y-1.4831
X4.1138Y-1.3713
X4.1684Y-1.4831
X4.2229Y-1.3713
X4.2774Y-1.4831
X4.332Y-1.3713
X4.3865Y-1.4831
X4.441Y-1.3713
X4.4955Y-1.4831
X4.5501Y-1.3713
X4.6046Y-1.4831
X4.6591Y-1.3713
X4.7136Y-1.4831
X4.7682Y-1.3713
X4.8227Y-1.4831
X4.8772Y-1.3713
X4.9318Y-1.4831
X4.9863Y-1.3713
X5.0408Y-1.4831
X5.0953Y-1.3713
T6
X5.5385Y-0.2005
X5.5385Y-0.482
X5.6743Y-0.2005
X5.6743Y-0.482
T7
X5.5827Y-0.6378
X3.2992Y-1.6614
X5.5827Y0.2677
X3.2992Y-0.6378
X3.2992Y0.2677
X5.5827Y-1.6614
T8
X3.515Y-1.4272
X5.367Y-1.4272
T9
X5.5905Y-0.2625
X5.5905Y-0.42
T0
M30
