%TF.GenerationSoftware,KiCad,Pcbnew,(5.1.4)-1*%
%TF.CreationDate,2020-08-18T19:01:01-05:00*%
%TF.ProjectId,rascsi_2p2,72617363-7369-45f3-9270-322e6b696361,rev?*%
%TF.SameCoordinates,PX59d60c0PY325aa00*%
%TF.FileFunction,Legend,Bot*%
%TF.FilePolarity,Positive*%
%FSLAX46Y46*%
G04 Gerber Fmt 4.6, Leading zero omitted, Abs format (unit mm)*
G04 Created by KiCad (PCBNEW (5.1.4)-1) date 2020-08-18 19:01:01*
%MOMM*%
%LPD*%
G04 APERTURE LIST*
%ADD10C,0.120000*%
%ADD11C,0.150000*%
%ADD12C,0.400000*%
%ADD13C,0.050000*%
%ADD14C,0.100000*%
%ADD15C,0.254000*%
G04 APERTURE END LIST*
D10*
X94943000Y-55963000D02*
X94879500Y-55963000D01*
X94879500Y-55963000D02*
X94879500Y-56217000D01*
D11*
X108085561Y-11874742D02*
X107476038Y-11874742D01*
X107780800Y-12179504D02*
X107780800Y-11569980D01*
D10*
X106460000Y-14764000D02*
X107857000Y-14764000D01*
X106460000Y-13367000D02*
X106460000Y-14764000D01*
X109127000Y-12097000D02*
X109127000Y-14764000D01*
X111794000Y-12097000D02*
X109127000Y-12097000D01*
X111794000Y-14764000D02*
X111794000Y-12097000D01*
X111667000Y-14764000D02*
X111794000Y-14764000D01*
X109127000Y-14764000D02*
X111667000Y-14764000D01*
D11*
X105958333Y-12535261D02*
X105958333Y-12916214D01*
X106186904Y-12459071D02*
X105386904Y-12725738D01*
X106186904Y-12992404D01*
X106110714Y-13716214D02*
X106148809Y-13678119D01*
X106186904Y-13563833D01*
X106186904Y-13487642D01*
X106148809Y-13373357D01*
X106072619Y-13297166D01*
X105996428Y-13259071D01*
X105844047Y-13220976D01*
X105729761Y-13220976D01*
X105577380Y-13259071D01*
X105501190Y-13297166D01*
X105425000Y-13373357D01*
X105386904Y-13487642D01*
X105386904Y-13563833D01*
X105425000Y-13678119D01*
X105463095Y-13716214D01*
X105386904Y-13944785D02*
X105386904Y-14401928D01*
X106186904Y-14173357D02*
X105386904Y-14173357D01*
D10*
X130717000Y-33687000D02*
X128304000Y-33687000D01*
X128304000Y-35973000D02*
X130717000Y-35973000D01*
X130844000Y-33560000D02*
X128177000Y-33560000D01*
X128304000Y-33687000D02*
X128304000Y-35973000D01*
X130717000Y-35973000D02*
X130717000Y-33687000D01*
X128177000Y-36100000D02*
X130844000Y-36100000D01*
X128177000Y-33560000D02*
X128177000Y-36100000D01*
X130844000Y-36100000D02*
X130844000Y-33560000D01*
X144560000Y-31528000D02*
X83473000Y-31528000D01*
X144560000Y-26321000D02*
X144560000Y-31528000D01*
X80933000Y-26321000D02*
X144560000Y-26321000D01*
X80933000Y-28988000D02*
X80933000Y-26321000D01*
X83473000Y-28988000D02*
X80933000Y-28988000D01*
X83473000Y-31528000D02*
X83473000Y-28988000D01*
X80933000Y-31528000D02*
X82330000Y-31528000D01*
X80933000Y-30131000D02*
X80933000Y-31528000D01*
D11*
X91194523Y-23254000D02*
X91270714Y-23215904D01*
X91385000Y-23215904D01*
X91499285Y-23254000D01*
X91575476Y-23330190D01*
X91613571Y-23406380D01*
X91651666Y-23558761D01*
X91651666Y-23673047D01*
X91613571Y-23825428D01*
X91575476Y-23901619D01*
X91499285Y-23977809D01*
X91385000Y-24015904D01*
X91308809Y-24015904D01*
X91194523Y-23977809D01*
X91156428Y-23939714D01*
X91156428Y-23673047D01*
X91308809Y-23673047D01*
X90813571Y-24015904D02*
X90813571Y-23215904D01*
X90356428Y-24015904D01*
X90356428Y-23215904D01*
X89975476Y-24015904D02*
X89975476Y-23215904D01*
X89785000Y-23215904D01*
X89670714Y-23254000D01*
X89594523Y-23330190D01*
X89556428Y-23406380D01*
X89518333Y-23558761D01*
X89518333Y-23673047D01*
X89556428Y-23825428D01*
X89594523Y-23901619D01*
X89670714Y-23977809D01*
X89785000Y-24015904D01*
X89975476Y-24015904D01*
D10*
X81187000Y-24670000D02*
X81187000Y-24543000D01*
X92871000Y-24670000D02*
X81187000Y-24670000D01*
X92871000Y-22638000D02*
X92871000Y-24670000D01*
X81187000Y-22638000D02*
X92871000Y-22638000D01*
X81187000Y-24543000D02*
X81187000Y-22638000D01*
X82457000Y-12478000D02*
X83854000Y-12478000D01*
X82457000Y-10954000D02*
X82457000Y-12478000D01*
D11*
X81460000Y-21786952D02*
X81498095Y-21863142D01*
X81498095Y-21977428D01*
X81460000Y-22091714D01*
X81383809Y-22167904D01*
X81307619Y-22206000D01*
X81155238Y-22244095D01*
X81040952Y-22244095D01*
X80888571Y-22206000D01*
X80812380Y-22167904D01*
X80736190Y-22091714D01*
X80698095Y-21977428D01*
X80698095Y-21901238D01*
X80736190Y-21786952D01*
X80774285Y-21748857D01*
X81040952Y-21748857D01*
X81040952Y-21901238D01*
X80698095Y-21406000D02*
X81498095Y-21406000D01*
X81498095Y-21101238D01*
X81460000Y-21025047D01*
X81421904Y-20986952D01*
X81345714Y-20948857D01*
X81231428Y-20948857D01*
X81155238Y-20986952D01*
X81117142Y-21025047D01*
X81079047Y-21101238D01*
X81079047Y-21406000D01*
X80698095Y-20606000D02*
X81498095Y-20606000D01*
X81498095Y-20072666D02*
X81498095Y-19920285D01*
X81460000Y-19844095D01*
X81383809Y-19767904D01*
X81231428Y-19729809D01*
X80964761Y-19729809D01*
X80812380Y-19767904D01*
X80736190Y-19844095D01*
X80698095Y-19920285D01*
X80698095Y-20072666D01*
X80736190Y-20148857D01*
X80812380Y-20225047D01*
X80964761Y-20263142D01*
X81231428Y-20263142D01*
X81383809Y-20225047D01*
X81460000Y-20148857D01*
X81498095Y-20072666D01*
X80698095Y-19348857D02*
X80698095Y-19196476D01*
X80736190Y-19120285D01*
X80774285Y-19082190D01*
X80888571Y-19006000D01*
X81040952Y-18967904D01*
X81345714Y-18967904D01*
X81421904Y-19006000D01*
X81460000Y-19044095D01*
X81498095Y-19120285D01*
X81498095Y-19272666D01*
X81460000Y-19348857D01*
X81421904Y-19386952D01*
X81345714Y-19425047D01*
X81155238Y-19425047D01*
X81079047Y-19386952D01*
X81040952Y-19348857D01*
X81002857Y-19272666D01*
X81002857Y-19120285D01*
X81040952Y-19044095D01*
X81079047Y-19006000D01*
X81155238Y-18967904D01*
X86050952Y-18936000D02*
X86127142Y-18897904D01*
X86241428Y-18897904D01*
X86355714Y-18936000D01*
X86431904Y-19012190D01*
X86470000Y-19088380D01*
X86508095Y-19240761D01*
X86508095Y-19355047D01*
X86470000Y-19507428D01*
X86431904Y-19583619D01*
X86355714Y-19659809D01*
X86241428Y-19697904D01*
X86165238Y-19697904D01*
X86050952Y-19659809D01*
X86012857Y-19621714D01*
X86012857Y-19355047D01*
X86165238Y-19355047D01*
X85670000Y-19697904D02*
X85670000Y-18897904D01*
X85365238Y-18897904D01*
X85289047Y-18936000D01*
X85250952Y-18974095D01*
X85212857Y-19050285D01*
X85212857Y-19164571D01*
X85250952Y-19240761D01*
X85289047Y-19278857D01*
X85365238Y-19316952D01*
X85670000Y-19316952D01*
X84870000Y-19697904D02*
X84870000Y-18897904D01*
X84336666Y-18897904D02*
X84184285Y-18897904D01*
X84108095Y-18936000D01*
X84031904Y-19012190D01*
X83993809Y-19164571D01*
X83993809Y-19431238D01*
X84031904Y-19583619D01*
X84108095Y-19659809D01*
X84184285Y-19697904D01*
X84336666Y-19697904D01*
X84412857Y-19659809D01*
X84489047Y-19583619D01*
X84527142Y-19431238D01*
X84527142Y-19164571D01*
X84489047Y-19012190D01*
X84412857Y-18936000D01*
X84336666Y-18897904D01*
X83231904Y-19697904D02*
X83689047Y-19697904D01*
X83460476Y-19697904D02*
X83460476Y-18897904D01*
X83536666Y-19012190D01*
X83612857Y-19088380D01*
X83689047Y-19126476D01*
X89588000Y-21786952D02*
X89626095Y-21863142D01*
X89626095Y-21977428D01*
X89588000Y-22091714D01*
X89511809Y-22167904D01*
X89435619Y-22206000D01*
X89283238Y-22244095D01*
X89168952Y-22244095D01*
X89016571Y-22206000D01*
X88940380Y-22167904D01*
X88864190Y-22091714D01*
X88826095Y-21977428D01*
X88826095Y-21901238D01*
X88864190Y-21786952D01*
X88902285Y-21748857D01*
X89168952Y-21748857D01*
X89168952Y-21901238D01*
X88826095Y-21406000D02*
X89626095Y-21406000D01*
X89626095Y-21101238D01*
X89588000Y-21025047D01*
X89549904Y-20986952D01*
X89473714Y-20948857D01*
X89359428Y-20948857D01*
X89283238Y-20986952D01*
X89245142Y-21025047D01*
X89207047Y-21101238D01*
X89207047Y-21406000D01*
X88826095Y-20606000D02*
X89626095Y-20606000D01*
X89626095Y-20072666D02*
X89626095Y-19920285D01*
X89588000Y-19844095D01*
X89511809Y-19767904D01*
X89359428Y-19729809D01*
X89092761Y-19729809D01*
X88940380Y-19767904D01*
X88864190Y-19844095D01*
X88826095Y-19920285D01*
X88826095Y-20072666D01*
X88864190Y-20148857D01*
X88940380Y-20225047D01*
X89092761Y-20263142D01*
X89359428Y-20263142D01*
X89511809Y-20225047D01*
X89588000Y-20148857D01*
X89626095Y-20072666D01*
X89626095Y-19234571D02*
X89626095Y-19158380D01*
X89588000Y-19082190D01*
X89549904Y-19044095D01*
X89473714Y-19006000D01*
X89321333Y-18967904D01*
X89130857Y-18967904D01*
X88978476Y-19006000D01*
X88902285Y-19044095D01*
X88864190Y-19082190D01*
X88826095Y-19158380D01*
X88826095Y-19234571D01*
X88864190Y-19310761D01*
X88902285Y-19348857D01*
X88978476Y-19386952D01*
X89130857Y-19425047D01*
X89321333Y-19425047D01*
X89473714Y-19386952D01*
X89549904Y-19348857D01*
X89588000Y-19310761D01*
X89626095Y-19234571D01*
X82260095Y-11322285D02*
X82260095Y-11703238D01*
X81879142Y-11741333D01*
X81917238Y-11703238D01*
X81955333Y-11627047D01*
X81955333Y-11436571D01*
X81917238Y-11360380D01*
X81879142Y-11322285D01*
X81802952Y-11284190D01*
X81612476Y-11284190D01*
X81536285Y-11322285D01*
X81498190Y-11360380D01*
X81460095Y-11436571D01*
X81460095Y-11627047D01*
X81498190Y-11703238D01*
X81536285Y-11741333D01*
X81993428Y-11017523D02*
X81460095Y-10827047D01*
X81993428Y-10636571D01*
X82222000Y-9277523D02*
X82260095Y-9353714D01*
X82260095Y-9468000D01*
X82222000Y-9582285D01*
X82145809Y-9658476D01*
X82069619Y-9696571D01*
X81917238Y-9734666D01*
X81802952Y-9734666D01*
X81650571Y-9696571D01*
X81574380Y-9658476D01*
X81498190Y-9582285D01*
X81460095Y-9468000D01*
X81460095Y-9391809D01*
X81498190Y-9277523D01*
X81536285Y-9239428D01*
X81802952Y-9239428D01*
X81802952Y-9391809D01*
X81460095Y-8896571D02*
X82260095Y-8896571D01*
X81460095Y-8439428D01*
X82260095Y-8439428D01*
X81460095Y-8058476D02*
X82260095Y-8058476D01*
X82260095Y-7868000D01*
X82222000Y-7753714D01*
X82145809Y-7677523D01*
X82069619Y-7639428D01*
X81917238Y-7601333D01*
X81802952Y-7601333D01*
X81650571Y-7639428D01*
X81574380Y-7677523D01*
X81498190Y-7753714D01*
X81460095Y-7868000D01*
X81460095Y-8058476D01*
X82260095Y-6966095D02*
X82260095Y-6470857D01*
X81955333Y-6737523D01*
X81955333Y-6623238D01*
X81917238Y-6547047D01*
X81879142Y-6508952D01*
X81802952Y-6470857D01*
X81612476Y-6470857D01*
X81536285Y-6508952D01*
X81498190Y-6547047D01*
X81460095Y-6623238D01*
X81460095Y-6851809D01*
X81498190Y-6928000D01*
X81536285Y-6966095D01*
X81536285Y-6128000D02*
X81498190Y-6089904D01*
X81460095Y-6128000D01*
X81498190Y-6166095D01*
X81536285Y-6128000D01*
X81460095Y-6128000D01*
X82260095Y-5823238D02*
X82260095Y-5328000D01*
X81955333Y-5594666D01*
X81955333Y-5480380D01*
X81917238Y-5404190D01*
X81879142Y-5366095D01*
X81802952Y-5328000D01*
X81612476Y-5328000D01*
X81536285Y-5366095D01*
X81498190Y-5404190D01*
X81460095Y-5480380D01*
X81460095Y-5708952D01*
X81498190Y-5785142D01*
X81536285Y-5823238D01*
X81498190Y-4286380D02*
X81460095Y-4172095D01*
X81460095Y-3981619D01*
X81498190Y-3905428D01*
X81536285Y-3867333D01*
X81612476Y-3829238D01*
X81688666Y-3829238D01*
X81764857Y-3867333D01*
X81802952Y-3905428D01*
X81841047Y-3981619D01*
X81879142Y-4134000D01*
X81917238Y-4210190D01*
X81955333Y-4248285D01*
X82031523Y-4286380D01*
X82107714Y-4286380D01*
X82183904Y-4248285D01*
X82222000Y-4210190D01*
X82260095Y-4134000D01*
X82260095Y-3943523D01*
X82222000Y-3829238D01*
X81536285Y-3029238D02*
X81498190Y-3067333D01*
X81460095Y-3181619D01*
X81460095Y-3257809D01*
X81498190Y-3372095D01*
X81574380Y-3448285D01*
X81650571Y-3486380D01*
X81802952Y-3524476D01*
X81917238Y-3524476D01*
X82069619Y-3486380D01*
X82145809Y-3448285D01*
X82222000Y-3372095D01*
X82260095Y-3257809D01*
X82260095Y-3181619D01*
X82222000Y-3067333D01*
X82183904Y-3029238D01*
X81460095Y-2305428D02*
X81460095Y-2686380D01*
X82260095Y-2686380D01*
X81498190Y-1765428D02*
X81460095Y-1651142D01*
X81460095Y-1460666D01*
X81498190Y-1384476D01*
X81536285Y-1346380D01*
X81612476Y-1308285D01*
X81688666Y-1308285D01*
X81764857Y-1346380D01*
X81802952Y-1384476D01*
X81841047Y-1460666D01*
X81879142Y-1613047D01*
X81917238Y-1689238D01*
X81955333Y-1727333D01*
X82031523Y-1765428D01*
X82107714Y-1765428D01*
X82183904Y-1727333D01*
X82222000Y-1689238D01*
X82260095Y-1613047D01*
X82260095Y-1422571D01*
X82222000Y-1308285D01*
X81460095Y-965428D02*
X82260095Y-965428D01*
X82260095Y-774952D01*
X82222000Y-660666D01*
X82145809Y-584476D01*
X82069619Y-546380D01*
X81917238Y-508285D01*
X81802952Y-508285D01*
X81650571Y-546380D01*
X81574380Y-584476D01*
X81498190Y-660666D01*
X81460095Y-774952D01*
X81460095Y-965428D01*
X81688666Y-203523D02*
X81688666Y177429D01*
X81460095Y-279714D02*
X82260095Y-13047D01*
X81460095Y253620D01*
X82444285Y1168096D02*
X82825238Y1168096D01*
X82863333Y787143D01*
X82825238Y825239D01*
X82749047Y863334D01*
X82558571Y863334D01*
X82482380Y825239D01*
X82444285Y787143D01*
X82406190Y710953D01*
X82406190Y520477D01*
X82444285Y444286D01*
X82482380Y406191D01*
X82558571Y368096D01*
X82749047Y368096D01*
X82825238Y406191D01*
X82863333Y444286D01*
X82139523Y901429D02*
X81949047Y368096D01*
X81758571Y901429D01*
X85479523Y1130000D02*
X85555714Y1168096D01*
X85670000Y1168096D01*
X85784285Y1130000D01*
X85860476Y1053810D01*
X85898571Y977620D01*
X85936666Y825239D01*
X85936666Y710953D01*
X85898571Y558572D01*
X85860476Y482381D01*
X85784285Y406191D01*
X85670000Y368096D01*
X85593809Y368096D01*
X85479523Y406191D01*
X85441428Y444286D01*
X85441428Y710953D01*
X85593809Y710953D01*
X85098571Y368096D02*
X85098571Y1168096D01*
X84641428Y368096D01*
X84641428Y1168096D01*
X84260476Y368096D02*
X84260476Y1168096D01*
X84070000Y1168096D01*
X83955714Y1130000D01*
X83879523Y1053810D01*
X83841428Y977620D01*
X83803333Y825239D01*
X83803333Y710953D01*
X83841428Y558572D01*
X83879523Y482381D01*
X83955714Y406191D01*
X84070000Y368096D01*
X84260476Y368096D01*
D10*
X144179000Y-12668500D02*
X139924500Y-12668500D01*
X139861000Y3397000D02*
X144179000Y3397000D01*
X144179000Y3397000D02*
X144179000Y-12668500D01*
X139861000Y-12605000D02*
X139861000Y3397000D01*
D12*
X142289761Y-157738D02*
X141337380Y389881D01*
X142289761Y985120D02*
X140289761Y735120D01*
X140289761Y-26785D01*
X140385000Y-205357D01*
X140480238Y-288690D01*
X140670714Y-360119D01*
X140956428Y-324404D01*
X141146904Y-205357D01*
X141242142Y-98214D01*
X141337380Y104167D01*
X141337380Y866072D01*
X142289761Y-1872023D02*
X141242142Y-2002976D01*
X141051666Y-1931547D01*
X140956428Y-1752976D01*
X140956428Y-1372023D01*
X141051666Y-1169642D01*
X142194523Y-1883928D02*
X142289761Y-1681547D01*
X142289761Y-1205357D01*
X142194523Y-1026785D01*
X142004047Y-955357D01*
X141813571Y-979166D01*
X141623095Y-1098214D01*
X141527857Y-1300595D01*
X141527857Y-1776785D01*
X141432619Y-1979166D01*
X142194523Y-2741071D02*
X142289761Y-3014880D01*
X142289761Y-3491071D01*
X142194523Y-3693452D01*
X142099285Y-3800595D01*
X141908809Y-3919642D01*
X141718333Y-3943452D01*
X141527857Y-3872023D01*
X141432619Y-3788690D01*
X141337380Y-3610119D01*
X141242142Y-3241071D01*
X141146904Y-3062500D01*
X141051666Y-2979166D01*
X140861190Y-2907738D01*
X140670714Y-2931547D01*
X140480238Y-3050595D01*
X140385000Y-3157738D01*
X140289761Y-3360119D01*
X140289761Y-3836309D01*
X140385000Y-4110119D01*
X142099285Y-5895833D02*
X142194523Y-5788690D01*
X142289761Y-5491071D01*
X142289761Y-5300595D01*
X142194523Y-5026785D01*
X142004047Y-4860119D01*
X141813571Y-4788690D01*
X141432619Y-4741071D01*
X141146904Y-4776785D01*
X140765952Y-4919642D01*
X140575476Y-5038690D01*
X140385000Y-5252976D01*
X140289761Y-5550595D01*
X140289761Y-5741071D01*
X140385000Y-6014880D01*
X140480238Y-6098214D01*
X142194523Y-6645833D02*
X142289761Y-6919642D01*
X142289761Y-7395833D01*
X142194523Y-7598214D01*
X142099285Y-7705357D01*
X141908809Y-7824404D01*
X141718333Y-7848214D01*
X141527857Y-7776785D01*
X141432619Y-7693452D01*
X141337380Y-7514880D01*
X141242142Y-7145833D01*
X141146904Y-6967261D01*
X141051666Y-6883928D01*
X140861190Y-6812500D01*
X140670714Y-6836309D01*
X140480238Y-6955357D01*
X140385000Y-7062500D01*
X140289761Y-7264880D01*
X140289761Y-7741071D01*
X140385000Y-8014880D01*
X142289761Y-8633928D02*
X140289761Y-8883928D01*
D11*
X142678880Y2197596D02*
X142678880Y2388072D01*
X142726500Y2483310D01*
X142774119Y2530929D01*
X142916976Y2626167D01*
X143107452Y2673786D01*
X143488404Y2673786D01*
X143583642Y2626167D01*
X143631261Y2578548D01*
X143678880Y2483310D01*
X143678880Y2292834D01*
X143631261Y2197596D01*
X143583642Y2149977D01*
X143488404Y2102358D01*
X143250309Y2102358D01*
X143155071Y2149977D01*
X143107452Y2197596D01*
X143059833Y2292834D01*
X143059833Y2483310D01*
X143107452Y2578548D01*
X143155071Y2626167D01*
X143250309Y2673786D01*
X143107452Y1530929D02*
X143059833Y1626167D01*
X143012214Y1673786D01*
X142916976Y1721405D01*
X142869357Y1721405D01*
X142774119Y1673786D01*
X142726500Y1626167D01*
X142678880Y1530929D01*
X142678880Y1340453D01*
X142726500Y1245215D01*
X142774119Y1197596D01*
X142869357Y1149977D01*
X142916976Y1149977D01*
X143012214Y1197596D01*
X143059833Y1245215D01*
X143107452Y1340453D01*
X143107452Y1530929D01*
X143155071Y1626167D01*
X143202690Y1673786D01*
X143297928Y1721405D01*
X143488404Y1721405D01*
X143583642Y1673786D01*
X143631261Y1626167D01*
X143678880Y1530929D01*
X143678880Y1340453D01*
X143631261Y1245215D01*
X143583642Y1197596D01*
X143488404Y1149977D01*
X143297928Y1149977D01*
X143202690Y1197596D01*
X143155071Y1245215D01*
X143107452Y1340453D01*
X143678880Y721405D02*
X142678880Y721405D01*
X143297928Y626167D02*
X143678880Y340453D01*
X143012214Y340453D02*
X143393166Y721405D01*
X143678880Y-88119D02*
X143012214Y-88119D01*
X143107452Y-88119D02*
X143059833Y-135738D01*
X143012214Y-230976D01*
X143012214Y-373833D01*
X143059833Y-469071D01*
X143155071Y-516690D01*
X143678880Y-516690D01*
X143155071Y-516690D02*
X143059833Y-564309D01*
X143012214Y-659547D01*
X143012214Y-802404D01*
X143059833Y-897642D01*
X143155071Y-945261D01*
X143678880Y-945261D01*
X143678880Y-1564309D02*
X143631261Y-1469071D01*
X143536023Y-1421452D01*
X142678880Y-1421452D01*
X143678880Y-2373833D02*
X143155071Y-2373833D01*
X143059833Y-2326214D01*
X143012214Y-2230976D01*
X143012214Y-2040500D01*
X143059833Y-1945261D01*
X143631261Y-2373833D02*
X143678880Y-2278595D01*
X143678880Y-2040500D01*
X143631261Y-1945261D01*
X143536023Y-1897642D01*
X143440785Y-1897642D01*
X143345547Y-1945261D01*
X143297928Y-2040500D01*
X143297928Y-2278595D01*
X143250309Y-2373833D01*
X142678880Y-3469071D02*
X143678880Y-3802404D01*
X142678880Y-4135738D01*
X143631261Y-4850023D02*
X143678880Y-4754785D01*
X143678880Y-4564309D01*
X143631261Y-4469071D01*
X143536023Y-4421452D01*
X143155071Y-4421452D01*
X143059833Y-4469071D01*
X143012214Y-4564309D01*
X143012214Y-4754785D01*
X143059833Y-4850023D01*
X143155071Y-4897642D01*
X143250309Y-4897642D01*
X143345547Y-4421452D01*
X143678880Y-5326214D02*
X143012214Y-5326214D01*
X143202690Y-5326214D02*
X143107452Y-5373833D01*
X143059833Y-5421452D01*
X143012214Y-5516690D01*
X143012214Y-5611928D01*
X143631261Y-5897642D02*
X143678880Y-5992880D01*
X143678880Y-6183357D01*
X143631261Y-6278595D01*
X143536023Y-6326214D01*
X143488404Y-6326214D01*
X143393166Y-6278595D01*
X143345547Y-6183357D01*
X143345547Y-6040500D01*
X143297928Y-5945261D01*
X143202690Y-5897642D01*
X143155071Y-5897642D01*
X143059833Y-5945261D01*
X143012214Y-6040500D01*
X143012214Y-6183357D01*
X143059833Y-6278595D01*
X143678880Y-6754785D02*
X143012214Y-6754785D01*
X142678880Y-6754785D02*
X142726500Y-6707166D01*
X142774119Y-6754785D01*
X142726500Y-6802404D01*
X142678880Y-6754785D01*
X142774119Y-6754785D01*
X143678880Y-7373833D02*
X143631261Y-7278595D01*
X143583642Y-7230976D01*
X143488404Y-7183357D01*
X143202690Y-7183357D01*
X143107452Y-7230976D01*
X143059833Y-7278595D01*
X143012214Y-7373833D01*
X143012214Y-7516690D01*
X143059833Y-7611928D01*
X143107452Y-7659547D01*
X143202690Y-7707166D01*
X143488404Y-7707166D01*
X143583642Y-7659547D01*
X143631261Y-7611928D01*
X143678880Y-7516690D01*
X143678880Y-7373833D01*
X143012214Y-8135738D02*
X143678880Y-8135738D01*
X143107452Y-8135738D02*
X143059833Y-8183357D01*
X143012214Y-8278595D01*
X143012214Y-8421452D01*
X143059833Y-8516690D01*
X143155071Y-8564309D01*
X143678880Y-8564309D01*
X142774119Y-9754785D02*
X142726500Y-9802404D01*
X142678880Y-9897642D01*
X142678880Y-10135738D01*
X142726500Y-10230976D01*
X142774119Y-10278595D01*
X142869357Y-10326214D01*
X142964595Y-10326214D01*
X143107452Y-10278595D01*
X143678880Y-9707166D01*
X143678880Y-10326214D01*
X143583642Y-10754785D02*
X143631261Y-10802404D01*
X143678880Y-10754785D01*
X143631261Y-10707166D01*
X143583642Y-10754785D01*
X143678880Y-10754785D01*
X142774119Y-11183357D02*
X142726500Y-11230976D01*
X142678880Y-11326214D01*
X142678880Y-11564309D01*
X142726500Y-11659547D01*
X142774119Y-11707166D01*
X142869357Y-11754785D01*
X142964595Y-11754785D01*
X143107452Y-11707166D01*
X143678880Y-11135738D01*
X143678880Y-11754785D01*
D10*
X139861000Y-12668500D02*
X140115000Y-12668500D01*
X139480000Y-13176500D02*
X144560000Y-13176500D01*
X144560000Y3841500D02*
X139480000Y3841500D01*
X139480000Y3778000D02*
X139480000Y-13176500D01*
X144560000Y3841500D02*
X144560000Y-13176500D01*
X139861000Y-12605000D02*
X139861000Y-12668500D01*
D11*
X125722666Y-357380D02*
X125722666Y642620D01*
X125294095Y-357380D02*
X125294095Y166429D01*
X125341714Y261667D01*
X125436952Y309286D01*
X125579809Y309286D01*
X125675047Y261667D01*
X125722666Y214048D01*
X124960761Y309286D02*
X124579809Y309286D01*
X124817904Y642620D02*
X124817904Y-214523D01*
X124770285Y-309761D01*
X124675047Y-357380D01*
X124579809Y-357380D01*
X124389333Y309286D02*
X124008380Y309286D01*
X124246476Y642620D02*
X124246476Y-214523D01*
X124198857Y-309761D01*
X124103619Y-357380D01*
X124008380Y-357380D01*
X123675047Y309286D02*
X123675047Y-690714D01*
X123675047Y261667D02*
X123579809Y309286D01*
X123389333Y309286D01*
X123294095Y261667D01*
X123246476Y214048D01*
X123198857Y118810D01*
X123198857Y-166904D01*
X123246476Y-262142D01*
X123294095Y-309761D01*
X123389333Y-357380D01*
X123579809Y-357380D01*
X123675047Y-309761D01*
X122817904Y-309761D02*
X122722666Y-357380D01*
X122532190Y-357380D01*
X122436952Y-309761D01*
X122389333Y-214523D01*
X122389333Y-166904D01*
X122436952Y-71666D01*
X122532190Y-24047D01*
X122675047Y-24047D01*
X122770285Y23572D01*
X122817904Y118810D01*
X122817904Y166429D01*
X122770285Y261667D01*
X122675047Y309286D01*
X122532190Y309286D01*
X122436952Y261667D01*
X121960761Y-262142D02*
X121913142Y-309761D01*
X121960761Y-357380D01*
X122008380Y-309761D01*
X121960761Y-262142D01*
X121960761Y-357380D01*
X121960761Y261667D02*
X121913142Y214048D01*
X121960761Y166429D01*
X122008380Y214048D01*
X121960761Y261667D01*
X121960761Y166429D01*
X120770285Y690239D02*
X121627428Y-595476D01*
X119722666Y690239D02*
X120579809Y-595476D01*
X118960761Y309286D02*
X118960761Y-500238D01*
X119008380Y-595476D01*
X119056000Y-643095D01*
X119151238Y-690714D01*
X119294095Y-690714D01*
X119389333Y-643095D01*
X118960761Y-309761D02*
X119056000Y-357380D01*
X119246476Y-357380D01*
X119341714Y-309761D01*
X119389333Y-262142D01*
X119436952Y-166904D01*
X119436952Y118810D01*
X119389333Y214048D01*
X119341714Y261667D01*
X119246476Y309286D01*
X119056000Y309286D01*
X118960761Y261667D01*
X118484571Y-357380D02*
X118484571Y309286D01*
X118484571Y642620D02*
X118532190Y595000D01*
X118484571Y547381D01*
X118436952Y595000D01*
X118484571Y642620D01*
X118484571Y547381D01*
X118151238Y309286D02*
X117770285Y309286D01*
X118008380Y642620D02*
X118008380Y-214523D01*
X117960761Y-309761D01*
X117865523Y-357380D01*
X117770285Y-357380D01*
X117436952Y-357380D02*
X117436952Y642620D01*
X117008380Y-357380D02*
X117008380Y166429D01*
X117056000Y261667D01*
X117151238Y309286D01*
X117294095Y309286D01*
X117389333Y261667D01*
X117436952Y214048D01*
X116103619Y309286D02*
X116103619Y-357380D01*
X116532190Y309286D02*
X116532190Y-214523D01*
X116484571Y-309761D01*
X116389333Y-357380D01*
X116246476Y-357380D01*
X116151238Y-309761D01*
X116103619Y-262142D01*
X115627428Y-357380D02*
X115627428Y642620D01*
X115627428Y261667D02*
X115532190Y309286D01*
X115341714Y309286D01*
X115246476Y261667D01*
X115198857Y214048D01*
X115151238Y118810D01*
X115151238Y-166904D01*
X115198857Y-262142D01*
X115246476Y-309761D01*
X115341714Y-357380D01*
X115532190Y-357380D01*
X115627428Y-309761D01*
X114722666Y-262142D02*
X114675047Y-309761D01*
X114722666Y-357380D01*
X114770285Y-309761D01*
X114722666Y-262142D01*
X114722666Y-357380D01*
X113817904Y-309761D02*
X113913142Y-357380D01*
X114103619Y-357380D01*
X114198857Y-309761D01*
X114246476Y-262142D01*
X114294095Y-166904D01*
X114294095Y118810D01*
X114246476Y214048D01*
X114198857Y261667D01*
X114103619Y309286D01*
X113913142Y309286D01*
X113817904Y261667D01*
X113246476Y-357380D02*
X113341714Y-309761D01*
X113389333Y-262142D01*
X113436952Y-166904D01*
X113436952Y118810D01*
X113389333Y214048D01*
X113341714Y261667D01*
X113246476Y309286D01*
X113103619Y309286D01*
X113008380Y261667D01*
X112960761Y214048D01*
X112913142Y118810D01*
X112913142Y-166904D01*
X112960761Y-262142D01*
X113008380Y-309761D01*
X113103619Y-357380D01*
X113246476Y-357380D01*
X112484571Y-357380D02*
X112484571Y309286D01*
X112484571Y214048D02*
X112436952Y261667D01*
X112341714Y309286D01*
X112198857Y309286D01*
X112103619Y261667D01*
X112056000Y166429D01*
X112056000Y-357380D01*
X112056000Y166429D02*
X112008380Y261667D01*
X111913142Y309286D01*
X111770285Y309286D01*
X111675047Y261667D01*
X111627428Y166429D01*
X111627428Y-357380D01*
X110436952Y690239D02*
X111294095Y-595476D01*
X109675047Y-357380D02*
X109675047Y166429D01*
X109722666Y261667D01*
X109817904Y309286D01*
X110008380Y309286D01*
X110103619Y261667D01*
X109675047Y-309761D02*
X109770285Y-357380D01*
X110008380Y-357380D01*
X110103619Y-309761D01*
X110151238Y-214523D01*
X110151238Y-119285D01*
X110103619Y-24047D01*
X110008380Y23572D01*
X109770285Y23572D01*
X109675047Y71191D01*
X109198857Y-357380D02*
X109198857Y642620D01*
X109103619Y23572D02*
X108817904Y-357380D01*
X108817904Y309286D02*
X109198857Y-71666D01*
X107960761Y309286D02*
X107960761Y-357380D01*
X108389333Y309286D02*
X108389333Y-214523D01*
X108341714Y-309761D01*
X108246476Y-357380D01*
X108103619Y-357380D01*
X108008380Y-309761D01*
X107960761Y-262142D01*
X107484571Y-357380D02*
X107484571Y642620D01*
X107389333Y23572D02*
X107103619Y-357380D01*
X107103619Y309286D02*
X107484571Y-71666D01*
X106294095Y-309761D02*
X106389333Y-357380D01*
X106579809Y-357380D01*
X106675047Y-309761D01*
X106722666Y-214523D01*
X106722666Y166429D01*
X106675047Y261667D01*
X106579809Y309286D01*
X106389333Y309286D01*
X106294095Y261667D01*
X106246476Y166429D01*
X106246476Y71191D01*
X106722666Y-24047D01*
X105817904Y-357380D02*
X105817904Y309286D01*
X105817904Y118810D02*
X105770285Y214048D01*
X105722666Y261667D01*
X105627428Y309286D01*
X105532190Y309286D01*
X104484571Y690239D02*
X105341714Y-595476D01*
X103579809Y-357380D02*
X103913142Y118810D01*
X104151238Y-357380D02*
X104151238Y642620D01*
X103770285Y642620D01*
X103675047Y595000D01*
X103627428Y547381D01*
X103579809Y452143D01*
X103579809Y309286D01*
X103627428Y214048D01*
X103675047Y166429D01*
X103770285Y118810D01*
X104151238Y118810D01*
X103198857Y-71666D02*
X102722666Y-71666D01*
X103294095Y-357380D02*
X102960761Y642620D01*
X102627428Y-357380D01*
X102341714Y-309761D02*
X102198857Y-357380D01*
X101960761Y-357380D01*
X101865523Y-309761D01*
X101817904Y-262142D01*
X101770285Y-166904D01*
X101770285Y-71666D01*
X101817904Y23572D01*
X101865523Y71191D01*
X101960761Y118810D01*
X102151238Y166429D01*
X102246476Y214048D01*
X102294095Y261667D01*
X102341714Y356905D01*
X102341714Y452143D01*
X102294095Y547381D01*
X102246476Y595000D01*
X102151238Y642620D01*
X101913142Y642620D01*
X101770285Y595000D01*
X100770285Y-262142D02*
X100817904Y-309761D01*
X100960761Y-357380D01*
X101056000Y-357380D01*
X101198857Y-309761D01*
X101294095Y-214523D01*
X101341714Y-119285D01*
X101389333Y71191D01*
X101389333Y214048D01*
X101341714Y404524D01*
X101294095Y499762D01*
X101198857Y595000D01*
X101056000Y642620D01*
X100960761Y642620D01*
X100817904Y595000D01*
X100770285Y547381D01*
X100389333Y-309761D02*
X100246476Y-357380D01*
X100008380Y-357380D01*
X99913142Y-309761D01*
X99865523Y-262142D01*
X99817904Y-166904D01*
X99817904Y-71666D01*
X99865523Y23572D01*
X99913142Y71191D01*
X100008380Y118810D01*
X100198857Y166429D01*
X100294095Y214048D01*
X100341714Y261667D01*
X100389333Y356905D01*
X100389333Y452143D01*
X100341714Y547381D01*
X100294095Y595000D01*
X100198857Y642620D01*
X99960761Y642620D01*
X99817904Y595000D01*
X99389333Y-357380D02*
X99389333Y642620D01*
X133449676Y-3414971D02*
X133783009Y-3414971D01*
X133783009Y-3938780D02*
X133783009Y-2938780D01*
X133306819Y-2938780D01*
X132925866Y-2938780D02*
X132925866Y-3748304D01*
X132878247Y-3843542D01*
X132830628Y-3891161D01*
X132735390Y-3938780D01*
X132544914Y-3938780D01*
X132449676Y-3891161D01*
X132402057Y-3843542D01*
X132354438Y-3748304D01*
X132354438Y-2938780D01*
X131402057Y-3938780D02*
X131878247Y-3938780D01*
X131878247Y-2938780D01*
X130592533Y-3938780D02*
X131068723Y-3938780D01*
X131068723Y-2938780D01*
X130306819Y-3891161D02*
X130163961Y-3938780D01*
X129925866Y-3938780D01*
X129830628Y-3891161D01*
X129783009Y-3843542D01*
X129735390Y-3748304D01*
X129735390Y-3653066D01*
X129783009Y-3557828D01*
X129830628Y-3510209D01*
X129925866Y-3462590D01*
X130116342Y-3414971D01*
X130211580Y-3367352D01*
X130259200Y-3319733D01*
X130306819Y-3224495D01*
X130306819Y-3129257D01*
X130259200Y-3034019D01*
X130211580Y-2986400D01*
X130116342Y-2938780D01*
X129878247Y-2938780D01*
X129735390Y-2986400D01*
X129306819Y-3938780D02*
X129306819Y-2938780D01*
X128925866Y-2938780D01*
X128830628Y-2986400D01*
X128783009Y-3034019D01*
X128735390Y-3129257D01*
X128735390Y-3272114D01*
X128783009Y-3367352D01*
X128830628Y-3414971D01*
X128925866Y-3462590D01*
X129306819Y-3462590D01*
X128306819Y-3414971D02*
X127973485Y-3414971D01*
X127830628Y-3938780D02*
X128306819Y-3938780D01*
X128306819Y-2938780D01*
X127830628Y-2938780D01*
X126830628Y-3843542D02*
X126878247Y-3891161D01*
X127021104Y-3938780D01*
X127116342Y-3938780D01*
X127259200Y-3891161D01*
X127354438Y-3795923D01*
X127402057Y-3700685D01*
X127449676Y-3510209D01*
X127449676Y-3367352D01*
X127402057Y-3176876D01*
X127354438Y-3081638D01*
X127259200Y-2986400D01*
X127116342Y-2938780D01*
X127021104Y-2938780D01*
X126878247Y-2986400D01*
X126830628Y-3034019D01*
X125306819Y-3414971D02*
X125163961Y-3462590D01*
X125116342Y-3510209D01*
X125068723Y-3605447D01*
X125068723Y-3748304D01*
X125116342Y-3843542D01*
X125163961Y-3891161D01*
X125259200Y-3938780D01*
X125640152Y-3938780D01*
X125640152Y-2938780D01*
X125306819Y-2938780D01*
X125211580Y-2986400D01*
X125163961Y-3034019D01*
X125116342Y-3129257D01*
X125116342Y-3224495D01*
X125163961Y-3319733D01*
X125211580Y-3367352D01*
X125306819Y-3414971D01*
X125640152Y-3414971D01*
X124497295Y-3938780D02*
X124592533Y-3891161D01*
X124640152Y-3843542D01*
X124687771Y-3748304D01*
X124687771Y-3462590D01*
X124640152Y-3367352D01*
X124592533Y-3319733D01*
X124497295Y-3272114D01*
X124354438Y-3272114D01*
X124259200Y-3319733D01*
X124211580Y-3367352D01*
X124163961Y-3462590D01*
X124163961Y-3748304D01*
X124211580Y-3843542D01*
X124259200Y-3891161D01*
X124354438Y-3938780D01*
X124497295Y-3938780D01*
X123306819Y-3938780D02*
X123306819Y-3414971D01*
X123354438Y-3319733D01*
X123449676Y-3272114D01*
X123640152Y-3272114D01*
X123735390Y-3319733D01*
X123306819Y-3891161D02*
X123402057Y-3938780D01*
X123640152Y-3938780D01*
X123735390Y-3891161D01*
X123783009Y-3795923D01*
X123783009Y-3700685D01*
X123735390Y-3605447D01*
X123640152Y-3557828D01*
X123402057Y-3557828D01*
X123306819Y-3510209D01*
X122830628Y-3938780D02*
X122830628Y-3272114D01*
X122830628Y-3462590D02*
X122783009Y-3367352D01*
X122735390Y-3319733D01*
X122640152Y-3272114D01*
X122544914Y-3272114D01*
X121783009Y-3938780D02*
X121783009Y-2938780D01*
X121783009Y-3891161D02*
X121878247Y-3938780D01*
X122068723Y-3938780D01*
X122163961Y-3891161D01*
X122211580Y-3843542D01*
X122259200Y-3748304D01*
X122259200Y-3462590D01*
X122211580Y-3367352D01*
X122163961Y-3319733D01*
X122068723Y-3272114D01*
X121878247Y-3272114D01*
X121783009Y-3319733D01*
X120687771Y-2938780D02*
X120354438Y-3938780D01*
X120021104Y-2938780D01*
X119306819Y-3891161D02*
X119402057Y-3938780D01*
X119592533Y-3938780D01*
X119687771Y-3891161D01*
X119735390Y-3795923D01*
X119735390Y-3414971D01*
X119687771Y-3319733D01*
X119592533Y-3272114D01*
X119402057Y-3272114D01*
X119306819Y-3319733D01*
X119259200Y-3414971D01*
X119259200Y-3510209D01*
X119735390Y-3605447D01*
X118830628Y-3938780D02*
X118830628Y-3272114D01*
X118830628Y-3462590D02*
X118783009Y-3367352D01*
X118735390Y-3319733D01*
X118640152Y-3272114D01*
X118544914Y-3272114D01*
X118259200Y-3891161D02*
X118163961Y-3938780D01*
X117973485Y-3938780D01*
X117878247Y-3891161D01*
X117830628Y-3795923D01*
X117830628Y-3748304D01*
X117878247Y-3653066D01*
X117973485Y-3605447D01*
X118116342Y-3605447D01*
X118211580Y-3557828D01*
X118259200Y-3462590D01*
X118259200Y-3414971D01*
X118211580Y-3319733D01*
X118116342Y-3272114D01*
X117973485Y-3272114D01*
X117878247Y-3319733D01*
X117402057Y-3938780D02*
X117402057Y-3272114D01*
X117402057Y-2938780D02*
X117449676Y-2986400D01*
X117402057Y-3034019D01*
X117354438Y-2986400D01*
X117402057Y-2938780D01*
X117402057Y-3034019D01*
X116783009Y-3938780D02*
X116878247Y-3891161D01*
X116925866Y-3843542D01*
X116973485Y-3748304D01*
X116973485Y-3462590D01*
X116925866Y-3367352D01*
X116878247Y-3319733D01*
X116783009Y-3272114D01*
X116640152Y-3272114D01*
X116544914Y-3319733D01*
X116497295Y-3367352D01*
X116449676Y-3462590D01*
X116449676Y-3748304D01*
X116497295Y-3843542D01*
X116544914Y-3891161D01*
X116640152Y-3938780D01*
X116783009Y-3938780D01*
X116021104Y-3272114D02*
X116021104Y-3938780D01*
X116021104Y-3367352D02*
X115973485Y-3319733D01*
X115878247Y-3272114D01*
X115735390Y-3272114D01*
X115640152Y-3319733D01*
X115592533Y-3414971D01*
X115592533Y-3938780D01*
X114354438Y-3557828D02*
X113592533Y-3557828D01*
X112449676Y-2938780D02*
X112211580Y-3938780D01*
X112021104Y-3224495D01*
X111830628Y-3938780D01*
X111592533Y-2938780D01*
X111068723Y-3938780D02*
X111163961Y-3891161D01*
X111211580Y-3843542D01*
X111259200Y-3748304D01*
X111259200Y-3462590D01*
X111211580Y-3367352D01*
X111163961Y-3319733D01*
X111068723Y-3272114D01*
X110925866Y-3272114D01*
X110830628Y-3319733D01*
X110783009Y-3367352D01*
X110735390Y-3462590D01*
X110735390Y-3748304D01*
X110783009Y-3843542D01*
X110830628Y-3891161D01*
X110925866Y-3938780D01*
X111068723Y-3938780D01*
X110306819Y-3938780D02*
X110306819Y-3272114D01*
X110306819Y-3462590D02*
X110259200Y-3367352D01*
X110211580Y-3319733D01*
X110116342Y-3272114D01*
X110021104Y-3272114D01*
X109687771Y-3938780D02*
X109687771Y-2938780D01*
X109592533Y-3557828D02*
X109306819Y-3938780D01*
X109306819Y-3272114D02*
X109687771Y-3653066D01*
X108925866Y-3891161D02*
X108830628Y-3938780D01*
X108640152Y-3938780D01*
X108544914Y-3891161D01*
X108497295Y-3795923D01*
X108497295Y-3748304D01*
X108544914Y-3653066D01*
X108640152Y-3605447D01*
X108783009Y-3605447D01*
X108878247Y-3557828D01*
X108925866Y-3462590D01*
X108925866Y-3414971D01*
X108878247Y-3319733D01*
X108783009Y-3272114D01*
X108640152Y-3272114D01*
X108544914Y-3319733D01*
X106878247Y-3938780D02*
X106878247Y-3414971D01*
X106925866Y-3319733D01*
X107021104Y-3272114D01*
X107211580Y-3272114D01*
X107306819Y-3319733D01*
X106878247Y-3891161D02*
X106973485Y-3938780D01*
X107211580Y-3938780D01*
X107306819Y-3891161D01*
X107354438Y-3795923D01*
X107354438Y-3700685D01*
X107306819Y-3605447D01*
X107211580Y-3557828D01*
X106973485Y-3557828D01*
X106878247Y-3510209D01*
X106449676Y-3891161D02*
X106354438Y-3938780D01*
X106163961Y-3938780D01*
X106068723Y-3891161D01*
X106021104Y-3795923D01*
X106021104Y-3748304D01*
X106068723Y-3653066D01*
X106163961Y-3605447D01*
X106306819Y-3605447D01*
X106402057Y-3557828D01*
X106449676Y-3462590D01*
X106449676Y-3414971D01*
X106402057Y-3319733D01*
X106306819Y-3272114D01*
X106163961Y-3272114D01*
X106068723Y-3319733D01*
X104830628Y-3938780D02*
X104830628Y-2938780D01*
X104354438Y-3272114D02*
X104354438Y-3938780D01*
X104354438Y-3367352D02*
X104306819Y-3319733D01*
X104211580Y-3272114D01*
X104068723Y-3272114D01*
X103973485Y-3319733D01*
X103925866Y-3414971D01*
X103925866Y-3938780D01*
X103449676Y-3938780D02*
X103449676Y-3272114D01*
X103449676Y-2938780D02*
X103497295Y-2986400D01*
X103449676Y-3034019D01*
X103402057Y-2986400D01*
X103449676Y-2938780D01*
X103449676Y-3034019D01*
X103116342Y-3272114D02*
X102735390Y-3272114D01*
X102973485Y-2938780D02*
X102973485Y-3795923D01*
X102925866Y-3891161D01*
X102830628Y-3938780D01*
X102735390Y-3938780D01*
X102402057Y-3938780D02*
X102402057Y-3272114D01*
X102402057Y-2938780D02*
X102449676Y-2986400D01*
X102402057Y-3034019D01*
X102354438Y-2986400D01*
X102402057Y-2938780D01*
X102402057Y-3034019D01*
X101497295Y-3938780D02*
X101497295Y-3414971D01*
X101544914Y-3319733D01*
X101640152Y-3272114D01*
X101830628Y-3272114D01*
X101925866Y-3319733D01*
X101497295Y-3891161D02*
X101592533Y-3938780D01*
X101830628Y-3938780D01*
X101925866Y-3891161D01*
X101973485Y-3795923D01*
X101973485Y-3700685D01*
X101925866Y-3605447D01*
X101830628Y-3557828D01*
X101592533Y-3557828D01*
X101497295Y-3510209D01*
X101163961Y-3272114D02*
X100783009Y-3272114D01*
X101021104Y-2938780D02*
X101021104Y-3795923D01*
X100973485Y-3891161D01*
X100878247Y-3938780D01*
X100783009Y-3938780D01*
X100306819Y-3938780D02*
X100402057Y-3891161D01*
X100449676Y-3843542D01*
X100497295Y-3748304D01*
X100497295Y-3462590D01*
X100449676Y-3367352D01*
X100402057Y-3319733D01*
X100306819Y-3272114D01*
X100163961Y-3272114D01*
X100068723Y-3319733D01*
X100021104Y-3367352D01*
X99973485Y-3462590D01*
X99973485Y-3748304D01*
X100021104Y-3843542D01*
X100068723Y-3891161D01*
X100163961Y-3938780D01*
X100306819Y-3938780D01*
X99544914Y-3938780D02*
X99544914Y-3272114D01*
X99544914Y-3462590D02*
X99497295Y-3367352D01*
X99449676Y-3319733D01*
X99354438Y-3272114D01*
X99259200Y-3272114D01*
X98021104Y-3938780D02*
X98116342Y-3891161D01*
X98163961Y-3843542D01*
X98211580Y-3748304D01*
X98211580Y-3462590D01*
X98163961Y-3367352D01*
X98116342Y-3319733D01*
X98021104Y-3272114D01*
X97878247Y-3272114D01*
X97783009Y-3319733D01*
X97735390Y-3367352D01*
X97687771Y-3462590D01*
X97687771Y-3748304D01*
X97735390Y-3843542D01*
X97783009Y-3891161D01*
X97878247Y-3938780D01*
X98021104Y-3938780D01*
X97259200Y-3938780D02*
X97259200Y-3272114D01*
X97259200Y-3462590D02*
X97211580Y-3367352D01*
X97163961Y-3319733D01*
X97068723Y-3272114D01*
X96973485Y-3272114D01*
X96021104Y-2938780D02*
X95449676Y-2938780D01*
X95735390Y-3938780D02*
X95735390Y-2938780D01*
X94687771Y-3938780D02*
X94687771Y-3414971D01*
X94735390Y-3319733D01*
X94830628Y-3272114D01*
X95021104Y-3272114D01*
X95116342Y-3319733D01*
X94687771Y-3891161D02*
X94783009Y-3938780D01*
X95021104Y-3938780D01*
X95116342Y-3891161D01*
X95163961Y-3795923D01*
X95163961Y-3700685D01*
X95116342Y-3605447D01*
X95021104Y-3557828D01*
X94783009Y-3557828D01*
X94687771Y-3510209D01*
X94211580Y-3938780D02*
X94211580Y-3272114D01*
X94211580Y-3462590D02*
X94163961Y-3367352D01*
X94116342Y-3319733D01*
X94021104Y-3272114D01*
X93925866Y-3272114D01*
X93163961Y-3272114D02*
X93163961Y-4081638D01*
X93211580Y-4176876D01*
X93259200Y-4224495D01*
X93354438Y-4272114D01*
X93497295Y-4272114D01*
X93592533Y-4224495D01*
X93163961Y-3891161D02*
X93259200Y-3938780D01*
X93449676Y-3938780D01*
X93544914Y-3891161D01*
X93592533Y-3843542D01*
X93640152Y-3748304D01*
X93640152Y-3462590D01*
X93592533Y-3367352D01*
X93544914Y-3319733D01*
X93449676Y-3272114D01*
X93259200Y-3272114D01*
X93163961Y-3319733D01*
X92306819Y-3891161D02*
X92402057Y-3938780D01*
X92592533Y-3938780D01*
X92687771Y-3891161D01*
X92735390Y-3795923D01*
X92735390Y-3414971D01*
X92687771Y-3319733D01*
X92592533Y-3272114D01*
X92402057Y-3272114D01*
X92306819Y-3319733D01*
X92259200Y-3414971D01*
X92259200Y-3510209D01*
X92735390Y-3605447D01*
X91973485Y-3272114D02*
X91592533Y-3272114D01*
X91830628Y-2938780D02*
X91830628Y-3795923D01*
X91783009Y-3891161D01*
X91687771Y-3938780D01*
X91592533Y-3938780D01*
X124389333Y-7485761D02*
X124246476Y-7533380D01*
X124008380Y-7533380D01*
X123913142Y-7485761D01*
X123865523Y-7438142D01*
X123817904Y-7342904D01*
X123817904Y-7247666D01*
X123865523Y-7152428D01*
X123913142Y-7104809D01*
X124008380Y-7057190D01*
X124198857Y-7009571D01*
X124294095Y-6961952D01*
X124341714Y-6914333D01*
X124389333Y-6819095D01*
X124389333Y-6723857D01*
X124341714Y-6628619D01*
X124294095Y-6581000D01*
X124198857Y-6533380D01*
X123960761Y-6533380D01*
X123817904Y-6581000D01*
X123389333Y-6866714D02*
X123389333Y-7866714D01*
X123389333Y-6914333D02*
X123294095Y-6866714D01*
X123103619Y-6866714D01*
X123008380Y-6914333D01*
X122960761Y-6961952D01*
X122913142Y-7057190D01*
X122913142Y-7342904D01*
X122960761Y-7438142D01*
X123008380Y-7485761D01*
X123103619Y-7533380D01*
X123294095Y-7533380D01*
X123389333Y-7485761D01*
X122103619Y-7485761D02*
X122198857Y-7533380D01*
X122389333Y-7533380D01*
X122484571Y-7485761D01*
X122532190Y-7390523D01*
X122532190Y-7009571D01*
X122484571Y-6914333D01*
X122389333Y-6866714D01*
X122198857Y-6866714D01*
X122103619Y-6914333D01*
X122056000Y-7009571D01*
X122056000Y-7104809D01*
X122532190Y-7200047D01*
X121198857Y-7485761D02*
X121294095Y-7533380D01*
X121484571Y-7533380D01*
X121579809Y-7485761D01*
X121627428Y-7438142D01*
X121675047Y-7342904D01*
X121675047Y-7057190D01*
X121627428Y-6961952D01*
X121579809Y-6914333D01*
X121484571Y-6866714D01*
X121294095Y-6866714D01*
X121198857Y-6914333D01*
X120770285Y-7533380D02*
X120770285Y-6866714D01*
X120770285Y-6533380D02*
X120817904Y-6581000D01*
X120770285Y-6628619D01*
X120722666Y-6581000D01*
X120770285Y-6533380D01*
X120770285Y-6628619D01*
X119865523Y-7533380D02*
X119865523Y-7009571D01*
X119913142Y-6914333D01*
X120008380Y-6866714D01*
X120198857Y-6866714D01*
X120294095Y-6914333D01*
X119865523Y-7485761D02*
X119960761Y-7533380D01*
X120198857Y-7533380D01*
X120294095Y-7485761D01*
X120341714Y-7390523D01*
X120341714Y-7295285D01*
X120294095Y-7200047D01*
X120198857Y-7152428D01*
X119960761Y-7152428D01*
X119865523Y-7104809D01*
X119246476Y-7533380D02*
X119341714Y-7485761D01*
X119389333Y-7390523D01*
X119389333Y-6533380D01*
X118246476Y-6866714D02*
X117865523Y-6866714D01*
X118103619Y-6533380D02*
X118103619Y-7390523D01*
X118056000Y-7485761D01*
X117960761Y-7533380D01*
X117865523Y-7533380D01*
X117532190Y-7533380D02*
X117532190Y-6533380D01*
X117103619Y-7533380D02*
X117103619Y-7009571D01*
X117151238Y-6914333D01*
X117246476Y-6866714D01*
X117389333Y-6866714D01*
X117484571Y-6914333D01*
X117532190Y-6961952D01*
X116198857Y-7533380D02*
X116198857Y-7009571D01*
X116246476Y-6914333D01*
X116341714Y-6866714D01*
X116532190Y-6866714D01*
X116627428Y-6914333D01*
X116198857Y-7485761D02*
X116294095Y-7533380D01*
X116532190Y-7533380D01*
X116627428Y-7485761D01*
X116675047Y-7390523D01*
X116675047Y-7295285D01*
X116627428Y-7200047D01*
X116532190Y-7152428D01*
X116294095Y-7152428D01*
X116198857Y-7104809D01*
X115722666Y-6866714D02*
X115722666Y-7533380D01*
X115722666Y-6961952D02*
X115675047Y-6914333D01*
X115579809Y-6866714D01*
X115436952Y-6866714D01*
X115341714Y-6914333D01*
X115294095Y-7009571D01*
X115294095Y-7533380D01*
X114817904Y-7533380D02*
X114817904Y-6533380D01*
X114722666Y-7152428D02*
X114436952Y-7533380D01*
X114436952Y-6866714D02*
X114817904Y-7247666D01*
X114056000Y-7485761D02*
X113960761Y-7533380D01*
X113770285Y-7533380D01*
X113675047Y-7485761D01*
X113627428Y-7390523D01*
X113627428Y-7342904D01*
X113675047Y-7247666D01*
X113770285Y-7200047D01*
X113913142Y-7200047D01*
X114008380Y-7152428D01*
X114056000Y-7057190D01*
X114056000Y-7009571D01*
X114008380Y-6914333D01*
X113913142Y-6866714D01*
X113770285Y-6866714D01*
X113675047Y-6914333D01*
X112579809Y-6866714D02*
X112198857Y-6866714D01*
X112436952Y-6533380D02*
X112436952Y-7390523D01*
X112389333Y-7485761D01*
X112294095Y-7533380D01*
X112198857Y-7533380D01*
X111722666Y-7533380D02*
X111817904Y-7485761D01*
X111865523Y-7438142D01*
X111913142Y-7342904D01*
X111913142Y-7057190D01*
X111865523Y-6961952D01*
X111817904Y-6914333D01*
X111722666Y-6866714D01*
X111579809Y-6866714D01*
X111484571Y-6914333D01*
X111436952Y-6961952D01*
X111389333Y-7057190D01*
X111389333Y-7342904D01*
X111436952Y-7438142D01*
X111484571Y-7485761D01*
X111579809Y-7533380D01*
X111722666Y-7533380D01*
X109675047Y-6581000D02*
X109770285Y-6533380D01*
X109913142Y-6533380D01*
X110056000Y-6581000D01*
X110151238Y-6676238D01*
X110198857Y-6771476D01*
X110246476Y-6961952D01*
X110246476Y-7104809D01*
X110198857Y-7295285D01*
X110151238Y-7390523D01*
X110056000Y-7485761D01*
X109913142Y-7533380D01*
X109817904Y-7533380D01*
X109675047Y-7485761D01*
X109627428Y-7438142D01*
X109627428Y-7104809D01*
X109817904Y-7104809D01*
X109198857Y-7533380D02*
X109198857Y-6533380D01*
X108722666Y-7533380D02*
X108722666Y-6533380D01*
X108389333Y-7247666D01*
X108056000Y-6533380D01*
X108056000Y-7533380D01*
X107389333Y-6533380D02*
X107198857Y-6533380D01*
X107103619Y-6581000D01*
X107008380Y-6676238D01*
X106960761Y-6866714D01*
X106960761Y-7200047D01*
X107008380Y-7390523D01*
X107103619Y-7485761D01*
X107198857Y-7533380D01*
X107389333Y-7533380D01*
X107484571Y-7485761D01*
X107579809Y-7390523D01*
X107627428Y-7200047D01*
X107627428Y-6866714D01*
X107579809Y-6676238D01*
X107484571Y-6581000D01*
X107389333Y-6533380D01*
X106532190Y-7533380D02*
X106532190Y-6533380D01*
X105960761Y-7533380D01*
X105960761Y-6533380D01*
X105532190Y-7485761D02*
X105389333Y-7533380D01*
X105151238Y-7533380D01*
X105056000Y-7485761D01*
X105008380Y-7438142D01*
X104960761Y-7342904D01*
X104960761Y-7247666D01*
X105008380Y-7152428D01*
X105056000Y-7104809D01*
X105151238Y-7057190D01*
X105341714Y-7009571D01*
X105436952Y-6961952D01*
X105484571Y-6914333D01*
X105532190Y-6819095D01*
X105532190Y-6723857D01*
X105484571Y-6628619D01*
X105436952Y-6581000D01*
X105341714Y-6533380D01*
X105103619Y-6533380D01*
X104960761Y-6581000D01*
X103341714Y-7533380D02*
X103341714Y-7009571D01*
X103389333Y-6914333D01*
X103484571Y-6866714D01*
X103675047Y-6866714D01*
X103770285Y-6914333D01*
X103341714Y-7485761D02*
X103436952Y-7533380D01*
X103675047Y-7533380D01*
X103770285Y-7485761D01*
X103817904Y-7390523D01*
X103817904Y-7295285D01*
X103770285Y-7200047D01*
X103675047Y-7152428D01*
X103436952Y-7152428D01*
X103341714Y-7104809D01*
X102865523Y-6866714D02*
X102865523Y-7533380D01*
X102865523Y-6961952D02*
X102817904Y-6914333D01*
X102722666Y-6866714D01*
X102579809Y-6866714D01*
X102484571Y-6914333D01*
X102436952Y-7009571D01*
X102436952Y-7533380D01*
X101532190Y-7533380D02*
X101532190Y-6533380D01*
X101532190Y-7485761D02*
X101627428Y-7533380D01*
X101817904Y-7533380D01*
X101913142Y-7485761D01*
X101960761Y-7438142D01*
X102008380Y-7342904D01*
X102008380Y-7057190D01*
X101960761Y-6961952D01*
X101913142Y-6914333D01*
X101817904Y-6866714D01*
X101627428Y-6866714D01*
X101532190Y-6914333D01*
X120675047Y-9183380D02*
X120675047Y-8659571D01*
X120722666Y-8564333D01*
X120817904Y-8516714D01*
X121008380Y-8516714D01*
X121103619Y-8564333D01*
X120675047Y-9135761D02*
X120770285Y-9183380D01*
X121008380Y-9183380D01*
X121103619Y-9135761D01*
X121151238Y-9040523D01*
X121151238Y-8945285D01*
X121103619Y-8850047D01*
X121008380Y-8802428D01*
X120770285Y-8802428D01*
X120675047Y-8754809D01*
X120056000Y-9183380D02*
X120151238Y-9135761D01*
X120198857Y-9040523D01*
X120198857Y-8183380D01*
X119532190Y-9183380D02*
X119627428Y-9135761D01*
X119675047Y-9040523D01*
X119675047Y-8183380D01*
X118246476Y-9183380D02*
X118341714Y-9135761D01*
X118389333Y-9088142D01*
X118436952Y-8992904D01*
X118436952Y-8707190D01*
X118389333Y-8611952D01*
X118341714Y-8564333D01*
X118246476Y-8516714D01*
X118103619Y-8516714D01*
X118008380Y-8564333D01*
X117960761Y-8611952D01*
X117913142Y-8707190D01*
X117913142Y-8992904D01*
X117960761Y-9088142D01*
X118008380Y-9135761D01*
X118103619Y-9183380D01*
X118246476Y-9183380D01*
X117627428Y-8516714D02*
X117246476Y-8516714D01*
X117484571Y-9183380D02*
X117484571Y-8326238D01*
X117436952Y-8231000D01*
X117341714Y-8183380D01*
X117246476Y-8183380D01*
X116294095Y-8516714D02*
X115913142Y-8516714D01*
X116151238Y-8183380D02*
X116151238Y-9040523D01*
X116103619Y-9135761D01*
X116008380Y-9183380D01*
X115913142Y-9183380D01*
X115579809Y-9183380D02*
X115579809Y-8183380D01*
X115151238Y-9183380D02*
X115151238Y-8659571D01*
X115198857Y-8564333D01*
X115294095Y-8516714D01*
X115436952Y-8516714D01*
X115532190Y-8564333D01*
X115579809Y-8611952D01*
X114294095Y-9135761D02*
X114389333Y-9183380D01*
X114579809Y-9183380D01*
X114675047Y-9135761D01*
X114722666Y-9040523D01*
X114722666Y-8659571D01*
X114675047Y-8564333D01*
X114579809Y-8516714D01*
X114389333Y-8516714D01*
X114294095Y-8564333D01*
X114246476Y-8659571D01*
X114246476Y-8754809D01*
X114722666Y-8850047D01*
X112627428Y-9135761D02*
X112722666Y-9183380D01*
X112913142Y-9183380D01*
X113008380Y-9135761D01*
X113056000Y-9088142D01*
X113103619Y-8992904D01*
X113103619Y-8707190D01*
X113056000Y-8611952D01*
X113008380Y-8564333D01*
X112913142Y-8516714D01*
X112722666Y-8516714D01*
X112627428Y-8564333D01*
X112056000Y-9183380D02*
X112151238Y-9135761D01*
X112198857Y-9088142D01*
X112246476Y-8992904D01*
X112246476Y-8707190D01*
X112198857Y-8611952D01*
X112151238Y-8564333D01*
X112056000Y-8516714D01*
X111913142Y-8516714D01*
X111817904Y-8564333D01*
X111770285Y-8611952D01*
X111722666Y-8707190D01*
X111722666Y-8992904D01*
X111770285Y-9088142D01*
X111817904Y-9135761D01*
X111913142Y-9183380D01*
X112056000Y-9183380D01*
X111294095Y-8516714D02*
X111294095Y-9183380D01*
X111294095Y-8611952D02*
X111246476Y-8564333D01*
X111151238Y-8516714D01*
X111008380Y-8516714D01*
X110913142Y-8564333D01*
X110865523Y-8659571D01*
X110865523Y-9183380D01*
X110532190Y-8516714D02*
X110151238Y-8516714D01*
X110389333Y-8183380D02*
X110389333Y-9040523D01*
X110341714Y-9135761D01*
X110246476Y-9183380D01*
X110151238Y-9183380D01*
X109817904Y-9183380D02*
X109817904Y-8516714D01*
X109817904Y-8707190D02*
X109770285Y-8611952D01*
X109722666Y-8564333D01*
X109627428Y-8516714D01*
X109532190Y-8516714D01*
X109198857Y-9183380D02*
X109198857Y-8516714D01*
X109198857Y-8183380D02*
X109246476Y-8231000D01*
X109198857Y-8278619D01*
X109151238Y-8231000D01*
X109198857Y-8183380D01*
X109198857Y-8278619D01*
X108722666Y-9183380D02*
X108722666Y-8183380D01*
X108722666Y-8564333D02*
X108627428Y-8516714D01*
X108436952Y-8516714D01*
X108341714Y-8564333D01*
X108294095Y-8611952D01*
X108246476Y-8707190D01*
X108246476Y-8992904D01*
X108294095Y-9088142D01*
X108341714Y-9135761D01*
X108436952Y-9183380D01*
X108627428Y-9183380D01*
X108722666Y-9135761D01*
X107389333Y-8516714D02*
X107389333Y-9183380D01*
X107817904Y-8516714D02*
X107817904Y-9040523D01*
X107770285Y-9135761D01*
X107675047Y-9183380D01*
X107532190Y-9183380D01*
X107436952Y-9135761D01*
X107389333Y-9088142D01*
X107056000Y-8516714D02*
X106675047Y-8516714D01*
X106913142Y-8183380D02*
X106913142Y-9040523D01*
X106865523Y-9135761D01*
X106770285Y-9183380D01*
X106675047Y-9183380D01*
X106198857Y-9183380D02*
X106294095Y-9135761D01*
X106341714Y-9088142D01*
X106389333Y-8992904D01*
X106389333Y-8707190D01*
X106341714Y-8611952D01*
X106294095Y-8564333D01*
X106198857Y-8516714D01*
X106056000Y-8516714D01*
X105960761Y-8564333D01*
X105913142Y-8611952D01*
X105865523Y-8707190D01*
X105865523Y-8992904D01*
X105913142Y-9088142D01*
X105960761Y-9135761D01*
X106056000Y-9183380D01*
X106198857Y-9183380D01*
X105436952Y-9183380D02*
X105436952Y-8516714D01*
X105436952Y-8707190D02*
X105389333Y-8611952D01*
X105341714Y-8564333D01*
X105246476Y-8516714D01*
X105151238Y-8516714D01*
X104865523Y-9135761D02*
X104770285Y-9183380D01*
X104579809Y-9183380D01*
X104484571Y-9135761D01*
X104436952Y-9040523D01*
X104436952Y-8992904D01*
X104484571Y-8897666D01*
X104579809Y-8850047D01*
X104722666Y-8850047D01*
X104817904Y-8802428D01*
X104865523Y-8707190D01*
X104865523Y-8659571D01*
X104817904Y-8564333D01*
X104722666Y-8516714D01*
X104579809Y-8516714D01*
X104484571Y-8564333D01*
X104008380Y-9088142D02*
X103960761Y-9135761D01*
X104008380Y-9183380D01*
X104056000Y-9135761D01*
X104008380Y-9088142D01*
X104008380Y-9183380D01*
X104008380Y-8802428D02*
X104056000Y-8231000D01*
X104008380Y-8183380D01*
X103960761Y-8231000D01*
X104008380Y-8802428D01*
X104008380Y-8183380D01*
X129809761Y-20694380D02*
X129619285Y-20694380D01*
X129524047Y-20742000D01*
X129428809Y-20837238D01*
X129381190Y-21027714D01*
X129381190Y-21361047D01*
X129428809Y-21551523D01*
X129524047Y-21646761D01*
X129619285Y-21694380D01*
X129809761Y-21694380D01*
X129905000Y-21646761D01*
X130000238Y-21551523D01*
X130047857Y-21361047D01*
X130047857Y-21027714D01*
X130000238Y-20837238D01*
X129905000Y-20742000D01*
X129809761Y-20694380D01*
X128952619Y-21027714D02*
X128952619Y-21694380D01*
X128952619Y-21122952D02*
X128905000Y-21075333D01*
X128809761Y-21027714D01*
X128666904Y-21027714D01*
X128571666Y-21075333D01*
X128524047Y-21170571D01*
X128524047Y-21694380D01*
X127905000Y-21694380D02*
X128000238Y-21646761D01*
X128047857Y-21551523D01*
X128047857Y-20694380D01*
X127619285Y-21027714D02*
X127381190Y-21694380D01*
X127143095Y-21027714D02*
X127381190Y-21694380D01*
X127476428Y-21932476D01*
X127524047Y-21980095D01*
X127619285Y-22027714D01*
X125571666Y-21027714D02*
X125571666Y-21694380D01*
X126000238Y-21027714D02*
X126000238Y-21551523D01*
X125952619Y-21646761D01*
X125857380Y-21694380D01*
X125714523Y-21694380D01*
X125619285Y-21646761D01*
X125571666Y-21599142D01*
X125143095Y-21646761D02*
X125047857Y-21694380D01*
X124857380Y-21694380D01*
X124762142Y-21646761D01*
X124714523Y-21551523D01*
X124714523Y-21503904D01*
X124762142Y-21408666D01*
X124857380Y-21361047D01*
X125000238Y-21361047D01*
X125095476Y-21313428D01*
X125143095Y-21218190D01*
X125143095Y-21170571D01*
X125095476Y-21075333D01*
X125000238Y-21027714D01*
X124857380Y-21027714D01*
X124762142Y-21075333D01*
X123905000Y-21646761D02*
X124000238Y-21694380D01*
X124190714Y-21694380D01*
X124285952Y-21646761D01*
X124333571Y-21551523D01*
X124333571Y-21170571D01*
X124285952Y-21075333D01*
X124190714Y-21027714D01*
X124000238Y-21027714D01*
X123905000Y-21075333D01*
X123857380Y-21170571D01*
X123857380Y-21265809D01*
X124333571Y-21361047D01*
X122809761Y-21027714D02*
X122428809Y-21027714D01*
X122666904Y-20694380D02*
X122666904Y-21551523D01*
X122619285Y-21646761D01*
X122524047Y-21694380D01*
X122428809Y-21694380D01*
X122095476Y-21694380D02*
X122095476Y-20694380D01*
X121666904Y-21694380D02*
X121666904Y-21170571D01*
X121714523Y-21075333D01*
X121809761Y-21027714D01*
X121952619Y-21027714D01*
X122047857Y-21075333D01*
X122095476Y-21122952D01*
X120809761Y-21646761D02*
X120905000Y-21694380D01*
X121095476Y-21694380D01*
X121190714Y-21646761D01*
X121238333Y-21551523D01*
X121238333Y-21170571D01*
X121190714Y-21075333D01*
X121095476Y-21027714D01*
X120905000Y-21027714D01*
X120809761Y-21075333D01*
X120762142Y-21170571D01*
X120762142Y-21265809D01*
X121238333Y-21361047D01*
X119571666Y-21694380D02*
X119571666Y-20694380D01*
X119333571Y-20694380D01*
X119190714Y-20742000D01*
X119095476Y-20837238D01*
X119047857Y-20932476D01*
X119000238Y-21122952D01*
X119000238Y-21265809D01*
X119047857Y-21456285D01*
X119095476Y-21551523D01*
X119190714Y-21646761D01*
X119333571Y-21694380D01*
X119571666Y-21694380D01*
X118238333Y-21170571D02*
X118095476Y-21218190D01*
X118047857Y-21265809D01*
X118000238Y-21361047D01*
X118000238Y-21503904D01*
X118047857Y-21599142D01*
X118095476Y-21646761D01*
X118190714Y-21694380D01*
X118571666Y-21694380D01*
X118571666Y-20694380D01*
X118238333Y-20694380D01*
X118143095Y-20742000D01*
X118095476Y-20789619D01*
X118047857Y-20884857D01*
X118047857Y-20980095D01*
X118095476Y-21075333D01*
X118143095Y-21122952D01*
X118238333Y-21170571D01*
X118571666Y-21170571D01*
X117571666Y-21313428D02*
X116809761Y-21313428D01*
X116381190Y-20789619D02*
X116333571Y-20742000D01*
X116238333Y-20694380D01*
X116000238Y-20694380D01*
X115905000Y-20742000D01*
X115857380Y-20789619D01*
X115809761Y-20884857D01*
X115809761Y-20980095D01*
X115857380Y-21122952D01*
X116428809Y-21694380D01*
X115809761Y-21694380D01*
X114905000Y-20694380D02*
X115381190Y-20694380D01*
X115428809Y-21170571D01*
X115381190Y-21122952D01*
X115285952Y-21075333D01*
X115047857Y-21075333D01*
X114952619Y-21122952D01*
X114905000Y-21170571D01*
X114857380Y-21265809D01*
X114857380Y-21503904D01*
X114905000Y-21599142D01*
X114952619Y-21646761D01*
X115047857Y-21694380D01*
X115285952Y-21694380D01*
X115381190Y-21646761D01*
X115428809Y-21599142D01*
X113476428Y-20694380D02*
X113285952Y-20694380D01*
X113190714Y-20742000D01*
X113095476Y-20837238D01*
X113047857Y-21027714D01*
X113047857Y-21361047D01*
X113095476Y-21551523D01*
X113190714Y-21646761D01*
X113285952Y-21694380D01*
X113476428Y-21694380D01*
X113571666Y-21646761D01*
X113666904Y-21551523D01*
X113714523Y-21361047D01*
X113714523Y-21027714D01*
X113666904Y-20837238D01*
X113571666Y-20742000D01*
X113476428Y-20694380D01*
X112047857Y-21694380D02*
X112381190Y-21218190D01*
X112619285Y-21694380D02*
X112619285Y-20694380D01*
X112238333Y-20694380D01*
X112143095Y-20742000D01*
X112095476Y-20789619D01*
X112047857Y-20884857D01*
X112047857Y-21027714D01*
X112095476Y-21122952D01*
X112143095Y-21170571D01*
X112238333Y-21218190D01*
X112619285Y-21218190D01*
X110381190Y-20694380D02*
X110857380Y-20694380D01*
X110905000Y-21170571D01*
X110857380Y-21122952D01*
X110762142Y-21075333D01*
X110524047Y-21075333D01*
X110428809Y-21122952D01*
X110381190Y-21170571D01*
X110333571Y-21265809D01*
X110333571Y-21503904D01*
X110381190Y-21599142D01*
X110428809Y-21646761D01*
X110524047Y-21694380D01*
X110762142Y-21694380D01*
X110857380Y-21646761D01*
X110905000Y-21599142D01*
X109714523Y-20694380D02*
X109619285Y-20694380D01*
X109524047Y-20742000D01*
X109476428Y-20789619D01*
X109428809Y-20884857D01*
X109381190Y-21075333D01*
X109381190Y-21313428D01*
X109428809Y-21503904D01*
X109476428Y-21599142D01*
X109524047Y-21646761D01*
X109619285Y-21694380D01*
X109714523Y-21694380D01*
X109809761Y-21646761D01*
X109857380Y-21599142D01*
X109905000Y-21503904D01*
X109952619Y-21313428D01*
X109952619Y-21075333D01*
X109905000Y-20884857D01*
X109857380Y-20789619D01*
X109809761Y-20742000D01*
X109714523Y-20694380D01*
X108952619Y-21313428D02*
X108190714Y-21313428D01*
X107714523Y-21027714D02*
X107714523Y-22027714D01*
X107714523Y-21075333D02*
X107619285Y-21027714D01*
X107428809Y-21027714D01*
X107333571Y-21075333D01*
X107285952Y-21122952D01*
X107238333Y-21218190D01*
X107238333Y-21503904D01*
X107285952Y-21599142D01*
X107333571Y-21646761D01*
X107428809Y-21694380D01*
X107619285Y-21694380D01*
X107714523Y-21646761D01*
X106809761Y-21694380D02*
X106809761Y-21027714D01*
X106809761Y-20694380D02*
X106857380Y-20742000D01*
X106809761Y-20789619D01*
X106762142Y-20742000D01*
X106809761Y-20694380D01*
X106809761Y-20789619D01*
X106333571Y-21027714D02*
X106333571Y-21694380D01*
X106333571Y-21122952D02*
X106285952Y-21075333D01*
X106190714Y-21027714D01*
X106047857Y-21027714D01*
X105952619Y-21075333D01*
X105905000Y-21170571D01*
X105905000Y-21694380D01*
X104666904Y-21694380D02*
X104666904Y-21027714D01*
X104666904Y-21218190D02*
X104619285Y-21122952D01*
X104571666Y-21075333D01*
X104476428Y-21027714D01*
X104381190Y-21027714D01*
X104047857Y-21694380D02*
X104047857Y-21027714D01*
X104047857Y-20694380D02*
X104095476Y-20742000D01*
X104047857Y-20789619D01*
X104000238Y-20742000D01*
X104047857Y-20694380D01*
X104047857Y-20789619D01*
X103571666Y-21694380D02*
X103571666Y-20694380D01*
X103571666Y-21075333D02*
X103476428Y-21027714D01*
X103285952Y-21027714D01*
X103190714Y-21075333D01*
X103143095Y-21122952D01*
X103095476Y-21218190D01*
X103095476Y-21503904D01*
X103143095Y-21599142D01*
X103190714Y-21646761D01*
X103285952Y-21694380D01*
X103476428Y-21694380D01*
X103571666Y-21646761D01*
X102666904Y-21694380D02*
X102666904Y-20694380D01*
X102666904Y-21075333D02*
X102571666Y-21027714D01*
X102381190Y-21027714D01*
X102285952Y-21075333D01*
X102238333Y-21122952D01*
X102190714Y-21218190D01*
X102190714Y-21503904D01*
X102238333Y-21599142D01*
X102285952Y-21646761D01*
X102381190Y-21694380D01*
X102571666Y-21694380D01*
X102666904Y-21646761D01*
X101619285Y-21694380D02*
X101714523Y-21646761D01*
X101762142Y-21599142D01*
X101809761Y-21503904D01*
X101809761Y-21218190D01*
X101762142Y-21122952D01*
X101714523Y-21075333D01*
X101619285Y-21027714D01*
X101476428Y-21027714D01*
X101381190Y-21075333D01*
X101333571Y-21122952D01*
X101285952Y-21218190D01*
X101285952Y-21503904D01*
X101333571Y-21599142D01*
X101381190Y-21646761D01*
X101476428Y-21694380D01*
X101619285Y-21694380D01*
X100857380Y-21027714D02*
X100857380Y-21694380D01*
X100857380Y-21122952D02*
X100809761Y-21075333D01*
X100714523Y-21027714D01*
X100571666Y-21027714D01*
X100476428Y-21075333D01*
X100428809Y-21170571D01*
X100428809Y-21694380D01*
X98762142Y-21646761D02*
X98857380Y-21694380D01*
X99047857Y-21694380D01*
X99143095Y-21646761D01*
X99190714Y-21599142D01*
X99238333Y-21503904D01*
X99238333Y-21218190D01*
X99190714Y-21122952D01*
X99143095Y-21075333D01*
X99047857Y-21027714D01*
X98857380Y-21027714D01*
X98762142Y-21075333D01*
X98190714Y-21694380D02*
X98285952Y-21646761D01*
X98333571Y-21599142D01*
X98381190Y-21503904D01*
X98381190Y-21218190D01*
X98333571Y-21122952D01*
X98285952Y-21075333D01*
X98190714Y-21027714D01*
X98047857Y-21027714D01*
X97952619Y-21075333D01*
X97905000Y-21122952D01*
X97857380Y-21218190D01*
X97857380Y-21503904D01*
X97905000Y-21599142D01*
X97952619Y-21646761D01*
X98047857Y-21694380D01*
X98190714Y-21694380D01*
X97428809Y-21027714D02*
X97428809Y-21694380D01*
X97428809Y-21122952D02*
X97381190Y-21075333D01*
X97285952Y-21027714D01*
X97143095Y-21027714D01*
X97047857Y-21075333D01*
X97000238Y-21170571D01*
X97000238Y-21694380D01*
X96524047Y-21027714D02*
X96524047Y-21694380D01*
X96524047Y-21122952D02*
X96476428Y-21075333D01*
X96381190Y-21027714D01*
X96238333Y-21027714D01*
X96143095Y-21075333D01*
X96095476Y-21170571D01*
X96095476Y-21694380D01*
X95238333Y-21646761D02*
X95333571Y-21694380D01*
X95524047Y-21694380D01*
X95619285Y-21646761D01*
X95666904Y-21551523D01*
X95666904Y-21170571D01*
X95619285Y-21075333D01*
X95524047Y-21027714D01*
X95333571Y-21027714D01*
X95238333Y-21075333D01*
X95190714Y-21170571D01*
X95190714Y-21265809D01*
X95666904Y-21361047D01*
X94333571Y-21646761D02*
X94428809Y-21694380D01*
X94619285Y-21694380D01*
X94714523Y-21646761D01*
X94762142Y-21599142D01*
X94809761Y-21503904D01*
X94809761Y-21218190D01*
X94762142Y-21122952D01*
X94714523Y-21075333D01*
X94619285Y-21027714D01*
X94428809Y-21027714D01*
X94333571Y-21075333D01*
X94047857Y-21027714D02*
X93666904Y-21027714D01*
X93905000Y-20694380D02*
X93905000Y-21551523D01*
X93857380Y-21646761D01*
X93762142Y-21694380D01*
X93666904Y-21694380D01*
X93190714Y-21694380D02*
X93285952Y-21646761D01*
X93333571Y-21599142D01*
X93381190Y-21503904D01*
X93381190Y-21218190D01*
X93333571Y-21122952D01*
X93285952Y-21075333D01*
X93190714Y-21027714D01*
X93047857Y-21027714D01*
X92952619Y-21075333D01*
X92905000Y-21122952D01*
X92857380Y-21218190D01*
X92857380Y-21503904D01*
X92905000Y-21599142D01*
X92952619Y-21646761D01*
X93047857Y-21694380D01*
X93190714Y-21694380D01*
X92428809Y-21694380D02*
X92428809Y-21027714D01*
X92428809Y-21218190D02*
X92381190Y-21122952D01*
X92333571Y-21075333D01*
X92238333Y-21027714D01*
X92143095Y-21027714D01*
X91809761Y-21599142D02*
X91762142Y-21646761D01*
X91809761Y-21694380D01*
X91857380Y-21646761D01*
X91809761Y-21599142D01*
X91809761Y-21694380D01*
X118024047Y-23344380D02*
X118024047Y-22344380D01*
X117785952Y-22344380D01*
X117643095Y-22392000D01*
X117547857Y-22487238D01*
X117500238Y-22582476D01*
X117452619Y-22772952D01*
X117452619Y-22915809D01*
X117500238Y-23106285D01*
X117547857Y-23201523D01*
X117643095Y-23296761D01*
X117785952Y-23344380D01*
X118024047Y-23344380D01*
X116833571Y-22344380D02*
X116643095Y-22344380D01*
X116547857Y-22392000D01*
X116452619Y-22487238D01*
X116405000Y-22677714D01*
X116405000Y-23011047D01*
X116452619Y-23201523D01*
X116547857Y-23296761D01*
X116643095Y-23344380D01*
X116833571Y-23344380D01*
X116928809Y-23296761D01*
X117024047Y-23201523D01*
X117071666Y-23011047D01*
X117071666Y-22677714D01*
X117024047Y-22487238D01*
X116928809Y-22392000D01*
X116833571Y-22344380D01*
X115214523Y-23344380D02*
X115214523Y-22344380D01*
X114643095Y-23344380D01*
X114643095Y-22344380D01*
X113976428Y-22344380D02*
X113785952Y-22344380D01*
X113690714Y-22392000D01*
X113595476Y-22487238D01*
X113547857Y-22677714D01*
X113547857Y-23011047D01*
X113595476Y-23201523D01*
X113690714Y-23296761D01*
X113785952Y-23344380D01*
X113976428Y-23344380D01*
X114071666Y-23296761D01*
X114166904Y-23201523D01*
X114214523Y-23011047D01*
X114214523Y-22677714D01*
X114166904Y-22487238D01*
X114071666Y-22392000D01*
X113976428Y-22344380D01*
X113262142Y-22344380D02*
X112690714Y-22344380D01*
X112976428Y-23344380D02*
X112976428Y-22344380D01*
X111595476Y-22344380D02*
X111595476Y-23153904D01*
X111547857Y-23249142D01*
X111500238Y-23296761D01*
X111405000Y-23344380D01*
X111214523Y-23344380D01*
X111119285Y-23296761D01*
X111071666Y-23249142D01*
X111024047Y-23153904D01*
X111024047Y-22344380D01*
X110595476Y-23296761D02*
X110452619Y-23344380D01*
X110214523Y-23344380D01*
X110119285Y-23296761D01*
X110071666Y-23249142D01*
X110024047Y-23153904D01*
X110024047Y-23058666D01*
X110071666Y-22963428D01*
X110119285Y-22915809D01*
X110214523Y-22868190D01*
X110405000Y-22820571D01*
X110500238Y-22772952D01*
X110547857Y-22725333D01*
X110595476Y-22630095D01*
X110595476Y-22534857D01*
X110547857Y-22439619D01*
X110500238Y-22392000D01*
X110405000Y-22344380D01*
X110166904Y-22344380D01*
X110024047Y-22392000D01*
X109595476Y-22820571D02*
X109262142Y-22820571D01*
X109119285Y-23344380D02*
X109595476Y-23344380D01*
X109595476Y-22344380D01*
X109119285Y-22344380D01*
X107595476Y-22820571D02*
X107452619Y-22868190D01*
X107405000Y-22915809D01*
X107357380Y-23011047D01*
X107357380Y-23153904D01*
X107405000Y-23249142D01*
X107452619Y-23296761D01*
X107547857Y-23344380D01*
X107928809Y-23344380D01*
X107928809Y-22344380D01*
X107595476Y-22344380D01*
X107500238Y-22392000D01*
X107452619Y-22439619D01*
X107405000Y-22534857D01*
X107405000Y-22630095D01*
X107452619Y-22725333D01*
X107500238Y-22772952D01*
X107595476Y-22820571D01*
X107928809Y-22820571D01*
X106738333Y-22344380D02*
X106547857Y-22344380D01*
X106452619Y-22392000D01*
X106357380Y-22487238D01*
X106309761Y-22677714D01*
X106309761Y-23011047D01*
X106357380Y-23201523D01*
X106452619Y-23296761D01*
X106547857Y-23344380D01*
X106738333Y-23344380D01*
X106833571Y-23296761D01*
X106928809Y-23201523D01*
X106976428Y-23011047D01*
X106976428Y-22677714D01*
X106928809Y-22487238D01*
X106833571Y-22392000D01*
X106738333Y-22344380D01*
X106024047Y-22344380D02*
X105452619Y-22344380D01*
X105738333Y-23344380D02*
X105738333Y-22344380D01*
X105119285Y-23344380D02*
X105119285Y-22344380D01*
X105119285Y-22820571D02*
X104547857Y-22820571D01*
X104547857Y-23344380D02*
X104547857Y-22344380D01*
X127571666Y-25375333D02*
X127619285Y-25327714D01*
X127714523Y-25184857D01*
X127762142Y-25089619D01*
X127809761Y-24946761D01*
X127857380Y-24708666D01*
X127857380Y-24518190D01*
X127809761Y-24280095D01*
X127762142Y-24137238D01*
X127714523Y-24042000D01*
X127619285Y-23899142D01*
X127571666Y-23851523D01*
X127190714Y-23994380D02*
X127190714Y-24803904D01*
X127143095Y-24899142D01*
X127095476Y-24946761D01*
X127000238Y-24994380D01*
X126809761Y-24994380D01*
X126714523Y-24946761D01*
X126666904Y-24899142D01*
X126619285Y-24803904D01*
X126619285Y-23994380D01*
X126143095Y-24327714D02*
X126143095Y-24994380D01*
X126143095Y-24422952D02*
X126095476Y-24375333D01*
X126000238Y-24327714D01*
X125857380Y-24327714D01*
X125762142Y-24375333D01*
X125714523Y-24470571D01*
X125714523Y-24994380D01*
X125095476Y-24994380D02*
X125190714Y-24946761D01*
X125238333Y-24851523D01*
X125238333Y-23994380D01*
X124333571Y-24946761D02*
X124428809Y-24994380D01*
X124619285Y-24994380D01*
X124714523Y-24946761D01*
X124762142Y-24851523D01*
X124762142Y-24470571D01*
X124714523Y-24375333D01*
X124619285Y-24327714D01*
X124428809Y-24327714D01*
X124333571Y-24375333D01*
X124285952Y-24470571D01*
X124285952Y-24565809D01*
X124762142Y-24661047D01*
X123905000Y-24946761D02*
X123809761Y-24994380D01*
X123619285Y-24994380D01*
X123524047Y-24946761D01*
X123476428Y-24851523D01*
X123476428Y-24803904D01*
X123524047Y-24708666D01*
X123619285Y-24661047D01*
X123762142Y-24661047D01*
X123857380Y-24613428D01*
X123905000Y-24518190D01*
X123905000Y-24470571D01*
X123857380Y-24375333D01*
X123762142Y-24327714D01*
X123619285Y-24327714D01*
X123524047Y-24375333D01*
X123095476Y-24946761D02*
X123000238Y-24994380D01*
X122809761Y-24994380D01*
X122714523Y-24946761D01*
X122666904Y-24851523D01*
X122666904Y-24803904D01*
X122714523Y-24708666D01*
X122809761Y-24661047D01*
X122952619Y-24661047D01*
X123047857Y-24613428D01*
X123095476Y-24518190D01*
X123095476Y-24470571D01*
X123047857Y-24375333D01*
X122952619Y-24327714D01*
X122809761Y-24327714D01*
X122714523Y-24375333D01*
X121571666Y-24327714D02*
X121333571Y-24994380D01*
X121095476Y-24327714D02*
X121333571Y-24994380D01*
X121428809Y-25232476D01*
X121476428Y-25280095D01*
X121571666Y-25327714D01*
X120571666Y-24994380D02*
X120666904Y-24946761D01*
X120714523Y-24899142D01*
X120762142Y-24803904D01*
X120762142Y-24518190D01*
X120714523Y-24422952D01*
X120666904Y-24375333D01*
X120571666Y-24327714D01*
X120428809Y-24327714D01*
X120333571Y-24375333D01*
X120285952Y-24422952D01*
X120238333Y-24518190D01*
X120238333Y-24803904D01*
X120285952Y-24899142D01*
X120333571Y-24946761D01*
X120428809Y-24994380D01*
X120571666Y-24994380D01*
X119381190Y-24327714D02*
X119381190Y-24994380D01*
X119809761Y-24327714D02*
X119809761Y-24851523D01*
X119762142Y-24946761D01*
X119666904Y-24994380D01*
X119524047Y-24994380D01*
X119428809Y-24946761D01*
X119381190Y-24899142D01*
X117571666Y-24994380D02*
X117905000Y-24518190D01*
X118143095Y-24994380D02*
X118143095Y-23994380D01*
X117762142Y-23994380D01*
X117666904Y-24042000D01*
X117619285Y-24089619D01*
X117571666Y-24184857D01*
X117571666Y-24327714D01*
X117619285Y-24422952D01*
X117666904Y-24470571D01*
X117762142Y-24518190D01*
X118143095Y-24518190D01*
X117143095Y-24470571D02*
X116809761Y-24470571D01*
X116666904Y-24994380D02*
X117143095Y-24994380D01*
X117143095Y-23994380D01*
X116666904Y-23994380D01*
X116285952Y-24708666D02*
X115809761Y-24708666D01*
X116381190Y-24994380D02*
X116047857Y-23994380D01*
X115714523Y-24994380D01*
X114905000Y-24994380D02*
X115381190Y-24994380D01*
X115381190Y-23994380D01*
X114095476Y-24994380D02*
X114571666Y-24994380D01*
X114571666Y-23994380D01*
X113571666Y-24518190D02*
X113571666Y-24994380D01*
X113905000Y-23994380D02*
X113571666Y-24518190D01*
X113238333Y-23994380D01*
X112143095Y-24994380D02*
X112143095Y-23994380D01*
X112047857Y-24613428D02*
X111762142Y-24994380D01*
X111762142Y-24327714D02*
X112143095Y-24708666D01*
X111333571Y-24327714D02*
X111333571Y-24994380D01*
X111333571Y-24422952D02*
X111285952Y-24375333D01*
X111190714Y-24327714D01*
X111047857Y-24327714D01*
X110952619Y-24375333D01*
X110905000Y-24470571D01*
X110905000Y-24994380D01*
X110285952Y-24994380D02*
X110381190Y-24946761D01*
X110428809Y-24899142D01*
X110476428Y-24803904D01*
X110476428Y-24518190D01*
X110428809Y-24422952D01*
X110381190Y-24375333D01*
X110285952Y-24327714D01*
X110143095Y-24327714D01*
X110047857Y-24375333D01*
X110000238Y-24422952D01*
X109952619Y-24518190D01*
X109952619Y-24803904D01*
X110000238Y-24899142D01*
X110047857Y-24946761D01*
X110143095Y-24994380D01*
X110285952Y-24994380D01*
X109619285Y-24327714D02*
X109428809Y-24994380D01*
X109238333Y-24518190D01*
X109047857Y-24994380D01*
X108857380Y-24327714D01*
X107809761Y-24327714D02*
X107619285Y-24994380D01*
X107428809Y-24518190D01*
X107238333Y-24994380D01*
X107047857Y-24327714D01*
X106666904Y-24994380D02*
X106666904Y-23994380D01*
X106238333Y-24994380D02*
X106238333Y-24470571D01*
X106285952Y-24375333D01*
X106381190Y-24327714D01*
X106524047Y-24327714D01*
X106619285Y-24375333D01*
X106666904Y-24422952D01*
X105333571Y-24994380D02*
X105333571Y-24470571D01*
X105381190Y-24375333D01*
X105476428Y-24327714D01*
X105666904Y-24327714D01*
X105762142Y-24375333D01*
X105333571Y-24946761D02*
X105428809Y-24994380D01*
X105666904Y-24994380D01*
X105762142Y-24946761D01*
X105809761Y-24851523D01*
X105809761Y-24756285D01*
X105762142Y-24661047D01*
X105666904Y-24613428D01*
X105428809Y-24613428D01*
X105333571Y-24565809D01*
X105000238Y-24327714D02*
X104619285Y-24327714D01*
X104857380Y-23994380D02*
X104857380Y-24851523D01*
X104809761Y-24946761D01*
X104714523Y-24994380D01*
X104619285Y-24994380D01*
X103619285Y-24327714D02*
X103381190Y-24994380D01*
X103143095Y-24327714D02*
X103381190Y-24994380D01*
X103476428Y-25232476D01*
X103524047Y-25280095D01*
X103619285Y-25327714D01*
X102619285Y-24994380D02*
X102714523Y-24946761D01*
X102762142Y-24899142D01*
X102809761Y-24803904D01*
X102809761Y-24518190D01*
X102762142Y-24422952D01*
X102714523Y-24375333D01*
X102619285Y-24327714D01*
X102476428Y-24327714D01*
X102381190Y-24375333D01*
X102333571Y-24422952D01*
X102285952Y-24518190D01*
X102285952Y-24803904D01*
X102333571Y-24899142D01*
X102381190Y-24946761D01*
X102476428Y-24994380D01*
X102619285Y-24994380D01*
X101428809Y-24327714D02*
X101428809Y-24994380D01*
X101857380Y-24327714D02*
X101857380Y-24851523D01*
X101809761Y-24946761D01*
X101714523Y-24994380D01*
X101571666Y-24994380D01*
X101476428Y-24946761D01*
X101428809Y-24899142D01*
X100905000Y-23994380D02*
X101000238Y-24184857D01*
X100476428Y-24994380D02*
X100476428Y-24327714D01*
X100476428Y-24518190D02*
X100428809Y-24422952D01*
X100381190Y-24375333D01*
X100285952Y-24327714D01*
X100190714Y-24327714D01*
X99476428Y-24946761D02*
X99571666Y-24994380D01*
X99762142Y-24994380D01*
X99857380Y-24946761D01*
X99905000Y-24851523D01*
X99905000Y-24470571D01*
X99857380Y-24375333D01*
X99762142Y-24327714D01*
X99571666Y-24327714D01*
X99476428Y-24375333D01*
X99428809Y-24470571D01*
X99428809Y-24565809D01*
X99905000Y-24661047D01*
X97809761Y-24994380D02*
X97809761Y-23994380D01*
X97809761Y-24946761D02*
X97905000Y-24994380D01*
X98095476Y-24994380D01*
X98190714Y-24946761D01*
X98238333Y-24899142D01*
X98285952Y-24803904D01*
X98285952Y-24518190D01*
X98238333Y-24422952D01*
X98190714Y-24375333D01*
X98095476Y-24327714D01*
X97905000Y-24327714D01*
X97809761Y-24375333D01*
X97190714Y-24994380D02*
X97285952Y-24946761D01*
X97333571Y-24899142D01*
X97381190Y-24803904D01*
X97381190Y-24518190D01*
X97333571Y-24422952D01*
X97285952Y-24375333D01*
X97190714Y-24327714D01*
X97047857Y-24327714D01*
X96952619Y-24375333D01*
X96905000Y-24422952D01*
X96857380Y-24518190D01*
X96857380Y-24803904D01*
X96905000Y-24899142D01*
X96952619Y-24946761D01*
X97047857Y-24994380D01*
X97190714Y-24994380D01*
X96428809Y-24994380D02*
X96428809Y-24327714D01*
X96428809Y-23994380D02*
X96476428Y-24042000D01*
X96428809Y-24089619D01*
X96381190Y-24042000D01*
X96428809Y-23994380D01*
X96428809Y-24089619D01*
X95952619Y-24327714D02*
X95952619Y-24994380D01*
X95952619Y-24422952D02*
X95905000Y-24375333D01*
X95809761Y-24327714D01*
X95666904Y-24327714D01*
X95571666Y-24375333D01*
X95524047Y-24470571D01*
X95524047Y-24994380D01*
X94619285Y-24327714D02*
X94619285Y-25137238D01*
X94666904Y-25232476D01*
X94714523Y-25280095D01*
X94809761Y-25327714D01*
X94952619Y-25327714D01*
X95047857Y-25280095D01*
X94619285Y-24946761D02*
X94714523Y-24994380D01*
X94905000Y-24994380D01*
X95000238Y-24946761D01*
X95047857Y-24899142D01*
X95095476Y-24803904D01*
X95095476Y-24518190D01*
X95047857Y-24422952D01*
X95000238Y-24375333D01*
X94905000Y-24327714D01*
X94714523Y-24327714D01*
X94619285Y-24375333D01*
X94238333Y-25375333D02*
X94190714Y-25327714D01*
X94095476Y-25184857D01*
X94047857Y-25089619D01*
X94000238Y-24946761D01*
X93952619Y-24708666D01*
X93952619Y-24518190D01*
X94000238Y-24280095D01*
X94047857Y-24137238D01*
X94095476Y-24042000D01*
X94190714Y-23899142D01*
X94238333Y-23851523D01*
D13*
X83800000Y-45696000D02*
X141800000Y-45696000D01*
X83800000Y-45696000D02*
G75*
G02X80300000Y-42196000I0J3500000D01*
G01*
X145300000Y-42196000D02*
G75*
G02X141800000Y-45696000I-3500000J0D01*
G01*
X80300000Y6800000D02*
X80300000Y-42196000D01*
X145300000Y6800000D02*
X145300000Y-42196000D01*
X83800000Y10300000D02*
X141800000Y10300000D01*
X80300000Y6800000D02*
G75*
G02X83800000Y10300000I3500000J0D01*
G01*
X141800000Y10300000D02*
G75*
G02X145300000Y6800000I0J-3500000D01*
G01*
D14*
%TO.C,J6*%
X139321600Y-45750000D02*
X139321600Y-33350000D01*
X86281600Y-45750000D02*
X139321600Y-45750000D01*
X86281600Y-33350000D02*
X86281600Y-45750000D01*
X139321600Y-33350000D02*
X86281600Y-33350000D01*
D10*
%TO.C,J1*%
X87340000Y5530000D02*
X87340000Y4200000D01*
X87340000Y4200000D02*
X88670000Y4200000D01*
X87340000Y6800000D02*
X89940000Y6800000D01*
X89940000Y6800000D02*
X89940000Y4200000D01*
X89940000Y4200000D02*
X138260000Y4200000D01*
X138260000Y9400000D02*
X138260000Y4200000D01*
X87340000Y9400000D02*
X138260000Y9400000D01*
X87340000Y9400000D02*
X87340000Y6800000D01*
%TD*%
%TO.C,*%
D15*
X305212333Y-88210523D02*
X305212333Y-89117666D01*
X305272809Y-89299095D01*
X305393761Y-89420047D01*
X305575190Y-89480523D01*
X305696142Y-89480523D01*
X304063285Y-88210523D02*
X304305190Y-88210523D01*
X304426142Y-88271000D01*
X304486619Y-88331476D01*
X304607571Y-88512904D01*
X304668047Y-88754809D01*
X304668047Y-89238619D01*
X304607571Y-89359571D01*
X304547095Y-89420047D01*
X304426142Y-89480523D01*
X304184238Y-89480523D01*
X304063285Y-89420047D01*
X304002809Y-89359571D01*
X303942333Y-89238619D01*
X303942333Y-88936238D01*
X304002809Y-88815285D01*
X304063285Y-88754809D01*
X304184238Y-88694333D01*
X304426142Y-88694333D01*
X304547095Y-88754809D01*
X304607571Y-88815285D01*
X304668047Y-88936238D01*
%TO.C,J6*%
X113823333Y-33854523D02*
X113823333Y-34761666D01*
X113883809Y-34943095D01*
X114004761Y-35064047D01*
X114186190Y-35124523D01*
X114307142Y-35124523D01*
X112674285Y-33854523D02*
X112916190Y-33854523D01*
X113037142Y-33915000D01*
X113097619Y-33975476D01*
X113218571Y-34156904D01*
X113279047Y-34398809D01*
X113279047Y-34882619D01*
X113218571Y-35003571D01*
X113158095Y-35064047D01*
X113037142Y-35124523D01*
X112795238Y-35124523D01*
X112674285Y-35064047D01*
X112613809Y-35003571D01*
X112553333Y-34882619D01*
X112553333Y-34580238D01*
X112613809Y-34459285D01*
X112674285Y-34398809D01*
X112795238Y-34338333D01*
X113037142Y-34338333D01*
X113158095Y-34398809D01*
X113218571Y-34459285D01*
X113279047Y-34580238D01*
%TO.C,J1*%
D11*
X85352380Y7133334D02*
X86066666Y7133334D01*
X86209523Y7180953D01*
X86304761Y7276191D01*
X86352380Y7419048D01*
X86352380Y7514286D01*
X86352380Y6133334D02*
X86352380Y6704762D01*
X86352380Y6419048D02*
X85352380Y6419048D01*
X85495238Y6514286D01*
X85590476Y6609524D01*
X85638095Y6704762D01*
%TD*%
M02*
