%TF.GenerationSoftware,KiCad,Pcbnew,(5.1.6)-1*%
%TF.CreationDate,2020-08-20T09:51:53-05:00*%
%TF.ProjectId,rascsi_2p2,72617363-7369-45f3-9270-322e6b696361,rev?*%
%TF.SameCoordinates,PX59d60c0PY325aa00*%
%TF.FileFunction,Soldermask,Top*%
%TF.FilePolarity,Negative*%
%FSLAX46Y46*%
G04 Gerber Fmt 4.6, Leading zero omitted, Abs format (unit mm)*
G04 Created by KiCad (PCBNEW (5.1.6)-1) date 2020-08-20 09:51:53*
%MOMM*%
%LPD*%
G01*
G04 APERTURE LIST*
%TA.AperFunction,Profile*%
%ADD10C,0.050000*%
%TD*%
%ADD11C,4.945000*%
%ADD12C,1.645000*%
%ADD13R,0.750000X2.050000*%
%ADD14R,1.200000X1.200000*%
%ADD15C,0.750000*%
%ADD16C,2.100000*%
%ADD17R,1.500000X0.500000*%
%ADD18O,1.800000X1.800000*%
%ADD19R,1.800000X1.800000*%
%ADD20C,0.900000*%
%ADD21C,5.500000*%
%ADD22R,1.525000X0.850000*%
G04 APERTURE END LIST*
D10*
X83800000Y-45696000D02*
X141800000Y-45696000D01*
X83800000Y-45696000D02*
G75*
G02*
X80300000Y-42196000I0J3500000D01*
G01*
X145300000Y-42196000D02*
G75*
G02*
X141800000Y-45696000I-3500000J0D01*
G01*
X80300000Y6800000D02*
X80300000Y-42196000D01*
X145300000Y6800000D02*
X145300000Y-42196000D01*
X83800000Y10300000D02*
X141800000Y10300000D01*
X80300000Y6800000D02*
G75*
G02*
X83800000Y10300000I3500000J0D01*
G01*
X141800000Y10300000D02*
G75*
G02*
X145300000Y6800000I0J-3500000D01*
G01*
D11*
%TO.C,J6*%
X89281600Y-36250000D03*
X136321600Y-36250000D03*
D12*
X97566600Y-37670000D03*
X100336600Y-37670000D03*
X103106600Y-37670000D03*
X105876600Y-37670000D03*
X108646600Y-37670000D03*
X111416600Y-37670000D03*
X114186600Y-37670000D03*
X116956600Y-37670000D03*
X119726600Y-37670000D03*
X122496600Y-37670000D03*
X125266600Y-37670000D03*
X128036600Y-37670000D03*
X96181600Y-34830000D03*
X98951600Y-34830000D03*
X101721600Y-34830000D03*
X104491600Y-34830000D03*
X107261600Y-34830000D03*
X110031600Y-34830000D03*
X112801600Y-34830000D03*
X115571600Y-34830000D03*
X118341600Y-34830000D03*
X121111600Y-34830000D03*
X123881600Y-34830000D03*
X126651600Y-34830000D03*
X129421600Y-34830000D03*
%TD*%
D13*
%TO.C,IC4*%
X137067000Y-9710000D03*
X135797000Y-9710000D03*
X134527000Y-9710000D03*
X133257000Y-9710000D03*
X131987000Y-9710000D03*
X130717000Y-9710000D03*
X129447000Y-9710000D03*
X128177000Y-9710000D03*
X126907000Y-9710000D03*
X125637000Y-9710000D03*
X125637000Y-260000D03*
X126907000Y-260000D03*
X128177000Y-260000D03*
X129447000Y-260000D03*
X130717000Y-260000D03*
X131987000Y-260000D03*
X133257000Y-260000D03*
X134527000Y-260000D03*
X135797000Y-260000D03*
X137067000Y-260000D03*
%TD*%
%TO.C,IC3*%
X124113000Y-9710000D03*
X122843000Y-9710000D03*
X121573000Y-9710000D03*
X120303000Y-9710000D03*
X119033000Y-9710000D03*
X117763000Y-9710000D03*
X116493000Y-9710000D03*
X115223000Y-9710000D03*
X113953000Y-9710000D03*
X112683000Y-9710000D03*
X112683000Y-260000D03*
X113953000Y-260000D03*
X115223000Y-260000D03*
X116493000Y-260000D03*
X117763000Y-260000D03*
X119033000Y-260000D03*
X120303000Y-260000D03*
X121573000Y-260000D03*
X122843000Y-260000D03*
X124113000Y-260000D03*
%TD*%
%TO.C,IC2*%
X86775000Y-260000D03*
X88045000Y-260000D03*
X89315000Y-260000D03*
X90585000Y-260000D03*
X91855000Y-260000D03*
X93125000Y-260000D03*
X94395000Y-260000D03*
X95665000Y-260000D03*
X96935000Y-260000D03*
X98205000Y-260000D03*
X98205000Y-9710000D03*
X96935000Y-9710000D03*
X95665000Y-9710000D03*
X94395000Y-9710000D03*
X93125000Y-9710000D03*
X91855000Y-9710000D03*
X90585000Y-9710000D03*
X89315000Y-9710000D03*
X88045000Y-9710000D03*
X86775000Y-9710000D03*
%TD*%
%TO.C,IC1*%
X99729000Y-260000D03*
X100999000Y-260000D03*
X102269000Y-260000D03*
X103539000Y-260000D03*
X104809000Y-260000D03*
X106079000Y-260000D03*
X107349000Y-260000D03*
X108619000Y-260000D03*
X109889000Y-260000D03*
X111159000Y-260000D03*
X111159000Y-9710000D03*
X109889000Y-9710000D03*
X108619000Y-9710000D03*
X107349000Y-9710000D03*
X106079000Y-9710000D03*
X104809000Y-9710000D03*
X103539000Y-9710000D03*
X102269000Y-9710000D03*
X100999000Y-9710000D03*
X99729000Y-9710000D03*
%TD*%
D14*
%TO.C,D5*%
X128494500Y-15020000D03*
X128494500Y-12220000D03*
%TD*%
D15*
%TO.C,J8*%
X141998000Y-6668000D03*
X141998000Y-10668000D03*
D16*
X140678000Y-12243000D03*
X140678000Y-5093000D03*
X144128000Y-5093000D03*
X144128000Y-12243000D03*
D17*
X141178000Y-7368000D03*
X141178000Y-8018000D03*
X141178000Y-8668000D03*
X141178000Y-9318000D03*
X141178000Y-9968000D03*
%TD*%
D18*
%TO.C,J2*%
X139226000Y857000D03*
D19*
X139226000Y-1683000D03*
%TD*%
D18*
%TO.C,J7*%
X84920000Y2280000D03*
D19*
X82380000Y2280000D03*
%TD*%
D18*
%TO.C,J5*%
X82560000Y-23110000D03*
X82560000Y-20570000D03*
X85100000Y-23110000D03*
X85100000Y-20570000D03*
X87640000Y-23110000D03*
D19*
X87640000Y-20570000D03*
%TD*%
%TO.C,R4*%
G36*
G01*
X139409500Y-20238000D02*
X139804500Y-20238000D01*
G75*
G02*
X139977000Y-20410500I0J-172500D01*
G01*
X139977000Y-20755500D01*
G75*
G02*
X139804500Y-20928000I-172500J0D01*
G01*
X139409500Y-20928000D01*
G75*
G02*
X139237000Y-20755500I0J172500D01*
G01*
X139237000Y-20410500D01*
G75*
G02*
X139409500Y-20238000I172500J0D01*
G01*
G37*
G36*
G01*
X139409500Y-19268000D02*
X139804500Y-19268000D01*
G75*
G02*
X139977000Y-19440500I0J-172500D01*
G01*
X139977000Y-19785500D01*
G75*
G02*
X139804500Y-19958000I-172500J0D01*
G01*
X139409500Y-19958000D01*
G75*
G02*
X139237000Y-19785500I0J172500D01*
G01*
X139237000Y-19440500D01*
G75*
G02*
X139409500Y-19268000I172500J0D01*
G01*
G37*
%TD*%
%TO.C,R2*%
G36*
G01*
X138898500Y3263000D02*
X138898500Y3658000D01*
G75*
G02*
X139071000Y3830500I172500J0D01*
G01*
X139416000Y3830500D01*
G75*
G02*
X139588500Y3658000I0J-172500D01*
G01*
X139588500Y3263000D01*
G75*
G02*
X139416000Y3090500I-172500J0D01*
G01*
X139071000Y3090500D01*
G75*
G02*
X138898500Y3263000I0J172500D01*
G01*
G37*
G36*
G01*
X137928500Y3263000D02*
X137928500Y3658000D01*
G75*
G02*
X138101000Y3830500I172500J0D01*
G01*
X138446000Y3830500D01*
G75*
G02*
X138618500Y3658000I0J-172500D01*
G01*
X138618500Y3263000D01*
G75*
G02*
X138446000Y3090500I-172500J0D01*
G01*
X138101000Y3090500D01*
G75*
G02*
X137928500Y3263000I0J172500D01*
G01*
G37*
%TD*%
%TO.C,R1*%
G36*
G01*
X138898500Y2247000D02*
X138898500Y2642000D01*
G75*
G02*
X139071000Y2814500I172500J0D01*
G01*
X139416000Y2814500D01*
G75*
G02*
X139588500Y2642000I0J-172500D01*
G01*
X139588500Y2247000D01*
G75*
G02*
X139416000Y2074500I-172500J0D01*
G01*
X139071000Y2074500D01*
G75*
G02*
X138898500Y2247000I0J172500D01*
G01*
G37*
G36*
G01*
X137928500Y2247000D02*
X137928500Y2642000D01*
G75*
G02*
X138101000Y2814500I172500J0D01*
G01*
X138446000Y2814500D01*
G75*
G02*
X138618500Y2642000I0J-172500D01*
G01*
X138618500Y2247000D01*
G75*
G02*
X138446000Y2074500I-172500J0D01*
G01*
X138101000Y2074500D01*
G75*
G02*
X137928500Y2247000I0J172500D01*
G01*
G37*
%TD*%
D18*
%TO.C,J3*%
X143226500Y-27654500D03*
X143226500Y-30194500D03*
X140686500Y-27654500D03*
X140686500Y-30194500D03*
X138146500Y-27654500D03*
X138146500Y-30194500D03*
X135606500Y-27654500D03*
X135606500Y-30194500D03*
X133066500Y-27654500D03*
X133066500Y-30194500D03*
X130526500Y-27654500D03*
X130526500Y-30194500D03*
X127986500Y-27654500D03*
X127986500Y-30194500D03*
X125446500Y-27654500D03*
X125446500Y-30194500D03*
X122906500Y-27654500D03*
X122906500Y-30194500D03*
X120366500Y-27654500D03*
X120366500Y-30194500D03*
X117826500Y-27654500D03*
X117826500Y-30194500D03*
X115286500Y-27654500D03*
X115286500Y-30194500D03*
X112746500Y-27654500D03*
X112746500Y-30194500D03*
X110206500Y-27654500D03*
X110206500Y-30194500D03*
X107666500Y-27654500D03*
X107666500Y-30194500D03*
X105126500Y-27654500D03*
X105126500Y-30194500D03*
X102586500Y-27654500D03*
X102586500Y-30194500D03*
X100046500Y-27654500D03*
X100046500Y-30194500D03*
X97506500Y-27654500D03*
X97506500Y-30194500D03*
X94966500Y-27654500D03*
X94966500Y-30194500D03*
X92426500Y-27654500D03*
X92426500Y-30194500D03*
X89886500Y-27654500D03*
X89886500Y-30194500D03*
X87346500Y-27654500D03*
X87346500Y-30194500D03*
X84806500Y-27654500D03*
X84806500Y-30194500D03*
X82266500Y-27654500D03*
D19*
X82266500Y-30194500D03*
%TD*%
%TO.C,R58*%
G36*
G01*
X101895000Y-14687500D02*
X101500000Y-14687500D01*
G75*
G02*
X101327500Y-14515000I0J172500D01*
G01*
X101327500Y-14170000D01*
G75*
G02*
X101500000Y-13997500I172500J0D01*
G01*
X101895000Y-13997500D01*
G75*
G02*
X102067500Y-14170000I0J-172500D01*
G01*
X102067500Y-14515000D01*
G75*
G02*
X101895000Y-14687500I-172500J0D01*
G01*
G37*
G36*
G01*
X101895000Y-15657500D02*
X101500000Y-15657500D01*
G75*
G02*
X101327500Y-15485000I0J172500D01*
G01*
X101327500Y-15140000D01*
G75*
G02*
X101500000Y-14967500I172500J0D01*
G01*
X101895000Y-14967500D01*
G75*
G02*
X102067500Y-15140000I0J-172500D01*
G01*
X102067500Y-15485000D01*
G75*
G02*
X101895000Y-15657500I-172500J0D01*
G01*
G37*
%TD*%
%TO.C,R57*%
G36*
G01*
X97767500Y-14687500D02*
X97372500Y-14687500D01*
G75*
G02*
X97200000Y-14515000I0J172500D01*
G01*
X97200000Y-14170000D01*
G75*
G02*
X97372500Y-13997500I172500J0D01*
G01*
X97767500Y-13997500D01*
G75*
G02*
X97940000Y-14170000I0J-172500D01*
G01*
X97940000Y-14515000D01*
G75*
G02*
X97767500Y-14687500I-172500J0D01*
G01*
G37*
G36*
G01*
X97767500Y-15657500D02*
X97372500Y-15657500D01*
G75*
G02*
X97200000Y-15485000I0J172500D01*
G01*
X97200000Y-15140000D01*
G75*
G02*
X97372500Y-14967500I172500J0D01*
G01*
X97767500Y-14967500D01*
G75*
G02*
X97940000Y-15140000I0J-172500D01*
G01*
X97940000Y-15485000D01*
G75*
G02*
X97767500Y-15657500I-172500J0D01*
G01*
G37*
%TD*%
%TO.C,R56*%
G36*
G01*
X96497500Y-14687500D02*
X96102500Y-14687500D01*
G75*
G02*
X95930000Y-14515000I0J172500D01*
G01*
X95930000Y-14170000D01*
G75*
G02*
X96102500Y-13997500I172500J0D01*
G01*
X96497500Y-13997500D01*
G75*
G02*
X96670000Y-14170000I0J-172500D01*
G01*
X96670000Y-14515000D01*
G75*
G02*
X96497500Y-14687500I-172500J0D01*
G01*
G37*
G36*
G01*
X96497500Y-15657500D02*
X96102500Y-15657500D01*
G75*
G02*
X95930000Y-15485000I0J172500D01*
G01*
X95930000Y-15140000D01*
G75*
G02*
X96102500Y-14967500I172500J0D01*
G01*
X96497500Y-14967500D01*
G75*
G02*
X96670000Y-15140000I0J-172500D01*
G01*
X96670000Y-15485000D01*
G75*
G02*
X96497500Y-15657500I-172500J0D01*
G01*
G37*
%TD*%
%TO.C,R55*%
G36*
G01*
X95227500Y-14687500D02*
X94832500Y-14687500D01*
G75*
G02*
X94660000Y-14515000I0J172500D01*
G01*
X94660000Y-14170000D01*
G75*
G02*
X94832500Y-13997500I172500J0D01*
G01*
X95227500Y-13997500D01*
G75*
G02*
X95400000Y-14170000I0J-172500D01*
G01*
X95400000Y-14515000D01*
G75*
G02*
X95227500Y-14687500I-172500J0D01*
G01*
G37*
G36*
G01*
X95227500Y-15657500D02*
X94832500Y-15657500D01*
G75*
G02*
X94660000Y-15485000I0J172500D01*
G01*
X94660000Y-15140000D01*
G75*
G02*
X94832500Y-14967500I172500J0D01*
G01*
X95227500Y-14967500D01*
G75*
G02*
X95400000Y-15140000I0J-172500D01*
G01*
X95400000Y-15485000D01*
G75*
G02*
X95227500Y-15657500I-172500J0D01*
G01*
G37*
%TD*%
%TO.C,R54*%
G36*
G01*
X93957500Y-14687500D02*
X93562500Y-14687500D01*
G75*
G02*
X93390000Y-14515000I0J172500D01*
G01*
X93390000Y-14170000D01*
G75*
G02*
X93562500Y-13997500I172500J0D01*
G01*
X93957500Y-13997500D01*
G75*
G02*
X94130000Y-14170000I0J-172500D01*
G01*
X94130000Y-14515000D01*
G75*
G02*
X93957500Y-14687500I-172500J0D01*
G01*
G37*
G36*
G01*
X93957500Y-15657500D02*
X93562500Y-15657500D01*
G75*
G02*
X93390000Y-15485000I0J172500D01*
G01*
X93390000Y-15140000D01*
G75*
G02*
X93562500Y-14967500I172500J0D01*
G01*
X93957500Y-14967500D01*
G75*
G02*
X94130000Y-15140000I0J-172500D01*
G01*
X94130000Y-15485000D01*
G75*
G02*
X93957500Y-15657500I-172500J0D01*
G01*
G37*
%TD*%
%TO.C,R53*%
G36*
G01*
X92687500Y-14687500D02*
X92292500Y-14687500D01*
G75*
G02*
X92120000Y-14515000I0J172500D01*
G01*
X92120000Y-14170000D01*
G75*
G02*
X92292500Y-13997500I172500J0D01*
G01*
X92687500Y-13997500D01*
G75*
G02*
X92860000Y-14170000I0J-172500D01*
G01*
X92860000Y-14515000D01*
G75*
G02*
X92687500Y-14687500I-172500J0D01*
G01*
G37*
G36*
G01*
X92687500Y-15657500D02*
X92292500Y-15657500D01*
G75*
G02*
X92120000Y-15485000I0J172500D01*
G01*
X92120000Y-15140000D01*
G75*
G02*
X92292500Y-14967500I172500J0D01*
G01*
X92687500Y-14967500D01*
G75*
G02*
X92860000Y-15140000I0J-172500D01*
G01*
X92860000Y-15485000D01*
G75*
G02*
X92687500Y-15657500I-172500J0D01*
G01*
G37*
%TD*%
%TO.C,R52*%
G36*
G01*
X91417500Y-14687500D02*
X91022500Y-14687500D01*
G75*
G02*
X90850000Y-14515000I0J172500D01*
G01*
X90850000Y-14170000D01*
G75*
G02*
X91022500Y-13997500I172500J0D01*
G01*
X91417500Y-13997500D01*
G75*
G02*
X91590000Y-14170000I0J-172500D01*
G01*
X91590000Y-14515000D01*
G75*
G02*
X91417500Y-14687500I-172500J0D01*
G01*
G37*
G36*
G01*
X91417500Y-15657500D02*
X91022500Y-15657500D01*
G75*
G02*
X90850000Y-15485000I0J172500D01*
G01*
X90850000Y-15140000D01*
G75*
G02*
X91022500Y-14967500I172500J0D01*
G01*
X91417500Y-14967500D01*
G75*
G02*
X91590000Y-15140000I0J-172500D01*
G01*
X91590000Y-15485000D01*
G75*
G02*
X91417500Y-15657500I-172500J0D01*
G01*
G37*
%TD*%
%TO.C,R51*%
G36*
G01*
X90147500Y-14687500D02*
X89752500Y-14687500D01*
G75*
G02*
X89580000Y-14515000I0J172500D01*
G01*
X89580000Y-14170000D01*
G75*
G02*
X89752500Y-13997500I172500J0D01*
G01*
X90147500Y-13997500D01*
G75*
G02*
X90320000Y-14170000I0J-172500D01*
G01*
X90320000Y-14515000D01*
G75*
G02*
X90147500Y-14687500I-172500J0D01*
G01*
G37*
G36*
G01*
X90147500Y-15657500D02*
X89752500Y-15657500D01*
G75*
G02*
X89580000Y-15485000I0J172500D01*
G01*
X89580000Y-15140000D01*
G75*
G02*
X89752500Y-14967500I172500J0D01*
G01*
X90147500Y-14967500D01*
G75*
G02*
X90320000Y-15140000I0J-172500D01*
G01*
X90320000Y-15485000D01*
G75*
G02*
X90147500Y-15657500I-172500J0D01*
G01*
G37*
%TD*%
%TO.C,R50*%
G36*
G01*
X88877500Y-14687500D02*
X88482500Y-14687500D01*
G75*
G02*
X88310000Y-14515000I0J172500D01*
G01*
X88310000Y-14170000D01*
G75*
G02*
X88482500Y-13997500I172500J0D01*
G01*
X88877500Y-13997500D01*
G75*
G02*
X89050000Y-14170000I0J-172500D01*
G01*
X89050000Y-14515000D01*
G75*
G02*
X88877500Y-14687500I-172500J0D01*
G01*
G37*
G36*
G01*
X88877500Y-15657500D02*
X88482500Y-15657500D01*
G75*
G02*
X88310000Y-15485000I0J172500D01*
G01*
X88310000Y-15140000D01*
G75*
G02*
X88482500Y-14967500I172500J0D01*
G01*
X88877500Y-14967500D01*
G75*
G02*
X89050000Y-15140000I0J-172500D01*
G01*
X89050000Y-15485000D01*
G75*
G02*
X88877500Y-15657500I-172500J0D01*
G01*
G37*
%TD*%
%TO.C,R49*%
G36*
G01*
X122532500Y-14687500D02*
X122137500Y-14687500D01*
G75*
G02*
X121965000Y-14515000I0J172500D01*
G01*
X121965000Y-14170000D01*
G75*
G02*
X122137500Y-13997500I172500J0D01*
G01*
X122532500Y-13997500D01*
G75*
G02*
X122705000Y-14170000I0J-172500D01*
G01*
X122705000Y-14515000D01*
G75*
G02*
X122532500Y-14687500I-172500J0D01*
G01*
G37*
G36*
G01*
X122532500Y-15657500D02*
X122137500Y-15657500D01*
G75*
G02*
X121965000Y-15485000I0J172500D01*
G01*
X121965000Y-15140000D01*
G75*
G02*
X122137500Y-14967500I172500J0D01*
G01*
X122532500Y-14967500D01*
G75*
G02*
X122705000Y-15140000I0J-172500D01*
G01*
X122705000Y-15485000D01*
G75*
G02*
X122532500Y-15657500I-172500J0D01*
G01*
G37*
%TD*%
%TO.C,R48*%
G36*
G01*
X121262500Y-14687500D02*
X120867500Y-14687500D01*
G75*
G02*
X120695000Y-14515000I0J172500D01*
G01*
X120695000Y-14170000D01*
G75*
G02*
X120867500Y-13997500I172500J0D01*
G01*
X121262500Y-13997500D01*
G75*
G02*
X121435000Y-14170000I0J-172500D01*
G01*
X121435000Y-14515000D01*
G75*
G02*
X121262500Y-14687500I-172500J0D01*
G01*
G37*
G36*
G01*
X121262500Y-15657500D02*
X120867500Y-15657500D01*
G75*
G02*
X120695000Y-15485000I0J172500D01*
G01*
X120695000Y-15140000D01*
G75*
G02*
X120867500Y-14967500I172500J0D01*
G01*
X121262500Y-14967500D01*
G75*
G02*
X121435000Y-15140000I0J-172500D01*
G01*
X121435000Y-15485000D01*
G75*
G02*
X121262500Y-15657500I-172500J0D01*
G01*
G37*
%TD*%
%TO.C,R47*%
G36*
G01*
X119992500Y-14687500D02*
X119597500Y-14687500D01*
G75*
G02*
X119425000Y-14515000I0J172500D01*
G01*
X119425000Y-14170000D01*
G75*
G02*
X119597500Y-13997500I172500J0D01*
G01*
X119992500Y-13997500D01*
G75*
G02*
X120165000Y-14170000I0J-172500D01*
G01*
X120165000Y-14515000D01*
G75*
G02*
X119992500Y-14687500I-172500J0D01*
G01*
G37*
G36*
G01*
X119992500Y-15657500D02*
X119597500Y-15657500D01*
G75*
G02*
X119425000Y-15485000I0J172500D01*
G01*
X119425000Y-15140000D01*
G75*
G02*
X119597500Y-14967500I172500J0D01*
G01*
X119992500Y-14967500D01*
G75*
G02*
X120165000Y-15140000I0J-172500D01*
G01*
X120165000Y-15485000D01*
G75*
G02*
X119992500Y-15657500I-172500J0D01*
G01*
G37*
%TD*%
%TO.C,R46*%
G36*
G01*
X118722500Y-14687500D02*
X118327500Y-14687500D01*
G75*
G02*
X118155000Y-14515000I0J172500D01*
G01*
X118155000Y-14170000D01*
G75*
G02*
X118327500Y-13997500I172500J0D01*
G01*
X118722500Y-13997500D01*
G75*
G02*
X118895000Y-14170000I0J-172500D01*
G01*
X118895000Y-14515000D01*
G75*
G02*
X118722500Y-14687500I-172500J0D01*
G01*
G37*
G36*
G01*
X118722500Y-15657500D02*
X118327500Y-15657500D01*
G75*
G02*
X118155000Y-15485000I0J172500D01*
G01*
X118155000Y-15140000D01*
G75*
G02*
X118327500Y-14967500I172500J0D01*
G01*
X118722500Y-14967500D01*
G75*
G02*
X118895000Y-15140000I0J-172500D01*
G01*
X118895000Y-15485000D01*
G75*
G02*
X118722500Y-15657500I-172500J0D01*
G01*
G37*
%TD*%
%TO.C,R45*%
G36*
G01*
X117452500Y-14687500D02*
X117057500Y-14687500D01*
G75*
G02*
X116885000Y-14515000I0J172500D01*
G01*
X116885000Y-14170000D01*
G75*
G02*
X117057500Y-13997500I172500J0D01*
G01*
X117452500Y-13997500D01*
G75*
G02*
X117625000Y-14170000I0J-172500D01*
G01*
X117625000Y-14515000D01*
G75*
G02*
X117452500Y-14687500I-172500J0D01*
G01*
G37*
G36*
G01*
X117452500Y-15657500D02*
X117057500Y-15657500D01*
G75*
G02*
X116885000Y-15485000I0J172500D01*
G01*
X116885000Y-15140000D01*
G75*
G02*
X117057500Y-14967500I172500J0D01*
G01*
X117452500Y-14967500D01*
G75*
G02*
X117625000Y-15140000I0J-172500D01*
G01*
X117625000Y-15485000D01*
G75*
G02*
X117452500Y-15657500I-172500J0D01*
G01*
G37*
%TD*%
%TO.C,R44*%
G36*
G01*
X135550000Y-14862501D02*
X135155000Y-14862501D01*
G75*
G02*
X134982500Y-14690001I0J172500D01*
G01*
X134982500Y-14345001D01*
G75*
G02*
X135155000Y-14172501I172500J0D01*
G01*
X135550000Y-14172501D01*
G75*
G02*
X135722500Y-14345001I0J-172500D01*
G01*
X135722500Y-14690001D01*
G75*
G02*
X135550000Y-14862501I-172500J0D01*
G01*
G37*
G36*
G01*
X135550000Y-15832501D02*
X135155000Y-15832501D01*
G75*
G02*
X134982500Y-15660001I0J172500D01*
G01*
X134982500Y-15315001D01*
G75*
G02*
X135155000Y-15142501I172500J0D01*
G01*
X135550000Y-15142501D01*
G75*
G02*
X135722500Y-15315001I0J-172500D01*
G01*
X135722500Y-15660001D01*
G75*
G02*
X135550000Y-15832501I-172500J0D01*
G01*
G37*
%TD*%
%TO.C,R43*%
G36*
G01*
X134280000Y-14862501D02*
X133885000Y-14862501D01*
G75*
G02*
X133712500Y-14690001I0J172500D01*
G01*
X133712500Y-14345001D01*
G75*
G02*
X133885000Y-14172501I172500J0D01*
G01*
X134280000Y-14172501D01*
G75*
G02*
X134452500Y-14345001I0J-172500D01*
G01*
X134452500Y-14690001D01*
G75*
G02*
X134280000Y-14862501I-172500J0D01*
G01*
G37*
G36*
G01*
X134280000Y-15832501D02*
X133885000Y-15832501D01*
G75*
G02*
X133712500Y-15660001I0J172500D01*
G01*
X133712500Y-15315001D01*
G75*
G02*
X133885000Y-15142501I172500J0D01*
G01*
X134280000Y-15142501D01*
G75*
G02*
X134452500Y-15315001I0J-172500D01*
G01*
X134452500Y-15660001D01*
G75*
G02*
X134280000Y-15832501I-172500J0D01*
G01*
G37*
%TD*%
%TO.C,R42*%
G36*
G01*
X133010000Y-14862501D02*
X132615000Y-14862501D01*
G75*
G02*
X132442500Y-14690001I0J172500D01*
G01*
X132442500Y-14345001D01*
G75*
G02*
X132615000Y-14172501I172500J0D01*
G01*
X133010000Y-14172501D01*
G75*
G02*
X133182500Y-14345001I0J-172500D01*
G01*
X133182500Y-14690001D01*
G75*
G02*
X133010000Y-14862501I-172500J0D01*
G01*
G37*
G36*
G01*
X133010000Y-15832501D02*
X132615000Y-15832501D01*
G75*
G02*
X132442500Y-15660001I0J172500D01*
G01*
X132442500Y-15315001D01*
G75*
G02*
X132615000Y-15142501I172500J0D01*
G01*
X133010000Y-15142501D01*
G75*
G02*
X133182500Y-15315001I0J-172500D01*
G01*
X133182500Y-15660001D01*
G75*
G02*
X133010000Y-15832501I-172500J0D01*
G01*
G37*
%TD*%
%TO.C,R41*%
G36*
G01*
X131740000Y-14862501D02*
X131345000Y-14862501D01*
G75*
G02*
X131172500Y-14690001I0J172500D01*
G01*
X131172500Y-14345001D01*
G75*
G02*
X131345000Y-14172501I172500J0D01*
G01*
X131740000Y-14172501D01*
G75*
G02*
X131912500Y-14345001I0J-172500D01*
G01*
X131912500Y-14690001D01*
G75*
G02*
X131740000Y-14862501I-172500J0D01*
G01*
G37*
G36*
G01*
X131740000Y-15832501D02*
X131345000Y-15832501D01*
G75*
G02*
X131172500Y-15660001I0J172500D01*
G01*
X131172500Y-15315001D01*
G75*
G02*
X131345000Y-15142501I172500J0D01*
G01*
X131740000Y-15142501D01*
G75*
G02*
X131912500Y-15315001I0J-172500D01*
G01*
X131912500Y-15660001D01*
G75*
G02*
X131740000Y-15832501I-172500J0D01*
G01*
G37*
%TD*%
%TO.C,R40*%
G36*
G01*
X101500000Y-12618000D02*
X101895000Y-12618000D01*
G75*
G02*
X102067500Y-12790500I0J-172500D01*
G01*
X102067500Y-13135500D01*
G75*
G02*
X101895000Y-13308000I-172500J0D01*
G01*
X101500000Y-13308000D01*
G75*
G02*
X101327500Y-13135500I0J172500D01*
G01*
X101327500Y-12790500D01*
G75*
G02*
X101500000Y-12618000I172500J0D01*
G01*
G37*
G36*
G01*
X101500000Y-11648000D02*
X101895000Y-11648000D01*
G75*
G02*
X102067500Y-11820500I0J-172500D01*
G01*
X102067500Y-12165500D01*
G75*
G02*
X101895000Y-12338000I-172500J0D01*
G01*
X101500000Y-12338000D01*
G75*
G02*
X101327500Y-12165500I0J172500D01*
G01*
X101327500Y-11820500D01*
G75*
G02*
X101500000Y-11648000I172500J0D01*
G01*
G37*
%TD*%
%TO.C,R39*%
G36*
G01*
X97372500Y-12618000D02*
X97767500Y-12618000D01*
G75*
G02*
X97940000Y-12790500I0J-172500D01*
G01*
X97940000Y-13135500D01*
G75*
G02*
X97767500Y-13308000I-172500J0D01*
G01*
X97372500Y-13308000D01*
G75*
G02*
X97200000Y-13135500I0J172500D01*
G01*
X97200000Y-12790500D01*
G75*
G02*
X97372500Y-12618000I172500J0D01*
G01*
G37*
G36*
G01*
X97372500Y-11648000D02*
X97767500Y-11648000D01*
G75*
G02*
X97940000Y-11820500I0J-172500D01*
G01*
X97940000Y-12165500D01*
G75*
G02*
X97767500Y-12338000I-172500J0D01*
G01*
X97372500Y-12338000D01*
G75*
G02*
X97200000Y-12165500I0J172500D01*
G01*
X97200000Y-11820500D01*
G75*
G02*
X97372500Y-11648000I172500J0D01*
G01*
G37*
%TD*%
%TO.C,R38*%
G36*
G01*
X96102500Y-12618000D02*
X96497500Y-12618000D01*
G75*
G02*
X96670000Y-12790500I0J-172500D01*
G01*
X96670000Y-13135500D01*
G75*
G02*
X96497500Y-13308000I-172500J0D01*
G01*
X96102500Y-13308000D01*
G75*
G02*
X95930000Y-13135500I0J172500D01*
G01*
X95930000Y-12790500D01*
G75*
G02*
X96102500Y-12618000I172500J0D01*
G01*
G37*
G36*
G01*
X96102500Y-11648000D02*
X96497500Y-11648000D01*
G75*
G02*
X96670000Y-11820500I0J-172500D01*
G01*
X96670000Y-12165500D01*
G75*
G02*
X96497500Y-12338000I-172500J0D01*
G01*
X96102500Y-12338000D01*
G75*
G02*
X95930000Y-12165500I0J172500D01*
G01*
X95930000Y-11820500D01*
G75*
G02*
X96102500Y-11648000I172500J0D01*
G01*
G37*
%TD*%
%TO.C,R37*%
G36*
G01*
X94769000Y-12618000D02*
X95164000Y-12618000D01*
G75*
G02*
X95336500Y-12790500I0J-172500D01*
G01*
X95336500Y-13135500D01*
G75*
G02*
X95164000Y-13308000I-172500J0D01*
G01*
X94769000Y-13308000D01*
G75*
G02*
X94596500Y-13135500I0J172500D01*
G01*
X94596500Y-12790500D01*
G75*
G02*
X94769000Y-12618000I172500J0D01*
G01*
G37*
G36*
G01*
X94769000Y-11648000D02*
X95164000Y-11648000D01*
G75*
G02*
X95336500Y-11820500I0J-172500D01*
G01*
X95336500Y-12165500D01*
G75*
G02*
X95164000Y-12338000I-172500J0D01*
G01*
X94769000Y-12338000D01*
G75*
G02*
X94596500Y-12165500I0J172500D01*
G01*
X94596500Y-11820500D01*
G75*
G02*
X94769000Y-11648000I172500J0D01*
G01*
G37*
%TD*%
%TO.C,R36*%
G36*
G01*
X93562500Y-12618000D02*
X93957500Y-12618000D01*
G75*
G02*
X94130000Y-12790500I0J-172500D01*
G01*
X94130000Y-13135500D01*
G75*
G02*
X93957500Y-13308000I-172500J0D01*
G01*
X93562500Y-13308000D01*
G75*
G02*
X93390000Y-13135500I0J172500D01*
G01*
X93390000Y-12790500D01*
G75*
G02*
X93562500Y-12618000I172500J0D01*
G01*
G37*
G36*
G01*
X93562500Y-11648000D02*
X93957500Y-11648000D01*
G75*
G02*
X94130000Y-11820500I0J-172500D01*
G01*
X94130000Y-12165500D01*
G75*
G02*
X93957500Y-12338000I-172500J0D01*
G01*
X93562500Y-12338000D01*
G75*
G02*
X93390000Y-12165500I0J172500D01*
G01*
X93390000Y-11820500D01*
G75*
G02*
X93562500Y-11648000I172500J0D01*
G01*
G37*
%TD*%
%TO.C,R35*%
G36*
G01*
X92292500Y-12618000D02*
X92687500Y-12618000D01*
G75*
G02*
X92860000Y-12790500I0J-172500D01*
G01*
X92860000Y-13135500D01*
G75*
G02*
X92687500Y-13308000I-172500J0D01*
G01*
X92292500Y-13308000D01*
G75*
G02*
X92120000Y-13135500I0J172500D01*
G01*
X92120000Y-12790500D01*
G75*
G02*
X92292500Y-12618000I172500J0D01*
G01*
G37*
G36*
G01*
X92292500Y-11648000D02*
X92687500Y-11648000D01*
G75*
G02*
X92860000Y-11820500I0J-172500D01*
G01*
X92860000Y-12165500D01*
G75*
G02*
X92687500Y-12338000I-172500J0D01*
G01*
X92292500Y-12338000D01*
G75*
G02*
X92120000Y-12165500I0J172500D01*
G01*
X92120000Y-11820500D01*
G75*
G02*
X92292500Y-11648000I172500J0D01*
G01*
G37*
%TD*%
%TO.C,R34*%
G36*
G01*
X91022500Y-12618000D02*
X91417500Y-12618000D01*
G75*
G02*
X91590000Y-12790500I0J-172500D01*
G01*
X91590000Y-13135500D01*
G75*
G02*
X91417500Y-13308000I-172500J0D01*
G01*
X91022500Y-13308000D01*
G75*
G02*
X90850000Y-13135500I0J172500D01*
G01*
X90850000Y-12790500D01*
G75*
G02*
X91022500Y-12618000I172500J0D01*
G01*
G37*
G36*
G01*
X91022500Y-11648000D02*
X91417500Y-11648000D01*
G75*
G02*
X91590000Y-11820500I0J-172500D01*
G01*
X91590000Y-12165500D01*
G75*
G02*
X91417500Y-12338000I-172500J0D01*
G01*
X91022500Y-12338000D01*
G75*
G02*
X90850000Y-12165500I0J172500D01*
G01*
X90850000Y-11820500D01*
G75*
G02*
X91022500Y-11648000I172500J0D01*
G01*
G37*
%TD*%
%TO.C,R33*%
G36*
G01*
X89752500Y-12618000D02*
X90147500Y-12618000D01*
G75*
G02*
X90320000Y-12790500I0J-172500D01*
G01*
X90320000Y-13135500D01*
G75*
G02*
X90147500Y-13308000I-172500J0D01*
G01*
X89752500Y-13308000D01*
G75*
G02*
X89580000Y-13135500I0J172500D01*
G01*
X89580000Y-12790500D01*
G75*
G02*
X89752500Y-12618000I172500J0D01*
G01*
G37*
G36*
G01*
X89752500Y-11648000D02*
X90147500Y-11648000D01*
G75*
G02*
X90320000Y-11820500I0J-172500D01*
G01*
X90320000Y-12165500D01*
G75*
G02*
X90147500Y-12338000I-172500J0D01*
G01*
X89752500Y-12338000D01*
G75*
G02*
X89580000Y-12165500I0J172500D01*
G01*
X89580000Y-11820500D01*
G75*
G02*
X89752500Y-11648000I172500J0D01*
G01*
G37*
%TD*%
%TO.C,R32*%
G36*
G01*
X88482500Y-12618000D02*
X88877500Y-12618000D01*
G75*
G02*
X89050000Y-12790500I0J-172500D01*
G01*
X89050000Y-13135500D01*
G75*
G02*
X88877500Y-13308000I-172500J0D01*
G01*
X88482500Y-13308000D01*
G75*
G02*
X88310000Y-13135500I0J172500D01*
G01*
X88310000Y-12790500D01*
G75*
G02*
X88482500Y-12618000I172500J0D01*
G01*
G37*
G36*
G01*
X88482500Y-11648000D02*
X88877500Y-11648000D01*
G75*
G02*
X89050000Y-11820500I0J-172500D01*
G01*
X89050000Y-12165500D01*
G75*
G02*
X88877500Y-12338000I-172500J0D01*
G01*
X88482500Y-12338000D01*
G75*
G02*
X88310000Y-12165500I0J172500D01*
G01*
X88310000Y-11820500D01*
G75*
G02*
X88482500Y-11648000I172500J0D01*
G01*
G37*
%TD*%
%TO.C,R30*%
G36*
G01*
X120804000Y-12618000D02*
X121199000Y-12618000D01*
G75*
G02*
X121371500Y-12790500I0J-172500D01*
G01*
X121371500Y-13135500D01*
G75*
G02*
X121199000Y-13308000I-172500J0D01*
G01*
X120804000Y-13308000D01*
G75*
G02*
X120631500Y-13135500I0J172500D01*
G01*
X120631500Y-12790500D01*
G75*
G02*
X120804000Y-12618000I172500J0D01*
G01*
G37*
G36*
G01*
X120804000Y-11648000D02*
X121199000Y-11648000D01*
G75*
G02*
X121371500Y-11820500I0J-172500D01*
G01*
X121371500Y-12165500D01*
G75*
G02*
X121199000Y-12338000I-172500J0D01*
G01*
X120804000Y-12338000D01*
G75*
G02*
X120631500Y-12165500I0J172500D01*
G01*
X120631500Y-11820500D01*
G75*
G02*
X120804000Y-11648000I172500J0D01*
G01*
G37*
%TD*%
%TO.C,R29*%
G36*
G01*
X119597500Y-12618000D02*
X119992500Y-12618000D01*
G75*
G02*
X120165000Y-12790500I0J-172500D01*
G01*
X120165000Y-13135500D01*
G75*
G02*
X119992500Y-13308000I-172500J0D01*
G01*
X119597500Y-13308000D01*
G75*
G02*
X119425000Y-13135500I0J172500D01*
G01*
X119425000Y-12790500D01*
G75*
G02*
X119597500Y-12618000I172500J0D01*
G01*
G37*
G36*
G01*
X119597500Y-11648000D02*
X119992500Y-11648000D01*
G75*
G02*
X120165000Y-11820500I0J-172500D01*
G01*
X120165000Y-12165500D01*
G75*
G02*
X119992500Y-12338000I-172500J0D01*
G01*
X119597500Y-12338000D01*
G75*
G02*
X119425000Y-12165500I0J172500D01*
G01*
X119425000Y-11820500D01*
G75*
G02*
X119597500Y-11648000I172500J0D01*
G01*
G37*
%TD*%
%TO.C,R28*%
G36*
G01*
X118327500Y-12618000D02*
X118722500Y-12618000D01*
G75*
G02*
X118895000Y-12790500I0J-172500D01*
G01*
X118895000Y-13135500D01*
G75*
G02*
X118722500Y-13308000I-172500J0D01*
G01*
X118327500Y-13308000D01*
G75*
G02*
X118155000Y-13135500I0J172500D01*
G01*
X118155000Y-12790500D01*
G75*
G02*
X118327500Y-12618000I172500J0D01*
G01*
G37*
G36*
G01*
X118327500Y-11648000D02*
X118722500Y-11648000D01*
G75*
G02*
X118895000Y-11820500I0J-172500D01*
G01*
X118895000Y-12165500D01*
G75*
G02*
X118722500Y-12338000I-172500J0D01*
G01*
X118327500Y-12338000D01*
G75*
G02*
X118155000Y-12165500I0J172500D01*
G01*
X118155000Y-11820500D01*
G75*
G02*
X118327500Y-11648000I172500J0D01*
G01*
G37*
%TD*%
%TO.C,R27*%
G36*
G01*
X117057500Y-12618000D02*
X117452500Y-12618000D01*
G75*
G02*
X117625000Y-12790500I0J-172500D01*
G01*
X117625000Y-13135500D01*
G75*
G02*
X117452500Y-13308000I-172500J0D01*
G01*
X117057500Y-13308000D01*
G75*
G02*
X116885000Y-13135500I0J172500D01*
G01*
X116885000Y-12790500D01*
G75*
G02*
X117057500Y-12618000I172500J0D01*
G01*
G37*
G36*
G01*
X117057500Y-11648000D02*
X117452500Y-11648000D01*
G75*
G02*
X117625000Y-11820500I0J-172500D01*
G01*
X117625000Y-12165500D01*
G75*
G02*
X117452500Y-12338000I-172500J0D01*
G01*
X117057500Y-12338000D01*
G75*
G02*
X116885000Y-12165500I0J172500D01*
G01*
X116885000Y-11820500D01*
G75*
G02*
X117057500Y-11648000I172500J0D01*
G01*
G37*
%TD*%
%TO.C,R26*%
G36*
G01*
X135155000Y-12745000D02*
X135550000Y-12745000D01*
G75*
G02*
X135722500Y-12917500I0J-172500D01*
G01*
X135722500Y-13262500D01*
G75*
G02*
X135550000Y-13435000I-172500J0D01*
G01*
X135155000Y-13435000D01*
G75*
G02*
X134982500Y-13262500I0J172500D01*
G01*
X134982500Y-12917500D01*
G75*
G02*
X135155000Y-12745000I172500J0D01*
G01*
G37*
G36*
G01*
X135155000Y-11775000D02*
X135550000Y-11775000D01*
G75*
G02*
X135722500Y-11947500I0J-172500D01*
G01*
X135722500Y-12292500D01*
G75*
G02*
X135550000Y-12465000I-172500J0D01*
G01*
X135155000Y-12465000D01*
G75*
G02*
X134982500Y-12292500I0J172500D01*
G01*
X134982500Y-11947500D01*
G75*
G02*
X135155000Y-11775000I172500J0D01*
G01*
G37*
%TD*%
%TO.C,R25*%
G36*
G01*
X133885000Y-12745000D02*
X134280000Y-12745000D01*
G75*
G02*
X134452500Y-12917500I0J-172500D01*
G01*
X134452500Y-13262500D01*
G75*
G02*
X134280000Y-13435000I-172500J0D01*
G01*
X133885000Y-13435000D01*
G75*
G02*
X133712500Y-13262500I0J172500D01*
G01*
X133712500Y-12917500D01*
G75*
G02*
X133885000Y-12745000I172500J0D01*
G01*
G37*
G36*
G01*
X133885000Y-11775000D02*
X134280000Y-11775000D01*
G75*
G02*
X134452500Y-11947500I0J-172500D01*
G01*
X134452500Y-12292500D01*
G75*
G02*
X134280000Y-12465000I-172500J0D01*
G01*
X133885000Y-12465000D01*
G75*
G02*
X133712500Y-12292500I0J172500D01*
G01*
X133712500Y-11947500D01*
G75*
G02*
X133885000Y-11775000I172500J0D01*
G01*
G37*
%TD*%
%TO.C,R24*%
G36*
G01*
X132615000Y-12745000D02*
X133010000Y-12745000D01*
G75*
G02*
X133182500Y-12917500I0J-172500D01*
G01*
X133182500Y-13262500D01*
G75*
G02*
X133010000Y-13435000I-172500J0D01*
G01*
X132615000Y-13435000D01*
G75*
G02*
X132442500Y-13262500I0J172500D01*
G01*
X132442500Y-12917500D01*
G75*
G02*
X132615000Y-12745000I172500J0D01*
G01*
G37*
G36*
G01*
X132615000Y-11775000D02*
X133010000Y-11775000D01*
G75*
G02*
X133182500Y-11947500I0J-172500D01*
G01*
X133182500Y-12292500D01*
G75*
G02*
X133010000Y-12465000I-172500J0D01*
G01*
X132615000Y-12465000D01*
G75*
G02*
X132442500Y-12292500I0J172500D01*
G01*
X132442500Y-11947500D01*
G75*
G02*
X132615000Y-11775000I172500J0D01*
G01*
G37*
%TD*%
%TO.C,R23*%
G36*
G01*
X131345000Y-12745000D02*
X131740000Y-12745000D01*
G75*
G02*
X131912500Y-12917500I0J-172500D01*
G01*
X131912500Y-13262500D01*
G75*
G02*
X131740000Y-13435000I-172500J0D01*
G01*
X131345000Y-13435000D01*
G75*
G02*
X131172500Y-13262500I0J172500D01*
G01*
X131172500Y-12917500D01*
G75*
G02*
X131345000Y-12745000I172500J0D01*
G01*
G37*
G36*
G01*
X131345000Y-11775000D02*
X131740000Y-11775000D01*
G75*
G02*
X131912500Y-11947500I0J-172500D01*
G01*
X131912500Y-12292500D01*
G75*
G02*
X131740000Y-12465000I-172500J0D01*
G01*
X131345000Y-12465000D01*
G75*
G02*
X131172500Y-12292500I0J172500D01*
G01*
X131172500Y-11947500D01*
G75*
G02*
X131345000Y-11775000I172500J0D01*
G01*
G37*
%TD*%
%TO.C,R22*%
G36*
G01*
X102770000Y2091000D02*
X103165000Y2091000D01*
G75*
G02*
X103337500Y1918500I0J-172500D01*
G01*
X103337500Y1573500D01*
G75*
G02*
X103165000Y1401000I-172500J0D01*
G01*
X102770000Y1401000D01*
G75*
G02*
X102597500Y1573500I0J172500D01*
G01*
X102597500Y1918500D01*
G75*
G02*
X102770000Y2091000I172500J0D01*
G01*
G37*
G36*
G01*
X102770000Y3061000D02*
X103165000Y3061000D01*
G75*
G02*
X103337500Y2888500I0J-172500D01*
G01*
X103337500Y2543500D01*
G75*
G02*
X103165000Y2371000I-172500J0D01*
G01*
X102770000Y2371000D01*
G75*
G02*
X102597500Y2543500I0J172500D01*
G01*
X102597500Y2888500D01*
G75*
G02*
X102770000Y3061000I172500J0D01*
G01*
G37*
%TD*%
%TO.C,R21*%
G36*
G01*
X98642500Y2091000D02*
X99037500Y2091000D01*
G75*
G02*
X99210000Y1918500I0J-172500D01*
G01*
X99210000Y1573500D01*
G75*
G02*
X99037500Y1401000I-172500J0D01*
G01*
X98642500Y1401000D01*
G75*
G02*
X98470000Y1573500I0J172500D01*
G01*
X98470000Y1918500D01*
G75*
G02*
X98642500Y2091000I172500J0D01*
G01*
G37*
G36*
G01*
X98642500Y3061000D02*
X99037500Y3061000D01*
G75*
G02*
X99210000Y2888500I0J-172500D01*
G01*
X99210000Y2543500D01*
G75*
G02*
X99037500Y2371000I-172500J0D01*
G01*
X98642500Y2371000D01*
G75*
G02*
X98470000Y2543500I0J172500D01*
G01*
X98470000Y2888500D01*
G75*
G02*
X98642500Y3061000I172500J0D01*
G01*
G37*
%TD*%
%TO.C,R20*%
G36*
G01*
X97372500Y2091000D02*
X97767500Y2091000D01*
G75*
G02*
X97940000Y1918500I0J-172500D01*
G01*
X97940000Y1573500D01*
G75*
G02*
X97767500Y1401000I-172500J0D01*
G01*
X97372500Y1401000D01*
G75*
G02*
X97200000Y1573500I0J172500D01*
G01*
X97200000Y1918500D01*
G75*
G02*
X97372500Y2091000I172500J0D01*
G01*
G37*
G36*
G01*
X97372500Y3061000D02*
X97767500Y3061000D01*
G75*
G02*
X97940000Y2888500I0J-172500D01*
G01*
X97940000Y2543500D01*
G75*
G02*
X97767500Y2371000I-172500J0D01*
G01*
X97372500Y2371000D01*
G75*
G02*
X97200000Y2543500I0J172500D01*
G01*
X97200000Y2888500D01*
G75*
G02*
X97372500Y3061000I172500J0D01*
G01*
G37*
%TD*%
%TO.C,R19*%
G36*
G01*
X96102500Y2091000D02*
X96497500Y2091000D01*
G75*
G02*
X96670000Y1918500I0J-172500D01*
G01*
X96670000Y1573500D01*
G75*
G02*
X96497500Y1401000I-172500J0D01*
G01*
X96102500Y1401000D01*
G75*
G02*
X95930000Y1573500I0J172500D01*
G01*
X95930000Y1918500D01*
G75*
G02*
X96102500Y2091000I172500J0D01*
G01*
G37*
G36*
G01*
X96102500Y3061000D02*
X96497500Y3061000D01*
G75*
G02*
X96670000Y2888500I0J-172500D01*
G01*
X96670000Y2543500D01*
G75*
G02*
X96497500Y2371000I-172500J0D01*
G01*
X96102500Y2371000D01*
G75*
G02*
X95930000Y2543500I0J172500D01*
G01*
X95930000Y2888500D01*
G75*
G02*
X96102500Y3061000I172500J0D01*
G01*
G37*
%TD*%
%TO.C,R18*%
G36*
G01*
X94832500Y2091000D02*
X95227500Y2091000D01*
G75*
G02*
X95400000Y1918500I0J-172500D01*
G01*
X95400000Y1573500D01*
G75*
G02*
X95227500Y1401000I-172500J0D01*
G01*
X94832500Y1401000D01*
G75*
G02*
X94660000Y1573500I0J172500D01*
G01*
X94660000Y1918500D01*
G75*
G02*
X94832500Y2091000I172500J0D01*
G01*
G37*
G36*
G01*
X94832500Y3061000D02*
X95227500Y3061000D01*
G75*
G02*
X95400000Y2888500I0J-172500D01*
G01*
X95400000Y2543500D01*
G75*
G02*
X95227500Y2371000I-172500J0D01*
G01*
X94832500Y2371000D01*
G75*
G02*
X94660000Y2543500I0J172500D01*
G01*
X94660000Y2888500D01*
G75*
G02*
X94832500Y3061000I172500J0D01*
G01*
G37*
%TD*%
%TO.C,R17*%
G36*
G01*
X93562500Y2091000D02*
X93957500Y2091000D01*
G75*
G02*
X94130000Y1918500I0J-172500D01*
G01*
X94130000Y1573500D01*
G75*
G02*
X93957500Y1401000I-172500J0D01*
G01*
X93562500Y1401000D01*
G75*
G02*
X93390000Y1573500I0J172500D01*
G01*
X93390000Y1918500D01*
G75*
G02*
X93562500Y2091000I172500J0D01*
G01*
G37*
G36*
G01*
X93562500Y3061000D02*
X93957500Y3061000D01*
G75*
G02*
X94130000Y2888500I0J-172500D01*
G01*
X94130000Y2543500D01*
G75*
G02*
X93957500Y2371000I-172500J0D01*
G01*
X93562500Y2371000D01*
G75*
G02*
X93390000Y2543500I0J172500D01*
G01*
X93390000Y2888500D01*
G75*
G02*
X93562500Y3061000I172500J0D01*
G01*
G37*
%TD*%
%TO.C,R16*%
G36*
G01*
X92292500Y2091000D02*
X92687500Y2091000D01*
G75*
G02*
X92860000Y1918500I0J-172500D01*
G01*
X92860000Y1573500D01*
G75*
G02*
X92687500Y1401000I-172500J0D01*
G01*
X92292500Y1401000D01*
G75*
G02*
X92120000Y1573500I0J172500D01*
G01*
X92120000Y1918500D01*
G75*
G02*
X92292500Y2091000I172500J0D01*
G01*
G37*
G36*
G01*
X92292500Y3061000D02*
X92687500Y3061000D01*
G75*
G02*
X92860000Y2888500I0J-172500D01*
G01*
X92860000Y2543500D01*
G75*
G02*
X92687500Y2371000I-172500J0D01*
G01*
X92292500Y2371000D01*
G75*
G02*
X92120000Y2543500I0J172500D01*
G01*
X92120000Y2888500D01*
G75*
G02*
X92292500Y3061000I172500J0D01*
G01*
G37*
%TD*%
%TO.C,R15*%
G36*
G01*
X91022500Y2091000D02*
X91417500Y2091000D01*
G75*
G02*
X91590000Y1918500I0J-172500D01*
G01*
X91590000Y1573500D01*
G75*
G02*
X91417500Y1401000I-172500J0D01*
G01*
X91022500Y1401000D01*
G75*
G02*
X90850000Y1573500I0J172500D01*
G01*
X90850000Y1918500D01*
G75*
G02*
X91022500Y2091000I172500J0D01*
G01*
G37*
G36*
G01*
X91022500Y3061000D02*
X91417500Y3061000D01*
G75*
G02*
X91590000Y2888500I0J-172500D01*
G01*
X91590000Y2543500D01*
G75*
G02*
X91417500Y2371000I-172500J0D01*
G01*
X91022500Y2371000D01*
G75*
G02*
X90850000Y2543500I0J172500D01*
G01*
X90850000Y2888500D01*
G75*
G02*
X91022500Y3061000I172500J0D01*
G01*
G37*
%TD*%
%TO.C,R14*%
G36*
G01*
X89752500Y2091000D02*
X90147500Y2091000D01*
G75*
G02*
X90320000Y1918500I0J-172500D01*
G01*
X90320000Y1573500D01*
G75*
G02*
X90147500Y1401000I-172500J0D01*
G01*
X89752500Y1401000D01*
G75*
G02*
X89580000Y1573500I0J172500D01*
G01*
X89580000Y1918500D01*
G75*
G02*
X89752500Y2091000I172500J0D01*
G01*
G37*
G36*
G01*
X89752500Y3061000D02*
X90147500Y3061000D01*
G75*
G02*
X90320000Y2888500I0J-172500D01*
G01*
X90320000Y2543500D01*
G75*
G02*
X90147500Y2371000I-172500J0D01*
G01*
X89752500Y2371000D01*
G75*
G02*
X89580000Y2543500I0J172500D01*
G01*
X89580000Y2888500D01*
G75*
G02*
X89752500Y3061000I172500J0D01*
G01*
G37*
%TD*%
%TO.C,R13*%
G36*
G01*
X123407500Y2091000D02*
X123802500Y2091000D01*
G75*
G02*
X123975000Y1918500I0J-172500D01*
G01*
X123975000Y1573500D01*
G75*
G02*
X123802500Y1401000I-172500J0D01*
G01*
X123407500Y1401000D01*
G75*
G02*
X123235000Y1573500I0J172500D01*
G01*
X123235000Y1918500D01*
G75*
G02*
X123407500Y2091000I172500J0D01*
G01*
G37*
G36*
G01*
X123407500Y3061000D02*
X123802500Y3061000D01*
G75*
G02*
X123975000Y2888500I0J-172500D01*
G01*
X123975000Y2543500D01*
G75*
G02*
X123802500Y2371000I-172500J0D01*
G01*
X123407500Y2371000D01*
G75*
G02*
X123235000Y2543500I0J172500D01*
G01*
X123235000Y2888500D01*
G75*
G02*
X123407500Y3061000I172500J0D01*
G01*
G37*
%TD*%
%TO.C,R12*%
G36*
G01*
X122137500Y2091000D02*
X122532500Y2091000D01*
G75*
G02*
X122705000Y1918500I0J-172500D01*
G01*
X122705000Y1573500D01*
G75*
G02*
X122532500Y1401000I-172500J0D01*
G01*
X122137500Y1401000D01*
G75*
G02*
X121965000Y1573500I0J172500D01*
G01*
X121965000Y1918500D01*
G75*
G02*
X122137500Y2091000I172500J0D01*
G01*
G37*
G36*
G01*
X122137500Y3061000D02*
X122532500Y3061000D01*
G75*
G02*
X122705000Y2888500I0J-172500D01*
G01*
X122705000Y2543500D01*
G75*
G02*
X122532500Y2371000I-172500J0D01*
G01*
X122137500Y2371000D01*
G75*
G02*
X121965000Y2543500I0J172500D01*
G01*
X121965000Y2888500D01*
G75*
G02*
X122137500Y3061000I172500J0D01*
G01*
G37*
%TD*%
%TO.C,R11*%
G36*
G01*
X120867500Y2091000D02*
X121262500Y2091000D01*
G75*
G02*
X121435000Y1918500I0J-172500D01*
G01*
X121435000Y1573500D01*
G75*
G02*
X121262500Y1401000I-172500J0D01*
G01*
X120867500Y1401000D01*
G75*
G02*
X120695000Y1573500I0J172500D01*
G01*
X120695000Y1918500D01*
G75*
G02*
X120867500Y2091000I172500J0D01*
G01*
G37*
G36*
G01*
X120867500Y3061000D02*
X121262500Y3061000D01*
G75*
G02*
X121435000Y2888500I0J-172500D01*
G01*
X121435000Y2543500D01*
G75*
G02*
X121262500Y2371000I-172500J0D01*
G01*
X120867500Y2371000D01*
G75*
G02*
X120695000Y2543500I0J172500D01*
G01*
X120695000Y2888500D01*
G75*
G02*
X120867500Y3061000I172500J0D01*
G01*
G37*
%TD*%
%TO.C,R10*%
G36*
G01*
X119597500Y2091000D02*
X119992500Y2091000D01*
G75*
G02*
X120165000Y1918500I0J-172500D01*
G01*
X120165000Y1573500D01*
G75*
G02*
X119992500Y1401000I-172500J0D01*
G01*
X119597500Y1401000D01*
G75*
G02*
X119425000Y1573500I0J172500D01*
G01*
X119425000Y1918500D01*
G75*
G02*
X119597500Y2091000I172500J0D01*
G01*
G37*
G36*
G01*
X119597500Y3061000D02*
X119992500Y3061000D01*
G75*
G02*
X120165000Y2888500I0J-172500D01*
G01*
X120165000Y2543500D01*
G75*
G02*
X119992500Y2371000I-172500J0D01*
G01*
X119597500Y2371000D01*
G75*
G02*
X119425000Y2543500I0J172500D01*
G01*
X119425000Y2888500D01*
G75*
G02*
X119597500Y3061000I172500J0D01*
G01*
G37*
%TD*%
%TO.C,R9*%
G36*
G01*
X118327500Y2091000D02*
X118722500Y2091000D01*
G75*
G02*
X118895000Y1918500I0J-172500D01*
G01*
X118895000Y1573500D01*
G75*
G02*
X118722500Y1401000I-172500J0D01*
G01*
X118327500Y1401000D01*
G75*
G02*
X118155000Y1573500I0J172500D01*
G01*
X118155000Y1918500D01*
G75*
G02*
X118327500Y2091000I172500J0D01*
G01*
G37*
G36*
G01*
X118327500Y3061000D02*
X118722500Y3061000D01*
G75*
G02*
X118895000Y2888500I0J-172500D01*
G01*
X118895000Y2543500D01*
G75*
G02*
X118722500Y2371000I-172500J0D01*
G01*
X118327500Y2371000D01*
G75*
G02*
X118155000Y2543500I0J172500D01*
G01*
X118155000Y2888500D01*
G75*
G02*
X118327500Y3061000I172500J0D01*
G01*
G37*
%TD*%
%TO.C,R8*%
G36*
G01*
X136425000Y2091000D02*
X136820000Y2091000D01*
G75*
G02*
X136992500Y1918500I0J-172500D01*
G01*
X136992500Y1573500D01*
G75*
G02*
X136820000Y1401000I-172500J0D01*
G01*
X136425000Y1401000D01*
G75*
G02*
X136252500Y1573500I0J172500D01*
G01*
X136252500Y1918500D01*
G75*
G02*
X136425000Y2091000I172500J0D01*
G01*
G37*
G36*
G01*
X136425000Y3061000D02*
X136820000Y3061000D01*
G75*
G02*
X136992500Y2888500I0J-172500D01*
G01*
X136992500Y2543500D01*
G75*
G02*
X136820000Y2371000I-172500J0D01*
G01*
X136425000Y2371000D01*
G75*
G02*
X136252500Y2543500I0J172500D01*
G01*
X136252500Y2888500D01*
G75*
G02*
X136425000Y3061000I172500J0D01*
G01*
G37*
%TD*%
%TO.C,R7*%
G36*
G01*
X135155000Y2091000D02*
X135550000Y2091000D01*
G75*
G02*
X135722500Y1918500I0J-172500D01*
G01*
X135722500Y1573500D01*
G75*
G02*
X135550000Y1401000I-172500J0D01*
G01*
X135155000Y1401000D01*
G75*
G02*
X134982500Y1573500I0J172500D01*
G01*
X134982500Y1918500D01*
G75*
G02*
X135155000Y2091000I172500J0D01*
G01*
G37*
G36*
G01*
X135155000Y3061000D02*
X135550000Y3061000D01*
G75*
G02*
X135722500Y2888500I0J-172500D01*
G01*
X135722500Y2543500D01*
G75*
G02*
X135550000Y2371000I-172500J0D01*
G01*
X135155000Y2371000D01*
G75*
G02*
X134982500Y2543500I0J172500D01*
G01*
X134982500Y2888500D01*
G75*
G02*
X135155000Y3061000I172500J0D01*
G01*
G37*
%TD*%
%TO.C,R6*%
G36*
G01*
X133885000Y2091000D02*
X134280000Y2091000D01*
G75*
G02*
X134452500Y1918500I0J-172500D01*
G01*
X134452500Y1573500D01*
G75*
G02*
X134280000Y1401000I-172500J0D01*
G01*
X133885000Y1401000D01*
G75*
G02*
X133712500Y1573500I0J172500D01*
G01*
X133712500Y1918500D01*
G75*
G02*
X133885000Y2091000I172500J0D01*
G01*
G37*
G36*
G01*
X133885000Y3061000D02*
X134280000Y3061000D01*
G75*
G02*
X134452500Y2888500I0J-172500D01*
G01*
X134452500Y2543500D01*
G75*
G02*
X134280000Y2371000I-172500J0D01*
G01*
X133885000Y2371000D01*
G75*
G02*
X133712500Y2543500I0J172500D01*
G01*
X133712500Y2888500D01*
G75*
G02*
X133885000Y3061000I172500J0D01*
G01*
G37*
%TD*%
%TO.C,R5*%
G36*
G01*
X132615000Y2091000D02*
X133010000Y2091000D01*
G75*
G02*
X133182500Y1918500I0J-172500D01*
G01*
X133182500Y1573500D01*
G75*
G02*
X133010000Y1401000I-172500J0D01*
G01*
X132615000Y1401000D01*
G75*
G02*
X132442500Y1573500I0J172500D01*
G01*
X132442500Y1918500D01*
G75*
G02*
X132615000Y2091000I172500J0D01*
G01*
G37*
G36*
G01*
X132615000Y3061000D02*
X133010000Y3061000D01*
G75*
G02*
X133182500Y2888500I0J-172500D01*
G01*
X133182500Y2543500D01*
G75*
G02*
X133010000Y2371000I-172500J0D01*
G01*
X132615000Y2371000D01*
G75*
G02*
X132442500Y2543500I0J172500D01*
G01*
X132442500Y2888500D01*
G75*
G02*
X132615000Y3061000I172500J0D01*
G01*
G37*
%TD*%
%TO.C,R3*%
G36*
G01*
X139409500Y-22143000D02*
X139804500Y-22143000D01*
G75*
G02*
X139977000Y-22315500I0J-172500D01*
G01*
X139977000Y-22660500D01*
G75*
G02*
X139804500Y-22833000I-172500J0D01*
G01*
X139409500Y-22833000D01*
G75*
G02*
X139237000Y-22660500I0J172500D01*
G01*
X139237000Y-22315500D01*
G75*
G02*
X139409500Y-22143000I172500J0D01*
G01*
G37*
G36*
G01*
X139409500Y-21173000D02*
X139804500Y-21173000D01*
G75*
G02*
X139977000Y-21345500I0J-172500D01*
G01*
X139977000Y-21690500D01*
G75*
G02*
X139804500Y-21863000I-172500J0D01*
G01*
X139409500Y-21863000D01*
G75*
G02*
X139237000Y-21690500I0J172500D01*
G01*
X139237000Y-21345500D01*
G75*
G02*
X139409500Y-21173000I172500J0D01*
G01*
G37*
%TD*%
%TO.C,FUSE1*%
G36*
G01*
X126228500Y-12899000D02*
X124918500Y-12899000D01*
G75*
G02*
X124648500Y-12629000I0J270000D01*
G01*
X124648500Y-11819000D01*
G75*
G02*
X124918500Y-11549000I270000J0D01*
G01*
X126228500Y-11549000D01*
G75*
G02*
X126498500Y-11819000I0J-270000D01*
G01*
X126498500Y-12629000D01*
G75*
G02*
X126228500Y-12899000I-270000J0D01*
G01*
G37*
G36*
G01*
X126228500Y-15699000D02*
X124918500Y-15699000D01*
G75*
G02*
X124648500Y-15429000I0J270000D01*
G01*
X124648500Y-14619000D01*
G75*
G02*
X124918500Y-14349000I270000J0D01*
G01*
X126228500Y-14349000D01*
G75*
G02*
X126498500Y-14619000I0J-270000D01*
G01*
X126498500Y-15429000D01*
G75*
G02*
X126228500Y-15699000I-270000J0D01*
G01*
G37*
%TD*%
%TO.C,R31*%
G36*
G01*
X122137500Y-12618000D02*
X122532500Y-12618000D01*
G75*
G02*
X122705000Y-12790500I0J-172500D01*
G01*
X122705000Y-13135500D01*
G75*
G02*
X122532500Y-13308000I-172500J0D01*
G01*
X122137500Y-13308000D01*
G75*
G02*
X121965000Y-13135500I0J172500D01*
G01*
X121965000Y-12790500D01*
G75*
G02*
X122137500Y-12618000I172500J0D01*
G01*
G37*
G36*
G01*
X122137500Y-11648000D02*
X122532500Y-11648000D01*
G75*
G02*
X122705000Y-11820500I0J-172500D01*
G01*
X122705000Y-12165500D01*
G75*
G02*
X122532500Y-12338000I-172500J0D01*
G01*
X122137500Y-12338000D01*
G75*
G02*
X121965000Y-12165500I0J172500D01*
G01*
X121965000Y-11820500D01*
G75*
G02*
X122137500Y-11648000I172500J0D01*
G01*
G37*
%TD*%
D18*
%TO.C,J1*%
X136930000Y8070000D03*
X136930000Y5530000D03*
X134390000Y8070000D03*
X134390000Y5530000D03*
X131850000Y8070000D03*
X131850000Y5530000D03*
X129310000Y8070000D03*
X129310000Y5530000D03*
X126770000Y8070000D03*
X126770000Y5530000D03*
X124230000Y8070000D03*
X124230000Y5530000D03*
X121690000Y8070000D03*
X121690000Y5530000D03*
X119150000Y8070000D03*
X119150000Y5530000D03*
X116610000Y8070000D03*
X116610000Y5530000D03*
X114070000Y8070000D03*
X114070000Y5530000D03*
X111530000Y8070000D03*
X111530000Y5530000D03*
X108990000Y8070000D03*
X108990000Y5530000D03*
X106450000Y8070000D03*
X106450000Y5530000D03*
X103910000Y8070000D03*
X103910000Y5530000D03*
X101370000Y8070000D03*
X101370000Y5530000D03*
X98830000Y8070000D03*
X98830000Y5530000D03*
X96290000Y8070000D03*
X96290000Y5530000D03*
X93750000Y8070000D03*
X93750000Y5530000D03*
X91210000Y8070000D03*
X91210000Y5530000D03*
X88670000Y8070000D03*
D19*
X88670000Y5530000D03*
%TD*%
D20*
%TO.C,H2*%
X143231891Y8231891D03*
X141800000Y8825000D03*
X140368109Y8231891D03*
X139775000Y6800000D03*
X140368109Y5368109D03*
X141800000Y4775000D03*
X143231891Y5368109D03*
X143825000Y6800000D03*
D21*
X141800000Y6800000D03*
%TD*%
D20*
%TO.C,H1*%
X85231891Y8231891D03*
X83800000Y8825000D03*
X82368109Y8231891D03*
X81775000Y6800000D03*
X82368109Y5368109D03*
X83800000Y4775000D03*
X85231891Y5368109D03*
X85825000Y6800000D03*
D21*
X83800000Y6800000D03*
%TD*%
D18*
%TO.C,J4*%
X83810000Y-820000D03*
X83810000Y-3360000D03*
X83810000Y-5900000D03*
X83810000Y-8440000D03*
D19*
X83810000Y-10980000D03*
%TD*%
D20*
%TO.C,H6*%
X143231891Y-40768109D03*
X141800000Y-40175000D03*
X140368109Y-40768109D03*
X139775000Y-42200000D03*
X140368109Y-43631891D03*
X141800000Y-44225000D03*
X143231891Y-43631891D03*
X143825000Y-42200000D03*
D21*
X141800000Y-42200000D03*
%TD*%
D20*
%TO.C,H5*%
X85231891Y-40768109D03*
X83800000Y-40175000D03*
X82368109Y-40768109D03*
X81775000Y-42200000D03*
X82368109Y-43631891D03*
X83800000Y-44225000D03*
X85231891Y-43631891D03*
X85825000Y-42200000D03*
D21*
X83800000Y-42200000D03*
%TD*%
D20*
%TO.C,H4*%
X143231891Y-14768109D03*
X141800000Y-14175000D03*
X140368109Y-14768109D03*
X139775000Y-16200000D03*
X140368109Y-17631891D03*
X141800000Y-18225000D03*
X143231891Y-17631891D03*
X143825000Y-16200000D03*
D21*
X141800000Y-16200000D03*
%TD*%
D20*
%TO.C,H3*%
X85231891Y-14768109D03*
X83800000Y-14175000D03*
X82368109Y-14768109D03*
X81775000Y-16200000D03*
X82368109Y-17631891D03*
X83800000Y-18225000D03*
X85231891Y-17631891D03*
X85825000Y-16200000D03*
D21*
X83800000Y-16200000D03*
%TD*%
%TO.C,D4*%
G36*
G01*
X141429500Y-19680250D02*
X141429500Y-20642750D01*
G75*
G02*
X141160750Y-20911500I-268750J0D01*
G01*
X140623250Y-20911500D01*
G75*
G02*
X140354500Y-20642750I0J268750D01*
G01*
X140354500Y-19680250D01*
G75*
G02*
X140623250Y-19411500I268750J0D01*
G01*
X141160750Y-19411500D01*
G75*
G02*
X141429500Y-19680250I0J-268750D01*
G01*
G37*
G36*
G01*
X143304500Y-19680250D02*
X143304500Y-20642750D01*
G75*
G02*
X143035750Y-20911500I-268750J0D01*
G01*
X142498250Y-20911500D01*
G75*
G02*
X142229500Y-20642750I0J268750D01*
G01*
X142229500Y-19680250D01*
G75*
G02*
X142498250Y-19411500I268750J0D01*
G01*
X143035750Y-19411500D01*
G75*
G02*
X143304500Y-19680250I0J-268750D01*
G01*
G37*
%TD*%
%TO.C,D3*%
G36*
G01*
X141429500Y-21585250D02*
X141429500Y-22547750D01*
G75*
G02*
X141160750Y-22816500I-268750J0D01*
G01*
X140623250Y-22816500D01*
G75*
G02*
X140354500Y-22547750I0J268750D01*
G01*
X140354500Y-21585250D01*
G75*
G02*
X140623250Y-21316500I268750J0D01*
G01*
X141160750Y-21316500D01*
G75*
G02*
X141429500Y-21585250I0J-268750D01*
G01*
G37*
G36*
G01*
X143304500Y-21585250D02*
X143304500Y-22547750D01*
G75*
G02*
X143035750Y-22816500I-268750J0D01*
G01*
X142498250Y-22816500D01*
G75*
G02*
X142229500Y-22547750I0J268750D01*
G01*
X142229500Y-21585250D01*
G75*
G02*
X142498250Y-21316500I268750J0D01*
G01*
X143035750Y-21316500D01*
G75*
G02*
X143304500Y-21585250I0J-268750D01*
G01*
G37*
%TD*%
%TO.C,D2*%
G36*
G01*
X142191500Y-1074750D02*
X142191500Y-2037250D01*
G75*
G02*
X141922750Y-2306000I-268750J0D01*
G01*
X141385250Y-2306000D01*
G75*
G02*
X141116500Y-2037250I0J268750D01*
G01*
X141116500Y-1074750D01*
G75*
G02*
X141385250Y-806000I268750J0D01*
G01*
X141922750Y-806000D01*
G75*
G02*
X142191500Y-1074750I0J-268750D01*
G01*
G37*
G36*
G01*
X144066500Y-1074750D02*
X144066500Y-2037250D01*
G75*
G02*
X143797750Y-2306000I-268750J0D01*
G01*
X143260250Y-2306000D01*
G75*
G02*
X142991500Y-2037250I0J268750D01*
G01*
X142991500Y-1074750D01*
G75*
G02*
X143260250Y-806000I268750J0D01*
G01*
X143797750Y-806000D01*
G75*
G02*
X144066500Y-1074750I0J-268750D01*
G01*
G37*
%TD*%
%TO.C,D1*%
G36*
G01*
X142303500Y2862250D02*
X142303500Y1899750D01*
G75*
G02*
X142034750Y1631000I-268750J0D01*
G01*
X141497250Y1631000D01*
G75*
G02*
X141228500Y1899750I0J268750D01*
G01*
X141228500Y2862250D01*
G75*
G02*
X141497250Y3131000I268750J0D01*
G01*
X142034750Y3131000D01*
G75*
G02*
X142303500Y2862250I0J-268750D01*
G01*
G37*
G36*
G01*
X144178500Y2862250D02*
X144178500Y1899750D01*
G75*
G02*
X143909750Y1631000I-268750J0D01*
G01*
X143372250Y1631000D01*
G75*
G02*
X143103500Y1899750I0J268750D01*
G01*
X143103500Y2862250D01*
G75*
G02*
X143372250Y3131000I268750J0D01*
G01*
X143909750Y3131000D01*
G75*
G02*
X144178500Y2862250I0J-268750D01*
G01*
G37*
%TD*%
D22*
%TO.C,S1*%
X130016500Y-17621500D03*
X130016500Y-18891500D03*
X137640500Y-18891500D03*
X137640500Y-17621500D03*
%TD*%
M02*
