G04 #@! TF.GenerationSoftware,KiCad,Pcbnew,(5.1.12)-1*
G04 #@! TF.CreationDate,2021-12-15T14:48:57-06:00*
G04 #@! TF.ProjectId,ctrl_board,6374726c-5f62-46f6-9172-642e6b696361,rev?*
G04 #@! TF.SameCoordinates,Original*
G04 #@! TF.FileFunction,Soldermask,Bot*
G04 #@! TF.FilePolarity,Negative*
%FSLAX46Y46*%
G04 Gerber Fmt 4.6, Leading zero omitted, Abs format (unit mm)*
G04 Created by KiCad (PCBNEW (5.1.12)-1) date 2021-12-15 14:48:57*
%MOMM*%
%LPD*%
G01*
G04 APERTURE LIST*
%ADD10C,2.000000*%
%ADD11R,1.700000X1.700000*%
%ADD12O,1.700000X1.700000*%
%ADD13C,0.150000*%
%ADD14R,1.500000X1.000000*%
%ADD15R,2.000000X2.000000*%
%ADD16R,2.000000X3.200000*%
%ADD17C,2.700000*%
G04 APERTURE END LIST*
D10*
X207390000Y-125200000D03*
X230940000Y-125200000D03*
X207390000Y-102000000D03*
X230940000Y-102000000D03*
D11*
X215380000Y-102000000D03*
D12*
X217920000Y-102000000D03*
X220460000Y-102000000D03*
X223000000Y-102000000D03*
X263182500Y-115265500D03*
X260642500Y-115265500D03*
X263182500Y-112725500D03*
X260642500Y-112725500D03*
X263182500Y-110185500D03*
X260642500Y-110185500D03*
X263182500Y-107645500D03*
X260642500Y-107645500D03*
X263182500Y-105105500D03*
X260642500Y-105105500D03*
X263182500Y-102565500D03*
D11*
X260642500Y-102565500D03*
G36*
G01*
X215375000Y-107875000D02*
X215175000Y-107875000D01*
G75*
G02*
X215075000Y-107775000I0J100000D01*
G01*
X215075000Y-106500000D01*
G75*
G02*
X215175000Y-106400000I100000J0D01*
G01*
X215375000Y-106400000D01*
G75*
G02*
X215475000Y-106500000I0J-100000D01*
G01*
X215475000Y-107775000D01*
G75*
G02*
X215375000Y-107875000I-100000J0D01*
G01*
G37*
G36*
G01*
X214725000Y-107875000D02*
X214525000Y-107875000D01*
G75*
G02*
X214425000Y-107775000I0J100000D01*
G01*
X214425000Y-106500000D01*
G75*
G02*
X214525000Y-106400000I100000J0D01*
G01*
X214725000Y-106400000D01*
G75*
G02*
X214825000Y-106500000I0J-100000D01*
G01*
X214825000Y-107775000D01*
G75*
G02*
X214725000Y-107875000I-100000J0D01*
G01*
G37*
G36*
G01*
X214075000Y-107875000D02*
X213875000Y-107875000D01*
G75*
G02*
X213775000Y-107775000I0J100000D01*
G01*
X213775000Y-106500000D01*
G75*
G02*
X213875000Y-106400000I100000J0D01*
G01*
X214075000Y-106400000D01*
G75*
G02*
X214175000Y-106500000I0J-100000D01*
G01*
X214175000Y-107775000D01*
G75*
G02*
X214075000Y-107875000I-100000J0D01*
G01*
G37*
G36*
G01*
X213425000Y-107875000D02*
X213225000Y-107875000D01*
G75*
G02*
X213125000Y-107775000I0J100000D01*
G01*
X213125000Y-106500000D01*
G75*
G02*
X213225000Y-106400000I100000J0D01*
G01*
X213425000Y-106400000D01*
G75*
G02*
X213525000Y-106500000I0J-100000D01*
G01*
X213525000Y-107775000D01*
G75*
G02*
X213425000Y-107875000I-100000J0D01*
G01*
G37*
G36*
G01*
X212775000Y-107875000D02*
X212575000Y-107875000D01*
G75*
G02*
X212475000Y-107775000I0J100000D01*
G01*
X212475000Y-106500000D01*
G75*
G02*
X212575000Y-106400000I100000J0D01*
G01*
X212775000Y-106400000D01*
G75*
G02*
X212875000Y-106500000I0J-100000D01*
G01*
X212875000Y-107775000D01*
G75*
G02*
X212775000Y-107875000I-100000J0D01*
G01*
G37*
G36*
G01*
X212125000Y-107875000D02*
X211925000Y-107875000D01*
G75*
G02*
X211825000Y-107775000I0J100000D01*
G01*
X211825000Y-106500000D01*
G75*
G02*
X211925000Y-106400000I100000J0D01*
G01*
X212125000Y-106400000D01*
G75*
G02*
X212225000Y-106500000I0J-100000D01*
G01*
X212225000Y-107775000D01*
G75*
G02*
X212125000Y-107875000I-100000J0D01*
G01*
G37*
G36*
G01*
X211475000Y-107875000D02*
X211275000Y-107875000D01*
G75*
G02*
X211175000Y-107775000I0J100000D01*
G01*
X211175000Y-106500000D01*
G75*
G02*
X211275000Y-106400000I100000J0D01*
G01*
X211475000Y-106400000D01*
G75*
G02*
X211575000Y-106500000I0J-100000D01*
G01*
X211575000Y-107775000D01*
G75*
G02*
X211475000Y-107875000I-100000J0D01*
G01*
G37*
G36*
G01*
X210825000Y-107875000D02*
X210625000Y-107875000D01*
G75*
G02*
X210525000Y-107775000I0J100000D01*
G01*
X210525000Y-106500000D01*
G75*
G02*
X210625000Y-106400000I100000J0D01*
G01*
X210825000Y-106400000D01*
G75*
G02*
X210925000Y-106500000I0J-100000D01*
G01*
X210925000Y-107775000D01*
G75*
G02*
X210825000Y-107875000I-100000J0D01*
G01*
G37*
G36*
G01*
X210825000Y-113600000D02*
X210625000Y-113600000D01*
G75*
G02*
X210525000Y-113500000I0J100000D01*
G01*
X210525000Y-112225000D01*
G75*
G02*
X210625000Y-112125000I100000J0D01*
G01*
X210825000Y-112125000D01*
G75*
G02*
X210925000Y-112225000I0J-100000D01*
G01*
X210925000Y-113500000D01*
G75*
G02*
X210825000Y-113600000I-100000J0D01*
G01*
G37*
G36*
G01*
X211475000Y-113600000D02*
X211275000Y-113600000D01*
G75*
G02*
X211175000Y-113500000I0J100000D01*
G01*
X211175000Y-112225000D01*
G75*
G02*
X211275000Y-112125000I100000J0D01*
G01*
X211475000Y-112125000D01*
G75*
G02*
X211575000Y-112225000I0J-100000D01*
G01*
X211575000Y-113500000D01*
G75*
G02*
X211475000Y-113600000I-100000J0D01*
G01*
G37*
G36*
G01*
X212125000Y-113600000D02*
X211925000Y-113600000D01*
G75*
G02*
X211825000Y-113500000I0J100000D01*
G01*
X211825000Y-112225000D01*
G75*
G02*
X211925000Y-112125000I100000J0D01*
G01*
X212125000Y-112125000D01*
G75*
G02*
X212225000Y-112225000I0J-100000D01*
G01*
X212225000Y-113500000D01*
G75*
G02*
X212125000Y-113600000I-100000J0D01*
G01*
G37*
G36*
G01*
X212775000Y-113600000D02*
X212575000Y-113600000D01*
G75*
G02*
X212475000Y-113500000I0J100000D01*
G01*
X212475000Y-112225000D01*
G75*
G02*
X212575000Y-112125000I100000J0D01*
G01*
X212775000Y-112125000D01*
G75*
G02*
X212875000Y-112225000I0J-100000D01*
G01*
X212875000Y-113500000D01*
G75*
G02*
X212775000Y-113600000I-100000J0D01*
G01*
G37*
G36*
G01*
X213425000Y-113600000D02*
X213225000Y-113600000D01*
G75*
G02*
X213125000Y-113500000I0J100000D01*
G01*
X213125000Y-112225000D01*
G75*
G02*
X213225000Y-112125000I100000J0D01*
G01*
X213425000Y-112125000D01*
G75*
G02*
X213525000Y-112225000I0J-100000D01*
G01*
X213525000Y-113500000D01*
G75*
G02*
X213425000Y-113600000I-100000J0D01*
G01*
G37*
G36*
G01*
X214075000Y-113600000D02*
X213875000Y-113600000D01*
G75*
G02*
X213775000Y-113500000I0J100000D01*
G01*
X213775000Y-112225000D01*
G75*
G02*
X213875000Y-112125000I100000J0D01*
G01*
X214075000Y-112125000D01*
G75*
G02*
X214175000Y-112225000I0J-100000D01*
G01*
X214175000Y-113500000D01*
G75*
G02*
X214075000Y-113600000I-100000J0D01*
G01*
G37*
G36*
G01*
X214725000Y-113600000D02*
X214525000Y-113600000D01*
G75*
G02*
X214425000Y-113500000I0J100000D01*
G01*
X214425000Y-112225000D01*
G75*
G02*
X214525000Y-112125000I100000J0D01*
G01*
X214725000Y-112125000D01*
G75*
G02*
X214825000Y-112225000I0J-100000D01*
G01*
X214825000Y-113500000D01*
G75*
G02*
X214725000Y-113600000I-100000J0D01*
G01*
G37*
G36*
G01*
X215375000Y-113600000D02*
X215175000Y-113600000D01*
G75*
G02*
X215075000Y-113500000I0J100000D01*
G01*
X215075000Y-112225000D01*
G75*
G02*
X215175000Y-112125000I100000J0D01*
G01*
X215375000Y-112125000D01*
G75*
G02*
X215475000Y-112225000I0J-100000D01*
G01*
X215475000Y-113500000D01*
G75*
G02*
X215375000Y-113600000I-100000J0D01*
G01*
G37*
D13*
G36*
X213323000Y-121921000D02*
G01*
X213323000Y-122471000D01*
X213322398Y-122471000D01*
X213322398Y-122495534D01*
X213317588Y-122544365D01*
X213308016Y-122592490D01*
X213293772Y-122639445D01*
X213274995Y-122684778D01*
X213251864Y-122728051D01*
X213224604Y-122768850D01*
X213193476Y-122806779D01*
X213158779Y-122841476D01*
X213120850Y-122872604D01*
X213080051Y-122899864D01*
X213036778Y-122922995D01*
X212991445Y-122941772D01*
X212944490Y-122956016D01*
X212896365Y-122965588D01*
X212847534Y-122970398D01*
X212823000Y-122970398D01*
X212823000Y-122971000D01*
X212323000Y-122971000D01*
X212323000Y-122970398D01*
X212298466Y-122970398D01*
X212249635Y-122965588D01*
X212201510Y-122956016D01*
X212154555Y-122941772D01*
X212109222Y-122922995D01*
X212065949Y-122899864D01*
X212025150Y-122872604D01*
X211987221Y-122841476D01*
X211952524Y-122806779D01*
X211921396Y-122768850D01*
X211894136Y-122728051D01*
X211871005Y-122684778D01*
X211852228Y-122639445D01*
X211837984Y-122592490D01*
X211828412Y-122544365D01*
X211823602Y-122495534D01*
X211823602Y-122471000D01*
X211823000Y-122471000D01*
X211823000Y-121921000D01*
X213323000Y-121921000D01*
G37*
D14*
X212573000Y-121171000D03*
D13*
G36*
X211823602Y-119871000D02*
G01*
X211823602Y-119846466D01*
X211828412Y-119797635D01*
X211837984Y-119749510D01*
X211852228Y-119702555D01*
X211871005Y-119657222D01*
X211894136Y-119613949D01*
X211921396Y-119573150D01*
X211952524Y-119535221D01*
X211987221Y-119500524D01*
X212025150Y-119469396D01*
X212065949Y-119442136D01*
X212109222Y-119419005D01*
X212154555Y-119400228D01*
X212201510Y-119385984D01*
X212249635Y-119376412D01*
X212298466Y-119371602D01*
X212323000Y-119371602D01*
X212323000Y-119371000D01*
X212823000Y-119371000D01*
X212823000Y-119371602D01*
X212847534Y-119371602D01*
X212896365Y-119376412D01*
X212944490Y-119385984D01*
X212991445Y-119400228D01*
X213036778Y-119419005D01*
X213080051Y-119442136D01*
X213120850Y-119469396D01*
X213158779Y-119500524D01*
X213193476Y-119535221D01*
X213224604Y-119573150D01*
X213251864Y-119613949D01*
X213274995Y-119657222D01*
X213293772Y-119702555D01*
X213308016Y-119749510D01*
X213317588Y-119797635D01*
X213322398Y-119846466D01*
X213322398Y-119871000D01*
X213323000Y-119871000D01*
X213323000Y-120421000D01*
X211823000Y-120421000D01*
X211823000Y-119871000D01*
X211823602Y-119871000D01*
G37*
G36*
X216466250Y-121921000D02*
G01*
X216466250Y-122471000D01*
X216465648Y-122471000D01*
X216465648Y-122495534D01*
X216460838Y-122544365D01*
X216451266Y-122592490D01*
X216437022Y-122639445D01*
X216418245Y-122684778D01*
X216395114Y-122728051D01*
X216367854Y-122768850D01*
X216336726Y-122806779D01*
X216302029Y-122841476D01*
X216264100Y-122872604D01*
X216223301Y-122899864D01*
X216180028Y-122922995D01*
X216134695Y-122941772D01*
X216087740Y-122956016D01*
X216039615Y-122965588D01*
X215990784Y-122970398D01*
X215966250Y-122970398D01*
X215966250Y-122971000D01*
X215466250Y-122971000D01*
X215466250Y-122970398D01*
X215441716Y-122970398D01*
X215392885Y-122965588D01*
X215344760Y-122956016D01*
X215297805Y-122941772D01*
X215252472Y-122922995D01*
X215209199Y-122899864D01*
X215168400Y-122872604D01*
X215130471Y-122841476D01*
X215095774Y-122806779D01*
X215064646Y-122768850D01*
X215037386Y-122728051D01*
X215014255Y-122684778D01*
X214995478Y-122639445D01*
X214981234Y-122592490D01*
X214971662Y-122544365D01*
X214966852Y-122495534D01*
X214966852Y-122471000D01*
X214966250Y-122471000D01*
X214966250Y-121921000D01*
X216466250Y-121921000D01*
G37*
D14*
X215716250Y-121171000D03*
D13*
G36*
X214966852Y-119871000D02*
G01*
X214966852Y-119846466D01*
X214971662Y-119797635D01*
X214981234Y-119749510D01*
X214995478Y-119702555D01*
X215014255Y-119657222D01*
X215037386Y-119613949D01*
X215064646Y-119573150D01*
X215095774Y-119535221D01*
X215130471Y-119500524D01*
X215168400Y-119469396D01*
X215209199Y-119442136D01*
X215252472Y-119419005D01*
X215297805Y-119400228D01*
X215344760Y-119385984D01*
X215392885Y-119376412D01*
X215441716Y-119371602D01*
X215466250Y-119371602D01*
X215466250Y-119371000D01*
X215966250Y-119371000D01*
X215966250Y-119371602D01*
X215990784Y-119371602D01*
X216039615Y-119376412D01*
X216087740Y-119385984D01*
X216134695Y-119400228D01*
X216180028Y-119419005D01*
X216223301Y-119442136D01*
X216264100Y-119469396D01*
X216302029Y-119500524D01*
X216336726Y-119535221D01*
X216367854Y-119573150D01*
X216395114Y-119613949D01*
X216418245Y-119657222D01*
X216437022Y-119702555D01*
X216451266Y-119749510D01*
X216460838Y-119797635D01*
X216465648Y-119846466D01*
X216465648Y-119871000D01*
X216466250Y-119871000D01*
X216466250Y-120421000D01*
X214966250Y-120421000D01*
X214966250Y-119871000D01*
X214966852Y-119871000D01*
G37*
G36*
X219609500Y-121921000D02*
G01*
X219609500Y-122471000D01*
X219608898Y-122471000D01*
X219608898Y-122495534D01*
X219604088Y-122544365D01*
X219594516Y-122592490D01*
X219580272Y-122639445D01*
X219561495Y-122684778D01*
X219538364Y-122728051D01*
X219511104Y-122768850D01*
X219479976Y-122806779D01*
X219445279Y-122841476D01*
X219407350Y-122872604D01*
X219366551Y-122899864D01*
X219323278Y-122922995D01*
X219277945Y-122941772D01*
X219230990Y-122956016D01*
X219182865Y-122965588D01*
X219134034Y-122970398D01*
X219109500Y-122970398D01*
X219109500Y-122971000D01*
X218609500Y-122971000D01*
X218609500Y-122970398D01*
X218584966Y-122970398D01*
X218536135Y-122965588D01*
X218488010Y-122956016D01*
X218441055Y-122941772D01*
X218395722Y-122922995D01*
X218352449Y-122899864D01*
X218311650Y-122872604D01*
X218273721Y-122841476D01*
X218239024Y-122806779D01*
X218207896Y-122768850D01*
X218180636Y-122728051D01*
X218157505Y-122684778D01*
X218138728Y-122639445D01*
X218124484Y-122592490D01*
X218114912Y-122544365D01*
X218110102Y-122495534D01*
X218110102Y-122471000D01*
X218109500Y-122471000D01*
X218109500Y-121921000D01*
X219609500Y-121921000D01*
G37*
D14*
X218859500Y-121171000D03*
D13*
G36*
X218110102Y-119871000D02*
G01*
X218110102Y-119846466D01*
X218114912Y-119797635D01*
X218124484Y-119749510D01*
X218138728Y-119702555D01*
X218157505Y-119657222D01*
X218180636Y-119613949D01*
X218207896Y-119573150D01*
X218239024Y-119535221D01*
X218273721Y-119500524D01*
X218311650Y-119469396D01*
X218352449Y-119442136D01*
X218395722Y-119419005D01*
X218441055Y-119400228D01*
X218488010Y-119385984D01*
X218536135Y-119376412D01*
X218584966Y-119371602D01*
X218609500Y-119371602D01*
X218609500Y-119371000D01*
X219109500Y-119371000D01*
X219109500Y-119371602D01*
X219134034Y-119371602D01*
X219182865Y-119376412D01*
X219230990Y-119385984D01*
X219277945Y-119400228D01*
X219323278Y-119419005D01*
X219366551Y-119442136D01*
X219407350Y-119469396D01*
X219445279Y-119500524D01*
X219479976Y-119535221D01*
X219511104Y-119573150D01*
X219538364Y-119613949D01*
X219561495Y-119657222D01*
X219580272Y-119702555D01*
X219594516Y-119749510D01*
X219604088Y-119797635D01*
X219608898Y-119846466D01*
X219608898Y-119871000D01*
X219609500Y-119871000D01*
X219609500Y-120421000D01*
X218109500Y-120421000D01*
X218109500Y-119871000D01*
X218110102Y-119871000D01*
G37*
G36*
G01*
X227717613Y-107093000D02*
X228617617Y-107093000D01*
G75*
G02*
X228867615Y-107342998I0J-249998D01*
G01*
X228867615Y-107868002D01*
G75*
G02*
X228617617Y-108118000I-249998J0D01*
G01*
X227717613Y-108118000D01*
G75*
G02*
X227467615Y-107868002I0J249998D01*
G01*
X227467615Y-107342998D01*
G75*
G02*
X227717613Y-107093000I249998J0D01*
G01*
G37*
G36*
G01*
X227717613Y-105268000D02*
X228617617Y-105268000D01*
G75*
G02*
X228867615Y-105517998I0J-249998D01*
G01*
X228867615Y-106043002D01*
G75*
G02*
X228617617Y-106293000I-249998J0D01*
G01*
X227717613Y-106293000D01*
G75*
G02*
X227467615Y-106043002I0J249998D01*
G01*
X227467615Y-105517998D01*
G75*
G02*
X227717613Y-105268000I249998J0D01*
G01*
G37*
G36*
G01*
X229749998Y-107093000D02*
X230650002Y-107093000D01*
G75*
G02*
X230900000Y-107342998I0J-249998D01*
G01*
X230900000Y-107868002D01*
G75*
G02*
X230650002Y-108118000I-249998J0D01*
G01*
X229749998Y-108118000D01*
G75*
G02*
X229500000Y-107868002I0J249998D01*
G01*
X229500000Y-107342998D01*
G75*
G02*
X229749998Y-107093000I249998J0D01*
G01*
G37*
G36*
G01*
X229749998Y-105268000D02*
X230650002Y-105268000D01*
G75*
G02*
X230900000Y-105517998I0J-249998D01*
G01*
X230900000Y-106043002D01*
G75*
G02*
X230650002Y-106293000I-249998J0D01*
G01*
X229749998Y-106293000D01*
G75*
G02*
X229500000Y-106043002I0J249998D01*
G01*
X229500000Y-105517998D01*
G75*
G02*
X229749998Y-105268000I249998J0D01*
G01*
G37*
G36*
G01*
X222941499Y-121907000D02*
X223841503Y-121907000D01*
G75*
G02*
X224091501Y-122156998I0J-249998D01*
G01*
X224091501Y-122682002D01*
G75*
G02*
X223841503Y-122932000I-249998J0D01*
G01*
X222941499Y-122932000D01*
G75*
G02*
X222691501Y-122682002I0J249998D01*
G01*
X222691501Y-122156998D01*
G75*
G02*
X222941499Y-121907000I249998J0D01*
G01*
G37*
G36*
G01*
X222941499Y-120082000D02*
X223841503Y-120082000D01*
G75*
G02*
X224091501Y-120331998I0J-249998D01*
G01*
X224091501Y-120857002D01*
G75*
G02*
X223841503Y-121107000I-249998J0D01*
G01*
X222941499Y-121107000D01*
G75*
G02*
X222691501Y-120857002I0J249998D01*
G01*
X222691501Y-120331998D01*
G75*
G02*
X222941499Y-120082000I249998J0D01*
G01*
G37*
G36*
G01*
X224915583Y-121907000D02*
X225815587Y-121907000D01*
G75*
G02*
X226065585Y-122156998I0J-249998D01*
G01*
X226065585Y-122682002D01*
G75*
G02*
X225815587Y-122932000I-249998J0D01*
G01*
X224915583Y-122932000D01*
G75*
G02*
X224665585Y-122682002I0J249998D01*
G01*
X224665585Y-122156998D01*
G75*
G02*
X224915583Y-121907000I249998J0D01*
G01*
G37*
G36*
G01*
X224915583Y-120082000D02*
X225815587Y-120082000D01*
G75*
G02*
X226065585Y-120331998I0J-249998D01*
G01*
X226065585Y-120857002D01*
G75*
G02*
X225815587Y-121107000I-249998J0D01*
G01*
X224915583Y-121107000D01*
G75*
G02*
X224665585Y-120857002I0J249998D01*
G01*
X224665585Y-120331998D01*
G75*
G02*
X224915583Y-120082000I249998J0D01*
G01*
G37*
G36*
G01*
X205949998Y-111800000D02*
X206850002Y-111800000D01*
G75*
G02*
X207100000Y-112049998I0J-249998D01*
G01*
X207100000Y-112575002D01*
G75*
G02*
X206850002Y-112825000I-249998J0D01*
G01*
X205949998Y-112825000D01*
G75*
G02*
X205700000Y-112575002I0J249998D01*
G01*
X205700000Y-112049998D01*
G75*
G02*
X205949998Y-111800000I249998J0D01*
G01*
G37*
G36*
G01*
X205949998Y-109975000D02*
X206850002Y-109975000D01*
G75*
G02*
X207100000Y-110224998I0J-249998D01*
G01*
X207100000Y-110750002D01*
G75*
G02*
X206850002Y-111000000I-249998J0D01*
G01*
X205949998Y-111000000D01*
G75*
G02*
X205700000Y-110750002I0J249998D01*
G01*
X205700000Y-110224998D01*
G75*
G02*
X205949998Y-109975000I249998J0D01*
G01*
G37*
G36*
G01*
X208850002Y-111000000D02*
X207949998Y-111000000D01*
G75*
G02*
X207700000Y-110750002I0J249998D01*
G01*
X207700000Y-110224998D01*
G75*
G02*
X207949998Y-109975000I249998J0D01*
G01*
X208850002Y-109975000D01*
G75*
G02*
X209100000Y-110224998I0J-249998D01*
G01*
X209100000Y-110750002D01*
G75*
G02*
X208850002Y-111000000I-249998J0D01*
G01*
G37*
G36*
G01*
X208850002Y-112825000D02*
X207949998Y-112825000D01*
G75*
G02*
X207700000Y-112575002I0J249998D01*
G01*
X207700000Y-112049998D01*
G75*
G02*
X207949998Y-111800000I249998J0D01*
G01*
X208850002Y-111800000D01*
G75*
G02*
X209100000Y-112049998I0J-249998D01*
G01*
X209100000Y-112575002D01*
G75*
G02*
X208850002Y-112825000I-249998J0D01*
G01*
G37*
G36*
G01*
X216050000Y-104625000D02*
X216050000Y-105575000D01*
G75*
G02*
X215800000Y-105825000I-250000J0D01*
G01*
X215300000Y-105825000D01*
G75*
G02*
X215050000Y-105575000I0J250000D01*
G01*
X215050000Y-104625000D01*
G75*
G02*
X215300000Y-104375000I250000J0D01*
G01*
X215800000Y-104375000D01*
G75*
G02*
X216050000Y-104625000I0J-250000D01*
G01*
G37*
G36*
G01*
X217950000Y-104625000D02*
X217950000Y-105575000D01*
G75*
G02*
X217700000Y-105825000I-250000J0D01*
G01*
X217200000Y-105825000D01*
G75*
G02*
X216950000Y-105575000I0J250000D01*
G01*
X216950000Y-104625000D01*
G75*
G02*
X217200000Y-104375000I250000J0D01*
G01*
X217700000Y-104375000D01*
G75*
G02*
X217950000Y-104625000I0J-250000D01*
G01*
G37*
D15*
X254000000Y-102000000D03*
D10*
X251500000Y-102000000D03*
X249000000Y-102000000D03*
D16*
X257100000Y-109500000D03*
X245900000Y-109500000D03*
D10*
X254000000Y-116500000D03*
X249000000Y-116500000D03*
X242500000Y-118000000D03*
X242500000Y-122500000D03*
X236000000Y-118000000D03*
X236000000Y-122500000D03*
X242500000Y-110000000D03*
X242500000Y-114500000D03*
X236000000Y-110000000D03*
X236000000Y-114500000D03*
X242500000Y-102000000D03*
X242500000Y-106500000D03*
X236000000Y-102000000D03*
X236000000Y-106500000D03*
G36*
G01*
X213023002Y-116580000D02*
X212122998Y-116580000D01*
G75*
G02*
X211873000Y-116330002I0J249998D01*
G01*
X211873000Y-115804998D01*
G75*
G02*
X212122998Y-115555000I249998J0D01*
G01*
X213023002Y-115555000D01*
G75*
G02*
X213273000Y-115804998I0J-249998D01*
G01*
X213273000Y-116330002D01*
G75*
G02*
X213023002Y-116580000I-249998J0D01*
G01*
G37*
G36*
G01*
X213023002Y-118405000D02*
X212122998Y-118405000D01*
G75*
G02*
X211873000Y-118155002I0J249998D01*
G01*
X211873000Y-117629998D01*
G75*
G02*
X212122998Y-117380000I249998J0D01*
G01*
X213023002Y-117380000D01*
G75*
G02*
X213273000Y-117629998I0J-249998D01*
G01*
X213273000Y-118155002D01*
G75*
G02*
X213023002Y-118405000I-249998J0D01*
G01*
G37*
G36*
G01*
X216150002Y-116580000D02*
X215249998Y-116580000D01*
G75*
G02*
X215000000Y-116330002I0J249998D01*
G01*
X215000000Y-115804998D01*
G75*
G02*
X215249998Y-115555000I249998J0D01*
G01*
X216150002Y-115555000D01*
G75*
G02*
X216400000Y-115804998I0J-249998D01*
G01*
X216400000Y-116330002D01*
G75*
G02*
X216150002Y-116580000I-249998J0D01*
G01*
G37*
G36*
G01*
X216150002Y-118405000D02*
X215249998Y-118405000D01*
G75*
G02*
X215000000Y-118155002I0J249998D01*
G01*
X215000000Y-117629998D01*
G75*
G02*
X215249998Y-117380000I249998J0D01*
G01*
X216150002Y-117380000D01*
G75*
G02*
X216400000Y-117629998I0J-249998D01*
G01*
X216400000Y-118155002D01*
G75*
G02*
X216150002Y-118405000I-249998J0D01*
G01*
G37*
G36*
G01*
X219309502Y-116580000D02*
X218409498Y-116580000D01*
G75*
G02*
X218159500Y-116330002I0J249998D01*
G01*
X218159500Y-115804998D01*
G75*
G02*
X218409498Y-115555000I249998J0D01*
G01*
X219309502Y-115555000D01*
G75*
G02*
X219559500Y-115804998I0J-249998D01*
G01*
X219559500Y-116330002D01*
G75*
G02*
X219309502Y-116580000I-249998J0D01*
G01*
G37*
G36*
G01*
X219309502Y-118405000D02*
X218409498Y-118405000D01*
G75*
G02*
X218159500Y-118155002I0J249998D01*
G01*
X218159500Y-117629998D01*
G75*
G02*
X218409498Y-117380000I249998J0D01*
G01*
X219309502Y-117380000D01*
G75*
G02*
X219559500Y-117629998I0J-249998D01*
G01*
X219559500Y-118155002D01*
G75*
G02*
X219309502Y-118405000I-249998J0D01*
G01*
G37*
G36*
G01*
X225685230Y-107093000D02*
X226585234Y-107093000D01*
G75*
G02*
X226835232Y-107342998I0J-249998D01*
G01*
X226835232Y-107868002D01*
G75*
G02*
X226585234Y-108118000I-249998J0D01*
G01*
X225685230Y-108118000D01*
G75*
G02*
X225435232Y-107868002I0J249998D01*
G01*
X225435232Y-107342998D01*
G75*
G02*
X225685230Y-107093000I249998J0D01*
G01*
G37*
G36*
G01*
X225685230Y-105268000D02*
X226585234Y-105268000D01*
G75*
G02*
X226835232Y-105517998I0J-249998D01*
G01*
X226835232Y-106043002D01*
G75*
G02*
X226585234Y-106293000I-249998J0D01*
G01*
X225685230Y-106293000D01*
G75*
G02*
X225435232Y-106043002I0J249998D01*
G01*
X225435232Y-105517998D01*
G75*
G02*
X225685230Y-105268000I249998J0D01*
G01*
G37*
G36*
G01*
X223652847Y-107093000D02*
X224552851Y-107093000D01*
G75*
G02*
X224802849Y-107342998I0J-249998D01*
G01*
X224802849Y-107868002D01*
G75*
G02*
X224552851Y-108118000I-249998J0D01*
G01*
X223652847Y-108118000D01*
G75*
G02*
X223402849Y-107868002I0J249998D01*
G01*
X223402849Y-107342998D01*
G75*
G02*
X223652847Y-107093000I249998J0D01*
G01*
G37*
G36*
G01*
X223652847Y-105268000D02*
X224552851Y-105268000D01*
G75*
G02*
X224802849Y-105517998I0J-249998D01*
G01*
X224802849Y-106043002D01*
G75*
G02*
X224552851Y-106293000I-249998J0D01*
G01*
X223652847Y-106293000D01*
G75*
G02*
X223402849Y-106043002I0J249998D01*
G01*
X223402849Y-105517998D01*
G75*
G02*
X223652847Y-105268000I249998J0D01*
G01*
G37*
G36*
G01*
X221620464Y-107093000D02*
X222520468Y-107093000D01*
G75*
G02*
X222770466Y-107342998I0J-249998D01*
G01*
X222770466Y-107868002D01*
G75*
G02*
X222520468Y-108118000I-249998J0D01*
G01*
X221620464Y-108118000D01*
G75*
G02*
X221370466Y-107868002I0J249998D01*
G01*
X221370466Y-107342998D01*
G75*
G02*
X221620464Y-107093000I249998J0D01*
G01*
G37*
G36*
G01*
X221620464Y-105268000D02*
X222520468Y-105268000D01*
G75*
G02*
X222770466Y-105517998I0J-249998D01*
G01*
X222770466Y-106043002D01*
G75*
G02*
X222520468Y-106293000I-249998J0D01*
G01*
X221620464Y-106293000D01*
G75*
G02*
X221370466Y-106043002I0J249998D01*
G01*
X221370466Y-105517998D01*
G75*
G02*
X221620464Y-105268000I249998J0D01*
G01*
G37*
G36*
G01*
X219588081Y-107093000D02*
X220488085Y-107093000D01*
G75*
G02*
X220738083Y-107342998I0J-249998D01*
G01*
X220738083Y-107868002D01*
G75*
G02*
X220488085Y-108118000I-249998J0D01*
G01*
X219588081Y-108118000D01*
G75*
G02*
X219338083Y-107868002I0J249998D01*
G01*
X219338083Y-107342998D01*
G75*
G02*
X219588081Y-107093000I249998J0D01*
G01*
G37*
G36*
G01*
X219588081Y-105268000D02*
X220488085Y-105268000D01*
G75*
G02*
X220738083Y-105517998I0J-249998D01*
G01*
X220738083Y-106043002D01*
G75*
G02*
X220488085Y-106293000I-249998J0D01*
G01*
X219588081Y-106293000D01*
G75*
G02*
X219338083Y-106043002I0J249998D01*
G01*
X219338083Y-105517998D01*
G75*
G02*
X219588081Y-105268000I249998J0D01*
G01*
G37*
D13*
G36*
X232750602Y-101100000D02*
G01*
X232750602Y-101075466D01*
X232755412Y-101026635D01*
X232764984Y-100978510D01*
X232779228Y-100931555D01*
X232798005Y-100886222D01*
X232821136Y-100842949D01*
X232848396Y-100802150D01*
X232879524Y-100764221D01*
X232914221Y-100729524D01*
X232952150Y-100698396D01*
X232992949Y-100671136D01*
X233036222Y-100648005D01*
X233081555Y-100629228D01*
X233128510Y-100614984D01*
X233176635Y-100605412D01*
X233225466Y-100600602D01*
X233250000Y-100600602D01*
X233250000Y-100600000D01*
X233750000Y-100600000D01*
X233750000Y-100600602D01*
X233774534Y-100600602D01*
X233823365Y-100605412D01*
X233871490Y-100614984D01*
X233918445Y-100629228D01*
X233963778Y-100648005D01*
X234007051Y-100671136D01*
X234047850Y-100698396D01*
X234085779Y-100729524D01*
X234120476Y-100764221D01*
X234151604Y-100802150D01*
X234178864Y-100842949D01*
X234201995Y-100886222D01*
X234220772Y-100931555D01*
X234235016Y-100978510D01*
X234244588Y-101026635D01*
X234249398Y-101075466D01*
X234249398Y-101100000D01*
X234250000Y-101100000D01*
X234250000Y-101600000D01*
X232750000Y-101600000D01*
X232750000Y-101100000D01*
X232750602Y-101100000D01*
G37*
G36*
X234250000Y-101900000D02*
G01*
X234250000Y-102400000D01*
X234249398Y-102400000D01*
X234249398Y-102424534D01*
X234244588Y-102473365D01*
X234235016Y-102521490D01*
X234220772Y-102568445D01*
X234201995Y-102613778D01*
X234178864Y-102657051D01*
X234151604Y-102697850D01*
X234120476Y-102735779D01*
X234085779Y-102770476D01*
X234047850Y-102801604D01*
X234007051Y-102828864D01*
X233963778Y-102851995D01*
X233918445Y-102870772D01*
X233871490Y-102885016D01*
X233823365Y-102894588D01*
X233774534Y-102899398D01*
X233750000Y-102899398D01*
X233750000Y-102900000D01*
X233250000Y-102900000D01*
X233250000Y-102899398D01*
X233225466Y-102899398D01*
X233176635Y-102894588D01*
X233128510Y-102885016D01*
X233081555Y-102870772D01*
X233036222Y-102851995D01*
X232992949Y-102828864D01*
X232952150Y-102801604D01*
X232914221Y-102770476D01*
X232879524Y-102735779D01*
X232848396Y-102697850D01*
X232821136Y-102657051D01*
X232798005Y-102613778D01*
X232779228Y-102568445D01*
X232764984Y-102521490D01*
X232755412Y-102473365D01*
X232750602Y-102424534D01*
X232750602Y-102400000D01*
X232750000Y-102400000D01*
X232750000Y-101900000D01*
X234250000Y-101900000D01*
G37*
D12*
X203500000Y-115270000D03*
X203500000Y-112730000D03*
X203500000Y-110190000D03*
X203500000Y-107650000D03*
D11*
X203500000Y-105110000D03*
D12*
X256630000Y-96230000D03*
X256630000Y-98770000D03*
X254090000Y-96230000D03*
X254090000Y-98770000D03*
X251550000Y-96230000D03*
X251550000Y-98770000D03*
X249010000Y-96230000D03*
X249010000Y-98770000D03*
X246470000Y-96230000D03*
X246470000Y-98770000D03*
X243930000Y-96230000D03*
X243930000Y-98770000D03*
X241390000Y-96230000D03*
X241390000Y-98770000D03*
X238850000Y-96230000D03*
X238850000Y-98770000D03*
X236310000Y-96230000D03*
X236310000Y-98770000D03*
X233770000Y-96230000D03*
X233770000Y-98770000D03*
X231230000Y-96230000D03*
X231230000Y-98770000D03*
X228690000Y-96230000D03*
X228690000Y-98770000D03*
X226150000Y-96230000D03*
X226150000Y-98770000D03*
X223610000Y-96230000D03*
X223610000Y-98770000D03*
X221070000Y-96230000D03*
X221070000Y-98770000D03*
X218530000Y-96230000D03*
X218530000Y-98770000D03*
X215990000Y-96230000D03*
X215990000Y-98770000D03*
X213450000Y-96230000D03*
X213450000Y-98770000D03*
X210910000Y-96230000D03*
X210910000Y-98770000D03*
X208370000Y-96230000D03*
D11*
X208370000Y-98770000D03*
D17*
X261500000Y-120500000D03*
X203500000Y-120500000D03*
X261500000Y-97500000D03*
X203500000Y-97500000D03*
M02*
