G04 #@! TF.GenerationSoftware,KiCad,Pcbnew,(5.1.12)-1*
G04 #@! TF.CreationDate,2021-12-15T14:48:57-06:00*
G04 #@! TF.ProjectId,ctrl_board,6374726c-5f62-46f6-9172-642e6b696361,rev?*
G04 #@! TF.SameCoordinates,Original*
G04 #@! TF.FileFunction,Paste,Bot*
G04 #@! TF.FilePolarity,Positive*
%FSLAX46Y46*%
G04 Gerber Fmt 4.6, Leading zero omitted, Abs format (unit mm)*
G04 Created by KiCad (PCBNEW (5.1.12)-1) date 2021-12-15 14:48:57*
%MOMM*%
%LPD*%
G01*
G04 APERTURE LIST*
G04 APERTURE END LIST*
G36*
G01*
X215375000Y-107875000D02*
X215175000Y-107875000D01*
G75*
G02*
X215075000Y-107775000I0J100000D01*
G01*
X215075000Y-106500000D01*
G75*
G02*
X215175000Y-106400000I100000J0D01*
G01*
X215375000Y-106400000D01*
G75*
G02*
X215475000Y-106500000I0J-100000D01*
G01*
X215475000Y-107775000D01*
G75*
G02*
X215375000Y-107875000I-100000J0D01*
G01*
G37*
G36*
G01*
X214725000Y-107875000D02*
X214525000Y-107875000D01*
G75*
G02*
X214425000Y-107775000I0J100000D01*
G01*
X214425000Y-106500000D01*
G75*
G02*
X214525000Y-106400000I100000J0D01*
G01*
X214725000Y-106400000D01*
G75*
G02*
X214825000Y-106500000I0J-100000D01*
G01*
X214825000Y-107775000D01*
G75*
G02*
X214725000Y-107875000I-100000J0D01*
G01*
G37*
G36*
G01*
X214075000Y-107875000D02*
X213875000Y-107875000D01*
G75*
G02*
X213775000Y-107775000I0J100000D01*
G01*
X213775000Y-106500000D01*
G75*
G02*
X213875000Y-106400000I100000J0D01*
G01*
X214075000Y-106400000D01*
G75*
G02*
X214175000Y-106500000I0J-100000D01*
G01*
X214175000Y-107775000D01*
G75*
G02*
X214075000Y-107875000I-100000J0D01*
G01*
G37*
G36*
G01*
X213425000Y-107875000D02*
X213225000Y-107875000D01*
G75*
G02*
X213125000Y-107775000I0J100000D01*
G01*
X213125000Y-106500000D01*
G75*
G02*
X213225000Y-106400000I100000J0D01*
G01*
X213425000Y-106400000D01*
G75*
G02*
X213525000Y-106500000I0J-100000D01*
G01*
X213525000Y-107775000D01*
G75*
G02*
X213425000Y-107875000I-100000J0D01*
G01*
G37*
G36*
G01*
X212775000Y-107875000D02*
X212575000Y-107875000D01*
G75*
G02*
X212475000Y-107775000I0J100000D01*
G01*
X212475000Y-106500000D01*
G75*
G02*
X212575000Y-106400000I100000J0D01*
G01*
X212775000Y-106400000D01*
G75*
G02*
X212875000Y-106500000I0J-100000D01*
G01*
X212875000Y-107775000D01*
G75*
G02*
X212775000Y-107875000I-100000J0D01*
G01*
G37*
G36*
G01*
X212125000Y-107875000D02*
X211925000Y-107875000D01*
G75*
G02*
X211825000Y-107775000I0J100000D01*
G01*
X211825000Y-106500000D01*
G75*
G02*
X211925000Y-106400000I100000J0D01*
G01*
X212125000Y-106400000D01*
G75*
G02*
X212225000Y-106500000I0J-100000D01*
G01*
X212225000Y-107775000D01*
G75*
G02*
X212125000Y-107875000I-100000J0D01*
G01*
G37*
G36*
G01*
X211475000Y-107875000D02*
X211275000Y-107875000D01*
G75*
G02*
X211175000Y-107775000I0J100000D01*
G01*
X211175000Y-106500000D01*
G75*
G02*
X211275000Y-106400000I100000J0D01*
G01*
X211475000Y-106400000D01*
G75*
G02*
X211575000Y-106500000I0J-100000D01*
G01*
X211575000Y-107775000D01*
G75*
G02*
X211475000Y-107875000I-100000J0D01*
G01*
G37*
G36*
G01*
X210825000Y-107875000D02*
X210625000Y-107875000D01*
G75*
G02*
X210525000Y-107775000I0J100000D01*
G01*
X210525000Y-106500000D01*
G75*
G02*
X210625000Y-106400000I100000J0D01*
G01*
X210825000Y-106400000D01*
G75*
G02*
X210925000Y-106500000I0J-100000D01*
G01*
X210925000Y-107775000D01*
G75*
G02*
X210825000Y-107875000I-100000J0D01*
G01*
G37*
G36*
G01*
X210825000Y-113600000D02*
X210625000Y-113600000D01*
G75*
G02*
X210525000Y-113500000I0J100000D01*
G01*
X210525000Y-112225000D01*
G75*
G02*
X210625000Y-112125000I100000J0D01*
G01*
X210825000Y-112125000D01*
G75*
G02*
X210925000Y-112225000I0J-100000D01*
G01*
X210925000Y-113500000D01*
G75*
G02*
X210825000Y-113600000I-100000J0D01*
G01*
G37*
G36*
G01*
X211475000Y-113600000D02*
X211275000Y-113600000D01*
G75*
G02*
X211175000Y-113500000I0J100000D01*
G01*
X211175000Y-112225000D01*
G75*
G02*
X211275000Y-112125000I100000J0D01*
G01*
X211475000Y-112125000D01*
G75*
G02*
X211575000Y-112225000I0J-100000D01*
G01*
X211575000Y-113500000D01*
G75*
G02*
X211475000Y-113600000I-100000J0D01*
G01*
G37*
G36*
G01*
X212125000Y-113600000D02*
X211925000Y-113600000D01*
G75*
G02*
X211825000Y-113500000I0J100000D01*
G01*
X211825000Y-112225000D01*
G75*
G02*
X211925000Y-112125000I100000J0D01*
G01*
X212125000Y-112125000D01*
G75*
G02*
X212225000Y-112225000I0J-100000D01*
G01*
X212225000Y-113500000D01*
G75*
G02*
X212125000Y-113600000I-100000J0D01*
G01*
G37*
G36*
G01*
X212775000Y-113600000D02*
X212575000Y-113600000D01*
G75*
G02*
X212475000Y-113500000I0J100000D01*
G01*
X212475000Y-112225000D01*
G75*
G02*
X212575000Y-112125000I100000J0D01*
G01*
X212775000Y-112125000D01*
G75*
G02*
X212875000Y-112225000I0J-100000D01*
G01*
X212875000Y-113500000D01*
G75*
G02*
X212775000Y-113600000I-100000J0D01*
G01*
G37*
G36*
G01*
X213425000Y-113600000D02*
X213225000Y-113600000D01*
G75*
G02*
X213125000Y-113500000I0J100000D01*
G01*
X213125000Y-112225000D01*
G75*
G02*
X213225000Y-112125000I100000J0D01*
G01*
X213425000Y-112125000D01*
G75*
G02*
X213525000Y-112225000I0J-100000D01*
G01*
X213525000Y-113500000D01*
G75*
G02*
X213425000Y-113600000I-100000J0D01*
G01*
G37*
G36*
G01*
X214075000Y-113600000D02*
X213875000Y-113600000D01*
G75*
G02*
X213775000Y-113500000I0J100000D01*
G01*
X213775000Y-112225000D01*
G75*
G02*
X213875000Y-112125000I100000J0D01*
G01*
X214075000Y-112125000D01*
G75*
G02*
X214175000Y-112225000I0J-100000D01*
G01*
X214175000Y-113500000D01*
G75*
G02*
X214075000Y-113600000I-100000J0D01*
G01*
G37*
G36*
G01*
X214725000Y-113600000D02*
X214525000Y-113600000D01*
G75*
G02*
X214425000Y-113500000I0J100000D01*
G01*
X214425000Y-112225000D01*
G75*
G02*
X214525000Y-112125000I100000J0D01*
G01*
X214725000Y-112125000D01*
G75*
G02*
X214825000Y-112225000I0J-100000D01*
G01*
X214825000Y-113500000D01*
G75*
G02*
X214725000Y-113600000I-100000J0D01*
G01*
G37*
G36*
G01*
X215375000Y-113600000D02*
X215175000Y-113600000D01*
G75*
G02*
X215075000Y-113500000I0J100000D01*
G01*
X215075000Y-112225000D01*
G75*
G02*
X215175000Y-112125000I100000J0D01*
G01*
X215375000Y-112125000D01*
G75*
G02*
X215475000Y-112225000I0J-100000D01*
G01*
X215475000Y-113500000D01*
G75*
G02*
X215375000Y-113600000I-100000J0D01*
G01*
G37*
G36*
G01*
X227717613Y-107093000D02*
X228617617Y-107093000D01*
G75*
G02*
X228867615Y-107342998I0J-249998D01*
G01*
X228867615Y-107868002D01*
G75*
G02*
X228617617Y-108118000I-249998J0D01*
G01*
X227717613Y-108118000D01*
G75*
G02*
X227467615Y-107868002I0J249998D01*
G01*
X227467615Y-107342998D01*
G75*
G02*
X227717613Y-107093000I249998J0D01*
G01*
G37*
G36*
G01*
X227717613Y-105268000D02*
X228617617Y-105268000D01*
G75*
G02*
X228867615Y-105517998I0J-249998D01*
G01*
X228867615Y-106043002D01*
G75*
G02*
X228617617Y-106293000I-249998J0D01*
G01*
X227717613Y-106293000D01*
G75*
G02*
X227467615Y-106043002I0J249998D01*
G01*
X227467615Y-105517998D01*
G75*
G02*
X227717613Y-105268000I249998J0D01*
G01*
G37*
G36*
G01*
X229749998Y-107093000D02*
X230650002Y-107093000D01*
G75*
G02*
X230900000Y-107342998I0J-249998D01*
G01*
X230900000Y-107868002D01*
G75*
G02*
X230650002Y-108118000I-249998J0D01*
G01*
X229749998Y-108118000D01*
G75*
G02*
X229500000Y-107868002I0J249998D01*
G01*
X229500000Y-107342998D01*
G75*
G02*
X229749998Y-107093000I249998J0D01*
G01*
G37*
G36*
G01*
X229749998Y-105268000D02*
X230650002Y-105268000D01*
G75*
G02*
X230900000Y-105517998I0J-249998D01*
G01*
X230900000Y-106043002D01*
G75*
G02*
X230650002Y-106293000I-249998J0D01*
G01*
X229749998Y-106293000D01*
G75*
G02*
X229500000Y-106043002I0J249998D01*
G01*
X229500000Y-105517998D01*
G75*
G02*
X229749998Y-105268000I249998J0D01*
G01*
G37*
G36*
G01*
X222941499Y-121907000D02*
X223841503Y-121907000D01*
G75*
G02*
X224091501Y-122156998I0J-249998D01*
G01*
X224091501Y-122682002D01*
G75*
G02*
X223841503Y-122932000I-249998J0D01*
G01*
X222941499Y-122932000D01*
G75*
G02*
X222691501Y-122682002I0J249998D01*
G01*
X222691501Y-122156998D01*
G75*
G02*
X222941499Y-121907000I249998J0D01*
G01*
G37*
G36*
G01*
X222941499Y-120082000D02*
X223841503Y-120082000D01*
G75*
G02*
X224091501Y-120331998I0J-249998D01*
G01*
X224091501Y-120857002D01*
G75*
G02*
X223841503Y-121107000I-249998J0D01*
G01*
X222941499Y-121107000D01*
G75*
G02*
X222691501Y-120857002I0J249998D01*
G01*
X222691501Y-120331998D01*
G75*
G02*
X222941499Y-120082000I249998J0D01*
G01*
G37*
G36*
G01*
X224915583Y-121907000D02*
X225815587Y-121907000D01*
G75*
G02*
X226065585Y-122156998I0J-249998D01*
G01*
X226065585Y-122682002D01*
G75*
G02*
X225815587Y-122932000I-249998J0D01*
G01*
X224915583Y-122932000D01*
G75*
G02*
X224665585Y-122682002I0J249998D01*
G01*
X224665585Y-122156998D01*
G75*
G02*
X224915583Y-121907000I249998J0D01*
G01*
G37*
G36*
G01*
X224915583Y-120082000D02*
X225815587Y-120082000D01*
G75*
G02*
X226065585Y-120331998I0J-249998D01*
G01*
X226065585Y-120857002D01*
G75*
G02*
X225815587Y-121107000I-249998J0D01*
G01*
X224915583Y-121107000D01*
G75*
G02*
X224665585Y-120857002I0J249998D01*
G01*
X224665585Y-120331998D01*
G75*
G02*
X224915583Y-120082000I249998J0D01*
G01*
G37*
G36*
G01*
X205949998Y-111800000D02*
X206850002Y-111800000D01*
G75*
G02*
X207100000Y-112049998I0J-249998D01*
G01*
X207100000Y-112575002D01*
G75*
G02*
X206850002Y-112825000I-249998J0D01*
G01*
X205949998Y-112825000D01*
G75*
G02*
X205700000Y-112575002I0J249998D01*
G01*
X205700000Y-112049998D01*
G75*
G02*
X205949998Y-111800000I249998J0D01*
G01*
G37*
G36*
G01*
X205949998Y-109975000D02*
X206850002Y-109975000D01*
G75*
G02*
X207100000Y-110224998I0J-249998D01*
G01*
X207100000Y-110750002D01*
G75*
G02*
X206850002Y-111000000I-249998J0D01*
G01*
X205949998Y-111000000D01*
G75*
G02*
X205700000Y-110750002I0J249998D01*
G01*
X205700000Y-110224998D01*
G75*
G02*
X205949998Y-109975000I249998J0D01*
G01*
G37*
G36*
G01*
X208850002Y-111000000D02*
X207949998Y-111000000D01*
G75*
G02*
X207700000Y-110750002I0J249998D01*
G01*
X207700000Y-110224998D01*
G75*
G02*
X207949998Y-109975000I249998J0D01*
G01*
X208850002Y-109975000D01*
G75*
G02*
X209100000Y-110224998I0J-249998D01*
G01*
X209100000Y-110750002D01*
G75*
G02*
X208850002Y-111000000I-249998J0D01*
G01*
G37*
G36*
G01*
X208850002Y-112825000D02*
X207949998Y-112825000D01*
G75*
G02*
X207700000Y-112575002I0J249998D01*
G01*
X207700000Y-112049998D01*
G75*
G02*
X207949998Y-111800000I249998J0D01*
G01*
X208850002Y-111800000D01*
G75*
G02*
X209100000Y-112049998I0J-249998D01*
G01*
X209100000Y-112575002D01*
G75*
G02*
X208850002Y-112825000I-249998J0D01*
G01*
G37*
G36*
G01*
X216050000Y-104625000D02*
X216050000Y-105575000D01*
G75*
G02*
X215800000Y-105825000I-250000J0D01*
G01*
X215300000Y-105825000D01*
G75*
G02*
X215050000Y-105575000I0J250000D01*
G01*
X215050000Y-104625000D01*
G75*
G02*
X215300000Y-104375000I250000J0D01*
G01*
X215800000Y-104375000D01*
G75*
G02*
X216050000Y-104625000I0J-250000D01*
G01*
G37*
G36*
G01*
X217950000Y-104625000D02*
X217950000Y-105575000D01*
G75*
G02*
X217700000Y-105825000I-250000J0D01*
G01*
X217200000Y-105825000D01*
G75*
G02*
X216950000Y-105575000I0J250000D01*
G01*
X216950000Y-104625000D01*
G75*
G02*
X217200000Y-104375000I250000J0D01*
G01*
X217700000Y-104375000D01*
G75*
G02*
X217950000Y-104625000I0J-250000D01*
G01*
G37*
G36*
G01*
X213023002Y-116580000D02*
X212122998Y-116580000D01*
G75*
G02*
X211873000Y-116330002I0J249998D01*
G01*
X211873000Y-115804998D01*
G75*
G02*
X212122998Y-115555000I249998J0D01*
G01*
X213023002Y-115555000D01*
G75*
G02*
X213273000Y-115804998I0J-249998D01*
G01*
X213273000Y-116330002D01*
G75*
G02*
X213023002Y-116580000I-249998J0D01*
G01*
G37*
G36*
G01*
X213023002Y-118405000D02*
X212122998Y-118405000D01*
G75*
G02*
X211873000Y-118155002I0J249998D01*
G01*
X211873000Y-117629998D01*
G75*
G02*
X212122998Y-117380000I249998J0D01*
G01*
X213023002Y-117380000D01*
G75*
G02*
X213273000Y-117629998I0J-249998D01*
G01*
X213273000Y-118155002D01*
G75*
G02*
X213023002Y-118405000I-249998J0D01*
G01*
G37*
G36*
G01*
X216150002Y-116580000D02*
X215249998Y-116580000D01*
G75*
G02*
X215000000Y-116330002I0J249998D01*
G01*
X215000000Y-115804998D01*
G75*
G02*
X215249998Y-115555000I249998J0D01*
G01*
X216150002Y-115555000D01*
G75*
G02*
X216400000Y-115804998I0J-249998D01*
G01*
X216400000Y-116330002D01*
G75*
G02*
X216150002Y-116580000I-249998J0D01*
G01*
G37*
G36*
G01*
X216150002Y-118405000D02*
X215249998Y-118405000D01*
G75*
G02*
X215000000Y-118155002I0J249998D01*
G01*
X215000000Y-117629998D01*
G75*
G02*
X215249998Y-117380000I249998J0D01*
G01*
X216150002Y-117380000D01*
G75*
G02*
X216400000Y-117629998I0J-249998D01*
G01*
X216400000Y-118155002D01*
G75*
G02*
X216150002Y-118405000I-249998J0D01*
G01*
G37*
G36*
G01*
X219309502Y-116580000D02*
X218409498Y-116580000D01*
G75*
G02*
X218159500Y-116330002I0J249998D01*
G01*
X218159500Y-115804998D01*
G75*
G02*
X218409498Y-115555000I249998J0D01*
G01*
X219309502Y-115555000D01*
G75*
G02*
X219559500Y-115804998I0J-249998D01*
G01*
X219559500Y-116330002D01*
G75*
G02*
X219309502Y-116580000I-249998J0D01*
G01*
G37*
G36*
G01*
X219309502Y-118405000D02*
X218409498Y-118405000D01*
G75*
G02*
X218159500Y-118155002I0J249998D01*
G01*
X218159500Y-117629998D01*
G75*
G02*
X218409498Y-117380000I249998J0D01*
G01*
X219309502Y-117380000D01*
G75*
G02*
X219559500Y-117629998I0J-249998D01*
G01*
X219559500Y-118155002D01*
G75*
G02*
X219309502Y-118405000I-249998J0D01*
G01*
G37*
G36*
G01*
X225685230Y-107093000D02*
X226585234Y-107093000D01*
G75*
G02*
X226835232Y-107342998I0J-249998D01*
G01*
X226835232Y-107868002D01*
G75*
G02*
X226585234Y-108118000I-249998J0D01*
G01*
X225685230Y-108118000D01*
G75*
G02*
X225435232Y-107868002I0J249998D01*
G01*
X225435232Y-107342998D01*
G75*
G02*
X225685230Y-107093000I249998J0D01*
G01*
G37*
G36*
G01*
X225685230Y-105268000D02*
X226585234Y-105268000D01*
G75*
G02*
X226835232Y-105517998I0J-249998D01*
G01*
X226835232Y-106043002D01*
G75*
G02*
X226585234Y-106293000I-249998J0D01*
G01*
X225685230Y-106293000D01*
G75*
G02*
X225435232Y-106043002I0J249998D01*
G01*
X225435232Y-105517998D01*
G75*
G02*
X225685230Y-105268000I249998J0D01*
G01*
G37*
G36*
G01*
X223652847Y-107093000D02*
X224552851Y-107093000D01*
G75*
G02*
X224802849Y-107342998I0J-249998D01*
G01*
X224802849Y-107868002D01*
G75*
G02*
X224552851Y-108118000I-249998J0D01*
G01*
X223652847Y-108118000D01*
G75*
G02*
X223402849Y-107868002I0J249998D01*
G01*
X223402849Y-107342998D01*
G75*
G02*
X223652847Y-107093000I249998J0D01*
G01*
G37*
G36*
G01*
X223652847Y-105268000D02*
X224552851Y-105268000D01*
G75*
G02*
X224802849Y-105517998I0J-249998D01*
G01*
X224802849Y-106043002D01*
G75*
G02*
X224552851Y-106293000I-249998J0D01*
G01*
X223652847Y-106293000D01*
G75*
G02*
X223402849Y-106043002I0J249998D01*
G01*
X223402849Y-105517998D01*
G75*
G02*
X223652847Y-105268000I249998J0D01*
G01*
G37*
G36*
G01*
X221620464Y-107093000D02*
X222520468Y-107093000D01*
G75*
G02*
X222770466Y-107342998I0J-249998D01*
G01*
X222770466Y-107868002D01*
G75*
G02*
X222520468Y-108118000I-249998J0D01*
G01*
X221620464Y-108118000D01*
G75*
G02*
X221370466Y-107868002I0J249998D01*
G01*
X221370466Y-107342998D01*
G75*
G02*
X221620464Y-107093000I249998J0D01*
G01*
G37*
G36*
G01*
X221620464Y-105268000D02*
X222520468Y-105268000D01*
G75*
G02*
X222770466Y-105517998I0J-249998D01*
G01*
X222770466Y-106043002D01*
G75*
G02*
X222520468Y-106293000I-249998J0D01*
G01*
X221620464Y-106293000D01*
G75*
G02*
X221370466Y-106043002I0J249998D01*
G01*
X221370466Y-105517998D01*
G75*
G02*
X221620464Y-105268000I249998J0D01*
G01*
G37*
G36*
G01*
X219588081Y-107093000D02*
X220488085Y-107093000D01*
G75*
G02*
X220738083Y-107342998I0J-249998D01*
G01*
X220738083Y-107868002D01*
G75*
G02*
X220488085Y-108118000I-249998J0D01*
G01*
X219588081Y-108118000D01*
G75*
G02*
X219338083Y-107868002I0J249998D01*
G01*
X219338083Y-107342998D01*
G75*
G02*
X219588081Y-107093000I249998J0D01*
G01*
G37*
G36*
G01*
X219588081Y-105268000D02*
X220488085Y-105268000D01*
G75*
G02*
X220738083Y-105517998I0J-249998D01*
G01*
X220738083Y-106043002D01*
G75*
G02*
X220488085Y-106293000I-249998J0D01*
G01*
X219588081Y-106293000D01*
G75*
G02*
X219338083Y-106043002I0J249998D01*
G01*
X219338083Y-105517998D01*
G75*
G02*
X219588081Y-105268000I249998J0D01*
G01*
G37*
M02*
