G04 #@! TF.GenerationSoftware,KiCad,Pcbnew,(5.1.9-16-g1737927814)-1*
G04 #@! TF.CreationDate,2021-10-16T21:24:19-05:00*
G04 #@! TF.ProjectId,daisy_chain_v2,64616973-795f-4636-9861-696e5f76322e,rev?*
G04 #@! TF.SameCoordinates,Original*
G04 #@! TF.FileFunction,Soldermask,Bot*
G04 #@! TF.FilePolarity,Negative*
%FSLAX46Y46*%
G04 Gerber Fmt 4.6, Leading zero omitted, Abs format (unit mm)*
G04 Created by KiCad (PCBNEW (5.1.9-16-g1737927814)-1) date 2021-10-16 21:24:19*
%MOMM*%
%LPD*%
G01*
G04 APERTURE LIST*
%ADD10C,1.800000*%
%ADD11R,1.800000X1.800000*%
%ADD12C,2.700000*%
%ADD13C,4.845000*%
%ADD14C,1.545000*%
%ADD15O,1.350000X1.350000*%
%ADD16R,1.350000X1.350000*%
%ADD17O,1.700000X1.700000*%
%ADD18R,1.700000X1.700000*%
G04 APERTURE END LIST*
D10*
G04 #@! TO.C,J20*
X175854000Y-85480000D03*
X175854000Y-87980000D03*
X175854000Y-90480000D03*
D11*
X175854000Y-92980000D03*
G04 #@! TD*
D12*
G04 #@! TO.C,H6*
X236000000Y-95000000D03*
G04 #@! TD*
G04 #@! TO.C,H5*
X178000000Y-95000000D03*
G04 #@! TD*
D13*
G04 #@! TO.C,J6*
X183481600Y-89050000D03*
X230521600Y-89050000D03*
D14*
X191766600Y-90470000D03*
X194536600Y-90470000D03*
X197306600Y-90470000D03*
X200076600Y-90470000D03*
X202846600Y-90470000D03*
X205616600Y-90470000D03*
X208386600Y-90470000D03*
X211156600Y-90470000D03*
X213926600Y-90470000D03*
X216696600Y-90470000D03*
X219466600Y-90470000D03*
X222236600Y-90470000D03*
X190381600Y-87630000D03*
X193151600Y-87630000D03*
X195921600Y-87630000D03*
X198691600Y-87630000D03*
X201461600Y-87630000D03*
X204231600Y-87630000D03*
X207001600Y-87630000D03*
X209771600Y-87630000D03*
X212541600Y-87630000D03*
X215311600Y-87630000D03*
X218081600Y-87630000D03*
X220851600Y-87630000D03*
X223621600Y-87630000D03*
G04 #@! TD*
D15*
G04 #@! TO.C,J9*
X182972000Y-95488000D03*
X182972000Y-93488000D03*
X184972000Y-95488000D03*
X184972000Y-93488000D03*
X186972000Y-95488000D03*
X186972000Y-93488000D03*
X188972000Y-95488000D03*
X188972000Y-93488000D03*
X190972000Y-95488000D03*
X190972000Y-93488000D03*
X192972000Y-95488000D03*
X192972000Y-93488000D03*
X194972000Y-95488000D03*
X194972000Y-93488000D03*
X196972000Y-95488000D03*
X196972000Y-93488000D03*
X198972000Y-95488000D03*
X198972000Y-93488000D03*
X200972000Y-95488000D03*
X200972000Y-93488000D03*
X202972000Y-95488000D03*
X202972000Y-93488000D03*
X204972000Y-95488000D03*
X204972000Y-93488000D03*
X206972000Y-95488000D03*
X206972000Y-93488000D03*
X208972000Y-95488000D03*
X208972000Y-93488000D03*
X210972000Y-95488000D03*
X210972000Y-93488000D03*
X212972000Y-95488000D03*
X212972000Y-93488000D03*
X214972000Y-95488000D03*
X214972000Y-93488000D03*
X216972000Y-95488000D03*
X216972000Y-93488000D03*
X218972000Y-95488000D03*
X218972000Y-93488000D03*
X220972000Y-95488000D03*
D16*
X220972000Y-93488000D03*
D15*
X222972000Y-95488000D03*
X222972000Y-93488000D03*
X224972000Y-95488000D03*
X224972000Y-93488000D03*
X226972000Y-95488000D03*
X226972000Y-93488000D03*
X228972000Y-95488000D03*
X228972000Y-93488000D03*
X230972000Y-95488000D03*
D16*
X230972000Y-93488000D03*
G04 #@! TD*
D17*
G04 #@! TO.C,J3*
X237426500Y-80454500D03*
X237426500Y-82994500D03*
X234886500Y-80454500D03*
X234886500Y-82994500D03*
X232346500Y-80454500D03*
X232346500Y-82994500D03*
X229806500Y-80454500D03*
X229806500Y-82994500D03*
X227266500Y-80454500D03*
X227266500Y-82994500D03*
X224726500Y-80454500D03*
X224726500Y-82994500D03*
X222186500Y-80454500D03*
X222186500Y-82994500D03*
X219646500Y-80454500D03*
X219646500Y-82994500D03*
X217106500Y-80454500D03*
X217106500Y-82994500D03*
X214566500Y-80454500D03*
X214566500Y-82994500D03*
X212026500Y-80454500D03*
X212026500Y-82994500D03*
X209486500Y-80454500D03*
X209486500Y-82994500D03*
X206946500Y-80454500D03*
X206946500Y-82994500D03*
X204406500Y-80454500D03*
X204406500Y-82994500D03*
X201866500Y-80454500D03*
X201866500Y-82994500D03*
X199326500Y-80454500D03*
X199326500Y-82994500D03*
X196786500Y-80454500D03*
X196786500Y-82994500D03*
X194246500Y-80454500D03*
X194246500Y-82994500D03*
X191706500Y-80454500D03*
X191706500Y-82994500D03*
X189166500Y-80454500D03*
X189166500Y-82994500D03*
X186626500Y-80454500D03*
X186626500Y-82994500D03*
X184086500Y-80454500D03*
X184086500Y-82994500D03*
X181546500Y-80454500D03*
X181546500Y-82994500D03*
X179006500Y-80454500D03*
X179006500Y-82994500D03*
X176466500Y-80454500D03*
D18*
X176466500Y-82994500D03*
G04 #@! TD*
M02*
