%FSLAX45Y45*%
G04 Gerber Fmt 4.5, Leading zero omitted, Abs format (unit mm)*
G04 Created by KiCad (PCBNEW (5.1.9-16-g1737927814)-1) date 2021-10-16 21:24:37*
%MOMM*%
%LPD*%
G01*
G04 APERTURE LIST*
%TA.AperFunction,Profile*%
%ADD10C,0.050000*%
%TD*%
%ADD11C,0.200000*%
%ADD12C,0.300000*%
G04 APERTURE END LIST*
D10*
X17800000Y-9849600D02*
X23600000Y-9849600D01*
X17800000Y-9849600D02*
G75*
G02*
X17450000Y-9499600I0J350000D01*
G01*
X23950000Y-9499600D02*
G75*
G02*
X23600000Y-9849600I-350000J0D01*
G01*
X17450000Y-8079800D02*
X17450000Y-9499600D01*
X23950000Y-8079800D02*
X23950000Y-9499600D01*
X17800000Y-7729800D02*
X23600000Y-7729800D01*
X17450000Y-8079800D02*
G75*
G02*
X17800000Y-7729800I350000J0D01*
G01*
X23600000Y-7729800D02*
G75*
G02*
X23950000Y-8079800I0J-350000D01*
G01*
D11*
X17785500Y-8415500D02*
X17810500Y-8440500D01*
X17810500Y-8415500D02*
X17785500Y-8440500D01*
X18044500Y-8420500D02*
X18069500Y-8445500D01*
X18069500Y-8420500D02*
X18044500Y-8445500D01*
X18307742Y-8397799D02*
X18332742Y-8422799D01*
X18332742Y-8397799D02*
X18307742Y-8422799D01*
X18576853Y-8385397D02*
X18601853Y-8410397D01*
X18601853Y-8385397D02*
X18576853Y-8410397D01*
X18800550Y-8352696D02*
X18825550Y-8377696D01*
X18825550Y-8352696D02*
X18800550Y-8377696D01*
X19045500Y-8376699D02*
X19070500Y-8401699D01*
X19070500Y-8376699D02*
X19045500Y-8401699D01*
X19350626Y-8916884D02*
X19375626Y-8941884D01*
X19375626Y-8916884D02*
X19350626Y-8941884D01*
X19350900Y-9133100D02*
X19375900Y-9158100D01*
X19375900Y-9133100D02*
X19350900Y-9158100D01*
X19471971Y-8643305D02*
X19496971Y-8668305D01*
X19496971Y-8643305D02*
X19471971Y-8668305D01*
X19498484Y-9192208D02*
X19523484Y-9217208D01*
X19523484Y-9192208D02*
X19498484Y-9217208D01*
X19504850Y-8170245D02*
X19529850Y-8195245D01*
X19529850Y-8170245D02*
X19504850Y-8195245D01*
X19604900Y-9209300D02*
X19629900Y-9234300D01*
X19629900Y-9209300D02*
X19604900Y-9234300D01*
X19658500Y-8410995D02*
X19683500Y-8435995D01*
X19683500Y-8410995D02*
X19658500Y-8435995D01*
X19676105Y-8862205D02*
X19701105Y-8887205D01*
X19701105Y-8862205D02*
X19676105Y-8887205D01*
X19757300Y-8442500D02*
X19782300Y-8467500D01*
X19782300Y-8442500D02*
X19757300Y-8467500D01*
X19835500Y-8472700D02*
X19860500Y-8497700D01*
X19860500Y-8472700D02*
X19835500Y-8497700D01*
X19856533Y-9117609D02*
X19881533Y-9142609D01*
X19881533Y-9117609D02*
X19856533Y-9142609D01*
X19946934Y-9138845D02*
X19971934Y-9163845D01*
X19971934Y-9138845D02*
X19946934Y-9163845D01*
X19959469Y-8463274D02*
X19984469Y-8488274D01*
X19984469Y-8463274D02*
X19959469Y-8488274D01*
X20011300Y-8853700D02*
X20036300Y-8878700D01*
X20036300Y-8853700D02*
X20011300Y-8878700D01*
X20250607Y-8581268D02*
X20275607Y-8606268D01*
X20275607Y-8581268D02*
X20250607Y-8606268D01*
X20259603Y-8453166D02*
X20284603Y-8478166D01*
X20284603Y-8453166D02*
X20259603Y-8478166D01*
X20282744Y-8845744D02*
X20307744Y-8870744D01*
X20307744Y-8845744D02*
X20282744Y-8870744D01*
X20378808Y-9078602D02*
X20403808Y-9103602D01*
X20403808Y-9078602D02*
X20378808Y-9103602D01*
X20419500Y-8467101D02*
X20444500Y-8492101D01*
X20444500Y-8467101D02*
X20419500Y-8492101D01*
X20509351Y-8467101D02*
X20534351Y-8492101D01*
X20534351Y-8467101D02*
X20509351Y-8492101D01*
X20824100Y-8421900D02*
X20849100Y-8446900D01*
X20849100Y-8421900D02*
X20824100Y-8446900D01*
X20868369Y-8862359D02*
X20893369Y-8887359D01*
X20893369Y-8862359D02*
X20868369Y-8887359D01*
X20925700Y-9233703D02*
X20950700Y-9258703D01*
X20950700Y-9233703D02*
X20925700Y-9258703D01*
X20931089Y-8432776D02*
X20956089Y-8457776D01*
X20956089Y-8432776D02*
X20931089Y-8457776D01*
X20955403Y-8607849D02*
X20980403Y-8632849D01*
X20980403Y-8607849D02*
X20955403Y-8632849D01*
X20966343Y-9089055D02*
X20991343Y-9114055D01*
X20991343Y-9089055D02*
X20966343Y-9114055D01*
X21068500Y-8155500D02*
X21093500Y-8180500D01*
X21093500Y-8155500D02*
X21068500Y-8180500D01*
X21126201Y-8435983D02*
X21151201Y-8460983D01*
X21151201Y-8435983D02*
X21126201Y-8460983D01*
X21131877Y-8575196D02*
X21156877Y-8600196D01*
X21156877Y-8575196D02*
X21131877Y-8600196D01*
X21230500Y-8893151D02*
X21255500Y-8918151D01*
X21255500Y-8893151D02*
X21230500Y-8918151D01*
X21288749Y-8536406D02*
X21313749Y-8561406D01*
X21313749Y-8536406D02*
X21288749Y-8561406D01*
X21509900Y-8929900D02*
X21534900Y-8954900D01*
X21534900Y-8929900D02*
X21509900Y-8954900D01*
X21560700Y-9133100D02*
X21585700Y-9158100D01*
X21585700Y-9133100D02*
X21560700Y-9158100D01*
X21561500Y-8423500D02*
X21586500Y-8448500D01*
X21586500Y-8423500D02*
X21561500Y-8448500D01*
X21763900Y-8879100D02*
X21788900Y-8904100D01*
X21788900Y-8879100D02*
X21763900Y-8904100D01*
X21834264Y-8357601D02*
X21859264Y-8382601D01*
X21859264Y-8357601D02*
X21834264Y-8382601D01*
X21911125Y-8442351D02*
X21936125Y-8467351D01*
X21936125Y-8442351D02*
X21911125Y-8467351D01*
X22044604Y-8426036D02*
X22069604Y-8451036D01*
X22069604Y-8426036D02*
X22044604Y-8451036D01*
X22080500Y-8562500D02*
X22105500Y-8587500D01*
X22105500Y-8562500D02*
X22080500Y-8587500D01*
X22289295Y-8430516D02*
X22314295Y-8455516D01*
X22314295Y-8430516D02*
X22289295Y-8455516D01*
X22449431Y-8508971D02*
X22474431Y-8533971D01*
X22474431Y-8508971D02*
X22449431Y-8533971D01*
X22557765Y-8165234D02*
X22582765Y-8190234D01*
X22582765Y-8165234D02*
X22557765Y-8190234D01*
X22806850Y-8382500D02*
X22831850Y-8407500D01*
X22831850Y-8382500D02*
X22806850Y-8407500D01*
X22990395Y-8534065D02*
X23015395Y-8559065D01*
X23015395Y-8534065D02*
X22990395Y-8559065D01*
X23112994Y-8379650D02*
X23137994Y-8404650D01*
X23137994Y-8379650D02*
X23112994Y-8404650D01*
X23342500Y-8382500D02*
X23367500Y-8407500D01*
X23367500Y-8382500D02*
X23342500Y-8407500D01*
X23607500Y-8389500D02*
X23632500Y-8414500D01*
X23632500Y-8389500D02*
X23607500Y-8414500D01*
X18337200Y-9348800D02*
G75*
G03*
X18337200Y-9348800I-40000J0D01*
G01*
X18337200Y-9548800D02*
G75*
G03*
X18337200Y-9548800I-40000J0D01*
G01*
X18537200Y-9348800D02*
G75*
G03*
X18537200Y-9348800I-40000J0D01*
G01*
X18537200Y-9548800D02*
G75*
G03*
X18537200Y-9548800I-40000J0D01*
G01*
X18737200Y-9348800D02*
G75*
G03*
X18737200Y-9348800I-40000J0D01*
G01*
X18737200Y-9548800D02*
G75*
G03*
X18737200Y-9548800I-40000J0D01*
G01*
X18937200Y-9348800D02*
G75*
G03*
X18937200Y-9348800I-40000J0D01*
G01*
X18937200Y-9548800D02*
G75*
G03*
X18937200Y-9548800I-40000J0D01*
G01*
X19137200Y-9348800D02*
G75*
G03*
X19137200Y-9348800I-40000J0D01*
G01*
X19137200Y-9548800D02*
G75*
G03*
X19137200Y-9548800I-40000J0D01*
G01*
X19337200Y-9348800D02*
G75*
G03*
X19337200Y-9348800I-40000J0D01*
G01*
X19337200Y-9548800D02*
G75*
G03*
X19337200Y-9548800I-40000J0D01*
G01*
X19537200Y-9348800D02*
G75*
G03*
X19537200Y-9348800I-40000J0D01*
G01*
X19537200Y-9548800D02*
G75*
G03*
X19537200Y-9548800I-40000J0D01*
G01*
X19737200Y-9348800D02*
G75*
G03*
X19737200Y-9348800I-40000J0D01*
G01*
X19737200Y-9548800D02*
G75*
G03*
X19737200Y-9548800I-40000J0D01*
G01*
X19937200Y-9348800D02*
G75*
G03*
X19937200Y-9348800I-40000J0D01*
G01*
X19937200Y-9548800D02*
G75*
G03*
X19937200Y-9548800I-40000J0D01*
G01*
X20137200Y-9348800D02*
G75*
G03*
X20137200Y-9348800I-40000J0D01*
G01*
X20137200Y-9548800D02*
G75*
G03*
X20137200Y-9548800I-40000J0D01*
G01*
X20337200Y-9348800D02*
G75*
G03*
X20337200Y-9348800I-40000J0D01*
G01*
X20337200Y-9548800D02*
G75*
G03*
X20337200Y-9548800I-40000J0D01*
G01*
X20537200Y-9348800D02*
G75*
G03*
X20537200Y-9348800I-40000J0D01*
G01*
X20537200Y-9548800D02*
G75*
G03*
X20537200Y-9548800I-40000J0D01*
G01*
X20737200Y-9348800D02*
G75*
G03*
X20737200Y-9348800I-40000J0D01*
G01*
X20737200Y-9548800D02*
G75*
G03*
X20737200Y-9548800I-40000J0D01*
G01*
X20937200Y-9348800D02*
G75*
G03*
X20937200Y-9348800I-40000J0D01*
G01*
X20937200Y-9548800D02*
G75*
G03*
X20937200Y-9548800I-40000J0D01*
G01*
X21137200Y-9348800D02*
G75*
G03*
X21137200Y-9348800I-40000J0D01*
G01*
X21137200Y-9548800D02*
G75*
G03*
X21137200Y-9548800I-40000J0D01*
G01*
X21337200Y-9348800D02*
G75*
G03*
X21337200Y-9348800I-40000J0D01*
G01*
X21337200Y-9548800D02*
G75*
G03*
X21337200Y-9548800I-40000J0D01*
G01*
X21537200Y-9348800D02*
G75*
G03*
X21537200Y-9348800I-40000J0D01*
G01*
X21537200Y-9548800D02*
G75*
G03*
X21537200Y-9548800I-40000J0D01*
G01*
X21737200Y-9348800D02*
G75*
G03*
X21737200Y-9348800I-40000J0D01*
G01*
X21737200Y-9548800D02*
G75*
G03*
X21737200Y-9548800I-40000J0D01*
G01*
X21937200Y-9348800D02*
G75*
G03*
X21937200Y-9348800I-40000J0D01*
G01*
X21937200Y-9548800D02*
G75*
G03*
X21937200Y-9548800I-40000J0D01*
G01*
X22137200Y-9348800D02*
G75*
G03*
X22137200Y-9348800I-40000J0D01*
G01*
X22137200Y-9548800D02*
G75*
G03*
X22137200Y-9548800I-40000J0D01*
G01*
X22337200Y-9348800D02*
G75*
G03*
X22337200Y-9348800I-40000J0D01*
G01*
X22337200Y-9548800D02*
G75*
G03*
X22337200Y-9548800I-40000J0D01*
G01*
X22537200Y-9348800D02*
G75*
G03*
X22537200Y-9348800I-40000J0D01*
G01*
X22537200Y-9548800D02*
G75*
G03*
X22537200Y-9548800I-40000J0D01*
G01*
X22737200Y-9348800D02*
G75*
G03*
X22737200Y-9348800I-40000J0D01*
G01*
X22737200Y-9548800D02*
G75*
G03*
X22737200Y-9548800I-40000J0D01*
G01*
X22937200Y-9348800D02*
G75*
G03*
X22937200Y-9348800I-40000J0D01*
G01*
X22937200Y-9548800D02*
G75*
G03*
X22937200Y-9548800I-40000J0D01*
G01*
X23137200Y-9348800D02*
G75*
G03*
X23137200Y-9348800I-40000J0D01*
G01*
X23137200Y-9548800D02*
G75*
G03*
X23137200Y-9548800I-40000J0D01*
G01*
X17646650Y-7995450D02*
X17646650Y-8095450D01*
X17596650Y-8045450D02*
X17696650Y-8045450D01*
X17646650Y-8249450D02*
X17646650Y-8349450D01*
X17596650Y-8299450D02*
X17696650Y-8299450D01*
X17900650Y-7995450D02*
X17900650Y-8095450D01*
X17850650Y-8045450D02*
X17950650Y-8045450D01*
X17900650Y-8249450D02*
X17900650Y-8349450D01*
X17850650Y-8299450D02*
X17950650Y-8299450D01*
X18154650Y-7995450D02*
X18154650Y-8095450D01*
X18104650Y-8045450D02*
X18204650Y-8045450D01*
X18154650Y-8249450D02*
X18154650Y-8349450D01*
X18104650Y-8299450D02*
X18204650Y-8299450D01*
X18408650Y-7995450D02*
X18408650Y-8095450D01*
X18358650Y-8045450D02*
X18458650Y-8045450D01*
X18408650Y-8249450D02*
X18408650Y-8349450D01*
X18358650Y-8299450D02*
X18458650Y-8299450D01*
X18662650Y-7995450D02*
X18662650Y-8095450D01*
X18612650Y-8045450D02*
X18712650Y-8045450D01*
X18662650Y-8249450D02*
X18662650Y-8349450D01*
X18612650Y-8299450D02*
X18712650Y-8299450D01*
X18916650Y-7995450D02*
X18916650Y-8095450D01*
X18866650Y-8045450D02*
X18966650Y-8045450D01*
X18916650Y-8249450D02*
X18916650Y-8349450D01*
X18866650Y-8299450D02*
X18966650Y-8299450D01*
X19170650Y-7995450D02*
X19170650Y-8095450D01*
X19120650Y-8045450D02*
X19220650Y-8045450D01*
X19170650Y-8249450D02*
X19170650Y-8349450D01*
X19120650Y-8299450D02*
X19220650Y-8299450D01*
X19424650Y-7995450D02*
X19424650Y-8095450D01*
X19374650Y-8045450D02*
X19474650Y-8045450D01*
X19424650Y-8249450D02*
X19424650Y-8349450D01*
X19374650Y-8299450D02*
X19474650Y-8299450D01*
X19678650Y-7995450D02*
X19678650Y-8095450D01*
X19628650Y-8045450D02*
X19728650Y-8045450D01*
X19678650Y-8249450D02*
X19678650Y-8349450D01*
X19628650Y-8299450D02*
X19728650Y-8299450D01*
X19932650Y-7995450D02*
X19932650Y-8095450D01*
X19882650Y-8045450D02*
X19982650Y-8045450D01*
X19932650Y-8249450D02*
X19932650Y-8349450D01*
X19882650Y-8299450D02*
X19982650Y-8299450D01*
X20186650Y-7995450D02*
X20186650Y-8095450D01*
X20136650Y-8045450D02*
X20236650Y-8045450D01*
X20186650Y-8249450D02*
X20186650Y-8349450D01*
X20136650Y-8299450D02*
X20236650Y-8299450D01*
X20440650Y-7995450D02*
X20440650Y-8095450D01*
X20390650Y-8045450D02*
X20490650Y-8045450D01*
X20440650Y-8249450D02*
X20440650Y-8349450D01*
X20390650Y-8299450D02*
X20490650Y-8299450D01*
X20694650Y-7995450D02*
X20694650Y-8095450D01*
X20644650Y-8045450D02*
X20744650Y-8045450D01*
X20694650Y-8249450D02*
X20694650Y-8349450D01*
X20644650Y-8299450D02*
X20744650Y-8299450D01*
X20948650Y-7995450D02*
X20948650Y-8095450D01*
X20898650Y-8045450D02*
X20998650Y-8045450D01*
X20948650Y-8249450D02*
X20948650Y-8349450D01*
X20898650Y-8299450D02*
X20998650Y-8299450D01*
X21202650Y-7995450D02*
X21202650Y-8095450D01*
X21152650Y-8045450D02*
X21252650Y-8045450D01*
X21202650Y-8249450D02*
X21202650Y-8349450D01*
X21152650Y-8299450D02*
X21252650Y-8299450D01*
X21456650Y-7995450D02*
X21456650Y-8095450D01*
X21406650Y-8045450D02*
X21506650Y-8045450D01*
X21456650Y-8249450D02*
X21456650Y-8349450D01*
X21406650Y-8299450D02*
X21506650Y-8299450D01*
X21710650Y-7995450D02*
X21710650Y-8095450D01*
X21660650Y-8045450D02*
X21760650Y-8045450D01*
X21710650Y-8249450D02*
X21710650Y-8349450D01*
X21660650Y-8299450D02*
X21760650Y-8299450D01*
X21964650Y-7995450D02*
X21964650Y-8095450D01*
X21914650Y-8045450D02*
X22014650Y-8045450D01*
X21964650Y-8249450D02*
X21964650Y-8349450D01*
X21914650Y-8299450D02*
X22014650Y-8299450D01*
X22218650Y-7995450D02*
X22218650Y-8095450D01*
X22168650Y-8045450D02*
X22268650Y-8045450D01*
X22218650Y-8249450D02*
X22218650Y-8349450D01*
X22168650Y-8299450D02*
X22268650Y-8299450D01*
X22472650Y-7995450D02*
X22472650Y-8095450D01*
X22422650Y-8045450D02*
X22522650Y-8045450D01*
X22472650Y-8249450D02*
X22472650Y-8349450D01*
X22422650Y-8299450D02*
X22522650Y-8299450D01*
X22726650Y-7995450D02*
X22726650Y-8095450D01*
X22676650Y-8045450D02*
X22776650Y-8045450D01*
X22726650Y-8249450D02*
X22726650Y-8349450D01*
X22676650Y-8299450D02*
X22776650Y-8299450D01*
X22980650Y-7995450D02*
X22980650Y-8095450D01*
X22930650Y-8045450D02*
X23030650Y-8045450D01*
X22980650Y-8249450D02*
X22980650Y-8349450D01*
X22930650Y-8299450D02*
X23030650Y-8299450D01*
X23234650Y-7995450D02*
X23234650Y-8095450D01*
X23184650Y-8045450D02*
X23284650Y-8045450D01*
X23234650Y-8249450D02*
X23234650Y-8349450D01*
X23184650Y-8299450D02*
X23284650Y-8299450D01*
X23488650Y-7995450D02*
X23488650Y-8095450D01*
X23438650Y-8045450D02*
X23538650Y-8045450D01*
X23488650Y-8249450D02*
X23488650Y-8349450D01*
X23438650Y-8299450D02*
X23538650Y-8299450D01*
X23742650Y-7995450D02*
X23742650Y-8095450D01*
X23692650Y-8045450D02*
X23792650Y-8045450D01*
X23742650Y-8249450D02*
X23742650Y-8349450D01*
X23692650Y-8299450D02*
X23792650Y-8299450D01*
X19074576Y-8799416D02*
X19074576Y-8726584D01*
X19001744Y-8726584D01*
X19001744Y-8799416D01*
X19074576Y-8799416D01*
X19213076Y-9083416D02*
X19213076Y-9010584D01*
X19140244Y-9010584D01*
X19140244Y-9083416D01*
X19213076Y-9083416D01*
X19351576Y-8799416D02*
X19351576Y-8726584D01*
X19278744Y-8726584D01*
X19278744Y-8799416D01*
X19351576Y-8799416D01*
X19490076Y-9083416D02*
X19490076Y-9010584D01*
X19417244Y-9010584D01*
X19417244Y-9083416D01*
X19490076Y-9083416D01*
X19628576Y-8799416D02*
X19628576Y-8726584D01*
X19555744Y-8726584D01*
X19555744Y-8799416D01*
X19628576Y-8799416D01*
X19767076Y-9083416D02*
X19767076Y-9010584D01*
X19694244Y-9010584D01*
X19694244Y-9083416D01*
X19767076Y-9083416D01*
X19905576Y-8799416D02*
X19905576Y-8726584D01*
X19832744Y-8726584D01*
X19832744Y-8799416D01*
X19905576Y-8799416D01*
X20044076Y-9083416D02*
X20044076Y-9010584D01*
X19971244Y-9010584D01*
X19971244Y-9083416D01*
X20044076Y-9083416D01*
X20182576Y-8799416D02*
X20182576Y-8726584D01*
X20109744Y-8726584D01*
X20109744Y-8799416D01*
X20182576Y-8799416D01*
X20321076Y-9083416D02*
X20321076Y-9010584D01*
X20248244Y-9010584D01*
X20248244Y-9083416D01*
X20321076Y-9083416D01*
X20459576Y-8799416D02*
X20459576Y-8726584D01*
X20386744Y-8726584D01*
X20386744Y-8799416D01*
X20459576Y-8799416D01*
X20598076Y-9083416D02*
X20598076Y-9010584D01*
X20525244Y-9010584D01*
X20525244Y-9083416D01*
X20598076Y-9083416D01*
X20736576Y-8799416D02*
X20736576Y-8726584D01*
X20663744Y-8726584D01*
X20663744Y-8799416D01*
X20736576Y-8799416D01*
X20875076Y-9083416D02*
X20875076Y-9010584D01*
X20802244Y-9010584D01*
X20802244Y-9083416D01*
X20875076Y-9083416D01*
X21013576Y-8799416D02*
X21013576Y-8726584D01*
X20940744Y-8726584D01*
X20940744Y-8799416D01*
X21013576Y-8799416D01*
X21152076Y-9083416D02*
X21152076Y-9010584D01*
X21079244Y-9010584D01*
X21079244Y-9083416D01*
X21152076Y-9083416D01*
X21290576Y-8799416D02*
X21290576Y-8726584D01*
X21217744Y-8726584D01*
X21217744Y-8799416D01*
X21290576Y-8799416D01*
X21429076Y-9083416D02*
X21429076Y-9010584D01*
X21356244Y-9010584D01*
X21356244Y-9083416D01*
X21429076Y-9083416D01*
X21567576Y-8799416D02*
X21567576Y-8726584D01*
X21494744Y-8726584D01*
X21494744Y-8799416D01*
X21567576Y-8799416D01*
X21706076Y-9083416D02*
X21706076Y-9010584D01*
X21633244Y-9010584D01*
X21633244Y-9083416D01*
X21706076Y-9083416D01*
X21844576Y-8799416D02*
X21844576Y-8726584D01*
X21771744Y-8726584D01*
X21771744Y-8799416D01*
X21844576Y-8799416D01*
X21983076Y-9083416D02*
X21983076Y-9010584D01*
X21910244Y-9010584D01*
X21910244Y-9083416D01*
X21983076Y-9083416D01*
X22121576Y-8799416D02*
X22121576Y-8726584D01*
X22048744Y-8726584D01*
X22048744Y-8799416D01*
X22121576Y-8799416D01*
X22260076Y-9083416D02*
X22260076Y-9010584D01*
X22187244Y-9010584D01*
X22187244Y-9083416D01*
X22260076Y-9083416D01*
X22398576Y-8799416D02*
X22398576Y-8726584D01*
X22325744Y-8726584D01*
X22325744Y-8799416D01*
X22398576Y-8799416D01*
X17585400Y-8608000D02*
X17645400Y-8548000D01*
X17585400Y-8488000D01*
X17525400Y-8548000D01*
X17585400Y-8608000D01*
X17585400Y-8858000D02*
X17645400Y-8798000D01*
X17585400Y-8738000D01*
X17525400Y-8798000D01*
X17585400Y-8858000D01*
X17585400Y-9108000D02*
X17645400Y-9048000D01*
X17585400Y-8988000D01*
X17525400Y-9048000D01*
X17585400Y-9108000D01*
X17585400Y-9358000D02*
X17645400Y-9298000D01*
X17585400Y-9238000D01*
X17525400Y-9298000D01*
X17585400Y-9358000D01*
X18186660Y-8743500D02*
X18509660Y-9066500D01*
X18509660Y-8743500D02*
X18186660Y-9066500D01*
X18509660Y-8905000D02*
G75*
G03*
X18509660Y-8905000I-161500J0D01*
G01*
X22890660Y-8743500D02*
X23213660Y-9066500D01*
X23213660Y-8743500D02*
X22890660Y-9066500D01*
X23213660Y-8905000D02*
G75*
G03*
X23213660Y-8905000I-161500J0D01*
G01*
D12*
X17733928Y-10317814D02*
X17733928Y-10017814D01*
X17805357Y-10017814D01*
X17848214Y-10032100D01*
X17876786Y-10060672D01*
X17891071Y-10089243D01*
X17905357Y-10146386D01*
X17905357Y-10189243D01*
X17891071Y-10246386D01*
X17876786Y-10274957D01*
X17848214Y-10303529D01*
X17805357Y-10317814D01*
X17733928Y-10317814D01*
X18033928Y-10317814D02*
X18033928Y-10117814D01*
X18033928Y-10174957D02*
X18048214Y-10146386D01*
X18062500Y-10132100D01*
X18091071Y-10117814D01*
X18119643Y-10117814D01*
X18219643Y-10317814D02*
X18219643Y-10117814D01*
X18219643Y-10017814D02*
X18205357Y-10032100D01*
X18219643Y-10046386D01*
X18233928Y-10032100D01*
X18219643Y-10017814D01*
X18219643Y-10046386D01*
X18405357Y-10317814D02*
X18376786Y-10303529D01*
X18362500Y-10274957D01*
X18362500Y-10017814D01*
X18562500Y-10317814D02*
X18533928Y-10303529D01*
X18519643Y-10274957D01*
X18519643Y-10017814D01*
X18905357Y-10317814D02*
X18905357Y-10017814D01*
X19005357Y-10232100D01*
X19105357Y-10017814D01*
X19105357Y-10317814D01*
X19376786Y-10317814D02*
X19376786Y-10160672D01*
X19362500Y-10132100D01*
X19333928Y-10117814D01*
X19276786Y-10117814D01*
X19248214Y-10132100D01*
X19376786Y-10303529D02*
X19348214Y-10317814D01*
X19276786Y-10317814D01*
X19248214Y-10303529D01*
X19233928Y-10274957D01*
X19233928Y-10246386D01*
X19248214Y-10217814D01*
X19276786Y-10203529D01*
X19348214Y-10203529D01*
X19376786Y-10189243D01*
X19519643Y-10117814D02*
X19519643Y-10417814D01*
X19519643Y-10132100D02*
X19548214Y-10117814D01*
X19605357Y-10117814D01*
X19633928Y-10132100D01*
X19648214Y-10146386D01*
X19662500Y-10174957D01*
X19662500Y-10260672D01*
X19648214Y-10289243D01*
X19633928Y-10303529D01*
X19605357Y-10317814D01*
X19548214Y-10317814D01*
X19519643Y-10303529D01*
X19791071Y-10289243D02*
X19805357Y-10303529D01*
X19791071Y-10317814D01*
X19776786Y-10303529D01*
X19791071Y-10289243D01*
X19791071Y-10317814D01*
X19791071Y-10132100D02*
X19805357Y-10146386D01*
X19791071Y-10160672D01*
X19776786Y-10146386D01*
X19791071Y-10132100D01*
X19791071Y-10160672D01*
X17422500Y-10799600D02*
X17447500Y-10824600D01*
X17447500Y-10799600D02*
X17422500Y-10824600D01*
X17791071Y-10647814D02*
X17819643Y-10647814D01*
X17848214Y-10662100D01*
X17862500Y-10676386D01*
X17876786Y-10704957D01*
X17891071Y-10762100D01*
X17891071Y-10833529D01*
X17876786Y-10890672D01*
X17862500Y-10919243D01*
X17848214Y-10933529D01*
X17819643Y-10947814D01*
X17791071Y-10947814D01*
X17762500Y-10933529D01*
X17748214Y-10919243D01*
X17733928Y-10890672D01*
X17719643Y-10833529D01*
X17719643Y-10762100D01*
X17733928Y-10704957D01*
X17748214Y-10676386D01*
X17762500Y-10662100D01*
X17791071Y-10647814D01*
X18019643Y-10919243D02*
X18033928Y-10933529D01*
X18019643Y-10947814D01*
X18005357Y-10933529D01*
X18019643Y-10919243D01*
X18019643Y-10947814D01*
X18148214Y-10676386D02*
X18162500Y-10662100D01*
X18191071Y-10647814D01*
X18262500Y-10647814D01*
X18291071Y-10662100D01*
X18305357Y-10676386D01*
X18319643Y-10704957D01*
X18319643Y-10733529D01*
X18305357Y-10776386D01*
X18133928Y-10947814D01*
X18319643Y-10947814D01*
X18591071Y-10647814D02*
X18448214Y-10647814D01*
X18433928Y-10790672D01*
X18448214Y-10776386D01*
X18476786Y-10762100D01*
X18548214Y-10762100D01*
X18576786Y-10776386D01*
X18591071Y-10790672D01*
X18605357Y-10819243D01*
X18605357Y-10890672D01*
X18591071Y-10919243D01*
X18576786Y-10933529D01*
X18548214Y-10947814D01*
X18476786Y-10947814D01*
X18448214Y-10933529D01*
X18433928Y-10919243D01*
X18733928Y-10947814D02*
X18733928Y-10747814D01*
X18733928Y-10776386D02*
X18748214Y-10762100D01*
X18776786Y-10747814D01*
X18819643Y-10747814D01*
X18848214Y-10762100D01*
X18862500Y-10790672D01*
X18862500Y-10947814D01*
X18862500Y-10790672D02*
X18876786Y-10762100D01*
X18905357Y-10747814D01*
X18948214Y-10747814D01*
X18976786Y-10762100D01*
X18991071Y-10790672D01*
X18991071Y-10947814D01*
X19133928Y-10947814D02*
X19133928Y-10747814D01*
X19133928Y-10776386D02*
X19148214Y-10762100D01*
X19176786Y-10747814D01*
X19219643Y-10747814D01*
X19248214Y-10762100D01*
X19262500Y-10790672D01*
X19262500Y-10947814D01*
X19262500Y-10790672D02*
X19276786Y-10762100D01*
X19305357Y-10747814D01*
X19348214Y-10747814D01*
X19376786Y-10762100D01*
X19391071Y-10790672D01*
X19391071Y-10947814D01*
X19976786Y-10633529D02*
X19719643Y-11019243D01*
X20362500Y-10647814D02*
X20391071Y-10647814D01*
X20419643Y-10662100D01*
X20433928Y-10676386D01*
X20448214Y-10704957D01*
X20462500Y-10762100D01*
X20462500Y-10833529D01*
X20448214Y-10890672D01*
X20433928Y-10919243D01*
X20419643Y-10933529D01*
X20391071Y-10947814D01*
X20362500Y-10947814D01*
X20333928Y-10933529D01*
X20319643Y-10919243D01*
X20305357Y-10890672D01*
X20291071Y-10833529D01*
X20291071Y-10762100D01*
X20305357Y-10704957D01*
X20319643Y-10676386D01*
X20333928Y-10662100D01*
X20362500Y-10647814D01*
X20591071Y-10919243D02*
X20605357Y-10933529D01*
X20591071Y-10947814D01*
X20576786Y-10933529D01*
X20591071Y-10919243D01*
X20591071Y-10947814D01*
X20791071Y-10647814D02*
X20819643Y-10647814D01*
X20848214Y-10662100D01*
X20862500Y-10676386D01*
X20876786Y-10704957D01*
X20891071Y-10762100D01*
X20891071Y-10833529D01*
X20876786Y-10890672D01*
X20862500Y-10919243D01*
X20848214Y-10933529D01*
X20819643Y-10947814D01*
X20791071Y-10947814D01*
X20762500Y-10933529D01*
X20748214Y-10919243D01*
X20733928Y-10890672D01*
X20719643Y-10833529D01*
X20719643Y-10762100D01*
X20733928Y-10704957D01*
X20748214Y-10676386D01*
X20762500Y-10662100D01*
X20791071Y-10647814D01*
X21176786Y-10947814D02*
X21005357Y-10947814D01*
X21091071Y-10947814D02*
X21091071Y-10647814D01*
X21062500Y-10690672D01*
X21033928Y-10719243D01*
X21005357Y-10733529D01*
X21362500Y-10647814D02*
X21391071Y-10647814D01*
X21419643Y-10662100D01*
X21433928Y-10676386D01*
X21448214Y-10704957D01*
X21462500Y-10762100D01*
X21462500Y-10833529D01*
X21448214Y-10890672D01*
X21433928Y-10919243D01*
X21419643Y-10933529D01*
X21391071Y-10947814D01*
X21362500Y-10947814D01*
X21333928Y-10933529D01*
X21319643Y-10919243D01*
X21305357Y-10890672D01*
X21291071Y-10833529D01*
X21291071Y-10762100D01*
X21305357Y-10704957D01*
X21319643Y-10676386D01*
X21333928Y-10662100D01*
X21362500Y-10647814D01*
X21576786Y-10647814D02*
X21576786Y-10704957D01*
X21691071Y-10647814D02*
X21691071Y-10704957D01*
X22133928Y-11062100D02*
X22119643Y-11047814D01*
X22091071Y-11004957D01*
X22076786Y-10976386D01*
X22062500Y-10933529D01*
X22048214Y-10862100D01*
X22048214Y-10804957D01*
X22062500Y-10733529D01*
X22076786Y-10690672D01*
X22091071Y-10662100D01*
X22119643Y-10619243D01*
X22133928Y-10604957D01*
X22391071Y-10647814D02*
X22248214Y-10647814D01*
X22233928Y-10790672D01*
X22248214Y-10776386D01*
X22276786Y-10762100D01*
X22348214Y-10762100D01*
X22376786Y-10776386D01*
X22391071Y-10790672D01*
X22405357Y-10819243D01*
X22405357Y-10890672D01*
X22391071Y-10919243D01*
X22376786Y-10933529D01*
X22348214Y-10947814D01*
X22276786Y-10947814D01*
X22248214Y-10933529D01*
X22233928Y-10919243D01*
X22505357Y-10647814D02*
X22691071Y-10647814D01*
X22591071Y-10762100D01*
X22633928Y-10762100D01*
X22662500Y-10776386D01*
X22676786Y-10790672D01*
X22691071Y-10819243D01*
X22691071Y-10890672D01*
X22676786Y-10919243D01*
X22662500Y-10933529D01*
X22633928Y-10947814D01*
X22548214Y-10947814D01*
X22519643Y-10933529D01*
X22505357Y-10919243D01*
X23048214Y-10947814D02*
X23048214Y-10647814D01*
X23176786Y-10947814D02*
X23176786Y-10790672D01*
X23162500Y-10762100D01*
X23133928Y-10747814D01*
X23091071Y-10747814D01*
X23062500Y-10762100D01*
X23048214Y-10776386D01*
X23362500Y-10947814D02*
X23333928Y-10933529D01*
X23319643Y-10919243D01*
X23305357Y-10890672D01*
X23305357Y-10804957D01*
X23319643Y-10776386D01*
X23333928Y-10762100D01*
X23362500Y-10747814D01*
X23405357Y-10747814D01*
X23433928Y-10762100D01*
X23448214Y-10776386D01*
X23462500Y-10804957D01*
X23462500Y-10890672D01*
X23448214Y-10919243D01*
X23433928Y-10933529D01*
X23405357Y-10947814D01*
X23362500Y-10947814D01*
X23633928Y-10947814D02*
X23605357Y-10933529D01*
X23591071Y-10904957D01*
X23591071Y-10647814D01*
X23862500Y-10933529D02*
X23833928Y-10947814D01*
X23776786Y-10947814D01*
X23748214Y-10933529D01*
X23733928Y-10904957D01*
X23733928Y-10790672D01*
X23748214Y-10762100D01*
X23776786Y-10747814D01*
X23833928Y-10747814D01*
X23862500Y-10762100D01*
X23876786Y-10790672D01*
X23876786Y-10819243D01*
X23733928Y-10847814D01*
X23991071Y-10933529D02*
X24019643Y-10947814D01*
X24076786Y-10947814D01*
X24105357Y-10933529D01*
X24119643Y-10904957D01*
X24119643Y-10890672D01*
X24105357Y-10862100D01*
X24076786Y-10847814D01*
X24033928Y-10847814D01*
X24005357Y-10833529D01*
X23991071Y-10804957D01*
X23991071Y-10790672D01*
X24005357Y-10762100D01*
X24033928Y-10747814D01*
X24076786Y-10747814D01*
X24105357Y-10762100D01*
X24219643Y-11062100D02*
X24233928Y-11047814D01*
X24262500Y-11004957D01*
X24276786Y-10976386D01*
X24291071Y-10933529D01*
X24305357Y-10862100D01*
X24305357Y-10804957D01*
X24291071Y-10733529D01*
X24276786Y-10690672D01*
X24262500Y-10662100D01*
X24233928Y-10619243D01*
X24219643Y-10604957D01*
X17447500Y-11208100D02*
G75*
G03*
X17447500Y-11208100I-40000J0D01*
G01*
X17791071Y-11043814D02*
X17819643Y-11043814D01*
X17848214Y-11058100D01*
X17862500Y-11072386D01*
X17876786Y-11100957D01*
X17891071Y-11158100D01*
X17891071Y-11229529D01*
X17876786Y-11286671D01*
X17862500Y-11315243D01*
X17848214Y-11329529D01*
X17819643Y-11343814D01*
X17791071Y-11343814D01*
X17762500Y-11329529D01*
X17748214Y-11315243D01*
X17733928Y-11286671D01*
X17719643Y-11229529D01*
X17719643Y-11158100D01*
X17733928Y-11100957D01*
X17748214Y-11072386D01*
X17762500Y-11058100D01*
X17791071Y-11043814D01*
X18019643Y-11315243D02*
X18033928Y-11329529D01*
X18019643Y-11343814D01*
X18005357Y-11329529D01*
X18019643Y-11315243D01*
X18019643Y-11343814D01*
X18205357Y-11172386D02*
X18176786Y-11158100D01*
X18162500Y-11143814D01*
X18148214Y-11115243D01*
X18148214Y-11100957D01*
X18162500Y-11072386D01*
X18176786Y-11058100D01*
X18205357Y-11043814D01*
X18262500Y-11043814D01*
X18291071Y-11058100D01*
X18305357Y-11072386D01*
X18319643Y-11100957D01*
X18319643Y-11115243D01*
X18305357Y-11143814D01*
X18291071Y-11158100D01*
X18262500Y-11172386D01*
X18205357Y-11172386D01*
X18176786Y-11186671D01*
X18162500Y-11200957D01*
X18148214Y-11229529D01*
X18148214Y-11286671D01*
X18162500Y-11315243D01*
X18176786Y-11329529D01*
X18205357Y-11343814D01*
X18262500Y-11343814D01*
X18291071Y-11329529D01*
X18305357Y-11315243D01*
X18319643Y-11286671D01*
X18319643Y-11229529D01*
X18305357Y-11200957D01*
X18291071Y-11186671D01*
X18262500Y-11172386D01*
X18505357Y-11043814D02*
X18533928Y-11043814D01*
X18562500Y-11058100D01*
X18576786Y-11072386D01*
X18591071Y-11100957D01*
X18605357Y-11158100D01*
X18605357Y-11229529D01*
X18591071Y-11286671D01*
X18576786Y-11315243D01*
X18562500Y-11329529D01*
X18533928Y-11343814D01*
X18505357Y-11343814D01*
X18476786Y-11329529D01*
X18462500Y-11315243D01*
X18448214Y-11286671D01*
X18433928Y-11229529D01*
X18433928Y-11158100D01*
X18448214Y-11100957D01*
X18462500Y-11072386D01*
X18476786Y-11058100D01*
X18505357Y-11043814D01*
X18733928Y-11343814D02*
X18733928Y-11143814D01*
X18733928Y-11172386D02*
X18748214Y-11158100D01*
X18776786Y-11143814D01*
X18819643Y-11143814D01*
X18848214Y-11158100D01*
X18862500Y-11186671D01*
X18862500Y-11343814D01*
X18862500Y-11186671D02*
X18876786Y-11158100D01*
X18905357Y-11143814D01*
X18948214Y-11143814D01*
X18976786Y-11158100D01*
X18991071Y-11186671D01*
X18991071Y-11343814D01*
X19133928Y-11343814D02*
X19133928Y-11143814D01*
X19133928Y-11172386D02*
X19148214Y-11158100D01*
X19176786Y-11143814D01*
X19219643Y-11143814D01*
X19248214Y-11158100D01*
X19262500Y-11186671D01*
X19262500Y-11343814D01*
X19262500Y-11186671D02*
X19276786Y-11158100D01*
X19305357Y-11143814D01*
X19348214Y-11143814D01*
X19376786Y-11158100D01*
X19391071Y-11186671D01*
X19391071Y-11343814D01*
X19976786Y-11029529D02*
X19719643Y-11415243D01*
X20362500Y-11043814D02*
X20391071Y-11043814D01*
X20419643Y-11058100D01*
X20433928Y-11072386D01*
X20448214Y-11100957D01*
X20462500Y-11158100D01*
X20462500Y-11229529D01*
X20448214Y-11286671D01*
X20433928Y-11315243D01*
X20419643Y-11329529D01*
X20391071Y-11343814D01*
X20362500Y-11343814D01*
X20333928Y-11329529D01*
X20319643Y-11315243D01*
X20305357Y-11286671D01*
X20291071Y-11229529D01*
X20291071Y-11158100D01*
X20305357Y-11100957D01*
X20319643Y-11072386D01*
X20333928Y-11058100D01*
X20362500Y-11043814D01*
X20591071Y-11315243D02*
X20605357Y-11329529D01*
X20591071Y-11343814D01*
X20576786Y-11329529D01*
X20591071Y-11315243D01*
X20591071Y-11343814D01*
X20791071Y-11043814D02*
X20819643Y-11043814D01*
X20848214Y-11058100D01*
X20862500Y-11072386D01*
X20876786Y-11100957D01*
X20891071Y-11158100D01*
X20891071Y-11229529D01*
X20876786Y-11286671D01*
X20862500Y-11315243D01*
X20848214Y-11329529D01*
X20819643Y-11343814D01*
X20791071Y-11343814D01*
X20762500Y-11329529D01*
X20748214Y-11315243D01*
X20733928Y-11286671D01*
X20719643Y-11229529D01*
X20719643Y-11158100D01*
X20733928Y-11100957D01*
X20748214Y-11072386D01*
X20762500Y-11058100D01*
X20791071Y-11043814D01*
X20991071Y-11043814D02*
X21176786Y-11043814D01*
X21076786Y-11158100D01*
X21119643Y-11158100D01*
X21148214Y-11172386D01*
X21162500Y-11186671D01*
X21176786Y-11215243D01*
X21176786Y-11286671D01*
X21162500Y-11315243D01*
X21148214Y-11329529D01*
X21119643Y-11343814D01*
X21033928Y-11343814D01*
X21005357Y-11329529D01*
X20991071Y-11315243D01*
X21462500Y-11343814D02*
X21291071Y-11343814D01*
X21376786Y-11343814D02*
X21376786Y-11043814D01*
X21348214Y-11086672D01*
X21319643Y-11115243D01*
X21291071Y-11129529D01*
X21576786Y-11043814D02*
X21576786Y-11100957D01*
X21691071Y-11043814D02*
X21691071Y-11100957D01*
X22133928Y-11458100D02*
X22119643Y-11443814D01*
X22091071Y-11400957D01*
X22076786Y-11372386D01*
X22062500Y-11329529D01*
X22048214Y-11258100D01*
X22048214Y-11200957D01*
X22062500Y-11129529D01*
X22076786Y-11086672D01*
X22091071Y-11058100D01*
X22119643Y-11015243D01*
X22133928Y-11000957D01*
X22391071Y-11043814D02*
X22248214Y-11043814D01*
X22233928Y-11186671D01*
X22248214Y-11172386D01*
X22276786Y-11158100D01*
X22348214Y-11158100D01*
X22376786Y-11172386D01*
X22391071Y-11186671D01*
X22405357Y-11215243D01*
X22405357Y-11286671D01*
X22391071Y-11315243D01*
X22376786Y-11329529D01*
X22348214Y-11343814D01*
X22276786Y-11343814D01*
X22248214Y-11329529D01*
X22233928Y-11315243D01*
X22591071Y-11043814D02*
X22619643Y-11043814D01*
X22648214Y-11058100D01*
X22662500Y-11072386D01*
X22676786Y-11100957D01*
X22691071Y-11158100D01*
X22691071Y-11229529D01*
X22676786Y-11286671D01*
X22662500Y-11315243D01*
X22648214Y-11329529D01*
X22619643Y-11343814D01*
X22591071Y-11343814D01*
X22562500Y-11329529D01*
X22548214Y-11315243D01*
X22533928Y-11286671D01*
X22519643Y-11229529D01*
X22519643Y-11158100D01*
X22533928Y-11100957D01*
X22548214Y-11072386D01*
X22562500Y-11058100D01*
X22591071Y-11043814D01*
X23048214Y-11343814D02*
X23048214Y-11043814D01*
X23176786Y-11343814D02*
X23176786Y-11186671D01*
X23162500Y-11158100D01*
X23133928Y-11143814D01*
X23091071Y-11143814D01*
X23062500Y-11158100D01*
X23048214Y-11172386D01*
X23362500Y-11343814D02*
X23333928Y-11329529D01*
X23319643Y-11315243D01*
X23305357Y-11286671D01*
X23305357Y-11200957D01*
X23319643Y-11172386D01*
X23333928Y-11158100D01*
X23362500Y-11143814D01*
X23405357Y-11143814D01*
X23433928Y-11158100D01*
X23448214Y-11172386D01*
X23462500Y-11200957D01*
X23462500Y-11286671D01*
X23448214Y-11315243D01*
X23433928Y-11329529D01*
X23405357Y-11343814D01*
X23362500Y-11343814D01*
X23633928Y-11343814D02*
X23605357Y-11329529D01*
X23591071Y-11300957D01*
X23591071Y-11043814D01*
X23862500Y-11329529D02*
X23833928Y-11343814D01*
X23776786Y-11343814D01*
X23748214Y-11329529D01*
X23733928Y-11300957D01*
X23733928Y-11186671D01*
X23748214Y-11158100D01*
X23776786Y-11143814D01*
X23833928Y-11143814D01*
X23862500Y-11158100D01*
X23876786Y-11186671D01*
X23876786Y-11215243D01*
X23733928Y-11243814D01*
X23991071Y-11329529D02*
X24019643Y-11343814D01*
X24076786Y-11343814D01*
X24105357Y-11329529D01*
X24119643Y-11300957D01*
X24119643Y-11286671D01*
X24105357Y-11258100D01*
X24076786Y-11243814D01*
X24033928Y-11243814D01*
X24005357Y-11229529D01*
X23991071Y-11200957D01*
X23991071Y-11186671D01*
X24005357Y-11158100D01*
X24033928Y-11143814D01*
X24076786Y-11143814D01*
X24105357Y-11158100D01*
X24219643Y-11458100D02*
X24233928Y-11443814D01*
X24262500Y-11400957D01*
X24276786Y-11372386D01*
X24291071Y-11329529D01*
X24305357Y-11258100D01*
X24305357Y-11200957D01*
X24291071Y-11129529D01*
X24276786Y-11086672D01*
X24262500Y-11058100D01*
X24233928Y-11015243D01*
X24219643Y-11000957D01*
X17397500Y-11554100D02*
X17397500Y-11654100D01*
X17347500Y-11604100D02*
X17447500Y-11604100D01*
X17891071Y-11739814D02*
X17719643Y-11739814D01*
X17805357Y-11739814D02*
X17805357Y-11439814D01*
X17776786Y-11482671D01*
X17748214Y-11511243D01*
X17719643Y-11525529D01*
X18019643Y-11711243D02*
X18033928Y-11725529D01*
X18019643Y-11739814D01*
X18005357Y-11725529D01*
X18019643Y-11711243D01*
X18019643Y-11739814D01*
X18219643Y-11439814D02*
X18248214Y-11439814D01*
X18276786Y-11454100D01*
X18291071Y-11468386D01*
X18305357Y-11496957D01*
X18319643Y-11554100D01*
X18319643Y-11625529D01*
X18305357Y-11682671D01*
X18291071Y-11711243D01*
X18276786Y-11725529D01*
X18248214Y-11739814D01*
X18219643Y-11739814D01*
X18191071Y-11725529D01*
X18176786Y-11711243D01*
X18162500Y-11682671D01*
X18148214Y-11625529D01*
X18148214Y-11554100D01*
X18162500Y-11496957D01*
X18176786Y-11468386D01*
X18191071Y-11454100D01*
X18219643Y-11439814D01*
X18505357Y-11439814D02*
X18533928Y-11439814D01*
X18562500Y-11454100D01*
X18576786Y-11468386D01*
X18591071Y-11496957D01*
X18605357Y-11554100D01*
X18605357Y-11625529D01*
X18591071Y-11682671D01*
X18576786Y-11711243D01*
X18562500Y-11725529D01*
X18533928Y-11739814D01*
X18505357Y-11739814D01*
X18476786Y-11725529D01*
X18462500Y-11711243D01*
X18448214Y-11682671D01*
X18433928Y-11625529D01*
X18433928Y-11554100D01*
X18448214Y-11496957D01*
X18462500Y-11468386D01*
X18476786Y-11454100D01*
X18505357Y-11439814D01*
X18733928Y-11739814D02*
X18733928Y-11539814D01*
X18733928Y-11568386D02*
X18748214Y-11554100D01*
X18776786Y-11539814D01*
X18819643Y-11539814D01*
X18848214Y-11554100D01*
X18862500Y-11582671D01*
X18862500Y-11739814D01*
X18862500Y-11582671D02*
X18876786Y-11554100D01*
X18905357Y-11539814D01*
X18948214Y-11539814D01*
X18976786Y-11554100D01*
X18991071Y-11582671D01*
X18991071Y-11739814D01*
X19133928Y-11739814D02*
X19133928Y-11539814D01*
X19133928Y-11568386D02*
X19148214Y-11554100D01*
X19176786Y-11539814D01*
X19219643Y-11539814D01*
X19248214Y-11554100D01*
X19262500Y-11582671D01*
X19262500Y-11739814D01*
X19262500Y-11582671D02*
X19276786Y-11554100D01*
X19305357Y-11539814D01*
X19348214Y-11539814D01*
X19376786Y-11554100D01*
X19391071Y-11582671D01*
X19391071Y-11739814D01*
X19976786Y-11425529D02*
X19719643Y-11811243D01*
X20362500Y-11439814D02*
X20391071Y-11439814D01*
X20419643Y-11454100D01*
X20433928Y-11468386D01*
X20448214Y-11496957D01*
X20462500Y-11554100D01*
X20462500Y-11625529D01*
X20448214Y-11682671D01*
X20433928Y-11711243D01*
X20419643Y-11725529D01*
X20391071Y-11739814D01*
X20362500Y-11739814D01*
X20333928Y-11725529D01*
X20319643Y-11711243D01*
X20305357Y-11682671D01*
X20291071Y-11625529D01*
X20291071Y-11554100D01*
X20305357Y-11496957D01*
X20319643Y-11468386D01*
X20333928Y-11454100D01*
X20362500Y-11439814D01*
X20591071Y-11711243D02*
X20605357Y-11725529D01*
X20591071Y-11739814D01*
X20576786Y-11725529D01*
X20591071Y-11711243D01*
X20591071Y-11739814D01*
X20791071Y-11439814D02*
X20819643Y-11439814D01*
X20848214Y-11454100D01*
X20862500Y-11468386D01*
X20876786Y-11496957D01*
X20891071Y-11554100D01*
X20891071Y-11625529D01*
X20876786Y-11682671D01*
X20862500Y-11711243D01*
X20848214Y-11725529D01*
X20819643Y-11739814D01*
X20791071Y-11739814D01*
X20762500Y-11725529D01*
X20748214Y-11711243D01*
X20733928Y-11682671D01*
X20719643Y-11625529D01*
X20719643Y-11554100D01*
X20733928Y-11496957D01*
X20748214Y-11468386D01*
X20762500Y-11454100D01*
X20791071Y-11439814D01*
X20991071Y-11439814D02*
X21176786Y-11439814D01*
X21076786Y-11554100D01*
X21119643Y-11554100D01*
X21148214Y-11568386D01*
X21162500Y-11582671D01*
X21176786Y-11611243D01*
X21176786Y-11682671D01*
X21162500Y-11711243D01*
X21148214Y-11725529D01*
X21119643Y-11739814D01*
X21033928Y-11739814D01*
X21005357Y-11725529D01*
X20991071Y-11711243D01*
X21319643Y-11739814D02*
X21376786Y-11739814D01*
X21405357Y-11725529D01*
X21419643Y-11711243D01*
X21448214Y-11668386D01*
X21462500Y-11611243D01*
X21462500Y-11496957D01*
X21448214Y-11468386D01*
X21433928Y-11454100D01*
X21405357Y-11439814D01*
X21348214Y-11439814D01*
X21319643Y-11454100D01*
X21305357Y-11468386D01*
X21291071Y-11496957D01*
X21291071Y-11568386D01*
X21305357Y-11596957D01*
X21319643Y-11611243D01*
X21348214Y-11625529D01*
X21405357Y-11625529D01*
X21433928Y-11611243D01*
X21448214Y-11596957D01*
X21462500Y-11568386D01*
X21576786Y-11439814D02*
X21576786Y-11496957D01*
X21691071Y-11439814D02*
X21691071Y-11496957D01*
X22133928Y-11854100D02*
X22119643Y-11839814D01*
X22091071Y-11796957D01*
X22076786Y-11768386D01*
X22062500Y-11725529D01*
X22048214Y-11654100D01*
X22048214Y-11596957D01*
X22062500Y-11525529D01*
X22076786Y-11482671D01*
X22091071Y-11454100D01*
X22119643Y-11411243D01*
X22133928Y-11396957D01*
X22391071Y-11439814D02*
X22248214Y-11439814D01*
X22233928Y-11582671D01*
X22248214Y-11568386D01*
X22276786Y-11554100D01*
X22348214Y-11554100D01*
X22376786Y-11568386D01*
X22391071Y-11582671D01*
X22405357Y-11611243D01*
X22405357Y-11682671D01*
X22391071Y-11711243D01*
X22376786Y-11725529D01*
X22348214Y-11739814D01*
X22276786Y-11739814D01*
X22248214Y-11725529D01*
X22233928Y-11711243D01*
X22591071Y-11439814D02*
X22619643Y-11439814D01*
X22648214Y-11454100D01*
X22662500Y-11468386D01*
X22676786Y-11496957D01*
X22691071Y-11554100D01*
X22691071Y-11625529D01*
X22676786Y-11682671D01*
X22662500Y-11711243D01*
X22648214Y-11725529D01*
X22619643Y-11739814D01*
X22591071Y-11739814D01*
X22562500Y-11725529D01*
X22548214Y-11711243D01*
X22533928Y-11682671D01*
X22519643Y-11625529D01*
X22519643Y-11554100D01*
X22533928Y-11496957D01*
X22548214Y-11468386D01*
X22562500Y-11454100D01*
X22591071Y-11439814D01*
X23048214Y-11739814D02*
X23048214Y-11439814D01*
X23176786Y-11739814D02*
X23176786Y-11582671D01*
X23162500Y-11554100D01*
X23133928Y-11539814D01*
X23091071Y-11539814D01*
X23062500Y-11554100D01*
X23048214Y-11568386D01*
X23362500Y-11739814D02*
X23333928Y-11725529D01*
X23319643Y-11711243D01*
X23305357Y-11682671D01*
X23305357Y-11596957D01*
X23319643Y-11568386D01*
X23333928Y-11554100D01*
X23362500Y-11539814D01*
X23405357Y-11539814D01*
X23433928Y-11554100D01*
X23448214Y-11568386D01*
X23462500Y-11596957D01*
X23462500Y-11682671D01*
X23448214Y-11711243D01*
X23433928Y-11725529D01*
X23405357Y-11739814D01*
X23362500Y-11739814D01*
X23633928Y-11739814D02*
X23605357Y-11725529D01*
X23591071Y-11696957D01*
X23591071Y-11439814D01*
X23862500Y-11725529D02*
X23833928Y-11739814D01*
X23776786Y-11739814D01*
X23748214Y-11725529D01*
X23733928Y-11696957D01*
X23733928Y-11582671D01*
X23748214Y-11554100D01*
X23776786Y-11539814D01*
X23833928Y-11539814D01*
X23862500Y-11554100D01*
X23876786Y-11582671D01*
X23876786Y-11611243D01*
X23733928Y-11639814D01*
X23991071Y-11725529D02*
X24019643Y-11739814D01*
X24076786Y-11739814D01*
X24105357Y-11725529D01*
X24119643Y-11696957D01*
X24119643Y-11682671D01*
X24105357Y-11654100D01*
X24076786Y-11639814D01*
X24033928Y-11639814D01*
X24005357Y-11625529D01*
X23991071Y-11596957D01*
X23991071Y-11582671D01*
X24005357Y-11554100D01*
X24033928Y-11539814D01*
X24076786Y-11539814D01*
X24105357Y-11554100D01*
X24219643Y-11854100D02*
X24233928Y-11839814D01*
X24262500Y-11796957D01*
X24276786Y-11768386D01*
X24291071Y-11725529D01*
X24305357Y-11654100D01*
X24305357Y-11596957D01*
X24291071Y-11525529D01*
X24276786Y-11482671D01*
X24262500Y-11454100D01*
X24233928Y-11411243D01*
X24219643Y-11396957D01*
X17432416Y-12036516D02*
X17432416Y-11963684D01*
X17359584Y-11963684D01*
X17359584Y-12036516D01*
X17432416Y-12036516D01*
X17891071Y-12135814D02*
X17719643Y-12135814D01*
X17805357Y-12135814D02*
X17805357Y-11835814D01*
X17776786Y-11878671D01*
X17748214Y-11907243D01*
X17719643Y-11921529D01*
X18019643Y-12107243D02*
X18033928Y-12121529D01*
X18019643Y-12135814D01*
X18005357Y-12121529D01*
X18019643Y-12107243D01*
X18019643Y-12135814D01*
X18219643Y-11835814D02*
X18248214Y-11835814D01*
X18276786Y-11850100D01*
X18291071Y-11864386D01*
X18305357Y-11892957D01*
X18319643Y-11950100D01*
X18319643Y-12021529D01*
X18305357Y-12078671D01*
X18291071Y-12107243D01*
X18276786Y-12121529D01*
X18248214Y-12135814D01*
X18219643Y-12135814D01*
X18191071Y-12121529D01*
X18176786Y-12107243D01*
X18162500Y-12078671D01*
X18148214Y-12021529D01*
X18148214Y-11950100D01*
X18162500Y-11892957D01*
X18176786Y-11864386D01*
X18191071Y-11850100D01*
X18219643Y-11835814D01*
X18419643Y-11835814D02*
X18605357Y-11835814D01*
X18505357Y-11950100D01*
X18548214Y-11950100D01*
X18576786Y-11964386D01*
X18591071Y-11978671D01*
X18605357Y-12007243D01*
X18605357Y-12078671D01*
X18591071Y-12107243D01*
X18576786Y-12121529D01*
X18548214Y-12135814D01*
X18462500Y-12135814D01*
X18433928Y-12121529D01*
X18419643Y-12107243D01*
X18733928Y-12135814D02*
X18733928Y-11935814D01*
X18733928Y-11964386D02*
X18748214Y-11950100D01*
X18776786Y-11935814D01*
X18819643Y-11935814D01*
X18848214Y-11950100D01*
X18862500Y-11978671D01*
X18862500Y-12135814D01*
X18862500Y-11978671D02*
X18876786Y-11950100D01*
X18905357Y-11935814D01*
X18948214Y-11935814D01*
X18976786Y-11950100D01*
X18991071Y-11978671D01*
X18991071Y-12135814D01*
X19133928Y-12135814D02*
X19133928Y-11935814D01*
X19133928Y-11964386D02*
X19148214Y-11950100D01*
X19176786Y-11935814D01*
X19219643Y-11935814D01*
X19248214Y-11950100D01*
X19262500Y-11978671D01*
X19262500Y-12135814D01*
X19262500Y-11978671D02*
X19276786Y-11950100D01*
X19305357Y-11935814D01*
X19348214Y-11935814D01*
X19376786Y-11950100D01*
X19391071Y-11978671D01*
X19391071Y-12135814D01*
X19976786Y-11821529D02*
X19719643Y-12207243D01*
X20362500Y-11835814D02*
X20391071Y-11835814D01*
X20419643Y-11850100D01*
X20433928Y-11864386D01*
X20448214Y-11892957D01*
X20462500Y-11950100D01*
X20462500Y-12021529D01*
X20448214Y-12078671D01*
X20433928Y-12107243D01*
X20419643Y-12121529D01*
X20391071Y-12135814D01*
X20362500Y-12135814D01*
X20333928Y-12121529D01*
X20319643Y-12107243D01*
X20305357Y-12078671D01*
X20291071Y-12021529D01*
X20291071Y-11950100D01*
X20305357Y-11892957D01*
X20319643Y-11864386D01*
X20333928Y-11850100D01*
X20362500Y-11835814D01*
X20591071Y-12107243D02*
X20605357Y-12121529D01*
X20591071Y-12135814D01*
X20576786Y-12121529D01*
X20591071Y-12107243D01*
X20591071Y-12135814D01*
X20791071Y-11835814D02*
X20819643Y-11835814D01*
X20848214Y-11850100D01*
X20862500Y-11864386D01*
X20876786Y-11892957D01*
X20891071Y-11950100D01*
X20891071Y-12021529D01*
X20876786Y-12078671D01*
X20862500Y-12107243D01*
X20848214Y-12121529D01*
X20819643Y-12135814D01*
X20791071Y-12135814D01*
X20762500Y-12121529D01*
X20748214Y-12107243D01*
X20733928Y-12078671D01*
X20719643Y-12021529D01*
X20719643Y-11950100D01*
X20733928Y-11892957D01*
X20748214Y-11864386D01*
X20762500Y-11850100D01*
X20791071Y-11835814D01*
X21148214Y-11935814D02*
X21148214Y-12135814D01*
X21076786Y-11821529D02*
X21005357Y-12035814D01*
X21191071Y-12035814D01*
X21462500Y-12135814D02*
X21291071Y-12135814D01*
X21376786Y-12135814D02*
X21376786Y-11835814D01*
X21348214Y-11878671D01*
X21319643Y-11907243D01*
X21291071Y-11921529D01*
X21576786Y-11835814D02*
X21576786Y-11892957D01*
X21691071Y-11835814D02*
X21691071Y-11892957D01*
X22133928Y-12250100D02*
X22119643Y-12235814D01*
X22091071Y-12192957D01*
X22076786Y-12164386D01*
X22062500Y-12121529D01*
X22048214Y-12050100D01*
X22048214Y-11992957D01*
X22062500Y-11921529D01*
X22076786Y-11878671D01*
X22091071Y-11850100D01*
X22119643Y-11807243D01*
X22133928Y-11792957D01*
X22233928Y-11864386D02*
X22248214Y-11850100D01*
X22276786Y-11835814D01*
X22348214Y-11835814D01*
X22376786Y-11850100D01*
X22391071Y-11864386D01*
X22405357Y-11892957D01*
X22405357Y-11921529D01*
X22391071Y-11964386D01*
X22219643Y-12135814D01*
X22405357Y-12135814D01*
X22676786Y-11835814D02*
X22533928Y-11835814D01*
X22519643Y-11978671D01*
X22533928Y-11964386D01*
X22562500Y-11950100D01*
X22633928Y-11950100D01*
X22662500Y-11964386D01*
X22676786Y-11978671D01*
X22691071Y-12007243D01*
X22691071Y-12078671D01*
X22676786Y-12107243D01*
X22662500Y-12121529D01*
X22633928Y-12135814D01*
X22562500Y-12135814D01*
X22533928Y-12121529D01*
X22519643Y-12107243D01*
X23048214Y-12135814D02*
X23048214Y-11835814D01*
X23176786Y-12135814D02*
X23176786Y-11978671D01*
X23162500Y-11950100D01*
X23133928Y-11935814D01*
X23091071Y-11935814D01*
X23062500Y-11950100D01*
X23048214Y-11964386D01*
X23362500Y-12135814D02*
X23333928Y-12121529D01*
X23319643Y-12107243D01*
X23305357Y-12078671D01*
X23305357Y-11992957D01*
X23319643Y-11964386D01*
X23333928Y-11950100D01*
X23362500Y-11935814D01*
X23405357Y-11935814D01*
X23433928Y-11950100D01*
X23448214Y-11964386D01*
X23462500Y-11992957D01*
X23462500Y-12078671D01*
X23448214Y-12107243D01*
X23433928Y-12121529D01*
X23405357Y-12135814D01*
X23362500Y-12135814D01*
X23633928Y-12135814D02*
X23605357Y-12121529D01*
X23591071Y-12092957D01*
X23591071Y-11835814D01*
X23862500Y-12121529D02*
X23833928Y-12135814D01*
X23776786Y-12135814D01*
X23748214Y-12121529D01*
X23733928Y-12092957D01*
X23733928Y-11978671D01*
X23748214Y-11950100D01*
X23776786Y-11935814D01*
X23833928Y-11935814D01*
X23862500Y-11950100D01*
X23876786Y-11978671D01*
X23876786Y-12007243D01*
X23733928Y-12035814D01*
X23991071Y-12121529D02*
X24019643Y-12135814D01*
X24076786Y-12135814D01*
X24105357Y-12121529D01*
X24119643Y-12092957D01*
X24119643Y-12078671D01*
X24105357Y-12050100D01*
X24076786Y-12035814D01*
X24033928Y-12035814D01*
X24005357Y-12021529D01*
X23991071Y-11992957D01*
X23991071Y-11978671D01*
X24005357Y-11950100D01*
X24033928Y-11935814D01*
X24076786Y-11935814D01*
X24105357Y-11950100D01*
X24219643Y-12250100D02*
X24233928Y-12235814D01*
X24262500Y-12192957D01*
X24276786Y-12164386D01*
X24291071Y-12121529D01*
X24305357Y-12050100D01*
X24305357Y-11992957D01*
X24291071Y-11921529D01*
X24276786Y-11878671D01*
X24262500Y-11850100D01*
X24233928Y-11807243D01*
X24219643Y-11792957D01*
X17387500Y-12456100D02*
X17447500Y-12396100D01*
X17387500Y-12336100D01*
X17327500Y-12396100D01*
X17387500Y-12456100D01*
X17891071Y-12531814D02*
X17719643Y-12531814D01*
X17805357Y-12531814D02*
X17805357Y-12231814D01*
X17776786Y-12274671D01*
X17748214Y-12303243D01*
X17719643Y-12317529D01*
X18019643Y-12503243D02*
X18033928Y-12517529D01*
X18019643Y-12531814D01*
X18005357Y-12517529D01*
X18019643Y-12503243D01*
X18019643Y-12531814D01*
X18148214Y-12260386D02*
X18162500Y-12246100D01*
X18191071Y-12231814D01*
X18262500Y-12231814D01*
X18291071Y-12246100D01*
X18305357Y-12260386D01*
X18319643Y-12288957D01*
X18319643Y-12317529D01*
X18305357Y-12360386D01*
X18133928Y-12531814D01*
X18319643Y-12531814D01*
X18505357Y-12231814D02*
X18533928Y-12231814D01*
X18562500Y-12246100D01*
X18576786Y-12260386D01*
X18591071Y-12288957D01*
X18605357Y-12346100D01*
X18605357Y-12417529D01*
X18591071Y-12474671D01*
X18576786Y-12503243D01*
X18562500Y-12517529D01*
X18533928Y-12531814D01*
X18505357Y-12531814D01*
X18476786Y-12517529D01*
X18462500Y-12503243D01*
X18448214Y-12474671D01*
X18433928Y-12417529D01*
X18433928Y-12346100D01*
X18448214Y-12288957D01*
X18462500Y-12260386D01*
X18476786Y-12246100D01*
X18505357Y-12231814D01*
X18733928Y-12531814D02*
X18733928Y-12331814D01*
X18733928Y-12360386D02*
X18748214Y-12346100D01*
X18776786Y-12331814D01*
X18819643Y-12331814D01*
X18848214Y-12346100D01*
X18862500Y-12374671D01*
X18862500Y-12531814D01*
X18862500Y-12374671D02*
X18876786Y-12346100D01*
X18905357Y-12331814D01*
X18948214Y-12331814D01*
X18976786Y-12346100D01*
X18991071Y-12374671D01*
X18991071Y-12531814D01*
X19133928Y-12531814D02*
X19133928Y-12331814D01*
X19133928Y-12360386D02*
X19148214Y-12346100D01*
X19176786Y-12331814D01*
X19219643Y-12331814D01*
X19248214Y-12346100D01*
X19262500Y-12374671D01*
X19262500Y-12531814D01*
X19262500Y-12374671D02*
X19276786Y-12346100D01*
X19305357Y-12331814D01*
X19348214Y-12331814D01*
X19376786Y-12346100D01*
X19391071Y-12374671D01*
X19391071Y-12531814D01*
X19976786Y-12217529D02*
X19719643Y-12603243D01*
X20362500Y-12231814D02*
X20391071Y-12231814D01*
X20419643Y-12246100D01*
X20433928Y-12260386D01*
X20448214Y-12288957D01*
X20462500Y-12346100D01*
X20462500Y-12417529D01*
X20448214Y-12474671D01*
X20433928Y-12503243D01*
X20419643Y-12517529D01*
X20391071Y-12531814D01*
X20362500Y-12531814D01*
X20333928Y-12517529D01*
X20319643Y-12503243D01*
X20305357Y-12474671D01*
X20291071Y-12417529D01*
X20291071Y-12346100D01*
X20305357Y-12288957D01*
X20319643Y-12260386D01*
X20333928Y-12246100D01*
X20362500Y-12231814D01*
X20591071Y-12503243D02*
X20605357Y-12517529D01*
X20591071Y-12531814D01*
X20576786Y-12517529D01*
X20591071Y-12503243D01*
X20591071Y-12531814D01*
X20791071Y-12231814D02*
X20819643Y-12231814D01*
X20848214Y-12246100D01*
X20862500Y-12260386D01*
X20876786Y-12288957D01*
X20891071Y-12346100D01*
X20891071Y-12417529D01*
X20876786Y-12474671D01*
X20862500Y-12503243D01*
X20848214Y-12517529D01*
X20819643Y-12531814D01*
X20791071Y-12531814D01*
X20762500Y-12517529D01*
X20748214Y-12503243D01*
X20733928Y-12474671D01*
X20719643Y-12417529D01*
X20719643Y-12346100D01*
X20733928Y-12288957D01*
X20748214Y-12260386D01*
X20762500Y-12246100D01*
X20791071Y-12231814D01*
X21148214Y-12331814D02*
X21148214Y-12531814D01*
X21076786Y-12217529D02*
X21005357Y-12431814D01*
X21191071Y-12431814D01*
X21276786Y-12231814D02*
X21476786Y-12231814D01*
X21348214Y-12531814D01*
X21576786Y-12231814D02*
X21576786Y-12288957D01*
X21691071Y-12231814D02*
X21691071Y-12288957D01*
X22133928Y-12646100D02*
X22119643Y-12631814D01*
X22091071Y-12588957D01*
X22076786Y-12560386D01*
X22062500Y-12517529D01*
X22048214Y-12446100D01*
X22048214Y-12388957D01*
X22062500Y-12317529D01*
X22076786Y-12274671D01*
X22091071Y-12246100D01*
X22119643Y-12203243D01*
X22133928Y-12188957D01*
X22376786Y-12331814D02*
X22376786Y-12531814D01*
X22305357Y-12217529D02*
X22233928Y-12431814D01*
X22419643Y-12431814D01*
X22762500Y-12531814D02*
X22762500Y-12231814D01*
X22891071Y-12531814D02*
X22891071Y-12374671D01*
X22876786Y-12346100D01*
X22848214Y-12331814D01*
X22805357Y-12331814D01*
X22776786Y-12346100D01*
X22762500Y-12360386D01*
X23076786Y-12531814D02*
X23048214Y-12517529D01*
X23033928Y-12503243D01*
X23019643Y-12474671D01*
X23019643Y-12388957D01*
X23033928Y-12360386D01*
X23048214Y-12346100D01*
X23076786Y-12331814D01*
X23119643Y-12331814D01*
X23148214Y-12346100D01*
X23162500Y-12360386D01*
X23176786Y-12388957D01*
X23176786Y-12474671D01*
X23162500Y-12503243D01*
X23148214Y-12517529D01*
X23119643Y-12531814D01*
X23076786Y-12531814D01*
X23348214Y-12531814D02*
X23319643Y-12517529D01*
X23305357Y-12488957D01*
X23305357Y-12231814D01*
X23576786Y-12517529D02*
X23548214Y-12531814D01*
X23491071Y-12531814D01*
X23462500Y-12517529D01*
X23448214Y-12488957D01*
X23448214Y-12374671D01*
X23462500Y-12346100D01*
X23491071Y-12331814D01*
X23548214Y-12331814D01*
X23576786Y-12346100D01*
X23591071Y-12374671D01*
X23591071Y-12403243D01*
X23448214Y-12431814D01*
X23705357Y-12517529D02*
X23733928Y-12531814D01*
X23791071Y-12531814D01*
X23819643Y-12517529D01*
X23833928Y-12488957D01*
X23833928Y-12474671D01*
X23819643Y-12446100D01*
X23791071Y-12431814D01*
X23748214Y-12431814D01*
X23719643Y-12417529D01*
X23705357Y-12388957D01*
X23705357Y-12374671D01*
X23719643Y-12346100D01*
X23748214Y-12331814D01*
X23791071Y-12331814D01*
X23819643Y-12346100D01*
X23933928Y-12646100D02*
X23948214Y-12631814D01*
X23976786Y-12588957D01*
X23991071Y-12560386D01*
X24005357Y-12517529D01*
X24019643Y-12446100D01*
X24019643Y-12388957D01*
X24005357Y-12317529D01*
X23991071Y-12274671D01*
X23976786Y-12246100D01*
X23948214Y-12203243D01*
X23933928Y-12188957D01*
X17124500Y-12630600D02*
X17447500Y-12953600D01*
X17447500Y-12630600D02*
X17124500Y-12953600D01*
X17447500Y-12792100D02*
G75*
G03*
X17447500Y-12792100I-161500J0D01*
G01*
X17705357Y-12627814D02*
X17891071Y-12627814D01*
X17791071Y-12742100D01*
X17833928Y-12742100D01*
X17862500Y-12756386D01*
X17876786Y-12770671D01*
X17891071Y-12799243D01*
X17891071Y-12870671D01*
X17876786Y-12899243D01*
X17862500Y-12913529D01*
X17833928Y-12927814D01*
X17748214Y-12927814D01*
X17719643Y-12913529D01*
X17705357Y-12899243D01*
X18019643Y-12899243D02*
X18033928Y-12913529D01*
X18019643Y-12927814D01*
X18005357Y-12913529D01*
X18019643Y-12899243D01*
X18019643Y-12927814D01*
X18148214Y-12656386D02*
X18162500Y-12642100D01*
X18191071Y-12627814D01*
X18262500Y-12627814D01*
X18291071Y-12642100D01*
X18305357Y-12656386D01*
X18319643Y-12684957D01*
X18319643Y-12713529D01*
X18305357Y-12756386D01*
X18133928Y-12927814D01*
X18319643Y-12927814D01*
X18419643Y-12627814D02*
X18605357Y-12627814D01*
X18505357Y-12742100D01*
X18548214Y-12742100D01*
X18576786Y-12756386D01*
X18591071Y-12770671D01*
X18605357Y-12799243D01*
X18605357Y-12870671D01*
X18591071Y-12899243D01*
X18576786Y-12913529D01*
X18548214Y-12927814D01*
X18462500Y-12927814D01*
X18433928Y-12913529D01*
X18419643Y-12899243D01*
X18733928Y-12927814D02*
X18733928Y-12727814D01*
X18733928Y-12756386D02*
X18748214Y-12742100D01*
X18776786Y-12727814D01*
X18819643Y-12727814D01*
X18848214Y-12742100D01*
X18862500Y-12770671D01*
X18862500Y-12927814D01*
X18862500Y-12770671D02*
X18876786Y-12742100D01*
X18905357Y-12727814D01*
X18948214Y-12727814D01*
X18976786Y-12742100D01*
X18991071Y-12770671D01*
X18991071Y-12927814D01*
X19133928Y-12927814D02*
X19133928Y-12727814D01*
X19133928Y-12756386D02*
X19148214Y-12742100D01*
X19176786Y-12727814D01*
X19219643Y-12727814D01*
X19248214Y-12742100D01*
X19262500Y-12770671D01*
X19262500Y-12927814D01*
X19262500Y-12770671D02*
X19276786Y-12742100D01*
X19305357Y-12727814D01*
X19348214Y-12727814D01*
X19376786Y-12742100D01*
X19391071Y-12770671D01*
X19391071Y-12927814D01*
X19976786Y-12613529D02*
X19719643Y-12999243D01*
X20362500Y-12627814D02*
X20391071Y-12627814D01*
X20419643Y-12642100D01*
X20433928Y-12656386D01*
X20448214Y-12684957D01*
X20462500Y-12742100D01*
X20462500Y-12813529D01*
X20448214Y-12870671D01*
X20433928Y-12899243D01*
X20419643Y-12913529D01*
X20391071Y-12927814D01*
X20362500Y-12927814D01*
X20333928Y-12913529D01*
X20319643Y-12899243D01*
X20305357Y-12870671D01*
X20291071Y-12813529D01*
X20291071Y-12742100D01*
X20305357Y-12684957D01*
X20319643Y-12656386D01*
X20333928Y-12642100D01*
X20362500Y-12627814D01*
X20591071Y-12899243D02*
X20605357Y-12913529D01*
X20591071Y-12927814D01*
X20576786Y-12913529D01*
X20591071Y-12899243D01*
X20591071Y-12927814D01*
X20891071Y-12927814D02*
X20719643Y-12927814D01*
X20805357Y-12927814D02*
X20805357Y-12627814D01*
X20776786Y-12670671D01*
X20748214Y-12699243D01*
X20719643Y-12713529D01*
X21005357Y-12656386D02*
X21019643Y-12642100D01*
X21048214Y-12627814D01*
X21119643Y-12627814D01*
X21148214Y-12642100D01*
X21162500Y-12656386D01*
X21176786Y-12684957D01*
X21176786Y-12713529D01*
X21162500Y-12756386D01*
X20991071Y-12927814D01*
X21176786Y-12927814D01*
X21276786Y-12627814D02*
X21476786Y-12627814D01*
X21348214Y-12927814D01*
X21576786Y-12627814D02*
X21576786Y-12684957D01*
X21691071Y-12627814D02*
X21691071Y-12684957D01*
X22133928Y-13042100D02*
X22119643Y-13027814D01*
X22091071Y-12984957D01*
X22076786Y-12956386D01*
X22062500Y-12913529D01*
X22048214Y-12842100D01*
X22048214Y-12784957D01*
X22062500Y-12713529D01*
X22076786Y-12670671D01*
X22091071Y-12642100D01*
X22119643Y-12599243D01*
X22133928Y-12584957D01*
X22233928Y-12656386D02*
X22248214Y-12642100D01*
X22276786Y-12627814D01*
X22348214Y-12627814D01*
X22376786Y-12642100D01*
X22391071Y-12656386D01*
X22405357Y-12684957D01*
X22405357Y-12713529D01*
X22391071Y-12756386D01*
X22219643Y-12927814D01*
X22405357Y-12927814D01*
X22762500Y-12927814D02*
X22762500Y-12627814D01*
X22891071Y-12927814D02*
X22891071Y-12770671D01*
X22876786Y-12742100D01*
X22848214Y-12727814D01*
X22805357Y-12727814D01*
X22776786Y-12742100D01*
X22762500Y-12756386D01*
X23076786Y-12927814D02*
X23048214Y-12913529D01*
X23033928Y-12899243D01*
X23019643Y-12870671D01*
X23019643Y-12784957D01*
X23033928Y-12756386D01*
X23048214Y-12742100D01*
X23076786Y-12727814D01*
X23119643Y-12727814D01*
X23148214Y-12742100D01*
X23162500Y-12756386D01*
X23176786Y-12784957D01*
X23176786Y-12870671D01*
X23162500Y-12899243D01*
X23148214Y-12913529D01*
X23119643Y-12927814D01*
X23076786Y-12927814D01*
X23348214Y-12927814D02*
X23319643Y-12913529D01*
X23305357Y-12884957D01*
X23305357Y-12627814D01*
X23576786Y-12913529D02*
X23548214Y-12927814D01*
X23491071Y-12927814D01*
X23462500Y-12913529D01*
X23448214Y-12884957D01*
X23448214Y-12770671D01*
X23462500Y-12742100D01*
X23491071Y-12727814D01*
X23548214Y-12727814D01*
X23576786Y-12742100D01*
X23591071Y-12770671D01*
X23591071Y-12799243D01*
X23448214Y-12827814D01*
X23705357Y-12913529D02*
X23733928Y-12927814D01*
X23791071Y-12927814D01*
X23819643Y-12913529D01*
X23833928Y-12884957D01*
X23833928Y-12870671D01*
X23819643Y-12842100D01*
X23791071Y-12827814D01*
X23748214Y-12827814D01*
X23719643Y-12813529D01*
X23705357Y-12784957D01*
X23705357Y-12770671D01*
X23719643Y-12742100D01*
X23748214Y-12727814D01*
X23791071Y-12727814D01*
X23819643Y-12742100D01*
X23933928Y-13042100D02*
X23948214Y-13027814D01*
X23976786Y-12984957D01*
X23991071Y-12956386D01*
X24005357Y-12913529D01*
X24019643Y-12842100D01*
X24019643Y-12784957D01*
X24005357Y-12713529D01*
X23991071Y-12670671D01*
X23976786Y-12642100D01*
X23948214Y-12599243D01*
X23933928Y-12584957D01*
M02*
