M48
; DRILL file {KiCad (5.1.9-16-g1737927814)-1} date 10/16/21 21:24:33
; FORMAT={-:-/ absolute / metric / decimal}
; #@! TF.CreationDate,2021-10-16T21:24:33-05:00
; #@! TF.GenerationSoftware,Kicad,Pcbnew,(5.1.9-16-g1737927814)-1
; #@! TF.FileFunction,Plated,1,2,PTH
FMAT,2
METRIC
T1C0.250
T2C0.800
T3C1.000
T4C1.030
T5C1.200
T6C3.230
%
G90
G05
T1
X177.98Y-84.28
X180.57Y-84.33
X183.202Y-84.103
X185.894Y-83.979
X188.131Y-83.652
X190.58Y-83.892
X193.631Y-89.294
X193.634Y-91.456
X194.845Y-86.558
X195.11Y-92.047
X195.174Y-81.827
X196.174Y-92.218
X196.71Y-84.235
X196.886Y-88.747
X197.698Y-84.55
X198.48Y-84.852
X198.69Y-91.301
X199.594Y-91.513
X199.72Y-84.758
X200.238Y-88.662
X202.631Y-85.938
X202.721Y-84.657
X202.952Y-88.582
X203.913Y-90.911
X204.32Y-84.796
X205.219Y-84.796
X208.366Y-84.344
X208.809Y-88.749
X209.382Y-92.462
X209.436Y-84.453
X209.679Y-86.203
X209.788Y-91.016
X210.81Y-81.68
X211.387Y-84.485
X211.444Y-85.877
X212.43Y-89.057
X213.012Y-85.489
X215.224Y-89.424
X215.732Y-91.456
X215.74Y-84.36
X217.764Y-88.916
X218.468Y-83.701
X219.236Y-84.549
X220.571Y-84.385
X220.93Y-85.75
X223.018Y-84.43
X224.619Y-85.215
X225.703Y-81.777
X228.194Y-83.95
X230.029Y-85.466
X231.255Y-83.922
X233.55Y-83.95
X236.2Y-84.02
T2
X182.972Y-93.488
X182.972Y-95.488
X184.972Y-93.488
X184.972Y-95.488
X186.972Y-93.488
X186.972Y-95.488
X188.972Y-93.488
X188.972Y-95.488
X190.972Y-93.488
X190.972Y-95.488
X192.972Y-93.488
X192.972Y-95.488
X194.972Y-93.488
X194.972Y-95.488
X196.972Y-93.488
X196.972Y-95.488
X198.972Y-93.488
X198.972Y-95.488
X200.972Y-93.488
X200.972Y-95.488
X202.972Y-93.488
X202.972Y-95.488
X204.972Y-93.488
X204.972Y-95.488
X206.972Y-93.488
X206.972Y-95.488
X208.972Y-93.488
X208.972Y-95.488
X210.972Y-93.488
X210.972Y-95.488
X212.972Y-93.488
X212.972Y-95.488
X214.972Y-93.488
X214.972Y-95.488
X216.972Y-93.488
X216.972Y-95.488
X218.972Y-93.488
X218.972Y-95.488
X220.972Y-93.488
X220.972Y-95.488
X222.972Y-93.488
X222.972Y-95.488
X224.972Y-93.488
X224.972Y-95.488
X226.972Y-93.488
X226.972Y-95.488
X228.972Y-93.488
X228.972Y-95.488
X230.972Y-93.488
X230.972Y-95.488
T3
X176.466Y-80.454
X176.466Y-82.995
X179.006Y-80.454
X179.006Y-82.995
X181.546Y-80.454
X181.546Y-82.995
X184.087Y-80.454
X184.087Y-82.995
X186.626Y-80.454
X186.626Y-82.995
X189.166Y-80.454
X189.166Y-82.995
X191.707Y-80.454
X191.707Y-82.995
X194.246Y-80.454
X194.246Y-82.995
X196.786Y-80.454
X196.786Y-82.995
X199.326Y-80.454
X199.326Y-82.995
X201.867Y-80.454
X201.867Y-82.995
X204.406Y-80.454
X204.406Y-82.995
X206.946Y-80.454
X206.946Y-82.995
X209.486Y-80.454
X209.486Y-82.995
X212.026Y-80.454
X212.026Y-82.995
X214.566Y-80.454
X214.566Y-82.995
X217.106Y-80.454
X217.106Y-82.995
X219.647Y-80.454
X219.647Y-82.995
X222.186Y-80.454
X222.186Y-82.995
X224.726Y-80.454
X224.726Y-82.995
X227.266Y-80.454
X227.266Y-82.995
X229.806Y-80.454
X229.806Y-82.995
X232.346Y-80.454
X232.346Y-82.995
X234.886Y-80.454
X234.886Y-82.995
X237.426Y-80.454
X237.426Y-82.995
T4
X190.382Y-87.63
X191.767Y-90.47
X193.152Y-87.63
X194.537Y-90.47
X195.922Y-87.63
X197.307Y-90.47
X198.692Y-87.63
X200.077Y-90.47
X201.462Y-87.63
X202.847Y-90.47
X204.232Y-87.63
X205.617Y-90.47
X207.002Y-87.63
X208.387Y-90.47
X209.772Y-87.63
X211.157Y-90.47
X212.542Y-87.63
X213.927Y-90.47
X215.312Y-87.63
X216.697Y-90.47
X218.082Y-87.63
X219.467Y-90.47
X220.852Y-87.63
X222.237Y-90.47
X223.622Y-87.63
T5
X175.854Y-85.48
X175.854Y-87.98
X175.854Y-90.48
X175.854Y-92.98
T6
X183.482Y-89.05
X230.522Y-89.05
T0
M30
