%FSLAX45Y45*%
G04 Gerber Fmt 4.5, Leading zero omitted, Abs format (unit mm)*
G04 Created by KiCad (PCBNEW (5.1.9-16-g1737927814)-1) date 2021-10-16 21:24:37*
%MOMM*%
%LPD*%
G01*
G04 APERTURE LIST*
%TA.AperFunction,Profile*%
%ADD10C,0.050000*%
%TD*%
%ADD11C,0.200000*%
%ADD12C,0.300000*%
G04 APERTURE END LIST*
D10*
X17800000Y-9849600D02*
X23600000Y-9849600D01*
X17800000Y-9849600D02*
G75*
G02*
X17450000Y-9499600I0J350000D01*
G01*
X23950000Y-9499600D02*
G75*
G02*
X23600000Y-9849600I-350000J0D01*
G01*
X17450000Y-8079800D02*
X17450000Y-9499600D01*
X23950000Y-8079800D02*
X23950000Y-9499600D01*
X17800000Y-7729800D02*
X23600000Y-7729800D01*
X17450000Y-8079800D02*
G75*
G02*
X17800000Y-7729800I350000J0D01*
G01*
X23600000Y-7729800D02*
G75*
G02*
X23950000Y-8079800I0J-350000D01*
G01*
D11*
X17665000Y-9365000D02*
X17935000Y-9635000D01*
X17935000Y-9365000D02*
X17665000Y-9635000D01*
X23465000Y-9365000D02*
X23735000Y-9635000D01*
X23735000Y-9365000D02*
X23465000Y-9635000D01*
D12*
X17733928Y-10317814D02*
X17733928Y-10017814D01*
X17805357Y-10017814D01*
X17848214Y-10032100D01*
X17876786Y-10060672D01*
X17891071Y-10089243D01*
X17905357Y-10146386D01*
X17905357Y-10189243D01*
X17891071Y-10246386D01*
X17876786Y-10274957D01*
X17848214Y-10303529D01*
X17805357Y-10317814D01*
X17733928Y-10317814D01*
X18033928Y-10317814D02*
X18033928Y-10117814D01*
X18033928Y-10174957D02*
X18048214Y-10146386D01*
X18062500Y-10132100D01*
X18091071Y-10117814D01*
X18119643Y-10117814D01*
X18219643Y-10317814D02*
X18219643Y-10117814D01*
X18219643Y-10017814D02*
X18205357Y-10032100D01*
X18219643Y-10046386D01*
X18233928Y-10032100D01*
X18219643Y-10017814D01*
X18219643Y-10046386D01*
X18405357Y-10317814D02*
X18376786Y-10303529D01*
X18362500Y-10274957D01*
X18362500Y-10017814D01*
X18562500Y-10317814D02*
X18533928Y-10303529D01*
X18519643Y-10274957D01*
X18519643Y-10017814D01*
X18905357Y-10317814D02*
X18905357Y-10017814D01*
X19005357Y-10232100D01*
X19105357Y-10017814D01*
X19105357Y-10317814D01*
X19376786Y-10317814D02*
X19376786Y-10160672D01*
X19362500Y-10132100D01*
X19333928Y-10117814D01*
X19276786Y-10117814D01*
X19248214Y-10132100D01*
X19376786Y-10303529D02*
X19348214Y-10317814D01*
X19276786Y-10317814D01*
X19248214Y-10303529D01*
X19233928Y-10274957D01*
X19233928Y-10246386D01*
X19248214Y-10217814D01*
X19276786Y-10203529D01*
X19348214Y-10203529D01*
X19376786Y-10189243D01*
X19519643Y-10117814D02*
X19519643Y-10417814D01*
X19519643Y-10132100D02*
X19548214Y-10117814D01*
X19605357Y-10117814D01*
X19633928Y-10132100D01*
X19648214Y-10146386D01*
X19662500Y-10174957D01*
X19662500Y-10260672D01*
X19648214Y-10289243D01*
X19633928Y-10303529D01*
X19605357Y-10317814D01*
X19548214Y-10317814D01*
X19519643Y-10303529D01*
X19791071Y-10289243D02*
X19805357Y-10303529D01*
X19791071Y-10317814D01*
X19776786Y-10303529D01*
X19791071Y-10289243D01*
X19791071Y-10317814D01*
X19791071Y-10132100D02*
X19805357Y-10146386D01*
X19791071Y-10160672D01*
X19776786Y-10146386D01*
X19791071Y-10132100D01*
X19791071Y-10160672D01*
X17177500Y-10677100D02*
X17447500Y-10947100D01*
X17447500Y-10677100D02*
X17177500Y-10947100D01*
X17719643Y-10676386D02*
X17733928Y-10662100D01*
X17762500Y-10647814D01*
X17833928Y-10647814D01*
X17862500Y-10662100D01*
X17876786Y-10676386D01*
X17891071Y-10704957D01*
X17891071Y-10733529D01*
X17876786Y-10776386D01*
X17705357Y-10947814D01*
X17891071Y-10947814D01*
X18019643Y-10919243D02*
X18033928Y-10933529D01*
X18019643Y-10947814D01*
X18005357Y-10933529D01*
X18019643Y-10919243D01*
X18019643Y-10947814D01*
X18133928Y-10647814D02*
X18333928Y-10647814D01*
X18205357Y-10947814D01*
X18505357Y-10647814D02*
X18533928Y-10647814D01*
X18562500Y-10662100D01*
X18576786Y-10676386D01*
X18591071Y-10704957D01*
X18605357Y-10762100D01*
X18605357Y-10833529D01*
X18591071Y-10890672D01*
X18576786Y-10919243D01*
X18562500Y-10933529D01*
X18533928Y-10947814D01*
X18505357Y-10947814D01*
X18476786Y-10933529D01*
X18462500Y-10919243D01*
X18448214Y-10890672D01*
X18433928Y-10833529D01*
X18433928Y-10762100D01*
X18448214Y-10704957D01*
X18462500Y-10676386D01*
X18476786Y-10662100D01*
X18505357Y-10647814D01*
X18733928Y-10947814D02*
X18733928Y-10747814D01*
X18733928Y-10776386D02*
X18748214Y-10762100D01*
X18776786Y-10747814D01*
X18819643Y-10747814D01*
X18848214Y-10762100D01*
X18862500Y-10790672D01*
X18862500Y-10947814D01*
X18862500Y-10790672D02*
X18876786Y-10762100D01*
X18905357Y-10747814D01*
X18948214Y-10747814D01*
X18976786Y-10762100D01*
X18991071Y-10790672D01*
X18991071Y-10947814D01*
X19133928Y-10947814D02*
X19133928Y-10747814D01*
X19133928Y-10776386D02*
X19148214Y-10762100D01*
X19176786Y-10747814D01*
X19219643Y-10747814D01*
X19248214Y-10762100D01*
X19262500Y-10790672D01*
X19262500Y-10947814D01*
X19262500Y-10790672D02*
X19276786Y-10762100D01*
X19305357Y-10747814D01*
X19348214Y-10747814D01*
X19376786Y-10762100D01*
X19391071Y-10790672D01*
X19391071Y-10947814D01*
X19976786Y-10633529D02*
X19719643Y-11019243D01*
X20362500Y-10647814D02*
X20391071Y-10647814D01*
X20419643Y-10662100D01*
X20433928Y-10676386D01*
X20448214Y-10704957D01*
X20462500Y-10762100D01*
X20462500Y-10833529D01*
X20448214Y-10890672D01*
X20433928Y-10919243D01*
X20419643Y-10933529D01*
X20391071Y-10947814D01*
X20362500Y-10947814D01*
X20333928Y-10933529D01*
X20319643Y-10919243D01*
X20305357Y-10890672D01*
X20291071Y-10833529D01*
X20291071Y-10762100D01*
X20305357Y-10704957D01*
X20319643Y-10676386D01*
X20333928Y-10662100D01*
X20362500Y-10647814D01*
X20591071Y-10919243D02*
X20605357Y-10933529D01*
X20591071Y-10947814D01*
X20576786Y-10933529D01*
X20591071Y-10919243D01*
X20591071Y-10947814D01*
X20891071Y-10947814D02*
X20719643Y-10947814D01*
X20805357Y-10947814D02*
X20805357Y-10647814D01*
X20776786Y-10690672D01*
X20748214Y-10719243D01*
X20719643Y-10733529D01*
X21076786Y-10647814D02*
X21105357Y-10647814D01*
X21133928Y-10662100D01*
X21148214Y-10676386D01*
X21162500Y-10704957D01*
X21176786Y-10762100D01*
X21176786Y-10833529D01*
X21162500Y-10890672D01*
X21148214Y-10919243D01*
X21133928Y-10933529D01*
X21105357Y-10947814D01*
X21076786Y-10947814D01*
X21048214Y-10933529D01*
X21033928Y-10919243D01*
X21019643Y-10890672D01*
X21005357Y-10833529D01*
X21005357Y-10762100D01*
X21019643Y-10704957D01*
X21033928Y-10676386D01*
X21048214Y-10662100D01*
X21076786Y-10647814D01*
X21433928Y-10647814D02*
X21376786Y-10647814D01*
X21348214Y-10662100D01*
X21333928Y-10676386D01*
X21305357Y-10719243D01*
X21291071Y-10776386D01*
X21291071Y-10890672D01*
X21305357Y-10919243D01*
X21319643Y-10933529D01*
X21348214Y-10947814D01*
X21405357Y-10947814D01*
X21433928Y-10933529D01*
X21448214Y-10919243D01*
X21462500Y-10890672D01*
X21462500Y-10819243D01*
X21448214Y-10790672D01*
X21433928Y-10776386D01*
X21405357Y-10762100D01*
X21348214Y-10762100D01*
X21319643Y-10776386D01*
X21305357Y-10790672D01*
X21291071Y-10819243D01*
X21576786Y-10647814D02*
X21576786Y-10704957D01*
X21691071Y-10647814D02*
X21691071Y-10704957D01*
X22133928Y-11062100D02*
X22119643Y-11047814D01*
X22091071Y-11004957D01*
X22076786Y-10976386D01*
X22062500Y-10933529D01*
X22048214Y-10862100D01*
X22048214Y-10804957D01*
X22062500Y-10733529D01*
X22076786Y-10690672D01*
X22091071Y-10662100D01*
X22119643Y-10619243D01*
X22133928Y-10604957D01*
X22233928Y-10676386D02*
X22248214Y-10662100D01*
X22276786Y-10647814D01*
X22348214Y-10647814D01*
X22376786Y-10662100D01*
X22391071Y-10676386D01*
X22405357Y-10704957D01*
X22405357Y-10733529D01*
X22391071Y-10776386D01*
X22219643Y-10947814D01*
X22405357Y-10947814D01*
X22762500Y-10947814D02*
X22762500Y-10647814D01*
X22891071Y-10947814D02*
X22891071Y-10790672D01*
X22876786Y-10762100D01*
X22848214Y-10747814D01*
X22805357Y-10747814D01*
X22776786Y-10762100D01*
X22762500Y-10776386D01*
X23076786Y-10947814D02*
X23048214Y-10933529D01*
X23033928Y-10919243D01*
X23019643Y-10890672D01*
X23019643Y-10804957D01*
X23033928Y-10776386D01*
X23048214Y-10762100D01*
X23076786Y-10747814D01*
X23119643Y-10747814D01*
X23148214Y-10762100D01*
X23162500Y-10776386D01*
X23176786Y-10804957D01*
X23176786Y-10890672D01*
X23162500Y-10919243D01*
X23148214Y-10933529D01*
X23119643Y-10947814D01*
X23076786Y-10947814D01*
X23348214Y-10947814D02*
X23319643Y-10933529D01*
X23305357Y-10904957D01*
X23305357Y-10647814D01*
X23576786Y-10933529D02*
X23548214Y-10947814D01*
X23491071Y-10947814D01*
X23462500Y-10933529D01*
X23448214Y-10904957D01*
X23448214Y-10790672D01*
X23462500Y-10762100D01*
X23491071Y-10747814D01*
X23548214Y-10747814D01*
X23576786Y-10762100D01*
X23591071Y-10790672D01*
X23591071Y-10819243D01*
X23448214Y-10847814D01*
X23705357Y-10933529D02*
X23733928Y-10947814D01*
X23791071Y-10947814D01*
X23819643Y-10933529D01*
X23833928Y-10904957D01*
X23833928Y-10890672D01*
X23819643Y-10862100D01*
X23791071Y-10847814D01*
X23748214Y-10847814D01*
X23719643Y-10833529D01*
X23705357Y-10804957D01*
X23705357Y-10790672D01*
X23719643Y-10762100D01*
X23748214Y-10747814D01*
X23791071Y-10747814D01*
X23819643Y-10762100D01*
X23933928Y-11062100D02*
X23948214Y-11047814D01*
X23976786Y-11004957D01*
X23991071Y-10976386D01*
X24005357Y-10933529D01*
X24019643Y-10862100D01*
X24019643Y-10804957D01*
X24005357Y-10733529D01*
X23991071Y-10690672D01*
X23976786Y-10662100D01*
X23948214Y-10619243D01*
X23933928Y-10604957D01*
X24476786Y-11062100D02*
X24462500Y-11047814D01*
X24433928Y-11004957D01*
X24419643Y-10976386D01*
X24405357Y-10933529D01*
X24391071Y-10862100D01*
X24391071Y-10804957D01*
X24405357Y-10733529D01*
X24419643Y-10690672D01*
X24433928Y-10662100D01*
X24462500Y-10619243D01*
X24476786Y-10604957D01*
X24591071Y-10747814D02*
X24591071Y-10947814D01*
X24591071Y-10776386D02*
X24605357Y-10762100D01*
X24633928Y-10747814D01*
X24676786Y-10747814D01*
X24705357Y-10762100D01*
X24719643Y-10790672D01*
X24719643Y-10947814D01*
X24905357Y-10947814D02*
X24876786Y-10933529D01*
X24862500Y-10919243D01*
X24848214Y-10890672D01*
X24848214Y-10804957D01*
X24862500Y-10776386D01*
X24876786Y-10762100D01*
X24905357Y-10747814D01*
X24948214Y-10747814D01*
X24976786Y-10762100D01*
X24991071Y-10776386D01*
X25005357Y-10804957D01*
X25005357Y-10890672D01*
X24991071Y-10919243D01*
X24976786Y-10933529D01*
X24948214Y-10947814D01*
X24905357Y-10947814D01*
X25091071Y-10747814D02*
X25205357Y-10747814D01*
X25133928Y-10647814D02*
X25133928Y-10904957D01*
X25148214Y-10933529D01*
X25176786Y-10947814D01*
X25205357Y-10947814D01*
X25533928Y-10747814D02*
X25533928Y-11047814D01*
X25533928Y-10762100D02*
X25562500Y-10747814D01*
X25619643Y-10747814D01*
X25648214Y-10762100D01*
X25662500Y-10776386D01*
X25676786Y-10804957D01*
X25676786Y-10890672D01*
X25662500Y-10919243D01*
X25648214Y-10933529D01*
X25619643Y-10947814D01*
X25562500Y-10947814D01*
X25533928Y-10933529D01*
X25848214Y-10947814D02*
X25819643Y-10933529D01*
X25805357Y-10904957D01*
X25805357Y-10647814D01*
X26091071Y-10947814D02*
X26091071Y-10790672D01*
X26076786Y-10762100D01*
X26048214Y-10747814D01*
X25991071Y-10747814D01*
X25962500Y-10762100D01*
X26091071Y-10933529D02*
X26062500Y-10947814D01*
X25991071Y-10947814D01*
X25962500Y-10933529D01*
X25948214Y-10904957D01*
X25948214Y-10876386D01*
X25962500Y-10847814D01*
X25991071Y-10833529D01*
X26062500Y-10833529D01*
X26091071Y-10819243D01*
X26191071Y-10747814D02*
X26305357Y-10747814D01*
X26233928Y-10647814D02*
X26233928Y-10904957D01*
X26248214Y-10933529D01*
X26276786Y-10947814D01*
X26305357Y-10947814D01*
X26519643Y-10933529D02*
X26491071Y-10947814D01*
X26433928Y-10947814D01*
X26405357Y-10933529D01*
X26391071Y-10904957D01*
X26391071Y-10790672D01*
X26405357Y-10762100D01*
X26433928Y-10747814D01*
X26491071Y-10747814D01*
X26519643Y-10762100D01*
X26533928Y-10790672D01*
X26533928Y-10819243D01*
X26391071Y-10847814D01*
X26791071Y-10947814D02*
X26791071Y-10647814D01*
X26791071Y-10933529D02*
X26762500Y-10947814D01*
X26705357Y-10947814D01*
X26676786Y-10933529D01*
X26662500Y-10919243D01*
X26648214Y-10890672D01*
X26648214Y-10804957D01*
X26662500Y-10776386D01*
X26676786Y-10762100D01*
X26705357Y-10747814D01*
X26762500Y-10747814D01*
X26791071Y-10762100D01*
X26905357Y-11062100D02*
X26919643Y-11047814D01*
X26948214Y-11004957D01*
X26962500Y-10976386D01*
X26976786Y-10933529D01*
X26991071Y-10862100D01*
X26991071Y-10804957D01*
X26976786Y-10733529D01*
X26962500Y-10690672D01*
X26948214Y-10662100D01*
X26919643Y-10619243D01*
X26905357Y-10604957D01*
M02*
