%TF.GenerationSoftware,KiCad,Pcbnew,(5.1.9-16-g1737927814)-1*%
%TF.CreationDate,2021-07-31T16:14:36-05:00*%
%TF.ProjectId,rascsi_2p5,72617363-7369-45f3-9270-352e6b696361,rev?*%
%TF.SameCoordinates,PX59d60c0PY325aa00*%
%TF.FileFunction,Legend,Bot*%
%TF.FilePolarity,Positive*%
%FSLAX46Y46*%
G04 Gerber Fmt 4.6, Leading zero omitted, Abs format (unit mm)*
G04 Created by KiCad (PCBNEW (5.1.9-16-g1737927814)-1) date 2021-07-31 16:14:36*
%MOMM*%
%LPD*%
G01*
G04 APERTURE LIST*
%ADD10C,0.150000*%
%ADD11C,0.120000*%
%ADD12C,0.300000*%
%ADD13C,0.230000*%
%ADD14C,0.400000*%
%TA.AperFunction,Profile*%
%ADD15C,0.050000*%
%TD*%
G04 APERTURE END LIST*
D10*
X110965428Y-14837142D02*
X110355904Y-14837142D01*
X110660666Y-15141904D02*
X110660666Y-14532380D01*
X109555904Y-15141904D02*
X110013047Y-15141904D01*
X109784476Y-15141904D02*
X109784476Y-14341904D01*
X109860666Y-14456190D01*
X109936857Y-14532380D01*
X110013047Y-14570476D01*
X109251142Y-14418095D02*
X109213047Y-14380000D01*
X109136857Y-14341904D01*
X108946380Y-14341904D01*
X108870190Y-14380000D01*
X108832095Y-14418095D01*
X108794000Y-14494285D01*
X108794000Y-14570476D01*
X108832095Y-14684761D01*
X109289238Y-15141904D01*
X108794000Y-15141904D01*
X108527333Y-14608571D02*
X108336857Y-15141904D01*
X108146380Y-14608571D01*
X109949523Y-16920000D02*
X110025714Y-16881904D01*
X110140000Y-16881904D01*
X110254285Y-16920000D01*
X110330476Y-16996190D01*
X110368571Y-17072380D01*
X110406666Y-17224761D01*
X110406666Y-17339047D01*
X110368571Y-17491428D01*
X110330476Y-17567619D01*
X110254285Y-17643809D01*
X110140000Y-17681904D01*
X110063809Y-17681904D01*
X109949523Y-17643809D01*
X109911428Y-17605714D01*
X109911428Y-17339047D01*
X110063809Y-17339047D01*
X109568571Y-17681904D02*
X109568571Y-16881904D01*
X109111428Y-17681904D01*
X109111428Y-16881904D01*
X108730476Y-17681904D02*
X108730476Y-16881904D01*
X108540000Y-16881904D01*
X108425714Y-16920000D01*
X108349523Y-16996190D01*
X108311428Y-17072380D01*
X108273333Y-17224761D01*
X108273333Y-17339047D01*
X108311428Y-17491428D01*
X108349523Y-17567619D01*
X108425714Y-17643809D01*
X108540000Y-17681904D01*
X108730476Y-17681904D01*
X109949523Y-19460000D02*
X110025714Y-19421904D01*
X110140000Y-19421904D01*
X110254285Y-19460000D01*
X110330476Y-19536190D01*
X110368571Y-19612380D01*
X110406666Y-19764761D01*
X110406666Y-19879047D01*
X110368571Y-20031428D01*
X110330476Y-20107619D01*
X110254285Y-20183809D01*
X110140000Y-20221904D01*
X110063809Y-20221904D01*
X109949523Y-20183809D01*
X109911428Y-20145714D01*
X109911428Y-19879047D01*
X110063809Y-19879047D01*
X109568571Y-20221904D02*
X109568571Y-19421904D01*
X109111428Y-20221904D01*
X109111428Y-19421904D01*
X108730476Y-20221904D02*
X108730476Y-19421904D01*
X108540000Y-19421904D01*
X108425714Y-19460000D01*
X108349523Y-19536190D01*
X108311428Y-19612380D01*
X108273333Y-19764761D01*
X108273333Y-19879047D01*
X108311428Y-20031428D01*
X108349523Y-20107619D01*
X108425714Y-20183809D01*
X108540000Y-20221904D01*
X108730476Y-20221904D01*
X109200285Y-21961904D02*
X109581238Y-21961904D01*
X109619333Y-22342857D01*
X109581238Y-22304761D01*
X109505047Y-22266666D01*
X109314571Y-22266666D01*
X109238380Y-22304761D01*
X109200285Y-22342857D01*
X109162190Y-22419047D01*
X109162190Y-22609523D01*
X109200285Y-22685714D01*
X109238380Y-22723809D01*
X109314571Y-22761904D01*
X109505047Y-22761904D01*
X109581238Y-22723809D01*
X109619333Y-22685714D01*
X108895523Y-22228571D02*
X108705047Y-22761904D01*
X108514571Y-22228571D01*
X103273857Y-15618571D02*
X103311952Y-15732857D01*
X103350047Y-15770952D01*
X103426238Y-15809047D01*
X103540523Y-15809047D01*
X103616714Y-15770952D01*
X103654809Y-15732857D01*
X103692904Y-15656666D01*
X103692904Y-15351904D01*
X102892904Y-15351904D01*
X102892904Y-15618571D01*
X102931000Y-15694761D01*
X102969095Y-15732857D01*
X103045285Y-15770952D01*
X103121476Y-15770952D01*
X103197666Y-15732857D01*
X103235761Y-15694761D01*
X103273857Y-15618571D01*
X103273857Y-15351904D01*
X103273857Y-16151904D02*
X103273857Y-16418571D01*
X103692904Y-16532857D02*
X103692904Y-16151904D01*
X102892904Y-16151904D01*
X102892904Y-16532857D01*
X103692904Y-17332857D02*
X103311952Y-17066190D01*
X103692904Y-16875714D02*
X102892904Y-16875714D01*
X102892904Y-17180476D01*
X102931000Y-17256666D01*
X102969095Y-17294761D01*
X103045285Y-17332857D01*
X103159571Y-17332857D01*
X103235761Y-17294761D01*
X103273857Y-17256666D01*
X103311952Y-17180476D01*
X103311952Y-16875714D01*
X102931000Y-18094761D02*
X102892904Y-18018571D01*
X102892904Y-17904285D01*
X102931000Y-17790000D01*
X103007190Y-17713809D01*
X103083380Y-17675714D01*
X103235761Y-17637619D01*
X103350047Y-17637619D01*
X103502428Y-17675714D01*
X103578619Y-17713809D01*
X103654809Y-17790000D01*
X103692904Y-17904285D01*
X103692904Y-17980476D01*
X103654809Y-18094761D01*
X103616714Y-18132857D01*
X103350047Y-18132857D01*
X103350047Y-17980476D01*
X103692904Y-19085238D02*
X102892904Y-19085238D01*
X102892904Y-19390000D01*
X102931000Y-19466190D01*
X102969095Y-19504285D01*
X103045285Y-19542380D01*
X103159571Y-19542380D01*
X103235761Y-19504285D01*
X103273857Y-19466190D01*
X103311952Y-19390000D01*
X103311952Y-19085238D01*
X102892904Y-19809047D02*
X103692904Y-19999523D01*
X103121476Y-20151904D01*
X103692904Y-20304285D01*
X102892904Y-20494761D01*
X103692904Y-21256666D02*
X103311952Y-20990000D01*
X103692904Y-20799523D02*
X102892904Y-20799523D01*
X102892904Y-21104285D01*
X102931000Y-21180476D01*
X102969095Y-21218571D01*
X103045285Y-21256666D01*
X103159571Y-21256666D01*
X103235761Y-21218571D01*
X103273857Y-21180476D01*
X103311952Y-21104285D01*
X103311952Y-20799523D01*
X104966714Y-15694761D02*
X105004809Y-15656666D01*
X105042904Y-15542380D01*
X105042904Y-15466190D01*
X105004809Y-15351904D01*
X104928619Y-15275714D01*
X104852428Y-15237619D01*
X104700047Y-15199523D01*
X104585761Y-15199523D01*
X104433380Y-15237619D01*
X104357190Y-15275714D01*
X104281000Y-15351904D01*
X104242904Y-15466190D01*
X104242904Y-15542380D01*
X104281000Y-15656666D01*
X104319095Y-15694761D01*
X104242904Y-16190000D02*
X104242904Y-16342380D01*
X104281000Y-16418571D01*
X104357190Y-16494761D01*
X104509571Y-16532857D01*
X104776238Y-16532857D01*
X104928619Y-16494761D01*
X105004809Y-16418571D01*
X105042904Y-16342380D01*
X105042904Y-16190000D01*
X105004809Y-16113809D01*
X104928619Y-16037619D01*
X104776238Y-15999523D01*
X104509571Y-15999523D01*
X104357190Y-16037619D01*
X104281000Y-16113809D01*
X104242904Y-16190000D01*
X105042904Y-16875714D02*
X104242904Y-16875714D01*
X105042904Y-17332857D01*
X104242904Y-17332857D01*
X105042904Y-17713809D02*
X104242904Y-17713809D01*
X105042904Y-18170952D01*
X104242904Y-18170952D01*
X104623857Y-18551904D02*
X104623857Y-18818571D01*
X105042904Y-18932857D02*
X105042904Y-18551904D01*
X104242904Y-18551904D01*
X104242904Y-18932857D01*
X104966714Y-19732857D02*
X105004809Y-19694761D01*
X105042904Y-19580476D01*
X105042904Y-19504285D01*
X105004809Y-19390000D01*
X104928619Y-19313809D01*
X104852428Y-19275714D01*
X104700047Y-19237619D01*
X104585761Y-19237619D01*
X104433380Y-19275714D01*
X104357190Y-19313809D01*
X104281000Y-19390000D01*
X104242904Y-19504285D01*
X104242904Y-19580476D01*
X104281000Y-19694761D01*
X104319095Y-19732857D01*
X104242904Y-19961428D02*
X104242904Y-20418571D01*
X105042904Y-20190000D02*
X104242904Y-20190000D01*
X104242904Y-20837619D02*
X104242904Y-20990000D01*
X104281000Y-21066190D01*
X104357190Y-21142380D01*
X104509571Y-21180476D01*
X104776238Y-21180476D01*
X104928619Y-21142380D01*
X105004809Y-21066190D01*
X105042904Y-20990000D01*
X105042904Y-20837619D01*
X105004809Y-20761428D01*
X104928619Y-20685238D01*
X104776238Y-20647142D01*
X104509571Y-20647142D01*
X104357190Y-20685238D01*
X104281000Y-20761428D01*
X104242904Y-20837619D01*
X105042904Y-21980476D02*
X104661952Y-21713809D01*
X105042904Y-21523333D02*
X104242904Y-21523333D01*
X104242904Y-21828095D01*
X104281000Y-21904285D01*
X104319095Y-21942380D01*
X104395285Y-21980476D01*
X104509571Y-21980476D01*
X104585761Y-21942380D01*
X104623857Y-21904285D01*
X104661952Y-21828095D01*
X104661952Y-21523333D01*
X137882952Y-22850857D02*
X137616285Y-22850857D01*
X137502000Y-23269904D02*
X137882952Y-23269904D01*
X137882952Y-22469904D01*
X137502000Y-22469904D01*
X137159142Y-23269904D02*
X137159142Y-22469904D01*
X136702000Y-23269904D01*
X136702000Y-22469904D01*
X136054380Y-22850857D02*
X135940095Y-22888952D01*
X135902000Y-22927047D01*
X135863904Y-23003238D01*
X135863904Y-23117523D01*
X135902000Y-23193714D01*
X135940095Y-23231809D01*
X136016285Y-23269904D01*
X136321047Y-23269904D01*
X136321047Y-22469904D01*
X136054380Y-22469904D01*
X135978190Y-22508000D01*
X135940095Y-22546095D01*
X135902000Y-22622285D01*
X135902000Y-22698476D01*
X135940095Y-22774666D01*
X135978190Y-22812761D01*
X136054380Y-22850857D01*
X136321047Y-22850857D01*
X134530571Y-23269904D02*
X134911523Y-23269904D01*
X134911523Y-22469904D01*
X134263904Y-22850857D02*
X133997238Y-22850857D01*
X133882952Y-23269904D02*
X134263904Y-23269904D01*
X134263904Y-22469904D01*
X133882952Y-22469904D01*
X133540095Y-23269904D02*
X133540095Y-22469904D01*
X133349619Y-22469904D01*
X133235333Y-22508000D01*
X133159142Y-22584190D01*
X133121047Y-22660380D01*
X133082952Y-22812761D01*
X133082952Y-22927047D01*
X133121047Y-23079428D01*
X133159142Y-23155619D01*
X133235333Y-23231809D01*
X133349619Y-23269904D01*
X133540095Y-23269904D01*
X137295523Y-20142500D02*
X137371714Y-20104404D01*
X137486000Y-20104404D01*
X137600285Y-20142500D01*
X137676476Y-20218690D01*
X137714571Y-20294880D01*
X137752666Y-20447261D01*
X137752666Y-20561547D01*
X137714571Y-20713928D01*
X137676476Y-20790119D01*
X137600285Y-20866309D01*
X137486000Y-20904404D01*
X137409809Y-20904404D01*
X137295523Y-20866309D01*
X137257428Y-20828214D01*
X137257428Y-20561547D01*
X137409809Y-20561547D01*
X136914571Y-20904404D02*
X136914571Y-20104404D01*
X136457428Y-20904404D01*
X136457428Y-20104404D01*
X136076476Y-20904404D02*
X136076476Y-20104404D01*
X135886000Y-20104404D01*
X135771714Y-20142500D01*
X135695523Y-20218690D01*
X135657428Y-20294880D01*
X135619333Y-20447261D01*
X135619333Y-20561547D01*
X135657428Y-20713928D01*
X135695523Y-20790119D01*
X135771714Y-20866309D01*
X135886000Y-20904404D01*
X136076476Y-20904404D01*
X141558380Y-32512476D02*
X142272666Y-32512476D01*
X142415523Y-32464857D01*
X142510761Y-32369619D01*
X142558380Y-32226761D01*
X142558380Y-32131523D01*
X142558380Y-33512476D02*
X142558380Y-32941047D01*
X142558380Y-33226761D02*
X141558380Y-33226761D01*
X141701238Y-33131523D01*
X141796476Y-33036285D01*
X141844095Y-32941047D01*
X141558380Y-34131523D02*
X141558380Y-34226761D01*
X141606000Y-34322000D01*
X141653619Y-34369619D01*
X141748857Y-34417238D01*
X141939333Y-34464857D01*
X142177428Y-34464857D01*
X142367904Y-34417238D01*
X142463142Y-34369619D01*
X142510761Y-34322000D01*
X142558380Y-34226761D01*
X142558380Y-34131523D01*
X142510761Y-34036285D01*
X142463142Y-33988666D01*
X142367904Y-33941047D01*
X142177428Y-33893428D01*
X141939333Y-33893428D01*
X141748857Y-33941047D01*
X141653619Y-33988666D01*
X141606000Y-34036285D01*
X141558380Y-34131523D01*
X132533333Y-38362380D02*
X132533333Y-39076666D01*
X132580952Y-39219523D01*
X132676190Y-39314761D01*
X132819047Y-39362380D01*
X132914285Y-39362380D01*
X132009523Y-39362380D02*
X131819047Y-39362380D01*
X131723809Y-39314761D01*
X131676190Y-39267142D01*
X131580952Y-39124285D01*
X131533333Y-38933809D01*
X131533333Y-38552857D01*
X131580952Y-38457619D01*
X131628571Y-38410000D01*
X131723809Y-38362380D01*
X131914285Y-38362380D01*
X132009523Y-38410000D01*
X132057142Y-38457619D01*
X132104761Y-38552857D01*
X132104761Y-38790952D01*
X132057142Y-38886190D01*
X132009523Y-38933809D01*
X131914285Y-38981428D01*
X131723809Y-38981428D01*
X131628571Y-38933809D01*
X131580952Y-38886190D01*
X131533333Y-38790952D01*
D11*
X109594000Y-41704000D02*
X109594000Y-39672000D01*
X111880000Y-41704000D02*
X109594000Y-41704000D01*
X111880000Y-39672000D02*
X111880000Y-41704000D01*
X109594000Y-39672000D02*
X111880000Y-39672000D01*
X109848000Y-41450000D02*
X109848000Y-39926000D01*
X111626000Y-41450000D02*
X109848000Y-41450000D01*
X111626000Y-39926000D02*
X111626000Y-41450000D01*
X109848000Y-39926000D02*
X111626000Y-39926000D01*
X127628000Y-39418000D02*
X129914000Y-39418000D01*
X127628000Y-43990000D02*
X127628000Y-39418000D01*
X129914000Y-43990000D02*
X127628000Y-43990000D01*
X129914000Y-39418000D02*
X129914000Y-43990000D01*
X127882000Y-43736000D02*
X127882000Y-39672000D01*
X129660000Y-43736000D02*
X127882000Y-43736000D01*
X129660000Y-39672000D02*
X129660000Y-43736000D01*
X127882000Y-39672000D02*
X129660000Y-39672000D01*
D10*
X103650285Y-39297333D02*
X103269333Y-39297333D01*
X103726476Y-39525904D02*
X103459809Y-38725904D01*
X103193142Y-39525904D01*
X103040761Y-38725904D02*
X102583619Y-38725904D01*
X102812190Y-39525904D02*
X102812190Y-38725904D01*
X102316952Y-39525904D02*
X102316952Y-38725904D01*
X101859809Y-39525904D01*
X101859809Y-38725904D01*
X99110095Y-39525904D02*
X99376761Y-39144952D01*
X99567238Y-39525904D02*
X99567238Y-38725904D01*
X99262476Y-38725904D01*
X99186285Y-38764000D01*
X99148190Y-38802095D01*
X99110095Y-38878285D01*
X99110095Y-38992571D01*
X99148190Y-39068761D01*
X99186285Y-39106857D01*
X99262476Y-39144952D01*
X99567238Y-39144952D01*
X98805333Y-39487809D02*
X98691047Y-39525904D01*
X98500571Y-39525904D01*
X98424380Y-39487809D01*
X98386285Y-39449714D01*
X98348190Y-39373523D01*
X98348190Y-39297333D01*
X98386285Y-39221142D01*
X98424380Y-39183047D01*
X98500571Y-39144952D01*
X98652952Y-39106857D01*
X98729142Y-39068761D01*
X98767238Y-39030666D01*
X98805333Y-38954476D01*
X98805333Y-38878285D01*
X98767238Y-38802095D01*
X98729142Y-38764000D01*
X98652952Y-38725904D01*
X98462476Y-38725904D01*
X98348190Y-38764000D01*
X98119619Y-38725904D02*
X97662476Y-38725904D01*
X97891047Y-39525904D02*
X97891047Y-38725904D01*
X95281047Y-39525904D02*
X95281047Y-38725904D01*
X94747714Y-38725904D02*
X94595333Y-38725904D01*
X94519142Y-38764000D01*
X94442952Y-38840190D01*
X94404857Y-38992571D01*
X94404857Y-39259238D01*
X94442952Y-39411619D01*
X94519142Y-39487809D01*
X94595333Y-39525904D01*
X94747714Y-39525904D01*
X94823904Y-39487809D01*
X94900095Y-39411619D01*
X94938190Y-39259238D01*
X94938190Y-38992571D01*
X94900095Y-38840190D01*
X94823904Y-38764000D01*
X94747714Y-38725904D01*
X87610285Y-38979904D02*
X87991238Y-38979904D01*
X88029333Y-39360857D01*
X87991238Y-39322761D01*
X87915047Y-39284666D01*
X87724571Y-39284666D01*
X87648380Y-39322761D01*
X87610285Y-39360857D01*
X87572190Y-39437047D01*
X87572190Y-39627523D01*
X87610285Y-39703714D01*
X87648380Y-39741809D01*
X87724571Y-39779904D01*
X87915047Y-39779904D01*
X87991238Y-39741809D01*
X88029333Y-39703714D01*
X87305523Y-39246571D02*
X87115047Y-39779904D01*
X86924571Y-39246571D01*
X126726285Y-38725904D02*
X127107238Y-38725904D01*
X127145333Y-39106857D01*
X127107238Y-39068761D01*
X127031047Y-39030666D01*
X126840571Y-39030666D01*
X126764380Y-39068761D01*
X126726285Y-39106857D01*
X126688190Y-39183047D01*
X126688190Y-39373523D01*
X126726285Y-39449714D01*
X126764380Y-39487809D01*
X126840571Y-39525904D01*
X127031047Y-39525904D01*
X127107238Y-39487809D01*
X127145333Y-39449714D01*
X126421523Y-38992571D02*
X126231047Y-39525904D01*
X126040571Y-38992571D01*
X131190285Y-44859904D02*
X131571238Y-44859904D01*
X131571238Y-44059904D01*
X130923619Y-44440857D02*
X130656952Y-44440857D01*
X130542666Y-44859904D02*
X130923619Y-44859904D01*
X130923619Y-44059904D01*
X130542666Y-44059904D01*
X130199809Y-44859904D02*
X130199809Y-44059904D01*
X130009333Y-44059904D01*
X129895047Y-44098000D01*
X129818857Y-44174190D01*
X129780761Y-44250380D01*
X129742666Y-44402761D01*
X129742666Y-44517047D01*
X129780761Y-44669428D01*
X129818857Y-44745619D01*
X129895047Y-44821809D01*
X130009333Y-44859904D01*
X130199809Y-44859904D01*
X126980285Y-44059904D02*
X127361238Y-44059904D01*
X127399333Y-44440857D01*
X127361238Y-44402761D01*
X127285047Y-44364666D01*
X127094571Y-44364666D01*
X127018380Y-44402761D01*
X126980285Y-44440857D01*
X126942190Y-44517047D01*
X126942190Y-44707523D01*
X126980285Y-44783714D01*
X127018380Y-44821809D01*
X127094571Y-44859904D01*
X127285047Y-44859904D01*
X127361238Y-44821809D01*
X127399333Y-44783714D01*
X126675523Y-44326571D02*
X126485047Y-44859904D01*
X126294571Y-44326571D01*
X88880285Y-44059904D02*
X89261238Y-44059904D01*
X89299333Y-44440857D01*
X89261238Y-44402761D01*
X89185047Y-44364666D01*
X88994571Y-44364666D01*
X88918380Y-44402761D01*
X88880285Y-44440857D01*
X88842190Y-44517047D01*
X88842190Y-44707523D01*
X88880285Y-44783714D01*
X88918380Y-44821809D01*
X88994571Y-44859904D01*
X89185047Y-44859904D01*
X89261238Y-44821809D01*
X89299333Y-44783714D01*
X88575523Y-44326571D02*
X88385047Y-44859904D01*
X88194571Y-44326571D01*
X93001428Y-44859904D02*
X93268095Y-44478952D01*
X93458571Y-44859904D02*
X93458571Y-44059904D01*
X93153809Y-44059904D01*
X93077619Y-44098000D01*
X93039523Y-44136095D01*
X93001428Y-44212285D01*
X93001428Y-44326571D01*
X93039523Y-44402761D01*
X93077619Y-44440857D01*
X93153809Y-44478952D01*
X93458571Y-44478952D01*
X92125238Y-44936095D02*
X92201428Y-44898000D01*
X92277619Y-44821809D01*
X92391904Y-44707523D01*
X92468095Y-44669428D01*
X92544285Y-44669428D01*
X92506190Y-44859904D02*
X92582380Y-44821809D01*
X92658571Y-44745619D01*
X92696666Y-44593238D01*
X92696666Y-44326571D01*
X92658571Y-44174190D01*
X92582380Y-44098000D01*
X92506190Y-44059904D01*
X92353809Y-44059904D01*
X92277619Y-44098000D01*
X92201428Y-44174190D01*
X92163333Y-44326571D01*
X92163333Y-44593238D01*
X92201428Y-44745619D01*
X92277619Y-44821809D01*
X92353809Y-44859904D01*
X92506190Y-44859904D01*
X94760380Y-44783714D02*
X94798476Y-44821809D01*
X94912761Y-44859904D01*
X94988952Y-44859904D01*
X95103238Y-44821809D01*
X95179428Y-44745619D01*
X95217523Y-44669428D01*
X95255619Y-44517047D01*
X95255619Y-44402761D01*
X95217523Y-44250380D01*
X95179428Y-44174190D01*
X95103238Y-44098000D01*
X94988952Y-44059904D01*
X94912761Y-44059904D01*
X94798476Y-44098000D01*
X94760380Y-44136095D01*
X94417523Y-44859904D02*
X94417523Y-44059904D01*
X94227047Y-44059904D01*
X94112761Y-44098000D01*
X94036571Y-44174190D01*
X93998476Y-44250380D01*
X93960380Y-44402761D01*
X93960380Y-44517047D01*
X93998476Y-44669428D01*
X94036571Y-44745619D01*
X94112761Y-44821809D01*
X94227047Y-44859904D01*
X94417523Y-44859904D01*
X97192380Y-44821809D02*
X97078095Y-44859904D01*
X96887619Y-44859904D01*
X96811428Y-44821809D01*
X96773333Y-44783714D01*
X96735238Y-44707523D01*
X96735238Y-44631333D01*
X96773333Y-44555142D01*
X96811428Y-44517047D01*
X96887619Y-44478952D01*
X97040000Y-44440857D01*
X97116190Y-44402761D01*
X97154285Y-44364666D01*
X97192380Y-44288476D01*
X97192380Y-44212285D01*
X97154285Y-44136095D01*
X97116190Y-44098000D01*
X97040000Y-44059904D01*
X96849523Y-44059904D01*
X96735238Y-44098000D01*
X96011428Y-44859904D02*
X96392380Y-44859904D01*
X96392380Y-44059904D01*
X99338666Y-44859904D02*
X99338666Y-44059904D01*
X99072000Y-44631333D01*
X98805333Y-44059904D01*
X98805333Y-44859904D01*
X98005333Y-44098000D02*
X98081523Y-44059904D01*
X98195809Y-44059904D01*
X98310095Y-44098000D01*
X98386285Y-44174190D01*
X98424380Y-44250380D01*
X98462476Y-44402761D01*
X98462476Y-44517047D01*
X98424380Y-44669428D01*
X98386285Y-44745619D01*
X98310095Y-44821809D01*
X98195809Y-44859904D01*
X98119619Y-44859904D01*
X98005333Y-44821809D01*
X97967238Y-44783714D01*
X97967238Y-44517047D01*
X98119619Y-44517047D01*
X101294476Y-44631333D02*
X100913523Y-44631333D01*
X101370666Y-44859904D02*
X101104000Y-44059904D01*
X100837333Y-44859904D01*
X100570666Y-44859904D02*
X100570666Y-44059904D01*
X100113523Y-44859904D02*
X100456380Y-44402761D01*
X100113523Y-44059904D02*
X100570666Y-44517047D01*
X103021714Y-44440857D02*
X102907428Y-44478952D01*
X102869333Y-44517047D01*
X102831238Y-44593238D01*
X102831238Y-44707523D01*
X102869333Y-44783714D01*
X102907428Y-44821809D01*
X102983619Y-44859904D01*
X103288380Y-44859904D01*
X103288380Y-44059904D01*
X103021714Y-44059904D01*
X102945523Y-44098000D01*
X102907428Y-44136095D01*
X102869333Y-44212285D01*
X102869333Y-44288476D01*
X102907428Y-44364666D01*
X102945523Y-44402761D01*
X103021714Y-44440857D01*
X103288380Y-44440857D01*
X102336000Y-44478952D02*
X102336000Y-44859904D01*
X102602666Y-44059904D02*
X102336000Y-44478952D01*
X102069333Y-44059904D01*
X123138476Y-44859904D02*
X123138476Y-44059904D01*
X122948000Y-44059904D01*
X122833714Y-44098000D01*
X122757523Y-44174190D01*
X122719428Y-44250380D01*
X122681333Y-44402761D01*
X122681333Y-44517047D01*
X122719428Y-44669428D01*
X122757523Y-44745619D01*
X122833714Y-44821809D01*
X122948000Y-44859904D01*
X123138476Y-44859904D01*
X122186095Y-44059904D02*
X122109904Y-44059904D01*
X122033714Y-44098000D01*
X121995619Y-44136095D01*
X121957523Y-44212285D01*
X121919428Y-44364666D01*
X121919428Y-44555142D01*
X121957523Y-44707523D01*
X121995619Y-44783714D01*
X122033714Y-44821809D01*
X122109904Y-44859904D01*
X122186095Y-44859904D01*
X122262285Y-44821809D01*
X122300380Y-44783714D01*
X122338476Y-44707523D01*
X122376571Y-44555142D01*
X122376571Y-44364666D01*
X122338476Y-44212285D01*
X122300380Y-44136095D01*
X122262285Y-44098000D01*
X122186095Y-44059904D01*
X121360476Y-44859904D02*
X121360476Y-44059904D01*
X121170000Y-44059904D01*
X121055714Y-44098000D01*
X120979523Y-44174190D01*
X120941428Y-44250380D01*
X120903333Y-44402761D01*
X120903333Y-44517047D01*
X120941428Y-44669428D01*
X120979523Y-44745619D01*
X121055714Y-44821809D01*
X121170000Y-44859904D01*
X121360476Y-44859904D01*
X120141428Y-44859904D02*
X120598571Y-44859904D01*
X120370000Y-44859904D02*
X120370000Y-44059904D01*
X120446190Y-44174190D01*
X120522380Y-44250380D01*
X120598571Y-44288476D01*
X119328476Y-44859904D02*
X119328476Y-44059904D01*
X119138000Y-44059904D01*
X119023714Y-44098000D01*
X118947523Y-44174190D01*
X118909428Y-44250380D01*
X118871333Y-44402761D01*
X118871333Y-44517047D01*
X118909428Y-44669428D01*
X118947523Y-44745619D01*
X119023714Y-44821809D01*
X119138000Y-44859904D01*
X119328476Y-44859904D01*
X118566571Y-44136095D02*
X118528476Y-44098000D01*
X118452285Y-44059904D01*
X118261809Y-44059904D01*
X118185619Y-44098000D01*
X118147523Y-44136095D01*
X118109428Y-44212285D01*
X118109428Y-44288476D01*
X118147523Y-44402761D01*
X118604666Y-44859904D01*
X118109428Y-44859904D01*
X117296476Y-44859904D02*
X117296476Y-44059904D01*
X117106000Y-44059904D01*
X116991714Y-44098000D01*
X116915523Y-44174190D01*
X116877428Y-44250380D01*
X116839333Y-44402761D01*
X116839333Y-44517047D01*
X116877428Y-44669428D01*
X116915523Y-44745619D01*
X116991714Y-44821809D01*
X117106000Y-44859904D01*
X117296476Y-44859904D01*
X116572666Y-44059904D02*
X116077428Y-44059904D01*
X116344095Y-44364666D01*
X116229809Y-44364666D01*
X116153619Y-44402761D01*
X116115523Y-44440857D01*
X116077428Y-44517047D01*
X116077428Y-44707523D01*
X116115523Y-44783714D01*
X116153619Y-44821809D01*
X116229809Y-44859904D01*
X116458380Y-44859904D01*
X116534571Y-44821809D01*
X116572666Y-44783714D01*
X115264476Y-44859904D02*
X115264476Y-44059904D01*
X115074000Y-44059904D01*
X114959714Y-44098000D01*
X114883523Y-44174190D01*
X114845428Y-44250380D01*
X114807333Y-44402761D01*
X114807333Y-44517047D01*
X114845428Y-44669428D01*
X114883523Y-44745619D01*
X114959714Y-44821809D01*
X115074000Y-44859904D01*
X115264476Y-44859904D01*
X114121619Y-44326571D02*
X114121619Y-44859904D01*
X114312095Y-44021809D02*
X114502571Y-44593238D01*
X114007333Y-44593238D01*
X113232476Y-44859904D02*
X113232476Y-44059904D01*
X113042000Y-44059904D01*
X112927714Y-44098000D01*
X112851523Y-44174190D01*
X112813428Y-44250380D01*
X112775333Y-44402761D01*
X112775333Y-44517047D01*
X112813428Y-44669428D01*
X112851523Y-44745619D01*
X112927714Y-44821809D01*
X113042000Y-44859904D01*
X113232476Y-44859904D01*
X112051523Y-44059904D02*
X112432476Y-44059904D01*
X112470571Y-44440857D01*
X112432476Y-44402761D01*
X112356285Y-44364666D01*
X112165809Y-44364666D01*
X112089619Y-44402761D01*
X112051523Y-44440857D01*
X112013428Y-44517047D01*
X112013428Y-44707523D01*
X112051523Y-44783714D01*
X112089619Y-44821809D01*
X112165809Y-44859904D01*
X112356285Y-44859904D01*
X112432476Y-44821809D01*
X112470571Y-44783714D01*
X111200476Y-44859904D02*
X111200476Y-44059904D01*
X111010000Y-44059904D01*
X110895714Y-44098000D01*
X110819523Y-44174190D01*
X110781428Y-44250380D01*
X110743333Y-44402761D01*
X110743333Y-44517047D01*
X110781428Y-44669428D01*
X110819523Y-44745619D01*
X110895714Y-44821809D01*
X111010000Y-44859904D01*
X111200476Y-44859904D01*
X110057619Y-44059904D02*
X110210000Y-44059904D01*
X110286190Y-44098000D01*
X110324285Y-44136095D01*
X110400476Y-44250380D01*
X110438571Y-44402761D01*
X110438571Y-44707523D01*
X110400476Y-44783714D01*
X110362380Y-44821809D01*
X110286190Y-44859904D01*
X110133809Y-44859904D01*
X110057619Y-44821809D01*
X110019523Y-44783714D01*
X109981428Y-44707523D01*
X109981428Y-44517047D01*
X110019523Y-44440857D01*
X110057619Y-44402761D01*
X110133809Y-44364666D01*
X110286190Y-44364666D01*
X110362380Y-44402761D01*
X110400476Y-44440857D01*
X110438571Y-44517047D01*
X109168476Y-44859904D02*
X109168476Y-44059904D01*
X108978000Y-44059904D01*
X108863714Y-44098000D01*
X108787523Y-44174190D01*
X108749428Y-44250380D01*
X108711333Y-44402761D01*
X108711333Y-44517047D01*
X108749428Y-44669428D01*
X108787523Y-44745619D01*
X108863714Y-44821809D01*
X108978000Y-44859904D01*
X109168476Y-44859904D01*
X108444666Y-44059904D02*
X107911333Y-44059904D01*
X108254190Y-44859904D01*
X107409523Y-44859904D02*
X107409523Y-44059904D01*
X107219047Y-44059904D01*
X107104761Y-44098000D01*
X107028571Y-44174190D01*
X106990476Y-44250380D01*
X106952380Y-44402761D01*
X106952380Y-44517047D01*
X106990476Y-44669428D01*
X107028571Y-44745619D01*
X107104761Y-44821809D01*
X107219047Y-44859904D01*
X107409523Y-44859904D01*
X106609523Y-44859904D02*
X106609523Y-44059904D01*
X106304761Y-44059904D01*
X106228571Y-44098000D01*
X106190476Y-44136095D01*
X106152380Y-44212285D01*
X106152380Y-44326571D01*
X106190476Y-44402761D01*
X106228571Y-44440857D01*
X106304761Y-44478952D01*
X106609523Y-44478952D01*
D12*
X127444571Y-20816571D02*
X127444571Y-21888000D01*
X127516000Y-22102285D01*
X127658857Y-22245142D01*
X127873142Y-22316571D01*
X128016000Y-22316571D01*
X126016000Y-22316571D02*
X126730285Y-22316571D01*
X126730285Y-20816571D01*
X124658857Y-22173714D02*
X124730285Y-22245142D01*
X124944571Y-22316571D01*
X125087428Y-22316571D01*
X125301714Y-22245142D01*
X125444571Y-22102285D01*
X125516000Y-21959428D01*
X125587428Y-21673714D01*
X125587428Y-21459428D01*
X125516000Y-21173714D01*
X125444571Y-21030857D01*
X125301714Y-20888000D01*
X125087428Y-20816571D01*
X124944571Y-20816571D01*
X124730285Y-20888000D01*
X124658857Y-20959428D01*
X123587428Y-20816571D02*
X123587428Y-21888000D01*
X123658857Y-22102285D01*
X123801714Y-22245142D01*
X124016000Y-22316571D01*
X124158857Y-22316571D01*
X122158857Y-22316571D02*
X122873142Y-22316571D01*
X122873142Y-20816571D01*
X120801714Y-22173714D02*
X120873142Y-22245142D01*
X121087428Y-22316571D01*
X121230285Y-22316571D01*
X121444571Y-22245142D01*
X121587428Y-22102285D01*
X121658857Y-21959428D01*
X121730285Y-21673714D01*
X121730285Y-21459428D01*
X121658857Y-21173714D01*
X121587428Y-21030857D01*
X121444571Y-20888000D01*
X121230285Y-20816571D01*
X121087428Y-20816571D01*
X120873142Y-20888000D01*
X120801714Y-20959428D01*
X119730285Y-20816571D02*
X119730285Y-21888000D01*
X119801714Y-22102285D01*
X119944571Y-22245142D01*
X120158857Y-22316571D01*
X120301714Y-22316571D01*
X118301714Y-22316571D02*
X119016000Y-22316571D01*
X119016000Y-20816571D01*
X116944571Y-22173714D02*
X117016000Y-22245142D01*
X117230285Y-22316571D01*
X117373142Y-22316571D01*
X117587428Y-22245142D01*
X117730285Y-22102285D01*
X117801714Y-21959428D01*
X117873142Y-21673714D01*
X117873142Y-21459428D01*
X117801714Y-21173714D01*
X117730285Y-21030857D01*
X117587428Y-20888000D01*
X117373142Y-20816571D01*
X117230285Y-20816571D01*
X117016000Y-20888000D01*
X116944571Y-20959428D01*
X115873142Y-20816571D02*
X115873142Y-21888000D01*
X115944571Y-22102285D01*
X116087428Y-22245142D01*
X116301714Y-22316571D01*
X116444571Y-22316571D01*
X114444571Y-22316571D02*
X115158857Y-22316571D01*
X115158857Y-20816571D01*
X113087428Y-22173714D02*
X113158857Y-22245142D01*
X113373142Y-22316571D01*
X113516000Y-22316571D01*
X113730285Y-22245142D01*
X113873142Y-22102285D01*
X113944571Y-21959428D01*
X114016000Y-21673714D01*
X114016000Y-21459428D01*
X113944571Y-21173714D01*
X113873142Y-21030857D01*
X113730285Y-20888000D01*
X113516000Y-20816571D01*
X113373142Y-20816571D01*
X113158857Y-20888000D01*
X113087428Y-20959428D01*
D10*
X124402095Y-33683904D02*
X124402095Y-32883904D01*
X123449714Y-32845809D02*
X124135428Y-33874380D01*
X123030666Y-32883904D02*
X122878285Y-32883904D01*
X122802095Y-32922000D01*
X122725904Y-32998190D01*
X122687809Y-33150571D01*
X122687809Y-33417238D01*
X122725904Y-33569619D01*
X122802095Y-33645809D01*
X122878285Y-33683904D01*
X123030666Y-33683904D01*
X123106857Y-33645809D01*
X123183047Y-33569619D01*
X123221142Y-33417238D01*
X123221142Y-33150571D01*
X123183047Y-32998190D01*
X123106857Y-32922000D01*
X123030666Y-32883904D01*
X121503095Y-33683904D02*
X121769761Y-33302952D01*
X121960238Y-33683904D02*
X121960238Y-32883904D01*
X121655476Y-32883904D01*
X121579285Y-32922000D01*
X121541190Y-32960095D01*
X121503095Y-33036285D01*
X121503095Y-33150571D01*
X121541190Y-33226761D01*
X121579285Y-33264857D01*
X121655476Y-33302952D01*
X121960238Y-33302952D01*
X121198333Y-33645809D02*
X121084047Y-33683904D01*
X120893571Y-33683904D01*
X120817380Y-33645809D01*
X120779285Y-33607714D01*
X120741190Y-33531523D01*
X120741190Y-33455333D01*
X120779285Y-33379142D01*
X120817380Y-33341047D01*
X120893571Y-33302952D01*
X121045952Y-33264857D01*
X121122142Y-33226761D01*
X121160238Y-33188666D01*
X121198333Y-33112476D01*
X121198333Y-33036285D01*
X121160238Y-32960095D01*
X121122142Y-32922000D01*
X121045952Y-32883904D01*
X120855476Y-32883904D01*
X120741190Y-32922000D01*
X120512619Y-32883904D02*
X120055476Y-32883904D01*
X120284047Y-33683904D02*
X120284047Y-32883904D01*
X115080285Y-36439809D02*
X114966000Y-36477904D01*
X114775523Y-36477904D01*
X114699333Y-36439809D01*
X114661238Y-36401714D01*
X114623142Y-36325523D01*
X114623142Y-36249333D01*
X114661238Y-36173142D01*
X114699333Y-36135047D01*
X114775523Y-36096952D01*
X114927904Y-36058857D01*
X115004095Y-36020761D01*
X115042190Y-35982666D01*
X115080285Y-35906476D01*
X115080285Y-35830285D01*
X115042190Y-35754095D01*
X115004095Y-35716000D01*
X114927904Y-35677904D01*
X114737428Y-35677904D01*
X114623142Y-35716000D01*
X114280285Y-36058857D02*
X114013619Y-36058857D01*
X113899333Y-36477904D02*
X114280285Y-36477904D01*
X114280285Y-35677904D01*
X113899333Y-35677904D01*
X113175523Y-36477904D02*
X113556476Y-36477904D01*
X113556476Y-35677904D01*
X110606476Y-33683904D02*
X110606476Y-32883904D01*
X110416000Y-32883904D01*
X110301714Y-32922000D01*
X110225523Y-32998190D01*
X110187428Y-33074380D01*
X110149333Y-33226761D01*
X110149333Y-33341047D01*
X110187428Y-33493428D01*
X110225523Y-33569619D01*
X110301714Y-33645809D01*
X110416000Y-33683904D01*
X110606476Y-33683904D01*
X109654095Y-32883904D02*
X109577904Y-32883904D01*
X109501714Y-32922000D01*
X109463619Y-32960095D01*
X109425523Y-33036285D01*
X109387428Y-33188666D01*
X109387428Y-33379142D01*
X109425523Y-33531523D01*
X109463619Y-33607714D01*
X109501714Y-33645809D01*
X109577904Y-33683904D01*
X109654095Y-33683904D01*
X109730285Y-33645809D01*
X109768380Y-33607714D01*
X109806476Y-33531523D01*
X109844571Y-33379142D01*
X109844571Y-33188666D01*
X109806476Y-33036285D01*
X109768380Y-32960095D01*
X109730285Y-32922000D01*
X109654095Y-32883904D01*
X102310476Y-33683904D02*
X102310476Y-32883904D01*
X102120000Y-32883904D01*
X102005714Y-32922000D01*
X101929523Y-32998190D01*
X101891428Y-33074380D01*
X101853333Y-33226761D01*
X101853333Y-33341047D01*
X101891428Y-33493428D01*
X101929523Y-33569619D01*
X102005714Y-33645809D01*
X102120000Y-33683904D01*
X102310476Y-33683904D01*
X101129523Y-32883904D02*
X101510476Y-32883904D01*
X101548571Y-33264857D01*
X101510476Y-33226761D01*
X101434285Y-33188666D01*
X101243809Y-33188666D01*
X101167619Y-33226761D01*
X101129523Y-33264857D01*
X101091428Y-33341047D01*
X101091428Y-33531523D01*
X101129523Y-33607714D01*
X101167619Y-33645809D01*
X101243809Y-33683904D01*
X101434285Y-33683904D01*
X101510476Y-33645809D01*
X101548571Y-33607714D01*
X116102666Y-33264857D02*
X115988380Y-33302952D01*
X115950285Y-33341047D01*
X115912190Y-33417238D01*
X115912190Y-33531523D01*
X115950285Y-33607714D01*
X115988380Y-33645809D01*
X116064571Y-33683904D01*
X116369333Y-33683904D01*
X116369333Y-32883904D01*
X116102666Y-32883904D01*
X116026476Y-32922000D01*
X115988380Y-32960095D01*
X115950285Y-33036285D01*
X115950285Y-33112476D01*
X115988380Y-33188666D01*
X116026476Y-33226761D01*
X116102666Y-33264857D01*
X116369333Y-33264857D01*
X115607428Y-33645809D02*
X115493142Y-33683904D01*
X115302666Y-33683904D01*
X115226476Y-33645809D01*
X115188380Y-33607714D01*
X115150285Y-33531523D01*
X115150285Y-33455333D01*
X115188380Y-33379142D01*
X115226476Y-33341047D01*
X115302666Y-33302952D01*
X115455047Y-33264857D01*
X115531238Y-33226761D01*
X115569333Y-33188666D01*
X115607428Y-33112476D01*
X115607428Y-33036285D01*
X115569333Y-32960095D01*
X115531238Y-32922000D01*
X115455047Y-32883904D01*
X115264571Y-32883904D01*
X115150285Y-32922000D01*
X114655047Y-33302952D02*
X114655047Y-33683904D01*
X114921714Y-32883904D02*
X114655047Y-33302952D01*
X114388380Y-32883904D01*
X99430476Y-33683904D02*
X99430476Y-32883904D01*
X99240000Y-32883904D01*
X99125714Y-32922000D01*
X99049523Y-32998190D01*
X99011428Y-33074380D01*
X98973333Y-33226761D01*
X98973333Y-33341047D01*
X99011428Y-33493428D01*
X99049523Y-33569619D01*
X99125714Y-33645809D01*
X99240000Y-33683904D01*
X99430476Y-33683904D01*
X98287619Y-32883904D02*
X98440000Y-32883904D01*
X98516190Y-32922000D01*
X98554285Y-32960095D01*
X98630476Y-33074380D01*
X98668571Y-33226761D01*
X98668571Y-33531523D01*
X98630476Y-33607714D01*
X98592380Y-33645809D01*
X98516190Y-33683904D01*
X98363809Y-33683904D01*
X98287619Y-33645809D01*
X98249523Y-33607714D01*
X98211428Y-33531523D01*
X98211428Y-33341047D01*
X98249523Y-33264857D01*
X98287619Y-33226761D01*
X98363809Y-33188666D01*
X98516190Y-33188666D01*
X98592380Y-33226761D01*
X98630476Y-33264857D01*
X98668571Y-33341047D01*
X109168476Y-36477904D02*
X109168476Y-35677904D01*
X108978000Y-35677904D01*
X108863714Y-35716000D01*
X108787523Y-35792190D01*
X108749428Y-35868380D01*
X108711333Y-36020761D01*
X108711333Y-36135047D01*
X108749428Y-36287428D01*
X108787523Y-36363619D01*
X108863714Y-36439809D01*
X108978000Y-36477904D01*
X109168476Y-36477904D01*
X107949428Y-36477904D02*
X108406571Y-36477904D01*
X108178000Y-36477904D02*
X108178000Y-35677904D01*
X108254190Y-35792190D01*
X108330380Y-35868380D01*
X108406571Y-35906476D01*
X103834476Y-36477904D02*
X103834476Y-35677904D01*
X103644000Y-35677904D01*
X103529714Y-35716000D01*
X103453523Y-35792190D01*
X103415428Y-35868380D01*
X103377333Y-36020761D01*
X103377333Y-36135047D01*
X103415428Y-36287428D01*
X103453523Y-36363619D01*
X103529714Y-36439809D01*
X103644000Y-36477904D01*
X103834476Y-36477904D01*
X102691619Y-35944571D02*
X102691619Y-36477904D01*
X102882095Y-35639809D02*
X103072571Y-36211238D01*
X102577333Y-36211238D01*
X106374476Y-36477904D02*
X106374476Y-35677904D01*
X106184000Y-35677904D01*
X106069714Y-35716000D01*
X105993523Y-35792190D01*
X105955428Y-35868380D01*
X105917333Y-36020761D01*
X105917333Y-36135047D01*
X105955428Y-36287428D01*
X105993523Y-36363619D01*
X106069714Y-36439809D01*
X106184000Y-36477904D01*
X106374476Y-36477904D01*
X105612571Y-35754095D02*
X105574476Y-35716000D01*
X105498285Y-35677904D01*
X105307809Y-35677904D01*
X105231619Y-35716000D01*
X105193523Y-35754095D01*
X105155428Y-35830285D01*
X105155428Y-35906476D01*
X105193523Y-36020761D01*
X105650666Y-36477904D01*
X105155428Y-36477904D01*
X127659619Y-33683904D02*
X127659619Y-32883904D01*
X127392952Y-33455333D01*
X127126285Y-32883904D01*
X127126285Y-33683904D01*
X126783428Y-33645809D02*
X126669142Y-33683904D01*
X126478666Y-33683904D01*
X126402476Y-33645809D01*
X126364380Y-33607714D01*
X126326285Y-33531523D01*
X126326285Y-33455333D01*
X126364380Y-33379142D01*
X126402476Y-33341047D01*
X126478666Y-33302952D01*
X126631047Y-33264857D01*
X126707238Y-33226761D01*
X126745333Y-33188666D01*
X126783428Y-33112476D01*
X126783428Y-33036285D01*
X126745333Y-32960095D01*
X126707238Y-32922000D01*
X126631047Y-32883904D01*
X126440571Y-32883904D01*
X126326285Y-32922000D01*
X125564380Y-32922000D02*
X125640571Y-32883904D01*
X125754857Y-32883904D01*
X125869142Y-32922000D01*
X125945333Y-32998190D01*
X125983428Y-33074380D01*
X126021523Y-33226761D01*
X126021523Y-33341047D01*
X125983428Y-33493428D01*
X125945333Y-33569619D01*
X125869142Y-33645809D01*
X125754857Y-33683904D01*
X125678666Y-33683904D01*
X125564380Y-33645809D01*
X125526285Y-33607714D01*
X125526285Y-33341047D01*
X125678666Y-33341047D01*
X99141714Y-35677904D02*
X98684571Y-35677904D01*
X98913142Y-36477904D02*
X98913142Y-35677904D01*
X98417904Y-36477904D02*
X98417904Y-35677904D01*
X98113142Y-35677904D01*
X98036952Y-35716000D01*
X97998857Y-35754095D01*
X97960761Y-35830285D01*
X97960761Y-35944571D01*
X97998857Y-36020761D01*
X98036952Y-36058857D01*
X98113142Y-36096952D01*
X98417904Y-36096952D01*
X97694095Y-35677904D02*
X97503619Y-36477904D01*
X97351238Y-35906476D01*
X97198857Y-36477904D01*
X97008380Y-35677904D01*
X96246476Y-36477904D02*
X96513142Y-36096952D01*
X96703619Y-36477904D02*
X96703619Y-35677904D01*
X96398857Y-35677904D01*
X96322666Y-35716000D01*
X96284571Y-35754095D01*
X96246476Y-35830285D01*
X96246476Y-35944571D01*
X96284571Y-36020761D01*
X96322666Y-36058857D01*
X96398857Y-36096952D01*
X96703619Y-36096952D01*
X105104476Y-33683904D02*
X105104476Y-32883904D01*
X104914000Y-32883904D01*
X104799714Y-32922000D01*
X104723523Y-32998190D01*
X104685428Y-33074380D01*
X104647333Y-33226761D01*
X104647333Y-33341047D01*
X104685428Y-33493428D01*
X104723523Y-33569619D01*
X104799714Y-33645809D01*
X104914000Y-33683904D01*
X105104476Y-33683904D01*
X104380666Y-32883904D02*
X103885428Y-32883904D01*
X104152095Y-33188666D01*
X104037809Y-33188666D01*
X103961619Y-33226761D01*
X103923523Y-33264857D01*
X103885428Y-33341047D01*
X103885428Y-33531523D01*
X103923523Y-33607714D01*
X103961619Y-33645809D01*
X104037809Y-33683904D01*
X104266380Y-33683904D01*
X104342571Y-33645809D01*
X104380666Y-33607714D01*
X125913428Y-36401714D02*
X125951523Y-36439809D01*
X126065809Y-36477904D01*
X126142000Y-36477904D01*
X126256285Y-36439809D01*
X126332476Y-36363619D01*
X126370571Y-36287428D01*
X126408666Y-36135047D01*
X126408666Y-36020761D01*
X126370571Y-35868380D01*
X126332476Y-35792190D01*
X126256285Y-35716000D01*
X126142000Y-35677904D01*
X126065809Y-35677904D01*
X125951523Y-35716000D01*
X125913428Y-35754095D01*
X124999142Y-35639809D02*
X125684857Y-36668380D01*
X124732476Y-36477904D02*
X124732476Y-35677904D01*
X124542000Y-35677904D01*
X124427714Y-35716000D01*
X124351523Y-35792190D01*
X124313428Y-35868380D01*
X124275333Y-36020761D01*
X124275333Y-36135047D01*
X124313428Y-36287428D01*
X124351523Y-36363619D01*
X124427714Y-36439809D01*
X124542000Y-36477904D01*
X124732476Y-36477904D01*
X119388476Y-33458429D02*
X119007523Y-33458429D01*
X119464666Y-33687000D02*
X119198000Y-32887000D01*
X118931333Y-33687000D01*
X118207523Y-33610810D02*
X118245619Y-33648905D01*
X118359904Y-33687000D01*
X118436095Y-33687000D01*
X118550380Y-33648905D01*
X118626571Y-33572715D01*
X118664666Y-33496524D01*
X118702761Y-33344143D01*
X118702761Y-33229857D01*
X118664666Y-33077476D01*
X118626571Y-33001286D01*
X118550380Y-32925096D01*
X118436095Y-32887000D01*
X118359904Y-32887000D01*
X118245619Y-32925096D01*
X118207523Y-32963191D01*
X117864666Y-33687000D02*
X117864666Y-32887000D01*
X117407523Y-33687000D02*
X117750380Y-33229857D01*
X117407523Y-32887000D02*
X117864666Y-33344143D01*
X120668285Y-36249333D02*
X120287333Y-36249333D01*
X120744476Y-36477904D02*
X120477809Y-35677904D01*
X120211142Y-36477904D01*
X120058761Y-35677904D02*
X119601619Y-35677904D01*
X119830190Y-36477904D02*
X119830190Y-35677904D01*
X119334952Y-36477904D02*
X119334952Y-35677904D01*
X118877809Y-36477904D01*
X118877809Y-35677904D01*
X111981523Y-36477904D02*
X111981523Y-35677904D01*
X111791047Y-35677904D01*
X111676761Y-35716000D01*
X111600571Y-35792190D01*
X111562476Y-35868380D01*
X111524380Y-36020761D01*
X111524380Y-36135047D01*
X111562476Y-36287428D01*
X111600571Y-36363619D01*
X111676761Y-36439809D01*
X111791047Y-36477904D01*
X111981523Y-36477904D01*
X111181523Y-36477904D02*
X111181523Y-35677904D01*
X110876761Y-35677904D01*
X110800571Y-35716000D01*
X110762476Y-35754095D01*
X110724380Y-35830285D01*
X110724380Y-35944571D01*
X110762476Y-36020761D01*
X110800571Y-36058857D01*
X110876761Y-36096952D01*
X111181523Y-36096952D01*
X96722476Y-33683904D02*
X96722476Y-32883904D01*
X96532000Y-32883904D01*
X96417714Y-32922000D01*
X96341523Y-32998190D01*
X96303428Y-33074380D01*
X96265333Y-33226761D01*
X96265333Y-33341047D01*
X96303428Y-33493428D01*
X96341523Y-33569619D01*
X96417714Y-33645809D01*
X96532000Y-33683904D01*
X96722476Y-33683904D01*
X95998666Y-32883904D02*
X95465333Y-32883904D01*
X95808190Y-33683904D01*
X130193333Y-33648904D02*
X130460000Y-33267952D01*
X130650476Y-33648904D02*
X130650476Y-32848904D01*
X130345714Y-32848904D01*
X130269523Y-32887000D01*
X130231428Y-32925095D01*
X130193333Y-33001285D01*
X130193333Y-33115571D01*
X130231428Y-33191761D01*
X130269523Y-33229857D01*
X130345714Y-33267952D01*
X130650476Y-33267952D01*
X129850476Y-33229857D02*
X129583809Y-33229857D01*
X129469523Y-33648904D02*
X129850476Y-33648904D01*
X129850476Y-32848904D01*
X129469523Y-32848904D01*
X128593333Y-33725095D02*
X128669523Y-33687000D01*
X128745714Y-33610809D01*
X128860000Y-33496523D01*
X128936190Y-33458428D01*
X129012380Y-33458428D01*
X128974285Y-33648904D02*
X129050476Y-33610809D01*
X129126666Y-33534619D01*
X129164761Y-33382238D01*
X129164761Y-33115571D01*
X129126666Y-32963190D01*
X129050476Y-32887000D01*
X128974285Y-32848904D01*
X128821904Y-32848904D01*
X128745714Y-32887000D01*
X128669523Y-32963190D01*
X128631428Y-33115571D01*
X128631428Y-33382238D01*
X128669523Y-33534619D01*
X128745714Y-33610809D01*
X128821904Y-33648904D01*
X128974285Y-33648904D01*
X142669619Y-25867047D02*
X143669619Y-25867047D01*
X143669619Y-25333714D02*
X143669619Y-25181333D01*
X143622000Y-25105142D01*
X143526761Y-25028952D01*
X143336285Y-24990857D01*
X143002952Y-24990857D01*
X142812476Y-25028952D01*
X142717238Y-25105142D01*
X142669619Y-25181333D01*
X142669619Y-25333714D01*
X142717238Y-25409904D01*
X142812476Y-25486095D01*
X143002952Y-25524190D01*
X143336285Y-25524190D01*
X143526761Y-25486095D01*
X143622000Y-25409904D01*
X143669619Y-25333714D01*
X141115333Y-25900380D02*
X141382000Y-25424190D01*
X141572476Y-25900380D02*
X141572476Y-24900380D01*
X141267714Y-24900380D01*
X141191523Y-24948000D01*
X141153428Y-24995619D01*
X141115333Y-25090857D01*
X141115333Y-25233714D01*
X141153428Y-25328952D01*
X141191523Y-25376571D01*
X141267714Y-25424190D01*
X141572476Y-25424190D01*
X140772476Y-25376571D02*
X140505809Y-25376571D01*
X140391523Y-25900380D02*
X140772476Y-25900380D01*
X140772476Y-24900380D01*
X140391523Y-24900380D01*
X139515333Y-25995619D02*
X139591523Y-25948000D01*
X139667714Y-25852761D01*
X139782000Y-25709904D01*
X139858190Y-25662285D01*
X139934380Y-25662285D01*
X139896285Y-25900380D02*
X139972476Y-25852761D01*
X140048666Y-25757523D01*
X140086761Y-25567047D01*
X140086761Y-25233714D01*
X140048666Y-25043238D01*
X139972476Y-24948000D01*
X139896285Y-24900380D01*
X139743904Y-24900380D01*
X139667714Y-24948000D01*
X139591523Y-25043238D01*
X139553428Y-25233714D01*
X139553428Y-25567047D01*
X139591523Y-25757523D01*
X139667714Y-25852761D01*
X139743904Y-25900380D01*
X139896285Y-25900380D01*
X137753067Y-25600380D02*
X137705448Y-25638476D01*
X137657829Y-25752761D01*
X137657829Y-25828952D01*
X137705448Y-25943238D01*
X137800686Y-26019428D01*
X137895924Y-26057523D01*
X138086400Y-26095619D01*
X138229257Y-26095619D01*
X138419733Y-26057523D01*
X138514971Y-26019428D01*
X138610210Y-25943238D01*
X138657829Y-25828952D01*
X138657829Y-25752761D01*
X138610210Y-25638476D01*
X138562590Y-25600380D01*
X137657829Y-25257523D02*
X138657829Y-25257523D01*
X138657829Y-25067047D01*
X138610210Y-24952761D01*
X138514971Y-24876571D01*
X138419733Y-24838476D01*
X138229257Y-24800380D01*
X138086400Y-24800380D01*
X137895924Y-24838476D01*
X137800686Y-24876571D01*
X137705448Y-24952761D01*
X137657829Y-25067047D01*
X137657829Y-25257523D01*
X135210806Y-26060571D02*
X135163187Y-25946286D01*
X135163187Y-25755809D01*
X135210806Y-25679619D01*
X135258425Y-25641524D01*
X135353663Y-25603428D01*
X135448901Y-25603428D01*
X135544139Y-25641524D01*
X135591758Y-25679619D01*
X135639377Y-25755809D01*
X135686996Y-25908190D01*
X135734615Y-25984381D01*
X135782234Y-26022476D01*
X135877472Y-26060571D01*
X135972710Y-26060571D01*
X136067948Y-26022476D01*
X136115568Y-25984381D01*
X136163187Y-25908190D01*
X136163187Y-25717714D01*
X136115568Y-25603428D01*
X135686996Y-25260571D02*
X135686996Y-24993905D01*
X135163187Y-24879619D02*
X135163187Y-25260571D01*
X136163187Y-25260571D01*
X136163187Y-24879619D01*
X135163187Y-24155809D02*
X135163187Y-24536762D01*
X136163187Y-24536762D01*
X132668545Y-26022477D02*
X133668545Y-26022477D01*
X132954259Y-25755810D01*
X133668545Y-25489143D01*
X132668545Y-25489143D01*
X132716164Y-25146286D02*
X132668545Y-25032000D01*
X132668545Y-24841524D01*
X132716164Y-24765334D01*
X132763783Y-24727238D01*
X132859021Y-24689143D01*
X132954259Y-24689143D01*
X133049497Y-24727238D01*
X133097116Y-24765334D01*
X133144735Y-24841524D01*
X133192354Y-24993905D01*
X133239973Y-25070096D01*
X133287592Y-25108191D01*
X133382830Y-25146286D01*
X133478068Y-25146286D01*
X133573306Y-25108191D01*
X133620926Y-25070096D01*
X133668545Y-24993905D01*
X133668545Y-24803429D01*
X133620926Y-24689143D01*
X133620926Y-23927238D02*
X133668545Y-24003429D01*
X133668545Y-24117715D01*
X133620926Y-24232000D01*
X133525687Y-24308191D01*
X133430449Y-24346286D01*
X133239973Y-24384381D01*
X133097116Y-24384381D01*
X132906640Y-24346286D01*
X132811402Y-24308191D01*
X132716164Y-24232000D01*
X132668545Y-24117715D01*
X132668545Y-24041524D01*
X132716164Y-23927238D01*
X132763783Y-23889143D01*
X133097116Y-23889143D01*
X133097116Y-24041524D01*
X130173903Y-25565333D02*
X130650093Y-25831999D01*
X130173903Y-26022476D02*
X131173903Y-26022476D01*
X131173903Y-25717714D01*
X131126284Y-25641523D01*
X131078664Y-25603428D01*
X130983426Y-25565333D01*
X130840569Y-25565333D01*
X130745331Y-25603428D01*
X130697712Y-25641523D01*
X130650093Y-25717714D01*
X130650093Y-26022476D01*
X130221522Y-25260571D02*
X130173903Y-25146285D01*
X130173903Y-24955809D01*
X130221522Y-24879618D01*
X130269141Y-24841523D01*
X130364379Y-24803428D01*
X130459617Y-24803428D01*
X130554855Y-24841523D01*
X130602474Y-24879618D01*
X130650093Y-24955809D01*
X130697712Y-25108190D01*
X130745331Y-25184380D01*
X130792950Y-25222476D01*
X130888188Y-25260571D01*
X130983426Y-25260571D01*
X131078664Y-25222476D01*
X131126284Y-25184380D01*
X131173903Y-25108190D01*
X131173903Y-24917714D01*
X131126284Y-24803428D01*
X131173903Y-24574857D02*
X131173903Y-24117714D01*
X130173903Y-24346285D02*
X131173903Y-24346285D01*
X127964975Y-26060572D02*
X127964975Y-25679619D01*
X127679261Y-26136762D02*
X128679261Y-25870096D01*
X127679261Y-25603429D01*
X127774499Y-24879619D02*
X127726880Y-24917715D01*
X127679261Y-25032000D01*
X127679261Y-25108191D01*
X127726880Y-25222476D01*
X127822118Y-25298667D01*
X127917356Y-25336762D01*
X128107832Y-25374857D01*
X128250689Y-25374857D01*
X128441165Y-25336762D01*
X128536403Y-25298667D01*
X128631642Y-25222476D01*
X128679261Y-25108191D01*
X128679261Y-25032000D01*
X128631642Y-24917715D01*
X128584022Y-24879619D01*
X127679261Y-24536762D02*
X128679261Y-24536762D01*
X127679261Y-24079619D02*
X128250689Y-24422476D01*
X128679261Y-24079619D02*
X128107832Y-24536762D01*
X125708428Y-25755809D02*
X125660809Y-25641523D01*
X125613190Y-25603428D01*
X125517952Y-25565333D01*
X125375095Y-25565333D01*
X125279857Y-25603428D01*
X125232238Y-25641523D01*
X125184619Y-25717714D01*
X125184619Y-26022476D01*
X126184619Y-26022476D01*
X126184619Y-25755809D01*
X126137000Y-25679619D01*
X126089380Y-25641523D01*
X125994142Y-25603428D01*
X125898904Y-25603428D01*
X125803666Y-25641523D01*
X125756047Y-25679619D01*
X125708428Y-25755809D01*
X125708428Y-26022476D01*
X125232238Y-25260571D02*
X125184619Y-25146285D01*
X125184619Y-24955809D01*
X125232238Y-24879619D01*
X125279857Y-24841523D01*
X125375095Y-24803428D01*
X125470333Y-24803428D01*
X125565571Y-24841523D01*
X125613190Y-24879619D01*
X125660809Y-24955809D01*
X125708428Y-25108190D01*
X125756047Y-25184381D01*
X125803666Y-25222476D01*
X125898904Y-25260571D01*
X125994142Y-25260571D01*
X126089380Y-25222476D01*
X126137000Y-25184381D01*
X126184619Y-25108190D01*
X126184619Y-24917714D01*
X126137000Y-24803428D01*
X125660809Y-24308190D02*
X125184619Y-24308190D01*
X126184619Y-24574857D02*
X125660809Y-24308190D01*
X126184619Y-24041523D01*
X120390333Y-26060571D02*
X120390333Y-25679619D01*
X120104619Y-26136762D02*
X121104619Y-25870095D01*
X120104619Y-25603428D01*
X121104619Y-25451047D02*
X121104619Y-24993905D01*
X120104619Y-25222476D02*
X121104619Y-25222476D01*
X120104619Y-24727238D02*
X121104619Y-24727238D01*
X120104619Y-24270095D01*
X121104619Y-24270095D01*
X113294119Y-26136762D02*
X113294119Y-25679619D01*
X112294119Y-25908190D02*
X113294119Y-25908190D01*
X112294119Y-25412952D02*
X113294119Y-25412952D01*
X113294119Y-25108190D01*
X113246500Y-25032000D01*
X113198880Y-24993905D01*
X113103642Y-24955809D01*
X112960785Y-24955809D01*
X112865547Y-24993905D01*
X112817928Y-25032000D01*
X112770309Y-25108190D01*
X112770309Y-25412952D01*
X113294119Y-24689143D02*
X112294119Y-24498667D01*
X113008404Y-24346286D01*
X112294119Y-24193905D01*
X113294119Y-24003428D01*
X112294119Y-23241524D02*
X112770309Y-23508190D01*
X112294119Y-23698667D02*
X113294119Y-23698667D01*
X113294119Y-23393905D01*
X113246500Y-23317714D01*
X113198880Y-23279619D01*
X113103642Y-23241524D01*
X112960785Y-23241524D01*
X112865547Y-23279619D01*
X112817928Y-23317714D01*
X112770309Y-23393905D01*
X112770309Y-23698667D01*
X102070619Y-26041523D02*
X103070619Y-26041523D01*
X103070619Y-25851047D01*
X103023000Y-25736761D01*
X102927761Y-25660571D01*
X102832523Y-25622476D01*
X102642047Y-25584380D01*
X102499190Y-25584380D01*
X102308714Y-25622476D01*
X102213476Y-25660571D01*
X102118238Y-25736761D01*
X102070619Y-25851047D01*
X102070619Y-26041523D01*
X102070619Y-25241523D02*
X103070619Y-25241523D01*
X103070619Y-24936761D01*
X103023000Y-24860571D01*
X102975380Y-24822476D01*
X102880142Y-24784380D01*
X102737285Y-24784380D01*
X102642047Y-24822476D01*
X102594428Y-24860571D01*
X102546809Y-24936761D01*
X102546809Y-25241523D01*
X99538553Y-26022476D02*
X100538553Y-26022476D01*
X100538553Y-25832000D01*
X100490934Y-25717714D01*
X100395695Y-25641523D01*
X100300457Y-25603428D01*
X100109981Y-25565333D01*
X99967124Y-25565333D01*
X99776648Y-25603428D01*
X99681410Y-25641523D01*
X99586172Y-25717714D01*
X99538553Y-25832000D01*
X99538553Y-26022476D01*
X100538553Y-25298666D02*
X100538553Y-24765333D01*
X99538553Y-25108190D01*
X97006491Y-26022476D02*
X98006491Y-26022476D01*
X98006491Y-25832000D01*
X97958872Y-25717714D01*
X97863633Y-25641523D01*
X97768395Y-25603428D01*
X97577919Y-25565333D01*
X97435062Y-25565333D01*
X97244586Y-25603428D01*
X97149348Y-25641523D01*
X97054110Y-25717714D01*
X97006491Y-25832000D01*
X97006491Y-26022476D01*
X98006491Y-24879619D02*
X98006491Y-25032000D01*
X97958872Y-25108190D01*
X97911252Y-25146285D01*
X97768395Y-25222476D01*
X97577919Y-25260571D01*
X97196967Y-25260571D01*
X97101729Y-25222476D01*
X97054110Y-25184380D01*
X97006491Y-25108190D01*
X97006491Y-24955809D01*
X97054110Y-24879619D01*
X97101729Y-24841523D01*
X97196967Y-24803428D01*
X97435062Y-24803428D01*
X97530300Y-24841523D01*
X97577919Y-24879619D01*
X97625538Y-24955809D01*
X97625538Y-25108190D01*
X97577919Y-25184380D01*
X97530300Y-25222476D01*
X97435062Y-25260571D01*
X94474429Y-26022476D02*
X95474429Y-26022476D01*
X95474429Y-25832000D01*
X95426810Y-25717714D01*
X95331571Y-25641523D01*
X95236333Y-25603428D01*
X95045857Y-25565333D01*
X94903000Y-25565333D01*
X94712524Y-25603428D01*
X94617286Y-25641523D01*
X94522048Y-25717714D01*
X94474429Y-25832000D01*
X94474429Y-26022476D01*
X95474429Y-24841523D02*
X95474429Y-25222476D01*
X94998238Y-25260571D01*
X95045857Y-25222476D01*
X95093476Y-25146285D01*
X95093476Y-24955809D01*
X95045857Y-24879619D01*
X94998238Y-24841523D01*
X94903000Y-24803428D01*
X94664905Y-24803428D01*
X94569667Y-24841523D01*
X94522048Y-24879619D01*
X94474429Y-24955809D01*
X94474429Y-25146285D01*
X94522048Y-25222476D01*
X94569667Y-25260571D01*
X91942367Y-26022476D02*
X92942367Y-26022476D01*
X92942367Y-25832000D01*
X92894748Y-25717714D01*
X92799509Y-25641523D01*
X92704271Y-25603428D01*
X92513795Y-25565333D01*
X92370938Y-25565333D01*
X92180462Y-25603428D01*
X92085224Y-25641523D01*
X91989986Y-25717714D01*
X91942367Y-25832000D01*
X91942367Y-26022476D01*
X92609033Y-24879619D02*
X91942367Y-24879619D01*
X92989986Y-25070095D02*
X92275700Y-25260571D01*
X92275700Y-24765333D01*
X89410305Y-26022476D02*
X90410305Y-26022476D01*
X90410305Y-25832000D01*
X90362686Y-25717714D01*
X90267447Y-25641523D01*
X90172209Y-25603428D01*
X89981733Y-25565333D01*
X89838876Y-25565333D01*
X89648400Y-25603428D01*
X89553162Y-25641523D01*
X89457924Y-25717714D01*
X89410305Y-25832000D01*
X89410305Y-26022476D01*
X90410305Y-25298666D02*
X90410305Y-24803428D01*
X90029352Y-25070095D01*
X90029352Y-24955809D01*
X89981733Y-24879619D01*
X89934114Y-24841523D01*
X89838876Y-24803428D01*
X89600781Y-24803428D01*
X89505543Y-24841523D01*
X89457924Y-24879619D01*
X89410305Y-24955809D01*
X89410305Y-25184380D01*
X89457924Y-25260571D01*
X89505543Y-25298666D01*
X86878243Y-26022476D02*
X87878243Y-26022476D01*
X87878243Y-25832000D01*
X87830624Y-25717714D01*
X87735385Y-25641523D01*
X87640147Y-25603428D01*
X87449671Y-25565333D01*
X87306814Y-25565333D01*
X87116338Y-25603428D01*
X87021100Y-25641523D01*
X86925862Y-25717714D01*
X86878243Y-25832000D01*
X86878243Y-26022476D01*
X87783004Y-25260571D02*
X87830624Y-25222476D01*
X87878243Y-25146285D01*
X87878243Y-24955809D01*
X87830624Y-24879619D01*
X87783004Y-24841523D01*
X87687766Y-24803428D01*
X87592528Y-24803428D01*
X87449671Y-24841523D01*
X86878243Y-25298666D01*
X86878243Y-24803428D01*
X84346181Y-26022476D02*
X85346181Y-26022476D01*
X85346181Y-25832000D01*
X85298562Y-25717714D01*
X85203323Y-25641523D01*
X85108085Y-25603428D01*
X84917609Y-25565333D01*
X84774752Y-25565333D01*
X84584276Y-25603428D01*
X84489038Y-25641523D01*
X84393800Y-25717714D01*
X84346181Y-25832000D01*
X84346181Y-26022476D01*
X84346181Y-24803428D02*
X84346181Y-25260571D01*
X84346181Y-25032000D02*
X85346181Y-25032000D01*
X85203323Y-25108190D01*
X85108085Y-25184380D01*
X85060466Y-25260571D01*
X81814119Y-26022476D02*
X82814119Y-26022476D01*
X82814119Y-25832000D01*
X82766500Y-25717714D01*
X82671261Y-25641523D01*
X82576023Y-25603428D01*
X82385547Y-25565333D01*
X82242690Y-25565333D01*
X82052214Y-25603428D01*
X81956976Y-25641523D01*
X81861738Y-25717714D01*
X81814119Y-25832000D01*
X81814119Y-26022476D01*
X82814119Y-25070095D02*
X82814119Y-24993904D01*
X82766500Y-24917714D01*
X82718880Y-24879619D01*
X82623642Y-24841523D01*
X82433166Y-24803428D01*
X82195071Y-24803428D01*
X82004595Y-24841523D01*
X81909357Y-24879619D01*
X81861738Y-24917714D01*
X81814119Y-24993904D01*
X81814119Y-25070095D01*
X81861738Y-25146285D01*
X81909357Y-25184380D01*
X82004595Y-25222476D01*
X82195071Y-25260571D01*
X82433166Y-25260571D01*
X82623642Y-25222476D01*
X82718880Y-25184380D01*
X82766500Y-25146285D01*
X82814119Y-25070095D01*
D11*
X86838500Y-18383500D02*
X83092000Y-19907500D01*
X88108500Y-18447000D02*
X85759000Y-19780500D01*
X89505500Y-18510500D02*
X88934000Y-19272500D01*
X88997500Y-19272500D02*
X87664000Y-19272500D01*
X88997500Y-20606000D02*
X88997500Y-19272500D01*
X81187000Y-19272500D02*
X86330500Y-19272500D01*
X81187000Y-24479500D02*
X81187000Y-19272500D01*
X88997500Y-24479500D02*
X81187000Y-24479500D01*
X88997500Y-21812500D02*
X88997500Y-24479500D01*
X86330500Y-21812500D02*
X88997500Y-21812500D01*
X86330500Y-19272500D02*
X86330500Y-21812500D01*
X82584000Y539500D02*
X82584000Y-9684000D01*
X85187500Y539500D02*
X82584000Y539500D01*
X85187500Y-9684000D02*
X85187500Y539500D01*
X82584000Y-9684000D02*
X85187500Y-9684000D01*
X81060000Y984000D02*
X81060000Y2317500D01*
X82393500Y984000D02*
X81060000Y984000D01*
X83600000Y3587500D02*
X83600000Y984000D01*
X86267000Y3587500D02*
X83600000Y3587500D01*
X86267000Y984000D02*
X86267000Y3587500D01*
X83663500Y984000D02*
X86267000Y984000D01*
D10*
X86544880Y2587334D02*
X87259166Y2587334D01*
X87402023Y2634953D01*
X87497261Y2730191D01*
X87544880Y2873048D01*
X87544880Y2968286D01*
X86544880Y2206381D02*
X86544880Y1539715D01*
X87544880Y1968286D01*
X86219333Y-11485880D02*
X86219333Y-12200166D01*
X86266952Y-12343023D01*
X86362190Y-12438261D01*
X86505047Y-12485880D01*
X86600285Y-12485880D01*
X85314571Y-11819214D02*
X85314571Y-12485880D01*
X85552666Y-11438261D02*
X85790761Y-12152547D01*
X85171714Y-12152547D01*
X90600833Y-20756880D02*
X90600833Y-21471166D01*
X90648452Y-21614023D01*
X90743690Y-21709261D01*
X90886547Y-21756880D01*
X90981785Y-21756880D01*
X89648452Y-20756880D02*
X90124642Y-20756880D01*
X90172261Y-21233071D01*
X90124642Y-21185452D01*
X90029404Y-21137833D01*
X89791309Y-21137833D01*
X89696071Y-21185452D01*
X89648452Y-21233071D01*
X89600833Y-21328309D01*
X89600833Y-21566404D01*
X89648452Y-21661642D01*
X89696071Y-21709261D01*
X89791309Y-21756880D01*
X90029404Y-21756880D01*
X90124642Y-21709261D01*
X90172261Y-21661642D01*
X81837833Y-32123380D02*
X81837833Y-32837666D01*
X81885452Y-32980523D01*
X81980690Y-33075761D01*
X82123547Y-33123380D01*
X82218785Y-33123380D01*
X81456880Y-32123380D02*
X80837833Y-32123380D01*
X81171166Y-32504333D01*
X81028309Y-32504333D01*
X80933071Y-32551952D01*
X80885452Y-32599571D01*
X80837833Y-32694809D01*
X80837833Y-32932904D01*
X80885452Y-33028142D01*
X80933071Y-33075761D01*
X81028309Y-33123380D01*
X81314023Y-33123380D01*
X81409261Y-33075761D01*
X81456880Y-33028142D01*
D13*
X141410523Y-8006666D02*
X142317666Y-8006666D01*
X142499095Y-7946190D01*
X142620047Y-7825238D01*
X142680523Y-7643809D01*
X142680523Y-7522857D01*
X141954809Y-8792857D02*
X141894333Y-8671904D01*
X141833857Y-8611428D01*
X141712904Y-8550952D01*
X141652428Y-8550952D01*
X141531476Y-8611428D01*
X141471000Y-8671904D01*
X141410523Y-8792857D01*
X141410523Y-9034761D01*
X141471000Y-9155714D01*
X141531476Y-9216190D01*
X141652428Y-9276666D01*
X141712904Y-9276666D01*
X141833857Y-9216190D01*
X141894333Y-9155714D01*
X141954809Y-9034761D01*
X141954809Y-8792857D01*
X142015285Y-8671904D01*
X142075761Y-8611428D01*
X142196714Y-8550952D01*
X142438619Y-8550952D01*
X142559571Y-8611428D01*
X142620047Y-8671904D01*
X142680523Y-8792857D01*
X142680523Y-9034761D01*
X142620047Y-9155714D01*
X142559571Y-9216190D01*
X142438619Y-9276666D01*
X142196714Y-9276666D01*
X142075761Y-9216190D01*
X142015285Y-9155714D01*
X141954809Y-9034761D01*
D10*
X112127333Y3944620D02*
X112127333Y3230334D01*
X112174952Y3087477D01*
X112270190Y2992239D01*
X112413047Y2944620D01*
X112508285Y2944620D01*
X111127333Y2944620D02*
X111698761Y2944620D01*
X111413047Y2944620D02*
X111413047Y3944620D01*
X111508285Y3801762D01*
X111603523Y3706524D01*
X111698761Y3658905D01*
X137391904Y-5394285D02*
X138039523Y-5394285D01*
X138115714Y-5432380D01*
X138153809Y-5470476D01*
X138191904Y-5546666D01*
X138191904Y-5699047D01*
X138153809Y-5775238D01*
X138115714Y-5813333D01*
X138039523Y-5851428D01*
X137391904Y-5851428D01*
X138153809Y-6194285D02*
X138191904Y-6308571D01*
X138191904Y-6499047D01*
X138153809Y-6575238D01*
X138115714Y-6613333D01*
X138039523Y-6651428D01*
X137963333Y-6651428D01*
X137887142Y-6613333D01*
X137849047Y-6575238D01*
X137810952Y-6499047D01*
X137772857Y-6346666D01*
X137734761Y-6270476D01*
X137696666Y-6232380D01*
X137620476Y-6194285D01*
X137544285Y-6194285D01*
X137468095Y-6232380D01*
X137430000Y-6270476D01*
X137391904Y-6346666D01*
X137391904Y-6537142D01*
X137430000Y-6651428D01*
X137772857Y-7260952D02*
X137810952Y-7375238D01*
X137849047Y-7413333D01*
X137925238Y-7451428D01*
X138039523Y-7451428D01*
X138115714Y-7413333D01*
X138153809Y-7375238D01*
X138191904Y-7299047D01*
X138191904Y-6994285D01*
X137391904Y-6994285D01*
X137391904Y-7260952D01*
X137430000Y-7337142D01*
X137468095Y-7375238D01*
X137544285Y-7413333D01*
X137620476Y-7413333D01*
X137696666Y-7375238D01*
X137734761Y-7337142D01*
X137772857Y-7260952D01*
X137772857Y-6994285D01*
X138191904Y-8403809D02*
X137391904Y-8403809D01*
X137391904Y-8708571D01*
X137430000Y-8784761D01*
X137468095Y-8822857D01*
X137544285Y-8860952D01*
X137658571Y-8860952D01*
X137734761Y-8822857D01*
X137772857Y-8784761D01*
X137810952Y-8708571D01*
X137810952Y-8403809D01*
X138191904Y-9318095D02*
X138153809Y-9241904D01*
X138115714Y-9203809D01*
X138039523Y-9165714D01*
X137810952Y-9165714D01*
X137734761Y-9203809D01*
X137696666Y-9241904D01*
X137658571Y-9318095D01*
X137658571Y-9432380D01*
X137696666Y-9508571D01*
X137734761Y-9546666D01*
X137810952Y-9584761D01*
X138039523Y-9584761D01*
X138115714Y-9546666D01*
X138153809Y-9508571D01*
X138191904Y-9432380D01*
X138191904Y-9318095D01*
X137658571Y-9851428D02*
X138191904Y-10003809D01*
X137810952Y-10156190D01*
X138191904Y-10308571D01*
X137658571Y-10460952D01*
X138153809Y-11070476D02*
X138191904Y-10994285D01*
X138191904Y-10841904D01*
X138153809Y-10765714D01*
X138077619Y-10727619D01*
X137772857Y-10727619D01*
X137696666Y-10765714D01*
X137658571Y-10841904D01*
X137658571Y-10994285D01*
X137696666Y-11070476D01*
X137772857Y-11108571D01*
X137849047Y-11108571D01*
X137925238Y-10727619D01*
X138191904Y-11451428D02*
X137658571Y-11451428D01*
X137810952Y-11451428D02*
X137734761Y-11489523D01*
X137696666Y-11527619D01*
X137658571Y-11603809D01*
X137658571Y-11680000D01*
X132025333Y-33028380D02*
X132025333Y-33742666D01*
X132072952Y-33885523D01*
X132168190Y-33980761D01*
X132311047Y-34028380D01*
X132406285Y-34028380D01*
X131120571Y-33028380D02*
X131311047Y-33028380D01*
X131406285Y-33076000D01*
X131453904Y-33123619D01*
X131549142Y-33266476D01*
X131596761Y-33456952D01*
X131596761Y-33837904D01*
X131549142Y-33933142D01*
X131501523Y-33980761D01*
X131406285Y-34028380D01*
X131215809Y-34028380D01*
X131120571Y-33980761D01*
X131072952Y-33933142D01*
X131025333Y-33837904D01*
X131025333Y-33599809D01*
X131072952Y-33504571D01*
X131120571Y-33456952D01*
X131215809Y-33409333D01*
X131406285Y-33409333D01*
X131501523Y-33456952D01*
X131549142Y-33504571D01*
X131596761Y-33599809D01*
D14*
X115112261Y-4966761D02*
X115659880Y-4014380D01*
X116255119Y-4966761D02*
X116005119Y-2966761D01*
X115243214Y-2966761D01*
X115064642Y-3062000D01*
X114981309Y-3157238D01*
X114909880Y-3347714D01*
X114945595Y-3633428D01*
X115064642Y-3823904D01*
X115171785Y-3919142D01*
X115374166Y-4014380D01*
X116136071Y-4014380D01*
X113397976Y-4966761D02*
X113267023Y-3919142D01*
X113338452Y-3728666D01*
X113517023Y-3633428D01*
X113897976Y-3633428D01*
X114100357Y-3728666D01*
X113386071Y-4871523D02*
X113588452Y-4966761D01*
X114064642Y-4966761D01*
X114243214Y-4871523D01*
X114314642Y-4681047D01*
X114290833Y-4490571D01*
X114171785Y-4300095D01*
X113969404Y-4204857D01*
X113493214Y-4204857D01*
X113290833Y-4109619D01*
X112528928Y-4871523D02*
X112255119Y-4966761D01*
X111778928Y-4966761D01*
X111576547Y-4871523D01*
X111469404Y-4776285D01*
X111350357Y-4585809D01*
X111326547Y-4395333D01*
X111397976Y-4204857D01*
X111481309Y-4109619D01*
X111659880Y-4014380D01*
X112028928Y-3919142D01*
X112207500Y-3823904D01*
X112290833Y-3728666D01*
X112362261Y-3538190D01*
X112338452Y-3347714D01*
X112219404Y-3157238D01*
X112112261Y-3062000D01*
X111909880Y-2966761D01*
X111433690Y-2966761D01*
X111159880Y-3062000D01*
X109374166Y-4776285D02*
X109481309Y-4871523D01*
X109778928Y-4966761D01*
X109969404Y-4966761D01*
X110243214Y-4871523D01*
X110409880Y-4681047D01*
X110481309Y-4490571D01*
X110528928Y-4109619D01*
X110493214Y-3823904D01*
X110350357Y-3442952D01*
X110231309Y-3252476D01*
X110017023Y-3062000D01*
X109719404Y-2966761D01*
X109528928Y-2966761D01*
X109255119Y-3062000D01*
X109171785Y-3157238D01*
X108624166Y-4871523D02*
X108350357Y-4966761D01*
X107874166Y-4966761D01*
X107671785Y-4871523D01*
X107564642Y-4776285D01*
X107445595Y-4585809D01*
X107421785Y-4395333D01*
X107493214Y-4204857D01*
X107576547Y-4109619D01*
X107755119Y-4014380D01*
X108124166Y-3919142D01*
X108302738Y-3823904D01*
X108386071Y-3728666D01*
X108457500Y-3538190D01*
X108433690Y-3347714D01*
X108314642Y-3157238D01*
X108207500Y-3062000D01*
X108005119Y-2966761D01*
X107528928Y-2966761D01*
X107255119Y-3062000D01*
X106636071Y-4966761D02*
X106386071Y-2966761D01*
D10*
X117785095Y-1609380D02*
X117975571Y-1609380D01*
X118070809Y-1657000D01*
X118118428Y-1704619D01*
X118213666Y-1847476D01*
X118261285Y-2037952D01*
X118261285Y-2418904D01*
X118213666Y-2514142D01*
X118166047Y-2561761D01*
X118070809Y-2609380D01*
X117880333Y-2609380D01*
X117785095Y-2561761D01*
X117737476Y-2514142D01*
X117689857Y-2418904D01*
X117689857Y-2180809D01*
X117737476Y-2085571D01*
X117785095Y-2037952D01*
X117880333Y-1990333D01*
X118070809Y-1990333D01*
X118166047Y-2037952D01*
X118213666Y-2085571D01*
X118261285Y-2180809D01*
X117118428Y-2037952D02*
X117213666Y-1990333D01*
X117261285Y-1942714D01*
X117308904Y-1847476D01*
X117308904Y-1799857D01*
X117261285Y-1704619D01*
X117213666Y-1657000D01*
X117118428Y-1609380D01*
X116927952Y-1609380D01*
X116832714Y-1657000D01*
X116785095Y-1704619D01*
X116737476Y-1799857D01*
X116737476Y-1847476D01*
X116785095Y-1942714D01*
X116832714Y-1990333D01*
X116927952Y-2037952D01*
X117118428Y-2037952D01*
X117213666Y-2085571D01*
X117261285Y-2133190D01*
X117308904Y-2228428D01*
X117308904Y-2418904D01*
X117261285Y-2514142D01*
X117213666Y-2561761D01*
X117118428Y-2609380D01*
X116927952Y-2609380D01*
X116832714Y-2561761D01*
X116785095Y-2514142D01*
X116737476Y-2418904D01*
X116737476Y-2228428D01*
X116785095Y-2133190D01*
X116832714Y-2085571D01*
X116927952Y-2037952D01*
X116308904Y-2609380D02*
X116308904Y-1609380D01*
X116213666Y-2228428D02*
X115927952Y-2609380D01*
X115927952Y-1942714D02*
X116308904Y-2323666D01*
X115499380Y-2609380D02*
X115499380Y-1942714D01*
X115499380Y-2037952D02*
X115451761Y-1990333D01*
X115356523Y-1942714D01*
X115213666Y-1942714D01*
X115118428Y-1990333D01*
X115070809Y-2085571D01*
X115070809Y-2609380D01*
X115070809Y-2085571D02*
X115023190Y-1990333D01*
X114927952Y-1942714D01*
X114785095Y-1942714D01*
X114689857Y-1990333D01*
X114642238Y-2085571D01*
X114642238Y-2609380D01*
X114023190Y-2609380D02*
X114118428Y-2561761D01*
X114166047Y-2466523D01*
X114166047Y-1609380D01*
X113213666Y-2609380D02*
X113213666Y-2085571D01*
X113261285Y-1990333D01*
X113356523Y-1942714D01*
X113547000Y-1942714D01*
X113642238Y-1990333D01*
X113213666Y-2561761D02*
X113308904Y-2609380D01*
X113547000Y-2609380D01*
X113642238Y-2561761D01*
X113689857Y-2466523D01*
X113689857Y-2371285D01*
X113642238Y-2276047D01*
X113547000Y-2228428D01*
X113308904Y-2228428D01*
X113213666Y-2180809D01*
X112118428Y-1609380D02*
X111785095Y-2609380D01*
X111451761Y-1609380D01*
X110737476Y-2561761D02*
X110832714Y-2609380D01*
X111023190Y-2609380D01*
X111118428Y-2561761D01*
X111166047Y-2466523D01*
X111166047Y-2085571D01*
X111118428Y-1990333D01*
X111023190Y-1942714D01*
X110832714Y-1942714D01*
X110737476Y-1990333D01*
X110689857Y-2085571D01*
X110689857Y-2180809D01*
X111166047Y-2276047D01*
X110261285Y-2609380D02*
X110261285Y-1942714D01*
X110261285Y-2133190D02*
X110213666Y-2037952D01*
X110166047Y-1990333D01*
X110070809Y-1942714D01*
X109975571Y-1942714D01*
X109689857Y-2561761D02*
X109594619Y-2609380D01*
X109404142Y-2609380D01*
X109308904Y-2561761D01*
X109261285Y-2466523D01*
X109261285Y-2418904D01*
X109308904Y-2323666D01*
X109404142Y-2276047D01*
X109547000Y-2276047D01*
X109642238Y-2228428D01*
X109689857Y-2133190D01*
X109689857Y-2085571D01*
X109642238Y-1990333D01*
X109547000Y-1942714D01*
X109404142Y-1942714D01*
X109308904Y-1990333D01*
X108832714Y-2609380D02*
X108832714Y-1942714D01*
X108832714Y-1609380D02*
X108880333Y-1657000D01*
X108832714Y-1704619D01*
X108785095Y-1657000D01*
X108832714Y-1609380D01*
X108832714Y-1704619D01*
X108213666Y-2609380D02*
X108308904Y-2561761D01*
X108356523Y-2514142D01*
X108404142Y-2418904D01*
X108404142Y-2133190D01*
X108356523Y-2037952D01*
X108308904Y-1990333D01*
X108213666Y-1942714D01*
X108070809Y-1942714D01*
X107975571Y-1990333D01*
X107927952Y-2037952D01*
X107880333Y-2133190D01*
X107880333Y-2418904D01*
X107927952Y-2514142D01*
X107975571Y-2561761D01*
X108070809Y-2609380D01*
X108213666Y-2609380D01*
X107451761Y-1942714D02*
X107451761Y-2609380D01*
X107451761Y-2037952D02*
X107404142Y-1990333D01*
X107308904Y-1942714D01*
X107166047Y-1942714D01*
X107070809Y-1990333D01*
X107023190Y-2085571D01*
X107023190Y-2609380D01*
X105832714Y-1704619D02*
X105785095Y-1657000D01*
X105689857Y-1609380D01*
X105451761Y-1609380D01*
X105356523Y-1657000D01*
X105308904Y-1704619D01*
X105261285Y-1799857D01*
X105261285Y-1895095D01*
X105308904Y-2037952D01*
X105880333Y-2609380D01*
X105261285Y-2609380D01*
X104832714Y-2514142D02*
X104785095Y-2561761D01*
X104832714Y-2609380D01*
X104880333Y-2561761D01*
X104832714Y-2514142D01*
X104832714Y-2609380D01*
X103880333Y-1609380D02*
X104356523Y-1609380D01*
X104404142Y-2085571D01*
X104356523Y-2037952D01*
X104261285Y-1990333D01*
X104023190Y-1990333D01*
X103927952Y-2037952D01*
X103880333Y-2085571D01*
X103832714Y-2180809D01*
X103832714Y-2418904D01*
X103880333Y-2514142D01*
X103927952Y-2561761D01*
X104023190Y-2609380D01*
X104261285Y-2609380D01*
X104356523Y-2561761D01*
X104404142Y-2514142D01*
D11*
X119492500Y-5967000D02*
X119492500Y-887000D01*
X119429000Y-887000D02*
X102474500Y-887000D01*
X103046000Y-1268000D02*
X119048000Y-1268000D01*
X103046000Y-1268000D02*
X102982500Y-1268000D01*
X119048000Y-5586000D02*
X102982500Y-5586000D01*
X102982500Y-5586000D02*
X102982500Y-1331500D01*
X119048000Y-1268000D02*
X119048000Y-5586000D01*
X119492500Y-5967000D02*
X102474500Y-5967000D01*
X102982500Y-1268000D02*
X102982500Y-1522000D01*
X102474500Y-887000D02*
X102474500Y-5967000D01*
D10*
X137549523Y2717500D02*
X137625714Y2755596D01*
X137740000Y2755596D01*
X137854285Y2717500D01*
X137930476Y2641310D01*
X137968571Y2565120D01*
X138006666Y2412739D01*
X138006666Y2298453D01*
X137968571Y2146072D01*
X137930476Y2069881D01*
X137854285Y1993691D01*
X137740000Y1955596D01*
X137663809Y1955596D01*
X137549523Y1993691D01*
X137511428Y2031786D01*
X137511428Y2298453D01*
X137663809Y2298453D01*
X137168571Y1955596D02*
X137168571Y2755596D01*
X136711428Y1955596D01*
X136711428Y2755596D01*
X136330476Y1955596D02*
X136330476Y2755596D01*
X136140000Y2755596D01*
X136025714Y2717500D01*
X135949523Y2641310D01*
X135911428Y2565120D01*
X135873333Y2412739D01*
X135873333Y2298453D01*
X135911428Y2146072D01*
X135949523Y2069881D01*
X136025714Y1993691D01*
X136140000Y1955596D01*
X136330476Y1955596D01*
X137533714Y-673333D02*
X137152761Y-673333D01*
X137609904Y-901904D02*
X137343238Y-101904D01*
X137076571Y-901904D01*
X136352761Y-825714D02*
X136390857Y-863809D01*
X136505142Y-901904D01*
X136581333Y-901904D01*
X136695619Y-863809D01*
X136771809Y-787619D01*
X136809904Y-711428D01*
X136848000Y-559047D01*
X136848000Y-444761D01*
X136809904Y-292380D01*
X136771809Y-216190D01*
X136695619Y-140000D01*
X136581333Y-101904D01*
X136505142Y-101904D01*
X136390857Y-140000D01*
X136352761Y-178095D01*
X136124190Y-101904D02*
X135667047Y-101904D01*
X135895619Y-901904D02*
X135895619Y-101904D01*
X134409904Y-901904D02*
X134790857Y-901904D01*
X134790857Y-101904D01*
X134143238Y-482857D02*
X133876571Y-482857D01*
X133762285Y-901904D02*
X134143238Y-901904D01*
X134143238Y-101904D01*
X133762285Y-101904D01*
X133419428Y-901904D02*
X133419428Y-101904D01*
X133228952Y-101904D01*
X133114666Y-140000D01*
X133038476Y-216190D01*
X133000380Y-292380D01*
X132962285Y-444761D01*
X132962285Y-559047D01*
X133000380Y-711428D01*
X133038476Y-787619D01*
X133114666Y-863809D01*
X133228952Y-901904D01*
X133419428Y-901904D01*
D11*
X94943000Y-55963000D02*
X94879500Y-55963000D01*
X94879500Y-55963000D02*
X94879500Y-56217000D01*
X109737000Y-5154000D02*
X109864000Y-5154000D01*
X128304000Y-35973000D02*
X130717000Y-35973000D01*
X130717000Y-35973000D02*
X130717000Y-33687000D01*
X128177000Y-36100000D02*
X130844000Y-36100000D01*
X130844000Y-36100000D02*
X130844000Y-33560000D01*
X144560000Y-31528000D02*
X83473000Y-31528000D01*
X144560000Y-26321000D02*
X144560000Y-31528000D01*
X80933000Y-26321000D02*
X144560000Y-26321000D01*
X80933000Y-28988000D02*
X80933000Y-26321000D01*
X83473000Y-28988000D02*
X80933000Y-28988000D01*
X83473000Y-31528000D02*
X83473000Y-28988000D01*
X80933000Y-31528000D02*
X82330000Y-31528000D01*
X80933000Y-30131000D02*
X80933000Y-31528000D01*
D10*
X91131023Y-22682500D02*
X91207214Y-22644404D01*
X91321500Y-22644404D01*
X91435785Y-22682500D01*
X91511976Y-22758690D01*
X91550071Y-22834880D01*
X91588166Y-22987261D01*
X91588166Y-23101547D01*
X91550071Y-23253928D01*
X91511976Y-23330119D01*
X91435785Y-23406309D01*
X91321500Y-23444404D01*
X91245309Y-23444404D01*
X91131023Y-23406309D01*
X91092928Y-23368214D01*
X91092928Y-23101547D01*
X91245309Y-23101547D01*
X90750071Y-23444404D02*
X90750071Y-22644404D01*
X90292928Y-23444404D01*
X90292928Y-22644404D01*
X89911976Y-23444404D02*
X89911976Y-22644404D01*
X89721500Y-22644404D01*
X89607214Y-22682500D01*
X89531023Y-22758690D01*
X89492928Y-22834880D01*
X89454833Y-22987261D01*
X89454833Y-23101547D01*
X89492928Y-23253928D01*
X89531023Y-23330119D01*
X89607214Y-23406309D01*
X89721500Y-23444404D01*
X89911976Y-23444404D01*
D11*
X81123500Y-24098500D02*
X81123500Y-23971500D01*
X92807500Y-24098500D02*
X81123500Y-24098500D01*
X92807500Y-22066500D02*
X92807500Y-24098500D01*
X81123500Y-22066500D02*
X92807500Y-22066500D01*
X81123500Y-23971500D02*
X81123500Y-22066500D01*
X82457000Y-12478000D02*
X83854000Y-12478000D01*
X82457000Y-10954000D02*
X82457000Y-12478000D01*
D10*
X87619500Y-17786452D02*
X87657595Y-17862642D01*
X87657595Y-17976928D01*
X87619500Y-18091214D01*
X87543309Y-18167404D01*
X87467119Y-18205500D01*
X87314738Y-18243595D01*
X87200452Y-18243595D01*
X87048071Y-18205500D01*
X86971880Y-18167404D01*
X86895690Y-18091214D01*
X86857595Y-17976928D01*
X86857595Y-17900738D01*
X86895690Y-17786452D01*
X86933785Y-17748357D01*
X87200452Y-17748357D01*
X87200452Y-17900738D01*
X86857595Y-17405500D02*
X87657595Y-17405500D01*
X87657595Y-17100738D01*
X87619500Y-17024547D01*
X87581404Y-16986452D01*
X87505214Y-16948357D01*
X87390928Y-16948357D01*
X87314738Y-16986452D01*
X87276642Y-17024547D01*
X87238547Y-17100738D01*
X87238547Y-17405500D01*
X86857595Y-16605500D02*
X87657595Y-16605500D01*
X87657595Y-16072166D02*
X87657595Y-15919785D01*
X87619500Y-15843595D01*
X87543309Y-15767404D01*
X87390928Y-15729309D01*
X87124261Y-15729309D01*
X86971880Y-15767404D01*
X86895690Y-15843595D01*
X86857595Y-15919785D01*
X86857595Y-16072166D01*
X86895690Y-16148357D01*
X86971880Y-16224547D01*
X87124261Y-16262642D01*
X87390928Y-16262642D01*
X87543309Y-16224547D01*
X87619500Y-16148357D01*
X87657595Y-16072166D01*
X86857595Y-15348357D02*
X86857595Y-15195976D01*
X86895690Y-15119785D01*
X86933785Y-15081690D01*
X87048071Y-15005500D01*
X87200452Y-14967404D01*
X87505214Y-14967404D01*
X87581404Y-15005500D01*
X87619500Y-15043595D01*
X87657595Y-15119785D01*
X87657595Y-15272166D01*
X87619500Y-15348357D01*
X87581404Y-15386452D01*
X87505214Y-15424547D01*
X87314738Y-15424547D01*
X87238547Y-15386452D01*
X87200452Y-15348357D01*
X87162357Y-15272166D01*
X87162357Y-15119785D01*
X87200452Y-15043595D01*
X87238547Y-15005500D01*
X87314738Y-14967404D01*
X88826000Y-17786452D02*
X88864095Y-17862642D01*
X88864095Y-17976928D01*
X88826000Y-18091214D01*
X88749809Y-18167404D01*
X88673619Y-18205500D01*
X88521238Y-18243595D01*
X88406952Y-18243595D01*
X88254571Y-18205500D01*
X88178380Y-18167404D01*
X88102190Y-18091214D01*
X88064095Y-17976928D01*
X88064095Y-17900738D01*
X88102190Y-17786452D01*
X88140285Y-17748357D01*
X88406952Y-17748357D01*
X88406952Y-17900738D01*
X88064095Y-17405500D02*
X88864095Y-17405500D01*
X88864095Y-17100738D01*
X88826000Y-17024547D01*
X88787904Y-16986452D01*
X88711714Y-16948357D01*
X88597428Y-16948357D01*
X88521238Y-16986452D01*
X88483142Y-17024547D01*
X88445047Y-17100738D01*
X88445047Y-17405500D01*
X88064095Y-16605500D02*
X88864095Y-16605500D01*
X88864095Y-16072166D02*
X88864095Y-15919785D01*
X88826000Y-15843595D01*
X88749809Y-15767404D01*
X88597428Y-15729309D01*
X88330761Y-15729309D01*
X88178380Y-15767404D01*
X88102190Y-15843595D01*
X88064095Y-15919785D01*
X88064095Y-16072166D01*
X88102190Y-16148357D01*
X88178380Y-16224547D01*
X88330761Y-16262642D01*
X88597428Y-16262642D01*
X88749809Y-16224547D01*
X88826000Y-16148357D01*
X88864095Y-16072166D01*
X88064095Y-14967404D02*
X88064095Y-15424547D01*
X88064095Y-15195976D02*
X88864095Y-15195976D01*
X88749809Y-15272166D01*
X88673619Y-15348357D01*
X88635523Y-15424547D01*
X89905500Y-17849952D02*
X89943595Y-17926142D01*
X89943595Y-18040428D01*
X89905500Y-18154714D01*
X89829309Y-18230904D01*
X89753119Y-18269000D01*
X89600738Y-18307095D01*
X89486452Y-18307095D01*
X89334071Y-18269000D01*
X89257880Y-18230904D01*
X89181690Y-18154714D01*
X89143595Y-18040428D01*
X89143595Y-17964238D01*
X89181690Y-17849952D01*
X89219785Y-17811857D01*
X89486452Y-17811857D01*
X89486452Y-17964238D01*
X89143595Y-17469000D02*
X89943595Y-17469000D01*
X89943595Y-17164238D01*
X89905500Y-17088047D01*
X89867404Y-17049952D01*
X89791214Y-17011857D01*
X89676928Y-17011857D01*
X89600738Y-17049952D01*
X89562642Y-17088047D01*
X89524547Y-17164238D01*
X89524547Y-17469000D01*
X89143595Y-16669000D02*
X89943595Y-16669000D01*
X89943595Y-16135666D02*
X89943595Y-15983285D01*
X89905500Y-15907095D01*
X89829309Y-15830904D01*
X89676928Y-15792809D01*
X89410261Y-15792809D01*
X89257880Y-15830904D01*
X89181690Y-15907095D01*
X89143595Y-15983285D01*
X89143595Y-16135666D01*
X89181690Y-16211857D01*
X89257880Y-16288047D01*
X89410261Y-16326142D01*
X89676928Y-16326142D01*
X89829309Y-16288047D01*
X89905500Y-16211857D01*
X89943595Y-16135666D01*
X89943595Y-15297571D02*
X89943595Y-15221380D01*
X89905500Y-15145190D01*
X89867404Y-15107095D01*
X89791214Y-15069000D01*
X89638833Y-15030904D01*
X89448357Y-15030904D01*
X89295976Y-15069000D01*
X89219785Y-15107095D01*
X89181690Y-15145190D01*
X89143595Y-15221380D01*
X89143595Y-15297571D01*
X89181690Y-15373761D01*
X89219785Y-15411857D01*
X89295976Y-15449952D01*
X89448357Y-15488047D01*
X89638833Y-15488047D01*
X89791214Y-15449952D01*
X89867404Y-15411857D01*
X89905500Y-15373761D01*
X89943595Y-15297571D01*
X82260095Y-11322285D02*
X82260095Y-11703238D01*
X81879142Y-11741333D01*
X81917238Y-11703238D01*
X81955333Y-11627047D01*
X81955333Y-11436571D01*
X81917238Y-11360380D01*
X81879142Y-11322285D01*
X81802952Y-11284190D01*
X81612476Y-11284190D01*
X81536285Y-11322285D01*
X81498190Y-11360380D01*
X81460095Y-11436571D01*
X81460095Y-11627047D01*
X81498190Y-11703238D01*
X81536285Y-11741333D01*
X81993428Y-11017523D02*
X81460095Y-10827047D01*
X81993428Y-10636571D01*
X82222000Y-9277523D02*
X82260095Y-9353714D01*
X82260095Y-9468000D01*
X82222000Y-9582285D01*
X82145809Y-9658476D01*
X82069619Y-9696571D01*
X81917238Y-9734666D01*
X81802952Y-9734666D01*
X81650571Y-9696571D01*
X81574380Y-9658476D01*
X81498190Y-9582285D01*
X81460095Y-9468000D01*
X81460095Y-9391809D01*
X81498190Y-9277523D01*
X81536285Y-9239428D01*
X81802952Y-9239428D01*
X81802952Y-9391809D01*
X81460095Y-8896571D02*
X82260095Y-8896571D01*
X81460095Y-8439428D01*
X82260095Y-8439428D01*
X81460095Y-8058476D02*
X82260095Y-8058476D01*
X82260095Y-7868000D01*
X82222000Y-7753714D01*
X82145809Y-7677523D01*
X82069619Y-7639428D01*
X81917238Y-7601333D01*
X81802952Y-7601333D01*
X81650571Y-7639428D01*
X81574380Y-7677523D01*
X81498190Y-7753714D01*
X81460095Y-7868000D01*
X81460095Y-8058476D01*
X82260095Y-6966095D02*
X82260095Y-6470857D01*
X81955333Y-6737523D01*
X81955333Y-6623238D01*
X81917238Y-6547047D01*
X81879142Y-6508952D01*
X81802952Y-6470857D01*
X81612476Y-6470857D01*
X81536285Y-6508952D01*
X81498190Y-6547047D01*
X81460095Y-6623238D01*
X81460095Y-6851809D01*
X81498190Y-6928000D01*
X81536285Y-6966095D01*
X81536285Y-6128000D02*
X81498190Y-6089904D01*
X81460095Y-6128000D01*
X81498190Y-6166095D01*
X81536285Y-6128000D01*
X81460095Y-6128000D01*
X82260095Y-5823238D02*
X82260095Y-5328000D01*
X81955333Y-5594666D01*
X81955333Y-5480380D01*
X81917238Y-5404190D01*
X81879142Y-5366095D01*
X81802952Y-5328000D01*
X81612476Y-5328000D01*
X81536285Y-5366095D01*
X81498190Y-5404190D01*
X81460095Y-5480380D01*
X81460095Y-5708952D01*
X81498190Y-5785142D01*
X81536285Y-5823238D01*
X81498190Y-4286380D02*
X81460095Y-4172095D01*
X81460095Y-3981619D01*
X81498190Y-3905428D01*
X81536285Y-3867333D01*
X81612476Y-3829238D01*
X81688666Y-3829238D01*
X81764857Y-3867333D01*
X81802952Y-3905428D01*
X81841047Y-3981619D01*
X81879142Y-4134000D01*
X81917238Y-4210190D01*
X81955333Y-4248285D01*
X82031523Y-4286380D01*
X82107714Y-4286380D01*
X82183904Y-4248285D01*
X82222000Y-4210190D01*
X82260095Y-4134000D01*
X82260095Y-3943523D01*
X82222000Y-3829238D01*
X81536285Y-3029238D02*
X81498190Y-3067333D01*
X81460095Y-3181619D01*
X81460095Y-3257809D01*
X81498190Y-3372095D01*
X81574380Y-3448285D01*
X81650571Y-3486380D01*
X81802952Y-3524476D01*
X81917238Y-3524476D01*
X82069619Y-3486380D01*
X82145809Y-3448285D01*
X82222000Y-3372095D01*
X82260095Y-3257809D01*
X82260095Y-3181619D01*
X82222000Y-3067333D01*
X82183904Y-3029238D01*
X81460095Y-2305428D02*
X81460095Y-2686380D01*
X82260095Y-2686380D01*
X81498190Y-1765428D02*
X81460095Y-1651142D01*
X81460095Y-1460666D01*
X81498190Y-1384476D01*
X81536285Y-1346380D01*
X81612476Y-1308285D01*
X81688666Y-1308285D01*
X81764857Y-1346380D01*
X81802952Y-1384476D01*
X81841047Y-1460666D01*
X81879142Y-1613047D01*
X81917238Y-1689238D01*
X81955333Y-1727333D01*
X82031523Y-1765428D01*
X82107714Y-1765428D01*
X82183904Y-1727333D01*
X82222000Y-1689238D01*
X82260095Y-1613047D01*
X82260095Y-1422571D01*
X82222000Y-1308285D01*
X81460095Y-965428D02*
X82260095Y-965428D01*
X82260095Y-774952D01*
X82222000Y-660666D01*
X82145809Y-584476D01*
X82069619Y-546380D01*
X81917238Y-508285D01*
X81802952Y-508285D01*
X81650571Y-546380D01*
X81574380Y-584476D01*
X81498190Y-660666D01*
X81460095Y-774952D01*
X81460095Y-965428D01*
X81688666Y-203523D02*
X81688666Y177429D01*
X81460095Y-279714D02*
X82260095Y-13047D01*
X81460095Y253620D01*
X81872785Y4152596D02*
X82253738Y4152596D01*
X82291833Y3771643D01*
X82253738Y3809739D01*
X82177547Y3847834D01*
X81987071Y3847834D01*
X81910880Y3809739D01*
X81872785Y3771643D01*
X81834690Y3695453D01*
X81834690Y3504977D01*
X81872785Y3428786D01*
X81910880Y3390691D01*
X81987071Y3352596D01*
X82177547Y3352596D01*
X82253738Y3390691D01*
X82291833Y3428786D01*
X81568023Y3885929D02*
X81377547Y3352596D01*
X81187071Y3885929D01*
X86581523Y4416000D02*
X86657714Y4454096D01*
X86772000Y4454096D01*
X86886285Y4416000D01*
X86962476Y4339810D01*
X87000571Y4263620D01*
X87038666Y4111239D01*
X87038666Y3996953D01*
X87000571Y3844572D01*
X86962476Y3768381D01*
X86886285Y3692191D01*
X86772000Y3654096D01*
X86695809Y3654096D01*
X86581523Y3692191D01*
X86543428Y3730286D01*
X86543428Y3996953D01*
X86695809Y3996953D01*
X86200571Y3654096D02*
X86200571Y4454096D01*
X85743428Y3654096D01*
X85743428Y4454096D01*
X85362476Y3654096D02*
X85362476Y4454096D01*
X85172000Y4454096D01*
X85057714Y4416000D01*
X84981523Y4339810D01*
X84943428Y4263620D01*
X84905333Y4111239D01*
X84905333Y3996953D01*
X84943428Y3844572D01*
X84981523Y3768381D01*
X85057714Y3692191D01*
X85172000Y3654096D01*
X85362476Y3654096D01*
X122697333Y-8009761D02*
X122554476Y-8057380D01*
X122316380Y-8057380D01*
X122221142Y-8009761D01*
X122173523Y-7962142D01*
X122125904Y-7866904D01*
X122125904Y-7771666D01*
X122173523Y-7676428D01*
X122221142Y-7628809D01*
X122316380Y-7581190D01*
X122506857Y-7533571D01*
X122602095Y-7485952D01*
X122649714Y-7438333D01*
X122697333Y-7343095D01*
X122697333Y-7247857D01*
X122649714Y-7152619D01*
X122602095Y-7105000D01*
X122506857Y-7057380D01*
X122268761Y-7057380D01*
X122125904Y-7105000D01*
X121697333Y-7390714D02*
X121697333Y-8390714D01*
X121697333Y-7438333D02*
X121602095Y-7390714D01*
X121411619Y-7390714D01*
X121316380Y-7438333D01*
X121268761Y-7485952D01*
X121221142Y-7581190D01*
X121221142Y-7866904D01*
X121268761Y-7962142D01*
X121316380Y-8009761D01*
X121411619Y-8057380D01*
X121602095Y-8057380D01*
X121697333Y-8009761D01*
X120411619Y-8009761D02*
X120506857Y-8057380D01*
X120697333Y-8057380D01*
X120792571Y-8009761D01*
X120840190Y-7914523D01*
X120840190Y-7533571D01*
X120792571Y-7438333D01*
X120697333Y-7390714D01*
X120506857Y-7390714D01*
X120411619Y-7438333D01*
X120364000Y-7533571D01*
X120364000Y-7628809D01*
X120840190Y-7724047D01*
X119506857Y-8009761D02*
X119602095Y-8057380D01*
X119792571Y-8057380D01*
X119887809Y-8009761D01*
X119935428Y-7962142D01*
X119983047Y-7866904D01*
X119983047Y-7581190D01*
X119935428Y-7485952D01*
X119887809Y-7438333D01*
X119792571Y-7390714D01*
X119602095Y-7390714D01*
X119506857Y-7438333D01*
X119078285Y-8057380D02*
X119078285Y-7390714D01*
X119078285Y-7057380D02*
X119125904Y-7105000D01*
X119078285Y-7152619D01*
X119030666Y-7105000D01*
X119078285Y-7057380D01*
X119078285Y-7152619D01*
X118173523Y-8057380D02*
X118173523Y-7533571D01*
X118221142Y-7438333D01*
X118316380Y-7390714D01*
X118506857Y-7390714D01*
X118602095Y-7438333D01*
X118173523Y-8009761D02*
X118268761Y-8057380D01*
X118506857Y-8057380D01*
X118602095Y-8009761D01*
X118649714Y-7914523D01*
X118649714Y-7819285D01*
X118602095Y-7724047D01*
X118506857Y-7676428D01*
X118268761Y-7676428D01*
X118173523Y-7628809D01*
X117554476Y-8057380D02*
X117649714Y-8009761D01*
X117697333Y-7914523D01*
X117697333Y-7057380D01*
X116554476Y-7390714D02*
X116173523Y-7390714D01*
X116411619Y-7057380D02*
X116411619Y-7914523D01*
X116364000Y-8009761D01*
X116268761Y-8057380D01*
X116173523Y-8057380D01*
X115840190Y-8057380D02*
X115840190Y-7057380D01*
X115411619Y-8057380D02*
X115411619Y-7533571D01*
X115459238Y-7438333D01*
X115554476Y-7390714D01*
X115697333Y-7390714D01*
X115792571Y-7438333D01*
X115840190Y-7485952D01*
X114506857Y-8057380D02*
X114506857Y-7533571D01*
X114554476Y-7438333D01*
X114649714Y-7390714D01*
X114840190Y-7390714D01*
X114935428Y-7438333D01*
X114506857Y-8009761D02*
X114602095Y-8057380D01*
X114840190Y-8057380D01*
X114935428Y-8009761D01*
X114983047Y-7914523D01*
X114983047Y-7819285D01*
X114935428Y-7724047D01*
X114840190Y-7676428D01*
X114602095Y-7676428D01*
X114506857Y-7628809D01*
X114030666Y-7390714D02*
X114030666Y-8057380D01*
X114030666Y-7485952D02*
X113983047Y-7438333D01*
X113887809Y-7390714D01*
X113744952Y-7390714D01*
X113649714Y-7438333D01*
X113602095Y-7533571D01*
X113602095Y-8057380D01*
X113125904Y-8057380D02*
X113125904Y-7057380D01*
X113030666Y-7676428D02*
X112744952Y-8057380D01*
X112744952Y-7390714D02*
X113125904Y-7771666D01*
X112364000Y-8009761D02*
X112268761Y-8057380D01*
X112078285Y-8057380D01*
X111983047Y-8009761D01*
X111935428Y-7914523D01*
X111935428Y-7866904D01*
X111983047Y-7771666D01*
X112078285Y-7724047D01*
X112221142Y-7724047D01*
X112316380Y-7676428D01*
X112364000Y-7581190D01*
X112364000Y-7533571D01*
X112316380Y-7438333D01*
X112221142Y-7390714D01*
X112078285Y-7390714D01*
X111983047Y-7438333D01*
X110887809Y-7390714D02*
X110506857Y-7390714D01*
X110744952Y-7057380D02*
X110744952Y-7914523D01*
X110697333Y-8009761D01*
X110602095Y-8057380D01*
X110506857Y-8057380D01*
X110030666Y-8057380D02*
X110125904Y-8009761D01*
X110173523Y-7962142D01*
X110221142Y-7866904D01*
X110221142Y-7581190D01*
X110173523Y-7485952D01*
X110125904Y-7438333D01*
X110030666Y-7390714D01*
X109887809Y-7390714D01*
X109792571Y-7438333D01*
X109744952Y-7485952D01*
X109697333Y-7581190D01*
X109697333Y-7866904D01*
X109744952Y-7962142D01*
X109792571Y-8009761D01*
X109887809Y-8057380D01*
X110030666Y-8057380D01*
X107983047Y-7105000D02*
X108078285Y-7057380D01*
X108221142Y-7057380D01*
X108364000Y-7105000D01*
X108459238Y-7200238D01*
X108506857Y-7295476D01*
X108554476Y-7485952D01*
X108554476Y-7628809D01*
X108506857Y-7819285D01*
X108459238Y-7914523D01*
X108364000Y-8009761D01*
X108221142Y-8057380D01*
X108125904Y-8057380D01*
X107983047Y-8009761D01*
X107935428Y-7962142D01*
X107935428Y-7628809D01*
X108125904Y-7628809D01*
X107506857Y-8057380D02*
X107506857Y-7057380D01*
X107030666Y-8057380D02*
X107030666Y-7057380D01*
X106697333Y-7771666D01*
X106364000Y-7057380D01*
X106364000Y-8057380D01*
X105697333Y-7057380D02*
X105506857Y-7057380D01*
X105411619Y-7105000D01*
X105316380Y-7200238D01*
X105268761Y-7390714D01*
X105268761Y-7724047D01*
X105316380Y-7914523D01*
X105411619Y-8009761D01*
X105506857Y-8057380D01*
X105697333Y-8057380D01*
X105792571Y-8009761D01*
X105887809Y-7914523D01*
X105935428Y-7724047D01*
X105935428Y-7390714D01*
X105887809Y-7200238D01*
X105792571Y-7105000D01*
X105697333Y-7057380D01*
X104840190Y-8057380D02*
X104840190Y-7057380D01*
X104268761Y-8057380D01*
X104268761Y-7057380D01*
X103840190Y-8009761D02*
X103697333Y-8057380D01*
X103459238Y-8057380D01*
X103364000Y-8009761D01*
X103316380Y-7962142D01*
X103268761Y-7866904D01*
X103268761Y-7771666D01*
X103316380Y-7676428D01*
X103364000Y-7628809D01*
X103459238Y-7581190D01*
X103649714Y-7533571D01*
X103744952Y-7485952D01*
X103792571Y-7438333D01*
X103840190Y-7343095D01*
X103840190Y-7247857D01*
X103792571Y-7152619D01*
X103744952Y-7105000D01*
X103649714Y-7057380D01*
X103411619Y-7057380D01*
X103268761Y-7105000D01*
X101649714Y-8057380D02*
X101649714Y-7533571D01*
X101697333Y-7438333D01*
X101792571Y-7390714D01*
X101983047Y-7390714D01*
X102078285Y-7438333D01*
X101649714Y-8009761D02*
X101744952Y-8057380D01*
X101983047Y-8057380D01*
X102078285Y-8009761D01*
X102125904Y-7914523D01*
X102125904Y-7819285D01*
X102078285Y-7724047D01*
X101983047Y-7676428D01*
X101744952Y-7676428D01*
X101649714Y-7628809D01*
X101173523Y-7390714D02*
X101173523Y-8057380D01*
X101173523Y-7485952D02*
X101125904Y-7438333D01*
X101030666Y-7390714D01*
X100887809Y-7390714D01*
X100792571Y-7438333D01*
X100744952Y-7533571D01*
X100744952Y-8057380D01*
X99840190Y-8057380D02*
X99840190Y-7057380D01*
X99840190Y-8009761D02*
X99935428Y-8057380D01*
X100125904Y-8057380D01*
X100221142Y-8009761D01*
X100268761Y-7962142D01*
X100316380Y-7866904D01*
X100316380Y-7581190D01*
X100268761Y-7485952D01*
X100221142Y-7438333D01*
X100125904Y-7390714D01*
X99935428Y-7390714D01*
X99840190Y-7438333D01*
X118983047Y-9707380D02*
X118983047Y-9183571D01*
X119030666Y-9088333D01*
X119125904Y-9040714D01*
X119316380Y-9040714D01*
X119411619Y-9088333D01*
X118983047Y-9659761D02*
X119078285Y-9707380D01*
X119316380Y-9707380D01*
X119411619Y-9659761D01*
X119459238Y-9564523D01*
X119459238Y-9469285D01*
X119411619Y-9374047D01*
X119316380Y-9326428D01*
X119078285Y-9326428D01*
X118983047Y-9278809D01*
X118364000Y-9707380D02*
X118459238Y-9659761D01*
X118506857Y-9564523D01*
X118506857Y-8707380D01*
X117840190Y-9707380D02*
X117935428Y-9659761D01*
X117983047Y-9564523D01*
X117983047Y-8707380D01*
X116554476Y-9707380D02*
X116649714Y-9659761D01*
X116697333Y-9612142D01*
X116744952Y-9516904D01*
X116744952Y-9231190D01*
X116697333Y-9135952D01*
X116649714Y-9088333D01*
X116554476Y-9040714D01*
X116411619Y-9040714D01*
X116316380Y-9088333D01*
X116268761Y-9135952D01*
X116221142Y-9231190D01*
X116221142Y-9516904D01*
X116268761Y-9612142D01*
X116316380Y-9659761D01*
X116411619Y-9707380D01*
X116554476Y-9707380D01*
X115935428Y-9040714D02*
X115554476Y-9040714D01*
X115792571Y-9707380D02*
X115792571Y-8850238D01*
X115744952Y-8755000D01*
X115649714Y-8707380D01*
X115554476Y-8707380D01*
X114602095Y-9040714D02*
X114221142Y-9040714D01*
X114459238Y-8707380D02*
X114459238Y-9564523D01*
X114411619Y-9659761D01*
X114316380Y-9707380D01*
X114221142Y-9707380D01*
X113887809Y-9707380D02*
X113887809Y-8707380D01*
X113459238Y-9707380D02*
X113459238Y-9183571D01*
X113506857Y-9088333D01*
X113602095Y-9040714D01*
X113744952Y-9040714D01*
X113840190Y-9088333D01*
X113887809Y-9135952D01*
X112602095Y-9659761D02*
X112697333Y-9707380D01*
X112887809Y-9707380D01*
X112983047Y-9659761D01*
X113030666Y-9564523D01*
X113030666Y-9183571D01*
X112983047Y-9088333D01*
X112887809Y-9040714D01*
X112697333Y-9040714D01*
X112602095Y-9088333D01*
X112554476Y-9183571D01*
X112554476Y-9278809D01*
X113030666Y-9374047D01*
X110935428Y-9659761D02*
X111030666Y-9707380D01*
X111221142Y-9707380D01*
X111316380Y-9659761D01*
X111364000Y-9612142D01*
X111411619Y-9516904D01*
X111411619Y-9231190D01*
X111364000Y-9135952D01*
X111316380Y-9088333D01*
X111221142Y-9040714D01*
X111030666Y-9040714D01*
X110935428Y-9088333D01*
X110364000Y-9707380D02*
X110459238Y-9659761D01*
X110506857Y-9612142D01*
X110554476Y-9516904D01*
X110554476Y-9231190D01*
X110506857Y-9135952D01*
X110459238Y-9088333D01*
X110364000Y-9040714D01*
X110221142Y-9040714D01*
X110125904Y-9088333D01*
X110078285Y-9135952D01*
X110030666Y-9231190D01*
X110030666Y-9516904D01*
X110078285Y-9612142D01*
X110125904Y-9659761D01*
X110221142Y-9707380D01*
X110364000Y-9707380D01*
X109602095Y-9040714D02*
X109602095Y-9707380D01*
X109602095Y-9135952D02*
X109554476Y-9088333D01*
X109459238Y-9040714D01*
X109316380Y-9040714D01*
X109221142Y-9088333D01*
X109173523Y-9183571D01*
X109173523Y-9707380D01*
X108840190Y-9040714D02*
X108459238Y-9040714D01*
X108697333Y-8707380D02*
X108697333Y-9564523D01*
X108649714Y-9659761D01*
X108554476Y-9707380D01*
X108459238Y-9707380D01*
X108125904Y-9707380D02*
X108125904Y-9040714D01*
X108125904Y-9231190D02*
X108078285Y-9135952D01*
X108030666Y-9088333D01*
X107935428Y-9040714D01*
X107840190Y-9040714D01*
X107506857Y-9707380D02*
X107506857Y-9040714D01*
X107506857Y-8707380D02*
X107554476Y-8755000D01*
X107506857Y-8802619D01*
X107459238Y-8755000D01*
X107506857Y-8707380D01*
X107506857Y-8802619D01*
X107030666Y-9707380D02*
X107030666Y-8707380D01*
X107030666Y-9088333D02*
X106935428Y-9040714D01*
X106744952Y-9040714D01*
X106649714Y-9088333D01*
X106602095Y-9135952D01*
X106554476Y-9231190D01*
X106554476Y-9516904D01*
X106602095Y-9612142D01*
X106649714Y-9659761D01*
X106744952Y-9707380D01*
X106935428Y-9707380D01*
X107030666Y-9659761D01*
X105697333Y-9040714D02*
X105697333Y-9707380D01*
X106125904Y-9040714D02*
X106125904Y-9564523D01*
X106078285Y-9659761D01*
X105983047Y-9707380D01*
X105840190Y-9707380D01*
X105744952Y-9659761D01*
X105697333Y-9612142D01*
X105364000Y-9040714D02*
X104983047Y-9040714D01*
X105221142Y-8707380D02*
X105221142Y-9564523D01*
X105173523Y-9659761D01*
X105078285Y-9707380D01*
X104983047Y-9707380D01*
X104506857Y-9707380D02*
X104602095Y-9659761D01*
X104649714Y-9612142D01*
X104697333Y-9516904D01*
X104697333Y-9231190D01*
X104649714Y-9135952D01*
X104602095Y-9088333D01*
X104506857Y-9040714D01*
X104364000Y-9040714D01*
X104268761Y-9088333D01*
X104221142Y-9135952D01*
X104173523Y-9231190D01*
X104173523Y-9516904D01*
X104221142Y-9612142D01*
X104268761Y-9659761D01*
X104364000Y-9707380D01*
X104506857Y-9707380D01*
X103744952Y-9707380D02*
X103744952Y-9040714D01*
X103744952Y-9231190D02*
X103697333Y-9135952D01*
X103649714Y-9088333D01*
X103554476Y-9040714D01*
X103459238Y-9040714D01*
X103173523Y-9659761D02*
X103078285Y-9707380D01*
X102887809Y-9707380D01*
X102792571Y-9659761D01*
X102744952Y-9564523D01*
X102744952Y-9516904D01*
X102792571Y-9421666D01*
X102887809Y-9374047D01*
X103030666Y-9374047D01*
X103125904Y-9326428D01*
X103173523Y-9231190D01*
X103173523Y-9183571D01*
X103125904Y-9088333D01*
X103030666Y-9040714D01*
X102887809Y-9040714D01*
X102792571Y-9088333D01*
X102316380Y-9612142D02*
X102268761Y-9659761D01*
X102316380Y-9707380D01*
X102364000Y-9659761D01*
X102316380Y-9612142D01*
X102316380Y-9707380D01*
X102316380Y-9326428D02*
X102364000Y-8755000D01*
X102316380Y-8707380D01*
X102268761Y-8755000D01*
X102316380Y-9326428D01*
X102316380Y-8707380D01*
D15*
X83800000Y-45696000D02*
X141800000Y-45696000D01*
X83800000Y-45696000D02*
G75*
G02*
X80300000Y-42196000I0J3500000D01*
G01*
X145300000Y-42196000D02*
G75*
G02*
X141800000Y-45696000I-3500000J0D01*
G01*
X80300000Y6800000D02*
X80300000Y-42196000D01*
X145300000Y6800000D02*
X145300000Y-42196000D01*
X83800000Y10300000D02*
X141800000Y10300000D01*
X80300000Y6800000D02*
G75*
G02*
X83800000Y10300000I3500000J0D01*
G01*
X141800000Y10300000D02*
G75*
G02*
X145300000Y6800000I0J-3500000D01*
G01*
D11*
%TO.C,J11*%
X140666000Y-24238000D02*
X140666000Y-19038000D01*
X140666000Y-19038000D02*
X143326000Y-19038000D01*
X143326000Y-19038000D02*
X143326000Y-24238000D01*
X143326000Y-24238000D02*
X140666000Y-24238000D01*
X143326000Y-23288000D02*
X149326000Y-23288000D01*
X149326000Y-23288000D02*
X149326000Y-22528000D01*
X149326000Y-22528000D02*
X143326000Y-22528000D01*
X143326000Y-23228000D02*
X149326000Y-23228000D01*
X143326000Y-23108000D02*
X149326000Y-23108000D01*
X143326000Y-22988000D02*
X149326000Y-22988000D01*
X143326000Y-22868000D02*
X149326000Y-22868000D01*
X143326000Y-22748000D02*
X149326000Y-22748000D01*
X143326000Y-22628000D02*
X149326000Y-22628000D01*
X140336000Y-23288000D02*
X140666000Y-23288000D01*
X140336000Y-22528000D02*
X140666000Y-22528000D01*
X140666000Y-21638000D02*
X143326000Y-21638000D01*
X143326000Y-20748000D02*
X149326000Y-20748000D01*
X149326000Y-20748000D02*
X149326000Y-19988000D01*
X149326000Y-19988000D02*
X143326000Y-19988000D01*
X140268929Y-20748000D02*
X140666000Y-20748000D01*
X140268929Y-19988000D02*
X140666000Y-19988000D01*
X137956000Y-22908000D02*
X137956000Y-24178000D01*
X137956000Y-24178000D02*
X139226000Y-24178000D01*
%TO.C,JP1*%
X139328000Y-38786000D02*
X141328000Y-38786000D01*
X139328000Y-35986000D02*
X139328000Y-38786000D01*
X141328000Y-35986000D02*
X139328000Y-35986000D01*
X141328000Y-38786000D02*
X141328000Y-35986000D01*
%TO.C,TP1*%
X141350000Y-7250000D02*
G75*
G03*
X141350000Y-7250000I-700000J0D01*
G01*
%TO.C,TP2*%
X139960000Y-8660000D02*
G75*
G03*
X139960000Y-8660000I-700000J0D01*
G01*
%TO.C,TP3*%
X141350000Y-10110000D02*
G75*
G03*
X141350000Y-10110000I-700000J0D01*
G01*
%TO.C,J2*%
X137956000Y-1429000D02*
X139226000Y-1429000D01*
X137956000Y-159000D02*
X137956000Y-1429000D01*
X140268929Y2761000D02*
X140666000Y2761000D01*
X140268929Y2001000D02*
X140666000Y2001000D01*
X149326000Y2761000D02*
X143326000Y2761000D01*
X149326000Y2001000D02*
X149326000Y2761000D01*
X143326000Y2001000D02*
X149326000Y2001000D01*
X140666000Y1111000D02*
X143326000Y1111000D01*
X140336000Y221000D02*
X140666000Y221000D01*
X140336000Y-539000D02*
X140666000Y-539000D01*
X143326000Y121000D02*
X149326000Y121000D01*
X143326000Y1000D02*
X149326000Y1000D01*
X143326000Y-119000D02*
X149326000Y-119000D01*
X143326000Y-239000D02*
X149326000Y-239000D01*
X143326000Y-359000D02*
X149326000Y-359000D01*
X143326000Y-479000D02*
X149326000Y-479000D01*
X149326000Y221000D02*
X143326000Y221000D01*
X149326000Y-539000D02*
X149326000Y221000D01*
X143326000Y-539000D02*
X149326000Y-539000D01*
X143326000Y-1489000D02*
X140666000Y-1489000D01*
X143326000Y3711000D02*
X143326000Y-1489000D01*
X140666000Y3711000D02*
X143326000Y3711000D01*
X140666000Y-1489000D02*
X140666000Y3711000D01*
%TO.C,J1*%
X87340000Y5530000D02*
X87340000Y4200000D01*
X87340000Y4200000D02*
X88670000Y4200000D01*
X87340000Y6800000D02*
X89940000Y6800000D01*
X89940000Y6800000D02*
X89940000Y4200000D01*
X89940000Y4200000D02*
X138260000Y4200000D01*
X138260000Y9400000D02*
X138260000Y4200000D01*
X87340000Y9400000D02*
X138260000Y9400000D01*
X87340000Y9400000D02*
X87340000Y6800000D01*
%TD*%
%TO.C,J1*%
D10*
X85352380Y7133334D02*
X86066666Y7133334D01*
X86209523Y7180953D01*
X86304761Y7276191D01*
X86352380Y7419048D01*
X86352380Y7514286D01*
X86352380Y6133334D02*
X86352380Y6704762D01*
X86352380Y6419048D02*
X85352380Y6419048D01*
X85495238Y6514286D01*
X85590476Y6609524D01*
X85638095Y6704762D01*
%TD*%
M02*
