G04 #@! TF.GenerationSoftware,KiCad,Pcbnew,(6.0.2)*
G04 #@! TF.CreationDate,2022-02-14T16:30:21-06:00*
G04 #@! TF.ProjectId,rascsi_2p5,72617363-7369-45f3-9270-352e6b696361,rev?*
G04 #@! TF.SameCoordinates,Original*
G04 #@! TF.FileFunction,Paste,Top*
G04 #@! TF.FilePolarity,Positive*
%FSLAX46Y46*%
G04 Gerber Fmt 4.6, Leading zero omitted, Abs format (unit mm)*
G04 Created by KiCad (PCBNEW (6.0.2)) date 2022-02-14 16:30:21*
%MOMM*%
%LPD*%
G01*
G04 APERTURE LIST*
G04 Aperture macros list*
%AMRoundRect*
0 Rectangle with rounded corners*
0 $1 Rounding radius*
0 $2 $3 $4 $5 $6 $7 $8 $9 X,Y pos of 4 corners*
0 Add a 4 corners polygon primitive as box body*
4,1,4,$2,$3,$4,$5,$6,$7,$8,$9,$2,$3,0*
0 Add four circle primitives for the rounded corners*
1,1,$1+$1,$2,$3*
1,1,$1+$1,$4,$5*
1,1,$1+$1,$6,$7*
1,1,$1+$1,$8,$9*
0 Add four rect primitives between the rounded corners*
20,1,$1+$1,$2,$3,$4,$5,0*
20,1,$1+$1,$4,$5,$6,$7,0*
20,1,$1+$1,$6,$7,$8,$9,0*
20,1,$1+$1,$8,$9,$2,$3,0*%
G04 Aperture macros list end*
G04 #@! TA.AperFunction,Profile*
%ADD10C,0.050000*%
G04 #@! TD*
%ADD11RoundRect,0.243750X0.243750X0.456250X-0.243750X0.456250X-0.243750X-0.456250X0.243750X-0.456250X0*%
%ADD12RoundRect,0.135000X-0.185000X0.135000X-0.185000X-0.135000X0.185000X-0.135000X0.185000X0.135000X0*%
%ADD13RoundRect,0.250000X0.625000X-0.375000X0.625000X0.375000X-0.625000X0.375000X-0.625000X-0.375000X0*%
%ADD14R,0.650000X1.950000*%
%ADD15RoundRect,0.135000X-0.135000X-0.185000X0.135000X-0.185000X0.135000X0.185000X-0.135000X0.185000X0*%
%ADD16RoundRect,0.135000X0.185000X-0.135000X0.185000X0.135000X-0.185000X0.135000X-0.185000X-0.135000X0*%
%ADD17R,1.425000X0.750000*%
%ADD18R,1.100000X1.100000*%
%ADD19R,1.400000X0.400000*%
G04 APERTURE END LIST*
D10*
X178000000Y-42500000D02*
X236000000Y-42500000D01*
X178000000Y-98496000D02*
X236000000Y-98496000D01*
X236000000Y-98496000D02*
G75*
G03*
X239500000Y-94996000I1J3499999D01*
G01*
X174500000Y-46000000D02*
X174500000Y-94996000D01*
X239500000Y-46000000D02*
G75*
G03*
X236000000Y-42500000I-3499999J1D01*
G01*
X178000000Y-42500000D02*
G75*
G03*
X174500000Y-46000000I-1J-3499999D01*
G01*
X174500000Y-94996000D02*
G75*
G03*
X178000000Y-98496000I3499999J-1D01*
G01*
X239500000Y-46000000D02*
X239500000Y-94996000D01*
D11*
X236967000Y-74866500D03*
X235092000Y-74866500D03*
X237841000Y-50419000D03*
X235966000Y-50419000D03*
X237729000Y-54356000D03*
X235854000Y-54356000D03*
D12*
X216535000Y-64768000D03*
X216535000Y-65788000D03*
D13*
X219773500Y-67824000D03*
X219773500Y-65024000D03*
D14*
X193929000Y-62510000D03*
X195199000Y-62510000D03*
X196469000Y-62510000D03*
X197739000Y-62510000D03*
X199009000Y-62510000D03*
X200279000Y-62510000D03*
X201549000Y-62510000D03*
X202819000Y-62510000D03*
X204089000Y-62510000D03*
X205359000Y-62510000D03*
X205359000Y-53060000D03*
X204089000Y-53060000D03*
X202819000Y-53060000D03*
X201549000Y-53060000D03*
X200279000Y-53060000D03*
X199009000Y-53060000D03*
X197739000Y-53060000D03*
X196469000Y-53060000D03*
X195199000Y-53060000D03*
X193929000Y-53060000D03*
X218313000Y-53060000D03*
X217043000Y-53060000D03*
X215773000Y-53060000D03*
X214503000Y-53060000D03*
X213233000Y-53060000D03*
X211963000Y-53060000D03*
X210693000Y-53060000D03*
X209423000Y-53060000D03*
X208153000Y-53060000D03*
X206883000Y-53060000D03*
X206883000Y-62510000D03*
X208153000Y-62510000D03*
X209423000Y-62510000D03*
X210693000Y-62510000D03*
X211963000Y-62510000D03*
X213233000Y-62510000D03*
X214503000Y-62510000D03*
X215773000Y-62510000D03*
X217043000Y-62510000D03*
X218313000Y-62510000D03*
D15*
X232448500Y-49339500D03*
X233468500Y-49339500D03*
D12*
X233807000Y-74293000D03*
X233807000Y-75313000D03*
X227012500Y-50059000D03*
X227012500Y-51079000D03*
X228282500Y-50059000D03*
X228282500Y-51079000D03*
X229552500Y-50059000D03*
X229552500Y-51079000D03*
X212725000Y-50059000D03*
X212725000Y-51079000D03*
X215265000Y-50059000D03*
X215265000Y-51079000D03*
X216535000Y-50059000D03*
X216535000Y-51079000D03*
X217805000Y-50059000D03*
X217805000Y-51079000D03*
X185420000Y-50059000D03*
X185420000Y-51079000D03*
X186690000Y-50059000D03*
X186690000Y-51079000D03*
X190500000Y-50059000D03*
X190500000Y-51079000D03*
X191770000Y-50059000D03*
X191770000Y-51079000D03*
X193040000Y-50059000D03*
X193040000Y-51079000D03*
X194310000Y-50059000D03*
X194310000Y-51079000D03*
X225742500Y-64895000D03*
X225742500Y-65915000D03*
X227012500Y-64895000D03*
X227012500Y-65915000D03*
X228282500Y-64895000D03*
X228282500Y-65915000D03*
X229552500Y-64895000D03*
X229552500Y-65915000D03*
X211455000Y-64768000D03*
X211455000Y-65788000D03*
X212725000Y-64768000D03*
X212725000Y-65788000D03*
X213995000Y-64768000D03*
X213995000Y-65788000D03*
X215201500Y-64768000D03*
X215201500Y-65788000D03*
X185420000Y-64768000D03*
X185420000Y-65788000D03*
X186690000Y-64768000D03*
X186690000Y-65788000D03*
X187960000Y-64768000D03*
X187960000Y-65788000D03*
X189166500Y-64768000D03*
X189166500Y-65788000D03*
X190500000Y-64768000D03*
X190500000Y-65788000D03*
X191770000Y-64768000D03*
X191770000Y-65788000D03*
X193097500Y-64768000D03*
X193097500Y-65788000D03*
D16*
X225742500Y-68312501D03*
X225742500Y-67292501D03*
X227012500Y-68312501D03*
X227012500Y-67292501D03*
X228282500Y-68312501D03*
X228282500Y-67292501D03*
X229552500Y-68312501D03*
X229552500Y-67292501D03*
X211455000Y-68137500D03*
X211455000Y-67117500D03*
X212725000Y-68137500D03*
X212725000Y-67117500D03*
X213995000Y-68137500D03*
X213995000Y-67117500D03*
X215265000Y-68137500D03*
X215265000Y-67117500D03*
X216535000Y-68137500D03*
X216535000Y-67117500D03*
X182880000Y-68137500D03*
X182880000Y-67117500D03*
X184150000Y-68137500D03*
X184150000Y-67117500D03*
X185420000Y-68137500D03*
X185420000Y-67117500D03*
X186690000Y-68137500D03*
X186690000Y-67117500D03*
X187960000Y-68137500D03*
X187960000Y-67117500D03*
X189230000Y-68137500D03*
X189230000Y-67117500D03*
X190500000Y-68137500D03*
X190500000Y-67117500D03*
X191770000Y-68137500D03*
X191770000Y-67117500D03*
X193097500Y-68137500D03*
X193097500Y-67117500D03*
D12*
X189230000Y-50059000D03*
X189230000Y-51079000D03*
X184150000Y-50059000D03*
X184150000Y-51079000D03*
X187960000Y-50059000D03*
X187960000Y-51079000D03*
X182880000Y-64768000D03*
X182880000Y-65788000D03*
X184150000Y-64768000D03*
X184150000Y-65788000D03*
D14*
X231267000Y-53060000D03*
X229997000Y-53060000D03*
X228727000Y-53060000D03*
X227457000Y-53060000D03*
X226187000Y-53060000D03*
X224917000Y-53060000D03*
X223647000Y-53060000D03*
X222377000Y-53060000D03*
X221107000Y-53060000D03*
X219837000Y-53060000D03*
X219837000Y-62510000D03*
X221107000Y-62510000D03*
X222377000Y-62510000D03*
X223647000Y-62510000D03*
X224917000Y-62510000D03*
X226187000Y-62510000D03*
X227457000Y-62510000D03*
X228727000Y-62510000D03*
X229997000Y-62510000D03*
X231267000Y-62510000D03*
D12*
X233807000Y-72388000D03*
X233807000Y-73408000D03*
D17*
X224216500Y-70421500D03*
X224216500Y-71691500D03*
X231840500Y-71691500D03*
X231840500Y-70421500D03*
D18*
X222694500Y-65020000D03*
X222694500Y-67820000D03*
D14*
X180975000Y-62510000D03*
X182245000Y-62510000D03*
X183515000Y-62510000D03*
X184785000Y-62510000D03*
X186055000Y-62510000D03*
X187325000Y-62510000D03*
X188595000Y-62510000D03*
X189865000Y-62510000D03*
X191135000Y-62510000D03*
X192405000Y-62510000D03*
X192405000Y-53060000D03*
X191135000Y-53060000D03*
X189865000Y-53060000D03*
X188595000Y-53060000D03*
X187325000Y-53060000D03*
X186055000Y-53060000D03*
X184785000Y-53060000D03*
X183515000Y-53060000D03*
X182245000Y-53060000D03*
X180975000Y-53060000D03*
D11*
X236967000Y-72961500D03*
X235092000Y-72961500D03*
D15*
X232448500Y-50355500D03*
X233468500Y-50355500D03*
D19*
X235405000Y-62760000D03*
X235405000Y-62110000D03*
X235405000Y-61460000D03*
X235405000Y-60810000D03*
X235405000Y-60160000D03*
D12*
X230822500Y-50059000D03*
X230822500Y-51079000D03*
X213995000Y-50059000D03*
X213995000Y-51079000D03*
M02*
