G04 #@! TF.GenerationSoftware,KiCad,Pcbnew,(6.0.2)*
G04 #@! TF.CreationDate,2022-02-14T16:30:21-06:00*
G04 #@! TF.ProjectId,rascsi_2p5,72617363-7369-45f3-9270-352e6b696361,rev?*
G04 #@! TF.SameCoordinates,Original*
G04 #@! TF.FileFunction,Soldermask,Bot*
G04 #@! TF.FilePolarity,Negative*
%FSLAX46Y46*%
G04 Gerber Fmt 4.6, Leading zero omitted, Abs format (unit mm)*
G04 Created by KiCad (PCBNEW (6.0.2)) date 2022-02-14 16:30:21*
%MOMM*%
%LPD*%
G01*
G04 APERTURE LIST*
G04 #@! TA.AperFunction,Profile*
%ADD10C,0.050000*%
G04 #@! TD*
%ADD11C,0.800000*%
%ADD12C,5.400000*%
%ADD13R,1.700000X1.700000*%
%ADD14O,1.700000X1.700000*%
%ADD15C,2.000000*%
%ADD16R,1.350000X1.350000*%
%ADD17O,1.350000X1.350000*%
%ADD18R,1.800000X1.800000*%
%ADD19C,1.800000*%
%ADD20C,1.545000*%
%ADD21C,4.845000*%
%ADD22C,1.000000*%
G04 APERTURE END LIST*
D10*
X178000000Y-42500000D02*
X236000000Y-42500000D01*
X178000000Y-98496000D02*
X236000000Y-98496000D01*
X236000000Y-98496000D02*
G75*
G03*
X239500000Y-94996000I1J3499999D01*
G01*
X174500000Y-46000000D02*
X174500000Y-94996000D01*
X239500000Y-46000000D02*
G75*
G03*
X236000000Y-42500000I-3499999J1D01*
G01*
X178000000Y-42500000D02*
G75*
G03*
X174500000Y-46000000I-1J-3499999D01*
G01*
X174500000Y-94996000D02*
G75*
G03*
X178000000Y-98496000I3499999J-1D01*
G01*
X239500000Y-46000000D02*
X239500000Y-94996000D01*
D11*
X180025000Y-46000000D03*
X176568109Y-47431891D03*
X178000000Y-43975000D03*
D12*
X178000000Y-46000000D03*
D11*
X178000000Y-48025000D03*
X179431891Y-47431891D03*
X175975000Y-46000000D03*
X179431891Y-44568109D03*
X176568109Y-44568109D03*
X178000000Y-71025000D03*
X175975000Y-69000000D03*
X179431891Y-70431891D03*
X176568109Y-67568109D03*
X179431891Y-67568109D03*
D12*
X178000000Y-69000000D03*
D11*
X180025000Y-69000000D03*
X176568109Y-70431891D03*
X178000000Y-66975000D03*
X179431891Y-93568109D03*
X178000000Y-97025000D03*
X176568109Y-93568109D03*
X175975000Y-95000000D03*
X179431891Y-96431891D03*
X178000000Y-92975000D03*
X176568109Y-96431891D03*
X180025000Y-95000000D03*
D12*
X178000000Y-95000000D03*
D13*
X178010000Y-63780000D03*
D14*
X178010000Y-61240000D03*
X178010000Y-58700000D03*
X178010000Y-56160000D03*
X178010000Y-53620000D03*
D11*
X236000000Y-71025000D03*
X234568109Y-70431891D03*
D12*
X236000000Y-69000000D03*
D11*
X238025000Y-69000000D03*
X236000000Y-66975000D03*
X237431891Y-70431891D03*
X237431891Y-67568109D03*
X233975000Y-69000000D03*
X234568109Y-67568109D03*
X236000000Y-92975000D03*
X238025000Y-95000000D03*
X234568109Y-96431891D03*
D12*
X236000000Y-95000000D03*
D11*
X236000000Y-97025000D03*
X234568109Y-93568109D03*
X237431891Y-93568109D03*
X237431891Y-96431891D03*
X233975000Y-95000000D03*
X238025000Y-46000000D03*
X237431891Y-47431891D03*
X236000000Y-43975000D03*
X234568109Y-47431891D03*
D12*
X236000000Y-46000000D03*
D11*
X234568109Y-44568109D03*
X236000000Y-48025000D03*
X237431891Y-44568109D03*
X233975000Y-46000000D03*
D13*
X176580000Y-50520000D03*
D14*
X179120000Y-50520000D03*
D15*
X238355000Y-65035000D03*
X238355000Y-57885000D03*
X234905000Y-57885000D03*
X234905000Y-65035000D03*
D13*
X176466500Y-82994500D03*
D14*
X176466500Y-80454500D03*
X179006500Y-82994500D03*
X179006500Y-80454500D03*
X181546500Y-82994500D03*
X181546500Y-80454500D03*
X184086500Y-82994500D03*
X184086500Y-80454500D03*
X186626500Y-82994500D03*
X186626500Y-80454500D03*
X189166500Y-82994500D03*
X189166500Y-80454500D03*
X191706500Y-82994500D03*
X191706500Y-80454500D03*
X194246500Y-82994500D03*
X194246500Y-80454500D03*
X196786500Y-82994500D03*
X196786500Y-80454500D03*
X199326500Y-82994500D03*
X199326500Y-80454500D03*
X201866500Y-82994500D03*
X201866500Y-80454500D03*
X204406500Y-82994500D03*
X204406500Y-80454500D03*
X206946500Y-82994500D03*
X206946500Y-80454500D03*
X209486500Y-82994500D03*
X209486500Y-80454500D03*
X212026500Y-82994500D03*
X212026500Y-80454500D03*
X214566500Y-82994500D03*
X214566500Y-80454500D03*
X217106500Y-82994500D03*
X217106500Y-80454500D03*
X219646500Y-82994500D03*
X219646500Y-80454500D03*
X222186500Y-82994500D03*
X222186500Y-80454500D03*
X224726500Y-82994500D03*
X224726500Y-80454500D03*
X227266500Y-82994500D03*
X227266500Y-80454500D03*
X229806500Y-82994500D03*
X229806500Y-80454500D03*
X232346500Y-82994500D03*
X232346500Y-80454500D03*
X234886500Y-82994500D03*
X234886500Y-80454500D03*
X237426500Y-82994500D03*
X237426500Y-80454500D03*
D16*
X230972000Y-93488000D03*
D17*
X230972000Y-95488000D03*
X228972000Y-93488000D03*
X228972000Y-95488000D03*
X226972000Y-93488000D03*
X226972000Y-95488000D03*
X224972000Y-93488000D03*
X224972000Y-95488000D03*
X222972000Y-93488000D03*
X222972000Y-95488000D03*
D16*
X220972000Y-93488000D03*
D17*
X220972000Y-95488000D03*
X218972000Y-93488000D03*
X218972000Y-95488000D03*
X216972000Y-93488000D03*
X216972000Y-95488000D03*
X214972000Y-93488000D03*
X214972000Y-95488000D03*
X212972000Y-93488000D03*
X212972000Y-95488000D03*
X210972000Y-93488000D03*
X210972000Y-95488000D03*
X208972000Y-93488000D03*
X208972000Y-95488000D03*
X206972000Y-93488000D03*
X206972000Y-95488000D03*
X204972000Y-93488000D03*
X204972000Y-95488000D03*
X202972000Y-93488000D03*
X202972000Y-95488000D03*
X200972000Y-93488000D03*
X200972000Y-95488000D03*
X198972000Y-93488000D03*
X198972000Y-95488000D03*
X196972000Y-93488000D03*
X196972000Y-95488000D03*
X194972000Y-93488000D03*
X194972000Y-95488000D03*
X192972000Y-93488000D03*
X192972000Y-95488000D03*
X190972000Y-93488000D03*
X190972000Y-95488000D03*
X188972000Y-93488000D03*
X188972000Y-95488000D03*
X186972000Y-93488000D03*
X186972000Y-95488000D03*
X184972000Y-93488000D03*
X184972000Y-95488000D03*
X182972000Y-93488000D03*
X182972000Y-95488000D03*
D16*
X237830000Y-85392000D03*
D17*
X237830000Y-87392000D03*
X237830000Y-89392000D03*
X237830000Y-91392000D03*
D13*
X181810000Y-73300000D03*
D14*
X181810000Y-75840000D03*
X179270000Y-73300000D03*
X179270000Y-75840000D03*
X176730000Y-73300000D03*
X176730000Y-75840000D03*
D18*
X201110000Y-75000000D03*
D19*
X201110000Y-72500000D03*
X201110000Y-70000000D03*
X201110000Y-67500000D03*
D13*
X182870000Y-47270000D03*
D14*
X182870000Y-44730000D03*
X185410000Y-47270000D03*
X185410000Y-44730000D03*
X187950000Y-47270000D03*
X187950000Y-44730000D03*
X190490000Y-47270000D03*
X190490000Y-44730000D03*
X193030000Y-47270000D03*
X193030000Y-44730000D03*
X195570000Y-47270000D03*
X195570000Y-44730000D03*
X198110000Y-47270000D03*
X198110000Y-44730000D03*
X200650000Y-47270000D03*
X200650000Y-44730000D03*
X203190000Y-47270000D03*
X203190000Y-44730000D03*
X205730000Y-47270000D03*
X205730000Y-44730000D03*
X208270000Y-47270000D03*
X208270000Y-44730000D03*
X210810000Y-47270000D03*
X210810000Y-44730000D03*
X213350000Y-47270000D03*
X213350000Y-44730000D03*
X215890000Y-47270000D03*
X215890000Y-44730000D03*
X218430000Y-47270000D03*
X218430000Y-44730000D03*
X220970000Y-47270000D03*
X220970000Y-44730000D03*
X223510000Y-47270000D03*
X223510000Y-44730000D03*
X226050000Y-47270000D03*
X226050000Y-44730000D03*
X228590000Y-47270000D03*
X228590000Y-44730000D03*
X231130000Y-47270000D03*
X231130000Y-44730000D03*
D20*
X223621600Y-87630000D03*
X220851600Y-87630000D03*
X218081600Y-87630000D03*
X215311600Y-87630000D03*
X212541600Y-87630000D03*
X209771600Y-87630000D03*
X207001600Y-87630000D03*
X204231600Y-87630000D03*
X201461600Y-87630000D03*
X198691600Y-87630000D03*
X195921600Y-87630000D03*
X193151600Y-87630000D03*
X190381600Y-87630000D03*
X222236600Y-90470000D03*
X219466600Y-90470000D03*
X216696600Y-90470000D03*
X213926600Y-90470000D03*
X211156600Y-90470000D03*
X208386600Y-90470000D03*
X205616600Y-90470000D03*
X202846600Y-90470000D03*
X200076600Y-90470000D03*
X197306600Y-90470000D03*
X194536600Y-90470000D03*
X191766600Y-90470000D03*
D21*
X230521600Y-89050000D03*
X183481600Y-89050000D03*
D13*
X233426000Y-54483000D03*
D14*
X233426000Y-51943000D03*
D22*
X233460000Y-61460000D03*
X234850000Y-62910000D03*
X234850000Y-60050000D03*
M02*
