G04 #@! TF.GenerationSoftware,KiCad,Pcbnew,(6.0.0)*
G04 #@! TF.CreationDate,2022-02-12T17:19:00-06:00*
G04 #@! TF.ProjectId,rascsi_2p5,72617363-7369-45f3-9270-352e6b696361,rev?*
G04 #@! TF.SameCoordinates,PX59d60c0PY325aa00*
G04 #@! TF.FileFunction,Paste,Top*
G04 #@! TF.FilePolarity,Positive*
%FSLAX46Y46*%
G04 Gerber Fmt 4.6, Leading zero omitted, Abs format (unit mm)*
G04 Created by KiCad (PCBNEW (6.0.0)) date 2022-02-12 17:19:00*
%MOMM*%
%LPD*%
G01*
G04 APERTURE LIST*
G04 Aperture macros list*
%AMRoundRect*
0 Rectangle with rounded corners*
0 $1 Rounding radius*
0 $2 $3 $4 $5 $6 $7 $8 $9 X,Y pos of 4 corners*
0 Add a 4 corners polygon primitive as box body*
4,1,4,$2,$3,$4,$5,$6,$7,$8,$9,$2,$3,0*
0 Add four circle primitives for the rounded corners*
1,1,$1+$1,$2,$3*
1,1,$1+$1,$4,$5*
1,1,$1+$1,$6,$7*
1,1,$1+$1,$8,$9*
0 Add four rect primitives between the rounded corners*
20,1,$1+$1,$2,$3,$4,$5,0*
20,1,$1+$1,$4,$5,$6,$7,0*
20,1,$1+$1,$6,$7,$8,$9,0*
20,1,$1+$1,$8,$9,$2,$3,0*%
G04 Aperture macros list end*
G04 #@! TA.AperFunction,Profile*
%ADD10C,0.050000*%
G04 #@! TD*
%ADD11RoundRect,0.243750X0.243750X0.456250X-0.243750X0.456250X-0.243750X-0.456250X0.243750X-0.456250X0*%
%ADD12RoundRect,0.135000X-0.185000X0.135000X-0.185000X-0.135000X0.185000X-0.135000X0.185000X0.135000X0*%
%ADD13RoundRect,0.250000X0.625000X-0.375000X0.625000X0.375000X-0.625000X0.375000X-0.625000X-0.375000X0*%
%ADD14R,0.650000X1.950000*%
%ADD15RoundRect,0.135000X-0.135000X-0.185000X0.135000X-0.185000X0.135000X0.185000X-0.135000X0.185000X0*%
%ADD16RoundRect,0.135000X0.185000X-0.135000X0.185000X0.135000X-0.185000X0.135000X-0.185000X-0.135000X0*%
%ADD17R,1.425000X0.750000*%
%ADD18R,1.100000X1.100000*%
%ADD19R,1.400000X0.400000*%
G04 APERTURE END LIST*
D10*
X83800000Y10300000D02*
X141800000Y10300000D01*
X83800000Y-45696000D02*
X141800000Y-45696000D01*
X141800000Y-45696000D02*
G75*
G03*
X145300000Y-42196000I1J3499999D01*
G01*
X80300000Y6800000D02*
X80300000Y-42196000D01*
X145300000Y6800000D02*
G75*
G03*
X141800000Y10300000I-3499999J1D01*
G01*
X83800000Y10300000D02*
G75*
G03*
X80300000Y6800000I-1J-3499999D01*
G01*
X80300000Y-42196000D02*
G75*
G03*
X83800000Y-45696000I3499999J-1D01*
G01*
X145300000Y6800000D02*
X145300000Y-42196000D01*
D11*
X142767000Y-22066500D03*
X140892000Y-22066500D03*
X143641000Y2381000D03*
X141766000Y2381000D03*
X143529000Y-1556000D03*
X141654000Y-1556000D03*
D12*
X122335000Y-11968000D03*
X122335000Y-12988000D03*
D13*
X125573500Y-15024000D03*
X125573500Y-12224000D03*
D14*
X99729000Y-9710000D03*
X100999000Y-9710000D03*
X102269000Y-9710000D03*
X103539000Y-9710000D03*
X104809000Y-9710000D03*
X106079000Y-9710000D03*
X107349000Y-9710000D03*
X108619000Y-9710000D03*
X109889000Y-9710000D03*
X111159000Y-9710000D03*
X111159000Y-260000D03*
X109889000Y-260000D03*
X108619000Y-260000D03*
X107349000Y-260000D03*
X106079000Y-260000D03*
X104809000Y-260000D03*
X103539000Y-260000D03*
X102269000Y-260000D03*
X100999000Y-260000D03*
X99729000Y-260000D03*
X124113000Y-260000D03*
X122843000Y-260000D03*
X121573000Y-260000D03*
X120303000Y-260000D03*
X119033000Y-260000D03*
X117763000Y-260000D03*
X116493000Y-260000D03*
X115223000Y-260000D03*
X113953000Y-260000D03*
X112683000Y-260000D03*
X112683000Y-9710000D03*
X113953000Y-9710000D03*
X115223000Y-9710000D03*
X116493000Y-9710000D03*
X117763000Y-9710000D03*
X119033000Y-9710000D03*
X120303000Y-9710000D03*
X121573000Y-9710000D03*
X122843000Y-9710000D03*
X124113000Y-9710000D03*
D15*
X138248500Y3460500D03*
X139268500Y3460500D03*
D12*
X139607000Y-21493000D03*
X139607000Y-22513000D03*
X132812500Y2741000D03*
X132812500Y1721000D03*
X134082500Y2741000D03*
X134082500Y1721000D03*
X135352500Y2741000D03*
X135352500Y1721000D03*
X118525000Y2741000D03*
X118525000Y1721000D03*
X121065000Y2741000D03*
X121065000Y1721000D03*
X122335000Y2741000D03*
X122335000Y1721000D03*
X123605000Y2741000D03*
X123605000Y1721000D03*
X91220000Y2741000D03*
X91220000Y1721000D03*
X92490000Y2741000D03*
X92490000Y1721000D03*
X96300000Y2741000D03*
X96300000Y1721000D03*
X97570000Y2741000D03*
X97570000Y1721000D03*
X98840000Y2741000D03*
X98840000Y1721000D03*
X100110000Y2741000D03*
X100110000Y1721000D03*
X131542500Y-12095000D03*
X131542500Y-13115000D03*
X132812500Y-12095000D03*
X132812500Y-13115000D03*
X134082500Y-12095000D03*
X134082500Y-13115000D03*
X135352500Y-12095000D03*
X135352500Y-13115000D03*
X117255000Y-11968000D03*
X117255000Y-12988000D03*
X118525000Y-11968000D03*
X118525000Y-12988000D03*
X119795000Y-11968000D03*
X119795000Y-12988000D03*
X121001500Y-11968000D03*
X121001500Y-12988000D03*
X91220000Y-11968000D03*
X91220000Y-12988000D03*
X92490000Y-11968000D03*
X92490000Y-12988000D03*
X93760000Y-11968000D03*
X93760000Y-12988000D03*
X94966500Y-11968000D03*
X94966500Y-12988000D03*
X96300000Y-11968000D03*
X96300000Y-12988000D03*
X97570000Y-11968000D03*
X97570000Y-12988000D03*
X98897500Y-11968000D03*
X98897500Y-12988000D03*
D16*
X131542500Y-15512501D03*
X131542500Y-14492501D03*
X132812500Y-15512501D03*
X132812500Y-14492501D03*
X134082500Y-15512501D03*
X134082500Y-14492501D03*
X135352500Y-15512501D03*
X135352500Y-14492501D03*
X117255000Y-15337500D03*
X117255000Y-14317500D03*
X118525000Y-15337500D03*
X118525000Y-14317500D03*
X119795000Y-15337500D03*
X119795000Y-14317500D03*
X121065000Y-15337500D03*
X121065000Y-14317500D03*
X122335000Y-15337500D03*
X122335000Y-14317500D03*
X88680000Y-15337500D03*
X88680000Y-14317500D03*
X89950000Y-15337500D03*
X89950000Y-14317500D03*
X91220000Y-15337500D03*
X91220000Y-14317500D03*
X92490000Y-15337500D03*
X92490000Y-14317500D03*
X93760000Y-15337500D03*
X93760000Y-14317500D03*
X95030000Y-15337500D03*
X95030000Y-14317500D03*
X96300000Y-15337500D03*
X96300000Y-14317500D03*
X97570000Y-15337500D03*
X97570000Y-14317500D03*
X98897500Y-15337500D03*
X98897500Y-14317500D03*
D12*
X95030000Y2741000D03*
X95030000Y1721000D03*
X89950000Y2741000D03*
X89950000Y1721000D03*
X93760000Y2741000D03*
X93760000Y1721000D03*
X88680000Y-11968000D03*
X88680000Y-12988000D03*
X89950000Y-11968000D03*
X89950000Y-12988000D03*
D14*
X137067000Y-260000D03*
X135797000Y-260000D03*
X134527000Y-260000D03*
X133257000Y-260000D03*
X131987000Y-260000D03*
X130717000Y-260000D03*
X129447000Y-260000D03*
X128177000Y-260000D03*
X126907000Y-260000D03*
X125637000Y-260000D03*
X125637000Y-9710000D03*
X126907000Y-9710000D03*
X128177000Y-9710000D03*
X129447000Y-9710000D03*
X130717000Y-9710000D03*
X131987000Y-9710000D03*
X133257000Y-9710000D03*
X134527000Y-9710000D03*
X135797000Y-9710000D03*
X137067000Y-9710000D03*
D12*
X139607000Y-19588000D03*
X139607000Y-20608000D03*
D17*
X130016500Y-17621500D03*
X130016500Y-18891500D03*
X137640500Y-18891500D03*
X137640500Y-17621500D03*
D18*
X128494500Y-12220000D03*
X128494500Y-15020000D03*
D14*
X86775000Y-9710000D03*
X88045000Y-9710000D03*
X89315000Y-9710000D03*
X90585000Y-9710000D03*
X91855000Y-9710000D03*
X93125000Y-9710000D03*
X94395000Y-9710000D03*
X95665000Y-9710000D03*
X96935000Y-9710000D03*
X98205000Y-9710000D03*
X98205000Y-260000D03*
X96935000Y-260000D03*
X95665000Y-260000D03*
X94395000Y-260000D03*
X93125000Y-260000D03*
X91855000Y-260000D03*
X90585000Y-260000D03*
X89315000Y-260000D03*
X88045000Y-260000D03*
X86775000Y-260000D03*
D11*
X142767000Y-20161500D03*
X140892000Y-20161500D03*
D15*
X138248500Y2444500D03*
X139268500Y2444500D03*
D19*
X141205000Y-9960000D03*
X141205000Y-9310000D03*
X141205000Y-8660000D03*
X141205000Y-8010000D03*
X141205000Y-7360000D03*
D12*
X136622500Y2741000D03*
X136622500Y1721000D03*
X119795000Y2741000D03*
X119795000Y1721000D03*
M02*
