M48
; DRILL file {KiCad (6.0.0)} date Sat Feb 12 17:19:13 2022
; FORMAT={-:-/ absolute / metric / decimal}
; #@! TF.CreationDate,2022-02-12T17:19:13-06:00
; #@! TF.GenerationSoftware,Kicad,Pcbnew,(6.0.0)
; #@! TF.FileFunction,Plated,1,2,PTH
FMAT,2
METRIC
; #@! TA.AperFunction,Plated,PTH,ViaDrill
T1C0.250
; #@! TA.AperFunction,Plated,PTH,ViaDrill
T2C0.400
; #@! TA.AperFunction,Plated,PTH,ComponentDrill
T3C0.500
; #@! TA.AperFunction,Plated,PTH,ComponentDrill
T4C0.800
; #@! TA.AperFunction,Plated,PTH,ComponentDrill
T5C1.000
; #@! TA.AperFunction,Plated,PTH,ComponentDrill
T6C1.030
; #@! TA.AperFunction,Plated,PTH,ComponentDrill
T7C1.200
; #@! TA.AperFunction,Plated,PTH,ComponentDrill
T8C1.329
; #@! TA.AperFunction,Plated,PTH,ComponentDrill
T9C2.700
; #@! TA.AperFunction,Plated,PTH,ComponentDrill
T10C3.230
%
G90
G05
T1
X175.704Y-77.597
X177.98Y-84.28
X178.255Y-77.597
X179.31Y-65.1
X179.895Y-53.944
X180.57Y-84.33
X181.51Y-64.5
X181.991Y-56.642
X181.994Y-71.405
X182.21Y-70.4
X182.805Y-57.469
X182.88Y-64.072
X183.126Y-68.77
X183.202Y-84.103
X183.443Y-50.336
X183.51Y-72.9
X183.79Y-54.96
X183.839Y-59.032
X184.15Y-64.072
X184.15Y-68.77
X184.41Y-60.6
X184.799Y-50.546
X185.42Y-64.072
X185.42Y-68.77
X185.75Y-45.95
X185.894Y-83.979
X185.928Y-50.673
X186.522Y-76.216
X186.69Y-64.072
X186.69Y-68.77
X186.737Y-49.307
X186.806Y-48.684
X187.261Y-50.609
X187.96Y-64.072
X187.96Y-68.77
X188.131Y-83.652
X188.214Y-75.243
X188.479Y-74.497
X188.595Y-50.546
X188.75Y-58.44
X188.785Y-75.72
X189.166Y-64.072
X189.23Y-68.77
X189.626Y-76.197
X189.779Y-48.27
X189.802Y-50.609
X189.824Y-89.932
X189.937Y-69.593
X190.296Y-49.411
X190.5Y-64.072
X190.5Y-68.77
X190.58Y-83.892
X190.627Y-73.867
X190.807Y-73.209
X191.008Y-78.1
X191.071Y-50.673
X191.482Y-69.593
X191.77Y-64.072
X191.77Y-68.77
X191.794Y-72.07
X191.82Y-61.24
X192.255Y-51.496
X192.398Y-49.656
X193.11Y-64.072
X193.11Y-68.76
X193.584Y-78.318
X193.631Y-89.294
X193.634Y-91.456
X193.67Y-50.562
X193.9Y-60.81
X194.07Y-58.88
X194.272Y-48.168
X194.845Y-86.558
X194.94Y-49.605
X195.11Y-92.047
X195.174Y-81.827
X195.19Y-52.42
X195.21Y-55.3
X195.387Y-70.04
X195.81Y-56.5
X195.91Y-51.72
X195.91Y-54.73
X196.141Y-78.1
X196.174Y-92.218
X196.71Y-77.1
X196.71Y-84.235
X196.848Y-70.04
X196.886Y-88.747
X197.698Y-84.55
X197.739Y-54.546
X198.309Y-70.04
X198.48Y-84.852
X198.69Y-91.301
X198.79Y-50.64
X198.91Y-78.1
X199.594Y-91.513
X199.72Y-84.758
X199.769Y-70.04
X200.238Y-88.662
X200.279Y-54.61
X201.228Y-78.1
X202.631Y-85.938
X202.691Y-70.04
X202.721Y-84.657
X202.814Y-49.912
X202.952Y-88.582
X203.113Y-55.578
X203.255Y-50.359
X203.913Y-90.911
X204.151Y-70.04
X204.32Y-84.796
X204.46Y-49.372
X204.774Y-55.578
X205.219Y-84.796
X205.33Y-51.33
X205.612Y-70.04
X206.311Y-78.1
X207.073Y-70.04
X207.58Y-54.37
X208.366Y-84.344
X208.534Y-70.04
X208.542Y-50.159
X208.809Y-88.749
X209.166Y-50.213
X209.197Y-59.203
X209.382Y-92.462
X209.436Y-84.453
X209.543Y-48.977
X209.626Y-78.1
X209.679Y-86.203
X209.788Y-91.016
X209.994Y-70.04
X210.07Y-50.428
X210.1Y-54.37
X210.81Y-81.68
X210.82Y-49.882
X211.387Y-84.485
X211.444Y-85.877
X211.455Y-64.072
X211.455Y-68.77
X211.455Y-70.04
X211.709Y-51.308
X211.816Y-78.1
X212.141Y-77.094
X212.43Y-89.057
X212.725Y-64.072
X212.725Y-68.77
X213.012Y-85.489
X213.167Y-76.642
X213.423Y-50.661
X213.995Y-64.072
X213.995Y-68.77
X213.995Y-76.552
X214.694Y-50.673
X215.201Y-64.072
X215.224Y-89.424
X215.265Y-68.77
X215.601Y-76.339
X215.732Y-91.456
X215.74Y-84.36
X216.104Y-51.563
X216.235Y-76.791
X216.27Y-54.96
X216.535Y-64.072
X216.535Y-68.77
X217.19Y-50.58
X217.19Y-75.28
X217.42Y-54.58
X217.48Y-70.04
X217.764Y-88.916
X217.932Y-78.803
X218.293Y-51.748
X218.376Y-75.629
X218.468Y-83.701
X219.236Y-84.549
X219.53Y-54.8
X219.583Y-49.507
X219.895Y-70.04
X220.535Y-55.118
X220.571Y-84.385
X220.93Y-85.75
X221.095Y-70.04
X221.43Y-66.81
X221.68Y-49.605
X221.805Y-54.864
X222.296Y-70.04
X223.018Y-84.43
X223.694Y-76.022
X223.718Y-49.605
X224.282Y-64.389
X224.4Y-66.9
X224.463Y-48.513
X224.619Y-85.215
X224.985Y-47.88
X225.278Y-48.997
X225.54Y-48.386
X225.703Y-81.777
X225.71Y-78.76
X225.742Y-64.135
X225.742Y-68.961
X227.012Y-64.135
X227.012Y-68.961
X227.012Y-70.04
X227.048Y-47.984
X227.587Y-50.797
X228.11Y-73.83
X228.194Y-83.95
X228.282Y-64.135
X228.282Y-68.961
X228.282Y-70.04
X228.67Y-78.54
X228.854Y-50.673
X229.552Y-64.135
X229.552Y-68.961
X229.977Y-50.781
X230.029Y-85.466
X230.264Y-51.338
X231.076Y-58.293
X231.255Y-83.922
X231.524Y-50.62
X231.54Y-51.68
X232.791Y-72.453
X232.93Y-70.685
X233.55Y-83.95
X233.577Y-60.183
X234.505Y-51.054
X236.2Y-84.02
X237.11Y-52.2
X237.401Y-61.447
X237.778Y-60.82
X237.778Y-62.12
T2
X179.959Y-59.372
X181.758Y-66.116
X182.816Y-49.53
X203.35Y-51.177
X215.265Y-60.071
X217.614Y-66.548
X219.837Y-60.198
X220.95Y-78.44
X229.696Y-59.038
X231.712Y-72.707
X233.23Y-48.25
T3
X175.975Y-46.0
X175.975Y-69.0
X175.975Y-95.0
X176.568Y-44.568
X176.568Y-47.432
X176.568Y-67.568
X176.568Y-70.432
X176.568Y-93.568
X176.568Y-96.432
X178.0Y-43.975
X178.0Y-48.025
X178.0Y-66.975
X178.0Y-71.025
X178.0Y-92.975
X178.0Y-97.025
X179.432Y-44.568
X179.432Y-47.432
X179.432Y-67.568
X179.432Y-70.432
X179.432Y-93.568
X179.432Y-96.432
X180.025Y-46.0
X180.025Y-69.0
X180.025Y-95.0
X233.975Y-46.0
X233.975Y-69.0
X233.975Y-95.0
X234.568Y-44.568
X234.568Y-47.432
X234.568Y-67.568
X234.568Y-70.432
X234.568Y-93.568
X234.568Y-96.432
X236.0Y-43.975
X236.0Y-48.025
X236.0Y-66.975
X236.0Y-71.025
X236.0Y-92.975
X236.0Y-97.025
X237.432Y-44.568
X237.432Y-47.432
X237.432Y-67.568
X237.432Y-70.432
X237.432Y-93.568
X237.432Y-96.432
X238.025Y-46.0
X238.025Y-69.0
X238.025Y-95.0
T4
X182.972Y-93.488
X182.972Y-95.488
X184.972Y-93.488
X184.972Y-95.488
X186.972Y-93.488
X186.972Y-95.488
X188.972Y-93.488
X188.972Y-95.488
X190.972Y-93.488
X190.972Y-95.488
X192.972Y-93.488
X192.972Y-95.488
X194.972Y-93.488
X194.972Y-95.488
X196.972Y-93.488
X196.972Y-95.488
X198.972Y-93.488
X198.972Y-95.488
X200.972Y-93.488
X200.972Y-95.488
X202.972Y-93.488
X202.972Y-95.488
X204.972Y-93.488
X204.972Y-95.488
X206.972Y-93.488
X206.972Y-95.488
X208.972Y-93.488
X208.972Y-95.488
X210.972Y-93.488
X210.972Y-95.488
X212.972Y-93.488
X212.972Y-95.488
X214.972Y-93.488
X214.972Y-95.488
X216.972Y-93.488
X216.972Y-95.488
X218.972Y-93.488
X218.972Y-95.488
X220.972Y-93.488
X220.972Y-95.488
X222.972Y-93.488
X222.972Y-95.488
X224.972Y-93.488
X224.972Y-95.488
X226.972Y-93.488
X226.972Y-95.488
X228.972Y-93.488
X228.972Y-95.488
X230.972Y-93.488
X230.972Y-95.488
X237.83Y-85.392
X237.83Y-87.392
X237.83Y-89.392
X237.83Y-91.392
T5
X176.466Y-80.454
X176.466Y-82.995
X176.58Y-50.52
X176.73Y-73.3
X176.73Y-75.84
X178.01Y-53.62
X178.01Y-56.16
X178.01Y-58.7
X178.01Y-61.24
X178.01Y-63.78
X179.006Y-80.454
X179.006Y-82.995
X179.12Y-50.52
X179.27Y-73.3
X179.27Y-75.84
X181.546Y-80.454
X181.546Y-82.995
X181.81Y-73.3
X181.81Y-75.84
X182.87Y-44.73
X182.87Y-47.27
X184.087Y-80.454
X184.087Y-82.995
X185.41Y-44.73
X185.41Y-47.27
X186.626Y-80.454
X186.626Y-82.995
X187.95Y-44.73
X187.95Y-47.27
X189.166Y-80.454
X189.166Y-82.995
X190.49Y-44.73
X190.49Y-47.27
X191.707Y-80.454
X191.707Y-82.995
X193.03Y-44.73
X193.03Y-47.27
X194.246Y-80.454
X194.246Y-82.995
X195.57Y-44.73
X195.57Y-47.27
X196.786Y-80.454
X196.786Y-82.995
X198.11Y-44.73
X198.11Y-47.27
X199.326Y-80.454
X199.326Y-82.995
X200.65Y-44.73
X200.65Y-47.27
X201.867Y-80.454
X201.867Y-82.995
X203.19Y-44.73
X203.19Y-47.27
X204.406Y-80.454
X204.406Y-82.995
X205.73Y-44.73
X205.73Y-47.27
X206.946Y-80.454
X206.946Y-82.995
X208.27Y-44.73
X208.27Y-47.27
X209.486Y-80.454
X209.486Y-82.995
X210.81Y-44.73
X210.81Y-47.27
X212.026Y-80.454
X212.026Y-82.995
X213.35Y-44.73
X213.35Y-47.27
X214.566Y-80.454
X214.566Y-82.995
X215.89Y-44.73
X215.89Y-47.27
X217.106Y-80.454
X217.106Y-82.995
X218.43Y-44.73
X218.43Y-47.27
X219.647Y-80.454
X219.647Y-82.995
X220.97Y-44.73
X220.97Y-47.27
X222.186Y-80.454
X222.186Y-82.995
X223.51Y-44.73
X223.51Y-47.27
X224.726Y-80.454
X224.726Y-82.995
X226.05Y-44.73
X226.05Y-47.27
X227.266Y-80.454
X227.266Y-82.995
X228.59Y-44.73
X228.59Y-47.27
X229.806Y-80.454
X229.806Y-82.995
X231.13Y-44.73
X231.13Y-47.27
X232.346Y-80.454
X232.346Y-82.995
X233.426Y-51.943
X233.426Y-54.483
X234.886Y-80.454
X234.886Y-82.995
X237.426Y-80.454
X237.426Y-82.995
T6
X190.382Y-87.63
X191.767Y-90.47
X193.152Y-87.63
X194.537Y-90.47
X195.922Y-87.63
X197.307Y-90.47
X198.692Y-87.63
X200.077Y-90.47
X201.462Y-87.63
X202.847Y-90.47
X204.232Y-87.63
X205.617Y-90.47
X207.002Y-87.63
X208.387Y-90.47
X209.772Y-87.63
X211.157Y-90.47
X212.542Y-87.63
X213.927Y-90.47
X215.312Y-87.63
X216.697Y-90.47
X218.082Y-87.63
X219.467Y-90.47
X220.852Y-87.63
X222.237Y-90.47
X223.622Y-87.63
T7
X201.11Y-67.5
X201.11Y-70.0
X201.11Y-72.5
X201.11Y-75.0
T8
X234.905Y-57.885
X234.905Y-65.035
X238.355Y-57.885
X238.355Y-65.035
T9
X178.0Y-46.0
X178.0Y-69.0
X178.0Y-95.0
X236.0Y-46.0
X236.0Y-69.0
X236.0Y-95.0
T10
X183.482Y-89.05
X230.522Y-89.05
T0
M30
