%TF.GenerationSoftware,KiCad,Pcbnew,(5.1.4)-1*%
%TF.CreationDate,2020-08-22T19:58:44-05:00*%
%TF.ProjectId,rascsi_tester,72617363-7369-45f7-9465-737465722e6b,rev?*%
%TF.SameCoordinates,PX59d60c0PY325aa00*%
%TF.FileFunction,Legend,Bot*%
%TF.FilePolarity,Positive*%
%FSLAX46Y46*%
G04 Gerber Fmt 4.6, Leading zero omitted, Abs format (unit mm)*
G04 Created by KiCad (PCBNEW (5.1.4)-1) date 2020-08-22 19:58:44*
%MOMM*%
%LPD*%
G04 APERTURE LIST*
%ADD10C,0.150000*%
%ADD11C,0.120000*%
%ADD12C,0.400000*%
%ADD13C,0.050000*%
%ADD14C,0.100000*%
%ADD15C,0.010000*%
G04 APERTURE END LIST*
D10*
X134491580Y3436620D02*
X133920152Y3436620D01*
X134205866Y2436620D02*
X134205866Y3436620D01*
X133205866Y2484239D02*
X133301104Y2436620D01*
X133491580Y2436620D01*
X133586819Y2484239D01*
X133634438Y2579477D01*
X133634438Y2960429D01*
X133586819Y3055667D01*
X133491580Y3103286D01*
X133301104Y3103286D01*
X133205866Y3055667D01*
X133158247Y2960429D01*
X133158247Y2865191D01*
X133634438Y2769953D01*
X132777295Y2484239D02*
X132682057Y2436620D01*
X132491580Y2436620D01*
X132396342Y2484239D01*
X132348723Y2579477D01*
X132348723Y2627096D01*
X132396342Y2722334D01*
X132491580Y2769953D01*
X132634438Y2769953D01*
X132729676Y2817572D01*
X132777295Y2912810D01*
X132777295Y2960429D01*
X132729676Y3055667D01*
X132634438Y3103286D01*
X132491580Y3103286D01*
X132396342Y3055667D01*
X132063009Y3103286D02*
X131682057Y3103286D01*
X131920152Y3436620D02*
X131920152Y2579477D01*
X131872533Y2484239D01*
X131777295Y2436620D01*
X131682057Y2436620D01*
X130253485Y2960429D02*
X130110628Y2912810D01*
X130063009Y2865191D01*
X130015390Y2769953D01*
X130015390Y2627096D01*
X130063009Y2531858D01*
X130110628Y2484239D01*
X130205866Y2436620D01*
X130586819Y2436620D01*
X130586819Y3436620D01*
X130253485Y3436620D01*
X130158247Y3389000D01*
X130110628Y3341381D01*
X130063009Y3246143D01*
X130063009Y3150905D01*
X130110628Y3055667D01*
X130158247Y3008048D01*
X130253485Y2960429D01*
X130586819Y2960429D01*
X129443961Y2436620D02*
X129539200Y2484239D01*
X129586819Y2531858D01*
X129634438Y2627096D01*
X129634438Y2912810D01*
X129586819Y3008048D01*
X129539200Y3055667D01*
X129443961Y3103286D01*
X129301104Y3103286D01*
X129205866Y3055667D01*
X129158247Y3008048D01*
X129110628Y2912810D01*
X129110628Y2627096D01*
X129158247Y2531858D01*
X129205866Y2484239D01*
X129301104Y2436620D01*
X129443961Y2436620D01*
X128253485Y2436620D02*
X128253485Y2960429D01*
X128301104Y3055667D01*
X128396342Y3103286D01*
X128586819Y3103286D01*
X128682057Y3055667D01*
X128253485Y2484239D02*
X128348723Y2436620D01*
X128586819Y2436620D01*
X128682057Y2484239D01*
X128729676Y2579477D01*
X128729676Y2674715D01*
X128682057Y2769953D01*
X128586819Y2817572D01*
X128348723Y2817572D01*
X128253485Y2865191D01*
X127777295Y2436620D02*
X127777295Y3103286D01*
X127777295Y2912810D02*
X127729676Y3008048D01*
X127682057Y3055667D01*
X127586819Y3103286D01*
X127491580Y3103286D01*
X126729676Y2436620D02*
X126729676Y3436620D01*
X126729676Y2484239D02*
X126824914Y2436620D01*
X127015390Y2436620D01*
X127110628Y2484239D01*
X127158247Y2531858D01*
X127205866Y2627096D01*
X127205866Y2912810D01*
X127158247Y3008048D01*
X127110628Y3055667D01*
X127015390Y3103286D01*
X126824914Y3103286D01*
X126729676Y3055667D01*
X143705866Y849120D02*
X143705866Y1849120D01*
X143277295Y849120D02*
X143277295Y1372929D01*
X143324914Y1468167D01*
X143420152Y1515786D01*
X143563009Y1515786D01*
X143658247Y1468167D01*
X143705866Y1420548D01*
X142943961Y1515786D02*
X142563009Y1515786D01*
X142801104Y1849120D02*
X142801104Y991977D01*
X142753485Y896739D01*
X142658247Y849120D01*
X142563009Y849120D01*
X142372533Y1515786D02*
X141991580Y1515786D01*
X142229676Y1849120D02*
X142229676Y991977D01*
X142182057Y896739D01*
X142086819Y849120D01*
X141991580Y849120D01*
X141658247Y1515786D02*
X141658247Y515786D01*
X141658247Y1468167D02*
X141563009Y1515786D01*
X141372533Y1515786D01*
X141277295Y1468167D01*
X141229676Y1420548D01*
X141182057Y1325310D01*
X141182057Y1039596D01*
X141229676Y944358D01*
X141277295Y896739D01*
X141372533Y849120D01*
X141563009Y849120D01*
X141658247Y896739D01*
X140801104Y896739D02*
X140705866Y849120D01*
X140515390Y849120D01*
X140420152Y896739D01*
X140372533Y991977D01*
X140372533Y1039596D01*
X140420152Y1134834D01*
X140515390Y1182453D01*
X140658247Y1182453D01*
X140753485Y1230072D01*
X140801104Y1325310D01*
X140801104Y1372929D01*
X140753485Y1468167D01*
X140658247Y1515786D01*
X140515390Y1515786D01*
X140420152Y1468167D01*
X139943961Y944358D02*
X139896342Y896739D01*
X139943961Y849120D01*
X139991580Y896739D01*
X139943961Y944358D01*
X139943961Y849120D01*
X139943961Y1468167D02*
X139896342Y1420548D01*
X139943961Y1372929D01*
X139991580Y1420548D01*
X139943961Y1468167D01*
X139943961Y1372929D01*
X138753485Y1896739D02*
X139610628Y611024D01*
X137705866Y1896739D02*
X138563009Y611024D01*
X136943961Y1515786D02*
X136943961Y706262D01*
X136991580Y611024D01*
X137039200Y563405D01*
X137134438Y515786D01*
X137277295Y515786D01*
X137372533Y563405D01*
X136943961Y896739D02*
X137039200Y849120D01*
X137229676Y849120D01*
X137324914Y896739D01*
X137372533Y944358D01*
X137420152Y1039596D01*
X137420152Y1325310D01*
X137372533Y1420548D01*
X137324914Y1468167D01*
X137229676Y1515786D01*
X137039200Y1515786D01*
X136943961Y1468167D01*
X136467771Y849120D02*
X136467771Y1515786D01*
X136467771Y1849120D02*
X136515390Y1801500D01*
X136467771Y1753881D01*
X136420152Y1801500D01*
X136467771Y1849120D01*
X136467771Y1753881D01*
X136134438Y1515786D02*
X135753485Y1515786D01*
X135991580Y1849120D02*
X135991580Y991977D01*
X135943961Y896739D01*
X135848723Y849120D01*
X135753485Y849120D01*
X135420152Y849120D02*
X135420152Y1849120D01*
X134991580Y849120D02*
X134991580Y1372929D01*
X135039200Y1468167D01*
X135134438Y1515786D01*
X135277295Y1515786D01*
X135372533Y1468167D01*
X135420152Y1420548D01*
X134086819Y1515786D02*
X134086819Y849120D01*
X134515390Y1515786D02*
X134515390Y991977D01*
X134467771Y896739D01*
X134372533Y849120D01*
X134229676Y849120D01*
X134134438Y896739D01*
X134086819Y944358D01*
X133610628Y849120D02*
X133610628Y1849120D01*
X133610628Y1468167D02*
X133515390Y1515786D01*
X133324914Y1515786D01*
X133229676Y1468167D01*
X133182057Y1420548D01*
X133134438Y1325310D01*
X133134438Y1039596D01*
X133182057Y944358D01*
X133229676Y896739D01*
X133324914Y849120D01*
X133515390Y849120D01*
X133610628Y896739D01*
X132705866Y944358D02*
X132658247Y896739D01*
X132705866Y849120D01*
X132753485Y896739D01*
X132705866Y944358D01*
X132705866Y849120D01*
X131801104Y896739D02*
X131896342Y849120D01*
X132086819Y849120D01*
X132182057Y896739D01*
X132229676Y944358D01*
X132277295Y1039596D01*
X132277295Y1325310D01*
X132229676Y1420548D01*
X132182057Y1468167D01*
X132086819Y1515786D01*
X131896342Y1515786D01*
X131801104Y1468167D01*
X131229676Y849120D02*
X131324914Y896739D01*
X131372533Y944358D01*
X131420152Y1039596D01*
X131420152Y1325310D01*
X131372533Y1420548D01*
X131324914Y1468167D01*
X131229676Y1515786D01*
X131086819Y1515786D01*
X130991580Y1468167D01*
X130943961Y1420548D01*
X130896342Y1325310D01*
X130896342Y1039596D01*
X130943961Y944358D01*
X130991580Y896739D01*
X131086819Y849120D01*
X131229676Y849120D01*
X130467771Y849120D02*
X130467771Y1515786D01*
X130467771Y1420548D02*
X130420152Y1468167D01*
X130324914Y1515786D01*
X130182057Y1515786D01*
X130086819Y1468167D01*
X130039200Y1372929D01*
X130039200Y849120D01*
X130039200Y1372929D02*
X129991580Y1468167D01*
X129896342Y1515786D01*
X129753485Y1515786D01*
X129658247Y1468167D01*
X129610628Y1372929D01*
X129610628Y849120D01*
X128420152Y1896739D02*
X129277295Y611024D01*
X127658247Y849120D02*
X127658247Y1372929D01*
X127705866Y1468167D01*
X127801104Y1515786D01*
X127991580Y1515786D01*
X128086819Y1468167D01*
X127658247Y896739D02*
X127753485Y849120D01*
X127991580Y849120D01*
X128086819Y896739D01*
X128134438Y991977D01*
X128134438Y1087215D01*
X128086819Y1182453D01*
X127991580Y1230072D01*
X127753485Y1230072D01*
X127658247Y1277691D01*
X127182057Y849120D02*
X127182057Y1849120D01*
X127086819Y1230072D02*
X126801104Y849120D01*
X126801104Y1515786D02*
X127182057Y1134834D01*
X125943961Y1515786D02*
X125943961Y849120D01*
X126372533Y1515786D02*
X126372533Y991977D01*
X126324914Y896739D01*
X126229676Y849120D01*
X126086819Y849120D01*
X125991580Y896739D01*
X125943961Y944358D01*
X125467771Y849120D02*
X125467771Y1849120D01*
X125372533Y1230072D02*
X125086819Y849120D01*
X125086819Y1515786D02*
X125467771Y1134834D01*
X124277295Y896739D02*
X124372533Y849120D01*
X124563009Y849120D01*
X124658247Y896739D01*
X124705866Y991977D01*
X124705866Y1372929D01*
X124658247Y1468167D01*
X124563009Y1515786D01*
X124372533Y1515786D01*
X124277295Y1468167D01*
X124229676Y1372929D01*
X124229676Y1277691D01*
X124705866Y1182453D01*
X123801104Y849120D02*
X123801104Y1515786D01*
X123801104Y1325310D02*
X123753485Y1420548D01*
X123705866Y1468167D01*
X123610628Y1515786D01*
X123515390Y1515786D01*
X122467771Y1896739D02*
X123324914Y611024D01*
X121563009Y849120D02*
X121896342Y1325310D01*
X122134438Y849120D02*
X122134438Y1849120D01*
X121753485Y1849120D01*
X121658247Y1801500D01*
X121610628Y1753881D01*
X121563009Y1658643D01*
X121563009Y1515786D01*
X121610628Y1420548D01*
X121658247Y1372929D01*
X121753485Y1325310D01*
X122134438Y1325310D01*
X121182057Y1134834D02*
X120705866Y1134834D01*
X121277295Y849120D02*
X120943961Y1849120D01*
X120610628Y849120D01*
X120324914Y896739D02*
X120182057Y849120D01*
X119943961Y849120D01*
X119848723Y896739D01*
X119801104Y944358D01*
X119753485Y1039596D01*
X119753485Y1134834D01*
X119801104Y1230072D01*
X119848723Y1277691D01*
X119943961Y1325310D01*
X120134438Y1372929D01*
X120229676Y1420548D01*
X120277295Y1468167D01*
X120324914Y1563405D01*
X120324914Y1658643D01*
X120277295Y1753881D01*
X120229676Y1801500D01*
X120134438Y1849120D01*
X119896342Y1849120D01*
X119753485Y1801500D01*
X118753485Y944358D02*
X118801104Y896739D01*
X118943961Y849120D01*
X119039200Y849120D01*
X119182057Y896739D01*
X119277295Y991977D01*
X119324914Y1087215D01*
X119372533Y1277691D01*
X119372533Y1420548D01*
X119324914Y1611024D01*
X119277295Y1706262D01*
X119182057Y1801500D01*
X119039200Y1849120D01*
X118943961Y1849120D01*
X118801104Y1801500D01*
X118753485Y1753881D01*
X118372533Y896739D02*
X118229676Y849120D01*
X117991580Y849120D01*
X117896342Y896739D01*
X117848723Y944358D01*
X117801104Y1039596D01*
X117801104Y1134834D01*
X117848723Y1230072D01*
X117896342Y1277691D01*
X117991580Y1325310D01*
X118182057Y1372929D01*
X118277295Y1420548D01*
X118324914Y1468167D01*
X118372533Y1563405D01*
X118372533Y1658643D01*
X118324914Y1753881D01*
X118277295Y1801500D01*
X118182057Y1849120D01*
X117943961Y1849120D01*
X117801104Y1801500D01*
X117372533Y849120D02*
X117372533Y1849120D01*
X99309885Y7822896D02*
X99690838Y7822896D01*
X99728933Y7441943D01*
X99690838Y7480039D01*
X99614647Y7518134D01*
X99424171Y7518134D01*
X99347980Y7480039D01*
X99309885Y7441943D01*
X99271790Y7365753D01*
X99271790Y7175277D01*
X99309885Y7099086D01*
X99347980Y7060991D01*
X99424171Y7022896D01*
X99614647Y7022896D01*
X99690838Y7060991D01*
X99728933Y7099086D01*
X99005123Y7556229D02*
X98814647Y7022896D01*
X98624171Y7556229D01*
X123406619Y-33769476D02*
X124406619Y-33769476D01*
X124454238Y-32817095D02*
X123168523Y-33502809D01*
X124406619Y-32398047D02*
X124406619Y-32245666D01*
X124359000Y-32169476D01*
X124263761Y-32093285D01*
X124073285Y-32055190D01*
X123739952Y-32055190D01*
X123549476Y-32093285D01*
X123454238Y-32169476D01*
X123406619Y-32245666D01*
X123406619Y-32398047D01*
X123454238Y-32474238D01*
X123549476Y-32550428D01*
X123739952Y-32588523D01*
X124073285Y-32588523D01*
X124263761Y-32550428D01*
X124359000Y-32474238D01*
X124406619Y-32398047D01*
X120612619Y-33312333D02*
X121088809Y-33578999D01*
X120612619Y-33769476D02*
X121612619Y-33769476D01*
X121612619Y-33464714D01*
X121565000Y-33388523D01*
X121517380Y-33350428D01*
X121422142Y-33312333D01*
X121279285Y-33312333D01*
X121184047Y-33350428D01*
X121136428Y-33388523D01*
X121088809Y-33464714D01*
X121088809Y-33769476D01*
X120660238Y-33007571D02*
X120612619Y-32893285D01*
X120612619Y-32702809D01*
X120660238Y-32626618D01*
X120707857Y-32588523D01*
X120803095Y-32550428D01*
X120898333Y-32550428D01*
X120993571Y-32588523D01*
X121041190Y-32626618D01*
X121088809Y-32702809D01*
X121136428Y-32855190D01*
X121184047Y-32931380D01*
X121231666Y-32969476D01*
X121326904Y-33007571D01*
X121422142Y-33007571D01*
X121517380Y-32969476D01*
X121565000Y-32931380D01*
X121612619Y-32855190D01*
X121612619Y-32664714D01*
X121565000Y-32550428D01*
X121612619Y-32321857D02*
X121612619Y-31864714D01*
X120612619Y-32093285D02*
X121612619Y-32093285D01*
X113802238Y-40697285D02*
X113754619Y-40583000D01*
X113754619Y-40392523D01*
X113802238Y-40316333D01*
X113849857Y-40278238D01*
X113945095Y-40240142D01*
X114040333Y-40240142D01*
X114135571Y-40278238D01*
X114183190Y-40316333D01*
X114230809Y-40392523D01*
X114278428Y-40544904D01*
X114326047Y-40621095D01*
X114373666Y-40659190D01*
X114468904Y-40697285D01*
X114564142Y-40697285D01*
X114659380Y-40659190D01*
X114707000Y-40621095D01*
X114754619Y-40544904D01*
X114754619Y-40354428D01*
X114707000Y-40240142D01*
X114278428Y-39897285D02*
X114278428Y-39630619D01*
X113754619Y-39516333D02*
X113754619Y-39897285D01*
X114754619Y-39897285D01*
X114754619Y-39516333D01*
X113754619Y-38792523D02*
X113754619Y-39173476D01*
X114754619Y-39173476D01*
X109563619Y-33769476D02*
X110563619Y-33769476D01*
X110563619Y-33579000D01*
X110516000Y-33464714D01*
X110420761Y-33388523D01*
X110325523Y-33350428D01*
X110135047Y-33312333D01*
X109992190Y-33312333D01*
X109801714Y-33350428D01*
X109706476Y-33388523D01*
X109611238Y-33464714D01*
X109563619Y-33579000D01*
X109563619Y-33769476D01*
X110563619Y-32817095D02*
X110563619Y-32740904D01*
X110516000Y-32664714D01*
X110468380Y-32626619D01*
X110373142Y-32588523D01*
X110182666Y-32550428D01*
X109944571Y-32550428D01*
X109754095Y-32588523D01*
X109658857Y-32626619D01*
X109611238Y-32664714D01*
X109563619Y-32740904D01*
X109563619Y-32817095D01*
X109611238Y-32893285D01*
X109658857Y-32931380D01*
X109754095Y-32969476D01*
X109944571Y-33007571D01*
X110182666Y-33007571D01*
X110373142Y-32969476D01*
X110468380Y-32931380D01*
X110516000Y-32893285D01*
X110563619Y-32817095D01*
X101181619Y-33769476D02*
X102181619Y-33769476D01*
X102181619Y-33579000D01*
X102134000Y-33464714D01*
X102038761Y-33388523D01*
X101943523Y-33350428D01*
X101753047Y-33312333D01*
X101610190Y-33312333D01*
X101419714Y-33350428D01*
X101324476Y-33388523D01*
X101229238Y-33464714D01*
X101181619Y-33579000D01*
X101181619Y-33769476D01*
X102181619Y-32588523D02*
X102181619Y-32969476D01*
X101705428Y-33007571D01*
X101753047Y-32969476D01*
X101800666Y-32893285D01*
X101800666Y-32702809D01*
X101753047Y-32626619D01*
X101705428Y-32588523D01*
X101610190Y-32550428D01*
X101372095Y-32550428D01*
X101276857Y-32588523D01*
X101229238Y-32626619D01*
X101181619Y-32702809D01*
X101181619Y-32893285D01*
X101229238Y-32969476D01*
X101276857Y-33007571D01*
X115611928Y-33502809D02*
X115564309Y-33388523D01*
X115516690Y-33350428D01*
X115421452Y-33312333D01*
X115278595Y-33312333D01*
X115183357Y-33350428D01*
X115135738Y-33388523D01*
X115088119Y-33464714D01*
X115088119Y-33769476D01*
X116088119Y-33769476D01*
X116088119Y-33502809D01*
X116040500Y-33426619D01*
X115992880Y-33388523D01*
X115897642Y-33350428D01*
X115802404Y-33350428D01*
X115707166Y-33388523D01*
X115659547Y-33426619D01*
X115611928Y-33502809D01*
X115611928Y-33769476D01*
X115135738Y-33007571D02*
X115088119Y-32893285D01*
X115088119Y-32702809D01*
X115135738Y-32626619D01*
X115183357Y-32588523D01*
X115278595Y-32550428D01*
X115373833Y-32550428D01*
X115469071Y-32588523D01*
X115516690Y-32626619D01*
X115564309Y-32702809D01*
X115611928Y-32855190D01*
X115659547Y-32931381D01*
X115707166Y-32969476D01*
X115802404Y-33007571D01*
X115897642Y-33007571D01*
X115992880Y-32969476D01*
X116040500Y-32931381D01*
X116088119Y-32855190D01*
X116088119Y-32664714D01*
X116040500Y-32550428D01*
X115564309Y-32055190D02*
X115088119Y-32055190D01*
X116088119Y-32321857D02*
X115564309Y-32055190D01*
X116088119Y-31788523D01*
X98387619Y-33769476D02*
X99387619Y-33769476D01*
X99387619Y-33579000D01*
X99340000Y-33464714D01*
X99244761Y-33388523D01*
X99149523Y-33350428D01*
X98959047Y-33312333D01*
X98816190Y-33312333D01*
X98625714Y-33350428D01*
X98530476Y-33388523D01*
X98435238Y-33464714D01*
X98387619Y-33579000D01*
X98387619Y-33769476D01*
X99387619Y-32626619D02*
X99387619Y-32779000D01*
X99340000Y-32855190D01*
X99292380Y-32893285D01*
X99149523Y-32969476D01*
X98959047Y-33007571D01*
X98578095Y-33007571D01*
X98482857Y-32969476D01*
X98435238Y-32931380D01*
X98387619Y-32855190D01*
X98387619Y-32702809D01*
X98435238Y-32626619D01*
X98482857Y-32588523D01*
X98578095Y-32550428D01*
X98816190Y-32550428D01*
X98911428Y-32588523D01*
X98959047Y-32626619D01*
X99006666Y-32702809D01*
X99006666Y-32855190D01*
X98959047Y-32931380D01*
X98911428Y-32969476D01*
X98816190Y-33007571D01*
X108103119Y-40087762D02*
X109103119Y-40087762D01*
X109103119Y-39897286D01*
X109055500Y-39783000D01*
X108960261Y-39706809D01*
X108865023Y-39668714D01*
X108674547Y-39630619D01*
X108531690Y-39630619D01*
X108341214Y-39668714D01*
X108245976Y-39706809D01*
X108150738Y-39783000D01*
X108103119Y-39897286D01*
X108103119Y-40087762D01*
X108103119Y-38868714D02*
X108103119Y-39325857D01*
X108103119Y-39097286D02*
X109103119Y-39097286D01*
X108960261Y-39173476D01*
X108865023Y-39249666D01*
X108817404Y-39325857D01*
X102451619Y-40087762D02*
X103451619Y-40087762D01*
X103451619Y-39897286D01*
X103404000Y-39783000D01*
X103308761Y-39706809D01*
X103213523Y-39668714D01*
X103023047Y-39630619D01*
X102880190Y-39630619D01*
X102689714Y-39668714D01*
X102594476Y-39706809D01*
X102499238Y-39783000D01*
X102451619Y-39897286D01*
X102451619Y-40087762D01*
X103118285Y-38944905D02*
X102451619Y-38944905D01*
X103499238Y-39135381D02*
X102784952Y-39325857D01*
X102784952Y-38830619D01*
X105372619Y-40087762D02*
X106372619Y-40087762D01*
X106372619Y-39897286D01*
X106325000Y-39783000D01*
X106229761Y-39706809D01*
X106134523Y-39668714D01*
X105944047Y-39630619D01*
X105801190Y-39630619D01*
X105610714Y-39668714D01*
X105515476Y-39706809D01*
X105420238Y-39783000D01*
X105372619Y-39897286D01*
X105372619Y-40087762D01*
X106277380Y-39325857D02*
X106325000Y-39287762D01*
X106372619Y-39211571D01*
X106372619Y-39021095D01*
X106325000Y-38944905D01*
X106277380Y-38906809D01*
X106182142Y-38868714D01*
X106086904Y-38868714D01*
X105944047Y-38906809D01*
X105372619Y-39363952D01*
X105372619Y-38868714D01*
X126200619Y-33769477D02*
X127200619Y-33769477D01*
X126486333Y-33502810D01*
X127200619Y-33236143D01*
X126200619Y-33236143D01*
X126248238Y-32893286D02*
X126200619Y-32779000D01*
X126200619Y-32588524D01*
X126248238Y-32512334D01*
X126295857Y-32474238D01*
X126391095Y-32436143D01*
X126486333Y-32436143D01*
X126581571Y-32474238D01*
X126629190Y-32512334D01*
X126676809Y-32588524D01*
X126724428Y-32740905D01*
X126772047Y-32817096D01*
X126819666Y-32855191D01*
X126914904Y-32893286D01*
X127010142Y-32893286D01*
X127105380Y-32855191D01*
X127153000Y-32817096D01*
X127200619Y-32740905D01*
X127200619Y-32550429D01*
X127153000Y-32436143D01*
X127153000Y-31674238D02*
X127200619Y-31750429D01*
X127200619Y-31864715D01*
X127153000Y-31979000D01*
X127057761Y-32055191D01*
X126962523Y-32093286D01*
X126772047Y-32131381D01*
X126629190Y-32131381D01*
X126438714Y-32093286D01*
X126343476Y-32055191D01*
X126248238Y-31979000D01*
X126200619Y-31864715D01*
X126200619Y-31788524D01*
X126248238Y-31674238D01*
X126295857Y-31636143D01*
X126629190Y-31636143D01*
X126629190Y-31788524D01*
X97927119Y-41763953D02*
X97927119Y-41306810D01*
X96927119Y-41535381D02*
X97927119Y-41535381D01*
X96927119Y-41040143D02*
X97927119Y-41040143D01*
X97927119Y-40735381D01*
X97879500Y-40659191D01*
X97831880Y-40621096D01*
X97736642Y-40583000D01*
X97593785Y-40583000D01*
X97498547Y-40621096D01*
X97450928Y-40659191D01*
X97403309Y-40735381D01*
X97403309Y-41040143D01*
X97927119Y-40316334D02*
X96927119Y-40125858D01*
X97641404Y-39973477D01*
X96927119Y-39821096D01*
X97927119Y-39630619D01*
X96927119Y-38868715D02*
X97403309Y-39135381D01*
X96927119Y-39325858D02*
X97927119Y-39325858D01*
X97927119Y-39021096D01*
X97879500Y-38944905D01*
X97831880Y-38906810D01*
X97736642Y-38868715D01*
X97593785Y-38868715D01*
X97498547Y-38906810D01*
X97450928Y-38944905D01*
X97403309Y-39021096D01*
X97403309Y-39325858D01*
X103975619Y-33769476D02*
X104975619Y-33769476D01*
X104975619Y-33579000D01*
X104928000Y-33464714D01*
X104832761Y-33388523D01*
X104737523Y-33350428D01*
X104547047Y-33312333D01*
X104404190Y-33312333D01*
X104213714Y-33350428D01*
X104118476Y-33388523D01*
X104023238Y-33464714D01*
X103975619Y-33579000D01*
X103975619Y-33769476D01*
X104975619Y-33045666D02*
X104975619Y-32550428D01*
X104594666Y-32817095D01*
X104594666Y-32702809D01*
X104547047Y-32626619D01*
X104499428Y-32588523D01*
X104404190Y-32550428D01*
X104166095Y-32550428D01*
X104070857Y-32588523D01*
X104023238Y-32626619D01*
X103975619Y-32702809D01*
X103975619Y-32931380D01*
X104023238Y-33007571D01*
X104070857Y-33045666D01*
X124771857Y-40506809D02*
X124724238Y-40544904D01*
X124676619Y-40659190D01*
X124676619Y-40735381D01*
X124724238Y-40849666D01*
X124819476Y-40925857D01*
X124914714Y-40963952D01*
X125105190Y-41002047D01*
X125248047Y-41002047D01*
X125438523Y-40963952D01*
X125533761Y-40925857D01*
X125629000Y-40849666D01*
X125676619Y-40735381D01*
X125676619Y-40659190D01*
X125629000Y-40544904D01*
X125581380Y-40506809D01*
X125724238Y-39592523D02*
X124438523Y-40278238D01*
X124676619Y-39325857D02*
X125676619Y-39325857D01*
X125676619Y-39135381D01*
X125629000Y-39021095D01*
X125533761Y-38944904D01*
X125438523Y-38906809D01*
X125248047Y-38868714D01*
X125105190Y-38868714D01*
X124914714Y-38906809D01*
X124819476Y-38944904D01*
X124724238Y-39021095D01*
X124676619Y-39135381D01*
X124676619Y-39325857D01*
X118231333Y-33807572D02*
X118231333Y-33426619D01*
X117945619Y-33883762D02*
X118945619Y-33617096D01*
X117945619Y-33350429D01*
X118040857Y-32626619D02*
X117993238Y-32664715D01*
X117945619Y-32779000D01*
X117945619Y-32855191D01*
X117993238Y-32969476D01*
X118088476Y-33045667D01*
X118183714Y-33083762D01*
X118374190Y-33121857D01*
X118517047Y-33121857D01*
X118707523Y-33083762D01*
X118802761Y-33045667D01*
X118898000Y-32969476D01*
X118945619Y-32855191D01*
X118945619Y-32779000D01*
X118898000Y-32664715D01*
X118850380Y-32626619D01*
X117945619Y-32283762D02*
X118945619Y-32283762D01*
X117945619Y-31826619D02*
X118517047Y-32169476D01*
X118945619Y-31826619D02*
X118374190Y-32283762D01*
X119437833Y-40697285D02*
X119437833Y-40316333D01*
X119152119Y-40773476D02*
X120152119Y-40506809D01*
X119152119Y-40240142D01*
X120152119Y-40087761D02*
X120152119Y-39630619D01*
X119152119Y-39859190D02*
X120152119Y-39859190D01*
X119152119Y-39363952D02*
X120152119Y-39363952D01*
X119152119Y-38906809D01*
X120152119Y-38906809D01*
X110770119Y-40125857D02*
X111770119Y-40125857D01*
X111770119Y-39935381D01*
X111722500Y-39821095D01*
X111627261Y-39744905D01*
X111532023Y-39706810D01*
X111341547Y-39668714D01*
X111198690Y-39668714D01*
X111008214Y-39706810D01*
X110912976Y-39744905D01*
X110817738Y-39821095D01*
X110770119Y-39935381D01*
X110770119Y-40125857D01*
X110770119Y-39325857D02*
X111770119Y-39325857D01*
X111770119Y-39021095D01*
X111722500Y-38944905D01*
X111674880Y-38906810D01*
X111579642Y-38868714D01*
X111436785Y-38868714D01*
X111341547Y-38906810D01*
X111293928Y-38944905D01*
X111246309Y-39021095D01*
X111246309Y-39325857D01*
X95657119Y-33769476D02*
X96657119Y-33769476D01*
X96657119Y-33579000D01*
X96609500Y-33464714D01*
X96514261Y-33388523D01*
X96419023Y-33350428D01*
X96228547Y-33312333D01*
X96085690Y-33312333D01*
X95895214Y-33350428D01*
X95799976Y-33388523D01*
X95704738Y-33464714D01*
X95657119Y-33579000D01*
X95657119Y-33769476D01*
X96657119Y-33045666D02*
X96657119Y-32512333D01*
X95657119Y-32855190D01*
X128994619Y-33312333D02*
X129470809Y-33579000D01*
X128994619Y-33769476D02*
X129994619Y-33769476D01*
X129994619Y-33464714D01*
X129947000Y-33388523D01*
X129899380Y-33350428D01*
X129804142Y-33312333D01*
X129661285Y-33312333D01*
X129566047Y-33350428D01*
X129518428Y-33388523D01*
X129470809Y-33464714D01*
X129470809Y-33769476D01*
X129518428Y-32969476D02*
X129518428Y-32702809D01*
X128994619Y-32588523D02*
X128994619Y-32969476D01*
X129994619Y-32969476D01*
X129994619Y-32588523D01*
X128899380Y-31712333D02*
X128947000Y-31788523D01*
X129042238Y-31864714D01*
X129185095Y-31979000D01*
X129232714Y-32055190D01*
X129232714Y-32131380D01*
X128994619Y-32093285D02*
X129042238Y-32169476D01*
X129137476Y-32245666D01*
X129327952Y-32283761D01*
X129661285Y-32283761D01*
X129851761Y-32245666D01*
X129947000Y-32169476D01*
X129994619Y-32093285D01*
X129994619Y-31940904D01*
X129947000Y-31864714D01*
X129851761Y-31788523D01*
X129661285Y-31750428D01*
X129327952Y-31750428D01*
X129137476Y-31788523D01*
X129042238Y-31864714D01*
X128994619Y-31940904D01*
X128994619Y-32093285D01*
X142647119Y-26022476D02*
X143647119Y-26022476D01*
X143694738Y-25070095D02*
X142409023Y-25755809D01*
X143647119Y-24651047D02*
X143647119Y-24498666D01*
X143599500Y-24422476D01*
X143504261Y-24346285D01*
X143313785Y-24308190D01*
X142980452Y-24308190D01*
X142789976Y-24346285D01*
X142694738Y-24422476D01*
X142647119Y-24498666D01*
X142647119Y-24651047D01*
X142694738Y-24727238D01*
X142789976Y-24803428D01*
X142980452Y-24841523D01*
X143313785Y-24841523D01*
X143504261Y-24803428D01*
X143599500Y-24727238D01*
X143647119Y-24651047D01*
X140152471Y-25565333D02*
X140628661Y-25832000D01*
X140152471Y-26022476D02*
X141152471Y-26022476D01*
X141152471Y-25717714D01*
X141104852Y-25641523D01*
X141057232Y-25603428D01*
X140961994Y-25565333D01*
X140819137Y-25565333D01*
X140723899Y-25603428D01*
X140676280Y-25641523D01*
X140628661Y-25717714D01*
X140628661Y-26022476D01*
X140676280Y-25222476D02*
X140676280Y-24955809D01*
X140152471Y-24841523D02*
X140152471Y-25222476D01*
X141152471Y-25222476D01*
X141152471Y-24841523D01*
X140057232Y-23965333D02*
X140104852Y-24041523D01*
X140200090Y-24117714D01*
X140342947Y-24232000D01*
X140390566Y-24308190D01*
X140390566Y-24384380D01*
X140152471Y-24346285D02*
X140200090Y-24422476D01*
X140295328Y-24498666D01*
X140485804Y-24536761D01*
X140819137Y-24536761D01*
X141009613Y-24498666D01*
X141104852Y-24422476D01*
X141152471Y-24346285D01*
X141152471Y-24193904D01*
X141104852Y-24117714D01*
X141009613Y-24041523D01*
X140819137Y-24003428D01*
X140485804Y-24003428D01*
X140295328Y-24041523D01*
X140200090Y-24117714D01*
X140152471Y-24193904D01*
X140152471Y-24346285D01*
X137753067Y-25565333D02*
X137705448Y-25603428D01*
X137657829Y-25717714D01*
X137657829Y-25793905D01*
X137705448Y-25908190D01*
X137800686Y-25984381D01*
X137895924Y-26022476D01*
X138086400Y-26060571D01*
X138229257Y-26060571D01*
X138419733Y-26022476D01*
X138514971Y-25984381D01*
X138610210Y-25908190D01*
X138657829Y-25793905D01*
X138657829Y-25717714D01*
X138610210Y-25603428D01*
X138562590Y-25565333D01*
X138705448Y-24651047D02*
X137419733Y-25336762D01*
X137657829Y-24384381D02*
X138657829Y-24384381D01*
X138657829Y-24193905D01*
X138610210Y-24079619D01*
X138514971Y-24003428D01*
X138419733Y-23965333D01*
X138229257Y-23927238D01*
X138086400Y-23927238D01*
X137895924Y-23965333D01*
X137800686Y-24003428D01*
X137705448Y-24079619D01*
X137657829Y-24193905D01*
X137657829Y-24384381D01*
X135210806Y-26060571D02*
X135163187Y-25946286D01*
X135163187Y-25755809D01*
X135210806Y-25679619D01*
X135258425Y-25641524D01*
X135353663Y-25603428D01*
X135448901Y-25603428D01*
X135544139Y-25641524D01*
X135591758Y-25679619D01*
X135639377Y-25755809D01*
X135686996Y-25908190D01*
X135734615Y-25984381D01*
X135782234Y-26022476D01*
X135877472Y-26060571D01*
X135972710Y-26060571D01*
X136067948Y-26022476D01*
X136115568Y-25984381D01*
X136163187Y-25908190D01*
X136163187Y-25717714D01*
X136115568Y-25603428D01*
X135686996Y-25260571D02*
X135686996Y-24993905D01*
X135163187Y-24879619D02*
X135163187Y-25260571D01*
X136163187Y-25260571D01*
X136163187Y-24879619D01*
X135163187Y-24155809D02*
X135163187Y-24536762D01*
X136163187Y-24536762D01*
X132668545Y-26022477D02*
X133668545Y-26022477D01*
X132954259Y-25755810D01*
X133668545Y-25489143D01*
X132668545Y-25489143D01*
X132716164Y-25146286D02*
X132668545Y-25032000D01*
X132668545Y-24841524D01*
X132716164Y-24765334D01*
X132763783Y-24727238D01*
X132859021Y-24689143D01*
X132954259Y-24689143D01*
X133049497Y-24727238D01*
X133097116Y-24765334D01*
X133144735Y-24841524D01*
X133192354Y-24993905D01*
X133239973Y-25070096D01*
X133287592Y-25108191D01*
X133382830Y-25146286D01*
X133478068Y-25146286D01*
X133573306Y-25108191D01*
X133620926Y-25070096D01*
X133668545Y-24993905D01*
X133668545Y-24803429D01*
X133620926Y-24689143D01*
X133620926Y-23927238D02*
X133668545Y-24003429D01*
X133668545Y-24117715D01*
X133620926Y-24232000D01*
X133525687Y-24308191D01*
X133430449Y-24346286D01*
X133239973Y-24384381D01*
X133097116Y-24384381D01*
X132906640Y-24346286D01*
X132811402Y-24308191D01*
X132716164Y-24232000D01*
X132668545Y-24117715D01*
X132668545Y-24041524D01*
X132716164Y-23927238D01*
X132763783Y-23889143D01*
X133097116Y-23889143D01*
X133097116Y-24041524D01*
X130173903Y-25565333D02*
X130650093Y-25831999D01*
X130173903Y-26022476D02*
X131173903Y-26022476D01*
X131173903Y-25717714D01*
X131126284Y-25641523D01*
X131078664Y-25603428D01*
X130983426Y-25565333D01*
X130840569Y-25565333D01*
X130745331Y-25603428D01*
X130697712Y-25641523D01*
X130650093Y-25717714D01*
X130650093Y-26022476D01*
X130221522Y-25260571D02*
X130173903Y-25146285D01*
X130173903Y-24955809D01*
X130221522Y-24879618D01*
X130269141Y-24841523D01*
X130364379Y-24803428D01*
X130459617Y-24803428D01*
X130554855Y-24841523D01*
X130602474Y-24879618D01*
X130650093Y-24955809D01*
X130697712Y-25108190D01*
X130745331Y-25184380D01*
X130792950Y-25222476D01*
X130888188Y-25260571D01*
X130983426Y-25260571D01*
X131078664Y-25222476D01*
X131126284Y-25184380D01*
X131173903Y-25108190D01*
X131173903Y-24917714D01*
X131126284Y-24803428D01*
X131173903Y-24574857D02*
X131173903Y-24117714D01*
X130173903Y-24346285D02*
X131173903Y-24346285D01*
X127964975Y-26060572D02*
X127964975Y-25679619D01*
X127679261Y-26136762D02*
X128679261Y-25870096D01*
X127679261Y-25603429D01*
X127774499Y-24879619D02*
X127726880Y-24917715D01*
X127679261Y-25032000D01*
X127679261Y-25108191D01*
X127726880Y-25222476D01*
X127822118Y-25298667D01*
X127917356Y-25336762D01*
X128107832Y-25374857D01*
X128250689Y-25374857D01*
X128441165Y-25336762D01*
X128536403Y-25298667D01*
X128631642Y-25222476D01*
X128679261Y-25108191D01*
X128679261Y-25032000D01*
X128631642Y-24917715D01*
X128584022Y-24879619D01*
X127679261Y-24536762D02*
X128679261Y-24536762D01*
X127679261Y-24079619D02*
X128250689Y-24422476D01*
X128679261Y-24079619D02*
X128107832Y-24536762D01*
X125708428Y-25755809D02*
X125660809Y-25641523D01*
X125613190Y-25603428D01*
X125517952Y-25565333D01*
X125375095Y-25565333D01*
X125279857Y-25603428D01*
X125232238Y-25641523D01*
X125184619Y-25717714D01*
X125184619Y-26022476D01*
X126184619Y-26022476D01*
X126184619Y-25755809D01*
X126137000Y-25679619D01*
X126089380Y-25641523D01*
X125994142Y-25603428D01*
X125898904Y-25603428D01*
X125803666Y-25641523D01*
X125756047Y-25679619D01*
X125708428Y-25755809D01*
X125708428Y-26022476D01*
X125232238Y-25260571D02*
X125184619Y-25146285D01*
X125184619Y-24955809D01*
X125232238Y-24879619D01*
X125279857Y-24841523D01*
X125375095Y-24803428D01*
X125470333Y-24803428D01*
X125565571Y-24841523D01*
X125613190Y-24879619D01*
X125660809Y-24955809D01*
X125708428Y-25108190D01*
X125756047Y-25184381D01*
X125803666Y-25222476D01*
X125898904Y-25260571D01*
X125994142Y-25260571D01*
X126089380Y-25222476D01*
X126137000Y-25184381D01*
X126184619Y-25108190D01*
X126184619Y-24917714D01*
X126137000Y-24803428D01*
X125660809Y-24308190D02*
X125184619Y-24308190D01*
X126184619Y-24574857D02*
X125660809Y-24308190D01*
X126184619Y-24041523D01*
X120390333Y-26060571D02*
X120390333Y-25679619D01*
X120104619Y-26136762D02*
X121104619Y-25870095D01*
X120104619Y-25603428D01*
X121104619Y-25451047D02*
X121104619Y-24993905D01*
X120104619Y-25222476D02*
X121104619Y-25222476D01*
X120104619Y-24727238D02*
X121104619Y-24727238D01*
X120104619Y-24270095D01*
X121104619Y-24270095D01*
X113294119Y-26136762D02*
X113294119Y-25679619D01*
X112294119Y-25908190D02*
X113294119Y-25908190D01*
X112294119Y-25412952D02*
X113294119Y-25412952D01*
X113294119Y-25108190D01*
X113246500Y-25032000D01*
X113198880Y-24993905D01*
X113103642Y-24955809D01*
X112960785Y-24955809D01*
X112865547Y-24993905D01*
X112817928Y-25032000D01*
X112770309Y-25108190D01*
X112770309Y-25412952D01*
X113294119Y-24689143D02*
X112294119Y-24498667D01*
X113008404Y-24346286D01*
X112294119Y-24193905D01*
X113294119Y-24003428D01*
X112294119Y-23241524D02*
X112770309Y-23508190D01*
X112294119Y-23698667D02*
X113294119Y-23698667D01*
X113294119Y-23393905D01*
X113246500Y-23317714D01*
X113198880Y-23279619D01*
X113103642Y-23241524D01*
X112960785Y-23241524D01*
X112865547Y-23279619D01*
X112817928Y-23317714D01*
X112770309Y-23393905D01*
X112770309Y-23698667D01*
X102070619Y-26022476D02*
X103070619Y-26022476D01*
X103070619Y-25832000D01*
X103023000Y-25717714D01*
X102927761Y-25641523D01*
X102832523Y-25603428D01*
X102642047Y-25565333D01*
X102499190Y-25565333D01*
X102308714Y-25603428D01*
X102213476Y-25641523D01*
X102118238Y-25717714D01*
X102070619Y-25832000D01*
X102070619Y-26022476D01*
X102642047Y-25108190D02*
X102689666Y-25184380D01*
X102737285Y-25222476D01*
X102832523Y-25260571D01*
X102880142Y-25260571D01*
X102975380Y-25222476D01*
X103023000Y-25184380D01*
X103070619Y-25108190D01*
X103070619Y-24955809D01*
X103023000Y-24879619D01*
X102975380Y-24841523D01*
X102880142Y-24803428D01*
X102832523Y-24803428D01*
X102737285Y-24841523D01*
X102689666Y-24879619D01*
X102642047Y-24955809D01*
X102642047Y-25108190D01*
X102594428Y-25184380D01*
X102546809Y-25222476D01*
X102451571Y-25260571D01*
X102261095Y-25260571D01*
X102165857Y-25222476D01*
X102118238Y-25184380D01*
X102070619Y-25108190D01*
X102070619Y-24955809D01*
X102118238Y-24879619D01*
X102165857Y-24841523D01*
X102261095Y-24803428D01*
X102451571Y-24803428D01*
X102546809Y-24841523D01*
X102594428Y-24879619D01*
X102642047Y-24955809D01*
X99538553Y-26022476D02*
X100538553Y-26022476D01*
X100538553Y-25832000D01*
X100490934Y-25717714D01*
X100395695Y-25641523D01*
X100300457Y-25603428D01*
X100109981Y-25565333D01*
X99967124Y-25565333D01*
X99776648Y-25603428D01*
X99681410Y-25641523D01*
X99586172Y-25717714D01*
X99538553Y-25832000D01*
X99538553Y-26022476D01*
X100538553Y-25298666D02*
X100538553Y-24765333D01*
X99538553Y-25108190D01*
X97006491Y-26022476D02*
X98006491Y-26022476D01*
X98006491Y-25832000D01*
X97958872Y-25717714D01*
X97863633Y-25641523D01*
X97768395Y-25603428D01*
X97577919Y-25565333D01*
X97435062Y-25565333D01*
X97244586Y-25603428D01*
X97149348Y-25641523D01*
X97054110Y-25717714D01*
X97006491Y-25832000D01*
X97006491Y-26022476D01*
X98006491Y-24879619D02*
X98006491Y-25032000D01*
X97958872Y-25108190D01*
X97911252Y-25146285D01*
X97768395Y-25222476D01*
X97577919Y-25260571D01*
X97196967Y-25260571D01*
X97101729Y-25222476D01*
X97054110Y-25184380D01*
X97006491Y-25108190D01*
X97006491Y-24955809D01*
X97054110Y-24879619D01*
X97101729Y-24841523D01*
X97196967Y-24803428D01*
X97435062Y-24803428D01*
X97530300Y-24841523D01*
X97577919Y-24879619D01*
X97625538Y-24955809D01*
X97625538Y-25108190D01*
X97577919Y-25184380D01*
X97530300Y-25222476D01*
X97435062Y-25260571D01*
X94474429Y-26022476D02*
X95474429Y-26022476D01*
X95474429Y-25832000D01*
X95426810Y-25717714D01*
X95331571Y-25641523D01*
X95236333Y-25603428D01*
X95045857Y-25565333D01*
X94903000Y-25565333D01*
X94712524Y-25603428D01*
X94617286Y-25641523D01*
X94522048Y-25717714D01*
X94474429Y-25832000D01*
X94474429Y-26022476D01*
X95474429Y-24841523D02*
X95474429Y-25222476D01*
X94998238Y-25260571D01*
X95045857Y-25222476D01*
X95093476Y-25146285D01*
X95093476Y-24955809D01*
X95045857Y-24879619D01*
X94998238Y-24841523D01*
X94903000Y-24803428D01*
X94664905Y-24803428D01*
X94569667Y-24841523D01*
X94522048Y-24879619D01*
X94474429Y-24955809D01*
X94474429Y-25146285D01*
X94522048Y-25222476D01*
X94569667Y-25260571D01*
X91942367Y-26022476D02*
X92942367Y-26022476D01*
X92942367Y-25832000D01*
X92894748Y-25717714D01*
X92799509Y-25641523D01*
X92704271Y-25603428D01*
X92513795Y-25565333D01*
X92370938Y-25565333D01*
X92180462Y-25603428D01*
X92085224Y-25641523D01*
X91989986Y-25717714D01*
X91942367Y-25832000D01*
X91942367Y-26022476D01*
X92609033Y-24879619D02*
X91942367Y-24879619D01*
X92989986Y-25070095D02*
X92275700Y-25260571D01*
X92275700Y-24765333D01*
X89410305Y-26022476D02*
X90410305Y-26022476D01*
X90410305Y-25832000D01*
X90362686Y-25717714D01*
X90267447Y-25641523D01*
X90172209Y-25603428D01*
X89981733Y-25565333D01*
X89838876Y-25565333D01*
X89648400Y-25603428D01*
X89553162Y-25641523D01*
X89457924Y-25717714D01*
X89410305Y-25832000D01*
X89410305Y-26022476D01*
X90410305Y-25298666D02*
X90410305Y-24803428D01*
X90029352Y-25070095D01*
X90029352Y-24955809D01*
X89981733Y-24879619D01*
X89934114Y-24841523D01*
X89838876Y-24803428D01*
X89600781Y-24803428D01*
X89505543Y-24841523D01*
X89457924Y-24879619D01*
X89410305Y-24955809D01*
X89410305Y-25184380D01*
X89457924Y-25260571D01*
X89505543Y-25298666D01*
X86878243Y-26022476D02*
X87878243Y-26022476D01*
X87878243Y-25832000D01*
X87830624Y-25717714D01*
X87735385Y-25641523D01*
X87640147Y-25603428D01*
X87449671Y-25565333D01*
X87306814Y-25565333D01*
X87116338Y-25603428D01*
X87021100Y-25641523D01*
X86925862Y-25717714D01*
X86878243Y-25832000D01*
X86878243Y-26022476D01*
X87783004Y-25260571D02*
X87830624Y-25222476D01*
X87878243Y-25146285D01*
X87878243Y-24955809D01*
X87830624Y-24879619D01*
X87783004Y-24841523D01*
X87687766Y-24803428D01*
X87592528Y-24803428D01*
X87449671Y-24841523D01*
X86878243Y-25298666D01*
X86878243Y-24803428D01*
X84346181Y-26022476D02*
X85346181Y-26022476D01*
X85346181Y-25832000D01*
X85298562Y-25717714D01*
X85203323Y-25641523D01*
X85108085Y-25603428D01*
X84917609Y-25565333D01*
X84774752Y-25565333D01*
X84584276Y-25603428D01*
X84489038Y-25641523D01*
X84393800Y-25717714D01*
X84346181Y-25832000D01*
X84346181Y-26022476D01*
X84346181Y-24803428D02*
X84346181Y-25260571D01*
X84346181Y-25032000D02*
X85346181Y-25032000D01*
X85203323Y-25108190D01*
X85108085Y-25184380D01*
X85060466Y-25260571D01*
X81814119Y-26022476D02*
X82814119Y-26022476D01*
X82814119Y-25832000D01*
X82766500Y-25717714D01*
X82671261Y-25641523D01*
X82576023Y-25603428D01*
X82385547Y-25565333D01*
X82242690Y-25565333D01*
X82052214Y-25603428D01*
X81956976Y-25641523D01*
X81861738Y-25717714D01*
X81814119Y-25832000D01*
X81814119Y-26022476D01*
X82814119Y-25070095D02*
X82814119Y-24993904D01*
X82766500Y-24917714D01*
X82718880Y-24879619D01*
X82623642Y-24841523D01*
X82433166Y-24803428D01*
X82195071Y-24803428D01*
X82004595Y-24841523D01*
X81909357Y-24879619D01*
X81861738Y-24917714D01*
X81814119Y-24993904D01*
X81814119Y-25070095D01*
X81861738Y-25146285D01*
X81909357Y-25184380D01*
X82004595Y-25222476D01*
X82195071Y-25260571D01*
X82433166Y-25260571D01*
X82623642Y-25222476D01*
X82718880Y-25184380D01*
X82766500Y-25146285D01*
X82814119Y-25070095D01*
D11*
X99957600Y6673600D02*
X99957600Y8007100D01*
X101291100Y6673600D02*
X99957600Y6673600D01*
X102497600Y9277100D02*
X102497600Y6673600D01*
X105164600Y9277100D02*
X102497600Y9277100D01*
X105164600Y6673600D02*
X105164600Y9277100D01*
X102561100Y6673600D02*
X105164600Y6673600D01*
D10*
X81837833Y-32123380D02*
X81837833Y-32837666D01*
X81885452Y-32980523D01*
X81980690Y-33075761D01*
X82123547Y-33123380D01*
X82218785Y-33123380D01*
X81456880Y-32123380D02*
X80837833Y-32123380D01*
X81171166Y-32504333D01*
X81028309Y-32504333D01*
X80933071Y-32551952D01*
X80885452Y-32599571D01*
X80837833Y-32694809D01*
X80837833Y-32932904D01*
X80885452Y-33028142D01*
X80933071Y-33075761D01*
X81028309Y-33123380D01*
X81314023Y-33123380D01*
X81409261Y-33075761D01*
X81456880Y-33028142D01*
X136816133Y-32199580D02*
X136816133Y-32913866D01*
X136863752Y-33056723D01*
X136958990Y-33151961D01*
X137101847Y-33199580D01*
X137197085Y-33199580D01*
X135911371Y-32199580D02*
X136101847Y-32199580D01*
X136197085Y-32247200D01*
X136244704Y-32294819D01*
X136339942Y-32437676D01*
X136387561Y-32628152D01*
X136387561Y-33009104D01*
X136339942Y-33104342D01*
X136292323Y-33151961D01*
X136197085Y-33199580D01*
X136006609Y-33199580D01*
X135911371Y-33151961D01*
X135863752Y-33104342D01*
X135816133Y-33009104D01*
X135816133Y-32771009D01*
X135863752Y-32675771D01*
X135911371Y-32628152D01*
X136006609Y-32580533D01*
X136197085Y-32580533D01*
X136292323Y-32628152D01*
X136339942Y-32675771D01*
X136387561Y-32771009D01*
D12*
X117042261Y-14576761D02*
X117589880Y-13624380D01*
X118185119Y-14576761D02*
X117935119Y-12576761D01*
X117173214Y-12576761D01*
X116994642Y-12672000D01*
X116911309Y-12767238D01*
X116839880Y-12957714D01*
X116875595Y-13243428D01*
X116994642Y-13433904D01*
X117101785Y-13529142D01*
X117304166Y-13624380D01*
X118066071Y-13624380D01*
X115327976Y-14576761D02*
X115197023Y-13529142D01*
X115268452Y-13338666D01*
X115447023Y-13243428D01*
X115827976Y-13243428D01*
X116030357Y-13338666D01*
X115316071Y-14481523D02*
X115518452Y-14576761D01*
X115994642Y-14576761D01*
X116173214Y-14481523D01*
X116244642Y-14291047D01*
X116220833Y-14100571D01*
X116101785Y-13910095D01*
X115899404Y-13814857D01*
X115423214Y-13814857D01*
X115220833Y-13719619D01*
X114458928Y-14481523D02*
X114185119Y-14576761D01*
X113708928Y-14576761D01*
X113506547Y-14481523D01*
X113399404Y-14386285D01*
X113280357Y-14195809D01*
X113256547Y-14005333D01*
X113327976Y-13814857D01*
X113411309Y-13719619D01*
X113589880Y-13624380D01*
X113958928Y-13529142D01*
X114137500Y-13433904D01*
X114220833Y-13338666D01*
X114292261Y-13148190D01*
X114268452Y-12957714D01*
X114149404Y-12767238D01*
X114042261Y-12672000D01*
X113839880Y-12576761D01*
X113363690Y-12576761D01*
X113089880Y-12672000D01*
X111304166Y-14386285D02*
X111411309Y-14481523D01*
X111708928Y-14576761D01*
X111899404Y-14576761D01*
X112173214Y-14481523D01*
X112339880Y-14291047D01*
X112411309Y-14100571D01*
X112458928Y-13719619D01*
X112423214Y-13433904D01*
X112280357Y-13052952D01*
X112161309Y-12862476D01*
X111947023Y-12672000D01*
X111649404Y-12576761D01*
X111458928Y-12576761D01*
X111185119Y-12672000D01*
X111101785Y-12767238D01*
X110554166Y-14481523D02*
X110280357Y-14576761D01*
X109804166Y-14576761D01*
X109601785Y-14481523D01*
X109494642Y-14386285D01*
X109375595Y-14195809D01*
X109351785Y-14005333D01*
X109423214Y-13814857D01*
X109506547Y-13719619D01*
X109685119Y-13624380D01*
X110054166Y-13529142D01*
X110232738Y-13433904D01*
X110316071Y-13338666D01*
X110387500Y-13148190D01*
X110363690Y-12957714D01*
X110244642Y-12767238D01*
X110137500Y-12672000D01*
X109935119Y-12576761D01*
X109458928Y-12576761D01*
X109185119Y-12672000D01*
X108566071Y-14576761D02*
X108316071Y-12576761D01*
D10*
X120167476Y-11219380D02*
X120357952Y-11219380D01*
X120453190Y-11267000D01*
X120500809Y-11314619D01*
X120596047Y-11457476D01*
X120643666Y-11647952D01*
X120643666Y-12028904D01*
X120596047Y-12124142D01*
X120548428Y-12171761D01*
X120453190Y-12219380D01*
X120262714Y-12219380D01*
X120167476Y-12171761D01*
X120119857Y-12124142D01*
X120072238Y-12028904D01*
X120072238Y-11790809D01*
X120119857Y-11695571D01*
X120167476Y-11647952D01*
X120262714Y-11600333D01*
X120453190Y-11600333D01*
X120548428Y-11647952D01*
X120596047Y-11695571D01*
X120643666Y-11790809D01*
X119500809Y-11647952D02*
X119596047Y-11600333D01*
X119643666Y-11552714D01*
X119691285Y-11457476D01*
X119691285Y-11409857D01*
X119643666Y-11314619D01*
X119596047Y-11267000D01*
X119500809Y-11219380D01*
X119310333Y-11219380D01*
X119215095Y-11267000D01*
X119167476Y-11314619D01*
X119119857Y-11409857D01*
X119119857Y-11457476D01*
X119167476Y-11552714D01*
X119215095Y-11600333D01*
X119310333Y-11647952D01*
X119500809Y-11647952D01*
X119596047Y-11695571D01*
X119643666Y-11743190D01*
X119691285Y-11838428D01*
X119691285Y-12028904D01*
X119643666Y-12124142D01*
X119596047Y-12171761D01*
X119500809Y-12219380D01*
X119310333Y-12219380D01*
X119215095Y-12171761D01*
X119167476Y-12124142D01*
X119119857Y-12028904D01*
X119119857Y-11838428D01*
X119167476Y-11743190D01*
X119215095Y-11695571D01*
X119310333Y-11647952D01*
X118691285Y-12219380D02*
X118691285Y-11219380D01*
X118596047Y-11838428D02*
X118310333Y-12219380D01*
X118310333Y-11552714D02*
X118691285Y-11933666D01*
X117881761Y-12219380D02*
X117881761Y-11552714D01*
X117881761Y-11647952D02*
X117834142Y-11600333D01*
X117738904Y-11552714D01*
X117596047Y-11552714D01*
X117500809Y-11600333D01*
X117453190Y-11695571D01*
X117453190Y-12219380D01*
X117453190Y-11695571D02*
X117405571Y-11600333D01*
X117310333Y-11552714D01*
X117167476Y-11552714D01*
X117072238Y-11600333D01*
X117024619Y-11695571D01*
X117024619Y-12219380D01*
X116405571Y-12219380D02*
X116500809Y-12171761D01*
X116548428Y-12076523D01*
X116548428Y-11219380D01*
X115596047Y-12219380D02*
X115596047Y-11695571D01*
X115643666Y-11600333D01*
X115738904Y-11552714D01*
X115929380Y-11552714D01*
X116024619Y-11600333D01*
X115596047Y-12171761D02*
X115691285Y-12219380D01*
X115929380Y-12219380D01*
X116024619Y-12171761D01*
X116072238Y-12076523D01*
X116072238Y-11981285D01*
X116024619Y-11886047D01*
X115929380Y-11838428D01*
X115691285Y-11838428D01*
X115596047Y-11790809D01*
X114500809Y-11219380D02*
X114167476Y-12219380D01*
X113834142Y-11219380D01*
X113119857Y-12171761D02*
X113215095Y-12219380D01*
X113405571Y-12219380D01*
X113500809Y-12171761D01*
X113548428Y-12076523D01*
X113548428Y-11695571D01*
X113500809Y-11600333D01*
X113405571Y-11552714D01*
X113215095Y-11552714D01*
X113119857Y-11600333D01*
X113072238Y-11695571D01*
X113072238Y-11790809D01*
X113548428Y-11886047D01*
X112643666Y-12219380D02*
X112643666Y-11552714D01*
X112643666Y-11743190D02*
X112596047Y-11647952D01*
X112548428Y-11600333D01*
X112453190Y-11552714D01*
X112357952Y-11552714D01*
X112072238Y-12171761D02*
X111977000Y-12219380D01*
X111786523Y-12219380D01*
X111691285Y-12171761D01*
X111643666Y-12076523D01*
X111643666Y-12028904D01*
X111691285Y-11933666D01*
X111786523Y-11886047D01*
X111929380Y-11886047D01*
X112024619Y-11838428D01*
X112072238Y-11743190D01*
X112072238Y-11695571D01*
X112024619Y-11600333D01*
X111929380Y-11552714D01*
X111786523Y-11552714D01*
X111691285Y-11600333D01*
X111215095Y-12219380D02*
X111215095Y-11552714D01*
X111215095Y-11219380D02*
X111262714Y-11267000D01*
X111215095Y-11314619D01*
X111167476Y-11267000D01*
X111215095Y-11219380D01*
X111215095Y-11314619D01*
X110596047Y-12219380D02*
X110691285Y-12171761D01*
X110738904Y-12124142D01*
X110786523Y-12028904D01*
X110786523Y-11743190D01*
X110738904Y-11647952D01*
X110691285Y-11600333D01*
X110596047Y-11552714D01*
X110453190Y-11552714D01*
X110357952Y-11600333D01*
X110310333Y-11647952D01*
X110262714Y-11743190D01*
X110262714Y-12028904D01*
X110310333Y-12124142D01*
X110357952Y-12171761D01*
X110453190Y-12219380D01*
X110596047Y-12219380D01*
X109834142Y-11552714D02*
X109834142Y-12219380D01*
X109834142Y-11647952D02*
X109786523Y-11600333D01*
X109691285Y-11552714D01*
X109548428Y-11552714D01*
X109453190Y-11600333D01*
X109405571Y-11695571D01*
X109405571Y-12219380D01*
X108215095Y-11314619D02*
X108167476Y-11267000D01*
X108072238Y-11219380D01*
X107834142Y-11219380D01*
X107738904Y-11267000D01*
X107691285Y-11314619D01*
X107643666Y-11409857D01*
X107643666Y-11505095D01*
X107691285Y-11647952D01*
X108262714Y-12219380D01*
X107643666Y-12219380D01*
X107215095Y-12124142D02*
X107167476Y-12171761D01*
X107215095Y-12219380D01*
X107262714Y-12171761D01*
X107215095Y-12124142D01*
X107215095Y-12219380D01*
X106786523Y-11314619D02*
X106738904Y-11267000D01*
X106643666Y-11219380D01*
X106405571Y-11219380D01*
X106310333Y-11267000D01*
X106262714Y-11314619D01*
X106215095Y-11409857D01*
X106215095Y-11505095D01*
X106262714Y-11647952D01*
X106834142Y-12219380D01*
X106215095Y-12219380D01*
X105786523Y-12219380D02*
X105786523Y-11219380D01*
X105786523Y-11600333D02*
X105691285Y-11552714D01*
X105500809Y-11552714D01*
X105405571Y-11600333D01*
X105357952Y-11647952D01*
X105310333Y-11743190D01*
X105310333Y-12028904D01*
X105357952Y-12124142D01*
X105405571Y-12171761D01*
X105500809Y-12219380D01*
X105691285Y-12219380D01*
X105786523Y-12171761D01*
D11*
X121422500Y-15577000D02*
X121422500Y-10497000D01*
X121359000Y-10497000D02*
X104404500Y-10497000D01*
X104976000Y-10878000D02*
X120978000Y-10878000D01*
X104976000Y-10878000D02*
X104912500Y-10878000D01*
X120978000Y-15196000D02*
X104912500Y-15196000D01*
X104912500Y-15196000D02*
X104912500Y-10941500D01*
X120978000Y-10878000D02*
X120978000Y-15196000D01*
X121422500Y-15577000D02*
X104404500Y-15577000D01*
X104912500Y-10878000D02*
X104912500Y-11132000D01*
X104404500Y-10497000D02*
X104404500Y-15577000D01*
X94943000Y-55963000D02*
X94879500Y-55963000D01*
X94879500Y-55963000D02*
X94879500Y-56217000D01*
X111667000Y-14764000D02*
X111794000Y-14764000D01*
X128304000Y-35973000D02*
X130717000Y-35973000D01*
X130717000Y-35973000D02*
X130717000Y-33687000D01*
X128177000Y-36100000D02*
X130844000Y-36100000D01*
X130844000Y-36100000D02*
X130844000Y-33560000D01*
X144560000Y-31528000D02*
X83473000Y-31528000D01*
X144560000Y-26321000D02*
X144560000Y-31528000D01*
X80933000Y-26321000D02*
X144560000Y-26321000D01*
X80933000Y-28988000D02*
X80933000Y-26321000D01*
X83473000Y-28988000D02*
X80933000Y-28988000D01*
X83473000Y-31528000D02*
X83473000Y-28988000D01*
X80933000Y-31528000D02*
X82330000Y-31528000D01*
X80933000Y-30131000D02*
X80933000Y-31528000D01*
D10*
X104580323Y6362400D02*
X104656514Y6400496D01*
X104770800Y6400496D01*
X104885085Y6362400D01*
X104961276Y6286210D01*
X104999371Y6210020D01*
X105037466Y6057639D01*
X105037466Y5943353D01*
X104999371Y5790972D01*
X104961276Y5714781D01*
X104885085Y5638591D01*
X104770800Y5600496D01*
X104694609Y5600496D01*
X104580323Y5638591D01*
X104542228Y5676686D01*
X104542228Y5943353D01*
X104694609Y5943353D01*
X104199371Y5600496D02*
X104199371Y6400496D01*
X103742228Y5600496D01*
X103742228Y6400496D01*
X103361276Y5600496D02*
X103361276Y6400496D01*
X103170800Y6400496D01*
X103056514Y6362400D01*
X102980323Y6286210D01*
X102942228Y6210020D01*
X102904133Y6057639D01*
X102904133Y5943353D01*
X102942228Y5790972D01*
X102980323Y5714781D01*
X103056514Y5638591D01*
X103170800Y5600496D01*
X103361276Y5600496D01*
X124389333Y-7485761D02*
X124246476Y-7533380D01*
X124008380Y-7533380D01*
X123913142Y-7485761D01*
X123865523Y-7438142D01*
X123817904Y-7342904D01*
X123817904Y-7247666D01*
X123865523Y-7152428D01*
X123913142Y-7104809D01*
X124008380Y-7057190D01*
X124198857Y-7009571D01*
X124294095Y-6961952D01*
X124341714Y-6914333D01*
X124389333Y-6819095D01*
X124389333Y-6723857D01*
X124341714Y-6628619D01*
X124294095Y-6581000D01*
X124198857Y-6533380D01*
X123960761Y-6533380D01*
X123817904Y-6581000D01*
X123389333Y-6866714D02*
X123389333Y-7866714D01*
X123389333Y-6914333D02*
X123294095Y-6866714D01*
X123103619Y-6866714D01*
X123008380Y-6914333D01*
X122960761Y-6961952D01*
X122913142Y-7057190D01*
X122913142Y-7342904D01*
X122960761Y-7438142D01*
X123008380Y-7485761D01*
X123103619Y-7533380D01*
X123294095Y-7533380D01*
X123389333Y-7485761D01*
X122103619Y-7485761D02*
X122198857Y-7533380D01*
X122389333Y-7533380D01*
X122484571Y-7485761D01*
X122532190Y-7390523D01*
X122532190Y-7009571D01*
X122484571Y-6914333D01*
X122389333Y-6866714D01*
X122198857Y-6866714D01*
X122103619Y-6914333D01*
X122056000Y-7009571D01*
X122056000Y-7104809D01*
X122532190Y-7200047D01*
X121198857Y-7485761D02*
X121294095Y-7533380D01*
X121484571Y-7533380D01*
X121579809Y-7485761D01*
X121627428Y-7438142D01*
X121675047Y-7342904D01*
X121675047Y-7057190D01*
X121627428Y-6961952D01*
X121579809Y-6914333D01*
X121484571Y-6866714D01*
X121294095Y-6866714D01*
X121198857Y-6914333D01*
X120770285Y-7533380D02*
X120770285Y-6866714D01*
X120770285Y-6533380D02*
X120817904Y-6581000D01*
X120770285Y-6628619D01*
X120722666Y-6581000D01*
X120770285Y-6533380D01*
X120770285Y-6628619D01*
X119865523Y-7533380D02*
X119865523Y-7009571D01*
X119913142Y-6914333D01*
X120008380Y-6866714D01*
X120198857Y-6866714D01*
X120294095Y-6914333D01*
X119865523Y-7485761D02*
X119960761Y-7533380D01*
X120198857Y-7533380D01*
X120294095Y-7485761D01*
X120341714Y-7390523D01*
X120341714Y-7295285D01*
X120294095Y-7200047D01*
X120198857Y-7152428D01*
X119960761Y-7152428D01*
X119865523Y-7104809D01*
X119246476Y-7533380D02*
X119341714Y-7485761D01*
X119389333Y-7390523D01*
X119389333Y-6533380D01*
X118246476Y-6866714D02*
X117865523Y-6866714D01*
X118103619Y-6533380D02*
X118103619Y-7390523D01*
X118056000Y-7485761D01*
X117960761Y-7533380D01*
X117865523Y-7533380D01*
X117532190Y-7533380D02*
X117532190Y-6533380D01*
X117103619Y-7533380D02*
X117103619Y-7009571D01*
X117151238Y-6914333D01*
X117246476Y-6866714D01*
X117389333Y-6866714D01*
X117484571Y-6914333D01*
X117532190Y-6961952D01*
X116198857Y-7533380D02*
X116198857Y-7009571D01*
X116246476Y-6914333D01*
X116341714Y-6866714D01*
X116532190Y-6866714D01*
X116627428Y-6914333D01*
X116198857Y-7485761D02*
X116294095Y-7533380D01*
X116532190Y-7533380D01*
X116627428Y-7485761D01*
X116675047Y-7390523D01*
X116675047Y-7295285D01*
X116627428Y-7200047D01*
X116532190Y-7152428D01*
X116294095Y-7152428D01*
X116198857Y-7104809D01*
X115722666Y-6866714D02*
X115722666Y-7533380D01*
X115722666Y-6961952D02*
X115675047Y-6914333D01*
X115579809Y-6866714D01*
X115436952Y-6866714D01*
X115341714Y-6914333D01*
X115294095Y-7009571D01*
X115294095Y-7533380D01*
X114817904Y-7533380D02*
X114817904Y-6533380D01*
X114722666Y-7152428D02*
X114436952Y-7533380D01*
X114436952Y-6866714D02*
X114817904Y-7247666D01*
X114056000Y-7485761D02*
X113960761Y-7533380D01*
X113770285Y-7533380D01*
X113675047Y-7485761D01*
X113627428Y-7390523D01*
X113627428Y-7342904D01*
X113675047Y-7247666D01*
X113770285Y-7200047D01*
X113913142Y-7200047D01*
X114008380Y-7152428D01*
X114056000Y-7057190D01*
X114056000Y-7009571D01*
X114008380Y-6914333D01*
X113913142Y-6866714D01*
X113770285Y-6866714D01*
X113675047Y-6914333D01*
X112579809Y-6866714D02*
X112198857Y-6866714D01*
X112436952Y-6533380D02*
X112436952Y-7390523D01*
X112389333Y-7485761D01*
X112294095Y-7533380D01*
X112198857Y-7533380D01*
X111722666Y-7533380D02*
X111817904Y-7485761D01*
X111865523Y-7438142D01*
X111913142Y-7342904D01*
X111913142Y-7057190D01*
X111865523Y-6961952D01*
X111817904Y-6914333D01*
X111722666Y-6866714D01*
X111579809Y-6866714D01*
X111484571Y-6914333D01*
X111436952Y-6961952D01*
X111389333Y-7057190D01*
X111389333Y-7342904D01*
X111436952Y-7438142D01*
X111484571Y-7485761D01*
X111579809Y-7533380D01*
X111722666Y-7533380D01*
X109675047Y-6581000D02*
X109770285Y-6533380D01*
X109913142Y-6533380D01*
X110056000Y-6581000D01*
X110151238Y-6676238D01*
X110198857Y-6771476D01*
X110246476Y-6961952D01*
X110246476Y-7104809D01*
X110198857Y-7295285D01*
X110151238Y-7390523D01*
X110056000Y-7485761D01*
X109913142Y-7533380D01*
X109817904Y-7533380D01*
X109675047Y-7485761D01*
X109627428Y-7438142D01*
X109627428Y-7104809D01*
X109817904Y-7104809D01*
X109198857Y-7533380D02*
X109198857Y-6533380D01*
X108722666Y-7533380D02*
X108722666Y-6533380D01*
X108389333Y-7247666D01*
X108056000Y-6533380D01*
X108056000Y-7533380D01*
X107389333Y-6533380D02*
X107198857Y-6533380D01*
X107103619Y-6581000D01*
X107008380Y-6676238D01*
X106960761Y-6866714D01*
X106960761Y-7200047D01*
X107008380Y-7390523D01*
X107103619Y-7485761D01*
X107198857Y-7533380D01*
X107389333Y-7533380D01*
X107484571Y-7485761D01*
X107579809Y-7390523D01*
X107627428Y-7200047D01*
X107627428Y-6866714D01*
X107579809Y-6676238D01*
X107484571Y-6581000D01*
X107389333Y-6533380D01*
X106532190Y-7533380D02*
X106532190Y-6533380D01*
X105960761Y-7533380D01*
X105960761Y-6533380D01*
X105532190Y-7485761D02*
X105389333Y-7533380D01*
X105151238Y-7533380D01*
X105056000Y-7485761D01*
X105008380Y-7438142D01*
X104960761Y-7342904D01*
X104960761Y-7247666D01*
X105008380Y-7152428D01*
X105056000Y-7104809D01*
X105151238Y-7057190D01*
X105341714Y-7009571D01*
X105436952Y-6961952D01*
X105484571Y-6914333D01*
X105532190Y-6819095D01*
X105532190Y-6723857D01*
X105484571Y-6628619D01*
X105436952Y-6581000D01*
X105341714Y-6533380D01*
X105103619Y-6533380D01*
X104960761Y-6581000D01*
X103341714Y-7533380D02*
X103341714Y-7009571D01*
X103389333Y-6914333D01*
X103484571Y-6866714D01*
X103675047Y-6866714D01*
X103770285Y-6914333D01*
X103341714Y-7485761D02*
X103436952Y-7533380D01*
X103675047Y-7533380D01*
X103770285Y-7485761D01*
X103817904Y-7390523D01*
X103817904Y-7295285D01*
X103770285Y-7200047D01*
X103675047Y-7152428D01*
X103436952Y-7152428D01*
X103341714Y-7104809D01*
X102865523Y-6866714D02*
X102865523Y-7533380D01*
X102865523Y-6961952D02*
X102817904Y-6914333D01*
X102722666Y-6866714D01*
X102579809Y-6866714D01*
X102484571Y-6914333D01*
X102436952Y-7009571D01*
X102436952Y-7533380D01*
X101532190Y-7533380D02*
X101532190Y-6533380D01*
X101532190Y-7485761D02*
X101627428Y-7533380D01*
X101817904Y-7533380D01*
X101913142Y-7485761D01*
X101960761Y-7438142D01*
X102008380Y-7342904D01*
X102008380Y-7057190D01*
X101960761Y-6961952D01*
X101913142Y-6914333D01*
X101817904Y-6866714D01*
X101627428Y-6866714D01*
X101532190Y-6914333D01*
X120675047Y-9183380D02*
X120675047Y-8659571D01*
X120722666Y-8564333D01*
X120817904Y-8516714D01*
X121008380Y-8516714D01*
X121103619Y-8564333D01*
X120675047Y-9135761D02*
X120770285Y-9183380D01*
X121008380Y-9183380D01*
X121103619Y-9135761D01*
X121151238Y-9040523D01*
X121151238Y-8945285D01*
X121103619Y-8850047D01*
X121008380Y-8802428D01*
X120770285Y-8802428D01*
X120675047Y-8754809D01*
X120056000Y-9183380D02*
X120151238Y-9135761D01*
X120198857Y-9040523D01*
X120198857Y-8183380D01*
X119532190Y-9183380D02*
X119627428Y-9135761D01*
X119675047Y-9040523D01*
X119675047Y-8183380D01*
X118246476Y-9183380D02*
X118341714Y-9135761D01*
X118389333Y-9088142D01*
X118436952Y-8992904D01*
X118436952Y-8707190D01*
X118389333Y-8611952D01*
X118341714Y-8564333D01*
X118246476Y-8516714D01*
X118103619Y-8516714D01*
X118008380Y-8564333D01*
X117960761Y-8611952D01*
X117913142Y-8707190D01*
X117913142Y-8992904D01*
X117960761Y-9088142D01*
X118008380Y-9135761D01*
X118103619Y-9183380D01*
X118246476Y-9183380D01*
X117627428Y-8516714D02*
X117246476Y-8516714D01*
X117484571Y-9183380D02*
X117484571Y-8326238D01*
X117436952Y-8231000D01*
X117341714Y-8183380D01*
X117246476Y-8183380D01*
X116294095Y-8516714D02*
X115913142Y-8516714D01*
X116151238Y-8183380D02*
X116151238Y-9040523D01*
X116103619Y-9135761D01*
X116008380Y-9183380D01*
X115913142Y-9183380D01*
X115579809Y-9183380D02*
X115579809Y-8183380D01*
X115151238Y-9183380D02*
X115151238Y-8659571D01*
X115198857Y-8564333D01*
X115294095Y-8516714D01*
X115436952Y-8516714D01*
X115532190Y-8564333D01*
X115579809Y-8611952D01*
X114294095Y-9135761D02*
X114389333Y-9183380D01*
X114579809Y-9183380D01*
X114675047Y-9135761D01*
X114722666Y-9040523D01*
X114722666Y-8659571D01*
X114675047Y-8564333D01*
X114579809Y-8516714D01*
X114389333Y-8516714D01*
X114294095Y-8564333D01*
X114246476Y-8659571D01*
X114246476Y-8754809D01*
X114722666Y-8850047D01*
X112627428Y-9135761D02*
X112722666Y-9183380D01*
X112913142Y-9183380D01*
X113008380Y-9135761D01*
X113056000Y-9088142D01*
X113103619Y-8992904D01*
X113103619Y-8707190D01*
X113056000Y-8611952D01*
X113008380Y-8564333D01*
X112913142Y-8516714D01*
X112722666Y-8516714D01*
X112627428Y-8564333D01*
X112056000Y-9183380D02*
X112151238Y-9135761D01*
X112198857Y-9088142D01*
X112246476Y-8992904D01*
X112246476Y-8707190D01*
X112198857Y-8611952D01*
X112151238Y-8564333D01*
X112056000Y-8516714D01*
X111913142Y-8516714D01*
X111817904Y-8564333D01*
X111770285Y-8611952D01*
X111722666Y-8707190D01*
X111722666Y-8992904D01*
X111770285Y-9088142D01*
X111817904Y-9135761D01*
X111913142Y-9183380D01*
X112056000Y-9183380D01*
X111294095Y-8516714D02*
X111294095Y-9183380D01*
X111294095Y-8611952D02*
X111246476Y-8564333D01*
X111151238Y-8516714D01*
X111008380Y-8516714D01*
X110913142Y-8564333D01*
X110865523Y-8659571D01*
X110865523Y-9183380D01*
X110532190Y-8516714D02*
X110151238Y-8516714D01*
X110389333Y-8183380D02*
X110389333Y-9040523D01*
X110341714Y-9135761D01*
X110246476Y-9183380D01*
X110151238Y-9183380D01*
X109817904Y-9183380D02*
X109817904Y-8516714D01*
X109817904Y-8707190D02*
X109770285Y-8611952D01*
X109722666Y-8564333D01*
X109627428Y-8516714D01*
X109532190Y-8516714D01*
X109198857Y-9183380D02*
X109198857Y-8516714D01*
X109198857Y-8183380D02*
X109246476Y-8231000D01*
X109198857Y-8278619D01*
X109151238Y-8231000D01*
X109198857Y-8183380D01*
X109198857Y-8278619D01*
X108722666Y-9183380D02*
X108722666Y-8183380D01*
X108722666Y-8564333D02*
X108627428Y-8516714D01*
X108436952Y-8516714D01*
X108341714Y-8564333D01*
X108294095Y-8611952D01*
X108246476Y-8707190D01*
X108246476Y-8992904D01*
X108294095Y-9088142D01*
X108341714Y-9135761D01*
X108436952Y-9183380D01*
X108627428Y-9183380D01*
X108722666Y-9135761D01*
X107389333Y-8516714D02*
X107389333Y-9183380D01*
X107817904Y-8516714D02*
X107817904Y-9040523D01*
X107770285Y-9135761D01*
X107675047Y-9183380D01*
X107532190Y-9183380D01*
X107436952Y-9135761D01*
X107389333Y-9088142D01*
X107056000Y-8516714D02*
X106675047Y-8516714D01*
X106913142Y-8183380D02*
X106913142Y-9040523D01*
X106865523Y-9135761D01*
X106770285Y-9183380D01*
X106675047Y-9183380D01*
X106198857Y-9183380D02*
X106294095Y-9135761D01*
X106341714Y-9088142D01*
X106389333Y-8992904D01*
X106389333Y-8707190D01*
X106341714Y-8611952D01*
X106294095Y-8564333D01*
X106198857Y-8516714D01*
X106056000Y-8516714D01*
X105960761Y-8564333D01*
X105913142Y-8611952D01*
X105865523Y-8707190D01*
X105865523Y-8992904D01*
X105913142Y-9088142D01*
X105960761Y-9135761D01*
X106056000Y-9183380D01*
X106198857Y-9183380D01*
X105436952Y-9183380D02*
X105436952Y-8516714D01*
X105436952Y-8707190D02*
X105389333Y-8611952D01*
X105341714Y-8564333D01*
X105246476Y-8516714D01*
X105151238Y-8516714D01*
X104865523Y-9135761D02*
X104770285Y-9183380D01*
X104579809Y-9183380D01*
X104484571Y-9135761D01*
X104436952Y-9040523D01*
X104436952Y-8992904D01*
X104484571Y-8897666D01*
X104579809Y-8850047D01*
X104722666Y-8850047D01*
X104817904Y-8802428D01*
X104865523Y-8707190D01*
X104865523Y-8659571D01*
X104817904Y-8564333D01*
X104722666Y-8516714D01*
X104579809Y-8516714D01*
X104484571Y-8564333D01*
X104008380Y-9088142D02*
X103960761Y-9135761D01*
X104008380Y-9183380D01*
X104056000Y-9135761D01*
X104008380Y-9088142D01*
X104008380Y-9183380D01*
X104008380Y-8802428D02*
X104056000Y-8231000D01*
X104008380Y-8183380D01*
X103960761Y-8231000D01*
X104008380Y-8802428D01*
X104008380Y-8183380D01*
D13*
X83800000Y-45696000D02*
X141800000Y-45696000D01*
X83800000Y-45696000D02*
G75*
G02X80300000Y-42196000I0J3500000D01*
G01*
X145300000Y-42196000D02*
G75*
G02X141800000Y-45696000I-3500000J0D01*
G01*
X80300000Y6800000D02*
X80300000Y-42196000D01*
X145300000Y6800000D02*
X145300000Y-42196000D01*
X83800000Y10300000D02*
X141800000Y10300000D01*
X80300000Y6800000D02*
G75*
G02X83800000Y10300000I3500000J0D01*
G01*
X141800000Y10300000D02*
G75*
G02X145300000Y6800000I0J-3500000D01*
G01*
D14*
%TO.C,J4*%
X139321600Y-33350000D02*
X86281600Y-33350000D01*
X86281600Y-33350000D02*
X86281600Y-45750000D01*
X86281600Y-45750000D02*
X139321600Y-45750000D01*
X139321600Y-45750000D02*
X139321600Y-33350000D01*
D15*
%TO.C,X2*%
G36*
X90017734Y8587066D02*
G01*
X90220934Y8587066D01*
X90220934Y8383866D01*
X90405584Y8383866D01*
X90410625Y8278033D01*
X90415667Y8172199D01*
X90512177Y8167147D01*
X90608687Y8162094D01*
X90613777Y8074013D01*
X90618867Y7985933D01*
X90826300Y7981178D01*
X91033734Y7976424D01*
X91033734Y7571066D01*
X91245400Y7571128D01*
X91245400Y7359399D01*
X91444367Y7354629D01*
X91643334Y7349858D01*
X91643334Y6962509D01*
X92058200Y6952999D01*
X92062955Y6745566D01*
X92067709Y6538133D01*
X93302800Y6538133D01*
X93302800Y6961466D01*
X93726133Y6961466D01*
X93726133Y7147733D01*
X93912400Y7147733D01*
X93912400Y7350933D01*
X94742134Y7350933D01*
X94742134Y7570908D01*
X92993767Y7575220D01*
X91245400Y7579533D01*
X91240629Y7778500D01*
X91235859Y7977466D01*
X91033734Y7977466D01*
X91033734Y8163733D01*
X90610400Y8163733D01*
X90610400Y8383866D01*
X90407200Y8383866D01*
X90407200Y8587066D01*
X90221681Y8587066D01*
X90212467Y9222066D01*
X90115929Y9227120D01*
X90019392Y9232173D01*
X90014329Y9125520D01*
X90009267Y9018866D01*
X89907667Y9010399D01*
X89806067Y9001933D01*
X89801650Y8286499D01*
X89797233Y7571066D01*
X90017734Y7571066D01*
X90017734Y8587066D01*
X90017734Y8587066D01*
G37*
X90017734Y8587066D02*
X90220934Y8587066D01*
X90220934Y8383866D01*
X90405584Y8383866D01*
X90410625Y8278033D01*
X90415667Y8172199D01*
X90512177Y8167147D01*
X90608687Y8162094D01*
X90613777Y8074013D01*
X90618867Y7985933D01*
X90826300Y7981178D01*
X91033734Y7976424D01*
X91033734Y7571066D01*
X91245400Y7571128D01*
X91245400Y7359399D01*
X91444367Y7354629D01*
X91643334Y7349858D01*
X91643334Y6962509D01*
X92058200Y6952999D01*
X92062955Y6745566D01*
X92067709Y6538133D01*
X93302800Y6538133D01*
X93302800Y6961466D01*
X93726133Y6961466D01*
X93726133Y7147733D01*
X93912400Y7147733D01*
X93912400Y7350933D01*
X94742134Y7350933D01*
X94742134Y7570908D01*
X92993767Y7575220D01*
X91245400Y7579533D01*
X91240629Y7778500D01*
X91235859Y7977466D01*
X91033734Y7977466D01*
X91033734Y8163733D01*
X90610400Y8163733D01*
X90610400Y8383866D01*
X90407200Y8383866D01*
X90407200Y8587066D01*
X90221681Y8587066D01*
X90212467Y9222066D01*
X90115929Y9227120D01*
X90019392Y9232173D01*
X90014329Y9125520D01*
X90009267Y9018866D01*
X89907667Y9010399D01*
X89806067Y9001933D01*
X89801650Y8286499D01*
X89797233Y7571066D01*
X90017734Y7571066D01*
X90017734Y8587066D01*
G36*
X95775067Y9230533D02*
G01*
X95976651Y9230533D01*
X95981692Y9124700D01*
X95986733Y9018866D01*
X96587867Y9009618D01*
X96587867Y9416799D01*
X96384667Y9416799D01*
X96384667Y9230533D01*
X95978267Y9230533D01*
X95978267Y9416799D01*
X95775067Y9416799D01*
X95775067Y9230533D01*
X95775067Y9230533D01*
G37*
X95775067Y9230533D02*
X95976651Y9230533D01*
X95981692Y9124700D01*
X95986733Y9018866D01*
X96587867Y9009618D01*
X96587867Y9416799D01*
X96384667Y9416799D01*
X96384667Y9230533D01*
X95978267Y9230533D01*
X95978267Y9416799D01*
X95775067Y9416799D01*
X95775067Y9230533D01*
G36*
X97620800Y8383866D02*
G01*
X97409134Y8383804D01*
X97420608Y8587066D01*
X97197467Y8587066D01*
X97197467Y9416799D01*
X97011200Y9416799D01*
X97011200Y9619999D01*
X96587867Y9619999D01*
X96587867Y9416799D01*
X97010598Y9416799D01*
X97015132Y9006166D01*
X97019667Y8595533D01*
X97108567Y8590415D01*
X97197467Y8585296D01*
X97197467Y8385482D01*
X97303300Y8380441D01*
X97409134Y8375399D01*
X97419216Y8163733D01*
X97620800Y8163733D01*
X97620800Y8383866D01*
X97620800Y8383866D01*
G37*
X97620800Y8383866D02*
X97409134Y8383804D01*
X97420608Y8587066D01*
X97197467Y8587066D01*
X97197467Y9416799D01*
X97011200Y9416799D01*
X97011200Y9619999D01*
X96587867Y9619999D01*
X96587867Y9416799D01*
X97010598Y9416799D01*
X97015132Y9006166D01*
X97019667Y8595533D01*
X97108567Y8590415D01*
X97197467Y8585296D01*
X97197467Y8385482D01*
X97303300Y8380441D01*
X97409134Y8375399D01*
X97419216Y8163733D01*
X97620800Y8163733D01*
X97620800Y8383866D01*
G36*
X91643334Y3845733D02*
G01*
X91457067Y3845733D01*
X91457067Y4489199D01*
X91368167Y4488940D01*
X91313396Y4486313D01*
X91271244Y4479886D01*
X91257697Y4474992D01*
X91249635Y4461396D01*
X91244063Y4430001D01*
X91240782Y4377050D01*
X91239591Y4298782D01*
X91240289Y4191439D01*
X91240764Y4157751D01*
X91245400Y3854199D01*
X91351234Y3849158D01*
X91457067Y3844117D01*
X91457067Y3456266D01*
X91643334Y3456266D01*
X91643334Y3845733D01*
X91643334Y3845733D01*
G37*
X91643334Y3845733D02*
X91457067Y3845733D01*
X91457067Y4489199D01*
X91368167Y4488940D01*
X91313396Y4486313D01*
X91271244Y4479886D01*
X91257697Y4474992D01*
X91249635Y4461396D01*
X91244063Y4430001D01*
X91240782Y4377050D01*
X91239591Y4298782D01*
X91240289Y4191439D01*
X91240764Y4157751D01*
X91245400Y3854199D01*
X91351234Y3849158D01*
X91457067Y3844117D01*
X91457067Y3456266D01*
X91643334Y3456266D01*
X91643334Y3845733D01*
G36*
X90610400Y3253066D02*
G01*
X91032117Y3253066D01*
X91037159Y3147233D01*
X91042200Y3041400D01*
X91634867Y3041400D01*
X91639908Y3147233D01*
X91644950Y3253066D01*
X92066667Y3253066D01*
X92066667Y3456266D01*
X91643334Y3456266D01*
X91643334Y3253066D01*
X91033734Y3253066D01*
X91033734Y3456266D01*
X90610400Y3456266D01*
X90610400Y3253066D01*
X90610400Y3253066D01*
G37*
X90610400Y3253066D02*
X91032117Y3253066D01*
X91037159Y3147233D01*
X91042200Y3041400D01*
X91634867Y3041400D01*
X91639908Y3147233D01*
X91644950Y3253066D01*
X92066667Y3253066D01*
X92066667Y3456266D01*
X91643334Y3456266D01*
X91643334Y3253066D01*
X91033734Y3253066D01*
X91033734Y3456266D01*
X90610400Y3456266D01*
X90610400Y3253066D01*
G36*
X90407200Y3456266D02*
G01*
X90610400Y3456266D01*
X90610400Y3845733D01*
X90407200Y3845733D01*
X90407200Y3456266D01*
X90407200Y3456266D01*
G37*
X90407200Y3456266D02*
X90610400Y3456266D01*
X90610400Y3845733D01*
X90407200Y3845733D01*
X90407200Y3456266D01*
G36*
X90220934Y5505200D02*
G01*
X90220934Y3845733D01*
X90407200Y3845733D01*
X90407200Y5505200D01*
X90220934Y5505200D01*
X90220934Y5505200D01*
G37*
X90220934Y5505200D02*
X90220934Y3845733D01*
X90407200Y3845733D01*
X90407200Y5505200D01*
X90220934Y5505200D01*
G36*
X90407200Y5505200D02*
G01*
X90610400Y5505200D01*
X90610400Y6961466D01*
X90407200Y6961466D01*
X90407200Y5505200D01*
X90407200Y5505200D01*
G37*
X90407200Y5505200D02*
X90610400Y5505200D01*
X90610400Y6961466D01*
X90407200Y6961466D01*
X90407200Y5505200D01*
G36*
X90220934Y6961466D02*
G01*
X90407200Y6961466D01*
X90407200Y7350933D01*
X90220934Y7350933D01*
X90220934Y6961466D01*
X90220934Y6961466D01*
G37*
X90220934Y6961466D02*
X90407200Y6961466D01*
X90407200Y7350933D01*
X90220934Y7350933D01*
X90220934Y6961466D01*
G36*
X90017734Y7350933D02*
G01*
X90220934Y7350933D01*
X90220934Y7571066D01*
X90017734Y7571066D01*
X90017734Y7350933D01*
X90017734Y7350933D01*
G37*
X90017734Y7350933D02*
X90220934Y7350933D01*
X90220934Y7571066D01*
X90017734Y7571066D01*
X90017734Y7350933D01*
G36*
X94742134Y7977466D02*
G01*
X94742134Y7571066D01*
X95148533Y7571066D01*
X95148533Y7977466D01*
X94742134Y7977466D01*
X94742134Y7977466D01*
G37*
X94742134Y7977466D02*
X94742134Y7571066D01*
X95148533Y7571066D01*
X95148533Y7977466D01*
X94742134Y7977466D01*
G36*
X95148533Y5098799D02*
G01*
X94947024Y5098799D01*
X94941945Y5196166D01*
X94936867Y5293533D01*
X92066667Y5302191D01*
X92066667Y5099842D01*
X91859233Y5095087D01*
X91651800Y5090333D01*
X91646759Y4984499D01*
X91641717Y4878666D01*
X91457067Y4878666D01*
X91457067Y4489199D01*
X91643334Y4489199D01*
X91643334Y4878666D01*
X92066667Y4878666D01*
X92066667Y5098799D01*
X94945334Y5098799D01*
X94945334Y3845733D01*
X95148533Y3845733D01*
X95148533Y5098799D01*
X95148533Y5098799D01*
G37*
X95148533Y5098799D02*
X94947024Y5098799D01*
X94941945Y5196166D01*
X94936867Y5293533D01*
X92066667Y5302191D01*
X92066667Y5099842D01*
X91859233Y5095087D01*
X91651800Y5090333D01*
X91646759Y4984499D01*
X91641717Y4878666D01*
X91457067Y4878666D01*
X91457067Y4489199D01*
X91643334Y4489199D01*
X91643334Y4878666D01*
X92066667Y4878666D01*
X92066667Y5098799D01*
X94945334Y5098799D01*
X94945334Y3845733D01*
X95148533Y3845733D01*
X95148533Y5098799D01*
G36*
X95351733Y3845733D02*
G01*
X95148533Y3845733D01*
X95148533Y3456266D01*
X95351733Y3456266D01*
X95351733Y3845733D01*
X95351733Y3845733D01*
G37*
X95351733Y3845733D02*
X95148533Y3845733D01*
X95148533Y3456266D01*
X95351733Y3456266D01*
X95351733Y3845733D01*
G36*
X95775067Y3253066D02*
G01*
X95775067Y3456266D01*
X95351733Y3456266D01*
X95351733Y3253066D01*
X95773451Y3253066D01*
X95783533Y3041400D01*
X96072425Y3036780D01*
X96168113Y3035913D01*
X96251804Y3036413D01*
X96317713Y3038143D01*
X96360055Y3040967D01*
X96372992Y3043836D01*
X96379298Y3065899D01*
X96383537Y3110898D01*
X96384667Y3154288D01*
X96384667Y3253066D01*
X95775067Y3253066D01*
X95775067Y3253066D01*
G37*
X95775067Y3253066D02*
X95775067Y3456266D01*
X95351733Y3456266D01*
X95351733Y3253066D01*
X95773451Y3253066D01*
X95783533Y3041400D01*
X96072425Y3036780D01*
X96168113Y3035913D01*
X96251804Y3036413D01*
X96317713Y3038143D01*
X96360055Y3040967D01*
X96372992Y3043836D01*
X96379298Y3065899D01*
X96383537Y3110898D01*
X96384667Y3154288D01*
X96384667Y3253066D01*
X95775067Y3253066D01*
G36*
X96384667Y3253066D02*
G01*
X96587867Y3253066D01*
X96587867Y3456266D01*
X96384667Y3456266D01*
X96384667Y3253066D01*
X96384667Y3253066D01*
G37*
X96384667Y3253066D02*
X96587867Y3253066D01*
X96587867Y3456266D01*
X96384667Y3456266D01*
X96384667Y3253066D01*
G36*
X96384667Y7350933D02*
G01*
X96384667Y7149349D01*
X96278834Y7144308D01*
X96173000Y7139266D01*
X96168376Y6838699D01*
X96163752Y6538133D01*
X95776683Y6538133D01*
X95771642Y6432299D01*
X95766600Y6326466D01*
X95559167Y6321712D01*
X95351733Y6316957D01*
X95351733Y5505200D01*
X95775067Y5505200D01*
X95775067Y5301999D01*
X95977903Y5301999D01*
X95986733Y3854199D01*
X96075633Y3849081D01*
X96164534Y3843963D01*
X96164534Y3456266D01*
X96384667Y3456266D01*
X96384667Y3845733D01*
X96164534Y3845733D01*
X96164534Y6536517D01*
X96376200Y6546599D01*
X96385448Y7147733D01*
X98044133Y7147733D01*
X98044133Y7350933D01*
X96384667Y7350933D01*
X96384667Y7350933D01*
G37*
X96384667Y7350933D02*
X96384667Y7149349D01*
X96278834Y7144308D01*
X96173000Y7139266D01*
X96168376Y6838699D01*
X96163752Y6538133D01*
X95776683Y6538133D01*
X95771642Y6432299D01*
X95766600Y6326466D01*
X95559167Y6321712D01*
X95351733Y6316957D01*
X95351733Y5505200D01*
X95775067Y5505200D01*
X95775067Y5301999D01*
X95977903Y5301999D01*
X95986733Y3854199D01*
X96075633Y3849081D01*
X96164534Y3843963D01*
X96164534Y3456266D01*
X96384667Y3456266D01*
X96384667Y3845733D01*
X96164534Y3845733D01*
X96164534Y6536517D01*
X96376200Y6546599D01*
X96385448Y7147733D01*
X98044133Y7147733D01*
X98044133Y7350933D01*
X96384667Y7350933D01*
G36*
X98044133Y7350933D02*
G01*
X98247333Y7350933D01*
X98247333Y7977466D01*
X98044133Y7977466D01*
X98044133Y7350933D01*
X98044133Y7350933D01*
G37*
X98044133Y7350933D02*
X98247333Y7350933D01*
X98247333Y7977466D01*
X98044133Y7977466D01*
X98044133Y7350933D01*
G36*
X97620800Y7977466D02*
G01*
X98044133Y7977466D01*
X98044133Y8163733D01*
X97620800Y8163733D01*
X97620800Y7977466D01*
X97620800Y7977466D01*
G37*
X97620800Y7977466D02*
X98044133Y7977466D01*
X98044133Y8163733D01*
X97620800Y8163733D01*
X97620800Y7977466D01*
G36*
X95351733Y9416799D02*
G01*
X95775067Y9416799D01*
X95775067Y9619999D01*
X95148533Y9619999D01*
X95148533Y9010399D01*
X95351733Y9010399D01*
X95351733Y9416799D01*
X95351733Y9416799D01*
G37*
X95351733Y9416799D02*
X95775067Y9416799D01*
X95775067Y9619999D01*
X95148533Y9619999D01*
X95148533Y9010399D01*
X95351733Y9010399D01*
X95351733Y9416799D01*
G36*
X95351733Y7977466D02*
G01*
X95351733Y8162690D01*
X95559167Y8167445D01*
X95766600Y8172199D01*
X95771129Y8591300D01*
X95775658Y9010399D01*
X95351733Y9010399D01*
X95351733Y8163733D01*
X95148533Y8163733D01*
X95148533Y7977466D01*
X95351733Y7977466D01*
X95351733Y7977466D01*
G37*
X95351733Y7977466D02*
X95351733Y8162690D01*
X95559167Y8167445D01*
X95766600Y8172199D01*
X95771129Y8591300D01*
X95775658Y9010399D01*
X95351733Y9010399D01*
X95351733Y8163733D01*
X95148533Y8163733D01*
X95148533Y7977466D01*
X95351733Y7977466D01*
G36*
X96384667Y8383866D02*
G01*
X96587867Y8383866D01*
X96587867Y8587066D01*
X96384667Y8587066D01*
X96384667Y8383866D01*
X96384667Y8383866D01*
G37*
X96384667Y8383866D02*
X96587867Y8383866D01*
X96587867Y8587066D01*
X96384667Y8587066D01*
X96384667Y8383866D01*
%TD*%
M02*
