%TF.GenerationSoftware,KiCad,Pcbnew,(5.1.4)-1*%
%TF.CreationDate,2020-08-22T19:58:44-05:00*%
%TF.ProjectId,rascsi_tester,72617363-7369-45f7-9465-737465722e6b,rev?*%
%TF.SameCoordinates,PX59d60c0PY325aa00*%
%TF.FileFunction,Soldermask,Top*%
%TF.FilePolarity,Negative*%
%FSLAX46Y46*%
G04 Gerber Fmt 4.6, Leading zero omitted, Abs format (unit mm)*
G04 Created by KiCad (PCBNEW (5.1.4)-1) date 2020-08-22 19:58:44*
%MOMM*%
%LPD*%
G04 APERTURE LIST*
%ADD10C,0.050000*%
%ADD11C,0.150000*%
%ADD12C,1.075000*%
%ADD13C,4.945000*%
%ADD14C,1.645000*%
%ADD15R,1.600000X1.100000*%
%ADD16O,1.800000X1.800000*%
%ADD17R,1.800000X1.800000*%
%ADD18C,0.750000*%
%ADD19C,2.100000*%
%ADD20R,0.500000X1.500000*%
%ADD21C,0.900000*%
%ADD22C,5.500000*%
G04 APERTURE END LIST*
D10*
X83800000Y-45696000D02*
X141800000Y-45696000D01*
X83800000Y-45696000D02*
G75*
G02X80300000Y-42196000I0J3500000D01*
G01*
X145300000Y-42196000D02*
G75*
G02X141800000Y-45696000I-3500000J0D01*
G01*
X80300000Y6800000D02*
X80300000Y-42196000D01*
X145300000Y6800000D02*
X145300000Y-42196000D01*
X83800000Y10300000D02*
X141800000Y10300000D01*
X80300000Y6800000D02*
G75*
G02X83800000Y10300000I3500000J0D01*
G01*
X141800000Y10300000D02*
G75*
G02X145300000Y6800000I0J-3500000D01*
G01*
D11*
%TO.C,R19*%
G36*
X97871214Y-10075794D02*
G01*
X97897303Y-10079664D01*
X97922886Y-10086072D01*
X97947718Y-10094957D01*
X97971560Y-10106234D01*
X97994182Y-10119793D01*
X98015365Y-10135503D01*
X98034907Y-10153215D01*
X98052619Y-10172757D01*
X98068329Y-10193940D01*
X98081888Y-10216562D01*
X98093165Y-10240404D01*
X98102050Y-10265236D01*
X98108458Y-10290819D01*
X98112328Y-10316908D01*
X98113622Y-10343250D01*
X98113622Y-10880750D01*
X98112328Y-10907092D01*
X98108458Y-10933181D01*
X98102050Y-10958764D01*
X98093165Y-10983596D01*
X98081888Y-11007438D01*
X98068329Y-11030060D01*
X98052619Y-11051243D01*
X98034907Y-11070785D01*
X98015365Y-11088497D01*
X97994182Y-11104207D01*
X97971560Y-11117766D01*
X97947718Y-11129043D01*
X97922886Y-11137928D01*
X97897303Y-11144336D01*
X97871214Y-11148206D01*
X97844872Y-11149500D01*
X96882372Y-11149500D01*
X96856030Y-11148206D01*
X96829941Y-11144336D01*
X96804358Y-11137928D01*
X96779526Y-11129043D01*
X96755684Y-11117766D01*
X96733062Y-11104207D01*
X96711879Y-11088497D01*
X96692337Y-11070785D01*
X96674625Y-11051243D01*
X96658915Y-11030060D01*
X96645356Y-11007438D01*
X96634079Y-10983596D01*
X96625194Y-10958764D01*
X96618786Y-10933181D01*
X96614916Y-10907092D01*
X96613622Y-10880750D01*
X96613622Y-10343250D01*
X96614916Y-10316908D01*
X96618786Y-10290819D01*
X96625194Y-10265236D01*
X96634079Y-10240404D01*
X96645356Y-10216562D01*
X96658915Y-10193940D01*
X96674625Y-10172757D01*
X96692337Y-10153215D01*
X96711879Y-10135503D01*
X96733062Y-10119793D01*
X96755684Y-10106234D01*
X96779526Y-10094957D01*
X96804358Y-10086072D01*
X96829941Y-10079664D01*
X96856030Y-10075794D01*
X96882372Y-10074500D01*
X97844872Y-10074500D01*
X97871214Y-10075794D01*
X97871214Y-10075794D01*
G37*
D12*
X97363622Y-10612000D03*
D11*
G36*
X97871214Y-8200794D02*
G01*
X97897303Y-8204664D01*
X97922886Y-8211072D01*
X97947718Y-8219957D01*
X97971560Y-8231234D01*
X97994182Y-8244793D01*
X98015365Y-8260503D01*
X98034907Y-8278215D01*
X98052619Y-8297757D01*
X98068329Y-8318940D01*
X98081888Y-8341562D01*
X98093165Y-8365404D01*
X98102050Y-8390236D01*
X98108458Y-8415819D01*
X98112328Y-8441908D01*
X98113622Y-8468250D01*
X98113622Y-9005750D01*
X98112328Y-9032092D01*
X98108458Y-9058181D01*
X98102050Y-9083764D01*
X98093165Y-9108596D01*
X98081888Y-9132438D01*
X98068329Y-9155060D01*
X98052619Y-9176243D01*
X98034907Y-9195785D01*
X98015365Y-9213497D01*
X97994182Y-9229207D01*
X97971560Y-9242766D01*
X97947718Y-9254043D01*
X97922886Y-9262928D01*
X97897303Y-9269336D01*
X97871214Y-9273206D01*
X97844872Y-9274500D01*
X96882372Y-9274500D01*
X96856030Y-9273206D01*
X96829941Y-9269336D01*
X96804358Y-9262928D01*
X96779526Y-9254043D01*
X96755684Y-9242766D01*
X96733062Y-9229207D01*
X96711879Y-9213497D01*
X96692337Y-9195785D01*
X96674625Y-9176243D01*
X96658915Y-9155060D01*
X96645356Y-9132438D01*
X96634079Y-9108596D01*
X96625194Y-9083764D01*
X96618786Y-9058181D01*
X96614916Y-9032092D01*
X96613622Y-9005750D01*
X96613622Y-8468250D01*
X96614916Y-8441908D01*
X96618786Y-8415819D01*
X96625194Y-8390236D01*
X96634079Y-8365404D01*
X96645356Y-8341562D01*
X96658915Y-8318940D01*
X96674625Y-8297757D01*
X96692337Y-8278215D01*
X96711879Y-8260503D01*
X96733062Y-8244793D01*
X96755684Y-8231234D01*
X96779526Y-8219957D01*
X96804358Y-8211072D01*
X96829941Y-8204664D01*
X96856030Y-8200794D01*
X96882372Y-8199500D01*
X97844872Y-8199500D01*
X97871214Y-8200794D01*
X97871214Y-8200794D01*
G37*
D12*
X97363622Y-8737000D03*
%TD*%
D11*
%TO.C,R18*%
G36*
X95355027Y-10075794D02*
G01*
X95381116Y-10079664D01*
X95406699Y-10086072D01*
X95431531Y-10094957D01*
X95455373Y-10106234D01*
X95477995Y-10119793D01*
X95499178Y-10135503D01*
X95518720Y-10153215D01*
X95536432Y-10172757D01*
X95552142Y-10193940D01*
X95565701Y-10216562D01*
X95576978Y-10240404D01*
X95585863Y-10265236D01*
X95592271Y-10290819D01*
X95596141Y-10316908D01*
X95597435Y-10343250D01*
X95597435Y-10880750D01*
X95596141Y-10907092D01*
X95592271Y-10933181D01*
X95585863Y-10958764D01*
X95576978Y-10983596D01*
X95565701Y-11007438D01*
X95552142Y-11030060D01*
X95536432Y-11051243D01*
X95518720Y-11070785D01*
X95499178Y-11088497D01*
X95477995Y-11104207D01*
X95455373Y-11117766D01*
X95431531Y-11129043D01*
X95406699Y-11137928D01*
X95381116Y-11144336D01*
X95355027Y-11148206D01*
X95328685Y-11149500D01*
X94366185Y-11149500D01*
X94339843Y-11148206D01*
X94313754Y-11144336D01*
X94288171Y-11137928D01*
X94263339Y-11129043D01*
X94239497Y-11117766D01*
X94216875Y-11104207D01*
X94195692Y-11088497D01*
X94176150Y-11070785D01*
X94158438Y-11051243D01*
X94142728Y-11030060D01*
X94129169Y-11007438D01*
X94117892Y-10983596D01*
X94109007Y-10958764D01*
X94102599Y-10933181D01*
X94098729Y-10907092D01*
X94097435Y-10880750D01*
X94097435Y-10343250D01*
X94098729Y-10316908D01*
X94102599Y-10290819D01*
X94109007Y-10265236D01*
X94117892Y-10240404D01*
X94129169Y-10216562D01*
X94142728Y-10193940D01*
X94158438Y-10172757D01*
X94176150Y-10153215D01*
X94195692Y-10135503D01*
X94216875Y-10119793D01*
X94239497Y-10106234D01*
X94263339Y-10094957D01*
X94288171Y-10086072D01*
X94313754Y-10079664D01*
X94339843Y-10075794D01*
X94366185Y-10074500D01*
X95328685Y-10074500D01*
X95355027Y-10075794D01*
X95355027Y-10075794D01*
G37*
D12*
X94847435Y-10612000D03*
D11*
G36*
X95355027Y-8200794D02*
G01*
X95381116Y-8204664D01*
X95406699Y-8211072D01*
X95431531Y-8219957D01*
X95455373Y-8231234D01*
X95477995Y-8244793D01*
X95499178Y-8260503D01*
X95518720Y-8278215D01*
X95536432Y-8297757D01*
X95552142Y-8318940D01*
X95565701Y-8341562D01*
X95576978Y-8365404D01*
X95585863Y-8390236D01*
X95592271Y-8415819D01*
X95596141Y-8441908D01*
X95597435Y-8468250D01*
X95597435Y-9005750D01*
X95596141Y-9032092D01*
X95592271Y-9058181D01*
X95585863Y-9083764D01*
X95576978Y-9108596D01*
X95565701Y-9132438D01*
X95552142Y-9155060D01*
X95536432Y-9176243D01*
X95518720Y-9195785D01*
X95499178Y-9213497D01*
X95477995Y-9229207D01*
X95455373Y-9242766D01*
X95431531Y-9254043D01*
X95406699Y-9262928D01*
X95381116Y-9269336D01*
X95355027Y-9273206D01*
X95328685Y-9274500D01*
X94366185Y-9274500D01*
X94339843Y-9273206D01*
X94313754Y-9269336D01*
X94288171Y-9262928D01*
X94263339Y-9254043D01*
X94239497Y-9242766D01*
X94216875Y-9229207D01*
X94195692Y-9213497D01*
X94176150Y-9195785D01*
X94158438Y-9176243D01*
X94142728Y-9155060D01*
X94129169Y-9132438D01*
X94117892Y-9108596D01*
X94109007Y-9083764D01*
X94102599Y-9058181D01*
X94098729Y-9032092D01*
X94097435Y-9005750D01*
X94097435Y-8468250D01*
X94098729Y-8441908D01*
X94102599Y-8415819D01*
X94109007Y-8390236D01*
X94117892Y-8365404D01*
X94129169Y-8341562D01*
X94142728Y-8318940D01*
X94158438Y-8297757D01*
X94176150Y-8278215D01*
X94195692Y-8260503D01*
X94216875Y-8244793D01*
X94239497Y-8231234D01*
X94263339Y-8219957D01*
X94288171Y-8211072D01*
X94313754Y-8204664D01*
X94339843Y-8200794D01*
X94366185Y-8199500D01*
X95328685Y-8199500D01*
X95355027Y-8200794D01*
X95355027Y-8200794D01*
G37*
D12*
X94847435Y-8737000D03*
%TD*%
D11*
%TO.C,R17*%
G36*
X113396592Y-10075794D02*
G01*
X113422681Y-10079664D01*
X113448264Y-10086072D01*
X113473096Y-10094957D01*
X113496938Y-10106234D01*
X113519560Y-10119793D01*
X113540743Y-10135503D01*
X113560285Y-10153215D01*
X113577997Y-10172757D01*
X113593707Y-10193940D01*
X113607266Y-10216562D01*
X113618543Y-10240404D01*
X113627428Y-10265236D01*
X113633836Y-10290819D01*
X113637706Y-10316908D01*
X113639000Y-10343250D01*
X113639000Y-10880750D01*
X113637706Y-10907092D01*
X113633836Y-10933181D01*
X113627428Y-10958764D01*
X113618543Y-10983596D01*
X113607266Y-11007438D01*
X113593707Y-11030060D01*
X113577997Y-11051243D01*
X113560285Y-11070785D01*
X113540743Y-11088497D01*
X113519560Y-11104207D01*
X113496938Y-11117766D01*
X113473096Y-11129043D01*
X113448264Y-11137928D01*
X113422681Y-11144336D01*
X113396592Y-11148206D01*
X113370250Y-11149500D01*
X112407750Y-11149500D01*
X112381408Y-11148206D01*
X112355319Y-11144336D01*
X112329736Y-11137928D01*
X112304904Y-11129043D01*
X112281062Y-11117766D01*
X112258440Y-11104207D01*
X112237257Y-11088497D01*
X112217715Y-11070785D01*
X112200003Y-11051243D01*
X112184293Y-11030060D01*
X112170734Y-11007438D01*
X112159457Y-10983596D01*
X112150572Y-10958764D01*
X112144164Y-10933181D01*
X112140294Y-10907092D01*
X112139000Y-10880750D01*
X112139000Y-10343250D01*
X112140294Y-10316908D01*
X112144164Y-10290819D01*
X112150572Y-10265236D01*
X112159457Y-10240404D01*
X112170734Y-10216562D01*
X112184293Y-10193940D01*
X112200003Y-10172757D01*
X112217715Y-10153215D01*
X112237257Y-10135503D01*
X112258440Y-10119793D01*
X112281062Y-10106234D01*
X112304904Y-10094957D01*
X112329736Y-10086072D01*
X112355319Y-10079664D01*
X112381408Y-10075794D01*
X112407750Y-10074500D01*
X113370250Y-10074500D01*
X113396592Y-10075794D01*
X113396592Y-10075794D01*
G37*
D12*
X112889000Y-10612000D03*
D11*
G36*
X113396592Y-8200794D02*
G01*
X113422681Y-8204664D01*
X113448264Y-8211072D01*
X113473096Y-8219957D01*
X113496938Y-8231234D01*
X113519560Y-8244793D01*
X113540743Y-8260503D01*
X113560285Y-8278215D01*
X113577997Y-8297757D01*
X113593707Y-8318940D01*
X113607266Y-8341562D01*
X113618543Y-8365404D01*
X113627428Y-8390236D01*
X113633836Y-8415819D01*
X113637706Y-8441908D01*
X113639000Y-8468250D01*
X113639000Y-9005750D01*
X113637706Y-9032092D01*
X113633836Y-9058181D01*
X113627428Y-9083764D01*
X113618543Y-9108596D01*
X113607266Y-9132438D01*
X113593707Y-9155060D01*
X113577997Y-9176243D01*
X113560285Y-9195785D01*
X113540743Y-9213497D01*
X113519560Y-9229207D01*
X113496938Y-9242766D01*
X113473096Y-9254043D01*
X113448264Y-9262928D01*
X113422681Y-9269336D01*
X113396592Y-9273206D01*
X113370250Y-9274500D01*
X112407750Y-9274500D01*
X112381408Y-9273206D01*
X112355319Y-9269336D01*
X112329736Y-9262928D01*
X112304904Y-9254043D01*
X112281062Y-9242766D01*
X112258440Y-9229207D01*
X112237257Y-9213497D01*
X112217715Y-9195785D01*
X112200003Y-9176243D01*
X112184293Y-9155060D01*
X112170734Y-9132438D01*
X112159457Y-9108596D01*
X112150572Y-9083764D01*
X112144164Y-9058181D01*
X112140294Y-9032092D01*
X112139000Y-9005750D01*
X112139000Y-8468250D01*
X112140294Y-8441908D01*
X112144164Y-8415819D01*
X112150572Y-8390236D01*
X112159457Y-8365404D01*
X112170734Y-8341562D01*
X112184293Y-8318940D01*
X112200003Y-8297757D01*
X112217715Y-8278215D01*
X112237257Y-8260503D01*
X112258440Y-8244793D01*
X112281062Y-8231234D01*
X112304904Y-8219957D01*
X112329736Y-8211072D01*
X112355319Y-8204664D01*
X112381408Y-8200794D01*
X112407750Y-8199500D01*
X113370250Y-8199500D01*
X113396592Y-8200794D01*
X113396592Y-8200794D01*
G37*
D12*
X112889000Y-8737000D03*
%TD*%
D11*
%TO.C,R16*%
G36*
X92838840Y-10075794D02*
G01*
X92864929Y-10079664D01*
X92890512Y-10086072D01*
X92915344Y-10094957D01*
X92939186Y-10106234D01*
X92961808Y-10119793D01*
X92982991Y-10135503D01*
X93002533Y-10153215D01*
X93020245Y-10172757D01*
X93035955Y-10193940D01*
X93049514Y-10216562D01*
X93060791Y-10240404D01*
X93069676Y-10265236D01*
X93076084Y-10290819D01*
X93079954Y-10316908D01*
X93081248Y-10343250D01*
X93081248Y-10880750D01*
X93079954Y-10907092D01*
X93076084Y-10933181D01*
X93069676Y-10958764D01*
X93060791Y-10983596D01*
X93049514Y-11007438D01*
X93035955Y-11030060D01*
X93020245Y-11051243D01*
X93002533Y-11070785D01*
X92982991Y-11088497D01*
X92961808Y-11104207D01*
X92939186Y-11117766D01*
X92915344Y-11129043D01*
X92890512Y-11137928D01*
X92864929Y-11144336D01*
X92838840Y-11148206D01*
X92812498Y-11149500D01*
X91849998Y-11149500D01*
X91823656Y-11148206D01*
X91797567Y-11144336D01*
X91771984Y-11137928D01*
X91747152Y-11129043D01*
X91723310Y-11117766D01*
X91700688Y-11104207D01*
X91679505Y-11088497D01*
X91659963Y-11070785D01*
X91642251Y-11051243D01*
X91626541Y-11030060D01*
X91612982Y-11007438D01*
X91601705Y-10983596D01*
X91592820Y-10958764D01*
X91586412Y-10933181D01*
X91582542Y-10907092D01*
X91581248Y-10880750D01*
X91581248Y-10343250D01*
X91582542Y-10316908D01*
X91586412Y-10290819D01*
X91592820Y-10265236D01*
X91601705Y-10240404D01*
X91612982Y-10216562D01*
X91626541Y-10193940D01*
X91642251Y-10172757D01*
X91659963Y-10153215D01*
X91679505Y-10135503D01*
X91700688Y-10119793D01*
X91723310Y-10106234D01*
X91747152Y-10094957D01*
X91771984Y-10086072D01*
X91797567Y-10079664D01*
X91823656Y-10075794D01*
X91849998Y-10074500D01*
X92812498Y-10074500D01*
X92838840Y-10075794D01*
X92838840Y-10075794D01*
G37*
D12*
X92331248Y-10612000D03*
D11*
G36*
X92838840Y-8200794D02*
G01*
X92864929Y-8204664D01*
X92890512Y-8211072D01*
X92915344Y-8219957D01*
X92939186Y-8231234D01*
X92961808Y-8244793D01*
X92982991Y-8260503D01*
X93002533Y-8278215D01*
X93020245Y-8297757D01*
X93035955Y-8318940D01*
X93049514Y-8341562D01*
X93060791Y-8365404D01*
X93069676Y-8390236D01*
X93076084Y-8415819D01*
X93079954Y-8441908D01*
X93081248Y-8468250D01*
X93081248Y-9005750D01*
X93079954Y-9032092D01*
X93076084Y-9058181D01*
X93069676Y-9083764D01*
X93060791Y-9108596D01*
X93049514Y-9132438D01*
X93035955Y-9155060D01*
X93020245Y-9176243D01*
X93002533Y-9195785D01*
X92982991Y-9213497D01*
X92961808Y-9229207D01*
X92939186Y-9242766D01*
X92915344Y-9254043D01*
X92890512Y-9262928D01*
X92864929Y-9269336D01*
X92838840Y-9273206D01*
X92812498Y-9274500D01*
X91849998Y-9274500D01*
X91823656Y-9273206D01*
X91797567Y-9269336D01*
X91771984Y-9262928D01*
X91747152Y-9254043D01*
X91723310Y-9242766D01*
X91700688Y-9229207D01*
X91679505Y-9213497D01*
X91659963Y-9195785D01*
X91642251Y-9176243D01*
X91626541Y-9155060D01*
X91612982Y-9132438D01*
X91601705Y-9108596D01*
X91592820Y-9083764D01*
X91586412Y-9058181D01*
X91582542Y-9032092D01*
X91581248Y-9005750D01*
X91581248Y-8468250D01*
X91582542Y-8441908D01*
X91586412Y-8415819D01*
X91592820Y-8390236D01*
X91601705Y-8365404D01*
X91612982Y-8341562D01*
X91626541Y-8318940D01*
X91642251Y-8297757D01*
X91659963Y-8278215D01*
X91679505Y-8260503D01*
X91700688Y-8244793D01*
X91723310Y-8231234D01*
X91747152Y-8219957D01*
X91771984Y-8211072D01*
X91797567Y-8204664D01*
X91823656Y-8200794D01*
X91849998Y-8199500D01*
X92812498Y-8199500D01*
X92838840Y-8200794D01*
X92838840Y-8200794D01*
G37*
D12*
X92331248Y-8737000D03*
%TD*%
D11*
%TO.C,R15*%
G36*
X87806466Y-10075794D02*
G01*
X87832555Y-10079664D01*
X87858138Y-10086072D01*
X87882970Y-10094957D01*
X87906812Y-10106234D01*
X87929434Y-10119793D01*
X87950617Y-10135503D01*
X87970159Y-10153215D01*
X87987871Y-10172757D01*
X88003581Y-10193940D01*
X88017140Y-10216562D01*
X88028417Y-10240404D01*
X88037302Y-10265236D01*
X88043710Y-10290819D01*
X88047580Y-10316908D01*
X88048874Y-10343250D01*
X88048874Y-10880750D01*
X88047580Y-10907092D01*
X88043710Y-10933181D01*
X88037302Y-10958764D01*
X88028417Y-10983596D01*
X88017140Y-11007438D01*
X88003581Y-11030060D01*
X87987871Y-11051243D01*
X87970159Y-11070785D01*
X87950617Y-11088497D01*
X87929434Y-11104207D01*
X87906812Y-11117766D01*
X87882970Y-11129043D01*
X87858138Y-11137928D01*
X87832555Y-11144336D01*
X87806466Y-11148206D01*
X87780124Y-11149500D01*
X86817624Y-11149500D01*
X86791282Y-11148206D01*
X86765193Y-11144336D01*
X86739610Y-11137928D01*
X86714778Y-11129043D01*
X86690936Y-11117766D01*
X86668314Y-11104207D01*
X86647131Y-11088497D01*
X86627589Y-11070785D01*
X86609877Y-11051243D01*
X86594167Y-11030060D01*
X86580608Y-11007438D01*
X86569331Y-10983596D01*
X86560446Y-10958764D01*
X86554038Y-10933181D01*
X86550168Y-10907092D01*
X86548874Y-10880750D01*
X86548874Y-10343250D01*
X86550168Y-10316908D01*
X86554038Y-10290819D01*
X86560446Y-10265236D01*
X86569331Y-10240404D01*
X86580608Y-10216562D01*
X86594167Y-10193940D01*
X86609877Y-10172757D01*
X86627589Y-10153215D01*
X86647131Y-10135503D01*
X86668314Y-10119793D01*
X86690936Y-10106234D01*
X86714778Y-10094957D01*
X86739610Y-10086072D01*
X86765193Y-10079664D01*
X86791282Y-10075794D01*
X86817624Y-10074500D01*
X87780124Y-10074500D01*
X87806466Y-10075794D01*
X87806466Y-10075794D01*
G37*
D12*
X87298874Y-10612000D03*
D11*
G36*
X87806466Y-8200794D02*
G01*
X87832555Y-8204664D01*
X87858138Y-8211072D01*
X87882970Y-8219957D01*
X87906812Y-8231234D01*
X87929434Y-8244793D01*
X87950617Y-8260503D01*
X87970159Y-8278215D01*
X87987871Y-8297757D01*
X88003581Y-8318940D01*
X88017140Y-8341562D01*
X88028417Y-8365404D01*
X88037302Y-8390236D01*
X88043710Y-8415819D01*
X88047580Y-8441908D01*
X88048874Y-8468250D01*
X88048874Y-9005750D01*
X88047580Y-9032092D01*
X88043710Y-9058181D01*
X88037302Y-9083764D01*
X88028417Y-9108596D01*
X88017140Y-9132438D01*
X88003581Y-9155060D01*
X87987871Y-9176243D01*
X87970159Y-9195785D01*
X87950617Y-9213497D01*
X87929434Y-9229207D01*
X87906812Y-9242766D01*
X87882970Y-9254043D01*
X87858138Y-9262928D01*
X87832555Y-9269336D01*
X87806466Y-9273206D01*
X87780124Y-9274500D01*
X86817624Y-9274500D01*
X86791282Y-9273206D01*
X86765193Y-9269336D01*
X86739610Y-9262928D01*
X86714778Y-9254043D01*
X86690936Y-9242766D01*
X86668314Y-9229207D01*
X86647131Y-9213497D01*
X86627589Y-9195785D01*
X86609877Y-9176243D01*
X86594167Y-9155060D01*
X86580608Y-9132438D01*
X86569331Y-9108596D01*
X86560446Y-9083764D01*
X86554038Y-9058181D01*
X86550168Y-9032092D01*
X86548874Y-9005750D01*
X86548874Y-8468250D01*
X86550168Y-8441908D01*
X86554038Y-8415819D01*
X86560446Y-8390236D01*
X86569331Y-8365404D01*
X86580608Y-8341562D01*
X86594167Y-8318940D01*
X86609877Y-8297757D01*
X86627589Y-8278215D01*
X86647131Y-8260503D01*
X86668314Y-8244793D01*
X86690936Y-8231234D01*
X86714778Y-8219957D01*
X86739610Y-8211072D01*
X86765193Y-8204664D01*
X86791282Y-8200794D01*
X86817624Y-8199500D01*
X87780124Y-8199500D01*
X87806466Y-8200794D01*
X87806466Y-8200794D01*
G37*
D12*
X87298874Y-8737000D03*
%TD*%
D11*
%TO.C,R14*%
G36*
X102903588Y-10075794D02*
G01*
X102929677Y-10079664D01*
X102955260Y-10086072D01*
X102980092Y-10094957D01*
X103003934Y-10106234D01*
X103026556Y-10119793D01*
X103047739Y-10135503D01*
X103067281Y-10153215D01*
X103084993Y-10172757D01*
X103100703Y-10193940D01*
X103114262Y-10216562D01*
X103125539Y-10240404D01*
X103134424Y-10265236D01*
X103140832Y-10290819D01*
X103144702Y-10316908D01*
X103145996Y-10343250D01*
X103145996Y-10880750D01*
X103144702Y-10907092D01*
X103140832Y-10933181D01*
X103134424Y-10958764D01*
X103125539Y-10983596D01*
X103114262Y-11007438D01*
X103100703Y-11030060D01*
X103084993Y-11051243D01*
X103067281Y-11070785D01*
X103047739Y-11088497D01*
X103026556Y-11104207D01*
X103003934Y-11117766D01*
X102980092Y-11129043D01*
X102955260Y-11137928D01*
X102929677Y-11144336D01*
X102903588Y-11148206D01*
X102877246Y-11149500D01*
X101914746Y-11149500D01*
X101888404Y-11148206D01*
X101862315Y-11144336D01*
X101836732Y-11137928D01*
X101811900Y-11129043D01*
X101788058Y-11117766D01*
X101765436Y-11104207D01*
X101744253Y-11088497D01*
X101724711Y-11070785D01*
X101706999Y-11051243D01*
X101691289Y-11030060D01*
X101677730Y-11007438D01*
X101666453Y-10983596D01*
X101657568Y-10958764D01*
X101651160Y-10933181D01*
X101647290Y-10907092D01*
X101645996Y-10880750D01*
X101645996Y-10343250D01*
X101647290Y-10316908D01*
X101651160Y-10290819D01*
X101657568Y-10265236D01*
X101666453Y-10240404D01*
X101677730Y-10216562D01*
X101691289Y-10193940D01*
X101706999Y-10172757D01*
X101724711Y-10153215D01*
X101744253Y-10135503D01*
X101765436Y-10119793D01*
X101788058Y-10106234D01*
X101811900Y-10094957D01*
X101836732Y-10086072D01*
X101862315Y-10079664D01*
X101888404Y-10075794D01*
X101914746Y-10074500D01*
X102877246Y-10074500D01*
X102903588Y-10075794D01*
X102903588Y-10075794D01*
G37*
D12*
X102395996Y-10612000D03*
D11*
G36*
X102903588Y-8200794D02*
G01*
X102929677Y-8204664D01*
X102955260Y-8211072D01*
X102980092Y-8219957D01*
X103003934Y-8231234D01*
X103026556Y-8244793D01*
X103047739Y-8260503D01*
X103067281Y-8278215D01*
X103084993Y-8297757D01*
X103100703Y-8318940D01*
X103114262Y-8341562D01*
X103125539Y-8365404D01*
X103134424Y-8390236D01*
X103140832Y-8415819D01*
X103144702Y-8441908D01*
X103145996Y-8468250D01*
X103145996Y-9005750D01*
X103144702Y-9032092D01*
X103140832Y-9058181D01*
X103134424Y-9083764D01*
X103125539Y-9108596D01*
X103114262Y-9132438D01*
X103100703Y-9155060D01*
X103084993Y-9176243D01*
X103067281Y-9195785D01*
X103047739Y-9213497D01*
X103026556Y-9229207D01*
X103003934Y-9242766D01*
X102980092Y-9254043D01*
X102955260Y-9262928D01*
X102929677Y-9269336D01*
X102903588Y-9273206D01*
X102877246Y-9274500D01*
X101914746Y-9274500D01*
X101888404Y-9273206D01*
X101862315Y-9269336D01*
X101836732Y-9262928D01*
X101811900Y-9254043D01*
X101788058Y-9242766D01*
X101765436Y-9229207D01*
X101744253Y-9213497D01*
X101724711Y-9195785D01*
X101706999Y-9176243D01*
X101691289Y-9155060D01*
X101677730Y-9132438D01*
X101666453Y-9108596D01*
X101657568Y-9083764D01*
X101651160Y-9058181D01*
X101647290Y-9032092D01*
X101645996Y-9005750D01*
X101645996Y-8468250D01*
X101647290Y-8441908D01*
X101651160Y-8415819D01*
X101657568Y-8390236D01*
X101666453Y-8365404D01*
X101677730Y-8341562D01*
X101691289Y-8318940D01*
X101706999Y-8297757D01*
X101724711Y-8278215D01*
X101744253Y-8260503D01*
X101765436Y-8244793D01*
X101788058Y-8231234D01*
X101811900Y-8219957D01*
X101836732Y-8211072D01*
X101862315Y-8204664D01*
X101888404Y-8200794D01*
X101914746Y-8199500D01*
X102877246Y-8199500D01*
X102903588Y-8200794D01*
X102903588Y-8200794D01*
G37*
D12*
X102395996Y-8737000D03*
%TD*%
D11*
%TO.C,R13*%
G36*
X136292876Y-10075794D02*
G01*
X136318965Y-10079664D01*
X136344548Y-10086072D01*
X136369380Y-10094957D01*
X136393222Y-10106234D01*
X136415844Y-10119793D01*
X136437027Y-10135503D01*
X136456569Y-10153215D01*
X136474281Y-10172757D01*
X136489991Y-10193940D01*
X136503550Y-10216562D01*
X136514827Y-10240404D01*
X136523712Y-10265236D01*
X136530120Y-10290819D01*
X136533990Y-10316908D01*
X136535284Y-10343250D01*
X136535284Y-10880750D01*
X136533990Y-10907092D01*
X136530120Y-10933181D01*
X136523712Y-10958764D01*
X136514827Y-10983596D01*
X136503550Y-11007438D01*
X136489991Y-11030060D01*
X136474281Y-11051243D01*
X136456569Y-11070785D01*
X136437027Y-11088497D01*
X136415844Y-11104207D01*
X136393222Y-11117766D01*
X136369380Y-11129043D01*
X136344548Y-11137928D01*
X136318965Y-11144336D01*
X136292876Y-11148206D01*
X136266534Y-11149500D01*
X135304034Y-11149500D01*
X135277692Y-11148206D01*
X135251603Y-11144336D01*
X135226020Y-11137928D01*
X135201188Y-11129043D01*
X135177346Y-11117766D01*
X135154724Y-11104207D01*
X135133541Y-11088497D01*
X135113999Y-11070785D01*
X135096287Y-11051243D01*
X135080577Y-11030060D01*
X135067018Y-11007438D01*
X135055741Y-10983596D01*
X135046856Y-10958764D01*
X135040448Y-10933181D01*
X135036578Y-10907092D01*
X135035284Y-10880750D01*
X135035284Y-10343250D01*
X135036578Y-10316908D01*
X135040448Y-10290819D01*
X135046856Y-10265236D01*
X135055741Y-10240404D01*
X135067018Y-10216562D01*
X135080577Y-10193940D01*
X135096287Y-10172757D01*
X135113999Y-10153215D01*
X135133541Y-10135503D01*
X135154724Y-10119793D01*
X135177346Y-10106234D01*
X135201188Y-10094957D01*
X135226020Y-10086072D01*
X135251603Y-10079664D01*
X135277692Y-10075794D01*
X135304034Y-10074500D01*
X136266534Y-10074500D01*
X136292876Y-10075794D01*
X136292876Y-10075794D01*
G37*
D12*
X135785284Y-10612000D03*
D11*
G36*
X136292876Y-8200794D02*
G01*
X136318965Y-8204664D01*
X136344548Y-8211072D01*
X136369380Y-8219957D01*
X136393222Y-8231234D01*
X136415844Y-8244793D01*
X136437027Y-8260503D01*
X136456569Y-8278215D01*
X136474281Y-8297757D01*
X136489991Y-8318940D01*
X136503550Y-8341562D01*
X136514827Y-8365404D01*
X136523712Y-8390236D01*
X136530120Y-8415819D01*
X136533990Y-8441908D01*
X136535284Y-8468250D01*
X136535284Y-9005750D01*
X136533990Y-9032092D01*
X136530120Y-9058181D01*
X136523712Y-9083764D01*
X136514827Y-9108596D01*
X136503550Y-9132438D01*
X136489991Y-9155060D01*
X136474281Y-9176243D01*
X136456569Y-9195785D01*
X136437027Y-9213497D01*
X136415844Y-9229207D01*
X136393222Y-9242766D01*
X136369380Y-9254043D01*
X136344548Y-9262928D01*
X136318965Y-9269336D01*
X136292876Y-9273206D01*
X136266534Y-9274500D01*
X135304034Y-9274500D01*
X135277692Y-9273206D01*
X135251603Y-9269336D01*
X135226020Y-9262928D01*
X135201188Y-9254043D01*
X135177346Y-9242766D01*
X135154724Y-9229207D01*
X135133541Y-9213497D01*
X135113999Y-9195785D01*
X135096287Y-9176243D01*
X135080577Y-9155060D01*
X135067018Y-9132438D01*
X135055741Y-9108596D01*
X135046856Y-9083764D01*
X135040448Y-9058181D01*
X135036578Y-9032092D01*
X135035284Y-9005750D01*
X135035284Y-8468250D01*
X135036578Y-8441908D01*
X135040448Y-8415819D01*
X135046856Y-8390236D01*
X135055741Y-8365404D01*
X135067018Y-8341562D01*
X135080577Y-8318940D01*
X135096287Y-8297757D01*
X135113999Y-8278215D01*
X135133541Y-8260503D01*
X135154724Y-8244793D01*
X135177346Y-8231234D01*
X135201188Y-8219957D01*
X135226020Y-8211072D01*
X135251603Y-8204664D01*
X135277692Y-8200794D01*
X135304034Y-8199500D01*
X136266534Y-8199500D01*
X136292876Y-8200794D01*
X136292876Y-8200794D01*
G37*
D12*
X135785284Y-8737000D03*
%TD*%
D11*
%TO.C,R12*%
G36*
X121016592Y-10075794D02*
G01*
X121042681Y-10079664D01*
X121068264Y-10086072D01*
X121093096Y-10094957D01*
X121116938Y-10106234D01*
X121139560Y-10119793D01*
X121160743Y-10135503D01*
X121180285Y-10153215D01*
X121197997Y-10172757D01*
X121213707Y-10193940D01*
X121227266Y-10216562D01*
X121238543Y-10240404D01*
X121247428Y-10265236D01*
X121253836Y-10290819D01*
X121257706Y-10316908D01*
X121259000Y-10343250D01*
X121259000Y-10880750D01*
X121257706Y-10907092D01*
X121253836Y-10933181D01*
X121247428Y-10958764D01*
X121238543Y-10983596D01*
X121227266Y-11007438D01*
X121213707Y-11030060D01*
X121197997Y-11051243D01*
X121180285Y-11070785D01*
X121160743Y-11088497D01*
X121139560Y-11104207D01*
X121116938Y-11117766D01*
X121093096Y-11129043D01*
X121068264Y-11137928D01*
X121042681Y-11144336D01*
X121016592Y-11148206D01*
X120990250Y-11149500D01*
X120027750Y-11149500D01*
X120001408Y-11148206D01*
X119975319Y-11144336D01*
X119949736Y-11137928D01*
X119924904Y-11129043D01*
X119901062Y-11117766D01*
X119878440Y-11104207D01*
X119857257Y-11088497D01*
X119837715Y-11070785D01*
X119820003Y-11051243D01*
X119804293Y-11030060D01*
X119790734Y-11007438D01*
X119779457Y-10983596D01*
X119770572Y-10958764D01*
X119764164Y-10933181D01*
X119760294Y-10907092D01*
X119759000Y-10880750D01*
X119759000Y-10343250D01*
X119760294Y-10316908D01*
X119764164Y-10290819D01*
X119770572Y-10265236D01*
X119779457Y-10240404D01*
X119790734Y-10216562D01*
X119804293Y-10193940D01*
X119820003Y-10172757D01*
X119837715Y-10153215D01*
X119857257Y-10135503D01*
X119878440Y-10119793D01*
X119901062Y-10106234D01*
X119924904Y-10094957D01*
X119949736Y-10086072D01*
X119975319Y-10079664D01*
X120001408Y-10075794D01*
X120027750Y-10074500D01*
X120990250Y-10074500D01*
X121016592Y-10075794D01*
X121016592Y-10075794D01*
G37*
D12*
X120509000Y-10612000D03*
D11*
G36*
X121016592Y-8200794D02*
G01*
X121042681Y-8204664D01*
X121068264Y-8211072D01*
X121093096Y-8219957D01*
X121116938Y-8231234D01*
X121139560Y-8244793D01*
X121160743Y-8260503D01*
X121180285Y-8278215D01*
X121197997Y-8297757D01*
X121213707Y-8318940D01*
X121227266Y-8341562D01*
X121238543Y-8365404D01*
X121247428Y-8390236D01*
X121253836Y-8415819D01*
X121257706Y-8441908D01*
X121259000Y-8468250D01*
X121259000Y-9005750D01*
X121257706Y-9032092D01*
X121253836Y-9058181D01*
X121247428Y-9083764D01*
X121238543Y-9108596D01*
X121227266Y-9132438D01*
X121213707Y-9155060D01*
X121197997Y-9176243D01*
X121180285Y-9195785D01*
X121160743Y-9213497D01*
X121139560Y-9229207D01*
X121116938Y-9242766D01*
X121093096Y-9254043D01*
X121068264Y-9262928D01*
X121042681Y-9269336D01*
X121016592Y-9273206D01*
X120990250Y-9274500D01*
X120027750Y-9274500D01*
X120001408Y-9273206D01*
X119975319Y-9269336D01*
X119949736Y-9262928D01*
X119924904Y-9254043D01*
X119901062Y-9242766D01*
X119878440Y-9229207D01*
X119857257Y-9213497D01*
X119837715Y-9195785D01*
X119820003Y-9176243D01*
X119804293Y-9155060D01*
X119790734Y-9132438D01*
X119779457Y-9108596D01*
X119770572Y-9083764D01*
X119764164Y-9058181D01*
X119760294Y-9032092D01*
X119759000Y-9005750D01*
X119759000Y-8468250D01*
X119760294Y-8441908D01*
X119764164Y-8415819D01*
X119770572Y-8390236D01*
X119779457Y-8365404D01*
X119790734Y-8341562D01*
X119804293Y-8318940D01*
X119820003Y-8297757D01*
X119837715Y-8278215D01*
X119857257Y-8260503D01*
X119878440Y-8244793D01*
X119901062Y-8231234D01*
X119924904Y-8219957D01*
X119949736Y-8211072D01*
X119975319Y-8204664D01*
X120001408Y-8200794D01*
X120027750Y-8199500D01*
X120990250Y-8199500D01*
X121016592Y-8200794D01*
X121016592Y-8200794D01*
G37*
D12*
X120509000Y-8737000D03*
%TD*%
D11*
%TO.C,R11*%
G36*
X138841947Y-10075794D02*
G01*
X138868036Y-10079664D01*
X138893619Y-10086072D01*
X138918451Y-10094957D01*
X138942293Y-10106234D01*
X138964915Y-10119793D01*
X138986098Y-10135503D01*
X139005640Y-10153215D01*
X139023352Y-10172757D01*
X139039062Y-10193940D01*
X139052621Y-10216562D01*
X139063898Y-10240404D01*
X139072783Y-10265236D01*
X139079191Y-10290819D01*
X139083061Y-10316908D01*
X139084355Y-10343250D01*
X139084355Y-10880750D01*
X139083061Y-10907092D01*
X139079191Y-10933181D01*
X139072783Y-10958764D01*
X139063898Y-10983596D01*
X139052621Y-11007438D01*
X139039062Y-11030060D01*
X139023352Y-11051243D01*
X139005640Y-11070785D01*
X138986098Y-11088497D01*
X138964915Y-11104207D01*
X138942293Y-11117766D01*
X138918451Y-11129043D01*
X138893619Y-11137928D01*
X138868036Y-11144336D01*
X138841947Y-11148206D01*
X138815605Y-11149500D01*
X137853105Y-11149500D01*
X137826763Y-11148206D01*
X137800674Y-11144336D01*
X137775091Y-11137928D01*
X137750259Y-11129043D01*
X137726417Y-11117766D01*
X137703795Y-11104207D01*
X137682612Y-11088497D01*
X137663070Y-11070785D01*
X137645358Y-11051243D01*
X137629648Y-11030060D01*
X137616089Y-11007438D01*
X137604812Y-10983596D01*
X137595927Y-10958764D01*
X137589519Y-10933181D01*
X137585649Y-10907092D01*
X137584355Y-10880750D01*
X137584355Y-10343250D01*
X137585649Y-10316908D01*
X137589519Y-10290819D01*
X137595927Y-10265236D01*
X137604812Y-10240404D01*
X137616089Y-10216562D01*
X137629648Y-10193940D01*
X137645358Y-10172757D01*
X137663070Y-10153215D01*
X137682612Y-10135503D01*
X137703795Y-10119793D01*
X137726417Y-10106234D01*
X137750259Y-10094957D01*
X137775091Y-10086072D01*
X137800674Y-10079664D01*
X137826763Y-10075794D01*
X137853105Y-10074500D01*
X138815605Y-10074500D01*
X138841947Y-10075794D01*
X138841947Y-10075794D01*
G37*
D12*
X138334355Y-10612000D03*
D11*
G36*
X138841947Y-8200794D02*
G01*
X138868036Y-8204664D01*
X138893619Y-8211072D01*
X138918451Y-8219957D01*
X138942293Y-8231234D01*
X138964915Y-8244793D01*
X138986098Y-8260503D01*
X139005640Y-8278215D01*
X139023352Y-8297757D01*
X139039062Y-8318940D01*
X139052621Y-8341562D01*
X139063898Y-8365404D01*
X139072783Y-8390236D01*
X139079191Y-8415819D01*
X139083061Y-8441908D01*
X139084355Y-8468250D01*
X139084355Y-9005750D01*
X139083061Y-9032092D01*
X139079191Y-9058181D01*
X139072783Y-9083764D01*
X139063898Y-9108596D01*
X139052621Y-9132438D01*
X139039062Y-9155060D01*
X139023352Y-9176243D01*
X139005640Y-9195785D01*
X138986098Y-9213497D01*
X138964915Y-9229207D01*
X138942293Y-9242766D01*
X138918451Y-9254043D01*
X138893619Y-9262928D01*
X138868036Y-9269336D01*
X138841947Y-9273206D01*
X138815605Y-9274500D01*
X137853105Y-9274500D01*
X137826763Y-9273206D01*
X137800674Y-9269336D01*
X137775091Y-9262928D01*
X137750259Y-9254043D01*
X137726417Y-9242766D01*
X137703795Y-9229207D01*
X137682612Y-9213497D01*
X137663070Y-9195785D01*
X137645358Y-9176243D01*
X137629648Y-9155060D01*
X137616089Y-9132438D01*
X137604812Y-9108596D01*
X137595927Y-9083764D01*
X137589519Y-9058181D01*
X137585649Y-9032092D01*
X137584355Y-9005750D01*
X137584355Y-8468250D01*
X137585649Y-8441908D01*
X137589519Y-8415819D01*
X137595927Y-8390236D01*
X137604812Y-8365404D01*
X137616089Y-8341562D01*
X137629648Y-8318940D01*
X137645358Y-8297757D01*
X137663070Y-8278215D01*
X137682612Y-8260503D01*
X137703795Y-8244793D01*
X137726417Y-8231234D01*
X137750259Y-8219957D01*
X137775091Y-8211072D01*
X137800674Y-8204664D01*
X137826763Y-8200794D01*
X137853105Y-8199500D01*
X138815605Y-8199500D01*
X138841947Y-8200794D01*
X138841947Y-8200794D01*
G37*
D12*
X138334355Y-8737000D03*
%TD*%
D11*
%TO.C,R10*%
G36*
X100387401Y-10075794D02*
G01*
X100413490Y-10079664D01*
X100439073Y-10086072D01*
X100463905Y-10094957D01*
X100487747Y-10106234D01*
X100510369Y-10119793D01*
X100531552Y-10135503D01*
X100551094Y-10153215D01*
X100568806Y-10172757D01*
X100584516Y-10193940D01*
X100598075Y-10216562D01*
X100609352Y-10240404D01*
X100618237Y-10265236D01*
X100624645Y-10290819D01*
X100628515Y-10316908D01*
X100629809Y-10343250D01*
X100629809Y-10880750D01*
X100628515Y-10907092D01*
X100624645Y-10933181D01*
X100618237Y-10958764D01*
X100609352Y-10983596D01*
X100598075Y-11007438D01*
X100584516Y-11030060D01*
X100568806Y-11051243D01*
X100551094Y-11070785D01*
X100531552Y-11088497D01*
X100510369Y-11104207D01*
X100487747Y-11117766D01*
X100463905Y-11129043D01*
X100439073Y-11137928D01*
X100413490Y-11144336D01*
X100387401Y-11148206D01*
X100361059Y-11149500D01*
X99398559Y-11149500D01*
X99372217Y-11148206D01*
X99346128Y-11144336D01*
X99320545Y-11137928D01*
X99295713Y-11129043D01*
X99271871Y-11117766D01*
X99249249Y-11104207D01*
X99228066Y-11088497D01*
X99208524Y-11070785D01*
X99190812Y-11051243D01*
X99175102Y-11030060D01*
X99161543Y-11007438D01*
X99150266Y-10983596D01*
X99141381Y-10958764D01*
X99134973Y-10933181D01*
X99131103Y-10907092D01*
X99129809Y-10880750D01*
X99129809Y-10343250D01*
X99131103Y-10316908D01*
X99134973Y-10290819D01*
X99141381Y-10265236D01*
X99150266Y-10240404D01*
X99161543Y-10216562D01*
X99175102Y-10193940D01*
X99190812Y-10172757D01*
X99208524Y-10153215D01*
X99228066Y-10135503D01*
X99249249Y-10119793D01*
X99271871Y-10106234D01*
X99295713Y-10094957D01*
X99320545Y-10086072D01*
X99346128Y-10079664D01*
X99372217Y-10075794D01*
X99398559Y-10074500D01*
X100361059Y-10074500D01*
X100387401Y-10075794D01*
X100387401Y-10075794D01*
G37*
D12*
X99879809Y-10612000D03*
D11*
G36*
X100387401Y-8200794D02*
G01*
X100413490Y-8204664D01*
X100439073Y-8211072D01*
X100463905Y-8219957D01*
X100487747Y-8231234D01*
X100510369Y-8244793D01*
X100531552Y-8260503D01*
X100551094Y-8278215D01*
X100568806Y-8297757D01*
X100584516Y-8318940D01*
X100598075Y-8341562D01*
X100609352Y-8365404D01*
X100618237Y-8390236D01*
X100624645Y-8415819D01*
X100628515Y-8441908D01*
X100629809Y-8468250D01*
X100629809Y-9005750D01*
X100628515Y-9032092D01*
X100624645Y-9058181D01*
X100618237Y-9083764D01*
X100609352Y-9108596D01*
X100598075Y-9132438D01*
X100584516Y-9155060D01*
X100568806Y-9176243D01*
X100551094Y-9195785D01*
X100531552Y-9213497D01*
X100510369Y-9229207D01*
X100487747Y-9242766D01*
X100463905Y-9254043D01*
X100439073Y-9262928D01*
X100413490Y-9269336D01*
X100387401Y-9273206D01*
X100361059Y-9274500D01*
X99398559Y-9274500D01*
X99372217Y-9273206D01*
X99346128Y-9269336D01*
X99320545Y-9262928D01*
X99295713Y-9254043D01*
X99271871Y-9242766D01*
X99249249Y-9229207D01*
X99228066Y-9213497D01*
X99208524Y-9195785D01*
X99190812Y-9176243D01*
X99175102Y-9155060D01*
X99161543Y-9132438D01*
X99150266Y-9108596D01*
X99141381Y-9083764D01*
X99134973Y-9058181D01*
X99131103Y-9032092D01*
X99129809Y-9005750D01*
X99129809Y-8468250D01*
X99131103Y-8441908D01*
X99134973Y-8415819D01*
X99141381Y-8390236D01*
X99150266Y-8365404D01*
X99161543Y-8341562D01*
X99175102Y-8318940D01*
X99190812Y-8297757D01*
X99208524Y-8278215D01*
X99228066Y-8260503D01*
X99249249Y-8244793D01*
X99271871Y-8231234D01*
X99295713Y-8219957D01*
X99320545Y-8211072D01*
X99346128Y-8204664D01*
X99372217Y-8200794D01*
X99398559Y-8199500D01*
X100361059Y-8199500D01*
X100387401Y-8200794D01*
X100387401Y-8200794D01*
G37*
D12*
X99879809Y-8737000D03*
%TD*%
D11*
%TO.C,R9*%
G36*
X85290279Y-10075794D02*
G01*
X85316368Y-10079664D01*
X85341951Y-10086072D01*
X85366783Y-10094957D01*
X85390625Y-10106234D01*
X85413247Y-10119793D01*
X85434430Y-10135503D01*
X85453972Y-10153215D01*
X85471684Y-10172757D01*
X85487394Y-10193940D01*
X85500953Y-10216562D01*
X85512230Y-10240404D01*
X85521115Y-10265236D01*
X85527523Y-10290819D01*
X85531393Y-10316908D01*
X85532687Y-10343250D01*
X85532687Y-10880750D01*
X85531393Y-10907092D01*
X85527523Y-10933181D01*
X85521115Y-10958764D01*
X85512230Y-10983596D01*
X85500953Y-11007438D01*
X85487394Y-11030060D01*
X85471684Y-11051243D01*
X85453972Y-11070785D01*
X85434430Y-11088497D01*
X85413247Y-11104207D01*
X85390625Y-11117766D01*
X85366783Y-11129043D01*
X85341951Y-11137928D01*
X85316368Y-11144336D01*
X85290279Y-11148206D01*
X85263937Y-11149500D01*
X84301437Y-11149500D01*
X84275095Y-11148206D01*
X84249006Y-11144336D01*
X84223423Y-11137928D01*
X84198591Y-11129043D01*
X84174749Y-11117766D01*
X84152127Y-11104207D01*
X84130944Y-11088497D01*
X84111402Y-11070785D01*
X84093690Y-11051243D01*
X84077980Y-11030060D01*
X84064421Y-11007438D01*
X84053144Y-10983596D01*
X84044259Y-10958764D01*
X84037851Y-10933181D01*
X84033981Y-10907092D01*
X84032687Y-10880750D01*
X84032687Y-10343250D01*
X84033981Y-10316908D01*
X84037851Y-10290819D01*
X84044259Y-10265236D01*
X84053144Y-10240404D01*
X84064421Y-10216562D01*
X84077980Y-10193940D01*
X84093690Y-10172757D01*
X84111402Y-10153215D01*
X84130944Y-10135503D01*
X84152127Y-10119793D01*
X84174749Y-10106234D01*
X84198591Y-10094957D01*
X84223423Y-10086072D01*
X84249006Y-10079664D01*
X84275095Y-10075794D01*
X84301437Y-10074500D01*
X85263937Y-10074500D01*
X85290279Y-10075794D01*
X85290279Y-10075794D01*
G37*
D12*
X84782687Y-10612000D03*
D11*
G36*
X85290279Y-8200794D02*
G01*
X85316368Y-8204664D01*
X85341951Y-8211072D01*
X85366783Y-8219957D01*
X85390625Y-8231234D01*
X85413247Y-8244793D01*
X85434430Y-8260503D01*
X85453972Y-8278215D01*
X85471684Y-8297757D01*
X85487394Y-8318940D01*
X85500953Y-8341562D01*
X85512230Y-8365404D01*
X85521115Y-8390236D01*
X85527523Y-8415819D01*
X85531393Y-8441908D01*
X85532687Y-8468250D01*
X85532687Y-9005750D01*
X85531393Y-9032092D01*
X85527523Y-9058181D01*
X85521115Y-9083764D01*
X85512230Y-9108596D01*
X85500953Y-9132438D01*
X85487394Y-9155060D01*
X85471684Y-9176243D01*
X85453972Y-9195785D01*
X85434430Y-9213497D01*
X85413247Y-9229207D01*
X85390625Y-9242766D01*
X85366783Y-9254043D01*
X85341951Y-9262928D01*
X85316368Y-9269336D01*
X85290279Y-9273206D01*
X85263937Y-9274500D01*
X84301437Y-9274500D01*
X84275095Y-9273206D01*
X84249006Y-9269336D01*
X84223423Y-9262928D01*
X84198591Y-9254043D01*
X84174749Y-9242766D01*
X84152127Y-9229207D01*
X84130944Y-9213497D01*
X84111402Y-9195785D01*
X84093690Y-9176243D01*
X84077980Y-9155060D01*
X84064421Y-9132438D01*
X84053144Y-9108596D01*
X84044259Y-9083764D01*
X84037851Y-9058181D01*
X84033981Y-9032092D01*
X84032687Y-9005750D01*
X84032687Y-8468250D01*
X84033981Y-8441908D01*
X84037851Y-8415819D01*
X84044259Y-8390236D01*
X84053144Y-8365404D01*
X84064421Y-8341562D01*
X84077980Y-8318940D01*
X84093690Y-8297757D01*
X84111402Y-8278215D01*
X84130944Y-8260503D01*
X84152127Y-8244793D01*
X84174749Y-8231234D01*
X84198591Y-8219957D01*
X84223423Y-8211072D01*
X84249006Y-8204664D01*
X84275095Y-8200794D01*
X84301437Y-8199500D01*
X85263937Y-8199500D01*
X85290279Y-8200794D01*
X85290279Y-8200794D01*
G37*
D12*
X84782687Y-8737000D03*
%TD*%
D11*
%TO.C,R8*%
G36*
X90322653Y-10075794D02*
G01*
X90348742Y-10079664D01*
X90374325Y-10086072D01*
X90399157Y-10094957D01*
X90422999Y-10106234D01*
X90445621Y-10119793D01*
X90466804Y-10135503D01*
X90486346Y-10153215D01*
X90504058Y-10172757D01*
X90519768Y-10193940D01*
X90533327Y-10216562D01*
X90544604Y-10240404D01*
X90553489Y-10265236D01*
X90559897Y-10290819D01*
X90563767Y-10316908D01*
X90565061Y-10343250D01*
X90565061Y-10880750D01*
X90563767Y-10907092D01*
X90559897Y-10933181D01*
X90553489Y-10958764D01*
X90544604Y-10983596D01*
X90533327Y-11007438D01*
X90519768Y-11030060D01*
X90504058Y-11051243D01*
X90486346Y-11070785D01*
X90466804Y-11088497D01*
X90445621Y-11104207D01*
X90422999Y-11117766D01*
X90399157Y-11129043D01*
X90374325Y-11137928D01*
X90348742Y-11144336D01*
X90322653Y-11148206D01*
X90296311Y-11149500D01*
X89333811Y-11149500D01*
X89307469Y-11148206D01*
X89281380Y-11144336D01*
X89255797Y-11137928D01*
X89230965Y-11129043D01*
X89207123Y-11117766D01*
X89184501Y-11104207D01*
X89163318Y-11088497D01*
X89143776Y-11070785D01*
X89126064Y-11051243D01*
X89110354Y-11030060D01*
X89096795Y-11007438D01*
X89085518Y-10983596D01*
X89076633Y-10958764D01*
X89070225Y-10933181D01*
X89066355Y-10907092D01*
X89065061Y-10880750D01*
X89065061Y-10343250D01*
X89066355Y-10316908D01*
X89070225Y-10290819D01*
X89076633Y-10265236D01*
X89085518Y-10240404D01*
X89096795Y-10216562D01*
X89110354Y-10193940D01*
X89126064Y-10172757D01*
X89143776Y-10153215D01*
X89163318Y-10135503D01*
X89184501Y-10119793D01*
X89207123Y-10106234D01*
X89230965Y-10094957D01*
X89255797Y-10086072D01*
X89281380Y-10079664D01*
X89307469Y-10075794D01*
X89333811Y-10074500D01*
X90296311Y-10074500D01*
X90322653Y-10075794D01*
X90322653Y-10075794D01*
G37*
D12*
X89815061Y-10612000D03*
D11*
G36*
X90322653Y-8200794D02*
G01*
X90348742Y-8204664D01*
X90374325Y-8211072D01*
X90399157Y-8219957D01*
X90422999Y-8231234D01*
X90445621Y-8244793D01*
X90466804Y-8260503D01*
X90486346Y-8278215D01*
X90504058Y-8297757D01*
X90519768Y-8318940D01*
X90533327Y-8341562D01*
X90544604Y-8365404D01*
X90553489Y-8390236D01*
X90559897Y-8415819D01*
X90563767Y-8441908D01*
X90565061Y-8468250D01*
X90565061Y-9005750D01*
X90563767Y-9032092D01*
X90559897Y-9058181D01*
X90553489Y-9083764D01*
X90544604Y-9108596D01*
X90533327Y-9132438D01*
X90519768Y-9155060D01*
X90504058Y-9176243D01*
X90486346Y-9195785D01*
X90466804Y-9213497D01*
X90445621Y-9229207D01*
X90422999Y-9242766D01*
X90399157Y-9254043D01*
X90374325Y-9262928D01*
X90348742Y-9269336D01*
X90322653Y-9273206D01*
X90296311Y-9274500D01*
X89333811Y-9274500D01*
X89307469Y-9273206D01*
X89281380Y-9269336D01*
X89255797Y-9262928D01*
X89230965Y-9254043D01*
X89207123Y-9242766D01*
X89184501Y-9229207D01*
X89163318Y-9213497D01*
X89143776Y-9195785D01*
X89126064Y-9176243D01*
X89110354Y-9155060D01*
X89096795Y-9132438D01*
X89085518Y-9108596D01*
X89076633Y-9083764D01*
X89070225Y-9058181D01*
X89066355Y-9032092D01*
X89065061Y-9005750D01*
X89065061Y-8468250D01*
X89066355Y-8441908D01*
X89070225Y-8415819D01*
X89076633Y-8390236D01*
X89085518Y-8365404D01*
X89096795Y-8341562D01*
X89110354Y-8318940D01*
X89126064Y-8297757D01*
X89143776Y-8278215D01*
X89163318Y-8260503D01*
X89184501Y-8244793D01*
X89207123Y-8231234D01*
X89230965Y-8219957D01*
X89255797Y-8211072D01*
X89281380Y-8204664D01*
X89307469Y-8200794D01*
X89333811Y-8199500D01*
X90296311Y-8199500D01*
X90322653Y-8200794D01*
X90322653Y-8200794D01*
G37*
D12*
X89815061Y-8737000D03*
%TD*%
D11*
%TO.C,R7*%
G36*
X82774092Y-10075794D02*
G01*
X82800181Y-10079664D01*
X82825764Y-10086072D01*
X82850596Y-10094957D01*
X82874438Y-10106234D01*
X82897060Y-10119793D01*
X82918243Y-10135503D01*
X82937785Y-10153215D01*
X82955497Y-10172757D01*
X82971207Y-10193940D01*
X82984766Y-10216562D01*
X82996043Y-10240404D01*
X83004928Y-10265236D01*
X83011336Y-10290819D01*
X83015206Y-10316908D01*
X83016500Y-10343250D01*
X83016500Y-10880750D01*
X83015206Y-10907092D01*
X83011336Y-10933181D01*
X83004928Y-10958764D01*
X82996043Y-10983596D01*
X82984766Y-11007438D01*
X82971207Y-11030060D01*
X82955497Y-11051243D01*
X82937785Y-11070785D01*
X82918243Y-11088497D01*
X82897060Y-11104207D01*
X82874438Y-11117766D01*
X82850596Y-11129043D01*
X82825764Y-11137928D01*
X82800181Y-11144336D01*
X82774092Y-11148206D01*
X82747750Y-11149500D01*
X81785250Y-11149500D01*
X81758908Y-11148206D01*
X81732819Y-11144336D01*
X81707236Y-11137928D01*
X81682404Y-11129043D01*
X81658562Y-11117766D01*
X81635940Y-11104207D01*
X81614757Y-11088497D01*
X81595215Y-11070785D01*
X81577503Y-11051243D01*
X81561793Y-11030060D01*
X81548234Y-11007438D01*
X81536957Y-10983596D01*
X81528072Y-10958764D01*
X81521664Y-10933181D01*
X81517794Y-10907092D01*
X81516500Y-10880750D01*
X81516500Y-10343250D01*
X81517794Y-10316908D01*
X81521664Y-10290819D01*
X81528072Y-10265236D01*
X81536957Y-10240404D01*
X81548234Y-10216562D01*
X81561793Y-10193940D01*
X81577503Y-10172757D01*
X81595215Y-10153215D01*
X81614757Y-10135503D01*
X81635940Y-10119793D01*
X81658562Y-10106234D01*
X81682404Y-10094957D01*
X81707236Y-10086072D01*
X81732819Y-10079664D01*
X81758908Y-10075794D01*
X81785250Y-10074500D01*
X82747750Y-10074500D01*
X82774092Y-10075794D01*
X82774092Y-10075794D01*
G37*
D12*
X82266500Y-10612000D03*
D11*
G36*
X82774092Y-8200794D02*
G01*
X82800181Y-8204664D01*
X82825764Y-8211072D01*
X82850596Y-8219957D01*
X82874438Y-8231234D01*
X82897060Y-8244793D01*
X82918243Y-8260503D01*
X82937785Y-8278215D01*
X82955497Y-8297757D01*
X82971207Y-8318940D01*
X82984766Y-8341562D01*
X82996043Y-8365404D01*
X83004928Y-8390236D01*
X83011336Y-8415819D01*
X83015206Y-8441908D01*
X83016500Y-8468250D01*
X83016500Y-9005750D01*
X83015206Y-9032092D01*
X83011336Y-9058181D01*
X83004928Y-9083764D01*
X82996043Y-9108596D01*
X82984766Y-9132438D01*
X82971207Y-9155060D01*
X82955497Y-9176243D01*
X82937785Y-9195785D01*
X82918243Y-9213497D01*
X82897060Y-9229207D01*
X82874438Y-9242766D01*
X82850596Y-9254043D01*
X82825764Y-9262928D01*
X82800181Y-9269336D01*
X82774092Y-9273206D01*
X82747750Y-9274500D01*
X81785250Y-9274500D01*
X81758908Y-9273206D01*
X81732819Y-9269336D01*
X81707236Y-9262928D01*
X81682404Y-9254043D01*
X81658562Y-9242766D01*
X81635940Y-9229207D01*
X81614757Y-9213497D01*
X81595215Y-9195785D01*
X81577503Y-9176243D01*
X81561793Y-9155060D01*
X81548234Y-9132438D01*
X81536957Y-9108596D01*
X81528072Y-9083764D01*
X81521664Y-9058181D01*
X81517794Y-9032092D01*
X81516500Y-9005750D01*
X81516500Y-8468250D01*
X81517794Y-8441908D01*
X81521664Y-8415819D01*
X81528072Y-8390236D01*
X81536957Y-8365404D01*
X81548234Y-8341562D01*
X81561793Y-8318940D01*
X81577503Y-8297757D01*
X81595215Y-8278215D01*
X81614757Y-8260503D01*
X81635940Y-8244793D01*
X81658562Y-8231234D01*
X81682404Y-8219957D01*
X81707236Y-8211072D01*
X81732819Y-8204664D01*
X81758908Y-8200794D01*
X81785250Y-8199500D01*
X82747750Y-8199500D01*
X82774092Y-8200794D01*
X82774092Y-8200794D01*
G37*
D12*
X82266500Y-8737000D03*
%TD*%
D11*
%TO.C,R6*%
G36*
X128645663Y-10075794D02*
G01*
X128671752Y-10079664D01*
X128697335Y-10086072D01*
X128722167Y-10094957D01*
X128746009Y-10106234D01*
X128768631Y-10119793D01*
X128789814Y-10135503D01*
X128809356Y-10153215D01*
X128827068Y-10172757D01*
X128842778Y-10193940D01*
X128856337Y-10216562D01*
X128867614Y-10240404D01*
X128876499Y-10265236D01*
X128882907Y-10290819D01*
X128886777Y-10316908D01*
X128888071Y-10343250D01*
X128888071Y-10880750D01*
X128886777Y-10907092D01*
X128882907Y-10933181D01*
X128876499Y-10958764D01*
X128867614Y-10983596D01*
X128856337Y-11007438D01*
X128842778Y-11030060D01*
X128827068Y-11051243D01*
X128809356Y-11070785D01*
X128789814Y-11088497D01*
X128768631Y-11104207D01*
X128746009Y-11117766D01*
X128722167Y-11129043D01*
X128697335Y-11137928D01*
X128671752Y-11144336D01*
X128645663Y-11148206D01*
X128619321Y-11149500D01*
X127656821Y-11149500D01*
X127630479Y-11148206D01*
X127604390Y-11144336D01*
X127578807Y-11137928D01*
X127553975Y-11129043D01*
X127530133Y-11117766D01*
X127507511Y-11104207D01*
X127486328Y-11088497D01*
X127466786Y-11070785D01*
X127449074Y-11051243D01*
X127433364Y-11030060D01*
X127419805Y-11007438D01*
X127408528Y-10983596D01*
X127399643Y-10958764D01*
X127393235Y-10933181D01*
X127389365Y-10907092D01*
X127388071Y-10880750D01*
X127388071Y-10343250D01*
X127389365Y-10316908D01*
X127393235Y-10290819D01*
X127399643Y-10265236D01*
X127408528Y-10240404D01*
X127419805Y-10216562D01*
X127433364Y-10193940D01*
X127449074Y-10172757D01*
X127466786Y-10153215D01*
X127486328Y-10135503D01*
X127507511Y-10119793D01*
X127530133Y-10106234D01*
X127553975Y-10094957D01*
X127578807Y-10086072D01*
X127604390Y-10079664D01*
X127630479Y-10075794D01*
X127656821Y-10074500D01*
X128619321Y-10074500D01*
X128645663Y-10075794D01*
X128645663Y-10075794D01*
G37*
D12*
X128138071Y-10612000D03*
D11*
G36*
X128645663Y-8200794D02*
G01*
X128671752Y-8204664D01*
X128697335Y-8211072D01*
X128722167Y-8219957D01*
X128746009Y-8231234D01*
X128768631Y-8244793D01*
X128789814Y-8260503D01*
X128809356Y-8278215D01*
X128827068Y-8297757D01*
X128842778Y-8318940D01*
X128856337Y-8341562D01*
X128867614Y-8365404D01*
X128876499Y-8390236D01*
X128882907Y-8415819D01*
X128886777Y-8441908D01*
X128888071Y-8468250D01*
X128888071Y-9005750D01*
X128886777Y-9032092D01*
X128882907Y-9058181D01*
X128876499Y-9083764D01*
X128867614Y-9108596D01*
X128856337Y-9132438D01*
X128842778Y-9155060D01*
X128827068Y-9176243D01*
X128809356Y-9195785D01*
X128789814Y-9213497D01*
X128768631Y-9229207D01*
X128746009Y-9242766D01*
X128722167Y-9254043D01*
X128697335Y-9262928D01*
X128671752Y-9269336D01*
X128645663Y-9273206D01*
X128619321Y-9274500D01*
X127656821Y-9274500D01*
X127630479Y-9273206D01*
X127604390Y-9269336D01*
X127578807Y-9262928D01*
X127553975Y-9254043D01*
X127530133Y-9242766D01*
X127507511Y-9229207D01*
X127486328Y-9213497D01*
X127466786Y-9195785D01*
X127449074Y-9176243D01*
X127433364Y-9155060D01*
X127419805Y-9132438D01*
X127408528Y-9108596D01*
X127399643Y-9083764D01*
X127393235Y-9058181D01*
X127389365Y-9032092D01*
X127388071Y-9005750D01*
X127388071Y-8468250D01*
X127389365Y-8441908D01*
X127393235Y-8415819D01*
X127399643Y-8390236D01*
X127408528Y-8365404D01*
X127419805Y-8341562D01*
X127433364Y-8318940D01*
X127449074Y-8297757D01*
X127466786Y-8278215D01*
X127486328Y-8260503D01*
X127507511Y-8244793D01*
X127530133Y-8231234D01*
X127553975Y-8219957D01*
X127578807Y-8211072D01*
X127604390Y-8204664D01*
X127630479Y-8200794D01*
X127656821Y-8199500D01*
X128619321Y-8199500D01*
X128645663Y-8200794D01*
X128645663Y-8200794D01*
G37*
D12*
X128138071Y-8737000D03*
%TD*%
D11*
%TO.C,R5*%
G36*
X131194734Y-10075794D02*
G01*
X131220823Y-10079664D01*
X131246406Y-10086072D01*
X131271238Y-10094957D01*
X131295080Y-10106234D01*
X131317702Y-10119793D01*
X131338885Y-10135503D01*
X131358427Y-10153215D01*
X131376139Y-10172757D01*
X131391849Y-10193940D01*
X131405408Y-10216562D01*
X131416685Y-10240404D01*
X131425570Y-10265236D01*
X131431978Y-10290819D01*
X131435848Y-10316908D01*
X131437142Y-10343250D01*
X131437142Y-10880750D01*
X131435848Y-10907092D01*
X131431978Y-10933181D01*
X131425570Y-10958764D01*
X131416685Y-10983596D01*
X131405408Y-11007438D01*
X131391849Y-11030060D01*
X131376139Y-11051243D01*
X131358427Y-11070785D01*
X131338885Y-11088497D01*
X131317702Y-11104207D01*
X131295080Y-11117766D01*
X131271238Y-11129043D01*
X131246406Y-11137928D01*
X131220823Y-11144336D01*
X131194734Y-11148206D01*
X131168392Y-11149500D01*
X130205892Y-11149500D01*
X130179550Y-11148206D01*
X130153461Y-11144336D01*
X130127878Y-11137928D01*
X130103046Y-11129043D01*
X130079204Y-11117766D01*
X130056582Y-11104207D01*
X130035399Y-11088497D01*
X130015857Y-11070785D01*
X129998145Y-11051243D01*
X129982435Y-11030060D01*
X129968876Y-11007438D01*
X129957599Y-10983596D01*
X129948714Y-10958764D01*
X129942306Y-10933181D01*
X129938436Y-10907092D01*
X129937142Y-10880750D01*
X129937142Y-10343250D01*
X129938436Y-10316908D01*
X129942306Y-10290819D01*
X129948714Y-10265236D01*
X129957599Y-10240404D01*
X129968876Y-10216562D01*
X129982435Y-10193940D01*
X129998145Y-10172757D01*
X130015857Y-10153215D01*
X130035399Y-10135503D01*
X130056582Y-10119793D01*
X130079204Y-10106234D01*
X130103046Y-10094957D01*
X130127878Y-10086072D01*
X130153461Y-10079664D01*
X130179550Y-10075794D01*
X130205892Y-10074500D01*
X131168392Y-10074500D01*
X131194734Y-10075794D01*
X131194734Y-10075794D01*
G37*
D12*
X130687142Y-10612000D03*
D11*
G36*
X131194734Y-8200794D02*
G01*
X131220823Y-8204664D01*
X131246406Y-8211072D01*
X131271238Y-8219957D01*
X131295080Y-8231234D01*
X131317702Y-8244793D01*
X131338885Y-8260503D01*
X131358427Y-8278215D01*
X131376139Y-8297757D01*
X131391849Y-8318940D01*
X131405408Y-8341562D01*
X131416685Y-8365404D01*
X131425570Y-8390236D01*
X131431978Y-8415819D01*
X131435848Y-8441908D01*
X131437142Y-8468250D01*
X131437142Y-9005750D01*
X131435848Y-9032092D01*
X131431978Y-9058181D01*
X131425570Y-9083764D01*
X131416685Y-9108596D01*
X131405408Y-9132438D01*
X131391849Y-9155060D01*
X131376139Y-9176243D01*
X131358427Y-9195785D01*
X131338885Y-9213497D01*
X131317702Y-9229207D01*
X131295080Y-9242766D01*
X131271238Y-9254043D01*
X131246406Y-9262928D01*
X131220823Y-9269336D01*
X131194734Y-9273206D01*
X131168392Y-9274500D01*
X130205892Y-9274500D01*
X130179550Y-9273206D01*
X130153461Y-9269336D01*
X130127878Y-9262928D01*
X130103046Y-9254043D01*
X130079204Y-9242766D01*
X130056582Y-9229207D01*
X130035399Y-9213497D01*
X130015857Y-9195785D01*
X129998145Y-9176243D01*
X129982435Y-9155060D01*
X129968876Y-9132438D01*
X129957599Y-9108596D01*
X129948714Y-9083764D01*
X129942306Y-9058181D01*
X129938436Y-9032092D01*
X129937142Y-9005750D01*
X129937142Y-8468250D01*
X129938436Y-8441908D01*
X129942306Y-8415819D01*
X129948714Y-8390236D01*
X129957599Y-8365404D01*
X129968876Y-8341562D01*
X129982435Y-8318940D01*
X129998145Y-8297757D01*
X130015857Y-8278215D01*
X130035399Y-8260503D01*
X130056582Y-8244793D01*
X130079204Y-8231234D01*
X130103046Y-8219957D01*
X130127878Y-8211072D01*
X130153461Y-8204664D01*
X130179550Y-8200794D01*
X130205892Y-8199500D01*
X131168392Y-8199500D01*
X131194734Y-8200794D01*
X131194734Y-8200794D01*
G37*
D12*
X130687142Y-8737000D03*
%TD*%
D11*
%TO.C,R4*%
G36*
X143940092Y-10075794D02*
G01*
X143966181Y-10079664D01*
X143991764Y-10086072D01*
X144016596Y-10094957D01*
X144040438Y-10106234D01*
X144063060Y-10119793D01*
X144084243Y-10135503D01*
X144103785Y-10153215D01*
X144121497Y-10172757D01*
X144137207Y-10193940D01*
X144150766Y-10216562D01*
X144162043Y-10240404D01*
X144170928Y-10265236D01*
X144177336Y-10290819D01*
X144181206Y-10316908D01*
X144182500Y-10343250D01*
X144182500Y-10880750D01*
X144181206Y-10907092D01*
X144177336Y-10933181D01*
X144170928Y-10958764D01*
X144162043Y-10983596D01*
X144150766Y-11007438D01*
X144137207Y-11030060D01*
X144121497Y-11051243D01*
X144103785Y-11070785D01*
X144084243Y-11088497D01*
X144063060Y-11104207D01*
X144040438Y-11117766D01*
X144016596Y-11129043D01*
X143991764Y-11137928D01*
X143966181Y-11144336D01*
X143940092Y-11148206D01*
X143913750Y-11149500D01*
X142951250Y-11149500D01*
X142924908Y-11148206D01*
X142898819Y-11144336D01*
X142873236Y-11137928D01*
X142848404Y-11129043D01*
X142824562Y-11117766D01*
X142801940Y-11104207D01*
X142780757Y-11088497D01*
X142761215Y-11070785D01*
X142743503Y-11051243D01*
X142727793Y-11030060D01*
X142714234Y-11007438D01*
X142702957Y-10983596D01*
X142694072Y-10958764D01*
X142687664Y-10933181D01*
X142683794Y-10907092D01*
X142682500Y-10880750D01*
X142682500Y-10343250D01*
X142683794Y-10316908D01*
X142687664Y-10290819D01*
X142694072Y-10265236D01*
X142702957Y-10240404D01*
X142714234Y-10216562D01*
X142727793Y-10193940D01*
X142743503Y-10172757D01*
X142761215Y-10153215D01*
X142780757Y-10135503D01*
X142801940Y-10119793D01*
X142824562Y-10106234D01*
X142848404Y-10094957D01*
X142873236Y-10086072D01*
X142898819Y-10079664D01*
X142924908Y-10075794D01*
X142951250Y-10074500D01*
X143913750Y-10074500D01*
X143940092Y-10075794D01*
X143940092Y-10075794D01*
G37*
D12*
X143432500Y-10612000D03*
D11*
G36*
X143940092Y-8200794D02*
G01*
X143966181Y-8204664D01*
X143991764Y-8211072D01*
X144016596Y-8219957D01*
X144040438Y-8231234D01*
X144063060Y-8244793D01*
X144084243Y-8260503D01*
X144103785Y-8278215D01*
X144121497Y-8297757D01*
X144137207Y-8318940D01*
X144150766Y-8341562D01*
X144162043Y-8365404D01*
X144170928Y-8390236D01*
X144177336Y-8415819D01*
X144181206Y-8441908D01*
X144182500Y-8468250D01*
X144182500Y-9005750D01*
X144181206Y-9032092D01*
X144177336Y-9058181D01*
X144170928Y-9083764D01*
X144162043Y-9108596D01*
X144150766Y-9132438D01*
X144137207Y-9155060D01*
X144121497Y-9176243D01*
X144103785Y-9195785D01*
X144084243Y-9213497D01*
X144063060Y-9229207D01*
X144040438Y-9242766D01*
X144016596Y-9254043D01*
X143991764Y-9262928D01*
X143966181Y-9269336D01*
X143940092Y-9273206D01*
X143913750Y-9274500D01*
X142951250Y-9274500D01*
X142924908Y-9273206D01*
X142898819Y-9269336D01*
X142873236Y-9262928D01*
X142848404Y-9254043D01*
X142824562Y-9242766D01*
X142801940Y-9229207D01*
X142780757Y-9213497D01*
X142761215Y-9195785D01*
X142743503Y-9176243D01*
X142727793Y-9155060D01*
X142714234Y-9132438D01*
X142702957Y-9108596D01*
X142694072Y-9083764D01*
X142687664Y-9058181D01*
X142683794Y-9032092D01*
X142682500Y-9005750D01*
X142682500Y-8468250D01*
X142683794Y-8441908D01*
X142687664Y-8415819D01*
X142694072Y-8390236D01*
X142702957Y-8365404D01*
X142714234Y-8341562D01*
X142727793Y-8318940D01*
X142743503Y-8297757D01*
X142761215Y-8278215D01*
X142780757Y-8260503D01*
X142801940Y-8244793D01*
X142824562Y-8231234D01*
X142848404Y-8219957D01*
X142873236Y-8211072D01*
X142898819Y-8204664D01*
X142924908Y-8200794D01*
X142951250Y-8199500D01*
X143913750Y-8199500D01*
X143940092Y-8200794D01*
X143940092Y-8200794D01*
G37*
D12*
X143432500Y-8737000D03*
%TD*%
D11*
%TO.C,R3*%
G36*
X133743805Y-10075794D02*
G01*
X133769894Y-10079664D01*
X133795477Y-10086072D01*
X133820309Y-10094957D01*
X133844151Y-10106234D01*
X133866773Y-10119793D01*
X133887956Y-10135503D01*
X133907498Y-10153215D01*
X133925210Y-10172757D01*
X133940920Y-10193940D01*
X133954479Y-10216562D01*
X133965756Y-10240404D01*
X133974641Y-10265236D01*
X133981049Y-10290819D01*
X133984919Y-10316908D01*
X133986213Y-10343250D01*
X133986213Y-10880750D01*
X133984919Y-10907092D01*
X133981049Y-10933181D01*
X133974641Y-10958764D01*
X133965756Y-10983596D01*
X133954479Y-11007438D01*
X133940920Y-11030060D01*
X133925210Y-11051243D01*
X133907498Y-11070785D01*
X133887956Y-11088497D01*
X133866773Y-11104207D01*
X133844151Y-11117766D01*
X133820309Y-11129043D01*
X133795477Y-11137928D01*
X133769894Y-11144336D01*
X133743805Y-11148206D01*
X133717463Y-11149500D01*
X132754963Y-11149500D01*
X132728621Y-11148206D01*
X132702532Y-11144336D01*
X132676949Y-11137928D01*
X132652117Y-11129043D01*
X132628275Y-11117766D01*
X132605653Y-11104207D01*
X132584470Y-11088497D01*
X132564928Y-11070785D01*
X132547216Y-11051243D01*
X132531506Y-11030060D01*
X132517947Y-11007438D01*
X132506670Y-10983596D01*
X132497785Y-10958764D01*
X132491377Y-10933181D01*
X132487507Y-10907092D01*
X132486213Y-10880750D01*
X132486213Y-10343250D01*
X132487507Y-10316908D01*
X132491377Y-10290819D01*
X132497785Y-10265236D01*
X132506670Y-10240404D01*
X132517947Y-10216562D01*
X132531506Y-10193940D01*
X132547216Y-10172757D01*
X132564928Y-10153215D01*
X132584470Y-10135503D01*
X132605653Y-10119793D01*
X132628275Y-10106234D01*
X132652117Y-10094957D01*
X132676949Y-10086072D01*
X132702532Y-10079664D01*
X132728621Y-10075794D01*
X132754963Y-10074500D01*
X133717463Y-10074500D01*
X133743805Y-10075794D01*
X133743805Y-10075794D01*
G37*
D12*
X133236213Y-10612000D03*
D11*
G36*
X133743805Y-8200794D02*
G01*
X133769894Y-8204664D01*
X133795477Y-8211072D01*
X133820309Y-8219957D01*
X133844151Y-8231234D01*
X133866773Y-8244793D01*
X133887956Y-8260503D01*
X133907498Y-8278215D01*
X133925210Y-8297757D01*
X133940920Y-8318940D01*
X133954479Y-8341562D01*
X133965756Y-8365404D01*
X133974641Y-8390236D01*
X133981049Y-8415819D01*
X133984919Y-8441908D01*
X133986213Y-8468250D01*
X133986213Y-9005750D01*
X133984919Y-9032092D01*
X133981049Y-9058181D01*
X133974641Y-9083764D01*
X133965756Y-9108596D01*
X133954479Y-9132438D01*
X133940920Y-9155060D01*
X133925210Y-9176243D01*
X133907498Y-9195785D01*
X133887956Y-9213497D01*
X133866773Y-9229207D01*
X133844151Y-9242766D01*
X133820309Y-9254043D01*
X133795477Y-9262928D01*
X133769894Y-9269336D01*
X133743805Y-9273206D01*
X133717463Y-9274500D01*
X132754963Y-9274500D01*
X132728621Y-9273206D01*
X132702532Y-9269336D01*
X132676949Y-9262928D01*
X132652117Y-9254043D01*
X132628275Y-9242766D01*
X132605653Y-9229207D01*
X132584470Y-9213497D01*
X132564928Y-9195785D01*
X132547216Y-9176243D01*
X132531506Y-9155060D01*
X132517947Y-9132438D01*
X132506670Y-9108596D01*
X132497785Y-9083764D01*
X132491377Y-9058181D01*
X132487507Y-9032092D01*
X132486213Y-9005750D01*
X132486213Y-8468250D01*
X132487507Y-8441908D01*
X132491377Y-8415819D01*
X132497785Y-8390236D01*
X132506670Y-8365404D01*
X132517947Y-8341562D01*
X132531506Y-8318940D01*
X132547216Y-8297757D01*
X132564928Y-8278215D01*
X132584470Y-8260503D01*
X132605653Y-8244793D01*
X132628275Y-8231234D01*
X132652117Y-8219957D01*
X132676949Y-8211072D01*
X132702532Y-8204664D01*
X132728621Y-8200794D01*
X132754963Y-8199500D01*
X133717463Y-8199500D01*
X133743805Y-8200794D01*
X133743805Y-8200794D01*
G37*
D12*
X133236213Y-8737000D03*
%TD*%
D11*
%TO.C,R2*%
G36*
X141391018Y-10075794D02*
G01*
X141417107Y-10079664D01*
X141442690Y-10086072D01*
X141467522Y-10094957D01*
X141491364Y-10106234D01*
X141513986Y-10119793D01*
X141535169Y-10135503D01*
X141554711Y-10153215D01*
X141572423Y-10172757D01*
X141588133Y-10193940D01*
X141601692Y-10216562D01*
X141612969Y-10240404D01*
X141621854Y-10265236D01*
X141628262Y-10290819D01*
X141632132Y-10316908D01*
X141633426Y-10343250D01*
X141633426Y-10880750D01*
X141632132Y-10907092D01*
X141628262Y-10933181D01*
X141621854Y-10958764D01*
X141612969Y-10983596D01*
X141601692Y-11007438D01*
X141588133Y-11030060D01*
X141572423Y-11051243D01*
X141554711Y-11070785D01*
X141535169Y-11088497D01*
X141513986Y-11104207D01*
X141491364Y-11117766D01*
X141467522Y-11129043D01*
X141442690Y-11137928D01*
X141417107Y-11144336D01*
X141391018Y-11148206D01*
X141364676Y-11149500D01*
X140402176Y-11149500D01*
X140375834Y-11148206D01*
X140349745Y-11144336D01*
X140324162Y-11137928D01*
X140299330Y-11129043D01*
X140275488Y-11117766D01*
X140252866Y-11104207D01*
X140231683Y-11088497D01*
X140212141Y-11070785D01*
X140194429Y-11051243D01*
X140178719Y-11030060D01*
X140165160Y-11007438D01*
X140153883Y-10983596D01*
X140144998Y-10958764D01*
X140138590Y-10933181D01*
X140134720Y-10907092D01*
X140133426Y-10880750D01*
X140133426Y-10343250D01*
X140134720Y-10316908D01*
X140138590Y-10290819D01*
X140144998Y-10265236D01*
X140153883Y-10240404D01*
X140165160Y-10216562D01*
X140178719Y-10193940D01*
X140194429Y-10172757D01*
X140212141Y-10153215D01*
X140231683Y-10135503D01*
X140252866Y-10119793D01*
X140275488Y-10106234D01*
X140299330Y-10094957D01*
X140324162Y-10086072D01*
X140349745Y-10079664D01*
X140375834Y-10075794D01*
X140402176Y-10074500D01*
X141364676Y-10074500D01*
X141391018Y-10075794D01*
X141391018Y-10075794D01*
G37*
D12*
X140883426Y-10612000D03*
D11*
G36*
X141391018Y-8200794D02*
G01*
X141417107Y-8204664D01*
X141442690Y-8211072D01*
X141467522Y-8219957D01*
X141491364Y-8231234D01*
X141513986Y-8244793D01*
X141535169Y-8260503D01*
X141554711Y-8278215D01*
X141572423Y-8297757D01*
X141588133Y-8318940D01*
X141601692Y-8341562D01*
X141612969Y-8365404D01*
X141621854Y-8390236D01*
X141628262Y-8415819D01*
X141632132Y-8441908D01*
X141633426Y-8468250D01*
X141633426Y-9005750D01*
X141632132Y-9032092D01*
X141628262Y-9058181D01*
X141621854Y-9083764D01*
X141612969Y-9108596D01*
X141601692Y-9132438D01*
X141588133Y-9155060D01*
X141572423Y-9176243D01*
X141554711Y-9195785D01*
X141535169Y-9213497D01*
X141513986Y-9229207D01*
X141491364Y-9242766D01*
X141467522Y-9254043D01*
X141442690Y-9262928D01*
X141417107Y-9269336D01*
X141391018Y-9273206D01*
X141364676Y-9274500D01*
X140402176Y-9274500D01*
X140375834Y-9273206D01*
X140349745Y-9269336D01*
X140324162Y-9262928D01*
X140299330Y-9254043D01*
X140275488Y-9242766D01*
X140252866Y-9229207D01*
X140231683Y-9213497D01*
X140212141Y-9195785D01*
X140194429Y-9176243D01*
X140178719Y-9155060D01*
X140165160Y-9132438D01*
X140153883Y-9108596D01*
X140144998Y-9083764D01*
X140138590Y-9058181D01*
X140134720Y-9032092D01*
X140133426Y-9005750D01*
X140133426Y-8468250D01*
X140134720Y-8441908D01*
X140138590Y-8415819D01*
X140144998Y-8390236D01*
X140153883Y-8365404D01*
X140165160Y-8341562D01*
X140178719Y-8318940D01*
X140194429Y-8297757D01*
X140212141Y-8278215D01*
X140231683Y-8260503D01*
X140252866Y-8244793D01*
X140275488Y-8231234D01*
X140299330Y-8219957D01*
X140324162Y-8211072D01*
X140349745Y-8204664D01*
X140375834Y-8200794D01*
X140402176Y-8199500D01*
X141364676Y-8199500D01*
X141391018Y-8200794D01*
X141391018Y-8200794D01*
G37*
D12*
X140883426Y-8737000D03*
%TD*%
D11*
%TO.C,R1*%
G36*
X126096592Y-10075794D02*
G01*
X126122681Y-10079664D01*
X126148264Y-10086072D01*
X126173096Y-10094957D01*
X126196938Y-10106234D01*
X126219560Y-10119793D01*
X126240743Y-10135503D01*
X126260285Y-10153215D01*
X126277997Y-10172757D01*
X126293707Y-10193940D01*
X126307266Y-10216562D01*
X126318543Y-10240404D01*
X126327428Y-10265236D01*
X126333836Y-10290819D01*
X126337706Y-10316908D01*
X126339000Y-10343250D01*
X126339000Y-10880750D01*
X126337706Y-10907092D01*
X126333836Y-10933181D01*
X126327428Y-10958764D01*
X126318543Y-10983596D01*
X126307266Y-11007438D01*
X126293707Y-11030060D01*
X126277997Y-11051243D01*
X126260285Y-11070785D01*
X126240743Y-11088497D01*
X126219560Y-11104207D01*
X126196938Y-11117766D01*
X126173096Y-11129043D01*
X126148264Y-11137928D01*
X126122681Y-11144336D01*
X126096592Y-11148206D01*
X126070250Y-11149500D01*
X125107750Y-11149500D01*
X125081408Y-11148206D01*
X125055319Y-11144336D01*
X125029736Y-11137928D01*
X125004904Y-11129043D01*
X124981062Y-11117766D01*
X124958440Y-11104207D01*
X124937257Y-11088497D01*
X124917715Y-11070785D01*
X124900003Y-11051243D01*
X124884293Y-11030060D01*
X124870734Y-11007438D01*
X124859457Y-10983596D01*
X124850572Y-10958764D01*
X124844164Y-10933181D01*
X124840294Y-10907092D01*
X124839000Y-10880750D01*
X124839000Y-10343250D01*
X124840294Y-10316908D01*
X124844164Y-10290819D01*
X124850572Y-10265236D01*
X124859457Y-10240404D01*
X124870734Y-10216562D01*
X124884293Y-10193940D01*
X124900003Y-10172757D01*
X124917715Y-10153215D01*
X124937257Y-10135503D01*
X124958440Y-10119793D01*
X124981062Y-10106234D01*
X125004904Y-10094957D01*
X125029736Y-10086072D01*
X125055319Y-10079664D01*
X125081408Y-10075794D01*
X125107750Y-10074500D01*
X126070250Y-10074500D01*
X126096592Y-10075794D01*
X126096592Y-10075794D01*
G37*
D12*
X125589000Y-10612000D03*
D11*
G36*
X126096592Y-8200794D02*
G01*
X126122681Y-8204664D01*
X126148264Y-8211072D01*
X126173096Y-8219957D01*
X126196938Y-8231234D01*
X126219560Y-8244793D01*
X126240743Y-8260503D01*
X126260285Y-8278215D01*
X126277997Y-8297757D01*
X126293707Y-8318940D01*
X126307266Y-8341562D01*
X126318543Y-8365404D01*
X126327428Y-8390236D01*
X126333836Y-8415819D01*
X126337706Y-8441908D01*
X126339000Y-8468250D01*
X126339000Y-9005750D01*
X126337706Y-9032092D01*
X126333836Y-9058181D01*
X126327428Y-9083764D01*
X126318543Y-9108596D01*
X126307266Y-9132438D01*
X126293707Y-9155060D01*
X126277997Y-9176243D01*
X126260285Y-9195785D01*
X126240743Y-9213497D01*
X126219560Y-9229207D01*
X126196938Y-9242766D01*
X126173096Y-9254043D01*
X126148264Y-9262928D01*
X126122681Y-9269336D01*
X126096592Y-9273206D01*
X126070250Y-9274500D01*
X125107750Y-9274500D01*
X125081408Y-9273206D01*
X125055319Y-9269336D01*
X125029736Y-9262928D01*
X125004904Y-9254043D01*
X124981062Y-9242766D01*
X124958440Y-9229207D01*
X124937257Y-9213497D01*
X124917715Y-9195785D01*
X124900003Y-9176243D01*
X124884293Y-9155060D01*
X124870734Y-9132438D01*
X124859457Y-9108596D01*
X124850572Y-9083764D01*
X124844164Y-9058181D01*
X124840294Y-9032092D01*
X124839000Y-9005750D01*
X124839000Y-8468250D01*
X124840294Y-8441908D01*
X124844164Y-8415819D01*
X124850572Y-8390236D01*
X124859457Y-8365404D01*
X124870734Y-8341562D01*
X124884293Y-8318940D01*
X124900003Y-8297757D01*
X124917715Y-8278215D01*
X124937257Y-8260503D01*
X124958440Y-8244793D01*
X124981062Y-8231234D01*
X125004904Y-8219957D01*
X125029736Y-8211072D01*
X125055319Y-8204664D01*
X125081408Y-8200794D01*
X125107750Y-8199500D01*
X126070250Y-8199500D01*
X126096592Y-8200794D01*
X126096592Y-8200794D01*
G37*
D12*
X125589000Y-8737000D03*
%TD*%
D13*
%TO.C,J4*%
X89281600Y-36250000D03*
X136321600Y-36250000D03*
D14*
X97566600Y-37670000D03*
X100336600Y-37670000D03*
X103106600Y-37670000D03*
X105876600Y-37670000D03*
X108646600Y-37670000D03*
X111416600Y-37670000D03*
X114186600Y-37670000D03*
X116956600Y-37670000D03*
X119726600Y-37670000D03*
X122496600Y-37670000D03*
X125266600Y-37670000D03*
X128036600Y-37670000D03*
X96181600Y-34830000D03*
X98951600Y-34830000D03*
X101721600Y-34830000D03*
X104491600Y-34830000D03*
X107261600Y-34830000D03*
X110031600Y-34830000D03*
X112801600Y-34830000D03*
X115571600Y-34830000D03*
X118341600Y-34830000D03*
X121111600Y-34830000D03*
X123881600Y-34830000D03*
X126651600Y-34830000D03*
X129421600Y-34830000D03*
%TD*%
D11*
%TO.C,D19*%
G36*
X97871214Y-1465294D02*
G01*
X97897303Y-1469164D01*
X97922886Y-1475572D01*
X97947718Y-1484457D01*
X97971560Y-1495734D01*
X97994182Y-1509293D01*
X98015365Y-1525003D01*
X98034907Y-1542715D01*
X98052619Y-1562257D01*
X98068329Y-1583440D01*
X98081888Y-1606062D01*
X98093165Y-1629904D01*
X98102050Y-1654736D01*
X98108458Y-1680319D01*
X98112328Y-1706408D01*
X98113622Y-1732750D01*
X98113622Y-2270250D01*
X98112328Y-2296592D01*
X98108458Y-2322681D01*
X98102050Y-2348264D01*
X98093165Y-2373096D01*
X98081888Y-2396938D01*
X98068329Y-2419560D01*
X98052619Y-2440743D01*
X98034907Y-2460285D01*
X98015365Y-2477997D01*
X97994182Y-2493707D01*
X97971560Y-2507266D01*
X97947718Y-2518543D01*
X97922886Y-2527428D01*
X97897303Y-2533836D01*
X97871214Y-2537706D01*
X97844872Y-2539000D01*
X96882372Y-2539000D01*
X96856030Y-2537706D01*
X96829941Y-2533836D01*
X96804358Y-2527428D01*
X96779526Y-2518543D01*
X96755684Y-2507266D01*
X96733062Y-2493707D01*
X96711879Y-2477997D01*
X96692337Y-2460285D01*
X96674625Y-2440743D01*
X96658915Y-2419560D01*
X96645356Y-2396938D01*
X96634079Y-2373096D01*
X96625194Y-2348264D01*
X96618786Y-2322681D01*
X96614916Y-2296592D01*
X96613622Y-2270250D01*
X96613622Y-1732750D01*
X96614916Y-1706408D01*
X96618786Y-1680319D01*
X96625194Y-1654736D01*
X96634079Y-1629904D01*
X96645356Y-1606062D01*
X96658915Y-1583440D01*
X96674625Y-1562257D01*
X96692337Y-1542715D01*
X96711879Y-1525003D01*
X96733062Y-1509293D01*
X96755684Y-1495734D01*
X96779526Y-1484457D01*
X96804358Y-1475572D01*
X96829941Y-1469164D01*
X96856030Y-1465294D01*
X96882372Y-1464000D01*
X97844872Y-1464000D01*
X97871214Y-1465294D01*
X97871214Y-1465294D01*
G37*
D12*
X97363622Y-2001500D03*
D11*
G36*
X97871214Y-3340294D02*
G01*
X97897303Y-3344164D01*
X97922886Y-3350572D01*
X97947718Y-3359457D01*
X97971560Y-3370734D01*
X97994182Y-3384293D01*
X98015365Y-3400003D01*
X98034907Y-3417715D01*
X98052619Y-3437257D01*
X98068329Y-3458440D01*
X98081888Y-3481062D01*
X98093165Y-3504904D01*
X98102050Y-3529736D01*
X98108458Y-3555319D01*
X98112328Y-3581408D01*
X98113622Y-3607750D01*
X98113622Y-4145250D01*
X98112328Y-4171592D01*
X98108458Y-4197681D01*
X98102050Y-4223264D01*
X98093165Y-4248096D01*
X98081888Y-4271938D01*
X98068329Y-4294560D01*
X98052619Y-4315743D01*
X98034907Y-4335285D01*
X98015365Y-4352997D01*
X97994182Y-4368707D01*
X97971560Y-4382266D01*
X97947718Y-4393543D01*
X97922886Y-4402428D01*
X97897303Y-4408836D01*
X97871214Y-4412706D01*
X97844872Y-4414000D01*
X96882372Y-4414000D01*
X96856030Y-4412706D01*
X96829941Y-4408836D01*
X96804358Y-4402428D01*
X96779526Y-4393543D01*
X96755684Y-4382266D01*
X96733062Y-4368707D01*
X96711879Y-4352997D01*
X96692337Y-4335285D01*
X96674625Y-4315743D01*
X96658915Y-4294560D01*
X96645356Y-4271938D01*
X96634079Y-4248096D01*
X96625194Y-4223264D01*
X96618786Y-4197681D01*
X96614916Y-4171592D01*
X96613622Y-4145250D01*
X96613622Y-3607750D01*
X96614916Y-3581408D01*
X96618786Y-3555319D01*
X96625194Y-3529736D01*
X96634079Y-3504904D01*
X96645356Y-3481062D01*
X96658915Y-3458440D01*
X96674625Y-3437257D01*
X96692337Y-3417715D01*
X96711879Y-3400003D01*
X96733062Y-3384293D01*
X96755684Y-3370734D01*
X96779526Y-3359457D01*
X96804358Y-3350572D01*
X96829941Y-3344164D01*
X96856030Y-3340294D01*
X96882372Y-3339000D01*
X97844872Y-3339000D01*
X97871214Y-3340294D01*
X97871214Y-3340294D01*
G37*
D12*
X97363622Y-3876500D03*
%TD*%
D11*
%TO.C,D18*%
G36*
X95355027Y-1465294D02*
G01*
X95381116Y-1469164D01*
X95406699Y-1475572D01*
X95431531Y-1484457D01*
X95455373Y-1495734D01*
X95477995Y-1509293D01*
X95499178Y-1525003D01*
X95518720Y-1542715D01*
X95536432Y-1562257D01*
X95552142Y-1583440D01*
X95565701Y-1606062D01*
X95576978Y-1629904D01*
X95585863Y-1654736D01*
X95592271Y-1680319D01*
X95596141Y-1706408D01*
X95597435Y-1732750D01*
X95597435Y-2270250D01*
X95596141Y-2296592D01*
X95592271Y-2322681D01*
X95585863Y-2348264D01*
X95576978Y-2373096D01*
X95565701Y-2396938D01*
X95552142Y-2419560D01*
X95536432Y-2440743D01*
X95518720Y-2460285D01*
X95499178Y-2477997D01*
X95477995Y-2493707D01*
X95455373Y-2507266D01*
X95431531Y-2518543D01*
X95406699Y-2527428D01*
X95381116Y-2533836D01*
X95355027Y-2537706D01*
X95328685Y-2539000D01*
X94366185Y-2539000D01*
X94339843Y-2537706D01*
X94313754Y-2533836D01*
X94288171Y-2527428D01*
X94263339Y-2518543D01*
X94239497Y-2507266D01*
X94216875Y-2493707D01*
X94195692Y-2477997D01*
X94176150Y-2460285D01*
X94158438Y-2440743D01*
X94142728Y-2419560D01*
X94129169Y-2396938D01*
X94117892Y-2373096D01*
X94109007Y-2348264D01*
X94102599Y-2322681D01*
X94098729Y-2296592D01*
X94097435Y-2270250D01*
X94097435Y-1732750D01*
X94098729Y-1706408D01*
X94102599Y-1680319D01*
X94109007Y-1654736D01*
X94117892Y-1629904D01*
X94129169Y-1606062D01*
X94142728Y-1583440D01*
X94158438Y-1562257D01*
X94176150Y-1542715D01*
X94195692Y-1525003D01*
X94216875Y-1509293D01*
X94239497Y-1495734D01*
X94263339Y-1484457D01*
X94288171Y-1475572D01*
X94313754Y-1469164D01*
X94339843Y-1465294D01*
X94366185Y-1464000D01*
X95328685Y-1464000D01*
X95355027Y-1465294D01*
X95355027Y-1465294D01*
G37*
D12*
X94847435Y-2001500D03*
D11*
G36*
X95355027Y-3340294D02*
G01*
X95381116Y-3344164D01*
X95406699Y-3350572D01*
X95431531Y-3359457D01*
X95455373Y-3370734D01*
X95477995Y-3384293D01*
X95499178Y-3400003D01*
X95518720Y-3417715D01*
X95536432Y-3437257D01*
X95552142Y-3458440D01*
X95565701Y-3481062D01*
X95576978Y-3504904D01*
X95585863Y-3529736D01*
X95592271Y-3555319D01*
X95596141Y-3581408D01*
X95597435Y-3607750D01*
X95597435Y-4145250D01*
X95596141Y-4171592D01*
X95592271Y-4197681D01*
X95585863Y-4223264D01*
X95576978Y-4248096D01*
X95565701Y-4271938D01*
X95552142Y-4294560D01*
X95536432Y-4315743D01*
X95518720Y-4335285D01*
X95499178Y-4352997D01*
X95477995Y-4368707D01*
X95455373Y-4382266D01*
X95431531Y-4393543D01*
X95406699Y-4402428D01*
X95381116Y-4408836D01*
X95355027Y-4412706D01*
X95328685Y-4414000D01*
X94366185Y-4414000D01*
X94339843Y-4412706D01*
X94313754Y-4408836D01*
X94288171Y-4402428D01*
X94263339Y-4393543D01*
X94239497Y-4382266D01*
X94216875Y-4368707D01*
X94195692Y-4352997D01*
X94176150Y-4335285D01*
X94158438Y-4315743D01*
X94142728Y-4294560D01*
X94129169Y-4271938D01*
X94117892Y-4248096D01*
X94109007Y-4223264D01*
X94102599Y-4197681D01*
X94098729Y-4171592D01*
X94097435Y-4145250D01*
X94097435Y-3607750D01*
X94098729Y-3581408D01*
X94102599Y-3555319D01*
X94109007Y-3529736D01*
X94117892Y-3504904D01*
X94129169Y-3481062D01*
X94142728Y-3458440D01*
X94158438Y-3437257D01*
X94176150Y-3417715D01*
X94195692Y-3400003D01*
X94216875Y-3384293D01*
X94239497Y-3370734D01*
X94263339Y-3359457D01*
X94288171Y-3350572D01*
X94313754Y-3344164D01*
X94339843Y-3340294D01*
X94366185Y-3339000D01*
X95328685Y-3339000D01*
X95355027Y-3340294D01*
X95355027Y-3340294D01*
G37*
D12*
X94847435Y-3876500D03*
%TD*%
D11*
%TO.C,D17*%
G36*
X113396592Y-1465294D02*
G01*
X113422681Y-1469164D01*
X113448264Y-1475572D01*
X113473096Y-1484457D01*
X113496938Y-1495734D01*
X113519560Y-1509293D01*
X113540743Y-1525003D01*
X113560285Y-1542715D01*
X113577997Y-1562257D01*
X113593707Y-1583440D01*
X113607266Y-1606062D01*
X113618543Y-1629904D01*
X113627428Y-1654736D01*
X113633836Y-1680319D01*
X113637706Y-1706408D01*
X113639000Y-1732750D01*
X113639000Y-2270250D01*
X113637706Y-2296592D01*
X113633836Y-2322681D01*
X113627428Y-2348264D01*
X113618543Y-2373096D01*
X113607266Y-2396938D01*
X113593707Y-2419560D01*
X113577997Y-2440743D01*
X113560285Y-2460285D01*
X113540743Y-2477997D01*
X113519560Y-2493707D01*
X113496938Y-2507266D01*
X113473096Y-2518543D01*
X113448264Y-2527428D01*
X113422681Y-2533836D01*
X113396592Y-2537706D01*
X113370250Y-2539000D01*
X112407750Y-2539000D01*
X112381408Y-2537706D01*
X112355319Y-2533836D01*
X112329736Y-2527428D01*
X112304904Y-2518543D01*
X112281062Y-2507266D01*
X112258440Y-2493707D01*
X112237257Y-2477997D01*
X112217715Y-2460285D01*
X112200003Y-2440743D01*
X112184293Y-2419560D01*
X112170734Y-2396938D01*
X112159457Y-2373096D01*
X112150572Y-2348264D01*
X112144164Y-2322681D01*
X112140294Y-2296592D01*
X112139000Y-2270250D01*
X112139000Y-1732750D01*
X112140294Y-1706408D01*
X112144164Y-1680319D01*
X112150572Y-1654736D01*
X112159457Y-1629904D01*
X112170734Y-1606062D01*
X112184293Y-1583440D01*
X112200003Y-1562257D01*
X112217715Y-1542715D01*
X112237257Y-1525003D01*
X112258440Y-1509293D01*
X112281062Y-1495734D01*
X112304904Y-1484457D01*
X112329736Y-1475572D01*
X112355319Y-1469164D01*
X112381408Y-1465294D01*
X112407750Y-1464000D01*
X113370250Y-1464000D01*
X113396592Y-1465294D01*
X113396592Y-1465294D01*
G37*
D12*
X112889000Y-2001500D03*
D11*
G36*
X113396592Y-3340294D02*
G01*
X113422681Y-3344164D01*
X113448264Y-3350572D01*
X113473096Y-3359457D01*
X113496938Y-3370734D01*
X113519560Y-3384293D01*
X113540743Y-3400003D01*
X113560285Y-3417715D01*
X113577997Y-3437257D01*
X113593707Y-3458440D01*
X113607266Y-3481062D01*
X113618543Y-3504904D01*
X113627428Y-3529736D01*
X113633836Y-3555319D01*
X113637706Y-3581408D01*
X113639000Y-3607750D01*
X113639000Y-4145250D01*
X113637706Y-4171592D01*
X113633836Y-4197681D01*
X113627428Y-4223264D01*
X113618543Y-4248096D01*
X113607266Y-4271938D01*
X113593707Y-4294560D01*
X113577997Y-4315743D01*
X113560285Y-4335285D01*
X113540743Y-4352997D01*
X113519560Y-4368707D01*
X113496938Y-4382266D01*
X113473096Y-4393543D01*
X113448264Y-4402428D01*
X113422681Y-4408836D01*
X113396592Y-4412706D01*
X113370250Y-4414000D01*
X112407750Y-4414000D01*
X112381408Y-4412706D01*
X112355319Y-4408836D01*
X112329736Y-4402428D01*
X112304904Y-4393543D01*
X112281062Y-4382266D01*
X112258440Y-4368707D01*
X112237257Y-4352997D01*
X112217715Y-4335285D01*
X112200003Y-4315743D01*
X112184293Y-4294560D01*
X112170734Y-4271938D01*
X112159457Y-4248096D01*
X112150572Y-4223264D01*
X112144164Y-4197681D01*
X112140294Y-4171592D01*
X112139000Y-4145250D01*
X112139000Y-3607750D01*
X112140294Y-3581408D01*
X112144164Y-3555319D01*
X112150572Y-3529736D01*
X112159457Y-3504904D01*
X112170734Y-3481062D01*
X112184293Y-3458440D01*
X112200003Y-3437257D01*
X112217715Y-3417715D01*
X112237257Y-3400003D01*
X112258440Y-3384293D01*
X112281062Y-3370734D01*
X112304904Y-3359457D01*
X112329736Y-3350572D01*
X112355319Y-3344164D01*
X112381408Y-3340294D01*
X112407750Y-3339000D01*
X113370250Y-3339000D01*
X113396592Y-3340294D01*
X113396592Y-3340294D01*
G37*
D12*
X112889000Y-3876500D03*
%TD*%
D11*
%TO.C,D16*%
G36*
X92838840Y-1465294D02*
G01*
X92864929Y-1469164D01*
X92890512Y-1475572D01*
X92915344Y-1484457D01*
X92939186Y-1495734D01*
X92961808Y-1509293D01*
X92982991Y-1525003D01*
X93002533Y-1542715D01*
X93020245Y-1562257D01*
X93035955Y-1583440D01*
X93049514Y-1606062D01*
X93060791Y-1629904D01*
X93069676Y-1654736D01*
X93076084Y-1680319D01*
X93079954Y-1706408D01*
X93081248Y-1732750D01*
X93081248Y-2270250D01*
X93079954Y-2296592D01*
X93076084Y-2322681D01*
X93069676Y-2348264D01*
X93060791Y-2373096D01*
X93049514Y-2396938D01*
X93035955Y-2419560D01*
X93020245Y-2440743D01*
X93002533Y-2460285D01*
X92982991Y-2477997D01*
X92961808Y-2493707D01*
X92939186Y-2507266D01*
X92915344Y-2518543D01*
X92890512Y-2527428D01*
X92864929Y-2533836D01*
X92838840Y-2537706D01*
X92812498Y-2539000D01*
X91849998Y-2539000D01*
X91823656Y-2537706D01*
X91797567Y-2533836D01*
X91771984Y-2527428D01*
X91747152Y-2518543D01*
X91723310Y-2507266D01*
X91700688Y-2493707D01*
X91679505Y-2477997D01*
X91659963Y-2460285D01*
X91642251Y-2440743D01*
X91626541Y-2419560D01*
X91612982Y-2396938D01*
X91601705Y-2373096D01*
X91592820Y-2348264D01*
X91586412Y-2322681D01*
X91582542Y-2296592D01*
X91581248Y-2270250D01*
X91581248Y-1732750D01*
X91582542Y-1706408D01*
X91586412Y-1680319D01*
X91592820Y-1654736D01*
X91601705Y-1629904D01*
X91612982Y-1606062D01*
X91626541Y-1583440D01*
X91642251Y-1562257D01*
X91659963Y-1542715D01*
X91679505Y-1525003D01*
X91700688Y-1509293D01*
X91723310Y-1495734D01*
X91747152Y-1484457D01*
X91771984Y-1475572D01*
X91797567Y-1469164D01*
X91823656Y-1465294D01*
X91849998Y-1464000D01*
X92812498Y-1464000D01*
X92838840Y-1465294D01*
X92838840Y-1465294D01*
G37*
D12*
X92331248Y-2001500D03*
D11*
G36*
X92838840Y-3340294D02*
G01*
X92864929Y-3344164D01*
X92890512Y-3350572D01*
X92915344Y-3359457D01*
X92939186Y-3370734D01*
X92961808Y-3384293D01*
X92982991Y-3400003D01*
X93002533Y-3417715D01*
X93020245Y-3437257D01*
X93035955Y-3458440D01*
X93049514Y-3481062D01*
X93060791Y-3504904D01*
X93069676Y-3529736D01*
X93076084Y-3555319D01*
X93079954Y-3581408D01*
X93081248Y-3607750D01*
X93081248Y-4145250D01*
X93079954Y-4171592D01*
X93076084Y-4197681D01*
X93069676Y-4223264D01*
X93060791Y-4248096D01*
X93049514Y-4271938D01*
X93035955Y-4294560D01*
X93020245Y-4315743D01*
X93002533Y-4335285D01*
X92982991Y-4352997D01*
X92961808Y-4368707D01*
X92939186Y-4382266D01*
X92915344Y-4393543D01*
X92890512Y-4402428D01*
X92864929Y-4408836D01*
X92838840Y-4412706D01*
X92812498Y-4414000D01*
X91849998Y-4414000D01*
X91823656Y-4412706D01*
X91797567Y-4408836D01*
X91771984Y-4402428D01*
X91747152Y-4393543D01*
X91723310Y-4382266D01*
X91700688Y-4368707D01*
X91679505Y-4352997D01*
X91659963Y-4335285D01*
X91642251Y-4315743D01*
X91626541Y-4294560D01*
X91612982Y-4271938D01*
X91601705Y-4248096D01*
X91592820Y-4223264D01*
X91586412Y-4197681D01*
X91582542Y-4171592D01*
X91581248Y-4145250D01*
X91581248Y-3607750D01*
X91582542Y-3581408D01*
X91586412Y-3555319D01*
X91592820Y-3529736D01*
X91601705Y-3504904D01*
X91612982Y-3481062D01*
X91626541Y-3458440D01*
X91642251Y-3437257D01*
X91659963Y-3417715D01*
X91679505Y-3400003D01*
X91700688Y-3384293D01*
X91723310Y-3370734D01*
X91747152Y-3359457D01*
X91771984Y-3350572D01*
X91797567Y-3344164D01*
X91823656Y-3340294D01*
X91849998Y-3339000D01*
X92812498Y-3339000D01*
X92838840Y-3340294D01*
X92838840Y-3340294D01*
G37*
D12*
X92331248Y-3876500D03*
%TD*%
D11*
%TO.C,D15*%
G36*
X87806466Y-1465294D02*
G01*
X87832555Y-1469164D01*
X87858138Y-1475572D01*
X87882970Y-1484457D01*
X87906812Y-1495734D01*
X87929434Y-1509293D01*
X87950617Y-1525003D01*
X87970159Y-1542715D01*
X87987871Y-1562257D01*
X88003581Y-1583440D01*
X88017140Y-1606062D01*
X88028417Y-1629904D01*
X88037302Y-1654736D01*
X88043710Y-1680319D01*
X88047580Y-1706408D01*
X88048874Y-1732750D01*
X88048874Y-2270250D01*
X88047580Y-2296592D01*
X88043710Y-2322681D01*
X88037302Y-2348264D01*
X88028417Y-2373096D01*
X88017140Y-2396938D01*
X88003581Y-2419560D01*
X87987871Y-2440743D01*
X87970159Y-2460285D01*
X87950617Y-2477997D01*
X87929434Y-2493707D01*
X87906812Y-2507266D01*
X87882970Y-2518543D01*
X87858138Y-2527428D01*
X87832555Y-2533836D01*
X87806466Y-2537706D01*
X87780124Y-2539000D01*
X86817624Y-2539000D01*
X86791282Y-2537706D01*
X86765193Y-2533836D01*
X86739610Y-2527428D01*
X86714778Y-2518543D01*
X86690936Y-2507266D01*
X86668314Y-2493707D01*
X86647131Y-2477997D01*
X86627589Y-2460285D01*
X86609877Y-2440743D01*
X86594167Y-2419560D01*
X86580608Y-2396938D01*
X86569331Y-2373096D01*
X86560446Y-2348264D01*
X86554038Y-2322681D01*
X86550168Y-2296592D01*
X86548874Y-2270250D01*
X86548874Y-1732750D01*
X86550168Y-1706408D01*
X86554038Y-1680319D01*
X86560446Y-1654736D01*
X86569331Y-1629904D01*
X86580608Y-1606062D01*
X86594167Y-1583440D01*
X86609877Y-1562257D01*
X86627589Y-1542715D01*
X86647131Y-1525003D01*
X86668314Y-1509293D01*
X86690936Y-1495734D01*
X86714778Y-1484457D01*
X86739610Y-1475572D01*
X86765193Y-1469164D01*
X86791282Y-1465294D01*
X86817624Y-1464000D01*
X87780124Y-1464000D01*
X87806466Y-1465294D01*
X87806466Y-1465294D01*
G37*
D12*
X87298874Y-2001500D03*
D11*
G36*
X87806466Y-3340294D02*
G01*
X87832555Y-3344164D01*
X87858138Y-3350572D01*
X87882970Y-3359457D01*
X87906812Y-3370734D01*
X87929434Y-3384293D01*
X87950617Y-3400003D01*
X87970159Y-3417715D01*
X87987871Y-3437257D01*
X88003581Y-3458440D01*
X88017140Y-3481062D01*
X88028417Y-3504904D01*
X88037302Y-3529736D01*
X88043710Y-3555319D01*
X88047580Y-3581408D01*
X88048874Y-3607750D01*
X88048874Y-4145250D01*
X88047580Y-4171592D01*
X88043710Y-4197681D01*
X88037302Y-4223264D01*
X88028417Y-4248096D01*
X88017140Y-4271938D01*
X88003581Y-4294560D01*
X87987871Y-4315743D01*
X87970159Y-4335285D01*
X87950617Y-4352997D01*
X87929434Y-4368707D01*
X87906812Y-4382266D01*
X87882970Y-4393543D01*
X87858138Y-4402428D01*
X87832555Y-4408836D01*
X87806466Y-4412706D01*
X87780124Y-4414000D01*
X86817624Y-4414000D01*
X86791282Y-4412706D01*
X86765193Y-4408836D01*
X86739610Y-4402428D01*
X86714778Y-4393543D01*
X86690936Y-4382266D01*
X86668314Y-4368707D01*
X86647131Y-4352997D01*
X86627589Y-4335285D01*
X86609877Y-4315743D01*
X86594167Y-4294560D01*
X86580608Y-4271938D01*
X86569331Y-4248096D01*
X86560446Y-4223264D01*
X86554038Y-4197681D01*
X86550168Y-4171592D01*
X86548874Y-4145250D01*
X86548874Y-3607750D01*
X86550168Y-3581408D01*
X86554038Y-3555319D01*
X86560446Y-3529736D01*
X86569331Y-3504904D01*
X86580608Y-3481062D01*
X86594167Y-3458440D01*
X86609877Y-3437257D01*
X86627589Y-3417715D01*
X86647131Y-3400003D01*
X86668314Y-3384293D01*
X86690936Y-3370734D01*
X86714778Y-3359457D01*
X86739610Y-3350572D01*
X86765193Y-3344164D01*
X86791282Y-3340294D01*
X86817624Y-3339000D01*
X87780124Y-3339000D01*
X87806466Y-3340294D01*
X87806466Y-3340294D01*
G37*
D12*
X87298874Y-3876500D03*
%TD*%
D11*
%TO.C,D14*%
G36*
X102903588Y-1465294D02*
G01*
X102929677Y-1469164D01*
X102955260Y-1475572D01*
X102980092Y-1484457D01*
X103003934Y-1495734D01*
X103026556Y-1509293D01*
X103047739Y-1525003D01*
X103067281Y-1542715D01*
X103084993Y-1562257D01*
X103100703Y-1583440D01*
X103114262Y-1606062D01*
X103125539Y-1629904D01*
X103134424Y-1654736D01*
X103140832Y-1680319D01*
X103144702Y-1706408D01*
X103145996Y-1732750D01*
X103145996Y-2270250D01*
X103144702Y-2296592D01*
X103140832Y-2322681D01*
X103134424Y-2348264D01*
X103125539Y-2373096D01*
X103114262Y-2396938D01*
X103100703Y-2419560D01*
X103084993Y-2440743D01*
X103067281Y-2460285D01*
X103047739Y-2477997D01*
X103026556Y-2493707D01*
X103003934Y-2507266D01*
X102980092Y-2518543D01*
X102955260Y-2527428D01*
X102929677Y-2533836D01*
X102903588Y-2537706D01*
X102877246Y-2539000D01*
X101914746Y-2539000D01*
X101888404Y-2537706D01*
X101862315Y-2533836D01*
X101836732Y-2527428D01*
X101811900Y-2518543D01*
X101788058Y-2507266D01*
X101765436Y-2493707D01*
X101744253Y-2477997D01*
X101724711Y-2460285D01*
X101706999Y-2440743D01*
X101691289Y-2419560D01*
X101677730Y-2396938D01*
X101666453Y-2373096D01*
X101657568Y-2348264D01*
X101651160Y-2322681D01*
X101647290Y-2296592D01*
X101645996Y-2270250D01*
X101645996Y-1732750D01*
X101647290Y-1706408D01*
X101651160Y-1680319D01*
X101657568Y-1654736D01*
X101666453Y-1629904D01*
X101677730Y-1606062D01*
X101691289Y-1583440D01*
X101706999Y-1562257D01*
X101724711Y-1542715D01*
X101744253Y-1525003D01*
X101765436Y-1509293D01*
X101788058Y-1495734D01*
X101811900Y-1484457D01*
X101836732Y-1475572D01*
X101862315Y-1469164D01*
X101888404Y-1465294D01*
X101914746Y-1464000D01*
X102877246Y-1464000D01*
X102903588Y-1465294D01*
X102903588Y-1465294D01*
G37*
D12*
X102395996Y-2001500D03*
D11*
G36*
X102903588Y-3340294D02*
G01*
X102929677Y-3344164D01*
X102955260Y-3350572D01*
X102980092Y-3359457D01*
X103003934Y-3370734D01*
X103026556Y-3384293D01*
X103047739Y-3400003D01*
X103067281Y-3417715D01*
X103084993Y-3437257D01*
X103100703Y-3458440D01*
X103114262Y-3481062D01*
X103125539Y-3504904D01*
X103134424Y-3529736D01*
X103140832Y-3555319D01*
X103144702Y-3581408D01*
X103145996Y-3607750D01*
X103145996Y-4145250D01*
X103144702Y-4171592D01*
X103140832Y-4197681D01*
X103134424Y-4223264D01*
X103125539Y-4248096D01*
X103114262Y-4271938D01*
X103100703Y-4294560D01*
X103084993Y-4315743D01*
X103067281Y-4335285D01*
X103047739Y-4352997D01*
X103026556Y-4368707D01*
X103003934Y-4382266D01*
X102980092Y-4393543D01*
X102955260Y-4402428D01*
X102929677Y-4408836D01*
X102903588Y-4412706D01*
X102877246Y-4414000D01*
X101914746Y-4414000D01*
X101888404Y-4412706D01*
X101862315Y-4408836D01*
X101836732Y-4402428D01*
X101811900Y-4393543D01*
X101788058Y-4382266D01*
X101765436Y-4368707D01*
X101744253Y-4352997D01*
X101724711Y-4335285D01*
X101706999Y-4315743D01*
X101691289Y-4294560D01*
X101677730Y-4271938D01*
X101666453Y-4248096D01*
X101657568Y-4223264D01*
X101651160Y-4197681D01*
X101647290Y-4171592D01*
X101645996Y-4145250D01*
X101645996Y-3607750D01*
X101647290Y-3581408D01*
X101651160Y-3555319D01*
X101657568Y-3529736D01*
X101666453Y-3504904D01*
X101677730Y-3481062D01*
X101691289Y-3458440D01*
X101706999Y-3437257D01*
X101724711Y-3417715D01*
X101744253Y-3400003D01*
X101765436Y-3384293D01*
X101788058Y-3370734D01*
X101811900Y-3359457D01*
X101836732Y-3350572D01*
X101862315Y-3344164D01*
X101888404Y-3340294D01*
X101914746Y-3339000D01*
X102877246Y-3339000D01*
X102903588Y-3340294D01*
X102903588Y-3340294D01*
G37*
D12*
X102395996Y-3876500D03*
%TD*%
D11*
%TO.C,D13*%
G36*
X136292876Y-1465294D02*
G01*
X136318965Y-1469164D01*
X136344548Y-1475572D01*
X136369380Y-1484457D01*
X136393222Y-1495734D01*
X136415844Y-1509293D01*
X136437027Y-1525003D01*
X136456569Y-1542715D01*
X136474281Y-1562257D01*
X136489991Y-1583440D01*
X136503550Y-1606062D01*
X136514827Y-1629904D01*
X136523712Y-1654736D01*
X136530120Y-1680319D01*
X136533990Y-1706408D01*
X136535284Y-1732750D01*
X136535284Y-2270250D01*
X136533990Y-2296592D01*
X136530120Y-2322681D01*
X136523712Y-2348264D01*
X136514827Y-2373096D01*
X136503550Y-2396938D01*
X136489991Y-2419560D01*
X136474281Y-2440743D01*
X136456569Y-2460285D01*
X136437027Y-2477997D01*
X136415844Y-2493707D01*
X136393222Y-2507266D01*
X136369380Y-2518543D01*
X136344548Y-2527428D01*
X136318965Y-2533836D01*
X136292876Y-2537706D01*
X136266534Y-2539000D01*
X135304034Y-2539000D01*
X135277692Y-2537706D01*
X135251603Y-2533836D01*
X135226020Y-2527428D01*
X135201188Y-2518543D01*
X135177346Y-2507266D01*
X135154724Y-2493707D01*
X135133541Y-2477997D01*
X135113999Y-2460285D01*
X135096287Y-2440743D01*
X135080577Y-2419560D01*
X135067018Y-2396938D01*
X135055741Y-2373096D01*
X135046856Y-2348264D01*
X135040448Y-2322681D01*
X135036578Y-2296592D01*
X135035284Y-2270250D01*
X135035284Y-1732750D01*
X135036578Y-1706408D01*
X135040448Y-1680319D01*
X135046856Y-1654736D01*
X135055741Y-1629904D01*
X135067018Y-1606062D01*
X135080577Y-1583440D01*
X135096287Y-1562257D01*
X135113999Y-1542715D01*
X135133541Y-1525003D01*
X135154724Y-1509293D01*
X135177346Y-1495734D01*
X135201188Y-1484457D01*
X135226020Y-1475572D01*
X135251603Y-1469164D01*
X135277692Y-1465294D01*
X135304034Y-1464000D01*
X136266534Y-1464000D01*
X136292876Y-1465294D01*
X136292876Y-1465294D01*
G37*
D12*
X135785284Y-2001500D03*
D11*
G36*
X136292876Y-3340294D02*
G01*
X136318965Y-3344164D01*
X136344548Y-3350572D01*
X136369380Y-3359457D01*
X136393222Y-3370734D01*
X136415844Y-3384293D01*
X136437027Y-3400003D01*
X136456569Y-3417715D01*
X136474281Y-3437257D01*
X136489991Y-3458440D01*
X136503550Y-3481062D01*
X136514827Y-3504904D01*
X136523712Y-3529736D01*
X136530120Y-3555319D01*
X136533990Y-3581408D01*
X136535284Y-3607750D01*
X136535284Y-4145250D01*
X136533990Y-4171592D01*
X136530120Y-4197681D01*
X136523712Y-4223264D01*
X136514827Y-4248096D01*
X136503550Y-4271938D01*
X136489991Y-4294560D01*
X136474281Y-4315743D01*
X136456569Y-4335285D01*
X136437027Y-4352997D01*
X136415844Y-4368707D01*
X136393222Y-4382266D01*
X136369380Y-4393543D01*
X136344548Y-4402428D01*
X136318965Y-4408836D01*
X136292876Y-4412706D01*
X136266534Y-4414000D01*
X135304034Y-4414000D01*
X135277692Y-4412706D01*
X135251603Y-4408836D01*
X135226020Y-4402428D01*
X135201188Y-4393543D01*
X135177346Y-4382266D01*
X135154724Y-4368707D01*
X135133541Y-4352997D01*
X135113999Y-4335285D01*
X135096287Y-4315743D01*
X135080577Y-4294560D01*
X135067018Y-4271938D01*
X135055741Y-4248096D01*
X135046856Y-4223264D01*
X135040448Y-4197681D01*
X135036578Y-4171592D01*
X135035284Y-4145250D01*
X135035284Y-3607750D01*
X135036578Y-3581408D01*
X135040448Y-3555319D01*
X135046856Y-3529736D01*
X135055741Y-3504904D01*
X135067018Y-3481062D01*
X135080577Y-3458440D01*
X135096287Y-3437257D01*
X135113999Y-3417715D01*
X135133541Y-3400003D01*
X135154724Y-3384293D01*
X135177346Y-3370734D01*
X135201188Y-3359457D01*
X135226020Y-3350572D01*
X135251603Y-3344164D01*
X135277692Y-3340294D01*
X135304034Y-3339000D01*
X136266534Y-3339000D01*
X136292876Y-3340294D01*
X136292876Y-3340294D01*
G37*
D12*
X135785284Y-3876500D03*
%TD*%
D11*
%TO.C,D12*%
G36*
X121016592Y-1465294D02*
G01*
X121042681Y-1469164D01*
X121068264Y-1475572D01*
X121093096Y-1484457D01*
X121116938Y-1495734D01*
X121139560Y-1509293D01*
X121160743Y-1525003D01*
X121180285Y-1542715D01*
X121197997Y-1562257D01*
X121213707Y-1583440D01*
X121227266Y-1606062D01*
X121238543Y-1629904D01*
X121247428Y-1654736D01*
X121253836Y-1680319D01*
X121257706Y-1706408D01*
X121259000Y-1732750D01*
X121259000Y-2270250D01*
X121257706Y-2296592D01*
X121253836Y-2322681D01*
X121247428Y-2348264D01*
X121238543Y-2373096D01*
X121227266Y-2396938D01*
X121213707Y-2419560D01*
X121197997Y-2440743D01*
X121180285Y-2460285D01*
X121160743Y-2477997D01*
X121139560Y-2493707D01*
X121116938Y-2507266D01*
X121093096Y-2518543D01*
X121068264Y-2527428D01*
X121042681Y-2533836D01*
X121016592Y-2537706D01*
X120990250Y-2539000D01*
X120027750Y-2539000D01*
X120001408Y-2537706D01*
X119975319Y-2533836D01*
X119949736Y-2527428D01*
X119924904Y-2518543D01*
X119901062Y-2507266D01*
X119878440Y-2493707D01*
X119857257Y-2477997D01*
X119837715Y-2460285D01*
X119820003Y-2440743D01*
X119804293Y-2419560D01*
X119790734Y-2396938D01*
X119779457Y-2373096D01*
X119770572Y-2348264D01*
X119764164Y-2322681D01*
X119760294Y-2296592D01*
X119759000Y-2270250D01*
X119759000Y-1732750D01*
X119760294Y-1706408D01*
X119764164Y-1680319D01*
X119770572Y-1654736D01*
X119779457Y-1629904D01*
X119790734Y-1606062D01*
X119804293Y-1583440D01*
X119820003Y-1562257D01*
X119837715Y-1542715D01*
X119857257Y-1525003D01*
X119878440Y-1509293D01*
X119901062Y-1495734D01*
X119924904Y-1484457D01*
X119949736Y-1475572D01*
X119975319Y-1469164D01*
X120001408Y-1465294D01*
X120027750Y-1464000D01*
X120990250Y-1464000D01*
X121016592Y-1465294D01*
X121016592Y-1465294D01*
G37*
D12*
X120509000Y-2001500D03*
D11*
G36*
X121016592Y-3340294D02*
G01*
X121042681Y-3344164D01*
X121068264Y-3350572D01*
X121093096Y-3359457D01*
X121116938Y-3370734D01*
X121139560Y-3384293D01*
X121160743Y-3400003D01*
X121180285Y-3417715D01*
X121197997Y-3437257D01*
X121213707Y-3458440D01*
X121227266Y-3481062D01*
X121238543Y-3504904D01*
X121247428Y-3529736D01*
X121253836Y-3555319D01*
X121257706Y-3581408D01*
X121259000Y-3607750D01*
X121259000Y-4145250D01*
X121257706Y-4171592D01*
X121253836Y-4197681D01*
X121247428Y-4223264D01*
X121238543Y-4248096D01*
X121227266Y-4271938D01*
X121213707Y-4294560D01*
X121197997Y-4315743D01*
X121180285Y-4335285D01*
X121160743Y-4352997D01*
X121139560Y-4368707D01*
X121116938Y-4382266D01*
X121093096Y-4393543D01*
X121068264Y-4402428D01*
X121042681Y-4408836D01*
X121016592Y-4412706D01*
X120990250Y-4414000D01*
X120027750Y-4414000D01*
X120001408Y-4412706D01*
X119975319Y-4408836D01*
X119949736Y-4402428D01*
X119924904Y-4393543D01*
X119901062Y-4382266D01*
X119878440Y-4368707D01*
X119857257Y-4352997D01*
X119837715Y-4335285D01*
X119820003Y-4315743D01*
X119804293Y-4294560D01*
X119790734Y-4271938D01*
X119779457Y-4248096D01*
X119770572Y-4223264D01*
X119764164Y-4197681D01*
X119760294Y-4171592D01*
X119759000Y-4145250D01*
X119759000Y-3607750D01*
X119760294Y-3581408D01*
X119764164Y-3555319D01*
X119770572Y-3529736D01*
X119779457Y-3504904D01*
X119790734Y-3481062D01*
X119804293Y-3458440D01*
X119820003Y-3437257D01*
X119837715Y-3417715D01*
X119857257Y-3400003D01*
X119878440Y-3384293D01*
X119901062Y-3370734D01*
X119924904Y-3359457D01*
X119949736Y-3350572D01*
X119975319Y-3344164D01*
X120001408Y-3340294D01*
X120027750Y-3339000D01*
X120990250Y-3339000D01*
X121016592Y-3340294D01*
X121016592Y-3340294D01*
G37*
D12*
X120509000Y-3876500D03*
%TD*%
D11*
%TO.C,D11*%
G36*
X138841947Y-1465294D02*
G01*
X138868036Y-1469164D01*
X138893619Y-1475572D01*
X138918451Y-1484457D01*
X138942293Y-1495734D01*
X138964915Y-1509293D01*
X138986098Y-1525003D01*
X139005640Y-1542715D01*
X139023352Y-1562257D01*
X139039062Y-1583440D01*
X139052621Y-1606062D01*
X139063898Y-1629904D01*
X139072783Y-1654736D01*
X139079191Y-1680319D01*
X139083061Y-1706408D01*
X139084355Y-1732750D01*
X139084355Y-2270250D01*
X139083061Y-2296592D01*
X139079191Y-2322681D01*
X139072783Y-2348264D01*
X139063898Y-2373096D01*
X139052621Y-2396938D01*
X139039062Y-2419560D01*
X139023352Y-2440743D01*
X139005640Y-2460285D01*
X138986098Y-2477997D01*
X138964915Y-2493707D01*
X138942293Y-2507266D01*
X138918451Y-2518543D01*
X138893619Y-2527428D01*
X138868036Y-2533836D01*
X138841947Y-2537706D01*
X138815605Y-2539000D01*
X137853105Y-2539000D01*
X137826763Y-2537706D01*
X137800674Y-2533836D01*
X137775091Y-2527428D01*
X137750259Y-2518543D01*
X137726417Y-2507266D01*
X137703795Y-2493707D01*
X137682612Y-2477997D01*
X137663070Y-2460285D01*
X137645358Y-2440743D01*
X137629648Y-2419560D01*
X137616089Y-2396938D01*
X137604812Y-2373096D01*
X137595927Y-2348264D01*
X137589519Y-2322681D01*
X137585649Y-2296592D01*
X137584355Y-2270250D01*
X137584355Y-1732750D01*
X137585649Y-1706408D01*
X137589519Y-1680319D01*
X137595927Y-1654736D01*
X137604812Y-1629904D01*
X137616089Y-1606062D01*
X137629648Y-1583440D01*
X137645358Y-1562257D01*
X137663070Y-1542715D01*
X137682612Y-1525003D01*
X137703795Y-1509293D01*
X137726417Y-1495734D01*
X137750259Y-1484457D01*
X137775091Y-1475572D01*
X137800674Y-1469164D01*
X137826763Y-1465294D01*
X137853105Y-1464000D01*
X138815605Y-1464000D01*
X138841947Y-1465294D01*
X138841947Y-1465294D01*
G37*
D12*
X138334355Y-2001500D03*
D11*
G36*
X138841947Y-3340294D02*
G01*
X138868036Y-3344164D01*
X138893619Y-3350572D01*
X138918451Y-3359457D01*
X138942293Y-3370734D01*
X138964915Y-3384293D01*
X138986098Y-3400003D01*
X139005640Y-3417715D01*
X139023352Y-3437257D01*
X139039062Y-3458440D01*
X139052621Y-3481062D01*
X139063898Y-3504904D01*
X139072783Y-3529736D01*
X139079191Y-3555319D01*
X139083061Y-3581408D01*
X139084355Y-3607750D01*
X139084355Y-4145250D01*
X139083061Y-4171592D01*
X139079191Y-4197681D01*
X139072783Y-4223264D01*
X139063898Y-4248096D01*
X139052621Y-4271938D01*
X139039062Y-4294560D01*
X139023352Y-4315743D01*
X139005640Y-4335285D01*
X138986098Y-4352997D01*
X138964915Y-4368707D01*
X138942293Y-4382266D01*
X138918451Y-4393543D01*
X138893619Y-4402428D01*
X138868036Y-4408836D01*
X138841947Y-4412706D01*
X138815605Y-4414000D01*
X137853105Y-4414000D01*
X137826763Y-4412706D01*
X137800674Y-4408836D01*
X137775091Y-4402428D01*
X137750259Y-4393543D01*
X137726417Y-4382266D01*
X137703795Y-4368707D01*
X137682612Y-4352997D01*
X137663070Y-4335285D01*
X137645358Y-4315743D01*
X137629648Y-4294560D01*
X137616089Y-4271938D01*
X137604812Y-4248096D01*
X137595927Y-4223264D01*
X137589519Y-4197681D01*
X137585649Y-4171592D01*
X137584355Y-4145250D01*
X137584355Y-3607750D01*
X137585649Y-3581408D01*
X137589519Y-3555319D01*
X137595927Y-3529736D01*
X137604812Y-3504904D01*
X137616089Y-3481062D01*
X137629648Y-3458440D01*
X137645358Y-3437257D01*
X137663070Y-3417715D01*
X137682612Y-3400003D01*
X137703795Y-3384293D01*
X137726417Y-3370734D01*
X137750259Y-3359457D01*
X137775091Y-3350572D01*
X137800674Y-3344164D01*
X137826763Y-3340294D01*
X137853105Y-3339000D01*
X138815605Y-3339000D01*
X138841947Y-3340294D01*
X138841947Y-3340294D01*
G37*
D12*
X138334355Y-3876500D03*
%TD*%
D11*
%TO.C,D10*%
G36*
X100387401Y-1465294D02*
G01*
X100413490Y-1469164D01*
X100439073Y-1475572D01*
X100463905Y-1484457D01*
X100487747Y-1495734D01*
X100510369Y-1509293D01*
X100531552Y-1525003D01*
X100551094Y-1542715D01*
X100568806Y-1562257D01*
X100584516Y-1583440D01*
X100598075Y-1606062D01*
X100609352Y-1629904D01*
X100618237Y-1654736D01*
X100624645Y-1680319D01*
X100628515Y-1706408D01*
X100629809Y-1732750D01*
X100629809Y-2270250D01*
X100628515Y-2296592D01*
X100624645Y-2322681D01*
X100618237Y-2348264D01*
X100609352Y-2373096D01*
X100598075Y-2396938D01*
X100584516Y-2419560D01*
X100568806Y-2440743D01*
X100551094Y-2460285D01*
X100531552Y-2477997D01*
X100510369Y-2493707D01*
X100487747Y-2507266D01*
X100463905Y-2518543D01*
X100439073Y-2527428D01*
X100413490Y-2533836D01*
X100387401Y-2537706D01*
X100361059Y-2539000D01*
X99398559Y-2539000D01*
X99372217Y-2537706D01*
X99346128Y-2533836D01*
X99320545Y-2527428D01*
X99295713Y-2518543D01*
X99271871Y-2507266D01*
X99249249Y-2493707D01*
X99228066Y-2477997D01*
X99208524Y-2460285D01*
X99190812Y-2440743D01*
X99175102Y-2419560D01*
X99161543Y-2396938D01*
X99150266Y-2373096D01*
X99141381Y-2348264D01*
X99134973Y-2322681D01*
X99131103Y-2296592D01*
X99129809Y-2270250D01*
X99129809Y-1732750D01*
X99131103Y-1706408D01*
X99134973Y-1680319D01*
X99141381Y-1654736D01*
X99150266Y-1629904D01*
X99161543Y-1606062D01*
X99175102Y-1583440D01*
X99190812Y-1562257D01*
X99208524Y-1542715D01*
X99228066Y-1525003D01*
X99249249Y-1509293D01*
X99271871Y-1495734D01*
X99295713Y-1484457D01*
X99320545Y-1475572D01*
X99346128Y-1469164D01*
X99372217Y-1465294D01*
X99398559Y-1464000D01*
X100361059Y-1464000D01*
X100387401Y-1465294D01*
X100387401Y-1465294D01*
G37*
D12*
X99879809Y-2001500D03*
D11*
G36*
X100387401Y-3340294D02*
G01*
X100413490Y-3344164D01*
X100439073Y-3350572D01*
X100463905Y-3359457D01*
X100487747Y-3370734D01*
X100510369Y-3384293D01*
X100531552Y-3400003D01*
X100551094Y-3417715D01*
X100568806Y-3437257D01*
X100584516Y-3458440D01*
X100598075Y-3481062D01*
X100609352Y-3504904D01*
X100618237Y-3529736D01*
X100624645Y-3555319D01*
X100628515Y-3581408D01*
X100629809Y-3607750D01*
X100629809Y-4145250D01*
X100628515Y-4171592D01*
X100624645Y-4197681D01*
X100618237Y-4223264D01*
X100609352Y-4248096D01*
X100598075Y-4271938D01*
X100584516Y-4294560D01*
X100568806Y-4315743D01*
X100551094Y-4335285D01*
X100531552Y-4352997D01*
X100510369Y-4368707D01*
X100487747Y-4382266D01*
X100463905Y-4393543D01*
X100439073Y-4402428D01*
X100413490Y-4408836D01*
X100387401Y-4412706D01*
X100361059Y-4414000D01*
X99398559Y-4414000D01*
X99372217Y-4412706D01*
X99346128Y-4408836D01*
X99320545Y-4402428D01*
X99295713Y-4393543D01*
X99271871Y-4382266D01*
X99249249Y-4368707D01*
X99228066Y-4352997D01*
X99208524Y-4335285D01*
X99190812Y-4315743D01*
X99175102Y-4294560D01*
X99161543Y-4271938D01*
X99150266Y-4248096D01*
X99141381Y-4223264D01*
X99134973Y-4197681D01*
X99131103Y-4171592D01*
X99129809Y-4145250D01*
X99129809Y-3607750D01*
X99131103Y-3581408D01*
X99134973Y-3555319D01*
X99141381Y-3529736D01*
X99150266Y-3504904D01*
X99161543Y-3481062D01*
X99175102Y-3458440D01*
X99190812Y-3437257D01*
X99208524Y-3417715D01*
X99228066Y-3400003D01*
X99249249Y-3384293D01*
X99271871Y-3370734D01*
X99295713Y-3359457D01*
X99320545Y-3350572D01*
X99346128Y-3344164D01*
X99372217Y-3340294D01*
X99398559Y-3339000D01*
X100361059Y-3339000D01*
X100387401Y-3340294D01*
X100387401Y-3340294D01*
G37*
D12*
X99879809Y-3876500D03*
%TD*%
D11*
%TO.C,D9*%
G36*
X85290279Y-1465294D02*
G01*
X85316368Y-1469164D01*
X85341951Y-1475572D01*
X85366783Y-1484457D01*
X85390625Y-1495734D01*
X85413247Y-1509293D01*
X85434430Y-1525003D01*
X85453972Y-1542715D01*
X85471684Y-1562257D01*
X85487394Y-1583440D01*
X85500953Y-1606062D01*
X85512230Y-1629904D01*
X85521115Y-1654736D01*
X85527523Y-1680319D01*
X85531393Y-1706408D01*
X85532687Y-1732750D01*
X85532687Y-2270250D01*
X85531393Y-2296592D01*
X85527523Y-2322681D01*
X85521115Y-2348264D01*
X85512230Y-2373096D01*
X85500953Y-2396938D01*
X85487394Y-2419560D01*
X85471684Y-2440743D01*
X85453972Y-2460285D01*
X85434430Y-2477997D01*
X85413247Y-2493707D01*
X85390625Y-2507266D01*
X85366783Y-2518543D01*
X85341951Y-2527428D01*
X85316368Y-2533836D01*
X85290279Y-2537706D01*
X85263937Y-2539000D01*
X84301437Y-2539000D01*
X84275095Y-2537706D01*
X84249006Y-2533836D01*
X84223423Y-2527428D01*
X84198591Y-2518543D01*
X84174749Y-2507266D01*
X84152127Y-2493707D01*
X84130944Y-2477997D01*
X84111402Y-2460285D01*
X84093690Y-2440743D01*
X84077980Y-2419560D01*
X84064421Y-2396938D01*
X84053144Y-2373096D01*
X84044259Y-2348264D01*
X84037851Y-2322681D01*
X84033981Y-2296592D01*
X84032687Y-2270250D01*
X84032687Y-1732750D01*
X84033981Y-1706408D01*
X84037851Y-1680319D01*
X84044259Y-1654736D01*
X84053144Y-1629904D01*
X84064421Y-1606062D01*
X84077980Y-1583440D01*
X84093690Y-1562257D01*
X84111402Y-1542715D01*
X84130944Y-1525003D01*
X84152127Y-1509293D01*
X84174749Y-1495734D01*
X84198591Y-1484457D01*
X84223423Y-1475572D01*
X84249006Y-1469164D01*
X84275095Y-1465294D01*
X84301437Y-1464000D01*
X85263937Y-1464000D01*
X85290279Y-1465294D01*
X85290279Y-1465294D01*
G37*
D12*
X84782687Y-2001500D03*
D11*
G36*
X85290279Y-3340294D02*
G01*
X85316368Y-3344164D01*
X85341951Y-3350572D01*
X85366783Y-3359457D01*
X85390625Y-3370734D01*
X85413247Y-3384293D01*
X85434430Y-3400003D01*
X85453972Y-3417715D01*
X85471684Y-3437257D01*
X85487394Y-3458440D01*
X85500953Y-3481062D01*
X85512230Y-3504904D01*
X85521115Y-3529736D01*
X85527523Y-3555319D01*
X85531393Y-3581408D01*
X85532687Y-3607750D01*
X85532687Y-4145250D01*
X85531393Y-4171592D01*
X85527523Y-4197681D01*
X85521115Y-4223264D01*
X85512230Y-4248096D01*
X85500953Y-4271938D01*
X85487394Y-4294560D01*
X85471684Y-4315743D01*
X85453972Y-4335285D01*
X85434430Y-4352997D01*
X85413247Y-4368707D01*
X85390625Y-4382266D01*
X85366783Y-4393543D01*
X85341951Y-4402428D01*
X85316368Y-4408836D01*
X85290279Y-4412706D01*
X85263937Y-4414000D01*
X84301437Y-4414000D01*
X84275095Y-4412706D01*
X84249006Y-4408836D01*
X84223423Y-4402428D01*
X84198591Y-4393543D01*
X84174749Y-4382266D01*
X84152127Y-4368707D01*
X84130944Y-4352997D01*
X84111402Y-4335285D01*
X84093690Y-4315743D01*
X84077980Y-4294560D01*
X84064421Y-4271938D01*
X84053144Y-4248096D01*
X84044259Y-4223264D01*
X84037851Y-4197681D01*
X84033981Y-4171592D01*
X84032687Y-4145250D01*
X84032687Y-3607750D01*
X84033981Y-3581408D01*
X84037851Y-3555319D01*
X84044259Y-3529736D01*
X84053144Y-3504904D01*
X84064421Y-3481062D01*
X84077980Y-3458440D01*
X84093690Y-3437257D01*
X84111402Y-3417715D01*
X84130944Y-3400003D01*
X84152127Y-3384293D01*
X84174749Y-3370734D01*
X84198591Y-3359457D01*
X84223423Y-3350572D01*
X84249006Y-3344164D01*
X84275095Y-3340294D01*
X84301437Y-3339000D01*
X85263937Y-3339000D01*
X85290279Y-3340294D01*
X85290279Y-3340294D01*
G37*
D12*
X84782687Y-3876500D03*
%TD*%
D11*
%TO.C,D8*%
G36*
X90322653Y-1465294D02*
G01*
X90348742Y-1469164D01*
X90374325Y-1475572D01*
X90399157Y-1484457D01*
X90422999Y-1495734D01*
X90445621Y-1509293D01*
X90466804Y-1525003D01*
X90486346Y-1542715D01*
X90504058Y-1562257D01*
X90519768Y-1583440D01*
X90533327Y-1606062D01*
X90544604Y-1629904D01*
X90553489Y-1654736D01*
X90559897Y-1680319D01*
X90563767Y-1706408D01*
X90565061Y-1732750D01*
X90565061Y-2270250D01*
X90563767Y-2296592D01*
X90559897Y-2322681D01*
X90553489Y-2348264D01*
X90544604Y-2373096D01*
X90533327Y-2396938D01*
X90519768Y-2419560D01*
X90504058Y-2440743D01*
X90486346Y-2460285D01*
X90466804Y-2477997D01*
X90445621Y-2493707D01*
X90422999Y-2507266D01*
X90399157Y-2518543D01*
X90374325Y-2527428D01*
X90348742Y-2533836D01*
X90322653Y-2537706D01*
X90296311Y-2539000D01*
X89333811Y-2539000D01*
X89307469Y-2537706D01*
X89281380Y-2533836D01*
X89255797Y-2527428D01*
X89230965Y-2518543D01*
X89207123Y-2507266D01*
X89184501Y-2493707D01*
X89163318Y-2477997D01*
X89143776Y-2460285D01*
X89126064Y-2440743D01*
X89110354Y-2419560D01*
X89096795Y-2396938D01*
X89085518Y-2373096D01*
X89076633Y-2348264D01*
X89070225Y-2322681D01*
X89066355Y-2296592D01*
X89065061Y-2270250D01*
X89065061Y-1732750D01*
X89066355Y-1706408D01*
X89070225Y-1680319D01*
X89076633Y-1654736D01*
X89085518Y-1629904D01*
X89096795Y-1606062D01*
X89110354Y-1583440D01*
X89126064Y-1562257D01*
X89143776Y-1542715D01*
X89163318Y-1525003D01*
X89184501Y-1509293D01*
X89207123Y-1495734D01*
X89230965Y-1484457D01*
X89255797Y-1475572D01*
X89281380Y-1469164D01*
X89307469Y-1465294D01*
X89333811Y-1464000D01*
X90296311Y-1464000D01*
X90322653Y-1465294D01*
X90322653Y-1465294D01*
G37*
D12*
X89815061Y-2001500D03*
D11*
G36*
X90322653Y-3340294D02*
G01*
X90348742Y-3344164D01*
X90374325Y-3350572D01*
X90399157Y-3359457D01*
X90422999Y-3370734D01*
X90445621Y-3384293D01*
X90466804Y-3400003D01*
X90486346Y-3417715D01*
X90504058Y-3437257D01*
X90519768Y-3458440D01*
X90533327Y-3481062D01*
X90544604Y-3504904D01*
X90553489Y-3529736D01*
X90559897Y-3555319D01*
X90563767Y-3581408D01*
X90565061Y-3607750D01*
X90565061Y-4145250D01*
X90563767Y-4171592D01*
X90559897Y-4197681D01*
X90553489Y-4223264D01*
X90544604Y-4248096D01*
X90533327Y-4271938D01*
X90519768Y-4294560D01*
X90504058Y-4315743D01*
X90486346Y-4335285D01*
X90466804Y-4352997D01*
X90445621Y-4368707D01*
X90422999Y-4382266D01*
X90399157Y-4393543D01*
X90374325Y-4402428D01*
X90348742Y-4408836D01*
X90322653Y-4412706D01*
X90296311Y-4414000D01*
X89333811Y-4414000D01*
X89307469Y-4412706D01*
X89281380Y-4408836D01*
X89255797Y-4402428D01*
X89230965Y-4393543D01*
X89207123Y-4382266D01*
X89184501Y-4368707D01*
X89163318Y-4352997D01*
X89143776Y-4335285D01*
X89126064Y-4315743D01*
X89110354Y-4294560D01*
X89096795Y-4271938D01*
X89085518Y-4248096D01*
X89076633Y-4223264D01*
X89070225Y-4197681D01*
X89066355Y-4171592D01*
X89065061Y-4145250D01*
X89065061Y-3607750D01*
X89066355Y-3581408D01*
X89070225Y-3555319D01*
X89076633Y-3529736D01*
X89085518Y-3504904D01*
X89096795Y-3481062D01*
X89110354Y-3458440D01*
X89126064Y-3437257D01*
X89143776Y-3417715D01*
X89163318Y-3400003D01*
X89184501Y-3384293D01*
X89207123Y-3370734D01*
X89230965Y-3359457D01*
X89255797Y-3350572D01*
X89281380Y-3344164D01*
X89307469Y-3340294D01*
X89333811Y-3339000D01*
X90296311Y-3339000D01*
X90322653Y-3340294D01*
X90322653Y-3340294D01*
G37*
D12*
X89815061Y-3876500D03*
%TD*%
D11*
%TO.C,D7*%
G36*
X82774092Y-1465294D02*
G01*
X82800181Y-1469164D01*
X82825764Y-1475572D01*
X82850596Y-1484457D01*
X82874438Y-1495734D01*
X82897060Y-1509293D01*
X82918243Y-1525003D01*
X82937785Y-1542715D01*
X82955497Y-1562257D01*
X82971207Y-1583440D01*
X82984766Y-1606062D01*
X82996043Y-1629904D01*
X83004928Y-1654736D01*
X83011336Y-1680319D01*
X83015206Y-1706408D01*
X83016500Y-1732750D01*
X83016500Y-2270250D01*
X83015206Y-2296592D01*
X83011336Y-2322681D01*
X83004928Y-2348264D01*
X82996043Y-2373096D01*
X82984766Y-2396938D01*
X82971207Y-2419560D01*
X82955497Y-2440743D01*
X82937785Y-2460285D01*
X82918243Y-2477997D01*
X82897060Y-2493707D01*
X82874438Y-2507266D01*
X82850596Y-2518543D01*
X82825764Y-2527428D01*
X82800181Y-2533836D01*
X82774092Y-2537706D01*
X82747750Y-2539000D01*
X81785250Y-2539000D01*
X81758908Y-2537706D01*
X81732819Y-2533836D01*
X81707236Y-2527428D01*
X81682404Y-2518543D01*
X81658562Y-2507266D01*
X81635940Y-2493707D01*
X81614757Y-2477997D01*
X81595215Y-2460285D01*
X81577503Y-2440743D01*
X81561793Y-2419560D01*
X81548234Y-2396938D01*
X81536957Y-2373096D01*
X81528072Y-2348264D01*
X81521664Y-2322681D01*
X81517794Y-2296592D01*
X81516500Y-2270250D01*
X81516500Y-1732750D01*
X81517794Y-1706408D01*
X81521664Y-1680319D01*
X81528072Y-1654736D01*
X81536957Y-1629904D01*
X81548234Y-1606062D01*
X81561793Y-1583440D01*
X81577503Y-1562257D01*
X81595215Y-1542715D01*
X81614757Y-1525003D01*
X81635940Y-1509293D01*
X81658562Y-1495734D01*
X81682404Y-1484457D01*
X81707236Y-1475572D01*
X81732819Y-1469164D01*
X81758908Y-1465294D01*
X81785250Y-1464000D01*
X82747750Y-1464000D01*
X82774092Y-1465294D01*
X82774092Y-1465294D01*
G37*
D12*
X82266500Y-2001500D03*
D11*
G36*
X82774092Y-3340294D02*
G01*
X82800181Y-3344164D01*
X82825764Y-3350572D01*
X82850596Y-3359457D01*
X82874438Y-3370734D01*
X82897060Y-3384293D01*
X82918243Y-3400003D01*
X82937785Y-3417715D01*
X82955497Y-3437257D01*
X82971207Y-3458440D01*
X82984766Y-3481062D01*
X82996043Y-3504904D01*
X83004928Y-3529736D01*
X83011336Y-3555319D01*
X83015206Y-3581408D01*
X83016500Y-3607750D01*
X83016500Y-4145250D01*
X83015206Y-4171592D01*
X83011336Y-4197681D01*
X83004928Y-4223264D01*
X82996043Y-4248096D01*
X82984766Y-4271938D01*
X82971207Y-4294560D01*
X82955497Y-4315743D01*
X82937785Y-4335285D01*
X82918243Y-4352997D01*
X82897060Y-4368707D01*
X82874438Y-4382266D01*
X82850596Y-4393543D01*
X82825764Y-4402428D01*
X82800181Y-4408836D01*
X82774092Y-4412706D01*
X82747750Y-4414000D01*
X81785250Y-4414000D01*
X81758908Y-4412706D01*
X81732819Y-4408836D01*
X81707236Y-4402428D01*
X81682404Y-4393543D01*
X81658562Y-4382266D01*
X81635940Y-4368707D01*
X81614757Y-4352997D01*
X81595215Y-4335285D01*
X81577503Y-4315743D01*
X81561793Y-4294560D01*
X81548234Y-4271938D01*
X81536957Y-4248096D01*
X81528072Y-4223264D01*
X81521664Y-4197681D01*
X81517794Y-4171592D01*
X81516500Y-4145250D01*
X81516500Y-3607750D01*
X81517794Y-3581408D01*
X81521664Y-3555319D01*
X81528072Y-3529736D01*
X81536957Y-3504904D01*
X81548234Y-3481062D01*
X81561793Y-3458440D01*
X81577503Y-3437257D01*
X81595215Y-3417715D01*
X81614757Y-3400003D01*
X81635940Y-3384293D01*
X81658562Y-3370734D01*
X81682404Y-3359457D01*
X81707236Y-3350572D01*
X81732819Y-3344164D01*
X81758908Y-3340294D01*
X81785250Y-3339000D01*
X82747750Y-3339000D01*
X82774092Y-3340294D01*
X82774092Y-3340294D01*
G37*
D12*
X82266500Y-3876500D03*
%TD*%
D11*
%TO.C,D6*%
G36*
X128645663Y-1465294D02*
G01*
X128671752Y-1469164D01*
X128697335Y-1475572D01*
X128722167Y-1484457D01*
X128746009Y-1495734D01*
X128768631Y-1509293D01*
X128789814Y-1525003D01*
X128809356Y-1542715D01*
X128827068Y-1562257D01*
X128842778Y-1583440D01*
X128856337Y-1606062D01*
X128867614Y-1629904D01*
X128876499Y-1654736D01*
X128882907Y-1680319D01*
X128886777Y-1706408D01*
X128888071Y-1732750D01*
X128888071Y-2270250D01*
X128886777Y-2296592D01*
X128882907Y-2322681D01*
X128876499Y-2348264D01*
X128867614Y-2373096D01*
X128856337Y-2396938D01*
X128842778Y-2419560D01*
X128827068Y-2440743D01*
X128809356Y-2460285D01*
X128789814Y-2477997D01*
X128768631Y-2493707D01*
X128746009Y-2507266D01*
X128722167Y-2518543D01*
X128697335Y-2527428D01*
X128671752Y-2533836D01*
X128645663Y-2537706D01*
X128619321Y-2539000D01*
X127656821Y-2539000D01*
X127630479Y-2537706D01*
X127604390Y-2533836D01*
X127578807Y-2527428D01*
X127553975Y-2518543D01*
X127530133Y-2507266D01*
X127507511Y-2493707D01*
X127486328Y-2477997D01*
X127466786Y-2460285D01*
X127449074Y-2440743D01*
X127433364Y-2419560D01*
X127419805Y-2396938D01*
X127408528Y-2373096D01*
X127399643Y-2348264D01*
X127393235Y-2322681D01*
X127389365Y-2296592D01*
X127388071Y-2270250D01*
X127388071Y-1732750D01*
X127389365Y-1706408D01*
X127393235Y-1680319D01*
X127399643Y-1654736D01*
X127408528Y-1629904D01*
X127419805Y-1606062D01*
X127433364Y-1583440D01*
X127449074Y-1562257D01*
X127466786Y-1542715D01*
X127486328Y-1525003D01*
X127507511Y-1509293D01*
X127530133Y-1495734D01*
X127553975Y-1484457D01*
X127578807Y-1475572D01*
X127604390Y-1469164D01*
X127630479Y-1465294D01*
X127656821Y-1464000D01*
X128619321Y-1464000D01*
X128645663Y-1465294D01*
X128645663Y-1465294D01*
G37*
D12*
X128138071Y-2001500D03*
D11*
G36*
X128645663Y-3340294D02*
G01*
X128671752Y-3344164D01*
X128697335Y-3350572D01*
X128722167Y-3359457D01*
X128746009Y-3370734D01*
X128768631Y-3384293D01*
X128789814Y-3400003D01*
X128809356Y-3417715D01*
X128827068Y-3437257D01*
X128842778Y-3458440D01*
X128856337Y-3481062D01*
X128867614Y-3504904D01*
X128876499Y-3529736D01*
X128882907Y-3555319D01*
X128886777Y-3581408D01*
X128888071Y-3607750D01*
X128888071Y-4145250D01*
X128886777Y-4171592D01*
X128882907Y-4197681D01*
X128876499Y-4223264D01*
X128867614Y-4248096D01*
X128856337Y-4271938D01*
X128842778Y-4294560D01*
X128827068Y-4315743D01*
X128809356Y-4335285D01*
X128789814Y-4352997D01*
X128768631Y-4368707D01*
X128746009Y-4382266D01*
X128722167Y-4393543D01*
X128697335Y-4402428D01*
X128671752Y-4408836D01*
X128645663Y-4412706D01*
X128619321Y-4414000D01*
X127656821Y-4414000D01*
X127630479Y-4412706D01*
X127604390Y-4408836D01*
X127578807Y-4402428D01*
X127553975Y-4393543D01*
X127530133Y-4382266D01*
X127507511Y-4368707D01*
X127486328Y-4352997D01*
X127466786Y-4335285D01*
X127449074Y-4315743D01*
X127433364Y-4294560D01*
X127419805Y-4271938D01*
X127408528Y-4248096D01*
X127399643Y-4223264D01*
X127393235Y-4197681D01*
X127389365Y-4171592D01*
X127388071Y-4145250D01*
X127388071Y-3607750D01*
X127389365Y-3581408D01*
X127393235Y-3555319D01*
X127399643Y-3529736D01*
X127408528Y-3504904D01*
X127419805Y-3481062D01*
X127433364Y-3458440D01*
X127449074Y-3437257D01*
X127466786Y-3417715D01*
X127486328Y-3400003D01*
X127507511Y-3384293D01*
X127530133Y-3370734D01*
X127553975Y-3359457D01*
X127578807Y-3350572D01*
X127604390Y-3344164D01*
X127630479Y-3340294D01*
X127656821Y-3339000D01*
X128619321Y-3339000D01*
X128645663Y-3340294D01*
X128645663Y-3340294D01*
G37*
D12*
X128138071Y-3876500D03*
%TD*%
D11*
%TO.C,D5*%
G36*
X131194734Y-1465294D02*
G01*
X131220823Y-1469164D01*
X131246406Y-1475572D01*
X131271238Y-1484457D01*
X131295080Y-1495734D01*
X131317702Y-1509293D01*
X131338885Y-1525003D01*
X131358427Y-1542715D01*
X131376139Y-1562257D01*
X131391849Y-1583440D01*
X131405408Y-1606062D01*
X131416685Y-1629904D01*
X131425570Y-1654736D01*
X131431978Y-1680319D01*
X131435848Y-1706408D01*
X131437142Y-1732750D01*
X131437142Y-2270250D01*
X131435848Y-2296592D01*
X131431978Y-2322681D01*
X131425570Y-2348264D01*
X131416685Y-2373096D01*
X131405408Y-2396938D01*
X131391849Y-2419560D01*
X131376139Y-2440743D01*
X131358427Y-2460285D01*
X131338885Y-2477997D01*
X131317702Y-2493707D01*
X131295080Y-2507266D01*
X131271238Y-2518543D01*
X131246406Y-2527428D01*
X131220823Y-2533836D01*
X131194734Y-2537706D01*
X131168392Y-2539000D01*
X130205892Y-2539000D01*
X130179550Y-2537706D01*
X130153461Y-2533836D01*
X130127878Y-2527428D01*
X130103046Y-2518543D01*
X130079204Y-2507266D01*
X130056582Y-2493707D01*
X130035399Y-2477997D01*
X130015857Y-2460285D01*
X129998145Y-2440743D01*
X129982435Y-2419560D01*
X129968876Y-2396938D01*
X129957599Y-2373096D01*
X129948714Y-2348264D01*
X129942306Y-2322681D01*
X129938436Y-2296592D01*
X129937142Y-2270250D01*
X129937142Y-1732750D01*
X129938436Y-1706408D01*
X129942306Y-1680319D01*
X129948714Y-1654736D01*
X129957599Y-1629904D01*
X129968876Y-1606062D01*
X129982435Y-1583440D01*
X129998145Y-1562257D01*
X130015857Y-1542715D01*
X130035399Y-1525003D01*
X130056582Y-1509293D01*
X130079204Y-1495734D01*
X130103046Y-1484457D01*
X130127878Y-1475572D01*
X130153461Y-1469164D01*
X130179550Y-1465294D01*
X130205892Y-1464000D01*
X131168392Y-1464000D01*
X131194734Y-1465294D01*
X131194734Y-1465294D01*
G37*
D12*
X130687142Y-2001500D03*
D11*
G36*
X131194734Y-3340294D02*
G01*
X131220823Y-3344164D01*
X131246406Y-3350572D01*
X131271238Y-3359457D01*
X131295080Y-3370734D01*
X131317702Y-3384293D01*
X131338885Y-3400003D01*
X131358427Y-3417715D01*
X131376139Y-3437257D01*
X131391849Y-3458440D01*
X131405408Y-3481062D01*
X131416685Y-3504904D01*
X131425570Y-3529736D01*
X131431978Y-3555319D01*
X131435848Y-3581408D01*
X131437142Y-3607750D01*
X131437142Y-4145250D01*
X131435848Y-4171592D01*
X131431978Y-4197681D01*
X131425570Y-4223264D01*
X131416685Y-4248096D01*
X131405408Y-4271938D01*
X131391849Y-4294560D01*
X131376139Y-4315743D01*
X131358427Y-4335285D01*
X131338885Y-4352997D01*
X131317702Y-4368707D01*
X131295080Y-4382266D01*
X131271238Y-4393543D01*
X131246406Y-4402428D01*
X131220823Y-4408836D01*
X131194734Y-4412706D01*
X131168392Y-4414000D01*
X130205892Y-4414000D01*
X130179550Y-4412706D01*
X130153461Y-4408836D01*
X130127878Y-4402428D01*
X130103046Y-4393543D01*
X130079204Y-4382266D01*
X130056582Y-4368707D01*
X130035399Y-4352997D01*
X130015857Y-4335285D01*
X129998145Y-4315743D01*
X129982435Y-4294560D01*
X129968876Y-4271938D01*
X129957599Y-4248096D01*
X129948714Y-4223264D01*
X129942306Y-4197681D01*
X129938436Y-4171592D01*
X129937142Y-4145250D01*
X129937142Y-3607750D01*
X129938436Y-3581408D01*
X129942306Y-3555319D01*
X129948714Y-3529736D01*
X129957599Y-3504904D01*
X129968876Y-3481062D01*
X129982435Y-3458440D01*
X129998145Y-3437257D01*
X130015857Y-3417715D01*
X130035399Y-3400003D01*
X130056582Y-3384293D01*
X130079204Y-3370734D01*
X130103046Y-3359457D01*
X130127878Y-3350572D01*
X130153461Y-3344164D01*
X130179550Y-3340294D01*
X130205892Y-3339000D01*
X131168392Y-3339000D01*
X131194734Y-3340294D01*
X131194734Y-3340294D01*
G37*
D12*
X130687142Y-3876500D03*
%TD*%
D11*
%TO.C,D4*%
G36*
X143940092Y-1465294D02*
G01*
X143966181Y-1469164D01*
X143991764Y-1475572D01*
X144016596Y-1484457D01*
X144040438Y-1495734D01*
X144063060Y-1509293D01*
X144084243Y-1525003D01*
X144103785Y-1542715D01*
X144121497Y-1562257D01*
X144137207Y-1583440D01*
X144150766Y-1606062D01*
X144162043Y-1629904D01*
X144170928Y-1654736D01*
X144177336Y-1680319D01*
X144181206Y-1706408D01*
X144182500Y-1732750D01*
X144182500Y-2270250D01*
X144181206Y-2296592D01*
X144177336Y-2322681D01*
X144170928Y-2348264D01*
X144162043Y-2373096D01*
X144150766Y-2396938D01*
X144137207Y-2419560D01*
X144121497Y-2440743D01*
X144103785Y-2460285D01*
X144084243Y-2477997D01*
X144063060Y-2493707D01*
X144040438Y-2507266D01*
X144016596Y-2518543D01*
X143991764Y-2527428D01*
X143966181Y-2533836D01*
X143940092Y-2537706D01*
X143913750Y-2539000D01*
X142951250Y-2539000D01*
X142924908Y-2537706D01*
X142898819Y-2533836D01*
X142873236Y-2527428D01*
X142848404Y-2518543D01*
X142824562Y-2507266D01*
X142801940Y-2493707D01*
X142780757Y-2477997D01*
X142761215Y-2460285D01*
X142743503Y-2440743D01*
X142727793Y-2419560D01*
X142714234Y-2396938D01*
X142702957Y-2373096D01*
X142694072Y-2348264D01*
X142687664Y-2322681D01*
X142683794Y-2296592D01*
X142682500Y-2270250D01*
X142682500Y-1732750D01*
X142683794Y-1706408D01*
X142687664Y-1680319D01*
X142694072Y-1654736D01*
X142702957Y-1629904D01*
X142714234Y-1606062D01*
X142727793Y-1583440D01*
X142743503Y-1562257D01*
X142761215Y-1542715D01*
X142780757Y-1525003D01*
X142801940Y-1509293D01*
X142824562Y-1495734D01*
X142848404Y-1484457D01*
X142873236Y-1475572D01*
X142898819Y-1469164D01*
X142924908Y-1465294D01*
X142951250Y-1464000D01*
X143913750Y-1464000D01*
X143940092Y-1465294D01*
X143940092Y-1465294D01*
G37*
D12*
X143432500Y-2001500D03*
D11*
G36*
X143940092Y-3340294D02*
G01*
X143966181Y-3344164D01*
X143991764Y-3350572D01*
X144016596Y-3359457D01*
X144040438Y-3370734D01*
X144063060Y-3384293D01*
X144084243Y-3400003D01*
X144103785Y-3417715D01*
X144121497Y-3437257D01*
X144137207Y-3458440D01*
X144150766Y-3481062D01*
X144162043Y-3504904D01*
X144170928Y-3529736D01*
X144177336Y-3555319D01*
X144181206Y-3581408D01*
X144182500Y-3607750D01*
X144182500Y-4145250D01*
X144181206Y-4171592D01*
X144177336Y-4197681D01*
X144170928Y-4223264D01*
X144162043Y-4248096D01*
X144150766Y-4271938D01*
X144137207Y-4294560D01*
X144121497Y-4315743D01*
X144103785Y-4335285D01*
X144084243Y-4352997D01*
X144063060Y-4368707D01*
X144040438Y-4382266D01*
X144016596Y-4393543D01*
X143991764Y-4402428D01*
X143966181Y-4408836D01*
X143940092Y-4412706D01*
X143913750Y-4414000D01*
X142951250Y-4414000D01*
X142924908Y-4412706D01*
X142898819Y-4408836D01*
X142873236Y-4402428D01*
X142848404Y-4393543D01*
X142824562Y-4382266D01*
X142801940Y-4368707D01*
X142780757Y-4352997D01*
X142761215Y-4335285D01*
X142743503Y-4315743D01*
X142727793Y-4294560D01*
X142714234Y-4271938D01*
X142702957Y-4248096D01*
X142694072Y-4223264D01*
X142687664Y-4197681D01*
X142683794Y-4171592D01*
X142682500Y-4145250D01*
X142682500Y-3607750D01*
X142683794Y-3581408D01*
X142687664Y-3555319D01*
X142694072Y-3529736D01*
X142702957Y-3504904D01*
X142714234Y-3481062D01*
X142727793Y-3458440D01*
X142743503Y-3437257D01*
X142761215Y-3417715D01*
X142780757Y-3400003D01*
X142801940Y-3384293D01*
X142824562Y-3370734D01*
X142848404Y-3359457D01*
X142873236Y-3350572D01*
X142898819Y-3344164D01*
X142924908Y-3340294D01*
X142951250Y-3339000D01*
X143913750Y-3339000D01*
X143940092Y-3340294D01*
X143940092Y-3340294D01*
G37*
D12*
X143432500Y-3876500D03*
%TD*%
D11*
%TO.C,D3*%
G36*
X133743805Y-1465294D02*
G01*
X133769894Y-1469164D01*
X133795477Y-1475572D01*
X133820309Y-1484457D01*
X133844151Y-1495734D01*
X133866773Y-1509293D01*
X133887956Y-1525003D01*
X133907498Y-1542715D01*
X133925210Y-1562257D01*
X133940920Y-1583440D01*
X133954479Y-1606062D01*
X133965756Y-1629904D01*
X133974641Y-1654736D01*
X133981049Y-1680319D01*
X133984919Y-1706408D01*
X133986213Y-1732750D01*
X133986213Y-2270250D01*
X133984919Y-2296592D01*
X133981049Y-2322681D01*
X133974641Y-2348264D01*
X133965756Y-2373096D01*
X133954479Y-2396938D01*
X133940920Y-2419560D01*
X133925210Y-2440743D01*
X133907498Y-2460285D01*
X133887956Y-2477997D01*
X133866773Y-2493707D01*
X133844151Y-2507266D01*
X133820309Y-2518543D01*
X133795477Y-2527428D01*
X133769894Y-2533836D01*
X133743805Y-2537706D01*
X133717463Y-2539000D01*
X132754963Y-2539000D01*
X132728621Y-2537706D01*
X132702532Y-2533836D01*
X132676949Y-2527428D01*
X132652117Y-2518543D01*
X132628275Y-2507266D01*
X132605653Y-2493707D01*
X132584470Y-2477997D01*
X132564928Y-2460285D01*
X132547216Y-2440743D01*
X132531506Y-2419560D01*
X132517947Y-2396938D01*
X132506670Y-2373096D01*
X132497785Y-2348264D01*
X132491377Y-2322681D01*
X132487507Y-2296592D01*
X132486213Y-2270250D01*
X132486213Y-1732750D01*
X132487507Y-1706408D01*
X132491377Y-1680319D01*
X132497785Y-1654736D01*
X132506670Y-1629904D01*
X132517947Y-1606062D01*
X132531506Y-1583440D01*
X132547216Y-1562257D01*
X132564928Y-1542715D01*
X132584470Y-1525003D01*
X132605653Y-1509293D01*
X132628275Y-1495734D01*
X132652117Y-1484457D01*
X132676949Y-1475572D01*
X132702532Y-1469164D01*
X132728621Y-1465294D01*
X132754963Y-1464000D01*
X133717463Y-1464000D01*
X133743805Y-1465294D01*
X133743805Y-1465294D01*
G37*
D12*
X133236213Y-2001500D03*
D11*
G36*
X133743805Y-3340294D02*
G01*
X133769894Y-3344164D01*
X133795477Y-3350572D01*
X133820309Y-3359457D01*
X133844151Y-3370734D01*
X133866773Y-3384293D01*
X133887956Y-3400003D01*
X133907498Y-3417715D01*
X133925210Y-3437257D01*
X133940920Y-3458440D01*
X133954479Y-3481062D01*
X133965756Y-3504904D01*
X133974641Y-3529736D01*
X133981049Y-3555319D01*
X133984919Y-3581408D01*
X133986213Y-3607750D01*
X133986213Y-4145250D01*
X133984919Y-4171592D01*
X133981049Y-4197681D01*
X133974641Y-4223264D01*
X133965756Y-4248096D01*
X133954479Y-4271938D01*
X133940920Y-4294560D01*
X133925210Y-4315743D01*
X133907498Y-4335285D01*
X133887956Y-4352997D01*
X133866773Y-4368707D01*
X133844151Y-4382266D01*
X133820309Y-4393543D01*
X133795477Y-4402428D01*
X133769894Y-4408836D01*
X133743805Y-4412706D01*
X133717463Y-4414000D01*
X132754963Y-4414000D01*
X132728621Y-4412706D01*
X132702532Y-4408836D01*
X132676949Y-4402428D01*
X132652117Y-4393543D01*
X132628275Y-4382266D01*
X132605653Y-4368707D01*
X132584470Y-4352997D01*
X132564928Y-4335285D01*
X132547216Y-4315743D01*
X132531506Y-4294560D01*
X132517947Y-4271938D01*
X132506670Y-4248096D01*
X132497785Y-4223264D01*
X132491377Y-4197681D01*
X132487507Y-4171592D01*
X132486213Y-4145250D01*
X132486213Y-3607750D01*
X132487507Y-3581408D01*
X132491377Y-3555319D01*
X132497785Y-3529736D01*
X132506670Y-3504904D01*
X132517947Y-3481062D01*
X132531506Y-3458440D01*
X132547216Y-3437257D01*
X132564928Y-3417715D01*
X132584470Y-3400003D01*
X132605653Y-3384293D01*
X132628275Y-3370734D01*
X132652117Y-3359457D01*
X132676949Y-3350572D01*
X132702532Y-3344164D01*
X132728621Y-3340294D01*
X132754963Y-3339000D01*
X133717463Y-3339000D01*
X133743805Y-3340294D01*
X133743805Y-3340294D01*
G37*
D12*
X133236213Y-3876500D03*
%TD*%
D11*
%TO.C,D2*%
G36*
X141391018Y-1465294D02*
G01*
X141417107Y-1469164D01*
X141442690Y-1475572D01*
X141467522Y-1484457D01*
X141491364Y-1495734D01*
X141513986Y-1509293D01*
X141535169Y-1525003D01*
X141554711Y-1542715D01*
X141572423Y-1562257D01*
X141588133Y-1583440D01*
X141601692Y-1606062D01*
X141612969Y-1629904D01*
X141621854Y-1654736D01*
X141628262Y-1680319D01*
X141632132Y-1706408D01*
X141633426Y-1732750D01*
X141633426Y-2270250D01*
X141632132Y-2296592D01*
X141628262Y-2322681D01*
X141621854Y-2348264D01*
X141612969Y-2373096D01*
X141601692Y-2396938D01*
X141588133Y-2419560D01*
X141572423Y-2440743D01*
X141554711Y-2460285D01*
X141535169Y-2477997D01*
X141513986Y-2493707D01*
X141491364Y-2507266D01*
X141467522Y-2518543D01*
X141442690Y-2527428D01*
X141417107Y-2533836D01*
X141391018Y-2537706D01*
X141364676Y-2539000D01*
X140402176Y-2539000D01*
X140375834Y-2537706D01*
X140349745Y-2533836D01*
X140324162Y-2527428D01*
X140299330Y-2518543D01*
X140275488Y-2507266D01*
X140252866Y-2493707D01*
X140231683Y-2477997D01*
X140212141Y-2460285D01*
X140194429Y-2440743D01*
X140178719Y-2419560D01*
X140165160Y-2396938D01*
X140153883Y-2373096D01*
X140144998Y-2348264D01*
X140138590Y-2322681D01*
X140134720Y-2296592D01*
X140133426Y-2270250D01*
X140133426Y-1732750D01*
X140134720Y-1706408D01*
X140138590Y-1680319D01*
X140144998Y-1654736D01*
X140153883Y-1629904D01*
X140165160Y-1606062D01*
X140178719Y-1583440D01*
X140194429Y-1562257D01*
X140212141Y-1542715D01*
X140231683Y-1525003D01*
X140252866Y-1509293D01*
X140275488Y-1495734D01*
X140299330Y-1484457D01*
X140324162Y-1475572D01*
X140349745Y-1469164D01*
X140375834Y-1465294D01*
X140402176Y-1464000D01*
X141364676Y-1464000D01*
X141391018Y-1465294D01*
X141391018Y-1465294D01*
G37*
D12*
X140883426Y-2001500D03*
D11*
G36*
X141391018Y-3340294D02*
G01*
X141417107Y-3344164D01*
X141442690Y-3350572D01*
X141467522Y-3359457D01*
X141491364Y-3370734D01*
X141513986Y-3384293D01*
X141535169Y-3400003D01*
X141554711Y-3417715D01*
X141572423Y-3437257D01*
X141588133Y-3458440D01*
X141601692Y-3481062D01*
X141612969Y-3504904D01*
X141621854Y-3529736D01*
X141628262Y-3555319D01*
X141632132Y-3581408D01*
X141633426Y-3607750D01*
X141633426Y-4145250D01*
X141632132Y-4171592D01*
X141628262Y-4197681D01*
X141621854Y-4223264D01*
X141612969Y-4248096D01*
X141601692Y-4271938D01*
X141588133Y-4294560D01*
X141572423Y-4315743D01*
X141554711Y-4335285D01*
X141535169Y-4352997D01*
X141513986Y-4368707D01*
X141491364Y-4382266D01*
X141467522Y-4393543D01*
X141442690Y-4402428D01*
X141417107Y-4408836D01*
X141391018Y-4412706D01*
X141364676Y-4414000D01*
X140402176Y-4414000D01*
X140375834Y-4412706D01*
X140349745Y-4408836D01*
X140324162Y-4402428D01*
X140299330Y-4393543D01*
X140275488Y-4382266D01*
X140252866Y-4368707D01*
X140231683Y-4352997D01*
X140212141Y-4335285D01*
X140194429Y-4315743D01*
X140178719Y-4294560D01*
X140165160Y-4271938D01*
X140153883Y-4248096D01*
X140144998Y-4223264D01*
X140138590Y-4197681D01*
X140134720Y-4171592D01*
X140133426Y-4145250D01*
X140133426Y-3607750D01*
X140134720Y-3581408D01*
X140138590Y-3555319D01*
X140144998Y-3529736D01*
X140153883Y-3504904D01*
X140165160Y-3481062D01*
X140178719Y-3458440D01*
X140194429Y-3437257D01*
X140212141Y-3417715D01*
X140231683Y-3400003D01*
X140252866Y-3384293D01*
X140275488Y-3370734D01*
X140299330Y-3359457D01*
X140324162Y-3350572D01*
X140349745Y-3344164D01*
X140375834Y-3340294D01*
X140402176Y-3339000D01*
X141364676Y-3339000D01*
X141391018Y-3340294D01*
X141391018Y-3340294D01*
G37*
D12*
X140883426Y-3876500D03*
%TD*%
D11*
%TO.C,D1*%
G36*
X126096592Y-1465294D02*
G01*
X126122681Y-1469164D01*
X126148264Y-1475572D01*
X126173096Y-1484457D01*
X126196938Y-1495734D01*
X126219560Y-1509293D01*
X126240743Y-1525003D01*
X126260285Y-1542715D01*
X126277997Y-1562257D01*
X126293707Y-1583440D01*
X126307266Y-1606062D01*
X126318543Y-1629904D01*
X126327428Y-1654736D01*
X126333836Y-1680319D01*
X126337706Y-1706408D01*
X126339000Y-1732750D01*
X126339000Y-2270250D01*
X126337706Y-2296592D01*
X126333836Y-2322681D01*
X126327428Y-2348264D01*
X126318543Y-2373096D01*
X126307266Y-2396938D01*
X126293707Y-2419560D01*
X126277997Y-2440743D01*
X126260285Y-2460285D01*
X126240743Y-2477997D01*
X126219560Y-2493707D01*
X126196938Y-2507266D01*
X126173096Y-2518543D01*
X126148264Y-2527428D01*
X126122681Y-2533836D01*
X126096592Y-2537706D01*
X126070250Y-2539000D01*
X125107750Y-2539000D01*
X125081408Y-2537706D01*
X125055319Y-2533836D01*
X125029736Y-2527428D01*
X125004904Y-2518543D01*
X124981062Y-2507266D01*
X124958440Y-2493707D01*
X124937257Y-2477997D01*
X124917715Y-2460285D01*
X124900003Y-2440743D01*
X124884293Y-2419560D01*
X124870734Y-2396938D01*
X124859457Y-2373096D01*
X124850572Y-2348264D01*
X124844164Y-2322681D01*
X124840294Y-2296592D01*
X124839000Y-2270250D01*
X124839000Y-1732750D01*
X124840294Y-1706408D01*
X124844164Y-1680319D01*
X124850572Y-1654736D01*
X124859457Y-1629904D01*
X124870734Y-1606062D01*
X124884293Y-1583440D01*
X124900003Y-1562257D01*
X124917715Y-1542715D01*
X124937257Y-1525003D01*
X124958440Y-1509293D01*
X124981062Y-1495734D01*
X125004904Y-1484457D01*
X125029736Y-1475572D01*
X125055319Y-1469164D01*
X125081408Y-1465294D01*
X125107750Y-1464000D01*
X126070250Y-1464000D01*
X126096592Y-1465294D01*
X126096592Y-1465294D01*
G37*
D12*
X125589000Y-2001500D03*
D11*
G36*
X126096592Y-3340294D02*
G01*
X126122681Y-3344164D01*
X126148264Y-3350572D01*
X126173096Y-3359457D01*
X126196938Y-3370734D01*
X126219560Y-3384293D01*
X126240743Y-3400003D01*
X126260285Y-3417715D01*
X126277997Y-3437257D01*
X126293707Y-3458440D01*
X126307266Y-3481062D01*
X126318543Y-3504904D01*
X126327428Y-3529736D01*
X126333836Y-3555319D01*
X126337706Y-3581408D01*
X126339000Y-3607750D01*
X126339000Y-4145250D01*
X126337706Y-4171592D01*
X126333836Y-4197681D01*
X126327428Y-4223264D01*
X126318543Y-4248096D01*
X126307266Y-4271938D01*
X126293707Y-4294560D01*
X126277997Y-4315743D01*
X126260285Y-4335285D01*
X126240743Y-4352997D01*
X126219560Y-4368707D01*
X126196938Y-4382266D01*
X126173096Y-4393543D01*
X126148264Y-4402428D01*
X126122681Y-4408836D01*
X126096592Y-4412706D01*
X126070250Y-4414000D01*
X125107750Y-4414000D01*
X125081408Y-4412706D01*
X125055319Y-4408836D01*
X125029736Y-4402428D01*
X125004904Y-4393543D01*
X124981062Y-4382266D01*
X124958440Y-4368707D01*
X124937257Y-4352997D01*
X124917715Y-4335285D01*
X124900003Y-4315743D01*
X124884293Y-4294560D01*
X124870734Y-4271938D01*
X124859457Y-4248096D01*
X124850572Y-4223264D01*
X124844164Y-4197681D01*
X124840294Y-4171592D01*
X124839000Y-4145250D01*
X124839000Y-3607750D01*
X124840294Y-3581408D01*
X124844164Y-3555319D01*
X124850572Y-3529736D01*
X124859457Y-3504904D01*
X124870734Y-3481062D01*
X124884293Y-3458440D01*
X124900003Y-3437257D01*
X124917715Y-3417715D01*
X124937257Y-3400003D01*
X124958440Y-3384293D01*
X124981062Y-3370734D01*
X125004904Y-3359457D01*
X125029736Y-3350572D01*
X125055319Y-3344164D01*
X125081408Y-3340294D01*
X125107750Y-3339000D01*
X126070250Y-3339000D01*
X126096592Y-3340294D01*
X126096592Y-3340294D01*
G37*
D12*
X125589000Y-3876500D03*
%TD*%
D15*
%TO.C,JP19*%
X99879809Y-16390000D03*
X99879809Y-15090000D03*
X99879809Y-17690000D03*
%TD*%
D16*
%TO.C,J2*%
X143226500Y-27654500D03*
X143226500Y-30194500D03*
X140686500Y-27654500D03*
X140686500Y-30194500D03*
X138146500Y-27654500D03*
X138146500Y-30194500D03*
X135606500Y-27654500D03*
X135606500Y-30194500D03*
X133066500Y-27654500D03*
X133066500Y-30194500D03*
X130526500Y-27654500D03*
X130526500Y-30194500D03*
X127986500Y-27654500D03*
X127986500Y-30194500D03*
X125446500Y-27654500D03*
X125446500Y-30194500D03*
X122906500Y-27654500D03*
X122906500Y-30194500D03*
X120366500Y-27654500D03*
X120366500Y-30194500D03*
X117826500Y-27654500D03*
X117826500Y-30194500D03*
X115286500Y-27654500D03*
X115286500Y-30194500D03*
X112746500Y-27654500D03*
X112746500Y-30194500D03*
X110206500Y-27654500D03*
X110206500Y-30194500D03*
X107666500Y-27654500D03*
X107666500Y-30194500D03*
X105126500Y-27654500D03*
X105126500Y-30194500D03*
X102586500Y-27654500D03*
X102586500Y-30194500D03*
X100046500Y-27654500D03*
X100046500Y-30194500D03*
X97506500Y-27654500D03*
X97506500Y-30194500D03*
X94966500Y-27654500D03*
X94966500Y-30194500D03*
X92426500Y-27654500D03*
X92426500Y-30194500D03*
X89886500Y-27654500D03*
X89886500Y-30194500D03*
X87346500Y-27654500D03*
X87346500Y-30194500D03*
X84806500Y-27654500D03*
X84806500Y-30194500D03*
X82266500Y-27654500D03*
D17*
X82266500Y-30194500D03*
%TD*%
D18*
%TO.C,J1*%
X111127500Y7011000D03*
X115127500Y7011000D03*
D19*
X116702500Y5691000D03*
X109552500Y5691000D03*
X109552500Y9141000D03*
X116702500Y9141000D03*
D20*
X111827500Y6191000D03*
X112477500Y6191000D03*
X113127500Y6191000D03*
X113777500Y6191000D03*
X114427500Y6191000D03*
%TD*%
D15*
%TO.C,JP38*%
X97363622Y-22955500D03*
X97363622Y-21655500D03*
X97363622Y-24255500D03*
%TD*%
%TO.C,JP37*%
X97363622Y-16390000D03*
X97363622Y-15090000D03*
X97363622Y-17690000D03*
%TD*%
%TO.C,JP36*%
X94847435Y-22955500D03*
X94847435Y-21655500D03*
X94847435Y-24255500D03*
%TD*%
%TO.C,JP35*%
X94847435Y-16390000D03*
X94847435Y-15090000D03*
X94847435Y-17690000D03*
%TD*%
%TO.C,JP34*%
X112746500Y-22955500D03*
X112746500Y-21655500D03*
X112746500Y-24255500D03*
%TD*%
%TO.C,JP33*%
X112810000Y-16390000D03*
X112810000Y-15090000D03*
X112810000Y-17690000D03*
%TD*%
%TO.C,JP32*%
X92331248Y-22955500D03*
X92331248Y-21655500D03*
X92331248Y-24255500D03*
%TD*%
%TO.C,JP31*%
X92331248Y-16390000D03*
X92331248Y-15090000D03*
X92331248Y-17690000D03*
%TD*%
%TO.C,JP30*%
X87298874Y-22955500D03*
X87298874Y-21655500D03*
X87298874Y-24255500D03*
%TD*%
%TO.C,JP29*%
X87298874Y-16390000D03*
X87298874Y-15090000D03*
X87298874Y-17690000D03*
%TD*%
%TO.C,JP28*%
X102395996Y-22955500D03*
X102395996Y-21655500D03*
X102395996Y-24255500D03*
%TD*%
%TO.C,JP27*%
X102395996Y-16390000D03*
X102395996Y-15090000D03*
X102395996Y-17690000D03*
%TD*%
%TO.C,JP26*%
X135642784Y-22955500D03*
X135642784Y-21655500D03*
X135642784Y-24255500D03*
%TD*%
%TO.C,JP25*%
X135642784Y-16390000D03*
X135642784Y-15090000D03*
X135642784Y-17690000D03*
%TD*%
%TO.C,JP24*%
X120366500Y-22955500D03*
X120366500Y-21655500D03*
X120366500Y-24255500D03*
%TD*%
%TO.C,JP23*%
X120366500Y-16390000D03*
X120366500Y-15090000D03*
X120366500Y-17690000D03*
%TD*%
%TO.C,JP22*%
X138191855Y-22955500D03*
X138191855Y-21655500D03*
X138191855Y-24255500D03*
%TD*%
%TO.C,JP21*%
X138191855Y-16390000D03*
X138191855Y-15090000D03*
X138191855Y-17690000D03*
%TD*%
%TO.C,JP20*%
X99879809Y-22955500D03*
X99879809Y-21655500D03*
X99879809Y-24255500D03*
%TD*%
%TO.C,JP18*%
X84782687Y-22955500D03*
X84782687Y-21655500D03*
X84782687Y-24255500D03*
%TD*%
%TO.C,JP17*%
X84782687Y-16390000D03*
X84782687Y-15090000D03*
X84782687Y-17690000D03*
%TD*%
%TO.C,JP16*%
X89815061Y-22955500D03*
X89815061Y-21655500D03*
X89815061Y-24255500D03*
%TD*%
%TO.C,JP15*%
X89815061Y-16390000D03*
X89815061Y-15090000D03*
X89815061Y-17690000D03*
%TD*%
%TO.C,JP14*%
X82266500Y-22955500D03*
X82266500Y-21655500D03*
X82266500Y-24255500D03*
%TD*%
%TO.C,JP13*%
X82266500Y-16390000D03*
X82266500Y-15090000D03*
X82266500Y-17690000D03*
%TD*%
%TO.C,JP12*%
X127995571Y-22955500D03*
X127995571Y-21655500D03*
X127995571Y-24255500D03*
%TD*%
%TO.C,JP11*%
X127995571Y-16390000D03*
X127995571Y-15090000D03*
X127995571Y-17690000D03*
%TD*%
%TO.C,JP10*%
X130544642Y-22955500D03*
X130544642Y-21655500D03*
X130544642Y-24255500D03*
%TD*%
%TO.C,JP9*%
X130544642Y-16390000D03*
X130544642Y-15090000D03*
X130544642Y-17690000D03*
%TD*%
%TO.C,JP8*%
X143289997Y-22955500D03*
X143289997Y-21655500D03*
X143289997Y-24255500D03*
%TD*%
%TO.C,JP7*%
X143289997Y-16390000D03*
X143289997Y-15090000D03*
X143289997Y-17690000D03*
%TD*%
%TO.C,JP6*%
X133093713Y-22955500D03*
X133093713Y-21655500D03*
X133093713Y-24255500D03*
%TD*%
%TO.C,JP5*%
X133093713Y-16390000D03*
X133093713Y-15090000D03*
X133093713Y-17690000D03*
%TD*%
%TO.C,JP4*%
X140740926Y-22955500D03*
X140740926Y-21655500D03*
X140740926Y-24255500D03*
%TD*%
%TO.C,JP3*%
X140740926Y-16390000D03*
X140740926Y-15090000D03*
X140740926Y-17690000D03*
%TD*%
%TO.C,JP2*%
X125446500Y-22955500D03*
X125446500Y-21655500D03*
X125446500Y-24255500D03*
%TD*%
%TO.C,JP1*%
X125446500Y-16390000D03*
X125446500Y-15090000D03*
X125446500Y-17690000D03*
%TD*%
D16*
%TO.C,J3*%
X103793000Y7969000D03*
D17*
X101253000Y7969000D03*
%TD*%
D21*
%TO.C,H2*%
X143231891Y8231891D03*
X141800000Y8825000D03*
X140368109Y8231891D03*
X139775000Y6800000D03*
X140368109Y5368109D03*
X141800000Y4775000D03*
X143231891Y5368109D03*
X143825000Y6800000D03*
D22*
X141800000Y6800000D03*
%TD*%
D21*
%TO.C,H1*%
X85231891Y8231891D03*
X83800000Y8825000D03*
X82368109Y8231891D03*
X81775000Y6800000D03*
X82368109Y5368109D03*
X83800000Y4775000D03*
X85231891Y5368109D03*
X85825000Y6800000D03*
D22*
X83800000Y6800000D03*
%TD*%
D21*
%TO.C,H6*%
X143231891Y-40768109D03*
X141800000Y-40175000D03*
X140368109Y-40768109D03*
X139775000Y-42200000D03*
X140368109Y-43631891D03*
X141800000Y-44225000D03*
X143231891Y-43631891D03*
X143825000Y-42200000D03*
D22*
X141800000Y-42200000D03*
%TD*%
D21*
%TO.C,H5*%
X85231891Y-40768109D03*
X83800000Y-40175000D03*
X82368109Y-40768109D03*
X81775000Y-42200000D03*
X82368109Y-43631891D03*
X83800000Y-44225000D03*
X85231891Y-43631891D03*
X85825000Y-42200000D03*
D22*
X83800000Y-42200000D03*
%TD*%
M02*
