%TF.GenerationSoftware,KiCad,Pcbnew,(5.1.6-0-10_14)*%
%TF.CreationDate,2020-08-20T20:18:55-05:00*%
%TF.ProjectId,rascsi_tester,72617363-7369-45f7-9465-737465722e6b,rev?*%
%TF.SameCoordinates,PX59d60c0PY325aa00*%
%TF.FileFunction,Soldermask,Top*%
%TF.FilePolarity,Negative*%
%FSLAX46Y46*%
G04 Gerber Fmt 4.6, Leading zero omitted, Abs format (unit mm)*
G04 Created by KiCad (PCBNEW (5.1.6-0-10_14)) date 2020-08-20 20:18:55*
%MOMM*%
%LPD*%
G01*
G04 APERTURE LIST*
%TA.AperFunction,Profile*%
%ADD10C,0.050000*%
%TD*%
%ADD11R,1.600000X1.100000*%
%ADD12O,1.800000X1.800000*%
%ADD13R,1.800000X1.800000*%
%ADD14C,4.945000*%
%ADD15C,1.645000*%
%ADD16C,0.750000*%
%ADD17C,2.100000*%
%ADD18R,0.500000X1.500000*%
%ADD19C,0.900000*%
%ADD20C,5.500000*%
G04 APERTURE END LIST*
D10*
X83800000Y-45696000D02*
X141800000Y-45696000D01*
X83800000Y-45696000D02*
G75*
G02*
X80300000Y-42196000I0J3500000D01*
G01*
X145300000Y-42196000D02*
G75*
G02*
X141800000Y-45696000I-3500000J0D01*
G01*
X80300000Y6800000D02*
X80300000Y-42196000D01*
X145300000Y6800000D02*
X145300000Y-42196000D01*
X83800000Y10300000D02*
X141800000Y10300000D01*
X80300000Y6800000D02*
G75*
G02*
X83800000Y10300000I3500000J0D01*
G01*
X141800000Y10300000D02*
G75*
G02*
X145300000Y6800000I0J-3500000D01*
G01*
D11*
%TO.C,JP19*%
X99879809Y-16390000D03*
X99879809Y-15090000D03*
X99879809Y-17690000D03*
%TD*%
D12*
%TO.C,J2*%
X143226500Y-27654500D03*
X143226500Y-30194500D03*
X140686500Y-27654500D03*
X140686500Y-30194500D03*
X138146500Y-27654500D03*
X138146500Y-30194500D03*
X135606500Y-27654500D03*
X135606500Y-30194500D03*
X133066500Y-27654500D03*
X133066500Y-30194500D03*
X130526500Y-27654500D03*
X130526500Y-30194500D03*
X127986500Y-27654500D03*
X127986500Y-30194500D03*
X125446500Y-27654500D03*
X125446500Y-30194500D03*
X122906500Y-27654500D03*
X122906500Y-30194500D03*
X120366500Y-27654500D03*
X120366500Y-30194500D03*
X117826500Y-27654500D03*
X117826500Y-30194500D03*
X115286500Y-27654500D03*
X115286500Y-30194500D03*
X112746500Y-27654500D03*
X112746500Y-30194500D03*
X110206500Y-27654500D03*
X110206500Y-30194500D03*
X107666500Y-27654500D03*
X107666500Y-30194500D03*
X105126500Y-27654500D03*
X105126500Y-30194500D03*
X102586500Y-27654500D03*
X102586500Y-30194500D03*
X100046500Y-27654500D03*
X100046500Y-30194500D03*
X97506500Y-27654500D03*
X97506500Y-30194500D03*
X94966500Y-27654500D03*
X94966500Y-30194500D03*
X92426500Y-27654500D03*
X92426500Y-30194500D03*
X89886500Y-27654500D03*
X89886500Y-30194500D03*
X87346500Y-27654500D03*
X87346500Y-30194500D03*
X84806500Y-27654500D03*
X84806500Y-30194500D03*
X82266500Y-27654500D03*
D13*
X82266500Y-30194500D03*
%TD*%
D14*
%TO.C,J4*%
X89281600Y-36250000D03*
X136321600Y-36250000D03*
D15*
X97566600Y-37670000D03*
X100336600Y-37670000D03*
X103106600Y-37670000D03*
X105876600Y-37670000D03*
X108646600Y-37670000D03*
X111416600Y-37670000D03*
X114186600Y-37670000D03*
X116956600Y-37670000D03*
X119726600Y-37670000D03*
X122496600Y-37670000D03*
X125266600Y-37670000D03*
X128036600Y-37670000D03*
X96181600Y-34830000D03*
X98951600Y-34830000D03*
X101721600Y-34830000D03*
X104491600Y-34830000D03*
X107261600Y-34830000D03*
X110031600Y-34830000D03*
X112801600Y-34830000D03*
X115571600Y-34830000D03*
X118341600Y-34830000D03*
X121111600Y-34830000D03*
X123881600Y-34830000D03*
X126651600Y-34830000D03*
X129421600Y-34830000D03*
%TD*%
%TO.C,D19*%
G36*
G01*
X98018622Y-2214000D02*
X96708622Y-2214000D01*
G75*
G02*
X96438622Y-1944000I0J270000D01*
G01*
X96438622Y-1134000D01*
G75*
G02*
X96708622Y-864000I270000J0D01*
G01*
X98018622Y-864000D01*
G75*
G02*
X98288622Y-1134000I0J-270000D01*
G01*
X98288622Y-1944000D01*
G75*
G02*
X98018622Y-2214000I-270000J0D01*
G01*
G37*
G36*
G01*
X98018622Y-5014000D02*
X96708622Y-5014000D01*
G75*
G02*
X96438622Y-4744000I0J270000D01*
G01*
X96438622Y-3934000D01*
G75*
G02*
X96708622Y-3664000I270000J0D01*
G01*
X98018622Y-3664000D01*
G75*
G02*
X98288622Y-3934000I0J-270000D01*
G01*
X98288622Y-4744000D01*
G75*
G02*
X98018622Y-5014000I-270000J0D01*
G01*
G37*
%TD*%
%TO.C,D18*%
G36*
G01*
X95502435Y-2214000D02*
X94192435Y-2214000D01*
G75*
G02*
X93922435Y-1944000I0J270000D01*
G01*
X93922435Y-1134000D01*
G75*
G02*
X94192435Y-864000I270000J0D01*
G01*
X95502435Y-864000D01*
G75*
G02*
X95772435Y-1134000I0J-270000D01*
G01*
X95772435Y-1944000D01*
G75*
G02*
X95502435Y-2214000I-270000J0D01*
G01*
G37*
G36*
G01*
X95502435Y-5014000D02*
X94192435Y-5014000D01*
G75*
G02*
X93922435Y-4744000I0J270000D01*
G01*
X93922435Y-3934000D01*
G75*
G02*
X94192435Y-3664000I270000J0D01*
G01*
X95502435Y-3664000D01*
G75*
G02*
X95772435Y-3934000I0J-270000D01*
G01*
X95772435Y-4744000D01*
G75*
G02*
X95502435Y-5014000I-270000J0D01*
G01*
G37*
%TD*%
%TO.C,D17*%
G36*
G01*
X113544000Y-2214000D02*
X112234000Y-2214000D01*
G75*
G02*
X111964000Y-1944000I0J270000D01*
G01*
X111964000Y-1134000D01*
G75*
G02*
X112234000Y-864000I270000J0D01*
G01*
X113544000Y-864000D01*
G75*
G02*
X113814000Y-1134000I0J-270000D01*
G01*
X113814000Y-1944000D01*
G75*
G02*
X113544000Y-2214000I-270000J0D01*
G01*
G37*
G36*
G01*
X113544000Y-5014000D02*
X112234000Y-5014000D01*
G75*
G02*
X111964000Y-4744000I0J270000D01*
G01*
X111964000Y-3934000D01*
G75*
G02*
X112234000Y-3664000I270000J0D01*
G01*
X113544000Y-3664000D01*
G75*
G02*
X113814000Y-3934000I0J-270000D01*
G01*
X113814000Y-4744000D01*
G75*
G02*
X113544000Y-5014000I-270000J0D01*
G01*
G37*
%TD*%
%TO.C,D16*%
G36*
G01*
X92986248Y-2214000D02*
X91676248Y-2214000D01*
G75*
G02*
X91406248Y-1944000I0J270000D01*
G01*
X91406248Y-1134000D01*
G75*
G02*
X91676248Y-864000I270000J0D01*
G01*
X92986248Y-864000D01*
G75*
G02*
X93256248Y-1134000I0J-270000D01*
G01*
X93256248Y-1944000D01*
G75*
G02*
X92986248Y-2214000I-270000J0D01*
G01*
G37*
G36*
G01*
X92986248Y-5014000D02*
X91676248Y-5014000D01*
G75*
G02*
X91406248Y-4744000I0J270000D01*
G01*
X91406248Y-3934000D01*
G75*
G02*
X91676248Y-3664000I270000J0D01*
G01*
X92986248Y-3664000D01*
G75*
G02*
X93256248Y-3934000I0J-270000D01*
G01*
X93256248Y-4744000D01*
G75*
G02*
X92986248Y-5014000I-270000J0D01*
G01*
G37*
%TD*%
%TO.C,D15*%
G36*
G01*
X87953874Y-2214000D02*
X86643874Y-2214000D01*
G75*
G02*
X86373874Y-1944000I0J270000D01*
G01*
X86373874Y-1134000D01*
G75*
G02*
X86643874Y-864000I270000J0D01*
G01*
X87953874Y-864000D01*
G75*
G02*
X88223874Y-1134000I0J-270000D01*
G01*
X88223874Y-1944000D01*
G75*
G02*
X87953874Y-2214000I-270000J0D01*
G01*
G37*
G36*
G01*
X87953874Y-5014000D02*
X86643874Y-5014000D01*
G75*
G02*
X86373874Y-4744000I0J270000D01*
G01*
X86373874Y-3934000D01*
G75*
G02*
X86643874Y-3664000I270000J0D01*
G01*
X87953874Y-3664000D01*
G75*
G02*
X88223874Y-3934000I0J-270000D01*
G01*
X88223874Y-4744000D01*
G75*
G02*
X87953874Y-5014000I-270000J0D01*
G01*
G37*
%TD*%
%TO.C,D14*%
G36*
G01*
X103050996Y-2214000D02*
X101740996Y-2214000D01*
G75*
G02*
X101470996Y-1944000I0J270000D01*
G01*
X101470996Y-1134000D01*
G75*
G02*
X101740996Y-864000I270000J0D01*
G01*
X103050996Y-864000D01*
G75*
G02*
X103320996Y-1134000I0J-270000D01*
G01*
X103320996Y-1944000D01*
G75*
G02*
X103050996Y-2214000I-270000J0D01*
G01*
G37*
G36*
G01*
X103050996Y-5014000D02*
X101740996Y-5014000D01*
G75*
G02*
X101470996Y-4744000I0J270000D01*
G01*
X101470996Y-3934000D01*
G75*
G02*
X101740996Y-3664000I270000J0D01*
G01*
X103050996Y-3664000D01*
G75*
G02*
X103320996Y-3934000I0J-270000D01*
G01*
X103320996Y-4744000D01*
G75*
G02*
X103050996Y-5014000I-270000J0D01*
G01*
G37*
%TD*%
%TO.C,D13*%
G36*
G01*
X136440284Y-2214000D02*
X135130284Y-2214000D01*
G75*
G02*
X134860284Y-1944000I0J270000D01*
G01*
X134860284Y-1134000D01*
G75*
G02*
X135130284Y-864000I270000J0D01*
G01*
X136440284Y-864000D01*
G75*
G02*
X136710284Y-1134000I0J-270000D01*
G01*
X136710284Y-1944000D01*
G75*
G02*
X136440284Y-2214000I-270000J0D01*
G01*
G37*
G36*
G01*
X136440284Y-5014000D02*
X135130284Y-5014000D01*
G75*
G02*
X134860284Y-4744000I0J270000D01*
G01*
X134860284Y-3934000D01*
G75*
G02*
X135130284Y-3664000I270000J0D01*
G01*
X136440284Y-3664000D01*
G75*
G02*
X136710284Y-3934000I0J-270000D01*
G01*
X136710284Y-4744000D01*
G75*
G02*
X136440284Y-5014000I-270000J0D01*
G01*
G37*
%TD*%
%TO.C,D12*%
G36*
G01*
X121164000Y-2214000D02*
X119854000Y-2214000D01*
G75*
G02*
X119584000Y-1944000I0J270000D01*
G01*
X119584000Y-1134000D01*
G75*
G02*
X119854000Y-864000I270000J0D01*
G01*
X121164000Y-864000D01*
G75*
G02*
X121434000Y-1134000I0J-270000D01*
G01*
X121434000Y-1944000D01*
G75*
G02*
X121164000Y-2214000I-270000J0D01*
G01*
G37*
G36*
G01*
X121164000Y-5014000D02*
X119854000Y-5014000D01*
G75*
G02*
X119584000Y-4744000I0J270000D01*
G01*
X119584000Y-3934000D01*
G75*
G02*
X119854000Y-3664000I270000J0D01*
G01*
X121164000Y-3664000D01*
G75*
G02*
X121434000Y-3934000I0J-270000D01*
G01*
X121434000Y-4744000D01*
G75*
G02*
X121164000Y-5014000I-270000J0D01*
G01*
G37*
%TD*%
%TO.C,D11*%
G36*
G01*
X138989355Y-2214000D02*
X137679355Y-2214000D01*
G75*
G02*
X137409355Y-1944000I0J270000D01*
G01*
X137409355Y-1134000D01*
G75*
G02*
X137679355Y-864000I270000J0D01*
G01*
X138989355Y-864000D01*
G75*
G02*
X139259355Y-1134000I0J-270000D01*
G01*
X139259355Y-1944000D01*
G75*
G02*
X138989355Y-2214000I-270000J0D01*
G01*
G37*
G36*
G01*
X138989355Y-5014000D02*
X137679355Y-5014000D01*
G75*
G02*
X137409355Y-4744000I0J270000D01*
G01*
X137409355Y-3934000D01*
G75*
G02*
X137679355Y-3664000I270000J0D01*
G01*
X138989355Y-3664000D01*
G75*
G02*
X139259355Y-3934000I0J-270000D01*
G01*
X139259355Y-4744000D01*
G75*
G02*
X138989355Y-5014000I-270000J0D01*
G01*
G37*
%TD*%
%TO.C,D10*%
G36*
G01*
X100534809Y-2214000D02*
X99224809Y-2214000D01*
G75*
G02*
X98954809Y-1944000I0J270000D01*
G01*
X98954809Y-1134000D01*
G75*
G02*
X99224809Y-864000I270000J0D01*
G01*
X100534809Y-864000D01*
G75*
G02*
X100804809Y-1134000I0J-270000D01*
G01*
X100804809Y-1944000D01*
G75*
G02*
X100534809Y-2214000I-270000J0D01*
G01*
G37*
G36*
G01*
X100534809Y-5014000D02*
X99224809Y-5014000D01*
G75*
G02*
X98954809Y-4744000I0J270000D01*
G01*
X98954809Y-3934000D01*
G75*
G02*
X99224809Y-3664000I270000J0D01*
G01*
X100534809Y-3664000D01*
G75*
G02*
X100804809Y-3934000I0J-270000D01*
G01*
X100804809Y-4744000D01*
G75*
G02*
X100534809Y-5014000I-270000J0D01*
G01*
G37*
%TD*%
%TO.C,D9*%
G36*
G01*
X85437687Y-2214000D02*
X84127687Y-2214000D01*
G75*
G02*
X83857687Y-1944000I0J270000D01*
G01*
X83857687Y-1134000D01*
G75*
G02*
X84127687Y-864000I270000J0D01*
G01*
X85437687Y-864000D01*
G75*
G02*
X85707687Y-1134000I0J-270000D01*
G01*
X85707687Y-1944000D01*
G75*
G02*
X85437687Y-2214000I-270000J0D01*
G01*
G37*
G36*
G01*
X85437687Y-5014000D02*
X84127687Y-5014000D01*
G75*
G02*
X83857687Y-4744000I0J270000D01*
G01*
X83857687Y-3934000D01*
G75*
G02*
X84127687Y-3664000I270000J0D01*
G01*
X85437687Y-3664000D01*
G75*
G02*
X85707687Y-3934000I0J-270000D01*
G01*
X85707687Y-4744000D01*
G75*
G02*
X85437687Y-5014000I-270000J0D01*
G01*
G37*
%TD*%
%TO.C,D8*%
G36*
G01*
X90470061Y-2214000D02*
X89160061Y-2214000D01*
G75*
G02*
X88890061Y-1944000I0J270000D01*
G01*
X88890061Y-1134000D01*
G75*
G02*
X89160061Y-864000I270000J0D01*
G01*
X90470061Y-864000D01*
G75*
G02*
X90740061Y-1134000I0J-270000D01*
G01*
X90740061Y-1944000D01*
G75*
G02*
X90470061Y-2214000I-270000J0D01*
G01*
G37*
G36*
G01*
X90470061Y-5014000D02*
X89160061Y-5014000D01*
G75*
G02*
X88890061Y-4744000I0J270000D01*
G01*
X88890061Y-3934000D01*
G75*
G02*
X89160061Y-3664000I270000J0D01*
G01*
X90470061Y-3664000D01*
G75*
G02*
X90740061Y-3934000I0J-270000D01*
G01*
X90740061Y-4744000D01*
G75*
G02*
X90470061Y-5014000I-270000J0D01*
G01*
G37*
%TD*%
%TO.C,D7*%
G36*
G01*
X82921500Y-2214000D02*
X81611500Y-2214000D01*
G75*
G02*
X81341500Y-1944000I0J270000D01*
G01*
X81341500Y-1134000D01*
G75*
G02*
X81611500Y-864000I270000J0D01*
G01*
X82921500Y-864000D01*
G75*
G02*
X83191500Y-1134000I0J-270000D01*
G01*
X83191500Y-1944000D01*
G75*
G02*
X82921500Y-2214000I-270000J0D01*
G01*
G37*
G36*
G01*
X82921500Y-5014000D02*
X81611500Y-5014000D01*
G75*
G02*
X81341500Y-4744000I0J270000D01*
G01*
X81341500Y-3934000D01*
G75*
G02*
X81611500Y-3664000I270000J0D01*
G01*
X82921500Y-3664000D01*
G75*
G02*
X83191500Y-3934000I0J-270000D01*
G01*
X83191500Y-4744000D01*
G75*
G02*
X82921500Y-5014000I-270000J0D01*
G01*
G37*
%TD*%
%TO.C,D6*%
G36*
G01*
X128793071Y-2214000D02*
X127483071Y-2214000D01*
G75*
G02*
X127213071Y-1944000I0J270000D01*
G01*
X127213071Y-1134000D01*
G75*
G02*
X127483071Y-864000I270000J0D01*
G01*
X128793071Y-864000D01*
G75*
G02*
X129063071Y-1134000I0J-270000D01*
G01*
X129063071Y-1944000D01*
G75*
G02*
X128793071Y-2214000I-270000J0D01*
G01*
G37*
G36*
G01*
X128793071Y-5014000D02*
X127483071Y-5014000D01*
G75*
G02*
X127213071Y-4744000I0J270000D01*
G01*
X127213071Y-3934000D01*
G75*
G02*
X127483071Y-3664000I270000J0D01*
G01*
X128793071Y-3664000D01*
G75*
G02*
X129063071Y-3934000I0J-270000D01*
G01*
X129063071Y-4744000D01*
G75*
G02*
X128793071Y-5014000I-270000J0D01*
G01*
G37*
%TD*%
%TO.C,D5*%
G36*
G01*
X131342142Y-2214000D02*
X130032142Y-2214000D01*
G75*
G02*
X129762142Y-1944000I0J270000D01*
G01*
X129762142Y-1134000D01*
G75*
G02*
X130032142Y-864000I270000J0D01*
G01*
X131342142Y-864000D01*
G75*
G02*
X131612142Y-1134000I0J-270000D01*
G01*
X131612142Y-1944000D01*
G75*
G02*
X131342142Y-2214000I-270000J0D01*
G01*
G37*
G36*
G01*
X131342142Y-5014000D02*
X130032142Y-5014000D01*
G75*
G02*
X129762142Y-4744000I0J270000D01*
G01*
X129762142Y-3934000D01*
G75*
G02*
X130032142Y-3664000I270000J0D01*
G01*
X131342142Y-3664000D01*
G75*
G02*
X131612142Y-3934000I0J-270000D01*
G01*
X131612142Y-4744000D01*
G75*
G02*
X131342142Y-5014000I-270000J0D01*
G01*
G37*
%TD*%
%TO.C,D4*%
G36*
G01*
X144087500Y-2214000D02*
X142777500Y-2214000D01*
G75*
G02*
X142507500Y-1944000I0J270000D01*
G01*
X142507500Y-1134000D01*
G75*
G02*
X142777500Y-864000I270000J0D01*
G01*
X144087500Y-864000D01*
G75*
G02*
X144357500Y-1134000I0J-270000D01*
G01*
X144357500Y-1944000D01*
G75*
G02*
X144087500Y-2214000I-270000J0D01*
G01*
G37*
G36*
G01*
X144087500Y-5014000D02*
X142777500Y-5014000D01*
G75*
G02*
X142507500Y-4744000I0J270000D01*
G01*
X142507500Y-3934000D01*
G75*
G02*
X142777500Y-3664000I270000J0D01*
G01*
X144087500Y-3664000D01*
G75*
G02*
X144357500Y-3934000I0J-270000D01*
G01*
X144357500Y-4744000D01*
G75*
G02*
X144087500Y-5014000I-270000J0D01*
G01*
G37*
%TD*%
%TO.C,D3*%
G36*
G01*
X133891213Y-2214000D02*
X132581213Y-2214000D01*
G75*
G02*
X132311213Y-1944000I0J270000D01*
G01*
X132311213Y-1134000D01*
G75*
G02*
X132581213Y-864000I270000J0D01*
G01*
X133891213Y-864000D01*
G75*
G02*
X134161213Y-1134000I0J-270000D01*
G01*
X134161213Y-1944000D01*
G75*
G02*
X133891213Y-2214000I-270000J0D01*
G01*
G37*
G36*
G01*
X133891213Y-5014000D02*
X132581213Y-5014000D01*
G75*
G02*
X132311213Y-4744000I0J270000D01*
G01*
X132311213Y-3934000D01*
G75*
G02*
X132581213Y-3664000I270000J0D01*
G01*
X133891213Y-3664000D01*
G75*
G02*
X134161213Y-3934000I0J-270000D01*
G01*
X134161213Y-4744000D01*
G75*
G02*
X133891213Y-5014000I-270000J0D01*
G01*
G37*
%TD*%
%TO.C,D2*%
G36*
G01*
X141538426Y-2214000D02*
X140228426Y-2214000D01*
G75*
G02*
X139958426Y-1944000I0J270000D01*
G01*
X139958426Y-1134000D01*
G75*
G02*
X140228426Y-864000I270000J0D01*
G01*
X141538426Y-864000D01*
G75*
G02*
X141808426Y-1134000I0J-270000D01*
G01*
X141808426Y-1944000D01*
G75*
G02*
X141538426Y-2214000I-270000J0D01*
G01*
G37*
G36*
G01*
X141538426Y-5014000D02*
X140228426Y-5014000D01*
G75*
G02*
X139958426Y-4744000I0J270000D01*
G01*
X139958426Y-3934000D01*
G75*
G02*
X140228426Y-3664000I270000J0D01*
G01*
X141538426Y-3664000D01*
G75*
G02*
X141808426Y-3934000I0J-270000D01*
G01*
X141808426Y-4744000D01*
G75*
G02*
X141538426Y-5014000I-270000J0D01*
G01*
G37*
%TD*%
%TO.C,D1*%
G36*
G01*
X126244000Y-2214000D02*
X124934000Y-2214000D01*
G75*
G02*
X124664000Y-1944000I0J270000D01*
G01*
X124664000Y-1134000D01*
G75*
G02*
X124934000Y-864000I270000J0D01*
G01*
X126244000Y-864000D01*
G75*
G02*
X126514000Y-1134000I0J-270000D01*
G01*
X126514000Y-1944000D01*
G75*
G02*
X126244000Y-2214000I-270000J0D01*
G01*
G37*
G36*
G01*
X126244000Y-5014000D02*
X124934000Y-5014000D01*
G75*
G02*
X124664000Y-4744000I0J270000D01*
G01*
X124664000Y-3934000D01*
G75*
G02*
X124934000Y-3664000I270000J0D01*
G01*
X126244000Y-3664000D01*
G75*
G02*
X126514000Y-3934000I0J-270000D01*
G01*
X126514000Y-4744000D01*
G75*
G02*
X126244000Y-5014000I-270000J0D01*
G01*
G37*
%TD*%
D16*
%TO.C,J1*%
X111127500Y7011000D03*
X115127500Y7011000D03*
D17*
X116702500Y5691000D03*
X109552500Y5691000D03*
X109552500Y9141000D03*
X116702500Y9141000D03*
D18*
X111827500Y6191000D03*
X112477500Y6191000D03*
X113127500Y6191000D03*
X113777500Y6191000D03*
X114427500Y6191000D03*
%TD*%
%TO.C,R19*%
G36*
G01*
X96706166Y-10399500D02*
X98021078Y-10399500D01*
G75*
G02*
X98288622Y-10667044I0J-267544D01*
G01*
X98288622Y-11656956D01*
G75*
G02*
X98021078Y-11924500I-267544J0D01*
G01*
X96706166Y-11924500D01*
G75*
G02*
X96438622Y-11656956I0J267544D01*
G01*
X96438622Y-10667044D01*
G75*
G02*
X96706166Y-10399500I267544J0D01*
G01*
G37*
G36*
G01*
X96706166Y-7424500D02*
X98021078Y-7424500D01*
G75*
G02*
X98288622Y-7692044I0J-267544D01*
G01*
X98288622Y-8681956D01*
G75*
G02*
X98021078Y-8949500I-267544J0D01*
G01*
X96706166Y-8949500D01*
G75*
G02*
X96438622Y-8681956I0J267544D01*
G01*
X96438622Y-7692044D01*
G75*
G02*
X96706166Y-7424500I267544J0D01*
G01*
G37*
%TD*%
%TO.C,R18*%
G36*
G01*
X94189979Y-10399500D02*
X95504891Y-10399500D01*
G75*
G02*
X95772435Y-10667044I0J-267544D01*
G01*
X95772435Y-11656956D01*
G75*
G02*
X95504891Y-11924500I-267544J0D01*
G01*
X94189979Y-11924500D01*
G75*
G02*
X93922435Y-11656956I0J267544D01*
G01*
X93922435Y-10667044D01*
G75*
G02*
X94189979Y-10399500I267544J0D01*
G01*
G37*
G36*
G01*
X94189979Y-7424500D02*
X95504891Y-7424500D01*
G75*
G02*
X95772435Y-7692044I0J-267544D01*
G01*
X95772435Y-8681956D01*
G75*
G02*
X95504891Y-8949500I-267544J0D01*
G01*
X94189979Y-8949500D01*
G75*
G02*
X93922435Y-8681956I0J267544D01*
G01*
X93922435Y-7692044D01*
G75*
G02*
X94189979Y-7424500I267544J0D01*
G01*
G37*
%TD*%
%TO.C,R17*%
G36*
G01*
X112231544Y-10399500D02*
X113546456Y-10399500D01*
G75*
G02*
X113814000Y-10667044I0J-267544D01*
G01*
X113814000Y-11656956D01*
G75*
G02*
X113546456Y-11924500I-267544J0D01*
G01*
X112231544Y-11924500D01*
G75*
G02*
X111964000Y-11656956I0J267544D01*
G01*
X111964000Y-10667044D01*
G75*
G02*
X112231544Y-10399500I267544J0D01*
G01*
G37*
G36*
G01*
X112231544Y-7424500D02*
X113546456Y-7424500D01*
G75*
G02*
X113814000Y-7692044I0J-267544D01*
G01*
X113814000Y-8681956D01*
G75*
G02*
X113546456Y-8949500I-267544J0D01*
G01*
X112231544Y-8949500D01*
G75*
G02*
X111964000Y-8681956I0J267544D01*
G01*
X111964000Y-7692044D01*
G75*
G02*
X112231544Y-7424500I267544J0D01*
G01*
G37*
%TD*%
%TO.C,R16*%
G36*
G01*
X91673792Y-10399500D02*
X92988704Y-10399500D01*
G75*
G02*
X93256248Y-10667044I0J-267544D01*
G01*
X93256248Y-11656956D01*
G75*
G02*
X92988704Y-11924500I-267544J0D01*
G01*
X91673792Y-11924500D01*
G75*
G02*
X91406248Y-11656956I0J267544D01*
G01*
X91406248Y-10667044D01*
G75*
G02*
X91673792Y-10399500I267544J0D01*
G01*
G37*
G36*
G01*
X91673792Y-7424500D02*
X92988704Y-7424500D01*
G75*
G02*
X93256248Y-7692044I0J-267544D01*
G01*
X93256248Y-8681956D01*
G75*
G02*
X92988704Y-8949500I-267544J0D01*
G01*
X91673792Y-8949500D01*
G75*
G02*
X91406248Y-8681956I0J267544D01*
G01*
X91406248Y-7692044D01*
G75*
G02*
X91673792Y-7424500I267544J0D01*
G01*
G37*
%TD*%
%TO.C,R15*%
G36*
G01*
X86641418Y-10399500D02*
X87956330Y-10399500D01*
G75*
G02*
X88223874Y-10667044I0J-267544D01*
G01*
X88223874Y-11656956D01*
G75*
G02*
X87956330Y-11924500I-267544J0D01*
G01*
X86641418Y-11924500D01*
G75*
G02*
X86373874Y-11656956I0J267544D01*
G01*
X86373874Y-10667044D01*
G75*
G02*
X86641418Y-10399500I267544J0D01*
G01*
G37*
G36*
G01*
X86641418Y-7424500D02*
X87956330Y-7424500D01*
G75*
G02*
X88223874Y-7692044I0J-267544D01*
G01*
X88223874Y-8681956D01*
G75*
G02*
X87956330Y-8949500I-267544J0D01*
G01*
X86641418Y-8949500D01*
G75*
G02*
X86373874Y-8681956I0J267544D01*
G01*
X86373874Y-7692044D01*
G75*
G02*
X86641418Y-7424500I267544J0D01*
G01*
G37*
%TD*%
%TO.C,R14*%
G36*
G01*
X101738540Y-10399500D02*
X103053452Y-10399500D01*
G75*
G02*
X103320996Y-10667044I0J-267544D01*
G01*
X103320996Y-11656956D01*
G75*
G02*
X103053452Y-11924500I-267544J0D01*
G01*
X101738540Y-11924500D01*
G75*
G02*
X101470996Y-11656956I0J267544D01*
G01*
X101470996Y-10667044D01*
G75*
G02*
X101738540Y-10399500I267544J0D01*
G01*
G37*
G36*
G01*
X101738540Y-7424500D02*
X103053452Y-7424500D01*
G75*
G02*
X103320996Y-7692044I0J-267544D01*
G01*
X103320996Y-8681956D01*
G75*
G02*
X103053452Y-8949500I-267544J0D01*
G01*
X101738540Y-8949500D01*
G75*
G02*
X101470996Y-8681956I0J267544D01*
G01*
X101470996Y-7692044D01*
G75*
G02*
X101738540Y-7424500I267544J0D01*
G01*
G37*
%TD*%
%TO.C,R13*%
G36*
G01*
X135127828Y-10399500D02*
X136442740Y-10399500D01*
G75*
G02*
X136710284Y-10667044I0J-267544D01*
G01*
X136710284Y-11656956D01*
G75*
G02*
X136442740Y-11924500I-267544J0D01*
G01*
X135127828Y-11924500D01*
G75*
G02*
X134860284Y-11656956I0J267544D01*
G01*
X134860284Y-10667044D01*
G75*
G02*
X135127828Y-10399500I267544J0D01*
G01*
G37*
G36*
G01*
X135127828Y-7424500D02*
X136442740Y-7424500D01*
G75*
G02*
X136710284Y-7692044I0J-267544D01*
G01*
X136710284Y-8681956D01*
G75*
G02*
X136442740Y-8949500I-267544J0D01*
G01*
X135127828Y-8949500D01*
G75*
G02*
X134860284Y-8681956I0J267544D01*
G01*
X134860284Y-7692044D01*
G75*
G02*
X135127828Y-7424500I267544J0D01*
G01*
G37*
%TD*%
%TO.C,R12*%
G36*
G01*
X119851544Y-10399500D02*
X121166456Y-10399500D01*
G75*
G02*
X121434000Y-10667044I0J-267544D01*
G01*
X121434000Y-11656956D01*
G75*
G02*
X121166456Y-11924500I-267544J0D01*
G01*
X119851544Y-11924500D01*
G75*
G02*
X119584000Y-11656956I0J267544D01*
G01*
X119584000Y-10667044D01*
G75*
G02*
X119851544Y-10399500I267544J0D01*
G01*
G37*
G36*
G01*
X119851544Y-7424500D02*
X121166456Y-7424500D01*
G75*
G02*
X121434000Y-7692044I0J-267544D01*
G01*
X121434000Y-8681956D01*
G75*
G02*
X121166456Y-8949500I-267544J0D01*
G01*
X119851544Y-8949500D01*
G75*
G02*
X119584000Y-8681956I0J267544D01*
G01*
X119584000Y-7692044D01*
G75*
G02*
X119851544Y-7424500I267544J0D01*
G01*
G37*
%TD*%
%TO.C,R11*%
G36*
G01*
X137676899Y-10399500D02*
X138991811Y-10399500D01*
G75*
G02*
X139259355Y-10667044I0J-267544D01*
G01*
X139259355Y-11656956D01*
G75*
G02*
X138991811Y-11924500I-267544J0D01*
G01*
X137676899Y-11924500D01*
G75*
G02*
X137409355Y-11656956I0J267544D01*
G01*
X137409355Y-10667044D01*
G75*
G02*
X137676899Y-10399500I267544J0D01*
G01*
G37*
G36*
G01*
X137676899Y-7424500D02*
X138991811Y-7424500D01*
G75*
G02*
X139259355Y-7692044I0J-267544D01*
G01*
X139259355Y-8681956D01*
G75*
G02*
X138991811Y-8949500I-267544J0D01*
G01*
X137676899Y-8949500D01*
G75*
G02*
X137409355Y-8681956I0J267544D01*
G01*
X137409355Y-7692044D01*
G75*
G02*
X137676899Y-7424500I267544J0D01*
G01*
G37*
%TD*%
%TO.C,R10*%
G36*
G01*
X99222353Y-10399500D02*
X100537265Y-10399500D01*
G75*
G02*
X100804809Y-10667044I0J-267544D01*
G01*
X100804809Y-11656956D01*
G75*
G02*
X100537265Y-11924500I-267544J0D01*
G01*
X99222353Y-11924500D01*
G75*
G02*
X98954809Y-11656956I0J267544D01*
G01*
X98954809Y-10667044D01*
G75*
G02*
X99222353Y-10399500I267544J0D01*
G01*
G37*
G36*
G01*
X99222353Y-7424500D02*
X100537265Y-7424500D01*
G75*
G02*
X100804809Y-7692044I0J-267544D01*
G01*
X100804809Y-8681956D01*
G75*
G02*
X100537265Y-8949500I-267544J0D01*
G01*
X99222353Y-8949500D01*
G75*
G02*
X98954809Y-8681956I0J267544D01*
G01*
X98954809Y-7692044D01*
G75*
G02*
X99222353Y-7424500I267544J0D01*
G01*
G37*
%TD*%
%TO.C,R9*%
G36*
G01*
X84125231Y-10399500D02*
X85440143Y-10399500D01*
G75*
G02*
X85707687Y-10667044I0J-267544D01*
G01*
X85707687Y-11656956D01*
G75*
G02*
X85440143Y-11924500I-267544J0D01*
G01*
X84125231Y-11924500D01*
G75*
G02*
X83857687Y-11656956I0J267544D01*
G01*
X83857687Y-10667044D01*
G75*
G02*
X84125231Y-10399500I267544J0D01*
G01*
G37*
G36*
G01*
X84125231Y-7424500D02*
X85440143Y-7424500D01*
G75*
G02*
X85707687Y-7692044I0J-267544D01*
G01*
X85707687Y-8681956D01*
G75*
G02*
X85440143Y-8949500I-267544J0D01*
G01*
X84125231Y-8949500D01*
G75*
G02*
X83857687Y-8681956I0J267544D01*
G01*
X83857687Y-7692044D01*
G75*
G02*
X84125231Y-7424500I267544J0D01*
G01*
G37*
%TD*%
%TO.C,R8*%
G36*
G01*
X89157605Y-10399500D02*
X90472517Y-10399500D01*
G75*
G02*
X90740061Y-10667044I0J-267544D01*
G01*
X90740061Y-11656956D01*
G75*
G02*
X90472517Y-11924500I-267544J0D01*
G01*
X89157605Y-11924500D01*
G75*
G02*
X88890061Y-11656956I0J267544D01*
G01*
X88890061Y-10667044D01*
G75*
G02*
X89157605Y-10399500I267544J0D01*
G01*
G37*
G36*
G01*
X89157605Y-7424500D02*
X90472517Y-7424500D01*
G75*
G02*
X90740061Y-7692044I0J-267544D01*
G01*
X90740061Y-8681956D01*
G75*
G02*
X90472517Y-8949500I-267544J0D01*
G01*
X89157605Y-8949500D01*
G75*
G02*
X88890061Y-8681956I0J267544D01*
G01*
X88890061Y-7692044D01*
G75*
G02*
X89157605Y-7424500I267544J0D01*
G01*
G37*
%TD*%
%TO.C,R7*%
G36*
G01*
X81609044Y-10399500D02*
X82923956Y-10399500D01*
G75*
G02*
X83191500Y-10667044I0J-267544D01*
G01*
X83191500Y-11656956D01*
G75*
G02*
X82923956Y-11924500I-267544J0D01*
G01*
X81609044Y-11924500D01*
G75*
G02*
X81341500Y-11656956I0J267544D01*
G01*
X81341500Y-10667044D01*
G75*
G02*
X81609044Y-10399500I267544J0D01*
G01*
G37*
G36*
G01*
X81609044Y-7424500D02*
X82923956Y-7424500D01*
G75*
G02*
X83191500Y-7692044I0J-267544D01*
G01*
X83191500Y-8681956D01*
G75*
G02*
X82923956Y-8949500I-267544J0D01*
G01*
X81609044Y-8949500D01*
G75*
G02*
X81341500Y-8681956I0J267544D01*
G01*
X81341500Y-7692044D01*
G75*
G02*
X81609044Y-7424500I267544J0D01*
G01*
G37*
%TD*%
%TO.C,R6*%
G36*
G01*
X127480615Y-10399500D02*
X128795527Y-10399500D01*
G75*
G02*
X129063071Y-10667044I0J-267544D01*
G01*
X129063071Y-11656956D01*
G75*
G02*
X128795527Y-11924500I-267544J0D01*
G01*
X127480615Y-11924500D01*
G75*
G02*
X127213071Y-11656956I0J267544D01*
G01*
X127213071Y-10667044D01*
G75*
G02*
X127480615Y-10399500I267544J0D01*
G01*
G37*
G36*
G01*
X127480615Y-7424500D02*
X128795527Y-7424500D01*
G75*
G02*
X129063071Y-7692044I0J-267544D01*
G01*
X129063071Y-8681956D01*
G75*
G02*
X128795527Y-8949500I-267544J0D01*
G01*
X127480615Y-8949500D01*
G75*
G02*
X127213071Y-8681956I0J267544D01*
G01*
X127213071Y-7692044D01*
G75*
G02*
X127480615Y-7424500I267544J0D01*
G01*
G37*
%TD*%
%TO.C,R5*%
G36*
G01*
X130029686Y-10399500D02*
X131344598Y-10399500D01*
G75*
G02*
X131612142Y-10667044I0J-267544D01*
G01*
X131612142Y-11656956D01*
G75*
G02*
X131344598Y-11924500I-267544J0D01*
G01*
X130029686Y-11924500D01*
G75*
G02*
X129762142Y-11656956I0J267544D01*
G01*
X129762142Y-10667044D01*
G75*
G02*
X130029686Y-10399500I267544J0D01*
G01*
G37*
G36*
G01*
X130029686Y-7424500D02*
X131344598Y-7424500D01*
G75*
G02*
X131612142Y-7692044I0J-267544D01*
G01*
X131612142Y-8681956D01*
G75*
G02*
X131344598Y-8949500I-267544J0D01*
G01*
X130029686Y-8949500D01*
G75*
G02*
X129762142Y-8681956I0J267544D01*
G01*
X129762142Y-7692044D01*
G75*
G02*
X130029686Y-7424500I267544J0D01*
G01*
G37*
%TD*%
%TO.C,R4*%
G36*
G01*
X142775044Y-10399500D02*
X144089956Y-10399500D01*
G75*
G02*
X144357500Y-10667044I0J-267544D01*
G01*
X144357500Y-11656956D01*
G75*
G02*
X144089956Y-11924500I-267544J0D01*
G01*
X142775044Y-11924500D01*
G75*
G02*
X142507500Y-11656956I0J267544D01*
G01*
X142507500Y-10667044D01*
G75*
G02*
X142775044Y-10399500I267544J0D01*
G01*
G37*
G36*
G01*
X142775044Y-7424500D02*
X144089956Y-7424500D01*
G75*
G02*
X144357500Y-7692044I0J-267544D01*
G01*
X144357500Y-8681956D01*
G75*
G02*
X144089956Y-8949500I-267544J0D01*
G01*
X142775044Y-8949500D01*
G75*
G02*
X142507500Y-8681956I0J267544D01*
G01*
X142507500Y-7692044D01*
G75*
G02*
X142775044Y-7424500I267544J0D01*
G01*
G37*
%TD*%
%TO.C,R3*%
G36*
G01*
X132578757Y-10399500D02*
X133893669Y-10399500D01*
G75*
G02*
X134161213Y-10667044I0J-267544D01*
G01*
X134161213Y-11656956D01*
G75*
G02*
X133893669Y-11924500I-267544J0D01*
G01*
X132578757Y-11924500D01*
G75*
G02*
X132311213Y-11656956I0J267544D01*
G01*
X132311213Y-10667044D01*
G75*
G02*
X132578757Y-10399500I267544J0D01*
G01*
G37*
G36*
G01*
X132578757Y-7424500D02*
X133893669Y-7424500D01*
G75*
G02*
X134161213Y-7692044I0J-267544D01*
G01*
X134161213Y-8681956D01*
G75*
G02*
X133893669Y-8949500I-267544J0D01*
G01*
X132578757Y-8949500D01*
G75*
G02*
X132311213Y-8681956I0J267544D01*
G01*
X132311213Y-7692044D01*
G75*
G02*
X132578757Y-7424500I267544J0D01*
G01*
G37*
%TD*%
%TO.C,R2*%
G36*
G01*
X140225970Y-10399500D02*
X141540882Y-10399500D01*
G75*
G02*
X141808426Y-10667044I0J-267544D01*
G01*
X141808426Y-11656956D01*
G75*
G02*
X141540882Y-11924500I-267544J0D01*
G01*
X140225970Y-11924500D01*
G75*
G02*
X139958426Y-11656956I0J267544D01*
G01*
X139958426Y-10667044D01*
G75*
G02*
X140225970Y-10399500I267544J0D01*
G01*
G37*
G36*
G01*
X140225970Y-7424500D02*
X141540882Y-7424500D01*
G75*
G02*
X141808426Y-7692044I0J-267544D01*
G01*
X141808426Y-8681956D01*
G75*
G02*
X141540882Y-8949500I-267544J0D01*
G01*
X140225970Y-8949500D01*
G75*
G02*
X139958426Y-8681956I0J267544D01*
G01*
X139958426Y-7692044D01*
G75*
G02*
X140225970Y-7424500I267544J0D01*
G01*
G37*
%TD*%
%TO.C,R1*%
G36*
G01*
X124931544Y-10399500D02*
X126246456Y-10399500D01*
G75*
G02*
X126514000Y-10667044I0J-267544D01*
G01*
X126514000Y-11656956D01*
G75*
G02*
X126246456Y-11924500I-267544J0D01*
G01*
X124931544Y-11924500D01*
G75*
G02*
X124664000Y-11656956I0J267544D01*
G01*
X124664000Y-10667044D01*
G75*
G02*
X124931544Y-10399500I267544J0D01*
G01*
G37*
G36*
G01*
X124931544Y-7424500D02*
X126246456Y-7424500D01*
G75*
G02*
X126514000Y-7692044I0J-267544D01*
G01*
X126514000Y-8681956D01*
G75*
G02*
X126246456Y-8949500I-267544J0D01*
G01*
X124931544Y-8949500D01*
G75*
G02*
X124664000Y-8681956I0J267544D01*
G01*
X124664000Y-7692044D01*
G75*
G02*
X124931544Y-7424500I267544J0D01*
G01*
G37*
%TD*%
D11*
%TO.C,JP38*%
X97363622Y-22955500D03*
X97363622Y-21655500D03*
X97363622Y-24255500D03*
%TD*%
%TO.C,JP37*%
X97363622Y-16390000D03*
X97363622Y-15090000D03*
X97363622Y-17690000D03*
%TD*%
%TO.C,JP36*%
X94847435Y-22955500D03*
X94847435Y-21655500D03*
X94847435Y-24255500D03*
%TD*%
%TO.C,JP35*%
X94847435Y-16390000D03*
X94847435Y-15090000D03*
X94847435Y-17690000D03*
%TD*%
%TO.C,JP34*%
X112746500Y-22955500D03*
X112746500Y-21655500D03*
X112746500Y-24255500D03*
%TD*%
%TO.C,JP33*%
X112810000Y-16390000D03*
X112810000Y-15090000D03*
X112810000Y-17690000D03*
%TD*%
%TO.C,JP32*%
X92331248Y-22955500D03*
X92331248Y-21655500D03*
X92331248Y-24255500D03*
%TD*%
%TO.C,JP31*%
X92331248Y-16390000D03*
X92331248Y-15090000D03*
X92331248Y-17690000D03*
%TD*%
%TO.C,JP30*%
X87298874Y-22955500D03*
X87298874Y-21655500D03*
X87298874Y-24255500D03*
%TD*%
%TO.C,JP29*%
X87298874Y-16390000D03*
X87298874Y-15090000D03*
X87298874Y-17690000D03*
%TD*%
%TO.C,JP28*%
X102395996Y-22955500D03*
X102395996Y-21655500D03*
X102395996Y-24255500D03*
%TD*%
%TO.C,JP27*%
X102395996Y-16390000D03*
X102395996Y-15090000D03*
X102395996Y-17690000D03*
%TD*%
%TO.C,JP26*%
X135642784Y-22955500D03*
X135642784Y-21655500D03*
X135642784Y-24255500D03*
%TD*%
%TO.C,JP25*%
X135642784Y-16390000D03*
X135642784Y-15090000D03*
X135642784Y-17690000D03*
%TD*%
%TO.C,JP24*%
X120366500Y-22955500D03*
X120366500Y-21655500D03*
X120366500Y-24255500D03*
%TD*%
%TO.C,JP23*%
X120366500Y-16390000D03*
X120366500Y-15090000D03*
X120366500Y-17690000D03*
%TD*%
%TO.C,JP22*%
X138191855Y-22955500D03*
X138191855Y-21655500D03*
X138191855Y-24255500D03*
%TD*%
%TO.C,JP21*%
X138191855Y-16390000D03*
X138191855Y-15090000D03*
X138191855Y-17690000D03*
%TD*%
%TO.C,JP20*%
X99879809Y-22955500D03*
X99879809Y-21655500D03*
X99879809Y-24255500D03*
%TD*%
%TO.C,JP18*%
X84782687Y-22955500D03*
X84782687Y-21655500D03*
X84782687Y-24255500D03*
%TD*%
%TO.C,JP17*%
X84782687Y-16390000D03*
X84782687Y-15090000D03*
X84782687Y-17690000D03*
%TD*%
%TO.C,JP16*%
X89815061Y-22955500D03*
X89815061Y-21655500D03*
X89815061Y-24255500D03*
%TD*%
%TO.C,JP15*%
X89815061Y-16390000D03*
X89815061Y-15090000D03*
X89815061Y-17690000D03*
%TD*%
%TO.C,JP14*%
X82266500Y-22955500D03*
X82266500Y-21655500D03*
X82266500Y-24255500D03*
%TD*%
%TO.C,JP13*%
X82266500Y-16390000D03*
X82266500Y-15090000D03*
X82266500Y-17690000D03*
%TD*%
%TO.C,JP12*%
X127995571Y-22955500D03*
X127995571Y-21655500D03*
X127995571Y-24255500D03*
%TD*%
%TO.C,JP11*%
X127995571Y-16390000D03*
X127995571Y-15090000D03*
X127995571Y-17690000D03*
%TD*%
%TO.C,JP10*%
X130544642Y-22955500D03*
X130544642Y-21655500D03*
X130544642Y-24255500D03*
%TD*%
%TO.C,JP9*%
X130544642Y-16390000D03*
X130544642Y-15090000D03*
X130544642Y-17690000D03*
%TD*%
%TO.C,JP8*%
X143289997Y-22955500D03*
X143289997Y-21655500D03*
X143289997Y-24255500D03*
%TD*%
%TO.C,JP7*%
X143289997Y-16390000D03*
X143289997Y-15090000D03*
X143289997Y-17690000D03*
%TD*%
%TO.C,JP6*%
X133093713Y-22955500D03*
X133093713Y-21655500D03*
X133093713Y-24255500D03*
%TD*%
%TO.C,JP5*%
X133093713Y-16390000D03*
X133093713Y-15090000D03*
X133093713Y-17690000D03*
%TD*%
%TO.C,JP4*%
X140740926Y-22955500D03*
X140740926Y-21655500D03*
X140740926Y-24255500D03*
%TD*%
%TO.C,JP3*%
X140740926Y-16390000D03*
X140740926Y-15090000D03*
X140740926Y-17690000D03*
%TD*%
%TO.C,JP2*%
X125446500Y-22955500D03*
X125446500Y-21655500D03*
X125446500Y-24255500D03*
%TD*%
%TO.C,JP1*%
X125446500Y-16390000D03*
X125446500Y-15090000D03*
X125446500Y-17690000D03*
%TD*%
D12*
%TO.C,J3*%
X103793000Y7969000D03*
D13*
X101253000Y7969000D03*
%TD*%
D19*
%TO.C,H2*%
X143231891Y8231891D03*
X141800000Y8825000D03*
X140368109Y8231891D03*
X139775000Y6800000D03*
X140368109Y5368109D03*
X141800000Y4775000D03*
X143231891Y5368109D03*
X143825000Y6800000D03*
D20*
X141800000Y6800000D03*
%TD*%
D19*
%TO.C,H1*%
X85231891Y8231891D03*
X83800000Y8825000D03*
X82368109Y8231891D03*
X81775000Y6800000D03*
X82368109Y5368109D03*
X83800000Y4775000D03*
X85231891Y5368109D03*
X85825000Y6800000D03*
D20*
X83800000Y6800000D03*
%TD*%
D19*
%TO.C,H6*%
X143231891Y-40768109D03*
X141800000Y-40175000D03*
X140368109Y-40768109D03*
X139775000Y-42200000D03*
X140368109Y-43631891D03*
X141800000Y-44225000D03*
X143231891Y-43631891D03*
X143825000Y-42200000D03*
D20*
X141800000Y-42200000D03*
%TD*%
D19*
%TO.C,H5*%
X85231891Y-40768109D03*
X83800000Y-40175000D03*
X82368109Y-40768109D03*
X81775000Y-42200000D03*
X82368109Y-43631891D03*
X83800000Y-44225000D03*
X85231891Y-43631891D03*
X85825000Y-42200000D03*
D20*
X83800000Y-42200000D03*
%TD*%
M02*
