%TF.GenerationSoftware,KiCad,Pcbnew,(5.1.4)-1*%
%TF.CreationDate,2020-08-22T19:58:44-05:00*%
%TF.ProjectId,rascsi_tester,72617363-7369-45f7-9465-737465722e6b,rev?*%
%TF.SameCoordinates,PX59d60c0PY325aa00*%
%TF.FileFunction,Copper,L2,Bot*%
%TF.FilePolarity,Positive*%
%FSLAX46Y46*%
G04 Gerber Fmt 4.6, Leading zero omitted, Abs format (unit mm)*
G04 Created by KiCad (PCBNEW (5.1.4)-1) date 2020-08-22 19:58:44*
%MOMM*%
%LPD*%
G04 APERTURE LIST*
%TA.AperFunction,NonConductor*%
%ADD10C,0.150000*%
%TD*%
%TA.AperFunction,NonConductor*%
%ADD11C,0.400000*%
%TD*%
%ADD12C,0.120000*%
%TA.AperFunction,NonConductor*%
%ADD13C,0.050000*%
%TD*%
%TA.AperFunction,ComponentPad*%
%ADD14C,4.845000*%
%TD*%
%TA.AperFunction,ComponentPad*%
%ADD15C,1.545000*%
%TD*%
%TA.AperFunction,ComponentPad*%
%ADD16O,1.700000X1.700000*%
%TD*%
%TA.AperFunction,ComponentPad*%
%ADD17R,1.700000X1.700000*%
%TD*%
%TA.AperFunction,ComponentPad*%
%ADD18C,2.000000*%
%TD*%
%TA.AperFunction,ComponentPad*%
%ADD19C,0.800000*%
%TD*%
%TA.AperFunction,ComponentPad*%
%ADD20C,5.400000*%
%TD*%
%TA.AperFunction,ViaPad*%
%ADD21C,0.500000*%
%TD*%
%TA.AperFunction,ViaPad*%
%ADD22C,0.800000*%
%TD*%
%TA.AperFunction,Conductor*%
%ADD23C,0.400000*%
%TD*%
%TA.AperFunction,Conductor*%
%ADD24C,0.200000*%
%TD*%
%TA.AperFunction,Conductor*%
%ADD25C,0.250000*%
%TD*%
%TA.AperFunction,Conductor*%
%ADD26C,0.150000*%
%TD*%
%TA.AperFunction,Conductor*%
%ADD27C,0.254000*%
%TD*%
G04 APERTURE END LIST*
D10*
X137272476Y-43172380D02*
X137462952Y-43172380D01*
X137558190Y-43220000D01*
X137605809Y-43267619D01*
X137701047Y-43410476D01*
X137748666Y-43600952D01*
X137748666Y-43981904D01*
X137701047Y-44077142D01*
X137653428Y-44124761D01*
X137558190Y-44172380D01*
X137367714Y-44172380D01*
X137272476Y-44124761D01*
X137224857Y-44077142D01*
X137177238Y-43981904D01*
X137177238Y-43743809D01*
X137224857Y-43648571D01*
X137272476Y-43600952D01*
X137367714Y-43553333D01*
X137558190Y-43553333D01*
X137653428Y-43600952D01*
X137701047Y-43648571D01*
X137748666Y-43743809D01*
X136605809Y-43600952D02*
X136701047Y-43553333D01*
X136748666Y-43505714D01*
X136796285Y-43410476D01*
X136796285Y-43362857D01*
X136748666Y-43267619D01*
X136701047Y-43220000D01*
X136605809Y-43172380D01*
X136415333Y-43172380D01*
X136320095Y-43220000D01*
X136272476Y-43267619D01*
X136224857Y-43362857D01*
X136224857Y-43410476D01*
X136272476Y-43505714D01*
X136320095Y-43553333D01*
X136415333Y-43600952D01*
X136605809Y-43600952D01*
X136701047Y-43648571D01*
X136748666Y-43696190D01*
X136796285Y-43791428D01*
X136796285Y-43981904D01*
X136748666Y-44077142D01*
X136701047Y-44124761D01*
X136605809Y-44172380D01*
X136415333Y-44172380D01*
X136320095Y-44124761D01*
X136272476Y-44077142D01*
X136224857Y-43981904D01*
X136224857Y-43791428D01*
X136272476Y-43696190D01*
X136320095Y-43648571D01*
X136415333Y-43600952D01*
X135796285Y-44172380D02*
X135796285Y-43172380D01*
X135701047Y-43791428D02*
X135415333Y-44172380D01*
X135415333Y-43505714D02*
X135796285Y-43886666D01*
X134986761Y-44172380D02*
X134986761Y-43505714D01*
X134986761Y-43600952D02*
X134939142Y-43553333D01*
X134843904Y-43505714D01*
X134701047Y-43505714D01*
X134605809Y-43553333D01*
X134558190Y-43648571D01*
X134558190Y-44172380D01*
X134558190Y-43648571D02*
X134510571Y-43553333D01*
X134415333Y-43505714D01*
X134272476Y-43505714D01*
X134177238Y-43553333D01*
X134129619Y-43648571D01*
X134129619Y-44172380D01*
X133510571Y-44172380D02*
X133605809Y-44124761D01*
X133653428Y-44029523D01*
X133653428Y-43172380D01*
X132701047Y-44172380D02*
X132701047Y-43648571D01*
X132748666Y-43553333D01*
X132843904Y-43505714D01*
X133034380Y-43505714D01*
X133129619Y-43553333D01*
X132701047Y-44124761D02*
X132796285Y-44172380D01*
X133034380Y-44172380D01*
X133129619Y-44124761D01*
X133177238Y-44029523D01*
X133177238Y-43934285D01*
X133129619Y-43839047D01*
X133034380Y-43791428D01*
X132796285Y-43791428D01*
X132701047Y-43743809D01*
X131605809Y-43172380D02*
X131272476Y-44172380D01*
X130939142Y-43172380D01*
X130224857Y-44124761D02*
X130320095Y-44172380D01*
X130510571Y-44172380D01*
X130605809Y-44124761D01*
X130653428Y-44029523D01*
X130653428Y-43648571D01*
X130605809Y-43553333D01*
X130510571Y-43505714D01*
X130320095Y-43505714D01*
X130224857Y-43553333D01*
X130177238Y-43648571D01*
X130177238Y-43743809D01*
X130653428Y-43839047D01*
X129748666Y-44172380D02*
X129748666Y-43505714D01*
X129748666Y-43696190D02*
X129701047Y-43600952D01*
X129653428Y-43553333D01*
X129558190Y-43505714D01*
X129462952Y-43505714D01*
X129177238Y-44124761D02*
X129082000Y-44172380D01*
X128891523Y-44172380D01*
X128796285Y-44124761D01*
X128748666Y-44029523D01*
X128748666Y-43981904D01*
X128796285Y-43886666D01*
X128891523Y-43839047D01*
X129034380Y-43839047D01*
X129129619Y-43791428D01*
X129177238Y-43696190D01*
X129177238Y-43648571D01*
X129129619Y-43553333D01*
X129034380Y-43505714D01*
X128891523Y-43505714D01*
X128796285Y-43553333D01*
X128320095Y-44172380D02*
X128320095Y-43505714D01*
X128320095Y-43172380D02*
X128367714Y-43220000D01*
X128320095Y-43267619D01*
X128272476Y-43220000D01*
X128320095Y-43172380D01*
X128320095Y-43267619D01*
X127701047Y-44172380D02*
X127796285Y-44124761D01*
X127843904Y-44077142D01*
X127891523Y-43981904D01*
X127891523Y-43696190D01*
X127843904Y-43600952D01*
X127796285Y-43553333D01*
X127701047Y-43505714D01*
X127558190Y-43505714D01*
X127462952Y-43553333D01*
X127415333Y-43600952D01*
X127367714Y-43696190D01*
X127367714Y-43981904D01*
X127415333Y-44077142D01*
X127462952Y-44124761D01*
X127558190Y-44172380D01*
X127701047Y-44172380D01*
X126939142Y-43505714D02*
X126939142Y-44172380D01*
X126939142Y-43600952D02*
X126891523Y-43553333D01*
X126796285Y-43505714D01*
X126653428Y-43505714D01*
X126558190Y-43553333D01*
X126510571Y-43648571D01*
X126510571Y-44172380D01*
X125320095Y-43267619D02*
X125272476Y-43220000D01*
X125177238Y-43172380D01*
X124939142Y-43172380D01*
X124843904Y-43220000D01*
X124796285Y-43267619D01*
X124748666Y-43362857D01*
X124748666Y-43458095D01*
X124796285Y-43600952D01*
X125367714Y-44172380D01*
X124748666Y-44172380D01*
X124320095Y-44077142D02*
X124272476Y-44124761D01*
X124320095Y-44172380D01*
X124367714Y-44124761D01*
X124320095Y-44077142D01*
X124320095Y-44172380D01*
X123891523Y-43267619D02*
X123843904Y-43220000D01*
X123748666Y-43172380D01*
X123510571Y-43172380D01*
X123415333Y-43220000D01*
X123367714Y-43267619D01*
X123320095Y-43362857D01*
X123320095Y-43458095D01*
X123367714Y-43600952D01*
X123939142Y-44172380D01*
X123320095Y-44172380D01*
X122891523Y-44172380D02*
X122891523Y-43172380D01*
X122891523Y-43553333D02*
X122796285Y-43505714D01*
X122605809Y-43505714D01*
X122510571Y-43553333D01*
X122462952Y-43600952D01*
X122415333Y-43696190D01*
X122415333Y-43981904D01*
X122462952Y-44077142D01*
X122510571Y-44124761D01*
X122605809Y-44172380D01*
X122796285Y-44172380D01*
X122891523Y-44124761D01*
D11*
X133956761Y-42719761D02*
X134504380Y-41767380D01*
X135099619Y-42719761D02*
X134849619Y-40719761D01*
X134087714Y-40719761D01*
X133909142Y-40815000D01*
X133825809Y-40910238D01*
X133754380Y-41100714D01*
X133790095Y-41386428D01*
X133909142Y-41576904D01*
X134016285Y-41672142D01*
X134218666Y-41767380D01*
X134980571Y-41767380D01*
X132242476Y-42719761D02*
X132111523Y-41672142D01*
X132182952Y-41481666D01*
X132361523Y-41386428D01*
X132742476Y-41386428D01*
X132944857Y-41481666D01*
X132230571Y-42624523D02*
X132432952Y-42719761D01*
X132909142Y-42719761D01*
X133087714Y-42624523D01*
X133159142Y-42434047D01*
X133135333Y-42243571D01*
X133016285Y-42053095D01*
X132813904Y-41957857D01*
X132337714Y-41957857D01*
X132135333Y-41862619D01*
X131373428Y-42624523D02*
X131099619Y-42719761D01*
X130623428Y-42719761D01*
X130421047Y-42624523D01*
X130313904Y-42529285D01*
X130194857Y-42338809D01*
X130171047Y-42148333D01*
X130242476Y-41957857D01*
X130325809Y-41862619D01*
X130504380Y-41767380D01*
X130873428Y-41672142D01*
X131052000Y-41576904D01*
X131135333Y-41481666D01*
X131206761Y-41291190D01*
X131182952Y-41100714D01*
X131063904Y-40910238D01*
X130956761Y-40815000D01*
X130754380Y-40719761D01*
X130278190Y-40719761D01*
X130004380Y-40815000D01*
X128218666Y-42529285D02*
X128325809Y-42624523D01*
X128623428Y-42719761D01*
X128813904Y-42719761D01*
X129087714Y-42624523D01*
X129254380Y-42434047D01*
X129325809Y-42243571D01*
X129373428Y-41862619D01*
X129337714Y-41576904D01*
X129194857Y-41195952D01*
X129075809Y-41005476D01*
X128861523Y-40815000D01*
X128563904Y-40719761D01*
X128373428Y-40719761D01*
X128099619Y-40815000D01*
X128016285Y-40910238D01*
X127468666Y-42624523D02*
X127194857Y-42719761D01*
X126718666Y-42719761D01*
X126516285Y-42624523D01*
X126409142Y-42529285D01*
X126290095Y-42338809D01*
X126266285Y-42148333D01*
X126337714Y-41957857D01*
X126421047Y-41862619D01*
X126599619Y-41767380D01*
X126968666Y-41672142D01*
X127147238Y-41576904D01*
X127230571Y-41481666D01*
X127302000Y-41291190D01*
X127278190Y-41100714D01*
X127159142Y-40910238D01*
X127052000Y-40815000D01*
X126849619Y-40719761D01*
X126373428Y-40719761D01*
X126099619Y-40815000D01*
X125480571Y-42719761D02*
X125230571Y-40719761D01*
D12*
X121994000Y-40342000D02*
X137996000Y-40342000D01*
X121930500Y-44660000D02*
X121930500Y-40405500D01*
X137996000Y-40342000D02*
X137996000Y-44660000D01*
X137996000Y-44660000D02*
X121930500Y-44660000D01*
X121422500Y-39961000D02*
X121422500Y-45041000D01*
X138440500Y-45041000D02*
X121422500Y-45041000D01*
X138377000Y-39961000D02*
X121422500Y-39961000D01*
X138440500Y-45041000D02*
X138440500Y-39961000D01*
D13*
X83800000Y-45696000D02*
X141800000Y-45696000D01*
X83800000Y-45696000D02*
G75*
G02X80300000Y-42196000I0J3500000D01*
G01*
X145300000Y-42196000D02*
G75*
G02X141800000Y-45696000I-3500000J0D01*
G01*
X80300000Y6800000D02*
X80300000Y-42196000D01*
X145300000Y6800000D02*
X145300000Y-42196000D01*
X83800000Y10300000D02*
X141800000Y10300000D01*
X80300000Y6800000D02*
G75*
G02X83800000Y10300000I3500000J0D01*
G01*
X141800000Y10300000D02*
G75*
G02X145300000Y6800000I0J-3500000D01*
G01*
D14*
%TO.P,J4,MH2*%
%TO.N,GND*%
X89281600Y-36250000D03*
%TO.P,J4,MH1*%
X136321600Y-36250000D03*
D15*
%TO.P,J4,25*%
%TO.N,TERMPOW*%
X97566600Y-37670000D03*
%TO.P,J4,24*%
%TO.N,GND*%
X100336600Y-37670000D03*
%TO.P,J4,23*%
%TO.N,C-D4*%
X103106600Y-37670000D03*
%TO.P,J4,22*%
%TO.N,C-D2*%
X105876600Y-37670000D03*
%TO.P,J4,21*%
%TO.N,C-D1*%
X108646600Y-37670000D03*
%TO.P,J4,20*%
%TO.N,C-DP*%
X111416600Y-37670000D03*
%TO.P,J4,19*%
%TO.N,C-SEL*%
X114186600Y-37670000D03*
%TO.P,J4,18*%
%TO.N,GND*%
X116956600Y-37670000D03*
%TO.P,J4,17*%
%TO.N,C-ATN*%
X119726600Y-37670000D03*
%TO.P,J4,16*%
%TO.N,GND*%
X122496600Y-37670000D03*
%TO.P,J4,15*%
%TO.N,C-C_D*%
X125266600Y-37670000D03*
%TO.P,J4,14*%
%TO.N,GND*%
X128036600Y-37670000D03*
%TO.P,J4,13*%
%TO.N,C-D7*%
X96181600Y-34830000D03*
%TO.P,J4,12*%
%TO.N,C-D6*%
X98951600Y-34830000D03*
%TO.P,J4,11*%
%TO.N,C-D5*%
X101721600Y-34830000D03*
%TO.P,J4,10*%
%TO.N,C-D3*%
X104491600Y-34830000D03*
%TO.P,J4,9*%
%TO.N,GND*%
X107261600Y-34830000D03*
%TO.P,J4,8*%
%TO.N,C-D0*%
X110031600Y-34830000D03*
%TO.P,J4,7*%
%TO.N,GND*%
X112801600Y-34830000D03*
%TO.P,J4,6*%
%TO.N,C-BSY*%
X115571600Y-34830000D03*
%TO.P,J4,5*%
%TO.N,C-ACK*%
X118341600Y-34830000D03*
%TO.P,J4,4*%
%TO.N,C-RST*%
X121111600Y-34830000D03*
%TO.P,J4,3*%
%TO.N,C-I_O*%
X123881600Y-34830000D03*
%TO.P,J4,2*%
%TO.N,C-MSG*%
X126651600Y-34830000D03*
%TO.P,J4,1*%
%TO.N,C-REQ*%
X129421600Y-34830000D03*
%TD*%
D16*
%TO.P,J2,50*%
%TO.N,C-I_O*%
X143226500Y-27654500D03*
%TO.P,J2,49*%
%TO.N,GND*%
X143226500Y-30194500D03*
%TO.P,J2,48*%
%TO.N,C-REQ*%
X140686500Y-27654500D03*
%TO.P,J2,47*%
%TO.N,GND*%
X140686500Y-30194500D03*
%TO.P,J2,46*%
%TO.N,C-C_D*%
X138146500Y-27654500D03*
%TO.P,J2,45*%
%TO.N,GND*%
X138146500Y-30194500D03*
%TO.P,J2,44*%
%TO.N,C-SEL*%
X135606500Y-27654500D03*
%TO.P,J2,43*%
%TO.N,GND*%
X135606500Y-30194500D03*
%TO.P,J2,42*%
%TO.N,C-MSG*%
X133066500Y-27654500D03*
%TO.P,J2,41*%
%TO.N,GND*%
X133066500Y-30194500D03*
%TO.P,J2,40*%
%TO.N,C-RST*%
X130526500Y-27654500D03*
%TO.P,J2,39*%
%TO.N,GND*%
X130526500Y-30194500D03*
%TO.P,J2,38*%
%TO.N,C-ACK*%
X127986500Y-27654500D03*
%TO.P,J2,37*%
%TO.N,GND*%
X127986500Y-30194500D03*
%TO.P,J2,36*%
%TO.N,C-BSY*%
X125446500Y-27654500D03*
%TO.P,J2,35*%
%TO.N,GND*%
X125446500Y-30194500D03*
%TO.P,J2,34*%
%TO.N,Net-(J2-Pad34)*%
X122906500Y-27654500D03*
%TO.P,J2,33*%
%TO.N,GND*%
X122906500Y-30194500D03*
%TO.P,J2,32*%
%TO.N,C-ATN*%
X120366500Y-27654500D03*
%TO.P,J2,31*%
%TO.N,GND*%
X120366500Y-30194500D03*
%TO.P,J2,30*%
X117826500Y-27654500D03*
%TO.P,J2,29*%
X117826500Y-30194500D03*
%TO.P,J2,28*%
X115286500Y-27654500D03*
%TO.P,J2,27*%
X115286500Y-30194500D03*
%TO.P,J2,26*%
%TO.N,TERMPOW*%
X112746500Y-27654500D03*
%TO.P,J2,25*%
%TO.N,Net-(J2-Pad25)*%
X112746500Y-30194500D03*
%TO.P,J2,24*%
%TO.N,GND*%
X110206500Y-27654500D03*
%TO.P,J2,23*%
X110206500Y-30194500D03*
%TO.P,J2,22*%
X107666500Y-27654500D03*
%TO.P,J2,21*%
X107666500Y-30194500D03*
%TO.P,J2,20*%
X105126500Y-27654500D03*
%TO.P,J2,19*%
X105126500Y-30194500D03*
%TO.P,J2,18*%
%TO.N,C-DP*%
X102586500Y-27654500D03*
%TO.P,J2,17*%
%TO.N,GND*%
X102586500Y-30194500D03*
%TO.P,J2,16*%
%TO.N,C-D7*%
X100046500Y-27654500D03*
%TO.P,J2,15*%
%TO.N,GND*%
X100046500Y-30194500D03*
%TO.P,J2,14*%
%TO.N,C-D6*%
X97506500Y-27654500D03*
%TO.P,J2,13*%
%TO.N,GND*%
X97506500Y-30194500D03*
%TO.P,J2,12*%
%TO.N,C-D5*%
X94966500Y-27654500D03*
%TO.P,J2,11*%
%TO.N,GND*%
X94966500Y-30194500D03*
%TO.P,J2,10*%
%TO.N,C-D4*%
X92426500Y-27654500D03*
%TO.P,J2,9*%
%TO.N,GND*%
X92426500Y-30194500D03*
%TO.P,J2,8*%
%TO.N,C-D3*%
X89886500Y-27654500D03*
%TO.P,J2,7*%
%TO.N,GND*%
X89886500Y-30194500D03*
%TO.P,J2,6*%
%TO.N,C-D2*%
X87346500Y-27654500D03*
%TO.P,J2,5*%
%TO.N,GND*%
X87346500Y-30194500D03*
%TO.P,J2,4*%
%TO.N,C-D1*%
X84806500Y-27654500D03*
%TO.P,J2,3*%
%TO.N,GND*%
X84806500Y-30194500D03*
%TO.P,J2,2*%
%TO.N,C-D0*%
X82266500Y-27654500D03*
D17*
%TO.P,J2,1*%
%TO.N,GND*%
X82266500Y-30194500D03*
%TD*%
D18*
%TO.P,J1,MH4*%
%TO.N,GND*%
X116702500Y5691000D03*
%TO.P,J1,MH3*%
X109552500Y5691000D03*
%TO.P,J1,MH2*%
X109552500Y9141000D03*
%TO.P,J1,MH1*%
X116702500Y9141000D03*
%TD*%
D16*
%TO.P,J3,2*%
%TO.N,GND*%
X103793000Y7969000D03*
D17*
%TO.P,J3,1*%
%TO.N,+5V*%
X101253000Y7969000D03*
%TD*%
D19*
%TO.P,H2,1*%
%TO.N,GND*%
X143231891Y8231891D03*
X141800000Y8825000D03*
X140368109Y8231891D03*
X139775000Y6800000D03*
X140368109Y5368109D03*
X141800000Y4775000D03*
X143231891Y5368109D03*
X143825000Y6800000D03*
D20*
X141800000Y6800000D03*
%TD*%
D19*
%TO.P,H1,1*%
%TO.N,GND*%
X85231891Y8231891D03*
X83800000Y8825000D03*
X82368109Y8231891D03*
X81775000Y6800000D03*
X82368109Y5368109D03*
X83800000Y4775000D03*
X85231891Y5368109D03*
X85825000Y6800000D03*
D20*
X83800000Y6800000D03*
%TD*%
D19*
%TO.P,H6,1*%
%TO.N,GND*%
X143231891Y-40768109D03*
X141800000Y-40175000D03*
X140368109Y-40768109D03*
X139775000Y-42200000D03*
X140368109Y-43631891D03*
X141800000Y-44225000D03*
X143231891Y-43631891D03*
X143825000Y-42200000D03*
D20*
X141800000Y-42200000D03*
%TD*%
D19*
%TO.P,H5,1*%
%TO.N,GND*%
X85231891Y-40768109D03*
X83800000Y-40175000D03*
X82368109Y-40768109D03*
X81775000Y-42200000D03*
X82368109Y-43631891D03*
X83800000Y-44225000D03*
X85231891Y-43631891D03*
X85825000Y-42200000D03*
D20*
X83800000Y-42200000D03*
%TD*%
D21*
%TO.N,GND*%
X125446500Y-25559000D03*
X127986500Y-25559000D03*
X120366500Y-25622500D03*
X82266500Y-25495500D03*
X84790625Y-25495500D03*
X87314750Y-25495500D03*
X89838875Y-25495500D03*
X92363000Y-25495500D03*
X94887125Y-25495500D03*
X97411250Y-25495500D03*
X99935375Y-25495500D03*
X102459500Y-25495500D03*
X130526500Y-25559000D03*
X133066500Y-25495500D03*
X135670000Y-25495500D03*
X138146500Y-25495500D03*
X140750000Y-25495500D03*
X143290000Y-25495500D03*
X112746500Y-25495500D03*
D22*
X106256800Y7994400D03*
X106256800Y3828800D03*
D21*
%TO.N,+5V*%
X133093713Y-13113000D03*
X130544642Y-13113000D03*
X135642784Y-13113000D03*
X138191855Y-13113000D03*
X143289997Y-13113000D03*
X140740926Y-13113000D03*
X127995571Y-13113000D03*
X125446500Y-13113000D03*
X120366500Y-13113000D03*
X112810000Y-13113000D03*
X102395996Y-13113000D03*
X99879809Y-13113000D03*
X97363622Y-13113000D03*
X94847435Y-13113000D03*
X92331248Y-13113000D03*
X89815061Y-13113000D03*
X87298874Y-13113000D03*
X84782687Y-13113000D03*
X82266500Y-13113000D03*
D22*
X116429500Y-13113000D03*
D21*
%TO.N,C-REQ*%
X139350000Y-31150000D03*
X130419308Y-32414713D03*
X140740926Y-19590003D03*
%TO.N,C-MSG*%
X133993502Y-31150000D03*
X128817950Y-31630159D03*
X133093713Y-19590003D03*
%TO.N,C-BSY*%
X124270000Y-30872990D03*
X117187010Y-31684832D03*
X125446500Y-19590003D03*
%TO.N,C-SEL*%
X114530000Y-32870000D03*
X135828947Y-32665648D03*
X135642784Y-19590003D03*
%TO.N,C-RST*%
X121540000Y-31560000D03*
X131560000Y-28920000D03*
X130544642Y-19590003D03*
%TO.N,C-ACK*%
X126730000Y-32950000D03*
X118812489Y-32689064D03*
X127995571Y-19590003D03*
%TO.N,C-ATN*%
X120366500Y-19590003D03*
%TO.N,C-DP*%
X111030000Y-31680000D03*
X100860000Y-33850000D03*
X102395996Y-19590003D03*
%TO.N,C-D0*%
X83780000Y-31480000D03*
X110120000Y-31630000D03*
X82266500Y-19590003D03*
%TO.N,C-D1*%
X86370000Y-31530000D03*
X108350000Y-31680000D03*
X84782687Y-19590003D03*
%TO.N,C-D2*%
X105950000Y-31630000D03*
X89002424Y-31302989D03*
X87298874Y-19590003D03*
%TO.N,C-D3*%
X104280000Y-31580000D03*
X91693529Y-31178968D03*
X89815061Y-19590003D03*
%TO.N,C-D4*%
X103220000Y-31750000D03*
X93930504Y-30851957D03*
X92331248Y-19590003D03*
%TO.N,C-D5*%
X96380000Y-31150000D03*
X102510000Y-31434946D03*
X94847435Y-19590003D03*
%TO.N,C-D6*%
X100973502Y-29027449D03*
X97363622Y-19590003D03*
%TO.N,C-D7*%
X99879809Y-19590003D03*
%TO.N,C-I_O*%
X142000000Y-31220000D03*
X125036247Y-31748511D03*
X143289997Y-19590003D03*
%TO.N,C-C_D*%
X137054940Y-31121502D03*
X126371042Y-31585360D03*
X138191855Y-19590003D03*
%TO.N,TERMPOW*%
X116610000Y-28880000D03*
X115320326Y-33454012D03*
X112746500Y-19590003D03*
%TD*%
D23*
%TO.N,GND*%
X107666500Y-34425100D02*
X107261600Y-34830000D01*
X107666500Y-30194500D02*
X107666500Y-34425100D01*
X112801600Y-37912262D02*
X112801600Y-34830000D01*
X111944361Y-38769501D02*
X112801600Y-37912262D01*
X108118839Y-38769501D02*
X111944361Y-38769501D01*
X107261600Y-37912262D02*
X108118839Y-38769501D01*
X107261600Y-34830000D02*
X107261600Y-37912262D01*
X112801600Y-32679400D02*
X112801600Y-34830000D01*
X115286500Y-30194500D02*
X112801600Y-32679400D01*
X122496600Y-31806481D02*
X122496600Y-37670000D01*
X122906500Y-31396581D02*
X122496600Y-31806481D01*
X122906500Y-30194500D02*
X122906500Y-31396581D01*
X126750000Y-28092962D02*
X126750000Y-25640000D01*
X126296499Y-28546463D02*
X126750000Y-28092962D01*
X125446500Y-30194500D02*
X126296499Y-29344501D01*
X126296499Y-29344501D02*
X126296499Y-28546463D01*
X129349499Y-25649499D02*
X129340000Y-25640000D01*
X129349499Y-29017499D02*
X129349499Y-25649499D01*
X130526500Y-30194500D02*
X129349499Y-29017499D01*
X122815538Y-26003500D02*
X123732000Y-26003500D01*
X121729499Y-27089539D02*
X122815538Y-26003500D01*
X121729499Y-29017499D02*
X121729499Y-27089539D01*
X122906500Y-30194500D02*
X121729499Y-29017499D01*
%TO.N,+5V*%
X116429500Y-13113000D02*
X82266500Y-13113000D01*
X143289997Y-13113000D02*
X116429500Y-13113000D01*
D24*
%TO.N,C-REQ*%
X139350000Y-28991000D02*
X140686500Y-27654500D01*
X139350000Y-31150000D02*
X139350000Y-28991000D01*
X129421600Y-34830000D02*
X129421600Y-33412421D01*
X129421600Y-33412421D02*
X130419308Y-32414713D01*
D25*
X140686500Y-27654500D02*
X141385000Y-26956000D01*
X141385000Y-20179648D02*
X140740926Y-19535574D01*
X141385000Y-26956000D02*
X141385000Y-20179648D01*
D24*
%TO.N,C-MSG*%
X133993502Y-30796447D02*
X133993502Y-31150000D01*
X133066500Y-27654500D02*
X134143501Y-28731501D01*
X134143501Y-30646448D02*
X133993502Y-30796447D01*
X134143501Y-28731501D02*
X134143501Y-30646448D01*
X126651600Y-34830000D02*
X128817950Y-32663650D01*
X128817950Y-32663650D02*
X128817950Y-31630159D01*
D25*
X133066500Y-27654500D02*
X133828500Y-26892500D01*
X133828500Y-20297574D02*
X133093713Y-19562787D01*
X133828500Y-26892500D02*
X133828500Y-20297574D01*
D24*
%TO.N,C-BSY*%
X124270000Y-28831000D02*
X124270000Y-30872990D01*
X125446500Y-27654500D02*
X124270000Y-28831000D01*
X117187010Y-32191212D02*
X117187010Y-31684832D01*
X116344099Y-34057501D02*
X116344099Y-33034123D01*
X116344099Y-33034123D02*
X117187010Y-32191212D01*
X115571600Y-34830000D02*
X116344099Y-34057501D01*
D25*
X126296499Y-25725001D02*
X126297990Y-25723510D01*
X126296499Y-26804501D02*
X126296499Y-25725001D01*
X125446500Y-27654500D02*
X126296499Y-26804501D01*
X126297990Y-20314490D02*
X125446500Y-19463000D01*
X126297990Y-25723510D02*
X126297990Y-20314490D01*
D24*
%TO.N,C-SEL*%
X114186600Y-33213400D02*
X114186600Y-37670000D01*
X114530000Y-32870000D02*
X114186600Y-33213400D01*
X134470512Y-31307213D02*
X135828947Y-32665648D01*
X135606500Y-27654500D02*
X134470512Y-28790488D01*
X134470512Y-28790488D02*
X134470512Y-31307213D01*
D25*
X136456499Y-20367431D02*
X135642784Y-19553716D01*
X136456499Y-26804501D02*
X136456499Y-20367431D01*
X135606500Y-27654500D02*
X136456499Y-26804501D01*
D24*
%TO.N,C-RST*%
X121111600Y-31988400D02*
X121540000Y-31560000D01*
X121111600Y-34830000D02*
X121111600Y-31988400D01*
D26*
X131560000Y-28688000D02*
X131560000Y-28920000D01*
X130526500Y-27654500D02*
X131560000Y-28688000D01*
D25*
X130526500Y-27591000D02*
X130024499Y-27088999D01*
X130526500Y-27654500D02*
X130526500Y-27591000D01*
X130526500Y-27654500D02*
X131542500Y-26638500D01*
X131542500Y-20442716D02*
X130544642Y-19444858D01*
X131542500Y-26638500D02*
X131542500Y-20442716D01*
D24*
%TO.N,C-ACK*%
X126909499Y-28731501D02*
X126909499Y-32770501D01*
X126909499Y-32770501D02*
X126730000Y-32950000D01*
X127986500Y-27654500D02*
X126909499Y-28731501D01*
X118341600Y-33159953D02*
X118812489Y-32689064D01*
X118341600Y-34830000D02*
X118341600Y-33159953D01*
D25*
X127986500Y-27654500D02*
X127484499Y-27152499D01*
X127986500Y-27654500D02*
X128887991Y-26753009D01*
X128887991Y-20409849D02*
X127995571Y-19517429D01*
X128887991Y-26753009D02*
X128887991Y-20409849D01*
D24*
%TO.N,C-ATN*%
X119726600Y-34924262D02*
X119726600Y-37670000D01*
X119289499Y-34487161D02*
X119726600Y-34924262D01*
X119289499Y-28731501D02*
X119289499Y-34487161D01*
X120366500Y-27654500D02*
X119289499Y-28731501D01*
D25*
X120366500Y-27654500D02*
X121065000Y-26956000D01*
X121065000Y-20098000D02*
X120366500Y-19399500D01*
X121065000Y-26956000D02*
X121065000Y-20098000D01*
D24*
%TO.N,C-DP*%
X111416600Y-37670000D02*
X111416600Y-33276600D01*
X111416600Y-33276600D02*
X111030000Y-32890000D01*
X111030000Y-32890000D02*
X111030000Y-31680000D01*
X101450512Y-28790488D02*
X102586500Y-27654500D01*
X101450512Y-33259488D02*
X101450512Y-28790488D01*
X100860000Y-33850000D02*
X101450512Y-33259488D01*
D25*
X102586500Y-27654500D02*
X103539000Y-26702000D01*
X103539000Y-20733007D02*
X102395996Y-19590003D01*
X103539000Y-26702000D02*
X103539000Y-20733007D01*
D24*
%TO.N,C-D0*%
X83343501Y-31043501D02*
X83780000Y-31480000D01*
X82266500Y-27654500D02*
X83343501Y-28731501D01*
X83343501Y-28731501D02*
X83343501Y-31043501D01*
X110120000Y-34741600D02*
X110031600Y-34830000D01*
X110120000Y-31630000D02*
X110120000Y-34741600D01*
D25*
X82266500Y-27654500D02*
X83092000Y-26829000D01*
X83092000Y-20415503D02*
X82266500Y-19590003D01*
X83092000Y-26829000D02*
X83092000Y-20415503D01*
D24*
%TO.N,C-D1*%
X85883501Y-31043501D02*
X86370000Y-31530000D01*
X84806500Y-27654500D02*
X85883501Y-28731501D01*
X85883501Y-28731501D02*
X85883501Y-31043501D01*
X108350000Y-37373400D02*
X108646600Y-37670000D01*
X108350000Y-31680000D02*
X108350000Y-37373400D01*
D25*
X84806500Y-27654500D02*
X85505000Y-26956000D01*
X85505000Y-20312316D02*
X84782687Y-19590003D01*
X85505000Y-26956000D02*
X85505000Y-20312316D01*
D24*
%TO.N,C-D2*%
X105950000Y-37596600D02*
X105876600Y-37670000D01*
X105950000Y-31630000D02*
X105950000Y-37596600D01*
X88423501Y-30724066D02*
X89002424Y-31302989D01*
X88423501Y-28731501D02*
X88423501Y-30724066D01*
X87346500Y-27654500D02*
X88423501Y-28731501D01*
D25*
X87346500Y-27654500D02*
X88108500Y-26892500D01*
X88108500Y-20399629D02*
X87298874Y-19590003D01*
X88108500Y-26892500D02*
X88108500Y-20399629D01*
D24*
%TO.N,C-D3*%
X104280000Y-34618400D02*
X104491600Y-34830000D01*
X104280000Y-31580000D02*
X104280000Y-34618400D01*
X90963501Y-28731501D02*
X90963501Y-30448940D01*
X89886500Y-27654500D02*
X90963501Y-28731501D01*
X90963501Y-30448940D02*
X91693529Y-31178968D01*
D25*
X89886500Y-27654500D02*
X90775500Y-26765500D01*
X90775500Y-20550442D02*
X89815061Y-19590003D01*
X90775500Y-26765500D02*
X90775500Y-20550442D01*
D24*
%TO.N,C-D4*%
X103220000Y-37556600D02*
X103106600Y-37670000D01*
X103220000Y-31750000D02*
X103220000Y-37556600D01*
X93503501Y-28731501D02*
X93503501Y-30424954D01*
X93503501Y-30424954D02*
X93930504Y-30851957D01*
X92426500Y-27654500D02*
X93503501Y-28731501D01*
D25*
X92426500Y-27654500D02*
X93442500Y-26638500D01*
X93442500Y-20701255D02*
X92331248Y-19590003D01*
X93442500Y-26638500D02*
X93442500Y-20701255D01*
%TO.N,C-D5*%
X94585500Y-27273500D02*
X94966500Y-27654500D01*
X95097490Y-27523510D02*
X94966500Y-27654500D01*
D24*
X94966500Y-27654500D02*
X96380000Y-29068000D01*
X96380000Y-29068000D02*
X96380000Y-31150000D01*
X102510000Y-34041600D02*
X102510000Y-31434946D01*
X101721600Y-34830000D02*
X102510000Y-34041600D01*
D25*
X94966500Y-27654500D02*
X95982500Y-26638500D01*
X95982500Y-20725068D02*
X94847435Y-19590003D01*
X95982500Y-26638500D02*
X95982500Y-20725068D01*
D24*
%TO.N,C-D6*%
X98951600Y-34830000D02*
X101123501Y-32658099D01*
X101123501Y-29531001D02*
X100973502Y-29381002D01*
X101123501Y-32658099D02*
X101123501Y-29531001D01*
X100973502Y-29381002D02*
X100973502Y-29027449D01*
D25*
X97506500Y-27654500D02*
X98268500Y-26892500D01*
X98268500Y-20494881D02*
X97363622Y-19590003D01*
X98268500Y-26892500D02*
X98268500Y-20494881D01*
%TO.N,C-D7*%
X100046500Y-26829000D02*
X100046500Y-27654500D01*
D24*
X98969499Y-32042101D02*
X96181600Y-34830000D01*
X98969499Y-28731501D02*
X98969499Y-32042101D01*
X100046500Y-27654500D02*
X98969499Y-28731501D01*
D25*
X100046500Y-27654500D02*
X100935500Y-26765500D01*
X100935500Y-20645694D02*
X99879809Y-19590003D01*
X100935500Y-26765500D02*
X100935500Y-20645694D01*
D24*
%TO.N,C-I_O*%
X142000000Y-28881000D02*
X143226500Y-27654500D01*
X142000000Y-31220000D02*
X142000000Y-28881000D01*
X123881600Y-34830000D02*
X123881600Y-32903158D01*
X123881600Y-32903158D02*
X125036247Y-31748511D01*
D25*
X143226500Y-27654500D02*
X144052000Y-26829000D01*
X144052000Y-20352006D02*
X143289997Y-19590003D01*
X144052000Y-26829000D02*
X144052000Y-20352006D01*
D24*
%TO.N,C-C_D*%
X137054940Y-28746060D02*
X137054940Y-31121502D01*
X138146500Y-27654500D02*
X137054940Y-28746060D01*
X125266600Y-32604208D02*
X126301830Y-31568978D01*
X126301830Y-31568978D02*
X126354660Y-31568978D01*
X125266600Y-37670000D02*
X125266600Y-32604208D01*
X126354660Y-31568978D02*
X126371042Y-31585360D01*
D25*
X138146500Y-27654500D02*
X138908500Y-26892500D01*
X138908500Y-20261290D02*
X138191855Y-19544645D01*
X138908500Y-26892500D02*
X138908500Y-20261290D01*
D23*
%TO.N,TERMPOW*%
X116610000Y-28880000D02*
X116610000Y-32164338D01*
X116610000Y-32164338D02*
X115320326Y-33454012D01*
D25*
X112746500Y-27654500D02*
X113445000Y-26956000D01*
X113445000Y-20288500D02*
X112746500Y-19590000D01*
X113445000Y-26956000D02*
X113445000Y-20288500D01*
%TD*%
D27*
%TO.N,GND*%
G36*
X82393500Y-30067500D02*
G01*
X82413500Y-30067500D01*
X82413500Y-30321500D01*
X82393500Y-30321500D01*
X82393500Y-31520750D01*
X82552250Y-31679500D01*
X82917741Y-31681490D01*
X82929010Y-31738145D01*
X82995723Y-31899205D01*
X83092576Y-32044155D01*
X83215845Y-32167424D01*
X83360795Y-32264277D01*
X83521855Y-32330990D01*
X83692835Y-32365000D01*
X83867165Y-32365000D01*
X84038145Y-32330990D01*
X84199205Y-32264277D01*
X84344155Y-32167424D01*
X84467424Y-32044155D01*
X84564277Y-31899205D01*
X84630990Y-31738145D01*
X84665000Y-31567165D01*
X84665000Y-31522307D01*
X84679500Y-31514655D01*
X84679500Y-30321500D01*
X84659500Y-30321500D01*
X84659500Y-30067500D01*
X84679500Y-30067500D01*
X84679500Y-30047500D01*
X84933500Y-30047500D01*
X84933500Y-30067500D01*
X84953500Y-30067500D01*
X84953500Y-30321500D01*
X84933500Y-30321500D01*
X84933500Y-31514655D01*
X85163390Y-31635976D01*
X85310599Y-31591325D01*
X85362385Y-31566659D01*
X85389309Y-31588755D01*
X85501706Y-31701152D01*
X85519010Y-31788145D01*
X85585723Y-31949205D01*
X85682576Y-32094155D01*
X85805845Y-32217424D01*
X85950795Y-32314277D01*
X86111855Y-32380990D01*
X86282835Y-32415000D01*
X86457165Y-32415000D01*
X86628145Y-32380990D01*
X86789205Y-32314277D01*
X86934155Y-32217424D01*
X87057424Y-32094155D01*
X87154277Y-31949205D01*
X87220990Y-31788145D01*
X87255000Y-31617165D01*
X87255000Y-31442835D01*
X87220990Y-31271855D01*
X87219500Y-31268258D01*
X87219500Y-30321500D01*
X87199500Y-30321500D01*
X87199500Y-30067500D01*
X87219500Y-30067500D01*
X87219500Y-30047500D01*
X87473500Y-30047500D01*
X87473500Y-30067500D01*
X87493500Y-30067500D01*
X87493500Y-30321500D01*
X87473500Y-30321500D01*
X87473500Y-31514655D01*
X87703390Y-31635976D01*
X87850599Y-31591325D01*
X88113420Y-31466141D01*
X88120700Y-31460711D01*
X88134130Y-31474142D01*
X88151434Y-31561134D01*
X88218147Y-31722194D01*
X88315000Y-31867144D01*
X88438269Y-31990413D01*
X88583219Y-32087266D01*
X88744279Y-32153979D01*
X88915259Y-32187989D01*
X89089589Y-32187989D01*
X89260569Y-32153979D01*
X89421629Y-32087266D01*
X89566579Y-31990413D01*
X89689848Y-31867144D01*
X89786701Y-31722194D01*
X89853414Y-31561134D01*
X89887424Y-31390154D01*
X89887424Y-31215824D01*
X89853414Y-31044844D01*
X89786701Y-30883784D01*
X89759500Y-30843075D01*
X89759500Y-30321500D01*
X89739500Y-30321500D01*
X89739500Y-30067500D01*
X89759500Y-30067500D01*
X89759500Y-30047500D01*
X90013500Y-30047500D01*
X90013500Y-30067500D01*
X90033500Y-30067500D01*
X90033500Y-30321500D01*
X90013500Y-30321500D01*
X90013500Y-31514655D01*
X90243390Y-31635976D01*
X90390599Y-31591325D01*
X90653420Y-31466141D01*
X90818284Y-31343170D01*
X90825235Y-31350121D01*
X90842539Y-31437113D01*
X90909252Y-31598173D01*
X91006105Y-31743123D01*
X91129374Y-31866392D01*
X91274324Y-31963245D01*
X91435384Y-32029958D01*
X91606364Y-32063968D01*
X91780694Y-32063968D01*
X91951674Y-32029958D01*
X92112734Y-31963245D01*
X92257684Y-31866392D01*
X92380953Y-31743123D01*
X92477806Y-31598173D01*
X92544519Y-31437113D01*
X92553500Y-31391962D01*
X92553500Y-31514655D01*
X92783390Y-31635976D01*
X92930599Y-31591325D01*
X93193420Y-31466141D01*
X93250519Y-31423551D01*
X93366349Y-31539381D01*
X93511299Y-31636234D01*
X93672359Y-31702947D01*
X93843339Y-31736957D01*
X94017669Y-31736957D01*
X94188649Y-31702947D01*
X94349709Y-31636234D01*
X94435848Y-31578678D01*
X94462401Y-31591325D01*
X94609610Y-31635976D01*
X94839500Y-31514655D01*
X94839500Y-30321500D01*
X94819500Y-30321500D01*
X94819500Y-30067500D01*
X94839500Y-30067500D01*
X94839500Y-30047500D01*
X95093500Y-30047500D01*
X95093500Y-30067500D01*
X95113500Y-30067500D01*
X95113500Y-30321500D01*
X95093500Y-30321500D01*
X95093500Y-31514655D01*
X95323390Y-31635976D01*
X95470599Y-31591325D01*
X95582757Y-31537903D01*
X95595723Y-31569205D01*
X95692576Y-31714155D01*
X95815845Y-31837424D01*
X95960795Y-31934277D01*
X96121855Y-32000990D01*
X96292835Y-32035000D01*
X96467165Y-32035000D01*
X96638145Y-32000990D01*
X96799205Y-31934277D01*
X96944155Y-31837424D01*
X97067424Y-31714155D01*
X97124709Y-31628423D01*
X97149610Y-31635976D01*
X97379500Y-31514655D01*
X97379500Y-30321500D01*
X97359500Y-30321500D01*
X97359500Y-30067500D01*
X97379500Y-30067500D01*
X97379500Y-30047500D01*
X97633500Y-30047500D01*
X97633500Y-30067500D01*
X97653500Y-30067500D01*
X97653500Y-30321500D01*
X97633500Y-30321500D01*
X97633500Y-31514655D01*
X97863390Y-31635976D01*
X98010599Y-31591325D01*
X98234500Y-31484679D01*
X98234500Y-31737653D01*
X96511589Y-33460565D01*
X96320227Y-33422500D01*
X96042973Y-33422500D01*
X95771047Y-33476590D01*
X95514899Y-33582690D01*
X95284371Y-33736724D01*
X95088324Y-33932771D01*
X94934290Y-34163299D01*
X94828190Y-34419447D01*
X94774100Y-34691373D01*
X94774100Y-34968627D01*
X94828190Y-35240553D01*
X94934290Y-35496701D01*
X95088324Y-35727229D01*
X95284371Y-35923276D01*
X95514899Y-36077310D01*
X95771047Y-36183410D01*
X96042973Y-36237500D01*
X96320227Y-36237500D01*
X96592153Y-36183410D01*
X96848301Y-36077310D01*
X97078829Y-35923276D01*
X97274876Y-35727229D01*
X97428910Y-35496701D01*
X97535010Y-35240553D01*
X97566600Y-35081741D01*
X97598190Y-35240553D01*
X97704290Y-35496701D01*
X97858324Y-35727229D01*
X98054371Y-35923276D01*
X98284899Y-36077310D01*
X98541047Y-36183410D01*
X98812973Y-36237500D01*
X99090227Y-36237500D01*
X99362153Y-36183410D01*
X99618301Y-36077310D01*
X99848829Y-35923276D01*
X100044876Y-35727229D01*
X100198910Y-35496701D01*
X100305010Y-35240553D01*
X100336600Y-35081741D01*
X100368190Y-35240553D01*
X100474290Y-35496701D01*
X100628324Y-35727229D01*
X100824371Y-35923276D01*
X101054899Y-36077310D01*
X101311047Y-36183410D01*
X101582973Y-36237500D01*
X101860227Y-36237500D01*
X102132153Y-36183410D01*
X102388301Y-36077310D01*
X102485001Y-36012697D01*
X102485001Y-36404008D01*
X102439899Y-36422690D01*
X102209371Y-36576724D01*
X102013324Y-36772771D01*
X101859290Y-37003299D01*
X101753190Y-37259447D01*
X101721878Y-37416862D01*
X101707987Y-37324212D01*
X101614176Y-37063312D01*
X101550827Y-36944793D01*
X101309664Y-36876541D01*
X100516205Y-37670000D01*
X101309664Y-38463459D01*
X101550827Y-38395207D01*
X101668977Y-38144389D01*
X101722834Y-37927946D01*
X101753190Y-38080553D01*
X101859290Y-38336701D01*
X102013324Y-38567229D01*
X102209371Y-38763276D01*
X102439899Y-38917310D01*
X102696047Y-39023410D01*
X102967973Y-39077500D01*
X103245227Y-39077500D01*
X103517153Y-39023410D01*
X103773301Y-38917310D01*
X104003829Y-38763276D01*
X104199876Y-38567229D01*
X104353910Y-38336701D01*
X104460010Y-38080553D01*
X104491600Y-37921741D01*
X104523190Y-38080553D01*
X104629290Y-38336701D01*
X104783324Y-38567229D01*
X104979371Y-38763276D01*
X105209899Y-38917310D01*
X105466047Y-39023410D01*
X105737973Y-39077500D01*
X106015227Y-39077500D01*
X106287153Y-39023410D01*
X106543301Y-38917310D01*
X106773829Y-38763276D01*
X106969876Y-38567229D01*
X107123910Y-38336701D01*
X107230010Y-38080553D01*
X107261600Y-37921741D01*
X107293190Y-38080553D01*
X107399290Y-38336701D01*
X107553324Y-38567229D01*
X107749371Y-38763276D01*
X107979899Y-38917310D01*
X108236047Y-39023410D01*
X108507973Y-39077500D01*
X108785227Y-39077500D01*
X109057153Y-39023410D01*
X109313301Y-38917310D01*
X109543829Y-38763276D01*
X109739876Y-38567229D01*
X109893910Y-38336701D01*
X110000010Y-38080553D01*
X110031600Y-37921741D01*
X110063190Y-38080553D01*
X110169290Y-38336701D01*
X110323324Y-38567229D01*
X110519371Y-38763276D01*
X110749899Y-38917310D01*
X111006047Y-39023410D01*
X111277973Y-39077500D01*
X111555227Y-39077500D01*
X111827153Y-39023410D01*
X112083301Y-38917310D01*
X112313829Y-38763276D01*
X112509876Y-38567229D01*
X112663910Y-38336701D01*
X112770010Y-38080553D01*
X112801600Y-37921741D01*
X112833190Y-38080553D01*
X112939290Y-38336701D01*
X113093324Y-38567229D01*
X113289371Y-38763276D01*
X113519899Y-38917310D01*
X113776047Y-39023410D01*
X114047973Y-39077500D01*
X114325227Y-39077500D01*
X114597153Y-39023410D01*
X114853301Y-38917310D01*
X115083829Y-38763276D01*
X115204041Y-38643064D01*
X116163141Y-38643064D01*
X116231393Y-38884227D01*
X116482211Y-39002377D01*
X116751260Y-39069324D01*
X117028200Y-39082496D01*
X117302388Y-39041387D01*
X117563288Y-38947576D01*
X117681807Y-38884227D01*
X117750059Y-38643064D01*
X116956600Y-37849605D01*
X116163141Y-38643064D01*
X115204041Y-38643064D01*
X115279876Y-38567229D01*
X115433910Y-38336701D01*
X115540010Y-38080553D01*
X115571322Y-37923138D01*
X115585213Y-38015788D01*
X115679024Y-38276688D01*
X115742373Y-38395207D01*
X115983536Y-38463459D01*
X116776995Y-37670000D01*
X115983536Y-36876541D01*
X115742373Y-36944793D01*
X115624223Y-37195611D01*
X115570366Y-37412054D01*
X115540010Y-37259447D01*
X115433910Y-37003299D01*
X115279876Y-36772771D01*
X115204041Y-36696936D01*
X116163141Y-36696936D01*
X116956600Y-37490395D01*
X117750059Y-36696936D01*
X117681807Y-36455773D01*
X117430989Y-36337623D01*
X117161940Y-36270676D01*
X116885000Y-36257504D01*
X116610812Y-36298613D01*
X116349912Y-36392424D01*
X116231393Y-36455773D01*
X116163141Y-36696936D01*
X115204041Y-36696936D01*
X115083829Y-36576724D01*
X114921600Y-36468326D01*
X114921600Y-36084228D01*
X115161047Y-36183410D01*
X115432973Y-36237500D01*
X115710227Y-36237500D01*
X115982153Y-36183410D01*
X116238301Y-36077310D01*
X116468829Y-35923276D01*
X116664876Y-35727229D01*
X116818910Y-35496701D01*
X116925010Y-35240553D01*
X116956600Y-35081741D01*
X116988190Y-35240553D01*
X117094290Y-35496701D01*
X117248324Y-35727229D01*
X117444371Y-35923276D01*
X117674899Y-36077310D01*
X117931047Y-36183410D01*
X118202973Y-36237500D01*
X118480227Y-36237500D01*
X118752153Y-36183410D01*
X118991600Y-36084228D01*
X118991601Y-36468326D01*
X118829371Y-36576724D01*
X118633324Y-36772771D01*
X118479290Y-37003299D01*
X118373190Y-37259447D01*
X118341878Y-37416862D01*
X118327987Y-37324212D01*
X118234176Y-37063312D01*
X118170827Y-36944793D01*
X117929664Y-36876541D01*
X117136205Y-37670000D01*
X117929664Y-38463459D01*
X118170827Y-38395207D01*
X118288977Y-38144389D01*
X118342834Y-37927946D01*
X118373190Y-38080553D01*
X118479290Y-38336701D01*
X118633324Y-38567229D01*
X118829371Y-38763276D01*
X119059899Y-38917310D01*
X119316047Y-39023410D01*
X119587973Y-39077500D01*
X119865227Y-39077500D01*
X120137153Y-39023410D01*
X120393301Y-38917310D01*
X120623829Y-38763276D01*
X120744041Y-38643064D01*
X121703141Y-38643064D01*
X121771393Y-38884227D01*
X122022211Y-39002377D01*
X122291260Y-39069324D01*
X122568200Y-39082496D01*
X122842388Y-39041387D01*
X123103288Y-38947576D01*
X123221807Y-38884227D01*
X123290059Y-38643064D01*
X122496600Y-37849605D01*
X121703141Y-38643064D01*
X120744041Y-38643064D01*
X120819876Y-38567229D01*
X120973910Y-38336701D01*
X121080010Y-38080553D01*
X121111322Y-37923138D01*
X121125213Y-38015788D01*
X121219024Y-38276688D01*
X121282373Y-38395207D01*
X121523536Y-38463459D01*
X122316995Y-37670000D01*
X121523536Y-36876541D01*
X121282373Y-36944793D01*
X121164223Y-37195611D01*
X121110366Y-37412054D01*
X121080010Y-37259447D01*
X120973910Y-37003299D01*
X120819876Y-36772771D01*
X120744041Y-36696936D01*
X121703141Y-36696936D01*
X122496600Y-37490395D01*
X123290059Y-36696936D01*
X123221807Y-36455773D01*
X122970989Y-36337623D01*
X122701940Y-36270676D01*
X122425000Y-36257504D01*
X122150812Y-36298613D01*
X121889912Y-36392424D01*
X121771393Y-36455773D01*
X121703141Y-36696936D01*
X120744041Y-36696936D01*
X120623829Y-36576724D01*
X120461600Y-36468326D01*
X120461600Y-36084228D01*
X120701047Y-36183410D01*
X120972973Y-36237500D01*
X121250227Y-36237500D01*
X121522153Y-36183410D01*
X121778301Y-36077310D01*
X122008829Y-35923276D01*
X122204876Y-35727229D01*
X122358910Y-35496701D01*
X122465010Y-35240553D01*
X122496600Y-35081741D01*
X122528190Y-35240553D01*
X122634290Y-35496701D01*
X122788324Y-35727229D01*
X122984371Y-35923276D01*
X123214899Y-36077310D01*
X123471047Y-36183410D01*
X123742973Y-36237500D01*
X124020227Y-36237500D01*
X124292153Y-36183410D01*
X124531600Y-36084228D01*
X124531600Y-36468326D01*
X124369371Y-36576724D01*
X124173324Y-36772771D01*
X124019290Y-37003299D01*
X123913190Y-37259447D01*
X123881878Y-37416862D01*
X123867987Y-37324212D01*
X123774176Y-37063312D01*
X123710827Y-36944793D01*
X123469664Y-36876541D01*
X122676205Y-37670000D01*
X123469664Y-38463459D01*
X123710827Y-38395207D01*
X123828977Y-38144389D01*
X123882834Y-37927946D01*
X123913190Y-38080553D01*
X124019290Y-38336701D01*
X124173324Y-38567229D01*
X124369371Y-38763276D01*
X124599899Y-38917310D01*
X124856047Y-39023410D01*
X125127973Y-39077500D01*
X125405227Y-39077500D01*
X125677153Y-39023410D01*
X125933301Y-38917310D01*
X126163829Y-38763276D01*
X126284041Y-38643064D01*
X127243141Y-38643064D01*
X127311393Y-38884227D01*
X127562211Y-39002377D01*
X127831260Y-39069324D01*
X128108200Y-39082496D01*
X128382388Y-39041387D01*
X128643288Y-38947576D01*
X128761807Y-38884227D01*
X128830059Y-38643064D01*
X128036600Y-37849605D01*
X127243141Y-38643064D01*
X126284041Y-38643064D01*
X126359876Y-38567229D01*
X126513910Y-38336701D01*
X126620010Y-38080553D01*
X126651322Y-37923138D01*
X126665213Y-38015788D01*
X126759024Y-38276688D01*
X126822373Y-38395207D01*
X127063536Y-38463459D01*
X127856995Y-37670000D01*
X128216205Y-37670000D01*
X129009664Y-38463459D01*
X129250827Y-38395207D01*
X129368977Y-38144389D01*
X129435924Y-37875340D01*
X129449096Y-37598400D01*
X129407987Y-37324212D01*
X129314176Y-37063312D01*
X129250827Y-36944793D01*
X129009664Y-36876541D01*
X128216205Y-37670000D01*
X127856995Y-37670000D01*
X127063536Y-36876541D01*
X126822373Y-36944793D01*
X126704223Y-37195611D01*
X126650366Y-37412054D01*
X126620010Y-37259447D01*
X126513910Y-37003299D01*
X126359876Y-36772771D01*
X126284041Y-36696936D01*
X127243141Y-36696936D01*
X128036600Y-37490395D01*
X128830059Y-36696936D01*
X128761807Y-36455773D01*
X128510989Y-36337623D01*
X128241940Y-36270676D01*
X127965000Y-36257504D01*
X127690812Y-36298613D01*
X127429912Y-36392424D01*
X127311393Y-36455773D01*
X127243141Y-36696936D01*
X126284041Y-36696936D01*
X126163829Y-36576724D01*
X126001600Y-36468326D01*
X126001600Y-36256387D01*
X133249313Y-36256387D01*
X133309592Y-36855638D01*
X133485620Y-37431614D01*
X133763538Y-37951561D01*
X134173569Y-38218426D01*
X136141995Y-36250000D01*
X136501205Y-36250000D01*
X138469631Y-38218426D01*
X138879662Y-37951561D01*
X139162467Y-37419813D01*
X139336100Y-36843109D01*
X139393887Y-36243613D01*
X139333608Y-35644362D01*
X139157580Y-35068386D01*
X138879662Y-34548439D01*
X138469631Y-34281574D01*
X136501205Y-36250000D01*
X136141995Y-36250000D01*
X134173569Y-34281574D01*
X133763538Y-34548439D01*
X133480733Y-35080187D01*
X133307100Y-35656891D01*
X133249313Y-36256387D01*
X126001600Y-36256387D01*
X126001600Y-36084228D01*
X126241047Y-36183410D01*
X126512973Y-36237500D01*
X126790227Y-36237500D01*
X127062153Y-36183410D01*
X127318301Y-36077310D01*
X127548829Y-35923276D01*
X127744876Y-35727229D01*
X127898910Y-35496701D01*
X128005010Y-35240553D01*
X128036600Y-35081741D01*
X128068190Y-35240553D01*
X128174290Y-35496701D01*
X128328324Y-35727229D01*
X128524371Y-35923276D01*
X128754899Y-36077310D01*
X129011047Y-36183410D01*
X129282973Y-36237500D01*
X129560227Y-36237500D01*
X129832153Y-36183410D01*
X130088301Y-36077310D01*
X130318829Y-35923276D01*
X130514876Y-35727229D01*
X130668910Y-35496701D01*
X130775010Y-35240553D01*
X130829100Y-34968627D01*
X130829100Y-34691373D01*
X130775010Y-34419447D01*
X130668910Y-34163299D01*
X130514876Y-33932771D01*
X130318829Y-33736724D01*
X130209677Y-33663791D01*
X130590461Y-33283007D01*
X130677453Y-33265703D01*
X130838513Y-33198990D01*
X130983463Y-33102137D01*
X131106732Y-32978868D01*
X131203585Y-32833918D01*
X131270298Y-32672858D01*
X131304308Y-32501878D01*
X131304308Y-32327548D01*
X131270298Y-32156568D01*
X131203585Y-31995508D01*
X131106732Y-31850558D01*
X130983463Y-31727289D01*
X130838513Y-31630436D01*
X130677453Y-31563723D01*
X130653502Y-31558959D01*
X130653502Y-31514656D01*
X130883390Y-31635976D01*
X131030599Y-31591325D01*
X131293420Y-31466141D01*
X131526769Y-31292088D01*
X131721678Y-31075855D01*
X131796500Y-30950245D01*
X131871322Y-31075855D01*
X132066231Y-31292088D01*
X132299580Y-31466141D01*
X132562401Y-31591325D01*
X132709610Y-31635976D01*
X132939500Y-31514655D01*
X132939500Y-30321500D01*
X130653500Y-30321500D01*
X130653500Y-30341500D01*
X130399500Y-30341500D01*
X130399500Y-30321500D01*
X128113500Y-30321500D01*
X128113500Y-30341500D01*
X127859500Y-30341500D01*
X127859500Y-30321500D01*
X127839500Y-30321500D01*
X127839500Y-30067500D01*
X127859500Y-30067500D01*
X127859500Y-30047500D01*
X128113500Y-30047500D01*
X128113500Y-30067500D01*
X130399500Y-30067500D01*
X130399500Y-30047500D01*
X130653500Y-30047500D01*
X130653500Y-30067500D01*
X132939500Y-30067500D01*
X132939500Y-30047500D01*
X133193500Y-30047500D01*
X133193500Y-30067500D01*
X133213500Y-30067500D01*
X133213500Y-30321500D01*
X133193500Y-30321500D01*
X133193500Y-30768759D01*
X133142512Y-30891855D01*
X133108502Y-31062835D01*
X133108502Y-31237165D01*
X133142512Y-31408145D01*
X133209225Y-31569205D01*
X133306078Y-31714155D01*
X133429347Y-31837424D01*
X133574297Y-31934277D01*
X133735357Y-32000990D01*
X133906337Y-32035000D01*
X134080667Y-32035000D01*
X134145881Y-32022028D01*
X134960653Y-32836801D01*
X134977957Y-32923793D01*
X135044670Y-33084853D01*
X135141523Y-33229803D01*
X135264792Y-33353072D01*
X135288211Y-33368720D01*
X135139986Y-33414020D01*
X134620039Y-33691938D01*
X134353174Y-34101969D01*
X136321600Y-36070395D01*
X138290026Y-34101969D01*
X138023161Y-33691938D01*
X137491413Y-33409133D01*
X136914709Y-33235500D01*
X136536898Y-33199082D01*
X136613224Y-33084853D01*
X136679937Y-32923793D01*
X136713947Y-32752813D01*
X136713947Y-32578483D01*
X136679937Y-32407503D01*
X136613224Y-32246443D01*
X136516371Y-32101493D01*
X136393102Y-31978224D01*
X136248152Y-31881371D01*
X136087092Y-31814658D01*
X136000100Y-31797354D01*
X135733502Y-31530757D01*
X135733502Y-31514656D01*
X135963390Y-31635976D01*
X136110599Y-31591325D01*
X136261799Y-31519307D01*
X136270663Y-31540707D01*
X136367516Y-31685657D01*
X136490785Y-31808926D01*
X136635735Y-31905779D01*
X136796795Y-31972492D01*
X136967775Y-32006502D01*
X137142105Y-32006502D01*
X137313085Y-31972492D01*
X137474145Y-31905779D01*
X137619095Y-31808926D01*
X137742364Y-31685657D01*
X137777928Y-31632433D01*
X137789610Y-31635976D01*
X138019500Y-31514655D01*
X138019500Y-30321500D01*
X137999500Y-30321500D01*
X137999500Y-30067500D01*
X138019500Y-30067500D01*
X138019500Y-30047500D01*
X138273500Y-30047500D01*
X138273500Y-30067500D01*
X138293500Y-30067500D01*
X138293500Y-30321500D01*
X138273500Y-30321500D01*
X138273500Y-31514655D01*
X138503390Y-31635976D01*
X138592316Y-31609003D01*
X138662576Y-31714155D01*
X138785845Y-31837424D01*
X138930795Y-31934277D01*
X139091855Y-32000990D01*
X139262835Y-32035000D01*
X139437165Y-32035000D01*
X139608145Y-32000990D01*
X139769205Y-31934277D01*
X139914155Y-31837424D01*
X140037424Y-31714155D01*
X140134277Y-31569205D01*
X140134554Y-31568535D01*
X140182401Y-31591325D01*
X140329610Y-31635976D01*
X140559500Y-31514655D01*
X140559500Y-30321500D01*
X140539500Y-30321500D01*
X140539500Y-30067500D01*
X140559500Y-30067500D01*
X140559500Y-30047500D01*
X140813500Y-30047500D01*
X140813500Y-30067500D01*
X140833500Y-30067500D01*
X140833500Y-30321500D01*
X140813500Y-30321500D01*
X140813500Y-31514655D01*
X141043390Y-31635976D01*
X141190599Y-31591325D01*
X141195019Y-31589220D01*
X141215723Y-31639205D01*
X141312576Y-31784155D01*
X141435845Y-31907424D01*
X141580795Y-32004277D01*
X141741855Y-32070990D01*
X141912835Y-32105000D01*
X142087165Y-32105000D01*
X142258145Y-32070990D01*
X142419205Y-32004277D01*
X142564155Y-31907424D01*
X142687424Y-31784155D01*
X142784277Y-31639205D01*
X142794990Y-31613342D01*
X142869610Y-31635976D01*
X143099500Y-31514655D01*
X143099500Y-30321500D01*
X143079500Y-30321500D01*
X143079500Y-30067500D01*
X143099500Y-30067500D01*
X143099500Y-30047500D01*
X143353500Y-30047500D01*
X143353500Y-30067500D01*
X143373500Y-30067500D01*
X143373500Y-30321500D01*
X143353500Y-30321500D01*
X143353500Y-31514655D01*
X143583390Y-31635976D01*
X143730599Y-31591325D01*
X143993420Y-31466141D01*
X144226769Y-31292088D01*
X144421678Y-31075855D01*
X144570657Y-30825752D01*
X144640001Y-30630269D01*
X144640001Y-40437918D01*
X144588904Y-40342008D01*
X144583828Y-40334411D01*
X144145374Y-40034231D01*
X141979605Y-42200000D01*
X141993748Y-42214143D01*
X141814143Y-42393748D01*
X141800000Y-42379605D01*
X139634231Y-44545374D01*
X139934411Y-44983828D01*
X140031699Y-45036000D01*
X139138370Y-45036000D01*
X139135500Y-45006865D01*
X139135500Y-44147285D01*
X139454626Y-44365769D01*
X141620395Y-42200000D01*
X139454626Y-40034231D01*
X139135500Y-40252715D01*
X139135500Y-39926865D01*
X139128385Y-39854626D01*
X139634231Y-39854626D01*
X141800000Y-42020395D01*
X143965769Y-39854626D01*
X143665589Y-39416172D01*
X143086644Y-39105704D01*
X142458254Y-38914148D01*
X141804569Y-38848866D01*
X141150707Y-38912366D01*
X140521797Y-39102208D01*
X139942008Y-39411096D01*
X139934411Y-39416172D01*
X139634231Y-39854626D01*
X139128385Y-39854626D01*
X139125443Y-39824756D01*
X139085702Y-39693748D01*
X139021167Y-39573011D01*
X138934317Y-39467183D01*
X138828489Y-39380333D01*
X138707752Y-39315798D01*
X138576744Y-39276057D01*
X138440500Y-39262638D01*
X138406366Y-39266000D01*
X136887552Y-39266000D01*
X136927238Y-39262008D01*
X137503214Y-39085980D01*
X138023161Y-38808062D01*
X138290026Y-38398031D01*
X136321600Y-36429605D01*
X134353174Y-38398031D01*
X134620039Y-38808062D01*
X135151787Y-39090867D01*
X135728491Y-39264500D01*
X135744052Y-39266000D01*
X121456634Y-39266000D01*
X121422500Y-39262638D01*
X121388365Y-39266000D01*
X121286256Y-39276057D01*
X121155248Y-39315798D01*
X121034511Y-39380333D01*
X120928683Y-39467183D01*
X120841833Y-39573011D01*
X120777298Y-39693748D01*
X120737557Y-39824756D01*
X120724138Y-39961000D01*
X120727500Y-39995135D01*
X120727501Y-45006855D01*
X120724630Y-45036000D01*
X85569592Y-45036000D01*
X85657992Y-44988904D01*
X85665589Y-44983828D01*
X85965769Y-44545374D01*
X83800000Y-42379605D01*
X83785858Y-42393748D01*
X83606253Y-42214143D01*
X83620395Y-42200000D01*
X83979605Y-42200000D01*
X86145374Y-44365769D01*
X86583828Y-44065589D01*
X86894296Y-43486644D01*
X87085852Y-42858254D01*
X87151134Y-42204569D01*
X87087634Y-41550707D01*
X86897792Y-40921797D01*
X86588904Y-40342008D01*
X86583828Y-40334411D01*
X86145374Y-40034231D01*
X83979605Y-42200000D01*
X83620395Y-42200000D01*
X81454626Y-40034231D01*
X81016172Y-40334411D01*
X80960000Y-40439158D01*
X80960000Y-39854626D01*
X81634231Y-39854626D01*
X83800000Y-42020395D01*
X85965769Y-39854626D01*
X85665589Y-39416172D01*
X85086644Y-39105704D01*
X84458254Y-38914148D01*
X83804569Y-38848866D01*
X83150707Y-38912366D01*
X82521797Y-39102208D01*
X81942008Y-39411096D01*
X81934411Y-39416172D01*
X81634231Y-39854626D01*
X80960000Y-39854626D01*
X80960000Y-38398031D01*
X87313174Y-38398031D01*
X87580039Y-38808062D01*
X88111787Y-39090867D01*
X88688491Y-39264500D01*
X89287987Y-39322287D01*
X89887238Y-39262008D01*
X90463214Y-39085980D01*
X90983161Y-38808062D01*
X91250026Y-38398031D01*
X89281600Y-36429605D01*
X87313174Y-38398031D01*
X80960000Y-38398031D01*
X80960000Y-36256387D01*
X86209313Y-36256387D01*
X86269592Y-36855638D01*
X86445620Y-37431614D01*
X86723538Y-37951561D01*
X87133569Y-38218426D01*
X89101995Y-36250000D01*
X89461205Y-36250000D01*
X91429631Y-38218426D01*
X91839662Y-37951561D01*
X92063134Y-37531373D01*
X96159100Y-37531373D01*
X96159100Y-37808627D01*
X96213190Y-38080553D01*
X96319290Y-38336701D01*
X96473324Y-38567229D01*
X96669371Y-38763276D01*
X96899899Y-38917310D01*
X97156047Y-39023410D01*
X97427973Y-39077500D01*
X97705227Y-39077500D01*
X97977153Y-39023410D01*
X98233301Y-38917310D01*
X98463829Y-38763276D01*
X98584041Y-38643064D01*
X99543141Y-38643064D01*
X99611393Y-38884227D01*
X99862211Y-39002377D01*
X100131260Y-39069324D01*
X100408200Y-39082496D01*
X100682388Y-39041387D01*
X100943288Y-38947576D01*
X101061807Y-38884227D01*
X101130059Y-38643064D01*
X100336600Y-37849605D01*
X99543141Y-38643064D01*
X98584041Y-38643064D01*
X98659876Y-38567229D01*
X98813910Y-38336701D01*
X98920010Y-38080553D01*
X98951322Y-37923138D01*
X98965213Y-38015788D01*
X99059024Y-38276688D01*
X99122373Y-38395207D01*
X99363536Y-38463459D01*
X100156995Y-37670000D01*
X99363536Y-36876541D01*
X99122373Y-36944793D01*
X99004223Y-37195611D01*
X98950366Y-37412054D01*
X98920010Y-37259447D01*
X98813910Y-37003299D01*
X98659876Y-36772771D01*
X98584041Y-36696936D01*
X99543141Y-36696936D01*
X100336600Y-37490395D01*
X101130059Y-36696936D01*
X101061807Y-36455773D01*
X100810989Y-36337623D01*
X100541940Y-36270676D01*
X100265000Y-36257504D01*
X99990812Y-36298613D01*
X99729912Y-36392424D01*
X99611393Y-36455773D01*
X99543141Y-36696936D01*
X98584041Y-36696936D01*
X98463829Y-36576724D01*
X98233301Y-36422690D01*
X97977153Y-36316590D01*
X97705227Y-36262500D01*
X97427973Y-36262500D01*
X97156047Y-36316590D01*
X96899899Y-36422690D01*
X96669371Y-36576724D01*
X96473324Y-36772771D01*
X96319290Y-37003299D01*
X96213190Y-37259447D01*
X96159100Y-37531373D01*
X92063134Y-37531373D01*
X92122467Y-37419813D01*
X92296100Y-36843109D01*
X92353887Y-36243613D01*
X92293608Y-35644362D01*
X92117580Y-35068386D01*
X91839662Y-34548439D01*
X91429631Y-34281574D01*
X89461205Y-36250000D01*
X89101995Y-36250000D01*
X87133569Y-34281574D01*
X86723538Y-34548439D01*
X86440733Y-35080187D01*
X86267100Y-35656891D01*
X86209313Y-36256387D01*
X80960000Y-36256387D01*
X80960000Y-34101969D01*
X87313174Y-34101969D01*
X89281600Y-36070395D01*
X91250026Y-34101969D01*
X90983161Y-33691938D01*
X90451413Y-33409133D01*
X89874709Y-33235500D01*
X89275213Y-33177713D01*
X88675962Y-33237992D01*
X88099986Y-33414020D01*
X87580039Y-33691938D01*
X87313174Y-34101969D01*
X80960000Y-34101969D01*
X80960000Y-31489209D01*
X80965315Y-31495685D01*
X81062006Y-31575037D01*
X81172320Y-31634002D01*
X81292018Y-31670312D01*
X81416500Y-31682572D01*
X81980750Y-31679500D01*
X82139500Y-31520750D01*
X82139500Y-30321500D01*
X82119500Y-30321500D01*
X82119500Y-30067500D01*
X82139500Y-30067500D01*
X82139500Y-30047500D01*
X82393500Y-30047500D01*
X82393500Y-30067500D01*
X82393500Y-30067500D01*
G37*
X82393500Y-30067500D02*
X82413500Y-30067500D01*
X82413500Y-30321500D01*
X82393500Y-30321500D01*
X82393500Y-31520750D01*
X82552250Y-31679500D01*
X82917741Y-31681490D01*
X82929010Y-31738145D01*
X82995723Y-31899205D01*
X83092576Y-32044155D01*
X83215845Y-32167424D01*
X83360795Y-32264277D01*
X83521855Y-32330990D01*
X83692835Y-32365000D01*
X83867165Y-32365000D01*
X84038145Y-32330990D01*
X84199205Y-32264277D01*
X84344155Y-32167424D01*
X84467424Y-32044155D01*
X84564277Y-31899205D01*
X84630990Y-31738145D01*
X84665000Y-31567165D01*
X84665000Y-31522307D01*
X84679500Y-31514655D01*
X84679500Y-30321500D01*
X84659500Y-30321500D01*
X84659500Y-30067500D01*
X84679500Y-30067500D01*
X84679500Y-30047500D01*
X84933500Y-30047500D01*
X84933500Y-30067500D01*
X84953500Y-30067500D01*
X84953500Y-30321500D01*
X84933500Y-30321500D01*
X84933500Y-31514655D01*
X85163390Y-31635976D01*
X85310599Y-31591325D01*
X85362385Y-31566659D01*
X85389309Y-31588755D01*
X85501706Y-31701152D01*
X85519010Y-31788145D01*
X85585723Y-31949205D01*
X85682576Y-32094155D01*
X85805845Y-32217424D01*
X85950795Y-32314277D01*
X86111855Y-32380990D01*
X86282835Y-32415000D01*
X86457165Y-32415000D01*
X86628145Y-32380990D01*
X86789205Y-32314277D01*
X86934155Y-32217424D01*
X87057424Y-32094155D01*
X87154277Y-31949205D01*
X87220990Y-31788145D01*
X87255000Y-31617165D01*
X87255000Y-31442835D01*
X87220990Y-31271855D01*
X87219500Y-31268258D01*
X87219500Y-30321500D01*
X87199500Y-30321500D01*
X87199500Y-30067500D01*
X87219500Y-30067500D01*
X87219500Y-30047500D01*
X87473500Y-30047500D01*
X87473500Y-30067500D01*
X87493500Y-30067500D01*
X87493500Y-30321500D01*
X87473500Y-30321500D01*
X87473500Y-31514655D01*
X87703390Y-31635976D01*
X87850599Y-31591325D01*
X88113420Y-31466141D01*
X88120700Y-31460711D01*
X88134130Y-31474142D01*
X88151434Y-31561134D01*
X88218147Y-31722194D01*
X88315000Y-31867144D01*
X88438269Y-31990413D01*
X88583219Y-32087266D01*
X88744279Y-32153979D01*
X88915259Y-32187989D01*
X89089589Y-32187989D01*
X89260569Y-32153979D01*
X89421629Y-32087266D01*
X89566579Y-31990413D01*
X89689848Y-31867144D01*
X89786701Y-31722194D01*
X89853414Y-31561134D01*
X89887424Y-31390154D01*
X89887424Y-31215824D01*
X89853414Y-31044844D01*
X89786701Y-30883784D01*
X89759500Y-30843075D01*
X89759500Y-30321500D01*
X89739500Y-30321500D01*
X89739500Y-30067500D01*
X89759500Y-30067500D01*
X89759500Y-30047500D01*
X90013500Y-30047500D01*
X90013500Y-30067500D01*
X90033500Y-30067500D01*
X90033500Y-30321500D01*
X90013500Y-30321500D01*
X90013500Y-31514655D01*
X90243390Y-31635976D01*
X90390599Y-31591325D01*
X90653420Y-31466141D01*
X90818284Y-31343170D01*
X90825235Y-31350121D01*
X90842539Y-31437113D01*
X90909252Y-31598173D01*
X91006105Y-31743123D01*
X91129374Y-31866392D01*
X91274324Y-31963245D01*
X91435384Y-32029958D01*
X91606364Y-32063968D01*
X91780694Y-32063968D01*
X91951674Y-32029958D01*
X92112734Y-31963245D01*
X92257684Y-31866392D01*
X92380953Y-31743123D01*
X92477806Y-31598173D01*
X92544519Y-31437113D01*
X92553500Y-31391962D01*
X92553500Y-31514655D01*
X92783390Y-31635976D01*
X92930599Y-31591325D01*
X93193420Y-31466141D01*
X93250519Y-31423551D01*
X93366349Y-31539381D01*
X93511299Y-31636234D01*
X93672359Y-31702947D01*
X93843339Y-31736957D01*
X94017669Y-31736957D01*
X94188649Y-31702947D01*
X94349709Y-31636234D01*
X94435848Y-31578678D01*
X94462401Y-31591325D01*
X94609610Y-31635976D01*
X94839500Y-31514655D01*
X94839500Y-30321500D01*
X94819500Y-30321500D01*
X94819500Y-30067500D01*
X94839500Y-30067500D01*
X94839500Y-30047500D01*
X95093500Y-30047500D01*
X95093500Y-30067500D01*
X95113500Y-30067500D01*
X95113500Y-30321500D01*
X95093500Y-30321500D01*
X95093500Y-31514655D01*
X95323390Y-31635976D01*
X95470599Y-31591325D01*
X95582757Y-31537903D01*
X95595723Y-31569205D01*
X95692576Y-31714155D01*
X95815845Y-31837424D01*
X95960795Y-31934277D01*
X96121855Y-32000990D01*
X96292835Y-32035000D01*
X96467165Y-32035000D01*
X96638145Y-32000990D01*
X96799205Y-31934277D01*
X96944155Y-31837424D01*
X97067424Y-31714155D01*
X97124709Y-31628423D01*
X97149610Y-31635976D01*
X97379500Y-31514655D01*
X97379500Y-30321500D01*
X97359500Y-30321500D01*
X97359500Y-30067500D01*
X97379500Y-30067500D01*
X97379500Y-30047500D01*
X97633500Y-30047500D01*
X97633500Y-30067500D01*
X97653500Y-30067500D01*
X97653500Y-30321500D01*
X97633500Y-30321500D01*
X97633500Y-31514655D01*
X97863390Y-31635976D01*
X98010599Y-31591325D01*
X98234500Y-31484679D01*
X98234500Y-31737653D01*
X96511589Y-33460565D01*
X96320227Y-33422500D01*
X96042973Y-33422500D01*
X95771047Y-33476590D01*
X95514899Y-33582690D01*
X95284371Y-33736724D01*
X95088324Y-33932771D01*
X94934290Y-34163299D01*
X94828190Y-34419447D01*
X94774100Y-34691373D01*
X94774100Y-34968627D01*
X94828190Y-35240553D01*
X94934290Y-35496701D01*
X95088324Y-35727229D01*
X95284371Y-35923276D01*
X95514899Y-36077310D01*
X95771047Y-36183410D01*
X96042973Y-36237500D01*
X96320227Y-36237500D01*
X96592153Y-36183410D01*
X96848301Y-36077310D01*
X97078829Y-35923276D01*
X97274876Y-35727229D01*
X97428910Y-35496701D01*
X97535010Y-35240553D01*
X97566600Y-35081741D01*
X97598190Y-35240553D01*
X97704290Y-35496701D01*
X97858324Y-35727229D01*
X98054371Y-35923276D01*
X98284899Y-36077310D01*
X98541047Y-36183410D01*
X98812973Y-36237500D01*
X99090227Y-36237500D01*
X99362153Y-36183410D01*
X99618301Y-36077310D01*
X99848829Y-35923276D01*
X100044876Y-35727229D01*
X100198910Y-35496701D01*
X100305010Y-35240553D01*
X100336600Y-35081741D01*
X100368190Y-35240553D01*
X100474290Y-35496701D01*
X100628324Y-35727229D01*
X100824371Y-35923276D01*
X101054899Y-36077310D01*
X101311047Y-36183410D01*
X101582973Y-36237500D01*
X101860227Y-36237500D01*
X102132153Y-36183410D01*
X102388301Y-36077310D01*
X102485001Y-36012697D01*
X102485001Y-36404008D01*
X102439899Y-36422690D01*
X102209371Y-36576724D01*
X102013324Y-36772771D01*
X101859290Y-37003299D01*
X101753190Y-37259447D01*
X101721878Y-37416862D01*
X101707987Y-37324212D01*
X101614176Y-37063312D01*
X101550827Y-36944793D01*
X101309664Y-36876541D01*
X100516205Y-37670000D01*
X101309664Y-38463459D01*
X101550827Y-38395207D01*
X101668977Y-38144389D01*
X101722834Y-37927946D01*
X101753190Y-38080553D01*
X101859290Y-38336701D01*
X102013324Y-38567229D01*
X102209371Y-38763276D01*
X102439899Y-38917310D01*
X102696047Y-39023410D01*
X102967973Y-39077500D01*
X103245227Y-39077500D01*
X103517153Y-39023410D01*
X103773301Y-38917310D01*
X104003829Y-38763276D01*
X104199876Y-38567229D01*
X104353910Y-38336701D01*
X104460010Y-38080553D01*
X104491600Y-37921741D01*
X104523190Y-38080553D01*
X104629290Y-38336701D01*
X104783324Y-38567229D01*
X104979371Y-38763276D01*
X105209899Y-38917310D01*
X105466047Y-39023410D01*
X105737973Y-39077500D01*
X106015227Y-39077500D01*
X106287153Y-39023410D01*
X106543301Y-38917310D01*
X106773829Y-38763276D01*
X106969876Y-38567229D01*
X107123910Y-38336701D01*
X107230010Y-38080553D01*
X107261600Y-37921741D01*
X107293190Y-38080553D01*
X107399290Y-38336701D01*
X107553324Y-38567229D01*
X107749371Y-38763276D01*
X107979899Y-38917310D01*
X108236047Y-39023410D01*
X108507973Y-39077500D01*
X108785227Y-39077500D01*
X109057153Y-39023410D01*
X109313301Y-38917310D01*
X109543829Y-38763276D01*
X109739876Y-38567229D01*
X109893910Y-38336701D01*
X110000010Y-38080553D01*
X110031600Y-37921741D01*
X110063190Y-38080553D01*
X110169290Y-38336701D01*
X110323324Y-38567229D01*
X110519371Y-38763276D01*
X110749899Y-38917310D01*
X111006047Y-39023410D01*
X111277973Y-39077500D01*
X111555227Y-39077500D01*
X111827153Y-39023410D01*
X112083301Y-38917310D01*
X112313829Y-38763276D01*
X112509876Y-38567229D01*
X112663910Y-38336701D01*
X112770010Y-38080553D01*
X112801600Y-37921741D01*
X112833190Y-38080553D01*
X112939290Y-38336701D01*
X113093324Y-38567229D01*
X113289371Y-38763276D01*
X113519899Y-38917310D01*
X113776047Y-39023410D01*
X114047973Y-39077500D01*
X114325227Y-39077500D01*
X114597153Y-39023410D01*
X114853301Y-38917310D01*
X115083829Y-38763276D01*
X115204041Y-38643064D01*
X116163141Y-38643064D01*
X116231393Y-38884227D01*
X116482211Y-39002377D01*
X116751260Y-39069324D01*
X117028200Y-39082496D01*
X117302388Y-39041387D01*
X117563288Y-38947576D01*
X117681807Y-38884227D01*
X117750059Y-38643064D01*
X116956600Y-37849605D01*
X116163141Y-38643064D01*
X115204041Y-38643064D01*
X115279876Y-38567229D01*
X115433910Y-38336701D01*
X115540010Y-38080553D01*
X115571322Y-37923138D01*
X115585213Y-38015788D01*
X115679024Y-38276688D01*
X115742373Y-38395207D01*
X115983536Y-38463459D01*
X116776995Y-37670000D01*
X115983536Y-36876541D01*
X115742373Y-36944793D01*
X115624223Y-37195611D01*
X115570366Y-37412054D01*
X115540010Y-37259447D01*
X115433910Y-37003299D01*
X115279876Y-36772771D01*
X115204041Y-36696936D01*
X116163141Y-36696936D01*
X116956600Y-37490395D01*
X117750059Y-36696936D01*
X117681807Y-36455773D01*
X117430989Y-36337623D01*
X117161940Y-36270676D01*
X116885000Y-36257504D01*
X116610812Y-36298613D01*
X116349912Y-36392424D01*
X116231393Y-36455773D01*
X116163141Y-36696936D01*
X115204041Y-36696936D01*
X115083829Y-36576724D01*
X114921600Y-36468326D01*
X114921600Y-36084228D01*
X115161047Y-36183410D01*
X115432973Y-36237500D01*
X115710227Y-36237500D01*
X115982153Y-36183410D01*
X116238301Y-36077310D01*
X116468829Y-35923276D01*
X116664876Y-35727229D01*
X116818910Y-35496701D01*
X116925010Y-35240553D01*
X116956600Y-35081741D01*
X116988190Y-35240553D01*
X117094290Y-35496701D01*
X117248324Y-35727229D01*
X117444371Y-35923276D01*
X117674899Y-36077310D01*
X117931047Y-36183410D01*
X118202973Y-36237500D01*
X118480227Y-36237500D01*
X118752153Y-36183410D01*
X118991600Y-36084228D01*
X118991601Y-36468326D01*
X118829371Y-36576724D01*
X118633324Y-36772771D01*
X118479290Y-37003299D01*
X118373190Y-37259447D01*
X118341878Y-37416862D01*
X118327987Y-37324212D01*
X118234176Y-37063312D01*
X118170827Y-36944793D01*
X117929664Y-36876541D01*
X117136205Y-37670000D01*
X117929664Y-38463459D01*
X118170827Y-38395207D01*
X118288977Y-38144389D01*
X118342834Y-37927946D01*
X118373190Y-38080553D01*
X118479290Y-38336701D01*
X118633324Y-38567229D01*
X118829371Y-38763276D01*
X119059899Y-38917310D01*
X119316047Y-39023410D01*
X119587973Y-39077500D01*
X119865227Y-39077500D01*
X120137153Y-39023410D01*
X120393301Y-38917310D01*
X120623829Y-38763276D01*
X120744041Y-38643064D01*
X121703141Y-38643064D01*
X121771393Y-38884227D01*
X122022211Y-39002377D01*
X122291260Y-39069324D01*
X122568200Y-39082496D01*
X122842388Y-39041387D01*
X123103288Y-38947576D01*
X123221807Y-38884227D01*
X123290059Y-38643064D01*
X122496600Y-37849605D01*
X121703141Y-38643064D01*
X120744041Y-38643064D01*
X120819876Y-38567229D01*
X120973910Y-38336701D01*
X121080010Y-38080553D01*
X121111322Y-37923138D01*
X121125213Y-38015788D01*
X121219024Y-38276688D01*
X121282373Y-38395207D01*
X121523536Y-38463459D01*
X122316995Y-37670000D01*
X121523536Y-36876541D01*
X121282373Y-36944793D01*
X121164223Y-37195611D01*
X121110366Y-37412054D01*
X121080010Y-37259447D01*
X120973910Y-37003299D01*
X120819876Y-36772771D01*
X120744041Y-36696936D01*
X121703141Y-36696936D01*
X122496600Y-37490395D01*
X123290059Y-36696936D01*
X123221807Y-36455773D01*
X122970989Y-36337623D01*
X122701940Y-36270676D01*
X122425000Y-36257504D01*
X122150812Y-36298613D01*
X121889912Y-36392424D01*
X121771393Y-36455773D01*
X121703141Y-36696936D01*
X120744041Y-36696936D01*
X120623829Y-36576724D01*
X120461600Y-36468326D01*
X120461600Y-36084228D01*
X120701047Y-36183410D01*
X120972973Y-36237500D01*
X121250227Y-36237500D01*
X121522153Y-36183410D01*
X121778301Y-36077310D01*
X122008829Y-35923276D01*
X122204876Y-35727229D01*
X122358910Y-35496701D01*
X122465010Y-35240553D01*
X122496600Y-35081741D01*
X122528190Y-35240553D01*
X122634290Y-35496701D01*
X122788324Y-35727229D01*
X122984371Y-35923276D01*
X123214899Y-36077310D01*
X123471047Y-36183410D01*
X123742973Y-36237500D01*
X124020227Y-36237500D01*
X124292153Y-36183410D01*
X124531600Y-36084228D01*
X124531600Y-36468326D01*
X124369371Y-36576724D01*
X124173324Y-36772771D01*
X124019290Y-37003299D01*
X123913190Y-37259447D01*
X123881878Y-37416862D01*
X123867987Y-37324212D01*
X123774176Y-37063312D01*
X123710827Y-36944793D01*
X123469664Y-36876541D01*
X122676205Y-37670000D01*
X123469664Y-38463459D01*
X123710827Y-38395207D01*
X123828977Y-38144389D01*
X123882834Y-37927946D01*
X123913190Y-38080553D01*
X124019290Y-38336701D01*
X124173324Y-38567229D01*
X124369371Y-38763276D01*
X124599899Y-38917310D01*
X124856047Y-39023410D01*
X125127973Y-39077500D01*
X125405227Y-39077500D01*
X125677153Y-39023410D01*
X125933301Y-38917310D01*
X126163829Y-38763276D01*
X126284041Y-38643064D01*
X127243141Y-38643064D01*
X127311393Y-38884227D01*
X127562211Y-39002377D01*
X127831260Y-39069324D01*
X128108200Y-39082496D01*
X128382388Y-39041387D01*
X128643288Y-38947576D01*
X128761807Y-38884227D01*
X128830059Y-38643064D01*
X128036600Y-37849605D01*
X127243141Y-38643064D01*
X126284041Y-38643064D01*
X126359876Y-38567229D01*
X126513910Y-38336701D01*
X126620010Y-38080553D01*
X126651322Y-37923138D01*
X126665213Y-38015788D01*
X126759024Y-38276688D01*
X126822373Y-38395207D01*
X127063536Y-38463459D01*
X127856995Y-37670000D01*
X128216205Y-37670000D01*
X129009664Y-38463459D01*
X129250827Y-38395207D01*
X129368977Y-38144389D01*
X129435924Y-37875340D01*
X129449096Y-37598400D01*
X129407987Y-37324212D01*
X129314176Y-37063312D01*
X129250827Y-36944793D01*
X129009664Y-36876541D01*
X128216205Y-37670000D01*
X127856995Y-37670000D01*
X127063536Y-36876541D01*
X126822373Y-36944793D01*
X126704223Y-37195611D01*
X126650366Y-37412054D01*
X126620010Y-37259447D01*
X126513910Y-37003299D01*
X126359876Y-36772771D01*
X126284041Y-36696936D01*
X127243141Y-36696936D01*
X128036600Y-37490395D01*
X128830059Y-36696936D01*
X128761807Y-36455773D01*
X128510989Y-36337623D01*
X128241940Y-36270676D01*
X127965000Y-36257504D01*
X127690812Y-36298613D01*
X127429912Y-36392424D01*
X127311393Y-36455773D01*
X127243141Y-36696936D01*
X126284041Y-36696936D01*
X126163829Y-36576724D01*
X126001600Y-36468326D01*
X126001600Y-36256387D01*
X133249313Y-36256387D01*
X133309592Y-36855638D01*
X133485620Y-37431614D01*
X133763538Y-37951561D01*
X134173569Y-38218426D01*
X136141995Y-36250000D01*
X136501205Y-36250000D01*
X138469631Y-38218426D01*
X138879662Y-37951561D01*
X139162467Y-37419813D01*
X139336100Y-36843109D01*
X139393887Y-36243613D01*
X139333608Y-35644362D01*
X139157580Y-35068386D01*
X138879662Y-34548439D01*
X138469631Y-34281574D01*
X136501205Y-36250000D01*
X136141995Y-36250000D01*
X134173569Y-34281574D01*
X133763538Y-34548439D01*
X133480733Y-35080187D01*
X133307100Y-35656891D01*
X133249313Y-36256387D01*
X126001600Y-36256387D01*
X126001600Y-36084228D01*
X126241047Y-36183410D01*
X126512973Y-36237500D01*
X126790227Y-36237500D01*
X127062153Y-36183410D01*
X127318301Y-36077310D01*
X127548829Y-35923276D01*
X127744876Y-35727229D01*
X127898910Y-35496701D01*
X128005010Y-35240553D01*
X128036600Y-35081741D01*
X128068190Y-35240553D01*
X128174290Y-35496701D01*
X128328324Y-35727229D01*
X128524371Y-35923276D01*
X128754899Y-36077310D01*
X129011047Y-36183410D01*
X129282973Y-36237500D01*
X129560227Y-36237500D01*
X129832153Y-36183410D01*
X130088301Y-36077310D01*
X130318829Y-35923276D01*
X130514876Y-35727229D01*
X130668910Y-35496701D01*
X130775010Y-35240553D01*
X130829100Y-34968627D01*
X130829100Y-34691373D01*
X130775010Y-34419447D01*
X130668910Y-34163299D01*
X130514876Y-33932771D01*
X130318829Y-33736724D01*
X130209677Y-33663791D01*
X130590461Y-33283007D01*
X130677453Y-33265703D01*
X130838513Y-33198990D01*
X130983463Y-33102137D01*
X131106732Y-32978868D01*
X131203585Y-32833918D01*
X131270298Y-32672858D01*
X131304308Y-32501878D01*
X131304308Y-32327548D01*
X131270298Y-32156568D01*
X131203585Y-31995508D01*
X131106732Y-31850558D01*
X130983463Y-31727289D01*
X130838513Y-31630436D01*
X130677453Y-31563723D01*
X130653502Y-31558959D01*
X130653502Y-31514656D01*
X130883390Y-31635976D01*
X131030599Y-31591325D01*
X131293420Y-31466141D01*
X131526769Y-31292088D01*
X131721678Y-31075855D01*
X131796500Y-30950245D01*
X131871322Y-31075855D01*
X132066231Y-31292088D01*
X132299580Y-31466141D01*
X132562401Y-31591325D01*
X132709610Y-31635976D01*
X132939500Y-31514655D01*
X132939500Y-30321500D01*
X130653500Y-30321500D01*
X130653500Y-30341500D01*
X130399500Y-30341500D01*
X130399500Y-30321500D01*
X128113500Y-30321500D01*
X128113500Y-30341500D01*
X127859500Y-30341500D01*
X127859500Y-30321500D01*
X127839500Y-30321500D01*
X127839500Y-30067500D01*
X127859500Y-30067500D01*
X127859500Y-30047500D01*
X128113500Y-30047500D01*
X128113500Y-30067500D01*
X130399500Y-30067500D01*
X130399500Y-30047500D01*
X130653500Y-30047500D01*
X130653500Y-30067500D01*
X132939500Y-30067500D01*
X132939500Y-30047500D01*
X133193500Y-30047500D01*
X133193500Y-30067500D01*
X133213500Y-30067500D01*
X133213500Y-30321500D01*
X133193500Y-30321500D01*
X133193500Y-30768759D01*
X133142512Y-30891855D01*
X133108502Y-31062835D01*
X133108502Y-31237165D01*
X133142512Y-31408145D01*
X133209225Y-31569205D01*
X133306078Y-31714155D01*
X133429347Y-31837424D01*
X133574297Y-31934277D01*
X133735357Y-32000990D01*
X133906337Y-32035000D01*
X134080667Y-32035000D01*
X134145881Y-32022028D01*
X134960653Y-32836801D01*
X134977957Y-32923793D01*
X135044670Y-33084853D01*
X135141523Y-33229803D01*
X135264792Y-33353072D01*
X135288211Y-33368720D01*
X135139986Y-33414020D01*
X134620039Y-33691938D01*
X134353174Y-34101969D01*
X136321600Y-36070395D01*
X138290026Y-34101969D01*
X138023161Y-33691938D01*
X137491413Y-33409133D01*
X136914709Y-33235500D01*
X136536898Y-33199082D01*
X136613224Y-33084853D01*
X136679937Y-32923793D01*
X136713947Y-32752813D01*
X136713947Y-32578483D01*
X136679937Y-32407503D01*
X136613224Y-32246443D01*
X136516371Y-32101493D01*
X136393102Y-31978224D01*
X136248152Y-31881371D01*
X136087092Y-31814658D01*
X136000100Y-31797354D01*
X135733502Y-31530757D01*
X135733502Y-31514656D01*
X135963390Y-31635976D01*
X136110599Y-31591325D01*
X136261799Y-31519307D01*
X136270663Y-31540707D01*
X136367516Y-31685657D01*
X136490785Y-31808926D01*
X136635735Y-31905779D01*
X136796795Y-31972492D01*
X136967775Y-32006502D01*
X137142105Y-32006502D01*
X137313085Y-31972492D01*
X137474145Y-31905779D01*
X137619095Y-31808926D01*
X137742364Y-31685657D01*
X137777928Y-31632433D01*
X137789610Y-31635976D01*
X138019500Y-31514655D01*
X138019500Y-30321500D01*
X137999500Y-30321500D01*
X137999500Y-30067500D01*
X138019500Y-30067500D01*
X138019500Y-30047500D01*
X138273500Y-30047500D01*
X138273500Y-30067500D01*
X138293500Y-30067500D01*
X138293500Y-30321500D01*
X138273500Y-30321500D01*
X138273500Y-31514655D01*
X138503390Y-31635976D01*
X138592316Y-31609003D01*
X138662576Y-31714155D01*
X138785845Y-31837424D01*
X138930795Y-31934277D01*
X139091855Y-32000990D01*
X139262835Y-32035000D01*
X139437165Y-32035000D01*
X139608145Y-32000990D01*
X139769205Y-31934277D01*
X139914155Y-31837424D01*
X140037424Y-31714155D01*
X140134277Y-31569205D01*
X140134554Y-31568535D01*
X140182401Y-31591325D01*
X140329610Y-31635976D01*
X140559500Y-31514655D01*
X140559500Y-30321500D01*
X140539500Y-30321500D01*
X140539500Y-30067500D01*
X140559500Y-30067500D01*
X140559500Y-30047500D01*
X140813500Y-30047500D01*
X140813500Y-30067500D01*
X140833500Y-30067500D01*
X140833500Y-30321500D01*
X140813500Y-30321500D01*
X140813500Y-31514655D01*
X141043390Y-31635976D01*
X141190599Y-31591325D01*
X141195019Y-31589220D01*
X141215723Y-31639205D01*
X141312576Y-31784155D01*
X141435845Y-31907424D01*
X141580795Y-32004277D01*
X141741855Y-32070990D01*
X141912835Y-32105000D01*
X142087165Y-32105000D01*
X142258145Y-32070990D01*
X142419205Y-32004277D01*
X142564155Y-31907424D01*
X142687424Y-31784155D01*
X142784277Y-31639205D01*
X142794990Y-31613342D01*
X142869610Y-31635976D01*
X143099500Y-31514655D01*
X143099500Y-30321500D01*
X143079500Y-30321500D01*
X143079500Y-30067500D01*
X143099500Y-30067500D01*
X143099500Y-30047500D01*
X143353500Y-30047500D01*
X143353500Y-30067500D01*
X143373500Y-30067500D01*
X143373500Y-30321500D01*
X143353500Y-30321500D01*
X143353500Y-31514655D01*
X143583390Y-31635976D01*
X143730599Y-31591325D01*
X143993420Y-31466141D01*
X144226769Y-31292088D01*
X144421678Y-31075855D01*
X144570657Y-30825752D01*
X144640001Y-30630269D01*
X144640001Y-40437918D01*
X144588904Y-40342008D01*
X144583828Y-40334411D01*
X144145374Y-40034231D01*
X141979605Y-42200000D01*
X141993748Y-42214143D01*
X141814143Y-42393748D01*
X141800000Y-42379605D01*
X139634231Y-44545374D01*
X139934411Y-44983828D01*
X140031699Y-45036000D01*
X139138370Y-45036000D01*
X139135500Y-45006865D01*
X139135500Y-44147285D01*
X139454626Y-44365769D01*
X141620395Y-42200000D01*
X139454626Y-40034231D01*
X139135500Y-40252715D01*
X139135500Y-39926865D01*
X139128385Y-39854626D01*
X139634231Y-39854626D01*
X141800000Y-42020395D01*
X143965769Y-39854626D01*
X143665589Y-39416172D01*
X143086644Y-39105704D01*
X142458254Y-38914148D01*
X141804569Y-38848866D01*
X141150707Y-38912366D01*
X140521797Y-39102208D01*
X139942008Y-39411096D01*
X139934411Y-39416172D01*
X139634231Y-39854626D01*
X139128385Y-39854626D01*
X139125443Y-39824756D01*
X139085702Y-39693748D01*
X139021167Y-39573011D01*
X138934317Y-39467183D01*
X138828489Y-39380333D01*
X138707752Y-39315798D01*
X138576744Y-39276057D01*
X138440500Y-39262638D01*
X138406366Y-39266000D01*
X136887552Y-39266000D01*
X136927238Y-39262008D01*
X137503214Y-39085980D01*
X138023161Y-38808062D01*
X138290026Y-38398031D01*
X136321600Y-36429605D01*
X134353174Y-38398031D01*
X134620039Y-38808062D01*
X135151787Y-39090867D01*
X135728491Y-39264500D01*
X135744052Y-39266000D01*
X121456634Y-39266000D01*
X121422500Y-39262638D01*
X121388365Y-39266000D01*
X121286256Y-39276057D01*
X121155248Y-39315798D01*
X121034511Y-39380333D01*
X120928683Y-39467183D01*
X120841833Y-39573011D01*
X120777298Y-39693748D01*
X120737557Y-39824756D01*
X120724138Y-39961000D01*
X120727500Y-39995135D01*
X120727501Y-45006855D01*
X120724630Y-45036000D01*
X85569592Y-45036000D01*
X85657992Y-44988904D01*
X85665589Y-44983828D01*
X85965769Y-44545374D01*
X83800000Y-42379605D01*
X83785858Y-42393748D01*
X83606253Y-42214143D01*
X83620395Y-42200000D01*
X83979605Y-42200000D01*
X86145374Y-44365769D01*
X86583828Y-44065589D01*
X86894296Y-43486644D01*
X87085852Y-42858254D01*
X87151134Y-42204569D01*
X87087634Y-41550707D01*
X86897792Y-40921797D01*
X86588904Y-40342008D01*
X86583828Y-40334411D01*
X86145374Y-40034231D01*
X83979605Y-42200000D01*
X83620395Y-42200000D01*
X81454626Y-40034231D01*
X81016172Y-40334411D01*
X80960000Y-40439158D01*
X80960000Y-39854626D01*
X81634231Y-39854626D01*
X83800000Y-42020395D01*
X85965769Y-39854626D01*
X85665589Y-39416172D01*
X85086644Y-39105704D01*
X84458254Y-38914148D01*
X83804569Y-38848866D01*
X83150707Y-38912366D01*
X82521797Y-39102208D01*
X81942008Y-39411096D01*
X81934411Y-39416172D01*
X81634231Y-39854626D01*
X80960000Y-39854626D01*
X80960000Y-38398031D01*
X87313174Y-38398031D01*
X87580039Y-38808062D01*
X88111787Y-39090867D01*
X88688491Y-39264500D01*
X89287987Y-39322287D01*
X89887238Y-39262008D01*
X90463214Y-39085980D01*
X90983161Y-38808062D01*
X91250026Y-38398031D01*
X89281600Y-36429605D01*
X87313174Y-38398031D01*
X80960000Y-38398031D01*
X80960000Y-36256387D01*
X86209313Y-36256387D01*
X86269592Y-36855638D01*
X86445620Y-37431614D01*
X86723538Y-37951561D01*
X87133569Y-38218426D01*
X89101995Y-36250000D01*
X89461205Y-36250000D01*
X91429631Y-38218426D01*
X91839662Y-37951561D01*
X92063134Y-37531373D01*
X96159100Y-37531373D01*
X96159100Y-37808627D01*
X96213190Y-38080553D01*
X96319290Y-38336701D01*
X96473324Y-38567229D01*
X96669371Y-38763276D01*
X96899899Y-38917310D01*
X97156047Y-39023410D01*
X97427973Y-39077500D01*
X97705227Y-39077500D01*
X97977153Y-39023410D01*
X98233301Y-38917310D01*
X98463829Y-38763276D01*
X98584041Y-38643064D01*
X99543141Y-38643064D01*
X99611393Y-38884227D01*
X99862211Y-39002377D01*
X100131260Y-39069324D01*
X100408200Y-39082496D01*
X100682388Y-39041387D01*
X100943288Y-38947576D01*
X101061807Y-38884227D01*
X101130059Y-38643064D01*
X100336600Y-37849605D01*
X99543141Y-38643064D01*
X98584041Y-38643064D01*
X98659876Y-38567229D01*
X98813910Y-38336701D01*
X98920010Y-38080553D01*
X98951322Y-37923138D01*
X98965213Y-38015788D01*
X99059024Y-38276688D01*
X99122373Y-38395207D01*
X99363536Y-38463459D01*
X100156995Y-37670000D01*
X99363536Y-36876541D01*
X99122373Y-36944793D01*
X99004223Y-37195611D01*
X98950366Y-37412054D01*
X98920010Y-37259447D01*
X98813910Y-37003299D01*
X98659876Y-36772771D01*
X98584041Y-36696936D01*
X99543141Y-36696936D01*
X100336600Y-37490395D01*
X101130059Y-36696936D01*
X101061807Y-36455773D01*
X100810989Y-36337623D01*
X100541940Y-36270676D01*
X100265000Y-36257504D01*
X99990812Y-36298613D01*
X99729912Y-36392424D01*
X99611393Y-36455773D01*
X99543141Y-36696936D01*
X98584041Y-36696936D01*
X98463829Y-36576724D01*
X98233301Y-36422690D01*
X97977153Y-36316590D01*
X97705227Y-36262500D01*
X97427973Y-36262500D01*
X97156047Y-36316590D01*
X96899899Y-36422690D01*
X96669371Y-36576724D01*
X96473324Y-36772771D01*
X96319290Y-37003299D01*
X96213190Y-37259447D01*
X96159100Y-37531373D01*
X92063134Y-37531373D01*
X92122467Y-37419813D01*
X92296100Y-36843109D01*
X92353887Y-36243613D01*
X92293608Y-35644362D01*
X92117580Y-35068386D01*
X91839662Y-34548439D01*
X91429631Y-34281574D01*
X89461205Y-36250000D01*
X89101995Y-36250000D01*
X87133569Y-34281574D01*
X86723538Y-34548439D01*
X86440733Y-35080187D01*
X86267100Y-35656891D01*
X86209313Y-36256387D01*
X80960000Y-36256387D01*
X80960000Y-34101969D01*
X87313174Y-34101969D01*
X89281600Y-36070395D01*
X91250026Y-34101969D01*
X90983161Y-33691938D01*
X90451413Y-33409133D01*
X89874709Y-33235500D01*
X89275213Y-33177713D01*
X88675962Y-33237992D01*
X88099986Y-33414020D01*
X87580039Y-33691938D01*
X87313174Y-34101969D01*
X80960000Y-34101969D01*
X80960000Y-31489209D01*
X80965315Y-31495685D01*
X81062006Y-31575037D01*
X81172320Y-31634002D01*
X81292018Y-31670312D01*
X81416500Y-31682572D01*
X81980750Y-31679500D01*
X82139500Y-31520750D01*
X82139500Y-30321500D01*
X82119500Y-30321500D01*
X82119500Y-30067500D01*
X82139500Y-30067500D01*
X82139500Y-30047500D01*
X82393500Y-30047500D01*
X82393500Y-30067500D01*
G36*
X107455348Y-34815858D02*
G01*
X107441205Y-34830000D01*
X107455348Y-34844143D01*
X107275743Y-35023748D01*
X107261600Y-35009605D01*
X107247458Y-35023748D01*
X107067853Y-34844143D01*
X107081995Y-34830000D01*
X107067853Y-34815858D01*
X107247458Y-34636253D01*
X107261600Y-34650395D01*
X107275743Y-34636253D01*
X107455348Y-34815858D01*
X107455348Y-34815858D01*
G37*
X107455348Y-34815858D02*
X107441205Y-34830000D01*
X107455348Y-34844143D01*
X107275743Y-35023748D01*
X107261600Y-35009605D01*
X107247458Y-35023748D01*
X107067853Y-34844143D01*
X107081995Y-34830000D01*
X107067853Y-34815858D01*
X107247458Y-34636253D01*
X107261600Y-34650395D01*
X107275743Y-34636253D01*
X107455348Y-34815858D01*
G36*
X112995348Y-34815858D02*
G01*
X112981205Y-34830000D01*
X112995348Y-34844143D01*
X112815743Y-35023748D01*
X112801600Y-35009605D01*
X112787458Y-35023748D01*
X112607853Y-34844143D01*
X112621995Y-34830000D01*
X112607853Y-34815858D01*
X112787458Y-34636253D01*
X112801600Y-34650395D01*
X112815743Y-34636253D01*
X112995348Y-34815858D01*
X112995348Y-34815858D01*
G37*
X112995348Y-34815858D02*
X112981205Y-34830000D01*
X112995348Y-34844143D01*
X112815743Y-35023748D01*
X112801600Y-35009605D01*
X112787458Y-35023748D01*
X112607853Y-34844143D01*
X112621995Y-34830000D01*
X112607853Y-34815858D01*
X112787458Y-34636253D01*
X112801600Y-34650395D01*
X112815743Y-34636253D01*
X112995348Y-34815858D01*
G36*
X120493500Y-30067500D02*
G01*
X122779500Y-30067500D01*
X122779500Y-30047500D01*
X123033500Y-30047500D01*
X123033500Y-30067500D01*
X123053500Y-30067500D01*
X123053500Y-30321500D01*
X123033500Y-30321500D01*
X123033500Y-31514655D01*
X123263390Y-31635976D01*
X123410599Y-31591325D01*
X123631526Y-31486095D01*
X123705845Y-31560414D01*
X123850795Y-31657267D01*
X124011855Y-31723980D01*
X124019759Y-31725552D01*
X123387408Y-32357904D01*
X123359363Y-32380920D01*
X123267514Y-32492838D01*
X123209416Y-32601532D01*
X123199264Y-32620525D01*
X123157235Y-32759073D01*
X123143044Y-32903158D01*
X123146601Y-32939273D01*
X123146601Y-33628326D01*
X122984371Y-33736724D01*
X122788324Y-33932771D01*
X122634290Y-34163299D01*
X122528190Y-34419447D01*
X122496600Y-34578259D01*
X122465010Y-34419447D01*
X122358910Y-34163299D01*
X122204876Y-33932771D01*
X122008829Y-33736724D01*
X121846600Y-33628326D01*
X121846600Y-32390919D01*
X121959205Y-32344277D01*
X122104155Y-32247424D01*
X122227424Y-32124155D01*
X122324277Y-31979205D01*
X122390990Y-31818145D01*
X122425000Y-31647165D01*
X122425000Y-31598180D01*
X122549610Y-31635976D01*
X122779500Y-31514655D01*
X122779500Y-30321500D01*
X120493500Y-30321500D01*
X120493500Y-31514655D01*
X120532622Y-31535301D01*
X120497514Y-31578080D01*
X120433312Y-31698194D01*
X120429264Y-31705767D01*
X120387235Y-31844315D01*
X120373044Y-31988400D01*
X120376601Y-32024515D01*
X120376600Y-33628326D01*
X120214371Y-33736724D01*
X120024499Y-33926596D01*
X120024499Y-31628119D01*
X120239500Y-31514655D01*
X120239500Y-30321500D01*
X120219500Y-30321500D01*
X120219500Y-30067500D01*
X120239500Y-30067500D01*
X120239500Y-30047500D01*
X120493500Y-30047500D01*
X120493500Y-30067500D01*
X120493500Y-30067500D01*
G37*
X120493500Y-30067500D02*
X122779500Y-30067500D01*
X122779500Y-30047500D01*
X123033500Y-30047500D01*
X123033500Y-30067500D01*
X123053500Y-30067500D01*
X123053500Y-30321500D01*
X123033500Y-30321500D01*
X123033500Y-31514655D01*
X123263390Y-31635976D01*
X123410599Y-31591325D01*
X123631526Y-31486095D01*
X123705845Y-31560414D01*
X123850795Y-31657267D01*
X124011855Y-31723980D01*
X124019759Y-31725552D01*
X123387408Y-32357904D01*
X123359363Y-32380920D01*
X123267514Y-32492838D01*
X123209416Y-32601532D01*
X123199264Y-32620525D01*
X123157235Y-32759073D01*
X123143044Y-32903158D01*
X123146601Y-32939273D01*
X123146601Y-33628326D01*
X122984371Y-33736724D01*
X122788324Y-33932771D01*
X122634290Y-34163299D01*
X122528190Y-34419447D01*
X122496600Y-34578259D01*
X122465010Y-34419447D01*
X122358910Y-34163299D01*
X122204876Y-33932771D01*
X122008829Y-33736724D01*
X121846600Y-33628326D01*
X121846600Y-32390919D01*
X121959205Y-32344277D01*
X122104155Y-32247424D01*
X122227424Y-32124155D01*
X122324277Y-31979205D01*
X122390990Y-31818145D01*
X122425000Y-31647165D01*
X122425000Y-31598180D01*
X122549610Y-31635976D01*
X122779500Y-31514655D01*
X122779500Y-30321500D01*
X120493500Y-30321500D01*
X120493500Y-31514655D01*
X120532622Y-31535301D01*
X120497514Y-31578080D01*
X120433312Y-31698194D01*
X120429264Y-31705767D01*
X120387235Y-31844315D01*
X120373044Y-31988400D01*
X120376601Y-32024515D01*
X120376600Y-33628326D01*
X120214371Y-33736724D01*
X120024499Y-33926596D01*
X120024499Y-31628119D01*
X120239500Y-31514655D01*
X120239500Y-30321500D01*
X120219500Y-30321500D01*
X120219500Y-30067500D01*
X120239500Y-30067500D01*
X120239500Y-30047500D01*
X120493500Y-30047500D01*
X120493500Y-30067500D01*
G36*
X107930116Y9399892D02*
G01*
X107910782Y9078405D01*
X107954539Y8759325D01*
X108059705Y8454912D01*
X108152686Y8280956D01*
X108417087Y8185192D01*
X109372895Y9141000D01*
X109358753Y9155142D01*
X109538358Y9334747D01*
X109552500Y9320605D01*
X109566643Y9334747D01*
X109746248Y9155142D01*
X109732105Y9141000D01*
X110687913Y8185192D01*
X110952314Y8280956D01*
X111093204Y8570571D01*
X111174884Y8882108D01*
X111194218Y9203595D01*
X111150461Y9522675D01*
X111109929Y9640000D01*
X115143068Y9640000D01*
X115080116Y9399892D01*
X115060782Y9078405D01*
X115104539Y8759325D01*
X115209705Y8454912D01*
X115302686Y8280956D01*
X115567087Y8185192D01*
X116522895Y9141000D01*
X116508753Y9155142D01*
X116688358Y9334747D01*
X116702500Y9320605D01*
X116716643Y9334747D01*
X116896248Y9155142D01*
X116882105Y9141000D01*
X117837913Y8185192D01*
X118102314Y8280956D01*
X118243204Y8570571D01*
X118324884Y8882108D01*
X118344218Y9203595D01*
X118300461Y9522675D01*
X118259929Y9640000D01*
X140037916Y9640000D01*
X139942008Y9588904D01*
X139934411Y9583828D01*
X139634231Y9145374D01*
X141800000Y6979605D01*
X141814143Y6993747D01*
X141993748Y6814142D01*
X141979605Y6800000D01*
X144145374Y4634231D01*
X144583828Y4934411D01*
X144640000Y5039158D01*
X144640001Y-19870492D01*
X144615799Y-19841003D01*
X144592001Y-19812005D01*
X144563002Y-19788207D01*
X144149512Y-19374717D01*
X144140987Y-19331858D01*
X144074274Y-19170798D01*
X143977421Y-19025848D01*
X143854152Y-18902579D01*
X143709202Y-18805726D01*
X143548142Y-18739013D01*
X143377162Y-18705003D01*
X143202832Y-18705003D01*
X143031852Y-18739013D01*
X142870792Y-18805726D01*
X142725842Y-18902579D01*
X142602573Y-19025848D01*
X142505720Y-19170798D01*
X142439007Y-19331858D01*
X142404997Y-19502838D01*
X142404997Y-19677168D01*
X142439007Y-19848148D01*
X142505720Y-20009208D01*
X142602573Y-20154158D01*
X142725842Y-20277427D01*
X142870792Y-20374280D01*
X143031852Y-20440993D01*
X143074711Y-20449518D01*
X143292001Y-20666809D01*
X143292000Y-26169500D01*
X143153550Y-26169500D01*
X142935389Y-26190987D01*
X142655466Y-26275901D01*
X142397486Y-26413794D01*
X142171366Y-26599366D01*
X142145000Y-26631493D01*
X142145000Y-20216970D01*
X142148676Y-20179647D01*
X142145000Y-20142324D01*
X142145000Y-20142315D01*
X142134003Y-20030662D01*
X142090546Y-19887401D01*
X142019974Y-19755372D01*
X141925001Y-19639647D01*
X141896002Y-19615848D01*
X141577706Y-19297553D01*
X141525203Y-19170798D01*
X141428350Y-19025848D01*
X141305081Y-18902579D01*
X141160131Y-18805726D01*
X140999071Y-18739013D01*
X140828091Y-18705003D01*
X140653761Y-18705003D01*
X140482781Y-18739013D01*
X140321721Y-18805726D01*
X140176771Y-18902579D01*
X140053502Y-19025848D01*
X139956649Y-19170798D01*
X139889936Y-19331858D01*
X139855926Y-19502838D01*
X139855926Y-19677168D01*
X139889936Y-19848148D01*
X139956649Y-20009208D01*
X140053502Y-20154158D01*
X140176771Y-20277427D01*
X140321721Y-20374280D01*
X140482781Y-20440993D01*
X140593583Y-20463033D01*
X140625001Y-20494451D01*
X140625000Y-26169500D01*
X140613550Y-26169500D01*
X140395389Y-26190987D01*
X140115466Y-26275901D01*
X139857486Y-26413794D01*
X139668500Y-26568891D01*
X139668500Y-20298612D01*
X139672176Y-20261289D01*
X139668500Y-20223966D01*
X139668500Y-20223957D01*
X139657503Y-20112304D01*
X139614046Y-19969043D01*
X139597227Y-19937578D01*
X139543474Y-19837013D01*
X139472299Y-19750287D01*
X139448501Y-19721289D01*
X139419502Y-19697491D01*
X139035050Y-19313038D01*
X138976132Y-19170798D01*
X138879279Y-19025848D01*
X138756010Y-18902579D01*
X138611060Y-18805726D01*
X138450000Y-18739013D01*
X138279020Y-18705003D01*
X138104690Y-18705003D01*
X137933710Y-18739013D01*
X137772650Y-18805726D01*
X137627700Y-18902579D01*
X137504431Y-19025848D01*
X137407578Y-19170798D01*
X137340865Y-19331858D01*
X137306855Y-19502838D01*
X137306855Y-19677168D01*
X137340865Y-19848148D01*
X137407578Y-20009208D01*
X137504431Y-20154158D01*
X137627700Y-20277427D01*
X137772650Y-20374280D01*
X137933710Y-20440993D01*
X138033189Y-20460781D01*
X138148501Y-20576093D01*
X138148500Y-26169500D01*
X138073550Y-26169500D01*
X137855389Y-26190987D01*
X137575466Y-26275901D01*
X137317486Y-26413794D01*
X137216499Y-26496672D01*
X137216499Y-20404756D01*
X137220175Y-20367431D01*
X137216499Y-20330106D01*
X137216499Y-20330098D01*
X137205502Y-20218445D01*
X137162045Y-20075184D01*
X137091473Y-19943155D01*
X136996500Y-19827430D01*
X136967501Y-19803632D01*
X136492393Y-19328523D01*
X136427061Y-19170798D01*
X136330208Y-19025848D01*
X136206939Y-18902579D01*
X136061989Y-18805726D01*
X135900929Y-18739013D01*
X135729949Y-18705003D01*
X135555619Y-18705003D01*
X135384639Y-18739013D01*
X135223579Y-18805726D01*
X135078629Y-18902579D01*
X134955360Y-19025848D01*
X134858507Y-19170798D01*
X134791794Y-19331858D01*
X134757784Y-19502838D01*
X134757784Y-19677168D01*
X134791794Y-19848148D01*
X134858507Y-20009208D01*
X134955360Y-20154158D01*
X135078629Y-20277427D01*
X135223579Y-20374280D01*
X135384639Y-20440993D01*
X135472795Y-20458528D01*
X135696500Y-20682234D01*
X135696499Y-26171179D01*
X135679450Y-26169500D01*
X135533550Y-26169500D01*
X135315389Y-26190987D01*
X135035466Y-26275901D01*
X134777486Y-26413794D01*
X134588500Y-26568891D01*
X134588500Y-20334899D01*
X134592176Y-20297574D01*
X134588500Y-20260249D01*
X134588500Y-20260241D01*
X134577503Y-20148588D01*
X134534046Y-20005327D01*
X134463474Y-19873298D01*
X134368501Y-19757573D01*
X134339502Y-19733775D01*
X133946470Y-19340743D01*
X133944703Y-19331858D01*
X133877990Y-19170798D01*
X133781137Y-19025848D01*
X133657868Y-18902579D01*
X133512918Y-18805726D01*
X133351858Y-18739013D01*
X133180878Y-18705003D01*
X133006548Y-18705003D01*
X132835568Y-18739013D01*
X132674508Y-18805726D01*
X132529558Y-18902579D01*
X132406289Y-19025848D01*
X132309436Y-19170798D01*
X132242723Y-19331858D01*
X132208713Y-19502838D01*
X132208713Y-19677168D01*
X132242723Y-19848148D01*
X132309436Y-20009208D01*
X132406289Y-20154158D01*
X132529558Y-20277427D01*
X132674508Y-20374280D01*
X132835568Y-20440993D01*
X132912400Y-20456276D01*
X133068501Y-20612377D01*
X133068500Y-26169500D01*
X132993550Y-26169500D01*
X132775389Y-26190987D01*
X132495466Y-26275901D01*
X132302500Y-26379043D01*
X132302500Y-20480038D01*
X132306176Y-20442715D01*
X132302500Y-20405392D01*
X132302500Y-20405383D01*
X132291503Y-20293730D01*
X132248046Y-20150469D01*
X132177474Y-20018440D01*
X132082501Y-19902715D01*
X132053503Y-19878917D01*
X131295765Y-19121180D01*
X131232066Y-19025848D01*
X131108797Y-18902579D01*
X130963847Y-18805726D01*
X130951815Y-18800742D01*
X130836888Y-18739312D01*
X130693627Y-18695856D01*
X130544642Y-18681182D01*
X130395657Y-18695856D01*
X130252396Y-18739312D01*
X130137469Y-18800742D01*
X130125437Y-18805726D01*
X129980487Y-18902579D01*
X129857218Y-19025848D01*
X129760365Y-19170798D01*
X129693652Y-19331858D01*
X129659642Y-19502838D01*
X129659642Y-19677168D01*
X129693652Y-19848148D01*
X129760365Y-20009208D01*
X129857218Y-20154158D01*
X129980487Y-20277427D01*
X130125437Y-20374280D01*
X130286497Y-20440993D01*
X130457477Y-20475003D01*
X130499986Y-20475003D01*
X130782501Y-20757519D01*
X130782500Y-26187529D01*
X130599450Y-26169500D01*
X130453550Y-26169500D01*
X130235389Y-26190987D01*
X129955466Y-26275901D01*
X129783113Y-26368025D01*
X129732253Y-26383453D01*
X129647991Y-26428492D01*
X129647991Y-20447171D01*
X129651667Y-20409848D01*
X129647991Y-20372525D01*
X129647991Y-20372516D01*
X129636994Y-20260863D01*
X129593537Y-20117602D01*
X129522965Y-19985573D01*
X129492961Y-19949013D01*
X129451790Y-19898845D01*
X129451786Y-19898841D01*
X129427992Y-19869848D01*
X129398999Y-19846054D01*
X128819521Y-19266577D01*
X128779848Y-19170798D01*
X128682995Y-19025848D01*
X128559726Y-18902579D01*
X128414776Y-18805726D01*
X128253716Y-18739013D01*
X128082736Y-18705003D01*
X127908406Y-18705003D01*
X127737426Y-18739013D01*
X127576366Y-18805726D01*
X127431416Y-18902579D01*
X127308147Y-19025848D01*
X127211294Y-19170798D01*
X127144581Y-19331858D01*
X127110571Y-19502838D01*
X127110571Y-19677168D01*
X127144581Y-19848148D01*
X127211294Y-20009208D01*
X127308147Y-20154158D01*
X127431416Y-20277427D01*
X127576366Y-20374280D01*
X127737426Y-20440993D01*
X127870878Y-20467538D01*
X128127992Y-20724652D01*
X128127991Y-26176251D01*
X128059450Y-26169500D01*
X127913550Y-26169500D01*
X127695389Y-26190987D01*
X127415466Y-26275901D01*
X127157486Y-26413794D01*
X127056499Y-26496672D01*
X127056499Y-25775981D01*
X127057990Y-25760843D01*
X127057990Y-25760842D01*
X127061667Y-25723510D01*
X127057990Y-25686177D01*
X127057990Y-20351815D01*
X127061666Y-20314490D01*
X127057990Y-20277165D01*
X127057990Y-20277157D01*
X127046993Y-20165504D01*
X127003536Y-20022243D01*
X126932964Y-19890214D01*
X126837991Y-19774489D01*
X126808993Y-19750691D01*
X126231963Y-19173662D01*
X126230777Y-19170798D01*
X126133924Y-19025848D01*
X126010655Y-18902579D01*
X125865705Y-18805726D01*
X125704645Y-18739013D01*
X125627104Y-18723589D01*
X125595485Y-18713998D01*
X125562605Y-18710760D01*
X125533665Y-18705003D01*
X125504159Y-18705003D01*
X125446500Y-18699324D01*
X125388841Y-18705003D01*
X125359335Y-18705003D01*
X125330395Y-18710760D01*
X125297515Y-18713998D01*
X125265896Y-18723589D01*
X125188355Y-18739013D01*
X125027295Y-18805726D01*
X124882345Y-18902579D01*
X124759076Y-19025848D01*
X124662223Y-19170798D01*
X124595510Y-19331858D01*
X124561500Y-19502838D01*
X124561500Y-19677168D01*
X124595510Y-19848148D01*
X124662223Y-20009208D01*
X124759076Y-20154158D01*
X124882345Y-20277427D01*
X125027295Y-20374280D01*
X125188355Y-20440993D01*
X125359335Y-20475003D01*
X125383701Y-20475003D01*
X125537991Y-20629293D01*
X125537990Y-25672540D01*
X125532823Y-25725001D01*
X125536500Y-25762333D01*
X125536500Y-26171179D01*
X125519450Y-26169500D01*
X125373550Y-26169500D01*
X125155389Y-26190987D01*
X124875466Y-26275901D01*
X124617486Y-26413794D01*
X124391366Y-26599366D01*
X124205794Y-26825486D01*
X124176500Y-26880291D01*
X124147206Y-26825486D01*
X123961634Y-26599366D01*
X123735514Y-26413794D01*
X123477534Y-26275901D01*
X123197611Y-26190987D01*
X122979450Y-26169500D01*
X122833550Y-26169500D01*
X122615389Y-26190987D01*
X122335466Y-26275901D01*
X122077486Y-26413794D01*
X121851366Y-26599366D01*
X121825000Y-26631493D01*
X121825000Y-20135322D01*
X121828676Y-20097999D01*
X121825000Y-20060676D01*
X121825000Y-20060667D01*
X121814003Y-19949014D01*
X121770546Y-19805753D01*
X121699974Y-19673724D01*
X121605001Y-19557999D01*
X121576002Y-19534201D01*
X120877502Y-18835701D01*
X120790776Y-18764526D01*
X120658746Y-18693954D01*
X120515485Y-18650498D01*
X120366500Y-18635824D01*
X120217515Y-18650498D01*
X120074254Y-18693954D01*
X119942224Y-18764526D01*
X119826499Y-18859499D01*
X119739883Y-18965041D01*
X119679076Y-19025848D01*
X119582223Y-19170798D01*
X119515510Y-19331858D01*
X119481500Y-19502838D01*
X119481500Y-19677168D01*
X119515510Y-19848148D01*
X119582223Y-20009208D01*
X119679076Y-20154158D01*
X119802345Y-20277427D01*
X119947295Y-20374280D01*
X120108355Y-20440993D01*
X120279335Y-20475003D01*
X120305001Y-20475003D01*
X120305000Y-26169500D01*
X120293550Y-26169500D01*
X120075389Y-26190987D01*
X119795466Y-26275901D01*
X119537486Y-26413794D01*
X119311366Y-26599366D01*
X119125794Y-26825486D01*
X119091299Y-26890023D01*
X119021678Y-26773145D01*
X118826769Y-26556912D01*
X118593420Y-26382859D01*
X118330599Y-26257675D01*
X118183390Y-26213024D01*
X117953500Y-26334345D01*
X117953500Y-27527500D01*
X117973500Y-27527500D01*
X117973500Y-27781500D01*
X117953500Y-27781500D01*
X117953500Y-30067500D01*
X117973500Y-30067500D01*
X117973500Y-30321500D01*
X117953500Y-30321500D01*
X117953500Y-30341500D01*
X117699500Y-30341500D01*
X117699500Y-30321500D01*
X117679500Y-30321500D01*
X117679500Y-30067500D01*
X117699500Y-30067500D01*
X117699500Y-27781500D01*
X115413500Y-27781500D01*
X115413500Y-30067500D01*
X115433500Y-30067500D01*
X115433500Y-30321500D01*
X115413500Y-30321500D01*
X115413500Y-31514655D01*
X115643390Y-31635976D01*
X115775001Y-31596056D01*
X115775001Y-31818469D01*
X115245543Y-32347928D01*
X115217424Y-32305845D01*
X115094155Y-32182576D01*
X114949205Y-32085723D01*
X114788145Y-32019010D01*
X114617165Y-31985000D01*
X114442835Y-31985000D01*
X114271855Y-32019010D01*
X114110795Y-32085723D01*
X113965845Y-32182576D01*
X113842576Y-32305845D01*
X113745723Y-32450795D01*
X113679010Y-32611855D01*
X113662874Y-32692976D01*
X113572513Y-32803081D01*
X113504263Y-32930768D01*
X113482624Y-33002102D01*
X113462235Y-33069315D01*
X113448044Y-33213400D01*
X113451600Y-33249505D01*
X113451600Y-33580346D01*
X113275989Y-33497623D01*
X113006940Y-33430676D01*
X112730000Y-33417504D01*
X112455812Y-33458613D01*
X112194912Y-33552424D01*
X112151600Y-33575574D01*
X112151600Y-33312705D01*
X112155156Y-33276600D01*
X112140965Y-33132514D01*
X112123811Y-33075967D01*
X112098937Y-32993967D01*
X112030687Y-32866280D01*
X111938838Y-32754362D01*
X111910787Y-32731341D01*
X111765000Y-32585554D01*
X111765000Y-32172953D01*
X111814277Y-32099205D01*
X111880990Y-31938145D01*
X111915000Y-31767165D01*
X111915000Y-31592835D01*
X111880990Y-31421855D01*
X111870573Y-31396705D01*
X111917486Y-31435206D01*
X112175466Y-31573099D01*
X112455389Y-31658013D01*
X112673550Y-31679500D01*
X112819450Y-31679500D01*
X113037611Y-31658013D01*
X113317534Y-31573099D01*
X113575514Y-31435206D01*
X113801634Y-31249634D01*
X113987206Y-31023514D01*
X114021701Y-30958977D01*
X114091322Y-31075855D01*
X114286231Y-31292088D01*
X114519580Y-31466141D01*
X114782401Y-31591325D01*
X114929610Y-31635976D01*
X115159500Y-31514655D01*
X115159500Y-30321500D01*
X115139500Y-30321500D01*
X115139500Y-30067500D01*
X115159500Y-30067500D01*
X115159500Y-27781500D01*
X115139500Y-27781500D01*
X115139500Y-27527500D01*
X115159500Y-27527500D01*
X115159500Y-26334345D01*
X115413500Y-26334345D01*
X115413500Y-27527500D01*
X117699500Y-27527500D01*
X117699500Y-26334345D01*
X117469610Y-26213024D01*
X117322401Y-26257675D01*
X117059580Y-26382859D01*
X116826231Y-26556912D01*
X116631322Y-26773145D01*
X116556500Y-26898755D01*
X116481678Y-26773145D01*
X116286769Y-26556912D01*
X116053420Y-26382859D01*
X115790599Y-26257675D01*
X115643390Y-26213024D01*
X115413500Y-26334345D01*
X115159500Y-26334345D01*
X114929610Y-26213024D01*
X114782401Y-26257675D01*
X114519580Y-26382859D01*
X114286231Y-26556912D01*
X114205000Y-26647030D01*
X114205000Y-20325822D01*
X114208676Y-20288499D01*
X114205000Y-20251176D01*
X114205000Y-20251167D01*
X114194003Y-20139514D01*
X114150546Y-19996253D01*
X114079974Y-19864224D01*
X113985001Y-19748499D01*
X113956002Y-19724701D01*
X113606014Y-19374713D01*
X113597490Y-19331858D01*
X113530777Y-19170798D01*
X113433924Y-19025848D01*
X113310655Y-18902579D01*
X113165705Y-18805726D01*
X113004645Y-18739013D01*
X112833665Y-18705003D01*
X112659335Y-18705003D01*
X112488355Y-18739013D01*
X112327295Y-18805726D01*
X112182345Y-18902579D01*
X112059076Y-19025848D01*
X111962223Y-19170798D01*
X111895510Y-19331858D01*
X111861500Y-19502838D01*
X111861500Y-19677168D01*
X111895510Y-19848148D01*
X111962223Y-20009208D01*
X112059076Y-20154158D01*
X112182345Y-20277427D01*
X112327295Y-20374280D01*
X112488355Y-20440993D01*
X112531217Y-20449519D01*
X112685001Y-20603303D01*
X112685000Y-26169500D01*
X112673550Y-26169500D01*
X112455389Y-26190987D01*
X112175466Y-26275901D01*
X111917486Y-26413794D01*
X111691366Y-26599366D01*
X111505794Y-26825486D01*
X111471299Y-26890023D01*
X111401678Y-26773145D01*
X111206769Y-26556912D01*
X110973420Y-26382859D01*
X110710599Y-26257675D01*
X110563390Y-26213024D01*
X110333500Y-26334345D01*
X110333500Y-27527500D01*
X110353500Y-27527500D01*
X110353500Y-27781500D01*
X110333500Y-27781500D01*
X110333500Y-30067500D01*
X110353500Y-30067500D01*
X110353500Y-30321500D01*
X110333500Y-30321500D01*
X110333500Y-30341500D01*
X110079500Y-30341500D01*
X110079500Y-30321500D01*
X107793500Y-30321500D01*
X107793500Y-30341500D01*
X107539500Y-30341500D01*
X107539500Y-30321500D01*
X105253500Y-30321500D01*
X105253500Y-30341500D01*
X104999500Y-30341500D01*
X104999500Y-30321500D01*
X102713500Y-30321500D01*
X102713500Y-30341500D01*
X102459500Y-30341500D01*
X102459500Y-30321500D01*
X102439500Y-30321500D01*
X102439500Y-30067500D01*
X102459500Y-30067500D01*
X102459500Y-30047500D01*
X102713500Y-30047500D01*
X102713500Y-30067500D01*
X104999500Y-30067500D01*
X104999500Y-27781500D01*
X105253500Y-27781500D01*
X105253500Y-30067500D01*
X107539500Y-30067500D01*
X107539500Y-27781500D01*
X107793500Y-27781500D01*
X107793500Y-30067500D01*
X110079500Y-30067500D01*
X110079500Y-27781500D01*
X107793500Y-27781500D01*
X107539500Y-27781500D01*
X105253500Y-27781500D01*
X104999500Y-27781500D01*
X104979500Y-27781500D01*
X104979500Y-27527500D01*
X104999500Y-27527500D01*
X104999500Y-26334345D01*
X105253500Y-26334345D01*
X105253500Y-27527500D01*
X107539500Y-27527500D01*
X107539500Y-26334345D01*
X107793500Y-26334345D01*
X107793500Y-27527500D01*
X110079500Y-27527500D01*
X110079500Y-26334345D01*
X109849610Y-26213024D01*
X109702401Y-26257675D01*
X109439580Y-26382859D01*
X109206231Y-26556912D01*
X109011322Y-26773145D01*
X108936500Y-26898755D01*
X108861678Y-26773145D01*
X108666769Y-26556912D01*
X108433420Y-26382859D01*
X108170599Y-26257675D01*
X108023390Y-26213024D01*
X107793500Y-26334345D01*
X107539500Y-26334345D01*
X107309610Y-26213024D01*
X107162401Y-26257675D01*
X106899580Y-26382859D01*
X106666231Y-26556912D01*
X106471322Y-26773145D01*
X106396500Y-26898755D01*
X106321678Y-26773145D01*
X106126769Y-26556912D01*
X105893420Y-26382859D01*
X105630599Y-26257675D01*
X105483390Y-26213024D01*
X105253500Y-26334345D01*
X104999500Y-26334345D01*
X104769610Y-26213024D01*
X104622401Y-26257675D01*
X104359580Y-26382859D01*
X104299000Y-26428045D01*
X104299000Y-20770332D01*
X104302676Y-20733007D01*
X104299000Y-20695682D01*
X104299000Y-20695674D01*
X104288003Y-20584021D01*
X104244546Y-20440760D01*
X104173974Y-20308731D01*
X104079001Y-20193006D01*
X104050003Y-20169208D01*
X103255511Y-19374717D01*
X103246986Y-19331858D01*
X103180273Y-19170798D01*
X103083420Y-19025848D01*
X102960151Y-18902579D01*
X102815201Y-18805726D01*
X102654141Y-18739013D01*
X102483161Y-18705003D01*
X102308831Y-18705003D01*
X102137851Y-18739013D01*
X101976791Y-18805726D01*
X101831841Y-18902579D01*
X101708572Y-19025848D01*
X101611719Y-19170798D01*
X101545006Y-19331858D01*
X101510996Y-19502838D01*
X101510996Y-19677168D01*
X101545006Y-19848148D01*
X101611719Y-20009208D01*
X101708572Y-20154158D01*
X101831841Y-20277427D01*
X101976791Y-20374280D01*
X102137851Y-20440993D01*
X102180710Y-20449518D01*
X102779001Y-21047810D01*
X102779000Y-26181275D01*
X102659450Y-26169500D01*
X102513550Y-26169500D01*
X102295389Y-26190987D01*
X102015466Y-26275901D01*
X101757486Y-26413794D01*
X101695500Y-26464665D01*
X101695500Y-20683027D01*
X101699177Y-20645694D01*
X101684503Y-20496708D01*
X101641046Y-20353447D01*
X101570474Y-20221418D01*
X101499299Y-20134691D01*
X101475501Y-20105693D01*
X101446503Y-20081895D01*
X100739324Y-19374717D01*
X100730799Y-19331858D01*
X100664086Y-19170798D01*
X100567233Y-19025848D01*
X100443964Y-18902579D01*
X100299014Y-18805726D01*
X100137954Y-18739013D01*
X99966974Y-18705003D01*
X99792644Y-18705003D01*
X99621664Y-18739013D01*
X99460604Y-18805726D01*
X99315654Y-18902579D01*
X99192385Y-19025848D01*
X99095532Y-19170798D01*
X99028819Y-19331858D01*
X98994809Y-19502838D01*
X98994809Y-19677168D01*
X99028819Y-19848148D01*
X99095532Y-20009208D01*
X99192385Y-20154158D01*
X99315654Y-20277427D01*
X99460604Y-20374280D01*
X99621664Y-20440993D01*
X99664523Y-20449518D01*
X100175501Y-20960497D01*
X100175500Y-26078029D01*
X100046500Y-26065323D01*
X99897514Y-26079997D01*
X99754253Y-26123454D01*
X99622224Y-26194026D01*
X99550014Y-26253287D01*
X99475466Y-26275901D01*
X99217486Y-26413794D01*
X99028500Y-26568891D01*
X99028500Y-20532206D01*
X99032176Y-20494881D01*
X99028500Y-20457556D01*
X99028500Y-20457548D01*
X99017503Y-20345895D01*
X98974046Y-20202634D01*
X98903474Y-20070605D01*
X98808501Y-19954880D01*
X98779503Y-19931082D01*
X98223137Y-19374717D01*
X98214612Y-19331858D01*
X98147899Y-19170798D01*
X98051046Y-19025848D01*
X97927777Y-18902579D01*
X97782827Y-18805726D01*
X97621767Y-18739013D01*
X97450787Y-18705003D01*
X97276457Y-18705003D01*
X97105477Y-18739013D01*
X96944417Y-18805726D01*
X96799467Y-18902579D01*
X96676198Y-19025848D01*
X96579345Y-19170798D01*
X96512632Y-19331858D01*
X96478622Y-19502838D01*
X96478622Y-19677168D01*
X96512632Y-19848148D01*
X96579345Y-20009208D01*
X96676198Y-20154158D01*
X96799467Y-20277427D01*
X96944417Y-20374280D01*
X97105477Y-20440993D01*
X97148336Y-20449518D01*
X97508501Y-20809684D01*
X97508500Y-26169500D01*
X97433550Y-26169500D01*
X97215389Y-26190987D01*
X96935466Y-26275901D01*
X96742500Y-26379043D01*
X96742500Y-20762390D01*
X96746176Y-20725067D01*
X96742500Y-20687744D01*
X96742500Y-20687735D01*
X96731503Y-20576082D01*
X96688046Y-20432821D01*
X96617474Y-20300792D01*
X96522501Y-20185067D01*
X96493503Y-20161269D01*
X95706950Y-19374717D01*
X95698425Y-19331858D01*
X95631712Y-19170798D01*
X95534859Y-19025848D01*
X95411590Y-18902579D01*
X95266640Y-18805726D01*
X95105580Y-18739013D01*
X94934600Y-18705003D01*
X94760270Y-18705003D01*
X94589290Y-18739013D01*
X94428230Y-18805726D01*
X94283280Y-18902579D01*
X94160011Y-19025848D01*
X94063158Y-19170798D01*
X93996445Y-19331858D01*
X93962435Y-19502838D01*
X93962435Y-19677168D01*
X93996445Y-19848148D01*
X94063158Y-20009208D01*
X94160011Y-20154158D01*
X94283280Y-20277427D01*
X94428230Y-20374280D01*
X94589290Y-20440993D01*
X94632149Y-20449518D01*
X95222501Y-21039871D01*
X95222500Y-26187529D01*
X95039450Y-26169500D01*
X94893550Y-26169500D01*
X94675389Y-26190987D01*
X94395466Y-26275901D01*
X94202500Y-26379043D01*
X94202500Y-20738580D01*
X94206176Y-20701255D01*
X94202500Y-20663930D01*
X94202500Y-20663922D01*
X94191503Y-20552269D01*
X94148046Y-20409008D01*
X94077474Y-20276979D01*
X93982501Y-20161254D01*
X93953503Y-20137456D01*
X93190763Y-19374717D01*
X93182238Y-19331858D01*
X93115525Y-19170798D01*
X93018672Y-19025848D01*
X92895403Y-18902579D01*
X92750453Y-18805726D01*
X92589393Y-18739013D01*
X92418413Y-18705003D01*
X92244083Y-18705003D01*
X92073103Y-18739013D01*
X91912043Y-18805726D01*
X91767093Y-18902579D01*
X91643824Y-19025848D01*
X91546971Y-19170798D01*
X91480258Y-19331858D01*
X91446248Y-19502838D01*
X91446248Y-19677168D01*
X91480258Y-19848148D01*
X91546971Y-20009208D01*
X91643824Y-20154158D01*
X91767093Y-20277427D01*
X91912043Y-20374280D01*
X92073103Y-20440993D01*
X92115962Y-20449518D01*
X92682501Y-21016058D01*
X92682500Y-26187529D01*
X92499450Y-26169500D01*
X92353550Y-26169500D01*
X92135389Y-26190987D01*
X91855466Y-26275901D01*
X91597486Y-26413794D01*
X91535500Y-26464665D01*
X91535500Y-20587765D01*
X91539176Y-20550442D01*
X91535500Y-20513119D01*
X91535500Y-20513109D01*
X91524503Y-20401456D01*
X91481046Y-20258195D01*
X91410474Y-20126166D01*
X91315501Y-20010441D01*
X91286503Y-19986643D01*
X90674576Y-19374717D01*
X90666051Y-19331858D01*
X90599338Y-19170798D01*
X90502485Y-19025848D01*
X90379216Y-18902579D01*
X90234266Y-18805726D01*
X90073206Y-18739013D01*
X89902226Y-18705003D01*
X89727896Y-18705003D01*
X89556916Y-18739013D01*
X89395856Y-18805726D01*
X89250906Y-18902579D01*
X89127637Y-19025848D01*
X89030784Y-19170798D01*
X88964071Y-19331858D01*
X88930061Y-19502838D01*
X88930061Y-19677168D01*
X88964071Y-19848148D01*
X89030784Y-20009208D01*
X89127637Y-20154158D01*
X89250906Y-20277427D01*
X89395856Y-20374280D01*
X89556916Y-20440993D01*
X89599775Y-20449518D01*
X90015501Y-20865245D01*
X90015500Y-26175020D01*
X89959450Y-26169500D01*
X89813550Y-26169500D01*
X89595389Y-26190987D01*
X89315466Y-26275901D01*
X89057486Y-26413794D01*
X88868500Y-26568891D01*
X88868500Y-20436951D01*
X88872176Y-20399628D01*
X88868500Y-20362305D01*
X88868500Y-20362296D01*
X88857503Y-20250643D01*
X88814046Y-20107382D01*
X88773037Y-20030661D01*
X88743474Y-19975352D01*
X88672299Y-19888626D01*
X88648501Y-19859628D01*
X88619502Y-19835830D01*
X88158389Y-19374717D01*
X88149864Y-19331858D01*
X88083151Y-19170798D01*
X87986298Y-19025848D01*
X87863029Y-18902579D01*
X87718079Y-18805726D01*
X87557019Y-18739013D01*
X87386039Y-18705003D01*
X87211709Y-18705003D01*
X87040729Y-18739013D01*
X86879669Y-18805726D01*
X86734719Y-18902579D01*
X86611450Y-19025848D01*
X86514597Y-19170798D01*
X86447884Y-19331858D01*
X86413874Y-19502838D01*
X86413874Y-19677168D01*
X86447884Y-19848148D01*
X86514597Y-20009208D01*
X86611450Y-20154158D01*
X86734719Y-20277427D01*
X86879669Y-20374280D01*
X87040729Y-20440993D01*
X87083588Y-20449518D01*
X87348501Y-20714432D01*
X87348500Y-26169500D01*
X87273550Y-26169500D01*
X87055389Y-26190987D01*
X86775466Y-26275901D01*
X86517486Y-26413794D01*
X86291366Y-26599366D01*
X86265000Y-26631493D01*
X86265000Y-20349639D01*
X86268676Y-20312316D01*
X86265000Y-20274993D01*
X86265000Y-20274983D01*
X86254003Y-20163330D01*
X86210546Y-20020069D01*
X86139974Y-19888040D01*
X86045001Y-19772315D01*
X86016002Y-19748517D01*
X85642202Y-19374717D01*
X85633677Y-19331858D01*
X85566964Y-19170798D01*
X85470111Y-19025848D01*
X85346842Y-18902579D01*
X85201892Y-18805726D01*
X85040832Y-18739013D01*
X84869852Y-18705003D01*
X84695522Y-18705003D01*
X84524542Y-18739013D01*
X84363482Y-18805726D01*
X84218532Y-18902579D01*
X84095263Y-19025848D01*
X83998410Y-19170798D01*
X83931697Y-19331858D01*
X83897687Y-19502838D01*
X83897687Y-19677168D01*
X83931697Y-19848148D01*
X83998410Y-20009208D01*
X84095263Y-20154158D01*
X84218532Y-20277427D01*
X84363482Y-20374280D01*
X84524542Y-20440993D01*
X84567401Y-20449518D01*
X84745001Y-20627119D01*
X84745000Y-26169500D01*
X84733550Y-26169500D01*
X84515389Y-26190987D01*
X84235466Y-26275901D01*
X83977486Y-26413794D01*
X83852000Y-26516778D01*
X83852000Y-20452825D01*
X83855676Y-20415502D01*
X83852000Y-20378179D01*
X83852000Y-20378170D01*
X83841003Y-20266517D01*
X83797546Y-20123256D01*
X83726974Y-19991227D01*
X83632001Y-19875502D01*
X83603002Y-19851704D01*
X83126015Y-19374717D01*
X83117490Y-19331858D01*
X83050777Y-19170798D01*
X82953924Y-19025848D01*
X82830655Y-18902579D01*
X82685705Y-18805726D01*
X82524645Y-18739013D01*
X82353665Y-18705003D01*
X82179335Y-18705003D01*
X82008355Y-18739013D01*
X81847295Y-18805726D01*
X81702345Y-18902579D01*
X81579076Y-19025848D01*
X81482223Y-19170798D01*
X81415510Y-19331858D01*
X81381500Y-19502838D01*
X81381500Y-19677168D01*
X81415510Y-19848148D01*
X81482223Y-20009208D01*
X81579076Y-20154158D01*
X81702345Y-20277427D01*
X81847295Y-20374280D01*
X82008355Y-20440993D01*
X82051214Y-20449518D01*
X82332001Y-20730306D01*
X82332000Y-26169500D01*
X82193550Y-26169500D01*
X81975389Y-26190987D01*
X81695466Y-26275901D01*
X81437486Y-26413794D01*
X81211366Y-26599366D01*
X81025794Y-26825486D01*
X80960000Y-26948578D01*
X80960000Y-13025835D01*
X81381500Y-13025835D01*
X81381500Y-13200165D01*
X81415510Y-13371145D01*
X81482223Y-13532205D01*
X81579076Y-13677155D01*
X81702345Y-13800424D01*
X81847295Y-13897277D01*
X82008355Y-13963990D01*
X82179335Y-13998000D01*
X82353665Y-13998000D01*
X82524645Y-13963990D01*
X82563248Y-13948000D01*
X84485939Y-13948000D01*
X84524542Y-13963990D01*
X84695522Y-13998000D01*
X84869852Y-13998000D01*
X85040832Y-13963990D01*
X85079435Y-13948000D01*
X87002126Y-13948000D01*
X87040729Y-13963990D01*
X87211709Y-13998000D01*
X87386039Y-13998000D01*
X87557019Y-13963990D01*
X87595622Y-13948000D01*
X89518313Y-13948000D01*
X89556916Y-13963990D01*
X89727896Y-13998000D01*
X89902226Y-13998000D01*
X90073206Y-13963990D01*
X90111809Y-13948000D01*
X92034500Y-13948000D01*
X92073103Y-13963990D01*
X92244083Y-13998000D01*
X92418413Y-13998000D01*
X92589393Y-13963990D01*
X92627996Y-13948000D01*
X94550687Y-13948000D01*
X94589290Y-13963990D01*
X94760270Y-13998000D01*
X94934600Y-13998000D01*
X95105580Y-13963990D01*
X95144183Y-13948000D01*
X97066874Y-13948000D01*
X97105477Y-13963990D01*
X97276457Y-13998000D01*
X97450787Y-13998000D01*
X97621767Y-13963990D01*
X97660370Y-13948000D01*
X99583061Y-13948000D01*
X99621664Y-13963990D01*
X99792644Y-13998000D01*
X99966974Y-13998000D01*
X100137954Y-13963990D01*
X100176557Y-13948000D01*
X102099248Y-13948000D01*
X102137851Y-13963990D01*
X102308831Y-13998000D01*
X102483161Y-13998000D01*
X102654141Y-13963990D01*
X102692744Y-13948000D01*
X112513252Y-13948000D01*
X112551855Y-13963990D01*
X112722835Y-13998000D01*
X112897165Y-13998000D01*
X113068145Y-13963990D01*
X113106748Y-13948000D01*
X115816215Y-13948000D01*
X115939244Y-14030205D01*
X116127602Y-14108226D01*
X116327561Y-14148000D01*
X116531439Y-14148000D01*
X116731398Y-14108226D01*
X116919756Y-14030205D01*
X117042785Y-13948000D01*
X120069752Y-13948000D01*
X120108355Y-13963990D01*
X120279335Y-13998000D01*
X120453665Y-13998000D01*
X120624645Y-13963990D01*
X120663248Y-13948000D01*
X125149752Y-13948000D01*
X125188355Y-13963990D01*
X125359335Y-13998000D01*
X125533665Y-13998000D01*
X125704645Y-13963990D01*
X125743248Y-13948000D01*
X127698823Y-13948000D01*
X127737426Y-13963990D01*
X127908406Y-13998000D01*
X128082736Y-13998000D01*
X128253716Y-13963990D01*
X128292319Y-13948000D01*
X130247894Y-13948000D01*
X130286497Y-13963990D01*
X130457477Y-13998000D01*
X130631807Y-13998000D01*
X130802787Y-13963990D01*
X130841390Y-13948000D01*
X132796965Y-13948000D01*
X132835568Y-13963990D01*
X133006548Y-13998000D01*
X133180878Y-13998000D01*
X133351858Y-13963990D01*
X133390461Y-13948000D01*
X135346036Y-13948000D01*
X135384639Y-13963990D01*
X135555619Y-13998000D01*
X135729949Y-13998000D01*
X135900929Y-13963990D01*
X135939532Y-13948000D01*
X137895107Y-13948000D01*
X137933710Y-13963990D01*
X138104690Y-13998000D01*
X138279020Y-13998000D01*
X138450000Y-13963990D01*
X138488603Y-13948000D01*
X140444178Y-13948000D01*
X140482781Y-13963990D01*
X140653761Y-13998000D01*
X140828091Y-13998000D01*
X140999071Y-13963990D01*
X141037674Y-13948000D01*
X142993249Y-13948000D01*
X143031852Y-13963990D01*
X143202832Y-13998000D01*
X143377162Y-13998000D01*
X143548142Y-13963990D01*
X143709202Y-13897277D01*
X143854152Y-13800424D01*
X143977421Y-13677155D01*
X144074274Y-13532205D01*
X144140987Y-13371145D01*
X144174997Y-13200165D01*
X144174997Y-13025835D01*
X144140987Y-12854855D01*
X144074274Y-12693795D01*
X143977421Y-12548845D01*
X143854152Y-12425576D01*
X143709202Y-12328723D01*
X143548142Y-12262010D01*
X143377162Y-12228000D01*
X143202832Y-12228000D01*
X143031852Y-12262010D01*
X142993249Y-12278000D01*
X141037674Y-12278000D01*
X140999071Y-12262010D01*
X140828091Y-12228000D01*
X140653761Y-12228000D01*
X140482781Y-12262010D01*
X140444178Y-12278000D01*
X138488603Y-12278000D01*
X138450000Y-12262010D01*
X138279020Y-12228000D01*
X138104690Y-12228000D01*
X137933710Y-12262010D01*
X137895107Y-12278000D01*
X135939532Y-12278000D01*
X135900929Y-12262010D01*
X135729949Y-12228000D01*
X135555619Y-12228000D01*
X135384639Y-12262010D01*
X135346036Y-12278000D01*
X133390461Y-12278000D01*
X133351858Y-12262010D01*
X133180878Y-12228000D01*
X133006548Y-12228000D01*
X132835568Y-12262010D01*
X132796965Y-12278000D01*
X130841390Y-12278000D01*
X130802787Y-12262010D01*
X130631807Y-12228000D01*
X130457477Y-12228000D01*
X130286497Y-12262010D01*
X130247894Y-12278000D01*
X128292319Y-12278000D01*
X128253716Y-12262010D01*
X128082736Y-12228000D01*
X127908406Y-12228000D01*
X127737426Y-12262010D01*
X127698823Y-12278000D01*
X125743248Y-12278000D01*
X125704645Y-12262010D01*
X125533665Y-12228000D01*
X125359335Y-12228000D01*
X125188355Y-12262010D01*
X125149752Y-12278000D01*
X120663248Y-12278000D01*
X120624645Y-12262010D01*
X120453665Y-12228000D01*
X120279335Y-12228000D01*
X120108355Y-12262010D01*
X120069752Y-12278000D01*
X117042785Y-12278000D01*
X116919756Y-12195795D01*
X116731398Y-12117774D01*
X116531439Y-12078000D01*
X116327561Y-12078000D01*
X116127602Y-12117774D01*
X115939244Y-12195795D01*
X115816215Y-12278000D01*
X113106748Y-12278000D01*
X113068145Y-12262010D01*
X112897165Y-12228000D01*
X112722835Y-12228000D01*
X112551855Y-12262010D01*
X112513252Y-12278000D01*
X102692744Y-12278000D01*
X102654141Y-12262010D01*
X102483161Y-12228000D01*
X102308831Y-12228000D01*
X102137851Y-12262010D01*
X102099248Y-12278000D01*
X100176557Y-12278000D01*
X100137954Y-12262010D01*
X99966974Y-12228000D01*
X99792644Y-12228000D01*
X99621664Y-12262010D01*
X99583061Y-12278000D01*
X97660370Y-12278000D01*
X97621767Y-12262010D01*
X97450787Y-12228000D01*
X97276457Y-12228000D01*
X97105477Y-12262010D01*
X97066874Y-12278000D01*
X95144183Y-12278000D01*
X95105580Y-12262010D01*
X94934600Y-12228000D01*
X94760270Y-12228000D01*
X94589290Y-12262010D01*
X94550687Y-12278000D01*
X92627996Y-12278000D01*
X92589393Y-12262010D01*
X92418413Y-12228000D01*
X92244083Y-12228000D01*
X92073103Y-12262010D01*
X92034500Y-12278000D01*
X90111809Y-12278000D01*
X90073206Y-12262010D01*
X89902226Y-12228000D01*
X89727896Y-12228000D01*
X89556916Y-12262010D01*
X89518313Y-12278000D01*
X87595622Y-12278000D01*
X87557019Y-12262010D01*
X87386039Y-12228000D01*
X87211709Y-12228000D01*
X87040729Y-12262010D01*
X87002126Y-12278000D01*
X85079435Y-12278000D01*
X85040832Y-12262010D01*
X84869852Y-12228000D01*
X84695522Y-12228000D01*
X84524542Y-12262010D01*
X84485939Y-12278000D01*
X82563248Y-12278000D01*
X82524645Y-12262010D01*
X82353665Y-12228000D01*
X82179335Y-12228000D01*
X82008355Y-12262010D01*
X81847295Y-12328723D01*
X81702345Y-12425576D01*
X81579076Y-12548845D01*
X81482223Y-12693795D01*
X81415510Y-12854855D01*
X81381500Y-13025835D01*
X80960000Y-13025835D01*
X80960000Y4454626D01*
X81634231Y4454626D01*
X81934411Y4016172D01*
X82513356Y3705704D01*
X83141746Y3514148D01*
X83795431Y3448866D01*
X84449293Y3512366D01*
X85078203Y3702208D01*
X85657992Y4011096D01*
X85665589Y4016172D01*
X85965769Y4454626D01*
X85864808Y4555587D01*
X108596692Y4555587D01*
X108692456Y4291186D01*
X108982071Y4150296D01*
X109293608Y4068616D01*
X109615095Y4049282D01*
X109934175Y4093039D01*
X110238588Y4198205D01*
X110412544Y4291186D01*
X110508308Y4555587D01*
X115746692Y4555587D01*
X115842456Y4291186D01*
X116132071Y4150296D01*
X116443608Y4068616D01*
X116765095Y4049282D01*
X117084175Y4093039D01*
X117388588Y4198205D01*
X117562544Y4291186D01*
X117621740Y4454626D01*
X139634231Y4454626D01*
X139934411Y4016172D01*
X140513356Y3705704D01*
X141141746Y3514148D01*
X141795431Y3448866D01*
X142449293Y3512366D01*
X143078203Y3702208D01*
X143657992Y4011096D01*
X143665589Y4016172D01*
X143965769Y4454626D01*
X141800000Y6620395D01*
X139634231Y4454626D01*
X117621740Y4454626D01*
X117658308Y4555587D01*
X116702500Y5511395D01*
X115746692Y4555587D01*
X110508308Y4555587D01*
X109552500Y5511395D01*
X108596692Y4555587D01*
X85864808Y4555587D01*
X83800000Y6620395D01*
X81634231Y4454626D01*
X80960000Y4454626D01*
X80960000Y5037916D01*
X81011096Y4942008D01*
X81016172Y4934411D01*
X81454626Y4634231D01*
X83620395Y6800000D01*
X83979605Y6800000D01*
X86145374Y4634231D01*
X86583828Y4934411D01*
X86894296Y5513356D01*
X86929367Y5628405D01*
X107910782Y5628405D01*
X107954539Y5309325D01*
X108059705Y5004912D01*
X108152686Y4830956D01*
X108417087Y4735192D01*
X109372895Y5691000D01*
X108417087Y6646808D01*
X108152686Y6551044D01*
X108011796Y6261429D01*
X107930116Y5949892D01*
X107910782Y5628405D01*
X86929367Y5628405D01*
X87085852Y6141746D01*
X87151134Y6795431D01*
X87087634Y7449293D01*
X86897792Y8078203D01*
X86588904Y8657992D01*
X86583828Y8665589D01*
X86359751Y8819000D01*
X99764928Y8819000D01*
X99764928Y7119000D01*
X99777188Y6994518D01*
X99813498Y6874820D01*
X99872463Y6764506D01*
X99951815Y6667815D01*
X100048506Y6588463D01*
X100158820Y6529498D01*
X100278518Y6493188D01*
X100403000Y6480928D01*
X102103000Y6480928D01*
X102227482Y6493188D01*
X102347180Y6529498D01*
X102457494Y6588463D01*
X102554185Y6667815D01*
X102633537Y6764506D01*
X102692502Y6874820D01*
X102716966Y6955466D01*
X102792731Y6871412D01*
X103026080Y6697359D01*
X103288901Y6572175D01*
X103436110Y6527524D01*
X103666000Y6648845D01*
X103666000Y7842000D01*
X103920000Y7842000D01*
X103920000Y6648845D01*
X104149890Y6527524D01*
X104297099Y6572175D01*
X104559920Y6697359D01*
X104732939Y6826413D01*
X108596692Y6826413D01*
X109552500Y5870605D01*
X109566643Y5884747D01*
X109746248Y5705142D01*
X109732105Y5691000D01*
X110687913Y4735192D01*
X110952314Y4830956D01*
X111093204Y5120571D01*
X111174884Y5432108D01*
X111194218Y5753595D01*
X111153433Y6051000D01*
X111222052Y6051000D01*
X111407522Y6087892D01*
X111582231Y6160259D01*
X111739464Y6265319D01*
X111873181Y6399036D01*
X111978241Y6556269D01*
X112050608Y6730978D01*
X112087500Y6916448D01*
X112087500Y7105552D01*
X114167500Y7105552D01*
X114167500Y6916448D01*
X114204392Y6730978D01*
X114276759Y6556269D01*
X114381819Y6399036D01*
X114515536Y6265319D01*
X114672769Y6160259D01*
X114847478Y6087892D01*
X115032948Y6051000D01*
X115106625Y6051000D01*
X115080116Y5949892D01*
X115060782Y5628405D01*
X115104539Y5309325D01*
X115209705Y5004912D01*
X115302686Y4830956D01*
X115567087Y4735192D01*
X116522895Y5691000D01*
X116882105Y5691000D01*
X117837913Y4735192D01*
X118102314Y4830956D01*
X118243204Y5120571D01*
X118324884Y5432108D01*
X118344218Y5753595D01*
X118300461Y6072675D01*
X118195295Y6377088D01*
X118102314Y6551044D01*
X117837913Y6646808D01*
X116882105Y5691000D01*
X116522895Y5691000D01*
X116508753Y5705142D01*
X116688358Y5884747D01*
X116702500Y5870605D01*
X117636464Y6804569D01*
X138448866Y6804569D01*
X138512366Y6150707D01*
X138702208Y5521797D01*
X139011096Y4942008D01*
X139016172Y4934411D01*
X139454626Y4634231D01*
X141620395Y6800000D01*
X139454626Y8965769D01*
X139016172Y8665589D01*
X138705704Y8086644D01*
X138514148Y7458254D01*
X138448866Y6804569D01*
X117636464Y6804569D01*
X117658308Y6826413D01*
X117562544Y7090814D01*
X117272929Y7231704D01*
X116961392Y7313384D01*
X116639905Y7332718D01*
X116320825Y7288961D01*
X116068366Y7201744D01*
X116050608Y7291022D01*
X115978241Y7465731D01*
X115873181Y7622964D01*
X115739464Y7756681D01*
X115582231Y7861741D01*
X115407522Y7934108D01*
X115222052Y7971000D01*
X115032948Y7971000D01*
X114847478Y7934108D01*
X114672769Y7861741D01*
X114515536Y7756681D01*
X114381819Y7622964D01*
X114276759Y7465731D01*
X114204392Y7291022D01*
X114167500Y7105552D01*
X112087500Y7105552D01*
X112050608Y7291022D01*
X111978241Y7465731D01*
X111873181Y7622964D01*
X111739464Y7756681D01*
X111582231Y7861741D01*
X111407522Y7934108D01*
X111222052Y7971000D01*
X111032948Y7971000D01*
X110847478Y7934108D01*
X110672769Y7861741D01*
X110515536Y7756681D01*
X110381819Y7622964D01*
X110276759Y7465731D01*
X110204392Y7291022D01*
X110186447Y7200804D01*
X110122929Y7231704D01*
X109811392Y7313384D01*
X109489905Y7332718D01*
X109170825Y7288961D01*
X108866412Y7183795D01*
X108692456Y7090814D01*
X108596692Y6826413D01*
X104732939Y6826413D01*
X104793269Y6871412D01*
X104988178Y7087645D01*
X105137157Y7337748D01*
X105234481Y7612109D01*
X105113814Y7842000D01*
X103920000Y7842000D01*
X103666000Y7842000D01*
X103646000Y7842000D01*
X103646000Y8005587D01*
X108596692Y8005587D01*
X108692456Y7741186D01*
X108982071Y7600296D01*
X109293608Y7518616D01*
X109615095Y7499282D01*
X109934175Y7543039D01*
X110238588Y7648205D01*
X110412544Y7741186D01*
X110508308Y8005587D01*
X115746692Y8005587D01*
X115842456Y7741186D01*
X116132071Y7600296D01*
X116443608Y7518616D01*
X116765095Y7499282D01*
X117084175Y7543039D01*
X117388588Y7648205D01*
X117562544Y7741186D01*
X117658308Y8005587D01*
X116702500Y8961395D01*
X115746692Y8005587D01*
X110508308Y8005587D01*
X109552500Y8961395D01*
X108596692Y8005587D01*
X103646000Y8005587D01*
X103646000Y8096000D01*
X103666000Y8096000D01*
X103666000Y9289155D01*
X103920000Y9289155D01*
X103920000Y8096000D01*
X105113814Y8096000D01*
X105234481Y8325891D01*
X105137157Y8600252D01*
X104988178Y8850355D01*
X104793269Y9066588D01*
X104559920Y9240641D01*
X104297099Y9365825D01*
X104149890Y9410476D01*
X103920000Y9289155D01*
X103666000Y9289155D01*
X103436110Y9410476D01*
X103288901Y9365825D01*
X103026080Y9240641D01*
X102792731Y9066588D01*
X102716966Y8982534D01*
X102692502Y9063180D01*
X102633537Y9173494D01*
X102554185Y9270185D01*
X102457494Y9349537D01*
X102347180Y9408502D01*
X102227482Y9444812D01*
X102103000Y9457072D01*
X100403000Y9457072D01*
X100278518Y9444812D01*
X100158820Y9408502D01*
X100048506Y9349537D01*
X99951815Y9270185D01*
X99872463Y9173494D01*
X99813498Y9063180D01*
X99777188Y8943482D01*
X99764928Y8819000D01*
X86359751Y8819000D01*
X86145374Y8965769D01*
X83979605Y6800000D01*
X83620395Y6800000D01*
X83606253Y6814142D01*
X83785858Y6993747D01*
X83800000Y6979605D01*
X85965769Y9145374D01*
X85665589Y9583828D01*
X85560842Y9640000D01*
X107993068Y9640000D01*
X107930116Y9399892D01*
X107930116Y9399892D01*
G37*
X107930116Y9399892D02*
X107910782Y9078405D01*
X107954539Y8759325D01*
X108059705Y8454912D01*
X108152686Y8280956D01*
X108417087Y8185192D01*
X109372895Y9141000D01*
X109358753Y9155142D01*
X109538358Y9334747D01*
X109552500Y9320605D01*
X109566643Y9334747D01*
X109746248Y9155142D01*
X109732105Y9141000D01*
X110687913Y8185192D01*
X110952314Y8280956D01*
X111093204Y8570571D01*
X111174884Y8882108D01*
X111194218Y9203595D01*
X111150461Y9522675D01*
X111109929Y9640000D01*
X115143068Y9640000D01*
X115080116Y9399892D01*
X115060782Y9078405D01*
X115104539Y8759325D01*
X115209705Y8454912D01*
X115302686Y8280956D01*
X115567087Y8185192D01*
X116522895Y9141000D01*
X116508753Y9155142D01*
X116688358Y9334747D01*
X116702500Y9320605D01*
X116716643Y9334747D01*
X116896248Y9155142D01*
X116882105Y9141000D01*
X117837913Y8185192D01*
X118102314Y8280956D01*
X118243204Y8570571D01*
X118324884Y8882108D01*
X118344218Y9203595D01*
X118300461Y9522675D01*
X118259929Y9640000D01*
X140037916Y9640000D01*
X139942008Y9588904D01*
X139934411Y9583828D01*
X139634231Y9145374D01*
X141800000Y6979605D01*
X141814143Y6993747D01*
X141993748Y6814142D01*
X141979605Y6800000D01*
X144145374Y4634231D01*
X144583828Y4934411D01*
X144640000Y5039158D01*
X144640001Y-19870492D01*
X144615799Y-19841003D01*
X144592001Y-19812005D01*
X144563002Y-19788207D01*
X144149512Y-19374717D01*
X144140987Y-19331858D01*
X144074274Y-19170798D01*
X143977421Y-19025848D01*
X143854152Y-18902579D01*
X143709202Y-18805726D01*
X143548142Y-18739013D01*
X143377162Y-18705003D01*
X143202832Y-18705003D01*
X143031852Y-18739013D01*
X142870792Y-18805726D01*
X142725842Y-18902579D01*
X142602573Y-19025848D01*
X142505720Y-19170798D01*
X142439007Y-19331858D01*
X142404997Y-19502838D01*
X142404997Y-19677168D01*
X142439007Y-19848148D01*
X142505720Y-20009208D01*
X142602573Y-20154158D01*
X142725842Y-20277427D01*
X142870792Y-20374280D01*
X143031852Y-20440993D01*
X143074711Y-20449518D01*
X143292001Y-20666809D01*
X143292000Y-26169500D01*
X143153550Y-26169500D01*
X142935389Y-26190987D01*
X142655466Y-26275901D01*
X142397486Y-26413794D01*
X142171366Y-26599366D01*
X142145000Y-26631493D01*
X142145000Y-20216970D01*
X142148676Y-20179647D01*
X142145000Y-20142324D01*
X142145000Y-20142315D01*
X142134003Y-20030662D01*
X142090546Y-19887401D01*
X142019974Y-19755372D01*
X141925001Y-19639647D01*
X141896002Y-19615848D01*
X141577706Y-19297553D01*
X141525203Y-19170798D01*
X141428350Y-19025848D01*
X141305081Y-18902579D01*
X141160131Y-18805726D01*
X140999071Y-18739013D01*
X140828091Y-18705003D01*
X140653761Y-18705003D01*
X140482781Y-18739013D01*
X140321721Y-18805726D01*
X140176771Y-18902579D01*
X140053502Y-19025848D01*
X139956649Y-19170798D01*
X139889936Y-19331858D01*
X139855926Y-19502838D01*
X139855926Y-19677168D01*
X139889936Y-19848148D01*
X139956649Y-20009208D01*
X140053502Y-20154158D01*
X140176771Y-20277427D01*
X140321721Y-20374280D01*
X140482781Y-20440993D01*
X140593583Y-20463033D01*
X140625001Y-20494451D01*
X140625000Y-26169500D01*
X140613550Y-26169500D01*
X140395389Y-26190987D01*
X140115466Y-26275901D01*
X139857486Y-26413794D01*
X139668500Y-26568891D01*
X139668500Y-20298612D01*
X139672176Y-20261289D01*
X139668500Y-20223966D01*
X139668500Y-20223957D01*
X139657503Y-20112304D01*
X139614046Y-19969043D01*
X139597227Y-19937578D01*
X139543474Y-19837013D01*
X139472299Y-19750287D01*
X139448501Y-19721289D01*
X139419502Y-19697491D01*
X139035050Y-19313038D01*
X138976132Y-19170798D01*
X138879279Y-19025848D01*
X138756010Y-18902579D01*
X138611060Y-18805726D01*
X138450000Y-18739013D01*
X138279020Y-18705003D01*
X138104690Y-18705003D01*
X137933710Y-18739013D01*
X137772650Y-18805726D01*
X137627700Y-18902579D01*
X137504431Y-19025848D01*
X137407578Y-19170798D01*
X137340865Y-19331858D01*
X137306855Y-19502838D01*
X137306855Y-19677168D01*
X137340865Y-19848148D01*
X137407578Y-20009208D01*
X137504431Y-20154158D01*
X137627700Y-20277427D01*
X137772650Y-20374280D01*
X137933710Y-20440993D01*
X138033189Y-20460781D01*
X138148501Y-20576093D01*
X138148500Y-26169500D01*
X138073550Y-26169500D01*
X137855389Y-26190987D01*
X137575466Y-26275901D01*
X137317486Y-26413794D01*
X137216499Y-26496672D01*
X137216499Y-20404756D01*
X137220175Y-20367431D01*
X137216499Y-20330106D01*
X137216499Y-20330098D01*
X137205502Y-20218445D01*
X137162045Y-20075184D01*
X137091473Y-19943155D01*
X136996500Y-19827430D01*
X136967501Y-19803632D01*
X136492393Y-19328523D01*
X136427061Y-19170798D01*
X136330208Y-19025848D01*
X136206939Y-18902579D01*
X136061989Y-18805726D01*
X135900929Y-18739013D01*
X135729949Y-18705003D01*
X135555619Y-18705003D01*
X135384639Y-18739013D01*
X135223579Y-18805726D01*
X135078629Y-18902579D01*
X134955360Y-19025848D01*
X134858507Y-19170798D01*
X134791794Y-19331858D01*
X134757784Y-19502838D01*
X134757784Y-19677168D01*
X134791794Y-19848148D01*
X134858507Y-20009208D01*
X134955360Y-20154158D01*
X135078629Y-20277427D01*
X135223579Y-20374280D01*
X135384639Y-20440993D01*
X135472795Y-20458528D01*
X135696500Y-20682234D01*
X135696499Y-26171179D01*
X135679450Y-26169500D01*
X135533550Y-26169500D01*
X135315389Y-26190987D01*
X135035466Y-26275901D01*
X134777486Y-26413794D01*
X134588500Y-26568891D01*
X134588500Y-20334899D01*
X134592176Y-20297574D01*
X134588500Y-20260249D01*
X134588500Y-20260241D01*
X134577503Y-20148588D01*
X134534046Y-20005327D01*
X134463474Y-19873298D01*
X134368501Y-19757573D01*
X134339502Y-19733775D01*
X133946470Y-19340743D01*
X133944703Y-19331858D01*
X133877990Y-19170798D01*
X133781137Y-19025848D01*
X133657868Y-18902579D01*
X133512918Y-18805726D01*
X133351858Y-18739013D01*
X133180878Y-18705003D01*
X133006548Y-18705003D01*
X132835568Y-18739013D01*
X132674508Y-18805726D01*
X132529558Y-18902579D01*
X132406289Y-19025848D01*
X132309436Y-19170798D01*
X132242723Y-19331858D01*
X132208713Y-19502838D01*
X132208713Y-19677168D01*
X132242723Y-19848148D01*
X132309436Y-20009208D01*
X132406289Y-20154158D01*
X132529558Y-20277427D01*
X132674508Y-20374280D01*
X132835568Y-20440993D01*
X132912400Y-20456276D01*
X133068501Y-20612377D01*
X133068500Y-26169500D01*
X132993550Y-26169500D01*
X132775389Y-26190987D01*
X132495466Y-26275901D01*
X132302500Y-26379043D01*
X132302500Y-20480038D01*
X132306176Y-20442715D01*
X132302500Y-20405392D01*
X132302500Y-20405383D01*
X132291503Y-20293730D01*
X132248046Y-20150469D01*
X132177474Y-20018440D01*
X132082501Y-19902715D01*
X132053503Y-19878917D01*
X131295765Y-19121180D01*
X131232066Y-19025848D01*
X131108797Y-18902579D01*
X130963847Y-18805726D01*
X130951815Y-18800742D01*
X130836888Y-18739312D01*
X130693627Y-18695856D01*
X130544642Y-18681182D01*
X130395657Y-18695856D01*
X130252396Y-18739312D01*
X130137469Y-18800742D01*
X130125437Y-18805726D01*
X129980487Y-18902579D01*
X129857218Y-19025848D01*
X129760365Y-19170798D01*
X129693652Y-19331858D01*
X129659642Y-19502838D01*
X129659642Y-19677168D01*
X129693652Y-19848148D01*
X129760365Y-20009208D01*
X129857218Y-20154158D01*
X129980487Y-20277427D01*
X130125437Y-20374280D01*
X130286497Y-20440993D01*
X130457477Y-20475003D01*
X130499986Y-20475003D01*
X130782501Y-20757519D01*
X130782500Y-26187529D01*
X130599450Y-26169500D01*
X130453550Y-26169500D01*
X130235389Y-26190987D01*
X129955466Y-26275901D01*
X129783113Y-26368025D01*
X129732253Y-26383453D01*
X129647991Y-26428492D01*
X129647991Y-20447171D01*
X129651667Y-20409848D01*
X129647991Y-20372525D01*
X129647991Y-20372516D01*
X129636994Y-20260863D01*
X129593537Y-20117602D01*
X129522965Y-19985573D01*
X129492961Y-19949013D01*
X129451790Y-19898845D01*
X129451786Y-19898841D01*
X129427992Y-19869848D01*
X129398999Y-19846054D01*
X128819521Y-19266577D01*
X128779848Y-19170798D01*
X128682995Y-19025848D01*
X128559726Y-18902579D01*
X128414776Y-18805726D01*
X128253716Y-18739013D01*
X128082736Y-18705003D01*
X127908406Y-18705003D01*
X127737426Y-18739013D01*
X127576366Y-18805726D01*
X127431416Y-18902579D01*
X127308147Y-19025848D01*
X127211294Y-19170798D01*
X127144581Y-19331858D01*
X127110571Y-19502838D01*
X127110571Y-19677168D01*
X127144581Y-19848148D01*
X127211294Y-20009208D01*
X127308147Y-20154158D01*
X127431416Y-20277427D01*
X127576366Y-20374280D01*
X127737426Y-20440993D01*
X127870878Y-20467538D01*
X128127992Y-20724652D01*
X128127991Y-26176251D01*
X128059450Y-26169500D01*
X127913550Y-26169500D01*
X127695389Y-26190987D01*
X127415466Y-26275901D01*
X127157486Y-26413794D01*
X127056499Y-26496672D01*
X127056499Y-25775981D01*
X127057990Y-25760843D01*
X127057990Y-25760842D01*
X127061667Y-25723510D01*
X127057990Y-25686177D01*
X127057990Y-20351815D01*
X127061666Y-20314490D01*
X127057990Y-20277165D01*
X127057990Y-20277157D01*
X127046993Y-20165504D01*
X127003536Y-20022243D01*
X126932964Y-19890214D01*
X126837991Y-19774489D01*
X126808993Y-19750691D01*
X126231963Y-19173662D01*
X126230777Y-19170798D01*
X126133924Y-19025848D01*
X126010655Y-18902579D01*
X125865705Y-18805726D01*
X125704645Y-18739013D01*
X125627104Y-18723589D01*
X125595485Y-18713998D01*
X125562605Y-18710760D01*
X125533665Y-18705003D01*
X125504159Y-18705003D01*
X125446500Y-18699324D01*
X125388841Y-18705003D01*
X125359335Y-18705003D01*
X125330395Y-18710760D01*
X125297515Y-18713998D01*
X125265896Y-18723589D01*
X125188355Y-18739013D01*
X125027295Y-18805726D01*
X124882345Y-18902579D01*
X124759076Y-19025848D01*
X124662223Y-19170798D01*
X124595510Y-19331858D01*
X124561500Y-19502838D01*
X124561500Y-19677168D01*
X124595510Y-19848148D01*
X124662223Y-20009208D01*
X124759076Y-20154158D01*
X124882345Y-20277427D01*
X125027295Y-20374280D01*
X125188355Y-20440993D01*
X125359335Y-20475003D01*
X125383701Y-20475003D01*
X125537991Y-20629293D01*
X125537990Y-25672540D01*
X125532823Y-25725001D01*
X125536500Y-25762333D01*
X125536500Y-26171179D01*
X125519450Y-26169500D01*
X125373550Y-26169500D01*
X125155389Y-26190987D01*
X124875466Y-26275901D01*
X124617486Y-26413794D01*
X124391366Y-26599366D01*
X124205794Y-26825486D01*
X124176500Y-26880291D01*
X124147206Y-26825486D01*
X123961634Y-26599366D01*
X123735514Y-26413794D01*
X123477534Y-26275901D01*
X123197611Y-26190987D01*
X122979450Y-26169500D01*
X122833550Y-26169500D01*
X122615389Y-26190987D01*
X122335466Y-26275901D01*
X122077486Y-26413794D01*
X121851366Y-26599366D01*
X121825000Y-26631493D01*
X121825000Y-20135322D01*
X121828676Y-20097999D01*
X121825000Y-20060676D01*
X121825000Y-20060667D01*
X121814003Y-19949014D01*
X121770546Y-19805753D01*
X121699974Y-19673724D01*
X121605001Y-19557999D01*
X121576002Y-19534201D01*
X120877502Y-18835701D01*
X120790776Y-18764526D01*
X120658746Y-18693954D01*
X120515485Y-18650498D01*
X120366500Y-18635824D01*
X120217515Y-18650498D01*
X120074254Y-18693954D01*
X119942224Y-18764526D01*
X119826499Y-18859499D01*
X119739883Y-18965041D01*
X119679076Y-19025848D01*
X119582223Y-19170798D01*
X119515510Y-19331858D01*
X119481500Y-19502838D01*
X119481500Y-19677168D01*
X119515510Y-19848148D01*
X119582223Y-20009208D01*
X119679076Y-20154158D01*
X119802345Y-20277427D01*
X119947295Y-20374280D01*
X120108355Y-20440993D01*
X120279335Y-20475003D01*
X120305001Y-20475003D01*
X120305000Y-26169500D01*
X120293550Y-26169500D01*
X120075389Y-26190987D01*
X119795466Y-26275901D01*
X119537486Y-26413794D01*
X119311366Y-26599366D01*
X119125794Y-26825486D01*
X119091299Y-26890023D01*
X119021678Y-26773145D01*
X118826769Y-26556912D01*
X118593420Y-26382859D01*
X118330599Y-26257675D01*
X118183390Y-26213024D01*
X117953500Y-26334345D01*
X117953500Y-27527500D01*
X117973500Y-27527500D01*
X117973500Y-27781500D01*
X117953500Y-27781500D01*
X117953500Y-30067500D01*
X117973500Y-30067500D01*
X117973500Y-30321500D01*
X117953500Y-30321500D01*
X117953500Y-30341500D01*
X117699500Y-30341500D01*
X117699500Y-30321500D01*
X117679500Y-30321500D01*
X117679500Y-30067500D01*
X117699500Y-30067500D01*
X117699500Y-27781500D01*
X115413500Y-27781500D01*
X115413500Y-30067500D01*
X115433500Y-30067500D01*
X115433500Y-30321500D01*
X115413500Y-30321500D01*
X115413500Y-31514655D01*
X115643390Y-31635976D01*
X115775001Y-31596056D01*
X115775001Y-31818469D01*
X115245543Y-32347928D01*
X115217424Y-32305845D01*
X115094155Y-32182576D01*
X114949205Y-32085723D01*
X114788145Y-32019010D01*
X114617165Y-31985000D01*
X114442835Y-31985000D01*
X114271855Y-32019010D01*
X114110795Y-32085723D01*
X113965845Y-32182576D01*
X113842576Y-32305845D01*
X113745723Y-32450795D01*
X113679010Y-32611855D01*
X113662874Y-32692976D01*
X113572513Y-32803081D01*
X113504263Y-32930768D01*
X113482624Y-33002102D01*
X113462235Y-33069315D01*
X113448044Y-33213400D01*
X113451600Y-33249505D01*
X113451600Y-33580346D01*
X113275989Y-33497623D01*
X113006940Y-33430676D01*
X112730000Y-33417504D01*
X112455812Y-33458613D01*
X112194912Y-33552424D01*
X112151600Y-33575574D01*
X112151600Y-33312705D01*
X112155156Y-33276600D01*
X112140965Y-33132514D01*
X112123811Y-33075967D01*
X112098937Y-32993967D01*
X112030687Y-32866280D01*
X111938838Y-32754362D01*
X111910787Y-32731341D01*
X111765000Y-32585554D01*
X111765000Y-32172953D01*
X111814277Y-32099205D01*
X111880990Y-31938145D01*
X111915000Y-31767165D01*
X111915000Y-31592835D01*
X111880990Y-31421855D01*
X111870573Y-31396705D01*
X111917486Y-31435206D01*
X112175466Y-31573099D01*
X112455389Y-31658013D01*
X112673550Y-31679500D01*
X112819450Y-31679500D01*
X113037611Y-31658013D01*
X113317534Y-31573099D01*
X113575514Y-31435206D01*
X113801634Y-31249634D01*
X113987206Y-31023514D01*
X114021701Y-30958977D01*
X114091322Y-31075855D01*
X114286231Y-31292088D01*
X114519580Y-31466141D01*
X114782401Y-31591325D01*
X114929610Y-31635976D01*
X115159500Y-31514655D01*
X115159500Y-30321500D01*
X115139500Y-30321500D01*
X115139500Y-30067500D01*
X115159500Y-30067500D01*
X115159500Y-27781500D01*
X115139500Y-27781500D01*
X115139500Y-27527500D01*
X115159500Y-27527500D01*
X115159500Y-26334345D01*
X115413500Y-26334345D01*
X115413500Y-27527500D01*
X117699500Y-27527500D01*
X117699500Y-26334345D01*
X117469610Y-26213024D01*
X117322401Y-26257675D01*
X117059580Y-26382859D01*
X116826231Y-26556912D01*
X116631322Y-26773145D01*
X116556500Y-26898755D01*
X116481678Y-26773145D01*
X116286769Y-26556912D01*
X116053420Y-26382859D01*
X115790599Y-26257675D01*
X115643390Y-26213024D01*
X115413500Y-26334345D01*
X115159500Y-26334345D01*
X114929610Y-26213024D01*
X114782401Y-26257675D01*
X114519580Y-26382859D01*
X114286231Y-26556912D01*
X114205000Y-26647030D01*
X114205000Y-20325822D01*
X114208676Y-20288499D01*
X114205000Y-20251176D01*
X114205000Y-20251167D01*
X114194003Y-20139514D01*
X114150546Y-19996253D01*
X114079974Y-19864224D01*
X113985001Y-19748499D01*
X113956002Y-19724701D01*
X113606014Y-19374713D01*
X113597490Y-19331858D01*
X113530777Y-19170798D01*
X113433924Y-19025848D01*
X113310655Y-18902579D01*
X113165705Y-18805726D01*
X113004645Y-18739013D01*
X112833665Y-18705003D01*
X112659335Y-18705003D01*
X112488355Y-18739013D01*
X112327295Y-18805726D01*
X112182345Y-18902579D01*
X112059076Y-19025848D01*
X111962223Y-19170798D01*
X111895510Y-19331858D01*
X111861500Y-19502838D01*
X111861500Y-19677168D01*
X111895510Y-19848148D01*
X111962223Y-20009208D01*
X112059076Y-20154158D01*
X112182345Y-20277427D01*
X112327295Y-20374280D01*
X112488355Y-20440993D01*
X112531217Y-20449519D01*
X112685001Y-20603303D01*
X112685000Y-26169500D01*
X112673550Y-26169500D01*
X112455389Y-26190987D01*
X112175466Y-26275901D01*
X111917486Y-26413794D01*
X111691366Y-26599366D01*
X111505794Y-26825486D01*
X111471299Y-26890023D01*
X111401678Y-26773145D01*
X111206769Y-26556912D01*
X110973420Y-26382859D01*
X110710599Y-26257675D01*
X110563390Y-26213024D01*
X110333500Y-26334345D01*
X110333500Y-27527500D01*
X110353500Y-27527500D01*
X110353500Y-27781500D01*
X110333500Y-27781500D01*
X110333500Y-30067500D01*
X110353500Y-30067500D01*
X110353500Y-30321500D01*
X110333500Y-30321500D01*
X110333500Y-30341500D01*
X110079500Y-30341500D01*
X110079500Y-30321500D01*
X107793500Y-30321500D01*
X107793500Y-30341500D01*
X107539500Y-30341500D01*
X107539500Y-30321500D01*
X105253500Y-30321500D01*
X105253500Y-30341500D01*
X104999500Y-30341500D01*
X104999500Y-30321500D01*
X102713500Y-30321500D01*
X102713500Y-30341500D01*
X102459500Y-30341500D01*
X102459500Y-30321500D01*
X102439500Y-30321500D01*
X102439500Y-30067500D01*
X102459500Y-30067500D01*
X102459500Y-30047500D01*
X102713500Y-30047500D01*
X102713500Y-30067500D01*
X104999500Y-30067500D01*
X104999500Y-27781500D01*
X105253500Y-27781500D01*
X105253500Y-30067500D01*
X107539500Y-30067500D01*
X107539500Y-27781500D01*
X107793500Y-27781500D01*
X107793500Y-30067500D01*
X110079500Y-30067500D01*
X110079500Y-27781500D01*
X107793500Y-27781500D01*
X107539500Y-27781500D01*
X105253500Y-27781500D01*
X104999500Y-27781500D01*
X104979500Y-27781500D01*
X104979500Y-27527500D01*
X104999500Y-27527500D01*
X104999500Y-26334345D01*
X105253500Y-26334345D01*
X105253500Y-27527500D01*
X107539500Y-27527500D01*
X107539500Y-26334345D01*
X107793500Y-26334345D01*
X107793500Y-27527500D01*
X110079500Y-27527500D01*
X110079500Y-26334345D01*
X109849610Y-26213024D01*
X109702401Y-26257675D01*
X109439580Y-26382859D01*
X109206231Y-26556912D01*
X109011322Y-26773145D01*
X108936500Y-26898755D01*
X108861678Y-26773145D01*
X108666769Y-26556912D01*
X108433420Y-26382859D01*
X108170599Y-26257675D01*
X108023390Y-26213024D01*
X107793500Y-26334345D01*
X107539500Y-26334345D01*
X107309610Y-26213024D01*
X107162401Y-26257675D01*
X106899580Y-26382859D01*
X106666231Y-26556912D01*
X106471322Y-26773145D01*
X106396500Y-26898755D01*
X106321678Y-26773145D01*
X106126769Y-26556912D01*
X105893420Y-26382859D01*
X105630599Y-26257675D01*
X105483390Y-26213024D01*
X105253500Y-26334345D01*
X104999500Y-26334345D01*
X104769610Y-26213024D01*
X104622401Y-26257675D01*
X104359580Y-26382859D01*
X104299000Y-26428045D01*
X104299000Y-20770332D01*
X104302676Y-20733007D01*
X104299000Y-20695682D01*
X104299000Y-20695674D01*
X104288003Y-20584021D01*
X104244546Y-20440760D01*
X104173974Y-20308731D01*
X104079001Y-20193006D01*
X104050003Y-20169208D01*
X103255511Y-19374717D01*
X103246986Y-19331858D01*
X103180273Y-19170798D01*
X103083420Y-19025848D01*
X102960151Y-18902579D01*
X102815201Y-18805726D01*
X102654141Y-18739013D01*
X102483161Y-18705003D01*
X102308831Y-18705003D01*
X102137851Y-18739013D01*
X101976791Y-18805726D01*
X101831841Y-18902579D01*
X101708572Y-19025848D01*
X101611719Y-19170798D01*
X101545006Y-19331858D01*
X101510996Y-19502838D01*
X101510996Y-19677168D01*
X101545006Y-19848148D01*
X101611719Y-20009208D01*
X101708572Y-20154158D01*
X101831841Y-20277427D01*
X101976791Y-20374280D01*
X102137851Y-20440993D01*
X102180710Y-20449518D01*
X102779001Y-21047810D01*
X102779000Y-26181275D01*
X102659450Y-26169500D01*
X102513550Y-26169500D01*
X102295389Y-26190987D01*
X102015466Y-26275901D01*
X101757486Y-26413794D01*
X101695500Y-26464665D01*
X101695500Y-20683027D01*
X101699177Y-20645694D01*
X101684503Y-20496708D01*
X101641046Y-20353447D01*
X101570474Y-20221418D01*
X101499299Y-20134691D01*
X101475501Y-20105693D01*
X101446503Y-20081895D01*
X100739324Y-19374717D01*
X100730799Y-19331858D01*
X100664086Y-19170798D01*
X100567233Y-19025848D01*
X100443964Y-18902579D01*
X100299014Y-18805726D01*
X100137954Y-18739013D01*
X99966974Y-18705003D01*
X99792644Y-18705003D01*
X99621664Y-18739013D01*
X99460604Y-18805726D01*
X99315654Y-18902579D01*
X99192385Y-19025848D01*
X99095532Y-19170798D01*
X99028819Y-19331858D01*
X98994809Y-19502838D01*
X98994809Y-19677168D01*
X99028819Y-19848148D01*
X99095532Y-20009208D01*
X99192385Y-20154158D01*
X99315654Y-20277427D01*
X99460604Y-20374280D01*
X99621664Y-20440993D01*
X99664523Y-20449518D01*
X100175501Y-20960497D01*
X100175500Y-26078029D01*
X100046500Y-26065323D01*
X99897514Y-26079997D01*
X99754253Y-26123454D01*
X99622224Y-26194026D01*
X99550014Y-26253287D01*
X99475466Y-26275901D01*
X99217486Y-26413794D01*
X99028500Y-26568891D01*
X99028500Y-20532206D01*
X99032176Y-20494881D01*
X99028500Y-20457556D01*
X99028500Y-20457548D01*
X99017503Y-20345895D01*
X98974046Y-20202634D01*
X98903474Y-20070605D01*
X98808501Y-19954880D01*
X98779503Y-19931082D01*
X98223137Y-19374717D01*
X98214612Y-19331858D01*
X98147899Y-19170798D01*
X98051046Y-19025848D01*
X97927777Y-18902579D01*
X97782827Y-18805726D01*
X97621767Y-18739013D01*
X97450787Y-18705003D01*
X97276457Y-18705003D01*
X97105477Y-18739013D01*
X96944417Y-18805726D01*
X96799467Y-18902579D01*
X96676198Y-19025848D01*
X96579345Y-19170798D01*
X96512632Y-19331858D01*
X96478622Y-19502838D01*
X96478622Y-19677168D01*
X96512632Y-19848148D01*
X96579345Y-20009208D01*
X96676198Y-20154158D01*
X96799467Y-20277427D01*
X96944417Y-20374280D01*
X97105477Y-20440993D01*
X97148336Y-20449518D01*
X97508501Y-20809684D01*
X97508500Y-26169500D01*
X97433550Y-26169500D01*
X97215389Y-26190987D01*
X96935466Y-26275901D01*
X96742500Y-26379043D01*
X96742500Y-20762390D01*
X96746176Y-20725067D01*
X96742500Y-20687744D01*
X96742500Y-20687735D01*
X96731503Y-20576082D01*
X96688046Y-20432821D01*
X96617474Y-20300792D01*
X96522501Y-20185067D01*
X96493503Y-20161269D01*
X95706950Y-19374717D01*
X95698425Y-19331858D01*
X95631712Y-19170798D01*
X95534859Y-19025848D01*
X95411590Y-18902579D01*
X95266640Y-18805726D01*
X95105580Y-18739013D01*
X94934600Y-18705003D01*
X94760270Y-18705003D01*
X94589290Y-18739013D01*
X94428230Y-18805726D01*
X94283280Y-18902579D01*
X94160011Y-19025848D01*
X94063158Y-19170798D01*
X93996445Y-19331858D01*
X93962435Y-19502838D01*
X93962435Y-19677168D01*
X93996445Y-19848148D01*
X94063158Y-20009208D01*
X94160011Y-20154158D01*
X94283280Y-20277427D01*
X94428230Y-20374280D01*
X94589290Y-20440993D01*
X94632149Y-20449518D01*
X95222501Y-21039871D01*
X95222500Y-26187529D01*
X95039450Y-26169500D01*
X94893550Y-26169500D01*
X94675389Y-26190987D01*
X94395466Y-26275901D01*
X94202500Y-26379043D01*
X94202500Y-20738580D01*
X94206176Y-20701255D01*
X94202500Y-20663930D01*
X94202500Y-20663922D01*
X94191503Y-20552269D01*
X94148046Y-20409008D01*
X94077474Y-20276979D01*
X93982501Y-20161254D01*
X93953503Y-20137456D01*
X93190763Y-19374717D01*
X93182238Y-19331858D01*
X93115525Y-19170798D01*
X93018672Y-19025848D01*
X92895403Y-18902579D01*
X92750453Y-18805726D01*
X92589393Y-18739013D01*
X92418413Y-18705003D01*
X92244083Y-18705003D01*
X92073103Y-18739013D01*
X91912043Y-18805726D01*
X91767093Y-18902579D01*
X91643824Y-19025848D01*
X91546971Y-19170798D01*
X91480258Y-19331858D01*
X91446248Y-19502838D01*
X91446248Y-19677168D01*
X91480258Y-19848148D01*
X91546971Y-20009208D01*
X91643824Y-20154158D01*
X91767093Y-20277427D01*
X91912043Y-20374280D01*
X92073103Y-20440993D01*
X92115962Y-20449518D01*
X92682501Y-21016058D01*
X92682500Y-26187529D01*
X92499450Y-26169500D01*
X92353550Y-26169500D01*
X92135389Y-26190987D01*
X91855466Y-26275901D01*
X91597486Y-26413794D01*
X91535500Y-26464665D01*
X91535500Y-20587765D01*
X91539176Y-20550442D01*
X91535500Y-20513119D01*
X91535500Y-20513109D01*
X91524503Y-20401456D01*
X91481046Y-20258195D01*
X91410474Y-20126166D01*
X91315501Y-20010441D01*
X91286503Y-19986643D01*
X90674576Y-19374717D01*
X90666051Y-19331858D01*
X90599338Y-19170798D01*
X90502485Y-19025848D01*
X90379216Y-18902579D01*
X90234266Y-18805726D01*
X90073206Y-18739013D01*
X89902226Y-18705003D01*
X89727896Y-18705003D01*
X89556916Y-18739013D01*
X89395856Y-18805726D01*
X89250906Y-18902579D01*
X89127637Y-19025848D01*
X89030784Y-19170798D01*
X88964071Y-19331858D01*
X88930061Y-19502838D01*
X88930061Y-19677168D01*
X88964071Y-19848148D01*
X89030784Y-20009208D01*
X89127637Y-20154158D01*
X89250906Y-20277427D01*
X89395856Y-20374280D01*
X89556916Y-20440993D01*
X89599775Y-20449518D01*
X90015501Y-20865245D01*
X90015500Y-26175020D01*
X89959450Y-26169500D01*
X89813550Y-26169500D01*
X89595389Y-26190987D01*
X89315466Y-26275901D01*
X89057486Y-26413794D01*
X88868500Y-26568891D01*
X88868500Y-20436951D01*
X88872176Y-20399628D01*
X88868500Y-20362305D01*
X88868500Y-20362296D01*
X88857503Y-20250643D01*
X88814046Y-20107382D01*
X88773037Y-20030661D01*
X88743474Y-19975352D01*
X88672299Y-19888626D01*
X88648501Y-19859628D01*
X88619502Y-19835830D01*
X88158389Y-19374717D01*
X88149864Y-19331858D01*
X88083151Y-19170798D01*
X87986298Y-19025848D01*
X87863029Y-18902579D01*
X87718079Y-18805726D01*
X87557019Y-18739013D01*
X87386039Y-18705003D01*
X87211709Y-18705003D01*
X87040729Y-18739013D01*
X86879669Y-18805726D01*
X86734719Y-18902579D01*
X86611450Y-19025848D01*
X86514597Y-19170798D01*
X86447884Y-19331858D01*
X86413874Y-19502838D01*
X86413874Y-19677168D01*
X86447884Y-19848148D01*
X86514597Y-20009208D01*
X86611450Y-20154158D01*
X86734719Y-20277427D01*
X86879669Y-20374280D01*
X87040729Y-20440993D01*
X87083588Y-20449518D01*
X87348501Y-20714432D01*
X87348500Y-26169500D01*
X87273550Y-26169500D01*
X87055389Y-26190987D01*
X86775466Y-26275901D01*
X86517486Y-26413794D01*
X86291366Y-26599366D01*
X86265000Y-26631493D01*
X86265000Y-20349639D01*
X86268676Y-20312316D01*
X86265000Y-20274993D01*
X86265000Y-20274983D01*
X86254003Y-20163330D01*
X86210546Y-20020069D01*
X86139974Y-19888040D01*
X86045001Y-19772315D01*
X86016002Y-19748517D01*
X85642202Y-19374717D01*
X85633677Y-19331858D01*
X85566964Y-19170798D01*
X85470111Y-19025848D01*
X85346842Y-18902579D01*
X85201892Y-18805726D01*
X85040832Y-18739013D01*
X84869852Y-18705003D01*
X84695522Y-18705003D01*
X84524542Y-18739013D01*
X84363482Y-18805726D01*
X84218532Y-18902579D01*
X84095263Y-19025848D01*
X83998410Y-19170798D01*
X83931697Y-19331858D01*
X83897687Y-19502838D01*
X83897687Y-19677168D01*
X83931697Y-19848148D01*
X83998410Y-20009208D01*
X84095263Y-20154158D01*
X84218532Y-20277427D01*
X84363482Y-20374280D01*
X84524542Y-20440993D01*
X84567401Y-20449518D01*
X84745001Y-20627119D01*
X84745000Y-26169500D01*
X84733550Y-26169500D01*
X84515389Y-26190987D01*
X84235466Y-26275901D01*
X83977486Y-26413794D01*
X83852000Y-26516778D01*
X83852000Y-20452825D01*
X83855676Y-20415502D01*
X83852000Y-20378179D01*
X83852000Y-20378170D01*
X83841003Y-20266517D01*
X83797546Y-20123256D01*
X83726974Y-19991227D01*
X83632001Y-19875502D01*
X83603002Y-19851704D01*
X83126015Y-19374717D01*
X83117490Y-19331858D01*
X83050777Y-19170798D01*
X82953924Y-19025848D01*
X82830655Y-18902579D01*
X82685705Y-18805726D01*
X82524645Y-18739013D01*
X82353665Y-18705003D01*
X82179335Y-18705003D01*
X82008355Y-18739013D01*
X81847295Y-18805726D01*
X81702345Y-18902579D01*
X81579076Y-19025848D01*
X81482223Y-19170798D01*
X81415510Y-19331858D01*
X81381500Y-19502838D01*
X81381500Y-19677168D01*
X81415510Y-19848148D01*
X81482223Y-20009208D01*
X81579076Y-20154158D01*
X81702345Y-20277427D01*
X81847295Y-20374280D01*
X82008355Y-20440993D01*
X82051214Y-20449518D01*
X82332001Y-20730306D01*
X82332000Y-26169500D01*
X82193550Y-26169500D01*
X81975389Y-26190987D01*
X81695466Y-26275901D01*
X81437486Y-26413794D01*
X81211366Y-26599366D01*
X81025794Y-26825486D01*
X80960000Y-26948578D01*
X80960000Y-13025835D01*
X81381500Y-13025835D01*
X81381500Y-13200165D01*
X81415510Y-13371145D01*
X81482223Y-13532205D01*
X81579076Y-13677155D01*
X81702345Y-13800424D01*
X81847295Y-13897277D01*
X82008355Y-13963990D01*
X82179335Y-13998000D01*
X82353665Y-13998000D01*
X82524645Y-13963990D01*
X82563248Y-13948000D01*
X84485939Y-13948000D01*
X84524542Y-13963990D01*
X84695522Y-13998000D01*
X84869852Y-13998000D01*
X85040832Y-13963990D01*
X85079435Y-13948000D01*
X87002126Y-13948000D01*
X87040729Y-13963990D01*
X87211709Y-13998000D01*
X87386039Y-13998000D01*
X87557019Y-13963990D01*
X87595622Y-13948000D01*
X89518313Y-13948000D01*
X89556916Y-13963990D01*
X89727896Y-13998000D01*
X89902226Y-13998000D01*
X90073206Y-13963990D01*
X90111809Y-13948000D01*
X92034500Y-13948000D01*
X92073103Y-13963990D01*
X92244083Y-13998000D01*
X92418413Y-13998000D01*
X92589393Y-13963990D01*
X92627996Y-13948000D01*
X94550687Y-13948000D01*
X94589290Y-13963990D01*
X94760270Y-13998000D01*
X94934600Y-13998000D01*
X95105580Y-13963990D01*
X95144183Y-13948000D01*
X97066874Y-13948000D01*
X97105477Y-13963990D01*
X97276457Y-13998000D01*
X97450787Y-13998000D01*
X97621767Y-13963990D01*
X97660370Y-13948000D01*
X99583061Y-13948000D01*
X99621664Y-13963990D01*
X99792644Y-13998000D01*
X99966974Y-13998000D01*
X100137954Y-13963990D01*
X100176557Y-13948000D01*
X102099248Y-13948000D01*
X102137851Y-13963990D01*
X102308831Y-13998000D01*
X102483161Y-13998000D01*
X102654141Y-13963990D01*
X102692744Y-13948000D01*
X112513252Y-13948000D01*
X112551855Y-13963990D01*
X112722835Y-13998000D01*
X112897165Y-13998000D01*
X113068145Y-13963990D01*
X113106748Y-13948000D01*
X115816215Y-13948000D01*
X115939244Y-14030205D01*
X116127602Y-14108226D01*
X116327561Y-14148000D01*
X116531439Y-14148000D01*
X116731398Y-14108226D01*
X116919756Y-14030205D01*
X117042785Y-13948000D01*
X120069752Y-13948000D01*
X120108355Y-13963990D01*
X120279335Y-13998000D01*
X120453665Y-13998000D01*
X120624645Y-13963990D01*
X120663248Y-13948000D01*
X125149752Y-13948000D01*
X125188355Y-13963990D01*
X125359335Y-13998000D01*
X125533665Y-13998000D01*
X125704645Y-13963990D01*
X125743248Y-13948000D01*
X127698823Y-13948000D01*
X127737426Y-13963990D01*
X127908406Y-13998000D01*
X128082736Y-13998000D01*
X128253716Y-13963990D01*
X128292319Y-13948000D01*
X130247894Y-13948000D01*
X130286497Y-13963990D01*
X130457477Y-13998000D01*
X130631807Y-13998000D01*
X130802787Y-13963990D01*
X130841390Y-13948000D01*
X132796965Y-13948000D01*
X132835568Y-13963990D01*
X133006548Y-13998000D01*
X133180878Y-13998000D01*
X133351858Y-13963990D01*
X133390461Y-13948000D01*
X135346036Y-13948000D01*
X135384639Y-13963990D01*
X135555619Y-13998000D01*
X135729949Y-13998000D01*
X135900929Y-13963990D01*
X135939532Y-13948000D01*
X137895107Y-13948000D01*
X137933710Y-13963990D01*
X138104690Y-13998000D01*
X138279020Y-13998000D01*
X138450000Y-13963990D01*
X138488603Y-13948000D01*
X140444178Y-13948000D01*
X140482781Y-13963990D01*
X140653761Y-13998000D01*
X140828091Y-13998000D01*
X140999071Y-13963990D01*
X141037674Y-13948000D01*
X142993249Y-13948000D01*
X143031852Y-13963990D01*
X143202832Y-13998000D01*
X143377162Y-13998000D01*
X143548142Y-13963990D01*
X143709202Y-13897277D01*
X143854152Y-13800424D01*
X143977421Y-13677155D01*
X144074274Y-13532205D01*
X144140987Y-13371145D01*
X144174997Y-13200165D01*
X144174997Y-13025835D01*
X144140987Y-12854855D01*
X144074274Y-12693795D01*
X143977421Y-12548845D01*
X143854152Y-12425576D01*
X143709202Y-12328723D01*
X143548142Y-12262010D01*
X143377162Y-12228000D01*
X143202832Y-12228000D01*
X143031852Y-12262010D01*
X142993249Y-12278000D01*
X141037674Y-12278000D01*
X140999071Y-12262010D01*
X140828091Y-12228000D01*
X140653761Y-12228000D01*
X140482781Y-12262010D01*
X140444178Y-12278000D01*
X138488603Y-12278000D01*
X138450000Y-12262010D01*
X138279020Y-12228000D01*
X138104690Y-12228000D01*
X137933710Y-12262010D01*
X137895107Y-12278000D01*
X135939532Y-12278000D01*
X135900929Y-12262010D01*
X135729949Y-12228000D01*
X135555619Y-12228000D01*
X135384639Y-12262010D01*
X135346036Y-12278000D01*
X133390461Y-12278000D01*
X133351858Y-12262010D01*
X133180878Y-12228000D01*
X133006548Y-12228000D01*
X132835568Y-12262010D01*
X132796965Y-12278000D01*
X130841390Y-12278000D01*
X130802787Y-12262010D01*
X130631807Y-12228000D01*
X130457477Y-12228000D01*
X130286497Y-12262010D01*
X130247894Y-12278000D01*
X128292319Y-12278000D01*
X128253716Y-12262010D01*
X128082736Y-12228000D01*
X127908406Y-12228000D01*
X127737426Y-12262010D01*
X127698823Y-12278000D01*
X125743248Y-12278000D01*
X125704645Y-12262010D01*
X125533665Y-12228000D01*
X125359335Y-12228000D01*
X125188355Y-12262010D01*
X125149752Y-12278000D01*
X120663248Y-12278000D01*
X120624645Y-12262010D01*
X120453665Y-12228000D01*
X120279335Y-12228000D01*
X120108355Y-12262010D01*
X120069752Y-12278000D01*
X117042785Y-12278000D01*
X116919756Y-12195795D01*
X116731398Y-12117774D01*
X116531439Y-12078000D01*
X116327561Y-12078000D01*
X116127602Y-12117774D01*
X115939244Y-12195795D01*
X115816215Y-12278000D01*
X113106748Y-12278000D01*
X113068145Y-12262010D01*
X112897165Y-12228000D01*
X112722835Y-12228000D01*
X112551855Y-12262010D01*
X112513252Y-12278000D01*
X102692744Y-12278000D01*
X102654141Y-12262010D01*
X102483161Y-12228000D01*
X102308831Y-12228000D01*
X102137851Y-12262010D01*
X102099248Y-12278000D01*
X100176557Y-12278000D01*
X100137954Y-12262010D01*
X99966974Y-12228000D01*
X99792644Y-12228000D01*
X99621664Y-12262010D01*
X99583061Y-12278000D01*
X97660370Y-12278000D01*
X97621767Y-12262010D01*
X97450787Y-12228000D01*
X97276457Y-12228000D01*
X97105477Y-12262010D01*
X97066874Y-12278000D01*
X95144183Y-12278000D01*
X95105580Y-12262010D01*
X94934600Y-12228000D01*
X94760270Y-12228000D01*
X94589290Y-12262010D01*
X94550687Y-12278000D01*
X92627996Y-12278000D01*
X92589393Y-12262010D01*
X92418413Y-12228000D01*
X92244083Y-12228000D01*
X92073103Y-12262010D01*
X92034500Y-12278000D01*
X90111809Y-12278000D01*
X90073206Y-12262010D01*
X89902226Y-12228000D01*
X89727896Y-12228000D01*
X89556916Y-12262010D01*
X89518313Y-12278000D01*
X87595622Y-12278000D01*
X87557019Y-12262010D01*
X87386039Y-12228000D01*
X87211709Y-12228000D01*
X87040729Y-12262010D01*
X87002126Y-12278000D01*
X85079435Y-12278000D01*
X85040832Y-12262010D01*
X84869852Y-12228000D01*
X84695522Y-12228000D01*
X84524542Y-12262010D01*
X84485939Y-12278000D01*
X82563248Y-12278000D01*
X82524645Y-12262010D01*
X82353665Y-12228000D01*
X82179335Y-12228000D01*
X82008355Y-12262010D01*
X81847295Y-12328723D01*
X81702345Y-12425576D01*
X81579076Y-12548845D01*
X81482223Y-12693795D01*
X81415510Y-12854855D01*
X81381500Y-13025835D01*
X80960000Y-13025835D01*
X80960000Y4454626D01*
X81634231Y4454626D01*
X81934411Y4016172D01*
X82513356Y3705704D01*
X83141746Y3514148D01*
X83795431Y3448866D01*
X84449293Y3512366D01*
X85078203Y3702208D01*
X85657992Y4011096D01*
X85665589Y4016172D01*
X85965769Y4454626D01*
X85864808Y4555587D01*
X108596692Y4555587D01*
X108692456Y4291186D01*
X108982071Y4150296D01*
X109293608Y4068616D01*
X109615095Y4049282D01*
X109934175Y4093039D01*
X110238588Y4198205D01*
X110412544Y4291186D01*
X110508308Y4555587D01*
X115746692Y4555587D01*
X115842456Y4291186D01*
X116132071Y4150296D01*
X116443608Y4068616D01*
X116765095Y4049282D01*
X117084175Y4093039D01*
X117388588Y4198205D01*
X117562544Y4291186D01*
X117621740Y4454626D01*
X139634231Y4454626D01*
X139934411Y4016172D01*
X140513356Y3705704D01*
X141141746Y3514148D01*
X141795431Y3448866D01*
X142449293Y3512366D01*
X143078203Y3702208D01*
X143657992Y4011096D01*
X143665589Y4016172D01*
X143965769Y4454626D01*
X141800000Y6620395D01*
X139634231Y4454626D01*
X117621740Y4454626D01*
X117658308Y4555587D01*
X116702500Y5511395D01*
X115746692Y4555587D01*
X110508308Y4555587D01*
X109552500Y5511395D01*
X108596692Y4555587D01*
X85864808Y4555587D01*
X83800000Y6620395D01*
X81634231Y4454626D01*
X80960000Y4454626D01*
X80960000Y5037916D01*
X81011096Y4942008D01*
X81016172Y4934411D01*
X81454626Y4634231D01*
X83620395Y6800000D01*
X83979605Y6800000D01*
X86145374Y4634231D01*
X86583828Y4934411D01*
X86894296Y5513356D01*
X86929367Y5628405D01*
X107910782Y5628405D01*
X107954539Y5309325D01*
X108059705Y5004912D01*
X108152686Y4830956D01*
X108417087Y4735192D01*
X109372895Y5691000D01*
X108417087Y6646808D01*
X108152686Y6551044D01*
X108011796Y6261429D01*
X107930116Y5949892D01*
X107910782Y5628405D01*
X86929367Y5628405D01*
X87085852Y6141746D01*
X87151134Y6795431D01*
X87087634Y7449293D01*
X86897792Y8078203D01*
X86588904Y8657992D01*
X86583828Y8665589D01*
X86359751Y8819000D01*
X99764928Y8819000D01*
X99764928Y7119000D01*
X99777188Y6994518D01*
X99813498Y6874820D01*
X99872463Y6764506D01*
X99951815Y6667815D01*
X100048506Y6588463D01*
X100158820Y6529498D01*
X100278518Y6493188D01*
X100403000Y6480928D01*
X102103000Y6480928D01*
X102227482Y6493188D01*
X102347180Y6529498D01*
X102457494Y6588463D01*
X102554185Y6667815D01*
X102633537Y6764506D01*
X102692502Y6874820D01*
X102716966Y6955466D01*
X102792731Y6871412D01*
X103026080Y6697359D01*
X103288901Y6572175D01*
X103436110Y6527524D01*
X103666000Y6648845D01*
X103666000Y7842000D01*
X103920000Y7842000D01*
X103920000Y6648845D01*
X104149890Y6527524D01*
X104297099Y6572175D01*
X104559920Y6697359D01*
X104732939Y6826413D01*
X108596692Y6826413D01*
X109552500Y5870605D01*
X109566643Y5884747D01*
X109746248Y5705142D01*
X109732105Y5691000D01*
X110687913Y4735192D01*
X110952314Y4830956D01*
X111093204Y5120571D01*
X111174884Y5432108D01*
X111194218Y5753595D01*
X111153433Y6051000D01*
X111222052Y6051000D01*
X111407522Y6087892D01*
X111582231Y6160259D01*
X111739464Y6265319D01*
X111873181Y6399036D01*
X111978241Y6556269D01*
X112050608Y6730978D01*
X112087500Y6916448D01*
X112087500Y7105552D01*
X114167500Y7105552D01*
X114167500Y6916448D01*
X114204392Y6730978D01*
X114276759Y6556269D01*
X114381819Y6399036D01*
X114515536Y6265319D01*
X114672769Y6160259D01*
X114847478Y6087892D01*
X115032948Y6051000D01*
X115106625Y6051000D01*
X115080116Y5949892D01*
X115060782Y5628405D01*
X115104539Y5309325D01*
X115209705Y5004912D01*
X115302686Y4830956D01*
X115567087Y4735192D01*
X116522895Y5691000D01*
X116882105Y5691000D01*
X117837913Y4735192D01*
X118102314Y4830956D01*
X118243204Y5120571D01*
X118324884Y5432108D01*
X118344218Y5753595D01*
X118300461Y6072675D01*
X118195295Y6377088D01*
X118102314Y6551044D01*
X117837913Y6646808D01*
X116882105Y5691000D01*
X116522895Y5691000D01*
X116508753Y5705142D01*
X116688358Y5884747D01*
X116702500Y5870605D01*
X117636464Y6804569D01*
X138448866Y6804569D01*
X138512366Y6150707D01*
X138702208Y5521797D01*
X139011096Y4942008D01*
X139016172Y4934411D01*
X139454626Y4634231D01*
X141620395Y6800000D01*
X139454626Y8965769D01*
X139016172Y8665589D01*
X138705704Y8086644D01*
X138514148Y7458254D01*
X138448866Y6804569D01*
X117636464Y6804569D01*
X117658308Y6826413D01*
X117562544Y7090814D01*
X117272929Y7231704D01*
X116961392Y7313384D01*
X116639905Y7332718D01*
X116320825Y7288961D01*
X116068366Y7201744D01*
X116050608Y7291022D01*
X115978241Y7465731D01*
X115873181Y7622964D01*
X115739464Y7756681D01*
X115582231Y7861741D01*
X115407522Y7934108D01*
X115222052Y7971000D01*
X115032948Y7971000D01*
X114847478Y7934108D01*
X114672769Y7861741D01*
X114515536Y7756681D01*
X114381819Y7622964D01*
X114276759Y7465731D01*
X114204392Y7291022D01*
X114167500Y7105552D01*
X112087500Y7105552D01*
X112050608Y7291022D01*
X111978241Y7465731D01*
X111873181Y7622964D01*
X111739464Y7756681D01*
X111582231Y7861741D01*
X111407522Y7934108D01*
X111222052Y7971000D01*
X111032948Y7971000D01*
X110847478Y7934108D01*
X110672769Y7861741D01*
X110515536Y7756681D01*
X110381819Y7622964D01*
X110276759Y7465731D01*
X110204392Y7291022D01*
X110186447Y7200804D01*
X110122929Y7231704D01*
X109811392Y7313384D01*
X109489905Y7332718D01*
X109170825Y7288961D01*
X108866412Y7183795D01*
X108692456Y7090814D01*
X108596692Y6826413D01*
X104732939Y6826413D01*
X104793269Y6871412D01*
X104988178Y7087645D01*
X105137157Y7337748D01*
X105234481Y7612109D01*
X105113814Y7842000D01*
X103920000Y7842000D01*
X103666000Y7842000D01*
X103646000Y7842000D01*
X103646000Y8005587D01*
X108596692Y8005587D01*
X108692456Y7741186D01*
X108982071Y7600296D01*
X109293608Y7518616D01*
X109615095Y7499282D01*
X109934175Y7543039D01*
X110238588Y7648205D01*
X110412544Y7741186D01*
X110508308Y8005587D01*
X115746692Y8005587D01*
X115842456Y7741186D01*
X116132071Y7600296D01*
X116443608Y7518616D01*
X116765095Y7499282D01*
X117084175Y7543039D01*
X117388588Y7648205D01*
X117562544Y7741186D01*
X117658308Y8005587D01*
X116702500Y8961395D01*
X115746692Y8005587D01*
X110508308Y8005587D01*
X109552500Y8961395D01*
X108596692Y8005587D01*
X103646000Y8005587D01*
X103646000Y8096000D01*
X103666000Y8096000D01*
X103666000Y9289155D01*
X103920000Y9289155D01*
X103920000Y8096000D01*
X105113814Y8096000D01*
X105234481Y8325891D01*
X105137157Y8600252D01*
X104988178Y8850355D01*
X104793269Y9066588D01*
X104559920Y9240641D01*
X104297099Y9365825D01*
X104149890Y9410476D01*
X103920000Y9289155D01*
X103666000Y9289155D01*
X103436110Y9410476D01*
X103288901Y9365825D01*
X103026080Y9240641D01*
X102792731Y9066588D01*
X102716966Y8982534D01*
X102692502Y9063180D01*
X102633537Y9173494D01*
X102554185Y9270185D01*
X102457494Y9349537D01*
X102347180Y9408502D01*
X102227482Y9444812D01*
X102103000Y9457072D01*
X100403000Y9457072D01*
X100278518Y9444812D01*
X100158820Y9408502D01*
X100048506Y9349537D01*
X99951815Y9270185D01*
X99872463Y9173494D01*
X99813498Y9063180D01*
X99777188Y8943482D01*
X99764928Y8819000D01*
X86359751Y8819000D01*
X86145374Y8965769D01*
X83979605Y6800000D01*
X83620395Y6800000D01*
X83606253Y6814142D01*
X83785858Y6993747D01*
X83800000Y6979605D01*
X85965769Y9145374D01*
X85665589Y9583828D01*
X85560842Y9640000D01*
X107993068Y9640000D01*
X107930116Y9399892D01*
G36*
X100173500Y-30067500D02*
G01*
X100193500Y-30067500D01*
X100193500Y-30321500D01*
X100173500Y-30321500D01*
X100173500Y-31514655D01*
X100388501Y-31628119D01*
X100388501Y-32353652D01*
X99281589Y-33460565D01*
X99090227Y-33422500D01*
X98812973Y-33422500D01*
X98582752Y-33468294D01*
X99463692Y-32587355D01*
X99491737Y-32564339D01*
X99583586Y-32452421D01*
X99603741Y-32414714D01*
X99651836Y-32324735D01*
X99693864Y-32186186D01*
X99708055Y-32042101D01*
X99704499Y-32005996D01*
X99704499Y-31628119D01*
X99919500Y-31514655D01*
X99919500Y-30321500D01*
X99899500Y-30321500D01*
X99899500Y-30067500D01*
X99919500Y-30067500D01*
X99919500Y-30047500D01*
X100173500Y-30047500D01*
X100173500Y-30067500D01*
X100173500Y-30067500D01*
G37*
X100173500Y-30067500D02*
X100193500Y-30067500D01*
X100193500Y-30321500D01*
X100173500Y-30321500D01*
X100173500Y-31514655D01*
X100388501Y-31628119D01*
X100388501Y-32353652D01*
X99281589Y-33460565D01*
X99090227Y-33422500D01*
X98812973Y-33422500D01*
X98582752Y-33468294D01*
X99463692Y-32587355D01*
X99491737Y-32564339D01*
X99583586Y-32452421D01*
X99603741Y-32414714D01*
X99651836Y-32324735D01*
X99693864Y-32186186D01*
X99708055Y-32042101D01*
X99704499Y-32005996D01*
X99704499Y-31628119D01*
X99919500Y-31514655D01*
X99919500Y-30321500D01*
X99899500Y-30321500D01*
X99899500Y-30067500D01*
X99919500Y-30067500D01*
X99919500Y-30047500D01*
X100173500Y-30047500D01*
X100173500Y-30067500D01*
G36*
X92553500Y-30067500D02*
G01*
X92573500Y-30067500D01*
X92573500Y-30321500D01*
X92553500Y-30321500D01*
X92553500Y-30965974D01*
X92544519Y-30920823D01*
X92477806Y-30759763D01*
X92380953Y-30614813D01*
X92299500Y-30533360D01*
X92299500Y-30321500D01*
X92279500Y-30321500D01*
X92279500Y-30067500D01*
X92299500Y-30067500D01*
X92299500Y-30047500D01*
X92553500Y-30047500D01*
X92553500Y-30067500D01*
X92553500Y-30067500D01*
G37*
X92553500Y-30067500D02*
X92573500Y-30067500D01*
X92573500Y-30321500D01*
X92553500Y-30321500D01*
X92553500Y-30965974D01*
X92544519Y-30920823D01*
X92477806Y-30759763D01*
X92380953Y-30614813D01*
X92299500Y-30533360D01*
X92299500Y-30321500D01*
X92279500Y-30321500D01*
X92279500Y-30067500D01*
X92299500Y-30067500D01*
X92299500Y-30047500D01*
X92553500Y-30047500D01*
X92553500Y-30067500D01*
G36*
X125573500Y-30067500D02*
G01*
X125593500Y-30067500D01*
X125593500Y-30321500D01*
X125573500Y-30321500D01*
X125573500Y-30341500D01*
X125319500Y-30341500D01*
X125319500Y-30321500D01*
X125299500Y-30321500D01*
X125299500Y-30067500D01*
X125319500Y-30067500D01*
X125319500Y-30047500D01*
X125573500Y-30047500D01*
X125573500Y-30067500D01*
X125573500Y-30067500D01*
G37*
X125573500Y-30067500D02*
X125593500Y-30067500D01*
X125593500Y-30321500D01*
X125573500Y-30321500D01*
X125573500Y-30341500D01*
X125319500Y-30341500D01*
X125319500Y-30321500D01*
X125299500Y-30321500D01*
X125299500Y-30067500D01*
X125319500Y-30067500D01*
X125319500Y-30047500D01*
X125573500Y-30047500D01*
X125573500Y-30067500D01*
G36*
X135733500Y-30067500D02*
G01*
X135753500Y-30067500D01*
X135753500Y-30321500D01*
X135733500Y-30321500D01*
X135733500Y-30341500D01*
X135479500Y-30341500D01*
X135479500Y-30321500D01*
X135459500Y-30321500D01*
X135459500Y-30067500D01*
X135479500Y-30067500D01*
X135479500Y-30047500D01*
X135733500Y-30047500D01*
X135733500Y-30067500D01*
X135733500Y-30067500D01*
G37*
X135733500Y-30067500D02*
X135753500Y-30067500D01*
X135753500Y-30321500D01*
X135733500Y-30321500D01*
X135733500Y-30341500D01*
X135479500Y-30341500D01*
X135479500Y-30321500D01*
X135459500Y-30321500D01*
X135459500Y-30067500D01*
X135479500Y-30067500D01*
X135479500Y-30047500D01*
X135733500Y-30047500D01*
X135733500Y-30067500D01*
G36*
X121665794Y-28483514D02*
G01*
X121851366Y-28709634D01*
X122077486Y-28895206D01*
X122135256Y-28926084D01*
X121906231Y-29096912D01*
X121711322Y-29313145D01*
X121636500Y-29438755D01*
X121561678Y-29313145D01*
X121366769Y-29096912D01*
X121137744Y-28926084D01*
X121195514Y-28895206D01*
X121421634Y-28709634D01*
X121607206Y-28483514D01*
X121636500Y-28428709D01*
X121665794Y-28483514D01*
X121665794Y-28483514D01*
G37*
X121665794Y-28483514D02*
X121851366Y-28709634D01*
X122077486Y-28895206D01*
X122135256Y-28926084D01*
X121906231Y-29096912D01*
X121711322Y-29313145D01*
X121636500Y-29438755D01*
X121561678Y-29313145D01*
X121366769Y-29096912D01*
X121137744Y-28926084D01*
X121195514Y-28895206D01*
X121421634Y-28709634D01*
X121607206Y-28483514D01*
X121636500Y-28428709D01*
X121665794Y-28483514D01*
G36*
X129285794Y-28483514D02*
G01*
X129471366Y-28709634D01*
X129697486Y-28895206D01*
X129755256Y-28926084D01*
X129526231Y-29096912D01*
X129331322Y-29313145D01*
X129256500Y-29438755D01*
X129181678Y-29313145D01*
X128986769Y-29096912D01*
X128757744Y-28926084D01*
X128815514Y-28895206D01*
X129041634Y-28709634D01*
X129227206Y-28483514D01*
X129256500Y-28428709D01*
X129285794Y-28483514D01*
X129285794Y-28483514D01*
G37*
X129285794Y-28483514D02*
X129471366Y-28709634D01*
X129697486Y-28895206D01*
X129755256Y-28926084D01*
X129526231Y-29096912D01*
X129331322Y-29313145D01*
X129256500Y-29438755D01*
X129181678Y-29313145D01*
X128986769Y-29096912D01*
X128757744Y-28926084D01*
X128815514Y-28895206D01*
X129041634Y-28709634D01*
X129227206Y-28483514D01*
X129256500Y-28428709D01*
X129285794Y-28483514D01*
%TD*%
M02*
