M48
; DRILL file {KiCad (5.1.4)-1} date 8/22/2020 7:58:47 PM
; FORMAT={-:-/ absolute / inch / decimal}
; #@! TF.CreationDate,2020-08-22T19:58:47-05:00
; #@! TF.GenerationSoftware,Kicad,Pcbnew,(5.1.4)-1
FMAT,2
INCH
T1C0.0098
T2C0.0157
T3C0.0197
T4C0.0394
T5C0.0406
T6C0.0523
T7C0.1063
T8C0.1272
T9C0.0256
%
G90
G05
T1
X3.2388Y-0.5163
X3.2388Y-0.7713
X3.2388Y-1.0038
X3.2984Y-1.2394
X3.3379Y-0.5163
X3.3379Y-0.7713
X3.3382Y-1.0038
X3.4004Y-1.2413
X3.437Y-0.5163
X3.437Y-0.7713
X3.4376Y-1.0038
X3.504Y-1.2324
X3.536Y-0.5163
X3.536Y-0.7713
X3.537Y-1.0038
X3.61Y-1.2275
X3.6351Y-0.5163
X3.6351Y-0.7713
X3.6363Y-1.0038
X3.6981Y-1.2146
X3.7342Y-0.5163
X3.7342Y-0.7713
X3.7357Y-1.0038
X3.7945Y-1.2264
X3.8332Y-0.5163
X3.8332Y-0.7713
X3.8351Y-1.0038
X3.9323Y-0.5163
X3.9323Y-0.7713
X3.9345Y-1.0038
X3.9709Y-1.3327
X3.9753Y-1.1428
X4.0313Y-0.5163
X4.0313Y-0.7713
X4.0338Y-1.0038
X4.0358Y-1.2376
X4.0638Y-1.25
X4.1055Y-1.2433
X4.1713Y-1.2453
X4.2657Y-1.2472
X4.3354Y-1.2453
X4.3713Y-1.2472
X4.4388Y-0.7713
X4.4388Y-1.0038
X4.4413Y-0.5163
X4.5091Y-1.2941
X4.5402Y-1.3171
X4.5909Y-1.137
X4.6137Y-1.2474
X4.6777Y-1.287
X4.7388Y-0.5163
X4.7388Y-0.7713
X4.7388Y-1.0088
X4.785Y-1.2425
X4.8925Y-1.2155
X4.9227Y-1.2499
X4.9388Y-0.5163
X4.9388Y-0.7713
X4.9388Y-1.0063
X4.9752Y-1.2435
X4.9894Y-1.2972
X5.0388Y-1.0063
X5.0392Y-0.5163
X5.0392Y-0.7713
X5.0716Y-1.2453
X5.1346Y-1.2762
X5.1388Y-1.0063
X5.1396Y-0.5163
X5.1396Y-0.7713
X5.1795Y-1.1386
X5.2388Y-1.0038
X5.2399Y-0.5163
X5.2399Y-0.7713
X5.2753Y-1.2264
X5.3403Y-0.5163
X5.3403Y-0.7713
X5.3413Y-1.0038
X5.3476Y-1.286
X5.3959Y-1.2253
X5.4388Y-1.0038
X5.4406Y-0.5163
X5.4406Y-0.7713
X5.4862Y-1.2264
X5.541Y-0.5163
X5.541Y-0.7713
X5.5413Y-1.0038
X5.5906Y-1.2291
X5.6413Y-0.5163
X5.6413Y-0.7713
X5.6413Y-1.0038
T2
X4.1833Y0.3147
X4.1833Y0.1507
X4.5838Y-0.5163
T3
X3.2195Y-1.6614
X3.2428Y-1.605
X3.2428Y-1.7178
X3.2992Y-1.5817
X3.2992Y-1.7411
X3.3556Y-1.605
X3.3556Y-1.7178
X3.3789Y-1.6614
X5.503Y0.2677
X5.5263Y0.3241
X5.5263Y0.2113
X5.5827Y0.3474
X5.5827Y0.188
X5.6391Y0.3241
X5.6391Y0.2113
X5.6624Y0.2677
X3.2195Y0.2677
X3.2428Y0.3241
X3.2428Y0.2113
X3.2992Y0.3474
X3.2992Y0.188
X3.3556Y0.3241
X3.3556Y0.2113
X3.3789Y0.2677
X5.503Y-1.6614
X5.5263Y-1.605
X5.5263Y-1.7178
X5.5827Y-1.5817
X5.5827Y-1.7411
X5.6391Y-1.605
X5.6391Y-1.7178
X5.6624Y-1.6614
T4
X3.2388Y-1.0888
X3.2388Y-1.1888
X3.3388Y-1.0888
X3.3388Y-1.1888
X3.4388Y-1.0888
X3.4388Y-1.1888
X3.5388Y-1.0888
X3.5388Y-1.1888
X3.6388Y-1.0888
X3.6388Y-1.1888
X3.7388Y-1.0888
X3.7388Y-1.1888
X3.8388Y-1.0888
X3.8388Y-1.1888
X3.9388Y-1.0888
X3.9388Y-1.1888
X4.0388Y-1.0888
X4.0388Y-1.1888
X4.1388Y-1.0888
X4.1388Y-1.1888
X4.2388Y-1.0888
X4.2388Y-1.1888
X4.3388Y-1.0888
X4.3388Y-1.1888
X4.4388Y-1.0888
X4.4388Y-1.1888
X4.5388Y-1.0888
X4.5388Y-1.1888
X4.6388Y-1.0888
X4.6388Y-1.1888
X4.7388Y-1.0888
X4.7388Y-1.1888
X4.8388Y-1.0888
X4.8388Y-1.1888
X4.9388Y-1.0888
X4.9388Y-1.1888
X5.0388Y-1.0888
X5.0388Y-1.1888
X5.1388Y-1.0888
X5.1388Y-1.1888
X5.2388Y-1.0888
X5.2388Y-1.1888
X5.3388Y-1.0888
X5.3388Y-1.1888
X5.4388Y-1.0888
X5.4388Y-1.1888
X5.5388Y-1.0888
X5.5388Y-1.1888
X5.6388Y-1.0888
X5.6388Y-1.1888
X3.9863Y0.3137
X4.0863Y0.3137
T5
X3.7867Y-1.3713
X3.8412Y-1.4831
X3.8957Y-1.3713
X3.9503Y-1.4831
X4.0048Y-1.3713
X4.0593Y-1.4831
X4.1138Y-1.3713
X4.1684Y-1.4831
X4.2229Y-1.3713
X4.2774Y-1.4831
X4.332Y-1.3713
X4.3865Y-1.4831
X4.441Y-1.3713
X4.4955Y-1.4831
X4.5501Y-1.3713
X4.6046Y-1.4831
X4.6591Y-1.3713
X4.7136Y-1.4831
X4.7682Y-1.3713
X4.8227Y-1.4831
X4.8772Y-1.3713
X4.9318Y-1.4831
X4.9863Y-1.3713
X5.0408Y-1.4831
X5.0953Y-1.3713
T6
X4.3131Y0.3599
X4.3131Y0.2241
X4.5946Y0.3599
X4.5946Y0.2241
T7
X5.5827Y0.2677
X3.2992Y0.2677
X5.5827Y-1.6614
X3.2992Y-1.6614
T8
X3.515Y-1.4272
X5.367Y-1.4272
T9
X4.3751Y0.276
X4.5326Y0.276
T0
M30
