%TF.GenerationSoftware,KiCad,Pcbnew,(5.1.4)-1*%
%TF.CreationDate,2020-09-15T17:58:07-05:00*%
%TF.ProjectId,rascsi_2p3,72617363-7369-45f3-9270-332e6b696361,rev?*%
%TF.SameCoordinates,PX59d60c0PY325aa00*%
%TF.FileFunction,Legend,Bot*%
%TF.FilePolarity,Positive*%
%FSLAX46Y46*%
G04 Gerber Fmt 4.6, Leading zero omitted, Abs format (unit mm)*
G04 Created by KiCad (PCBNEW (5.1.4)-1) date 2020-09-15 17:58:07*
%MOMM*%
%LPD*%
G04 APERTURE LIST*
%ADD10C,0.150000*%
%ADD11C,0.120000*%
%ADD12C,0.230000*%
%ADD13C,0.400000*%
%ADD14C,0.050000*%
%ADD15C,0.100000*%
%ADD16C,0.254000*%
G04 APERTURE END LIST*
D10*
X132032261Y-17138380D02*
X131841785Y-17138380D01*
X131746547Y-17186000D01*
X131651309Y-17281238D01*
X131603690Y-17471714D01*
X131603690Y-17805047D01*
X131651309Y-17995523D01*
X131746547Y-18090761D01*
X131841785Y-18138380D01*
X132032261Y-18138380D01*
X132127500Y-18090761D01*
X132222738Y-17995523D01*
X132270357Y-17805047D01*
X132270357Y-17471714D01*
X132222738Y-17281238D01*
X132127500Y-17186000D01*
X132032261Y-17138380D01*
X131175119Y-17471714D02*
X131175119Y-18138380D01*
X131175119Y-17566952D02*
X131127500Y-17519333D01*
X131032261Y-17471714D01*
X130889404Y-17471714D01*
X130794166Y-17519333D01*
X130746547Y-17614571D01*
X130746547Y-18138380D01*
X130127500Y-18138380D02*
X130222738Y-18090761D01*
X130270357Y-17995523D01*
X130270357Y-17138380D01*
X129841785Y-17471714D02*
X129603690Y-18138380D01*
X129365595Y-17471714D02*
X129603690Y-18138380D01*
X129698928Y-18376476D01*
X129746547Y-18424095D01*
X129841785Y-18471714D01*
X127794166Y-17471714D02*
X127794166Y-18138380D01*
X128222738Y-17471714D02*
X128222738Y-17995523D01*
X128175119Y-18090761D01*
X128079880Y-18138380D01*
X127937023Y-18138380D01*
X127841785Y-18090761D01*
X127794166Y-18043142D01*
X127365595Y-18090761D02*
X127270357Y-18138380D01*
X127079880Y-18138380D01*
X126984642Y-18090761D01*
X126937023Y-17995523D01*
X126937023Y-17947904D01*
X126984642Y-17852666D01*
X127079880Y-17805047D01*
X127222738Y-17805047D01*
X127317976Y-17757428D01*
X127365595Y-17662190D01*
X127365595Y-17614571D01*
X127317976Y-17519333D01*
X127222738Y-17471714D01*
X127079880Y-17471714D01*
X126984642Y-17519333D01*
X126127500Y-18090761D02*
X126222738Y-18138380D01*
X126413214Y-18138380D01*
X126508452Y-18090761D01*
X126556071Y-17995523D01*
X126556071Y-17614571D01*
X126508452Y-17519333D01*
X126413214Y-17471714D01*
X126222738Y-17471714D01*
X126127500Y-17519333D01*
X126079880Y-17614571D01*
X126079880Y-17709809D01*
X126556071Y-17805047D01*
X125032261Y-17471714D02*
X124651309Y-17471714D01*
X124889404Y-17138380D02*
X124889404Y-17995523D01*
X124841785Y-18090761D01*
X124746547Y-18138380D01*
X124651309Y-18138380D01*
X124317976Y-18138380D02*
X124317976Y-17138380D01*
X123889404Y-18138380D02*
X123889404Y-17614571D01*
X123937023Y-17519333D01*
X124032261Y-17471714D01*
X124175119Y-17471714D01*
X124270357Y-17519333D01*
X124317976Y-17566952D01*
X123032261Y-18090761D02*
X123127500Y-18138380D01*
X123317976Y-18138380D01*
X123413214Y-18090761D01*
X123460833Y-17995523D01*
X123460833Y-17614571D01*
X123413214Y-17519333D01*
X123317976Y-17471714D01*
X123127500Y-17471714D01*
X123032261Y-17519333D01*
X122984642Y-17614571D01*
X122984642Y-17709809D01*
X123460833Y-17805047D01*
X121794166Y-18138380D02*
X121794166Y-17138380D01*
X121556071Y-17138380D01*
X121413214Y-17186000D01*
X121317976Y-17281238D01*
X121270357Y-17376476D01*
X121222738Y-17566952D01*
X121222738Y-17709809D01*
X121270357Y-17900285D01*
X121317976Y-17995523D01*
X121413214Y-18090761D01*
X121556071Y-18138380D01*
X121794166Y-18138380D01*
X120460833Y-17614571D02*
X120317976Y-17662190D01*
X120270357Y-17709809D01*
X120222738Y-17805047D01*
X120222738Y-17947904D01*
X120270357Y-18043142D01*
X120317976Y-18090761D01*
X120413214Y-18138380D01*
X120794166Y-18138380D01*
X120794166Y-17138380D01*
X120460833Y-17138380D01*
X120365595Y-17186000D01*
X120317976Y-17233619D01*
X120270357Y-17328857D01*
X120270357Y-17424095D01*
X120317976Y-17519333D01*
X120365595Y-17566952D01*
X120460833Y-17614571D01*
X120794166Y-17614571D01*
X119794166Y-17757428D02*
X119032261Y-17757428D01*
X118603690Y-17233619D02*
X118556071Y-17186000D01*
X118460833Y-17138380D01*
X118222738Y-17138380D01*
X118127500Y-17186000D01*
X118079880Y-17233619D01*
X118032261Y-17328857D01*
X118032261Y-17424095D01*
X118079880Y-17566952D01*
X118651309Y-18138380D01*
X118032261Y-18138380D01*
X117127500Y-17138380D02*
X117603690Y-17138380D01*
X117651309Y-17614571D01*
X117603690Y-17566952D01*
X117508452Y-17519333D01*
X117270357Y-17519333D01*
X117175119Y-17566952D01*
X117127500Y-17614571D01*
X117079880Y-17709809D01*
X117079880Y-17947904D01*
X117127500Y-18043142D01*
X117175119Y-18090761D01*
X117270357Y-18138380D01*
X117508452Y-18138380D01*
X117603690Y-18090761D01*
X117651309Y-18043142D01*
X115698928Y-17138380D02*
X115508452Y-17138380D01*
X115413214Y-17186000D01*
X115317976Y-17281238D01*
X115270357Y-17471714D01*
X115270357Y-17805047D01*
X115317976Y-17995523D01*
X115413214Y-18090761D01*
X115508452Y-18138380D01*
X115698928Y-18138380D01*
X115794166Y-18090761D01*
X115889404Y-17995523D01*
X115937023Y-17805047D01*
X115937023Y-17471714D01*
X115889404Y-17281238D01*
X115794166Y-17186000D01*
X115698928Y-17138380D01*
X114270357Y-18138380D02*
X114603690Y-17662190D01*
X114841785Y-18138380D02*
X114841785Y-17138380D01*
X114460833Y-17138380D01*
X114365595Y-17186000D01*
X114317976Y-17233619D01*
X114270357Y-17328857D01*
X114270357Y-17471714D01*
X114317976Y-17566952D01*
X114365595Y-17614571D01*
X114460833Y-17662190D01*
X114841785Y-17662190D01*
X112603690Y-17138380D02*
X113079880Y-17138380D01*
X113127500Y-17614571D01*
X113079880Y-17566952D01*
X112984642Y-17519333D01*
X112746547Y-17519333D01*
X112651309Y-17566952D01*
X112603690Y-17614571D01*
X112556071Y-17709809D01*
X112556071Y-17947904D01*
X112603690Y-18043142D01*
X112651309Y-18090761D01*
X112746547Y-18138380D01*
X112984642Y-18138380D01*
X113079880Y-18090761D01*
X113127500Y-18043142D01*
X111937023Y-17138380D02*
X111841785Y-17138380D01*
X111746547Y-17186000D01*
X111698928Y-17233619D01*
X111651309Y-17328857D01*
X111603690Y-17519333D01*
X111603690Y-17757428D01*
X111651309Y-17947904D01*
X111698928Y-18043142D01*
X111746547Y-18090761D01*
X111841785Y-18138380D01*
X111937023Y-18138380D01*
X112032261Y-18090761D01*
X112079880Y-18043142D01*
X112127500Y-17947904D01*
X112175119Y-17757428D01*
X112175119Y-17519333D01*
X112127500Y-17328857D01*
X112079880Y-17233619D01*
X112032261Y-17186000D01*
X111937023Y-17138380D01*
X111175119Y-17757428D02*
X110413214Y-17757428D01*
X109937023Y-17471714D02*
X109937023Y-18471714D01*
X109937023Y-17519333D02*
X109841785Y-17471714D01*
X109651309Y-17471714D01*
X109556071Y-17519333D01*
X109508452Y-17566952D01*
X109460833Y-17662190D01*
X109460833Y-17947904D01*
X109508452Y-18043142D01*
X109556071Y-18090761D01*
X109651309Y-18138380D01*
X109841785Y-18138380D01*
X109937023Y-18090761D01*
X109032261Y-18138380D02*
X109032261Y-17471714D01*
X109032261Y-17138380D02*
X109079880Y-17186000D01*
X109032261Y-17233619D01*
X108984642Y-17186000D01*
X109032261Y-17138380D01*
X109032261Y-17233619D01*
X108556071Y-17471714D02*
X108556071Y-18138380D01*
X108556071Y-17566952D02*
X108508452Y-17519333D01*
X108413214Y-17471714D01*
X108270357Y-17471714D01*
X108175119Y-17519333D01*
X108127500Y-17614571D01*
X108127500Y-18138380D01*
X106889404Y-18138380D02*
X106889404Y-17471714D01*
X106889404Y-17662190D02*
X106841785Y-17566952D01*
X106794166Y-17519333D01*
X106698928Y-17471714D01*
X106603690Y-17471714D01*
X106270357Y-18138380D02*
X106270357Y-17471714D01*
X106270357Y-17138380D02*
X106317976Y-17186000D01*
X106270357Y-17233619D01*
X106222738Y-17186000D01*
X106270357Y-17138380D01*
X106270357Y-17233619D01*
X105794166Y-18138380D02*
X105794166Y-17138380D01*
X105794166Y-17519333D02*
X105698928Y-17471714D01*
X105508452Y-17471714D01*
X105413214Y-17519333D01*
X105365595Y-17566952D01*
X105317976Y-17662190D01*
X105317976Y-17947904D01*
X105365595Y-18043142D01*
X105413214Y-18090761D01*
X105508452Y-18138380D01*
X105698928Y-18138380D01*
X105794166Y-18090761D01*
X104889404Y-18138380D02*
X104889404Y-17138380D01*
X104889404Y-17519333D02*
X104794166Y-17471714D01*
X104603690Y-17471714D01*
X104508452Y-17519333D01*
X104460833Y-17566952D01*
X104413214Y-17662190D01*
X104413214Y-17947904D01*
X104460833Y-18043142D01*
X104508452Y-18090761D01*
X104603690Y-18138380D01*
X104794166Y-18138380D01*
X104889404Y-18090761D01*
X103841785Y-18138380D02*
X103937023Y-18090761D01*
X103984642Y-18043142D01*
X104032261Y-17947904D01*
X104032261Y-17662190D01*
X103984642Y-17566952D01*
X103937023Y-17519333D01*
X103841785Y-17471714D01*
X103698928Y-17471714D01*
X103603690Y-17519333D01*
X103556071Y-17566952D01*
X103508452Y-17662190D01*
X103508452Y-17947904D01*
X103556071Y-18043142D01*
X103603690Y-18090761D01*
X103698928Y-18138380D01*
X103841785Y-18138380D01*
X103079880Y-17471714D02*
X103079880Y-18138380D01*
X103079880Y-17566952D02*
X103032261Y-17519333D01*
X102937023Y-17471714D01*
X102794166Y-17471714D01*
X102698928Y-17519333D01*
X102651309Y-17614571D01*
X102651309Y-18138380D01*
X100984642Y-18090761D02*
X101079880Y-18138380D01*
X101270357Y-18138380D01*
X101365595Y-18090761D01*
X101413214Y-18043142D01*
X101460833Y-17947904D01*
X101460833Y-17662190D01*
X101413214Y-17566952D01*
X101365595Y-17519333D01*
X101270357Y-17471714D01*
X101079880Y-17471714D01*
X100984642Y-17519333D01*
X100413214Y-18138380D02*
X100508452Y-18090761D01*
X100556071Y-18043142D01*
X100603690Y-17947904D01*
X100603690Y-17662190D01*
X100556071Y-17566952D01*
X100508452Y-17519333D01*
X100413214Y-17471714D01*
X100270357Y-17471714D01*
X100175119Y-17519333D01*
X100127500Y-17566952D01*
X100079880Y-17662190D01*
X100079880Y-17947904D01*
X100127500Y-18043142D01*
X100175119Y-18090761D01*
X100270357Y-18138380D01*
X100413214Y-18138380D01*
X99651309Y-17471714D02*
X99651309Y-18138380D01*
X99651309Y-17566952D02*
X99603690Y-17519333D01*
X99508452Y-17471714D01*
X99365595Y-17471714D01*
X99270357Y-17519333D01*
X99222738Y-17614571D01*
X99222738Y-18138380D01*
X98746547Y-17471714D02*
X98746547Y-18138380D01*
X98746547Y-17566952D02*
X98698928Y-17519333D01*
X98603690Y-17471714D01*
X98460833Y-17471714D01*
X98365595Y-17519333D01*
X98317976Y-17614571D01*
X98317976Y-18138380D01*
X97460833Y-18090761D02*
X97556071Y-18138380D01*
X97746547Y-18138380D01*
X97841785Y-18090761D01*
X97889404Y-17995523D01*
X97889404Y-17614571D01*
X97841785Y-17519333D01*
X97746547Y-17471714D01*
X97556071Y-17471714D01*
X97460833Y-17519333D01*
X97413214Y-17614571D01*
X97413214Y-17709809D01*
X97889404Y-17805047D01*
X96556071Y-18090761D02*
X96651309Y-18138380D01*
X96841785Y-18138380D01*
X96937023Y-18090761D01*
X96984642Y-18043142D01*
X97032261Y-17947904D01*
X97032261Y-17662190D01*
X96984642Y-17566952D01*
X96937023Y-17519333D01*
X96841785Y-17471714D01*
X96651309Y-17471714D01*
X96556071Y-17519333D01*
X96270357Y-17471714D02*
X95889404Y-17471714D01*
X96127500Y-17138380D02*
X96127500Y-17995523D01*
X96079880Y-18090761D01*
X95984642Y-18138380D01*
X95889404Y-18138380D01*
X95413214Y-18138380D02*
X95508452Y-18090761D01*
X95556071Y-18043142D01*
X95603690Y-17947904D01*
X95603690Y-17662190D01*
X95556071Y-17566952D01*
X95508452Y-17519333D01*
X95413214Y-17471714D01*
X95270357Y-17471714D01*
X95175119Y-17519333D01*
X95127500Y-17566952D01*
X95079880Y-17662190D01*
X95079880Y-17947904D01*
X95127500Y-18043142D01*
X95175119Y-18090761D01*
X95270357Y-18138380D01*
X95413214Y-18138380D01*
X94651309Y-18138380D02*
X94651309Y-17471714D01*
X94651309Y-17662190D02*
X94603690Y-17566952D01*
X94556071Y-17519333D01*
X94460833Y-17471714D01*
X94365595Y-17471714D01*
X94032261Y-18043142D02*
X93984642Y-18090761D01*
X94032261Y-18138380D01*
X94079880Y-18090761D01*
X94032261Y-18043142D01*
X94032261Y-18138380D01*
X120246547Y-19788380D02*
X120246547Y-18788380D01*
X120008452Y-18788380D01*
X119865595Y-18836000D01*
X119770357Y-18931238D01*
X119722738Y-19026476D01*
X119675119Y-19216952D01*
X119675119Y-19359809D01*
X119722738Y-19550285D01*
X119770357Y-19645523D01*
X119865595Y-19740761D01*
X120008452Y-19788380D01*
X120246547Y-19788380D01*
X119056071Y-18788380D02*
X118865595Y-18788380D01*
X118770357Y-18836000D01*
X118675119Y-18931238D01*
X118627500Y-19121714D01*
X118627500Y-19455047D01*
X118675119Y-19645523D01*
X118770357Y-19740761D01*
X118865595Y-19788380D01*
X119056071Y-19788380D01*
X119151309Y-19740761D01*
X119246547Y-19645523D01*
X119294166Y-19455047D01*
X119294166Y-19121714D01*
X119246547Y-18931238D01*
X119151309Y-18836000D01*
X119056071Y-18788380D01*
X117437023Y-19788380D02*
X117437023Y-18788380D01*
X116865595Y-19788380D01*
X116865595Y-18788380D01*
X116198928Y-18788380D02*
X116008452Y-18788380D01*
X115913214Y-18836000D01*
X115817976Y-18931238D01*
X115770357Y-19121714D01*
X115770357Y-19455047D01*
X115817976Y-19645523D01*
X115913214Y-19740761D01*
X116008452Y-19788380D01*
X116198928Y-19788380D01*
X116294166Y-19740761D01*
X116389404Y-19645523D01*
X116437023Y-19455047D01*
X116437023Y-19121714D01*
X116389404Y-18931238D01*
X116294166Y-18836000D01*
X116198928Y-18788380D01*
X115484642Y-18788380D02*
X114913214Y-18788380D01*
X115198928Y-19788380D02*
X115198928Y-18788380D01*
X113817976Y-18788380D02*
X113817976Y-19597904D01*
X113770357Y-19693142D01*
X113722738Y-19740761D01*
X113627500Y-19788380D01*
X113437023Y-19788380D01*
X113341785Y-19740761D01*
X113294166Y-19693142D01*
X113246547Y-19597904D01*
X113246547Y-18788380D01*
X112817976Y-19740761D02*
X112675119Y-19788380D01*
X112437023Y-19788380D01*
X112341785Y-19740761D01*
X112294166Y-19693142D01*
X112246547Y-19597904D01*
X112246547Y-19502666D01*
X112294166Y-19407428D01*
X112341785Y-19359809D01*
X112437023Y-19312190D01*
X112627500Y-19264571D01*
X112722738Y-19216952D01*
X112770357Y-19169333D01*
X112817976Y-19074095D01*
X112817976Y-18978857D01*
X112770357Y-18883619D01*
X112722738Y-18836000D01*
X112627500Y-18788380D01*
X112389404Y-18788380D01*
X112246547Y-18836000D01*
X111817976Y-19264571D02*
X111484642Y-19264571D01*
X111341785Y-19788380D02*
X111817976Y-19788380D01*
X111817976Y-18788380D01*
X111341785Y-18788380D01*
X109817976Y-19264571D02*
X109675119Y-19312190D01*
X109627500Y-19359809D01*
X109579880Y-19455047D01*
X109579880Y-19597904D01*
X109627500Y-19693142D01*
X109675119Y-19740761D01*
X109770357Y-19788380D01*
X110151309Y-19788380D01*
X110151309Y-18788380D01*
X109817976Y-18788380D01*
X109722738Y-18836000D01*
X109675119Y-18883619D01*
X109627500Y-18978857D01*
X109627500Y-19074095D01*
X109675119Y-19169333D01*
X109722738Y-19216952D01*
X109817976Y-19264571D01*
X110151309Y-19264571D01*
X108960833Y-18788380D02*
X108770357Y-18788380D01*
X108675119Y-18836000D01*
X108579880Y-18931238D01*
X108532261Y-19121714D01*
X108532261Y-19455047D01*
X108579880Y-19645523D01*
X108675119Y-19740761D01*
X108770357Y-19788380D01*
X108960833Y-19788380D01*
X109056071Y-19740761D01*
X109151309Y-19645523D01*
X109198928Y-19455047D01*
X109198928Y-19121714D01*
X109151309Y-18931238D01*
X109056071Y-18836000D01*
X108960833Y-18788380D01*
X108246547Y-18788380D02*
X107675119Y-18788380D01*
X107960833Y-19788380D02*
X107960833Y-18788380D01*
X107341785Y-19788380D02*
X107341785Y-18788380D01*
X107341785Y-19264571D02*
X106770357Y-19264571D01*
X106770357Y-19788380D02*
X106770357Y-18788380D01*
X129794166Y-21819333D02*
X129841785Y-21771714D01*
X129937023Y-21628857D01*
X129984642Y-21533619D01*
X130032261Y-21390761D01*
X130079880Y-21152666D01*
X130079880Y-20962190D01*
X130032261Y-20724095D01*
X129984642Y-20581238D01*
X129937023Y-20486000D01*
X129841785Y-20343142D01*
X129794166Y-20295523D01*
X129413214Y-20438380D02*
X129413214Y-21247904D01*
X129365595Y-21343142D01*
X129317976Y-21390761D01*
X129222738Y-21438380D01*
X129032261Y-21438380D01*
X128937023Y-21390761D01*
X128889404Y-21343142D01*
X128841785Y-21247904D01*
X128841785Y-20438380D01*
X128365595Y-20771714D02*
X128365595Y-21438380D01*
X128365595Y-20866952D02*
X128317976Y-20819333D01*
X128222738Y-20771714D01*
X128079880Y-20771714D01*
X127984642Y-20819333D01*
X127937023Y-20914571D01*
X127937023Y-21438380D01*
X127317976Y-21438380D02*
X127413214Y-21390761D01*
X127460833Y-21295523D01*
X127460833Y-20438380D01*
X126556071Y-21390761D02*
X126651309Y-21438380D01*
X126841785Y-21438380D01*
X126937023Y-21390761D01*
X126984642Y-21295523D01*
X126984642Y-20914571D01*
X126937023Y-20819333D01*
X126841785Y-20771714D01*
X126651309Y-20771714D01*
X126556071Y-20819333D01*
X126508452Y-20914571D01*
X126508452Y-21009809D01*
X126984642Y-21105047D01*
X126127500Y-21390761D02*
X126032261Y-21438380D01*
X125841785Y-21438380D01*
X125746547Y-21390761D01*
X125698928Y-21295523D01*
X125698928Y-21247904D01*
X125746547Y-21152666D01*
X125841785Y-21105047D01*
X125984642Y-21105047D01*
X126079880Y-21057428D01*
X126127500Y-20962190D01*
X126127500Y-20914571D01*
X126079880Y-20819333D01*
X125984642Y-20771714D01*
X125841785Y-20771714D01*
X125746547Y-20819333D01*
X125317976Y-21390761D02*
X125222738Y-21438380D01*
X125032261Y-21438380D01*
X124937023Y-21390761D01*
X124889404Y-21295523D01*
X124889404Y-21247904D01*
X124937023Y-21152666D01*
X125032261Y-21105047D01*
X125175119Y-21105047D01*
X125270357Y-21057428D01*
X125317976Y-20962190D01*
X125317976Y-20914571D01*
X125270357Y-20819333D01*
X125175119Y-20771714D01*
X125032261Y-20771714D01*
X124937023Y-20819333D01*
X123794166Y-20771714D02*
X123556071Y-21438380D01*
X123317976Y-20771714D02*
X123556071Y-21438380D01*
X123651309Y-21676476D01*
X123698928Y-21724095D01*
X123794166Y-21771714D01*
X122794166Y-21438380D02*
X122889404Y-21390761D01*
X122937023Y-21343142D01*
X122984642Y-21247904D01*
X122984642Y-20962190D01*
X122937023Y-20866952D01*
X122889404Y-20819333D01*
X122794166Y-20771714D01*
X122651309Y-20771714D01*
X122556071Y-20819333D01*
X122508452Y-20866952D01*
X122460833Y-20962190D01*
X122460833Y-21247904D01*
X122508452Y-21343142D01*
X122556071Y-21390761D01*
X122651309Y-21438380D01*
X122794166Y-21438380D01*
X121603690Y-20771714D02*
X121603690Y-21438380D01*
X122032261Y-20771714D02*
X122032261Y-21295523D01*
X121984642Y-21390761D01*
X121889404Y-21438380D01*
X121746547Y-21438380D01*
X121651309Y-21390761D01*
X121603690Y-21343142D01*
X119794166Y-21438380D02*
X120127500Y-20962190D01*
X120365595Y-21438380D02*
X120365595Y-20438380D01*
X119984642Y-20438380D01*
X119889404Y-20486000D01*
X119841785Y-20533619D01*
X119794166Y-20628857D01*
X119794166Y-20771714D01*
X119841785Y-20866952D01*
X119889404Y-20914571D01*
X119984642Y-20962190D01*
X120365595Y-20962190D01*
X119365595Y-20914571D02*
X119032261Y-20914571D01*
X118889404Y-21438380D02*
X119365595Y-21438380D01*
X119365595Y-20438380D01*
X118889404Y-20438380D01*
X118508452Y-21152666D02*
X118032261Y-21152666D01*
X118603690Y-21438380D02*
X118270357Y-20438380D01*
X117937023Y-21438380D01*
X117127500Y-21438380D02*
X117603690Y-21438380D01*
X117603690Y-20438380D01*
X116317976Y-21438380D02*
X116794166Y-21438380D01*
X116794166Y-20438380D01*
X115794166Y-20962190D02*
X115794166Y-21438380D01*
X116127500Y-20438380D02*
X115794166Y-20962190D01*
X115460833Y-20438380D01*
X114365595Y-21438380D02*
X114365595Y-20438380D01*
X114270357Y-21057428D02*
X113984642Y-21438380D01*
X113984642Y-20771714D02*
X114365595Y-21152666D01*
X113556071Y-20771714D02*
X113556071Y-21438380D01*
X113556071Y-20866952D02*
X113508452Y-20819333D01*
X113413214Y-20771714D01*
X113270357Y-20771714D01*
X113175119Y-20819333D01*
X113127500Y-20914571D01*
X113127500Y-21438380D01*
X112508452Y-21438380D02*
X112603690Y-21390761D01*
X112651309Y-21343142D01*
X112698928Y-21247904D01*
X112698928Y-20962190D01*
X112651309Y-20866952D01*
X112603690Y-20819333D01*
X112508452Y-20771714D01*
X112365595Y-20771714D01*
X112270357Y-20819333D01*
X112222738Y-20866952D01*
X112175119Y-20962190D01*
X112175119Y-21247904D01*
X112222738Y-21343142D01*
X112270357Y-21390761D01*
X112365595Y-21438380D01*
X112508452Y-21438380D01*
X111841785Y-20771714D02*
X111651309Y-21438380D01*
X111460833Y-20962190D01*
X111270357Y-21438380D01*
X111079880Y-20771714D01*
X110032261Y-20771714D02*
X109841785Y-21438380D01*
X109651309Y-20962190D01*
X109460833Y-21438380D01*
X109270357Y-20771714D01*
X108889404Y-21438380D02*
X108889404Y-20438380D01*
X108460833Y-21438380D02*
X108460833Y-20914571D01*
X108508452Y-20819333D01*
X108603690Y-20771714D01*
X108746547Y-20771714D01*
X108841785Y-20819333D01*
X108889404Y-20866952D01*
X107556071Y-21438380D02*
X107556071Y-20914571D01*
X107603690Y-20819333D01*
X107698928Y-20771714D01*
X107889404Y-20771714D01*
X107984642Y-20819333D01*
X107556071Y-21390761D02*
X107651309Y-21438380D01*
X107889404Y-21438380D01*
X107984642Y-21390761D01*
X108032261Y-21295523D01*
X108032261Y-21200285D01*
X107984642Y-21105047D01*
X107889404Y-21057428D01*
X107651309Y-21057428D01*
X107556071Y-21009809D01*
X107222738Y-20771714D02*
X106841785Y-20771714D01*
X107079880Y-20438380D02*
X107079880Y-21295523D01*
X107032261Y-21390761D01*
X106937023Y-21438380D01*
X106841785Y-21438380D01*
X105841785Y-20771714D02*
X105603690Y-21438380D01*
X105365595Y-20771714D02*
X105603690Y-21438380D01*
X105698928Y-21676476D01*
X105746547Y-21724095D01*
X105841785Y-21771714D01*
X104841785Y-21438380D02*
X104937023Y-21390761D01*
X104984642Y-21343142D01*
X105032261Y-21247904D01*
X105032261Y-20962190D01*
X104984642Y-20866952D01*
X104937023Y-20819333D01*
X104841785Y-20771714D01*
X104698928Y-20771714D01*
X104603690Y-20819333D01*
X104556071Y-20866952D01*
X104508452Y-20962190D01*
X104508452Y-21247904D01*
X104556071Y-21343142D01*
X104603690Y-21390761D01*
X104698928Y-21438380D01*
X104841785Y-21438380D01*
X103651309Y-20771714D02*
X103651309Y-21438380D01*
X104079880Y-20771714D02*
X104079880Y-21295523D01*
X104032261Y-21390761D01*
X103937023Y-21438380D01*
X103794166Y-21438380D01*
X103698928Y-21390761D01*
X103651309Y-21343142D01*
X103127500Y-20438380D02*
X103222738Y-20628857D01*
X102698928Y-21438380D02*
X102698928Y-20771714D01*
X102698928Y-20962190D02*
X102651309Y-20866952D01*
X102603690Y-20819333D01*
X102508452Y-20771714D01*
X102413214Y-20771714D01*
X101698928Y-21390761D02*
X101794166Y-21438380D01*
X101984642Y-21438380D01*
X102079880Y-21390761D01*
X102127500Y-21295523D01*
X102127500Y-20914571D01*
X102079880Y-20819333D01*
X101984642Y-20771714D01*
X101794166Y-20771714D01*
X101698928Y-20819333D01*
X101651309Y-20914571D01*
X101651309Y-21009809D01*
X102127500Y-21105047D01*
X100032261Y-21438380D02*
X100032261Y-20438380D01*
X100032261Y-21390761D02*
X100127500Y-21438380D01*
X100317976Y-21438380D01*
X100413214Y-21390761D01*
X100460833Y-21343142D01*
X100508452Y-21247904D01*
X100508452Y-20962190D01*
X100460833Y-20866952D01*
X100413214Y-20819333D01*
X100317976Y-20771714D01*
X100127500Y-20771714D01*
X100032261Y-20819333D01*
X99413214Y-21438380D02*
X99508452Y-21390761D01*
X99556071Y-21343142D01*
X99603690Y-21247904D01*
X99603690Y-20962190D01*
X99556071Y-20866952D01*
X99508452Y-20819333D01*
X99413214Y-20771714D01*
X99270357Y-20771714D01*
X99175119Y-20819333D01*
X99127500Y-20866952D01*
X99079880Y-20962190D01*
X99079880Y-21247904D01*
X99127500Y-21343142D01*
X99175119Y-21390761D01*
X99270357Y-21438380D01*
X99413214Y-21438380D01*
X98651309Y-21438380D02*
X98651309Y-20771714D01*
X98651309Y-20438380D02*
X98698928Y-20486000D01*
X98651309Y-20533619D01*
X98603690Y-20486000D01*
X98651309Y-20438380D01*
X98651309Y-20533619D01*
X98175119Y-20771714D02*
X98175119Y-21438380D01*
X98175119Y-20866952D02*
X98127500Y-20819333D01*
X98032261Y-20771714D01*
X97889404Y-20771714D01*
X97794166Y-20819333D01*
X97746547Y-20914571D01*
X97746547Y-21438380D01*
X96841785Y-20771714D02*
X96841785Y-21581238D01*
X96889404Y-21676476D01*
X96937023Y-21724095D01*
X97032261Y-21771714D01*
X97175119Y-21771714D01*
X97270357Y-21724095D01*
X96841785Y-21390761D02*
X96937023Y-21438380D01*
X97127500Y-21438380D01*
X97222738Y-21390761D01*
X97270357Y-21343142D01*
X97317976Y-21247904D01*
X97317976Y-20962190D01*
X97270357Y-20866952D01*
X97222738Y-20819333D01*
X97127500Y-20771714D01*
X96937023Y-20771714D01*
X96841785Y-20819333D01*
X96460833Y-21819333D02*
X96413214Y-21771714D01*
X96317976Y-21628857D01*
X96270357Y-21533619D01*
X96222738Y-21390761D01*
X96175119Y-21152666D01*
X96175119Y-20962190D01*
X96222738Y-20724095D01*
X96270357Y-20581238D01*
X96317976Y-20486000D01*
X96413214Y-20343142D01*
X96460833Y-20295523D01*
X123406619Y-33769476D02*
X124406619Y-33769476D01*
X124454238Y-32817095D02*
X123168523Y-33502809D01*
X124406619Y-32398047D02*
X124406619Y-32245666D01*
X124359000Y-32169476D01*
X124263761Y-32093285D01*
X124073285Y-32055190D01*
X123739952Y-32055190D01*
X123549476Y-32093285D01*
X123454238Y-32169476D01*
X123406619Y-32245666D01*
X123406619Y-32398047D01*
X123454238Y-32474238D01*
X123549476Y-32550428D01*
X123739952Y-32588523D01*
X124073285Y-32588523D01*
X124263761Y-32550428D01*
X124359000Y-32474238D01*
X124406619Y-32398047D01*
X120612619Y-33312333D02*
X121088809Y-33578999D01*
X120612619Y-33769476D02*
X121612619Y-33769476D01*
X121612619Y-33464714D01*
X121565000Y-33388523D01*
X121517380Y-33350428D01*
X121422142Y-33312333D01*
X121279285Y-33312333D01*
X121184047Y-33350428D01*
X121136428Y-33388523D01*
X121088809Y-33464714D01*
X121088809Y-33769476D01*
X120660238Y-33007571D02*
X120612619Y-32893285D01*
X120612619Y-32702809D01*
X120660238Y-32626618D01*
X120707857Y-32588523D01*
X120803095Y-32550428D01*
X120898333Y-32550428D01*
X120993571Y-32588523D01*
X121041190Y-32626618D01*
X121088809Y-32702809D01*
X121136428Y-32855190D01*
X121184047Y-32931380D01*
X121231666Y-32969476D01*
X121326904Y-33007571D01*
X121422142Y-33007571D01*
X121517380Y-32969476D01*
X121565000Y-32931380D01*
X121612619Y-32855190D01*
X121612619Y-32664714D01*
X121565000Y-32550428D01*
X121612619Y-32321857D02*
X121612619Y-31864714D01*
X120612619Y-32093285D02*
X121612619Y-32093285D01*
X113802238Y-40697285D02*
X113754619Y-40583000D01*
X113754619Y-40392523D01*
X113802238Y-40316333D01*
X113849857Y-40278238D01*
X113945095Y-40240142D01*
X114040333Y-40240142D01*
X114135571Y-40278238D01*
X114183190Y-40316333D01*
X114230809Y-40392523D01*
X114278428Y-40544904D01*
X114326047Y-40621095D01*
X114373666Y-40659190D01*
X114468904Y-40697285D01*
X114564142Y-40697285D01*
X114659380Y-40659190D01*
X114707000Y-40621095D01*
X114754619Y-40544904D01*
X114754619Y-40354428D01*
X114707000Y-40240142D01*
X114278428Y-39897285D02*
X114278428Y-39630619D01*
X113754619Y-39516333D02*
X113754619Y-39897285D01*
X114754619Y-39897285D01*
X114754619Y-39516333D01*
X113754619Y-38792523D02*
X113754619Y-39173476D01*
X114754619Y-39173476D01*
X109563619Y-33769476D02*
X110563619Y-33769476D01*
X110563619Y-33579000D01*
X110516000Y-33464714D01*
X110420761Y-33388523D01*
X110325523Y-33350428D01*
X110135047Y-33312333D01*
X109992190Y-33312333D01*
X109801714Y-33350428D01*
X109706476Y-33388523D01*
X109611238Y-33464714D01*
X109563619Y-33579000D01*
X109563619Y-33769476D01*
X110563619Y-32817095D02*
X110563619Y-32740904D01*
X110516000Y-32664714D01*
X110468380Y-32626619D01*
X110373142Y-32588523D01*
X110182666Y-32550428D01*
X109944571Y-32550428D01*
X109754095Y-32588523D01*
X109658857Y-32626619D01*
X109611238Y-32664714D01*
X109563619Y-32740904D01*
X109563619Y-32817095D01*
X109611238Y-32893285D01*
X109658857Y-32931380D01*
X109754095Y-32969476D01*
X109944571Y-33007571D01*
X110182666Y-33007571D01*
X110373142Y-32969476D01*
X110468380Y-32931380D01*
X110516000Y-32893285D01*
X110563619Y-32817095D01*
X101181619Y-33769476D02*
X102181619Y-33769476D01*
X102181619Y-33579000D01*
X102134000Y-33464714D01*
X102038761Y-33388523D01*
X101943523Y-33350428D01*
X101753047Y-33312333D01*
X101610190Y-33312333D01*
X101419714Y-33350428D01*
X101324476Y-33388523D01*
X101229238Y-33464714D01*
X101181619Y-33579000D01*
X101181619Y-33769476D01*
X102181619Y-32588523D02*
X102181619Y-32969476D01*
X101705428Y-33007571D01*
X101753047Y-32969476D01*
X101800666Y-32893285D01*
X101800666Y-32702809D01*
X101753047Y-32626619D01*
X101705428Y-32588523D01*
X101610190Y-32550428D01*
X101372095Y-32550428D01*
X101276857Y-32588523D01*
X101229238Y-32626619D01*
X101181619Y-32702809D01*
X101181619Y-32893285D01*
X101229238Y-32969476D01*
X101276857Y-33007571D01*
X115611928Y-33502809D02*
X115564309Y-33388523D01*
X115516690Y-33350428D01*
X115421452Y-33312333D01*
X115278595Y-33312333D01*
X115183357Y-33350428D01*
X115135738Y-33388523D01*
X115088119Y-33464714D01*
X115088119Y-33769476D01*
X116088119Y-33769476D01*
X116088119Y-33502809D01*
X116040500Y-33426619D01*
X115992880Y-33388523D01*
X115897642Y-33350428D01*
X115802404Y-33350428D01*
X115707166Y-33388523D01*
X115659547Y-33426619D01*
X115611928Y-33502809D01*
X115611928Y-33769476D01*
X115135738Y-33007571D02*
X115088119Y-32893285D01*
X115088119Y-32702809D01*
X115135738Y-32626619D01*
X115183357Y-32588523D01*
X115278595Y-32550428D01*
X115373833Y-32550428D01*
X115469071Y-32588523D01*
X115516690Y-32626619D01*
X115564309Y-32702809D01*
X115611928Y-32855190D01*
X115659547Y-32931381D01*
X115707166Y-32969476D01*
X115802404Y-33007571D01*
X115897642Y-33007571D01*
X115992880Y-32969476D01*
X116040500Y-32931381D01*
X116088119Y-32855190D01*
X116088119Y-32664714D01*
X116040500Y-32550428D01*
X115564309Y-32055190D02*
X115088119Y-32055190D01*
X116088119Y-32321857D02*
X115564309Y-32055190D01*
X116088119Y-31788523D01*
X98387619Y-33769476D02*
X99387619Y-33769476D01*
X99387619Y-33579000D01*
X99340000Y-33464714D01*
X99244761Y-33388523D01*
X99149523Y-33350428D01*
X98959047Y-33312333D01*
X98816190Y-33312333D01*
X98625714Y-33350428D01*
X98530476Y-33388523D01*
X98435238Y-33464714D01*
X98387619Y-33579000D01*
X98387619Y-33769476D01*
X99387619Y-32626619D02*
X99387619Y-32779000D01*
X99340000Y-32855190D01*
X99292380Y-32893285D01*
X99149523Y-32969476D01*
X98959047Y-33007571D01*
X98578095Y-33007571D01*
X98482857Y-32969476D01*
X98435238Y-32931380D01*
X98387619Y-32855190D01*
X98387619Y-32702809D01*
X98435238Y-32626619D01*
X98482857Y-32588523D01*
X98578095Y-32550428D01*
X98816190Y-32550428D01*
X98911428Y-32588523D01*
X98959047Y-32626619D01*
X99006666Y-32702809D01*
X99006666Y-32855190D01*
X98959047Y-32931380D01*
X98911428Y-32969476D01*
X98816190Y-33007571D01*
X108103119Y-40087762D02*
X109103119Y-40087762D01*
X109103119Y-39897286D01*
X109055500Y-39783000D01*
X108960261Y-39706809D01*
X108865023Y-39668714D01*
X108674547Y-39630619D01*
X108531690Y-39630619D01*
X108341214Y-39668714D01*
X108245976Y-39706809D01*
X108150738Y-39783000D01*
X108103119Y-39897286D01*
X108103119Y-40087762D01*
X108103119Y-38868714D02*
X108103119Y-39325857D01*
X108103119Y-39097286D02*
X109103119Y-39097286D01*
X108960261Y-39173476D01*
X108865023Y-39249666D01*
X108817404Y-39325857D01*
X102451619Y-40087762D02*
X103451619Y-40087762D01*
X103451619Y-39897286D01*
X103404000Y-39783000D01*
X103308761Y-39706809D01*
X103213523Y-39668714D01*
X103023047Y-39630619D01*
X102880190Y-39630619D01*
X102689714Y-39668714D01*
X102594476Y-39706809D01*
X102499238Y-39783000D01*
X102451619Y-39897286D01*
X102451619Y-40087762D01*
X103118285Y-38944905D02*
X102451619Y-38944905D01*
X103499238Y-39135381D02*
X102784952Y-39325857D01*
X102784952Y-38830619D01*
X105372619Y-40087762D02*
X106372619Y-40087762D01*
X106372619Y-39897286D01*
X106325000Y-39783000D01*
X106229761Y-39706809D01*
X106134523Y-39668714D01*
X105944047Y-39630619D01*
X105801190Y-39630619D01*
X105610714Y-39668714D01*
X105515476Y-39706809D01*
X105420238Y-39783000D01*
X105372619Y-39897286D01*
X105372619Y-40087762D01*
X106277380Y-39325857D02*
X106325000Y-39287762D01*
X106372619Y-39211571D01*
X106372619Y-39021095D01*
X106325000Y-38944905D01*
X106277380Y-38906809D01*
X106182142Y-38868714D01*
X106086904Y-38868714D01*
X105944047Y-38906809D01*
X105372619Y-39363952D01*
X105372619Y-38868714D01*
X126200619Y-33769477D02*
X127200619Y-33769477D01*
X126486333Y-33502810D01*
X127200619Y-33236143D01*
X126200619Y-33236143D01*
X126248238Y-32893286D02*
X126200619Y-32779000D01*
X126200619Y-32588524D01*
X126248238Y-32512334D01*
X126295857Y-32474238D01*
X126391095Y-32436143D01*
X126486333Y-32436143D01*
X126581571Y-32474238D01*
X126629190Y-32512334D01*
X126676809Y-32588524D01*
X126724428Y-32740905D01*
X126772047Y-32817096D01*
X126819666Y-32855191D01*
X126914904Y-32893286D01*
X127010142Y-32893286D01*
X127105380Y-32855191D01*
X127153000Y-32817096D01*
X127200619Y-32740905D01*
X127200619Y-32550429D01*
X127153000Y-32436143D01*
X127153000Y-31674238D02*
X127200619Y-31750429D01*
X127200619Y-31864715D01*
X127153000Y-31979000D01*
X127057761Y-32055191D01*
X126962523Y-32093286D01*
X126772047Y-32131381D01*
X126629190Y-32131381D01*
X126438714Y-32093286D01*
X126343476Y-32055191D01*
X126248238Y-31979000D01*
X126200619Y-31864715D01*
X126200619Y-31788524D01*
X126248238Y-31674238D01*
X126295857Y-31636143D01*
X126629190Y-31636143D01*
X126629190Y-31788524D01*
X97927119Y-41763953D02*
X97927119Y-41306810D01*
X96927119Y-41535381D02*
X97927119Y-41535381D01*
X96927119Y-41040143D02*
X97927119Y-41040143D01*
X97927119Y-40735381D01*
X97879500Y-40659191D01*
X97831880Y-40621096D01*
X97736642Y-40583000D01*
X97593785Y-40583000D01*
X97498547Y-40621096D01*
X97450928Y-40659191D01*
X97403309Y-40735381D01*
X97403309Y-41040143D01*
X97927119Y-40316334D02*
X96927119Y-40125858D01*
X97641404Y-39973477D01*
X96927119Y-39821096D01*
X97927119Y-39630619D01*
X96927119Y-38868715D02*
X97403309Y-39135381D01*
X96927119Y-39325858D02*
X97927119Y-39325858D01*
X97927119Y-39021096D01*
X97879500Y-38944905D01*
X97831880Y-38906810D01*
X97736642Y-38868715D01*
X97593785Y-38868715D01*
X97498547Y-38906810D01*
X97450928Y-38944905D01*
X97403309Y-39021096D01*
X97403309Y-39325858D01*
X103975619Y-33769476D02*
X104975619Y-33769476D01*
X104975619Y-33579000D01*
X104928000Y-33464714D01*
X104832761Y-33388523D01*
X104737523Y-33350428D01*
X104547047Y-33312333D01*
X104404190Y-33312333D01*
X104213714Y-33350428D01*
X104118476Y-33388523D01*
X104023238Y-33464714D01*
X103975619Y-33579000D01*
X103975619Y-33769476D01*
X104975619Y-33045666D02*
X104975619Y-32550428D01*
X104594666Y-32817095D01*
X104594666Y-32702809D01*
X104547047Y-32626619D01*
X104499428Y-32588523D01*
X104404190Y-32550428D01*
X104166095Y-32550428D01*
X104070857Y-32588523D01*
X104023238Y-32626619D01*
X103975619Y-32702809D01*
X103975619Y-32931380D01*
X104023238Y-33007571D01*
X104070857Y-33045666D01*
X124771857Y-40506809D02*
X124724238Y-40544904D01*
X124676619Y-40659190D01*
X124676619Y-40735381D01*
X124724238Y-40849666D01*
X124819476Y-40925857D01*
X124914714Y-40963952D01*
X125105190Y-41002047D01*
X125248047Y-41002047D01*
X125438523Y-40963952D01*
X125533761Y-40925857D01*
X125629000Y-40849666D01*
X125676619Y-40735381D01*
X125676619Y-40659190D01*
X125629000Y-40544904D01*
X125581380Y-40506809D01*
X125724238Y-39592523D02*
X124438523Y-40278238D01*
X124676619Y-39325857D02*
X125676619Y-39325857D01*
X125676619Y-39135381D01*
X125629000Y-39021095D01*
X125533761Y-38944904D01*
X125438523Y-38906809D01*
X125248047Y-38868714D01*
X125105190Y-38868714D01*
X124914714Y-38906809D01*
X124819476Y-38944904D01*
X124724238Y-39021095D01*
X124676619Y-39135381D01*
X124676619Y-39325857D01*
X118231333Y-33807572D02*
X118231333Y-33426619D01*
X117945619Y-33883762D02*
X118945619Y-33617096D01*
X117945619Y-33350429D01*
X118040857Y-32626619D02*
X117993238Y-32664715D01*
X117945619Y-32779000D01*
X117945619Y-32855191D01*
X117993238Y-32969476D01*
X118088476Y-33045667D01*
X118183714Y-33083762D01*
X118374190Y-33121857D01*
X118517047Y-33121857D01*
X118707523Y-33083762D01*
X118802761Y-33045667D01*
X118898000Y-32969476D01*
X118945619Y-32855191D01*
X118945619Y-32779000D01*
X118898000Y-32664715D01*
X118850380Y-32626619D01*
X117945619Y-32283762D02*
X118945619Y-32283762D01*
X117945619Y-31826619D02*
X118517047Y-32169476D01*
X118945619Y-31826619D02*
X118374190Y-32283762D01*
X119437833Y-40697285D02*
X119437833Y-40316333D01*
X119152119Y-40773476D02*
X120152119Y-40506809D01*
X119152119Y-40240142D01*
X120152119Y-40087761D02*
X120152119Y-39630619D01*
X119152119Y-39859190D02*
X120152119Y-39859190D01*
X119152119Y-39363952D02*
X120152119Y-39363952D01*
X119152119Y-38906809D01*
X120152119Y-38906809D01*
X110770119Y-40125857D02*
X111770119Y-40125857D01*
X111770119Y-39935381D01*
X111722500Y-39821095D01*
X111627261Y-39744905D01*
X111532023Y-39706810D01*
X111341547Y-39668714D01*
X111198690Y-39668714D01*
X111008214Y-39706810D01*
X110912976Y-39744905D01*
X110817738Y-39821095D01*
X110770119Y-39935381D01*
X110770119Y-40125857D01*
X110770119Y-39325857D02*
X111770119Y-39325857D01*
X111770119Y-39021095D01*
X111722500Y-38944905D01*
X111674880Y-38906810D01*
X111579642Y-38868714D01*
X111436785Y-38868714D01*
X111341547Y-38906810D01*
X111293928Y-38944905D01*
X111246309Y-39021095D01*
X111246309Y-39325857D01*
X95657119Y-33769476D02*
X96657119Y-33769476D01*
X96657119Y-33579000D01*
X96609500Y-33464714D01*
X96514261Y-33388523D01*
X96419023Y-33350428D01*
X96228547Y-33312333D01*
X96085690Y-33312333D01*
X95895214Y-33350428D01*
X95799976Y-33388523D01*
X95704738Y-33464714D01*
X95657119Y-33579000D01*
X95657119Y-33769476D01*
X96657119Y-33045666D02*
X96657119Y-32512333D01*
X95657119Y-32855190D01*
X128994619Y-33312333D02*
X129470809Y-33579000D01*
X128994619Y-33769476D02*
X129994619Y-33769476D01*
X129994619Y-33464714D01*
X129947000Y-33388523D01*
X129899380Y-33350428D01*
X129804142Y-33312333D01*
X129661285Y-33312333D01*
X129566047Y-33350428D01*
X129518428Y-33388523D01*
X129470809Y-33464714D01*
X129470809Y-33769476D01*
X129518428Y-32969476D02*
X129518428Y-32702809D01*
X128994619Y-32588523D02*
X128994619Y-32969476D01*
X129994619Y-32969476D01*
X129994619Y-32588523D01*
X128899380Y-31712333D02*
X128947000Y-31788523D01*
X129042238Y-31864714D01*
X129185095Y-31979000D01*
X129232714Y-32055190D01*
X129232714Y-32131380D01*
X128994619Y-32093285D02*
X129042238Y-32169476D01*
X129137476Y-32245666D01*
X129327952Y-32283761D01*
X129661285Y-32283761D01*
X129851761Y-32245666D01*
X129947000Y-32169476D01*
X129994619Y-32093285D01*
X129994619Y-31940904D01*
X129947000Y-31864714D01*
X129851761Y-31788523D01*
X129661285Y-31750428D01*
X129327952Y-31750428D01*
X129137476Y-31788523D01*
X129042238Y-31864714D01*
X128994619Y-31940904D01*
X128994619Y-32093285D01*
X142647119Y-26022476D02*
X143647119Y-26022476D01*
X143694738Y-25070095D02*
X142409023Y-25755809D01*
X143647119Y-24651047D02*
X143647119Y-24498666D01*
X143599500Y-24422476D01*
X143504261Y-24346285D01*
X143313785Y-24308190D01*
X142980452Y-24308190D01*
X142789976Y-24346285D01*
X142694738Y-24422476D01*
X142647119Y-24498666D01*
X142647119Y-24651047D01*
X142694738Y-24727238D01*
X142789976Y-24803428D01*
X142980452Y-24841523D01*
X143313785Y-24841523D01*
X143504261Y-24803428D01*
X143599500Y-24727238D01*
X143647119Y-24651047D01*
X140152471Y-25565333D02*
X140628661Y-25832000D01*
X140152471Y-26022476D02*
X141152471Y-26022476D01*
X141152471Y-25717714D01*
X141104852Y-25641523D01*
X141057232Y-25603428D01*
X140961994Y-25565333D01*
X140819137Y-25565333D01*
X140723899Y-25603428D01*
X140676280Y-25641523D01*
X140628661Y-25717714D01*
X140628661Y-26022476D01*
X140676280Y-25222476D02*
X140676280Y-24955809D01*
X140152471Y-24841523D02*
X140152471Y-25222476D01*
X141152471Y-25222476D01*
X141152471Y-24841523D01*
X140057232Y-23965333D02*
X140104852Y-24041523D01*
X140200090Y-24117714D01*
X140342947Y-24232000D01*
X140390566Y-24308190D01*
X140390566Y-24384380D01*
X140152471Y-24346285D02*
X140200090Y-24422476D01*
X140295328Y-24498666D01*
X140485804Y-24536761D01*
X140819137Y-24536761D01*
X141009613Y-24498666D01*
X141104852Y-24422476D01*
X141152471Y-24346285D01*
X141152471Y-24193904D01*
X141104852Y-24117714D01*
X141009613Y-24041523D01*
X140819137Y-24003428D01*
X140485804Y-24003428D01*
X140295328Y-24041523D01*
X140200090Y-24117714D01*
X140152471Y-24193904D01*
X140152471Y-24346285D01*
X137753067Y-25565333D02*
X137705448Y-25603428D01*
X137657829Y-25717714D01*
X137657829Y-25793905D01*
X137705448Y-25908190D01*
X137800686Y-25984381D01*
X137895924Y-26022476D01*
X138086400Y-26060571D01*
X138229257Y-26060571D01*
X138419733Y-26022476D01*
X138514971Y-25984381D01*
X138610210Y-25908190D01*
X138657829Y-25793905D01*
X138657829Y-25717714D01*
X138610210Y-25603428D01*
X138562590Y-25565333D01*
X138705448Y-24651047D02*
X137419733Y-25336762D01*
X137657829Y-24384381D02*
X138657829Y-24384381D01*
X138657829Y-24193905D01*
X138610210Y-24079619D01*
X138514971Y-24003428D01*
X138419733Y-23965333D01*
X138229257Y-23927238D01*
X138086400Y-23927238D01*
X137895924Y-23965333D01*
X137800686Y-24003428D01*
X137705448Y-24079619D01*
X137657829Y-24193905D01*
X137657829Y-24384381D01*
X135210806Y-26060571D02*
X135163187Y-25946286D01*
X135163187Y-25755809D01*
X135210806Y-25679619D01*
X135258425Y-25641524D01*
X135353663Y-25603428D01*
X135448901Y-25603428D01*
X135544139Y-25641524D01*
X135591758Y-25679619D01*
X135639377Y-25755809D01*
X135686996Y-25908190D01*
X135734615Y-25984381D01*
X135782234Y-26022476D01*
X135877472Y-26060571D01*
X135972710Y-26060571D01*
X136067948Y-26022476D01*
X136115568Y-25984381D01*
X136163187Y-25908190D01*
X136163187Y-25717714D01*
X136115568Y-25603428D01*
X135686996Y-25260571D02*
X135686996Y-24993905D01*
X135163187Y-24879619D02*
X135163187Y-25260571D01*
X136163187Y-25260571D01*
X136163187Y-24879619D01*
X135163187Y-24155809D02*
X135163187Y-24536762D01*
X136163187Y-24536762D01*
X132668545Y-26022477D02*
X133668545Y-26022477D01*
X132954259Y-25755810D01*
X133668545Y-25489143D01*
X132668545Y-25489143D01*
X132716164Y-25146286D02*
X132668545Y-25032000D01*
X132668545Y-24841524D01*
X132716164Y-24765334D01*
X132763783Y-24727238D01*
X132859021Y-24689143D01*
X132954259Y-24689143D01*
X133049497Y-24727238D01*
X133097116Y-24765334D01*
X133144735Y-24841524D01*
X133192354Y-24993905D01*
X133239973Y-25070096D01*
X133287592Y-25108191D01*
X133382830Y-25146286D01*
X133478068Y-25146286D01*
X133573306Y-25108191D01*
X133620926Y-25070096D01*
X133668545Y-24993905D01*
X133668545Y-24803429D01*
X133620926Y-24689143D01*
X133620926Y-23927238D02*
X133668545Y-24003429D01*
X133668545Y-24117715D01*
X133620926Y-24232000D01*
X133525687Y-24308191D01*
X133430449Y-24346286D01*
X133239973Y-24384381D01*
X133097116Y-24384381D01*
X132906640Y-24346286D01*
X132811402Y-24308191D01*
X132716164Y-24232000D01*
X132668545Y-24117715D01*
X132668545Y-24041524D01*
X132716164Y-23927238D01*
X132763783Y-23889143D01*
X133097116Y-23889143D01*
X133097116Y-24041524D01*
X130173903Y-25565333D02*
X130650093Y-25831999D01*
X130173903Y-26022476D02*
X131173903Y-26022476D01*
X131173903Y-25717714D01*
X131126284Y-25641523D01*
X131078664Y-25603428D01*
X130983426Y-25565333D01*
X130840569Y-25565333D01*
X130745331Y-25603428D01*
X130697712Y-25641523D01*
X130650093Y-25717714D01*
X130650093Y-26022476D01*
X130221522Y-25260571D02*
X130173903Y-25146285D01*
X130173903Y-24955809D01*
X130221522Y-24879618D01*
X130269141Y-24841523D01*
X130364379Y-24803428D01*
X130459617Y-24803428D01*
X130554855Y-24841523D01*
X130602474Y-24879618D01*
X130650093Y-24955809D01*
X130697712Y-25108190D01*
X130745331Y-25184380D01*
X130792950Y-25222476D01*
X130888188Y-25260571D01*
X130983426Y-25260571D01*
X131078664Y-25222476D01*
X131126284Y-25184380D01*
X131173903Y-25108190D01*
X131173903Y-24917714D01*
X131126284Y-24803428D01*
X131173903Y-24574857D02*
X131173903Y-24117714D01*
X130173903Y-24346285D02*
X131173903Y-24346285D01*
X127964975Y-26060572D02*
X127964975Y-25679619D01*
X127679261Y-26136762D02*
X128679261Y-25870096D01*
X127679261Y-25603429D01*
X127774499Y-24879619D02*
X127726880Y-24917715D01*
X127679261Y-25032000D01*
X127679261Y-25108191D01*
X127726880Y-25222476D01*
X127822118Y-25298667D01*
X127917356Y-25336762D01*
X128107832Y-25374857D01*
X128250689Y-25374857D01*
X128441165Y-25336762D01*
X128536403Y-25298667D01*
X128631642Y-25222476D01*
X128679261Y-25108191D01*
X128679261Y-25032000D01*
X128631642Y-24917715D01*
X128584022Y-24879619D01*
X127679261Y-24536762D02*
X128679261Y-24536762D01*
X127679261Y-24079619D02*
X128250689Y-24422476D01*
X128679261Y-24079619D02*
X128107832Y-24536762D01*
X125708428Y-25755809D02*
X125660809Y-25641523D01*
X125613190Y-25603428D01*
X125517952Y-25565333D01*
X125375095Y-25565333D01*
X125279857Y-25603428D01*
X125232238Y-25641523D01*
X125184619Y-25717714D01*
X125184619Y-26022476D01*
X126184619Y-26022476D01*
X126184619Y-25755809D01*
X126137000Y-25679619D01*
X126089380Y-25641523D01*
X125994142Y-25603428D01*
X125898904Y-25603428D01*
X125803666Y-25641523D01*
X125756047Y-25679619D01*
X125708428Y-25755809D01*
X125708428Y-26022476D01*
X125232238Y-25260571D02*
X125184619Y-25146285D01*
X125184619Y-24955809D01*
X125232238Y-24879619D01*
X125279857Y-24841523D01*
X125375095Y-24803428D01*
X125470333Y-24803428D01*
X125565571Y-24841523D01*
X125613190Y-24879619D01*
X125660809Y-24955809D01*
X125708428Y-25108190D01*
X125756047Y-25184381D01*
X125803666Y-25222476D01*
X125898904Y-25260571D01*
X125994142Y-25260571D01*
X126089380Y-25222476D01*
X126137000Y-25184381D01*
X126184619Y-25108190D01*
X126184619Y-24917714D01*
X126137000Y-24803428D01*
X125660809Y-24308190D02*
X125184619Y-24308190D01*
X126184619Y-24574857D02*
X125660809Y-24308190D01*
X126184619Y-24041523D01*
X120390333Y-26060571D02*
X120390333Y-25679619D01*
X120104619Y-26136762D02*
X121104619Y-25870095D01*
X120104619Y-25603428D01*
X121104619Y-25451047D02*
X121104619Y-24993905D01*
X120104619Y-25222476D02*
X121104619Y-25222476D01*
X120104619Y-24727238D02*
X121104619Y-24727238D01*
X120104619Y-24270095D01*
X121104619Y-24270095D01*
X113294119Y-26136762D02*
X113294119Y-25679619D01*
X112294119Y-25908190D02*
X113294119Y-25908190D01*
X112294119Y-25412952D02*
X113294119Y-25412952D01*
X113294119Y-25108190D01*
X113246500Y-25032000D01*
X113198880Y-24993905D01*
X113103642Y-24955809D01*
X112960785Y-24955809D01*
X112865547Y-24993905D01*
X112817928Y-25032000D01*
X112770309Y-25108190D01*
X112770309Y-25412952D01*
X113294119Y-24689143D02*
X112294119Y-24498667D01*
X113008404Y-24346286D01*
X112294119Y-24193905D01*
X113294119Y-24003428D01*
X112294119Y-23241524D02*
X112770309Y-23508190D01*
X112294119Y-23698667D02*
X113294119Y-23698667D01*
X113294119Y-23393905D01*
X113246500Y-23317714D01*
X113198880Y-23279619D01*
X113103642Y-23241524D01*
X112960785Y-23241524D01*
X112865547Y-23279619D01*
X112817928Y-23317714D01*
X112770309Y-23393905D01*
X112770309Y-23698667D01*
X102070619Y-26041523D02*
X103070619Y-26041523D01*
X103070619Y-25851047D01*
X103023000Y-25736761D01*
X102927761Y-25660571D01*
X102832523Y-25622476D01*
X102642047Y-25584380D01*
X102499190Y-25584380D01*
X102308714Y-25622476D01*
X102213476Y-25660571D01*
X102118238Y-25736761D01*
X102070619Y-25851047D01*
X102070619Y-26041523D01*
X102070619Y-25241523D02*
X103070619Y-25241523D01*
X103070619Y-24936761D01*
X103023000Y-24860571D01*
X102975380Y-24822476D01*
X102880142Y-24784380D01*
X102737285Y-24784380D01*
X102642047Y-24822476D01*
X102594428Y-24860571D01*
X102546809Y-24936761D01*
X102546809Y-25241523D01*
X99538553Y-26022476D02*
X100538553Y-26022476D01*
X100538553Y-25832000D01*
X100490934Y-25717714D01*
X100395695Y-25641523D01*
X100300457Y-25603428D01*
X100109981Y-25565333D01*
X99967124Y-25565333D01*
X99776648Y-25603428D01*
X99681410Y-25641523D01*
X99586172Y-25717714D01*
X99538553Y-25832000D01*
X99538553Y-26022476D01*
X100538553Y-25298666D02*
X100538553Y-24765333D01*
X99538553Y-25108190D01*
X97006491Y-26022476D02*
X98006491Y-26022476D01*
X98006491Y-25832000D01*
X97958872Y-25717714D01*
X97863633Y-25641523D01*
X97768395Y-25603428D01*
X97577919Y-25565333D01*
X97435062Y-25565333D01*
X97244586Y-25603428D01*
X97149348Y-25641523D01*
X97054110Y-25717714D01*
X97006491Y-25832000D01*
X97006491Y-26022476D01*
X98006491Y-24879619D02*
X98006491Y-25032000D01*
X97958872Y-25108190D01*
X97911252Y-25146285D01*
X97768395Y-25222476D01*
X97577919Y-25260571D01*
X97196967Y-25260571D01*
X97101729Y-25222476D01*
X97054110Y-25184380D01*
X97006491Y-25108190D01*
X97006491Y-24955809D01*
X97054110Y-24879619D01*
X97101729Y-24841523D01*
X97196967Y-24803428D01*
X97435062Y-24803428D01*
X97530300Y-24841523D01*
X97577919Y-24879619D01*
X97625538Y-24955809D01*
X97625538Y-25108190D01*
X97577919Y-25184380D01*
X97530300Y-25222476D01*
X97435062Y-25260571D01*
X94474429Y-26022476D02*
X95474429Y-26022476D01*
X95474429Y-25832000D01*
X95426810Y-25717714D01*
X95331571Y-25641523D01*
X95236333Y-25603428D01*
X95045857Y-25565333D01*
X94903000Y-25565333D01*
X94712524Y-25603428D01*
X94617286Y-25641523D01*
X94522048Y-25717714D01*
X94474429Y-25832000D01*
X94474429Y-26022476D01*
X95474429Y-24841523D02*
X95474429Y-25222476D01*
X94998238Y-25260571D01*
X95045857Y-25222476D01*
X95093476Y-25146285D01*
X95093476Y-24955809D01*
X95045857Y-24879619D01*
X94998238Y-24841523D01*
X94903000Y-24803428D01*
X94664905Y-24803428D01*
X94569667Y-24841523D01*
X94522048Y-24879619D01*
X94474429Y-24955809D01*
X94474429Y-25146285D01*
X94522048Y-25222476D01*
X94569667Y-25260571D01*
X91942367Y-26022476D02*
X92942367Y-26022476D01*
X92942367Y-25832000D01*
X92894748Y-25717714D01*
X92799509Y-25641523D01*
X92704271Y-25603428D01*
X92513795Y-25565333D01*
X92370938Y-25565333D01*
X92180462Y-25603428D01*
X92085224Y-25641523D01*
X91989986Y-25717714D01*
X91942367Y-25832000D01*
X91942367Y-26022476D01*
X92609033Y-24879619D02*
X91942367Y-24879619D01*
X92989986Y-25070095D02*
X92275700Y-25260571D01*
X92275700Y-24765333D01*
X89410305Y-26022476D02*
X90410305Y-26022476D01*
X90410305Y-25832000D01*
X90362686Y-25717714D01*
X90267447Y-25641523D01*
X90172209Y-25603428D01*
X89981733Y-25565333D01*
X89838876Y-25565333D01*
X89648400Y-25603428D01*
X89553162Y-25641523D01*
X89457924Y-25717714D01*
X89410305Y-25832000D01*
X89410305Y-26022476D01*
X90410305Y-25298666D02*
X90410305Y-24803428D01*
X90029352Y-25070095D01*
X90029352Y-24955809D01*
X89981733Y-24879619D01*
X89934114Y-24841523D01*
X89838876Y-24803428D01*
X89600781Y-24803428D01*
X89505543Y-24841523D01*
X89457924Y-24879619D01*
X89410305Y-24955809D01*
X89410305Y-25184380D01*
X89457924Y-25260571D01*
X89505543Y-25298666D01*
X86878243Y-26022476D02*
X87878243Y-26022476D01*
X87878243Y-25832000D01*
X87830624Y-25717714D01*
X87735385Y-25641523D01*
X87640147Y-25603428D01*
X87449671Y-25565333D01*
X87306814Y-25565333D01*
X87116338Y-25603428D01*
X87021100Y-25641523D01*
X86925862Y-25717714D01*
X86878243Y-25832000D01*
X86878243Y-26022476D01*
X87783004Y-25260571D02*
X87830624Y-25222476D01*
X87878243Y-25146285D01*
X87878243Y-24955809D01*
X87830624Y-24879619D01*
X87783004Y-24841523D01*
X87687766Y-24803428D01*
X87592528Y-24803428D01*
X87449671Y-24841523D01*
X86878243Y-25298666D01*
X86878243Y-24803428D01*
X84346181Y-26022476D02*
X85346181Y-26022476D01*
X85346181Y-25832000D01*
X85298562Y-25717714D01*
X85203323Y-25641523D01*
X85108085Y-25603428D01*
X84917609Y-25565333D01*
X84774752Y-25565333D01*
X84584276Y-25603428D01*
X84489038Y-25641523D01*
X84393800Y-25717714D01*
X84346181Y-25832000D01*
X84346181Y-26022476D01*
X84346181Y-24803428D02*
X84346181Y-25260571D01*
X84346181Y-25032000D02*
X85346181Y-25032000D01*
X85203323Y-25108190D01*
X85108085Y-25184380D01*
X85060466Y-25260571D01*
X81814119Y-26022476D02*
X82814119Y-26022476D01*
X82814119Y-25832000D01*
X82766500Y-25717714D01*
X82671261Y-25641523D01*
X82576023Y-25603428D01*
X82385547Y-25565333D01*
X82242690Y-25565333D01*
X82052214Y-25603428D01*
X81956976Y-25641523D01*
X81861738Y-25717714D01*
X81814119Y-25832000D01*
X81814119Y-26022476D01*
X82814119Y-25070095D02*
X82814119Y-24993904D01*
X82766500Y-24917714D01*
X82718880Y-24879619D01*
X82623642Y-24841523D01*
X82433166Y-24803428D01*
X82195071Y-24803428D01*
X82004595Y-24841523D01*
X81909357Y-24879619D01*
X81861738Y-24917714D01*
X81814119Y-24993904D01*
X81814119Y-25070095D01*
X81861738Y-25146285D01*
X81909357Y-25184380D01*
X82004595Y-25222476D01*
X82195071Y-25260571D01*
X82433166Y-25260571D01*
X82623642Y-25222476D01*
X82718880Y-25184380D01*
X82766500Y-25146285D01*
X82814119Y-25070095D01*
D11*
X86838500Y-18383500D02*
X83092000Y-19907500D01*
X88108500Y-18447000D02*
X85759000Y-19780500D01*
X89505500Y-18510500D02*
X88934000Y-19272500D01*
X88997500Y-19272500D02*
X87664000Y-19272500D01*
X88997500Y-20606000D02*
X88997500Y-19272500D01*
X81187000Y-19272500D02*
X86330500Y-19272500D01*
X81187000Y-24479500D02*
X81187000Y-19272500D01*
X88997500Y-24479500D02*
X81187000Y-24479500D01*
X88997500Y-21812500D02*
X88997500Y-24479500D01*
X86330500Y-21812500D02*
X88997500Y-21812500D01*
X86330500Y-19272500D02*
X86330500Y-21812500D01*
X82584000Y539500D02*
X82584000Y-9684000D01*
X85187500Y539500D02*
X82584000Y539500D01*
X85187500Y-9684000D02*
X85187500Y539500D01*
X82584000Y-9684000D02*
X85187500Y-9684000D01*
X81060000Y984000D02*
X81060000Y2317500D01*
X82393500Y984000D02*
X81060000Y984000D01*
X83600000Y3587500D02*
X83600000Y984000D01*
X86267000Y3587500D02*
X83600000Y3587500D01*
X86267000Y984000D02*
X86267000Y3587500D01*
X83663500Y984000D02*
X86267000Y984000D01*
D10*
X86544880Y2587334D02*
X87259166Y2587334D01*
X87402023Y2634953D01*
X87497261Y2730191D01*
X87544880Y2873048D01*
X87544880Y2968286D01*
X86544880Y2206381D02*
X86544880Y1539715D01*
X87544880Y1968286D01*
X86219333Y-11485880D02*
X86219333Y-12200166D01*
X86266952Y-12343023D01*
X86362190Y-12438261D01*
X86505047Y-12485880D01*
X86600285Y-12485880D01*
X85314571Y-11819214D02*
X85314571Y-12485880D01*
X85552666Y-11438261D02*
X85790761Y-12152547D01*
X85171714Y-12152547D01*
X90600833Y-20756880D02*
X90600833Y-21471166D01*
X90648452Y-21614023D01*
X90743690Y-21709261D01*
X90886547Y-21756880D01*
X90981785Y-21756880D01*
X89648452Y-20756880D02*
X90124642Y-20756880D01*
X90172261Y-21233071D01*
X90124642Y-21185452D01*
X90029404Y-21137833D01*
X89791309Y-21137833D01*
X89696071Y-21185452D01*
X89648452Y-21233071D01*
X89600833Y-21328309D01*
X89600833Y-21566404D01*
X89648452Y-21661642D01*
X89696071Y-21709261D01*
X89791309Y-21756880D01*
X90029404Y-21756880D01*
X90124642Y-21709261D01*
X90172261Y-21661642D01*
X81837833Y-32123380D02*
X81837833Y-32837666D01*
X81885452Y-32980523D01*
X81980690Y-33075761D01*
X82123547Y-33123380D01*
X82218785Y-33123380D01*
X81456880Y-32123380D02*
X80837833Y-32123380D01*
X81171166Y-32504333D01*
X81028309Y-32504333D01*
X80933071Y-32551952D01*
X80885452Y-32599571D01*
X80837833Y-32694809D01*
X80837833Y-32932904D01*
X80885452Y-33028142D01*
X80933071Y-33075761D01*
X81028309Y-33123380D01*
X81314023Y-33123380D01*
X81409261Y-33075761D01*
X81456880Y-33028142D01*
D12*
X142467523Y-8181166D02*
X143374666Y-8181166D01*
X143556095Y-8120690D01*
X143677047Y-7999738D01*
X143737523Y-7818309D01*
X143737523Y-7697357D01*
X143011809Y-8967357D02*
X142951333Y-8846404D01*
X142890857Y-8785928D01*
X142769904Y-8725452D01*
X142709428Y-8725452D01*
X142588476Y-8785928D01*
X142528000Y-8846404D01*
X142467523Y-8967357D01*
X142467523Y-9209261D01*
X142528000Y-9330214D01*
X142588476Y-9390690D01*
X142709428Y-9451166D01*
X142769904Y-9451166D01*
X142890857Y-9390690D01*
X142951333Y-9330214D01*
X143011809Y-9209261D01*
X143011809Y-8967357D01*
X143072285Y-8846404D01*
X143132761Y-8785928D01*
X143253714Y-8725452D01*
X143495619Y-8725452D01*
X143616571Y-8785928D01*
X143677047Y-8846404D01*
X143737523Y-8967357D01*
X143737523Y-9209261D01*
X143677047Y-9330214D01*
X143616571Y-9390690D01*
X143495619Y-9451166D01*
X143253714Y-9451166D01*
X143132761Y-9390690D01*
X143072285Y-9330214D01*
X143011809Y-9209261D01*
D10*
X112127333Y3944620D02*
X112127333Y3230334D01*
X112174952Y3087477D01*
X112270190Y2992239D01*
X112413047Y2944620D01*
X112508285Y2944620D01*
X111127333Y2944620D02*
X111698761Y2944620D01*
X111413047Y2944620D02*
X111413047Y3944620D01*
X111508285Y3801762D01*
X111603523Y3706524D01*
X111698761Y3658905D01*
X137391904Y-5394285D02*
X138039523Y-5394285D01*
X138115714Y-5432380D01*
X138153809Y-5470476D01*
X138191904Y-5546666D01*
X138191904Y-5699047D01*
X138153809Y-5775238D01*
X138115714Y-5813333D01*
X138039523Y-5851428D01*
X137391904Y-5851428D01*
X138153809Y-6194285D02*
X138191904Y-6308571D01*
X138191904Y-6499047D01*
X138153809Y-6575238D01*
X138115714Y-6613333D01*
X138039523Y-6651428D01*
X137963333Y-6651428D01*
X137887142Y-6613333D01*
X137849047Y-6575238D01*
X137810952Y-6499047D01*
X137772857Y-6346666D01*
X137734761Y-6270476D01*
X137696666Y-6232380D01*
X137620476Y-6194285D01*
X137544285Y-6194285D01*
X137468095Y-6232380D01*
X137430000Y-6270476D01*
X137391904Y-6346666D01*
X137391904Y-6537142D01*
X137430000Y-6651428D01*
X137772857Y-7260952D02*
X137810952Y-7375238D01*
X137849047Y-7413333D01*
X137925238Y-7451428D01*
X138039523Y-7451428D01*
X138115714Y-7413333D01*
X138153809Y-7375238D01*
X138191904Y-7299047D01*
X138191904Y-6994285D01*
X137391904Y-6994285D01*
X137391904Y-7260952D01*
X137430000Y-7337142D01*
X137468095Y-7375238D01*
X137544285Y-7413333D01*
X137620476Y-7413333D01*
X137696666Y-7375238D01*
X137734761Y-7337142D01*
X137772857Y-7260952D01*
X137772857Y-6994285D01*
X138191904Y-8403809D02*
X137391904Y-8403809D01*
X137391904Y-8708571D01*
X137430000Y-8784761D01*
X137468095Y-8822857D01*
X137544285Y-8860952D01*
X137658571Y-8860952D01*
X137734761Y-8822857D01*
X137772857Y-8784761D01*
X137810952Y-8708571D01*
X137810952Y-8403809D01*
X138191904Y-9318095D02*
X138153809Y-9241904D01*
X138115714Y-9203809D01*
X138039523Y-9165714D01*
X137810952Y-9165714D01*
X137734761Y-9203809D01*
X137696666Y-9241904D01*
X137658571Y-9318095D01*
X137658571Y-9432380D01*
X137696666Y-9508571D01*
X137734761Y-9546666D01*
X137810952Y-9584761D01*
X138039523Y-9584761D01*
X138115714Y-9546666D01*
X138153809Y-9508571D01*
X138191904Y-9432380D01*
X138191904Y-9318095D01*
X137658571Y-9851428D02*
X138191904Y-10003809D01*
X137810952Y-10156190D01*
X138191904Y-10308571D01*
X137658571Y-10460952D01*
X138153809Y-11070476D02*
X138191904Y-10994285D01*
X138191904Y-10841904D01*
X138153809Y-10765714D01*
X138077619Y-10727619D01*
X137772857Y-10727619D01*
X137696666Y-10765714D01*
X137658571Y-10841904D01*
X137658571Y-10994285D01*
X137696666Y-11070476D01*
X137772857Y-11108571D01*
X137849047Y-11108571D01*
X137925238Y-10727619D01*
X138191904Y-11451428D02*
X137658571Y-11451428D01*
X137810952Y-11451428D02*
X137734761Y-11489523D01*
X137696666Y-11527619D01*
X137658571Y-11603809D01*
X137658571Y-11680000D01*
X140765833Y-33456880D02*
X140765833Y-34171166D01*
X140813452Y-34314023D01*
X140908690Y-34409261D01*
X141051547Y-34456880D01*
X141146785Y-34456880D01*
X139861071Y-33456880D02*
X140051547Y-33456880D01*
X140146785Y-33504500D01*
X140194404Y-33552119D01*
X140289642Y-33694976D01*
X140337261Y-33885452D01*
X140337261Y-34266404D01*
X140289642Y-34361642D01*
X140242023Y-34409261D01*
X140146785Y-34456880D01*
X139956309Y-34456880D01*
X139861071Y-34409261D01*
X139813452Y-34361642D01*
X139765833Y-34266404D01*
X139765833Y-34028309D01*
X139813452Y-33933071D01*
X139861071Y-33885452D01*
X139956309Y-33837833D01*
X140146785Y-33837833D01*
X140242023Y-33885452D01*
X140289642Y-33933071D01*
X140337261Y-34028309D01*
D13*
X115112261Y-4966761D02*
X115659880Y-4014380D01*
X116255119Y-4966761D02*
X116005119Y-2966761D01*
X115243214Y-2966761D01*
X115064642Y-3062000D01*
X114981309Y-3157238D01*
X114909880Y-3347714D01*
X114945595Y-3633428D01*
X115064642Y-3823904D01*
X115171785Y-3919142D01*
X115374166Y-4014380D01*
X116136071Y-4014380D01*
X113397976Y-4966761D02*
X113267023Y-3919142D01*
X113338452Y-3728666D01*
X113517023Y-3633428D01*
X113897976Y-3633428D01*
X114100357Y-3728666D01*
X113386071Y-4871523D02*
X113588452Y-4966761D01*
X114064642Y-4966761D01*
X114243214Y-4871523D01*
X114314642Y-4681047D01*
X114290833Y-4490571D01*
X114171785Y-4300095D01*
X113969404Y-4204857D01*
X113493214Y-4204857D01*
X113290833Y-4109619D01*
X112528928Y-4871523D02*
X112255119Y-4966761D01*
X111778928Y-4966761D01*
X111576547Y-4871523D01*
X111469404Y-4776285D01*
X111350357Y-4585809D01*
X111326547Y-4395333D01*
X111397976Y-4204857D01*
X111481309Y-4109619D01*
X111659880Y-4014380D01*
X112028928Y-3919142D01*
X112207500Y-3823904D01*
X112290833Y-3728666D01*
X112362261Y-3538190D01*
X112338452Y-3347714D01*
X112219404Y-3157238D01*
X112112261Y-3062000D01*
X111909880Y-2966761D01*
X111433690Y-2966761D01*
X111159880Y-3062000D01*
X109374166Y-4776285D02*
X109481309Y-4871523D01*
X109778928Y-4966761D01*
X109969404Y-4966761D01*
X110243214Y-4871523D01*
X110409880Y-4681047D01*
X110481309Y-4490571D01*
X110528928Y-4109619D01*
X110493214Y-3823904D01*
X110350357Y-3442952D01*
X110231309Y-3252476D01*
X110017023Y-3062000D01*
X109719404Y-2966761D01*
X109528928Y-2966761D01*
X109255119Y-3062000D01*
X109171785Y-3157238D01*
X108624166Y-4871523D02*
X108350357Y-4966761D01*
X107874166Y-4966761D01*
X107671785Y-4871523D01*
X107564642Y-4776285D01*
X107445595Y-4585809D01*
X107421785Y-4395333D01*
X107493214Y-4204857D01*
X107576547Y-4109619D01*
X107755119Y-4014380D01*
X108124166Y-3919142D01*
X108302738Y-3823904D01*
X108386071Y-3728666D01*
X108457500Y-3538190D01*
X108433690Y-3347714D01*
X108314642Y-3157238D01*
X108207500Y-3062000D01*
X108005119Y-2966761D01*
X107528928Y-2966761D01*
X107255119Y-3062000D01*
X106636071Y-4966761D02*
X106386071Y-2966761D01*
D10*
X117785095Y-1609380D02*
X117975571Y-1609380D01*
X118070809Y-1657000D01*
X118118428Y-1704619D01*
X118213666Y-1847476D01*
X118261285Y-2037952D01*
X118261285Y-2418904D01*
X118213666Y-2514142D01*
X118166047Y-2561761D01*
X118070809Y-2609380D01*
X117880333Y-2609380D01*
X117785095Y-2561761D01*
X117737476Y-2514142D01*
X117689857Y-2418904D01*
X117689857Y-2180809D01*
X117737476Y-2085571D01*
X117785095Y-2037952D01*
X117880333Y-1990333D01*
X118070809Y-1990333D01*
X118166047Y-2037952D01*
X118213666Y-2085571D01*
X118261285Y-2180809D01*
X117118428Y-2037952D02*
X117213666Y-1990333D01*
X117261285Y-1942714D01*
X117308904Y-1847476D01*
X117308904Y-1799857D01*
X117261285Y-1704619D01*
X117213666Y-1657000D01*
X117118428Y-1609380D01*
X116927952Y-1609380D01*
X116832714Y-1657000D01*
X116785095Y-1704619D01*
X116737476Y-1799857D01*
X116737476Y-1847476D01*
X116785095Y-1942714D01*
X116832714Y-1990333D01*
X116927952Y-2037952D01*
X117118428Y-2037952D01*
X117213666Y-2085571D01*
X117261285Y-2133190D01*
X117308904Y-2228428D01*
X117308904Y-2418904D01*
X117261285Y-2514142D01*
X117213666Y-2561761D01*
X117118428Y-2609380D01*
X116927952Y-2609380D01*
X116832714Y-2561761D01*
X116785095Y-2514142D01*
X116737476Y-2418904D01*
X116737476Y-2228428D01*
X116785095Y-2133190D01*
X116832714Y-2085571D01*
X116927952Y-2037952D01*
X116308904Y-2609380D02*
X116308904Y-1609380D01*
X116213666Y-2228428D02*
X115927952Y-2609380D01*
X115927952Y-1942714D02*
X116308904Y-2323666D01*
X115499380Y-2609380D02*
X115499380Y-1942714D01*
X115499380Y-2037952D02*
X115451761Y-1990333D01*
X115356523Y-1942714D01*
X115213666Y-1942714D01*
X115118428Y-1990333D01*
X115070809Y-2085571D01*
X115070809Y-2609380D01*
X115070809Y-2085571D02*
X115023190Y-1990333D01*
X114927952Y-1942714D01*
X114785095Y-1942714D01*
X114689857Y-1990333D01*
X114642238Y-2085571D01*
X114642238Y-2609380D01*
X114023190Y-2609380D02*
X114118428Y-2561761D01*
X114166047Y-2466523D01*
X114166047Y-1609380D01*
X113213666Y-2609380D02*
X113213666Y-2085571D01*
X113261285Y-1990333D01*
X113356523Y-1942714D01*
X113547000Y-1942714D01*
X113642238Y-1990333D01*
X113213666Y-2561761D02*
X113308904Y-2609380D01*
X113547000Y-2609380D01*
X113642238Y-2561761D01*
X113689857Y-2466523D01*
X113689857Y-2371285D01*
X113642238Y-2276047D01*
X113547000Y-2228428D01*
X113308904Y-2228428D01*
X113213666Y-2180809D01*
X112118428Y-1609380D02*
X111785095Y-2609380D01*
X111451761Y-1609380D01*
X110737476Y-2561761D02*
X110832714Y-2609380D01*
X111023190Y-2609380D01*
X111118428Y-2561761D01*
X111166047Y-2466523D01*
X111166047Y-2085571D01*
X111118428Y-1990333D01*
X111023190Y-1942714D01*
X110832714Y-1942714D01*
X110737476Y-1990333D01*
X110689857Y-2085571D01*
X110689857Y-2180809D01*
X111166047Y-2276047D01*
X110261285Y-2609380D02*
X110261285Y-1942714D01*
X110261285Y-2133190D02*
X110213666Y-2037952D01*
X110166047Y-1990333D01*
X110070809Y-1942714D01*
X109975571Y-1942714D01*
X109689857Y-2561761D02*
X109594619Y-2609380D01*
X109404142Y-2609380D01*
X109308904Y-2561761D01*
X109261285Y-2466523D01*
X109261285Y-2418904D01*
X109308904Y-2323666D01*
X109404142Y-2276047D01*
X109547000Y-2276047D01*
X109642238Y-2228428D01*
X109689857Y-2133190D01*
X109689857Y-2085571D01*
X109642238Y-1990333D01*
X109547000Y-1942714D01*
X109404142Y-1942714D01*
X109308904Y-1990333D01*
X108832714Y-2609380D02*
X108832714Y-1942714D01*
X108832714Y-1609380D02*
X108880333Y-1657000D01*
X108832714Y-1704619D01*
X108785095Y-1657000D01*
X108832714Y-1609380D01*
X108832714Y-1704619D01*
X108213666Y-2609380D02*
X108308904Y-2561761D01*
X108356523Y-2514142D01*
X108404142Y-2418904D01*
X108404142Y-2133190D01*
X108356523Y-2037952D01*
X108308904Y-1990333D01*
X108213666Y-1942714D01*
X108070809Y-1942714D01*
X107975571Y-1990333D01*
X107927952Y-2037952D01*
X107880333Y-2133190D01*
X107880333Y-2418904D01*
X107927952Y-2514142D01*
X107975571Y-2561761D01*
X108070809Y-2609380D01*
X108213666Y-2609380D01*
X107451761Y-1942714D02*
X107451761Y-2609380D01*
X107451761Y-2037952D02*
X107404142Y-1990333D01*
X107308904Y-1942714D01*
X107166047Y-1942714D01*
X107070809Y-1990333D01*
X107023190Y-2085571D01*
X107023190Y-2609380D01*
X105832714Y-1704619D02*
X105785095Y-1657000D01*
X105689857Y-1609380D01*
X105451761Y-1609380D01*
X105356523Y-1657000D01*
X105308904Y-1704619D01*
X105261285Y-1799857D01*
X105261285Y-1895095D01*
X105308904Y-2037952D01*
X105880333Y-2609380D01*
X105261285Y-2609380D01*
X104832714Y-2514142D02*
X104785095Y-2561761D01*
X104832714Y-2609380D01*
X104880333Y-2561761D01*
X104832714Y-2514142D01*
X104832714Y-2609380D01*
X104451761Y-1609380D02*
X103832714Y-1609380D01*
X104166047Y-1990333D01*
X104023190Y-1990333D01*
X103927952Y-2037952D01*
X103880333Y-2085571D01*
X103832714Y-2180809D01*
X103832714Y-2418904D01*
X103880333Y-2514142D01*
X103927952Y-2561761D01*
X104023190Y-2609380D01*
X104308904Y-2609380D01*
X104404142Y-2561761D01*
X104451761Y-2514142D01*
D11*
X119492500Y-5967000D02*
X119492500Y-887000D01*
X119429000Y-887000D02*
X102474500Y-887000D01*
X103046000Y-1268000D02*
X119048000Y-1268000D01*
X103046000Y-1268000D02*
X102982500Y-1268000D01*
X119048000Y-5586000D02*
X102982500Y-5586000D01*
X102982500Y-5586000D02*
X102982500Y-1331500D01*
X119048000Y-1268000D02*
X119048000Y-5586000D01*
X119492500Y-5967000D02*
X102474500Y-5967000D01*
X102982500Y-1268000D02*
X102982500Y-1522000D01*
X102474500Y-887000D02*
X102474500Y-5967000D01*
D10*
X137549523Y1447500D02*
X137625714Y1485596D01*
X137740000Y1485596D01*
X137854285Y1447500D01*
X137930476Y1371310D01*
X137968571Y1295120D01*
X138006666Y1142739D01*
X138006666Y1028453D01*
X137968571Y876072D01*
X137930476Y799881D01*
X137854285Y723691D01*
X137740000Y685596D01*
X137663809Y685596D01*
X137549523Y723691D01*
X137511428Y761786D01*
X137511428Y1028453D01*
X137663809Y1028453D01*
X137168571Y685596D02*
X137168571Y1485596D01*
X136711428Y685596D01*
X136711428Y1485596D01*
X136330476Y685596D02*
X136330476Y1485596D01*
X136140000Y1485596D01*
X136025714Y1447500D01*
X135949523Y1371310D01*
X135911428Y1295120D01*
X135873333Y1142739D01*
X135873333Y1028453D01*
X135911428Y876072D01*
X135949523Y799881D01*
X136025714Y723691D01*
X136140000Y685596D01*
X136330476Y685596D01*
X137454238Y-1943333D02*
X137073285Y-1943333D01*
X137530428Y-2171904D02*
X137263761Y-1371904D01*
X136997095Y-2171904D01*
X136273285Y-2095714D02*
X136311380Y-2133809D01*
X136425666Y-2171904D01*
X136501857Y-2171904D01*
X136616142Y-2133809D01*
X136692333Y-2057619D01*
X136730428Y-1981428D01*
X136768523Y-1829047D01*
X136768523Y-1714761D01*
X136730428Y-1562380D01*
X136692333Y-1486190D01*
X136616142Y-1410000D01*
X136501857Y-1371904D01*
X136425666Y-1371904D01*
X136311380Y-1410000D01*
X136273285Y-1448095D01*
X136044714Y-1371904D02*
X135587571Y-1371904D01*
X135816142Y-2171904D02*
X135816142Y-1371904D01*
D11*
X94943000Y-55963000D02*
X94879500Y-55963000D01*
X94879500Y-55963000D02*
X94879500Y-56217000D01*
X109737000Y-5154000D02*
X109864000Y-5154000D01*
X128304000Y-35973000D02*
X130717000Y-35973000D01*
X130717000Y-35973000D02*
X130717000Y-33687000D01*
X128177000Y-36100000D02*
X130844000Y-36100000D01*
X130844000Y-36100000D02*
X130844000Y-33560000D01*
X144560000Y-31528000D02*
X83473000Y-31528000D01*
X144560000Y-26321000D02*
X144560000Y-31528000D01*
X80933000Y-26321000D02*
X144560000Y-26321000D01*
X80933000Y-28988000D02*
X80933000Y-26321000D01*
X83473000Y-28988000D02*
X80933000Y-28988000D01*
X83473000Y-31528000D02*
X83473000Y-28988000D01*
X80933000Y-31528000D02*
X82330000Y-31528000D01*
X80933000Y-30131000D02*
X80933000Y-31528000D01*
D10*
X91131023Y-22682500D02*
X91207214Y-22644404D01*
X91321500Y-22644404D01*
X91435785Y-22682500D01*
X91511976Y-22758690D01*
X91550071Y-22834880D01*
X91588166Y-22987261D01*
X91588166Y-23101547D01*
X91550071Y-23253928D01*
X91511976Y-23330119D01*
X91435785Y-23406309D01*
X91321500Y-23444404D01*
X91245309Y-23444404D01*
X91131023Y-23406309D01*
X91092928Y-23368214D01*
X91092928Y-23101547D01*
X91245309Y-23101547D01*
X90750071Y-23444404D02*
X90750071Y-22644404D01*
X90292928Y-23444404D01*
X90292928Y-22644404D01*
X89911976Y-23444404D02*
X89911976Y-22644404D01*
X89721500Y-22644404D01*
X89607214Y-22682500D01*
X89531023Y-22758690D01*
X89492928Y-22834880D01*
X89454833Y-22987261D01*
X89454833Y-23101547D01*
X89492928Y-23253928D01*
X89531023Y-23330119D01*
X89607214Y-23406309D01*
X89721500Y-23444404D01*
X89911976Y-23444404D01*
D11*
X81123500Y-24098500D02*
X81123500Y-23971500D01*
X92807500Y-24098500D02*
X81123500Y-24098500D01*
X92807500Y-22066500D02*
X92807500Y-24098500D01*
X81123500Y-22066500D02*
X92807500Y-22066500D01*
X81123500Y-23971500D02*
X81123500Y-22066500D01*
X82457000Y-12478000D02*
X83854000Y-12478000D01*
X82457000Y-10954000D02*
X82457000Y-12478000D01*
D10*
X87619500Y-17786452D02*
X87657595Y-17862642D01*
X87657595Y-17976928D01*
X87619500Y-18091214D01*
X87543309Y-18167404D01*
X87467119Y-18205500D01*
X87314738Y-18243595D01*
X87200452Y-18243595D01*
X87048071Y-18205500D01*
X86971880Y-18167404D01*
X86895690Y-18091214D01*
X86857595Y-17976928D01*
X86857595Y-17900738D01*
X86895690Y-17786452D01*
X86933785Y-17748357D01*
X87200452Y-17748357D01*
X87200452Y-17900738D01*
X86857595Y-17405500D02*
X87657595Y-17405500D01*
X87657595Y-17100738D01*
X87619500Y-17024547D01*
X87581404Y-16986452D01*
X87505214Y-16948357D01*
X87390928Y-16948357D01*
X87314738Y-16986452D01*
X87276642Y-17024547D01*
X87238547Y-17100738D01*
X87238547Y-17405500D01*
X86857595Y-16605500D02*
X87657595Y-16605500D01*
X87657595Y-16072166D02*
X87657595Y-15919785D01*
X87619500Y-15843595D01*
X87543309Y-15767404D01*
X87390928Y-15729309D01*
X87124261Y-15729309D01*
X86971880Y-15767404D01*
X86895690Y-15843595D01*
X86857595Y-15919785D01*
X86857595Y-16072166D01*
X86895690Y-16148357D01*
X86971880Y-16224547D01*
X87124261Y-16262642D01*
X87390928Y-16262642D01*
X87543309Y-16224547D01*
X87619500Y-16148357D01*
X87657595Y-16072166D01*
X86857595Y-15348357D02*
X86857595Y-15195976D01*
X86895690Y-15119785D01*
X86933785Y-15081690D01*
X87048071Y-15005500D01*
X87200452Y-14967404D01*
X87505214Y-14967404D01*
X87581404Y-15005500D01*
X87619500Y-15043595D01*
X87657595Y-15119785D01*
X87657595Y-15272166D01*
X87619500Y-15348357D01*
X87581404Y-15386452D01*
X87505214Y-15424547D01*
X87314738Y-15424547D01*
X87238547Y-15386452D01*
X87200452Y-15348357D01*
X87162357Y-15272166D01*
X87162357Y-15119785D01*
X87200452Y-15043595D01*
X87238547Y-15005500D01*
X87314738Y-14967404D01*
X88826000Y-17786452D02*
X88864095Y-17862642D01*
X88864095Y-17976928D01*
X88826000Y-18091214D01*
X88749809Y-18167404D01*
X88673619Y-18205500D01*
X88521238Y-18243595D01*
X88406952Y-18243595D01*
X88254571Y-18205500D01*
X88178380Y-18167404D01*
X88102190Y-18091214D01*
X88064095Y-17976928D01*
X88064095Y-17900738D01*
X88102190Y-17786452D01*
X88140285Y-17748357D01*
X88406952Y-17748357D01*
X88406952Y-17900738D01*
X88064095Y-17405500D02*
X88864095Y-17405500D01*
X88864095Y-17100738D01*
X88826000Y-17024547D01*
X88787904Y-16986452D01*
X88711714Y-16948357D01*
X88597428Y-16948357D01*
X88521238Y-16986452D01*
X88483142Y-17024547D01*
X88445047Y-17100738D01*
X88445047Y-17405500D01*
X88064095Y-16605500D02*
X88864095Y-16605500D01*
X88864095Y-16072166D02*
X88864095Y-15919785D01*
X88826000Y-15843595D01*
X88749809Y-15767404D01*
X88597428Y-15729309D01*
X88330761Y-15729309D01*
X88178380Y-15767404D01*
X88102190Y-15843595D01*
X88064095Y-15919785D01*
X88064095Y-16072166D01*
X88102190Y-16148357D01*
X88178380Y-16224547D01*
X88330761Y-16262642D01*
X88597428Y-16262642D01*
X88749809Y-16224547D01*
X88826000Y-16148357D01*
X88864095Y-16072166D01*
X88064095Y-14967404D02*
X88064095Y-15424547D01*
X88064095Y-15195976D02*
X88864095Y-15195976D01*
X88749809Y-15272166D01*
X88673619Y-15348357D01*
X88635523Y-15424547D01*
X89905500Y-17849952D02*
X89943595Y-17926142D01*
X89943595Y-18040428D01*
X89905500Y-18154714D01*
X89829309Y-18230904D01*
X89753119Y-18269000D01*
X89600738Y-18307095D01*
X89486452Y-18307095D01*
X89334071Y-18269000D01*
X89257880Y-18230904D01*
X89181690Y-18154714D01*
X89143595Y-18040428D01*
X89143595Y-17964238D01*
X89181690Y-17849952D01*
X89219785Y-17811857D01*
X89486452Y-17811857D01*
X89486452Y-17964238D01*
X89143595Y-17469000D02*
X89943595Y-17469000D01*
X89943595Y-17164238D01*
X89905500Y-17088047D01*
X89867404Y-17049952D01*
X89791214Y-17011857D01*
X89676928Y-17011857D01*
X89600738Y-17049952D01*
X89562642Y-17088047D01*
X89524547Y-17164238D01*
X89524547Y-17469000D01*
X89143595Y-16669000D02*
X89943595Y-16669000D01*
X89943595Y-16135666D02*
X89943595Y-15983285D01*
X89905500Y-15907095D01*
X89829309Y-15830904D01*
X89676928Y-15792809D01*
X89410261Y-15792809D01*
X89257880Y-15830904D01*
X89181690Y-15907095D01*
X89143595Y-15983285D01*
X89143595Y-16135666D01*
X89181690Y-16211857D01*
X89257880Y-16288047D01*
X89410261Y-16326142D01*
X89676928Y-16326142D01*
X89829309Y-16288047D01*
X89905500Y-16211857D01*
X89943595Y-16135666D01*
X89943595Y-15297571D02*
X89943595Y-15221380D01*
X89905500Y-15145190D01*
X89867404Y-15107095D01*
X89791214Y-15069000D01*
X89638833Y-15030904D01*
X89448357Y-15030904D01*
X89295976Y-15069000D01*
X89219785Y-15107095D01*
X89181690Y-15145190D01*
X89143595Y-15221380D01*
X89143595Y-15297571D01*
X89181690Y-15373761D01*
X89219785Y-15411857D01*
X89295976Y-15449952D01*
X89448357Y-15488047D01*
X89638833Y-15488047D01*
X89791214Y-15449952D01*
X89867404Y-15411857D01*
X89905500Y-15373761D01*
X89943595Y-15297571D01*
X82260095Y-11322285D02*
X82260095Y-11703238D01*
X81879142Y-11741333D01*
X81917238Y-11703238D01*
X81955333Y-11627047D01*
X81955333Y-11436571D01*
X81917238Y-11360380D01*
X81879142Y-11322285D01*
X81802952Y-11284190D01*
X81612476Y-11284190D01*
X81536285Y-11322285D01*
X81498190Y-11360380D01*
X81460095Y-11436571D01*
X81460095Y-11627047D01*
X81498190Y-11703238D01*
X81536285Y-11741333D01*
X81993428Y-11017523D02*
X81460095Y-10827047D01*
X81993428Y-10636571D01*
X82222000Y-9277523D02*
X82260095Y-9353714D01*
X82260095Y-9468000D01*
X82222000Y-9582285D01*
X82145809Y-9658476D01*
X82069619Y-9696571D01*
X81917238Y-9734666D01*
X81802952Y-9734666D01*
X81650571Y-9696571D01*
X81574380Y-9658476D01*
X81498190Y-9582285D01*
X81460095Y-9468000D01*
X81460095Y-9391809D01*
X81498190Y-9277523D01*
X81536285Y-9239428D01*
X81802952Y-9239428D01*
X81802952Y-9391809D01*
X81460095Y-8896571D02*
X82260095Y-8896571D01*
X81460095Y-8439428D01*
X82260095Y-8439428D01*
X81460095Y-8058476D02*
X82260095Y-8058476D01*
X82260095Y-7868000D01*
X82222000Y-7753714D01*
X82145809Y-7677523D01*
X82069619Y-7639428D01*
X81917238Y-7601333D01*
X81802952Y-7601333D01*
X81650571Y-7639428D01*
X81574380Y-7677523D01*
X81498190Y-7753714D01*
X81460095Y-7868000D01*
X81460095Y-8058476D01*
X82260095Y-6966095D02*
X82260095Y-6470857D01*
X81955333Y-6737523D01*
X81955333Y-6623238D01*
X81917238Y-6547047D01*
X81879142Y-6508952D01*
X81802952Y-6470857D01*
X81612476Y-6470857D01*
X81536285Y-6508952D01*
X81498190Y-6547047D01*
X81460095Y-6623238D01*
X81460095Y-6851809D01*
X81498190Y-6928000D01*
X81536285Y-6966095D01*
X81536285Y-6128000D02*
X81498190Y-6089904D01*
X81460095Y-6128000D01*
X81498190Y-6166095D01*
X81536285Y-6128000D01*
X81460095Y-6128000D01*
X82260095Y-5823238D02*
X82260095Y-5328000D01*
X81955333Y-5594666D01*
X81955333Y-5480380D01*
X81917238Y-5404190D01*
X81879142Y-5366095D01*
X81802952Y-5328000D01*
X81612476Y-5328000D01*
X81536285Y-5366095D01*
X81498190Y-5404190D01*
X81460095Y-5480380D01*
X81460095Y-5708952D01*
X81498190Y-5785142D01*
X81536285Y-5823238D01*
X81498190Y-4286380D02*
X81460095Y-4172095D01*
X81460095Y-3981619D01*
X81498190Y-3905428D01*
X81536285Y-3867333D01*
X81612476Y-3829238D01*
X81688666Y-3829238D01*
X81764857Y-3867333D01*
X81802952Y-3905428D01*
X81841047Y-3981619D01*
X81879142Y-4134000D01*
X81917238Y-4210190D01*
X81955333Y-4248285D01*
X82031523Y-4286380D01*
X82107714Y-4286380D01*
X82183904Y-4248285D01*
X82222000Y-4210190D01*
X82260095Y-4134000D01*
X82260095Y-3943523D01*
X82222000Y-3829238D01*
X81536285Y-3029238D02*
X81498190Y-3067333D01*
X81460095Y-3181619D01*
X81460095Y-3257809D01*
X81498190Y-3372095D01*
X81574380Y-3448285D01*
X81650571Y-3486380D01*
X81802952Y-3524476D01*
X81917238Y-3524476D01*
X82069619Y-3486380D01*
X82145809Y-3448285D01*
X82222000Y-3372095D01*
X82260095Y-3257809D01*
X82260095Y-3181619D01*
X82222000Y-3067333D01*
X82183904Y-3029238D01*
X81460095Y-2305428D02*
X81460095Y-2686380D01*
X82260095Y-2686380D01*
X81498190Y-1765428D02*
X81460095Y-1651142D01*
X81460095Y-1460666D01*
X81498190Y-1384476D01*
X81536285Y-1346380D01*
X81612476Y-1308285D01*
X81688666Y-1308285D01*
X81764857Y-1346380D01*
X81802952Y-1384476D01*
X81841047Y-1460666D01*
X81879142Y-1613047D01*
X81917238Y-1689238D01*
X81955333Y-1727333D01*
X82031523Y-1765428D01*
X82107714Y-1765428D01*
X82183904Y-1727333D01*
X82222000Y-1689238D01*
X82260095Y-1613047D01*
X82260095Y-1422571D01*
X82222000Y-1308285D01*
X81460095Y-965428D02*
X82260095Y-965428D01*
X82260095Y-774952D01*
X82222000Y-660666D01*
X82145809Y-584476D01*
X82069619Y-546380D01*
X81917238Y-508285D01*
X81802952Y-508285D01*
X81650571Y-546380D01*
X81574380Y-584476D01*
X81498190Y-660666D01*
X81460095Y-774952D01*
X81460095Y-965428D01*
X81688666Y-203523D02*
X81688666Y177429D01*
X81460095Y-279714D02*
X82260095Y-13047D01*
X81460095Y253620D01*
X81872785Y4152596D02*
X82253738Y4152596D01*
X82291833Y3771643D01*
X82253738Y3809739D01*
X82177547Y3847834D01*
X81987071Y3847834D01*
X81910880Y3809739D01*
X81872785Y3771643D01*
X81834690Y3695453D01*
X81834690Y3504977D01*
X81872785Y3428786D01*
X81910880Y3390691D01*
X81987071Y3352596D01*
X82177547Y3352596D01*
X82253738Y3390691D01*
X82291833Y3428786D01*
X81568023Y3885929D02*
X81377547Y3352596D01*
X81187071Y3885929D01*
X86686023Y4241500D02*
X86762214Y4279596D01*
X86876500Y4279596D01*
X86990785Y4241500D01*
X87066976Y4165310D01*
X87105071Y4089120D01*
X87143166Y3936739D01*
X87143166Y3822453D01*
X87105071Y3670072D01*
X87066976Y3593881D01*
X86990785Y3517691D01*
X86876500Y3479596D01*
X86800309Y3479596D01*
X86686023Y3517691D01*
X86647928Y3555786D01*
X86647928Y3822453D01*
X86800309Y3822453D01*
X86305071Y3479596D02*
X86305071Y4279596D01*
X85847928Y3479596D01*
X85847928Y4279596D01*
X85466976Y3479596D02*
X85466976Y4279596D01*
X85276500Y4279596D01*
X85162214Y4241500D01*
X85086023Y4165310D01*
X85047928Y4089120D01*
X85009833Y3936739D01*
X85009833Y3822453D01*
X85047928Y3670072D01*
X85086023Y3593881D01*
X85162214Y3517691D01*
X85276500Y3479596D01*
X85466976Y3479596D01*
X122633333Y1480239D02*
X122490476Y1432620D01*
X122252380Y1432620D01*
X122157142Y1480239D01*
X122109523Y1527858D01*
X122061904Y1623096D01*
X122061904Y1718334D01*
X122109523Y1813572D01*
X122157142Y1861191D01*
X122252380Y1908810D01*
X122442857Y1956429D01*
X122538095Y2004048D01*
X122585714Y2051667D01*
X122633333Y2146905D01*
X122633333Y2242143D01*
X122585714Y2337381D01*
X122538095Y2385000D01*
X122442857Y2432620D01*
X122204761Y2432620D01*
X122061904Y2385000D01*
X121633333Y2099286D02*
X121633333Y1099286D01*
X121633333Y2051667D02*
X121538095Y2099286D01*
X121347619Y2099286D01*
X121252380Y2051667D01*
X121204761Y2004048D01*
X121157142Y1908810D01*
X121157142Y1623096D01*
X121204761Y1527858D01*
X121252380Y1480239D01*
X121347619Y1432620D01*
X121538095Y1432620D01*
X121633333Y1480239D01*
X120347619Y1480239D02*
X120442857Y1432620D01*
X120633333Y1432620D01*
X120728571Y1480239D01*
X120776190Y1575477D01*
X120776190Y1956429D01*
X120728571Y2051667D01*
X120633333Y2099286D01*
X120442857Y2099286D01*
X120347619Y2051667D01*
X120300000Y1956429D01*
X120300000Y1861191D01*
X120776190Y1765953D01*
X119442857Y1480239D02*
X119538095Y1432620D01*
X119728571Y1432620D01*
X119823809Y1480239D01*
X119871428Y1527858D01*
X119919047Y1623096D01*
X119919047Y1908810D01*
X119871428Y2004048D01*
X119823809Y2051667D01*
X119728571Y2099286D01*
X119538095Y2099286D01*
X119442857Y2051667D01*
X119014285Y1432620D02*
X119014285Y2099286D01*
X119014285Y2432620D02*
X119061904Y2385000D01*
X119014285Y2337381D01*
X118966666Y2385000D01*
X119014285Y2432620D01*
X119014285Y2337381D01*
X118109523Y1432620D02*
X118109523Y1956429D01*
X118157142Y2051667D01*
X118252380Y2099286D01*
X118442857Y2099286D01*
X118538095Y2051667D01*
X118109523Y1480239D02*
X118204761Y1432620D01*
X118442857Y1432620D01*
X118538095Y1480239D01*
X118585714Y1575477D01*
X118585714Y1670715D01*
X118538095Y1765953D01*
X118442857Y1813572D01*
X118204761Y1813572D01*
X118109523Y1861191D01*
X117490476Y1432620D02*
X117585714Y1480239D01*
X117633333Y1575477D01*
X117633333Y2432620D01*
X116490476Y2099286D02*
X116109523Y2099286D01*
X116347619Y2432620D02*
X116347619Y1575477D01*
X116300000Y1480239D01*
X116204761Y1432620D01*
X116109523Y1432620D01*
X115776190Y1432620D02*
X115776190Y2432620D01*
X115347619Y1432620D02*
X115347619Y1956429D01*
X115395238Y2051667D01*
X115490476Y2099286D01*
X115633333Y2099286D01*
X115728571Y2051667D01*
X115776190Y2004048D01*
X114442857Y1432620D02*
X114442857Y1956429D01*
X114490476Y2051667D01*
X114585714Y2099286D01*
X114776190Y2099286D01*
X114871428Y2051667D01*
X114442857Y1480239D02*
X114538095Y1432620D01*
X114776190Y1432620D01*
X114871428Y1480239D01*
X114919047Y1575477D01*
X114919047Y1670715D01*
X114871428Y1765953D01*
X114776190Y1813572D01*
X114538095Y1813572D01*
X114442857Y1861191D01*
X113966666Y2099286D02*
X113966666Y1432620D01*
X113966666Y2004048D02*
X113919047Y2051667D01*
X113823809Y2099286D01*
X113680952Y2099286D01*
X113585714Y2051667D01*
X113538095Y1956429D01*
X113538095Y1432620D01*
X113061904Y1432620D02*
X113061904Y2432620D01*
X112966666Y1813572D02*
X112680952Y1432620D01*
X112680952Y2099286D02*
X113061904Y1718334D01*
X112300000Y1480239D02*
X112204761Y1432620D01*
X112014285Y1432620D01*
X111919047Y1480239D01*
X111871428Y1575477D01*
X111871428Y1623096D01*
X111919047Y1718334D01*
X112014285Y1765953D01*
X112157142Y1765953D01*
X112252380Y1813572D01*
X112300000Y1908810D01*
X112300000Y1956429D01*
X112252380Y2051667D01*
X112157142Y2099286D01*
X112014285Y2099286D01*
X111919047Y2051667D01*
X110823809Y2099286D02*
X110442857Y2099286D01*
X110680952Y2432620D02*
X110680952Y1575477D01*
X110633333Y1480239D01*
X110538095Y1432620D01*
X110442857Y1432620D01*
X109966666Y1432620D02*
X110061904Y1480239D01*
X110109523Y1527858D01*
X110157142Y1623096D01*
X110157142Y1908810D01*
X110109523Y2004048D01*
X110061904Y2051667D01*
X109966666Y2099286D01*
X109823809Y2099286D01*
X109728571Y2051667D01*
X109680952Y2004048D01*
X109633333Y1908810D01*
X109633333Y1623096D01*
X109680952Y1527858D01*
X109728571Y1480239D01*
X109823809Y1432620D01*
X109966666Y1432620D01*
X107919047Y2385000D02*
X108014285Y2432620D01*
X108157142Y2432620D01*
X108300000Y2385000D01*
X108395238Y2289762D01*
X108442857Y2194524D01*
X108490476Y2004048D01*
X108490476Y1861191D01*
X108442857Y1670715D01*
X108395238Y1575477D01*
X108300000Y1480239D01*
X108157142Y1432620D01*
X108061904Y1432620D01*
X107919047Y1480239D01*
X107871428Y1527858D01*
X107871428Y1861191D01*
X108061904Y1861191D01*
X107442857Y1432620D02*
X107442857Y2432620D01*
X106966666Y1432620D02*
X106966666Y2432620D01*
X106633333Y1718334D01*
X106300000Y2432620D01*
X106300000Y1432620D01*
X105633333Y2432620D02*
X105442857Y2432620D01*
X105347619Y2385000D01*
X105252380Y2289762D01*
X105204761Y2099286D01*
X105204761Y1765953D01*
X105252380Y1575477D01*
X105347619Y1480239D01*
X105442857Y1432620D01*
X105633333Y1432620D01*
X105728571Y1480239D01*
X105823809Y1575477D01*
X105871428Y1765953D01*
X105871428Y2099286D01*
X105823809Y2289762D01*
X105728571Y2385000D01*
X105633333Y2432620D01*
X104776190Y1432620D02*
X104776190Y2432620D01*
X104204761Y1432620D01*
X104204761Y2432620D01*
X103776190Y1480239D02*
X103633333Y1432620D01*
X103395238Y1432620D01*
X103300000Y1480239D01*
X103252380Y1527858D01*
X103204761Y1623096D01*
X103204761Y1718334D01*
X103252380Y1813572D01*
X103300000Y1861191D01*
X103395238Y1908810D01*
X103585714Y1956429D01*
X103680952Y2004048D01*
X103728571Y2051667D01*
X103776190Y2146905D01*
X103776190Y2242143D01*
X103728571Y2337381D01*
X103680952Y2385000D01*
X103585714Y2432620D01*
X103347619Y2432620D01*
X103204761Y2385000D01*
X101585714Y1432620D02*
X101585714Y1956429D01*
X101633333Y2051667D01*
X101728571Y2099286D01*
X101919047Y2099286D01*
X102014285Y2051667D01*
X101585714Y1480239D02*
X101680952Y1432620D01*
X101919047Y1432620D01*
X102014285Y1480239D01*
X102061904Y1575477D01*
X102061904Y1670715D01*
X102014285Y1765953D01*
X101919047Y1813572D01*
X101680952Y1813572D01*
X101585714Y1861191D01*
X101109523Y2099286D02*
X101109523Y1432620D01*
X101109523Y2004048D02*
X101061904Y2051667D01*
X100966666Y2099286D01*
X100823809Y2099286D01*
X100728571Y2051667D01*
X100680952Y1956429D01*
X100680952Y1432620D01*
X99776190Y1432620D02*
X99776190Y2432620D01*
X99776190Y1480239D02*
X99871428Y1432620D01*
X100061904Y1432620D01*
X100157142Y1480239D01*
X100204761Y1527858D01*
X100252380Y1623096D01*
X100252380Y1908810D01*
X100204761Y2004048D01*
X100157142Y2051667D01*
X100061904Y2099286D01*
X99871428Y2099286D01*
X99776190Y2051667D01*
X118919047Y-217380D02*
X118919047Y306429D01*
X118966666Y401667D01*
X119061904Y449286D01*
X119252380Y449286D01*
X119347619Y401667D01*
X118919047Y-169761D02*
X119014285Y-217380D01*
X119252380Y-217380D01*
X119347619Y-169761D01*
X119395238Y-74523D01*
X119395238Y20715D01*
X119347619Y115953D01*
X119252380Y163572D01*
X119014285Y163572D01*
X118919047Y211191D01*
X118300000Y-217380D02*
X118395238Y-169761D01*
X118442857Y-74523D01*
X118442857Y782620D01*
X117776190Y-217380D02*
X117871428Y-169761D01*
X117919047Y-74523D01*
X117919047Y782620D01*
X116490476Y-217380D02*
X116585714Y-169761D01*
X116633333Y-122142D01*
X116680952Y-26904D01*
X116680952Y258810D01*
X116633333Y354048D01*
X116585714Y401667D01*
X116490476Y449286D01*
X116347619Y449286D01*
X116252380Y401667D01*
X116204761Y354048D01*
X116157142Y258810D01*
X116157142Y-26904D01*
X116204761Y-122142D01*
X116252380Y-169761D01*
X116347619Y-217380D01*
X116490476Y-217380D01*
X115871428Y449286D02*
X115490476Y449286D01*
X115728571Y-217380D02*
X115728571Y639762D01*
X115680952Y735000D01*
X115585714Y782620D01*
X115490476Y782620D01*
X114538095Y449286D02*
X114157142Y449286D01*
X114395238Y782620D02*
X114395238Y-74523D01*
X114347619Y-169761D01*
X114252380Y-217380D01*
X114157142Y-217380D01*
X113823809Y-217380D02*
X113823809Y782620D01*
X113395238Y-217380D02*
X113395238Y306429D01*
X113442857Y401667D01*
X113538095Y449286D01*
X113680952Y449286D01*
X113776190Y401667D01*
X113823809Y354048D01*
X112538095Y-169761D02*
X112633333Y-217380D01*
X112823809Y-217380D01*
X112919047Y-169761D01*
X112966666Y-74523D01*
X112966666Y306429D01*
X112919047Y401667D01*
X112823809Y449286D01*
X112633333Y449286D01*
X112538095Y401667D01*
X112490476Y306429D01*
X112490476Y211191D01*
X112966666Y115953D01*
X110871428Y-169761D02*
X110966666Y-217380D01*
X111157142Y-217380D01*
X111252380Y-169761D01*
X111300000Y-122142D01*
X111347619Y-26904D01*
X111347619Y258810D01*
X111300000Y354048D01*
X111252380Y401667D01*
X111157142Y449286D01*
X110966666Y449286D01*
X110871428Y401667D01*
X110300000Y-217380D02*
X110395238Y-169761D01*
X110442857Y-122142D01*
X110490476Y-26904D01*
X110490476Y258810D01*
X110442857Y354048D01*
X110395238Y401667D01*
X110300000Y449286D01*
X110157142Y449286D01*
X110061904Y401667D01*
X110014285Y354048D01*
X109966666Y258810D01*
X109966666Y-26904D01*
X110014285Y-122142D01*
X110061904Y-169761D01*
X110157142Y-217380D01*
X110300000Y-217380D01*
X109538095Y449286D02*
X109538095Y-217380D01*
X109538095Y354048D02*
X109490476Y401667D01*
X109395238Y449286D01*
X109252380Y449286D01*
X109157142Y401667D01*
X109109523Y306429D01*
X109109523Y-217380D01*
X108776190Y449286D02*
X108395238Y449286D01*
X108633333Y782620D02*
X108633333Y-74523D01*
X108585714Y-169761D01*
X108490476Y-217380D01*
X108395238Y-217380D01*
X108061904Y-217380D02*
X108061904Y449286D01*
X108061904Y258810D02*
X108014285Y354048D01*
X107966666Y401667D01*
X107871428Y449286D01*
X107776190Y449286D01*
X107442857Y-217380D02*
X107442857Y449286D01*
X107442857Y782620D02*
X107490476Y735000D01*
X107442857Y687381D01*
X107395238Y735000D01*
X107442857Y782620D01*
X107442857Y687381D01*
X106966666Y-217380D02*
X106966666Y782620D01*
X106966666Y401667D02*
X106871428Y449286D01*
X106680952Y449286D01*
X106585714Y401667D01*
X106538095Y354048D01*
X106490476Y258810D01*
X106490476Y-26904D01*
X106538095Y-122142D01*
X106585714Y-169761D01*
X106680952Y-217380D01*
X106871428Y-217380D01*
X106966666Y-169761D01*
X105633333Y449286D02*
X105633333Y-217380D01*
X106061904Y449286D02*
X106061904Y-74523D01*
X106014285Y-169761D01*
X105919047Y-217380D01*
X105776190Y-217380D01*
X105680952Y-169761D01*
X105633333Y-122142D01*
X105300000Y449286D02*
X104919047Y449286D01*
X105157142Y782620D02*
X105157142Y-74523D01*
X105109523Y-169761D01*
X105014285Y-217380D01*
X104919047Y-217380D01*
X104442857Y-217380D02*
X104538095Y-169761D01*
X104585714Y-122142D01*
X104633333Y-26904D01*
X104633333Y258810D01*
X104585714Y354048D01*
X104538095Y401667D01*
X104442857Y449286D01*
X104300000Y449286D01*
X104204761Y401667D01*
X104157142Y354048D01*
X104109523Y258810D01*
X104109523Y-26904D01*
X104157142Y-122142D01*
X104204761Y-169761D01*
X104300000Y-217380D01*
X104442857Y-217380D01*
X103680952Y-217380D02*
X103680952Y449286D01*
X103680952Y258810D02*
X103633333Y354048D01*
X103585714Y401667D01*
X103490476Y449286D01*
X103395238Y449286D01*
X103109523Y-169761D02*
X103014285Y-217380D01*
X102823809Y-217380D01*
X102728571Y-169761D01*
X102680952Y-74523D01*
X102680952Y-26904D01*
X102728571Y68334D01*
X102823809Y115953D01*
X102966666Y115953D01*
X103061904Y163572D01*
X103109523Y258810D01*
X103109523Y306429D01*
X103061904Y401667D01*
X102966666Y449286D01*
X102823809Y449286D01*
X102728571Y401667D01*
X102252380Y-122142D02*
X102204761Y-169761D01*
X102252380Y-217380D01*
X102300000Y-169761D01*
X102252380Y-122142D01*
X102252380Y-217380D01*
X102252380Y163572D02*
X102300000Y735000D01*
X102252380Y782620D01*
X102204761Y735000D01*
X102252380Y163572D01*
X102252380Y782620D01*
D14*
X83800000Y-45696000D02*
X141800000Y-45696000D01*
X83800000Y-45696000D02*
G75*
G02X80300000Y-42196000I0J3500000D01*
G01*
X145300000Y-42196000D02*
G75*
G02X141800000Y-45696000I-3500000J0D01*
G01*
X80300000Y6800000D02*
X80300000Y-42196000D01*
X145300000Y6800000D02*
X145300000Y-42196000D01*
X83800000Y10300000D02*
X141800000Y10300000D01*
X80300000Y6800000D02*
G75*
G02X83800000Y10300000I3500000J0D01*
G01*
X141800000Y10300000D02*
G75*
G02X145300000Y6800000I0J-3500000D01*
G01*
D11*
%TO.C,TP1*%
X141350000Y-7250000D02*
G75*
G03X141350000Y-7250000I-700000J0D01*
G01*
%TO.C,TP2*%
X139960000Y-8660000D02*
G75*
G03X139960000Y-8660000I-700000J0D01*
G01*
%TO.C,TP3*%
X141350000Y-10110000D02*
G75*
G03X141350000Y-10110000I-700000J0D01*
G01*
D15*
%TO.C,J6*%
X139321600Y-45750000D02*
X139321600Y-33350000D01*
X86281600Y-45750000D02*
X139321600Y-45750000D01*
X86281600Y-33350000D02*
X86281600Y-45750000D01*
X139321600Y-33350000D02*
X86281600Y-33350000D01*
D11*
%TO.C,J2*%
X140666000Y-3013000D02*
X140666000Y2187000D01*
X140666000Y2187000D02*
X143326000Y2187000D01*
X143326000Y2187000D02*
X143326000Y-3013000D01*
X143326000Y-3013000D02*
X140666000Y-3013000D01*
X143326000Y-2063000D02*
X149326000Y-2063000D01*
X149326000Y-2063000D02*
X149326000Y-1303000D01*
X149326000Y-1303000D02*
X143326000Y-1303000D01*
X143326000Y-2003000D02*
X149326000Y-2003000D01*
X143326000Y-1883000D02*
X149326000Y-1883000D01*
X143326000Y-1763000D02*
X149326000Y-1763000D01*
X143326000Y-1643000D02*
X149326000Y-1643000D01*
X143326000Y-1523000D02*
X149326000Y-1523000D01*
X143326000Y-1403000D02*
X149326000Y-1403000D01*
X140336000Y-2063000D02*
X140666000Y-2063000D01*
X140336000Y-1303000D02*
X140666000Y-1303000D01*
X140666000Y-413000D02*
X143326000Y-413000D01*
X143326000Y477000D02*
X149326000Y477000D01*
X149326000Y477000D02*
X149326000Y1237000D01*
X149326000Y1237000D02*
X143326000Y1237000D01*
X140268929Y477000D02*
X140666000Y477000D01*
X140268929Y1237000D02*
X140666000Y1237000D01*
X137956000Y-1683000D02*
X137956000Y-2953000D01*
X137956000Y-2953000D02*
X139226000Y-2953000D01*
%TO.C,J1*%
X87340000Y9400000D02*
X87340000Y6800000D01*
X87340000Y9400000D02*
X138260000Y9400000D01*
X138260000Y9400000D02*
X138260000Y4200000D01*
X89940000Y4200000D02*
X138260000Y4200000D01*
X89940000Y6800000D02*
X89940000Y4200000D01*
X87340000Y6800000D02*
X89940000Y6800000D01*
X87340000Y4200000D02*
X88670000Y4200000D01*
X87340000Y5530000D02*
X87340000Y4200000D01*
%TD*%
%TO.C,TP1*%
D10*
X142645619Y-8511904D02*
X142645619Y-7940476D01*
X141645619Y-8226190D02*
X142645619Y-8226190D01*
X141645619Y-7607142D02*
X142645619Y-7607142D01*
X142645619Y-7226190D01*
X142598000Y-7130952D01*
X142550380Y-7083333D01*
X142455142Y-7035714D01*
X142312285Y-7035714D01*
X142217047Y-7083333D01*
X142169428Y-7130952D01*
X142121809Y-7226190D01*
X142121809Y-7607142D01*
X141645619Y-6083333D02*
X141645619Y-6654761D01*
X141645619Y-6369047D02*
X142645619Y-6369047D01*
X142502761Y-6464285D01*
X142407523Y-6559523D01*
X142359904Y-6654761D01*
%TO.C,TP3*%
X142645619Y-11371904D02*
X142645619Y-10800476D01*
X141645619Y-11086190D02*
X142645619Y-11086190D01*
X141645619Y-10467142D02*
X142645619Y-10467142D01*
X142645619Y-10086190D01*
X142598000Y-9990952D01*
X142550380Y-9943333D01*
X142455142Y-9895714D01*
X142312285Y-9895714D01*
X142217047Y-9943333D01*
X142169428Y-9990952D01*
X142121809Y-10086190D01*
X142121809Y-10467142D01*
X142645619Y-9562380D02*
X142645619Y-8943333D01*
X142264666Y-9276666D01*
X142264666Y-9133809D01*
X142217047Y-9038571D01*
X142169428Y-8990952D01*
X142074190Y-8943333D01*
X141836095Y-8943333D01*
X141740857Y-8990952D01*
X141693238Y-9038571D01*
X141645619Y-9133809D01*
X141645619Y-9419523D01*
X141693238Y-9514761D01*
X141740857Y-9562380D01*
%TO.C,J6*%
D16*
X113224933Y-41804523D02*
X113224933Y-42711666D01*
X113285409Y-42893095D01*
X113406361Y-43014047D01*
X113587790Y-43074523D01*
X113708742Y-43074523D01*
X112075885Y-41804523D02*
X112317790Y-41804523D01*
X112438742Y-41865000D01*
X112499219Y-41925476D01*
X112620171Y-42106904D01*
X112680647Y-42348809D01*
X112680647Y-42832619D01*
X112620171Y-42953571D01*
X112559695Y-43014047D01*
X112438742Y-43074523D01*
X112196838Y-43074523D01*
X112075885Y-43014047D01*
X112015409Y-42953571D01*
X111954933Y-42832619D01*
X111954933Y-42530238D01*
X112015409Y-42409285D01*
X112075885Y-42348809D01*
X112196838Y-42288333D01*
X112438742Y-42288333D01*
X112559695Y-42348809D01*
X112620171Y-42409285D01*
X112680647Y-42530238D01*
%TO.C,J2*%
D10*
X142480333Y3500120D02*
X142480333Y2785834D01*
X142527952Y2642977D01*
X142623190Y2547739D01*
X142766047Y2500120D01*
X142861285Y2500120D01*
X142051761Y3404881D02*
X142004142Y3452500D01*
X141908904Y3500120D01*
X141670809Y3500120D01*
X141575571Y3452500D01*
X141527952Y3404881D01*
X141480333Y3309643D01*
X141480333Y3214405D01*
X141527952Y3071548D01*
X142099380Y2500120D01*
X141480333Y2500120D01*
%TO.C,J1*%
X85352380Y7133334D02*
X86066666Y7133334D01*
X86209523Y7180953D01*
X86304761Y7276191D01*
X86352380Y7419048D01*
X86352380Y7514286D01*
X86352380Y6133334D02*
X86352380Y6704762D01*
X86352380Y6419048D02*
X85352380Y6419048D01*
X85495238Y6514286D01*
X85590476Y6609524D01*
X85638095Y6704762D01*
%TD*%
M02*
