M48
; DRILL file {KiCad (5.1.7-0-10_14)} date Sunday, October 10, 2021 at 02:00:03 PM
; FORMAT={-:-/ absolute / inch / decimal}
; #@! TF.CreationDate,2021-10-10T14:00:03-05:00
; #@! TF.GenerationSoftware,Kicad,Pcbnew,(5.1.7-0-10_14)
; #@! TF.FileFunction,Plated,1,2,PTH
FMAT,2
INCH
T1C0.0098
T2C0.0157
T3C0.0197
T4C0.0394
T5C0.0406
T6C0.1063
T7C0.1272
%
G90
G05
T1
X3.38Y-0.06
X3.3841Y-0.1165
X3.4295Y0.1165
X3.4541Y0.1077
X3.4755Y-0.1939
X3.5221Y0.1057
X3.5587Y-0.1889
X3.6037Y0.1107
X3.6407Y-0.1917
X3.6497Y-0.5741
X3.6717Y-0.5629
X3.691Y0.0986
X3.6916Y-0.5466
X3.7153Y-0.5534
X3.7157Y-0.1917
X3.7296Y-0.2604
X3.7517Y0.1021
X3.7894Y0.1027
X3.8075Y-0.1925
X3.8221Y-0.4579
X3.8497Y0.3697
X3.8801Y0.0931
X3.8865Y-0.1919
X3.9439Y-0.4662
X3.9599Y-0.4323
X3.9601Y0.0822
X3.9625Y-0.1945
X4.0171Y-0.7141
X4.0245Y-0.4739
X4.0391Y0.0822
X4.0421Y-0.1925
X4.078Y-0.4474
X4.1086Y-0.7436
X4.1087Y-0.189
X4.128Y0.1799
X4.1328Y-0.7387
X4.1379Y0.0603
X4.1469Y-0.4327
X4.1516Y0.2892
X4.1533Y0.3657
X4.1565Y-0.7319
X4.1695Y0.078
X4.2125Y-0.4319
X4.2211Y-0.7161
X4.2273Y0.3737
X4.2334Y0.105
X4.2712Y0.0691
X4.277Y-0.5328
X4.3068Y-0.4319
X4.3415Y0.1032
X4.3869Y-0.4401
X4.3987Y0.0861
X4.4683Y-0.4318
X4.5406Y0.1193
X4.5421Y-0.7097
X4.5873Y0.104
X4.6165Y-0.5247
X4.6712Y-0.4319
X4.7372Y0.1312
X4.7469Y0.3435
X4.7833Y-0.1899
X4.7947Y0.0931
X4.868Y-0.421
X4.8701Y-0.1917
X4.8711Y0.104
X4.8715Y-0.3263
X4.8781Y-0.7097
X4.9037Y-0.4319
X4.9113Y-0.7371
X4.9395Y-0.1903
X4.9407Y0.1075
X4.9853Y0.1137
X4.9879Y-0.7219
X4.9989Y-0.1897
X5.0284Y-0.424
X5.0379Y-0.7457
X5.0495Y0.1025
X5.0629Y-0.1903
X5.0761Y-0.421
X5.1049Y0.1039
X5.1175Y-0.4207
X5.126Y0.2819
X5.1275Y0.2553
X5.1296Y0.1039
X5.1327Y-0.1917
X5.1777Y-0.4179
X5.2101Y-0.4463
X5.2119Y-0.1923
X5.2172Y0.1087
X5.2387Y0.1648
X5.2561Y-0.4657
X5.2669Y0.1087
X5.2751Y0.1454
X5.2931Y-0.1897
X5.3071Y-0.4505
X5.3263Y0.1647
X5.3573Y0.1695
X5.3743Y-0.1897
X5.3763Y-0.4305
X5.4061Y0.1037
X5.4101Y-0.4327
X5.4387Y0.3547
X5.4583Y-0.3467
X5.4587Y0.3759
X5.4991Y-0.2815
X5.5157Y-0.1745
X5.5323Y0.1317
X5.5385Y0.0857
X5.5513Y-0.1787
T2
X3.3896Y0.006
X4.3108Y0.0481
X4.3114Y-0.315
X4.3232Y-0.1496
X4.3232Y-0.2717
X4.3252Y-0.0886
X4.3862Y-0.0709
X4.6224Y-0.2756
X4.6343Y-0.122
T3
X3.2195Y0.2677
X3.2428Y0.3241
X3.2428Y0.2113
X3.2992Y0.3474
X3.2992Y0.188
X3.3556Y0.3241
X3.3556Y0.2113
X3.3789Y0.2677
X5.503Y0.2677
X5.5263Y0.3241
X5.5263Y0.2113
X5.5827Y0.3474
X5.5827Y0.188
X5.6391Y0.3241
X5.6391Y0.2113
X5.6624Y0.2677
X3.2195Y-0.6378
X3.2428Y-0.5814
X3.2428Y-0.6942
X3.2992Y-0.5581
X3.2992Y-0.7175
X3.3556Y-0.5814
X3.3556Y-0.6942
X3.3789Y-0.6378
X5.503Y-0.6378
X5.5263Y-0.5814
X5.5263Y-0.6942
X5.5827Y-0.5581
X5.5827Y-0.7175
X5.6391Y-0.5814
X5.6391Y-0.6942
X5.6624Y-0.6378
T4
X5.4813Y0.0337
X5.4813Y-0.0663
X3.4909Y0.3177
X3.4909Y0.2177
X3.5909Y0.3177
X3.5909Y0.2177
X3.6909Y0.3177
X3.6909Y0.2177
X3.7909Y0.3177
X3.7909Y0.2177
X3.8909Y0.3177
X3.8909Y0.2177
X3.9909Y0.3177
X3.9909Y0.2177
X4.0909Y0.3177
X4.0909Y0.2177
X4.1909Y0.3177
X4.1909Y0.2177
X4.2909Y0.3177
X4.2909Y0.2177
X4.3909Y0.3177
X4.3909Y0.2177
X4.4909Y0.3177
X4.4909Y0.2177
X4.5909Y0.3177
X4.5909Y0.2177
X4.6909Y0.3177
X4.6909Y0.2177
X4.7909Y0.3177
X4.7909Y0.2177
X4.8909Y0.3177
X4.8909Y0.2177
X4.9909Y0.3177
X4.9909Y0.2177
X5.0909Y0.3177
X5.0909Y0.2177
X5.1909Y0.3177
X5.1909Y0.2177
X5.2909Y0.3177
X5.2909Y0.2177
X5.3909Y0.3177
X5.3909Y0.2177
X3.2996Y-0.0323
X3.2996Y-0.1323
X3.2996Y-0.2323
X3.2996Y-0.3323
X3.2996Y-0.4323
X3.2433Y0.0898
X3.3433Y0.0898
T5
X3.7869Y-0.5099
X3.8414Y-0.6217
X3.8959Y-0.5099
X3.9504Y-0.6217
X4.005Y-0.5099
X4.0595Y-0.6217
X4.114Y-0.5099
X4.1686Y-0.6217
X4.2231Y-0.5099
X4.2776Y-0.6217
X4.3321Y-0.5099
X4.3867Y-0.6217
X4.4412Y-0.5099
X4.4957Y-0.6217
X4.5502Y-0.5099
X4.6048Y-0.6217
X4.6593Y-0.5099
X4.7138Y-0.6217
X4.7684Y-0.5099
X4.8229Y-0.6217
X4.8774Y-0.5099
X4.9319Y-0.6217
X4.9865Y-0.5099
X5.041Y-0.6217
X5.0955Y-0.5099
T6
X3.2992Y0.2677
X5.5827Y0.2677
X3.2992Y-0.6378
X5.5827Y-0.6378
T7
X3.5152Y-0.5658
X5.3672Y-0.5658
T0
M30
