%TF.GenerationSoftware,KiCad,Pcbnew,(5.1.7-0-10_14)*%
%TF.CreationDate,2021-10-10T14:00:01-05:00*%
%TF.ProjectId,rascsi_zero,72617363-7369-45f7-9a65-726f2e6b6963,rev?*%
%TF.SameCoordinates,PX59d60c0PY325aa00*%
%TF.FileFunction,Copper,L2,Bot*%
%TF.FilePolarity,Positive*%
%FSLAX46Y46*%
G04 Gerber Fmt 4.6, Leading zero omitted, Abs format (unit mm)*
G04 Created by KiCad (PCBNEW (5.1.7-0-10_14)) date 2021-10-10 14:00:01*
%MOMM*%
%LPD*%
G01*
G04 APERTURE LIST*
%TA.AperFunction,NonConductor*%
%ADD10C,0.150000*%
%TD*%
%TA.AperFunction,Profile*%
%ADD11C,0.050000*%
%TD*%
%TA.AperFunction,ComponentPad*%
%ADD12C,4.845000*%
%TD*%
%TA.AperFunction,ComponentPad*%
%ADD13C,1.545000*%
%TD*%
%TA.AperFunction,SMDPad,CuDef*%
%ADD14R,0.650000X1.950000*%
%TD*%
%TA.AperFunction,ComponentPad*%
%ADD15O,1.700000X1.700000*%
%TD*%
%TA.AperFunction,ComponentPad*%
%ADD16R,1.700000X1.700000*%
%TD*%
%TA.AperFunction,ComponentPad*%
%ADD17C,0.800000*%
%TD*%
%TA.AperFunction,ComponentPad*%
%ADD18C,5.400000*%
%TD*%
%TA.AperFunction,ViaPad*%
%ADD19C,0.500000*%
%TD*%
%TA.AperFunction,ViaPad*%
%ADD20C,0.800000*%
%TD*%
%TA.AperFunction,Conductor*%
%ADD21C,0.150000*%
%TD*%
%TA.AperFunction,Conductor*%
%ADD22C,0.400000*%
%TD*%
%TA.AperFunction,Conductor*%
%ADD23C,0.250000*%
%TD*%
%TA.AperFunction,Conductor*%
%ADD24C,0.254000*%
%TD*%
G04 APERTURE END LIST*
D10*
X143938571Y3266667D02*
X143986190Y3123810D01*
X144033809Y3076191D01*
X144129047Y3028572D01*
X144271904Y3028572D01*
X144367142Y3076191D01*
X144414761Y3123810D01*
X144462380Y3219048D01*
X144462380Y3600000D01*
X143462380Y3600000D01*
X143462380Y3266667D01*
X143510000Y3171429D01*
X143557619Y3123810D01*
X143652857Y3076191D01*
X143748095Y3076191D01*
X143843333Y3123810D01*
X143890952Y3171429D01*
X143938571Y3266667D01*
X143938571Y3600000D01*
X144176666Y2647620D02*
X144176666Y2171429D01*
X144462380Y2742858D02*
X143462380Y2409524D01*
X144462380Y2076191D01*
X144462380Y1742858D02*
X143462380Y1742858D01*
X143462380Y1504762D01*
X143510000Y1361905D01*
X143605238Y1266667D01*
X143700476Y1219048D01*
X143890952Y1171429D01*
X144033809Y1171429D01*
X144224285Y1219048D01*
X144319523Y1266667D01*
X144414761Y1361905D01*
X144462380Y1504762D01*
X144462380Y1742858D01*
X143462380Y76191D02*
X144462380Y-161904D01*
X143748095Y-352380D01*
X144462380Y-542857D01*
X143462380Y-780952D01*
X143462380Y-1352380D02*
X143462380Y-1542857D01*
X143510000Y-1638095D01*
X143605238Y-1733333D01*
X143795714Y-1780952D01*
X144129047Y-1780952D01*
X144319523Y-1733333D01*
X144414761Y-1638095D01*
X144462380Y-1542857D01*
X144462380Y-1352380D01*
X144414761Y-1257142D01*
X144319523Y-1161904D01*
X144129047Y-1114285D01*
X143795714Y-1114285D01*
X143605238Y-1161904D01*
X143510000Y-1257142D01*
X143462380Y-1352380D01*
X144462380Y-2685714D02*
X144462380Y-2209523D01*
X143462380Y-2209523D01*
X143938571Y-3352380D02*
X143938571Y-3019047D01*
X144462380Y-3019047D02*
X143462380Y-3019047D01*
X143462380Y-3495238D01*
D11*
X83800000Y-19700000D02*
X141800000Y-19700000D01*
X83800000Y-19700000D02*
G75*
G02*
X80300000Y-16200000I0J3500000D01*
G01*
X145300000Y-16200000D02*
G75*
G02*
X141800000Y-19700000I-3500000J0D01*
G01*
X80300000Y6800000D02*
X80300000Y-16200000D01*
X145300000Y6800000D02*
X145300000Y-16200000D01*
X83800000Y10300000D02*
X141800000Y10300000D01*
X80300000Y6800000D02*
G75*
G02*
X83800000Y10300000I3500000J0D01*
G01*
X141800000Y10300000D02*
G75*
G02*
X145300000Y6800000I0J-3500000D01*
G01*
D12*
%TO.P,J6,MH2*%
%TO.N,GND*%
X89286320Y-14371200D03*
%TO.P,J6,MH1*%
X136326320Y-14371200D03*
D13*
%TO.P,J6,25*%
%TO.N,TERMPOW*%
X97571320Y-15791200D03*
%TO.P,J6,24*%
%TO.N,GND*%
X100341320Y-15791200D03*
%TO.P,J6,23*%
%TO.N,C-D4*%
X103111320Y-15791200D03*
%TO.P,J6,22*%
%TO.N,C-D2*%
X105881320Y-15791200D03*
%TO.P,J6,21*%
%TO.N,C-D1*%
X108651320Y-15791200D03*
%TO.P,J6,20*%
%TO.N,C-DP*%
X111421320Y-15791200D03*
%TO.P,J6,19*%
%TO.N,C-SEL*%
X114191320Y-15791200D03*
%TO.P,J6,18*%
%TO.N,GND*%
X116961320Y-15791200D03*
%TO.P,J6,17*%
%TO.N,C-ATN*%
X119731320Y-15791200D03*
%TO.P,J6,16*%
%TO.N,GND*%
X122501320Y-15791200D03*
%TO.P,J6,15*%
%TO.N,C-C_D*%
X125271320Y-15791200D03*
%TO.P,J6,14*%
%TO.N,GND*%
X128041320Y-15791200D03*
%TO.P,J6,13*%
%TO.N,C-D7*%
X96186320Y-12951200D03*
%TO.P,J6,12*%
%TO.N,C-D6*%
X98956320Y-12951200D03*
%TO.P,J6,11*%
%TO.N,C-D5*%
X101726320Y-12951200D03*
%TO.P,J6,10*%
%TO.N,C-D3*%
X104496320Y-12951200D03*
%TO.P,J6,9*%
%TO.N,GND*%
X107266320Y-12951200D03*
%TO.P,J6,8*%
%TO.N,C-D0*%
X110036320Y-12951200D03*
%TO.P,J6,7*%
%TO.N,GND*%
X112806320Y-12951200D03*
%TO.P,J6,6*%
%TO.N,C-BSY*%
X115576320Y-12951200D03*
%TO.P,J6,5*%
%TO.N,C-ACK*%
X118346320Y-12951200D03*
%TO.P,J6,4*%
%TO.N,C-RST*%
X121116320Y-12951200D03*
%TO.P,J6,3*%
%TO.N,C-I_O*%
X123886320Y-12951200D03*
%TO.P,J6,2*%
%TO.N,C-MSG*%
X126656320Y-12951200D03*
%TO.P,J6,1*%
%TO.N,C-REQ*%
X129426320Y-12951200D03*
%TD*%
D14*
%TO.P,IC3,20*%
%TO.N,+5V*%
X99956880Y-9638880D03*
%TO.P,IC3,19*%
%TO.N,GND*%
X101226880Y-9638880D03*
%TO.P,IC3,18*%
%TO.N,C-I_O*%
X102496880Y-9638880D03*
%TO.P,IC3,17*%
%TO.N,C-REQ*%
X103766880Y-9638880D03*
%TO.P,IC3,16*%
%TO.N,C-C_D*%
X105036880Y-9638880D03*
%TO.P,IC3,15*%
%TO.N,C-MSG*%
X106306880Y-9638880D03*
%TO.P,IC3,14*%
%TO.N,C-BSY*%
X107576880Y-9638880D03*
%TO.P,IC3,13*%
%TO.N,GND*%
X108846880Y-9638880D03*
%TO.P,IC3,12*%
X110116880Y-9638880D03*
%TO.P,IC3,11*%
X111386880Y-9638880D03*
%TO.P,IC3,10*%
X111386880Y-188880D03*
%TO.P,IC3,9*%
X110116880Y-188880D03*
%TO.P,IC3,8*%
X108846880Y-188880D03*
%TO.P,IC3,7*%
X107576880Y-188880D03*
%TO.P,IC3,6*%
%TO.N,PI-BSY*%
X106306880Y-188880D03*
%TO.P,IC3,5*%
%TO.N,PI-MSG*%
X105036880Y-188880D03*
%TO.P,IC3,4*%
%TO.N,PI-C_D*%
X103766880Y-188880D03*
%TO.P,IC3,3*%
%TO.N,PI-REQ*%
X102496880Y-188880D03*
%TO.P,IC3,2*%
%TO.N,PI-I_O*%
X101226880Y-188880D03*
%TO.P,IC3,1*%
%TO.N,PI-TAD*%
X99956880Y-188880D03*
%TD*%
%TO.P,IC4,20*%
%TO.N,+5V*%
X87002880Y-9638880D03*
%TO.P,IC4,19*%
%TO.N,GND*%
X88272880Y-9638880D03*
%TO.P,IC4,18*%
%TO.N,C-SEL*%
X89542880Y-9638880D03*
%TO.P,IC4,17*%
%TO.N,C-RST*%
X90812880Y-9638880D03*
%TO.P,IC4,16*%
%TO.N,C-ACK*%
X92082880Y-9638880D03*
%TO.P,IC4,15*%
%TO.N,C-ATN*%
X93352880Y-9638880D03*
%TO.P,IC4,14*%
%TO.N,GND*%
X94622880Y-9638880D03*
%TO.P,IC4,13*%
X95892880Y-9638880D03*
%TO.P,IC4,12*%
X97162880Y-9638880D03*
%TO.P,IC4,11*%
X98432880Y-9638880D03*
%TO.P,IC4,10*%
X98432880Y-188880D03*
%TO.P,IC4,9*%
X97162880Y-188880D03*
%TO.P,IC4,8*%
X95892880Y-188880D03*
%TO.P,IC4,7*%
X94622880Y-188880D03*
%TO.P,IC4,6*%
X93352880Y-188880D03*
%TO.P,IC4,5*%
%TO.N,PI-ATN*%
X92082880Y-188880D03*
%TO.P,IC4,4*%
%TO.N,PI-ACK*%
X90812880Y-188880D03*
%TO.P,IC4,3*%
%TO.N,PI-RST*%
X89542880Y-188880D03*
%TO.P,IC4,2*%
%TO.N,PI-SEL*%
X88272880Y-188880D03*
%TO.P,IC4,1*%
%TO.N,PI-IND*%
X87002880Y-188880D03*
%TD*%
%TO.P,IC2,20*%
%TO.N,+5V*%
X137294880Y-188880D03*
%TO.P,IC2,19*%
%TO.N,GND*%
X136024880Y-188880D03*
%TO.P,IC2,18*%
%TO.N,PI-D7*%
X134754880Y-188880D03*
%TO.P,IC2,17*%
%TO.N,PI-D6*%
X133484880Y-188880D03*
%TO.P,IC2,16*%
%TO.N,PI-D5*%
X132214880Y-188880D03*
%TO.P,IC2,15*%
%TO.N,PI-D4*%
X130944880Y-188880D03*
%TO.P,IC2,14*%
%TO.N,PI-D3*%
X129674880Y-188880D03*
%TO.P,IC2,13*%
%TO.N,PI-D2*%
X128404880Y-188880D03*
%TO.P,IC2,12*%
%TO.N,PI-D1*%
X127134880Y-188880D03*
%TO.P,IC2,11*%
%TO.N,PI-D0*%
X125864880Y-188880D03*
%TO.P,IC2,10*%
%TO.N,GND*%
X125864880Y-9638880D03*
%TO.P,IC2,9*%
%TO.N,C-D0*%
X127134880Y-9638880D03*
%TO.P,IC2,8*%
%TO.N,C-D1*%
X128404880Y-9638880D03*
%TO.P,IC2,7*%
%TO.N,C-D2*%
X129674880Y-9638880D03*
%TO.P,IC2,6*%
%TO.N,C-D3*%
X130944880Y-9638880D03*
%TO.P,IC2,5*%
%TO.N,C-D4*%
X132214880Y-9638880D03*
%TO.P,IC2,4*%
%TO.N,C-D5*%
X133484880Y-9638880D03*
%TO.P,IC2,3*%
%TO.N,C-D6*%
X134754880Y-9638880D03*
%TO.P,IC2,2*%
%TO.N,C-D7*%
X136024880Y-9638880D03*
%TO.P,IC2,1*%
%TO.N,PI-DTD*%
X137294880Y-9638880D03*
%TD*%
%TO.P,IC1,20*%
%TO.N,+5V*%
X124340880Y-188880D03*
%TO.P,IC1,19*%
%TO.N,GND*%
X123070880Y-188880D03*
%TO.P,IC1,18*%
%TO.N,PI-DP*%
X121800880Y-188880D03*
%TO.P,IC1,17*%
%TO.N,GND*%
X120530880Y-188880D03*
%TO.P,IC1,16*%
X119260880Y-188880D03*
%TO.P,IC1,15*%
X117990880Y-188880D03*
%TO.P,IC1,14*%
X116720880Y-188880D03*
%TO.P,IC1,13*%
X115450880Y-188880D03*
%TO.P,IC1,12*%
X114180880Y-188880D03*
%TO.P,IC1,11*%
X112910880Y-188880D03*
%TO.P,IC1,10*%
X112910880Y-9638880D03*
%TO.P,IC1,9*%
X114180880Y-9638880D03*
%TO.P,IC1,8*%
X115450880Y-9638880D03*
%TO.P,IC1,7*%
X116720880Y-9638880D03*
%TO.P,IC1,6*%
X117990880Y-9638880D03*
%TO.P,IC1,5*%
X119260880Y-9638880D03*
%TO.P,IC1,4*%
X120530880Y-9638880D03*
%TO.P,IC1,3*%
X121800880Y-9638880D03*
%TO.P,IC1,2*%
%TO.N,C-DP*%
X123070880Y-9638880D03*
%TO.P,IC1,1*%
%TO.N,PI-DTD*%
X124340880Y-9638880D03*
%TD*%
D15*
%TO.P,J2,2*%
%TO.N,GND*%
X139226000Y857000D03*
D16*
%TO.P,J2,1*%
%TO.N,EXT-ACT-LED*%
X139226000Y-1683000D03*
%TD*%
D15*
%TO.P,J7,2*%
%TO.N,GND*%
X84920000Y2280000D03*
D16*
%TO.P,J7,1*%
%TO.N,+5V*%
X82380000Y2280000D03*
%TD*%
D15*
%TO.P,J1,40*%
%TO.N,PI-ACK*%
X136930000Y8070000D03*
%TO.P,J1,39*%
%TO.N,GND*%
X136930000Y5530000D03*
%TO.P,J1,38*%
%TO.N,PI-RST*%
X134390000Y8070000D03*
%TO.P,J1,37*%
%TO.N,PI-BSY*%
X134390000Y5530000D03*
%TO.P,J1,36*%
%TO.N,PI-D6*%
X131850000Y8070000D03*
%TO.P,J1,35*%
%TO.N,PI-ATN*%
X131850000Y5530000D03*
%TO.P,J1,34*%
%TO.N,GND*%
X129310000Y8070000D03*
%TO.P,J1,33*%
%TO.N,PI-D3*%
X129310000Y5530000D03*
%TO.P,J1,32*%
%TO.N,PI-D2*%
X126770000Y8070000D03*
%TO.P,J1,31*%
%TO.N,PI-IND*%
X126770000Y5530000D03*
%TO.P,J1,30*%
%TO.N,GND*%
X124230000Y8070000D03*
%TO.P,J1,29*%
%TO.N,DBG_LED*%
X124230000Y5530000D03*
%TO.P,J1,28*%
%TO.N,N/C*%
X121690000Y8070000D03*
%TO.P,J1,27*%
X121690000Y5530000D03*
%TO.P,J1,26*%
%TO.N,PI-TAD*%
X119150000Y8070000D03*
%TO.P,J1,25*%
%TO.N,GND*%
X119150000Y5530000D03*
%TO.P,J1,24*%
%TO.N,PI-DTD*%
X116610000Y8070000D03*
%TO.P,J1,23*%
%TO.N,PI-D1*%
X116610000Y5530000D03*
%TO.P,J1,22*%
%TO.N,PI-I_O*%
X114070000Y8070000D03*
%TO.P,J1,21*%
%TO.N,N/C*%
X114070000Y5530000D03*
%TO.P,J1,20*%
%TO.N,GND*%
X111530000Y8070000D03*
%TO.P,J1,19*%
%TO.N,PI-D0*%
X111530000Y5530000D03*
%TO.P,J1,18*%
%TO.N,PI-C_D*%
X108990000Y8070000D03*
%TO.P,J1,17*%
%TO.N,+3V3*%
X108990000Y5530000D03*
%TO.P,J1,16*%
%TO.N,PI-MSG*%
X106450000Y8070000D03*
%TO.P,J1,15*%
%TO.N,PI-REQ*%
X106450000Y5530000D03*
%TO.P,J1,14*%
%TO.N,GND*%
X103910000Y8070000D03*
%TO.P,J1,13*%
%TO.N,PI-SEL*%
X103910000Y5530000D03*
%TO.P,J1,12*%
%TO.N,PI-DP*%
X101370000Y8070000D03*
%TO.P,J1,11*%
%TO.N,PI-D7*%
X101370000Y5530000D03*
%TO.P,J1,10*%
%TO.N,PI-D5*%
X98830000Y8070000D03*
%TO.P,J1,9*%
%TO.N,GND*%
X98830000Y5530000D03*
%TO.P,J1,8*%
%TO.N,PI-D4*%
X96290000Y8070000D03*
%TO.P,J1,7*%
%TO.N,PI-ACT*%
X96290000Y5530000D03*
%TO.P,J1,6*%
%TO.N,GND*%
X93750000Y8070000D03*
%TO.P,J1,5*%
%TO.N,PI_SCL*%
X93750000Y5530000D03*
%TO.P,J1,4*%
%TO.N,+5V*%
X91210000Y8070000D03*
%TO.P,J1,3*%
%TO.N,PI_SDA*%
X91210000Y5530000D03*
%TO.P,J1,2*%
%TO.N,+5V*%
X88670000Y8070000D03*
D16*
%TO.P,J1,1*%
%TO.N,+3V3*%
X88670000Y5530000D03*
%TD*%
D17*
%TO.P,H2,1*%
%TO.N,GND*%
X143231891Y8231891D03*
X141800000Y8825000D03*
X140368109Y8231891D03*
X139775000Y6800000D03*
X140368109Y5368109D03*
X141800000Y4775000D03*
X143231891Y5368109D03*
X143825000Y6800000D03*
D18*
X141800000Y6800000D03*
%TD*%
D17*
%TO.P,H1,1*%
%TO.N,GND*%
X85231891Y8231891D03*
X83800000Y8825000D03*
X82368109Y8231891D03*
X81775000Y6800000D03*
X82368109Y5368109D03*
X83800000Y4775000D03*
X85231891Y5368109D03*
X85825000Y6800000D03*
D18*
X83800000Y6800000D03*
%TD*%
D15*
%TO.P,J4,5*%
%TO.N,PI_SDA*%
X83810000Y-820000D03*
%TO.P,J4,4*%
%TO.N,PI_SCL*%
X83810000Y-3360000D03*
%TO.P,J4,3*%
%TO.N,+3V3*%
X83810000Y-5900000D03*
%TO.P,J4,2*%
%TO.N,GND*%
X83810000Y-8440000D03*
D16*
%TO.P,J4,1*%
%TO.N,+5V*%
X83810000Y-10980000D03*
%TD*%
D17*
%TO.P,H4,1*%
%TO.N,GND*%
X143231891Y-14768109D03*
X141800000Y-14175000D03*
X140368109Y-14768109D03*
X139775000Y-16200000D03*
X140368109Y-17631891D03*
X141800000Y-18225000D03*
X143231891Y-17631891D03*
X143825000Y-16200000D03*
D18*
X141800000Y-16200000D03*
%TD*%
D17*
%TO.P,H3,1*%
%TO.N,GND*%
X85231891Y-14768109D03*
X83800000Y-14175000D03*
X82368109Y-14768109D03*
X81775000Y-16200000D03*
X82368109Y-17631891D03*
X83800000Y-18225000D03*
X85231891Y-17631891D03*
X85825000Y-16200000D03*
D18*
X83800000Y-16200000D03*
%TD*%
D19*
%TO.N,GND*%
X108635240Y-13533656D03*
X139677760Y-7149840D03*
D20*
X109810000Y-3800000D03*
X109810000Y-6900000D03*
X117410000Y-7000000D03*
X117710000Y-3100000D03*
X111410000Y-1800000D03*
%TO.N,+3V3*%
X86097001Y153201D03*
X109495195Y1221677D03*
D19*
%TO.N,+5V*%
X138640757Y-8806603D03*
X123736720Y-8287760D03*
X100582240Y-10980000D03*
D20*
X109860000Y-2250000D03*
X109510000Y-8000000D03*
D19*
%TO.N,C-REQ*%
X98717720Y-4874000D03*
X127963280Y-18940520D03*
X104358245Y-18887630D03*
%TO.N,C-MSG*%
X102669960Y-4889240D03*
X126693280Y-18336000D03*
X105575463Y-18589890D03*
%TO.N,C-BSY*%
X115369960Y-18026120D03*
X107216560Y-18189947D03*
X104360000Y-4800000D03*
%TO.N,C-SEL*%
X88278320Y-4924800D03*
X92703648Y-14583074D03*
%TO.N,C-RST*%
X90391600Y-4797800D03*
X93261800Y-14297400D03*
%TO.N,C-ACK*%
X92474400Y-4868920D03*
X93767303Y-13883031D03*
%TO.N,C-ATN*%
X94379400Y-4868920D03*
X117260244Y-13327753D03*
X94369673Y-14057085D03*
%TO.N,C-DP*%
X121496440Y-4823200D03*
X123647416Y-10693658D03*
X113495440Y-10967303D03*
%TO.N,C-D0*%
X111427880Y-11178280D03*
X127720812Y-10770763D03*
X123700250Y-4868920D03*
%TO.N,C-D1*%
X125463920Y-4833360D03*
X109391812Y-10970668D03*
X128933560Y-10693658D03*
%TO.N,C-D2*%
X126972680Y-4818120D03*
X106998120Y-10970668D03*
X129985120Y-10685520D03*
%TO.N,C-D3*%
X128598280Y-4833360D03*
X131512879Y-10614545D03*
X105331567Y-10990881D03*
%TO.N,C-D4*%
X130371200Y-4868920D03*
X132337160Y-11335760D03*
X103581848Y-11362845D03*
%TO.N,C-D5*%
X132382880Y-4884160D03*
X133505560Y-11828520D03*
X102222086Y-12036032D03*
%TO.N,C-D6*%
X134445360Y-4818120D03*
X134800960Y-11442440D03*
X100174106Y-11841594D03*
%TO.N,C-D7*%
X136507840Y-4818120D03*
X97081960Y-11630400D03*
X136558640Y-10934440D03*
%TO.N,C-I_O*%
X96711120Y-4889240D03*
X123904360Y-18026120D03*
X102034960Y-18137880D03*
%TO.N,C-C_D*%
X100648120Y-4940040D03*
X124747640Y-18721970D03*
X104972560Y-18762086D03*
%TO.N,TERMPOW*%
X94731573Y-6612928D03*
%TO.N,PI-D7*%
X107374040Y9492240D03*
X138143600Y9009640D03*
X137315560Y2634240D03*
%TO.N,PI-D6*%
X133777997Y2761350D03*
%TO.N,PI-D5*%
X132516793Y2761350D03*
X105450812Y7345204D03*
X130200922Y7161099D03*
X105494219Y9289622D03*
%TO.N,PI-D4*%
X130291496Y2639430D03*
X130237743Y6485038D03*
%TO.N,PI-D3*%
X129664483Y2639430D03*
%TO.N,PI-D2*%
X128257999Y2603839D03*
%TO.N,PI-D1*%
X125494400Y2730760D03*
X116517103Y2640937D03*
%TO.N,PI-D0*%
X123726560Y2640934D03*
X111727600Y2187200D03*
%TO.N,PI-DP*%
X120571880Y8725160D03*
X121786000Y2363927D03*
%TO.N,PI-BSY*%
X105904438Y1982405D03*
X133986634Y3692657D03*
%TO.N,PI-MSG*%
X102593760Y2086912D03*
X105103847Y1530395D03*
X108487990Y1755510D03*
%TO.N,PI-C_D*%
X100587160Y2086912D03*
X110275179Y2620495D03*
%TO.N,PI-REQ*%
X98555160Y2363921D03*
X107529513Y2666605D03*
%TO.N,PI-I_O*%
X96251594Y2608124D03*
X115331730Y3029917D03*
%TO.N,PI-ATN*%
X133063618Y4186430D03*
X93752059Y2504661D03*
%TO.N,PI-ACK*%
X91534600Y2812040D03*
X136076040Y4305560D03*
%TO.N,PI-RST*%
X89461960Y2685040D03*
X135288640Y4183640D03*
%TO.N,PI-SEL*%
X87734760Y2735840D03*
X104851390Y4569786D03*
%TO.N,DBG_LED*%
X126627240Y2888240D03*
X140677220Y2177040D03*
X141003640Y-4538720D03*
%TO.N,PI_SCL*%
X85956760Y-2958840D03*
%TO.N,PI_SDA*%
X85852089Y-1524630D03*
%TO.N,PI-ACT*%
X97783000Y9390640D03*
X140521040Y3345440D03*
X138651600Y9548120D03*
X140099629Y-4432415D03*
%TO.N,PI-IND*%
X87109920Y2959360D03*
%TO.N,PI-TAD*%
X95293800Y2593600D03*
X120324668Y3333211D03*
%TO.N,PI-DTD*%
X137417160Y-10990320D03*
X118648884Y-10970670D03*
X124552793Y-10970669D03*
%TD*%
D21*
%TO.N,GND*%
X94802001Y7017999D02*
X93750000Y8070000D01*
X94802001Y-9759D02*
X94802001Y7017999D01*
X94622880Y-188880D02*
X94802001Y-9759D01*
D22*
X112707001Y6892999D02*
X112707001Y2112039D01*
X111530000Y8070000D02*
X112707001Y6892999D01*
X112910880Y1908160D02*
X112910880Y-188880D01*
X112707001Y2112039D02*
X112910880Y1908160D01*
X123052999Y-170999D02*
X123070880Y-188880D01*
X123052999Y6892999D02*
X123052999Y-170999D01*
X124230000Y8070000D02*
X123052999Y6892999D01*
X105428400Y3951714D02*
X105428400Y4809638D01*
X107576880Y1803234D02*
X105428400Y3951714D01*
X107576880Y-188880D02*
X107576880Y1803234D01*
X105428400Y4809638D02*
X105087001Y5151037D01*
X105087001Y6892999D02*
X103910000Y8070000D01*
X105087001Y5151037D02*
X105087001Y6892999D01*
D21*
X108846880Y-11123850D02*
X108846880Y-9638880D01*
X108567841Y-11402888D02*
X108846880Y-11123850D01*
X108635240Y-13533656D02*
X108784345Y-13384551D01*
X108784345Y-13384551D02*
X108567841Y-13168048D01*
X108567841Y-13168048D02*
X108567841Y-11402888D01*
D23*
X98434881Y-8411879D02*
X98432880Y-8413880D01*
X101224879Y-8411879D02*
X98434881Y-8411879D01*
X101226880Y-8413880D02*
X101224879Y-8411879D01*
X98432880Y-8413880D02*
X98432880Y-9638880D01*
X101226880Y-9638880D02*
X101226880Y-8413880D01*
X100341320Y-15791200D02*
X100341320Y-12551880D01*
X101226880Y-11666320D02*
X101226880Y-9638880D01*
X100341320Y-12551880D02*
X101226880Y-11666320D01*
X94622880Y-9638880D02*
X94622880Y-12904022D01*
X94622880Y-12904022D02*
X96224538Y-14505680D01*
X99055800Y-14505680D02*
X100341320Y-15791200D01*
X96224538Y-14505680D02*
X99055800Y-14505680D01*
D21*
X136024880Y-188880D02*
X136024880Y485040D01*
X138376001Y1706999D02*
X139226000Y857000D01*
X137246839Y1706999D02*
X138376001Y1706999D01*
X136024880Y485040D02*
X137246839Y1706999D01*
X138173999Y-5646079D02*
X139677760Y-7149840D01*
X138173999Y-195001D02*
X138173999Y-5646079D01*
X139226000Y857000D02*
X138173999Y-195001D01*
D22*
%TO.N,+3V3*%
X88670000Y5530000D02*
X88121000Y5530000D01*
X88121000Y5530000D02*
X86097001Y3506001D01*
X86097001Y3506001D02*
X86097001Y153201D01*
D23*
X108990000Y5530000D02*
X108990000Y1726872D01*
X108990000Y1726872D02*
X109495195Y1221677D01*
D22*
X86097001Y153201D02*
X85275088Y-668712D01*
X85275088Y-668712D02*
X85275088Y-4434912D01*
X85275088Y-4434912D02*
X83810000Y-5900000D01*
%TO.N,+5V*%
X82380000Y2280000D02*
X82380000Y1800680D01*
X82380000Y1800680D02*
X81135840Y556520D01*
X81135840Y556520D02*
X81135840Y-9827000D01*
X82288840Y-10980000D02*
X83810000Y-10980000D01*
X81135840Y-9827000D02*
X82288840Y-10980000D01*
X85661760Y-10980000D02*
X87002880Y-9638880D01*
X83810000Y-10980000D02*
X85661760Y-10980000D01*
D23*
X137294880Y-188880D02*
X137294880Y-7460726D01*
X137294880Y-7460726D02*
X138640757Y-8806603D01*
X124340880Y-188880D02*
X124340880Y-2649320D01*
X124340880Y-2649320D02*
X123198240Y-3791960D01*
X123198240Y-7749280D02*
X123736720Y-8287760D01*
X123198240Y-3791960D02*
X123198240Y-7749280D01*
X99956880Y-10354640D02*
X100582240Y-10980000D01*
X99956880Y-9638880D02*
X99956880Y-10354640D01*
X109157999Y-7647999D02*
X109510000Y-8000000D01*
X109157999Y-2952001D02*
X109157999Y-7647999D01*
X109860000Y-2250000D02*
X109157999Y-2952001D01*
D21*
%TO.N,C-REQ*%
X99913116Y-4874000D02*
X98717720Y-4874000D01*
X103766880Y-9638880D02*
X103766880Y-8513880D01*
X100645042Y-5392042D02*
X100431158Y-5392042D01*
X103766880Y-8513880D02*
X100645042Y-5392042D01*
X100431158Y-5392042D02*
X99913116Y-4874000D01*
X129426320Y-12951200D02*
X129426320Y-17477480D01*
X129426320Y-17477480D02*
X127963280Y-18940520D01*
X104033849Y-9905849D02*
X104033849Y-11922591D01*
X104108246Y-14541886D02*
X104108246Y-18637631D01*
X103766880Y-9638880D02*
X104033849Y-9905849D01*
X103521819Y-13955459D02*
X104108246Y-14541886D01*
X104108246Y-18637631D02*
X104358245Y-18887630D01*
X103521819Y-12434621D02*
X103521819Y-13955459D01*
X104033849Y-11922591D02*
X103521819Y-12434621D01*
%TO.N,C-MSG*%
X106306880Y-8172607D02*
X103023513Y-4889240D01*
X103023513Y-4889240D02*
X102669960Y-4889240D01*
X106306880Y-9638880D02*
X106306880Y-8172607D01*
X126656320Y-18299040D02*
X126693280Y-18336000D01*
X126656320Y-12951200D02*
X126656320Y-18299040D01*
X106306880Y-12076626D02*
X106014809Y-12368697D01*
X106306880Y-9638880D02*
X106306880Y-12076626D01*
X106014809Y-12368697D02*
X106014808Y-13487472D01*
X104906819Y-17921246D02*
X105575463Y-18589890D01*
X104906819Y-14595461D02*
X104906819Y-17921246D01*
X106014808Y-13487472D02*
X104906819Y-14595461D01*
%TO.N,C-BSY*%
X107576880Y-7804800D02*
X104646080Y-4874000D01*
X107576880Y-9638880D02*
X107576880Y-7804800D01*
X115576320Y-12951200D02*
X115576320Y-17819760D01*
X115576320Y-17819760D02*
X115369960Y-18026120D01*
X107216560Y-18189947D02*
X107216560Y-14443222D01*
X108240821Y-13259113D02*
X108240821Y-10302821D01*
X108183239Y-13476543D02*
X108183239Y-13316695D01*
X108240821Y-10302821D02*
X107576880Y-9638880D01*
X107216560Y-14443222D02*
X108183239Y-13476543D01*
X108183239Y-13316695D02*
X108240821Y-13259113D01*
X104434000Y-4874000D02*
X104360000Y-4800000D01*
X104646080Y-4874000D02*
X104434000Y-4874000D01*
%TO.N,C-SEL*%
X89542880Y-6189360D02*
X88278320Y-4924800D01*
X89542880Y-9638880D02*
X89542880Y-6189360D01*
X89542880Y-9638880D02*
X89542880Y-10772704D01*
X89542880Y-10772704D02*
X92703648Y-13933472D01*
X92703648Y-13933472D02*
X92703648Y-14583074D01*
%TO.N,C-RST*%
X90812880Y-9638880D02*
X90812880Y-5219080D01*
X90812880Y-5219080D02*
X90391600Y-4797800D01*
X90812880Y-9638880D02*
X90812880Y-11650952D01*
X90812880Y-11650952D02*
X93261800Y-14099872D01*
X93261800Y-14099872D02*
X93261800Y-14297400D01*
%TO.N,C-ACK*%
X92082880Y-5260440D02*
X92474400Y-4868920D01*
X92082880Y-9638880D02*
X92082880Y-5260440D01*
X92082880Y-9638880D02*
X92082880Y-12198608D01*
X92082880Y-12198608D02*
X93767303Y-13883031D01*
%TO.N,C-ATN*%
X93352880Y-5895440D02*
X94379400Y-4868920D01*
X93352880Y-9638880D02*
X93352880Y-5895440D01*
X119723691Y-15791200D02*
X119731320Y-15791200D01*
X117260244Y-13327753D02*
X119723691Y-15791200D01*
X93352880Y-9638880D02*
X93352880Y-12823797D01*
X93352880Y-12823797D02*
X94369673Y-13840590D01*
X94369673Y-13840590D02*
X94369673Y-14057085D01*
%TO.N,C-DP*%
X123647416Y-10215416D02*
X123070880Y-9638880D01*
X123647416Y-10693658D02*
X123647416Y-10215416D01*
X111421320Y-12652310D02*
X113106327Y-10967303D01*
X111421320Y-15791200D02*
X111421320Y-12652310D01*
X113106327Y-10967303D02*
X113495440Y-10967303D01*
X123070880Y-8513880D02*
X121496440Y-6939440D01*
X123070880Y-9638880D02*
X123070880Y-8513880D01*
X121496440Y-6939440D02*
X121496440Y-4823200D01*
%TO.N,C-D0*%
X110036320Y-12951200D02*
X111427880Y-11559640D01*
X111427880Y-11559640D02*
X111427880Y-11178280D01*
X127720812Y-10224812D02*
X127134880Y-9638880D01*
X127720812Y-10770763D02*
X127720812Y-10224812D01*
X127134880Y-9638880D02*
X127134880Y-8303550D01*
X127134880Y-8303550D02*
X123700250Y-4868920D01*
%TO.N,C-D1*%
X128404880Y-9638880D02*
X128404880Y-7774320D01*
X128404880Y-7774320D02*
X125463920Y-4833360D01*
X128933560Y-10167560D02*
X128404880Y-9638880D01*
X128933560Y-10693658D02*
X128933560Y-10167560D01*
X108651320Y-15791200D02*
X109125517Y-15317003D01*
X109125517Y-13333973D02*
X108844851Y-13053307D01*
X108844851Y-13053307D02*
X108844851Y-11517629D01*
X109125517Y-15317003D02*
X109125517Y-13333973D01*
X108844851Y-11517629D02*
X109391812Y-10970668D01*
%TO.N,C-D2*%
X129674880Y-9638880D02*
X129674880Y-6931040D01*
X127561960Y-4818120D02*
X126972680Y-4818120D01*
X129674880Y-6931040D02*
X127561960Y-4818120D01*
X129985120Y-9949120D02*
X129674880Y-9638880D01*
X129985120Y-10685520D02*
X129985120Y-9949120D01*
X105881320Y-15791200D02*
X105881320Y-14698721D01*
X106291819Y-12483439D02*
X106998120Y-11777138D01*
X105881320Y-14698721D02*
X106291819Y-14288222D01*
X106291819Y-14288222D02*
X106291819Y-12483439D01*
X106998120Y-11777138D02*
X106998120Y-10970668D01*
%TO.N,C-D3*%
X130944880Y-9638880D02*
X130944880Y-7129160D01*
X128649080Y-4833360D02*
X128598280Y-4833360D01*
X130944880Y-7129160D02*
X128649080Y-4833360D01*
X131512879Y-10206879D02*
X130944880Y-9638880D01*
X131512879Y-10614545D02*
X131512879Y-10206879D01*
X104496320Y-12951200D02*
X104496320Y-11826128D01*
X104496320Y-11826128D02*
X105331567Y-10990881D01*
%TO.N,C-D4*%
X132214880Y-6712600D02*
X130371200Y-4868920D01*
X132214880Y-9638880D02*
X132214880Y-6712600D01*
X132337160Y-9761160D02*
X132214880Y-9638880D01*
X132337160Y-11335760D02*
X132337160Y-9761160D01*
X103111320Y-15791200D02*
X103111320Y-11833373D01*
X103111320Y-11833373D02*
X103581848Y-11362845D01*
%TO.N,C-D5*%
X133484880Y-9638880D02*
X133484880Y-5986160D01*
X133484880Y-5986160D02*
X132382880Y-4884160D01*
X133505560Y-9659560D02*
X133484880Y-9638880D01*
X133505560Y-11828520D02*
X133505560Y-9659560D01*
X101726320Y-12951200D02*
X102222086Y-12455434D01*
X102222086Y-12455434D02*
X102222086Y-12036032D01*
%TO.N,C-D6*%
X134754880Y-5127640D02*
X134445360Y-4818120D01*
X134754880Y-9638880D02*
X134754880Y-5127640D01*
X134800960Y-9684960D02*
X134754880Y-9638880D01*
X134800960Y-11442440D02*
X134800960Y-9684960D01*
X100065926Y-11841594D02*
X100174106Y-11841594D01*
X98956320Y-12951200D02*
X100065926Y-11841594D01*
%TO.N,C-D7*%
X136024880Y-5301080D02*
X136507840Y-4818120D01*
X136024880Y-9638880D02*
X136024880Y-5301080D01*
X97081960Y-12055560D02*
X97081960Y-11630400D01*
X96186320Y-12951200D02*
X97081960Y-12055560D01*
X136024880Y-10400680D02*
X136024880Y-9638880D01*
X136558640Y-10934440D02*
X136024880Y-10400680D01*
%TO.N,C-I_O*%
X102496880Y-9638880D02*
X102496880Y-8513880D01*
X102496880Y-8513880D02*
X99309002Y-5326002D01*
X99309002Y-5326002D02*
X97147882Y-5326002D01*
X97147882Y-5326002D02*
X96711120Y-4889240D01*
X123886320Y-18008080D02*
X123904360Y-18026120D01*
X123886320Y-12951200D02*
X123886320Y-18008080D01*
X102758151Y-14702107D02*
X102758151Y-9900151D01*
X102034960Y-18137880D02*
X102034960Y-15425298D01*
X102034960Y-15425298D02*
X102758151Y-14702107D01*
X102758151Y-9900151D02*
X102496880Y-9638880D01*
%TO.N,C-C_D*%
X101463040Y-4940040D02*
X100648120Y-4940040D01*
X105036880Y-8513880D02*
X101463040Y-4940040D01*
X105036880Y-9638880D02*
X105036880Y-8513880D01*
X125271320Y-15791200D02*
X125271320Y-18198290D01*
X125271320Y-18198290D02*
X124747640Y-18721970D01*
X105598429Y-13288579D02*
X104629809Y-14257199D01*
X105789071Y-11172617D02*
X105598429Y-11363259D01*
X105036880Y-10021740D02*
X105789071Y-10773931D01*
X105036880Y-9638880D02*
X105036880Y-10021740D01*
X104629809Y-18419335D02*
X104972560Y-18762086D01*
X104629809Y-14257199D02*
X104629809Y-18419335D01*
X105598429Y-11363259D02*
X105598429Y-13288579D01*
X105789071Y-10773931D02*
X105789071Y-11172617D01*
D23*
%TO.N,TERMPOW*%
X96976884Y-15791200D02*
X94022710Y-12837026D01*
X94022710Y-7321791D02*
X94731573Y-6612928D01*
X97571320Y-15791200D02*
X96976884Y-15791200D01*
X94022710Y-12837026D02*
X94022710Y-7321791D01*
D21*
%TO.N,PI-D7*%
X102422001Y6582001D02*
X102422001Y8080961D01*
X101370000Y5530000D02*
X102422001Y6582001D01*
X104082672Y9741632D02*
X106088328Y9741632D01*
X102422001Y8080961D02*
X104082672Y9741632D01*
X106337720Y9492240D02*
X107374040Y9492240D01*
X106088328Y9741632D02*
X106337720Y9492240D01*
X134754880Y-188880D02*
X134754880Y936120D01*
X134754880Y936120D02*
X136453000Y2634240D01*
X138143600Y3462280D02*
X137315560Y2634240D01*
X138143600Y9009640D02*
X138143600Y3462280D01*
X136453000Y2634240D02*
X137315560Y2634240D01*
%TO.N,PI-D6*%
X133484880Y-188880D02*
X133484880Y845720D01*
X132902001Y5461037D02*
X132902001Y7017999D01*
X133515628Y4847410D02*
X132902001Y5461037D01*
X132902001Y7017999D02*
X131850000Y8070000D01*
X133484880Y3907964D02*
X133515628Y3938712D01*
X133515628Y3938712D02*
X133515628Y4847410D01*
X133575850Y2761350D02*
X133484880Y2852320D01*
X133777997Y2761350D02*
X133575850Y2761350D01*
X133484880Y2852320D02*
X133484880Y3907964D01*
X133484880Y-188880D02*
X133484880Y2852320D01*
%TO.N,PI-D5*%
X132214880Y2459437D02*
X132516793Y2761350D01*
X132214880Y-188880D02*
X132214880Y2459437D01*
X132516793Y2761350D02*
X130797999Y4480144D01*
X130797999Y4480144D02*
X130797999Y6564022D01*
X130797999Y6564022D02*
X130200922Y7161099D01*
X105450812Y7345204D02*
X105200813Y7595203D01*
X105200813Y7595203D02*
X105200813Y8996216D01*
X105200813Y8996216D02*
X105494219Y9289622D01*
%TO.N,PI-D4*%
X130944880Y-188880D02*
X130944880Y1986046D01*
X130944880Y1986046D02*
X130291496Y2639430D01*
X130487742Y6235039D02*
X130237743Y6485038D01*
X130291496Y2639430D02*
X130487742Y2835676D01*
X130487742Y2835676D02*
X130487742Y6235039D01*
%TO.N,PI-D3*%
X129674880Y-188880D02*
X129674880Y2629033D01*
X129310000Y5530000D02*
X129310000Y2993913D01*
X129674880Y2629033D02*
X129664483Y2639430D01*
X129310000Y2993913D02*
X129664483Y2639430D01*
%TO.N,PI-D2*%
X128257999Y6582001D02*
X126770000Y8070000D01*
X128404880Y-188880D02*
X128257999Y-41999D01*
X128257999Y2603839D02*
X128257999Y6582001D01*
X128257999Y-41999D02*
X128257999Y2603839D01*
%TO.N,PI-D1*%
X127134880Y-188880D02*
X127134880Y1095360D01*
X125499480Y2730760D02*
X125494400Y2730760D01*
X127134880Y1095360D02*
X125499480Y2730760D01*
X116610000Y5530000D02*
X116610000Y2733834D01*
X116610000Y2733834D02*
X116517103Y2640937D01*
%TO.N,PI-D0*%
X124160066Y2640934D02*
X123726560Y2640934D01*
X125864880Y936120D02*
X124160066Y2640934D01*
X125864880Y-188880D02*
X125864880Y936120D01*
X111727600Y5332400D02*
X111530000Y5530000D01*
X111727600Y2187200D02*
X111727600Y5332400D01*
%TO.N,PI-DP*%
X120571880Y3754941D02*
X121800880Y2525941D01*
X120571880Y8725160D02*
X120571880Y3754941D01*
X121800880Y2525941D02*
X121800880Y-188880D01*
%TO.N,PI-BSY*%
X106306880Y-188880D02*
X106306880Y1633840D01*
X106306880Y1633840D02*
X105958315Y1982405D01*
X105958315Y1982405D02*
X105904438Y1982405D01*
X134390000Y4096023D02*
X133986634Y3692657D01*
X134390000Y5530000D02*
X134390000Y4096023D01*
%TO.N,PI-MSG*%
X103886088Y2086912D02*
X102593760Y2086912D01*
X105036880Y936120D02*
X103886088Y2086912D01*
X105036880Y-188880D02*
X105036880Y936120D01*
X105036880Y-188880D02*
X105036880Y1463428D01*
X105036880Y1463428D02*
X105103847Y1530395D01*
X107937999Y6582001D02*
X107937999Y3007167D01*
X106450000Y8070000D02*
X107937999Y6582001D01*
X108487990Y2457176D02*
X108487990Y1755510D01*
X107937999Y3007167D02*
X108487990Y2457176D01*
%TO.N,PI-C_D*%
X103766880Y-188880D02*
X103766880Y936120D01*
X103289980Y1413020D02*
X102167033Y1413020D01*
X101493141Y2086912D02*
X100587160Y2086912D01*
X102167033Y1413020D02*
X101493141Y2086912D01*
X103766880Y936120D02*
X103289980Y1413020D01*
X108990000Y8070000D02*
X110275179Y6784821D01*
X110275179Y6784821D02*
X110275179Y2620495D01*
%TO.N,PI-REQ*%
X99284171Y1634910D02*
X98555160Y2363921D01*
X102496880Y461120D02*
X101323090Y1634910D01*
X101323090Y1634910D02*
X99284171Y1634910D01*
X102496880Y-188880D02*
X102496880Y461120D01*
X106450000Y3746118D02*
X107529513Y2666605D01*
X106450000Y5530000D02*
X106450000Y3746118D01*
%TO.N,PI-I_O*%
X101226880Y-188880D02*
X101226880Y936120D01*
X97501819Y1357899D02*
X96251594Y2608124D01*
X100805101Y1357899D02*
X97501819Y1357899D01*
X101226880Y936120D02*
X100805101Y1357899D01*
X114070000Y8070000D02*
X115331730Y6808270D01*
X115331730Y6808270D02*
X115331730Y3029917D01*
%TO.N,PI-ATN*%
X133063618Y4316382D02*
X133063618Y4186430D01*
X131850000Y5530000D02*
X133063618Y4316382D01*
X92082880Y835482D02*
X93752059Y2504661D01*
X92082880Y-188880D02*
X92082880Y835482D01*
%TO.N,PI-ACK*%
X90812880Y2090320D02*
X91534600Y2812040D01*
X90812880Y-188880D02*
X90812880Y2090320D01*
X135826041Y6966041D02*
X136930000Y8070000D01*
X135826041Y4555559D02*
X135826041Y6966041D01*
X136076040Y4305560D02*
X135826041Y4555559D01*
%TO.N,PI-RST*%
X89542880Y2604120D02*
X89461960Y2685040D01*
X89542880Y-188880D02*
X89542880Y2604120D01*
X135538639Y6921361D02*
X134390000Y8070000D01*
X135538639Y4433639D02*
X135538639Y6921361D01*
X135288640Y4183640D02*
X135538639Y4433639D01*
%TO.N,PI-SEL*%
X88272880Y2197720D02*
X87734760Y2735840D01*
X88272880Y-188880D02*
X88272880Y2197720D01*
X104851390Y4588610D02*
X104851390Y4569786D01*
X103910000Y5530000D02*
X104851390Y4588610D01*
%TO.N,DBG_LED*%
X126627240Y3132760D02*
X126627240Y2888240D01*
X124230000Y5530000D02*
X126627240Y3132760D01*
X140677220Y-4212300D02*
X141003640Y-4538720D01*
X140677220Y2177040D02*
X140677220Y-4212300D01*
%TO.N,PI_SCL*%
X93750000Y5530000D02*
X93750000Y3141842D01*
X93750000Y3141842D02*
X91339881Y731723D01*
X91339881Y731723D02*
X91339881Y-1522879D01*
X89903920Y-2958840D02*
X85956760Y-2958840D01*
X91339881Y-1522879D02*
X89903920Y-2958840D01*
%TO.N,PI_SDA*%
X89870732Y-1524630D02*
X85852089Y-1524630D01*
X90069881Y4389881D02*
X90069881Y-1325481D01*
X90069881Y-1325481D02*
X89870732Y-1524630D01*
X91210000Y5530000D02*
X90069881Y4389881D01*
%TO.N,PI-ACT*%
X97342001Y6582001D02*
X97342001Y8949641D01*
X96290000Y5530000D02*
X97342001Y6582001D01*
X97342001Y8949641D02*
X97783000Y9390640D01*
X138897999Y4968481D02*
X138897999Y9291561D01*
X140521040Y3345440D02*
X138897999Y4968481D01*
X138651600Y9537960D02*
X138651600Y9548120D01*
X138897999Y9291561D02*
X138651600Y9537960D01*
X140349628Y1835670D02*
X140349628Y-4182416D01*
X140521040Y3345440D02*
X140225219Y3049619D01*
X140225219Y1960079D02*
X140349628Y1835670D01*
X140225219Y3049619D02*
X140225219Y1960079D01*
X140349628Y-4182416D02*
X140099629Y-4432415D01*
%TO.N,PI-IND*%
X87002880Y2852320D02*
X87109920Y2959360D01*
X87002880Y-188880D02*
X87002880Y2852320D01*
X126770000Y5060590D02*
X126986057Y4844533D01*
X126770000Y5530000D02*
X126770000Y5060590D01*
%TO.N,PI-TAD*%
X97689881Y947721D02*
X97649481Y988121D01*
X97966891Y988121D02*
X97926491Y947721D01*
X97926491Y947721D02*
X97689881Y947721D01*
X96899279Y988121D02*
X95293800Y2593600D01*
X97649481Y988121D02*
X96899279Y988121D01*
X98919481Y988121D02*
X97966891Y988121D01*
X98959881Y947721D02*
X98919481Y988121D01*
X99956880Y-188880D02*
X98959881Y808119D01*
X98959881Y808119D02*
X98959881Y947721D01*
X119150000Y8070000D02*
X120294870Y6925130D01*
X120294870Y3363009D02*
X120324668Y3333211D01*
X120294870Y6925130D02*
X120294870Y3363009D01*
%TO.N,PI-DTD*%
X137417160Y-9761160D02*
X137294880Y-9638880D01*
X137417160Y-10990320D02*
X137417160Y-9761160D01*
X118648884Y816718D02*
X118648884Y-10970670D01*
X117662001Y1803601D02*
X118648884Y816718D01*
X117662001Y7017999D02*
X117662001Y1803601D01*
X116610000Y8070000D02*
X117662001Y7017999D01*
X124340880Y-10758756D02*
X124552793Y-10970669D01*
X124340880Y-9638880D02*
X124340880Y-10758756D01*
%TD*%
D24*
%TO.N,GND*%
X142617500Y-4348095D02*
X144640000Y-4348095D01*
X144640001Y-14437918D01*
X144588904Y-14342008D01*
X144583828Y-14334411D01*
X144145374Y-14034231D01*
X141979605Y-16200000D01*
X141993748Y-16214143D01*
X141814143Y-16393748D01*
X141800000Y-16379605D01*
X139634231Y-18545374D01*
X139934411Y-18983828D01*
X140039158Y-19040000D01*
X128867891Y-19040000D01*
X129903704Y-18004188D01*
X129930795Y-17981955D01*
X130019520Y-17873843D01*
X130085448Y-17750500D01*
X130126047Y-17616664D01*
X130136320Y-17512357D01*
X130136320Y-17512356D01*
X130139755Y-17477481D01*
X130136320Y-17442606D01*
X130136320Y-16519231D01*
X134357894Y-16519231D01*
X134624759Y-16929262D01*
X135156507Y-17212067D01*
X135733211Y-17385700D01*
X136332707Y-17443487D01*
X136931958Y-17383208D01*
X137507934Y-17207180D01*
X138027881Y-16929262D01*
X138294745Y-16519233D01*
X138408521Y-16633009D01*
X138484029Y-16557501D01*
X138512366Y-16849293D01*
X138702208Y-17478203D01*
X139011096Y-18057992D01*
X139016172Y-18065589D01*
X139454626Y-18365769D01*
X141620395Y-16200000D01*
X139454626Y-14034231D01*
X139371105Y-14091412D01*
X139347287Y-13854626D01*
X139634231Y-13854626D01*
X141800000Y-16020395D01*
X143965769Y-13854626D01*
X143665589Y-13416172D01*
X143086644Y-13105704D01*
X142458254Y-12914148D01*
X141804569Y-12848866D01*
X141150707Y-12912366D01*
X140521797Y-13102208D01*
X139942008Y-13411096D01*
X139934411Y-13416172D01*
X139634231Y-13854626D01*
X139347287Y-13854626D01*
X139338328Y-13765562D01*
X139162300Y-13189586D01*
X138884382Y-12669639D01*
X138474351Y-12402774D01*
X136505925Y-14371200D01*
X136520068Y-14385343D01*
X136340463Y-14564948D01*
X136326320Y-14550805D01*
X134357894Y-16519231D01*
X130136320Y-16519231D01*
X130136320Y-14169579D01*
X130323549Y-14044476D01*
X130519596Y-13848429D01*
X130673630Y-13617901D01*
X130779730Y-13361753D01*
X130833820Y-13089827D01*
X130833820Y-12812573D01*
X130779730Y-12540647D01*
X130673630Y-12284499D01*
X130519596Y-12053971D01*
X130323549Y-11857924D01*
X130093021Y-11703890D01*
X129836873Y-11597790D01*
X129564947Y-11543700D01*
X129287693Y-11543700D01*
X129015767Y-11597790D01*
X128759619Y-11703890D01*
X128529091Y-11857924D01*
X128333044Y-12053971D01*
X128179010Y-12284499D01*
X128072910Y-12540647D01*
X128041320Y-12699459D01*
X128009730Y-12540647D01*
X127903630Y-12284499D01*
X127749596Y-12053971D01*
X127553549Y-11857924D01*
X127323021Y-11703890D01*
X127066873Y-11597790D01*
X126794947Y-11543700D01*
X126517693Y-11543700D01*
X126245767Y-11597790D01*
X125989619Y-11703890D01*
X125759091Y-11857924D01*
X125563044Y-12053971D01*
X125409010Y-12284499D01*
X125302910Y-12540647D01*
X125271320Y-12699459D01*
X125239730Y-12540647D01*
X125133630Y-12284499D01*
X124979596Y-12053971D01*
X124783549Y-11857924D01*
X124748008Y-11834176D01*
X124810938Y-11821659D01*
X124971998Y-11754946D01*
X125116948Y-11658093D01*
X125240217Y-11534824D01*
X125337070Y-11389874D01*
X125401077Y-11235348D01*
X125415398Y-11239692D01*
X125539880Y-11251952D01*
X125579130Y-11248880D01*
X125737880Y-11090130D01*
X125737880Y-9765880D01*
X125717880Y-9765880D01*
X125717880Y-9511880D01*
X125737880Y-9511880D01*
X125737880Y-9491880D01*
X125991880Y-9491880D01*
X125991880Y-9511880D01*
X126011880Y-9511880D01*
X126011880Y-9765880D01*
X125991880Y-9765880D01*
X125991880Y-11090130D01*
X126150630Y-11248880D01*
X126189880Y-11251952D01*
X126314362Y-11239692D01*
X126434060Y-11203382D01*
X126499880Y-11168200D01*
X126565700Y-11203382D01*
X126685398Y-11239692D01*
X126809880Y-11251952D01*
X126977952Y-11251952D01*
X127033388Y-11334918D01*
X127156657Y-11458187D01*
X127301607Y-11555040D01*
X127462667Y-11621753D01*
X127633647Y-11655763D01*
X127807977Y-11655763D01*
X127978957Y-11621753D01*
X128140017Y-11555040D01*
X128284967Y-11458187D01*
X128365739Y-11377416D01*
X128369405Y-11381082D01*
X128514355Y-11477935D01*
X128675415Y-11544648D01*
X128846395Y-11578658D01*
X129020725Y-11578658D01*
X129191705Y-11544648D01*
X129352765Y-11477935D01*
X129465430Y-11402654D01*
X129565915Y-11469797D01*
X129726975Y-11536510D01*
X129897955Y-11570520D01*
X130072285Y-11570520D01*
X130243265Y-11536510D01*
X130404325Y-11469797D01*
X130549275Y-11372944D01*
X130670267Y-11251952D01*
X130898707Y-11251952D01*
X130948724Y-11301969D01*
X131093674Y-11398822D01*
X131254734Y-11465535D01*
X131425714Y-11499545D01*
X131467401Y-11499545D01*
X131486170Y-11593905D01*
X131552883Y-11754965D01*
X131649736Y-11899915D01*
X131773005Y-12023184D01*
X131917955Y-12120037D01*
X132079015Y-12186750D01*
X132249995Y-12220760D01*
X132424325Y-12220760D01*
X132595305Y-12186750D01*
X132681276Y-12151140D01*
X132721283Y-12247725D01*
X132818136Y-12392675D01*
X132941405Y-12515944D01*
X133086355Y-12612797D01*
X133247415Y-12679510D01*
X133418395Y-12713520D01*
X133592725Y-12713520D01*
X133762926Y-12679665D01*
X133485453Y-13201387D01*
X133311820Y-13778091D01*
X133254033Y-14377587D01*
X133314312Y-14976838D01*
X133490340Y-15552814D01*
X133768258Y-16072761D01*
X134178289Y-16339626D01*
X136146715Y-14371200D01*
X136132573Y-14357058D01*
X136312178Y-14177453D01*
X136326320Y-14191595D01*
X138294746Y-12223169D01*
X138027881Y-11813138D01*
X137889126Y-11739343D01*
X137981315Y-11677744D01*
X138104584Y-11554475D01*
X138201437Y-11409525D01*
X138268150Y-11248465D01*
X138302160Y-11077485D01*
X138302160Y-10903155D01*
X138268150Y-10732175D01*
X138250498Y-10689560D01*
X138257952Y-10613880D01*
X138257952Y-9605957D01*
X138382612Y-9657593D01*
X138553592Y-9691603D01*
X138727922Y-9691603D01*
X138898902Y-9657593D01*
X139059962Y-9590880D01*
X139204912Y-9494027D01*
X139328181Y-9370758D01*
X139425034Y-9225808D01*
X139491747Y-9064748D01*
X139525757Y-8893768D01*
X139525757Y-8719438D01*
X139491747Y-8548458D01*
X139425034Y-8387398D01*
X139328181Y-8242448D01*
X139204912Y-8119179D01*
X139059962Y-8022326D01*
X138898902Y-7955613D01*
X138856044Y-7947088D01*
X138054880Y-7145925D01*
X138054880Y-3081376D01*
X138131820Y-3122502D01*
X138251518Y-3158812D01*
X138376000Y-3171072D01*
X139639629Y-3171072D01*
X139639629Y-3675397D01*
X139535474Y-3744991D01*
X139412205Y-3868260D01*
X139315352Y-4013210D01*
X139248639Y-4174270D01*
X139214629Y-4345250D01*
X139214629Y-4519580D01*
X139248639Y-4690560D01*
X139315352Y-4851620D01*
X139412205Y-4996570D01*
X139535474Y-5119839D01*
X139680424Y-5216692D01*
X139841484Y-5283405D01*
X140012464Y-5317415D01*
X140186794Y-5317415D01*
X140357774Y-5283405D01*
X140461118Y-5240599D01*
X140584435Y-5322997D01*
X140745495Y-5389710D01*
X140916475Y-5423720D01*
X141090805Y-5423720D01*
X141261785Y-5389710D01*
X141422845Y-5322997D01*
X141567795Y-5226144D01*
X141691064Y-5102875D01*
X141787917Y-4957925D01*
X141854630Y-4796865D01*
X141888640Y-4625885D01*
X141888640Y-4451555D01*
X141854630Y-4280575D01*
X141787917Y-4119515D01*
X141691064Y-3974565D01*
X141567795Y-3851296D01*
X141422845Y-3754443D01*
X141387220Y-3739687D01*
X141387220Y1646672D01*
X141461497Y1757835D01*
X141528210Y1918895D01*
X141562220Y2089875D01*
X141562220Y2264205D01*
X141528210Y2435185D01*
X141461497Y2596245D01*
X141364644Y2741195D01*
X141254963Y2850876D01*
X141305317Y2926235D01*
X141372030Y3087295D01*
X141406040Y3258275D01*
X141406040Y3432605D01*
X141394848Y3488871D01*
X141795431Y3448866D01*
X142449293Y3512366D01*
X142617500Y3563141D01*
X142617500Y-4348095D01*
%TA.AperFunction,Conductor*%
D21*
G36*
X142617500Y-4348095D02*
G01*
X144640000Y-4348095D01*
X144640001Y-14437918D01*
X144588904Y-14342008D01*
X144583828Y-14334411D01*
X144145374Y-14034231D01*
X141979605Y-16200000D01*
X141993748Y-16214143D01*
X141814143Y-16393748D01*
X141800000Y-16379605D01*
X139634231Y-18545374D01*
X139934411Y-18983828D01*
X140039158Y-19040000D01*
X128867891Y-19040000D01*
X129903704Y-18004188D01*
X129930795Y-17981955D01*
X130019520Y-17873843D01*
X130085448Y-17750500D01*
X130126047Y-17616664D01*
X130136320Y-17512357D01*
X130136320Y-17512356D01*
X130139755Y-17477481D01*
X130136320Y-17442606D01*
X130136320Y-16519231D01*
X134357894Y-16519231D01*
X134624759Y-16929262D01*
X135156507Y-17212067D01*
X135733211Y-17385700D01*
X136332707Y-17443487D01*
X136931958Y-17383208D01*
X137507934Y-17207180D01*
X138027881Y-16929262D01*
X138294745Y-16519233D01*
X138408521Y-16633009D01*
X138484029Y-16557501D01*
X138512366Y-16849293D01*
X138702208Y-17478203D01*
X139011096Y-18057992D01*
X139016172Y-18065589D01*
X139454626Y-18365769D01*
X141620395Y-16200000D01*
X139454626Y-14034231D01*
X139371105Y-14091412D01*
X139347287Y-13854626D01*
X139634231Y-13854626D01*
X141800000Y-16020395D01*
X143965769Y-13854626D01*
X143665589Y-13416172D01*
X143086644Y-13105704D01*
X142458254Y-12914148D01*
X141804569Y-12848866D01*
X141150707Y-12912366D01*
X140521797Y-13102208D01*
X139942008Y-13411096D01*
X139934411Y-13416172D01*
X139634231Y-13854626D01*
X139347287Y-13854626D01*
X139338328Y-13765562D01*
X139162300Y-13189586D01*
X138884382Y-12669639D01*
X138474351Y-12402774D01*
X136505925Y-14371200D01*
X136520068Y-14385343D01*
X136340463Y-14564948D01*
X136326320Y-14550805D01*
X134357894Y-16519231D01*
X130136320Y-16519231D01*
X130136320Y-14169579D01*
X130323549Y-14044476D01*
X130519596Y-13848429D01*
X130673630Y-13617901D01*
X130779730Y-13361753D01*
X130833820Y-13089827D01*
X130833820Y-12812573D01*
X130779730Y-12540647D01*
X130673630Y-12284499D01*
X130519596Y-12053971D01*
X130323549Y-11857924D01*
X130093021Y-11703890D01*
X129836873Y-11597790D01*
X129564947Y-11543700D01*
X129287693Y-11543700D01*
X129015767Y-11597790D01*
X128759619Y-11703890D01*
X128529091Y-11857924D01*
X128333044Y-12053971D01*
X128179010Y-12284499D01*
X128072910Y-12540647D01*
X128041320Y-12699459D01*
X128009730Y-12540647D01*
X127903630Y-12284499D01*
X127749596Y-12053971D01*
X127553549Y-11857924D01*
X127323021Y-11703890D01*
X127066873Y-11597790D01*
X126794947Y-11543700D01*
X126517693Y-11543700D01*
X126245767Y-11597790D01*
X125989619Y-11703890D01*
X125759091Y-11857924D01*
X125563044Y-12053971D01*
X125409010Y-12284499D01*
X125302910Y-12540647D01*
X125271320Y-12699459D01*
X125239730Y-12540647D01*
X125133630Y-12284499D01*
X124979596Y-12053971D01*
X124783549Y-11857924D01*
X124748008Y-11834176D01*
X124810938Y-11821659D01*
X124971998Y-11754946D01*
X125116948Y-11658093D01*
X125240217Y-11534824D01*
X125337070Y-11389874D01*
X125401077Y-11235348D01*
X125415398Y-11239692D01*
X125539880Y-11251952D01*
X125579130Y-11248880D01*
X125737880Y-11090130D01*
X125737880Y-9765880D01*
X125717880Y-9765880D01*
X125717880Y-9511880D01*
X125737880Y-9511880D01*
X125737880Y-9491880D01*
X125991880Y-9491880D01*
X125991880Y-9511880D01*
X126011880Y-9511880D01*
X126011880Y-9765880D01*
X125991880Y-9765880D01*
X125991880Y-11090130D01*
X126150630Y-11248880D01*
X126189880Y-11251952D01*
X126314362Y-11239692D01*
X126434060Y-11203382D01*
X126499880Y-11168200D01*
X126565700Y-11203382D01*
X126685398Y-11239692D01*
X126809880Y-11251952D01*
X126977952Y-11251952D01*
X127033388Y-11334918D01*
X127156657Y-11458187D01*
X127301607Y-11555040D01*
X127462667Y-11621753D01*
X127633647Y-11655763D01*
X127807977Y-11655763D01*
X127978957Y-11621753D01*
X128140017Y-11555040D01*
X128284967Y-11458187D01*
X128365739Y-11377416D01*
X128369405Y-11381082D01*
X128514355Y-11477935D01*
X128675415Y-11544648D01*
X128846395Y-11578658D01*
X129020725Y-11578658D01*
X129191705Y-11544648D01*
X129352765Y-11477935D01*
X129465430Y-11402654D01*
X129565915Y-11469797D01*
X129726975Y-11536510D01*
X129897955Y-11570520D01*
X130072285Y-11570520D01*
X130243265Y-11536510D01*
X130404325Y-11469797D01*
X130549275Y-11372944D01*
X130670267Y-11251952D01*
X130898707Y-11251952D01*
X130948724Y-11301969D01*
X131093674Y-11398822D01*
X131254734Y-11465535D01*
X131425714Y-11499545D01*
X131467401Y-11499545D01*
X131486170Y-11593905D01*
X131552883Y-11754965D01*
X131649736Y-11899915D01*
X131773005Y-12023184D01*
X131917955Y-12120037D01*
X132079015Y-12186750D01*
X132249995Y-12220760D01*
X132424325Y-12220760D01*
X132595305Y-12186750D01*
X132681276Y-12151140D01*
X132721283Y-12247725D01*
X132818136Y-12392675D01*
X132941405Y-12515944D01*
X133086355Y-12612797D01*
X133247415Y-12679510D01*
X133418395Y-12713520D01*
X133592725Y-12713520D01*
X133762926Y-12679665D01*
X133485453Y-13201387D01*
X133311820Y-13778091D01*
X133254033Y-14377587D01*
X133314312Y-14976838D01*
X133490340Y-15552814D01*
X133768258Y-16072761D01*
X134178289Y-16339626D01*
X136146715Y-14371200D01*
X136132573Y-14357058D01*
X136312178Y-14177453D01*
X136326320Y-14191595D01*
X138294746Y-12223169D01*
X138027881Y-11813138D01*
X137889126Y-11739343D01*
X137981315Y-11677744D01*
X138104584Y-11554475D01*
X138201437Y-11409525D01*
X138268150Y-11248465D01*
X138302160Y-11077485D01*
X138302160Y-10903155D01*
X138268150Y-10732175D01*
X138250498Y-10689560D01*
X138257952Y-10613880D01*
X138257952Y-9605957D01*
X138382612Y-9657593D01*
X138553592Y-9691603D01*
X138727922Y-9691603D01*
X138898902Y-9657593D01*
X139059962Y-9590880D01*
X139204912Y-9494027D01*
X139328181Y-9370758D01*
X139425034Y-9225808D01*
X139491747Y-9064748D01*
X139525757Y-8893768D01*
X139525757Y-8719438D01*
X139491747Y-8548458D01*
X139425034Y-8387398D01*
X139328181Y-8242448D01*
X139204912Y-8119179D01*
X139059962Y-8022326D01*
X138898902Y-7955613D01*
X138856044Y-7947088D01*
X138054880Y-7145925D01*
X138054880Y-3081376D01*
X138131820Y-3122502D01*
X138251518Y-3158812D01*
X138376000Y-3171072D01*
X139639629Y-3171072D01*
X139639629Y-3675397D01*
X139535474Y-3744991D01*
X139412205Y-3868260D01*
X139315352Y-4013210D01*
X139248639Y-4174270D01*
X139214629Y-4345250D01*
X139214629Y-4519580D01*
X139248639Y-4690560D01*
X139315352Y-4851620D01*
X139412205Y-4996570D01*
X139535474Y-5119839D01*
X139680424Y-5216692D01*
X139841484Y-5283405D01*
X140012464Y-5317415D01*
X140186794Y-5317415D01*
X140357774Y-5283405D01*
X140461118Y-5240599D01*
X140584435Y-5322997D01*
X140745495Y-5389710D01*
X140916475Y-5423720D01*
X141090805Y-5423720D01*
X141261785Y-5389710D01*
X141422845Y-5322997D01*
X141567795Y-5226144D01*
X141691064Y-5102875D01*
X141787917Y-4957925D01*
X141854630Y-4796865D01*
X141888640Y-4625885D01*
X141888640Y-4451555D01*
X141854630Y-4280575D01*
X141787917Y-4119515D01*
X141691064Y-3974565D01*
X141567795Y-3851296D01*
X141422845Y-3754443D01*
X141387220Y-3739687D01*
X141387220Y1646672D01*
X141461497Y1757835D01*
X141528210Y1918895D01*
X141562220Y2089875D01*
X141562220Y2264205D01*
X141528210Y2435185D01*
X141461497Y2596245D01*
X141364644Y2741195D01*
X141254963Y2850876D01*
X141305317Y2926235D01*
X141372030Y3087295D01*
X141406040Y3258275D01*
X141406040Y3432605D01*
X141394848Y3488871D01*
X141795431Y3448866D01*
X142449293Y3512366D01*
X142617500Y3563141D01*
X142617500Y-4348095D01*
G37*
%TD.AperFunction*%
D24*
X112916525Y4583368D02*
X113123368Y4376525D01*
X113366589Y4214010D01*
X113636842Y4102068D01*
X113923740Y4045000D01*
X114216260Y4045000D01*
X114503158Y4102068D01*
X114621731Y4151182D01*
X114621731Y3560286D01*
X114547453Y3449122D01*
X114480740Y3288062D01*
X114446730Y3117082D01*
X114446730Y2942752D01*
X114480740Y2771772D01*
X114547453Y2610712D01*
X114644306Y2465762D01*
X114767575Y2342493D01*
X114912525Y2245640D01*
X115073585Y2178927D01*
X115244565Y2144917D01*
X115418895Y2144917D01*
X115589875Y2178927D01*
X115727025Y2235736D01*
X115732826Y2221732D01*
X115829679Y2076782D01*
X115952948Y1953513D01*
X116097898Y1856660D01*
X116258958Y1789947D01*
X116429938Y1755937D01*
X116604268Y1755937D01*
X116775248Y1789947D01*
X116936308Y1856660D01*
X116952002Y1867146D01*
X116952002Y1838486D01*
X116948566Y1803601D01*
X116962275Y1664417D01*
X117002873Y1530582D01*
X117060510Y1422751D01*
X117045880Y1424192D01*
X117006630Y1421120D01*
X116847880Y1262370D01*
X116847880Y-61880D01*
X117863880Y-61880D01*
X117863880Y-41880D01*
X117938884Y-41880D01*
X117938884Y-335880D01*
X117863880Y-335880D01*
X117863880Y-315880D01*
X116847880Y-315880D01*
X116847880Y-1640130D01*
X117006630Y-1798880D01*
X117045880Y-1801952D01*
X117170362Y-1789692D01*
X117290060Y-1753382D01*
X117355880Y-1718200D01*
X117421700Y-1753382D01*
X117541398Y-1789692D01*
X117665880Y-1801952D01*
X117705130Y-1798880D01*
X117863878Y-1640132D01*
X117863878Y-1798880D01*
X117938884Y-1798880D01*
X117938885Y-8028880D01*
X117863878Y-8028880D01*
X117863878Y-8187628D01*
X117705130Y-8028880D01*
X117665880Y-8025808D01*
X117541398Y-8038068D01*
X117421700Y-8074378D01*
X117355880Y-8109560D01*
X117290060Y-8074378D01*
X117170362Y-8038068D01*
X117045880Y-8025808D01*
X117006630Y-8028880D01*
X116847880Y-8187630D01*
X116847880Y-9511880D01*
X117863880Y-9511880D01*
X117863880Y-9491880D01*
X117938885Y-9491880D01*
X117938885Y-9785880D01*
X117863880Y-9785880D01*
X117863880Y-9765880D01*
X116847880Y-9765880D01*
X116847880Y-11090130D01*
X117006630Y-11248880D01*
X117045880Y-11251952D01*
X117170362Y-11239692D01*
X117290060Y-11203382D01*
X117355880Y-11168200D01*
X117421700Y-11203382D01*
X117541398Y-11239692D01*
X117665880Y-11251952D01*
X117705130Y-11248880D01*
X117785832Y-11168178D01*
X117797894Y-11228815D01*
X117864607Y-11389875D01*
X117961460Y-11534825D01*
X118009716Y-11583081D01*
X117935767Y-11597790D01*
X117679619Y-11703890D01*
X117449091Y-11857924D01*
X117253044Y-12053971D01*
X117099010Y-12284499D01*
X117020923Y-12473019D01*
X117002099Y-12476763D01*
X116917742Y-12511705D01*
X116823630Y-12284499D01*
X116669596Y-12053971D01*
X116473549Y-11857924D01*
X116243021Y-11703890D01*
X115986873Y-11597790D01*
X115714947Y-11543700D01*
X115437693Y-11543700D01*
X115165767Y-11597790D01*
X114909619Y-11703890D01*
X114679091Y-11857924D01*
X114483044Y-12053971D01*
X114329010Y-12284499D01*
X114222910Y-12540647D01*
X114191598Y-12698062D01*
X114177707Y-12605412D01*
X114083896Y-12344512D01*
X114020547Y-12225993D01*
X113779384Y-12157741D01*
X112985925Y-12951200D01*
X113779384Y-13744659D01*
X114020547Y-13676407D01*
X114138697Y-13425589D01*
X114192554Y-13209146D01*
X114222910Y-13361753D01*
X114329010Y-13617901D01*
X114483044Y-13848429D01*
X114679091Y-14044476D01*
X114866320Y-14169579D01*
X114866320Y-14549435D01*
X114858021Y-14543890D01*
X114601873Y-14437790D01*
X114329947Y-14383700D01*
X114052693Y-14383700D01*
X113780767Y-14437790D01*
X113524619Y-14543890D01*
X113294091Y-14697924D01*
X113098044Y-14893971D01*
X112944010Y-15124499D01*
X112837910Y-15380647D01*
X112806320Y-15539459D01*
X112774730Y-15380647D01*
X112668630Y-15124499D01*
X112514596Y-14893971D01*
X112318549Y-14697924D01*
X112131320Y-14572821D01*
X112131320Y-14189077D01*
X112331931Y-14283577D01*
X112600980Y-14350524D01*
X112877920Y-14363696D01*
X113152108Y-14322587D01*
X113413008Y-14228776D01*
X113531527Y-14165427D01*
X113599779Y-13924264D01*
X112806320Y-13130805D01*
X112792178Y-13144948D01*
X112612573Y-12965343D01*
X112626715Y-12951200D01*
X112612573Y-12937058D01*
X112792178Y-12757453D01*
X112806320Y-12771595D01*
X113599779Y-11978136D01*
X113564167Y-11852303D01*
X113582605Y-11852303D01*
X113753585Y-11818293D01*
X113914645Y-11751580D01*
X114059595Y-11654727D01*
X114182864Y-11531458D01*
X114279717Y-11386508D01*
X114346430Y-11225448D01*
X114362485Y-11144735D01*
X114466630Y-11248880D01*
X114505880Y-11251952D01*
X114630362Y-11239692D01*
X114750060Y-11203382D01*
X114815880Y-11168200D01*
X114881700Y-11203382D01*
X115001398Y-11239692D01*
X115125880Y-11251952D01*
X115165130Y-11248880D01*
X115323880Y-11090130D01*
X115323880Y-9765880D01*
X115577880Y-9765880D01*
X115577880Y-11090130D01*
X115736630Y-11248880D01*
X115775880Y-11251952D01*
X115900362Y-11239692D01*
X116020060Y-11203382D01*
X116085880Y-11168200D01*
X116151700Y-11203382D01*
X116271398Y-11239692D01*
X116395880Y-11251952D01*
X116435130Y-11248880D01*
X116593880Y-11090130D01*
X116593880Y-9765880D01*
X115577880Y-9765880D01*
X115323880Y-9765880D01*
X114307880Y-9765880D01*
X114307880Y-9785880D01*
X114053880Y-9785880D01*
X114053880Y-9765880D01*
X113037880Y-9765880D01*
X113037880Y-9785880D01*
X112783880Y-9785880D01*
X112783880Y-9765880D01*
X111513880Y-9765880D01*
X111513880Y-9785880D01*
X111259880Y-9785880D01*
X111259880Y-9765880D01*
X110243880Y-9765880D01*
X110243880Y-9785880D01*
X109989880Y-9785880D01*
X109989880Y-9765880D01*
X108973880Y-9765880D01*
X108973880Y-9785880D01*
X108730106Y-9785880D01*
X108719880Y-9777488D01*
X108719880Y-9765880D01*
X108707972Y-9765880D01*
X108699880Y-9757788D01*
X108699880Y-9511880D01*
X108719880Y-9511880D01*
X108719880Y-9491880D01*
X108973880Y-9491880D01*
X108973880Y-9511880D01*
X109989880Y-9511880D01*
X109989880Y-9491880D01*
X110243880Y-9491880D01*
X110243880Y-9511880D01*
X111259880Y-9511880D01*
X111259880Y-8187630D01*
X111513880Y-8187630D01*
X111513880Y-9511880D01*
X112783880Y-9511880D01*
X112783880Y-8187630D01*
X113037880Y-8187630D01*
X113037880Y-9511880D01*
X114053880Y-9511880D01*
X114053880Y-8187630D01*
X114307880Y-8187630D01*
X114307880Y-9511880D01*
X115323880Y-9511880D01*
X115323880Y-8187630D01*
X115577880Y-8187630D01*
X115577880Y-9511880D01*
X116593880Y-9511880D01*
X116593880Y-8187630D01*
X116435130Y-8028880D01*
X116395880Y-8025808D01*
X116271398Y-8038068D01*
X116151700Y-8074378D01*
X116085880Y-8109560D01*
X116020060Y-8074378D01*
X115900362Y-8038068D01*
X115775880Y-8025808D01*
X115736630Y-8028880D01*
X115577880Y-8187630D01*
X115323880Y-8187630D01*
X115165130Y-8028880D01*
X115125880Y-8025808D01*
X115001398Y-8038068D01*
X114881700Y-8074378D01*
X114815880Y-8109560D01*
X114750060Y-8074378D01*
X114630362Y-8038068D01*
X114505880Y-8025808D01*
X114466630Y-8028880D01*
X114307880Y-8187630D01*
X114053880Y-8187630D01*
X113895130Y-8028880D01*
X113855880Y-8025808D01*
X113731398Y-8038068D01*
X113611700Y-8074378D01*
X113545880Y-8109560D01*
X113480060Y-8074378D01*
X113360362Y-8038068D01*
X113235880Y-8025808D01*
X113196630Y-8028880D01*
X113037880Y-8187630D01*
X112783880Y-8187630D01*
X112625130Y-8028880D01*
X112585880Y-8025808D01*
X112461398Y-8038068D01*
X112341700Y-8074378D01*
X112231386Y-8133343D01*
X112148880Y-8201054D01*
X112066374Y-8133343D01*
X111956060Y-8074378D01*
X111836362Y-8038068D01*
X111711880Y-8025808D01*
X111672630Y-8028880D01*
X111513880Y-8187630D01*
X111259880Y-8187630D01*
X111101130Y-8028880D01*
X111061880Y-8025808D01*
X110937398Y-8038068D01*
X110817700Y-8074378D01*
X110751880Y-8109560D01*
X110686060Y-8074378D01*
X110566362Y-8038068D01*
X110545000Y-8035964D01*
X110545000Y-7898061D01*
X110505226Y-7698102D01*
X110427205Y-7509744D01*
X110313937Y-7340226D01*
X110169774Y-7196063D01*
X110000256Y-7082795D01*
X109917999Y-7048723D01*
X109917999Y-3285000D01*
X109961939Y-3285000D01*
X110161898Y-3245226D01*
X110350256Y-3167205D01*
X110519774Y-3053937D01*
X110663937Y-2909774D01*
X110777205Y-2740256D01*
X110855226Y-2551898D01*
X110895000Y-2351939D01*
X110895000Y-2148061D01*
X110855226Y-1948102D01*
X110777205Y-1759744D01*
X110750087Y-1719158D01*
X110751880Y-1718200D01*
X110817700Y-1753382D01*
X110937398Y-1789692D01*
X111061880Y-1801952D01*
X111101130Y-1798880D01*
X111259880Y-1640130D01*
X111259880Y-315880D01*
X111513880Y-315880D01*
X111513880Y-1640130D01*
X111672630Y-1798880D01*
X111711880Y-1801952D01*
X111836362Y-1789692D01*
X111956060Y-1753382D01*
X112066374Y-1694417D01*
X112148880Y-1626706D01*
X112231386Y-1694417D01*
X112341700Y-1753382D01*
X112461398Y-1789692D01*
X112585880Y-1801952D01*
X112625130Y-1798880D01*
X112783880Y-1640130D01*
X112783880Y-315880D01*
X113037880Y-315880D01*
X113037880Y-1640130D01*
X113196630Y-1798880D01*
X113235880Y-1801952D01*
X113360362Y-1789692D01*
X113480060Y-1753382D01*
X113545880Y-1718200D01*
X113611700Y-1753382D01*
X113731398Y-1789692D01*
X113855880Y-1801952D01*
X113895130Y-1798880D01*
X114053880Y-1640130D01*
X114053880Y-315880D01*
X114307880Y-315880D01*
X114307880Y-1640130D01*
X114466630Y-1798880D01*
X114505880Y-1801952D01*
X114630362Y-1789692D01*
X114750060Y-1753382D01*
X114815880Y-1718200D01*
X114881700Y-1753382D01*
X115001398Y-1789692D01*
X115125880Y-1801952D01*
X115165130Y-1798880D01*
X115323880Y-1640130D01*
X115323880Y-315880D01*
X115577880Y-315880D01*
X115577880Y-1640130D01*
X115736630Y-1798880D01*
X115775880Y-1801952D01*
X115900362Y-1789692D01*
X116020060Y-1753382D01*
X116085880Y-1718200D01*
X116151700Y-1753382D01*
X116271398Y-1789692D01*
X116395880Y-1801952D01*
X116435130Y-1798880D01*
X116593880Y-1640130D01*
X116593880Y-315880D01*
X115577880Y-315880D01*
X115323880Y-315880D01*
X114307880Y-315880D01*
X114053880Y-315880D01*
X113037880Y-315880D01*
X112783880Y-315880D01*
X111513880Y-315880D01*
X111259880Y-315880D01*
X110243880Y-315880D01*
X110243880Y-335880D01*
X109989880Y-335880D01*
X109989880Y-315880D01*
X108973880Y-315880D01*
X108973880Y-1640130D01*
X109003156Y-1669406D01*
X108942795Y-1759744D01*
X108864774Y-1948102D01*
X108825000Y-2148061D01*
X108825000Y-2210199D01*
X108647001Y-2388198D01*
X108617998Y-2412000D01*
X108562870Y-2479175D01*
X108523025Y-2527725D01*
X108504450Y-2562477D01*
X108452453Y-2659755D01*
X108408996Y-2803016D01*
X108397999Y-2914669D01*
X108397999Y-2914679D01*
X108394323Y-2952001D01*
X108397999Y-2989324D01*
X108398000Y-7610667D01*
X108394323Y-7647999D01*
X108398000Y-7685332D01*
X108408997Y-7796985D01*
X108414205Y-7814153D01*
X108452453Y-7940245D01*
X108475000Y-7982427D01*
X108475000Y-8030425D01*
X108397398Y-8038068D01*
X108286880Y-8071593D01*
X108286880Y-7839674D01*
X108290315Y-7804799D01*
X108286880Y-7769923D01*
X108276607Y-7665616D01*
X108236008Y-7531780D01*
X108170080Y-7408437D01*
X108081355Y-7300325D01*
X108054264Y-7278092D01*
X105172792Y-4396621D01*
X105150555Y-4369525D01*
X105119981Y-4344434D01*
X105047424Y-4235845D01*
X104924155Y-4112576D01*
X104779205Y-4015723D01*
X104618145Y-3949010D01*
X104447165Y-3915000D01*
X104272835Y-3915000D01*
X104101855Y-3949010D01*
X103940795Y-4015723D01*
X103795845Y-4112576D01*
X103672576Y-4235845D01*
X103575723Y-4380795D01*
X103559156Y-4420792D01*
X103550225Y-4411861D01*
X103527988Y-4384765D01*
X103419876Y-4296040D01*
X103296533Y-4230112D01*
X103247553Y-4215254D01*
X103234115Y-4201816D01*
X103089165Y-4104963D01*
X102928105Y-4038250D01*
X102757125Y-4004240D01*
X102582795Y-4004240D01*
X102411815Y-4038250D01*
X102250755Y-4104963D01*
X102105805Y-4201816D01*
X101982536Y-4325085D01*
X101929540Y-4404399D01*
X101859403Y-4346840D01*
X101736060Y-4280912D01*
X101602224Y-4240313D01*
X101497917Y-4230040D01*
X101497915Y-4230040D01*
X101463040Y-4226605D01*
X101428165Y-4230040D01*
X101178488Y-4230040D01*
X101067325Y-4155763D01*
X100906265Y-4089050D01*
X100735285Y-4055040D01*
X100560955Y-4055040D01*
X100389975Y-4089050D01*
X100228915Y-4155763D01*
X100154717Y-4205341D01*
X100052300Y-4174273D01*
X99947993Y-4164000D01*
X99947991Y-4164000D01*
X99913116Y-4160565D01*
X99878241Y-4164000D01*
X99248088Y-4164000D01*
X99136925Y-4089723D01*
X98975865Y-4023010D01*
X98804885Y-3989000D01*
X98630555Y-3989000D01*
X98459575Y-4023010D01*
X98298515Y-4089723D01*
X98153565Y-4186576D01*
X98030296Y-4309845D01*
X97933443Y-4454795D01*
X97866730Y-4615855D01*
X97866701Y-4616002D01*
X97555858Y-4616002D01*
X97495397Y-4470035D01*
X97398544Y-4325085D01*
X97275275Y-4201816D01*
X97130325Y-4104963D01*
X96969265Y-4038250D01*
X96798285Y-4004240D01*
X96623955Y-4004240D01*
X96452975Y-4038250D01*
X96291915Y-4104963D01*
X96146965Y-4201816D01*
X96023696Y-4325085D01*
X95926843Y-4470035D01*
X95860130Y-4631095D01*
X95826120Y-4802075D01*
X95826120Y-4976405D01*
X95860130Y-5147385D01*
X95926843Y-5308445D01*
X96023696Y-5453395D01*
X96146965Y-5576664D01*
X96291915Y-5673517D01*
X96452975Y-5740230D01*
X96584103Y-5766313D01*
X96621166Y-5803376D01*
X96643407Y-5830477D01*
X96751519Y-5919202D01*
X96874862Y-5985130D01*
X97008698Y-6025729D01*
X97113005Y-6036002D01*
X97113007Y-6036002D01*
X97147882Y-6039437D01*
X97182757Y-6036002D01*
X99014911Y-6036002D01*
X101099878Y-8120970D01*
X101099878Y-8187628D01*
X100941130Y-8028880D01*
X100901880Y-8025808D01*
X100777398Y-8038068D01*
X100657700Y-8074378D01*
X100591880Y-8109560D01*
X100526060Y-8074378D01*
X100406362Y-8038068D01*
X100281880Y-8025808D01*
X99631880Y-8025808D01*
X99507398Y-8038068D01*
X99387700Y-8074378D01*
X99277386Y-8133343D01*
X99194880Y-8201054D01*
X99112374Y-8133343D01*
X99002060Y-8074378D01*
X98882362Y-8038068D01*
X98757880Y-8025808D01*
X98718630Y-8028880D01*
X98559880Y-8187630D01*
X98559880Y-9511880D01*
X98579880Y-9511880D01*
X98579880Y-9765880D01*
X98559880Y-9765880D01*
X98559880Y-11090130D01*
X98718630Y-11248880D01*
X98757880Y-11251952D01*
X98882362Y-11239692D01*
X99002060Y-11203382D01*
X99112374Y-11144417D01*
X99194880Y-11076706D01*
X99277386Y-11144417D01*
X99387700Y-11203382D01*
X99507398Y-11239692D01*
X99522902Y-11241219D01*
X99486682Y-11277439D01*
X99389829Y-11422389D01*
X99325333Y-11578096D01*
X99315798Y-11587631D01*
X99094947Y-11543700D01*
X98817693Y-11543700D01*
X98545767Y-11597790D01*
X98289619Y-11703890D01*
X98059091Y-11857924D01*
X97863875Y-12053140D01*
X97866237Y-12049605D01*
X97932950Y-11888545D01*
X97966960Y-11717565D01*
X97966960Y-11543235D01*
X97932950Y-11372255D01*
X97866237Y-11211195D01*
X97859526Y-11201151D01*
X97863700Y-11203382D01*
X97983398Y-11239692D01*
X98107880Y-11251952D01*
X98147130Y-11248880D01*
X98305880Y-11090130D01*
X98305880Y-9765880D01*
X97289880Y-9765880D01*
X97289880Y-9785880D01*
X97035880Y-9785880D01*
X97035880Y-9765880D01*
X96019880Y-9765880D01*
X96019880Y-11090130D01*
X96178630Y-11248880D01*
X96217880Y-11251952D01*
X96283477Y-11245491D01*
X96230970Y-11372255D01*
X96196960Y-11543235D01*
X96196960Y-11543700D01*
X96047693Y-11543700D01*
X95775767Y-11597790D01*
X95519619Y-11703890D01*
X95289091Y-11857924D01*
X95093044Y-12053971D01*
X94939010Y-12284499D01*
X94832910Y-12540647D01*
X94827638Y-12567153D01*
X94782710Y-12522225D01*
X94782710Y-11122960D01*
X94908630Y-11248880D01*
X94947880Y-11251952D01*
X95072362Y-11239692D01*
X95192060Y-11203382D01*
X95257880Y-11168200D01*
X95323700Y-11203382D01*
X95443398Y-11239692D01*
X95567880Y-11251952D01*
X95607130Y-11248880D01*
X95765880Y-11090130D01*
X95765880Y-9765880D01*
X94782710Y-9765880D01*
X94782710Y-9511880D01*
X95765880Y-9511880D01*
X95765880Y-8187630D01*
X96019880Y-8187630D01*
X96019880Y-9511880D01*
X97035880Y-9511880D01*
X97035880Y-8187630D01*
X97289880Y-8187630D01*
X97289880Y-9511880D01*
X98305880Y-9511880D01*
X98305880Y-8187630D01*
X98147130Y-8028880D01*
X98107880Y-8025808D01*
X97983398Y-8038068D01*
X97863700Y-8074378D01*
X97797880Y-8109560D01*
X97732060Y-8074378D01*
X97612362Y-8038068D01*
X97487880Y-8025808D01*
X97448630Y-8028880D01*
X97289880Y-8187630D01*
X97035880Y-8187630D01*
X96877130Y-8028880D01*
X96837880Y-8025808D01*
X96713398Y-8038068D01*
X96593700Y-8074378D01*
X96527880Y-8109560D01*
X96462060Y-8074378D01*
X96342362Y-8038068D01*
X96217880Y-8025808D01*
X96178630Y-8028880D01*
X96019880Y-8187630D01*
X95765880Y-8187630D01*
X95607130Y-8028880D01*
X95567880Y-8025808D01*
X95443398Y-8038068D01*
X95323700Y-8074378D01*
X95257880Y-8109560D01*
X95192060Y-8074378D01*
X95072362Y-8038068D01*
X94947880Y-8025808D01*
X94908630Y-8028880D01*
X94782710Y-8154800D01*
X94782710Y-7636592D01*
X94946859Y-7472443D01*
X94989718Y-7463918D01*
X95150778Y-7397205D01*
X95295728Y-7300352D01*
X95418997Y-7177083D01*
X95515850Y-7032133D01*
X95582563Y-6871073D01*
X95616573Y-6700093D01*
X95616573Y-6525763D01*
X95582563Y-6354783D01*
X95515850Y-6193723D01*
X95418997Y-6048773D01*
X95295728Y-5925504D01*
X95150778Y-5828651D01*
X94989718Y-5761938D01*
X94818738Y-5727928D01*
X94644408Y-5727928D01*
X94494705Y-5757706D01*
X94506418Y-5745993D01*
X94637545Y-5719910D01*
X94798605Y-5653197D01*
X94943555Y-5556344D01*
X95066824Y-5433075D01*
X95163677Y-5288125D01*
X95230390Y-5127065D01*
X95264400Y-4956085D01*
X95264400Y-4781755D01*
X95230390Y-4610775D01*
X95163677Y-4449715D01*
X95066824Y-4304765D01*
X94943555Y-4181496D01*
X94798605Y-4084643D01*
X94637545Y-4017930D01*
X94466565Y-3983920D01*
X94292235Y-3983920D01*
X94121255Y-4017930D01*
X93960195Y-4084643D01*
X93815245Y-4181496D01*
X93691976Y-4304765D01*
X93595123Y-4449715D01*
X93528410Y-4610775D01*
X93502327Y-4741902D01*
X93359400Y-4884829D01*
X93359400Y-4781755D01*
X93325390Y-4610775D01*
X93258677Y-4449715D01*
X93161824Y-4304765D01*
X93038555Y-4181496D01*
X92893605Y-4084643D01*
X92732545Y-4017930D01*
X92561565Y-3983920D01*
X92387235Y-3983920D01*
X92216255Y-4017930D01*
X92055195Y-4084643D01*
X91910245Y-4181496D01*
X91786976Y-4304765D01*
X91690123Y-4449715D01*
X91623410Y-4610775D01*
X91597676Y-4740151D01*
X91578406Y-4755965D01*
X91556173Y-4783056D01*
X91489681Y-4864077D01*
X91458934Y-4921600D01*
X91406080Y-4822717D01*
X91317355Y-4714605D01*
X91290254Y-4692364D01*
X91268673Y-4670783D01*
X91242590Y-4539655D01*
X91175877Y-4378595D01*
X91079024Y-4233645D01*
X90955755Y-4110376D01*
X90810805Y-4013523D01*
X90649745Y-3946810D01*
X90478765Y-3912800D01*
X90304435Y-3912800D01*
X90133455Y-3946810D01*
X89972395Y-4013523D01*
X89827445Y-4110376D01*
X89704176Y-4233645D01*
X89607323Y-4378595D01*
X89540610Y-4539655D01*
X89506600Y-4710635D01*
X89506600Y-4884965D01*
X89540610Y-5055945D01*
X89607323Y-5217005D01*
X89673185Y-5315574D01*
X89155393Y-4797782D01*
X89129310Y-4666655D01*
X89062597Y-4505595D01*
X88965744Y-4360645D01*
X88842475Y-4237376D01*
X88697525Y-4140523D01*
X88536465Y-4073810D01*
X88365485Y-4039800D01*
X88191155Y-4039800D01*
X88020175Y-4073810D01*
X87859115Y-4140523D01*
X87714165Y-4237376D01*
X87590896Y-4360645D01*
X87494043Y-4505595D01*
X87427330Y-4666655D01*
X87393320Y-4837635D01*
X87393320Y-5011965D01*
X87427330Y-5182945D01*
X87494043Y-5344005D01*
X87590896Y-5488955D01*
X87714165Y-5612224D01*
X87859115Y-5709077D01*
X88020175Y-5775790D01*
X88151302Y-5801873D01*
X88832881Y-6483452D01*
X88832880Y-8071593D01*
X88722362Y-8038068D01*
X88597880Y-8025808D01*
X88558630Y-8028880D01*
X88399880Y-8187630D01*
X88399880Y-9511880D01*
X88419880Y-9511880D01*
X88419880Y-9765880D01*
X88399880Y-9765880D01*
X88399880Y-11090130D01*
X88558630Y-11248880D01*
X88597880Y-11251952D01*
X88722362Y-11239692D01*
X88842060Y-11203382D01*
X88907880Y-11168200D01*
X88973700Y-11203382D01*
X88979216Y-11205055D01*
X89038406Y-11277179D01*
X89065497Y-11299412D01*
X89084642Y-11318557D01*
X88680682Y-11359192D01*
X88104706Y-11535220D01*
X87584759Y-11813138D01*
X87317894Y-12223169D01*
X89286320Y-14191595D01*
X89300463Y-14177453D01*
X89480068Y-14357058D01*
X89465925Y-14371200D01*
X91434351Y-16339626D01*
X91844382Y-16072761D01*
X92127187Y-15541013D01*
X92197053Y-15308959D01*
X92284443Y-15367351D01*
X92445503Y-15434064D01*
X92616483Y-15468074D01*
X92790813Y-15468074D01*
X92961793Y-15434064D01*
X93122853Y-15367351D01*
X93267803Y-15270498D01*
X93357623Y-15180678D01*
X93519945Y-15148390D01*
X93681005Y-15081677D01*
X93825955Y-14984824D01*
X93949224Y-14861555D01*
X93960061Y-14845336D01*
X94111528Y-14908075D01*
X94282508Y-14942085D01*
X94456838Y-14942085D01*
X94627818Y-14908075D01*
X94788878Y-14841362D01*
X94886809Y-14775926D01*
X96194389Y-16083507D01*
X96217910Y-16201753D01*
X96324010Y-16457901D01*
X96478044Y-16688429D01*
X96674091Y-16884476D01*
X96904619Y-17038510D01*
X97160767Y-17144610D01*
X97432693Y-17198700D01*
X97709947Y-17198700D01*
X97981873Y-17144610D01*
X98238021Y-17038510D01*
X98468549Y-16884476D01*
X98664596Y-16688429D01*
X98818630Y-16457901D01*
X98924730Y-16201753D01*
X98956042Y-16044338D01*
X98969933Y-16136988D01*
X99063744Y-16397888D01*
X99127093Y-16516407D01*
X99368256Y-16584659D01*
X100161715Y-15791200D01*
X99368256Y-14997741D01*
X99127093Y-15065993D01*
X99008943Y-15316811D01*
X98955086Y-15533254D01*
X98924730Y-15380647D01*
X98818630Y-15124499D01*
X98664596Y-14893971D01*
X98588761Y-14818136D01*
X99547861Y-14818136D01*
X100341320Y-15611595D01*
X101134779Y-14818136D01*
X101066527Y-14576973D01*
X100815709Y-14458823D01*
X100546660Y-14391876D01*
X100269720Y-14378704D01*
X99995532Y-14419813D01*
X99734632Y-14513624D01*
X99616113Y-14576973D01*
X99547861Y-14818136D01*
X98588761Y-14818136D01*
X98468549Y-14697924D01*
X98238021Y-14543890D01*
X97981873Y-14437790D01*
X97709947Y-14383700D01*
X97432693Y-14383700D01*
X97160767Y-14437790D01*
X96904619Y-14543890D01*
X96844528Y-14584042D01*
X96570368Y-14309882D01*
X96596873Y-14304610D01*
X96853021Y-14198510D01*
X97083549Y-14044476D01*
X97279596Y-13848429D01*
X97433630Y-13617901D01*
X97539730Y-13361753D01*
X97571320Y-13202941D01*
X97602910Y-13361753D01*
X97709010Y-13617901D01*
X97863044Y-13848429D01*
X98059091Y-14044476D01*
X98289619Y-14198510D01*
X98545767Y-14304610D01*
X98817693Y-14358700D01*
X99094947Y-14358700D01*
X99366873Y-14304610D01*
X99623021Y-14198510D01*
X99853549Y-14044476D01*
X100049596Y-13848429D01*
X100203630Y-13617901D01*
X100309730Y-13361753D01*
X100341320Y-13202941D01*
X100372910Y-13361753D01*
X100479010Y-13617901D01*
X100633044Y-13848429D01*
X100829091Y-14044476D01*
X101059619Y-14198510D01*
X101315767Y-14304610D01*
X101587693Y-14358700D01*
X101864947Y-14358700D01*
X102048151Y-14322258D01*
X102048151Y-14408016D01*
X101557577Y-14898590D01*
X101530486Y-14920823D01*
X101508253Y-14947914D01*
X101441761Y-15028935D01*
X101439507Y-15033152D01*
X101314384Y-14997741D01*
X100520925Y-15791200D01*
X100535068Y-15805343D01*
X100355463Y-15984948D01*
X100341320Y-15970805D01*
X99547861Y-16764264D01*
X99616113Y-17005427D01*
X99866931Y-17123577D01*
X100135980Y-17190524D01*
X100412920Y-17203696D01*
X100687108Y-17162587D01*
X100948008Y-17068776D01*
X101066527Y-17005427D01*
X101134778Y-16764266D01*
X101251150Y-16880638D01*
X101324961Y-16806827D01*
X101324960Y-17607512D01*
X101250683Y-17718675D01*
X101183970Y-17879735D01*
X101149960Y-18050715D01*
X101149960Y-18225045D01*
X101183970Y-18396025D01*
X101250683Y-18557085D01*
X101347536Y-18702035D01*
X101470805Y-18825304D01*
X101615755Y-18922157D01*
X101776815Y-18988870D01*
X101947795Y-19022880D01*
X102122125Y-19022880D01*
X102293105Y-18988870D01*
X102454165Y-18922157D01*
X102599115Y-18825304D01*
X102722384Y-18702035D01*
X102819237Y-18557085D01*
X102885950Y-18396025D01*
X102919960Y-18225045D01*
X102919960Y-18050715D01*
X102885950Y-17879735D01*
X102819237Y-17718675D01*
X102744960Y-17607512D01*
X102744960Y-17153401D01*
X102972693Y-17198700D01*
X103249947Y-17198700D01*
X103398247Y-17169201D01*
X103398247Y-18602746D01*
X103394811Y-18637631D01*
X103408520Y-18776815D01*
X103449118Y-18910650D01*
X103473245Y-18955788D01*
X103473245Y-18974795D01*
X103486215Y-19040000D01*
X85562084Y-19040000D01*
X85657992Y-18988904D01*
X85665589Y-18983828D01*
X85965769Y-18545374D01*
X83800000Y-16379605D01*
X83785858Y-16393748D01*
X83606253Y-16214143D01*
X83620395Y-16200000D01*
X83979605Y-16200000D01*
X86145374Y-18365769D01*
X86583828Y-18065589D01*
X86894296Y-17486644D01*
X87085852Y-16858254D01*
X87117043Y-16545933D01*
X87204119Y-16633009D01*
X87317895Y-16519233D01*
X87584759Y-16929262D01*
X88116507Y-17212067D01*
X88693211Y-17385700D01*
X89292707Y-17443487D01*
X89891958Y-17383208D01*
X90467934Y-17207180D01*
X90987881Y-16929262D01*
X91254746Y-16519231D01*
X89286320Y-14550805D01*
X89272178Y-14564948D01*
X89092573Y-14385343D01*
X89106715Y-14371200D01*
X87138289Y-12402774D01*
X86728258Y-12669639D01*
X86445453Y-13201387D01*
X86271820Y-13778091D01*
X86240830Y-14099584D01*
X86145374Y-14034231D01*
X83979605Y-16200000D01*
X83620395Y-16200000D01*
X81454626Y-14034231D01*
X81016172Y-14334411D01*
X80960000Y-14439158D01*
X80960000Y-13854626D01*
X81634231Y-13854626D01*
X83800000Y-16020395D01*
X85965769Y-13854626D01*
X85665589Y-13416172D01*
X85086644Y-13105704D01*
X84458254Y-12914148D01*
X83804569Y-12848866D01*
X83150707Y-12912366D01*
X82521797Y-13102208D01*
X81942008Y-13411096D01*
X81934411Y-13416172D01*
X81634231Y-13854626D01*
X80960000Y-13854626D01*
X80960000Y-10832027D01*
X81669398Y-11541426D01*
X81695549Y-11573291D01*
X81822694Y-11677636D01*
X81967753Y-11755172D01*
X82125151Y-11802918D01*
X82247821Y-11815000D01*
X82247823Y-11815000D01*
X82288839Y-11819040D01*
X82321928Y-11815781D01*
X82321928Y-11830000D01*
X82334188Y-11954482D01*
X82370498Y-12074180D01*
X82429463Y-12184494D01*
X82508815Y-12281185D01*
X82605506Y-12360537D01*
X82715820Y-12419502D01*
X82835518Y-12455812D01*
X82960000Y-12468072D01*
X84660000Y-12468072D01*
X84784482Y-12455812D01*
X84904180Y-12419502D01*
X85014494Y-12360537D01*
X85111185Y-12281185D01*
X85190537Y-12184494D01*
X85249502Y-12074180D01*
X85285812Y-11954482D01*
X85298072Y-11830000D01*
X85298072Y-11815000D01*
X85620742Y-11815000D01*
X85661760Y-11819040D01*
X85702778Y-11815000D01*
X85702779Y-11815000D01*
X85825449Y-11802918D01*
X85982847Y-11755172D01*
X86127906Y-11677636D01*
X86255051Y-11573291D01*
X86281206Y-11541421D01*
X86580287Y-11242340D01*
X86677880Y-11251952D01*
X87327880Y-11251952D01*
X87452362Y-11239692D01*
X87572060Y-11203382D01*
X87637880Y-11168200D01*
X87703700Y-11203382D01*
X87823398Y-11239692D01*
X87947880Y-11251952D01*
X87987130Y-11248880D01*
X88145880Y-11090130D01*
X88145880Y-9765880D01*
X88125880Y-9765880D01*
X88125880Y-9511880D01*
X88145880Y-9511880D01*
X88145880Y-8187630D01*
X87987130Y-8028880D01*
X87947880Y-8025808D01*
X87823398Y-8038068D01*
X87703700Y-8074378D01*
X87637880Y-8109560D01*
X87572060Y-8074378D01*
X87452362Y-8038068D01*
X87327880Y-8025808D01*
X86677880Y-8025808D01*
X86553398Y-8038068D01*
X86433700Y-8074378D01*
X86323386Y-8133343D01*
X86226695Y-8212695D01*
X86147343Y-8309386D01*
X86088378Y-8419700D01*
X86052068Y-8539398D01*
X86039808Y-8663880D01*
X86039808Y-9421084D01*
X85315893Y-10145000D01*
X85298072Y-10145000D01*
X85298072Y-10130000D01*
X85285812Y-10005518D01*
X85249502Y-9885820D01*
X85190537Y-9775506D01*
X85111185Y-9678815D01*
X85014494Y-9599463D01*
X84904180Y-9540498D01*
X84823534Y-9516034D01*
X84907588Y-9440269D01*
X85081641Y-9206920D01*
X85206825Y-8944099D01*
X85251476Y-8796890D01*
X85130155Y-8567000D01*
X83937000Y-8567000D01*
X83937000Y-8587000D01*
X83683000Y-8587000D01*
X83683000Y-8567000D01*
X82489845Y-8567000D01*
X82368524Y-8796890D01*
X82413175Y-8944099D01*
X82538359Y-9206920D01*
X82712412Y-9440269D01*
X82796466Y-9516034D01*
X82715820Y-9540498D01*
X82605506Y-9599463D01*
X82508815Y-9678815D01*
X82429463Y-9775506D01*
X82372250Y-9882542D01*
X81970840Y-9481133D01*
X81970840Y210653D01*
X82552116Y791928D01*
X83230000Y791928D01*
X83354482Y804188D01*
X83474180Y840498D01*
X83584494Y899463D01*
X83681185Y978815D01*
X83760537Y1075506D01*
X83819502Y1185820D01*
X83843966Y1266466D01*
X83919731Y1182412D01*
X84153080Y1008359D01*
X84415901Y883175D01*
X84563110Y838524D01*
X84793000Y959845D01*
X84793000Y2153000D01*
X84773000Y2153000D01*
X84773000Y2407000D01*
X84793000Y2407000D01*
X84793000Y2427000D01*
X85047000Y2427000D01*
X85047000Y2407000D01*
X85067000Y2407000D01*
X85067000Y2153000D01*
X85047000Y2153000D01*
X85047000Y959845D01*
X85262002Y846381D01*
X85262002Y766487D01*
X85179796Y643457D01*
X85101775Y455099D01*
X85072909Y309977D01*
X84926520Y163587D01*
X84756632Y333475D01*
X84513411Y495990D01*
X84243158Y607932D01*
X83956260Y665000D01*
X83663740Y665000D01*
X83376842Y607932D01*
X83106589Y495990D01*
X82863368Y333475D01*
X82656525Y126632D01*
X82494010Y-116589D01*
X82382068Y-386842D01*
X82325000Y-673740D01*
X82325000Y-966260D01*
X82382068Y-1253158D01*
X82494010Y-1523411D01*
X82656525Y-1766632D01*
X82863368Y-1973475D01*
X83037760Y-2090000D01*
X82863368Y-2206525D01*
X82656525Y-2413368D01*
X82494010Y-2656589D01*
X82382068Y-2926842D01*
X82325000Y-3213740D01*
X82325000Y-3506260D01*
X82382068Y-3793158D01*
X82494010Y-4063411D01*
X82656525Y-4306632D01*
X82863368Y-4513475D01*
X83037760Y-4630000D01*
X82863368Y-4746525D01*
X82656525Y-4953368D01*
X82494010Y-5196589D01*
X82382068Y-5466842D01*
X82325000Y-5753740D01*
X82325000Y-6046260D01*
X82382068Y-6333158D01*
X82494010Y-6603411D01*
X82656525Y-6846632D01*
X82863368Y-7053475D01*
X83045534Y-7175195D01*
X82928645Y-7244822D01*
X82712412Y-7439731D01*
X82538359Y-7673080D01*
X82413175Y-7935901D01*
X82368524Y-8083110D01*
X82489845Y-8313000D01*
X83683000Y-8313000D01*
X83683000Y-8293000D01*
X83937000Y-8293000D01*
X83937000Y-8313000D01*
X85130155Y-8313000D01*
X85251476Y-8083110D01*
X85206825Y-7935901D01*
X85081641Y-7673080D01*
X84907588Y-7439731D01*
X84691355Y-7244822D01*
X84574466Y-7175195D01*
X84756632Y-7053475D01*
X84963475Y-6846632D01*
X85125990Y-6603411D01*
X85237932Y-6333158D01*
X85295000Y-6046260D01*
X85295000Y-5753740D01*
X85268807Y-5622060D01*
X85836514Y-5054353D01*
X85868379Y-5028203D01*
X85972724Y-4901058D01*
X86050260Y-4755999D01*
X86098006Y-4598601D01*
X86110088Y-4475931D01*
X86110088Y-4475921D01*
X86114127Y-4434913D01*
X86110088Y-4393905D01*
X86110088Y-3830679D01*
X86214905Y-3809830D01*
X86375965Y-3743117D01*
X86487128Y-3668840D01*
X89869045Y-3668840D01*
X89903920Y-3672275D01*
X89938795Y-3668840D01*
X89938797Y-3668840D01*
X90043104Y-3658567D01*
X90176940Y-3617968D01*
X90300283Y-3552040D01*
X90408395Y-3463315D01*
X90430632Y-3436219D01*
X91817260Y-2049591D01*
X91844356Y-2027354D01*
X91933081Y-1919242D01*
X91995774Y-1801952D01*
X92407880Y-1801952D01*
X92532362Y-1789692D01*
X92652060Y-1753382D01*
X92717880Y-1718200D01*
X92783700Y-1753382D01*
X92903398Y-1789692D01*
X93027880Y-1801952D01*
X93067130Y-1798880D01*
X93225880Y-1640130D01*
X93225880Y-315880D01*
X93479880Y-315880D01*
X93479880Y-1640130D01*
X93638630Y-1798880D01*
X93677880Y-1801952D01*
X93802362Y-1789692D01*
X93922060Y-1753382D01*
X93987880Y-1718200D01*
X94053700Y-1753382D01*
X94173398Y-1789692D01*
X94297880Y-1801952D01*
X94337130Y-1798880D01*
X94495880Y-1640130D01*
X94495880Y-315880D01*
X94749880Y-315880D01*
X94749880Y-1640130D01*
X94908630Y-1798880D01*
X94947880Y-1801952D01*
X95072362Y-1789692D01*
X95192060Y-1753382D01*
X95257880Y-1718200D01*
X95323700Y-1753382D01*
X95443398Y-1789692D01*
X95567880Y-1801952D01*
X95607130Y-1798880D01*
X95765880Y-1640130D01*
X95765880Y-315880D01*
X96019880Y-315880D01*
X96019880Y-1640130D01*
X96178630Y-1798880D01*
X96217880Y-1801952D01*
X96342362Y-1789692D01*
X96462060Y-1753382D01*
X96527880Y-1718200D01*
X96593700Y-1753382D01*
X96713398Y-1789692D01*
X96837880Y-1801952D01*
X96877130Y-1798880D01*
X97035880Y-1640130D01*
X97035880Y-315880D01*
X97289880Y-315880D01*
X97289880Y-1640130D01*
X97448630Y-1798880D01*
X97487880Y-1801952D01*
X97612362Y-1789692D01*
X97732060Y-1753382D01*
X97797880Y-1718200D01*
X97863700Y-1753382D01*
X97983398Y-1789692D01*
X98107880Y-1801952D01*
X98147130Y-1798880D01*
X98305880Y-1640130D01*
X98305880Y-315880D01*
X97289880Y-315880D01*
X97035880Y-315880D01*
X96019880Y-315880D01*
X95765880Y-315880D01*
X94749880Y-315880D01*
X94495880Y-315880D01*
X93479880Y-315880D01*
X93225880Y-315880D01*
X93205880Y-315880D01*
X93205880Y-61880D01*
X93225880Y-61880D01*
X93225880Y-41880D01*
X93479880Y-41880D01*
X93479880Y-61880D01*
X94495880Y-61880D01*
X94495880Y1262370D01*
X94337130Y1421120D01*
X94297880Y1424192D01*
X94173398Y1411932D01*
X94053700Y1375622D01*
X93987880Y1340440D01*
X93922060Y1375622D01*
X93802362Y1411932D01*
X93677880Y1424192D01*
X93675494Y1424005D01*
X93879077Y1627588D01*
X94010204Y1653671D01*
X94171264Y1720384D01*
X94316214Y1817237D01*
X94439483Y1940506D01*
X94536336Y2085456D01*
X94548817Y2115588D01*
X94606376Y2029445D01*
X94729645Y1906176D01*
X94874595Y1809323D01*
X95035655Y1742610D01*
X95166781Y1716527D01*
X95468868Y1414441D01*
X95443398Y1411932D01*
X95323700Y1375622D01*
X95257880Y1340440D01*
X95192060Y1375622D01*
X95072362Y1411932D01*
X94947880Y1424192D01*
X94908630Y1421120D01*
X94749880Y1262370D01*
X94749880Y-61880D01*
X95765880Y-61880D01*
X95765880Y-41880D01*
X96019880Y-41880D01*
X96019880Y-61880D01*
X97035880Y-61880D01*
X97035880Y-41880D01*
X97289880Y-41880D01*
X97289880Y-61880D01*
X98305880Y-61880D01*
X98305880Y-41880D01*
X98559880Y-41880D01*
X98559880Y-61880D01*
X98579880Y-61880D01*
X98579880Y-315880D01*
X98559880Y-315880D01*
X98559880Y-1640130D01*
X98718630Y-1798880D01*
X98757880Y-1801952D01*
X98882362Y-1789692D01*
X99002060Y-1753382D01*
X99112374Y-1694417D01*
X99194880Y-1626706D01*
X99277386Y-1694417D01*
X99387700Y-1753382D01*
X99507398Y-1789692D01*
X99631880Y-1801952D01*
X100281880Y-1801952D01*
X100406362Y-1789692D01*
X100526060Y-1753382D01*
X100591880Y-1718200D01*
X100657700Y-1753382D01*
X100777398Y-1789692D01*
X100901880Y-1801952D01*
X101551880Y-1801952D01*
X101676362Y-1789692D01*
X101796060Y-1753382D01*
X101861880Y-1718200D01*
X101927700Y-1753382D01*
X102047398Y-1789692D01*
X102171880Y-1801952D01*
X102821880Y-1801952D01*
X102946362Y-1789692D01*
X103066060Y-1753382D01*
X103131880Y-1718200D01*
X103197700Y-1753382D01*
X103317398Y-1789692D01*
X103441880Y-1801952D01*
X104091880Y-1801952D01*
X104216362Y-1789692D01*
X104336060Y-1753382D01*
X104401880Y-1718200D01*
X104467700Y-1753382D01*
X104587398Y-1789692D01*
X104711880Y-1801952D01*
X105361880Y-1801952D01*
X105486362Y-1789692D01*
X105606060Y-1753382D01*
X105671880Y-1718200D01*
X105737700Y-1753382D01*
X105857398Y-1789692D01*
X105981880Y-1801952D01*
X106631880Y-1801952D01*
X106756362Y-1789692D01*
X106876060Y-1753382D01*
X106941880Y-1718200D01*
X107007700Y-1753382D01*
X107127398Y-1789692D01*
X107251880Y-1801952D01*
X107291130Y-1798880D01*
X107449880Y-1640130D01*
X107449880Y-315880D01*
X107703880Y-315880D01*
X107703880Y-1640130D01*
X107862630Y-1798880D01*
X107901880Y-1801952D01*
X108026362Y-1789692D01*
X108146060Y-1753382D01*
X108211880Y-1718200D01*
X108277700Y-1753382D01*
X108397398Y-1789692D01*
X108521880Y-1801952D01*
X108561130Y-1798880D01*
X108719880Y-1640130D01*
X108719880Y-315880D01*
X107703880Y-315880D01*
X107449880Y-315880D01*
X107429880Y-315880D01*
X107429880Y-61880D01*
X107449880Y-61880D01*
X107449880Y1262370D01*
X107291130Y1421120D01*
X107251880Y1424192D01*
X107127398Y1411932D01*
X107016880Y1378407D01*
X107016880Y1598966D01*
X107020315Y1633841D01*
X107015174Y1686040D01*
X107006607Y1773024D01*
X106966008Y1906860D01*
X106900080Y2030203D01*
X106811355Y2138315D01*
X106784259Y2160552D01*
X106768133Y2176678D01*
X106757808Y2228585D01*
X106842089Y2102450D01*
X106965358Y1979181D01*
X107110308Y1882328D01*
X107271368Y1815615D01*
X107442348Y1781605D01*
X107602990Y1781605D01*
X107602990Y1668345D01*
X107637000Y1497365D01*
X107703713Y1336305D01*
X107733394Y1291884D01*
X107703880Y1262370D01*
X107703880Y-61880D01*
X108719880Y-61880D01*
X108719880Y-41880D01*
X108973880Y-41880D01*
X108973880Y-61880D01*
X109989880Y-61880D01*
X109989880Y-41880D01*
X110243880Y-41880D01*
X110243880Y-61880D01*
X111259880Y-61880D01*
X111259880Y-41880D01*
X111513880Y-41880D01*
X111513880Y-61880D01*
X112783880Y-61880D01*
X112783880Y1262370D01*
X113037880Y1262370D01*
X113037880Y-61880D01*
X114053880Y-61880D01*
X114053880Y1262370D01*
X114307880Y1262370D01*
X114307880Y-61880D01*
X115323880Y-61880D01*
X115323880Y1262370D01*
X115577880Y1262370D01*
X115577880Y-61880D01*
X116593880Y-61880D01*
X116593880Y1262370D01*
X116435130Y1421120D01*
X116395880Y1424192D01*
X116271398Y1411932D01*
X116151700Y1375622D01*
X116085880Y1340440D01*
X116020060Y1375622D01*
X115900362Y1411932D01*
X115775880Y1424192D01*
X115736630Y1421120D01*
X115577880Y1262370D01*
X115323880Y1262370D01*
X115165130Y1421120D01*
X115125880Y1424192D01*
X115001398Y1411932D01*
X114881700Y1375622D01*
X114815880Y1340440D01*
X114750060Y1375622D01*
X114630362Y1411932D01*
X114505880Y1424192D01*
X114466630Y1421120D01*
X114307880Y1262370D01*
X114053880Y1262370D01*
X113895130Y1421120D01*
X113855880Y1424192D01*
X113731398Y1411932D01*
X113611700Y1375622D01*
X113545880Y1340440D01*
X113480060Y1375622D01*
X113360362Y1411932D01*
X113235880Y1424192D01*
X113196630Y1421120D01*
X113037880Y1262370D01*
X112783880Y1262370D01*
X112625130Y1421120D01*
X112585880Y1424192D01*
X112461398Y1411932D01*
X112341700Y1375622D01*
X112231386Y1316657D01*
X112148880Y1248946D01*
X112066374Y1316657D01*
X112010562Y1346490D01*
X112146805Y1402923D01*
X112291755Y1499776D01*
X112415024Y1623045D01*
X112511877Y1767995D01*
X112578590Y1929055D01*
X112612600Y2100035D01*
X112612600Y2274365D01*
X112578590Y2445345D01*
X112511877Y2606405D01*
X112437600Y2717568D01*
X112437600Y4350445D01*
X112476632Y4376525D01*
X112683475Y4583368D01*
X112800000Y4757760D01*
X112916525Y4583368D01*
%TA.AperFunction,Conductor*%
D21*
G36*
X112916525Y4583368D02*
G01*
X113123368Y4376525D01*
X113366589Y4214010D01*
X113636842Y4102068D01*
X113923740Y4045000D01*
X114216260Y4045000D01*
X114503158Y4102068D01*
X114621731Y4151182D01*
X114621731Y3560286D01*
X114547453Y3449122D01*
X114480740Y3288062D01*
X114446730Y3117082D01*
X114446730Y2942752D01*
X114480740Y2771772D01*
X114547453Y2610712D01*
X114644306Y2465762D01*
X114767575Y2342493D01*
X114912525Y2245640D01*
X115073585Y2178927D01*
X115244565Y2144917D01*
X115418895Y2144917D01*
X115589875Y2178927D01*
X115727025Y2235736D01*
X115732826Y2221732D01*
X115829679Y2076782D01*
X115952948Y1953513D01*
X116097898Y1856660D01*
X116258958Y1789947D01*
X116429938Y1755937D01*
X116604268Y1755937D01*
X116775248Y1789947D01*
X116936308Y1856660D01*
X116952002Y1867146D01*
X116952002Y1838486D01*
X116948566Y1803601D01*
X116962275Y1664417D01*
X117002873Y1530582D01*
X117060510Y1422751D01*
X117045880Y1424192D01*
X117006630Y1421120D01*
X116847880Y1262370D01*
X116847880Y-61880D01*
X117863880Y-61880D01*
X117863880Y-41880D01*
X117938884Y-41880D01*
X117938884Y-335880D01*
X117863880Y-335880D01*
X117863880Y-315880D01*
X116847880Y-315880D01*
X116847880Y-1640130D01*
X117006630Y-1798880D01*
X117045880Y-1801952D01*
X117170362Y-1789692D01*
X117290060Y-1753382D01*
X117355880Y-1718200D01*
X117421700Y-1753382D01*
X117541398Y-1789692D01*
X117665880Y-1801952D01*
X117705130Y-1798880D01*
X117863878Y-1640132D01*
X117863878Y-1798880D01*
X117938884Y-1798880D01*
X117938885Y-8028880D01*
X117863878Y-8028880D01*
X117863878Y-8187628D01*
X117705130Y-8028880D01*
X117665880Y-8025808D01*
X117541398Y-8038068D01*
X117421700Y-8074378D01*
X117355880Y-8109560D01*
X117290060Y-8074378D01*
X117170362Y-8038068D01*
X117045880Y-8025808D01*
X117006630Y-8028880D01*
X116847880Y-8187630D01*
X116847880Y-9511880D01*
X117863880Y-9511880D01*
X117863880Y-9491880D01*
X117938885Y-9491880D01*
X117938885Y-9785880D01*
X117863880Y-9785880D01*
X117863880Y-9765880D01*
X116847880Y-9765880D01*
X116847880Y-11090130D01*
X117006630Y-11248880D01*
X117045880Y-11251952D01*
X117170362Y-11239692D01*
X117290060Y-11203382D01*
X117355880Y-11168200D01*
X117421700Y-11203382D01*
X117541398Y-11239692D01*
X117665880Y-11251952D01*
X117705130Y-11248880D01*
X117785832Y-11168178D01*
X117797894Y-11228815D01*
X117864607Y-11389875D01*
X117961460Y-11534825D01*
X118009716Y-11583081D01*
X117935767Y-11597790D01*
X117679619Y-11703890D01*
X117449091Y-11857924D01*
X117253044Y-12053971D01*
X117099010Y-12284499D01*
X117020923Y-12473019D01*
X117002099Y-12476763D01*
X116917742Y-12511705D01*
X116823630Y-12284499D01*
X116669596Y-12053971D01*
X116473549Y-11857924D01*
X116243021Y-11703890D01*
X115986873Y-11597790D01*
X115714947Y-11543700D01*
X115437693Y-11543700D01*
X115165767Y-11597790D01*
X114909619Y-11703890D01*
X114679091Y-11857924D01*
X114483044Y-12053971D01*
X114329010Y-12284499D01*
X114222910Y-12540647D01*
X114191598Y-12698062D01*
X114177707Y-12605412D01*
X114083896Y-12344512D01*
X114020547Y-12225993D01*
X113779384Y-12157741D01*
X112985925Y-12951200D01*
X113779384Y-13744659D01*
X114020547Y-13676407D01*
X114138697Y-13425589D01*
X114192554Y-13209146D01*
X114222910Y-13361753D01*
X114329010Y-13617901D01*
X114483044Y-13848429D01*
X114679091Y-14044476D01*
X114866320Y-14169579D01*
X114866320Y-14549435D01*
X114858021Y-14543890D01*
X114601873Y-14437790D01*
X114329947Y-14383700D01*
X114052693Y-14383700D01*
X113780767Y-14437790D01*
X113524619Y-14543890D01*
X113294091Y-14697924D01*
X113098044Y-14893971D01*
X112944010Y-15124499D01*
X112837910Y-15380647D01*
X112806320Y-15539459D01*
X112774730Y-15380647D01*
X112668630Y-15124499D01*
X112514596Y-14893971D01*
X112318549Y-14697924D01*
X112131320Y-14572821D01*
X112131320Y-14189077D01*
X112331931Y-14283577D01*
X112600980Y-14350524D01*
X112877920Y-14363696D01*
X113152108Y-14322587D01*
X113413008Y-14228776D01*
X113531527Y-14165427D01*
X113599779Y-13924264D01*
X112806320Y-13130805D01*
X112792178Y-13144948D01*
X112612573Y-12965343D01*
X112626715Y-12951200D01*
X112612573Y-12937058D01*
X112792178Y-12757453D01*
X112806320Y-12771595D01*
X113599779Y-11978136D01*
X113564167Y-11852303D01*
X113582605Y-11852303D01*
X113753585Y-11818293D01*
X113914645Y-11751580D01*
X114059595Y-11654727D01*
X114182864Y-11531458D01*
X114279717Y-11386508D01*
X114346430Y-11225448D01*
X114362485Y-11144735D01*
X114466630Y-11248880D01*
X114505880Y-11251952D01*
X114630362Y-11239692D01*
X114750060Y-11203382D01*
X114815880Y-11168200D01*
X114881700Y-11203382D01*
X115001398Y-11239692D01*
X115125880Y-11251952D01*
X115165130Y-11248880D01*
X115323880Y-11090130D01*
X115323880Y-9765880D01*
X115577880Y-9765880D01*
X115577880Y-11090130D01*
X115736630Y-11248880D01*
X115775880Y-11251952D01*
X115900362Y-11239692D01*
X116020060Y-11203382D01*
X116085880Y-11168200D01*
X116151700Y-11203382D01*
X116271398Y-11239692D01*
X116395880Y-11251952D01*
X116435130Y-11248880D01*
X116593880Y-11090130D01*
X116593880Y-9765880D01*
X115577880Y-9765880D01*
X115323880Y-9765880D01*
X114307880Y-9765880D01*
X114307880Y-9785880D01*
X114053880Y-9785880D01*
X114053880Y-9765880D01*
X113037880Y-9765880D01*
X113037880Y-9785880D01*
X112783880Y-9785880D01*
X112783880Y-9765880D01*
X111513880Y-9765880D01*
X111513880Y-9785880D01*
X111259880Y-9785880D01*
X111259880Y-9765880D01*
X110243880Y-9765880D01*
X110243880Y-9785880D01*
X109989880Y-9785880D01*
X109989880Y-9765880D01*
X108973880Y-9765880D01*
X108973880Y-9785880D01*
X108730106Y-9785880D01*
X108719880Y-9777488D01*
X108719880Y-9765880D01*
X108707972Y-9765880D01*
X108699880Y-9757788D01*
X108699880Y-9511880D01*
X108719880Y-9511880D01*
X108719880Y-9491880D01*
X108973880Y-9491880D01*
X108973880Y-9511880D01*
X109989880Y-9511880D01*
X109989880Y-9491880D01*
X110243880Y-9491880D01*
X110243880Y-9511880D01*
X111259880Y-9511880D01*
X111259880Y-8187630D01*
X111513880Y-8187630D01*
X111513880Y-9511880D01*
X112783880Y-9511880D01*
X112783880Y-8187630D01*
X113037880Y-8187630D01*
X113037880Y-9511880D01*
X114053880Y-9511880D01*
X114053880Y-8187630D01*
X114307880Y-8187630D01*
X114307880Y-9511880D01*
X115323880Y-9511880D01*
X115323880Y-8187630D01*
X115577880Y-8187630D01*
X115577880Y-9511880D01*
X116593880Y-9511880D01*
X116593880Y-8187630D01*
X116435130Y-8028880D01*
X116395880Y-8025808D01*
X116271398Y-8038068D01*
X116151700Y-8074378D01*
X116085880Y-8109560D01*
X116020060Y-8074378D01*
X115900362Y-8038068D01*
X115775880Y-8025808D01*
X115736630Y-8028880D01*
X115577880Y-8187630D01*
X115323880Y-8187630D01*
X115165130Y-8028880D01*
X115125880Y-8025808D01*
X115001398Y-8038068D01*
X114881700Y-8074378D01*
X114815880Y-8109560D01*
X114750060Y-8074378D01*
X114630362Y-8038068D01*
X114505880Y-8025808D01*
X114466630Y-8028880D01*
X114307880Y-8187630D01*
X114053880Y-8187630D01*
X113895130Y-8028880D01*
X113855880Y-8025808D01*
X113731398Y-8038068D01*
X113611700Y-8074378D01*
X113545880Y-8109560D01*
X113480060Y-8074378D01*
X113360362Y-8038068D01*
X113235880Y-8025808D01*
X113196630Y-8028880D01*
X113037880Y-8187630D01*
X112783880Y-8187630D01*
X112625130Y-8028880D01*
X112585880Y-8025808D01*
X112461398Y-8038068D01*
X112341700Y-8074378D01*
X112231386Y-8133343D01*
X112148880Y-8201054D01*
X112066374Y-8133343D01*
X111956060Y-8074378D01*
X111836362Y-8038068D01*
X111711880Y-8025808D01*
X111672630Y-8028880D01*
X111513880Y-8187630D01*
X111259880Y-8187630D01*
X111101130Y-8028880D01*
X111061880Y-8025808D01*
X110937398Y-8038068D01*
X110817700Y-8074378D01*
X110751880Y-8109560D01*
X110686060Y-8074378D01*
X110566362Y-8038068D01*
X110545000Y-8035964D01*
X110545000Y-7898061D01*
X110505226Y-7698102D01*
X110427205Y-7509744D01*
X110313937Y-7340226D01*
X110169774Y-7196063D01*
X110000256Y-7082795D01*
X109917999Y-7048723D01*
X109917999Y-3285000D01*
X109961939Y-3285000D01*
X110161898Y-3245226D01*
X110350256Y-3167205D01*
X110519774Y-3053937D01*
X110663937Y-2909774D01*
X110777205Y-2740256D01*
X110855226Y-2551898D01*
X110895000Y-2351939D01*
X110895000Y-2148061D01*
X110855226Y-1948102D01*
X110777205Y-1759744D01*
X110750087Y-1719158D01*
X110751880Y-1718200D01*
X110817700Y-1753382D01*
X110937398Y-1789692D01*
X111061880Y-1801952D01*
X111101130Y-1798880D01*
X111259880Y-1640130D01*
X111259880Y-315880D01*
X111513880Y-315880D01*
X111513880Y-1640130D01*
X111672630Y-1798880D01*
X111711880Y-1801952D01*
X111836362Y-1789692D01*
X111956060Y-1753382D01*
X112066374Y-1694417D01*
X112148880Y-1626706D01*
X112231386Y-1694417D01*
X112341700Y-1753382D01*
X112461398Y-1789692D01*
X112585880Y-1801952D01*
X112625130Y-1798880D01*
X112783880Y-1640130D01*
X112783880Y-315880D01*
X113037880Y-315880D01*
X113037880Y-1640130D01*
X113196630Y-1798880D01*
X113235880Y-1801952D01*
X113360362Y-1789692D01*
X113480060Y-1753382D01*
X113545880Y-1718200D01*
X113611700Y-1753382D01*
X113731398Y-1789692D01*
X113855880Y-1801952D01*
X113895130Y-1798880D01*
X114053880Y-1640130D01*
X114053880Y-315880D01*
X114307880Y-315880D01*
X114307880Y-1640130D01*
X114466630Y-1798880D01*
X114505880Y-1801952D01*
X114630362Y-1789692D01*
X114750060Y-1753382D01*
X114815880Y-1718200D01*
X114881700Y-1753382D01*
X115001398Y-1789692D01*
X115125880Y-1801952D01*
X115165130Y-1798880D01*
X115323880Y-1640130D01*
X115323880Y-315880D01*
X115577880Y-315880D01*
X115577880Y-1640130D01*
X115736630Y-1798880D01*
X115775880Y-1801952D01*
X115900362Y-1789692D01*
X116020060Y-1753382D01*
X116085880Y-1718200D01*
X116151700Y-1753382D01*
X116271398Y-1789692D01*
X116395880Y-1801952D01*
X116435130Y-1798880D01*
X116593880Y-1640130D01*
X116593880Y-315880D01*
X115577880Y-315880D01*
X115323880Y-315880D01*
X114307880Y-315880D01*
X114053880Y-315880D01*
X113037880Y-315880D01*
X112783880Y-315880D01*
X111513880Y-315880D01*
X111259880Y-315880D01*
X110243880Y-315880D01*
X110243880Y-335880D01*
X109989880Y-335880D01*
X109989880Y-315880D01*
X108973880Y-315880D01*
X108973880Y-1640130D01*
X109003156Y-1669406D01*
X108942795Y-1759744D01*
X108864774Y-1948102D01*
X108825000Y-2148061D01*
X108825000Y-2210199D01*
X108647001Y-2388198D01*
X108617998Y-2412000D01*
X108562870Y-2479175D01*
X108523025Y-2527725D01*
X108504450Y-2562477D01*
X108452453Y-2659755D01*
X108408996Y-2803016D01*
X108397999Y-2914669D01*
X108397999Y-2914679D01*
X108394323Y-2952001D01*
X108397999Y-2989324D01*
X108398000Y-7610667D01*
X108394323Y-7647999D01*
X108398000Y-7685332D01*
X108408997Y-7796985D01*
X108414205Y-7814153D01*
X108452453Y-7940245D01*
X108475000Y-7982427D01*
X108475000Y-8030425D01*
X108397398Y-8038068D01*
X108286880Y-8071593D01*
X108286880Y-7839674D01*
X108290315Y-7804799D01*
X108286880Y-7769923D01*
X108276607Y-7665616D01*
X108236008Y-7531780D01*
X108170080Y-7408437D01*
X108081355Y-7300325D01*
X108054264Y-7278092D01*
X105172792Y-4396621D01*
X105150555Y-4369525D01*
X105119981Y-4344434D01*
X105047424Y-4235845D01*
X104924155Y-4112576D01*
X104779205Y-4015723D01*
X104618145Y-3949010D01*
X104447165Y-3915000D01*
X104272835Y-3915000D01*
X104101855Y-3949010D01*
X103940795Y-4015723D01*
X103795845Y-4112576D01*
X103672576Y-4235845D01*
X103575723Y-4380795D01*
X103559156Y-4420792D01*
X103550225Y-4411861D01*
X103527988Y-4384765D01*
X103419876Y-4296040D01*
X103296533Y-4230112D01*
X103247553Y-4215254D01*
X103234115Y-4201816D01*
X103089165Y-4104963D01*
X102928105Y-4038250D01*
X102757125Y-4004240D01*
X102582795Y-4004240D01*
X102411815Y-4038250D01*
X102250755Y-4104963D01*
X102105805Y-4201816D01*
X101982536Y-4325085D01*
X101929540Y-4404399D01*
X101859403Y-4346840D01*
X101736060Y-4280912D01*
X101602224Y-4240313D01*
X101497917Y-4230040D01*
X101497915Y-4230040D01*
X101463040Y-4226605D01*
X101428165Y-4230040D01*
X101178488Y-4230040D01*
X101067325Y-4155763D01*
X100906265Y-4089050D01*
X100735285Y-4055040D01*
X100560955Y-4055040D01*
X100389975Y-4089050D01*
X100228915Y-4155763D01*
X100154717Y-4205341D01*
X100052300Y-4174273D01*
X99947993Y-4164000D01*
X99947991Y-4164000D01*
X99913116Y-4160565D01*
X99878241Y-4164000D01*
X99248088Y-4164000D01*
X99136925Y-4089723D01*
X98975865Y-4023010D01*
X98804885Y-3989000D01*
X98630555Y-3989000D01*
X98459575Y-4023010D01*
X98298515Y-4089723D01*
X98153565Y-4186576D01*
X98030296Y-4309845D01*
X97933443Y-4454795D01*
X97866730Y-4615855D01*
X97866701Y-4616002D01*
X97555858Y-4616002D01*
X97495397Y-4470035D01*
X97398544Y-4325085D01*
X97275275Y-4201816D01*
X97130325Y-4104963D01*
X96969265Y-4038250D01*
X96798285Y-4004240D01*
X96623955Y-4004240D01*
X96452975Y-4038250D01*
X96291915Y-4104963D01*
X96146965Y-4201816D01*
X96023696Y-4325085D01*
X95926843Y-4470035D01*
X95860130Y-4631095D01*
X95826120Y-4802075D01*
X95826120Y-4976405D01*
X95860130Y-5147385D01*
X95926843Y-5308445D01*
X96023696Y-5453395D01*
X96146965Y-5576664D01*
X96291915Y-5673517D01*
X96452975Y-5740230D01*
X96584103Y-5766313D01*
X96621166Y-5803376D01*
X96643407Y-5830477D01*
X96751519Y-5919202D01*
X96874862Y-5985130D01*
X97008698Y-6025729D01*
X97113005Y-6036002D01*
X97113007Y-6036002D01*
X97147882Y-6039437D01*
X97182757Y-6036002D01*
X99014911Y-6036002D01*
X101099878Y-8120970D01*
X101099878Y-8187628D01*
X100941130Y-8028880D01*
X100901880Y-8025808D01*
X100777398Y-8038068D01*
X100657700Y-8074378D01*
X100591880Y-8109560D01*
X100526060Y-8074378D01*
X100406362Y-8038068D01*
X100281880Y-8025808D01*
X99631880Y-8025808D01*
X99507398Y-8038068D01*
X99387700Y-8074378D01*
X99277386Y-8133343D01*
X99194880Y-8201054D01*
X99112374Y-8133343D01*
X99002060Y-8074378D01*
X98882362Y-8038068D01*
X98757880Y-8025808D01*
X98718630Y-8028880D01*
X98559880Y-8187630D01*
X98559880Y-9511880D01*
X98579880Y-9511880D01*
X98579880Y-9765880D01*
X98559880Y-9765880D01*
X98559880Y-11090130D01*
X98718630Y-11248880D01*
X98757880Y-11251952D01*
X98882362Y-11239692D01*
X99002060Y-11203382D01*
X99112374Y-11144417D01*
X99194880Y-11076706D01*
X99277386Y-11144417D01*
X99387700Y-11203382D01*
X99507398Y-11239692D01*
X99522902Y-11241219D01*
X99486682Y-11277439D01*
X99389829Y-11422389D01*
X99325333Y-11578096D01*
X99315798Y-11587631D01*
X99094947Y-11543700D01*
X98817693Y-11543700D01*
X98545767Y-11597790D01*
X98289619Y-11703890D01*
X98059091Y-11857924D01*
X97863875Y-12053140D01*
X97866237Y-12049605D01*
X97932950Y-11888545D01*
X97966960Y-11717565D01*
X97966960Y-11543235D01*
X97932950Y-11372255D01*
X97866237Y-11211195D01*
X97859526Y-11201151D01*
X97863700Y-11203382D01*
X97983398Y-11239692D01*
X98107880Y-11251952D01*
X98147130Y-11248880D01*
X98305880Y-11090130D01*
X98305880Y-9765880D01*
X97289880Y-9765880D01*
X97289880Y-9785880D01*
X97035880Y-9785880D01*
X97035880Y-9765880D01*
X96019880Y-9765880D01*
X96019880Y-11090130D01*
X96178630Y-11248880D01*
X96217880Y-11251952D01*
X96283477Y-11245491D01*
X96230970Y-11372255D01*
X96196960Y-11543235D01*
X96196960Y-11543700D01*
X96047693Y-11543700D01*
X95775767Y-11597790D01*
X95519619Y-11703890D01*
X95289091Y-11857924D01*
X95093044Y-12053971D01*
X94939010Y-12284499D01*
X94832910Y-12540647D01*
X94827638Y-12567153D01*
X94782710Y-12522225D01*
X94782710Y-11122960D01*
X94908630Y-11248880D01*
X94947880Y-11251952D01*
X95072362Y-11239692D01*
X95192060Y-11203382D01*
X95257880Y-11168200D01*
X95323700Y-11203382D01*
X95443398Y-11239692D01*
X95567880Y-11251952D01*
X95607130Y-11248880D01*
X95765880Y-11090130D01*
X95765880Y-9765880D01*
X94782710Y-9765880D01*
X94782710Y-9511880D01*
X95765880Y-9511880D01*
X95765880Y-8187630D01*
X96019880Y-8187630D01*
X96019880Y-9511880D01*
X97035880Y-9511880D01*
X97035880Y-8187630D01*
X97289880Y-8187630D01*
X97289880Y-9511880D01*
X98305880Y-9511880D01*
X98305880Y-8187630D01*
X98147130Y-8028880D01*
X98107880Y-8025808D01*
X97983398Y-8038068D01*
X97863700Y-8074378D01*
X97797880Y-8109560D01*
X97732060Y-8074378D01*
X97612362Y-8038068D01*
X97487880Y-8025808D01*
X97448630Y-8028880D01*
X97289880Y-8187630D01*
X97035880Y-8187630D01*
X96877130Y-8028880D01*
X96837880Y-8025808D01*
X96713398Y-8038068D01*
X96593700Y-8074378D01*
X96527880Y-8109560D01*
X96462060Y-8074378D01*
X96342362Y-8038068D01*
X96217880Y-8025808D01*
X96178630Y-8028880D01*
X96019880Y-8187630D01*
X95765880Y-8187630D01*
X95607130Y-8028880D01*
X95567880Y-8025808D01*
X95443398Y-8038068D01*
X95323700Y-8074378D01*
X95257880Y-8109560D01*
X95192060Y-8074378D01*
X95072362Y-8038068D01*
X94947880Y-8025808D01*
X94908630Y-8028880D01*
X94782710Y-8154800D01*
X94782710Y-7636592D01*
X94946859Y-7472443D01*
X94989718Y-7463918D01*
X95150778Y-7397205D01*
X95295728Y-7300352D01*
X95418997Y-7177083D01*
X95515850Y-7032133D01*
X95582563Y-6871073D01*
X95616573Y-6700093D01*
X95616573Y-6525763D01*
X95582563Y-6354783D01*
X95515850Y-6193723D01*
X95418997Y-6048773D01*
X95295728Y-5925504D01*
X95150778Y-5828651D01*
X94989718Y-5761938D01*
X94818738Y-5727928D01*
X94644408Y-5727928D01*
X94494705Y-5757706D01*
X94506418Y-5745993D01*
X94637545Y-5719910D01*
X94798605Y-5653197D01*
X94943555Y-5556344D01*
X95066824Y-5433075D01*
X95163677Y-5288125D01*
X95230390Y-5127065D01*
X95264400Y-4956085D01*
X95264400Y-4781755D01*
X95230390Y-4610775D01*
X95163677Y-4449715D01*
X95066824Y-4304765D01*
X94943555Y-4181496D01*
X94798605Y-4084643D01*
X94637545Y-4017930D01*
X94466565Y-3983920D01*
X94292235Y-3983920D01*
X94121255Y-4017930D01*
X93960195Y-4084643D01*
X93815245Y-4181496D01*
X93691976Y-4304765D01*
X93595123Y-4449715D01*
X93528410Y-4610775D01*
X93502327Y-4741902D01*
X93359400Y-4884829D01*
X93359400Y-4781755D01*
X93325390Y-4610775D01*
X93258677Y-4449715D01*
X93161824Y-4304765D01*
X93038555Y-4181496D01*
X92893605Y-4084643D01*
X92732545Y-4017930D01*
X92561565Y-3983920D01*
X92387235Y-3983920D01*
X92216255Y-4017930D01*
X92055195Y-4084643D01*
X91910245Y-4181496D01*
X91786976Y-4304765D01*
X91690123Y-4449715D01*
X91623410Y-4610775D01*
X91597676Y-4740151D01*
X91578406Y-4755965D01*
X91556173Y-4783056D01*
X91489681Y-4864077D01*
X91458934Y-4921600D01*
X91406080Y-4822717D01*
X91317355Y-4714605D01*
X91290254Y-4692364D01*
X91268673Y-4670783D01*
X91242590Y-4539655D01*
X91175877Y-4378595D01*
X91079024Y-4233645D01*
X90955755Y-4110376D01*
X90810805Y-4013523D01*
X90649745Y-3946810D01*
X90478765Y-3912800D01*
X90304435Y-3912800D01*
X90133455Y-3946810D01*
X89972395Y-4013523D01*
X89827445Y-4110376D01*
X89704176Y-4233645D01*
X89607323Y-4378595D01*
X89540610Y-4539655D01*
X89506600Y-4710635D01*
X89506600Y-4884965D01*
X89540610Y-5055945D01*
X89607323Y-5217005D01*
X89673185Y-5315574D01*
X89155393Y-4797782D01*
X89129310Y-4666655D01*
X89062597Y-4505595D01*
X88965744Y-4360645D01*
X88842475Y-4237376D01*
X88697525Y-4140523D01*
X88536465Y-4073810D01*
X88365485Y-4039800D01*
X88191155Y-4039800D01*
X88020175Y-4073810D01*
X87859115Y-4140523D01*
X87714165Y-4237376D01*
X87590896Y-4360645D01*
X87494043Y-4505595D01*
X87427330Y-4666655D01*
X87393320Y-4837635D01*
X87393320Y-5011965D01*
X87427330Y-5182945D01*
X87494043Y-5344005D01*
X87590896Y-5488955D01*
X87714165Y-5612224D01*
X87859115Y-5709077D01*
X88020175Y-5775790D01*
X88151302Y-5801873D01*
X88832881Y-6483452D01*
X88832880Y-8071593D01*
X88722362Y-8038068D01*
X88597880Y-8025808D01*
X88558630Y-8028880D01*
X88399880Y-8187630D01*
X88399880Y-9511880D01*
X88419880Y-9511880D01*
X88419880Y-9765880D01*
X88399880Y-9765880D01*
X88399880Y-11090130D01*
X88558630Y-11248880D01*
X88597880Y-11251952D01*
X88722362Y-11239692D01*
X88842060Y-11203382D01*
X88907880Y-11168200D01*
X88973700Y-11203382D01*
X88979216Y-11205055D01*
X89038406Y-11277179D01*
X89065497Y-11299412D01*
X89084642Y-11318557D01*
X88680682Y-11359192D01*
X88104706Y-11535220D01*
X87584759Y-11813138D01*
X87317894Y-12223169D01*
X89286320Y-14191595D01*
X89300463Y-14177453D01*
X89480068Y-14357058D01*
X89465925Y-14371200D01*
X91434351Y-16339626D01*
X91844382Y-16072761D01*
X92127187Y-15541013D01*
X92197053Y-15308959D01*
X92284443Y-15367351D01*
X92445503Y-15434064D01*
X92616483Y-15468074D01*
X92790813Y-15468074D01*
X92961793Y-15434064D01*
X93122853Y-15367351D01*
X93267803Y-15270498D01*
X93357623Y-15180678D01*
X93519945Y-15148390D01*
X93681005Y-15081677D01*
X93825955Y-14984824D01*
X93949224Y-14861555D01*
X93960061Y-14845336D01*
X94111528Y-14908075D01*
X94282508Y-14942085D01*
X94456838Y-14942085D01*
X94627818Y-14908075D01*
X94788878Y-14841362D01*
X94886809Y-14775926D01*
X96194389Y-16083507D01*
X96217910Y-16201753D01*
X96324010Y-16457901D01*
X96478044Y-16688429D01*
X96674091Y-16884476D01*
X96904619Y-17038510D01*
X97160767Y-17144610D01*
X97432693Y-17198700D01*
X97709947Y-17198700D01*
X97981873Y-17144610D01*
X98238021Y-17038510D01*
X98468549Y-16884476D01*
X98664596Y-16688429D01*
X98818630Y-16457901D01*
X98924730Y-16201753D01*
X98956042Y-16044338D01*
X98969933Y-16136988D01*
X99063744Y-16397888D01*
X99127093Y-16516407D01*
X99368256Y-16584659D01*
X100161715Y-15791200D01*
X99368256Y-14997741D01*
X99127093Y-15065993D01*
X99008943Y-15316811D01*
X98955086Y-15533254D01*
X98924730Y-15380647D01*
X98818630Y-15124499D01*
X98664596Y-14893971D01*
X98588761Y-14818136D01*
X99547861Y-14818136D01*
X100341320Y-15611595D01*
X101134779Y-14818136D01*
X101066527Y-14576973D01*
X100815709Y-14458823D01*
X100546660Y-14391876D01*
X100269720Y-14378704D01*
X99995532Y-14419813D01*
X99734632Y-14513624D01*
X99616113Y-14576973D01*
X99547861Y-14818136D01*
X98588761Y-14818136D01*
X98468549Y-14697924D01*
X98238021Y-14543890D01*
X97981873Y-14437790D01*
X97709947Y-14383700D01*
X97432693Y-14383700D01*
X97160767Y-14437790D01*
X96904619Y-14543890D01*
X96844528Y-14584042D01*
X96570368Y-14309882D01*
X96596873Y-14304610D01*
X96853021Y-14198510D01*
X97083549Y-14044476D01*
X97279596Y-13848429D01*
X97433630Y-13617901D01*
X97539730Y-13361753D01*
X97571320Y-13202941D01*
X97602910Y-13361753D01*
X97709010Y-13617901D01*
X97863044Y-13848429D01*
X98059091Y-14044476D01*
X98289619Y-14198510D01*
X98545767Y-14304610D01*
X98817693Y-14358700D01*
X99094947Y-14358700D01*
X99366873Y-14304610D01*
X99623021Y-14198510D01*
X99853549Y-14044476D01*
X100049596Y-13848429D01*
X100203630Y-13617901D01*
X100309730Y-13361753D01*
X100341320Y-13202941D01*
X100372910Y-13361753D01*
X100479010Y-13617901D01*
X100633044Y-13848429D01*
X100829091Y-14044476D01*
X101059619Y-14198510D01*
X101315767Y-14304610D01*
X101587693Y-14358700D01*
X101864947Y-14358700D01*
X102048151Y-14322258D01*
X102048151Y-14408016D01*
X101557577Y-14898590D01*
X101530486Y-14920823D01*
X101508253Y-14947914D01*
X101441761Y-15028935D01*
X101439507Y-15033152D01*
X101314384Y-14997741D01*
X100520925Y-15791200D01*
X100535068Y-15805343D01*
X100355463Y-15984948D01*
X100341320Y-15970805D01*
X99547861Y-16764264D01*
X99616113Y-17005427D01*
X99866931Y-17123577D01*
X100135980Y-17190524D01*
X100412920Y-17203696D01*
X100687108Y-17162587D01*
X100948008Y-17068776D01*
X101066527Y-17005427D01*
X101134778Y-16764266D01*
X101251150Y-16880638D01*
X101324961Y-16806827D01*
X101324960Y-17607512D01*
X101250683Y-17718675D01*
X101183970Y-17879735D01*
X101149960Y-18050715D01*
X101149960Y-18225045D01*
X101183970Y-18396025D01*
X101250683Y-18557085D01*
X101347536Y-18702035D01*
X101470805Y-18825304D01*
X101615755Y-18922157D01*
X101776815Y-18988870D01*
X101947795Y-19022880D01*
X102122125Y-19022880D01*
X102293105Y-18988870D01*
X102454165Y-18922157D01*
X102599115Y-18825304D01*
X102722384Y-18702035D01*
X102819237Y-18557085D01*
X102885950Y-18396025D01*
X102919960Y-18225045D01*
X102919960Y-18050715D01*
X102885950Y-17879735D01*
X102819237Y-17718675D01*
X102744960Y-17607512D01*
X102744960Y-17153401D01*
X102972693Y-17198700D01*
X103249947Y-17198700D01*
X103398247Y-17169201D01*
X103398247Y-18602746D01*
X103394811Y-18637631D01*
X103408520Y-18776815D01*
X103449118Y-18910650D01*
X103473245Y-18955788D01*
X103473245Y-18974795D01*
X103486215Y-19040000D01*
X85562084Y-19040000D01*
X85657992Y-18988904D01*
X85665589Y-18983828D01*
X85965769Y-18545374D01*
X83800000Y-16379605D01*
X83785858Y-16393748D01*
X83606253Y-16214143D01*
X83620395Y-16200000D01*
X83979605Y-16200000D01*
X86145374Y-18365769D01*
X86583828Y-18065589D01*
X86894296Y-17486644D01*
X87085852Y-16858254D01*
X87117043Y-16545933D01*
X87204119Y-16633009D01*
X87317895Y-16519233D01*
X87584759Y-16929262D01*
X88116507Y-17212067D01*
X88693211Y-17385700D01*
X89292707Y-17443487D01*
X89891958Y-17383208D01*
X90467934Y-17207180D01*
X90987881Y-16929262D01*
X91254746Y-16519231D01*
X89286320Y-14550805D01*
X89272178Y-14564948D01*
X89092573Y-14385343D01*
X89106715Y-14371200D01*
X87138289Y-12402774D01*
X86728258Y-12669639D01*
X86445453Y-13201387D01*
X86271820Y-13778091D01*
X86240830Y-14099584D01*
X86145374Y-14034231D01*
X83979605Y-16200000D01*
X83620395Y-16200000D01*
X81454626Y-14034231D01*
X81016172Y-14334411D01*
X80960000Y-14439158D01*
X80960000Y-13854626D01*
X81634231Y-13854626D01*
X83800000Y-16020395D01*
X85965769Y-13854626D01*
X85665589Y-13416172D01*
X85086644Y-13105704D01*
X84458254Y-12914148D01*
X83804569Y-12848866D01*
X83150707Y-12912366D01*
X82521797Y-13102208D01*
X81942008Y-13411096D01*
X81934411Y-13416172D01*
X81634231Y-13854626D01*
X80960000Y-13854626D01*
X80960000Y-10832027D01*
X81669398Y-11541426D01*
X81695549Y-11573291D01*
X81822694Y-11677636D01*
X81967753Y-11755172D01*
X82125151Y-11802918D01*
X82247821Y-11815000D01*
X82247823Y-11815000D01*
X82288839Y-11819040D01*
X82321928Y-11815781D01*
X82321928Y-11830000D01*
X82334188Y-11954482D01*
X82370498Y-12074180D01*
X82429463Y-12184494D01*
X82508815Y-12281185D01*
X82605506Y-12360537D01*
X82715820Y-12419502D01*
X82835518Y-12455812D01*
X82960000Y-12468072D01*
X84660000Y-12468072D01*
X84784482Y-12455812D01*
X84904180Y-12419502D01*
X85014494Y-12360537D01*
X85111185Y-12281185D01*
X85190537Y-12184494D01*
X85249502Y-12074180D01*
X85285812Y-11954482D01*
X85298072Y-11830000D01*
X85298072Y-11815000D01*
X85620742Y-11815000D01*
X85661760Y-11819040D01*
X85702778Y-11815000D01*
X85702779Y-11815000D01*
X85825449Y-11802918D01*
X85982847Y-11755172D01*
X86127906Y-11677636D01*
X86255051Y-11573291D01*
X86281206Y-11541421D01*
X86580287Y-11242340D01*
X86677880Y-11251952D01*
X87327880Y-11251952D01*
X87452362Y-11239692D01*
X87572060Y-11203382D01*
X87637880Y-11168200D01*
X87703700Y-11203382D01*
X87823398Y-11239692D01*
X87947880Y-11251952D01*
X87987130Y-11248880D01*
X88145880Y-11090130D01*
X88145880Y-9765880D01*
X88125880Y-9765880D01*
X88125880Y-9511880D01*
X88145880Y-9511880D01*
X88145880Y-8187630D01*
X87987130Y-8028880D01*
X87947880Y-8025808D01*
X87823398Y-8038068D01*
X87703700Y-8074378D01*
X87637880Y-8109560D01*
X87572060Y-8074378D01*
X87452362Y-8038068D01*
X87327880Y-8025808D01*
X86677880Y-8025808D01*
X86553398Y-8038068D01*
X86433700Y-8074378D01*
X86323386Y-8133343D01*
X86226695Y-8212695D01*
X86147343Y-8309386D01*
X86088378Y-8419700D01*
X86052068Y-8539398D01*
X86039808Y-8663880D01*
X86039808Y-9421084D01*
X85315893Y-10145000D01*
X85298072Y-10145000D01*
X85298072Y-10130000D01*
X85285812Y-10005518D01*
X85249502Y-9885820D01*
X85190537Y-9775506D01*
X85111185Y-9678815D01*
X85014494Y-9599463D01*
X84904180Y-9540498D01*
X84823534Y-9516034D01*
X84907588Y-9440269D01*
X85081641Y-9206920D01*
X85206825Y-8944099D01*
X85251476Y-8796890D01*
X85130155Y-8567000D01*
X83937000Y-8567000D01*
X83937000Y-8587000D01*
X83683000Y-8587000D01*
X83683000Y-8567000D01*
X82489845Y-8567000D01*
X82368524Y-8796890D01*
X82413175Y-8944099D01*
X82538359Y-9206920D01*
X82712412Y-9440269D01*
X82796466Y-9516034D01*
X82715820Y-9540498D01*
X82605506Y-9599463D01*
X82508815Y-9678815D01*
X82429463Y-9775506D01*
X82372250Y-9882542D01*
X81970840Y-9481133D01*
X81970840Y210653D01*
X82552116Y791928D01*
X83230000Y791928D01*
X83354482Y804188D01*
X83474180Y840498D01*
X83584494Y899463D01*
X83681185Y978815D01*
X83760537Y1075506D01*
X83819502Y1185820D01*
X83843966Y1266466D01*
X83919731Y1182412D01*
X84153080Y1008359D01*
X84415901Y883175D01*
X84563110Y838524D01*
X84793000Y959845D01*
X84793000Y2153000D01*
X84773000Y2153000D01*
X84773000Y2407000D01*
X84793000Y2407000D01*
X84793000Y2427000D01*
X85047000Y2427000D01*
X85047000Y2407000D01*
X85067000Y2407000D01*
X85067000Y2153000D01*
X85047000Y2153000D01*
X85047000Y959845D01*
X85262002Y846381D01*
X85262002Y766487D01*
X85179796Y643457D01*
X85101775Y455099D01*
X85072909Y309977D01*
X84926520Y163587D01*
X84756632Y333475D01*
X84513411Y495990D01*
X84243158Y607932D01*
X83956260Y665000D01*
X83663740Y665000D01*
X83376842Y607932D01*
X83106589Y495990D01*
X82863368Y333475D01*
X82656525Y126632D01*
X82494010Y-116589D01*
X82382068Y-386842D01*
X82325000Y-673740D01*
X82325000Y-966260D01*
X82382068Y-1253158D01*
X82494010Y-1523411D01*
X82656525Y-1766632D01*
X82863368Y-1973475D01*
X83037760Y-2090000D01*
X82863368Y-2206525D01*
X82656525Y-2413368D01*
X82494010Y-2656589D01*
X82382068Y-2926842D01*
X82325000Y-3213740D01*
X82325000Y-3506260D01*
X82382068Y-3793158D01*
X82494010Y-4063411D01*
X82656525Y-4306632D01*
X82863368Y-4513475D01*
X83037760Y-4630000D01*
X82863368Y-4746525D01*
X82656525Y-4953368D01*
X82494010Y-5196589D01*
X82382068Y-5466842D01*
X82325000Y-5753740D01*
X82325000Y-6046260D01*
X82382068Y-6333158D01*
X82494010Y-6603411D01*
X82656525Y-6846632D01*
X82863368Y-7053475D01*
X83045534Y-7175195D01*
X82928645Y-7244822D01*
X82712412Y-7439731D01*
X82538359Y-7673080D01*
X82413175Y-7935901D01*
X82368524Y-8083110D01*
X82489845Y-8313000D01*
X83683000Y-8313000D01*
X83683000Y-8293000D01*
X83937000Y-8293000D01*
X83937000Y-8313000D01*
X85130155Y-8313000D01*
X85251476Y-8083110D01*
X85206825Y-7935901D01*
X85081641Y-7673080D01*
X84907588Y-7439731D01*
X84691355Y-7244822D01*
X84574466Y-7175195D01*
X84756632Y-7053475D01*
X84963475Y-6846632D01*
X85125990Y-6603411D01*
X85237932Y-6333158D01*
X85295000Y-6046260D01*
X85295000Y-5753740D01*
X85268807Y-5622060D01*
X85836514Y-5054353D01*
X85868379Y-5028203D01*
X85972724Y-4901058D01*
X86050260Y-4755999D01*
X86098006Y-4598601D01*
X86110088Y-4475931D01*
X86110088Y-4475921D01*
X86114127Y-4434913D01*
X86110088Y-4393905D01*
X86110088Y-3830679D01*
X86214905Y-3809830D01*
X86375965Y-3743117D01*
X86487128Y-3668840D01*
X89869045Y-3668840D01*
X89903920Y-3672275D01*
X89938795Y-3668840D01*
X89938797Y-3668840D01*
X90043104Y-3658567D01*
X90176940Y-3617968D01*
X90300283Y-3552040D01*
X90408395Y-3463315D01*
X90430632Y-3436219D01*
X91817260Y-2049591D01*
X91844356Y-2027354D01*
X91933081Y-1919242D01*
X91995774Y-1801952D01*
X92407880Y-1801952D01*
X92532362Y-1789692D01*
X92652060Y-1753382D01*
X92717880Y-1718200D01*
X92783700Y-1753382D01*
X92903398Y-1789692D01*
X93027880Y-1801952D01*
X93067130Y-1798880D01*
X93225880Y-1640130D01*
X93225880Y-315880D01*
X93479880Y-315880D01*
X93479880Y-1640130D01*
X93638630Y-1798880D01*
X93677880Y-1801952D01*
X93802362Y-1789692D01*
X93922060Y-1753382D01*
X93987880Y-1718200D01*
X94053700Y-1753382D01*
X94173398Y-1789692D01*
X94297880Y-1801952D01*
X94337130Y-1798880D01*
X94495880Y-1640130D01*
X94495880Y-315880D01*
X94749880Y-315880D01*
X94749880Y-1640130D01*
X94908630Y-1798880D01*
X94947880Y-1801952D01*
X95072362Y-1789692D01*
X95192060Y-1753382D01*
X95257880Y-1718200D01*
X95323700Y-1753382D01*
X95443398Y-1789692D01*
X95567880Y-1801952D01*
X95607130Y-1798880D01*
X95765880Y-1640130D01*
X95765880Y-315880D01*
X96019880Y-315880D01*
X96019880Y-1640130D01*
X96178630Y-1798880D01*
X96217880Y-1801952D01*
X96342362Y-1789692D01*
X96462060Y-1753382D01*
X96527880Y-1718200D01*
X96593700Y-1753382D01*
X96713398Y-1789692D01*
X96837880Y-1801952D01*
X96877130Y-1798880D01*
X97035880Y-1640130D01*
X97035880Y-315880D01*
X97289880Y-315880D01*
X97289880Y-1640130D01*
X97448630Y-1798880D01*
X97487880Y-1801952D01*
X97612362Y-1789692D01*
X97732060Y-1753382D01*
X97797880Y-1718200D01*
X97863700Y-1753382D01*
X97983398Y-1789692D01*
X98107880Y-1801952D01*
X98147130Y-1798880D01*
X98305880Y-1640130D01*
X98305880Y-315880D01*
X97289880Y-315880D01*
X97035880Y-315880D01*
X96019880Y-315880D01*
X95765880Y-315880D01*
X94749880Y-315880D01*
X94495880Y-315880D01*
X93479880Y-315880D01*
X93225880Y-315880D01*
X93205880Y-315880D01*
X93205880Y-61880D01*
X93225880Y-61880D01*
X93225880Y-41880D01*
X93479880Y-41880D01*
X93479880Y-61880D01*
X94495880Y-61880D01*
X94495880Y1262370D01*
X94337130Y1421120D01*
X94297880Y1424192D01*
X94173398Y1411932D01*
X94053700Y1375622D01*
X93987880Y1340440D01*
X93922060Y1375622D01*
X93802362Y1411932D01*
X93677880Y1424192D01*
X93675494Y1424005D01*
X93879077Y1627588D01*
X94010204Y1653671D01*
X94171264Y1720384D01*
X94316214Y1817237D01*
X94439483Y1940506D01*
X94536336Y2085456D01*
X94548817Y2115588D01*
X94606376Y2029445D01*
X94729645Y1906176D01*
X94874595Y1809323D01*
X95035655Y1742610D01*
X95166781Y1716527D01*
X95468868Y1414441D01*
X95443398Y1411932D01*
X95323700Y1375622D01*
X95257880Y1340440D01*
X95192060Y1375622D01*
X95072362Y1411932D01*
X94947880Y1424192D01*
X94908630Y1421120D01*
X94749880Y1262370D01*
X94749880Y-61880D01*
X95765880Y-61880D01*
X95765880Y-41880D01*
X96019880Y-41880D01*
X96019880Y-61880D01*
X97035880Y-61880D01*
X97035880Y-41880D01*
X97289880Y-41880D01*
X97289880Y-61880D01*
X98305880Y-61880D01*
X98305880Y-41880D01*
X98559880Y-41880D01*
X98559880Y-61880D01*
X98579880Y-61880D01*
X98579880Y-315880D01*
X98559880Y-315880D01*
X98559880Y-1640130D01*
X98718630Y-1798880D01*
X98757880Y-1801952D01*
X98882362Y-1789692D01*
X99002060Y-1753382D01*
X99112374Y-1694417D01*
X99194880Y-1626706D01*
X99277386Y-1694417D01*
X99387700Y-1753382D01*
X99507398Y-1789692D01*
X99631880Y-1801952D01*
X100281880Y-1801952D01*
X100406362Y-1789692D01*
X100526060Y-1753382D01*
X100591880Y-1718200D01*
X100657700Y-1753382D01*
X100777398Y-1789692D01*
X100901880Y-1801952D01*
X101551880Y-1801952D01*
X101676362Y-1789692D01*
X101796060Y-1753382D01*
X101861880Y-1718200D01*
X101927700Y-1753382D01*
X102047398Y-1789692D01*
X102171880Y-1801952D01*
X102821880Y-1801952D01*
X102946362Y-1789692D01*
X103066060Y-1753382D01*
X103131880Y-1718200D01*
X103197700Y-1753382D01*
X103317398Y-1789692D01*
X103441880Y-1801952D01*
X104091880Y-1801952D01*
X104216362Y-1789692D01*
X104336060Y-1753382D01*
X104401880Y-1718200D01*
X104467700Y-1753382D01*
X104587398Y-1789692D01*
X104711880Y-1801952D01*
X105361880Y-1801952D01*
X105486362Y-1789692D01*
X105606060Y-1753382D01*
X105671880Y-1718200D01*
X105737700Y-1753382D01*
X105857398Y-1789692D01*
X105981880Y-1801952D01*
X106631880Y-1801952D01*
X106756362Y-1789692D01*
X106876060Y-1753382D01*
X106941880Y-1718200D01*
X107007700Y-1753382D01*
X107127398Y-1789692D01*
X107251880Y-1801952D01*
X107291130Y-1798880D01*
X107449880Y-1640130D01*
X107449880Y-315880D01*
X107703880Y-315880D01*
X107703880Y-1640130D01*
X107862630Y-1798880D01*
X107901880Y-1801952D01*
X108026362Y-1789692D01*
X108146060Y-1753382D01*
X108211880Y-1718200D01*
X108277700Y-1753382D01*
X108397398Y-1789692D01*
X108521880Y-1801952D01*
X108561130Y-1798880D01*
X108719880Y-1640130D01*
X108719880Y-315880D01*
X107703880Y-315880D01*
X107449880Y-315880D01*
X107429880Y-315880D01*
X107429880Y-61880D01*
X107449880Y-61880D01*
X107449880Y1262370D01*
X107291130Y1421120D01*
X107251880Y1424192D01*
X107127398Y1411932D01*
X107016880Y1378407D01*
X107016880Y1598966D01*
X107020315Y1633841D01*
X107015174Y1686040D01*
X107006607Y1773024D01*
X106966008Y1906860D01*
X106900080Y2030203D01*
X106811355Y2138315D01*
X106784259Y2160552D01*
X106768133Y2176678D01*
X106757808Y2228585D01*
X106842089Y2102450D01*
X106965358Y1979181D01*
X107110308Y1882328D01*
X107271368Y1815615D01*
X107442348Y1781605D01*
X107602990Y1781605D01*
X107602990Y1668345D01*
X107637000Y1497365D01*
X107703713Y1336305D01*
X107733394Y1291884D01*
X107703880Y1262370D01*
X107703880Y-61880D01*
X108719880Y-61880D01*
X108719880Y-41880D01*
X108973880Y-41880D01*
X108973880Y-61880D01*
X109989880Y-61880D01*
X109989880Y-41880D01*
X110243880Y-41880D01*
X110243880Y-61880D01*
X111259880Y-61880D01*
X111259880Y-41880D01*
X111513880Y-41880D01*
X111513880Y-61880D01*
X112783880Y-61880D01*
X112783880Y1262370D01*
X113037880Y1262370D01*
X113037880Y-61880D01*
X114053880Y-61880D01*
X114053880Y1262370D01*
X114307880Y1262370D01*
X114307880Y-61880D01*
X115323880Y-61880D01*
X115323880Y1262370D01*
X115577880Y1262370D01*
X115577880Y-61880D01*
X116593880Y-61880D01*
X116593880Y1262370D01*
X116435130Y1421120D01*
X116395880Y1424192D01*
X116271398Y1411932D01*
X116151700Y1375622D01*
X116085880Y1340440D01*
X116020060Y1375622D01*
X115900362Y1411932D01*
X115775880Y1424192D01*
X115736630Y1421120D01*
X115577880Y1262370D01*
X115323880Y1262370D01*
X115165130Y1421120D01*
X115125880Y1424192D01*
X115001398Y1411932D01*
X114881700Y1375622D01*
X114815880Y1340440D01*
X114750060Y1375622D01*
X114630362Y1411932D01*
X114505880Y1424192D01*
X114466630Y1421120D01*
X114307880Y1262370D01*
X114053880Y1262370D01*
X113895130Y1421120D01*
X113855880Y1424192D01*
X113731398Y1411932D01*
X113611700Y1375622D01*
X113545880Y1340440D01*
X113480060Y1375622D01*
X113360362Y1411932D01*
X113235880Y1424192D01*
X113196630Y1421120D01*
X113037880Y1262370D01*
X112783880Y1262370D01*
X112625130Y1421120D01*
X112585880Y1424192D01*
X112461398Y1411932D01*
X112341700Y1375622D01*
X112231386Y1316657D01*
X112148880Y1248946D01*
X112066374Y1316657D01*
X112010562Y1346490D01*
X112146805Y1402923D01*
X112291755Y1499776D01*
X112415024Y1623045D01*
X112511877Y1767995D01*
X112578590Y1929055D01*
X112612600Y2100035D01*
X112612600Y2274365D01*
X112578590Y2445345D01*
X112511877Y2606405D01*
X112437600Y2717568D01*
X112437600Y4350445D01*
X112476632Y4376525D01*
X112683475Y4583368D01*
X112800000Y4757760D01*
X112916525Y4583368D01*
G37*
%TD.AperFunction*%
D24*
X122532910Y-13361753D02*
X122639010Y-13617901D01*
X122793044Y-13848429D01*
X122989091Y-14044476D01*
X123176320Y-14169579D01*
X123176320Y-14553323D01*
X122975709Y-14458823D01*
X122706660Y-14391876D01*
X122429720Y-14378704D01*
X122155532Y-14419813D01*
X121894632Y-14513624D01*
X121776113Y-14576973D01*
X121707861Y-14818136D01*
X122501320Y-15611595D01*
X122515463Y-15597453D01*
X122695068Y-15777058D01*
X122680925Y-15791200D01*
X122695068Y-15805343D01*
X122515463Y-15984948D01*
X122501320Y-15970805D01*
X121707861Y-16764264D01*
X121776113Y-17005427D01*
X122026931Y-17123577D01*
X122295980Y-17190524D01*
X122572920Y-17203696D01*
X122847108Y-17162587D01*
X123108008Y-17068776D01*
X123176321Y-17032262D01*
X123176321Y-17522749D01*
X123120083Y-17606915D01*
X123053370Y-17767975D01*
X123019360Y-17938955D01*
X123019360Y-18113285D01*
X123053370Y-18284265D01*
X123120083Y-18445325D01*
X123216936Y-18590275D01*
X123340205Y-18713544D01*
X123485155Y-18810397D01*
X123646215Y-18877110D01*
X123817195Y-18911120D01*
X123882926Y-18911120D01*
X123896650Y-18980115D01*
X123921455Y-19040000D01*
X107476967Y-19040000D01*
X107635765Y-18974224D01*
X107780715Y-18877371D01*
X107903984Y-18754102D01*
X108000837Y-18609152D01*
X108067550Y-18448092D01*
X108101560Y-18277112D01*
X108101560Y-18102782D01*
X108067550Y-17931802D01*
X108000837Y-17770742D01*
X107926560Y-17659579D01*
X107926560Y-16999716D01*
X107984619Y-17038510D01*
X108240767Y-17144610D01*
X108512693Y-17198700D01*
X108789947Y-17198700D01*
X109061873Y-17144610D01*
X109318021Y-17038510D01*
X109548549Y-16884476D01*
X109744596Y-16688429D01*
X109898630Y-16457901D01*
X110004730Y-16201753D01*
X110036320Y-16042941D01*
X110067910Y-16201753D01*
X110174010Y-16457901D01*
X110328044Y-16688429D01*
X110524091Y-16884476D01*
X110754619Y-17038510D01*
X111010767Y-17144610D01*
X111282693Y-17198700D01*
X111559947Y-17198700D01*
X111831873Y-17144610D01*
X112088021Y-17038510D01*
X112318549Y-16884476D01*
X112514596Y-16688429D01*
X112668630Y-16457901D01*
X112774730Y-16201753D01*
X112806320Y-16042941D01*
X112837910Y-16201753D01*
X112944010Y-16457901D01*
X113098044Y-16688429D01*
X113294091Y-16884476D01*
X113524619Y-17038510D01*
X113780767Y-17144610D01*
X114052693Y-17198700D01*
X114329947Y-17198700D01*
X114601873Y-17144610D01*
X114858021Y-17038510D01*
X114866321Y-17032964D01*
X114866321Y-17298260D01*
X114805805Y-17338696D01*
X114682536Y-17461965D01*
X114585683Y-17606915D01*
X114518970Y-17767975D01*
X114484960Y-17938955D01*
X114484960Y-18113285D01*
X114518970Y-18284265D01*
X114585683Y-18445325D01*
X114682536Y-18590275D01*
X114805805Y-18713544D01*
X114950755Y-18810397D01*
X115111815Y-18877110D01*
X115282795Y-18911120D01*
X115457125Y-18911120D01*
X115628105Y-18877110D01*
X115789165Y-18810397D01*
X115934115Y-18713544D01*
X116057384Y-18590275D01*
X116154237Y-18445325D01*
X116220950Y-18284265D01*
X116254960Y-18113285D01*
X116254960Y-18028458D01*
X116276047Y-17958944D01*
X116286320Y-17854637D01*
X116286320Y-17854636D01*
X116289755Y-17819761D01*
X116286320Y-17784886D01*
X116286320Y-17029077D01*
X116486931Y-17123577D01*
X116755980Y-17190524D01*
X117032920Y-17203696D01*
X117307108Y-17162587D01*
X117568008Y-17068776D01*
X117686527Y-17005427D01*
X117754779Y-16764264D01*
X116961320Y-15970805D01*
X116947178Y-15984948D01*
X116767573Y-15805343D01*
X116781715Y-15791200D01*
X116767573Y-15777058D01*
X116947178Y-15597453D01*
X116961320Y-15611595D01*
X116975463Y-15597453D01*
X117155068Y-15777058D01*
X117140925Y-15791200D01*
X117934384Y-16584659D01*
X118175547Y-16516407D01*
X118293697Y-16265589D01*
X118347554Y-16049146D01*
X118377910Y-16201753D01*
X118484010Y-16457901D01*
X118638044Y-16688429D01*
X118834091Y-16884476D01*
X119064619Y-17038510D01*
X119320767Y-17144610D01*
X119592693Y-17198700D01*
X119869947Y-17198700D01*
X120141873Y-17144610D01*
X120398021Y-17038510D01*
X120628549Y-16884476D01*
X120824596Y-16688429D01*
X120978630Y-16457901D01*
X121084730Y-16201753D01*
X121116042Y-16044338D01*
X121129933Y-16136988D01*
X121223744Y-16397888D01*
X121287093Y-16516407D01*
X121528256Y-16584659D01*
X122321715Y-15791200D01*
X121528256Y-14997741D01*
X121287093Y-15065993D01*
X121168943Y-15316811D01*
X121115086Y-15533254D01*
X121084730Y-15380647D01*
X120978630Y-15124499D01*
X120824596Y-14893971D01*
X120628549Y-14697924D01*
X120398021Y-14543890D01*
X120141873Y-14437790D01*
X119869947Y-14383700D01*
X119592693Y-14383700D01*
X119365479Y-14428896D01*
X119086198Y-14149615D01*
X119243549Y-14044476D01*
X119439596Y-13848429D01*
X119593630Y-13617901D01*
X119699730Y-13361753D01*
X119731320Y-13202941D01*
X119762910Y-13361753D01*
X119869010Y-13617901D01*
X120023044Y-13848429D01*
X120219091Y-14044476D01*
X120449619Y-14198510D01*
X120705767Y-14304610D01*
X120977693Y-14358700D01*
X121254947Y-14358700D01*
X121526873Y-14304610D01*
X121783021Y-14198510D01*
X122013549Y-14044476D01*
X122209596Y-13848429D01*
X122363630Y-13617901D01*
X122469730Y-13361753D01*
X122501320Y-13202941D01*
X122532910Y-13361753D01*
%TA.AperFunction,Conductor*%
D21*
G36*
X122532910Y-13361753D02*
G01*
X122639010Y-13617901D01*
X122793044Y-13848429D01*
X122989091Y-14044476D01*
X123176320Y-14169579D01*
X123176320Y-14553323D01*
X122975709Y-14458823D01*
X122706660Y-14391876D01*
X122429720Y-14378704D01*
X122155532Y-14419813D01*
X121894632Y-14513624D01*
X121776113Y-14576973D01*
X121707861Y-14818136D01*
X122501320Y-15611595D01*
X122515463Y-15597453D01*
X122695068Y-15777058D01*
X122680925Y-15791200D01*
X122695068Y-15805343D01*
X122515463Y-15984948D01*
X122501320Y-15970805D01*
X121707861Y-16764264D01*
X121776113Y-17005427D01*
X122026931Y-17123577D01*
X122295980Y-17190524D01*
X122572920Y-17203696D01*
X122847108Y-17162587D01*
X123108008Y-17068776D01*
X123176321Y-17032262D01*
X123176321Y-17522749D01*
X123120083Y-17606915D01*
X123053370Y-17767975D01*
X123019360Y-17938955D01*
X123019360Y-18113285D01*
X123053370Y-18284265D01*
X123120083Y-18445325D01*
X123216936Y-18590275D01*
X123340205Y-18713544D01*
X123485155Y-18810397D01*
X123646215Y-18877110D01*
X123817195Y-18911120D01*
X123882926Y-18911120D01*
X123896650Y-18980115D01*
X123921455Y-19040000D01*
X107476967Y-19040000D01*
X107635765Y-18974224D01*
X107780715Y-18877371D01*
X107903984Y-18754102D01*
X108000837Y-18609152D01*
X108067550Y-18448092D01*
X108101560Y-18277112D01*
X108101560Y-18102782D01*
X108067550Y-17931802D01*
X108000837Y-17770742D01*
X107926560Y-17659579D01*
X107926560Y-16999716D01*
X107984619Y-17038510D01*
X108240767Y-17144610D01*
X108512693Y-17198700D01*
X108789947Y-17198700D01*
X109061873Y-17144610D01*
X109318021Y-17038510D01*
X109548549Y-16884476D01*
X109744596Y-16688429D01*
X109898630Y-16457901D01*
X110004730Y-16201753D01*
X110036320Y-16042941D01*
X110067910Y-16201753D01*
X110174010Y-16457901D01*
X110328044Y-16688429D01*
X110524091Y-16884476D01*
X110754619Y-17038510D01*
X111010767Y-17144610D01*
X111282693Y-17198700D01*
X111559947Y-17198700D01*
X111831873Y-17144610D01*
X112088021Y-17038510D01*
X112318549Y-16884476D01*
X112514596Y-16688429D01*
X112668630Y-16457901D01*
X112774730Y-16201753D01*
X112806320Y-16042941D01*
X112837910Y-16201753D01*
X112944010Y-16457901D01*
X113098044Y-16688429D01*
X113294091Y-16884476D01*
X113524619Y-17038510D01*
X113780767Y-17144610D01*
X114052693Y-17198700D01*
X114329947Y-17198700D01*
X114601873Y-17144610D01*
X114858021Y-17038510D01*
X114866321Y-17032964D01*
X114866321Y-17298260D01*
X114805805Y-17338696D01*
X114682536Y-17461965D01*
X114585683Y-17606915D01*
X114518970Y-17767975D01*
X114484960Y-17938955D01*
X114484960Y-18113285D01*
X114518970Y-18284265D01*
X114585683Y-18445325D01*
X114682536Y-18590275D01*
X114805805Y-18713544D01*
X114950755Y-18810397D01*
X115111815Y-18877110D01*
X115282795Y-18911120D01*
X115457125Y-18911120D01*
X115628105Y-18877110D01*
X115789165Y-18810397D01*
X115934115Y-18713544D01*
X116057384Y-18590275D01*
X116154237Y-18445325D01*
X116220950Y-18284265D01*
X116254960Y-18113285D01*
X116254960Y-18028458D01*
X116276047Y-17958944D01*
X116286320Y-17854637D01*
X116286320Y-17854636D01*
X116289755Y-17819761D01*
X116286320Y-17784886D01*
X116286320Y-17029077D01*
X116486931Y-17123577D01*
X116755980Y-17190524D01*
X117032920Y-17203696D01*
X117307108Y-17162587D01*
X117568008Y-17068776D01*
X117686527Y-17005427D01*
X117754779Y-16764264D01*
X116961320Y-15970805D01*
X116947178Y-15984948D01*
X116767573Y-15805343D01*
X116781715Y-15791200D01*
X116767573Y-15777058D01*
X116947178Y-15597453D01*
X116961320Y-15611595D01*
X116975463Y-15597453D01*
X117155068Y-15777058D01*
X117140925Y-15791200D01*
X117934384Y-16584659D01*
X118175547Y-16516407D01*
X118293697Y-16265589D01*
X118347554Y-16049146D01*
X118377910Y-16201753D01*
X118484010Y-16457901D01*
X118638044Y-16688429D01*
X118834091Y-16884476D01*
X119064619Y-17038510D01*
X119320767Y-17144610D01*
X119592693Y-17198700D01*
X119869947Y-17198700D01*
X120141873Y-17144610D01*
X120398021Y-17038510D01*
X120628549Y-16884476D01*
X120824596Y-16688429D01*
X120978630Y-16457901D01*
X121084730Y-16201753D01*
X121116042Y-16044338D01*
X121129933Y-16136988D01*
X121223744Y-16397888D01*
X121287093Y-16516407D01*
X121528256Y-16584659D01*
X122321715Y-15791200D01*
X121528256Y-14997741D01*
X121287093Y-15065993D01*
X121168943Y-15316811D01*
X121115086Y-15533254D01*
X121084730Y-15380647D01*
X120978630Y-15124499D01*
X120824596Y-14893971D01*
X120628549Y-14697924D01*
X120398021Y-14543890D01*
X120141873Y-14437790D01*
X119869947Y-14383700D01*
X119592693Y-14383700D01*
X119365479Y-14428896D01*
X119086198Y-14149615D01*
X119243549Y-14044476D01*
X119439596Y-13848429D01*
X119593630Y-13617901D01*
X119699730Y-13361753D01*
X119731320Y-13202941D01*
X119762910Y-13361753D01*
X119869010Y-13617901D01*
X120023044Y-13848429D01*
X120219091Y-14044476D01*
X120449619Y-14198510D01*
X120705767Y-14304610D01*
X120977693Y-14358700D01*
X121254947Y-14358700D01*
X121526873Y-14304610D01*
X121783021Y-14198510D01*
X122013549Y-14044476D01*
X122209596Y-13848429D01*
X122363630Y-13617901D01*
X122469730Y-13361753D01*
X122501320Y-13202941D01*
X122532910Y-13361753D01*
G37*
%TD.AperFunction*%
D24*
X128235068Y-15777058D02*
X128220925Y-15791200D01*
X128235068Y-15805343D01*
X128055463Y-15984948D01*
X128041320Y-15970805D01*
X128027178Y-15984948D01*
X127847573Y-15805343D01*
X127861715Y-15791200D01*
X127847573Y-15777058D01*
X128027178Y-15597453D01*
X128041320Y-15611595D01*
X128055463Y-15597453D01*
X128235068Y-15777058D01*
%TA.AperFunction,Conductor*%
D21*
G36*
X128235068Y-15777058D02*
G01*
X128220925Y-15791200D01*
X128235068Y-15805343D01*
X128055463Y-15984948D01*
X128041320Y-15970805D01*
X128027178Y-15984948D01*
X127847573Y-15805343D01*
X127861715Y-15791200D01*
X127847573Y-15777058D01*
X128027178Y-15597453D01*
X128041320Y-15611595D01*
X128055463Y-15597453D01*
X128235068Y-15777058D01*
G37*
%TD.AperFunction*%
D24*
X107460068Y-12937058D02*
X107445925Y-12951200D01*
X107460068Y-12965343D01*
X107280463Y-13144948D01*
X107266320Y-13130805D01*
X107252178Y-13144948D01*
X107072573Y-12965343D01*
X107086715Y-12951200D01*
X107072573Y-12937058D01*
X107252178Y-12757453D01*
X107266320Y-12771595D01*
X107280463Y-12757453D01*
X107460068Y-12937058D01*
%TA.AperFunction,Conductor*%
D21*
G36*
X107460068Y-12937058D02*
G01*
X107445925Y-12951200D01*
X107460068Y-12965343D01*
X107280463Y-13144948D01*
X107266320Y-13130805D01*
X107252178Y-13144948D01*
X107072573Y-12965343D01*
X107086715Y-12951200D01*
X107072573Y-12937058D01*
X107252178Y-12757453D01*
X107266320Y-12771595D01*
X107280463Y-12757453D01*
X107460068Y-12937058D01*
G37*
%TD.AperFunction*%
D24*
X119277000Y5657000D02*
X119297000Y5657000D01*
X119297000Y5403000D01*
X119277000Y5403000D01*
X119277000Y4209845D01*
X119506890Y4088524D01*
X119584871Y4112177D01*
X119584871Y3818984D01*
X119540391Y3752416D01*
X119473678Y3591356D01*
X119439668Y3420376D01*
X119439668Y3246046D01*
X119473678Y3075066D01*
X119540391Y2914006D01*
X119637244Y2769056D01*
X119760513Y2645787D01*
X119905463Y2548934D01*
X120066523Y2482221D01*
X120237503Y2448211D01*
X120411833Y2448211D01*
X120582813Y2482221D01*
X120743873Y2548934D01*
X120761810Y2560919D01*
X120901000Y2421729D01*
X120901000Y2276762D01*
X120935010Y2105782D01*
X121001723Y1944722D01*
X121090880Y1811289D01*
X121090880Y1378407D01*
X120980362Y1411932D01*
X120855880Y1424192D01*
X120816630Y1421120D01*
X120657880Y1262370D01*
X120657880Y-61880D01*
X120677880Y-61880D01*
X120677880Y-315880D01*
X120657880Y-315880D01*
X120657880Y-1640130D01*
X120816630Y-1798880D01*
X120855880Y-1801952D01*
X120980362Y-1789692D01*
X121100060Y-1753382D01*
X121165880Y-1718200D01*
X121231700Y-1753382D01*
X121351398Y-1789692D01*
X121475880Y-1801952D01*
X122125880Y-1801952D01*
X122250362Y-1789692D01*
X122370060Y-1753382D01*
X122435880Y-1718200D01*
X122501700Y-1753382D01*
X122621398Y-1789692D01*
X122745880Y-1801952D01*
X122785130Y-1798880D01*
X122943880Y-1640130D01*
X122943880Y-315880D01*
X122923880Y-315880D01*
X122923880Y-61880D01*
X122943880Y-61880D01*
X122943880Y1262370D01*
X122785130Y1421120D01*
X122745880Y1424192D01*
X122621398Y1411932D01*
X122510880Y1378407D01*
X122510880Y1855829D01*
X122570277Y1944722D01*
X122636990Y2105782D01*
X122671000Y2276762D01*
X122671000Y2451092D01*
X122636990Y2622072D01*
X122570277Y2783132D01*
X122473424Y2928082D01*
X122350155Y3051351D01*
X122205205Y3148204D01*
X122166802Y3164111D01*
X121281880Y4049032D01*
X121281880Y4097088D01*
X121543740Y4045000D01*
X121836260Y4045000D01*
X122123158Y4102068D01*
X122393411Y4214010D01*
X122636632Y4376525D01*
X122843475Y4583368D01*
X122960000Y4757760D01*
X123076525Y4583368D01*
X123283368Y4376525D01*
X123526589Y4214010D01*
X123796842Y4102068D01*
X124083740Y4045000D01*
X124376260Y4045000D01*
X124655386Y4100522D01*
X125192346Y3563562D01*
X125075195Y3515037D01*
X124930245Y3418184D01*
X124806976Y3294915D01*
X124710123Y3149965D01*
X124694015Y3111076D01*
X124686778Y3118313D01*
X124664541Y3145409D01*
X124556429Y3234134D01*
X124433086Y3300062D01*
X124299250Y3340661D01*
X124267644Y3343774D01*
X124145765Y3425211D01*
X123984705Y3491924D01*
X123813725Y3525934D01*
X123639395Y3525934D01*
X123468415Y3491924D01*
X123307355Y3425211D01*
X123162405Y3328358D01*
X123039136Y3205089D01*
X122942283Y3060139D01*
X122875570Y2899079D01*
X122841560Y2728099D01*
X122841560Y2553769D01*
X122875570Y2382789D01*
X122942283Y2221729D01*
X123039136Y2076779D01*
X123162405Y1953510D01*
X123307355Y1856657D01*
X123468415Y1789944D01*
X123639395Y1755934D01*
X123813725Y1755934D01*
X123984705Y1789944D01*
X124000445Y1796464D01*
X124372717Y1424192D01*
X124015880Y1424192D01*
X123891398Y1411932D01*
X123771700Y1375622D01*
X123705880Y1340440D01*
X123640060Y1375622D01*
X123520362Y1411932D01*
X123395880Y1424192D01*
X123356630Y1421120D01*
X123197880Y1262370D01*
X123197880Y-61880D01*
X123217880Y-61880D01*
X123217880Y-315880D01*
X123197880Y-315880D01*
X123197880Y-1640130D01*
X123356630Y-1798880D01*
X123395880Y-1801952D01*
X123520362Y-1789692D01*
X123580881Y-1771334D01*
X123580881Y-2334517D01*
X122687242Y-3228156D01*
X122658239Y-3251959D01*
X122603111Y-3319134D01*
X122563266Y-3367684D01*
X122496816Y-3492002D01*
X122492694Y-3499714D01*
X122449237Y-3642975D01*
X122438240Y-3754628D01*
X122438240Y-3754638D01*
X122434564Y-3791960D01*
X122438240Y-3829283D01*
X122438241Y-6877149D01*
X122206440Y-6645349D01*
X122206440Y-5353568D01*
X122280717Y-5242405D01*
X122347430Y-5081345D01*
X122381440Y-4910365D01*
X122381440Y-4736035D01*
X122347430Y-4565055D01*
X122280717Y-4403995D01*
X122183864Y-4259045D01*
X122060595Y-4135776D01*
X121915645Y-4038923D01*
X121754585Y-3972210D01*
X121583605Y-3938200D01*
X121409275Y-3938200D01*
X121238295Y-3972210D01*
X121077235Y-4038923D01*
X120932285Y-4135776D01*
X120809016Y-4259045D01*
X120712163Y-4403995D01*
X120645450Y-4565055D01*
X120611440Y-4736035D01*
X120611440Y-4910365D01*
X120645450Y-5081345D01*
X120712163Y-5242405D01*
X120786441Y-5353569D01*
X120786440Y-6904565D01*
X120783005Y-6939440D01*
X120786440Y-6974315D01*
X120786440Y-6974316D01*
X120796713Y-7078623D01*
X120837312Y-7212459D01*
X120903240Y-7335802D01*
X120991965Y-7443914D01*
X121019057Y-7466148D01*
X121673878Y-8120970D01*
X121673878Y-8187628D01*
X121515130Y-8028880D01*
X121475880Y-8025808D01*
X121351398Y-8038068D01*
X121231700Y-8074378D01*
X121165880Y-8109560D01*
X121100060Y-8074378D01*
X120980362Y-8038068D01*
X120855880Y-8025808D01*
X120816630Y-8028880D01*
X120657880Y-8187630D01*
X120657880Y-9511880D01*
X121673880Y-9511880D01*
X121673880Y-9491880D01*
X121927880Y-9491880D01*
X121927880Y-9511880D01*
X121947880Y-9511880D01*
X121947880Y-9765880D01*
X121927880Y-9765880D01*
X121927880Y-11090130D01*
X122086630Y-11248880D01*
X122125880Y-11251952D01*
X122250362Y-11239692D01*
X122370060Y-11203382D01*
X122435880Y-11168200D01*
X122501700Y-11203382D01*
X122621398Y-11239692D01*
X122745880Y-11251952D01*
X122956076Y-11251952D01*
X122959992Y-11257813D01*
X123083261Y-11381082D01*
X123228211Y-11477935D01*
X123389271Y-11544648D01*
X123560251Y-11578658D01*
X123571949Y-11578658D01*
X123475767Y-11597790D01*
X123219619Y-11703890D01*
X122989091Y-11857924D01*
X122793044Y-12053971D01*
X122639010Y-12284499D01*
X122532910Y-12540647D01*
X122501320Y-12699459D01*
X122469730Y-12540647D01*
X122363630Y-12284499D01*
X122209596Y-12053971D01*
X122013549Y-11857924D01*
X121783021Y-11703890D01*
X121526873Y-11597790D01*
X121254947Y-11543700D01*
X120977693Y-11543700D01*
X120705767Y-11597790D01*
X120449619Y-11703890D01*
X120219091Y-11857924D01*
X120023044Y-12053971D01*
X119869010Y-12284499D01*
X119762910Y-12540647D01*
X119731320Y-12699459D01*
X119699730Y-12540647D01*
X119593630Y-12284499D01*
X119439596Y-12053971D01*
X119243549Y-11857924D01*
X119078761Y-11747816D01*
X119213039Y-11658094D01*
X119336308Y-11534825D01*
X119433161Y-11389875D01*
X119499874Y-11228815D01*
X119504302Y-11206552D01*
X119546630Y-11248880D01*
X119585880Y-11251952D01*
X119710362Y-11239692D01*
X119830060Y-11203382D01*
X119895880Y-11168200D01*
X119961700Y-11203382D01*
X120081398Y-11239692D01*
X120205880Y-11251952D01*
X120245130Y-11248880D01*
X120403880Y-11090130D01*
X120403880Y-9765880D01*
X120657880Y-9765880D01*
X120657880Y-11090130D01*
X120816630Y-11248880D01*
X120855880Y-11251952D01*
X120980362Y-11239692D01*
X121100060Y-11203382D01*
X121165880Y-11168200D01*
X121231700Y-11203382D01*
X121351398Y-11239692D01*
X121475880Y-11251952D01*
X121515130Y-11248880D01*
X121673880Y-11090130D01*
X121673880Y-9765880D01*
X120657880Y-9765880D01*
X120403880Y-9765880D01*
X119387880Y-9765880D01*
X119387880Y-9785880D01*
X119358884Y-9785880D01*
X119358884Y-9491880D01*
X119387880Y-9491880D01*
X119387880Y-9511880D01*
X120403880Y-9511880D01*
X120403880Y-8187630D01*
X120245130Y-8028880D01*
X120205880Y-8025808D01*
X120081398Y-8038068D01*
X119961700Y-8074378D01*
X119895880Y-8109560D01*
X119830060Y-8074378D01*
X119710362Y-8038068D01*
X119585880Y-8025808D01*
X119546630Y-8028880D01*
X119387882Y-8187628D01*
X119387882Y-8028880D01*
X119358884Y-8028880D01*
X119358884Y-1798880D01*
X119387882Y-1798880D01*
X119387882Y-1640132D01*
X119546630Y-1798880D01*
X119585880Y-1801952D01*
X119710362Y-1789692D01*
X119830060Y-1753382D01*
X119895880Y-1718200D01*
X119961700Y-1753382D01*
X120081398Y-1789692D01*
X120205880Y-1801952D01*
X120245130Y-1798880D01*
X120403880Y-1640130D01*
X120403880Y-315880D01*
X119387880Y-315880D01*
X119387880Y-335880D01*
X119358884Y-335880D01*
X119358884Y781844D01*
X119362319Y816719D01*
X119356322Y877607D01*
X119348611Y955902D01*
X119308012Y1089738D01*
X119242084Y1213081D01*
X119221184Y1238547D01*
X119201634Y1262370D01*
X119387880Y1262370D01*
X119387880Y-61880D01*
X120403880Y-61880D01*
X120403880Y1262370D01*
X120245130Y1421120D01*
X120205880Y1424192D01*
X120081398Y1411932D01*
X119961700Y1375622D01*
X119895880Y1340440D01*
X119830060Y1375622D01*
X119710362Y1411932D01*
X119585880Y1424192D01*
X119546630Y1421120D01*
X119387880Y1262370D01*
X119201634Y1262370D01*
X119175591Y1294103D01*
X119175588Y1294106D01*
X119153358Y1321193D01*
X119126273Y1343421D01*
X118372001Y2097692D01*
X118372001Y4266623D01*
X118383080Y4258359D01*
X118645901Y4133175D01*
X118793110Y4088524D01*
X119023000Y4209845D01*
X119023000Y5403000D01*
X119003000Y5403000D01*
X119003000Y5657000D01*
X119023000Y5657000D01*
X119023000Y5677000D01*
X119277000Y5677000D01*
X119277000Y5657000D01*
%TA.AperFunction,Conductor*%
D21*
G36*
X119277000Y5657000D02*
G01*
X119297000Y5657000D01*
X119297000Y5403000D01*
X119277000Y5403000D01*
X119277000Y4209845D01*
X119506890Y4088524D01*
X119584871Y4112177D01*
X119584871Y3818984D01*
X119540391Y3752416D01*
X119473678Y3591356D01*
X119439668Y3420376D01*
X119439668Y3246046D01*
X119473678Y3075066D01*
X119540391Y2914006D01*
X119637244Y2769056D01*
X119760513Y2645787D01*
X119905463Y2548934D01*
X120066523Y2482221D01*
X120237503Y2448211D01*
X120411833Y2448211D01*
X120582813Y2482221D01*
X120743873Y2548934D01*
X120761810Y2560919D01*
X120901000Y2421729D01*
X120901000Y2276762D01*
X120935010Y2105782D01*
X121001723Y1944722D01*
X121090880Y1811289D01*
X121090880Y1378407D01*
X120980362Y1411932D01*
X120855880Y1424192D01*
X120816630Y1421120D01*
X120657880Y1262370D01*
X120657880Y-61880D01*
X120677880Y-61880D01*
X120677880Y-315880D01*
X120657880Y-315880D01*
X120657880Y-1640130D01*
X120816630Y-1798880D01*
X120855880Y-1801952D01*
X120980362Y-1789692D01*
X121100060Y-1753382D01*
X121165880Y-1718200D01*
X121231700Y-1753382D01*
X121351398Y-1789692D01*
X121475880Y-1801952D01*
X122125880Y-1801952D01*
X122250362Y-1789692D01*
X122370060Y-1753382D01*
X122435880Y-1718200D01*
X122501700Y-1753382D01*
X122621398Y-1789692D01*
X122745880Y-1801952D01*
X122785130Y-1798880D01*
X122943880Y-1640130D01*
X122943880Y-315880D01*
X122923880Y-315880D01*
X122923880Y-61880D01*
X122943880Y-61880D01*
X122943880Y1262370D01*
X122785130Y1421120D01*
X122745880Y1424192D01*
X122621398Y1411932D01*
X122510880Y1378407D01*
X122510880Y1855829D01*
X122570277Y1944722D01*
X122636990Y2105782D01*
X122671000Y2276762D01*
X122671000Y2451092D01*
X122636990Y2622072D01*
X122570277Y2783132D01*
X122473424Y2928082D01*
X122350155Y3051351D01*
X122205205Y3148204D01*
X122166802Y3164111D01*
X121281880Y4049032D01*
X121281880Y4097088D01*
X121543740Y4045000D01*
X121836260Y4045000D01*
X122123158Y4102068D01*
X122393411Y4214010D01*
X122636632Y4376525D01*
X122843475Y4583368D01*
X122960000Y4757760D01*
X123076525Y4583368D01*
X123283368Y4376525D01*
X123526589Y4214010D01*
X123796842Y4102068D01*
X124083740Y4045000D01*
X124376260Y4045000D01*
X124655386Y4100522D01*
X125192346Y3563562D01*
X125075195Y3515037D01*
X124930245Y3418184D01*
X124806976Y3294915D01*
X124710123Y3149965D01*
X124694015Y3111076D01*
X124686778Y3118313D01*
X124664541Y3145409D01*
X124556429Y3234134D01*
X124433086Y3300062D01*
X124299250Y3340661D01*
X124267644Y3343774D01*
X124145765Y3425211D01*
X123984705Y3491924D01*
X123813725Y3525934D01*
X123639395Y3525934D01*
X123468415Y3491924D01*
X123307355Y3425211D01*
X123162405Y3328358D01*
X123039136Y3205089D01*
X122942283Y3060139D01*
X122875570Y2899079D01*
X122841560Y2728099D01*
X122841560Y2553769D01*
X122875570Y2382789D01*
X122942283Y2221729D01*
X123039136Y2076779D01*
X123162405Y1953510D01*
X123307355Y1856657D01*
X123468415Y1789944D01*
X123639395Y1755934D01*
X123813725Y1755934D01*
X123984705Y1789944D01*
X124000445Y1796464D01*
X124372717Y1424192D01*
X124015880Y1424192D01*
X123891398Y1411932D01*
X123771700Y1375622D01*
X123705880Y1340440D01*
X123640060Y1375622D01*
X123520362Y1411932D01*
X123395880Y1424192D01*
X123356630Y1421120D01*
X123197880Y1262370D01*
X123197880Y-61880D01*
X123217880Y-61880D01*
X123217880Y-315880D01*
X123197880Y-315880D01*
X123197880Y-1640130D01*
X123356630Y-1798880D01*
X123395880Y-1801952D01*
X123520362Y-1789692D01*
X123580881Y-1771334D01*
X123580881Y-2334517D01*
X122687242Y-3228156D01*
X122658239Y-3251959D01*
X122603111Y-3319134D01*
X122563266Y-3367684D01*
X122496816Y-3492002D01*
X122492694Y-3499714D01*
X122449237Y-3642975D01*
X122438240Y-3754628D01*
X122438240Y-3754638D01*
X122434564Y-3791960D01*
X122438240Y-3829283D01*
X122438241Y-6877149D01*
X122206440Y-6645349D01*
X122206440Y-5353568D01*
X122280717Y-5242405D01*
X122347430Y-5081345D01*
X122381440Y-4910365D01*
X122381440Y-4736035D01*
X122347430Y-4565055D01*
X122280717Y-4403995D01*
X122183864Y-4259045D01*
X122060595Y-4135776D01*
X121915645Y-4038923D01*
X121754585Y-3972210D01*
X121583605Y-3938200D01*
X121409275Y-3938200D01*
X121238295Y-3972210D01*
X121077235Y-4038923D01*
X120932285Y-4135776D01*
X120809016Y-4259045D01*
X120712163Y-4403995D01*
X120645450Y-4565055D01*
X120611440Y-4736035D01*
X120611440Y-4910365D01*
X120645450Y-5081345D01*
X120712163Y-5242405D01*
X120786441Y-5353569D01*
X120786440Y-6904565D01*
X120783005Y-6939440D01*
X120786440Y-6974315D01*
X120786440Y-6974316D01*
X120796713Y-7078623D01*
X120837312Y-7212459D01*
X120903240Y-7335802D01*
X120991965Y-7443914D01*
X121019057Y-7466148D01*
X121673878Y-8120970D01*
X121673878Y-8187628D01*
X121515130Y-8028880D01*
X121475880Y-8025808D01*
X121351398Y-8038068D01*
X121231700Y-8074378D01*
X121165880Y-8109560D01*
X121100060Y-8074378D01*
X120980362Y-8038068D01*
X120855880Y-8025808D01*
X120816630Y-8028880D01*
X120657880Y-8187630D01*
X120657880Y-9511880D01*
X121673880Y-9511880D01*
X121673880Y-9491880D01*
X121927880Y-9491880D01*
X121927880Y-9511880D01*
X121947880Y-9511880D01*
X121947880Y-9765880D01*
X121927880Y-9765880D01*
X121927880Y-11090130D01*
X122086630Y-11248880D01*
X122125880Y-11251952D01*
X122250362Y-11239692D01*
X122370060Y-11203382D01*
X122435880Y-11168200D01*
X122501700Y-11203382D01*
X122621398Y-11239692D01*
X122745880Y-11251952D01*
X122956076Y-11251952D01*
X122959992Y-11257813D01*
X123083261Y-11381082D01*
X123228211Y-11477935D01*
X123389271Y-11544648D01*
X123560251Y-11578658D01*
X123571949Y-11578658D01*
X123475767Y-11597790D01*
X123219619Y-11703890D01*
X122989091Y-11857924D01*
X122793044Y-12053971D01*
X122639010Y-12284499D01*
X122532910Y-12540647D01*
X122501320Y-12699459D01*
X122469730Y-12540647D01*
X122363630Y-12284499D01*
X122209596Y-12053971D01*
X122013549Y-11857924D01*
X121783021Y-11703890D01*
X121526873Y-11597790D01*
X121254947Y-11543700D01*
X120977693Y-11543700D01*
X120705767Y-11597790D01*
X120449619Y-11703890D01*
X120219091Y-11857924D01*
X120023044Y-12053971D01*
X119869010Y-12284499D01*
X119762910Y-12540647D01*
X119731320Y-12699459D01*
X119699730Y-12540647D01*
X119593630Y-12284499D01*
X119439596Y-12053971D01*
X119243549Y-11857924D01*
X119078761Y-11747816D01*
X119213039Y-11658094D01*
X119336308Y-11534825D01*
X119433161Y-11389875D01*
X119499874Y-11228815D01*
X119504302Y-11206552D01*
X119546630Y-11248880D01*
X119585880Y-11251952D01*
X119710362Y-11239692D01*
X119830060Y-11203382D01*
X119895880Y-11168200D01*
X119961700Y-11203382D01*
X120081398Y-11239692D01*
X120205880Y-11251952D01*
X120245130Y-11248880D01*
X120403880Y-11090130D01*
X120403880Y-9765880D01*
X120657880Y-9765880D01*
X120657880Y-11090130D01*
X120816630Y-11248880D01*
X120855880Y-11251952D01*
X120980362Y-11239692D01*
X121100060Y-11203382D01*
X121165880Y-11168200D01*
X121231700Y-11203382D01*
X121351398Y-11239692D01*
X121475880Y-11251952D01*
X121515130Y-11248880D01*
X121673880Y-11090130D01*
X121673880Y-9765880D01*
X120657880Y-9765880D01*
X120403880Y-9765880D01*
X119387880Y-9765880D01*
X119387880Y-9785880D01*
X119358884Y-9785880D01*
X119358884Y-9491880D01*
X119387880Y-9491880D01*
X119387880Y-9511880D01*
X120403880Y-9511880D01*
X120403880Y-8187630D01*
X120245130Y-8028880D01*
X120205880Y-8025808D01*
X120081398Y-8038068D01*
X119961700Y-8074378D01*
X119895880Y-8109560D01*
X119830060Y-8074378D01*
X119710362Y-8038068D01*
X119585880Y-8025808D01*
X119546630Y-8028880D01*
X119387882Y-8187628D01*
X119387882Y-8028880D01*
X119358884Y-8028880D01*
X119358884Y-1798880D01*
X119387882Y-1798880D01*
X119387882Y-1640132D01*
X119546630Y-1798880D01*
X119585880Y-1801952D01*
X119710362Y-1789692D01*
X119830060Y-1753382D01*
X119895880Y-1718200D01*
X119961700Y-1753382D01*
X120081398Y-1789692D01*
X120205880Y-1801952D01*
X120245130Y-1798880D01*
X120403880Y-1640130D01*
X120403880Y-315880D01*
X119387880Y-315880D01*
X119387880Y-335880D01*
X119358884Y-335880D01*
X119358884Y781844D01*
X119362319Y816719D01*
X119356322Y877607D01*
X119348611Y955902D01*
X119308012Y1089738D01*
X119242084Y1213081D01*
X119221184Y1238547D01*
X119201634Y1262370D01*
X119387880Y1262370D01*
X119387880Y-61880D01*
X120403880Y-61880D01*
X120403880Y1262370D01*
X120245130Y1421120D01*
X120205880Y1424192D01*
X120081398Y1411932D01*
X119961700Y1375622D01*
X119895880Y1340440D01*
X119830060Y1375622D01*
X119710362Y1411932D01*
X119585880Y1424192D01*
X119546630Y1421120D01*
X119387880Y1262370D01*
X119201634Y1262370D01*
X119175591Y1294103D01*
X119175588Y1294106D01*
X119153358Y1321193D01*
X119126273Y1343421D01*
X118372001Y2097692D01*
X118372001Y4266623D01*
X118383080Y4258359D01*
X118645901Y4133175D01*
X118793110Y4088524D01*
X119023000Y4209845D01*
X119023000Y5403000D01*
X119003000Y5403000D01*
X119003000Y5657000D01*
X119023000Y5657000D01*
X119023000Y5677000D01*
X119277000Y5677000D01*
X119277000Y5657000D01*
G37*
%TD.AperFunction*%
D24*
X101924192Y-11201507D02*
X101802881Y-11251755D01*
X101657931Y-11348608D01*
X101534662Y-11471877D01*
X101471186Y-11566875D01*
X101315767Y-11597790D01*
X101144339Y-11668798D01*
X101146395Y-11667424D01*
X101269664Y-11544155D01*
X101366517Y-11399205D01*
X101433230Y-11238145D01*
X101444622Y-11180872D01*
X101512630Y-11248880D01*
X101551880Y-11251952D01*
X101676362Y-11239692D01*
X101796060Y-11203382D01*
X101861880Y-11168200D01*
X101924192Y-11201507D01*
%TA.AperFunction,Conductor*%
D21*
G36*
X101924192Y-11201507D02*
G01*
X101802881Y-11251755D01*
X101657931Y-11348608D01*
X101534662Y-11471877D01*
X101471186Y-11566875D01*
X101315767Y-11597790D01*
X101144339Y-11668798D01*
X101146395Y-11667424D01*
X101269664Y-11544155D01*
X101366517Y-11399205D01*
X101433230Y-11238145D01*
X101444622Y-11180872D01*
X101512630Y-11248880D01*
X101551880Y-11251952D01*
X101676362Y-11239692D01*
X101796060Y-11203382D01*
X101861880Y-11168200D01*
X101924192Y-11201507D01*
G37*
%TD.AperFunction*%
D24*
X101353880Y-9511880D02*
X101373880Y-9511880D01*
X101373880Y-9765880D01*
X101353880Y-9765880D01*
X101353880Y-9785880D01*
X101099880Y-9785880D01*
X101099880Y-9765880D01*
X101079880Y-9765880D01*
X101079880Y-9511880D01*
X101099880Y-9511880D01*
X101099880Y-9491880D01*
X101353880Y-9491880D01*
X101353880Y-9511880D01*
%TA.AperFunction,Conductor*%
D21*
G36*
X101353880Y-9511880D02*
G01*
X101373880Y-9511880D01*
X101373880Y-9765880D01*
X101353880Y-9765880D01*
X101353880Y-9785880D01*
X101099880Y-9785880D01*
X101099880Y-9765880D01*
X101079880Y-9765880D01*
X101079880Y-9511880D01*
X101099880Y-9511880D01*
X101099880Y-9491880D01*
X101353880Y-9491880D01*
X101353880Y-9511880D01*
G37*
%TD.AperFunction*%
D24*
X136151880Y-61880D02*
X136171880Y-61880D01*
X136171880Y-315880D01*
X136151880Y-315880D01*
X136151880Y-1640130D01*
X136310630Y-1798880D01*
X136349880Y-1801952D01*
X136474362Y-1789692D01*
X136534880Y-1771334D01*
X136534881Y-3933120D01*
X136420675Y-3933120D01*
X136249695Y-3967130D01*
X136088635Y-4033843D01*
X135943685Y-4130696D01*
X135820416Y-4253965D01*
X135723563Y-4398915D01*
X135656850Y-4559975D01*
X135630767Y-4691102D01*
X135547497Y-4774372D01*
X135520406Y-4796605D01*
X135498173Y-4823696D01*
X135431681Y-4904717D01*
X135430101Y-4907672D01*
X135414008Y-4854620D01*
X135348080Y-4731277D01*
X135324776Y-4702880D01*
X135296350Y-4559975D01*
X135229637Y-4398915D01*
X135132784Y-4253965D01*
X135009515Y-4130696D01*
X134864565Y-4033843D01*
X134703505Y-3967130D01*
X134532525Y-3933120D01*
X134358195Y-3933120D01*
X134187215Y-3967130D01*
X134026155Y-4033843D01*
X133881205Y-4130696D01*
X133757936Y-4253965D01*
X133661083Y-4398915D01*
X133594370Y-4559975D01*
X133560360Y-4730955D01*
X133560360Y-4905285D01*
X133594370Y-5076265D01*
X133605184Y-5102372D01*
X133259953Y-4757141D01*
X133233870Y-4626015D01*
X133167157Y-4464955D01*
X133070304Y-4320005D01*
X132947035Y-4196736D01*
X132802085Y-4099883D01*
X132641025Y-4033170D01*
X132470045Y-3999160D01*
X132295715Y-3999160D01*
X132124735Y-4033170D01*
X131963675Y-4099883D01*
X131818725Y-4196736D01*
X131695456Y-4320005D01*
X131598603Y-4464955D01*
X131531890Y-4626015D01*
X131497880Y-4796995D01*
X131497880Y-4971325D01*
X131502892Y-4996520D01*
X131248273Y-4741901D01*
X131222190Y-4610775D01*
X131155477Y-4449715D01*
X131058624Y-4304765D01*
X130935355Y-4181496D01*
X130790405Y-4084643D01*
X130629345Y-4017930D01*
X130458365Y-3983920D01*
X130284035Y-3983920D01*
X130113055Y-4017930D01*
X129951995Y-4084643D01*
X129807045Y-4181496D01*
X129683776Y-4304765D01*
X129586923Y-4449715D01*
X129520210Y-4610775D01*
X129505340Y-4685529D01*
X129462739Y-4642928D01*
X129449270Y-4575215D01*
X129382557Y-4414155D01*
X129285704Y-4269205D01*
X129162435Y-4145936D01*
X129017485Y-4049083D01*
X128856425Y-3982370D01*
X128685445Y-3948360D01*
X128511115Y-3948360D01*
X128340135Y-3982370D01*
X128179075Y-4049083D01*
X128034125Y-4145936D01*
X127956249Y-4223812D01*
X127834980Y-4158992D01*
X127701144Y-4118393D01*
X127596837Y-4108120D01*
X127596835Y-4108120D01*
X127561960Y-4104685D01*
X127527085Y-4108120D01*
X127503048Y-4108120D01*
X127391885Y-4033843D01*
X127230825Y-3967130D01*
X127059845Y-3933120D01*
X126885515Y-3933120D01*
X126714535Y-3967130D01*
X126553475Y-4033843D01*
X126408525Y-4130696D01*
X126285256Y-4253965D01*
X126213208Y-4361791D01*
X126151344Y-4269205D01*
X126028075Y-4145936D01*
X125883125Y-4049083D01*
X125722065Y-3982370D01*
X125551085Y-3948360D01*
X125376755Y-3948360D01*
X125205775Y-3982370D01*
X125044715Y-4049083D01*
X124899765Y-4145936D01*
X124776496Y-4269205D01*
X124679643Y-4414155D01*
X124612930Y-4575215D01*
X124579367Y-4743946D01*
X124577323Y-4741902D01*
X124551240Y-4610775D01*
X124484527Y-4449715D01*
X124387674Y-4304765D01*
X124264405Y-4181496D01*
X124119455Y-4084643D01*
X124021099Y-4043903D01*
X124851883Y-3213119D01*
X124880881Y-3189321D01*
X124953376Y-3100986D01*
X124975854Y-3073597D01*
X125046426Y-2941567D01*
X125054585Y-2914669D01*
X125089883Y-2798306D01*
X125100880Y-2686653D01*
X125100880Y-2686643D01*
X125104556Y-2649320D01*
X125100880Y-2611998D01*
X125100880Y-1628348D01*
X125102880Y-1626706D01*
X125185386Y-1694417D01*
X125295700Y-1753382D01*
X125415398Y-1789692D01*
X125539880Y-1801952D01*
X126189880Y-1801952D01*
X126314362Y-1789692D01*
X126434060Y-1753382D01*
X126499880Y-1718200D01*
X126565700Y-1753382D01*
X126685398Y-1789692D01*
X126809880Y-1801952D01*
X127459880Y-1801952D01*
X127584362Y-1789692D01*
X127704060Y-1753382D01*
X127769880Y-1718200D01*
X127835700Y-1753382D01*
X127955398Y-1789692D01*
X128079880Y-1801952D01*
X128729880Y-1801952D01*
X128854362Y-1789692D01*
X128974060Y-1753382D01*
X129039880Y-1718200D01*
X129105700Y-1753382D01*
X129225398Y-1789692D01*
X129349880Y-1801952D01*
X129999880Y-1801952D01*
X130124362Y-1789692D01*
X130244060Y-1753382D01*
X130309880Y-1718200D01*
X130375700Y-1753382D01*
X130495398Y-1789692D01*
X130619880Y-1801952D01*
X131269880Y-1801952D01*
X131394362Y-1789692D01*
X131514060Y-1753382D01*
X131579880Y-1718200D01*
X131645700Y-1753382D01*
X131765398Y-1789692D01*
X131889880Y-1801952D01*
X132539880Y-1801952D01*
X132664362Y-1789692D01*
X132784060Y-1753382D01*
X132849880Y-1718200D01*
X132915700Y-1753382D01*
X133035398Y-1789692D01*
X133159880Y-1801952D01*
X133809880Y-1801952D01*
X133934362Y-1789692D01*
X134054060Y-1753382D01*
X134119880Y-1718200D01*
X134185700Y-1753382D01*
X134305398Y-1789692D01*
X134429880Y-1801952D01*
X135079880Y-1801952D01*
X135204362Y-1789692D01*
X135324060Y-1753382D01*
X135389880Y-1718200D01*
X135455700Y-1753382D01*
X135575398Y-1789692D01*
X135699880Y-1801952D01*
X135739130Y-1798880D01*
X135897880Y-1640130D01*
X135897880Y-315880D01*
X135877880Y-315880D01*
X135877880Y-61880D01*
X135897880Y-61880D01*
X135897880Y-41880D01*
X136151880Y-41880D01*
X136151880Y-61880D01*
%TA.AperFunction,Conductor*%
D21*
G36*
X136151880Y-61880D02*
G01*
X136171880Y-61880D01*
X136171880Y-315880D01*
X136151880Y-315880D01*
X136151880Y-1640130D01*
X136310630Y-1798880D01*
X136349880Y-1801952D01*
X136474362Y-1789692D01*
X136534880Y-1771334D01*
X136534881Y-3933120D01*
X136420675Y-3933120D01*
X136249695Y-3967130D01*
X136088635Y-4033843D01*
X135943685Y-4130696D01*
X135820416Y-4253965D01*
X135723563Y-4398915D01*
X135656850Y-4559975D01*
X135630767Y-4691102D01*
X135547497Y-4774372D01*
X135520406Y-4796605D01*
X135498173Y-4823696D01*
X135431681Y-4904717D01*
X135430101Y-4907672D01*
X135414008Y-4854620D01*
X135348080Y-4731277D01*
X135324776Y-4702880D01*
X135296350Y-4559975D01*
X135229637Y-4398915D01*
X135132784Y-4253965D01*
X135009515Y-4130696D01*
X134864565Y-4033843D01*
X134703505Y-3967130D01*
X134532525Y-3933120D01*
X134358195Y-3933120D01*
X134187215Y-3967130D01*
X134026155Y-4033843D01*
X133881205Y-4130696D01*
X133757936Y-4253965D01*
X133661083Y-4398915D01*
X133594370Y-4559975D01*
X133560360Y-4730955D01*
X133560360Y-4905285D01*
X133594370Y-5076265D01*
X133605184Y-5102372D01*
X133259953Y-4757141D01*
X133233870Y-4626015D01*
X133167157Y-4464955D01*
X133070304Y-4320005D01*
X132947035Y-4196736D01*
X132802085Y-4099883D01*
X132641025Y-4033170D01*
X132470045Y-3999160D01*
X132295715Y-3999160D01*
X132124735Y-4033170D01*
X131963675Y-4099883D01*
X131818725Y-4196736D01*
X131695456Y-4320005D01*
X131598603Y-4464955D01*
X131531890Y-4626015D01*
X131497880Y-4796995D01*
X131497880Y-4971325D01*
X131502892Y-4996520D01*
X131248273Y-4741901D01*
X131222190Y-4610775D01*
X131155477Y-4449715D01*
X131058624Y-4304765D01*
X130935355Y-4181496D01*
X130790405Y-4084643D01*
X130629345Y-4017930D01*
X130458365Y-3983920D01*
X130284035Y-3983920D01*
X130113055Y-4017930D01*
X129951995Y-4084643D01*
X129807045Y-4181496D01*
X129683776Y-4304765D01*
X129586923Y-4449715D01*
X129520210Y-4610775D01*
X129505340Y-4685529D01*
X129462739Y-4642928D01*
X129449270Y-4575215D01*
X129382557Y-4414155D01*
X129285704Y-4269205D01*
X129162435Y-4145936D01*
X129017485Y-4049083D01*
X128856425Y-3982370D01*
X128685445Y-3948360D01*
X128511115Y-3948360D01*
X128340135Y-3982370D01*
X128179075Y-4049083D01*
X128034125Y-4145936D01*
X127956249Y-4223812D01*
X127834980Y-4158992D01*
X127701144Y-4118393D01*
X127596837Y-4108120D01*
X127596835Y-4108120D01*
X127561960Y-4104685D01*
X127527085Y-4108120D01*
X127503048Y-4108120D01*
X127391885Y-4033843D01*
X127230825Y-3967130D01*
X127059845Y-3933120D01*
X126885515Y-3933120D01*
X126714535Y-3967130D01*
X126553475Y-4033843D01*
X126408525Y-4130696D01*
X126285256Y-4253965D01*
X126213208Y-4361791D01*
X126151344Y-4269205D01*
X126028075Y-4145936D01*
X125883125Y-4049083D01*
X125722065Y-3982370D01*
X125551085Y-3948360D01*
X125376755Y-3948360D01*
X125205775Y-3982370D01*
X125044715Y-4049083D01*
X124899765Y-4145936D01*
X124776496Y-4269205D01*
X124679643Y-4414155D01*
X124612930Y-4575215D01*
X124579367Y-4743946D01*
X124577323Y-4741902D01*
X124551240Y-4610775D01*
X124484527Y-4449715D01*
X124387674Y-4304765D01*
X124264405Y-4181496D01*
X124119455Y-4084643D01*
X124021099Y-4043903D01*
X124851883Y-3213119D01*
X124880881Y-3189321D01*
X124953376Y-3100986D01*
X124975854Y-3073597D01*
X125046426Y-2941567D01*
X125054585Y-2914669D01*
X125089883Y-2798306D01*
X125100880Y-2686653D01*
X125100880Y-2686643D01*
X125104556Y-2649320D01*
X125100880Y-2611998D01*
X125100880Y-1628348D01*
X125102880Y-1626706D01*
X125185386Y-1694417D01*
X125295700Y-1753382D01*
X125415398Y-1789692D01*
X125539880Y-1801952D01*
X126189880Y-1801952D01*
X126314362Y-1789692D01*
X126434060Y-1753382D01*
X126499880Y-1718200D01*
X126565700Y-1753382D01*
X126685398Y-1789692D01*
X126809880Y-1801952D01*
X127459880Y-1801952D01*
X127584362Y-1789692D01*
X127704060Y-1753382D01*
X127769880Y-1718200D01*
X127835700Y-1753382D01*
X127955398Y-1789692D01*
X128079880Y-1801952D01*
X128729880Y-1801952D01*
X128854362Y-1789692D01*
X128974060Y-1753382D01*
X129039880Y-1718200D01*
X129105700Y-1753382D01*
X129225398Y-1789692D01*
X129349880Y-1801952D01*
X129999880Y-1801952D01*
X130124362Y-1789692D01*
X130244060Y-1753382D01*
X130309880Y-1718200D01*
X130375700Y-1753382D01*
X130495398Y-1789692D01*
X130619880Y-1801952D01*
X131269880Y-1801952D01*
X131394362Y-1789692D01*
X131514060Y-1753382D01*
X131579880Y-1718200D01*
X131645700Y-1753382D01*
X131765398Y-1789692D01*
X131889880Y-1801952D01*
X132539880Y-1801952D01*
X132664362Y-1789692D01*
X132784060Y-1753382D01*
X132849880Y-1718200D01*
X132915700Y-1753382D01*
X133035398Y-1789692D01*
X133159880Y-1801952D01*
X133809880Y-1801952D01*
X133934362Y-1789692D01*
X134054060Y-1753382D01*
X134119880Y-1718200D01*
X134185700Y-1753382D01*
X134305398Y-1789692D01*
X134429880Y-1801952D01*
X135079880Y-1801952D01*
X135204362Y-1789692D01*
X135324060Y-1753382D01*
X135389880Y-1718200D01*
X135455700Y-1753382D01*
X135575398Y-1789692D01*
X135699880Y-1801952D01*
X135739130Y-1798880D01*
X135897880Y-1640130D01*
X135897880Y-315880D01*
X135877880Y-315880D01*
X135877880Y-61880D01*
X135897880Y-61880D01*
X135897880Y-41880D01*
X136151880Y-41880D01*
X136151880Y-61880D01*
G37*
%TD.AperFunction*%
D24*
X139559960Y3302429D02*
X139525492Y3188802D01*
X139516334Y3095813D01*
X139511784Y3049619D01*
X139515219Y3014744D01*
X139515220Y2262961D01*
X139353000Y2177814D01*
X139353000Y984000D01*
X139373000Y984000D01*
X139373000Y730000D01*
X139353000Y730000D01*
X139353000Y710000D01*
X139099000Y710000D01*
X139099000Y730000D01*
X139079000Y730000D01*
X139079000Y984000D01*
X139099000Y984000D01*
X139099000Y2177814D01*
X138869109Y2298481D01*
X138594748Y2201157D01*
X138344645Y2052178D01*
X138128412Y1857269D01*
X137954359Y1623920D01*
X137839623Y1383035D01*
X137744362Y1411932D01*
X137619880Y1424192D01*
X136969880Y1424192D01*
X136845398Y1411932D01*
X136725700Y1375622D01*
X136659880Y1340440D01*
X136594060Y1375622D01*
X136474362Y1411932D01*
X136349880Y1424192D01*
X136310630Y1421120D01*
X136151882Y1262372D01*
X136151882Y1329031D01*
X136747092Y1924240D01*
X136785192Y1924240D01*
X136896355Y1849963D01*
X137057415Y1783250D01*
X137228395Y1749240D01*
X137402725Y1749240D01*
X137573705Y1783250D01*
X137734765Y1849963D01*
X137879715Y1946816D01*
X138002984Y2070085D01*
X138099837Y2215035D01*
X138166550Y2376095D01*
X138192633Y2507221D01*
X138620984Y2935572D01*
X138648075Y2957805D01*
X138701619Y3023049D01*
X138736799Y3065915D01*
X138746731Y3084496D01*
X138802728Y3189260D01*
X138843327Y3323096D01*
X138853600Y3427403D01*
X138853600Y3427404D01*
X138857035Y3462279D01*
X138853600Y3497154D01*
X138853600Y4008789D01*
X139559960Y3302429D01*
%TA.AperFunction,Conductor*%
D21*
G36*
X139559960Y3302429D02*
G01*
X139525492Y3188802D01*
X139516334Y3095813D01*
X139511784Y3049619D01*
X139515219Y3014744D01*
X139515220Y2262961D01*
X139353000Y2177814D01*
X139353000Y984000D01*
X139373000Y984000D01*
X139373000Y730000D01*
X139353000Y730000D01*
X139353000Y710000D01*
X139099000Y710000D01*
X139099000Y730000D01*
X139079000Y730000D01*
X139079000Y984000D01*
X139099000Y984000D01*
X139099000Y2177814D01*
X138869109Y2298481D01*
X138594748Y2201157D01*
X138344645Y2052178D01*
X138128412Y1857269D01*
X137954359Y1623920D01*
X137839623Y1383035D01*
X137744362Y1411932D01*
X137619880Y1424192D01*
X136969880Y1424192D01*
X136845398Y1411932D01*
X136725700Y1375622D01*
X136659880Y1340440D01*
X136594060Y1375622D01*
X136474362Y1411932D01*
X136349880Y1424192D01*
X136310630Y1421120D01*
X136151882Y1262372D01*
X136151882Y1329031D01*
X136747092Y1924240D01*
X136785192Y1924240D01*
X136896355Y1849963D01*
X137057415Y1783250D01*
X137228395Y1749240D01*
X137402725Y1749240D01*
X137573705Y1783250D01*
X137734765Y1849963D01*
X137879715Y1946816D01*
X138002984Y2070085D01*
X138099837Y2215035D01*
X138166550Y2376095D01*
X138192633Y2507221D01*
X138620984Y2935572D01*
X138648075Y2957805D01*
X138701619Y3023049D01*
X138736799Y3065915D01*
X138746731Y3084496D01*
X138802728Y3189260D01*
X138843327Y3323096D01*
X138853600Y3427403D01*
X138853600Y3427404D01*
X138857035Y3462279D01*
X138853600Y3497154D01*
X138853600Y4008789D01*
X139559960Y3302429D01*
G37*
%TD.AperFunction*%
D24*
X137057000Y5657000D02*
X137077000Y5657000D01*
X137077000Y5403000D01*
X137057000Y5403000D01*
X137057000Y4209845D01*
X137286890Y4088524D01*
X137433601Y4133024D01*
X137433601Y3756373D01*
X137188541Y3511313D01*
X137057415Y3485230D01*
X136896355Y3418517D01*
X136785192Y3344240D01*
X136487874Y3344240D01*
X136452999Y3347675D01*
X136418124Y3344240D01*
X136418123Y3344240D01*
X136313816Y3333967D01*
X136179980Y3293368D01*
X136056637Y3227440D01*
X135948525Y3138715D01*
X135926292Y3111624D01*
X134277497Y1462828D01*
X134250406Y1440595D01*
X134228174Y1413505D01*
X134228173Y1413504D01*
X134200858Y1380220D01*
X134194880Y1378407D01*
X134194880Y1976111D01*
X134197202Y1977073D01*
X134342152Y2073926D01*
X134465421Y2197195D01*
X134562274Y2342145D01*
X134628987Y2503205D01*
X134662997Y2674185D01*
X134662997Y2848515D01*
X134628987Y3019495D01*
X134610261Y3064705D01*
X134674058Y3128502D01*
X134770911Y3273452D01*
X134833117Y3423630D01*
X134869435Y3399363D01*
X135030495Y3332650D01*
X135201475Y3298640D01*
X135375805Y3298640D01*
X135546785Y3332650D01*
X135707845Y3399363D01*
X135800964Y3461583D01*
X135817895Y3454570D01*
X135988875Y3420560D01*
X136163205Y3420560D01*
X136334185Y3454570D01*
X136495245Y3521283D01*
X136640195Y3618136D01*
X136763464Y3741405D01*
X136860317Y3886355D01*
X136927030Y4047415D01*
X136961040Y4218395D01*
X136961040Y4392725D01*
X136927030Y4563705D01*
X136860317Y4724765D01*
X136803000Y4810546D01*
X136803000Y5403000D01*
X136783000Y5403000D01*
X136783000Y5657000D01*
X136803000Y5657000D01*
X136803000Y5677000D01*
X137057000Y5677000D01*
X137057000Y5657000D01*
%TA.AperFunction,Conductor*%
D21*
G36*
X137057000Y5657000D02*
G01*
X137077000Y5657000D01*
X137077000Y5403000D01*
X137057000Y5403000D01*
X137057000Y4209845D01*
X137286890Y4088524D01*
X137433601Y4133024D01*
X137433601Y3756373D01*
X137188541Y3511313D01*
X137057415Y3485230D01*
X136896355Y3418517D01*
X136785192Y3344240D01*
X136487874Y3344240D01*
X136452999Y3347675D01*
X136418124Y3344240D01*
X136418123Y3344240D01*
X136313816Y3333967D01*
X136179980Y3293368D01*
X136056637Y3227440D01*
X135948525Y3138715D01*
X135926292Y3111624D01*
X134277497Y1462828D01*
X134250406Y1440595D01*
X134228174Y1413505D01*
X134228173Y1413504D01*
X134200858Y1380220D01*
X134194880Y1378407D01*
X134194880Y1976111D01*
X134197202Y1977073D01*
X134342152Y2073926D01*
X134465421Y2197195D01*
X134562274Y2342145D01*
X134628987Y2503205D01*
X134662997Y2674185D01*
X134662997Y2848515D01*
X134628987Y3019495D01*
X134610261Y3064705D01*
X134674058Y3128502D01*
X134770911Y3273452D01*
X134833117Y3423630D01*
X134869435Y3399363D01*
X135030495Y3332650D01*
X135201475Y3298640D01*
X135375805Y3298640D01*
X135546785Y3332650D01*
X135707845Y3399363D01*
X135800964Y3461583D01*
X135817895Y3454570D01*
X135988875Y3420560D01*
X136163205Y3420560D01*
X136334185Y3454570D01*
X136495245Y3521283D01*
X136640195Y3618136D01*
X136763464Y3741405D01*
X136860317Y3886355D01*
X136927030Y4047415D01*
X136961040Y4218395D01*
X136961040Y4392725D01*
X136927030Y4563705D01*
X136860317Y4724765D01*
X136803000Y4810546D01*
X136803000Y5403000D01*
X136783000Y5403000D01*
X136783000Y5657000D01*
X136803000Y5657000D01*
X136803000Y5677000D01*
X137057000Y5677000D01*
X137057000Y5657000D01*
G37*
%TD.AperFunction*%
D24*
X98957000Y5657000D02*
X98977000Y5657000D01*
X98977000Y5403000D01*
X98957000Y5403000D01*
X98957000Y4209845D01*
X99186890Y4088524D01*
X99334099Y4133175D01*
X99596920Y4258359D01*
X99830269Y4432412D01*
X100025178Y4648645D01*
X100094805Y4765534D01*
X100216525Y4583368D01*
X100423368Y4376525D01*
X100666589Y4214010D01*
X100936842Y4102068D01*
X101223740Y4045000D01*
X101516260Y4045000D01*
X101803158Y4102068D01*
X102073411Y4214010D01*
X102316632Y4376525D01*
X102523475Y4583368D01*
X102640000Y4757760D01*
X102756525Y4583368D01*
X102963368Y4376525D01*
X103206589Y4214010D01*
X103476842Y4102068D01*
X103763740Y4045000D01*
X104056260Y4045000D01*
X104128111Y4059292D01*
X104163966Y4005631D01*
X104287235Y3882362D01*
X104432185Y3785509D01*
X104593245Y3718796D01*
X104764225Y3684786D01*
X104938555Y3684786D01*
X105109535Y3718796D01*
X105270595Y3785509D01*
X105415545Y3882362D01*
X105538814Y4005631D01*
X105635667Y4150581D01*
X105680290Y4258310D01*
X105740001Y4218412D01*
X105740001Y3781002D01*
X105736565Y3746118D01*
X105750274Y3606934D01*
X105790872Y3473099D01*
X105856801Y3349755D01*
X105915493Y3278239D01*
X105945526Y3241643D01*
X105972617Y3219410D01*
X106652440Y2539587D01*
X106676143Y2420425D01*
X106591862Y2546560D01*
X106468593Y2669829D01*
X106323643Y2766682D01*
X106162583Y2833395D01*
X105991603Y2867405D01*
X105817273Y2867405D01*
X105646293Y2833395D01*
X105485233Y2766682D01*
X105340283Y2669829D01*
X105217014Y2546560D01*
X105129372Y2415395D01*
X105016682Y2415395D01*
X104845702Y2381385D01*
X104684642Y2314672D01*
X104671320Y2305771D01*
X104412800Y2564291D01*
X104390563Y2591387D01*
X104282451Y2680112D01*
X104159108Y2746040D01*
X104025272Y2786639D01*
X103920965Y2796912D01*
X103920963Y2796912D01*
X103886088Y2800347D01*
X103851213Y2796912D01*
X103124128Y2796912D01*
X103012965Y2871189D01*
X102851905Y2937902D01*
X102680925Y2971912D01*
X102506595Y2971912D01*
X102335615Y2937902D01*
X102174555Y2871189D01*
X102029605Y2774336D01*
X101914702Y2659433D01*
X101889504Y2680112D01*
X101766161Y2746040D01*
X101632325Y2786639D01*
X101528018Y2796912D01*
X101528016Y2796912D01*
X101493141Y2800347D01*
X101458266Y2796912D01*
X101117528Y2796912D01*
X101006365Y2871189D01*
X100845305Y2937902D01*
X100674325Y2971912D01*
X100499995Y2971912D01*
X100329015Y2937902D01*
X100167955Y2871189D01*
X100023005Y2774336D01*
X99899736Y2651067D01*
X99802883Y2506117D01*
X99736170Y2345057D01*
X99736141Y2344910D01*
X99578263Y2344910D01*
X99432233Y2490940D01*
X99406150Y2622066D01*
X99339437Y2783126D01*
X99242584Y2928076D01*
X99119315Y3051345D01*
X98974365Y3148198D01*
X98813305Y3214911D01*
X98642325Y3248921D01*
X98467995Y3248921D01*
X98297015Y3214911D01*
X98135955Y3148198D01*
X97991005Y3051345D01*
X97867736Y2928076D01*
X97770883Y2783126D01*
X97704170Y2622066D01*
X97670160Y2451086D01*
X97670160Y2276756D01*
X97690795Y2173014D01*
X97128667Y2735143D01*
X97102584Y2866269D01*
X97035871Y3027329D01*
X96939018Y3172279D01*
X96815749Y3295548D01*
X96670799Y3392401D01*
X96509739Y3459114D01*
X96338759Y3493124D01*
X96164429Y3493124D01*
X95993449Y3459114D01*
X95832389Y3392401D01*
X95761829Y3345254D01*
X95713005Y3377877D01*
X95551945Y3444590D01*
X95380965Y3478600D01*
X95206635Y3478600D01*
X95035655Y3444590D01*
X94874595Y3377877D01*
X94729645Y3281024D01*
X94606376Y3157755D01*
X94509523Y3012805D01*
X94497042Y2982673D01*
X94454090Y3046956D01*
X94460000Y3106965D01*
X94460000Y3106967D01*
X94463435Y3141842D01*
X94460000Y3176717D01*
X94460000Y4218413D01*
X94696632Y4376525D01*
X94903475Y4583368D01*
X95020000Y4757760D01*
X95136525Y4583368D01*
X95343368Y4376525D01*
X95586589Y4214010D01*
X95856842Y4102068D01*
X96143740Y4045000D01*
X96436260Y4045000D01*
X96723158Y4102068D01*
X96993411Y4214010D01*
X97236632Y4376525D01*
X97443475Y4583368D01*
X97565195Y4765534D01*
X97634822Y4648645D01*
X97829731Y4432412D01*
X98063080Y4258359D01*
X98325901Y4133175D01*
X98473110Y4088524D01*
X98703000Y4209845D01*
X98703000Y5403000D01*
X98683000Y5403000D01*
X98683000Y5657000D01*
X98703000Y5657000D01*
X98703000Y5677000D01*
X98957000Y5677000D01*
X98957000Y5657000D01*
%TA.AperFunction,Conductor*%
D21*
G36*
X98957000Y5657000D02*
G01*
X98977000Y5657000D01*
X98977000Y5403000D01*
X98957000Y5403000D01*
X98957000Y4209845D01*
X99186890Y4088524D01*
X99334099Y4133175D01*
X99596920Y4258359D01*
X99830269Y4432412D01*
X100025178Y4648645D01*
X100094805Y4765534D01*
X100216525Y4583368D01*
X100423368Y4376525D01*
X100666589Y4214010D01*
X100936842Y4102068D01*
X101223740Y4045000D01*
X101516260Y4045000D01*
X101803158Y4102068D01*
X102073411Y4214010D01*
X102316632Y4376525D01*
X102523475Y4583368D01*
X102640000Y4757760D01*
X102756525Y4583368D01*
X102963368Y4376525D01*
X103206589Y4214010D01*
X103476842Y4102068D01*
X103763740Y4045000D01*
X104056260Y4045000D01*
X104128111Y4059292D01*
X104163966Y4005631D01*
X104287235Y3882362D01*
X104432185Y3785509D01*
X104593245Y3718796D01*
X104764225Y3684786D01*
X104938555Y3684786D01*
X105109535Y3718796D01*
X105270595Y3785509D01*
X105415545Y3882362D01*
X105538814Y4005631D01*
X105635667Y4150581D01*
X105680290Y4258310D01*
X105740001Y4218412D01*
X105740001Y3781002D01*
X105736565Y3746118D01*
X105750274Y3606934D01*
X105790872Y3473099D01*
X105856801Y3349755D01*
X105915493Y3278239D01*
X105945526Y3241643D01*
X105972617Y3219410D01*
X106652440Y2539587D01*
X106676143Y2420425D01*
X106591862Y2546560D01*
X106468593Y2669829D01*
X106323643Y2766682D01*
X106162583Y2833395D01*
X105991603Y2867405D01*
X105817273Y2867405D01*
X105646293Y2833395D01*
X105485233Y2766682D01*
X105340283Y2669829D01*
X105217014Y2546560D01*
X105129372Y2415395D01*
X105016682Y2415395D01*
X104845702Y2381385D01*
X104684642Y2314672D01*
X104671320Y2305771D01*
X104412800Y2564291D01*
X104390563Y2591387D01*
X104282451Y2680112D01*
X104159108Y2746040D01*
X104025272Y2786639D01*
X103920965Y2796912D01*
X103920963Y2796912D01*
X103886088Y2800347D01*
X103851213Y2796912D01*
X103124128Y2796912D01*
X103012965Y2871189D01*
X102851905Y2937902D01*
X102680925Y2971912D01*
X102506595Y2971912D01*
X102335615Y2937902D01*
X102174555Y2871189D01*
X102029605Y2774336D01*
X101914702Y2659433D01*
X101889504Y2680112D01*
X101766161Y2746040D01*
X101632325Y2786639D01*
X101528018Y2796912D01*
X101528016Y2796912D01*
X101493141Y2800347D01*
X101458266Y2796912D01*
X101117528Y2796912D01*
X101006365Y2871189D01*
X100845305Y2937902D01*
X100674325Y2971912D01*
X100499995Y2971912D01*
X100329015Y2937902D01*
X100167955Y2871189D01*
X100023005Y2774336D01*
X99899736Y2651067D01*
X99802883Y2506117D01*
X99736170Y2345057D01*
X99736141Y2344910D01*
X99578263Y2344910D01*
X99432233Y2490940D01*
X99406150Y2622066D01*
X99339437Y2783126D01*
X99242584Y2928076D01*
X99119315Y3051345D01*
X98974365Y3148198D01*
X98813305Y3214911D01*
X98642325Y3248921D01*
X98467995Y3248921D01*
X98297015Y3214911D01*
X98135955Y3148198D01*
X97991005Y3051345D01*
X97867736Y2928076D01*
X97770883Y2783126D01*
X97704170Y2622066D01*
X97670160Y2451086D01*
X97670160Y2276756D01*
X97690795Y2173014D01*
X97128667Y2735143D01*
X97102584Y2866269D01*
X97035871Y3027329D01*
X96939018Y3172279D01*
X96815749Y3295548D01*
X96670799Y3392401D01*
X96509739Y3459114D01*
X96338759Y3493124D01*
X96164429Y3493124D01*
X95993449Y3459114D01*
X95832389Y3392401D01*
X95761829Y3345254D01*
X95713005Y3377877D01*
X95551945Y3444590D01*
X95380965Y3478600D01*
X95206635Y3478600D01*
X95035655Y3444590D01*
X94874595Y3377877D01*
X94729645Y3281024D01*
X94606376Y3157755D01*
X94509523Y3012805D01*
X94497042Y2982673D01*
X94454090Y3046956D01*
X94460000Y3106965D01*
X94460000Y3106967D01*
X94463435Y3141842D01*
X94460000Y3176717D01*
X94460000Y4218413D01*
X94696632Y4376525D01*
X94903475Y4583368D01*
X95020000Y4757760D01*
X95136525Y4583368D01*
X95343368Y4376525D01*
X95586589Y4214010D01*
X95856842Y4102068D01*
X96143740Y4045000D01*
X96436260Y4045000D01*
X96723158Y4102068D01*
X96993411Y4214010D01*
X97236632Y4376525D01*
X97443475Y4583368D01*
X97565195Y4765534D01*
X97634822Y4648645D01*
X97829731Y4432412D01*
X98063080Y4258359D01*
X98325901Y4133175D01*
X98473110Y4088524D01*
X98703000Y4209845D01*
X98703000Y5403000D01*
X98683000Y5403000D01*
X98683000Y5657000D01*
X98703000Y5657000D01*
X98703000Y5677000D01*
X98957000Y5677000D01*
X98957000Y5657000D01*
G37*
%TD.AperFunction*%
D24*
X96905927Y9517658D02*
X96864618Y9476349D01*
X96837527Y9454116D01*
X96835348Y9451461D01*
X96723158Y9497932D01*
X96436260Y9555000D01*
X96143740Y9555000D01*
X95856842Y9497932D01*
X95586589Y9385990D01*
X95343368Y9223475D01*
X95136525Y9016632D01*
X95014805Y8834466D01*
X94945178Y8951355D01*
X94750269Y9167588D01*
X94516920Y9341641D01*
X94254099Y9466825D01*
X94106890Y9511476D01*
X93877000Y9390155D01*
X93877000Y8197000D01*
X93897000Y8197000D01*
X93897000Y7943000D01*
X93877000Y7943000D01*
X93877000Y7923000D01*
X93623000Y7923000D01*
X93623000Y7943000D01*
X93603000Y7943000D01*
X93603000Y8197000D01*
X93623000Y8197000D01*
X93623000Y9390155D01*
X93393110Y9511476D01*
X93245901Y9466825D01*
X92983080Y9341641D01*
X92749731Y9167588D01*
X92554822Y8951355D01*
X92485195Y8834466D01*
X92363475Y9016632D01*
X92156632Y9223475D01*
X91913411Y9385990D01*
X91643158Y9497932D01*
X91356260Y9555000D01*
X91063740Y9555000D01*
X90776842Y9497932D01*
X90506589Y9385990D01*
X90263368Y9223475D01*
X90056525Y9016632D01*
X89940000Y8842240D01*
X89823475Y9016632D01*
X89616632Y9223475D01*
X89373411Y9385990D01*
X89103158Y9497932D01*
X88816260Y9555000D01*
X88523740Y9555000D01*
X88236842Y9497932D01*
X87966589Y9385990D01*
X87723368Y9223475D01*
X87516525Y9016632D01*
X87354010Y8773411D01*
X87242068Y8503158D01*
X87185000Y8216260D01*
X87185000Y7923740D01*
X87242068Y7636842D01*
X87354010Y7366589D01*
X87516525Y7123368D01*
X87648380Y6991513D01*
X87575820Y6969502D01*
X87465506Y6910537D01*
X87368815Y6831185D01*
X87289463Y6734494D01*
X87230498Y6624180D01*
X87194188Y6504482D01*
X87181928Y6380000D01*
X87181928Y5771797D01*
X86860539Y5450407D01*
X86894296Y5513356D01*
X87085852Y6141746D01*
X87151134Y6795431D01*
X87087634Y7449293D01*
X86897792Y8078203D01*
X86588904Y8657992D01*
X86583828Y8665589D01*
X86145374Y8965769D01*
X83979605Y6800000D01*
X83993748Y6785857D01*
X83814143Y6606252D01*
X83800000Y6620395D01*
X81634231Y4454626D01*
X81934411Y4016172D01*
X82397055Y3768072D01*
X81530000Y3768072D01*
X81405518Y3755812D01*
X81285820Y3719502D01*
X81175506Y3660537D01*
X81078815Y3581185D01*
X80999463Y3484494D01*
X80960000Y3410665D01*
X80960000Y5037916D01*
X81011096Y4942008D01*
X81016172Y4934411D01*
X81454626Y4634231D01*
X83620395Y6800000D01*
X83606253Y6814142D01*
X83785858Y6993747D01*
X83800000Y6979605D01*
X85965769Y9145374D01*
X85665589Y9583828D01*
X85560842Y9640000D01*
X96930263Y9640000D01*
X96905927Y9517658D01*
%TA.AperFunction,Conductor*%
D21*
G36*
X96905927Y9517658D02*
G01*
X96864618Y9476349D01*
X96837527Y9454116D01*
X96835348Y9451461D01*
X96723158Y9497932D01*
X96436260Y9555000D01*
X96143740Y9555000D01*
X95856842Y9497932D01*
X95586589Y9385990D01*
X95343368Y9223475D01*
X95136525Y9016632D01*
X95014805Y8834466D01*
X94945178Y8951355D01*
X94750269Y9167588D01*
X94516920Y9341641D01*
X94254099Y9466825D01*
X94106890Y9511476D01*
X93877000Y9390155D01*
X93877000Y8197000D01*
X93897000Y8197000D01*
X93897000Y7943000D01*
X93877000Y7943000D01*
X93877000Y7923000D01*
X93623000Y7923000D01*
X93623000Y7943000D01*
X93603000Y7943000D01*
X93603000Y8197000D01*
X93623000Y8197000D01*
X93623000Y9390155D01*
X93393110Y9511476D01*
X93245901Y9466825D01*
X92983080Y9341641D01*
X92749731Y9167588D01*
X92554822Y8951355D01*
X92485195Y8834466D01*
X92363475Y9016632D01*
X92156632Y9223475D01*
X91913411Y9385990D01*
X91643158Y9497932D01*
X91356260Y9555000D01*
X91063740Y9555000D01*
X90776842Y9497932D01*
X90506589Y9385990D01*
X90263368Y9223475D01*
X90056525Y9016632D01*
X89940000Y8842240D01*
X89823475Y9016632D01*
X89616632Y9223475D01*
X89373411Y9385990D01*
X89103158Y9497932D01*
X88816260Y9555000D01*
X88523740Y9555000D01*
X88236842Y9497932D01*
X87966589Y9385990D01*
X87723368Y9223475D01*
X87516525Y9016632D01*
X87354010Y8773411D01*
X87242068Y8503158D01*
X87185000Y8216260D01*
X87185000Y7923740D01*
X87242068Y7636842D01*
X87354010Y7366589D01*
X87516525Y7123368D01*
X87648380Y6991513D01*
X87575820Y6969502D01*
X87465506Y6910537D01*
X87368815Y6831185D01*
X87289463Y6734494D01*
X87230498Y6624180D01*
X87194188Y6504482D01*
X87181928Y6380000D01*
X87181928Y5771797D01*
X86860539Y5450407D01*
X86894296Y5513356D01*
X87085852Y6141746D01*
X87151134Y6795431D01*
X87087634Y7449293D01*
X86897792Y8078203D01*
X86588904Y8657992D01*
X86583828Y8665589D01*
X86145374Y8965769D01*
X83979605Y6800000D01*
X83993748Y6785857D01*
X83814143Y6606252D01*
X83800000Y6620395D01*
X81634231Y4454626D01*
X81934411Y4016172D01*
X82397055Y3768072D01*
X81530000Y3768072D01*
X81405518Y3755812D01*
X81285820Y3719502D01*
X81175506Y3660537D01*
X81078815Y3581185D01*
X80999463Y3484494D01*
X80960000Y3410665D01*
X80960000Y5037916D01*
X81011096Y4942008D01*
X81016172Y4934411D01*
X81454626Y4634231D01*
X83620395Y6800000D01*
X83606253Y6814142D01*
X83785858Y6993747D01*
X83800000Y6979605D01*
X85965769Y9145374D01*
X85665589Y9583828D01*
X85560842Y9640000D01*
X96930263Y9640000D01*
X96905927Y9517658D01*
G37*
%TD.AperFunction*%
D24*
X95136525Y7123368D02*
X95343368Y6916525D01*
X95517760Y6800000D01*
X95343368Y6683475D01*
X95136525Y6476632D01*
X95020000Y6302240D01*
X94903475Y6476632D01*
X94696632Y6683475D01*
X94520594Y6801100D01*
X94750269Y6972412D01*
X94945178Y7188645D01*
X95014805Y7305534D01*
X95136525Y7123368D01*
%TA.AperFunction,Conductor*%
D21*
G36*
X95136525Y7123368D02*
G01*
X95343368Y6916525D01*
X95517760Y6800000D01*
X95343368Y6683475D01*
X95136525Y6476632D01*
X95020000Y6302240D01*
X94903475Y6476632D01*
X94696632Y6683475D01*
X94520594Y6801100D01*
X94750269Y6972412D01*
X94945178Y7188645D01*
X95014805Y7305534D01*
X95136525Y7123368D01*
G37*
%TD.AperFunction*%
D24*
X112916525Y7123368D02*
X113123368Y6916525D01*
X113297760Y6800000D01*
X113123368Y6683475D01*
X112916525Y6476632D01*
X112800000Y6302240D01*
X112683475Y6476632D01*
X112476632Y6683475D01*
X112300594Y6801100D01*
X112530269Y6972412D01*
X112725178Y7188645D01*
X112794805Y7305534D01*
X112916525Y7123368D01*
%TA.AperFunction,Conductor*%
D21*
G36*
X112916525Y7123368D02*
G01*
X113123368Y6916525D01*
X113297760Y6800000D01*
X113123368Y6683475D01*
X112916525Y6476632D01*
X112800000Y6302240D01*
X112683475Y6476632D01*
X112476632Y6683475D01*
X112300594Y6801100D01*
X112530269Y6972412D01*
X112725178Y7188645D01*
X112794805Y7305534D01*
X112916525Y7123368D01*
G37*
%TD.AperFunction*%
D24*
X123034822Y7188645D02*
X123229731Y6972412D01*
X123459406Y6801100D01*
X123283368Y6683475D01*
X123076525Y6476632D01*
X122960000Y6302240D01*
X122843475Y6476632D01*
X122636632Y6683475D01*
X122462240Y6800000D01*
X122636632Y6916525D01*
X122843475Y7123368D01*
X122965195Y7305534D01*
X123034822Y7188645D01*
%TA.AperFunction,Conductor*%
D21*
G36*
X123034822Y7188645D02*
G01*
X123229731Y6972412D01*
X123459406Y6801100D01*
X123283368Y6683475D01*
X123076525Y6476632D01*
X122960000Y6302240D01*
X122843475Y6476632D01*
X122636632Y6683475D01*
X122462240Y6800000D01*
X122636632Y6916525D01*
X122843475Y7123368D01*
X122965195Y7305534D01*
X123034822Y7188645D01*
G37*
%TD.AperFunction*%
D24*
X141993748Y6814142D02*
X141979605Y6800000D01*
X141993748Y6785857D01*
X141814143Y6606252D01*
X141800000Y6620395D01*
X141785858Y6606252D01*
X141606253Y6785857D01*
X141620395Y6800000D01*
X141606253Y6814142D01*
X141785858Y6993747D01*
X141800000Y6979605D01*
X141814143Y6993747D01*
X141993748Y6814142D01*
%TA.AperFunction,Conductor*%
D21*
G36*
X141993748Y6814142D02*
G01*
X141979605Y6800000D01*
X141993748Y6785857D01*
X141814143Y6606252D01*
X141800000Y6620395D01*
X141785858Y6606252D01*
X141606253Y6785857D01*
X141620395Y6800000D01*
X141606253Y6814142D01*
X141785858Y6993747D01*
X141800000Y6979605D01*
X141814143Y6993747D01*
X141993748Y6814142D01*
G37*
%TD.AperFunction*%
D24*
X104037000Y8197000D02*
X104057000Y8197000D01*
X104057000Y7943000D01*
X104037000Y7943000D01*
X104037000Y7923000D01*
X103783000Y7923000D01*
X103783000Y7943000D01*
X103763000Y7943000D01*
X103763000Y8197000D01*
X103783000Y8197000D01*
X103783000Y8217000D01*
X104037000Y8217000D01*
X104037000Y8197000D01*
%TA.AperFunction,Conductor*%
D21*
G36*
X104037000Y8197000D02*
G01*
X104057000Y8197000D01*
X104057000Y7943000D01*
X104037000Y7943000D01*
X104037000Y7923000D01*
X103783000Y7923000D01*
X103783000Y7943000D01*
X103763000Y7943000D01*
X103763000Y8197000D01*
X103783000Y8197000D01*
X103783000Y8217000D01*
X104037000Y8217000D01*
X104037000Y8197000D01*
G37*
%TD.AperFunction*%
D24*
X137456176Y9573795D02*
X137396310Y9484200D01*
X137363158Y9497932D01*
X137076260Y9555000D01*
X136783740Y9555000D01*
X136496842Y9497932D01*
X136226589Y9385990D01*
X135983368Y9223475D01*
X135776525Y9016632D01*
X135660000Y8842240D01*
X135543475Y9016632D01*
X135336632Y9223475D01*
X135093411Y9385990D01*
X134823158Y9497932D01*
X134536260Y9555000D01*
X134243740Y9555000D01*
X133956842Y9497932D01*
X133686589Y9385990D01*
X133443368Y9223475D01*
X133236525Y9016632D01*
X133120000Y8842240D01*
X133003475Y9016632D01*
X132796632Y9223475D01*
X132553411Y9385990D01*
X132283158Y9497932D01*
X131996260Y9555000D01*
X131703740Y9555000D01*
X131416842Y9497932D01*
X131146589Y9385990D01*
X130903368Y9223475D01*
X130696525Y9016632D01*
X130574805Y8834466D01*
X130505178Y8951355D01*
X130310269Y9167588D01*
X130076920Y9341641D01*
X129814099Y9466825D01*
X129666890Y9511476D01*
X129437000Y9390155D01*
X129437000Y8197000D01*
X129457000Y8197000D01*
X129457000Y7943000D01*
X129437000Y7943000D01*
X129437000Y7923000D01*
X129183000Y7923000D01*
X129183000Y7943000D01*
X129163000Y7943000D01*
X129163000Y8197000D01*
X129183000Y8197000D01*
X129183000Y9390155D01*
X128953110Y9511476D01*
X128805901Y9466825D01*
X128543080Y9341641D01*
X128309731Y9167588D01*
X128114822Y8951355D01*
X128045195Y8834466D01*
X127923475Y9016632D01*
X127716632Y9223475D01*
X127473411Y9385990D01*
X127203158Y9497932D01*
X126916260Y9555000D01*
X126623740Y9555000D01*
X126336842Y9497932D01*
X126066589Y9385990D01*
X125823368Y9223475D01*
X125616525Y9016632D01*
X125494805Y8834466D01*
X125425178Y8951355D01*
X125230269Y9167588D01*
X124996920Y9341641D01*
X124734099Y9466825D01*
X124586890Y9511476D01*
X124357000Y9390155D01*
X124357000Y8197000D01*
X124377000Y8197000D01*
X124377000Y7943000D01*
X124357000Y7943000D01*
X124357000Y7923000D01*
X124103000Y7923000D01*
X124103000Y7943000D01*
X124083000Y7943000D01*
X124083000Y8197000D01*
X124103000Y8197000D01*
X124103000Y9390155D01*
X123873110Y9511476D01*
X123725901Y9466825D01*
X123463080Y9341641D01*
X123229731Y9167588D01*
X123034822Y8951355D01*
X122965195Y8834466D01*
X122843475Y9016632D01*
X122636632Y9223475D01*
X122393411Y9385990D01*
X122123158Y9497932D01*
X121836260Y9555000D01*
X121543740Y9555000D01*
X121256842Y9497932D01*
X121103414Y9434380D01*
X120991085Y9509437D01*
X120830025Y9576150D01*
X120659045Y9610160D01*
X120484715Y9610160D01*
X120313735Y9576150D01*
X120152675Y9509437D01*
X120007725Y9412584D01*
X119929974Y9334833D01*
X119853411Y9385990D01*
X119583158Y9497932D01*
X119296260Y9555000D01*
X119003740Y9555000D01*
X118716842Y9497932D01*
X118446589Y9385990D01*
X118203368Y9223475D01*
X117996525Y9016632D01*
X117880000Y8842240D01*
X117763475Y9016632D01*
X117556632Y9223475D01*
X117313411Y9385990D01*
X117043158Y9497932D01*
X116756260Y9555000D01*
X116463740Y9555000D01*
X116176842Y9497932D01*
X115906589Y9385990D01*
X115663368Y9223475D01*
X115456525Y9016632D01*
X115340000Y8842240D01*
X115223475Y9016632D01*
X115016632Y9223475D01*
X114773411Y9385990D01*
X114503158Y9497932D01*
X114216260Y9555000D01*
X113923740Y9555000D01*
X113636842Y9497932D01*
X113366589Y9385990D01*
X113123368Y9223475D01*
X112916525Y9016632D01*
X112794805Y8834466D01*
X112725178Y8951355D01*
X112530269Y9167588D01*
X112296920Y9341641D01*
X112034099Y9466825D01*
X111886890Y9511476D01*
X111657000Y9390155D01*
X111657000Y8197000D01*
X111677000Y8197000D01*
X111677000Y7943000D01*
X111657000Y7943000D01*
X111657000Y7923000D01*
X111403000Y7923000D01*
X111403000Y7943000D01*
X111383000Y7943000D01*
X111383000Y8197000D01*
X111403000Y8197000D01*
X111403000Y9390155D01*
X111173110Y9511476D01*
X111025901Y9466825D01*
X110763080Y9341641D01*
X110529731Y9167588D01*
X110334822Y8951355D01*
X110265195Y8834466D01*
X110143475Y9016632D01*
X109936632Y9223475D01*
X109693411Y9385990D01*
X109423158Y9497932D01*
X109136260Y9555000D01*
X108843740Y9555000D01*
X108556842Y9497932D01*
X108286589Y9385990D01*
X108250439Y9361835D01*
X108259040Y9405075D01*
X108259040Y9579405D01*
X108246987Y9640000D01*
X137522381Y9640000D01*
X137456176Y9573795D01*
%TA.AperFunction,Conductor*%
D21*
G36*
X137456176Y9573795D02*
G01*
X137396310Y9484200D01*
X137363158Y9497932D01*
X137076260Y9555000D01*
X136783740Y9555000D01*
X136496842Y9497932D01*
X136226589Y9385990D01*
X135983368Y9223475D01*
X135776525Y9016632D01*
X135660000Y8842240D01*
X135543475Y9016632D01*
X135336632Y9223475D01*
X135093411Y9385990D01*
X134823158Y9497932D01*
X134536260Y9555000D01*
X134243740Y9555000D01*
X133956842Y9497932D01*
X133686589Y9385990D01*
X133443368Y9223475D01*
X133236525Y9016632D01*
X133120000Y8842240D01*
X133003475Y9016632D01*
X132796632Y9223475D01*
X132553411Y9385990D01*
X132283158Y9497932D01*
X131996260Y9555000D01*
X131703740Y9555000D01*
X131416842Y9497932D01*
X131146589Y9385990D01*
X130903368Y9223475D01*
X130696525Y9016632D01*
X130574805Y8834466D01*
X130505178Y8951355D01*
X130310269Y9167588D01*
X130076920Y9341641D01*
X129814099Y9466825D01*
X129666890Y9511476D01*
X129437000Y9390155D01*
X129437000Y8197000D01*
X129457000Y8197000D01*
X129457000Y7943000D01*
X129437000Y7943000D01*
X129437000Y7923000D01*
X129183000Y7923000D01*
X129183000Y7943000D01*
X129163000Y7943000D01*
X129163000Y8197000D01*
X129183000Y8197000D01*
X129183000Y9390155D01*
X128953110Y9511476D01*
X128805901Y9466825D01*
X128543080Y9341641D01*
X128309731Y9167588D01*
X128114822Y8951355D01*
X128045195Y8834466D01*
X127923475Y9016632D01*
X127716632Y9223475D01*
X127473411Y9385990D01*
X127203158Y9497932D01*
X126916260Y9555000D01*
X126623740Y9555000D01*
X126336842Y9497932D01*
X126066589Y9385990D01*
X125823368Y9223475D01*
X125616525Y9016632D01*
X125494805Y8834466D01*
X125425178Y8951355D01*
X125230269Y9167588D01*
X124996920Y9341641D01*
X124734099Y9466825D01*
X124586890Y9511476D01*
X124357000Y9390155D01*
X124357000Y8197000D01*
X124377000Y8197000D01*
X124377000Y7943000D01*
X124357000Y7943000D01*
X124357000Y7923000D01*
X124103000Y7923000D01*
X124103000Y7943000D01*
X124083000Y7943000D01*
X124083000Y8197000D01*
X124103000Y8197000D01*
X124103000Y9390155D01*
X123873110Y9511476D01*
X123725901Y9466825D01*
X123463080Y9341641D01*
X123229731Y9167588D01*
X123034822Y8951355D01*
X122965195Y8834466D01*
X122843475Y9016632D01*
X122636632Y9223475D01*
X122393411Y9385990D01*
X122123158Y9497932D01*
X121836260Y9555000D01*
X121543740Y9555000D01*
X121256842Y9497932D01*
X121103414Y9434380D01*
X120991085Y9509437D01*
X120830025Y9576150D01*
X120659045Y9610160D01*
X120484715Y9610160D01*
X120313735Y9576150D01*
X120152675Y9509437D01*
X120007725Y9412584D01*
X119929974Y9334833D01*
X119853411Y9385990D01*
X119583158Y9497932D01*
X119296260Y9555000D01*
X119003740Y9555000D01*
X118716842Y9497932D01*
X118446589Y9385990D01*
X118203368Y9223475D01*
X117996525Y9016632D01*
X117880000Y8842240D01*
X117763475Y9016632D01*
X117556632Y9223475D01*
X117313411Y9385990D01*
X117043158Y9497932D01*
X116756260Y9555000D01*
X116463740Y9555000D01*
X116176842Y9497932D01*
X115906589Y9385990D01*
X115663368Y9223475D01*
X115456525Y9016632D01*
X115340000Y8842240D01*
X115223475Y9016632D01*
X115016632Y9223475D01*
X114773411Y9385990D01*
X114503158Y9497932D01*
X114216260Y9555000D01*
X113923740Y9555000D01*
X113636842Y9497932D01*
X113366589Y9385990D01*
X113123368Y9223475D01*
X112916525Y9016632D01*
X112794805Y8834466D01*
X112725178Y8951355D01*
X112530269Y9167588D01*
X112296920Y9341641D01*
X112034099Y9466825D01*
X111886890Y9511476D01*
X111657000Y9390155D01*
X111657000Y8197000D01*
X111677000Y8197000D01*
X111677000Y7943000D01*
X111657000Y7943000D01*
X111657000Y7923000D01*
X111403000Y7923000D01*
X111403000Y7943000D01*
X111383000Y7943000D01*
X111383000Y8197000D01*
X111403000Y8197000D01*
X111403000Y9390155D01*
X111173110Y9511476D01*
X111025901Y9466825D01*
X110763080Y9341641D01*
X110529731Y9167588D01*
X110334822Y8951355D01*
X110265195Y8834466D01*
X110143475Y9016632D01*
X109936632Y9223475D01*
X109693411Y9385990D01*
X109423158Y9497932D01*
X109136260Y9555000D01*
X108843740Y9555000D01*
X108556842Y9497932D01*
X108286589Y9385990D01*
X108250439Y9361835D01*
X108259040Y9405075D01*
X108259040Y9579405D01*
X108246987Y9640000D01*
X137522381Y9640000D01*
X137456176Y9573795D01*
G37*
%TD.AperFunction*%
%TD*%
M02*
